<?xml version="1.0" encoding="UTF-8" standalone="no"?>
<svg width="53px" height="55px" viewBox="0 0 53 55" version="1.1" xmlns="http://www.w3.org/2000/svg" xmlns:xlink="http://www.w3.org/1999/xlink" xmlns:sketch="http://www.bohemiancoding.com/sketch/ns">
    <!-- Generator: Sketch 3.2.2 (9983) - http://www.bohemiancoding.com/sketch -->
    <title>Fill 5 + Fill 6</title>
    <desc>Created with Sketch.</desc>
    <defs></defs>
    <g id="Page-1" stroke="none" stroke-width="1" fill="none" fill-rule="evenodd" sketch:type="MSPage">
        <g id="Share-Tool---Expanded" sketch:type="MSArtboardGroup" transform="translate(-277.000000, -73.000000)">
            <g id="SHARE-THIS-PAGE-2-+-Rectangle-38-+--2" sketch:type="MSLayerGroup" transform="translate(189.000000, 17.000000)">
                <g id="social-icons---rollovers" transform="translate(32.000000, 56.000000)" sketch:type="MSShapeGroup">
                    <g id="Fill-5-+-Fill-6" transform="translate(56.000000, 0.000000)">
                        <path d="M26.3188953,54.7435897 C40.6933768,54.7435897 52.3464965,42.6427981 52.3464965,27.7136367 C52.3464965,12.7866807 40.6933768,0.683683693 26.3188953,0.683683693 C11.9444138,0.683683693 0.291294161,12.7866807 0.291294161,27.7136367 C0.291294161,42.6427981 11.9444138,54.7435897 26.3188953,54.7435897" id="Fill-5" fill="#415E9C"></path>
                        <path d="M20.039483,23.1364191 L22.7311148,23.1364191 L22.7311148,20.4205225 C22.7311148,19.2230139 22.7597831,17.3760277 23.5975335,16.2325503 C24.4798791,15.0218096 25.6913788,14.1981089 27.7746062,14.1981089 C31.1691414,14.1981089 32.5983076,14.7009302 32.5983076,14.7009302 L31.926196,18.8403845 C31.926196,18.8403845 30.8038864,18.5040676 29.7580256,18.5040676 C28.7111029,18.5040676 27.7746062,18.893313 27.7746062,19.9805538 L27.7746062,23.1364191 L32.0652902,23.1364191 L31.7658661,27.1810431 L27.7746062,27.1810431 L27.7746062,41.2280619 L22.7311148,41.2280619 L22.7311148,27.1810431 L20.039483,27.1810431 L20.039483,23.1364191" id="Fill-6" fill="#FFFFFF"></path>
                    </g>
                </g>
            </g>
        </g>
    </g>
</svg>