<?xml version="1.0" encoding="UTF-8" standalone="no"?>
<svg width="18px" height="17px" viewBox="0 0 18 17" version="1.1" xmlns="http://www.w3.org/2000/svg" xmlns:xlink="http://www.w3.org/1999/xlink" xmlns:sketch="http://www.bohemiancoding.com/sketch/ns">
    <!-- Generator: Sketch 3.2.2 (9983) - http://www.bohemiancoding.com/sketch -->
    <title>Fill 2</title>
    <desc>Created with Sketch.</desc>
    <defs></defs>
    <g id="Page-1" stroke="none" stroke-width="1" fill="none" fill-rule="evenodd" sketch:type="MSPage">
        <g id="CaseStudy-PillarOne-2" sketch:type="MSArtboardGroup" transform="translate(-273.000000, -29.000000)" fill="#FFFFFF">
            <g id="entire-page" sketch:type="MSLayerGroup" transform="translate(-111.000000, -105.000000)">
                <g id="HEADER" transform="translate(0.000000, 105.000000)" sketch:type="MSShapeGroup">
                    <g id="Imported-Layers" transform="translate(374.000000, 17.000000)">
                        <path d="M21.6277419,22.9103226 C22.3032258,22.2787097 23.103871,21.9632258 24.0290323,21.9632258 C25.0058065,21.9632258 25.8374194,22.3064516 26.5245161,22.9929032 C27.2109677,23.68 27.5541935,24.5116129 27.5541935,25.4883871 C27.5541935,26.4651613 27.2109677,27.2967742 26.5245161,27.983871 C25.8374194,28.6703226 25.0058065,29.0135484 24.0290323,29.0135484 C23.0522581,29.0135484 22.2206452,28.6703226 21.5341935,27.983871 C20.8470968,27.2967742 20.503871,26.4651613 20.503871,25.4883871 C20.503871,25.4 20.5109677,25.2754839 20.5258065,25.1141935 L16.56,23.1309677 C15.883871,23.7625806 15.083871,24.0780645 14.1580645,24.0780645 C13.1812903,24.0780645 12.3496774,23.7348387 11.6632258,23.0483871 C10.976129,22.3619355 10.6329032,21.5296774 10.6329032,20.5529032 C10.6329032,19.576129 10.976129,18.7445161 11.6632258,18.0580645 C12.3496774,17.3709677 13.1812903,17.0277419 14.1580645,17.0277419 C15.083871,17.0277419 15.883871,17.3432258 16.56,17.9748387 L20.5258065,15.9922581 C20.5109677,15.8303226 20.503871,15.7058065 20.503871,15.6174194 C20.503871,14.6406452 20.8470968,13.8090323 21.5341935,13.1219355 C22.2206452,12.4354839 23.0522581,12.0922581 24.0290323,12.0922581 C25.0058065,12.0922581 25.8374194,12.4354839 26.5245161,13.1219355 C27.2109677,13.8090323 27.5541935,14.6406452 27.5541935,15.6174194 C27.5541935,16.5941935 27.2109677,17.4258065 26.5245161,18.1129032 C25.8374194,18.7993548 25.0058065,19.1425806 24.0290323,19.1425806 C23.103871,19.1425806 22.3032258,18.8270968 21.6277419,18.1954839 L17.6612903,20.1787097 C17.676129,20.34 17.683871,20.4645161 17.683871,20.5529032 C17.683871,20.6412903 17.676129,20.7664516 17.6612903,20.9277419 L21.6277419,22.9103226" id="Fill-2"></path>
                    </g>
                </g>
            </g>
        </g>
    </g>
</svg>