<?xml version="1.0" encoding="UTF-8" standalone="no"?>
<svg width="53px" height="55px" viewBox="0 0 53 55" version="1.1" xmlns="http://www.w3.org/2000/svg" xmlns:xlink="http://www.w3.org/1999/xlink" xmlns:sketch="http://www.bohemiancoding.com/sketch/ns">
    <!-- Generator: Sketch 3.2.2 (9983) - http://www.bohemiancoding.com/sketch -->
    <title>Fill 1 + Fill 2</title>
    <desc>Created with Sketch.</desc>
    <defs></defs>
    <g id="Page-1" stroke="none" stroke-width="1" fill="none" fill-rule="evenodd" sketch:type="MSPage">
        <g id="Share-Tool---Expanded" sketch:type="MSArtboardGroup" transform="translate(-277.000000, -179.000000)">
            <g id="SHARE-THIS-PAGE-2-+-Rectangle-38-+--2" sketch:type="MSLayerGroup" transform="translate(189.000000, 17.000000)">
                <g id="social-icons---rollovers" transform="translate(32.000000, 56.000000)" sketch:type="MSShapeGroup">
                    <g id="Fill-1-+-Fill-2" transform="translate(55.000000, 106.000000)">
                        <path d="M27.0261556,54.7435897 C41.400637,54.7435897 53.0537567,42.6427981 53.0537567,27.7136367 C53.0537567,12.7866807 41.400637,0.683683693 27.0261556,0.683683693 C12.6506123,0.683683693 0.998554387,12.7866807 0.998554387,27.7136367 C0.998554387,42.6427981 12.6506123,54.7435897 27.0261556,54.7435897" id="Fill-1" fill="#55ACEE"></path>
                        <path d="M40.0840203,20.6322367 C39.1252261,21.0744107 38.0931684,21.3732365 37.0122686,21.5066606 C38.1175896,20.819692 38.9659579,19.7313485 39.3641283,18.4345989 C38.3299471,19.0708442 37.1864018,19.5328665 35.9664077,19.7809691 C34.9927484,18.701447 33.6007448,18.0277106 32.0622145,18.0277106 C29.109383,18.0277106 26.7150518,20.5153528 26.7150518,23.5819012 C26.7150518,24.0185618 26.7596468,24.4408875 26.8520224,24.8466732 C22.4073792,24.6151107 18.4670851,22.4053434 15.8264192,19.0421746 C15.3666651,19.8658753 15.10228,20.819692 15.10228,21.8374641 C15.10228,23.7627404 16.047271,25.464173 17.482808,26.4609942 C16.6057714,26.4334272 15.7807623,26.1809139 15.0587467,25.7674095 L15.0587467,25.8357756 C15.0587467,28.528516 16.9020101,30.773569 19.3504925,31.2819037 C18.9013563,31.4131224 18.4299226,31.4781804 17.9404385,31.4781804 C17.5964193,31.4781804 17.2598326,31.4451001 16.9349255,31.380042 C17.6144696,33.5853986 19.5893947,35.1931036 21.9306365,35.2350054 C20.1001146,36.7258264 17.7939118,37.6134824 15.2880929,37.6134824 C14.8559453,37.6134824 14.4291066,37.5892235 14.0118241,37.5373976 C16.3785488,39.1120222 19.1912243,40.0316559 22.2109485,40.0316559 C32.0515966,40.0316559 37.4295511,31.5686 37.4295511,24.226968 C37.4295511,23.9854814 37.425304,23.7450975 37.4157479,23.5080217 C38.460547,22.7251201 39.3683754,21.7459418 40.0840203,20.6322367" id="Fill-2" fill="#FFFFFF"></path>
                    </g>
                </g>
            </g>
        </g>
    </g>
</svg>