<?xml version="1.0" encoding="UTF-8" standalone="no"?>
<svg width="80px" height="80px" viewBox="-9 -13 80 80" version="1.1" xmlns="http://www.w3.org/2000/svg" xmlns:xlink="http://www.w3.org/1999/xlink" xmlns:sketch="http://www.bohemiancoding.com/sketch/ns">
    <!-- Generator: Sketch 3.2.1 (9977) - http://www.bohemiancoding.com/sketch -->
    <title>icon-business</title>
    <desc>Created with Sketch.</desc>
    <defs></defs>
    <g id="Page-1" stroke="none" stroke-width="1" fill="none" fill-rule="evenodd" sketch:type="MSPage">
        <g id="icon-business" sketch:type="MSLayerGroup" fill="#FFFFFF">
            <path d="M54.6,33.1 C53.1,33.1 52,32.8 50,32.1 L50,41.5 C50,42.1 49.8,42 49.2,42 L12.9,42 C12.3,42 12,42.1 12,41.5 L12,32.1 C10,32.7 9,33.1 7.5,33.1 C7.1,33.1 6,33.1 6,33 L6,50.8 C6,52.4 7.7,54 9.3,54 L52.8,54 C54.4,54 56,52.4 56,50.8 L56,33 C56,33.1 55,33.1 54.6,33.1 L54.6,33.1 Z" id="Shape" sketch:type="MSShapeGroup"></path>
            <path d="M53.4,0 L8.7,0 C7.3,0 6.2,1.1 6.2,2.5 C6.2,3.9 7.3,5 8.7,5 L53.4,5 C54.8,5 55.9,3.9 55.9,2.5 C55.9,1.1 54.8,0 53.4,0 L53.4,0 Z" id="Shape" sketch:type="MSShapeGroup"></path>
            <path d="M61.4,20.1 L55.6,7 L35.3,7 L35.2,7 L27,7 C27,7 27,7 26.9,7 L6.6,7 L0.8,20.1 C-0.9,23.8 0.8,28.3 4.5,30 C8.2,31.7 12.6,30.1 14.3,26.3 L15.6,23.3 C15.6,26.1 17.3,28.8 20,30 C21,30.4 22,30.6 23,30.6 C25.9,30.6 28.6,28.9 29.8,26.2 L30.9,23.6 L32,26.2 C33.2,29 36,30.7 38.8,30.7 C39.8,30.7 40.8,30.5 41.8,30.1 C44.6,28.9 46.2,26.2 46.3,23.3 L47.6,26.3 C48.8,29.1 51.5,30.7 54.4,30.7 C55.4,30.7 56.4,30.4 57.4,30 C61.4,28.3 63,23.8 61.4,20.1 L61.4,20.1 Z" id="Shape" sketch:type="MSShapeGroup"></path>
        </g>
    </g>
</svg>
