<?xml version="1.0" encoding="UTF-8" standalone="no"?>
<svg width="80px" height="80px" viewBox="-2 -14 80 80" version="1.1" xmlns="http://www.w3.org/2000/svg" xmlns:xlink="http://www.w3.org/1999/xlink" xmlns:sketch="http://www.bohemiancoding.com/sketch/ns">
    <!-- Generator: Sketch 3.2.1 (9977) - http://www.bohemiancoding.com/sketch -->
    <title>icon-education</title>
    <desc>Created with Sketch.</desc>
    <defs></defs>
    <g id="Page-1" stroke="none" stroke-width="1" fill="none" fill-rule="evenodd" sketch:type="MSPage">
        <g id="icon-education" sketch:type="MSLayerGroup" fill="#FFFFFF">
            <g id="Group" sketch:type="MSShapeGroup">
                <path d="M57.5,22.8 L59.6,33.8 C59.7,35.3 58.8,36.7 56.9,38 C55,39.3 52.4,40.3 49.2,41.1 C45.9,41.9 42.4,42.2 38.6,42.2 C34.8,42.2 31.2,41.8 28,41.1 C24.7,40.3 22.2,39.3 20.3,38 C18.4,36.7 17.5,35.3 17.6,33.8 L19.6,22.8 L36.9,28.3 C37.4,28.5 37.9,28.5 38.5,28.5 C39.1,28.5 39.6,28.4 40.1,28.3 L57.5,22.8 L57.5,22.8 Z" id="Shape"></path>
                <path d="M75.7,11.7 L38.9,0.1 L38.6,0.1 L38.3,0.1 L1.5,11.7 C1,11.9 0.8,12.2 0.8,12.7 C0.8,13.2 1,13.5 1.5,13.7 L12.4,17.1 C10.5,19.8 9.4,23.4 9.2,27.9 C7.8,28.7 7.1,29.9 7.1,31.5 C7.1,33 7.7,34.2 9,35 C9,35 7.1,48.2 7.1,49.2 C7.1,50.2 8.7,51.7 11.4,51.7 C14.1,51.7 15.7,50.2 15.5,49.2 C15.3,48.2 13.6,35 13.6,35 C14.9,34.2 15.5,33 15.5,31.5 C15.5,29.9 14.8,28.7 13.4,27.9 C13.5,25.7 13.9,23.7 14.5,22 C15.1,20.3 15.9,19.1 16.8,18.4 L16.8,18.4 C20.6,15 36.1,11 36.2,12.5 C36.3,13.2 33.8,13.4 32.2,13.7 C26.3,15 20.8,17.5 18.9,19.1 L38.2,25.2 L38.5,25.2 L38.8,25.2 L75.6,13.6 C76.1,13.4 76.3,13.1 76.3,12.6 C76.4,12.3 76.2,11.9 75.7,11.7 L75.7,11.7 Z" id="Shape"></path>
            </g>
        </g>
    </g>
</svg>
