<?xml version="1.0" encoding="UTF-8" standalone="no"?>
<svg width="80px" height="80px" viewBox="-9 -15 80 80" version="1.1" xmlns="http://www.w3.org/2000/svg" xmlns:xlink="http://www.w3.org/1999/xlink" xmlns:sketch="http://www.bohemiancoding.com/sketch/ns">
    <!-- Generator: Sketch 3.2.1 (9977) - http://www.bohemiancoding.com/sketch -->
    <title>icon-technology</title>
    <desc>Created with Sketch.</desc>
    <defs></defs>
    <g id="Page-1" stroke="none" stroke-width="1" fill="none" fill-rule="evenodd" sketch:type="MSPage">
        <g id="icon-technology" sketch:type="MSLayerGroup" fill="#FFFFFF">
            <path d="M51.8,39.4 L11.5,39.4 C7.9,39.4 4.9,36.4 4.9,32.8 L4.9,7.1 C4.9,3.5 7.9,0.5 11.5,0.5 L51.8,0.5 C55.4,0.5 58.4,3.5 58.4,7.1 L58.4,32.8 C58.4,36.5 55.4,39.4 51.8,39.4 L51.8,39.4 Z M11.4,5.6 C10.6,5.6 9.9,6.3 9.9,7.1 L9.9,32.8 C9.9,33.6 10.6,34.3 11.4,34.3 L51.7,34.3 C52.5,34.3 53.2,33.6 53.2,32.8 L53.2,7.1 C53.2,6.3 52.5,5.6 51.7,5.6 L11.4,5.6 L11.4,5.6 Z" id="Shape" sketch:type="MSShapeGroup"></path>
            <g id="Group" transform="translate(0.000000, 42.000000)" sketch:type="MSShapeGroup">
                <path d="M4.3,4.6 L59,4.6" id="Shape"></path>
                <path d="M59,8.5 L4.3,8.5 C2.1,8.5 0.4,6.8 0.4,4.6 C0.4,2.4 2.1,0.7 4.3,0.7 L59,0.7 C61.2,0.7 62.9,2.4 62.9,4.6 C62.9,6.8 61.1,8.5 59,8.5 L59,8.5 Z" id="Shape"></path>
            </g>
            <path d="M40.8,14.5 L16,14.5 C15.1,14.5 14.3,13.7 14.3,12.8 C14.3,11.9 15.1,11.1 16,11.1 L40.9,11.1 C41.8,11.1 42.6,11.9 42.6,12.8 C42.5,13.8 41.8,14.5 40.8,14.5 L40.8,14.5 Z" id="Shape" sketch:type="MSShapeGroup"></path>
            <path d="M40.8,21.3 L16,21.3 C15.1,21.3 14.3,20.5 14.3,19.6 C14.3,18.7 15.1,17.9 16,17.9 L40.9,17.9 C41.8,17.9 42.6,18.7 42.6,19.6 C42.5,20.6 41.8,21.3 40.8,21.3 L40.8,21.3 Z" id="Shape" sketch:type="MSShapeGroup"></path>
            <path d="M32.5,28.1 L16,28.1 C15.1,28.1 14.3,27.3 14.3,26.4 C14.3,25.5 15.1,24.7 16,24.7 L32.5,24.7 C33.4,24.7 34.2,25.5 34.2,26.4 C34.2,27.3 33.4,28.1 32.5,28.1 L32.5,28.1 Z" id="Shape" sketch:type="MSShapeGroup"></path>
        </g>
    </g>
</svg>
