<?xml version="1.0" encoding="UTF-8" standalone="no"?>
<svg width="80px" height="80px" viewBox="0 0 30 30" version="1.1" xmlns="http://www.w3.org/2000/svg" xmlns:xlink="http://www.w3.org/1999/xlink" xmlns:sketch="http://www.bohemiancoding.com/sketch/ns">
    <!-- Generator: Sketch 3.2.1 (9977) - http://www.bohemiancoding.com/sketch -->
    <title>icon-youth</title>
    <desc>Created with Sketch.</desc>
    <defs></defs>
    <g id="Page-1" stroke="none" stroke-width="1" fill="none" fill-rule="evenodd" sketch:type="MSPage">
        <g id="icon-youth" sketch:type="MSLayerGroup" fill="#FFFFFF">
            <path d="M15.2,0.5 C7.1,0.5 0.6,7.1 0.6,15.1 C0.6,23.2 7.2,29.7 15.2,29.7 C23.3,29.7 29.8,23.1 29.8,15.1 C29.8,7 23.2,0.5 15.2,0.5 L15.2,0.5 Z M15.7,27.6 L15.6,27.3 L18.5,25.2 L22.5,24.1 L23,24.8 C21,26.5 18.5,27.5 15.7,27.6 L15.7,27.6 L15.7,27.6 Z M19.4,18 L16.9,20.5 L11,19.3 L9.8,15.9 L13,13.3 L18.1,14.5 L19.4,18 L19.4,18 Z M20.6,17.4 L19.2,13.8 L21.6,9.8 L26,10.9 L27,14.3 L23.7,18.7 L20.6,17.4 L20.6,17.4 Z M26.5,9.5 L21.4,8.3 L18.3,4.7 L18.7,3 C22.1,4 24.9,6.4 26.5,9.5 L26.5,9.5 Z M17.4,2.7 L16.9,4.6 L12.6,6.5 L7.3,6.8 L6.8,5.8 C9,3.8 12,2.6 15.2,2.6 C15.9,2.5 16.7,2.6 17.4,2.7 L17.4,2.7 Z M7.3,8.1 L11.9,7.8 L12.3,12 L8.4,15.1 L6.3,15 L5.7,10.3 L7.3,8.1 L7.3,8.1 Z M3.3,11 L4.5,11.2 L5.1,15.9 L4.6,18.6 L3.3,19 C2.9,17.8 2.7,16.4 2.7,15.1 C2.6,13.7 2.8,12.3 3.3,11 L3.3,11 Z M3.7,20.3 L4.5,20.1 L7.8,23 L9.7,26.5 C7.1,25.2 5,23 3.7,20.3 L3.7,20.3 Z M9.1,22.2 L10.9,20.6 L16.5,21.8 L17.5,24.3 L14.6,26.3 L10.9,25.6 L9.1,22.2 L9.1,22.2 Z M24.1,23.9 L23.3,22.9 L24,20.3 L27.7,15.4 C27.6,18.8 26.2,21.8 24.1,23.9 L24.1,23.9 Z" id="Shape" sketch:type="MSShapeGroup"></path>
        </g>
    </g>
</svg>
