<svg xmlns="http://www.w3.org/2000/svg" class="world_map zoom4" height="127" id="svg2985" version="1.1" viewBox="1399 365 38 75" width="127">
  <title>World Map</title>
  <defs id="defs2987"/>
  <defs>
    <link xmlns="http://www.w3.org/1999/xhtml" href="../css/svg.css" type="text/css" rel="stylesheet"/>
  </defs>
  <style id="style_css_sheet" type="text/css">
/*
 * Below are Cascading Style Sheet (CSS) definitions in use in this file,
 * which allow easily changing how countries are displayed.
 *
 */
/* --- Custom styles for Peace Corps --- */
.world_map .world_map-is_selected {
  fill: #C94112 !important;
}
.world_map .landxx {
  fill: #F2EFE8;
  stroke: #ffffff;
  fill-rule: evenodd;
}
.world_map.zoom4 .landxx {
  stroke-width: 2px;
}
.world_map.zoom3 .landxx {
  stroke-width: 3px;
}
.world_map.zoom2 .landxx {
  stroke-width: 4px;
}
.world_map.zoom1 .landxx {
  stroke-width: 5px;
}
.world_map .coastxx {
  fill: #F2EFE8;
  stroke: #ffffff;
  stroke-width: 2px;
  fill-rule: evenodd;
}
.world_map .oceanxx {
  opacity: 1;
  color: #ccc;
  fill: #ffffff;
  stroke: #ffffff;
  stroke-width: 0.5;
  stroke-miterlimit: 1;
}

/* --- Original Styles --- *
/*
 * Circles around small countries
 *
 * Change opacity to 1 to display all circles.
 *
 */
.circlexx
{
   opacity:0;
   fill:#e0e0e0;
   stroke:#000000;
   stroke-width:0.5;
}

/*
 * Smaller circles around French DOMs and Chinese SARs
 *
 * Change opacity to 1 to display all subnational circles.
 *
 */
.subxx
{
   opacity:0;
   stroke-width:0.3;
}

/*
 * Circles around small, unrecognized countries
 *
 * Change opacity to 1 to display all circles.
 *
 */
.unxx
{
   opacity:0;
   fill:#e0e0e0;
   stroke:#000000;
   stroke-width:0.3;
}

/*
 * Circles around small countries, but with no permanent residents 
 *
 * Change opacity to 1 to display all circles.
 *
 */
.noxx
{
   opacity:0;
   fill:#e0e0e0;
   stroke:#000000;
   stroke-width:0.5;
}

/*
 * land
 */
.landxx
{
}
/*
 * Styles for coastlines of islands with no borders
 */


/*
 * Styles for nations with limited recognition
 */
.limitxx
{
   fill: #e0e0e0;
   stroke:#ffffff;
   stroke-width:0;
   fill-rule:evenodd;
}

/*
 * Styles for nations with no permanent population.
 */
.antxx
{
   fill: #e0e0e0;
   stroke:#ffffff;
   stroke-width:0;
   fill-rule:evenodd;
}

/*
 * Ocean
 */


/*
 * Additional style rules
 *
 * The following are examples of colouring countries.  You can substitute these with your own styles to colour the countries on the map.
 *
 * Color a few countries:
 *
 * .gb, .au, .nc
 * {
 *    fill:       #ff0000;
 * }
 *
 * Color a few small country circles (and the countries):
 *
 * .ms, .ky
 * {
 *    opacity:    1;
 *    fill:       #ff0000;
 * }
 *
 */

</style>
  <path class="oceanxx" d="M 2079.5058,1457.5605 615.24779,1457.5605 C 615.13079,1457.5605 615.07079,1457.5505 614.95179,1457.5215 611.67679,1456.6515 608.40179,1455.7815 605.12779,1454.9105 599.15079,1453.3225 593.22879,1451.5225 587.30779,1449.7385 564.39379,1442.8315 541.76579,1434.6995 519.46979,1426.0115 495.81079,1416.7935 472.34979,1407.0946 449.19179,1396.6816 426.78379,1386.6056 405.17679,1375.0536 383.76379,1363.0356 363.11779,1351.4496 343.01079,1338.8296 323.37979,1325.5996 302.29179,1311.3876 281.47879,1296.8506 261.05379,1281.7006 242.35079,1267.8276 223.73679,1253.6306 206.05279,1238.4686 186.98679,1222.1216 167.82379,1205.7706 150.35279,1187.6906 132.97779,1169.7106 116.33279,1151.0606 100.15679,1131.9976 84.352777,1113.3736 70.086776,1093.4716 56.901786,1072.9246 44.046786,1052.8916 32.093776,1032.1356 22.469776,1010.3426 17.516776,999.12753 12.408776,987.76556 8.7017761,976.06056 5.0657761,964.58166 1.5997761,953.04259 -1.5932239,941.43054 -8.0102239,918.09356 -14.055224,894.78356 -18.234224,870.92056 -22.491222,846.60856 -24.894222,822.19856 -26.943222,797.62156 -28.947222,773.58556 -28.829222,749.40156 -27.225222,725.34856 -25.648222,701.69856 -23.363222,677.92456 -19.274222,654.56456 -15.018224,630.25156 -9.3842239,606.45156 -2.8412239,582.66156 3.5687761,559.35256 10.483776,536.34856 20.265776,514.19856 30.320776,491.42956 42.318786,469.90956 55.502786,448.81656 68.512776,428.00356 83.108777,408.26756 98.686787,389.31756 113.73479,371.01156 129.68979,353.25256 146.15179,336.20856 163.77479,317.96256 182.64579,301.14556 201.89579,284.64756 220.33379,268.84456 239.55379,253.98456 258.95979,239.39656 278.42779,224.76056 298.39379,210.83356 318.55579,197.17556 339.26979,183.14456 360.47879,169.92056 382.15079,157.42556 403.46579,145.13656 425.31479,133.98856 447.60479,123.59356 469.58579,113.34356 492.14979,104.17656 514.74579,95.37556 537.44879,86.532565 560.37879,78.195565 583.63479,70.914565 589.69379,69.017565 595.80079,67.276565 601.90879,65.549565 604.63079,64.779565 607.36079,64.045565 610.09479,63.318565 611.59979,62.918565 613.56579,61.986565 615.13379,61.986565 L 2079.9638,61.986565 C 2079.9798,61.986565 2079.9958,61.986565 2080.0118,61.986565 2079.8448,61.986565 2079.6788,61.986565 2079.5118,61.986565 2102.8268,68.191565 2125.8778,75.323565 2148.5448,83.611565 2171.6378,92.054565 2194.6158,100.87956 2217.2348,110.52956 2240.5208,120.46556 2263.4848,130.95256 2285.8828,142.76456 2306.9808,153.89056 2327.8178,165.78556 2347.8608,178.72156 2368.9418,192.32656 2389.7498,206.29256 2410.2218,220.80056 2429.7368,234.62956 2448.9938,248.98756 2467.6208,263.99256 2486.8818,279.50856 2506.0408,295.30556 2524.0538,312.27356 2541.8708,329.05756 2558.7508,346.67256 2574.9408,365.03656 2591.2478,383.53256 2607.1478,402.30656 2621.4508,422.41856 2635.3488,441.96256 2648.4468,462.42756 2659.5898,483.67756 2671.1238,505.67356 2681.1048,528.35656 2688.6188,552.05056 2692.2518,563.50656 2695.3368,575.14756 2698.5608,586.72256 2701.7738,598.25356 2704.9238,609.81956 2707.4578,621.52456 2712.6258,645.40556 2716.6718,669.47856 2719.1178,693.79656 2721.5718,718.19256 2723.1798,742.56356 2722.9808,767.09056 2722.7908,790.65456 2720.6908,814.43756 2717.7688,837.81156 2714.7368,862.07056 2710.5198,886.16156 2704.6398,909.90056 2701.6808,921.84356 2698.3948,933.69556 2695.0378,945.53154 2691.7468,957.13466 2688.5558,968.83466 2684.3988,980.16156 2676.0918,1002.8036 2666.1688,1024.8836 2654.1338,1045.8046 2641.9958,1066.9066 2628.8498,1087.4866 2614.2378,1106.9696 2599.1658,1127.0666 2582.6678,1145.9446 2565.8948,1164.6296 2549.8298,1182.5266 2532.8918,1199.7316 2514.8648,1215.6616 2496.0788,1232.2646 2476.8978,1248.3126 2457.1558,1263.7656 2438.2988,1278.5276 2418.9668,1292.7306 2399.3188,1306.4206 2378.7018,1320.7866 2357.7538,1334.6106 2336.4758,1347.9776 2326.4088,1354.3016 2316.0058,1360.1326 2305.6418,1365.9516 2295.0348,1371.9086 2284.3858,1378.0166 2273.4448,1383.3436 2250.7338,1394.3986 2227.7768,1404.7266 2204.3888,1414.2665 2181.7848,1423.4875 2159.0678,1432.2695 2136.0228,1440.3345 2117.4118,1446.8465 2098.5568,1452.4975 2079.5058,1457.5605" id="ocean"/>
  <g id="rs">
    <title>Serbia</title>
    <path class="landxx rs- srb" d="M 1412.8746,360.84017 C 1411.7114,360.34722 1410.6808,362.11391 1410.2792,362.27648 1409.5738,362.56202 1408.3524,362.35008 1406.9026,362.83083 1407.3106,363.83883 1407.612,364.42267 1407.8349,365.47666 1407.975,366.14167 1408.1821,366.33361 1408.8681,366.3586 1406.8981,367.72762 1410.5743,368.56683 1411.1863,369.18082 1411.0963,369.09082 1409.1947,369.60897 1408.9437,369.70998 1409.5489,370.91265 1408.9057,371.52858 1408.7256,371.87704 1409.6349,371.52323 1410.4457,371.288 1410.6571,371.75105 1411.153,372.837 1411.2614,372.75365 1409.5988,375.27882 1409.0517,376.10984 1410.8168,377.34756 1412.3202,378.40341 1413.9493,379.91587 1411.1638,379.19038 1410.7327,379.53734 1410.4742,379.60204 1413.0235,382.41022 1412.488,382.66579 1411.08,383.33777 1409.6068,383.46907 1408.5708,383.49462 1409.0653,383.41872 1410.3249,384.94891 1412.2029,386.45217 1412.8002,386.93028 1412.9355,387.43002 1414.2833,387.88581 1415.3514,388.52213 1417.2831,387.91561 1417.6016,389.16445 1417.7384,389.25245 1416.1222,390.05601 1416.2218,390.09641 1416.3622,390.15331 1417.1972,391.52616 1416.903,391.67409 1418.8262,392.29515 1416.5214,393.47922 1419.8975,394.12153 1420.9174,394.31558 1420.887,398.86636 1420.9969,397.76398 1422.455,396.53254 1422.3439,394.30358 1425.7272,395.52482 1425.7632,394.43702 1426.8991,394.61812 1427.5034,394.1941 1428.1896,394.89444 1428.9481,393.47633 1430.0095,393.79959 1430.6713,394.00115 1435.14,393.51762 1434.016,391.85932 1433.3687,390.90438 1433.2064,389.78213 1433.764,389.18829 1434.3018,388.61551 1434.9767,389.24329 1435.5783,388.48275 1436.1688,387.73631 1436.6426,387.00309 1436.9642,386.24009 1435.9732,385.9261 1434.6994,384.63285 1433.9404,383.92185 1431.4994,381.63385 1432.7176,379.78626 1434.0916,377.49627 1433.7786,377.20927 1432.0779,375.48204 1432.7309,375.05203 1433.2779,374.69305 1433.9882,374.91986 1434.5452,374.64886 1433.9962,373.97685 1432.561,373.07171 1431.723,373.74172 1431.458,373.95472 1430.6877,375.26662 1430.4126,375.25362 1430.0366,375.23562 1429.3207,374.21708 1428.9007,374.0441 1427.9207,373.64009 1426.8219,373.32158 1425.8769,372.83458 1425.1763,372.47379 1425.6049,372.60119 1424.8869,372.34367 1425.7936,371.85719 1426.1702,371.07387 1424.9189,370.91951 1426.3219,369.60052 1425.184,369.32759 1424.001,368.89058 1422.786,368.44257 1421.2352,367.3468 1420.1822,366.63579 1421.4971,364.02678 1418.6876,364.01121 1418.3174,362.20088 1417.9869,360.5842 1414.5874,360.55592 1412.8746,360.84017 z" id="rs-"/>
    <g id="xk">
      <path class="limitxx xk srb" d="M 1416.3623,389.94751 C 1416.7509,389.65989 1417.5637,389.13913 1417.9667,389.32013 1418.0687,388.63313 1418.1418,389.41593 1418.4127,388.95877 1418.8529,388.21601 1419.3863,388.31955 1419.8723,388.11055 1420.8673,387.68155 1420.8397,387.22655 1420.3697,386.13355 1420.8427,386.06955 1421.436,385.74223 1421.829,385.47023 1422.131,387.43223 1426.9617,386.74303 1426.6217,388.69403 1426.4497,389.68003 1428.362,390.03069 1428.57,390.84069 1428.875,392.02669 1426.6523,393.24027 1427.5263,394.19827 1426.7343,394.56435 1425.5126,394.61471 1425.8076,395.57733 1424.6058,395.42781 1424.8132,394.75663 1423.0556,395.46431 1421.6552,396.02813 1421.7462,397.66257 1421.025,397.88148 1420.5465,397.74941 1421.2253,395.48841 1420.2357,394.71861 1419.9956,393.85512 1419.1386,394.1619 1418.2791,393.5074 1417.7134,392.59298 1418.123,392.12743 1417.066,391.79403 1416.8527,391.30085 1415.8868,390.34349 1416.3623,389.94751" id="xk-"/>
      <circle class="unxx xk srb" cx="1423.1255" cy="389.55505" id="xk_" r="4.2337999" rx="4.2337999" ry="4.2337999"/>
    </g>
  </g>
  <path class="landxx mkd" d="M 1420.0363,400.24555 C 1420.9343,400.11355 1420.3383,399.38355 1420.3283,398.84555 1420.3143,398.09855 1421.6313,397.72455 1421.8123,396.80855 1421.9703,396.00955 1422.6433,395.61855 1423.3123,395.29655 1424.7933,394.58655 1424.5243,395.52155 1425.8663,395.56555 1425.5813,394.48155 1426.3513,394.88555 1426.8763,394.34155 1427.1843,394.18655 1427.4913,394.19155 1427.8013,394.35755 1428.5383,394.57055 1428.6113,393.87455 1429.2463,393.76555 1429.9653,393.64255 1431.4583,393.92955 1432.0393,393.49055 1432.7703,392.93755 1433.5493,394.56655 1434.0073,394.98955 1435.7133,396.56455 1437.2024,397.03166 1437.1926,399.80399 1437.1926,400.38199 1437.5822,401.34009 1437.2496,401.99655 1437.0591,402.37225 1436.3561,401.95175 1436.4196,402.57841 1436.5086,403.45487 1434.8291,404.06151 1433.8242,403.76115 1432.6966,403.42411 1431.5636,403.70955 1430.5956,404.41455 1428.6746,405.81155 1427.1526,405.81855 1424.7986,406.19655 1423.5326,406.39955 1424.0736,405.52955 1423.0066,405.80255 1421.6966,406.13855 1422.3376,405.00055 1421.6476,404.46255 1420.2586,403.38055 1420.5876,401.78555 1420.0366,400.24555" id="mk">
    <title>Macedonia, the Former Yugoslav Republic of</title>
  </path>
  <g class="landxx coastxx eu ita" id="it" transform="translate(-29.9017,-45.0745)">
    <title>Italy</title>
    <path class="landxx eu ita" d="M 1353.5711,414.65164 C 1354.5811,413.57664 1357.2431,414.48464 1357.1191,412.24764 1357.0691,411.34564 1356.411,410.95 1355.838,410.332 1355.527,410.013 1355.1701,409.64432 1354.9011,409.28932 1355.7468,408.80713 1356.603,407.74092 1356.0773,407.16239 1356.9793,407.40239 1357.971,408.279 1358.939,407.942 1360.155,407.518 1360.7132,407.72227 1361.8742,407.80927 1362.6372,407.86627 1363.5707,406.94036 1363.9157,406.34836 1364.1957,405.89436 1364.237,405.492 1363.8967,405.072 1364.7227,404.85 1365.3257,404.201 1365.8367,403.559 1366.7325,404.11066 1366.3768,404.83194 1366.8662,405.61418 1367.3328,406.35991 1368.0418,406.55999 1368.6823,407.17827 1368.9304,407.41769 1368.9869,408.13197 1369.9251,408.70955 1370.2274,408.89569 1370.1019,406.85659 1370.7661,406.23418 1371.5218,405.52595 1371.7656,405.06534 1371.8636,403.91627 1372.0307,401.95811 1372.6773,403.34771 1373.1144,403.81209 1373.8453,404.58865 1374.1084,404.70505 1375.0379,404.38736 1376.5408,403.87369 1376.5351,404.97701 1377.5757,405.503 1377.6817,404.844 1378.1897,404.178 1377.3507,403.796 1376.5997,403.454 1377.5957,402.10809 1378.0757,402.01209 1378.5507,401.91709 1379.0739,402.61727 1379.5149,402.73827 1380.4859,403.00527 1379.5849,401.41782 1379.6818,401.09736 1379.8706,400.47606 1379.9569,400.27088 1380.0607,399.98291 1380.6907,400.04571 1382.2715,400.52909 1382.6345,400.71509 1383.5875,401.20409 1384.2377,399.946 1384.7957,399.444 1385.5407,398.775 1386.7127,398.965 1387.6167,399.018 1389.0827,399.105 1390.4877,398.006 1391.9067,398.302 1390.3347,399.245 1393.5278,401.70153 1394.4128,401.98253 1397.0748,402.82653 1398.9418,401.97353 1401.5998,402.74652 1401.4888,403.75352 1400.4049,404.4439 1399.8967,405.071 1400.4927,405.408 1401.0887,405.784 1401.7667,405.935 1401.1907,406.611 1400.309,407.586 1401.5567,407.951 1400.8169,408.91389 1402.0236,409.27455 1402.4222,409.35427 1403.3675,409.5433 1403.6365,411.11004 1402.1967,410.831 1403.2037,408.754 1400.4827,409.92 1399.9667,410.111 1399.7487,408.678 1398.0087,409.983 1397.5027,410.301 1396.9477,410.65 1396.3677,410.973 1395.7827,411.267 1395.3947,411.462 1392.1017,412.526 1394.1367,411.477 1393.5907,411.59 1392.8617,411.516 1392.4067,411.91 1392.0847,412.189 1392.2367,413.34 1391.6167,413.206 1391.6067,413.539 1392.8387,415.25 1392.9577,415.283 1394.7847,415.785 1393.6287,418.438 1392.5567,417.238 1390.4697,420.924 1395.1547,424.426 1397.6797,426.037 1398.9157,426.826 1400.9167,427.381 1401.7837,428.618 1403.0477,430.419 1403.7157,432.788 1404.4567,434.843 1405.4077,437.481 1408.8737,440.18 1411.3417,441.314 1413.1687,442.154 1414.1417,442.413 1416.1737,442.141 1416.9327,442.04 1420.2827,441.547 1419.8677,443.286 1419.6697,444.116 1417.2957,444.888 1418.1647,445.903 1419.1027,446.998 1421.5867,447.621 1422.8597,448.075 1424.8897,448.8 1426.7157,449.517 1428.4147,450.871 1430.1477,452.252 1432.2757,452.662 1433.9667,454.187 1435.1037,455.212 1436.6187,456.286 1436.3347,457.994 1436.2697,458.382 1436.1887,460.128 1435.6057,460.186 1434.8117,460.265 1433.8297,459.793 1433.4087,459.103 1432.4897,457.597 1432.5507,455.853 1430.2757,456.082 1428.4487,456.266 1428.0807,455.073 1427.8257,454.39 1425.8977,454.715 1425.4747,454.696 1424.2597,456.488 1423.5077,457.599 1422.9607,458.993 1422.6857,460.308 1422.3707,461.815 1424.2917,462.182 1425.3317,462.66 1427.0017,463.427 1427.3037,464.62 1427.4677,466.308 1427.7437,469.158 1422.8137,467.109 1423.2757,470.55 1423.5017,472.233 1423.0467,472.365 1421.9727,473.508 1421.0647,474.476 1420.3607,475.67 1419.2767,476.464 1418.2577,477.211 1417.3967,476.791 1416.8857,475.702 1416.1087,474.044 1418.5157,473.275 1418.6377,471.767 1418.6787,471.255 1418.4297,470.638 1418.7837,470.181 1419.3737,469.417 1420.5317,469.988 1420.8467,469.005 1421.1207,468.149 1420.0447,467.178 1419.8337,466.396 1419.5057,465.181 1419.4007,464.113 1418.7447,463.003 1417.9587,461.673 1417.8417,459.68 1416.7967,458.556 1416.1737,457.887 1415.7397,458.046 1415.1507,458.535 1414.4477,459.12 1413.7247,457.932 1413.2637,457.562 1412.7417,457.144 1411.8927,457.254 1411.7317,456.413 1411.5997,455.72 1412.0537,455.513 1411.6857,454.661 1410.8907,452.822 1408.8217,452.779 1407.3077,453.741 1408.0847,452.562 1407.8377,451.456 1406.2377,451.617 1405.0457,451.736 1404.3717,449.977 1403.9407,449.155 1403.1757,447.694 1402.2697,448.544 1401.0207,448.176 1400.3537,447.98 1399.7317,447.666 1399.0147,447.837 1397.5127,448.194 1398.4757,447.996 1397.4407,447.151 1396.4137,446.314 1395.1157,446.084 1394.0957,445.16 1392.9627,444.135 1392.2967,442.619 1391.0567,441.754 1389.9807,441.002 1389.5627,441.193 1388.8447,440.019 1388.0957,438.793 1386.1737,437.353 1384.7087,438.261 1385.5487,436.854 1382.1217,433.222 1380.8537,433.402 1381.0037,433.381 1378.9787,427.645 1378.9017,427.272 1378.2067,423.895 1375.9067,424.272 1373.4787,422.637 1370.9667,420.946 1367.7737,420.027 1365.6657,422.756 1364.9167,423.725 1364.2957,424.843 1363.1797,425.445 1362.7847,425.659 1359.1704,426.80528 1359.4169,425.87946 1359.5979,425.19963 1362.2977,422.20476 1359.0847,423.34181 1357.1633,424.02178 1353.5423,420.98964 1355.9242,419.02164 1356.7789,418.31541 1356.6248,417.73137 1355.6122,417.22064 1353.9418,416.37814 1353.4556,415.09597 1353.6777,415.008" id="path2906"/>
    </g>
  <g class="landxx coastxx eu deu" id="de" transform="translate(-29.9017,-45.0745)">
    <title>Germany</title>
    <path class="landxx eu deu" d="M 1366.5765,332.3355 C 1365.9045,332.6125 1365.8348,333.57077 1365.9718,334.14978 1365.9718,333.75778 1366.3315,333.41727 1366.7781,333.24264 1366.4563,333.13649 1366.2923,332.82357 1366.5765,332.3355 z M 1367.4837,333.14185 C 1367.2681,333.14085 1367.0772,333.17705 1366.8789,333.24264 1367.2555,333.33454 1367.7879,333.27464 1368.0884,333.24264 1367.8913,333.15954 1367.6992,333.14324 1367.4837,333.14185 z M 1369.2312,333.03494 C 1368.6027,332.97024 1368.8234,333.17943 1368.1892,333.24264 1368.6052,333.45464 1369.06,334.75471 1369.298,335.15771 1369.509,335.51271 1370.4901,336.20362 1370.2051,336.66961 1369.7361,337.43661 1368.4208,337.01193 1367.8869,337.97993 1368.5929,338.27793 1369.2895,338.14693 1370.0035,337.97993 1368.4035,338.71593 1370.1297,339.22058 1370.4067,340.09659 1369.7297,340.06259 1369.4785,340.48872 1370.0035,341.00373 1370.5765,341.56473 1371.4132,341.39149 1372.1202,341.60849 1372.8712,341.83949 1373.2528,342.43959 1373.7329,343.01959 1374.3089,343.71459 1375.0797,343.79791 1375.7487,344.32991 1374.0127,344.14091 1373.552,342.69587 1372.221,341.91087 1371.348,341.39687 1370.3348,342.00387 1369.3988,341.91087 1368.3088,341.80287 1367.2505,341.4498 1367.0805,342.9188 1367.0125,343.5048 1367.4947,343.9665 1367.4837,344.53149 1367.3247,344.95249 1367.2623,345.3988 1367.1813,345.84181 1367.1113,345.11381 1367.2888,344.41653 1366.4757,344.02753 1365.5217,343.57153 1365.1782,344.47426 1365.7702,345.13625 1365.2442,345.26925 1364.7931,345.15885 1364.3591,344.83387 1366.7281,343.23387 1360.3128,342.98239 1359.6218,343.12039 1358.8278,343.27839 1357.4902,344.54764 1357.5051,345.43863 1357.5181,346.17764 1360.2801,346.56941 1359.8234,346.34577 1358.7044,345.79777 1357.9386,350.03046 1357.7067,350.98227 1357.4077,352.20932 1356.373,351.29697 1355.4893,351.88941 1354.1137,352.81162 1356.6798,353.24357 1357.0246,353.81671 1358.0119,355.45789 1354.592,355.94809 1355.6553,357.17241 1356.6936,358.36803 1352.0498,358.08896 1351.4158,357.76495 1351.8348,358.91794 1351.069,357.90997 1350.248,358.44098 1350.33,358.70825 1350.0408,358.7749 1350.248,359.14653 1351.167,359.46253 1352.2863,361.62283 1351.7833,362.59184 1351.3323,363.45984 1349.5692,364.73247 1350.4196,365.9175 1350.8753,366.55258 1350.5196,367.43276 1350.6095,367.6661 1350.8839,368.37676 1352.5419,368.41245 1351.7599,369.42745 1352.7489,369.26044 1352.6606,370.39852 1352.9516,371.0045 1349.9792,370.9765 1349.478,373.32542 1352.3162,374.7094 1354.3119,375.68254 1352.3171,377.56012 1353.0413,378.41186 1353.1517,378.54172 1355.0752,380.91604 1355.5565,380.83702 1356.2536,380.72255 1355.7018,380.29811 1356.7166,380.43174 1357.2579,380.50304 1356.7166,381.39185 1357.6415,381.15512 1357.985,381.06702 1358.4747,381.16412 1358.8277,381.12562 1360.1107,380.68162 1360.2424,381.37619 1361.4244,381.7482 1362.4904,382.08319 1363.8203,382.22699 1364.9282,382.412 1364.0272,383.20699 1363.176,383.99265 1362.444,384.94966 1361.605,386.04564 1361.3173,387.71434 1360.7595,388.92846 1360.3865,389.74045 1358.9898,395.60017 1361.0802,393.83729 1360.3582,394.67628 1363.9945,394.08685 1364.6615,394.12185 1365.9605,394.18985 1367.1029,394.14155 1367.3829,393.3155 1365.8239,393.89649 1366.3462,391.79773 1368.1892,392.71074 1369.4892,393.35576 1372.6354,393.75049 1373.9604,394.52049 1374.7734,394.99249 1379.0952,394.70071 1377.9662,396.64168 1379.5302,396.59568 1379.6371,395.17603 1379.9821,394.02106 1380.6471,394.61604 1382.1718,394.60401 1383.0059,394.52502 1382.2819,394.88301 1384.1508,395.42316 1384.5178,395.43216 1385.3787,395.45216 1385.9242,394.70681 1386.7352,394.62582 1388.3062,394.4678 1389.8313,393.25148 1391.5733,393.81947 1391.5533,393.55047 1391.5453,393.27212 1391.4725,393.01312 1392.2815,393.11312 1393.0685,393.51709 1393.8915,393.51709 1394.2905,393.38107 1394.6871,393.2947 1395.1011,393.21471 1395.5501,393.26571 1395.737,394.13923 1396.109,394.42423 1397.231,395.28521 1397.2201,394.84846 1397.5201,393.81947 1397.8191,392.79347 1396.5419,393.18858 1396.613,392.30757 1396.7,391.23258 1396.7384,391.27851 1395.9074,390.3925 1395.2814,389.72449 1395.7054,389.20562 1396.4114,388.8806 1397.2184,388.50961 1399.8383,388.06173 1399.8383,386.86473 1399.8383,384.75774 1401.2828,386.59122 1402.0558,385.65521 1403.4608,383.9552 1401.0142,382.77142 1399.9391,382.12744 1398.6831,381.37444 1397.6155,380.33161 1396.3106,379.60761 1394.6716,378.6966 1394.3428,376.62448 1392.7828,375.77746 1394.0128,374.79946 1393.4398,373.99543 1392.2788,373.35842 1391.3806,372.86487 1391.1803,371.97292 1390.7669,371.24176 1391.4203,371.14636 1391.9268,371.40661 1392.178,372.35049 1392.431,369.69548 1395.8437,370.72905 1397.2177,369.62907 1399.4107,367.87307 1403.0744,366.90372 1405.6844,365.89971 1405.4504,365.67771 1405.2248,365.50495 1404.9788,365.29495 1405.9788,365.05895 1406.2212,364.77183 1407.0838,365.90583 1409.2044,368.63969 1410.5465,363.57785 1409.4967,362.26557 1409.3647,361.44957 1408.0639,361.40925 1407.9909,360.75925 1407.8909,359.87625 1407.9589,359.57319 1407.2971,358.84418 1406.853,358.35618 1407.5187,357.9635 1407.7002,357.49876 1408.7413,354.83351 1406.077,354.11832 1406.7753,353.31837 1408.1753,351.71448 1404.3134,351.15562 1403.781,349.64805 1404.4923,349.08975 1406.739,345.64153 1405.2812,345.43866 1404.9842,344.32966 1404.6499,343.15525 1403.4669,342.71724 1402.7389,342.44824 1401.5541,342.25113 1401.451,341.30614 1401.398,340.81414 1401.1761,339.29026 1400.4431,339.29027 1399.9961,339.29027 1399.0913,339.29927 1399.3344,339.79424 1398.5254,339.32324 1396.7772,337.24262 1396.0082,337.17361 1394.3932,337.02861 1393.2853,337.16011 1392.0773,338.38313 1391.8812,337.02813 1394.1493,336.93182 1395.0003,337.07282 1393.3463,336.45682 1393.1077,336.93217 1391.8757,337.87916 1391.2947,338.32716 1390.0178,338.82624 1390.3638,339.79424 1390.5248,338.16024 1387.2836,339.61561 1386.5336,340.09662 1388.0046,339.38162 1386.3744,340.58113 1386.1304,341.30614 1385.5315,340.74414 1382.0273,339.96313 1382.8043,341.30614 1382.6613,340.78914 1382.3034,340.51 1381.7963,340.399 1382.7713,339.398 1383.651,338.73441 1383.913,337.2744 1382.586,337.5374 1381.8,338.068 1380.486,337.47599 1379.668,337.10699 1378.3672,336.60738 1377.9662,337.77837 1377.8602,337.25837 1377.8358,337.22843 1378.1678,336.77044 1377.4958,336.47144 1376.7101,336.50044 1376.0511,336.77044 1376.5531,336.53444 1377.6963,335.02596 1376.4543,335.05695 1378.4503,334.14995 1371.6583,333.5442 1371.9303,333.69319 1371.3258,333.36219 1369.8927,333.10309 1369.2312,333.03497 z" id="path3884"/>
    </g>
  <g class="landxx coastxx hrv" id="hr" transform="translate(-29.9017,-45.0745)">
    <title>Croatia</title>
    <path class="landxx hrv" d="M 1401.337,411.84 C 1401.831,411.955 1402.3193,412.08445 1402.817,412.191 1403.4639,412.3295 1403.9702,411.70835 1404.3154,411.58745 1404.4887,411.52675 1405.9437,412.92305 1408.0448,410.23818 1409.3489,411.51588 1410.4094,411.05393 1411.824,411.84 1413.6727,412.86731 1412.7556,410.59955 1413.577,410.4 1413.219,410.319 1412.918,410.012 1412.567,409.896 1415.4212,407.84864 1416.0964,410.00736 1415.0612,406.11118 1414.9294,405.61502 1417.4336,405.16889 1417.8427,404.77737 1418.4714,404.1757 1417.8207,404.38636 1418.4742,403.95736 1418.4842,403.95336 1419.461,404.204 1419.628,404.209 1417.7315,402.04246 1421.2982,402.90731 1422.0113,403.62174 1422.5151,404.12647 1425.2338,405.75581 1425.5945,406.24818 1427.0418,407.8758 1429.1484,408.67346 1431.4092,409.40936 1436.7919,409.70923 1434.352,408.2964 1436.7348,407.96846 1436.6798,407.4488 1437.1135,408.55045 1437.4217,409.199 1437.8667,410.1353 1437.4607,411.353 1438.847,411.409 1436.555,413.002 1441.5985,413.9125 1441.0656,414.24327 L 1438.847,414.793 C 1439.574,415.984 1438.6439,417.94173 1437.1279,416.76773 1436.132,414.99792 1436.1613,415.93186 1435.659,415.45064 1434.723,415.10764 1433.8626,414.91087 1432.9167,415.15945 1431.8897,415.42935 1431.9561,414.63975 1430.9541,415.19185 1430.2138,415.59972 1429.7078,415.17625 1429.0048,415.0083 1427.3101,414.9718 1425.8213,414.42702 1424.2335,413.97339 1423.0619,414.07912 1424.6853,414.57294 1422.8695,414.07921 1421.5399,413.71765 1421.4344,414.05821 1420.9779,414.88166 1419.9959,416.65304 1419.8539,415.87358 1418.1566,414.61741 1415.9727,413.00116 1416.2733,415.96173 1416.4067,417.06494 1416.4887,417.74688 1416.2825,417.87141 1416.9878,418.17539 1417.6198,418.44779 1418.6854,419.12326 1419.1329,419.74165 1420.0647,421.0294 1419.0939,422.82911 1421.0798,423.99012 1422.9791,425.10031 1424.0529,426.95102 1425.8113,428.26484 1427.2273,429.32284 1427.8765,430.63443 1429.0999,431.70085 1430.5765,432.98784 1429.8367,434.47027 1428.165,432.52003 1426.436,430.5029 1422.129,427.54703 1419.34,428.58603 1418.609,428.85803 1418.225,428.57703 1417.757,427.96903 1417.175,427.21403 1417.536,427.01203 1416.434,426.46503 1414.826,425.66603 1412.62,423.85503 1411.987,422.13703 1412.987,421.96503 1413.891,422.10903 1414.877,422.28203 1413.581,421.33003 1411.983,420.61703 1411.079,419.22003 1410.324,418.05303 1410.823,416.55803 1410.089,415.40103 1409.443,414.38403 1408.001,413.41203 1406.841,413.09503 1405.987,412.86203 1405.205,415.31903 1405.368,415.94603 1405.001,415.79403 1404.865,415.90303 1404.578,415.58603 1404.468,416.41003 1404.27,417.29203 1403.638,417.89003 1403.126,417.49503 1401.474,415.45103 1402.268,414.79403 1401.357,415.00503 1400.916,412.50703 1400.688,411.77003 1400.904,411.79203 1401.121,411.81503 1401.337,411.84003" id="path4066"/>
    <path class="landxx hrv" d="M 1429.917,433.944 C 1430.6635,433.28714 1431.5783,434.28448 1432.6004,435.18391 1433.8772,436.30744 1436.7268,436.54185 1435.827,437.616 1434.672,437.455 1432.664,435.822 1431.75,435.091 1430.95,434.451 1429.908,434.548 1428.987,434.232 1427.99,433.89 1427.163,433.005 1426.027,433.153 1427.206,432.247 1429.485,433.651 1430.427,434.377 1430.258,434.232 1430.087,434.088 1429.917,433.944" id="path4068"/>
    <path d="M 1406.667,415.944 C 1406.26,415.507 1406.141,415.004 1406.307,414.431 1407.139,415.803 1407.285,417.391 1407.747,418.895 1406.794,418.752 1405.864,416.649 1406.667,415.944" id="path4070"/>
    <path d="M 1407.888,420.408 C 1407.502,419.91 1407.095,419.43 1406.668,418.968 1407.184,419.336 1407.617,419.833 1407.888,420.408" id="path4072"/>
    <path d="M 1408.538,415.944 C 1407.892,415.875 1406.739,414.55 1407.818,414.215 1408.569,413.982 1409.146,415.658 1409.688,415.944 1409.298,416.342 1408.914,416.342 1408.538,415.944" id="path4074"/>
    <path d="M 1409.038,417.384 C 1409.278,417.528 1409.518,417.672 1409.758,417.816 1409.11,418.122 1408.871,417.978 1409.038,417.384" id="path4076"/>
    <path d="M 1410.478,422.784 C 1410.238,422.592 1409.998,422.4 1409.758,422.208 1410.075,422.308 1410.315,422.5 1410.478,422.784" id="path4078"/>
    <path d="M 1411.198,420.696 C 1410.498,420.024 1409.796,419.326 1409.328,418.464 1410.208,419.684 1411.758,420.126 1412.638,421.344 1411.938,421.881 1411.523,421.228 1411.198,420.696" id="path4080"/>
    <path d="M 1411.268,424.08 C 1411.031,423.864 1410.795,423.647 1410.558,423.432 1411.492,423.502 1411.712,424.597 1412.428,425.016 1411.879,424.904 1411.493,424.592 1411.268,424.08" id="path4082"/>
    <path d="M 1412.928,425.52 C 1413.487,425.832 1413.99,426.215 1414.438,426.672 1413.872,426.41 1413.276,426.057 1412.928,425.52" id="path4086"/>
    <path d="M 1412.928,424.296 C 1412.688,424.128 1412.448,423.96 1412.208,423.792 1412.569,423.804 1412.809,423.972 1412.928,424.296" id="path4088"/>
    <path d="M 1415.667,427.248 C 1415.93,427.368 1416.194,427.488 1416.457,427.608 1416.18,427.52 1415.917,427.399 1415.667,427.248" id="path4090"/>
    <path d="M 1419.768,428.688 C 1420.008,428.664 1420.248,428.64 1420.488,428.616 1420.252,428.712 1420.012,428.736 1419.768,428.688" id="path4092"/>
    <path d="M 1420.917,430.2 C 1420.677,430.08 1420.437,429.96 1420.197,429.84 1420.505,429.839 1420.745,429.959 1420.917,430.2" id="path4094"/>
    <path d="M 1423.078,430.776 C 1422.336,430.769 1421.402,430.59 1421.278,429.696 1422.275,429.665 1423.284,429.795 1424.228,430.128 1423.928,430.493 1423.544,430.709 1423.078,430.776" id="path4096"/>
    <path d="M 1424.448,433.872 C 1423.951,433.755 1423.448,433.684 1422.938,433.656 1423.829,432.881 1425.723,433.007 1426.678,433.584 1425.932,433.819 1425.149,433.419 1424.448,433.872" id="path4098"/>
    <path d="M 1425.748,432 C 1424.267,432.052 1422.774,431.916 1421.348,431.496 1423.039,430.94 1424.76,431.842 1426.468,431.784 1426.228,431.856 1425.988,431.928 1425.748,432" id="path4100"/>
    <path d="M 1430.568,435.6 C 1429.845,435.349 1429.084,435.25 1428.338,435.096 1429.099,434.929 1429.925,435.206 1430.568,435.6" id="path4102"/>
  </g>
  <path class="landxx eu rou" d="M 1416.7253,361.36555 C 1417.5063,360.82955 1418.1053,360.87455 1418.8933,361.07855 1419.6603,361.27655 1419.7073,360.28555 1420.3253,360.06955 1421.0043,359.83255 1421.7403,360.00455 1422.4213,359.79055 1423.4083,359.48055 1423.2173,358.28555 1423.6823,357.54555 1424.1243,356.84155 1424.7213,356.25055 1425.2183,355.58755 1425.8583,354.73455 1425.7773,353.97155 1426.3493,353.20055 1426.8533,352.52055 1427.4419,351.72177 1427.7172,350.90855 1428.0373,349.96273 1427.6622,349.52255 1428.3363,349.16455 1429.0003,348.81155 1429.1963,348.57255 1429.6563,347.98555 1430.3773,347.06755 1431.6913,347.72155 1432.5543,346.99855 1433.2653,346.40155 1433.7603,345.56355 1434.5443,345.04955 1435.6283,344.33755 1436.8543,345.23755 1437.9653,345.38255 1439.0233,345.52055 1440.0693,345.74255 1441.1303,345.85055 1442.3943,345.97955 1443.9953,345.42055 1445.1373,346.15655 1447.2983,347.55055 1447.4973,348.39155 1449.5073,346.47355 1450.7653,345.27255 1453.3833,345.88355 1454.9753,345.61655 1456.0233,345.44055 1455.8414,344.67864 1456.4414,344.01564 1457.0874,343.30164 1458.3304,343.25628 1459.2164,343.35728 1461.2014,343.58228 1462.3243,345.66855 1463.1563,347.24555 1464.0793,348.99355 1465.3803,350.51755 1466.7903,351.87055 1468.8493,353.84855 1469.8033,355.30655 1470.6323,358.02555 1470.9363,359.02055 1470.3423,360.02955 1470.1193,360.96955 1469.8633,362.05055 1470.3413,363.19855 1470.4223,364.28955 1470.5563,366.10255 1471.0013,366.84055 1472.4313,367.84955 1472.9803,368.23655 1474.291,369.18167 1475.1125,368.70545 1476.026,368.17586 1480.6929,365.59413 1481.3413,368.31355 1482.1646,371.76656 1480.3143,373.05555 1477.1263,373.02955 1477.5163,372.71555 1477.8523,370.82055 1477.0233,370.84855 1476.0343,370.88255 1476.5643,373.16755 1475.8353,373.74955 1476.3093,373.63855 1476.7893,373.56655 1477.2743,373.53355 1476.5483,373.84955 1475.2533,373.94655 1476.1253,374.90055 1476.3833,374.67855 1476.6233,374.43855 1476.8453,374.18055 1476.5363,375.31955 1475.3183,375.94455 1475.1153,377.13255 1474.8993,378.39955 1475.8559,380.47493 1475.0283,381.65793 1474.5473,381.25022 1473.472,381.69933 1472.9931,381.45073 1472.6123,381.25305 1471.2262,380.23555 1470.4767,379.55155 1469.4536,379.2364 1468.486,379.72217 1467.116,379.0637 1466.0109,378.53256 1464.1071,377.84044 1461.9813,378.70073 1457.3071,379.16101 1456.2996,381.78836 1454.1595,382.27295 1452.8449,382.57063 1451.0263,381.93104 1449.1267,381.68756 1446.8442,381.39501 1445.6294,382.04168 1444.3697,382.01234 1443.3171,381.98784 1442.0298,380.92434 1440.1858,380.85234 1439.2488,380.81574 1436.2316,381.61146 1435.5867,380.59055 1434.6427,379.09629 1438.3945,379.03192 1434.9487,377.78455 1434.0987,377.47686 1433.8054,377.52483 1432.6771,375.93953 1431.696,374.56104 1433.9939,374.89995 1434.4749,374.66495 1433.9329,374.00095 1432.7897,373.29555 1431.9167,373.60555 1431.3167,373.81855 1431.1607,375.40234 1430.4437,375.24734 1429.7247,375.09234 1428.6937,373.90534 1427.7757,373.64134 1426.7797,373.35434 1425.6137,373.09255 1424.8557,372.30955 1425.6907,372.06655 1425.8847,370.99655 1424.8557,370.87055 1425.8137,369.96955 1425.2967,369.34155 1424.1627,368.94455 1422.6347,368.40955 1421.4787,367.51255 1420.1607,366.62255 1421.3397,364.28455 1418.0717,362.86755 1416.7257,361.36555" id="ro">
    <title>Romania</title>
  </path>
  <path class="world_map-is_selected landxx alb" d="M 1412.2563,408.09355 C 1412.6463,407.42755 1412.9813,406.64355 1412.6963,405.86255 1413.7513,406.03155 1413.2113,403.61155 1413.4293,402.82755 1413.5973,402.22255 1412.6573,402.19255 1412.9963,401.42155 1413.2513,400.84355 1413.4613,400.23555 1413.5883,399.61555 1413.8033,398.55955 1413.6253,397.38655 1412.2563,397.72555 1411.7413,396.12755 1411.7536,393.98367 1412.7713,392.63596 1413.598,391.5412 1413.7344,389.79667 1414.8921,391.83776 1415.6257,393.13126 1416.7482,390.31175 1417.8371,392.39655 1418.0637,392.83047 1418.03,393.14542 1418.3875,393.49096 1419.0775,394.15796 1419.5402,393.46606 1420.5833,394.93436 1420.7586,395.18113 1421.0439,396.72914 1420.9729,397.93592 1419.8339,398.66046 1421.2368,399.81108 1420.0615,400.37154 1420.1155,400.80654 1420.4833,401.14055 1420.6743,401.50855 1420.7083,401.82555 1420.8077,401.99256 1420.6193,402.26056 1420.4783,402.95556 1421.0498,403.87607 1421.5179,404.24855 1422.0686,404.68676 1421.9089,405.77665 1422.9219,405.65855 1423.9101,405.54334 1423.8518,406.14049 1424.1609,406.83555 1425.363,409.53836 1423.4377,408.90691 1422.7501,410.61715 1422.5188,411.19229 1421.9295,412.52215 1421.2815,412.86556 1419.6071,413.75288 1419.6675,413.68368 1420.3259,415.29255 1418.8294,415.11407 1420.7831,416.19153 1418.8079,416.51776 1417.6606,416.70725 1417.3379,416.07455 1417.1929,415.15655 1416.8159,412.76655 1413.6409,411.91055 1412.2559,410.03655 1412.7409,410.11155 1413.0779,410.37555 1413.2659,410.82855 1413.9849,409.99555 1412.5939,409.46855 1413.3359,409.17255 1412.8959,408.89355 1412.5359,408.53255 1412.2559,408.09355" id="al">
    <title>Albania</title>
  </path>
  <path class="landxx bih" d="M 1386.4063,370.22155 C 1386.3253,367.87755 1388.2853,369.54255 1389.1893,370.27755 1390.1673,371.07355 1390.8473,370.40255 1391.2363,369.39455 1391.6103,368.42655 1393.0883,369.07755 1393.7563,369.21355 1393.8743,368.27155 1397.8303,369.86155 1398.7263,369.86155 1399.3453,369.86155 1400.4753,370.49155 1400.9763,370.13855 1402.1333,369.32555 1401.8333,370.30355 1402.8613,370.07655 1404.1143,369.79955 1405.2083,370.11255 1406.3803,370.58355 1407.3593,370.97855 1406.7443,371.92555 1408.0043,371.99455 1408.7893,372.03655 1409.8613,371.19455 1410.5483,371.53755 1411.6513,372.09055 1410.7283,373.61155 1410.2713,374.22555 1408.7513,376.26755 1410.4313,376.96355 1411.9203,378.09655 1414.4883,380.05155 1411.1783,379.08455 1410.8013,379.62655 1410.7533,379.69555 1412.5623,381.96155 1412.5743,382.51855 1412.5853,383.00455 1409.1613,383.65855 1408.5863,383.46855 1408.4463,384.37655 1409.5733,384.74355 1409.1663,385.70055 1408.6073,383.85855 1405.9423,386.19455 1406.7863,387.71655 1403.9699,387.09372 1407.5684,391.65654 1405.8228,391.62508 1404.7154,391.60518 1402.7713,390.26455 1401.9203,389.58255 1401.4693,389.22255 1401.4072,388.78974 1400.7774,388.70768 1400.195,388.63178 1400.0413,389.20324 1399.4473,388.36455 1401.3263,388.33955 1397.7617,385.35074 1397.4314,384.94079 1395.7397,382.84079 1394.4843,382.13355 1392.9483,380.40555 1392.1603,379.51855 1391.1173,379.05555 1390.3113,378.22055 1389.3633,377.23855 1389.9741,375.65755 1389.0751,374.56255 1388.3921,373.73055 1387.5163,373.51555 1386.6803,372.92855 1386.2583,372.63555 1386.4803,370.85955 1386.4063,370.22155" id="ba">
    <title>Bosnia and Herzegovina</title>
  </path>
  <path class="landxx eu bgr" d="M 1432.3463,381.23755 C 1432.2923,380.06055 1433.3093,378.45055 1434.0413,377.56955 1434.2753,377.28755 1436.2563,378.24555 1436.3763,378.50255 1436.7013,379.20455 1435.3223,379.90355 1435.7373,380.61855 1436.3423,381.66155 1439.6823,380.66655 1440.7203,380.88255 1442.4093,381.23455 1444.2603,382.42555 1445.9733,381.80855 1447.3523,381.31155 1449.0993,381.69755 1450.5653,381.81455 1452.7333,381.98755 1453.8923,382.96055 1455.8953,381.43555 1457.4433,380.25555 1458.5193,379.30455 1460.5043,378.96055 1462.3173,378.64655 1464.2603,377.63755 1466.0283,378.56255 1467.1533,379.15155 1468.7773,379.62655 1470.0413,379.39455 1470.4753,379.31555 1472.1113,381.07455 1472.7353,381.32455 1473.5783,381.66155 1475.0643,380.98455 1475.2123,382.20055 1475.3703,383.51355 1475.5563,384.52255 1473.9643,384.39955 1472.3743,384.27655 1471.6433,385.44055 1471.0023,386.75255 1470.4503,387.88255 1471.0473,389.14655 1470.3643,390.38455 1470.1543,390.76355 1469.9103,391.12555 1469.6843,391.49555 1469.3203,392.09455 1468.5803,391.68955 1468.2053,392.40055 1470.1643,392.84555 1470.5373,394.25955 1471.7983,395.57055 1473.3493,397.18455 1469.9333,397.16655 1468.9193,396.87955 1467.8193,396.56855 1467.7071,395.43682 1466.3161,395.83582 1465.2841,396.13282 1464.4653,396.41652 1463.4001,396.75982 1461.7952,397.27706 1462.8657,397.47151 1462.5153,397.65555 1461.9219,397.96717 1460.6981,398.55078 1461.3591,399.02382 1456.4584,398.05407 1462.0969,401.13652 1459.1706,402.226 1457.8554,402.71564 1458.195,401.88888 1454.4236,402.69501 1453.3347,402.92774 1452.4652,401.75383 1451.4967,401.809 1450.2375,401.8807 1450.1348,402.33097 1448.9494,400.79655 1448.2552,399.89805 1447.4847,400.08046 1446.4677,400.24446 1445.0627,400.47246 1444.1838,402.1092 1442.6926,402.07679 1440.7608,402.03479 1439.9015,401.98509 1439.2966,402.50833 1438.9652,402.79508 1437.9666,402.51943 1437.0699,402.24701 1437.8014,401.43133 1437.0159,400.23511 1437.1139,399.00466 1437.2119,397.76701 1435.9022,396.59844 1435.0353,395.88534 1434.1543,395.36134 1433.3969,394.14137 1432.6989,393.41837 1436.0123,392.433 1432.5959,391.65432 1433.5297,389.36655 1433.8514,388.5784 1434.6167,389.13755 1435.1507,388.79855 1435.8047,388.38255 1436.6457,386.98155 1436.9567,386.28055 1435.0281,385.66739 1432.6152,383.09868 1432.3467,381.23755" id="bg">
    <title>Bulgaria</title>
  </path>
  <g id="me">
    <title>Montenegro</title>
    <path class="landxx mne" d="M 1405.7063,391.60555 C 1407.5893,391.29555 1403.8173,387.08455 1406.7863,387.71755 1405.9423,386.19555 1408.6073,383.85955 1409.1663,385.70155 1409.5733,384.74455 1408.4463,384.37655 1408.5863,383.46955 1409.7943,383.86755 1410.1023,384.59095 1411.1133,385.46695 1412.4893,386.65795 1412.9187,387.20113 1414.5477,388.02213 1415.1827,388.34213 1417.0479,388.12955 1417.4409,388.82155 1418.0409,389.87755 1416.4816,389.80055 1416.3196,389.93455 1415.8236,390.34155 1417.6333,391.43255 1416.7223,391.89255 1416.1053,392.20455 1415.3583,392.59555 1414.8403,391.86255 1414.5563,391.46255 1414.3633,390.62355 1413.7273,391.34355 1412.1093,393.17455 1411.5646,395.20901 1412.3296,397.58101 1411.1586,396.91501 1409.9413,395.72355 1409.1603,394.63855 1408.9223,394.30655 1406.922,392.63292 1406.507,392.68892 1407.22,392.37292 1407.0713,392.43355 1407.8683,392.82855 1407.9473,391.61055 1405.3533,393.64755 1405.7063,391.60555" id="me-"/>
    <circle class="circlexx mne" cx="1410.6593" cy="390.19958" id="me." r="6.0130301" rx="6.0130301" ry="6.0130301"/>
  </g>
  <g class="landxx coastxx eu grc" id="gr">
    <title>Greece</title>
    <path class="landxx eu grc" d="M 1417.6563,416.37355 C 1418.1843,416.49355 1418.8683,416.59655 1419.3793,416.35155 1420.4663,415.83055 1418.6803,415.12555 1420.3263,415.29355 1419.7453,413.85255 1419.3513,413.90455 1420.7333,413.15655 1421.6043,412.68555 1422.1923,412.03055 1422.5033,411.08155 1422.9323,409.77155 1423.4053,409.88655 1424.2393,408.94955 1425.0453,408.04555 1423.8047,406.94437 1423.8507,406.01637 1424.4562,406.41638 1425.4109,405.86518 1426.4153,405.88734 1428.6501,405.93664 1429.7974,404.59567 1431.6483,403.77034 1432.8386,403.23956 1434.2425,403.94964 1435.5571,403.50255 1436.396,403.21726 1435.8621,402.10356 1437.0365,402.12735 1437.816,402.14315 1438.7363,402.91331 1439.4293,402.42731 1440.3583,401.77631 1441.7603,402.17131 1442.8103,402.02931 1443.8593,401.88731 1444.8573,400.72455 1445.8603,400.40655 1446.6493,400.15555 1447.9893,399.71255 1448.6743,400.42755 1449.2733,401.05155 1449.7403,402.21755 1450.8343,401.87055 1452.0183,401.49555 1452.7403,402.41955 1453.8543,402.63855 1454.8503,402.83355 1455.7473,402.21155 1456.7463,402.25155 1457.6453,402.28755 1458.8783,402.55555 1459.6593,401.95455 1460.6303,401.20555 1459.5643,400.26755 1459.2843,399.49455 1458.7843,398.10855 1461.8017,399.111 1462.1207,399.29 1463.1387,399.856 1462.9465,400.77756 1463.3315,401.77656 1461.1129,402.73037 1461.6753,403.29343 1461.5712,404.69418 1461.4902,405.78793 1460.8413,406.65705 1459.4873,407.30255 1459.9093,406.15255 1454.6313,405.91955 1453.8123,405.59555 1452.2193,404.96555 1452.2443,405.28355 1450.8173,406.22255 1449.8333,406.86955 1448.9213,405.02855 1447.9903,405.49155 1446.6843,406.14155 1446.6343,407.88555 1444.6513,407.16155 1443.1663,406.61955 1443.2713,407.32155 1443.6563,408.31055 1443.8653,408.84555 1444.6453,408.44855 1444.2213,409.21755 1443.9333,409.73955 1444.5643,410.35855 1444.9603,409.93255 1445.7693,409.06555 1447.8163,411.84655 1448.2563,412.34255 1447.1173,412.96455 1445.6743,410.51855 1444.4963,410.41955 1441.7773,410.19355 1445.3923,412.87155 1445.5253,413.63855 1444.2573,414.04955 1442.9313,411.82555 1441.8793,411.40355 1440.9993,411.05055 1440.8863,411.61155 1441.2223,412.27355 1441.7133,413.24055 1442.6653,413.48255 1443.4363,414.14255 1441.5813,414.91955 1441.1293,413.28855 1440.5933,412.12455 1439.9893,410.81155 1438.0303,410.63755 1437.1763,409.53455 1437.7353,409.37155 1438.0203,408.96555 1437.8963,408.38255 1433.8833,408.93355 1435.7273,413.40255 1437.2083,415.34955 1437.9953,416.38355 1443.1773,421.12155 1439.4773,421.48555 1441.0643,420.93355 1439.5633,418.76655 1438.3973,419.10955 1436.8733,419.55755 1438.1913,422.40355 1439.4073,421.91855 1438.6313,422.91855 1437.3463,423.52055 1436.0883,423.14255 1436.9133,423.56555 1439.1943,424.19155 1439.5423,424.99855 1439.8223,425.64655 1440.6073,424.59555 1441.0503,425.25555 1441.4673,425.87855 1440.4093,425.94355 1441.8663,426.35455 1443.4013,426.78755 1444.3483,427.67155 1445.7983,428.32255 1446.8693,428.80355 1446.8053,429.70355 1446.6703,430.71055 1446.5223,431.82055 1447.4723,432.81055 1446.8983,433.87155 1445.6763,432.90255 1444.6153,431.23455 1442.9773,430.92755 1441.7823,430.70355 1440.6233,431.65355 1439.4783,431.56655 1439.4573,432.56155 1440.3743,431.66255 1440.4383,432.72855 1440.4803,433.41955 1441.6603,435.89255 1441.8583,434.08755 1442.1063,434.58155 1443.4043,435.12055 1442.9283,435.81555 1443.0383,435.65455 1440.7653,436.81555 1441.1283,436.82355 1440.1123,436.80255 1440.8013,435.76955 1440.0243,435.45855 1439.2573,435.15155 1438.3243,435.08155 1437.6773,434.51955 1437.5483,436.29455 1439.2263,437.86255 1439.8123,439.44955 1440.1603,440.39355 1440.6163,441.21055 1440.3653,442.21355 1440.1443,443.09855 1441.4933,443.35655 1441.3023,444.18555 1441.2173,444.55355 1438.6673,441.98955 1438.4513,441.64655 1437.1823,439.62855 1436.0713,442.84555 1436.4473,444.02355 1435.3623,444.17855 1434.9803,441.10555 1434.1943,440.55455 1433.6903,440.20155 1433.8853,439.22555 1433.0683,439.30755 1432.0013,439.41455 1432.1833,440.77455 1432.2773,441.50355 1430.1163,441.13655 1429.3713,438.64755 1430.2363,436.86555 1430.9403,435.41655 1426.6923,432.63455 1426.0073,431.63855 1426.8613,431.36955 1427.2903,430.16755 1427.9043,429.59355 1428.5033,429.03455 1429.2033,429.63755 1429.8603,429.06255 1430.3113,428.66755 1430.8063,427.75955 1431.5273,427.89855 1432.8483,428.15355 1433.7463,429.51055 1435.2143,429.64155 1436.3583,429.74355 1437.1053,430.57955 1438.0323,431.13555 1438.7673,431.57655 1439.1243,430.69955 1439.8883,430.23955 1440.5043,429.86755 1441.3343,429.31855 1439.9593,429.14855 1439.2103,429.05555 1438.5693,429.16855 1437.8853,428.74155 1437.1043,428.25355 1436.9393,427.38655 1436.3063,428.39855 1435.9433,427.87655 1435.5103,427.41955 1435.0063,427.03055 1435.1213,428.90155 1432.4423,427.42255 1431.6783,427.59355 1429.7283,428.03055 1428.4843,428.64055 1427.4463,426.81555 1427.3103,427.47055 1426.7073,427.95455 1426.1563,428.25555 1425.7883,427.06755 1425.4863,425.76855 1424.4403,424.99055 1423.8873,424.57955 1422.3273,423.46455 1423.1263,422.63855 1423.4273,422.32655 1427.3783,423.57055 1425.5763,421.91855 1425.0193,421.40955 1422.9223,421.28355 1423.0563,422.56555 1422.4653,420.82055 1420.8463,420.57155 1419.7123,419.44355 1418.9163,418.65155 1419.0443,416.49555 1417.6563,416.37355" id="path6492"/>
    <path d="M 1417.5153,418.31755 C 1417.7783,418.48555 1418.0423,418.65355 1418.3053,418.82155 1416.9073,419.09155 1415.0703,416.69755 1415.1353,415.43755 1417.9353,415.16155 1415.5463,417.68355 1417.5153,418.31755" id="path6518"/>
    <path d="M 1421.6963,427.60555 C 1421.6963,427.36555 1421.6963,427.12655 1421.6963,426.88555 1422.2173,427.31455 1421.9553,428.07655 1422.4463,428.46955 1422.9863,428.90355 1423.5063,429.35955 1423.7073,430.05355 1423.0773,430.29855 1421.3513,430.09155 1421.4063,429.11755 1421.1683,429.26455 1420.9273,429.40855 1420.6863,429.54955 1419.9893,428.25055 1421.2443,428.46355 1421.6963,427.60555" id="path6520"/>
    <path d="M 1422.6963,423.64555 C 1423.0683,424.09055 1422.9913,426.19455 1422.1233,425.56155 1421.6193,425.19455 1421.9383,423.49655 1422.6963,423.64555" id="path6522"/>
    <path d="M 1423.0563,428.18155 C 1422.6983,427.75355 1422.4343,427.27355 1422.2663,426.74155 1422.6323,427.16455 1422.8953,427.64455 1423.0563,428.18155" id="path6524"/>
    <path d="M 1424.1363,433.86955 C 1423.4353,433.43855 1422.5403,432.80055 1422.6263,431.85255 1424.1453,431.84855 1425.0383,432.65255 1424.1363,433.86955" id="path6526"/>
    </g>
  <path class="landxx ukr" d="M 1428.3863,341.99755 C 1428.1533,340.47755 1429.4483,339.43055 1430.0693,338.16755 1430.4168,337.46055 1430.2071,336.49383 1430.5922,336.22749 1430.9774,335.96115 1432.0023,336.30509 1432.9263,336.95755 1433.0053,336.39555 1432.6502,336.3368 1432.2262,336.0438 1431.6152,335.6218 1431.9633,334.48155 1431.7023,333.84455 1430.8523,331.77855 1432.5733,330.39655 1433.9413,328.96455 1435.0703,327.78355 1436.2283,326.39455 1437.6333,325.53655 1439.1963,324.58255 1441.0783,323.91655 1438.9763,322.05255 1439.3883,321.87255 1439.7953,321.68055 1440.1963,321.47655 1438.4333,321.07455 1435.9573,317.28055 1436.0773,315.54155 1436.1813,314.04355 1438.2233,315.58555 1439.0573,315.14655 1439.8273,314.74155 1440.5203,314.14455 1441.0013,313.43055 1441.6093,312.53055 1443.1223,312.76655 1444.0293,312.76255 1446.0703,312.75255 1448.1223,312.57755 1450.1583,312.49955 1451.9653,312.43055 1453.4233,313.08255 1455.1073,313.50755 1455.9333,313.71555 1458.5633,313.44955 1459.1543,314.10255 1459.7733,314.78855 1460.3673,315.51955 1461.4003,315.17655 1462.2903,314.88155 1462.9463,315.73055 1463.7363,315.93155 1463.8683,314.73055 1464.3333,315.40555 1465.3313,315.29355 1466.0673,315.21055 1466.7133,315.17355 1467.3513,315.63855 1467.8033,315.96855 1468.4693,315.35355 1468.9973,315.57355 1469.5053,315.78455 1469.5283,316.62055 1470.0773,316.86855 1469.8913,315.41155 1471.6483,314.93355 1472.7183,315.50255 1473.8453,316.10055 1473.7903,317.77955 1475.4543,316.57455 1475.9343,316.22755 1476.3203,316.21155 1476.8703,316.48655 1477.5773,316.84055 1478.5183,316.09655 1479.3083,316.26855 1479.8053,316.37655 1481.9573,318.93555 1482.2623,317.59555 1482.6373,315.94155 1481.2123,315.40655 1482.1553,313.58855 1482.8253,312.29655 1484.0133,310.74055 1485.5883,311.51855 1485.8373,311.64155 1486.8133,311.14155 1487.0483,311.08355 1487.7833,310.90155 1488.8246,310.921 1489.5533,311.09755 1491.0017,311.44843 1492.485,311.86203 1492.7832,309.16796 1496.4924,309.68888 1495.6514,309.84008 1498.1201,309.03268 1499.2867,308.95178 1500.485,309.82645 1501.7451,309.11118 1502.4603,308.70523 1503.7379,310.10301 1504.0307,310.80365 1505.0919,313.34253 1506.3387,312.60231 1507.0093,313.98759 1506.4763,314.31859 1505.4334,314.32465 1505.0254,314.76465 1504.7874,315.02265 1507.1788,317.41353 1506.1028,318.04753 1507.0009,318.35019 1509.3826,319.2346 1510.496,318.63293 1511.7607,317.94947 1512.5103,319.9646 1513.8603,319.89159 1513.9063,320.27641 1513.2504,320.46455 1515.6847,324.96634 1516.8064,326.12884 1517.8253,325.00234 1518.6086,324.92804 1519.9899,324.79417 1521.3391,326.25308 1522.9543,326.75632 1523.9973,326.74932 1525.4227,325.50784 1527.5239,324.96579 1528.7318,324.6542 1529.599,325.82362 1529.977,326.64051 1530.5923,327.97014 1532.516,328.25741 1532.9303,329.44504 1534.6103,328.47804 1533.8473,327.80904 1535.8833,328.87504 1536.9373,329.42704 1539.7663,330.61304 1540.6403,329.59004 1541.3943,331.09404 1542.5913,330.19404 1543.4483,331.21104 1543.8703,331.71304 1544.5739,332.03599 1545.2073,332.19451 1546.3233,332.47381 1546.6418,331.59872 1547.4564,331.89745 1546.4504,332.85751 1548.6741,334.97723 1546.8965,336.29257 1546.3892,336.66795 1545.1546,336.50287 1545.6113,337.46057 1546.2067,338.70912 1547.5124,337.1855 1547.5513,338.75657 1546.6953,338.50057 1545.2584,339.28604 1545.7404,340.36504 1545.9054,340.73404 1548.6248,341.66604 1547.2138,342.69404 1547.5128,342.93604 1547.8498,343.00804 1548.2238,342.91004 1548.406,343.50734 1547.7089,345.83257 1547.445,346.2627 1546.6156,347.61446 1544.5513,346.48557 1543.2313,346.74857 1542.4603,346.90257 1541.7941,346.39423 1541.0473,346.79957 1540.3509,347.17757 1540.3219,348.11557 1539.3313,348.45157 1536.3824,350.16638 1537.6581,351.40138 1538.1203,351.42857 1537.5683,351.91257 1538.1313,352.71257 1537.4633,353.09857 1536.6473,353.57057 1534.5753,353.08657 1533.5963,353.26557 1532.6303,353.44357 1532.4983,354.48457 1531.4963,354.56057 1530.3153,354.65057 1528.9173,355.26957 1528.6203,356.54057 1528.0753,355.63057 1526.8233,355.70157 1526.0133,356.16457 1524.6483,356.94357 1523.6903,356.55657 1522.2473,356.98857 1519.8323,357.71257 1519.4493,361.10457 1517.0203,361.72357 1517.1163,361.30557 1520.5233,358.69357 1517.8203,358.33957 1518.7623,359.70557 1516.9453,359.96557 1516.1303,360.51457 1515.8338,360.71407 1516.6392,363.24186 1516.5999,363.48719 1516.4006,362.79063 1515.1614,361.81652 1515.0838,362.09108 1515.0038,361.87556 1516.0087,361.35477 1514.746,360.84219 1513.8089,364.9206 1512.4488,360.62691 1513.8514,361.67638 1513.9901,360.89118 1513.9384,359.8634 1513.9294,360.86484 1513.9754,360.95894 1513.5516,361.06477 1513.2585,361.02304 1512.8681,360.96744 1512.5489,360.32496 1512.417,361.46429 1512.5564,361.53799 1511.1739,359.87736 1511.1952,360.00247 1511.2632,360.68661 1511.9185,361.17705 1507.9749,360.48611 1508.2085,360.88723 1509.1141,361.62215 1510.0878,362.22663 1510.1698,361.78539 1510.6558,361.36893 1511.2709,362.75902 1511.0266,360.47018 1514.1874,364.07678 1514.2573,362.70502 1514.3353,362.81413 1514.7847,363.49361 1513.8456,364.27208 L 1515.1902,363.46756 C 1514.7494,364.20423 1517.6488,365.46394 1517.7603,365.60537 1519.077,367.27594 1516.8632,367.62943 1520.3789,368.63151 1520.2456,367.95252 1517.1862,364.87255 1517.7853,365.43686 1518.2692,365.89266 1519.4599,367.00932 1519.9725,367.29284 1520.4851,367.57635 1520.974,367.7867 1521.4123,367.89091 1521.8506,367.99512 1522.2384,367.99318 1522.5487,367.85211 1522.8591,367.71104 1523.0921,367.43085 1523.2209,366.97855 1523.9989,367.88155 1524.4949,367.60855 1525.3849,367.14455 1526.5739,366.52555 1528.0229,367.11755 1528.9809,367.91555 1527.8349,368.06855 1527.8539,368.62155 1527.8719,369.57155 1527.8929,370.73655 1526.8329,370.68255 1525.9399,370.78455 1524.9689,370.89455 1524.4359,370.85155 1523.5519,370.36355 1523.0169,370.06755 1522.2809,369.60455 1521.6309,369.85955 1520.9889,370.11255 1521.3379,370.78455 1520.9439,370.94155 1519.9849,371.32455 1519.4309,372.28055 1518.4119,372.42455 1517.0279,372.62055 1515.8079,372.48255 1514.7329,373.56555 1512.8859,375.42655 1509.4569,377.66055 1507.4499,374.32255 1508.8969,374.64955 1509.2579,369.77955 1507.0319,369.45155 1505.8009,369.26955 1505.1549,368.82455 1504.1129,368.20255 1503.1419,367.62355 1502.2409,368.03555 1501.2139,367.90755 1499.6539,367.71055 1503.1329,365.39355 1503.6709,365.17855 1504.7329,364.75555 1508.4079,364.16355 1508.7409,362.87455 1507.8289,362.90155 1507.6799,361.99355 1507.6609,361.29055 1506.6049,361.88455 1506.8719,362.03155 1505.5199,361.36555 1504.4099,360.81855 1502.9159,361.40355 1501.6979,361.42455 1500.3759,361.44755 1499.5499,361.59055 1498.3389,360.92155 1497.2979,360.34655 1496.1219,359.40755 1494.8509,359.77855 1498.6089,358.29655 1493.8949,358.86255 1492.9809,357.54655 1495.3299,358.69955 1498.4729,358.37555 1500.4609,356.89855 1499.1209,357.28055 1497.3029,357.93955 1496.1119,356.75755 1495.2159,355.86855 1495.8979,354.35655 1494.9209,353.44255 1495.6829,354.44255 1495.4389,355.39355 1495.4609,356.50555 1495.4779,357.35655 1493.5139,356.81555 1493.0509,357.11455 1492.7919,356.62055 1492.8159,356.14055 1493.1199,355.67455 1492.5339,355.79755 1492.4269,356.58055 1492.1369,356.99055 1491.7309,357.56655 1490.5449,357.02055 1489.9359,357.12655 1487.3319,357.57755 1487.7319,360.05555 1486.2109,361.64955 1486.0699,360.89255 1484.6289,358.60955 1483.6199,359.34555 1483.9919,360.40355 1485.6339,360.49455 1485.9469,361.55755 1486.3179,362.81455 1482.7909,365.12855 1481.8899,365.61055 1482.7069,365.06555 1483.7269,364.48955 1483.9799,363.45055 1483.0269,363.52155 1481.2849,366.67855 1481.0899,364.45855 1480.6389,364.95555 1480.0069,366.55655 1481.4489,365.89755 1481.2709,366.13055 1481.1049,366.37055 1480.9489,366.61855 1481.9649,366.76555 1482.5279,368.70555 1481.3799,369.06655 1481.0522,365.98952 1478.5078,367.44595 1477.0987,367.79392 1475.2918,368.24012 1474.8813,369.56393 1472.8401,368.19401 1472.5285,367.98491 1470.2548,366.76106 1471.9622,366.46828 1473.7235,366.16624 1473.1731,365.17201 1474.0191,364.11801 1474.9511,362.95601 1476.0236,362.04237 1475.7806,360.31637 1475.5676,358.80237 1475.3359,358.44255 1477.2089,357.76255 1477.3639,358.19955 1477.5299,358.63055 1477.7089,359.05855 1478.7849,356.84255 1481.7554,360.51091 1483.3684,358.80691 1482.6664,358.59191 1482.3908,357.96315 1481.7278,357.68915 1483.6187,356.74746 1480.3156,353.68219 1478.7415,353.46895 1479.1435,352.82842 1479.1613,350.37153 1478.2585,351.54591 1477.9864,351.89978 1477.0334,349.13258 1476.8424,348.84558 1476.3564,348.11158 1476.2104,347.32623 1475.6829,346.52755 1474.3573,344.5206 1474.9611,346.94662 1473.5166,345.293 1472.9125,344.60142 1471.3151,343.44174 1471.0001,344.89774 1470.7751,343.60574 1469.925,345.22596 1469.682,343.97996 1468.216,344.66996 1466.571,341.82268 1465.3001,341.42146 1464.2861,341.10137 1463.5184,342.84756 1460.5519,342.19555 1459.9694,342.06753 1459.2859,342.21455 1459.4889,343.00455 1459.15,343.43352 1458.1716,343.33815 1457.6339,343.46455 1457.1133,343.58693 1456.4309,343.82755 1456.2289,344.39655 1455.7629,345.71055 1455.0759,345.60055 1453.7239,345.72155 1452.0569,345.87155 1450.2449,345.55155 1449.0209,346.92855 1447.2179,348.95755 1446.2359,346.47155 1444.5219,345.91655 1443.7029,345.65155 1442.7739,345.93855 1441.9539,346.03655 1440.9319,346.15855 1440.4069,345.82055 1439.4449,345.65555 1438.4689,345.48855 1437.5129,345.82055 1436.6379,345.20955 1435.1799,344.18955 1434.9809,345.47255 1433.6489,345.81355 1433.6139,344.26755 1432.1359,344.87555 1431.3639,344.02455 1430.8209,343.42455 1430.5089,343.68655 1429.9789,343.29455 1429.3779,342.85155 1429.2479,342.19355 1428.3859,341.99755" id="ua">
    <title>Ukraine</title>
  </path>
  <g id="cy">
    <title>Cyprus</title>
    </g>
  </svg>