<svg xmlns="http://www.w3.org/2000/svg" class="world_map zoom1" height="127" id="svg2985" version="1.1" viewBox="253 1249 2222 234" width="127">
  <title>World Map</title>
  <defs id="defs2987"/>
  <defs>
    <link xmlns="http://www.w3.org/1999/xhtml" href="../css/svg.css" type="text/css" rel="stylesheet"/>
  </defs>
  <style id="style_css_sheet" type="text/css">
/*
 * Below are Cascading Style Sheet (CSS) definitions in use in this file,
 * which allow easily changing how countries are displayed.
 *
 */
/* --- Custom styles for Peace Corps --- */
.world_map .world_map-is_selected {
  fill: #C94112 !important;
}
.world_map .landxx {
  fill: #F2EFE8;
  stroke: #ffffff;
  fill-rule: evenodd;
}
.world_map.zoom4 .landxx {
  stroke-width: 2px;
}
.world_map.zoom3 .landxx {
  stroke-width: 3px;
}
.world_map.zoom2 .landxx {
  stroke-width: 4px;
}
.world_map.zoom1 .landxx {
  stroke-width: 5px;
}
.world_map .coastxx {
  fill: #F2EFE8;
  stroke: #ffffff;
  stroke-width: 2px;
  fill-rule: evenodd;
}
.world_map .oceanxx {
  opacity: 1;
  color: #ccc;
  fill: #ffffff;
  stroke: #ffffff;
  stroke-width: 0.5;
  stroke-miterlimit: 1;
}

/* --- Original Styles --- *
/*
 * Circles around small countries
 *
 * Change opacity to 1 to display all circles.
 *
 */
.circlexx
{
   opacity:0;
   fill:#e0e0e0;
   stroke:#000000;
   stroke-width:0.5;
}

/*
 * Smaller circles around French DOMs and Chinese SARs
 *
 * Change opacity to 1 to display all subnational circles.
 *
 */
.subxx
{
   opacity:0;
   stroke-width:0.3;
}

/*
 * Circles around small, unrecognized countries
 *
 * Change opacity to 1 to display all circles.
 *
 */
.unxx
{
   opacity:0;
   fill:#e0e0e0;
   stroke:#000000;
   stroke-width:0.3;
}

/*
 * Circles around small countries, but with no permanent residents 
 *
 * Change opacity to 1 to display all circles.
 *
 */
.noxx
{
   opacity:0;
   fill:#e0e0e0;
   stroke:#000000;
   stroke-width:0.5;
}

/*
 * land
 */
.landxx
{
}
/*
 * Styles for coastlines of islands with no borders
 */


/*
 * Styles for nations with limited recognition
 */
.limitxx
{
   fill: #e0e0e0;
   stroke:#ffffff;
   stroke-width:0;
   fill-rule:evenodd;
}

/*
 * Styles for nations with no permanent population.
 */
.antxx
{
   fill: #e0e0e0;
   stroke:#ffffff;
   stroke-width:0;
   fill-rule:evenodd;
}

/*
 * Ocean
 */


/*
 * Additional style rules
 *
 * The following are examples of colouring countries.  You can substitute these with your own styles to colour the countries on the map.
 *
 * Color a few countries:
 *
 * .gb, .au, .nc
 * {
 *    fill:       #ff0000;
 * }
 *
 * Color a few small country circles (and the countries):
 *
 * .ms, .ky
 * {
 *    opacity:    1;
 *    fill:       #ff0000;
 * }
 *
 */

</style>
  <path class="oceanxx" d="M 2079.5058,1457.5605 615.24779,1457.5605 C 615.13079,1457.5605 615.07079,1457.5505 614.95179,1457.5215 611.67679,1456.6515 608.40179,1455.7815 605.12779,1454.9105 599.15079,1453.3225 593.22879,1451.5225 587.30779,1449.7385 564.39379,1442.8315 541.76579,1434.6995 519.46979,1426.0115 495.81079,1416.7935 472.34979,1407.0946 449.19179,1396.6816 426.78379,1386.6056 405.17679,1375.0536 383.76379,1363.0356 363.11779,1351.4496 343.01079,1338.8296 323.37979,1325.5996 302.29179,1311.3876 281.47879,1296.8506 261.05379,1281.7006 242.35079,1267.8276 223.73679,1253.6306 206.05279,1238.4686 186.98679,1222.1216 167.82379,1205.7706 150.35279,1187.6906 132.97779,1169.7106 116.33279,1151.0606 100.15679,1131.9976 84.352777,1113.3736 70.086776,1093.4716 56.901786,1072.9246 44.046786,1052.8916 32.093776,1032.1356 22.469776,1010.3426 17.516776,999.12753 12.408776,987.76556 8.7017761,976.06056 5.0657761,964.58166 1.5997761,953.04259 -1.5932239,941.43054 -8.0102239,918.09356 -14.055224,894.78356 -18.234224,870.92056 -22.491222,846.60856 -24.894222,822.19856 -26.943222,797.62156 -28.947222,773.58556 -28.829222,749.40156 -27.225222,725.34856 -25.648222,701.69856 -23.363222,677.92456 -19.274222,654.56456 -15.018224,630.25156 -9.3842239,606.45156 -2.8412239,582.66156 3.5687761,559.35256 10.483776,536.34856 20.265776,514.19856 30.320776,491.42956 42.318786,469.90956 55.502786,448.81656 68.512776,428.00356 83.108777,408.26756 98.686787,389.31756 113.73479,371.01156 129.68979,353.25256 146.15179,336.20856 163.77479,317.96256 182.64579,301.14556 201.89579,284.64756 220.33379,268.84456 239.55379,253.98456 258.95979,239.39656 278.42779,224.76056 298.39379,210.83356 318.55579,197.17556 339.26979,183.14456 360.47879,169.92056 382.15079,157.42556 403.46579,145.13656 425.31479,133.98856 447.60479,123.59356 469.58579,113.34356 492.14979,104.17656 514.74579,95.37556 537.44879,86.532565 560.37879,78.195565 583.63479,70.914565 589.69379,69.017565 595.80079,67.276565 601.90879,65.549565 604.63079,64.779565 607.36079,64.045565 610.09479,63.318565 611.59979,62.918565 613.56579,61.986565 615.13379,61.986565 L 2079.9638,61.986565 C 2079.9798,61.986565 2079.9958,61.986565 2080.0118,61.986565 2079.8448,61.986565 2079.6788,61.986565 2079.5118,61.986565 2102.8268,68.191565 2125.8778,75.323565 2148.5448,83.611565 2171.6378,92.054565 2194.6158,100.87956 2217.2348,110.52956 2240.5208,120.46556 2263.4848,130.95256 2285.8828,142.76456 2306.9808,153.89056 2327.8178,165.78556 2347.8608,178.72156 2368.9418,192.32656 2389.7498,206.29256 2410.2218,220.80056 2429.7368,234.62956 2448.9938,248.98756 2467.6208,263.99256 2486.8818,279.50856 2506.0408,295.30556 2524.0538,312.27356 2541.8708,329.05756 2558.7508,346.67256 2574.9408,365.03656 2591.2478,383.53256 2607.1478,402.30656 2621.4508,422.41856 2635.3488,441.96256 2648.4468,462.42756 2659.5898,483.67756 2671.1238,505.67356 2681.1048,528.35656 2688.6188,552.05056 2692.2518,563.50656 2695.3368,575.14756 2698.5608,586.72256 2701.7738,598.25356 2704.9238,609.81956 2707.4578,621.52456 2712.6258,645.40556 2716.6718,669.47856 2719.1178,693.79656 2721.5718,718.19256 2723.1798,742.56356 2722.9808,767.09056 2722.7908,790.65456 2720.6908,814.43756 2717.7688,837.81156 2714.7368,862.07056 2710.5198,886.16156 2704.6398,909.90056 2701.6808,921.84356 2698.3948,933.69556 2695.0378,945.53154 2691.7468,957.13466 2688.5558,968.83466 2684.3988,980.16156 2676.0918,1002.8036 2666.1688,1024.8836 2654.1338,1045.8046 2641.9958,1066.9066 2628.8498,1087.4866 2614.2378,1106.9696 2599.1658,1127.0666 2582.6678,1145.9446 2565.8948,1164.6296 2549.8298,1182.5266 2532.8918,1199.7316 2514.8648,1215.6616 2496.0788,1232.2646 2476.8978,1248.3126 2457.1558,1263.7656 2438.2988,1278.5276 2418.9668,1292.7306 2399.3188,1306.4206 2378.7018,1320.7866 2357.7538,1334.6106 2336.4758,1347.9776 2326.4088,1354.3016 2316.0058,1360.1326 2305.6418,1365.9516 2295.0348,1371.9086 2284.3858,1378.0166 2273.4448,1383.3436 2250.7338,1394.3986 2227.7768,1404.7266 2204.3888,1414.2665 2181.7848,1423.4875 2159.0678,1432.2695 2136.0228,1440.3345 2117.4118,1446.8465 2098.5568,1452.4975 2079.5058,1457.5605" id="ocean"/>
  <g class="world_map-is_selected antxx ata" id="aq" transform="translate(-29.9017,-45.0745)">
    <title>Antarctica</title>
    <path d="M 1042.778,1323.213 C 1041.712,1321.208 1038.879,1321.31 1036.948,1321.413 1037.479,1322.761 1041.602,1322.433 1042.778,1323.213" id="path4902"/>
    <path d="M 1045.438,1323.363 C 1045.918,1323.17 1046.397,1322.976 1046.877,1322.783 1046.135,1322.847 1045.394,1322.946 1044.648,1322.923 1044.911,1323.069 1045.175,1323.217 1045.438,1323.363" id="path4904"/>
    <path d="M 2144.878,1448.783 C 2144.281,1448.52 2143.658,1448.366 2143.008,1448.318 2142.252,1448.391 2141.828,1449.122 2141.069,1449.213 2142.033,1449.73 2144.09,1449.6 2144.878,1448.783" id="path7014"/>
    <path d="M 2150.788,1448.213 C 2149.604,1447.253 2147.3,1448.574 2146.038,1448.783 2147.246,1449.914 2149.594,1448.848 2150.788,1448.213" id="path7016"/>
    <path d="M 2149.639,1446.693 C 2150.098,1446.104 2152.638,1445.807 2150.639,1445.693 2151.198,1445.661 2151.75,1445.588 2152.298,1445.472 2152.113,1445.455 2150.887,1445.461 2150.783,1445.106 2150.61,1444.508 2152.596,1444.099 2152.893,1444.041 2153.38,1443.96 2153.864,1443.856 2154.341,1443.73 2154.857,1443.571 2154.656,1442.959 2155.262,1442.79 2155.79,1442.644 2159.887,1442.011 2158.198,1443.603 2160.666,1444.186 2165.178,1442.001 2166.988,1444.462 2164.967,1445.198 2161.425,1445.983 2159.365,1445.36 2156.788,1444.582 2152.209,1446.106 2149.639,1446.693" id="path7018"/>
    <path d="M 2183.188,1386.293 C 2182.948,1386.293 2182.708,1386.293 2182.467,1386.293 2182.865,1385.635 2183.651,1385.018 2184.337,1385.783 2183.992,1386.037 2183.608,1386.207 2183.188,1386.293" id="path7022"/>
    <path d="M 2185.348,1386.003 C 2185.915,1385.856 2186.419,1385.976 2186.859,1386.363 2186.338,1387.12 2184.479,1386.958 2185.348,1386.003" id="path7024"/>
    <path d="M 2217.958,1417.173 C 2218.24,1417.006 2218.507,1416.816 2218.758,1416.604 2217.191,1415.989 2215.514,1417.626 2214.069,1417.973 2215.363,1419.108 2216.805,1417.817 2217.958,1417.173" id="path6980"/>
    <path d="M 2250.428,1365.623 C 2250.478,1365.383 2250.529,1365.144 2250.578,1364.903 2249.765,1365.114 2248.96,1365.774 2249.068,1366.703 2249.739,1366.726 2250.201,1366.189 2250.428,1365.623" id="path6982"/>
    <path d="M 2250.578,1368.293 C 2249.964,1368.07 2249.412,1368.37 2249.138,1368.934 2249.722,1369.054 2250.248,1368.761 2250.578,1368.293" id="path6984"/>
    <path d="M 2252.448,1374.483 C 2252.67,1374.265 2252.863,1374.025 2253.028,1373.762 2252.084,1372.97 2250.681,1374.741 2250.427,1375.492 2251.224,1375.482 2251.959,1375.108 2252.448,1374.483" id="path6986"/>
    <path d="M 1889.718,1353.093 C 1890.654,1353.398 1894.175,1353.632 1894.32,1352.06 1894.419,1350.992 1892.804,1349.997 1892.065,1349.484 1891.184,1348.872 1888.618,1348.357 1888.018,1349.72 1887.398,1351.132 1889.861,1351.592 1888.268,1352.663 1888.729,1352.884 1889.211,1353.027 1889.718,1353.093" id="path6978"/>
    <path d="M 1897.488,1360.723 C 1898.257,1359.86 1903.382,1357.808 1903.873,1359.588 1904.441,1361.648 1898.456,1361.68 1897.488,1360.723" id="path7010"/>
    <path d="M 1914.479,1358.213 C 1914.5,1356.909 1915.704,1356.809 1916.672,1357.198 1917.13,1357.382 1916.571,1359.051 1916.998,1359.503 1915.513,1360.229 1915.658,1358.354 1914.479,1358.213" id="path7012"/>
    <path d="M 1872.648,1365.483 C 1873.504,1365.817 1874.855,1365.644 1875.028,1364.543 1874.237,1364.338 1871.703,1363.949 1871.858,1365.413 1872.122,1365.437 1872.385,1365.46 1872.648,1365.483" id="path7000"/>
    <path d="M 1885.389,1369.223 C 1886.312,1369.292 1887.08,1368.674 1887.628,1368.003 1886.8,1368.24 1886.078,1368.725 1885.389,1369.223" id="path7002"/>
    <path d="M 1894.108,1364.973 C 1894.418,1364.913 1894.704,1364.793 1894.967,1364.614 1894.682,1364.733 1894.395,1364.853 1894.108,1364.973" id="path7004"/>
    <path d="M 1896.268,1364.543 C 1896.487,1365.059 1897.583,1364.22 1897.708,1364.113 1897.142,1363.964 1896.661,1364.103 1896.268,1364.543" id="path7006"/>
    <path d="M 1898.858,1362.453 C 1899.395,1362.565 1899.875,1362.443 1900.297,1362.093 1899.792,1362.108 1899.313,1362.229 1898.858,1362.453" id="path7008"/>
    <path d="M 1851.838,1361.233 C 1850.484,1361.304 1851.645,1362.172 1852.317,1362.172 1853.43,1362.173 1852.697,1361.031 1851.838,1361.233" id="path6976"/>
    <path d="M 1406.738,1393.203 C 1406.724,1395.425 1411.102,1394.566 1411.936,1393.39 1412.45,1392.663 1407.597,1392.298 1406.738,1393.203" id="path6972"/>
    <path d="M 1390.678,1393.633 C 1391.487,1393.516 1394.067,1392.961 1394.138,1394.354 1393.143,1394.56 1390.996,1395.114 1390.678,1393.633" id="path6974"/>
    <path d="M 1218.388,1422.144 C 1219.634,1422.904 1217.78,1423.73 1218.454,1424.459 1219.345,1425.423 1221.207,1425.587 1221.558,1426.973 1220.256,1427.761 1219.426,1426.595 1218.472,1425.888 1217.053,1424.836 1215.054,1425.109 1213.418,1424.734 1214.108,1423.878 1215.32,1423.963 1216.251,1423.588 1217.064,1423.26 1217.466,1422.244 1218.388,1422.144" id="path6954"/>
    <path d="M 1307.808,1400.693 C 1309.026,1400.492 1310.358,1399.616 1311.268,1398.813 1310.136,1398.543 1304.48,1396.714 1303.741,1398.031 1302.901,1399.525 1307.11,1400.666 1307.808,1400.693" id="path6956"/>
    <path d="M 1312.127,1394.854 C 1311.926,1394.669 1311.686,1394.623 1311.407,1394.713 1311.647,1394.76 1311.888,1394.807 1312.127,1394.854" id="path6958"/>
    <path d="M 1326.598,1400.903 C 1326.598,1400.686 1326.598,1400.469 1326.598,1400.253 1326.305,1400.405 1326.041,1400.599 1325.808,1400.833 1326.071,1400.856 1326.334,1400.88 1326.598,1400.903" id="path6960"/>
    <path d="M 1335.528,1398.023 C 1335.667,1397.03 1334.633,1397.377 1334.738,1398.172 1335.001,1398.123 1335.265,1398.073 1335.528,1398.023" id="path6962"/>
    <path d="M 1339.488,1397.663 C 1341.019,1397.44 1342.16,1395.988 1339.842,1395.919 1338.219,1395.87 1337.462,1397.393 1339.488,1397.663" id="path6964"/>
    <path d="M 1279.297,1398.023 C 1279.56,1398.073 1279.824,1398.123 1280.087,1398.172 1279.62,1398.467 1279.14,1398.49 1278.647,1398.242 1278.864,1398.17 1279.081,1398.097 1279.297,1398.023" id="path6966"/>
    <path d="M 1287.358,1396.653 C 1287.833,1396.381 1289.674,1395.727 1289.958,1396.533 1290.465,1397.969 1287.797,1397.146 1287.358,1396.653" id="path6968"/>
    <path d="M 1304.348,1395.723 C 1305.377,1395.141 1308.663,1395.628 1307.028,1396.404 1306.347,1396.726 1303.697,1397.336 1304.348,1395.723" id="path6970"/>
    <path d="M 989.208,1457.923 C 992.836,1457.923 994.162,1454.763 997.116,1453.139 997.935,1452.689 999.482,1452.324 999.902,1451.396 1000.52,1450.029 997.088,1450.388 996.623,1450.483 992.798,1451.261 988.613,1451.97 985.092,1453.701 980.511,1455.95 986.802,1458.056 989.208,1457.923" id="path6926"/>
    <path d="M 1036.297,1460.083 C 1037.338,1462.15 1029.018,1461.691 1028.355,1461.7 1025.564,1461.738 1022.762,1461.837 1019.98,1461.549 1017.3,1461.272 1014.53,1460.215 1011.817,1460.593 1013.109,1463.463 1020.239,1463.281 1022.791,1463.138 1024.048,1463.067 1025.282,1462.777 1026.54,1462.709 1028.477,1462.605 1030.314,1463.301 1032.173,1463.742 1034.317,1464.252 1036.476,1464.633 1038.675,1464.78 1041.186,1464.949 1047.213,1464.904 1044.391,1460.903 1042.986,1458.911 1040.95,1457.62 1038.495,1457.861 1037.321,1457.977 1034.138,1458.605 1036.297,1460.083" id="path6928"/>
    <path d="M 1143.938,1451.883 C 1144.539,1451.844 1145.139,1451.794 1145.738,1451.734 1142.028,1451.833 1138.351,1451.164 1134.644,1451.164 1133.021,1451.164 1131.404,1450.996 1129.791,1450.837 1127.641,1450.625 1125.815,1451.248 1123.708,1451.454 1127.153,1451.687 1130.611,1451.346 1134.053,1451.649 1137.332,1451.938 1140.649,1452.12 1143.938,1451.883" id="path6930"/>
    <path d="M 1082.377,1460.083 C 1083.817,1459.246 1085.227,1458.357 1086.697,1457.573 1086.44,1456.907 1085.812,1456.611 1085.322,1456.157 1084.566,1455.457 1084.3,1454.195 1084.206,1453.216 1084.011,1451.178 1085.52,1450.054 1087.216,1449.33 1091.56,1447.476 1096.14,1446.938 1100.82,1447.358 1104.823,1447.716 1109.674,1448.037 1113.258,1450.05 1114.283,1450.626 1114.985,1451.542 1113.557,1452.172 1111.693,1452.994 1109.498,1451.448 1107.717,1452.672 1109.842,1456.015 1115.674,1451.134 1117.727,1455.262 1116.801,1455.842 1115.659,1455.685 1114.637,1455.912 1116.683,1457.239 1120.228,1455.817 1121.866,1457.808 1124.294,1460.758 1120.131,1460.308 1118.447,1460.523 1119.132,1461.078 1120.002,1461.237 1120.827,1461.453 1119.894,1462.746 1117.726,1462.838 1116.299,1462.955 1113.891,1463.153 1111.508,1463.53 1109.099,1463.704 1102.953,1464.149 1096.797,1464.417 1090.655,1464.928 1085.3,1465.374 1079.134,1466.204 1073.848,1464.88 1070.494,1464.04 1073.74,1461.987 1075.483,1461.618 1077.526,1461.185 1080.844,1461.87 1082.377,1460.083" id="path6952"/>
    <path d="M 571.752,1439.133 C 572.885,1439.072 574.034,1438.904 575.136,1439.283 573.906,1440.025 572.513,1439.605 571.176,1439.643 571.369,1439.474 571.561,1439.303 571.752,1439.133" id="path7026"/>
    <path d="M 583.777,1439.923 C 583.897,1439.876 584.017,1439.83 584.137,1439.783 582.768,1439.327 580.455,1438.779 579.169,1439.713 580.685,1440.206 582.219,1440.069 583.777,1439.923" id="path7028"/>
    <path d="M 581.977,1439.283 C 581.462,1439.377 580.47,1438.847 579.745,1439.063 580.474,1439.242 581.227,1439.304 581.977,1439.283" id="path7030"/>
    <path d="M 586.296,1441.223 C 584.865,1440.291 582.686,1440.702 581.112,1440.934 582.795,1441.463 584.565,1441.35 586.296,1441.223" id="path7032"/>
    <path d="M 587.088,1439.283 C 585.833,1438.595 584.24,1438.501 582.84,1438.563 584.156,1439.187 585.669,1439.179 587.088,1439.283" id="path7034"/>
    <path d="M 587.88,1443.453 C 586.708,1443.121 585.17,1442.557 583.992,1443.173 585.278,1443.383 586.574,1443.623 587.88,1443.453" id="path7036"/>
    <path d="M 586.441,1438.773 C 585.837,1438.544 585.213,1438.451 584.569,1438.493 585.185,1438.644 585.809,1438.736 586.441,1438.773" id="path7038"/>
    <path d="M 594.216,1443.963 C 593.086,1441.945 587.102,1440.681 585.288,1442.163 588.033,1443.294 591.209,1444.338 594.216,1443.963" id="path7040"/>
    <path d="M 590.617,1439.423 C 589.522,1438.791 588.346,1438.051 587.089,1438.774 588.203,1439.313 589.414,1439.305 590.617,1439.423" id="path7042"/>
    <path d="M 589.609,1444.173 C 589.053,1443.882 588.477,1443.835 587.88,1444.033 588.456,1444.087 589.032,1444.134 589.609,1444.173" id="path7044"/>
    <path d="M 590.977,1442.013 C 590.579,1441.65 590.123,1441.553 589.609,1441.723 590.065,1441.819 590.521,1441.916 590.977,1442.013" id="path7048"/>
    <path d="M 593.353,1441.083 C 594.051,1441.061 594.742,1440.876 595.369,1440.573 594.321,1440.231 592.511,1439.651 591.553,1440.503 592.132,1440.759 592.732,1440.952 593.353,1441.083" id="path7050"/>
    <path d="M 594.721,1442.883 C 594.463,1442.033 593.385,1442.363 592.777,1442.453 593.402,1442.697 594.05,1442.84 594.721,1442.883" id="path7052"/>
    <path d="M 574.057,1441.083 C 573.817,1440.986 573.577,1440.89 573.337,1440.793 576.824,1440.124 580.245,1440.726 583.561,1441.873 580.386,1442.444 577.19,1441.482 574.057,1441.083" id="path7054"/>
    <path d="M 575.569,1443.093 C 575.719,1441.671 580.871,1443.19 581.689,1443.383 579.682,1443.751 577.552,1443.479 575.569,1443.093" id="path7056"/>
    <path d="M 586.296,1436.693 C 584.618,1435.814 582.463,1434.71 580.536,1435.463 582.341,1436.069 584.357,1436.861 586.296,1436.693" id="path7058"/>
    <path d="M 581.761,1432.153 C 582.858,1431.129 584.983,1432.268 586.153,1432.583 584.701,1432.991 583.158,1432.563 581.761,1432.153" id="path7060"/>
    <path d="M 593.497,1431.363 C 594.17,1431.142 594.895,1431.245 595.513,1431.573 594.829,1431.619 594.157,1431.549 593.497,1431.363" id="path7062"/>
    <path d="M 667.584,1418.473 C 668.9,1418.314 670.196,1418.514 671.472,1418.833 669.905,1418.883 668.887,1419.906 667.584,1418.473" id="path1948"/>
    <path d="M 717.625,1423.153 C 717.003,1422.776 716.37,1423.05 716.041,1423.653 716.605,1423.603 717.133,1423.436 717.625,1423.153" id="path6902"/>
    <path d="M 657.937,1419.123 C 656.534,1418.778 654.235,1418.007 653.545,1416.603 656.579,1415.601 658.773,1416.532 661.763,1416.768 662.817,1416.851 663.644,1416.831 664.425,1417.585 665.217,1418.35 666.464,1418.067 667.404,1418.516 668.205,1418.898 668.858,1419.541 669.817,1419.448 670.276,1419.262 670.733,1419.069 671.185,1418.868 671.991,1418.769 673.185,1419.082 673.923,1419.4 675.573,1420.112 678.929,1420.899 679.969,1422.433 676.511,1422.433 672.706,1422.787 669.413,1421.511 667.597,1420.806 665.91,1420.267 663.977,1419.938 661.984,1419.6 659.981,1418.647 657.937,1419.123" id="path6904"/>
    <path d="M 679.249,1419.483 C 679.153,1419.219 679.057,1418.957 678.961,1418.693 685.034,1417.792 690.956,1420.085 697.011,1419.97 698.952,1419.934 700.925,1419.685 702.863,1419.898 703.892,1420.01 706.292,1420.915 704.347,1421.823 703.003,1422.45 701.444,1422.712 699.989,1422.94 697.386,1423.351 694.528,1423.873 691.895,1423.873 690.855,1423.873 688.685,1424.098 687.799,1423.459 687.182,1423.014 686.654,1422.374 685.88,1421.902 685.145,1421.456 684.39,1420.567 683.542,1420.358 682.137,1420.012 680.667,1419.815 679.249,1419.483" id="path6906"/>
    <path d="M 713.592,1421.783 C 715.007,1421.566 716.077,1420.416 717.562,1420.465 719.6,1420.532 718.053,1421.46 718.992,1422.434 717.547,1422.748 714.602,1423.267 713.592,1421.783" id="path6908"/>
    <path d="M 636.769,1424.303 C 637.333,1423.73 638.107,1423.782 638.785,1424.083 638.208,1424.593 637.443,1424.552 636.769,1424.303" id="path7066"/>
    <path d="M 639.937,1424.083 C 640.05,1422.554 646.492,1423.602 646.921,1425.023 645.311,1425.146 641.299,1425.191 639.937,1424.083" id="path7068"/>
    <path d="M 665.497,1424.303 C 664.293,1422.825 660.046,1422.844 658.369,1423.223 660.433,1423.979 663.597,1426.072 665.857,1425.093 665.737,1424.829 665.617,1424.566 665.497,1424.303" id="path7070"/>
    <path d="M 767.377,1422.644 C 766.612,1420.987 763.715,1420.959 762.203,1420.663 759.609,1420.155 757.179,1418.769 754.603,1418.109 751.726,1417.371 749.142,1415.683 746.099,1415.95 744.573,1416.084 744.57,1417.797 745.644,1418.649 748.22,1420.692 752.175,1421.291 755.297,1422.027 756.803,1422.382 766.361,1425.412 767.377,1422.644" id="path6832"/>
    <path d="M 772.348,1415.813 C 771.261,1415.289 768.585,1413.718 767.378,1414.443 768.348,1416.008 770.715,1416.444 772.348,1415.813" id="path6834"/>
    <path d="M 817.058,1411.343 C 818.182,1410.713 819.158,1411.486 820.228,1411.774 818.964,1411.962 817.698,1412.314 816.408,1412.213 816.515,1411.84 816.731,1411.55 817.058,1411.343" id="path2042"/>
    <path d="M 826.417,1411.633 C 826.881,1411.423 827.361,1411.376 827.857,1411.493 827.45,1411.975 826.864,1412.294 826.417,1411.633" id="path2044"/>
    <path d="M 776.087,1408.894 C 775.698,1408.858 775.315,1408.789 774.938,1408.684 776.144,1406.646 778.818,1407.368 780.744,1406.938 781.809,1406.701 781.758,1407.993 783.066,1407.143 783.936,1406.578 785.28,1406.392 786.167,1407.093 783.8,1406.973 787.427,1407.917 787.827,1408.253 787.823,1406.526 789.356,1407.903 790.083,1408.274 790.747,1408.612 790.659,1407.823 791.207,1407.814 792.174,1407.797 793.188,1408.177 794.157,1408.253 793.455,1407.713 790.576,1407.768 790.779,1406.484 790.93,1405.529 791.601,1405.735 792.195,1406.141 793.135,1406.783 794.226,1406.306 795.317,1406.592 794.407,1408.163 797.809,1409.054 798.697,1408.683 798.022,1407.926 797.176,1407.358 796.387,1406.733 798.177,1406.677 798.148,1407.348 799.417,1408.172 801.259,1409.37 801.435,1408.017 800.567,1406.592 802.371,1406.102 805.235,1406.196 806.687,1407.532 806.129,1407.651 805.495,1407.445 804.957,1407.672 804.311,1407.944 804.42,1408.711 803.597,1408.822 805.737,1409.949 808.548,1407.877 810.867,1408.752 809.941,1409.491 808.508,1409.332 807.407,1409.402 809.067,1409.791 810.776,1409.494 812.447,1409.761 811.944,1410.329 811.234,1410.626 810.507,1410.772 812.263,1411.335 810.195,1411.402 809.731,1411.45 808.899,1411.535 808.061,1411.526 807.226,1411.508 805.782,1411.478 804.263,1410.711 802.948,1410.693 802.394,1410.683 801.636,1411.274 800.999,1411.318 800.099,1411.38 799.198,1411.302 798.307,1411.179 796.524,1410.933 794.747,1410.539 792.938,1410.773 793.182,1410.534 793.422,1410.291 793.658,1410.043 792.513,1409.816 791.358,1410.023 790.208,1410.059 788.699,1410.106 787.241,1409.687 785.764,1409.45 782.569,1408.936 779.295,1409.315 776.087,1408.894" id="path6910"/>
    <path d="M 850.248,1413.863 C 849.536,1413.392 848.417,1413.34 847.596,1413.368 846.447,1413.407 847.549,1414.45 846.218,1414.583 847.097,1415.282 850.023,1415.328 850.248,1413.863" id="path6912"/>
    <path d="M 836.428,1411.843 C 836.401,1411.727 836.375,1411.61 836.348,1411.493 837.682,1411.224 839.326,1410.786 840.522,1411.681 841.213,1412.198 842.768,1413.592 842.456,1414.617 841.962,1416.235 840.609,1415.475 840.174,1414.289 839.678,1412.939 837.56,1412.446 836.428,1411.843" id="path6914"/>
    <path d="M 798.188,1412.283 C 796.718,1411.03 794.726,1411.991 793.031,1411.739 791.603,1411.527 789.173,1410.711 788.257,1412.353 790.645,1413.063 796.302,1414.714 798.188,1412.283" id="path7072"/>
    <path d="M 804.028,1412.133 C 803.182,1411.82 802.2,1411.856 801.507,1412.493 802.354,1412.729 803.307,1412.701 804.028,1412.133" id="path7074"/>
    <path d="M 826.848,1413.434 C 826.252,1413.157 825.699,1413.227 825.188,1413.644 825.765,1413.765 826.318,1413.694 826.848,1413.434" id="path7076"/>
    <path d="M 901.587,1410.043 C 903.827,1408.858 907.831,1409.429 909.938,1410.693 909.441,1410.514 909.176,1410.629 908.891,1411.023 908.389,1411.72 907.362,1411.445 906.649,1411.301 904.996,1410.972 903.305,1409.778 901.587,1410.043" id="path6916"/>
    <path d="M 911.238,1416.093 C 912.048,1415.681 914.379,1415.599 914.979,1416.424 915.853,1417.625 911.967,1417.681 911.238,1416.093" id="path6920"/>
    <path d="M 924.188,1413.144 C 926.436,1412.799 929.171,1413.193 931.21,1414.217 932.599,1414.915 931.426,1415.136 931.757,1416.093 932.162,1417.263 933.463,1417.56 934.417,1418.114 933.447,1420.006 928.759,1417.822 927.354,1417.479 926.114,1417.177 923.529,1416.955 922.989,1415.492 922.92,1415.304 924.902,1414.962 925.057,1414.294 924.447,1414.461 923.92,1414.317 923.477,1413.864 923.686,1413.595 923.922,1413.355 924.188,1413.144" id="path6934"/>
    <path d="M 934.998,1415.593 C 935.944,1414.931 937.04,1416.059 936.288,1416.963 935.364,1418.073 934.17,1416.578 934.998,1415.593" id="path6936"/>
    <path d="M 905.908,1393.203 C 906.257,1392.895 906.424,1392.509 906.408,1392.043 907.148,1392.792 908.658,1391.859 909.495,1391.785 910.451,1391.701 912.308,1392.869 913.247,1393.203 912.503,1393.358 912.774,1393.718 912.407,1394.16 911.892,1394.78 910.183,1394.473 909.507,1394.423 908.452,1394.345 906.384,1394.44 905.908,1393.203" id="path6918"/>
    <path d="M 919.228,1397.663 C 921.491,1397.867 923.412,1399.593 920.17,1400.285 916.943,1400.974 913.295,1401.536 909.993,1401.655 909.441,1401.676 906.774,1401.196 907.935,1400.267 908.77,1399.599 909.856,1399.441 910.882,1399.484 911.902,1399.526 913.855,1399.753 913.932,1398.474 913.99,1397.517 918.117,1399.825 916.848,1397.813 917.63,1398.051 918.583,1398.413 919.228,1397.663" id="path6922"/>
    <path d="M 921.888,1391.403 C 920.949,1391.309 919.424,1390.886 919.298,1389.743 921.111,1389.082 922.854,1390.26 924.478,1390.893 923.767,1391.563 922.781,1391.503 921.888,1391.403" id="path6932"/>
    <path d="M 941.618,1375.633 C 941.858,1375.44 942.098,1375.246 942.338,1375.053 941.769,1374.898 941.266,1375.018 940.828,1375.413 941.091,1375.486 941.354,1375.56 941.618,1375.633" id="path6850"/>
    <path d="M 942.478,1377.934 C 942.654,1377.051 942.391,1376.884 941.688,1377.434 941.951,1377.601 942.214,1377.767 942.478,1377.934" id="path6852"/>
    <path d="M 952.848,1339.273 C 953.301,1339.098 953.564,1338.935 953.638,1338.413 953.055,1338.339 952.552,1338.505 952.128,1338.913 952.368,1339.033 952.607,1339.153 952.848,1339.273" id="path6864"/>
    <path d="M 965.158,1335.673 C 965.425,1335.506 965.691,1335.34 965.958,1335.173 965.239,1334.785 964.354,1334.676 963.648,1335.173 964.118,1335.441 964.621,1335.608 965.158,1335.673" id="path6878"/>
    <path d="M 981.288,1347.693 C 981.833,1347.622 982.313,1347.405 982.728,1347.043 981.55,1346.657 980.062,1346.475 978.908,1347.043 979.627,1347.602 980.518,1347.286 981.288,1347.693" id="path6882"/>
    <path d="M 932.398,1376.854 C 933.483,1376.705 934.824,1376.623 934.418,1375.133 934.964,1375.262 935.468,1375.165 935.928,1374.843 935.675,1374.306 935.16,1373.955 934.558,1373.973 934.824,1373.349 935.897,1373.024 935.573,1372.22 935.252,1371.424 934.107,1371.292 933.669,1370.56 933.114,1369.631 934.672,1366.907 932.046,1368.583 929.982,1369.901 931.003,1371.785 930.308,1373.693 930.137,1374.163 929.208,1374.811 929.561,1375.35 930.138,1376.234 931.413,1376.669 932.398,1376.854" id="path6838"/>
    <path d="M 936.148,1370.373 C 937.922,1370.113 935.881,1368.982 935.138,1368.934 935.47,1369.416 935.807,1369.896 936.148,1370.373" id="path6840"/>
    <path d="M 937.297,1366.053 C 938.131,1365.389 937.631,1363.88 936.507,1364.543 936.755,1365.054 937.019,1365.558 937.297,1366.053" id="path6844"/>
    <path d="M 940.038,1377.144 C 940.546,1377.172 941.426,1376.421 941.273,1375.858 941.113,1375.269 938.53,1375.75 938.158,1375.923 938.387,1376.755 939.211,1377.204 940.038,1377.144" id="path6846"/>
    <path d="M 939.028,1362.743 C 939.769,1362.585 940.903,1360.424 940.108,1360.013 938.528,1359.194 938.018,1361.931 939.028,1362.743" id="path6848"/>
    <path d="M 948.388,1354.823 C 948.638,1354.249 948.938,1354.257 949.474,1354.208 950.483,1354.115 951.135,1353.028 951.988,1352.593 951.209,1352.325 950.461,1352.722 949.678,1352.663 950.633,1351.892 949.46,1351.047 948.748,1351.803 948.377,1351.22 948.69,1350.808 949.318,1350.723 948.681,1350.423 946.719,1349.867 946.455,1351.011 946.186,1352.176 945.3,1352.072 944.719,1353.036 943.892,1354.405 947.731,1354.427 948.388,1354.823" id="path6854"/>
    <path d="M 946.297,1341.434 C 947.023,1341.236 948.211,1340.755 947.737,1339.774 946.829,1339.804 946.457,1340.675 946.297,1341.434" id="path6856"/>
    <path d="M 950.688,1355.403 C 950.93,1354.947 950.93,1354.49 950.688,1354.033 950.175,1354.33 949.671,1354.643 949.178,1354.972 949.634,1355.28 950.138,1355.425 950.688,1355.403" id="path6858"/>
    <path d="M 950.038,1343.303 C 950.507,1343.239 950.89,1343.022 951.188,1342.654 950.67,1342.431 950.144,1342.408 949.608,1342.584 949.751,1342.823 949.895,1343.063 950.038,1343.303" id="path6860"/>
    <path d="M 953.428,1352.373 C 953.93,1351.957 955.633,1350.858 955.19,1349.988 954.813,1349.248 953.2,1348.558 952.387,1348.642 951.074,1348.776 952.844,1349.978 952.786,1350.476 952.696,1351.265 952.1,1352.416 953.428,1352.373" id="path6862"/>
    <path d="M 960.188,1337.613 C 959.641,1337.059 959.355,1336.832 958.597,1336.998 957.183,1337.307 956.202,1336.79 954.868,1336.463 955.571,1337.39 954.191,1337.76 953.568,1337.973 954.992,1337.923 956.689,1337.308 958.048,1337.953 959.225,1338.512 960.291,1339.249 960.988,1337.613 960.721,1337.613 960.455,1337.613 960.188,1337.613" id="path6866"/>
    <path d="M 955.007,1349.063 C 955.354,1348.91 955.57,1348.646 955.657,1348.273 954.837,1348.081 954.62,1348.345 955.007,1349.063" id="path6868"/>
    <path d="M 958.467,1340.783 C 958.026,1340.292 957.482,1339.736 958.757,1340.063 958.297,1339.776 957.814,1339.729 957.307,1339.922 957.479,1340.448 957.894,1340.811 958.467,1340.783" id="path6870"/>
    <path d="M 961.198,1347.413 C 961.372,1346.694 961.118,1345.525 960.118,1345.753 960.532,1346.359 960.133,1347.488 961.198,1347.413" id="path6872"/>
    <path d="M 961.917,1337.253 C 962.335,1336.09 960.83,1336.472 960.407,1336.973 960.927,1336.983 961.43,1337.075 961.917,1337.253" id="path6874"/>
    <path d="M 962.788,1336.533 C 963.005,1336.439 963.222,1336.346 963.438,1336.253 962.849,1335.737 961.946,1335.172 961.198,1335.814 961.729,1336.051 962.259,1336.291 962.788,1336.533" id="path6876"/>
    <path d="M 967.248,1334.883 C 967.488,1334.763 967.728,1334.644 967.968,1334.524 967.775,1334.284 967.582,1334.044 967.388,1333.803 968.035,1333.218 968.551,1334.359 969.147,1334.196 969.814,1334.014 970.872,1333.081 971.718,1332.794 971.275,1331.307 964.718,1332.547 964.948,1334.664 965.72,1334.637 966.494,1334.716 967.248,1334.883" id="path6880"/>
    <path d="M 983.448,1327.323 C 984.207,1326.44 985.408,1326.535 986.258,1325.813 984.742,1325.784 983.208,1325.973 981.718,1325.592 981.843,1326.48 982.631,1327.097 983.448,1327.323" id="path6884"/>
    <path d="M 984.598,1342.013 C 986.803,1341.7 983.739,1339.44 982.438,1341.144 983.123,1341.513 983.848,1341.806 984.598,1342.013" id="path6886"/>
    <path d="M 984.098,1352.663 C 984.66,1352.743 985.768,1352.477 985.661,1351.689 985.529,1350.717 983.85,1351.768 983.158,1351.873 983.183,1352.448 983.522,1352.746 984.098,1352.663" id="path6888"/>
    <path d="M 985.248,1344.093 C 986.248,1344.01 986.999,1343.265 987.975,1343.11 988.96,1342.953 990.089,1343.384 991.073,1343.472 992.906,1343.635 992.787,1342.579 991.249,1342.139 989.661,1341.684 987.884,1341.469 986.243,1341.72 985.616,1341.816 984.956,1341.994 984.451,1342.399 983.205,1343.396 984.325,1343.588 985.248,1344.093" id="path6890"/>
    <path d="M 987.908,1345.173 C 988.394,1344.995 988.804,1344.709 989.138,1344.314 988.466,1343.517 986.831,1343.311 986.478,1344.534 986.936,1344.788 987.412,1345.002 987.908,1345.173" id="path6892"/>
    <path d="M 990.578,1327.253 C 990.687,1326.666 990.302,1326.308 989.718,1326.383 989.634,1326.999 989.978,1327.298 990.578,1327.253" id="path6894"/>
    <path d="M 545.401,1442.813 C 546.709,1443.137 549.909,1444.439 550.873,1442.882 550.18,1442.678 549.484,1442.485 548.785,1442.302 549.754,1441.349 552.038,1441.726 553.241,1441.807 555.887,1441.988 558.531,1442.523 561.185,1442.523 563.018,1442.523 565.184,1442.541 566.857,1443.382 567.686,1443.799 567.56,1444.364 568.69,1444.442 569.917,1444.525 571.216,1444.442 572.401,1444.103 572.117,1443.88 571.829,1443.664 571.537,1443.453 575.182,1443.622 579.055,1444.199 582.608,1445.031 585.15,1445.626 588.561,1447.129 591.121,1445.903 590.06,1445.527 588.894,1445.574 587.881,1445.043 589.349,1444.994 590.806,1445.331 592.274,1445.184 591.988,1444.942 591.7,1444.702 591.41,1444.463 592.683,1444.277 593.971,1444.192 595.226,1443.894 594.969,1443.691 594.705,1443.498 594.434,1443.314 595.082,1443.48 595.73,1443.48 596.378,1443.314 596.074,1443.085 595.762,1442.869 595.442,1442.664 597.332,1442.916 601.103,1445.204 602.858,1443.814 602.212,1443.186 599.885,1443.375 599.634,1442.459 599.307,1441.265 597.176,1441.613 596.306,1441.154 598.11,1441.237 599.894,1441.647 601.706,1441.584 599.752,1440.785 597.624,1440.681 595.586,1440.214 596.291,1440.201 596.944,1439.933 597.602,1439.714 592.743,1438.89 587.927,1437.613 582.96,1437.773 580.19,1437.862 574.776,1439.08 572.474,1436.905 573.269,1436.499 574.188,1436.629 574.994,1436.255 575.416,1436.06 574.939,1435.465 575.562,1435.465 577.782,1435.465 580.158,1435.87 582.33,1436.312 585.872,1437.033 589.824,1438.342 593.426,1437.265 592.111,1436.798 585.063,1436.637 584.659,1434.895 584.449,1433.986 591.552,1434.018 592.347,1433.375 591.989,1433.181 591.629,1432.991 591.267,1432.805 593.371,1431.522 595.876,1433.003 598.035,1432.015 597.722,1431.846 597.41,1431.676 597.099,1431.505 599.622,1430.653 602.331,1431.661 604.898,1431.581 605.833,1431.552 608.046,1431.773 608.907,1431.295 609.682,1430.864 609.434,1430.098 609.554,1429.309 609.753,1428.006 614.581,1428.625 615.427,1428.625 617.164,1428.625 622.064,1428.648 618.915,1426.535 619.707,1426.43 622.852,1426.655 623.294,1426.005 623.988,1424.984 626.177,1425.246 627.29,1425.111 630.91,1424.673 633.907,1427.688 637.644,1426.963 639.29,1426.644 640.764,1426.646 642.401,1426.429 644.539,1426.145 646.483,1426.839 648.588,1426.703 650.692,1426.568 652.77,1427.011 654.866,1427.089 657.243,1427.178 659.573,1426.537 661.911,1426.205 670.638,1424.969 679.493,1426.576 688.207,1426.195 692.625,1426.005 697.083,1426.757 701.441,1426.085 704.377,1425.634 708.907,1426.722 711.436,1424.881 711.082,1424.632 710.722,1424.392 710.356,1424.161 711.962,1424.079 713.35,1423.222 714.791,1424.382 716.044,1425.391 718.036,1425.147 719.524,1425.103 721.274,1425.051 722.702,1424.987 724.291,1424.354 724.969,1424.084 725.728,1424.541 726.378,1424.668 727.612,1424.909 729.094,1424.456 730.373,1424.522 729.266,1423.863 727.92,1423.501 726.989,1422.572 725.747,1421.331 727.114,1421.158 728.152,1420.777 729.379,1420.328 730.239,1421.336 731.373,1421.533 732.679,1421.76 734.129,1421.723 735.269,1422.502 733.178,1424.409 738.686,1424.254 738.869,1424.302 738.973,1425.013 738.477,1425.539 737.933,1425.893 739.832,1426.862 741.954,1425.241 743.649,1426.834 744.926,1428.034 748.566,1427.349 749.741,1426.252 749.028,1426.148 744.781,1424.607 747.293,1424.592 746.201,1424.247 744.732,1423.795 744.053,1422.792 746.235,1421.935 748.761,1422.938 750.976,1423.134 753.721,1423.379 754.793,1425.738 757.013,1426.752 756.359,1427.027 755.755,1427.474 755.429,1428.122 755.742,1428.263 756.054,1428.405 756.366,1428.552 756.222,1428.816 756.078,1429.078 755.934,1429.342 757.098,1429.727 759.022,1430.393 760.248,1430.236 761.311,1430.1 762.151,1429.246 763.218,1429.151 766.784,1428.834 770.319,1429.844 773.829,1430.219 776.782,1430.533 778.858,1429.906 781.6,1429.149 784.79,1428.269 788.677,1428.479 791.96,1428.386 794.706,1428.308 798.602,1428.097 801.123,1429.235 802.51,1429.861 804.002,1429.954 805.501,1430.064 806.483,1430.136 807.465,1430.215 808.449,1430.272 809.125,1430.31 809.353,1429.544 810.076,1429.633 810.942,1429.738 811.779,1430.001 812.661,1429.971 813.92,1429.928 814.061,1428.864 812.992,1428.284 810.647,1427.015 807.654,1428.437 805.471,1426.822 806.293,1426.844 807.121,1426.769 807.911,1426.532 807.158,1426.181 806.312,1426.247 805.541,1425.962 805.783,1425.795 806.023,1425.625 806.261,1425.452 805.394,1424.997 804.536,1424.5 803.553,1424.341 802.425,1424.158 801.462,1424.906 800.352,1424.882 798.527,1424.843 796.643,1423.441 795.206,1422.443 793.573,1421.31 791.753,1421.214 789.843,1421.028 788.821,1420.928 787.731,1420.907 786.753,1420.563 785.692,1420.19 785.134,1419.143 784.233,1418.542 787.886,1418.41 791.187,1419.165 794.765,1419.571 797.229,1419.851 801.424,1420.187 803.673,1418.761 801.173,1418.751 798.925,1417.405 796.445,1417.262 793.814,1417.112 791.185,1416.892 788.548,1416.892 786.17,1416.892 783.691,1417.371 781.353,1416.742 778.997,1416.108 776.912,1414.798 774.873,1413.502 775.328,1412.291 777.716,1412.474 778.679,1412.594 779.42,1412.687 783.056,1414.443 780.703,1414.443 782.678,1415.071 784.864,1415.037 786.893,1414.722 789.305,1414.35 791.852,1414.813 794.255,1414.861 797.981,1414.934 802.406,1413.397 806.043,1414.873 805.903,1415.115 805.76,1415.355 805.613,1415.593 808.186,1416.001 810.777,1415.827 813.342,1416.371 815.856,1416.905 817.317,1416.5 819.707,1416.067 821.637,1415.718 824.15,1415.795 826.022,1416.432 827.258,1416.854 827.732,1416.774 828.899,1416.269 830.372,1415.631 831.72,1415.932 833.261,1415.871 835.878,1415.767 838.188,1415.948 840.784,1416.279 842.067,1416.442 843.353,1416.57 844.642,1416.673 845.797,1416.765 845.987,1416.034 846.942,1415.663 847.541,1415.43 852.449,1416.351 851.476,1414.271 850.903,1413.048 849.003,1412.242 847.801,1411.842 849.602,1412.144 851.449,1412.008 853.23,1412.436 853.948,1412.608 856.626,1413.395 854.641,1414.012 854.98,1414.173 855.317,1414.34 855.651,1414.512 855.46,1414.777 855.267,1415.04 855.071,1415.302 856.405,1415.966 857.865,1415.757 859.282,1415.593 861.141,1415.378 862.42,1415.851 864.147,1416.408 864.856,1416.637 870.776,1416.697 869.121,1414.721 870.016,1414.914 870.712,1415.541 871.493,1415.972 872.482,1416.518 873.418,1416.333 874.104,1417.354 875.441,1419.34 880.088,1419.012 882.254,1419.033 885.555,1419.065 888.504,1419.79 891.76,1420.087 893.065,1420.206 894.42,1420.869 895.69,1420.869 897.049,1420.868 898.882,1419.864 900.071,1419.262 899.119,1418.52 897.277,1418.27 896.981,1416.893 898.175,1416.775 899.843,1417.987 900.871,1416.962 899.992,1416.029 898.504,1415.981 897.841,1414.802 900.767,1415.288 903.443,1415.596 906.281,1416.513 907.213,1416.814 908.171,1416.921 909.108,1417.18 910.173,1417.475 910.466,1418.602 911.517,1418.917 913.747,1419.586 916.17,1417.922 918.482,1418.14 919.257,1418.213 924.106,1417.94 921.461,1419.773 922.17,1420.61 924.854,1420.059 925.889,1420.046 927.849,1420.022 929.599,1418.793 931.612,1418.972 932.398,1419.041 933.285,1419.503 934.078,1419.342 935.075,1419.14 935.54,1418.946 936.548,1419.207 937.211,1419.38 937.518,1418.946 937.989,1418.559 938.691,1417.982 939.648,1418.687 940.228,1418.164 941.192,1417.294 943.792,1417.411 945.023,1417.23 947.325,1416.892 949.562,1416.389 951.891,1416.253 954.163,1416.121 956.549,1416.152 958.75,1415.504 960.568,1414.968 962.409,1413.691 964.312,1413.553 965.636,1413.458 966.403,1411.748 966.959,1410.671 967.303,1410.005 965.113,1407.756 964.702,1407.067 963.836,1405.615 961.464,1405.434 960.121,1404.72 958.404,1403.808 958.496,1401.503 957.132,1400.761 954.073,1399.099 952.055,1395.729 948.583,1394.615 947.892,1394.393 944.937,1393.606 945.366,1392.41 945.971,1390.726 942.196,1389.537 941.041,1389.02 941.74,1388.552 942.563,1388.66 943.351,1388.66 943.175,1387.082 944.953,1388.301 945.854,1388.556 946.911,1388.854 948.407,1388.669 949.369,1388.149 953.482,1385.923 946.965,1385.433 945.721,1384.92 946.316,1384.098 947.216,1384.583 948.032,1384.41 947.545,1383.555 946.692,1383.028 945.872,1382.54 947.092,1381.76 945.867,1380.942 944.862,1380.96 945.615,1380.636 946.472,1380.983 947.162,1380.45 946.183,1379.285 943.764,1380.004 942.632,1378.44 942.859,1378.367 944.259,1378.24 944.281,1377.895 944.336,1377.021 942.198,1377.042 944.212,1376.709 943.621,1376.719 943.149,1376.285 943.562,1375.699 943.792,1375.372 944.718,1375.446 945.072,1375.269 943.133,1375.021 941.356,1374.636 939.472,1375.224 938.038,1375.67 937.949,1373.565 937.21,1372.801 936.394,1371.957 938.147,1370.237 939.08,1370.506 939.518,1370.633 939.532,1371.24 940.042,1371.309 940.93,1371.428 941.725,1370.699 942.052,1369.939 941.209,1369.786 940.688,1369.104 940.449,1368.326 940.293,1367.817 941.573,1367.832 941.814,1367.752 942.371,1367.568 942.731,1365.761 942.917,1365.246 943.309,1364.168 944.353,1364.702 945.152,1364.829 944.117,1363.894 945.126,1362.939 946.232,1363.1 947.209,1363.242 948.412,1364.683 949.042,1363.169 948.281,1362.773 947.362,1362.67 946.802,1361.949 947.332,1361.788 947.862,1361.788 948.392,1361.949 948.312,1361.687 948.239,1361.424 948.172,1361.159 948.675,1360.91 949.179,1360.91 949.682,1361.159 949.403,1360.986 949.14,1360.793 948.892,1360.579 949.304,1360.077 949.906,1360.018 950.402,1360.439 950.903,1359.352 947.211,1358.892 947.602,1357.048 948.027,1355.034 952.185,1357.42 953.282,1356.908 953.16,1356.35 952.778,1356.048 952.202,1356.118 952.227,1355.543 952.567,1355.245 953.142,1355.328 952.904,1355.083 952.664,1354.84 952.422,1354.599 953.671,1354.561 954.915,1355.539 956.162,1355.109 954.928,1354.849 954.774,1354.025 954.292,1353.019 955.221,1353.262 956.06,1354.458 957.107,1353.982 957.521,1353.794 957.296,1353.068 957.784,1353.028 958.43,1352.975 959.161,1352.674 959.762,1352.449 959.494,1352.261 959.231,1352.068 958.972,1351.869 959.553,1350.877 959.955,1351.567 960.762,1351.563 962.143,1351.553 961.519,1349.6 960.843,1349.128 963.36,1347.907 965.67,1347.433 968.308,1347.466 969.988,1347.487 968.586,1345.938 969.777,1346.218 970.696,1346.434 970.947,1344.952 971.503,1344.599 972.468,1343.986 973.649,1344.451 974.68,1344.112 975.764,1343.757 975.97,1342.782 977.298,1342.545 978.121,1342.399 979.103,1342.241 979.938,1342.4 981.353,1342.67 982.238,1344.418 983.603,1345.029 981.699,1346.754 981.508,1344.413 980.017,1344.266 978.944,1344.161 977.736,1345.716 976.504,1345.872 975.936,1345.944 975.53,1346.369 975.227,1346.822 974.975,1347.198 974.289,1347.656 974.163,1347.908 973.537,1349.156 974.871,1350.728 974.243,1351.438 974.942,1351.324 975.508,1351.822 975.533,1352.518 973.87,1352.505 971.664,1350.491 970.133,1350.928 970.368,1351.477 970.751,1351.887 971.283,1352.157 970.398,1352.778 969.929,1351.702 969.188,1351.439 968.461,1351.182 967.345,1352.257 966.87,1352.686 965.266,1354.134 964.439,1355.304 962.479,1356.342 961.671,1356.77 961.955,1357.442 961.268,1357.745 960.607,1358.037 960.347,1357.124 959.749,1358.012 958.936,1359.221 962.112,1359.935 962.793,1360.006 961.734,1360.527 961.386,1360.006 960.665,1361.143 960.103,1362.028 959.64,1362.941 960.965,1363.474 961.82,1363.818 963.128,1364.528 964.013,1364.687 965.142,1364.89 965.96,1363.791 967.114,1364.177 966.958,1363.942 966.812,1363.701 966.674,1363.456 967.508,1362.884 968.337,1363.575 968.984,1364.036 968.68,1362.479 971.487,1363.023 971.051,1364.289 970.176,1366.83 968.687,1365.211 967.114,1364.606 967.196,1365.227 966.846,1365.523 966.244,1365.476 966.602,1365.965 966.892,1366.492 967.114,1367.056 965.729,1367.222 964.753,1365.503 963.498,1365.17 962.323,1364.857 960.626,1364.817 959.553,1365.476 960.319,1366.298 961.558,1366.496 962.574,1366.835 962.33,1367.023 962.09,1367.217 961.854,1367.415 962.3,1367.874 962.803,1368.258 963.364,1368.565 962.219,1369.653 959.488,1366.974 958.523,1366.415 957.613,1365.887 956.611,1365.32 955.554,1365.169 953.752,1364.911 954.323,1366.607 955.734,1366.335 955.158,1366.5 954.632,1366.764 954.154,1367.125 954.414,1367.277 954.678,1367.424 954.944,1367.565 953.941,1367.592 953.591,1368.655 954.364,1369.285 955.265,1370.02 956.541,1369.056 957.244,1370.295 955.351,1371.458 952.99,1369.816 951.054,1371.085 951.515,1371.378 952.165,1371.412 952.564,1371.806 953.092,1372.326 952.375,1372.785 953.284,1373.176 952.467,1373.541 951.027,1374.217 950.194,1373.535 949.614,1375.65 950.514,1375.112 952.133,1376.056 950.725,1376.476 951.816,1378.18 952.853,1378.215 952.369,1378.574 952.106,1379.055 952.063,1379.655 954.199,1379.728 955.237,1378.832 957.103,1379.295 956.89,1380.553 954.586,1380.557 953.723,1381.096 954.621,1381.841 955.686,1381.584 956.744,1381.745 956.378,1382.2 955.832,1382.509 955.234,1382.465 956.422,1383.693 958.083,1384.003 959.725,1383.997 961.809,1383.987 963.635,1384.409 965.674,1384.766 964.914,1384.329 964.024,1384.301 963.224,1383.976 965.297,1384.258 962.019,1383.05 961.644,1382.896 961.85,1381.884 962.806,1381.403 963.73,1381.2 965.675,1380.774 967.77,1381.125 969.704,1381.456 968.971,1382.425 964.226,1380.31 964.067,1382.378 963.969,1383.654 967.945,1383.899 968.763,1384.196 967.986,1384.345 967.216,1384.139 966.463,1383.976 966.44,1385.45 970.429,1386.025 968.693,1387.576 969.374,1387.709 969.838,1386.881 970.462,1387.06 971.392,1387.328 971.754,1388.448 972.593,1388.673 973.73,1388.979 975.35,1388.491 976.322,1389.306 977.137,1389.991 977.004,1391.489 977.73,1392.06 979.123,1393.159 980.997,1393.437 982.372,1394.566 981.664,1395.223 980.758,1395.036 979.922,1394.846 980.817,1397.408 984.363,1397.07 986.482,1396.795 986.595,1397.983 984.452,1398.204 983.672,1398.306 984.843,1398.434 985.189,1399.779 986.482,1399.745 986.407,1399.482 986.333,1399.219 986.262,1398.955 988.386,1398.165 990.746,1400.516 992.522,1401.325 990.88,1401.772 992.828,1402.34 993.392,1402.695 992.862,1402.854 992.332,1402.854 991.802,1402.695 992.077,1402.852 992.344,1403.022 992.602,1403.205 991.503,1403.399 990.369,1403.991 989.722,1404.926 990.969,1405.546 991.818,1404.393 992.972,1404.366 994.162,1404.338 995.902,1405.17 994.34,1406.151 992.52,1407.294 989.88,1406.875 987.843,1406.875 988.325,1407.195 988.855,1407.339 989.433,1407.306 987.526,1407.725 990.225,1408.007 990.664,1407.956 991.893,1407.815 992.917,1407.562 994.113,1408.024 995.297,1408.482 994.789,1407.931 995.762,1407.735 996.673,1407.55 998.849,1408.409 997.062,1408.455 997.595,1408.724 998.148,1408.94 998.722,1409.105 996.644,1409.496 999.998,1409.841 997.934,1410.463 997.207,1410.682 996.398,1410.428 995.692,1410.254 996.496,1410.908 998.049,1412.746 999.255,1412.025 1001.388,1410.751 1001.944,1412.824 1003.11,1413.804 1003.572,1414.192 1004.782,1414.5 1005.335,1414.245 1005.791,1414.034 1005.995,1413.008 1006.65,1413.309 1007.657,1413.774 1007.612,1415.272 1008.442,1415.803 1007.378,1416.766 1006.225,1416.141 1005.192,1415.513 1005.192,1415.992 1005.192,1416.473 1005.192,1416.952 1004.65,1416.879 1004.473,1416.522 1004.055,1416.264 1003.575,1415.967 1003.238,1416.712 1002.708,1416.571 1000.913,1416.094 999.664,1415.221 997.642,1415.293 998.448,1415.87 999.697,1416.744 1000.732,1416.733 1000.234,1416.881 999.731,1416.905 999.222,1416.803 1000.414,1417.797 1001.589,1417.709 1003.042,1417.883 1003.352,1417.92 1005.387,1417.947 1005.451,1418.426 1005.557,1419.223 1006.249,1419.221 1007.002,1419.252 1006.318,1419.614 1006.172,1420.229 1006.782,1420.763 1005.333,1421.784 1003.657,1420.062 1002.102,1420.693 1002.842,1420.98 1006.047,1421.512 1006.401,1422.047 1006.726,1422.538 1004.417,1423.231 1004.122,1423.282 1005.592,1424.038 1003.967,1425.178 1004.823,1425.836 1005.709,1426.517 1006.453,1427.354 1004.948,1427.837 1003.714,1428.233 1003.107,1427.767 1002.244,1426.952 1001.098,1425.871 999.323,1426.012 997.922,1425.442 998.387,1426.268 999.272,1426.589 1000.082,1426.962 999.372,1427.883 997.329,1428.021 996.272,1428.032 997.751,1428.87 999.681,1427.574 1001.022,1428.832 999.463,1430.017 997.209,1428.772 995.622,1429.982 996.038,1430.32 1001.957,1430.345 1001.791,1430.694 1001.217,1431.902 998.877,1432.347 997.739,1432.59 995.697,1433.026 993.764,1433.623 991.76,1434.197 989.999,1434.703 988.218,1434.878 986.433,1435.243 984.5,1435.639 982.088,1436.392 980.136,1436.392 978.573,1436.392 976.737,1436.424 975.257,1436.967 974.119,1437.384 975.453,1438.901 973.81,1439.355 971.392,1440.024 968.55,1439.078 966.077,1439.044 961.287,1438.98 956.511,1438.527 951.721,1438.483 948.202,1438.452 944.369,1438.54 941.289,1436.553 939.74,1435.553 938.615,1434.895 936.702,1434.977 934.78,1435.059 932.808,1433.877 930.963,1434.231 932.809,1434.746 930.202,1435.272 929.628,1435.777 929.029,1436.302 931.298,1437.564 931.755,1437.721 935.902,1439.151 940.109,1440.64 944.321,1441.876 946.539,1442.527 948.671,1443.41 950.88,1444.076 953.124,1444.754 955.375,1444.409 957.675,1444.334 960.187,1444.251 962.862,1444.438 965.332,1444.936 969.06,1445.685 965.643,1447.791 963.521,1448.274 960.13,1449.045 956.649,1447.924 953.284,1447.551 948.384,1447.008 943.431,1446.959 938.515,1446.592 936.21,1446.419 933.889,1446.329 931.614,1445.891 929.308,1445.448 927.004,1444.809 924.634,1445.101 925.918,1446.561 928.361,1446.42 930.104,1446.761 928.82,1447.291 927.397,1446.714 926.074,1446.761 931.034,1448.039 936.204,1448.493 941.308,1448.723 943.882,1448.838 949.422,1448.661 950.763,1451.511 947.2,1453.986 940.134,1452.94 936.105,1452.549 929.727,1451.93 923.55,1448.892 917.073,1449.421 917.911,1450.859 920.522,1451.276 921.963,1451.726 924.442,1452.498 926.719,1453.747 929.255,1454.38 932.168,1455.108 935.006,1454.678 937.849,1455.816 939.283,1456.39 942.502,1458.061 944.073,1457.631 943.241,1456.724 942.082,1456.225 941.043,1455.61 942.281,1454.819 944.063,1455.274 945.413,1455.418 947.194,1455.607 949.032,1455.618 950.822,1455.62 954.832,1455.62 958.902,1455.287 962.786,1456.54 966.326,1457.682 965.044,1459.941 961.807,1460.232 957.436,1460.626 953.126,1459.21 948.754,1459.43 956.125,1462.577 964.504,1459.688 972.074,1461.95 973.744,1462.449 975.324,1463.207 977.007,1463.669 978.886,1464.185 980.922,1464.198 982.85,1464.434 987.393,1464.988 991.921,1465.698 996.495,1465.957 1005.203,1466.45 1013.95,1467.381 1022.568,1468.77 1031.091,1470.143 1039.696,1470.645 1048.216,1471.959 1052.175,1472.569 1056.195,1472.882 1060.134,1473.539 1061.101,1473.7 1064.132,1473.685 1064.041,1475.121 1063.939,1476.722 1066.502,1476.462 1067.607,1476.399 1070.98,1476.209 1073.944,1474.406 1077.077,1473.345 1081.172,1471.958 1085.821,1471.828 1090.1,1471.486 1099.004,1470.772 1107.812,1469.999 1116.753,1470.286 1120.724,1470.413 1124.697,1470.447 1128.667,1470.586 1130.241,1470.642 1131.915,1470.714 1133.44,1470.251 1135.117,1469.744 1135.614,1468.055 1137.478,1467.812 1146.066,1466.69 1154.791,1466.269 1163.361,1465.088 1167.892,1464.464 1172.353,1464.349 1176.91,1463.978 1178.775,1463.826 1180.503,1463.39 1182.381,1463.39 1183.501,1463.39 1184.444,1462.58 1185.636,1462.557 1188.056,1462.51 1190.48,1462.705 1192.896,1462.474 1193.396,1462.426 1197.537,1461.708 1196.143,1460.437 1194.81,1459.222 1192.038,1459.123 1190.36,1458.874 1188.459,1458.594 1186.509,1458.494 1184.623,1458.13 1185.873,1456.983 1189.023,1456.444 1190.626,1455.956 1192.698,1455.324 1194.781,1454.687 1196.933,1454.39 1195.901,1453.222 1193.162,1453.982 1191.891,1454.203 1189.398,1454.639 1186.868,1454.775 1184.349,1455.024 1177.915,1455.663 1171.267,1457.688 1164.873,1455.893 1162.159,1455.131 1159.608,1454.846 1156.831,1454.508 1155.405,1454.335 1151.64,1453.64 1152.151,1451.446 1152.521,1449.855 1154.6,1448.803 1155.926,1448.141 1157.304,1447.453 1158.502,1446.341 1159.931,1445.775 1160.931,1445.379 1162.607,1444.322 1163.672,1444.379 1163.239,1444.358 1162.805,1444.334 1162.372,1444.309 1163.508,1444.176 1164.52,1443.519 1165.682,1443.519 1166.945,1443.519 1168.321,1443.763 1169.527,1443.261 1170.745,1442.754 1171.457,1441.953 1172.844,1441.776 1174.181,1441.604 1175.292,1441.323 1176.546,1440.827 1181.769,1438.76 1187.051,1437.918 1192.682,1437.319 1190.654,1436.626 1193.017,1436.751 1193.471,1436.848 1194.342,1437.035 1195.121,1436.929 1195.951,1436.626 1198.02,1435.871 1200.072,1435.469 1202.268,1435.29 1204.088,1435.144 1205.904,1434.906 1207.732,1434.879 1209.592,1434.852 1211.619,1435.163 1213.41,1434.514 1214.92,1433.967 1216.658,1434.208 1218.212,1434.379 1220.146,1434.591 1221.51,1434.186 1223.3,1433.542 1227.01,1432.209 1231.373,1434.039 1235.312,1433.068 1234.014,1431.81 1231.134,1431.885 1233.932,1430.045 1234.605,1429.603 1235.307,1429.179 1235.897,1428.623 1236.963,1427.618 1236.56,1426.492 1238.204,1425.963 1239.302,1425.61 1240.433,1425.486 1241.543,1425.201 1242.815,1424.875 1243.46,1423.83 1244.74,1423.478 1247.418,1422.745 1250.084,1421.665 1252.802,1421.118 1251.627,1420.586 1250.081,1421.169 1249.029,1420.336 1248.154,1419.644 1246.836,1420.577 1246.041,1420.954 1243.304,1422.25 1239.363,1422.182 1236.532,1421.268 1237.77,1420.683 1239.054,1420.191 1240.352,1419.758 1239.247,1419.191 1237.681,1419.855 1236.602,1420.188 1236.296,1418.954 1238.212,1418.921 1238.612,1417.949 1239.188,1416.546 1240.607,1416.421 1241.957,1416.155 1245.321,1415.494 1248.268,1416.596 1251.363,1414.568 1249.916,1414.32 1248.389,1413.975 1247.123,1413.198 1248.269,1412.553 1249.788,1412.988 1251.021,1412.988 1252.321,1412.988 1253.512,1412.742 1254.758,1412.395 1256.366,1411.948 1263.104,1410.3 1262.54,1407.833 1262.103,1405.921 1259.381,1405.597 1257.91,1404.908 1254.743,1403.425 1258.391,1402.28 1260.152,1402.327 1259.791,1404.362 1261.775,1405.357 1263.532,1404.993 1264.538,1404.784 1265.133,1403.688 1265.796,1403.016 1266.535,1402.266 1267.588,1401.903 1268.213,1401.027 1267.44,1400.816 1266.596,1400.789 1265.913,1400.317 1267.473,1399.883 1269.04,1399.628 1270.663,1399.737 1270.491,1399.973 1270.324,1400.213 1270.163,1400.457 1271.514,1401.166 1273.165,1401.026 1274.372,1402.06 1275.198,1402.767 1275.478,1403.846 1276.027,1404.745 1277.413,1407.011 1281.18,1405.609 1283.333,1405.358 1283.362,1404.225 1280.72,1403.963 1281.719,1403.025 1283.286,1401.552 1284.368,1400.441 1286.352,1399.52 1287.6,1398.941 1288.887,1398.253 1290.277,1398.109 1290.98,1398.036 1291.715,1398.148 1292.254,1398.643 1293.407,1399.705 1292.504,1399.914 1291.455,1400.399 1290.2,1400.98 1288.415,1402.216 1290.538,1403.246 1292.373,1404.137 1295.344,1402.648 1297.234,1402.438 1301.424,1401.972 1306.011,1403.543 1310.044,1401.608 1309.739,1403.941 1312.631,1403.351 1313.788,1403.492 1315,1403.64 1315.479,1402.695 1316.524,1402.412 1317.608,1402.118 1319.155,1403.195 1318.044,1404.278 1320.215,1405.432 1321.861,1404.478 1323.724,1403.268 1325.78,1401.932 1327.309,1401.464 1329.698,1400.943 1335.392,1399.698 1340.928,1398.666 1346.723,1397.971 1349.377,1397.653 1352.036,1397.538 1354.705,1397.61 1357.089,1397.673 1359.021,1397.526 1360.854,1395.938 1362.078,1394.878 1363.722,1393.491 1365.333,1394.751 1367.057,1396.1 1368.991,1398.022 1370.674,1395.128 1369.88,1394.773 1369.051,1394.459 1368.364,1393.907 1370.983,1392.821 1373.503,1394.923 1375.964,1395.487 1378.569,1396.088 1380.243,1397.819 1382.913,1398.117 1385.699,1398.427 1388.153,1398.822 1390.296,1396.669 1392.45,1394.505 1395.216,1395.435 1397.99,1394.743 1400.917,1394.015 1403.524,1395.448 1406.486,1395.399 1409.52,1395.349 1412.4,1394.465 1415.387,1394.06 1418.581,1393.625 1421.041,1392.992 1424.26,1393.67 1427.538,1394.361 1430.912,1394.903 1434.213,1395.501 1437.483,1396.093 1440.818,1395.803 1444.078,1396.519 1447.44,1397.257 1450.291,1397.001 1453.684,1396.553 1460.401,1395.667 1467.129,1395.01 1473.854,1394.259 1476.977,1393.91 1479.913,1392.775 1483.006,1392.321 1485.982,1391.884 1488.969,1392.076 1491.935,1391.752 1494.852,1391.433 1498.004,1389.921 1500.833,1389.063 1503.143,1388.363 1504.664,1385.945 1506.964,1385.627 1505.834,1383.335 1509.191,1382.481 1510.77,1382.2 1511.873,1382.005 1513.226,1381.91 1514.212,1382.552 1515.235,1383.216 1514.748,1384.352 1515.476,1385.066 1516.646,1386.212 1518.889,1387.293 1520.524,1387.509 1521.364,1387.62 1523.253,1387.577 1523.275,1388.832 1523.288,1389.599 1521.408,1388.781 1521.085,1388.717 1521.763,1390.415 1523.616,1391.213 1525.235,1390.238 1527.274,1389.009 1528.856,1387.807 1531.375,1387.707 1531.426,1390.273 1528.748,1389.525 1527.195,1390.447 1528.367,1391.124 1532.082,1390.572 1531.594,1392.827 1532.433,1391.713 1533.247,1389.898 1534.764,1389.588 1535.181,1390.54 1533.897,1391.257 1533.894,1392.156 1533.884,1393.957 1536.225,1391.885 1536.598,1391.6 1537.59,1390.845 1543.271,1390.381 1541.164,1387.637 1541.911,1387.529 1542.082,1386.725 1542.314,1386.145 1542.695,1385.192 1543.504,1384.806 1544.488,1384.643 1547.275,1384.182 1549.694,1382.622 1552.473,1382.167 1554.874,1381.774 1557.053,1381.561 1559.203,1380.344 1561.684,1378.938 1563.654,1379.192 1566.326,1378.785 1568.821,1378.406 1570.609,1378.242 1572.865,1377.097 1573.88,1376.58 1575.158,1376.245 1576.303,1376.337 1577.591,1376.439 1577.654,1377.044 1578.881,1376.3 1579.735,1375.782 1580.873,1376.282 1581.631,1375.799 1582.234,1375.415 1581.675,1374.388 1582.017,1373.851 1583.109,1372.139 1587.458,1373.393 1588.683,1374.247 1587.918,1374.516 1587.132,1374.725 1586.383,1375.037 1586.912,1375.369 1587.113,1375.88 1587.57,1376.263 1588.37,1376.932 1589.995,1376.294 1590.834,1376.065 1593.256,1375.402 1595.785,1375.05 1598.124,1374.108 1597.588,1373.714 1595.728,1374.28 1595.587,1373.648 1595.397,1372.804 1594.592,1373.019 1593.944,1372.588 1594.514,1371.256 1596.648,1370.984 1597.862,1370.651 1598.462,1370.487 1599.059,1370.306 1599.666,1370.173 1600.662,1369.956 1600.121,1371.217 1599.344,1371.297 1600.541,1372.543 1602.431,1370.491 1603.48,1371.788 1604.544,1373.103 1607.355,1372.58 1608.705,1372.156 1607.913,1372.07 1607.235,1371.629 1606.475,1371.436 1607.476,1370.318 1604.772,1369.082 1606.798,1367.593 1608.786,1366.132 1611.263,1366.443 1613.398,1365.367 1618.289,1362.903 1624.503,1362.202 1629.987,1362.528 1632.443,1362.674 1635.402,1362.428 1637.719,1363.375 1639.518,1364.11 1640.59,1366.377 1642.54,1366.513 1643.226,1366.561 1648.14,1367.486 1646.442,1368.418 1645.504,1368.934 1642.76,1369.02 1642.684,1370.356 1643.799,1370.313 1644.633,1371.208 1645.714,1371.296 1646.217,1371.217 1646.72,1371.144 1647.224,1371.075 1647.919,1371.143 1648.47,1371.623 1649.164,1371.69 1649.565,1371.583 1649.971,1371.561 1650.38,1371.627 1650.788,1372.049 1651.273,1372.345 1651.834,1372.515 1652.903,1372.717 1654.087,1371.821 1654.714,1373.165 1654.424,1373.236 1654.133,1373.31 1653.844,1373.385 1654.228,1374.362 1654.983,1374.153 1655.786,1373.931 1656.622,1373.7 1657.354,1374.071 1658.198,1374.059 1660.508,1374.027 1662.755,1373.995 1665.013,1374.555 1666.932,1375.031 1668.824,1374.808 1670.758,1375.151 1671.986,1375.37 1673.163,1375.947 1674.433,1375.905 1675.956,1375.855 1677.38,1375.088 1678.923,1374.978 1681.681,1374.783 1684.457,1375.743 1687.222,1375.916 1690.212,1376.104 1693.157,1376.721 1696.144,1376.878 1699.309,1377.046 1702.426,1377.208 1705.583,1377.533 1706.838,1377.663 1708.07,1377.704 1709.291,1377.341 1710.508,1376.978 1711.739,1376.4 1713.033,1376.766 1712.88,1377.792 1711.926,1378.423 1711.733,1379.431 1711.545,1380.408 1712.901,1381.165 1712.672,1382.096 1712.389,1383.248 1711.116,1382.868 1710.267,1382.966 1709.72,1382.966 1709.562,1383.248 1709.792,1383.825 1709.05,1384.309 1708.322,1384.475 1707.482,1384.685 1707.938,1384.994 1708.442,1385.136 1708.992,1385.115 1708.474,1386.182 1707.097,1386.18 1706.122,1386.485 1706.619,1387.012 1707.607,1387.079 1707.684,1387.94 1707.754,1388.722 1706.852,1388.627 1706.36,1388.54 1704.764,1388.255 1702.624,1388.103 1701.583,1389.655 1702.313,1390.02 1703.152,1390.01 1703.883,1390.376 1703.508,1390.718 1702.982,1390.869 1702.587,1391.189 1702.095,1391.587 1702.655,1392.045 1701.974,1392.486 1701.308,1392.916 1699.439,1393.954 1698.785,1392.97 1698.012,1391.809 1696.466,1392.172 1695.51,1392.869 1694.945,1393.282 1694.442,1393.771 1693.855,1394.155 1692.834,1394.822 1692.797,1395.475 1692.004,1396.274 1693.049,1397.104 1693.914,1396.489 1695.034,1396.274 1695.066,1397.153 1694.486,1397.904 1693.734,1398.295 1695.214,1399.169 1698.468,1397.782 1697.624,1395.774 1698.072,1395.752 1700.612,1395.165 1700.436,1396.168 1700.186,1397.589 1698.414,1399.152 1697.291,1399.93 1695.718,1401.02 1694.002,1401.145 1692.285,1401.847 1690.556,1402.553 1689.201,1403.917 1687.324,1404.345 1687.596,1404.451 1687.863,1404.571 1688.124,1404.704 1687.492,1406.463 1685.172,1406.614 1684.113,1407.872 1683.281,1408.86 1688.549,1410.17 1689.117,1410.239 1691.597,1410.54 1693.604,1409.778 1695.841,1408.825 1697.885,1407.955 1700.086,1407.92 1702.176,1407.224 1703.882,1406.656 1705.774,1405.368 1707.28,1404.387 1708.238,1403.763 1707.466,1403.64 1707.768,1403.017 1707.962,1402.62 1708.791,1402.021 1709.088,1401.636 1710.15,1400.264 1712.1,1399.592 1713.451,1398.496 1714.261,1397.84 1715.088,1398.033 1716.052,1398.049 1717.281,1398.069 1717.389,1397.357 1718.284,1396.854 1718.668,1396.638 1720.613,1396.472 1720.331,1395.63 1720.186,1395.2 1719.719,1394.675 1720.269,1394.304 1721.614,1393.396 1723.271,1393.109 1724.792,1392.66 1726.785,1392.074 1729.199,1391.211 1731.277,1391.399 1731.77,1391.453 1732.266,1391.47 1732.762,1391.453 1733.026,1391.236 1733.288,1391.02 1733.552,1390.804 1734.193,1390.769 1734.176,1391.683 1734.961,1391.169 1735.534,1390.794 1735.88,1390.142 1736.544,1389.891 1737.465,1389.542 1738.563,1390.237 1739.554,1390.102 1740.701,1389.945 1741.547,1389.357 1742.589,1388.949 1743.288,1388.676 1744.116,1388.906 1744.849,1388.741 1745.787,1388.531 1746.586,1387.845 1747.544,1387.602 1748.587,1387.338 1749.648,1387.515 1750.699,1387.304 1751.658,1387.112 1752.86,1386.873 1753.678,1386.299 1754.629,1385.63 1755.151,1384.527 1756.372,1384.254 1753.626,1383.912 1758.343,1381.897 1758.857,1381.746 1761.581,1380.949 1763.721,1379.356 1766.578,1378.911 1769.891,1378.393 1773.185,1377.819 1776.523,1377.467 1778.023,1377.308 1778.579,1376.611 1779.836,1376.078 1780.858,1375.645 1782.098,1376.078 1783.152,1376.113 1782.525,1375.466 1781.673,1375.104 1780.782,1375.033 1782.334,1374.05 1784.175,1372.864 1786.039,1372.658 1787.168,1372.533 1786.972,1373.159 1787.598,1373.799 1788.269,1374.486 1789.741,1373.093 1790.424,1372.863 1793.35,1371.884 1796.684,1372.226 1799.722,1372.153 1801.229,1372.117 1802.714,1372.467 1804.211,1372.576 1806.051,1372.71 1807.679,1372.084 1809.465,1371.772 1811.673,1371.388 1813.917,1371.326 1816.121,1370.906 1817.101,1370.718 1818.102,1370.501 1819.023,1370.105 1819.845,1369.751 1820.299,1368.96 1821.182,1368.742 1823.504,1368.169 1824.273,1364.216 1826.42,1364.021 1827.258,1363.945 1827.108,1365.61 1827.175,1366.137 1827.389,1367.842 1826.688,1367.564 1825.851,1368.843 1827.327,1369.714 1829.438,1369.338 1831.022,1369.047 1833.663,1368.563 1836.342,1368.285 1839.004,1367.94 1841.028,1367.678 1843.5,1367.343 1845.471,1367.994 1847.726,1368.738 1850.357,1368.09 1852.711,1368.138 1854.353,1368.17 1856.482,1368.995 1858.037,1368.431 1860.255,1367.624 1861.766,1367.697 1864.061,1368.327 1865.999,1368.858 1867.81,1368.345 1869.77,1368.345 1870.895,1368.345 1872.007,1368.266 1873.095,1367.962 1874.191,1367.655 1875.221,1368.319 1876.321,1368.125 1876.151,1368.387 1875.984,1368.649 1875.821,1368.915 1876.887,1369.141 1877.926,1368.144 1878.911,1367.904 1880.215,1367.588 1882.218,1367.235 1883.497,1367.859 1884.47,1368.333 1883.832,1370.043 1885.054,1370.109 1886.266,1370.175 1887.453,1368.788 1888.543,1368.363 1889.839,1367.857 1891.215,1367.612 1892.542,1367.208 1894.188,1366.707 1895.518,1365.685 1897.063,1364.968 1898.376,1364.359 1899.832,1363.912 1901.296,1364.043 1903.086,1364.201 1904.903,1363.18 1906.755,1363.183 1908.313,1363.183 1909.711,1362.7 1911.274,1363.016 1913.138,1363.393 1914.768,1363.333 1916.615,1363.523 1917.88,1363.653 1919.225,1364.675 1920.396,1364.675 1921.921,1364.675 1923.589,1365.18 1925.072,1365.489 1926.644,1365.818 1928.234,1366.42 1929.829,1366.598 1931.28,1366.76 1933.428,1367.15 1934.861,1367.009 1935.833,1366.914 1937.116,1366.146 1937.7,1367.416 1938.117,1368.324 1937.997,1369.134 1939.322,1368.773 1939.147,1369.007 1938.98,1369.247 1938.822,1369.493 1939.976,1370.455 1942.118,1369.369 1943.324,1369.043 1944.853,1368.629 1946.303,1369.064 1947.841,1368.683 1949.393,1368.297 1951.422,1367.781 1952.753,1366.847 1954.432,1365.669 1954.775,1364.378 1957.018,1363.826 1959.252,1363.275 1961.515,1362.839 1963.821,1362.743 1966.288,1362.64 1968.492,1361.972 1970.907,1361.569 1973.361,1361.161 1973.323,1363.127 1974.956,1364.371 1976.183,1365.307 1973.782,1366.684 1975.6,1367.191 1978.366,1367.963 1981.125,1365.643 1983.944,1366.508 1984.574,1366.701 1985.702,1367.189 1986.002,1367.813 1986.324,1368.483 1985.834,1369.238 1986.322,1369.881 1987.303,1371.176 1991.33,1371.24 1992.788,1370.919 1995.077,1370.415 1997.129,1370.567 1999.46,1370.389 2002.081,1370.189 2004.635,1369.83 2007.27,1369.812 2011.78,1369.781 2016.968,1366.094 2021.405,1368.484 2021.12,1368.704 2020.834,1368.921 2020.545,1369.134 2022.315,1370.027 2024.931,1368.446 2026.665,1368.054 2028.327,1367.679 2031.958,1366.411 2030.765,1369.274 2034.223,1369.445 2036.153,1366.883 2039.331,1366.457 2040.501,1366.299 2042.153,1365.362 2043.31,1365.935 2043.665,1366.11 2045.025,1367.461 2045.453,1367.028 2044.607,1367.884 2043.725,1368.719 2042.866,1369.565 2043.669,1370.387 2044.33,1370.026 2045.095,1370.355 2045.26,1370.625 2045.43,1370.891 2045.605,1371.155 2046.163,1371.329 2046.734,1371.415 2047.318,1371.412 2049.857,1371.484 2051.442,1372.163 2053.954,1371.381 2056.029,1370.735 2057.527,1368.749 2059.533,1367.838 2062.155,1366.648 2064.667,1365.51 2067.566,1365.176 2069.522,1364.951 2071.507,1365.55 2073.506,1365.419 2076.341,1365.233 2079.191,1365.035 2082.019,1364.768 2084.162,1364.565 2086.703,1363.52 2088.528,1364.935 2090.273,1366.288 2092.438,1362.388 2093.126,1361.506 2092.886,1361.381 2092.643,1361.261 2092.397,1361.146 2093.601,1359.873 2095.405,1357.372 2097.091,1356.751 2097.881,1356.462 2098.779,1355.298 2099.712,1355.582 2100.725,1355.891 2100.82,1356.851 2102.046,1356.315 2102.046,1357.01 2101.595,1357.499 2101.196,1358.008 2100.717,1358.619 2100.883,1359.358 2100.362,1359.878 2098.734,1361.506 2096.162,1362.733 2094.126,1363.805 2094.885,1364.776 2095.908,1363.908 2096.865,1364.095 2097.483,1364.215 2097.796,1365.076 2098.499,1365.308 2099.348,1365.587 2100.162,1366.133 2101.044,1366.287 2101.998,1366.453 2103.107,1365.967 2104.103,1366.01 2106.527,1366.114 2108.543,1367.199 2110.845,1367.573 2113.123,1367.942 2115.256,1367.632 2117.539,1368.26 2118.742,1368.591 2119.955,1368.9 2121.192,1369.076 2121.973,1369.188 2123.166,1368.939 2123.849,1369.398 2125.417,1370.451 2127.755,1368.514 2129.027,1369.674 2130.354,1370.886 2130.358,1371.461 2132.543,1370.93 2133.58,1370.677 2134.593,1370.142 2135.661,1370.046 2136.602,1369.963 2138.122,1370.822 2136.756,1371.654 2138.11,1371.87 2139.371,1370.892 2140.716,1371.224 2140.726,1371.953 2140.116,1372.248 2139.916,1372.874 2142.07,1372.566 2143.985,1371.311 2146.186,1371.224 2146.015,1371.461 2145.849,1371.701 2145.686,1371.944 2146.196,1371.971 2146.699,1372.042 2147.197,1372.154 2146.369,1374.103 2142.931,1374.338 2141.287,1375.255 2142.512,1376.823 2144.888,1375.04 2146.342,1376.236 2148.609,1378.094 2147.044,1378.436 2145.318,1379.354 2147.123,1379.835 2154.47,1375.737 2155.547,1377.994 2156.22,1379.405 2152.911,1378.468 2153.007,1379.824 2153.187,1382.387 2158.058,1380.926 2159.357,1380.654 2158.042,1382.533 2165.497,1381.53 2165.48,1381.646 2165.209,1383.568 2161.917,1383.729 2161.238,1385.404 2162.166,1386.221 2165.591,1384.85 2166.777,1384.838 2167.933,1384.826 2169.119,1384.17 2170.256,1384.394 2171.155,1384.572 2172.085,1384.814 2172.979,1385.026 2173.738,1385.206 2174.216,1385.979 2174.792,1385.204 2175.106,1384.78 2176.228,1385.353 2176.788,1385.173 2177.653,1384.894 2178.249,1384.219 2178.828,1383.559 2179.213,1383.119 2179.847,1383.172 2179.966,1383.038 2180.608,1382.317 2179.771,1380.953 2181.501,1381.158 2182.399,1381.264 2182.97,1381.95 2183.671,1382.445 2184.618,1383.112 2183.503,1384.042 2182.841,1383.615 2182.831,1383.605 2180.134,1384.722 2179.807,1384.975 2181.246,1385.158 2180.192,1387.044 2182.146,1386.707 2183.603,1386.455 2184.175,1387.83 2185.515,1387.506 2186.135,1387.357 2186.915,1386.857 2187.478,1387.383 2187.963,1387.838 2189.352,1387.218 2189.97,1387.184 2192.103,1387.064 2193.069,1386.305 2194.927,1385.475 2195.13,1386.141 2194.202,1387.264 2194.701,1387.832 2195.086,1388.27 2197.819,1387.76 2198.71,1388.324 2199.412,1388.769 2199.159,1389.021 2199.332,1389.697 2199.576,1390.65 2200.69,1390.239 2201.337,1390.444 2201.9,1390.623 2202.47,1390.826 2202.847,1391.314 2203.41,1392.043 2202.076,1392.361 2203.357,1392.964 2203.025,1393.166 2202.666,1393.286 2202.278,1393.323 2202.914,1393.779 2203.054,1394.702 2203.871,1394.927 2204.725,1395.161 2205.699,1394.813 2206.548,1394.705 2207.94,1394.529 2206.909,1395.308 2207.458,1395.414 2208.327,1395.584 2209.153,1394.929 2209.908,1394.624 2209.121,1395.079 2208.262,1395.477 2207.678,1396.203 2208.969,1395.616 2210.28,1395.207 2211.704,1395.127 2212.737,1395.068 2212.106,1395.947 2212.138,1396.634 2212.267,1399.401 2216.306,1396.807 2217.7,1396.728 2218.975,1396.655 2220.037,1396.781 2221.279,1397.064 2222.081,1397.247 2224.038,1396.585 2224.599,1397.349 2225.866,1399.074 2229.701,1397.426 2231.438,1397.574 2230.805,1398.503 2229.92,1397.84 2229.058,1398.154 2230.079,1399.142 2231.91,1398.476 2233.146,1398.415 2234.829,1398.33 2235.222,1399.796 2233.378,1399.954 2233.687,1400.551 2233.731,1401.281 2234.457,1401.505 2235.225,1401.742 2237.75,1402.648 2236.258,1403.114 2236.938,1403.282 2238.254,1403.232 2238.654,1403.948 2238.887,1404.367 2239.108,1405.081 2239.762,1404.769 2241.152,1404.107 2241.972,1403.106 2243.167,1402.254 2243.713,1404.836 2239.969,1406.785 2238.039,1407.08 2236.61,1407.298 2234.901,1407.251 2233.59,1407.907 2232.265,1408.57 2231.007,1409.942 2229.417,1409.884 2230.465,1410.228 2231.43,1409.524 2232.437,1409.384 2230.346,1411.125 2227.594,1411.626 2225.196,1412.795 2224.089,1413.335 2222.991,1413.907 2221.83,1414.328 2220.428,1414.835 2218.919,1414.695 2217.559,1415.289 2215.761,1416.075 2214.267,1416.874 2212.684,1417.839 2211.576,1418.517 2211.71,1417.026 2210.571,1417.556 2209.31,1418.143 2208.16,1418.796 2206.738,1418.314 2207.008,1418.105 2207.27,1417.888 2207.528,1417.665 2206.652,1416.459 2205.107,1417.47 2204.073,1417.834 2202.401,1418.422 2200.56,1418.03 2198.97,1418.973 2197.643,1419.76 2195.883,1419.526 2194.412,1419.657 2192.919,1419.79 2191.031,1420.229 2189.606,1420.685 2190.106,1420.952 2190.632,1421.145 2191.186,1421.265 2190.464,1422.842 2187.283,1421.774 2186.023,1421.741 2184.211,1421.694 2182.578,1422.738 2181.674,1424.231 2180.225,1426.627 2178.524,1424.77 2176.296,1425.826 2175.165,1426.362 2175.236,1426.349 2174.365,1425.772 2173.638,1425.291 2172.551,1425.942 2171.816,1426.085 2171.209,1426.234 2170.616,1426.431 2170.04,1426.675 2169.578,1426.845 2169.95,1427.516 2169.516,1427.745 2168.434,1428.319 2167.101,1428.305 2165.912,1428.298 2163.683,1428.283 2161.136,1428.19 2159.217,1429.546 2159.104,1429.803 2159.007,1430.067 2158.927,1430.336 2158.435,1430.852 2158.153,1430.253 2157.839,1431.13 2157.544,1431.949 2157.408,1432.219 2156.524,1432.564 2155.318,1433.033 2154.309,1433.874 2153.125,1434.38 2151.464,1435.092 2149.629,1435.189 2147.918,1435.735 2148.32,1436.039 2148.773,1436.182 2149.277,1436.166 2147.871,1437.411 2145.854,1438.779 2143.887,1438.686 2144.18,1438.845 2144.467,1439.015 2144.747,1439.196 2142.936,1440.311 2140.588,1440.767 2138.487,1440.846 2139.467,1441.286 2140.54,1441.205 2141.577,1441.356 2141.374,1442.291 2140.661,1443.415 2139.961,1444.054 2139.419,1444.548 2136.741,1445.5 2135.967,1445.526 2137.279,1445.929 2138.685,1445.448 2139.997,1445.316 2139.659,1447.367 2134.92,1448.157 2133.436,1448.406 2134.87,1448.658 2136.3,1448.097 2137.686,1447.826 2137.231,1448.261 2136.705,1448.574 2136.106,1448.766 2137.479,1449.467 2139.549,1448.133 2140.856,1447.756 2140.34,1448.444 2138.887,1448.402 2138.572,1449.046 2138.311,1449.58 2138.53,1449.964 2137.686,1449.916 2138.726,1450.882 2140.451,1450.636 2141.741,1450.636 2142.186,1450.636 2142.597,1450.907 2142.197,1451.335 2141.652,1451.917 2140.71,1451.807 2139.997,1451.865 2142.049,1451.546 2139.049,1450.855 2138.528,1450.837 2136.986,1450.784 2135.436,1451.084 2133.898,1451.156 2129.563,1451.36 2125.445,1451.563 2121.164,1452.385 2119.506,1452.702 2117.896,1453.209 2116.265,1453.51 2114.694,1453.8 2113.385,1452.754 2111.784,1453.374 2108.34,1454.705 2104.203,1453.595 2100.607,1454.745 2102.693,1455.211 2099.639,1455.978 2099.238,1456.115 2101.14,1455.973 2098.798,1457.052 2098.343,1457.207 2097.117,1457.625 2095.823,1457.82 2094.553,1458.046 2091.529,1458.582 2088.505,1459.261 2085.488,1459.856 2087.869,1460.447 2090.233,1459.109 2092.618,1459.566 2090.901,1460.893 2088.534,1460.819 2086.48,1460.932 2083.683,1461.087 2080.709,1461.126 2077.947,1461.582 2077.701,1461.622 2076.356,1461.868 2076.967,1462.395 2077.882,1463.187 2079.217,1462.836 2080.274,1462.659 2083.012,1462.197 2085.836,1462.549 2088.588,1462.155 2087.969,1464.304 2083.426,1462.946 2081.888,1463.235 2083.212,1464.658 2085.242,1462.957 2086.788,1463.675 2084.854,1464.832 2082.486,1464.158 2080.378,1464.465 2081.062,1464.998 2081.911,1465.159 2082.758,1465.114 2081.234,1465.39 2079.931,1466.208 2078.508,1466.764 2080.706,1467.113 2082.92,1466.777 2085.128,1466.834 2083.91,1467.994 2081.887,1467.608 2080.37,1467.81 2078.1,1468.111 2075.892,1468.293 2073.607,1468.494 2074.34,1469.203 2075.333,1468.999 2076.23,1468.861 2077.632,1468.644 2078.867,1469.125 2080.238,1469.284 2079.949,1469.502 2079.659,1469.719 2079.368,1469.934 2079.965,1470.037 2080.564,1470.11 2081.168,1470.154 2079.051,1470.747 2082.688,1470.527 2082.178,1471.875 2081.947,1472.484 2080.034,1472.365 2079.518,1472.385 2081.317,1473.391 2083.48,1472.857 2085.418,1473.244 2085.004,1473.673 2084.501,1473.913 2083.908,1473.965 2084.999,1474.322 2086.153,1474.382 2087.288,1474.475 2085.516,1474.618 2087.19,1475.171 2087.675,1475.207 2088.608,1475.275 2089.528,1474.908 2090.458,1475.045 2089.494,1475.56 2088.379,1475.233 2087.357,1475.475 2089.629,1475.784 2086.362,1476.02 2085.918,1476.055 2088.279,1476.477 2090.709,1475.649 2093.048,1476.275 2092.374,1477.497 2090.506,1477.506 2089.307,1477.538 2087.382,1477.589 2085.458,1477.737 2083.619,1478.355 2086.242,1478.901 2088.804,1477.855 2091.422,1477.855 2094.39,1477.855 2097.281,1478.715 2100.249,1478.715 2098.199,1479.126 2102.49,1478.935 2103.059,1478.935 2102.072,1479.709 2100.786,1479.44 2099.679,1479.875 2100.962,1480.105 2101.542,1479.59 2102.784,1480.23 2104.638,1481.187 2107.159,1480.321 2109.136,1480.251 2111.497,1480.17 2113.619,1480.985 2115.962,1481.044 2118.29,1481.103 2120.58,1481.523 2122.929,1481.523 2120.72,1482.055 2124.568,1481.953 2124.976,1481.921 2126.237,1481.826 2127.505,1481.649 2128.769,1481.813 2128.144,1482.065 2127.494,1482.184 2126.82,1482.173 2129.859,1483.153 2133.123,1482.541 2136.211,1483.237 2139.542,1483.988 2143.002,1483.182 2146.363,1483.182 2153.896,1483.182 2161.406,1483.972 2168.939,1483.972 2152.188,1489.897 2135.24,1495.393 2118.076,1499.999 2114.585,1500.936 2111.356,1502.401 2107.687,1502.401 2102.931,1502.401 2098.175,1502.401 2093.418,1502.401 2084.167,1502.401 2074.916,1502.401 2065.665,1502.401 2028.63,1502.401 1991.595,1502.401 1954.561,1502.401 1880.3,1502.401 1806.04,1502.401 1731.781,1502.401 1657.661,1502.401 1583.541,1502.401 1509.421,1502.401 1435.046,1502.401 1360.67,1502.401 1286.295,1502.401 1212.129,1502.401 1137.963,1502.401 1063.797,1502.401 989.552,1502.401 915.308,1502.401 841.063,1502.401 804.131,1502.401 767.198,1502.401 730.266,1502.401 711.721,1502.401 693.175,1502.401 674.629,1502.401 665.439,1502.401 656.249,1502.401 647.059,1502.401 643.18,1502.401 639.44,1501.023 635.731,1500.005 631.199,1498.762 626.677,1497.481 622.168,1496.152 609.653,1492.464 597.236,1488.401 584.94,1484.042 586.864,1483.986 588.795,1484.042 590.709,1484.249 592.367,1484.43 594.553,1485.453 596.18,1484.906 597.871,1484.339 599.357,1484.896 600.985,1485.304 602.548,1485.693 604.207,1485.632 605.805,1485.627 613.987,1485.606 622.118,1486.579 630.274,1487.014 638.704,1487.463 647.48,1487.949 655.905,1487.5 660.151,1487.274 664.368,1486.954 668.624,1487.138 673.293,1487.339 677.969,1487.847 682.644,1487.501 680.578,1487.026 684.083,1486.045 684.707,1485.955 686.165,1485.746 687.654,1485.828 689.117,1485.933 692.691,1486.188 696.271,1486.17 699.854,1486.229 708.637,1486.374 717.751,1487.677 726.494,1486.631 725.82,1486.326 725.168,1485.955 726.566,1485.771 721.811,1484.409 715.941,1485.073 711.025,1484.99 705.293,1484.894 699.572,1484.947 693.851,1484.492 688.066,1484.033 682.259,1484.048 676.462,1483.872 670.279,1483.684 664.255,1482.933 658.134,1482.107 655.298,1481.724 652.453,1481.323 649.69,1480.557 648.803,1480.311 648.227,1479.57 647.437,1479.151 646.518,1478.664 645.491,1478.443 644.547,1478.014 643.488,1477.534 641.458,1477.475 640.867,1476.307 640.08,1474.751 641.875,1474.524 639.432,1473.963 635.949,1473.164 632.317,1473.034 628.799,1472.414 626.228,1471.961 623.604,1471.928 621.086,1471.184 620.919,1471.134 615.744,1469.936 618.133,1469.501 615.858,1467.031 600.1,1469.264 599.701,1466.4 606.015,1464.297 612.869,1466.214 619.318,1466.387 622.676,1466.478 625.91,1467.051 629.241,1467.406 633.113,1467.818 637.017,1467.316 640.885,1467.77 636.77,1465.091 648.005,1463.89 642.448,1462.102 635.826,1459.972 628.427,1459.027 621.545,1458.283 612.259,1457.279 602.963,1455.834 593.663,1455.048 589.08,1454.66 584.518,1454.606 579.986,1453.734 578.234,1453.396 576.472,1452.944 574.7,1452.729 573.222,1452.55 571.246,1452.645 570.109,1451.501 572.319,1451.036 574.592,1451.007 576.805,1450.561 576.357,1448.365 571.835,1448.249 570.195,1448.244 568.797,1448.234 567.485,1448.758 566.101,1448.725 565.156,1448.704 564.214,1448.559 563.269,1448.691 562.4,1448.811 561.862,1449.393 560.965,1449.412 559.132,1449.45 557.026,1448.718 555.189,1448.472 553.221,1448.208 551.19,1447.921 549.361,1447.107 548.63,1446.781 548.048,1446.304 547.374,1445.889 546.216,1445.175 546.98,1445.222 546.349,1444.662 544.889,1443.372 542.413,1442.849 540.733,1441.781 542.315,1441.962 543.856,1442.403 545.401,1442.809" id="path6898"/>
    <path d="M 920.087,1404.573 C 921.003,1405.279 922.113,1405.156 923.188,1405.293 922.464,1404.861 921.902,1404.228 921.308,1403.644 923.366,1402.493 925.311,1404.679 927.288,1404.934 927.238,1404.419 925.357,1403.286 925.638,1402.907 926.457,1401.803 930.046,1403.957 931.468,1402.994 930.301,1401.873 928.372,1402.179 926.928,1401.774 928.22,1400.108 931.477,1401.2 933.169,1401.433 934.338,1401.594 935.221,1401.896 936.1,1400.962 937.208,1399.784 938.789,1401.497 939.958,1401.623 940.555,1399.235 933.22,1398.333 931.7,1398.31 931.284,1398.3 926.336,1398.023 927.251,1396.667 927.629,1396.105 931.294,1395.903 931.078,1394.914 931.01,1394.601 928.05,1393.414 927.602,1393.053 926.875,1392.468 927.486,1391.517 926.482,1390.927 925.483,1390.34 925.687,1389.636 924.392,1389.281 923.414,1389.012 921.442,1388.323 921.323,1387.082 921.115,1384.916 927.657,1384.207 929.035,1384.406 930.346,1384.595 931.9,1385.34 932.688,1386.434 933.007,1386.876 932.834,1387.608 933.337,1387.944 933.96,1388.359 935.116,1388.058 935.879,1388.438 939.084,1390.033 941.093,1393.142 944.353,1394.607 947.968,1396.231 950.74,1398.342 953.282,1401.42 954.358,1402.723 955.541,1403.801 956.68,1405.026 957.092,1405.47 957.654,1406.078 957.126,1406.631 956.52,1407.268 957.324,1407.154 957.387,1407.742 957.484,1408.643 958.121,1409.069 956.801,1409.551 956.012,1409.838 954.511,1410.26 955.587,1411.273 951.379,1412.229 947.462,1412.213 943.254,1412.016 941.62,1411.939 934.497,1412.787 933.88,1410.346 933.544,1409.014 938.91,1410.038 939.653,1410.149 941.109,1410.367 946.417,1411.374 946.437,1408.753 945.442,1408.614 944.538,1409.258 943.596,1409.443 942.082,1409.741 940.311,1409.074 938.807,1408.893 940.256,1408.048 941.961,1408.389 943.487,1407.813 942.867,1407.275 939.935,1407.023 939.081,1407.023 937.377,1407.023 936.269,1405.566 934.73,1405.096 933.597,1404.75 932.901,1406.578 931.961,1406.924 930.554,1407.442 928.256,1406.652 926.927,1406.162 927.536,1406.879 928.429,1407.183 929.237,1407.602 927.905,1409.851 926.312,1407.892 924.461,1407.892 923.372,1407.892 922.276,1407.826 921.207,1407.608 920.656,1407.495 916.949,1406.349 919.006,1406.162 918.546,1405.847 918.042,1405.63 917.496,1405.512 918.022,1404.542 919.083,1404.301 920.087,1404.573" id="path6924"/>
    <path d="M 973.728,1356.983 C 973.968,1357.176 974.208,1357.37 974.448,1357.563 973.698,1358.054 972.884,1357.536 972.218,1357.203 972.671,1356.783 973.175,1356.71 973.728,1356.983" id="path6938"/>
    <path d="M 975.888,1349.354 C 975.591,1348.747 975.871,1348.335 976.538,1348.343 975.972,1347.614 977.194,1346.608 977.893,1346.927 978.885,1347.38 978.84,1348.841 979.998,1349.064 979.849,1348.481 980.185,1348.039 980.718,1347.843 980.907,1349.208 983.144,1348.825 983.958,1349.573 982.971,1350.172 983.985,1350.98 983.191,1351.261 982.238,1351.599 981.119,1351.751 980.112,1351.647 977.887,1351.415 978.246,1348.853 975.888,1349.354" id="path6940"/>
    <path d="M 981.717,1384.053 C 981.477,1383.983 981.237,1383.913 980.997,1383.843 981.329,1383.529 981.712,1383.433 982.147,1383.553 982.004,1383.72 981.861,1383.886 981.717,1384.053" id="path6942"/>
    <path d="M 984.167,1393.203 C 984.264,1392.986 984.36,1392.769 984.457,1392.553 984.821,1392.631 985.014,1392.848 985.037,1393.203 984.748,1393.203 984.458,1393.203 984.167,1393.203" id="path6944"/>
    <path d="M 990.068,1396.583 C 990.642,1396.692 991.172,1396.909 991.658,1397.233 991.053,1398.376 989.614,1397.97 988.778,1397.373 989.018,1396.864 989.482,1396.513 990.068,1396.583" id="path6946"/>
    <path d="M 992.238,1399.463 C 993.122,1399.419 994.116,1399.918 994.467,1400.763 993.59,1400.716 991.96,1400.753 991.867,1399.534 991.991,1399.51 992.114,1399.486 992.238,1399.463" id="path6948"/>
    <path d="M 979.778,1391.184 C 979.988,1389.31 979.938,1389.33 978.664,1388.182 977.882,1387.476 976.607,1386.413 975.457,1386.864 975.476,1387.927 976.575,1388.37 977.327,1388.861 978.222,1389.445 978.628,1391.058 979.778,1391.184" id="path7078"/>
    <path d="M 954.358,1376.063 C 954.88,1375.891 955.41,1375.747 955.948,1375.632 955.337,1375.476 954.807,1375.619 954.358,1376.063" id="path7080"/>
    <path d="M 558.99387,1455.7649 C 558.22887,1454.1079 555.33187,1454.0799 553.81987,1453.7839 551.22587,1453.2759 548.79587,1451.8899 546.21987,1451.2299 543.34287,1450.4919 540.75887,1448.8039 537.71587,1449.0709 536.18987,1449.2049 536.18687,1450.9179 537.26087,1451.7699 539.83687,1453.8129 543.79187,1454.4119 546.91387,1455.1479 548.41987,1455.5029 557.97787,1458.5329 558.99387,1455.7649" id="path5237"/>
  </g>
  </svg>