<svg xmlns="http://www.w3.org/2000/svg" class="world_map zoom4" height="127" id="svg2985" version="1.1" viewBox="1888 484 114 140" width="127">
  <title>World Map</title>
  <defs id="defs2987"/>
  <defs>
    <link xmlns="http://www.w3.org/1999/xhtml" href="../css/svg.css" type="text/css" rel="stylesheet"/>
  </defs>
  <style id="style_css_sheet" type="text/css">
/*
 * Below are Cascading Style Sheet (CSS) definitions in use in this file,
 * which allow easily changing how countries are displayed.
 *
 */
/* --- Custom styles for Peace Corps --- */
.world_map .world_map-is_selected {
  fill: #C94112 !important;
}
.world_map .landxx {
  fill: #F2EFE8;
  stroke: #ffffff;
  fill-rule: evenodd;
}
.world_map.zoom4 .landxx {
  stroke-width: 2px;
}
.world_map.zoom3 .landxx {
  stroke-width: 3px;
}
.world_map.zoom2 .landxx {
  stroke-width: 4px;
}
.world_map.zoom1 .landxx {
  stroke-width: 5px;
}
.world_map .coastxx {
  fill: #F2EFE8;
  stroke: #ffffff;
  stroke-width: 2px;
  fill-rule: evenodd;
}
.world_map .oceanxx {
  opacity: 1;
  color: #ccc;
  fill: #ffffff;
  stroke: #ffffff;
  stroke-width: 0.5;
  stroke-miterlimit: 1;
}

/* --- Original Styles --- *
/*
 * Circles around small countries
 *
 * Change opacity to 1 to display all circles.
 *
 */
.circlexx
{
   opacity:0;
   fill:#e0e0e0;
   stroke:#000000;
   stroke-width:0.5;
}

/*
 * Smaller circles around French DOMs and Chinese SARs
 *
 * Change opacity to 1 to display all subnational circles.
 *
 */
.subxx
{
   opacity:0;
   stroke-width:0.3;
}

/*
 * Circles around small, unrecognized countries
 *
 * Change opacity to 1 to display all circles.
 *
 */
.unxx
{
   opacity:0;
   fill:#e0e0e0;
   stroke:#000000;
   stroke-width:0.3;
}

/*
 * Circles around small countries, but with no permanent residents 
 *
 * Change opacity to 1 to display all circles.
 *
 */
.noxx
{
   opacity:0;
   fill:#e0e0e0;
   stroke:#000000;
   stroke-width:0.5;
}

/*
 * land
 */
.landxx
{
}
/*
 * Styles for coastlines of islands with no borders
 */


/*
 * Styles for nations with limited recognition
 */
.limitxx
{
   fill: #e0e0e0;
   stroke:#ffffff;
   stroke-width:0;
   fill-rule:evenodd;
}

/*
 * Styles for nations with no permanent population.
 */
.antxx
{
   fill: #e0e0e0;
   stroke:#ffffff;
   stroke-width:0;
   fill-rule:evenodd;
}

/*
 * Ocean
 */


/*
 * Additional style rules
 *
 * The following are examples of colouring countries.  You can substitute these with your own styles to colour the countries on the map.
 *
 * Color a few countries:
 *
 * .gb, .au, .nc
 * {
 *    fill:       #ff0000;
 * }
 *
 * Color a few small country circles (and the countries):
 *
 * .ms, .ky
 * {
 *    opacity:    1;
 *    fill:       #ff0000;
 * }
 *
 */

</style>
  <path class="oceanxx" d="M 2079.5058,1457.5605 615.24779,1457.5605 C 615.13079,1457.5605 615.07079,1457.5505 614.95179,1457.5215 611.67679,1456.6515 608.40179,1455.7815 605.12779,1454.9105 599.15079,1453.3225 593.22879,1451.5225 587.30779,1449.7385 564.39379,1442.8315 541.76579,1434.6995 519.46979,1426.0115 495.81079,1416.7935 472.34979,1407.0946 449.19179,1396.6816 426.78379,1386.6056 405.17679,1375.0536 383.76379,1363.0356 363.11779,1351.4496 343.01079,1338.8296 323.37979,1325.5996 302.29179,1311.3876 281.47879,1296.8506 261.05379,1281.7006 242.35079,1267.8276 223.73679,1253.6306 206.05279,1238.4686 186.98679,1222.1216 167.82379,1205.7706 150.35279,1187.6906 132.97779,1169.7106 116.33279,1151.0606 100.15679,1131.9976 84.352777,1113.3736 70.086776,1093.4716 56.901786,1072.9246 44.046786,1052.8916 32.093776,1032.1356 22.469776,1010.3426 17.516776,999.12753 12.408776,987.76556 8.7017761,976.06056 5.0657761,964.58166 1.5997761,953.04259 -1.5932239,941.43054 -8.0102239,918.09356 -14.055224,894.78356 -18.234224,870.92056 -22.491222,846.60856 -24.894222,822.19856 -26.943222,797.62156 -28.947222,773.58556 -28.829222,749.40156 -27.225222,725.34856 -25.648222,701.69856 -23.363222,677.92456 -19.274222,654.56456 -15.018224,630.25156 -9.3842239,606.45156 -2.8412239,582.66156 3.5687761,559.35256 10.483776,536.34856 20.265776,514.19856 30.320776,491.42956 42.318786,469.90956 55.502786,448.81656 68.512776,428.00356 83.108777,408.26756 98.686787,389.31756 113.73479,371.01156 129.68979,353.25256 146.15179,336.20856 163.77479,317.96256 182.64579,301.14556 201.89579,284.64756 220.33379,268.84456 239.55379,253.98456 258.95979,239.39656 278.42779,224.76056 298.39379,210.83356 318.55579,197.17556 339.26979,183.14456 360.47879,169.92056 382.15079,157.42556 403.46579,145.13656 425.31479,133.98856 447.60479,123.59356 469.58579,113.34356 492.14979,104.17656 514.74579,95.37556 537.44879,86.532565 560.37879,78.195565 583.63479,70.914565 589.69379,69.017565 595.80079,67.276565 601.90879,65.549565 604.63079,64.779565 607.36079,64.045565 610.09479,63.318565 611.59979,62.918565 613.56579,61.986565 615.13379,61.986565 L 2079.9638,61.986565 C 2079.9798,61.986565 2079.9958,61.986565 2080.0118,61.986565 2079.8448,61.986565 2079.6788,61.986565 2079.5118,61.986565 2102.8268,68.191565 2125.8778,75.323565 2148.5448,83.611565 2171.6378,92.054565 2194.6158,100.87956 2217.2348,110.52956 2240.5208,120.46556 2263.4848,130.95256 2285.8828,142.76456 2306.9808,153.89056 2327.8178,165.78556 2347.8608,178.72156 2368.9418,192.32656 2389.7498,206.29256 2410.2218,220.80056 2429.7368,234.62956 2448.9938,248.98756 2467.6208,263.99256 2486.8818,279.50856 2506.0408,295.30556 2524.0538,312.27356 2541.8708,329.05756 2558.7508,346.67256 2574.9408,365.03656 2591.2478,383.53256 2607.1478,402.30656 2621.4508,422.41856 2635.3488,441.96256 2648.4468,462.42756 2659.5898,483.67756 2671.1238,505.67356 2681.1048,528.35656 2688.6188,552.05056 2692.2518,563.50656 2695.3368,575.14756 2698.5608,586.72256 2701.7738,598.25356 2704.9238,609.81956 2707.4578,621.52456 2712.6258,645.40556 2716.6718,669.47856 2719.1178,693.79656 2721.5718,718.19256 2723.1798,742.56356 2722.9808,767.09056 2722.7908,790.65456 2720.6908,814.43756 2717.7688,837.81156 2714.7368,862.07056 2710.5198,886.16156 2704.6398,909.90056 2701.6808,921.84356 2698.3948,933.69556 2695.0378,945.53154 2691.7468,957.13466 2688.5558,968.83466 2684.3988,980.16156 2676.0918,1002.8036 2666.1688,1024.8836 2654.1338,1045.8046 2641.9958,1066.9066 2628.8498,1087.4866 2614.2378,1106.9696 2599.1658,1127.0666 2582.6678,1145.9446 2565.8948,1164.6296 2549.8298,1182.5266 2532.8918,1199.7316 2514.8648,1215.6616 2496.0788,1232.2646 2476.8978,1248.3126 2457.1558,1263.7656 2438.2988,1278.5276 2418.9668,1292.7306 2399.3188,1306.4206 2378.7018,1320.7866 2357.7538,1334.6106 2336.4758,1347.9776 2326.4088,1354.3016 2316.0058,1360.1326 2305.6418,1365.9516 2295.0348,1371.9086 2284.3858,1378.0166 2273.4448,1383.3436 2250.7338,1394.3986 2227.7768,1404.7266 2204.3888,1414.2665 2181.7848,1423.4875 2159.0678,1432.2695 2136.0228,1440.3345 2117.4118,1446.8465 2098.5568,1452.4975 2079.5058,1457.5605" id="ocean"/>
  <g class="world_map-is_selected landxx coastxx bgd" id="bd" transform="translate(-29.9017,-45.0745)">
    <title>Bangladesh</title>
    <path d="M 1977.479,602.496 C 1977.265,602.472 1977.052,602.448 1976.838,602.424 1977.223,602.718 1977.652,602.91 1978.128,603 1977.911,602.832 1977.695,602.664 1977.479,602.496" id="path3240"/>
    <path d="M 1977.768,607.248 C 1977.795,607.696 1977.989,608.057 1978.348,608.328 1978.248,607.773 1979.269,607.317 1979.279,607.391 1979.158,606.422 1978.216,606.762 1977.768,607.248" id="path3242"/>
    <path d="M 1978.559,605.952 C 1978.752,606.096 1978.946,606.24 1979.139,606.384 1978.992,606.177 1978.799,606.033 1978.559,605.952" id="path3244"/>
    <path d="M 1978.639,608.688 C 1978.935,609.447 1979.64,609.931 1979.873,610.733 1980.004,611.277 1980.019,611.824 1979.916,612.374 1979.857,612.798 1979.18,614.973 1980.218,613.44 1980.01,613.716 1979.991,613.979 1980.162,614.229 1981.302,614.735 1981.423,611.015 1981.298,610.559 1981.045,609.64 1979.542,608.821 1979.521,607.985 1979.501,607.201 1978.469,607.88 1978.639,608.688" id="path3246"/>
    <path d="M 1978.918,613.872 C 1979.108,614.158 1979.439,613.472 1979.139,614.376 1979.463,613.985 1979.533,613.553 1979.348,613.08 1979.204,613.344 1979.062,613.608 1978.918,613.872" id="path3248"/>
    <path d="M 1979.568,610.704 C 1979.53,611.029 1979.58,611.342 1979.717,611.64 1979.783,611.31 1979.734,610.998 1979.568,610.704" id="path3250"/>
    <path d="M 1982.809,613.584 C 1984.492,612.719 1983.392,610.959 1982.668,609.84 1982.979,611.05 1982.955,612.352 1982.809,613.584" id="path3252"/>
    <path d="M 1986.188,611.28 C 1986.908,610.548 1985.771,609.467 1985.257,609.048 1985.026,609.927 1985.493,610.767 1986.188,611.28" id="path3254"/>
    <path d="M 1989.358,615.024 C 1989.18,615.518 1989.157,616.022 1989.288,616.536 1989.428,616.038 1989.451,615.534 1989.358,615.024" id="path3256"/>
    <path d="M 1989.938,618.84 C 1991.139,618.394 1990.252,616.903 1989.427,616.609 1989.592,617.354 1989.68,618.118 1989.938,618.84" id="path3258"/>
    <path class="world_map-is_selected landxx bgd" d="M 1957.318,575.424 C 1957.345,575.101 1957.419,574.789 1957.538,574.488 1958.354,575.077 1959.725,575.457 1960.134,576.474 1960.502,577.393 1962.029,577.36 1962.798,577.656 1962.589,577.067 1962.252,576.563 1961.788,576.144 1962.994,575.922 1963.239,577.02 1963.669,577.863 1964.312,579.123 1965.976,579.399 1967.118,580.032 1967.36,579.426 1967.534,578.845 1967.188,578.231 1969.412,578.043 1969.915,582.416 1969.993,583.773 1970.044,584.67 1969.795,585.474 1970.832,585.828 1972.387,586.358 1974.252,586.799 1975.898,586.799 1979.38,586.799 1982.926,586.484 1986.426,586.82 1988.045,586.975 1992.549,589.754 1988.638,589.391 1989.805,591.611 1987.121,593.621 1986.908,595.44 1986.218,594.828 1985.523,595.981 1985.038,595.223 1985.176,596.421 1983.843,596.186 1983.098,596.087 1983.407,597.072 1982.226,598.726 1982.146,599.799 1982.034,601.306 1983.522,603.508 1984.109,604.871 1984.247,604.396 1984.27,603.916 1984.178,603.431 1984.898,603.751 1986.116,607.473 1987.441,605.287 1987.934,604.472 1986.959,603.099 1987.419,602.062 1987.872,601.041 1988.123,600.843 1987.779,599.687 1988.758,600.551 1989.784,598.373 1990.423,599.914 1991.181,601.739 1991.568,603.86 1992.116,605.76 1992.823,608.208 1993.678,610.545 1994.297,613.03 1994.894,615.424 1995.039,618.069 1995.989,620.352 1995.14,620.608 1994.115,619.105 1993.127,619.268 1991.644,619.512 1993.67,623.885 1993.679,624.744 1992.995,623.664 1991.768,622.347 1991.404,621.133 1991.017,619.848 1990.967,619.088 1990.8,617.832 1990.487,615.509 1987.301,613.026 1989.08,610.632 1988.62,611 1988.338,611.711 1988.35,612.288 1987.692,610.309 1985.161,608.684 1985.33,606.456 1985.264,607.381 1984.227,607.73 1983.707,608.345 1983.498,608.569 1983.439,608.827 1983.53,609.12 1982.903,609.33 1982.329,609.024 1982.019,608.472 1982.177,608.734 1982.188,608.985 1982.051,609.225 1981.031,609.816 1979.437,606.071 1979.134,605.664 1978.854,605.19 1978.75,604.682 1978.825,604.137 1978.85,603.227 1978.439,602.981 1978.188,602.206 1977.995,601.608 1979.037,601.375 1978.639,600.84 1978.501,601.396 1979.362,601.133 1977.989,601.273 1978.022,601.006 1978.068,600.742 1978.129,600.48 1977.773,600.769 1977.39,600.817 1976.98,600.625 1977.293,600.852 1978.554,602.469 1977.382,602.318 1976.796,602.243 1975.749,601.871 1975.39,601.777 1976.329,602.343 1977.73,602.805 1978.292,603.818 1978.675,604.507 1977.954,604.986 1977.409,605.232 1978.152,606.131 1977.744,606.946 1977.119,607.753 1978.472,607.782 1978.039,609.104 1977.989,610.057 1978.165,609.806 1978.355,609.566 1978.559,609.337 1979.682,610.336 1979.896,612.944 1978.059,613.297 1978.178,612.787 1978.105,612.308 1977.838,611.858 1978.004,613.046 1977.67,614.028 1977.451,615.171 1977.193,616.525 1975.591,615.974 1976.258,614.882 1976.049,615.106 1975.832,615.321 1975.609,615.53 1975.241,614.25 1976.692,613.788 1976.838,612.651 1976.435,613.311 1975.824,613.807 1975.248,614.305 1975.306,613.823 1975.449,613.367 1975.678,612.938 1975.374,613.398 1975.064,613.854 1974.748,614.305 1974.285,612.841 1974.091,611.595 1974.678,610.129 1973.094,610.773 1974.482,612.242 1973.925,613.315 1973.522,614.091 1974.479,614.141 1974.143,615.083 1973.842,615.928 1973.01,615.466 1972.659,614.953 1972.595,615.407 1972.571,615.863 1972.589,616.321 1971.463,616.334 1972.009,612.113 1972.009,611.425 1971.633,612.381 1972.101,613.337 1971.869,614.305 1971.501,613.504 1971.112,612.67 1970.999,611.785 1971.012,613.22 1972.441,615.366 1970.999,616.825 1970.577,616.113 1970.952,615.27 1970.429,614.593 1970.716,615.311 1970.242,616.875 1969.709,617.401 1969.784,616.028 1968.323,614.966 1968.151,613.457 1967.961,611.786 1967.03,610.51 1966.678,608.906 1966.508,608.133 1966.35,607.357 1966.109,606.601 1965.783,605.58 1966.07,605.093 1965.986,604.121 1965.938,603.57 1965.16,603.609 1964.783,603.517 1963.994,603.325 1964.471,602.409 1964.529,601.87 1964.656,600.693 1962.444,600.613 1962.532,599.041 1962.577,598.234 1963.471,597.951 1963.57,597.211 1963.67,596.462 1963.382,595.607 1963.097,594.928 1962.631,593.818 1960.381,593.702 1959.338,592.993 1958.725,592.577 1957.668,591.967 1957.609,591.121 1957.546,590.234 1958.35,589.602 1958.399,588.745 1959.616,590.884 1960.096,586.865 1960.419,586.801 1961.228,586.639 1962.908,586.48 1963.659,586.873 1964.586,585.38 1962.626,585.918 1962.469,584.497 1962.361,583.522 1961.066,584.325 1960.372,583.866 1959.427,583.242 1959.029,582.05 1957.93,581.614 1955.174,580.522 1956.64,577.294 1958.909,576.432 1958.704,575.741 1957.975,575.438 1957.318,575.424" id="path3340"/>
  </g>
  <g class="landxx coastxx mmr" id="mm" transform="translate(-29.9017,-45.0745)">
    <title>Myanmar</title>
    <path d="M 1997.858,627.768 C 1997.808,628.139 1997.974,628.404 1998.358,628.56 1998.191,628.296 1998.025,628.031 1997.858,627.768" id="path4568"/>
    <path d="M 1999.438,631.584 C 1999.771,632.063 2000.061,632.567 2000.308,633.096 2000.098,632.277 1999.749,631.476 1999.148,630.865 1999.245,631.104 1999.342,631.344 1999.438,631.584" id="path4570"/>
    <path d="M 2003.118,632.016 C 2002.865,632.594 2003.61,633.246 2003.978,633.529 2003.955,632.913 2003.599,632.376 2003.118,632.016" id="path4572"/>
    <path d="M 2005.918,641.231 C 2005.524,641.252 2005.165,641.372 2004.838,641.591 2007.176,644.282 2007.203,641.181 2005.918,641.231" id="path4574"/>
    <path d="M 2007.868,637.056 C 2007.447,636.209 2006.403,636.179 2005.847,635.472 2004.802,636.537 2006.897,638.522 2007.868,637.056" id="path4576"/>
    <path d="M 2016.218,664.056 C 2015.734,664.587 2013.96,666.254 2014.989,667.008 2015.727,666.229 2016.801,665.246 2016.218,664.056" id="path4578"/>
    <path d="M 2017.878,666.864 C 2017.684,667.206 2017.53,667.101 2017.878,667.584 2017.878,667.344 2017.878,667.104 2017.878,666.864" id="path4580"/>
    <path class="landxx mmr" d="M 1992.528,621.288 C 1992.599,620.734 1992.3057,619.24286 1993.1247,619.15087 1994.1397,619.03687 1994.6681,620.04824 1995.988,620.352 1995.2189,618.49764 1994.9525,616.49481 1994.6037,614.53841 1994.5587,614.51381 1995.475,613.78205 1995.267,612.936 1996,613.198 1996.405,614.751 1997.313,614.466 1997.963,614.262 1997.665,612.986 1997.788,612.503 1999.298,613.384 1998.652,611.165 1998.375,610.504 1997.596,608.644 1997.753,607.199 1997.498,605.231 1998.984,606.334 1999.041,604.064 1999.014,603.128 1998.946,600.821 1998.512,598.836 1997.718,596.663 1998.064,596.638 1998.369,596.738 1998.635,596.962 1999.318,597.42 1999.275,597.085 2000.092,596.94 2000.906,596.794 2003.344,597.816 2003.979,598.32 2003.951,595.016 2008.5,589.127 2005.937,586.554 2004.577,585.189 2007.459,583.286 2007.769,581.922 2008.129,580.333 2008.609,579.414 2007.817,578.007 2007.166,576.849 2006.966,574.624 2008.229,573.767 2008.62,573.5 2009.808,573.853 2009.879,573.161 2009.944,572.515 2011.235,572.086 2011.733,571.612 2012.362,571.012 2012.705,570.402 2013.126,569.651 2013.84,568.374 2015.695,568.56 2016.939,568.368 2017.537,568.276 2018.267,567.857 2018.795,568.362 2019.508,569.043 2020.242,570.633 2021.548,570.095 2021.345,568.989 2020.259,568.454 2019.59,567.666 2018.366,566.225 2019.185,565.115 2020.281,564.018 2021.857,562.444 2021.0279,562.69341 2021.0279,560.99241 2021.0279,560.38941 2021.5135,560.54044 2021.4565,559.98244 2021.3865,559.28944 2022.025,558.325 2022.047,557.64 2023.393,559.136 2026.095,559.378 2027.185,561.289 2027.581,561.982 2027.457,562.837 2027.808,563.544 2028.284,564.502 2028.991,565.322 2029.467,566.28 2030.027,566.081 2030.331,565.631 2030.037,565.055 2033.023,566.443 2033.2761,569.47969 2034.0892,572.43394 2034.4902,573.89094 2034.6247,575.09457 2034.6684,576.667 2034.6854,577.29118 2035.377,579.355 2033.787,578.735 2034.1728,579.33537 2036.4935,581.71474 2034.1116,581.07687 2033.7436,580.97837 2033.0515,582.20944 2033.1135,582.50444 2033.3115,583.44444 2032.05,583.235 2031.558,583.2 2031.408,583.729 2031.294,587.679 2029.608,586.152 2029.679,587.484 2028.979,588.48 2029.757,589.752 2028.416,589.857 2028.5572,590.69081 2028.6132,591.74281 2028.6702,592.83281 2029.4926,592.93594 2029.8716,593.77994 2030.0366,594.14794 2030.5925,595.30313 2030.4255,595.71713 2030.1355,596.43713 2029.01,597.374 2029.928,598.099 2030.357,598.437 2032.816,596.49 2033.235,596.255 2035.049,595.235 2037.219,596.874 2038.967,595.585 2039.245,596.71 2037.779,597.153 2038.152,598.271 2038.363,598.905 2038.8791,599.221 2039.3101,599.689 2039.8561,600.28 2039.0954,600.93152 2039.469,601.267 2040.7297,602.39916 2040.372,603.98697 2041.4801,604.48353 2042.9919,605.161 2044.3904,603.76403 2045.4931,606.385 2043.8295,606.2609 2044.5127,608.83818 2044.6439,609.84991 2044.7869,610.95306 2042.9345,613.69693 2044.6169,613.50225 2045.5826,613.39052 2048.6611,612.96052 2049.7879,613.98566 2050.9895,615.07876 2049.2208,617.081 2051.6378,617.113 2051.3088,617.615 2051.5688,618.539 2051.9128,618.966 2052.4718,619.659 2052.9988,618.151 2053.7778,618.653 2055.3848,619.689 2057.4778,617.155 2058.6968,616.25 2058.7838,617.505 2059.7428,618.207 2058.5778,619.252 2058.0408,619.734 2056.8273,620.10013 2056.5123,620.65513 2056.2653,621.09113 2054.7018,624.757 2056.1768,623.882 2056.0628,624.951 2054.3558,624.412 2053.7278,624.89 2052.6318,625.724 2053.0038,627.395 2052.7168,628.562 2052.0711,627.128 2050.1048,628.762 2048.3268,628.85 2048.7958,629.456 2049.2855,630.07797 2048.4995,630.43097 2047.7215,630.78097 2046.6832,630.64091 2045.9602,630.69991 2045.0602,630.77491 2045.5876,632.39594 2045.4236,632.98594 2045.2396,633.64694 2044.6081,633.74777 2044.1328,633.42719 2043.6658,633.1122 2042.6358,634.17626 2041.6867,634.33206 2041.3569,634.38616 2038.4343,633.74024 2038.4424,633.7316 2038.7393,633.4161 2036.7247,635.75829 2036.8594,636.87113 2036.9284,637.44298 2037.2442,637.87928 2037.337,638.41328 2037.4632,639.13947 2036.6335,640.26075 2036.7941,640.96378 2037.0073,641.89678 2037.9885,642.91119 2037.3435,643.87819 2036.7611,644.75128 2034.8298,644.872 2034.2868,643.82699 2034.5908,644.89199 2035.2448,646.85799 2036.7368,646.41899 2036.6068,647.09799 2037.086,647.64709 2037.4474,648.15546 2038.0161,648.95546 2037.7438,649.79934 2038.0005,650.59499 2038.4801,652.08158 2040.5294,653.70867 2041.4528,654.83199 2042.5567,656.17487 2044.0353,656.60234 2044.8768,658.65899 2045.5611,660.33131 2045.7428,662.19599 2046.9568,663.69899 2047.3558,663.25799 2047.6458,662.75399 2047.8268,662.18599 2048.7358,662.93499 2048.5846,664.47135 2047.7648,665.13799 2046.942,665.80683 2045.9232,665.07359 2046.3181,666.98599 2046.5185,667.95644 2046.9735,669.82151 2046.8549,670.89858 2046.7609,671.75117 2045.2581,671.61899 2045.5161,672.62699 2044.8191,671.99799 2044.3993,672.51152 2044.2453,673.27852 2044.0253,674.37752 2044.5987,675.77987 2045.1423,676.70452 2046.6145,679.20893 2049.1246,681.00598 2050.7224,683.02099 2052.4322,685.17719 2053.3657,687.40427 2053.0368,689.89327 2052.8854,691.03856 2052.6665,691.06383 2053.2151,692.35999 2053.7353,693.58891 2053.9001,694.18182 2054.6579,695.25999 2055.4114,696.33198 2055.894,697.21449 2056.0292,698.35352 2056.1733,699.56703 2057.278,701.63626 2057.5879,702.32493 2058.1307,703.53115 2056.5954,705.71048 2055.6598,707.15699 2054.8435,708.41896 2053.9032,709.63923 2052.6405,711.84818 2052.0551,712.87215 2052.7305,713.45118 2052.2885,714.33518 2051.6365,715.63418 2051.5655,716.97999 2050.8005,718.27499 2049.9395,716.92099 2050.0631,714.93099 2049.7051,713.41199 2049.5591,712.79099 2049.2261,712.25599 2049.8411,711.87399 2050.5931,711.40899 2050.0191,711.12999 2050.3801,710.55199 2051.1571,709.30699 2051.3271,707.81599 2051.0301,706.35499 2050.8891,705.66299 2050.4641,703.36599 2051.7151,703.36999 2051.5161,703.03699 2051.4191,702.67699 2051.4251,702.28999 2051.0761,702.77299 2050.5671,703.14899 2049.9861,703.29799 2049.8071,702.26999 2051.2231,701.70999 2049.7651,701.85899 2051.4321,701.06499 2048.9901,699.80899 2050.3451,699.04999 2049.7481,699.20799 2049.2451,698.89899 2049.0451,698.32999 2049.4401,698.27099 2049.8001,698.12699 2050.1251,697.89699 2049.4731,697.54499 2049.0221,696.76399 2050.0561,696.52999 2049.1671,696.23499 2049.7041,695.37099 2049.5701,694.57099 2049.3461,693.24099 2048.8421,691.84299 2048.3301,690.59799 2047.7911,689.28899 2046.9971,688.03599 2046.3621,686.76699 2045.7581,685.55799 2045.7011,684.09799 2044.8761,682.99399 2045.2581,684.02299 2045.7321,686.37599 2044.9461,687.31299 2045.2231,686.45999 2044.4901,685.69699 2044.4181,684.87599 2044.3491,684.10199 2044.3261,682.83399 2044.1471,682.12899 2043.9771,681.45999 2041.2291,676.73199 2042.9261,677.66499 2042.8561,677.37899 2042.7361,677.11499 2042.5671,676.87299 2042.3271,677.01699 2042.0871,677.16099 2041.8461,677.30499 2040.6071,674.20999 2040.8841,670.74599 2039.7501,667.66199 2039.5301,667.06499 2038.9961,666.74099 2038.7331,666.18899 2038.4991,665.69699 2038.7671,665.11799 2038.7431,664.60199 2038.6931,663.65799 2038.0231,661.81399 2039.2601,661.32199 2038.4641,661.44899 2037.0651,661.99999 2036.4711,661.22299 2035.3891,659.80599 2034.5321,658.24799 2034.4301,656.42599 2033.7201,656.89999 2033.8581,655.86099 2033.2531,655.30499 2032.7311,654.82599 2032.0581,654.41099 2031.8401,653.68999 2031.6941,653.87299 2031.9531,655.42599 2031.9471,655.77999 2031.9291,656.99899 2032.6691,658.24599 2032.0191,659.52099 2031.5501,660.44499 2030.9521,661.72699 2029.7591,661.82499 2028.5341,661.92699 2027.1291,660.26999 2028.0301,659.16099 2026.6071,659.51799 2027.8381,660.56499 2028.2181,661.43999 2028.7441,662.65099 2027.4671,664.03599 2026.3691,662.90499 2027.5431,663.73099 2025.2121,665.19799 2024.3481,664.34399 2024.6411,665.44799 2023.7651,669.19499 2021.9531,668.50799 2021.0181,668.15399 2021.8871,665.66499 2021.6881,664.91999 2021.6431,664.98799 2020.7051,668.41599 2021.1881,666.14399 2020.8921,666.75899 2020.7721,667.40799 2020.8281,668.08799 2019.9291,667.64499 2019.6811,665.68499 2020.3891,665.13599 2019.3251,664.44099 2019.7451,669.45999 2018.3131,668.20999 2017.6311,667.61499 2018.2251,664.36299 2018.8091,664.05599 2017.7591,664.46899 2017.4711,666.61899 2016.9391,667.58399 2016.6261,667.39799 2016.3631,667.15799 2016.1491,666.86399 2017.0301,666.49499 2017.1491,665.58499 2017.3691,664.77599 2016.9561,665.48299 2016.7881,666.54099 2015.7891,666.64699 2016.8731,665.18599 2016.3791,663.34899 2016.5791,661.67899 2016.4351,661.69299 2016.2931,661.69299 2016.1491,661.67899 2016.7091,662.88099 2015.0771,665.57099 2013.9581,666.02099 2012.3401,666.67199 2013.6511,659.82399 2013.8591,659.06499 2014.0681,658.30299 2013.8371,656.05399 2014.2591,655.65399 2015.3311,654.63999 2014.1611,651.78799 2013.6561,650.66999 2013.0071,649.23199 2013.2251,647.04699 2012.1591,645.86799 2011.7071,645.36799 2011.4451,644.71699 2011.1531,644.11999 2010.7151,643.22499 2009.5301,642.69699 2010.7481,642.45499 2009.8981,641.86799 2008.8781,641.66999 2008.8781,640.42799 2008.8781,639.50299 2008.9321,638.01599 2008.4391,637.19899 2008.5571,637.87199 2008.8551,639.42199 2007.6491,638.56599 2008.2051,639.24799 2008.6541,640.60499 2008.2291,641.44699 2006.4871,640.73799 2005.4221,638.93599 2004.3981,637.45799 2004.1171,637.05399 2005.0031,636.64299 2005.3021,637.19199 2005.5261,637.60499 2006.1161,637.74899 2006.5311,637.86899 2007.4671,638.13999 2008.6671,637.64199 2007.8031,636.49999 2007.3161,635.85499 2005.1321,635.02299 2006.4281,634.10299 2005.8441,634.08999 2005.2681,634.01799 2004.6991,633.88699 2004.8771,633.39799 2004.9471,632.89399 2004.9091,632.37499 2004.2481,632.69799 2003.3381,631.91999 2002.9711,631.45899 2002.2851,630.59799 2001.7001,631.20399 2000.7391,630.79099 2001.0731,631.55999 2001.4951,632.29099 2001.7491,633.09499 2001.4421,632.59999 2001.1521,632.09599 2000.8791,631.58299 2000.7491,632.10799 2000.8461,632.58899 2001.1691,633.02299 2000.3101,631.84299 1999.8451,631.10299 2000.5991,629.70999 2000.2651,629.77299 1999.9291,629.79599 1999.5891,629.78199 1999.7871,629.27099 2000.0001,628.76699 2000.2301,628.26999 2000.0901,628.30099 1999.9731,628.37399 1999.8791,628.48599 1999.7331,627.93399 1999.7331,627.38199 1999.8791,626.82999 1999.3791,628.03899 1999.4581,629.39099 1998.8691,630.57399 1997.9061,630.15199 1998.3491,629.62599 1998.4571,628.86899 1998.5831,627.98699 1997.5701,627.25899 1997.1401,626.61399 1997.2651,627.34799 1997.6961,628.12999 1997.2091,628.84499 1996.8481,627.51199 1995.8496,626.43442 1994.7061,625.80899 1993.4022,625.09584 1993.1749,622.79931 1992.5321,621.28799" id="path4608"/>
  </g>
  <g class="landxx coastxx ind" id="in">
    <title>India</title>
    <path class="landxx ind" d="M 1780.7563,553.89353 C 1780.6653,552.19553 1782.5303,552.16553 1783.7543,552.16553 1785.1983,552.16553 1784.4863,549.93753 1784.4263,549.14153 1785.3023,549.65103 1787.7702,549.3279 1788.5603,549.41353 1790.5295,549.62695 1791.8758,550.69919 1794.1749,550.27721 1794.3179,550.25101 1794.2209,549.13094 1794.863,549.11555 1795.6146,549.09755 1796.6664,547.85553 1797.7173,548.39153 1798.9838,550.4023 1800.0829,549.77003 1801.8563,548.34853 1799.4438,546.61911 1801.4049,546.36264 1801.2496,545.81572 1800.4299,542.92827 1798.4517,541.32503 1797.8063,539.75053 1797.3777,538.70484 1798.0378,536.91034 1796.1323,537.27653 1793.7126,537.74153 1792.8494,535.96479 1792.9273,534.41658 1792.9933,533.10524 1793.4903,530.83415 1792.4483,530.17958 1790.7643,529.12165 1788.0303,529.68538 1787.2907,527.13153 1786.7615,525.30399 1788.347,523.18275 1789.336,521.84675 1790.047,520.88775 1790.3015,520.06353 1790.8495,519.00953 1791.2345,518.26653 1792.3303,516.72299 1793.4243,516.99199 1794.8453,517.34199 1794.7183,519.57867 1796.2713,519.72067 1797.1563,519.80167 1797.8501,519.13867 1798.6151,518.79867 1799.5581,518.37967 1800.715,518.53764 1801.6993,518.32253 1803.8031,517.86274 1803.5573,516.1165 1804.8923,514.76553 1806.5044,513.13423 1805.5383,510.94753 1807.8773,509.61953 1810.0163,508.40553 1810.8913,506.89453 1811.5523,504.51153 1812.0363,502.76953 1811.5683,500.46153 1813.6803,499.74253 1814.4013,499.49753 1815.2783,499.33653 1815.6753,498.59653 1816.2333,497.55553 1814.8823,497.32153 1814.8853,496.79653 1814.8853,496.16453 1816.5523,493.93853 1816.9293,493.36053 1817.6353,492.28353 1819.3553,491.70253 1819.8553,490.53253 1818.3193,490.50253 1818.7073,489.05853 1818.6953,488.01153 1818.6803,486.74053 1817.5153,485.78453 1817.5473,484.69353 1817.6013,482.78453 1821.2813,482.42353 1822.3393,481.19253 1824.1533,479.07853 1819.1116,478.87353 1818.2106,478.54353 1817.2846,478.20453 1817.5253,476.83153 1816.5453,476.30053 1815.8763,475.93753 1815.0703,475.94353 1814.3763,475.62853 1814.6703,474.86353 1814.3453,474.42653 1813.6883,474.07653 1812.9883,473.70253 1810.9803,472.53453 1811.5203,471.62053 1812.0333,470.75453 1812.4013,469.83153 1811.4003,469.13453 1810.7863,468.70753 1809.7663,467.80153 1810.6503,467.04453 1811.0023,466.74353 1813.0693,465.35053 1811.3193,465.19453 1811.0333,465.16853 1808.3233,465.14653 1809.1043,464.16053 1810.0833,462.92453 1808.7823,463.01653 1808.0123,462.41753 1807.0523,461.67153 1808.6543,459.71753 1809.2813,459.33153 1810.8943,458.33853 1812.5783,459.09853 1814.2483,459.47053 1816.1403,459.89153 1818.0143,460.36453 1819.8993,460.80253 1821.5063,461.17553 1822.4603,460.17453 1823.8853,459.67753 1825.1283,459.24453 1826.4383,459.30053 1827.6683,458.90653 1828.0523,458.78353 1830.2443,456.55353 1830.0763,456.26453 1829.6203,455.48153 1831.9273,454.28453 1832.5473,453.78153 1833.0453,453.37853 1833.5853,452.93153 1834.2003,452.71653 1834.7163,452.53553 1834.7099,452.76883 1835.0737,453.03071 1836.5117,454.06605 1836.5429,454.49147 1837.0473,455.11653 1837.8842,456.15373 1838,458.35054 1839.3958,459.34953 1841.1404,460.59805 1844.1605,462.04167 1845.7305,463.16704 1846.2291,463.52445 1844.9672,464.07139 1844.6982,464.39908 1844.2229,464.97795 1844.4167,464.98692 1844.8943,466.80453 1845.295,468.32979 1846.031,469.63455 1847.1146,470.86653 1848.0908,471.97641 1849.9105,471.89762 1850.6567,472.65739 1851.0379,473.04558 1850.7467,473.69953 1850.9732,474.17253 1851.2292,474.70653 1851.4595,475.07756 1851.8043,475.54553 1853.0291,477.20784 1851.2964,477.8014 1850.575,478.41271 1849.6031,479.23623 1848.8638,480.49841 1847.6694,478.65912 1846.7164,477.19154 1845.9487,476.90253 1844.4733,478.00553 1844.9933,478.59753 1845.1863,479.27153 1845.3903,480.01053 1845.6193,480.83753 1846.385,481.29648 1846.9653,481.85153 1848.6161,483.43061 1847.7903,484.57553 1848.8403,485.68853 1849.4621,486.34768 1848.6466,489.16164 1850.1314,488.67807 1850.66,488.50594 1850.9168,488.01706 1851.4782,487.82439 1852.3588,487.5222 1852.7479,488.52339 1853.0849,489.06239 1853.5649,489.83239 1854.9533,491.44353 1855.8463,491.62153 1856.9133,491.83453 1857.8662,491.11567 1858.7612,492.13367 1859.3042,492.75167 1859.8465,492.70477 1860.5233,493.05353 1861.1772,493.39053 1861.203,494.00053 1861.0683,494.46153 1860.8451,495.22538 1862.1001,495.34335 1862.7813,495.52753 1864.9031,496.10123 1866.4192,496.65177 1867.7343,498.23753 1865.7393,498.35553 1865.5431,502.10059 1864.1671,503.06259 1864.0351,503.15459 1863.7384,504.22008 1863.5814,504.55308 1863.0184,505.74008 1864.1516,505.53782 1863.9639,506.66407 1863.7888,507.71493 1862.3012,509.04338 1863.1889,509.98107 1863.8789,510.70991 1866.5043,512.86953 1866.5043,511.41353 1867.7153,512.16673 1869.4601,512.83281 1870.5043,513.48362 1872.3068,514.60709 1872.7773,515.46607 1874.2253,516.33007 1874.6531,516.58536 1877.2451,518.34048 1877.8481,518.09948 1879.2601,517.53448 1880.3543,518.91453 1881.5553,519.53153 1882.0673,519.79453 1883.8113,519.82153 1884.0893,520.16253 1885.0573,521.34953 1885.1913,521.67153 1886.8833,522.01453 1887.7733,522.19553 1888.6455,522.83275 1889.5285,522.17875 1890.7065,521.30575 1891.6893,522.28253 1893.0043,522.86153 1892.1523,520.60053 1897.8093,522.89753 1898.1973,523.01553 1899.7553,523.49053 1899.2233,525.58339 1900.6573,525.91539 1901.8863,526.19939 1903.1468,526.7228 1903.9048,527.7948 1904.5118,528.6528 1905.8933,527.48453 1906.6183,527.42353 1908.3933,527.27453 1907.5223,529.94953 1909.8653,528.99053 1910.5553,528.70753 1913.5793,529.75153 1914.2433,530.15053 1915.9533,531.17553 1916.3423,530.15553 1917.9143,529.62953 1918.0471,530.75182 1919.3818,531.59224 1920.7473,531.04053 1921.1689,530.87021 1923.4551,531.04553 1924.0161,531.05753 1925.2171,531.08453 1925.49,530.77748 1925.667,529.48648 1925.97,527.28648 1924.8384,526.81285 1923.9964,524.92985 1923.5344,523.89685 1923.9234,522.44153 1924.0204,521.34253 1924.1364,520.00953 1923.8184,518.97753 1923.7454,517.67753 1925.0804,517.58453 1926.6054,516.45453 1927.9394,516.84253 1930.5584,517.60353 1928.2664,520.84853 1929.3854,522.21253 1929.5864,522.45753 1930.5714,523.03553 1930.2654,523.46253 1929.7934,524.12053 1929.3514,524.03753 1929.8754,524.97953 1931.0294,527.05153 1932.5704,526.98853 1934.5804,527.25053 1935.9324,527.42653 1936.7704,528.62353 1938.1114,528.48153 1938.6734,528.42253 1939.4479,528.3408 1939.9359,528.0098 1940.4429,527.6658 1941.5624,526.44453 1942.2904,526.95353 1944.1144,528.22753 1946.3874,527.80953 1948.4774,527.72953 1949.1154,527.70553 1950.0808,526.80194 1950.4388,527.22994 1950.9888,527.88894 1952.9284,527.30724 1953.7314,527.23053 1955.6892,527.04346 1953.4063,525.88398 1953.6814,524.33253 1954.2768,520.97535 1950.705,522.95655 1950.3054,521.31053 1950.0714,520.34681 1949.3634,519.07453 1950.8064,519.42453 1951.9624,519.70553 1953.117,519.28256 1954.131,519.03099 1955.582,518.67099 1956.6915,519.21007 1957.0404,516.57107 1957.1901,515.43876 1959.9774,514.34407 1960.1074,512.82707 1960.3154,510.43307 1963.2481,511.73953 1964.6371,510.37753 1965.7511,509.28653 1966.3991,508.02339 1967.6451,507.03139 1968.1041,506.66539 1968.7304,506.23153 1969.2414,505.93953 1969.6814,505.68753 1971.8224,507.26253 1972.2734,507.52753 1971.7424,506.99553 1972.0001,506.9158 1972.9201,507.4188 1973.6351,507.7198 1974.4044,508.28653 1975.2124,508.25353 1976.0384,508.21953 1975.9084,507.23253 1976.2074,506.70653 1976.7404,505.76653 1978.5295,505.04707 1979.4745,504.66807 1979.6835,504.58507 1981.9143,506.58153 1982.1653,506.80853 1980.47,508.26187 1980.6833,508.15002 1981.2003,508.71553 1981.7467,509.31328 1983.0644,508.13653 1983.4334,508.03153 1983.1264,509.08753 1985.0601,509.82026 1984.7231,510.65826 1984.2071,511.93226 1983.6234,512.30153 1983.3594,513.57653 1983.1704,514.48453 1984.8004,513.40775 1985.1164,513.31975 1986.4624,512.94675 1987.8387,514.70012 1989.2077,514.28412 1990.3817,513.92712 1991.2134,515.41053 1991.2134,516.40853 1991.2134,516.78153 1991.7634,517.08753 1991.7024,517.36553 1991.5564,518.03453 1990.4602,518.82128 1990.0294,519.29353 1987.5914,521.9661 1991.2184,522.99013 1991.6424,525.02353 1989.9203,525.75421 1989.2453,522.92262 1988.2284,523.13053 1984.6932,523.85331 1983.8449,523.68762 1983.1314,524.89453 1982.5314,525.90939 1982.1201,526.7003 1981.2504,527.02053 1980.5544,527.22927 1980.8008,527.55584 1980.4248,527.54353 1979.9708,527.91153 1980.4348,528.21075 1979.6958,528.59953 1979.335,528.78924 1978.1202,528.36779 1977.5634,529.65753 1977.2236,530.44475 1977.4674,531.42953 1977.6944,532.24253 1977.8674,532.86253 1978.3442,533.28891 1978.5304,533.86853 1978.7795,534.64406 1978.2593,535.38904 1978.1984,536.14858 1978.0282,538.27404 1975.1526,539.45385 1975.9416,541.15985 1976.2246,541.77185 1977.0024,542.52955 1976.9524,543.2534 1976.7054,546.82541 1974.7934,549.55477 1974.0724,553.24853 1973.3484,552.67353 1971.4834,552.11853 1970.5774,551.88453 1970.1224,551.91653 1969.6724,552.07612 1969.2264,552.17212 1968.6494,552.05512 1968.593,551.54812 1967.907,551.68812 1968.651,553.72412 1968.9704,555.44153 1969.0874,557.60053 1969.1364,558.51053 1969.2424,561.38453 1967.5914,560.16053 1967.8464,562.12953 1967.6894,563.57353 1968.4684,565.43353 1968.7454,566.09453 1969.3914,568.31353 1967.8814,567.43253 1968.0269,571.06315 1966.6862,569.39685 1965.3604,567.86553 1965.4844,568.44753 1965.1488,569.14499 1964.6858,569.50499 1963.488,564.56404 1961.995,560.07563 1960.4163,554.77599 1960.1743,553.47799 1958.6435,555.45399 1957.8395,554.74499 1958.2898,555.3203 1958.022,556.16794 1957.6337,556.88826 1957.144,557.79656 1957.6337,558.68628 1957.6747,559.58058 1957.7117,560.48587 1957.1543,561.43706 1956.0484,560.62853 1955.2213,560.02381 1954.9349,558.89179 1954.2712,558.36053 1954.3632,558.84553 1954.3392,559.32653 1954.2022,559.80053 1953.5544,558.32553 1952.5135,556.88639 1952.1997,555.39739 1951.866,553.81438 1953.6152,552.36953 1953.1912,551.01553 1953.9362,551.11453 1955.2692,551.34953 1955.1312,550.15153 1955.6162,550.90953 1956.3112,549.75653 1957.0012,550.36853 1957.2242,548.47853 1959.9162,546.57253 1958.7312,544.31953 1959.1822,544.36153 1960.7754,544.43985 1959.8904,543.53585 1958.8544,542.47685 1957.2289,541.7621 1955.7812,541.72853 1954.556,541.70013 1953.6174,541.56343 1952.0089,541.62021 1950.3065,541.68031 1948.8024,541.90928 1947.1172,541.78453 1944.6791,541.60405 1939.6547,542.09191 1939.9652,538.89253 1940.097,537.53451 1939.4392,532.97653 1937.2812,533.15953 1937.6272,533.77353 1937.4532,534.35353 1937.2112,534.96053 1936.2082,534.40553 1934.7149,534.14294 1933.9989,533.15994 1933.3999,532.33694 1933.2212,530.82653 1931.8812,531.07253 1932.3452,531.49153 1932.6822,531.99553 1932.8912,532.58453 1932.2573,532.38187 1931.518,532.44087 1930.5732,531.91453 1930.1231,531.6638 1930.0397,530.97153 1929.6097,530.62753 1929.0317,530.16553 1928.2302,529.84853 1927.6312,529.41653 L 1927.4385,530.37231 C 1927.7773,530.38391 1928.7158,530.48867 1929.0012,531.35953 1926.7312,532.22053 1925.2662,535.44953 1928.0222,536.54153 1929.1222,536.97753 1929.5192,538.16953 1930.4642,538.79353 1931.1572,539.25153 1932.4522,538.44953 1932.5612,539.42453 1932.7182,540.84553 1934.6782,540.30753 1933.7512,541.80053 1933.1252,541.47253 1932.1142,541.57553 1931.4422,541.63953 1930.5322,541.72653 1930.3202,541.78631 1930.2312,542.62553 1930.1362,543.52155 1929.2662,545.39138 1928.4912,543.67253 1928.3952,545.15056 1926.7013,545.92275 1928.8068,547.52867 1929.9344,548.38873 1931.5943,548.3167 1932.5532,549.12953 1934.3704,550.66992 1933.4966,551.29616 1933.7402,552.06623 1933.9901,552.85643 1931.8091,553.62539 1933.1091,554.8726 1934.2575,555.97432 1934.2182,555.78098 1934.5463,556.17253 1934.8623,556.54958 1934.3936,557.42753 1934.6073,558.16453 1934.6883,558.4438 1935.6516,558.42407 1935.7886,558.46507 1936.5556,558.69407 1936.1301,559.91953 1936.1851,560.37653 1936.2941,561.30153 1936.5705,561.89776 1936.7039,562.82853 1936.8846,564.08953 1937.2667,564.81939 1937.7144,565.95339 1938.2017,567.18767 1938.6849,568.67553 1938.0719,569.88053 1937.7919,569.70153 1937.5049,569.53353 1937.2119,569.37653 1937.4329,569.85853 1939.1239,571.75453 1938.5399,572.23953 1937.9189,572.75753 1937.0779,571.83253 1937.0609,571.24853 1936.9279,572.03053 1936.3369,572.71553 1935.8409,571.68053 1935.3189,570.59053 1935.9459,569.21753 1935.9109,568.08053 1935.2309,568.41653 1935.9699,569.10353 1935.1899,569.73553 1935.3719,568.97353 1934.8839,568.24553 1935.2599,567.50453 1933.8999,568.54153 1935.1359,571.89753 1934.9009,573.33653 1934.5899,572.38453 1934.9599,570.84953 1934.0409,570.16853 1934.0519,570.27253 1934.2789,572.84253 1933.8499,572.55853 1933.7139,572.37653 1933.5919,572.18653 1933.4849,571.98753 1932.6609,570.82453 1933.3859,573.71453 1932.6719,571.53653 1932.9969,572.05153 1933.0209,572.57953 1932.7419,573.12053 1931.7549,572.22753 1931.7789,570.30353 1931.6619,569.08853 1931.4789,567.21853 1930.0049,567.57753 1929.4319,566.06453 1929.6719,567.58053 1932.1389,567.28753 1930.9789,569.22853 1929.6699,571.41553 1928.4489,572.30653 1925.9719,573.04953 1924.6589,573.44453 1922.8609,574.13253 1922.5689,575.66653 1922.3699,576.70953 1923.3519,580.12053 1924.1729,580.89653 1923.6669,581.28753 1922.8809,581.68853 1922.6379,582.32153 1922.2679,583.28653 1923.2089,583.36153 1922.0559,584.27853 1920.6809,585.37153 1920.1609,587.47853 1918.4839,585.28953 1918.7219,586.11253 1919.6839,586.50853 1920.3629,586.87353 1918.2619,587.92453 1916.0119,588.98953 1913.6639,589.32053 1914.4039,588.91653 1914.6109,587.12053 1913.4369,587.52553 1912.2339,587.94053 1911.1659,589.67653 1911.5739,590.90453 1911.7239,590.44053 1912.8289,588.90153 1913.2339,589.68053 1912.4999,589.89053 1911.3729,591.80753 1910.6709,592.49253 1909.0939,594.02953 1908.2939,595.90453 1907.1969,597.79453 1906.0879,599.70653 1904.7839,601.60353 1902.7079,602.54753 1900.9269,603.35753 1900.7249,605.72953 1898.9729,606.52853 1900.1349,607.22753 1894.4969,609.85653 1893.8699,610.42153 1893.2579,610.97353 1892.6069,611.77753 1892.2859,612.53753 1891.7679,613.76453 1893.4059,614.07653 1892.8579,615.47753 1891.7739,618.25153 1888.4879,618.01153 1886.0859,618.13053 1885.1079,618.17953 1884.9969,618.88353 1884.7769,619.71553 1884.5369,620.62353 1883.5739,622.23853 1883.6419,623.08853 1882.8679,622.70453 1882.8509,621.92253 1882.5619,621.21653 1882.8799,622.02953 1882.3789,622.78253 1882.1319,623.52053 1882.6659,621.08453 1879.1399,622.46553 1878.5129,623.64653 1877.5929,625.37753 1876.4059,628.02553 1877.0889,629.95653 1877.6509,631.54453 1878.3009,633.26853 1878.3239,634.89453 1878.3639,637.68053 1878.9089,639.89153 1879.6809,642.60153 1879.4459,642.13353 1878.3339,639.89253 1878.4519,641.73753 1877.8069,640.41553 1877.8289,642.12953 1878.3179,642.42953 1878.9459,642.81353 1879.5549,642.85953 1879.9839,643.54453 1880.7709,644.80053 1880.0929,648.06853 1879.8919,649.42753 1879.5349,651.85553 1878.1019,653.70153 1877.3829,655.98653 1876.8219,657.76553 1877.6609,660.34253 1876.3609,661.82553 1876.5829,661.60953 1876.8229,661.41853 1877.0819,661.25053 1877.8899,662.19553 1877.8979,663.54653 1877.8879,664.71853 1877.8699,666.64353 1878.3069,668.54553 1878.2419,670.46653 1877.7339,670.42753 1877.2299,670.35653 1876.7319,670.25053 1878.6789,670.87953 1876.6889,670.56853 1876.3419,670.47553 1875.6179,670.28053 1874.5629,669.90753 1874.1169,670.79653 1873.8859,671.25853 1873.5229,671.81853 1873.7979,672.34353 1874.2079,673.12853 1873.0549,673.89453 1872.6909,674.49753 1871.9829,675.66753 1870.5999,678.23153 1872.6129,679.08553 1873.1349,679.30753 1873.7909,679.24253 1874.3049,679.03753 1874.6659,678.89253 1875.4209,680.19853 1875.6519,680.40253 1873.6719,678.35553 1870.3739,679.63453 1868.2319,680.69053 1865.4449,682.06353 1866.7189,684.67453 1865.3779,686.78853 1864.6989,687.85553 1863.3669,688.58953 1862.2459,689.08953 1860.4799,689.87753 1859.4749,689.08353 1858.1519,687.89153 1857.5419,687.34053 1852.8279,682.37053 1854.3319,681.98753 1853.0059,682.46253 1852.4929,679.80953 1852.0229,678.69353 1851.3559,677.10753 1850.6419,675.23253 1851.0909,673.49153 1851.4789,674.11653 1851.6359,674.85353 1851.6709,675.57953 1851.8399,673.84453 1851.5719,677.25053 1852.6099,677.38053 1852.2529,676.43353 1852.5259,675.35453 1852.0999,674.42853 1851.7359,673.63653 1850.9439,673.20853 1850.8799,672.26853 1850.9139,674.10953 1850.3009,672.32553 1850.3409,671.92953 1850.4339,670.99753 1849.8969,670.70753 1849.4659,669.70253 1848.6979,667.91353 1848.0839,666.04653 1847.3989,664.22453 1847.1409,663.53853 1842.9339,656.69353 1843.1699,656.35653 1840.5199,653.09453 1838.6869,649.17053 1837.7739,645.08253 1837.4499,643.62853 1837.2649,642.30353 1836.7429,640.93753 1836.3959,640.03153 1836.0209,639.18853 1835.6519,638.29853 1835.3739,637.62753 1834.3369,635.91253 1835.5399,636.34053 1834.2089,635.89553 1834.5159,634.04753 1833.8099,633.10053 1833.3619,632.49853 1831.1369,631.29953 1833.0199,630.94053 1831.9069,631.44853 1831.3469,630.12053 1831.0269,629.30653 1830.7759,628.66753 1830.5709,628.00353 1830.2529,627.39353 1829.9269,626.76853 1828.9279,626.47953 1830.2109,626.33153 1829.5789,626.17153 1829.0429,625.27053 1829.0629,624.64953 1829.0839,624.00553 1828.3749,623.80753 1827.8789,623.10953 1826.6809,621.42353 1825.8929,619.41353 1825.2619,617.45653 1824.8229,616.09553 1824.4509,614.66753 1824.4509,613.22753 1824.4509,611.72753 1823.6389,610.32653 1823.4009,608.85253 1823.1779,607.47153 1822.3989,606.28853 1821.9799,604.95953 1821.7059,604.09053 1820.1329,601.21753 1821.5709,601.77853 1821.3089,601.44653 1819.3199,598.87653 1821.0709,599.83553 1820.7859,598.78153 1819.5139,598.10753 1819.9909,596.88353 1820.2339,597.07153 1820.4739,597.26353 1820.7109,597.45953 1820.7529,596.84453 1820.5359,596.34053 1820.0609,595.94653 1821.1029,595.53653 1820.5499,594.53653 1820.3509,593.78753 1820.2899,594.39353 1820.0749,594.94153 1819.6309,595.37153 1818.8519,594.11653 1819.0899,591.29153 1820.8509,593.28353 1820.5619,592.57753 1817.9469,592.13253 1818.7699,591.13953 1819.0569,590.79353 1817.8509,589.36853 1817.7169,588.92753 1817.3589,587.74653 1817.3179,586.58053 1817.5619,585.37053 1817.9449,583.47853 1819.0749,581.49953 1818.3179,579.56253 1818.2199,579.31053 1817.7129,575.99853 1816.7519,577.22553 1817.0819,576.35753 1816.8889,576.33253 1816.1719,577.15353 1817.0619,576.09553 1815.5259,575.77453 1815.7859,574.99453 1815.9539,574.48853 1816.0919,573.94653 1816.1679,573.41953 1816.2799,572.65153 1818.8649,572.16753 1819.3419,571.25053 1817.4529,572.66553 1813.1039,571.56653 1816.0319,569.44953 1815.0369,569.89253 1813.8699,569.19453 1814.5919,568.08253 1815.2099,567.13053 1816.1929,568.09853 1816.8219,567.14553 1815.8369,567.39853 1813.7739,567.03853 1813.2209,566.06553 1813.1579,566.55653 1812.1929,566.74653 1812.2109,566.64153 1812.1239,567.11353 1812.8309,567.18953 1812.8489,567.91553 1812.8739,568.89353 1812.1789,569.18853 1811.3509,569.44853 1811.5369,569.69453 1811.7299,569.93453 1811.9309,570.16953 1811.3529,570.01553 1810.9329,570.34953 1810.7709,570.88953 1812.8029,571.51853 1813.6799,572.84753 1812.3429,574.73553 1811.8679,575.40453 1812.1279,576.33953 1811.2059,576.68653 1810.0869,577.10753 1809.0789,577.85253 1808.0599,578.46553 1806.2579,579.54853 1804.2069,580.88253 1802.0279,580.17053 1799.8309,579.45353 1797.2229,577.39253 1795.9199,575.49853 1793.9799,572.68153 1791.0889,570.91153 1788.8209,568.43853 1788.2239,567.78753 1786.5289,565.57253 1788.4869,565.29953 1789.0209,565.22553 1789.0469,566.24853 1789.4489,566.46653 1790.2169,566.88153 1791.6319,566.55253 1791.7709,565.56253 1792.5259,566.62753 1796.0239,564.62453 1796.7319,563.90653 1797.3459,563.28253 1797.2299,562.31553 1797.6709,561.60253 1798.1359,560.85353 1799.3389,560.35053 1798.3209,559.44253 1797.8079,559.95053 1798.3489,561.15353 1797.3539,561.09853 1796.2799,561.03853 1795.4049,561.24653 1794.3659,561.59853 1793.4819,561.89853 1793.1349,562.72253 1792.1279,562.67453 1790.9009,562.61553 1789.6809,562.02653 1788.6109,561.47053 1787.5439,560.91553 1786.3349,560.43253 1785.3659,559.72553 1784.5929,559.16153 1784.5379,557.75953 1783.6179,557.42953 1780.5069,556.30553 1784.1489,553.89653 1785.0709,553.17953 1783.4119,552.99153 1782.3249,556.16453 1780.6799,555.41053 1780.9979,554.91453 1781.0219,554.41053 1780.7559,553.89353" id="path5490"/>
  </g>
  <g id="cn">
    <title>China</title>
    <g class="landxx coastxx cnx chn" id="cnx">
      <path class="landxx cnx chn" d="M 1796.5263,418.31753 C 1797.5413,418.32253 1798.2553,417.81153 1798.0373,416.73353 1797.7353,415.25353 1797.0183,415.53053 1797.4723,413.96853 1797.8403,412.70453 1798.9023,413.15053 1799.8373,412.77353 1800.9263,412.33453 1801.3603,410.79153 1802.6473,410.75753 1802.4393,410.29353 1802.3893,409.81353 1802.4983,409.31753 1803.2393,409.47053 1804.7403,410.19853 1805.4253,409.58253 1805.9393,409.12053 1806.5103,408.35153 1807.2433,408.24953 1808.0083,408.14353 1808.3713,410.13053 1808.8903,410.58553 1809.7723,411.35853 1811.4843,410.30953 1812.6063,410.40753 1814.6693,410.58653 1814.8213,407.65853 1815.0553,406.22353 1815.2473,405.04053 1815.7893,404.59653 1817.0763,404.78753 1818.7093,405.02953 1820.2233,405.06053 1821.7983,404.71053 1822.6203,404.52753 1823.7613,404.83353 1824.4353,404.19153 1825.1793,403.48253 1825.0533,402.08253 1825.7583,401.25453 1827.5293,399.17153 1830.9983,398.96453 1833.0633,397.27853 1833.8933,396.60053 1834.3173,396.23453 1835.3723,396.20853 1836.7273,396.17453 1836.3583,395.68353 1835.9453,394.69953 1835.4193,393.44653 1834.9613,392.34853 1834.3443,391.14453 1833.5353,389.56853 1835.2513,389.21753 1836.3383,388.94153 1835.9153,388.54153 1835.4353,388.22953 1834.8983,388.00553 1835.3413,387.34853 1836.0903,386.36053 1836.9893,386.99753 1837.5703,385.68053 1835.9733,385.55053 1835.9073,384.45553 1835.8193,383.02153 1834.4003,382.01753 1833.6083,380.94953 1832.5223,379.48353 1831.3733,378.00953 1830.7503,376.27253 1830.3403,375.12753 1831.0203,373.26453 1829.9353,372.76753 1829.0193,372.34853 1825.2883,372.78453 1826.3333,371.22853 1826.9263,370.34753 1829.1403,370.09853 1830.1243,369.79053 1831.9163,369.22953 1833.6893,369.08553 1835.4933,368.43653 1837.2893,367.79053 1837.5643,368.69653 1839.0453,369.28853 1840.2343,369.76353 1841.2383,368.54253 1842.4223,369.37153 1843.7853,370.32653 1843.8103,368.74753 1843.5263,367.81653 1843.1013,366.42153 1841.3643,367.23053 1840.6603,366.18953 1840.0583,365.29953 1840.6923,363.59753 1840.7693,362.62653 1840.8853,361.16253 1840.5313,359.62453 1840.5363,358.14753 1840.5363,356.75053 1841.1363,355.21553 1840.8553,353.85653 1840.5173,352.21753 1841.3653,351.75553 1842.8173,352.45253 1844.0443,353.04053 1845.1073,353.59953 1846.4513,353.91553 1848.2033,354.32653 1849.8773,353.66953 1851.6323,353.84453 1852.9773,353.97853 1853.4453,355.74853 1854.6853,354.70353 1855.6403,353.89953 1856.9503,353.79153 1857.8533,352.98553 1859.4993,351.51653 1855.3883,347.47053 1854.9203,345.88553 1854.6663,345.02553 1854.4793,342.67653 1855.3403,342.07353 1856.1663,341.49353 1857.3763,342.08753 1858.2913,341.67753 1860.6083,340.64053 1860.4333,339.56353 1859.6993,337.41253 1859.2203,336.00753 1860.8259,336.02059 1861.7483,335.99953 1862.7627,335.97633 1864.2748,336.69285 1866.1762,335.78093 1866.7641,336.32669 1867.5575,337.27362 1867.0949,337.39972 1865.8401,337.74176 1868.0979,338.73703 1868.4323,338.88014 1870.0855,339.58761 1868.5693,340.18474 1869.5823,340.66274 1870.9913,341.32574 1872.9043,341.35553 1873.9723,342.65653 1875.1703,344.11653 1878.4455,345.82517 1880.2839,345.30253 1882.1796,344.76361 1884.046,347.76072 1884.9139,346.29233 1885.6746,346.52953 1887.7186,347.7078 1888.5761,348.53233 1889.7877,349.69741 1890.3901,351.23865 1891.6505,352.33613 1892.7471,353.291 1894.1845,354.16462 1895.3145,355.57949 1896.9345,357.60787 1896.7736,356.70396 1896.9029,357.87065 1897.2933,361.39265 1898.8772,361.61194 1897.9759,362.85554 1896.9626,364.25377 1897.0578,365.68977 1898.3063,366.87853 1899.165,367.69612 1900.2779,368.84515 1901.5813,369.17553 1903.1877,369.58271 1904.7756,369.80346 1906.4889,370.02354 1908.0926,370.22953 1909.8693,370.54737 1911.4943,370.66653 1913.0474,370.78042 1914.5414,370.53805 1916.1033,370.60453 1919.0245,370.72887 1921.6649,372.3335 1923.9341,373.38834 1924.7229,373.75502 1925.4978,374.06705 1925.8087,374.25754 1927.7884,375.47065 1928.6641,375.85893 1930.2101,376.44593 1931.333,376.87228 1932.2257,376.69441 1933.3971,376.85214 1934.9122,377.05614 1934.2652,378.26953 1935.0233,378.90553 1936.328,380.00006 1937.3193,380.09453 1938.3233,381.62253 1939.1153,382.82853 1940.1949,383.98593 1941.1449,385.07293 1942.2529,386.34193 1943.9185,387.03513 1945.1965,388.10013 1946.0905,388.84513 1946.059,389.90168 1947.2423,390.06674 1948.6698,390.26585 1950.3167,389.68577 1951.9593,389.58274 1954.424,389.42813 1959.0478,390.88207 1962.7419,391.04574 1964.5583,391.12624 1966.3413,391.52853 1968.1593,391.48253 1969.9013,391.43853 1971.1137,390.36955 1972.8857,390.49355 1974.7797,390.62555 1976.8645,391.17337 1978.7435,391.42374 1980.361,391.63926 1981.8491,391.0003 1983.8823,392.05453 1985.2707,392.77441 1986.2059,394.07408 1987.6413,394.61253 1989.6443,395.36391 1992.0394,395.68475 1994.2065,396.19152 1997.4252,396.94419 2000.1713,398.23889 2004.1983,397.90553 2005.6231,397.78758 2005.7312,398.25794 2006.8831,398.99552 2008.0499,399.74265 2011.2717,399.52913 2010.4753,399.65853 2009.1772,399.86944 2017.135,395.18445 2018.8593,394.70453 2020.0797,394.36485 2022.1489,393.47885 2023.9843,393.36453 2025.9591,393.24153 2027.7661,392.68672 2030.1985,392.70492 2033.3315,392.72832 2037.1129,393.34214 2039.2823,391.92153 2040.5063,391.12003 2042.5195,390.69474 2043.4545,389.58774 2044.3505,388.52774 2044.5218,386.91216 2045.2287,385.73974 2045.8487,384.71146 2046.8235,384.95467 2047.8713,383.71393 2048.3115,383.19276 2048.8346,382.90314 2049.3575,382.33113 2049.6308,382.03226 2050.0791,382.19514 2050.1591,381.85514 2050.6381,379.79214 2045.4481,377.58907 2044.1979,376.24314 2043.3044,375.28117 2044.4013,374.74052 2043.8726,373.54457 2043.1911,372.00309 2044.1405,370.43214 2045.5627,369.96835 2047.6045,369.3025 2049.0151,371.39525 2055.0033,372.66753 2055.8033,372.8375 2057.8711,373.25511 2058.0023,372.64753 2058.292,371.30638 2060.0113,371.2544 2060.6023,370.28552 2061.1433,369.39864 2061.1007,368.32831 2061.7657,367.50931 2062.4027,366.72531 2064.1335,367.45951 2064.9735,367.54071 2067.2087,367.75676 2069.6743,366.35852 2070.9741,364.41033 2071.5437,363.55666 2069.8485,362.77812 2070.6009,361.1769 2071.2119,359.87675 2070.7915,358.7442 2073.9579,359.05633 2074.9768,359.15677 2075.6261,359.40274 2075.7597,357.91393 2075.8709,356.6742 2077.6065,357.62911 2078.1667,357.59254 2078.5704,357.56614 2080.1204,356.44732 2080.9257,356.26733 2081.5768,356.12179 2082.1283,356.20293 2082.7693,356.27893 2084.0523,356.83094 2084.7595,355.73076 2084.6039,355.99891 2085.0979,355.99591 2086.1959,356.60391 2086.7809,356.71691 2087.8419,356.91991 2088.8373,357.12479 2089.9123,357.01652 2093.4651,356.65869 2090.0734,353.67477 2088.7433,352.75652 2084.7755,350.01735 2080.8649,347.85504 2076.9253,345.95052 2075.0861,345.06142 2072.2466,344.40727 2071.1243,346.57852 2069.6023,349.523 2067.3725,346.14664 2065.0753,346.57352 2064.244,346.72801 2062.7028,346.55492 2061.9189,346.70212 2060.9048,346.8925 2060.7663,348.27152 2059.4083,347.50752 2058.5453,347.02152 2055.4193,345.43752 2056.2163,344.09052 2056.6643,343.33152 2057.2663,343.35752 2056.6713,342.41152 2056.0803,341.47252 2056.0673,340.68752 2056.0893,339.62552 2056.1523,336.42852 2055.8253,333.23252 2055.5793,330.04952 2057.9523,331.18652 2060.5633,331.15652 2062.8523,332.17352 2065.4593,333.33052 2065.6501,331.02232 2067.2417,329.56512 2068.3465,328.5536 2071.1612,328.75711 2071.4387,327.57111 2071.6619,326.61756 2069.9195,326.3195 2069.2899,325.65973 2068.8302,325.17791 2069.0483,324.61852 2068.9963,324.06052 2068.9143,323.17152 2069.5203,322.77052 2069.1113,321.85752 2068.8633,321.44252 2068.8263,321.00652 2069.0023,320.54852 2069.3683,319.60952 2068.8283,319.08352 2068.8283,318.16052 2068.8283,316.20452 2067.8803,314.54733 2069.7383,313.16333 2071.8153,311.61733 2068.9603,309.93752 2068.2083,308.57452 2067.5413,307.36552 2065.9583,306.37552 2064.5413,306.94152 2063.2733,307.44752 2062.6663,306.47152 2061.9183,305.64252 2063.9633,304.95352 2063.3237,301.69233 2065.7357,301.22433 2068.6097,300.66733 2071.3739,299.56693 2074.3299,299.72993 2077.2679,299.89093 2079.7185,298.43576 2082.5817,299.61293 2083.6145,300.03755 2085.6734,300.30263 2086.6655,301.06654 2088.0927,302.16552 2090.0003,302.10052 2091.5773,302.90552 2091.1034,300.77044 2097.8206,302.98752 2097.5413,303.84512 2097.3114,304.55073 2100.2983,305.30112 2101.0343,305.70412 2101.6043,306.01712 2101.2301,306.42454 2101.7341,306.72654 2102.5231,307.19854 2103.189,307.61676 2103.9603,308.17352 2105.4575,309.25427 2107.5636,310.10598 2108.2923,311.42952 2108.8984,312.53038 2109.9166,313.4876 2110.9353,314.15552 2111.8733,314.77052 2112.4534,315.84748 2113.8733,316.33195 2115.3354,316.83081 2116.0463,318.70074 2117.2143,319.57574 2118.5243,320.55574 2119.9165,321.45833 2121.1915,322.50033 2122.2735,323.38333 2122.5037,324.66254 2123.5227,325.58054 2124.6587,326.60354 2125.5747,326.24254 2126.1097,327.81354 2126.9867,330.38654 2131.0013,332.61654 2133.6113,332.12754 2134.7153,331.92054 2136.3113,331.81352 2137.3123,332.36852 2138.9473,333.27652 2140.5033,333.45852 2142.1973,334.15452 2140.9066,331.89369 2144.1883,334.77746 2144.7183,334.80252 2145.9519,334.86082 2147.4553,336.65452 2148.5143,337.26452 2150.2233,338.24952 2151.7503,337.45852 2153.3993,338.11452 2153.8903,338.31052 2153.6479,339.54593 2154.0229,339.99593 2154.4489,340.50693 2155.3239,340.87493 2155.8859,341.19893 2157.5529,342.15793 2157.2267,343.19579 2157.8813,344.67252 2158.3463,345.72152 2161.6678,347.61168 2162.7003,348.06652 2163.3109,348.33548 2163.9583,347.68952 2164.6373,347.68952 2165.6563,347.68952 2166.4993,348.31952 2167.5383,348.19352 2168.7073,348.05052 2172.6531,348.21162 2172.2403,346.84752 2171.8027,345.40152 2174.032,344.31952 2175.4623,344.47252 2175.5503,344.48152 2176.7933,345.01952 2176.8743,344.66252 2177.0623,343.83552 2176.9963,343.60252 2177.9233,343.35952 2178.7743,343.13552 2180.2256,342.00023 2181.2583,342.21752 2181.8396,342.33984 2183.6367,342.81175 2184.0283,343.22552 2183.9323,344.20052 2184.2113,344.99652 2184.8903,345.69252 2185.8833,346.71052 2187.9915,347.92874 2187.0275,349.63974 2186.8225,350.00274 2186.1103,350.43052 2185.8033,350.74252 2185.0353,351.51952 2186.1763,352.09652 2186.4743,352.72752 2186.7163,353.23952 2186.5853,353.84552 2186.6983,354.38552 2186.9053,355.37952 2187.811,356.21631 2187.7433,357.26652 2187.6633,358.50434 2190.3454,360.50357 2188.2783,361.15352 2189.5653,362.09452 2188.4807,362.45231 2188.5387,363.55931 2188.5807,364.37631 2189.6525,364.97512 2189.3633,365.79552 2189.0484,366.68875 2187.5583,366.03959 2188.5843,368.19952 2188.8628,368.78586 2189.3441,369.46231 2189.4471,370.11631 2189.6121,371.17031 2183.9095,369.42592 2183.0135,369.22292 2182.6195,369.13392 2180.1563,368.06652 2179.9843,368.40652 2179.6023,369.15752 2179.6743,370.50852 2178.8903,370.96252 2178.2633,371.32652 2177.2133,371.47831 2176.7813,371.97731 2176.3653,372.45631 2178.0693,373.59652 2178.2873,373.82152 2180.3823,375.98952 2181.9463,378.52152 2183.2863,381.19952 2184.4103,383.44452 2186.6787,384.88914 2186.4815,387.54512 2186.3955,388.70322 2187.0303,389.3889 2185.6893,389.19131 2184.5584,389.02468 2183.5273,389.20851 2182.8793,390.38652 2185.0224,390.88052 2185.9594,392.81106 2186.7784,393.79206 2187.9159,395.15444 2182.3373,391.32152 2181.3073,389.77852 2180.4543,388.50052 2179.3303,388.14052 2177.8383,388.22552 2178.1063,389.14452 2179.5743,391.76852 2178.9823,392.66552 2178.5223,393.36252 2177.1733,392.64152 2176.5433,393.17652 2175.6213,393.95952 2177.3013,395.57152 2175.2813,396.08652 2173.4733,396.54752 2171.5753,396.11952 2169.7783,396.57852 2170.7233,397.86052 2174.1861,399.35112 2173.7821,401.11612 2173.5671,402.05912 2169.4323,401.42352 2168.4673,401.27552 2167.5713,401.13952 2166.6353,400.94352 2165.8443,400.48152 2164.9163,399.93952 2164.0243,398.35552 2162.7963,398.49252 2162.1583,398.56452 2162.0463,399.29652 2161.2773,399.31252 2161.3353,400.94952 2161.4723,401.83252 2160.9293,403.40952 2160.6903,404.10552 2160.5763,405.28352 2159.9423,405.75752 2159.6173,405.99952 2158.0873,406.05952 2158.1833,406.60352 2158.3073,407.31052 2157.6733,407.21452 2157.3473,407.73752 2156.9843,408.07652 2156.5563,408.28552 2156.0643,408.36452 2155.6203,408.58752 2155.1903,409.62952 2154.9373,409.70652 2153.3743,410.18152 2152.1583,411.89752 2152.1773,413.65452 2152.2003,415.72352 2149.0393,415.79352 2147.8873,414.57952 2148.0503,415.67252 2146.5253,415.54852 2145.8663,415.51452 2146.1443,416.31452 2145.4193,416.46452 2144.8193,416.56552 2143.5743,416.77352 2142.6703,417.72752 2141.6963,418.46652 2140.7333,419.19752 2140.0693,419.50552 2139.9503,420.82752 2139.8643,421.79052 2138.7523,421.69952 2139.0263,422.64152 2138.5503,422.31052 2138.0243,422.16652 2137.4463,422.20952 2138.2193,423.24952 2134.8633,425.79052 2134.1133,423.33152 2133.7223,422.04852 2136.2013,422.07352 2136.5433,421.70052 2137.0393,421.15952 2136.3973,420.71152 2136.3433,420.17152 2136.2753,419.49752 2137.3323,419.14452 2137.6573,418.68152 2135.4173,419.67352 2134.2573,418.14852 2132.2573,417.81752 2132.6173,417.30952 2133.1623,416.93252 2133.7773,416.80952 2132.5243,414.91952 2133.4123,415.22552 2134.8113,413.82852 2135.4523,413.18752 2135.7113,411.27552 2135.7883,410.40152 2136.0623,407.25452 2131.1973,407.92152 2130.8173,405.14552 2131.0463,406.97352 2129.1733,406.17552 2128.2043,405.82852 2126.9793,405.38952 2124.3533,406.77152 2126.2183,407.52152 2124.7993,407.79952 2123.9573,409.98752 2124.0763,411.32752 2124.1753,412.43152 2120.9163,413.64352 2120.1683,414.14552 2119.4453,414.63052 2118.7753,414.98652 2118.3673,415.80152 2117.7013,417.13152 2119.0003,417.78952 2118.6803,418.80952 2117.9223,421.22852 2115.8813,420.41752 2114.0743,421.52052 2112.8383,422.27552 2111.5523,420.29552 2110.1933,420.55152 2108.2203,420.92352 2109.2073,424.14952 2109.6603,425.37052 2110.4543,427.50752 2112.8613,428.29052 2114.5813,429.49452 2115.1233,429.87452 2116.4133,430.01552 2117.0283,429.77152 2118.0503,429.36852 2118.2863,430.84752 2119.1583,430.99252 2119.3953,430.48852 2119.3953,429.98452 2119.1583,429.48052 2120.6173,429.48052 2122.6193,430.94452 2123.3043,432.23452 2124.2483,434.01252 2122.9073,435.72952 2124.8503,437.22252 2126.1553,438.22452 2127.7463,438.49552 2129.3333,438.24152 2130.4493,438.06152 2131.7973,437.44652 2130.5273,436.32052 2131.1413,435.96052 2134.0083,433.58452 2131.8973,433.58552 2133.1093,433.81152 2134.2203,432.74652 2135.3113,432.41752 2136.3413,432.10552 2137.9983,433.18152 2138.6163,433.93452 2139.1543,434.59052 2139.6063,434.51252 2140.3513,434.28852 2140.7803,434.16052 2141.3003,435.01952 2141.5183,435.24052 2142.5173,436.25352 2144.2023,434.76252 2145.2173,435.81652 2145.3343,435.51052 2145.4313,435.19952 2145.5073,434.88052 2147.0303,435.95352 2149.1473,435.15352 2150.6163,436.24852 2150.3503,436.38652 2150.0873,436.53052 2149.8273,436.68052 2151.4183,437.97052 2149.0083,438.33252 2150.5153,439.40652 2151.1193,439.83752 2151.0423,440.49252 2150.2453,440.80852 2148.9303,441.33052 2148.7953,440.12752 2148.2473,439.34452 2148.0813,439.71952 2147.8883,440.07952 2147.6673,440.42452 2147.5073,439.34152 2146.8303,439.65652 2146.2223,440.20552 2145.8703,440.52252 2143.3583,442.31652 2144.7873,440.78552 2143.9703,441.31352 2142.4943,442.71052 2141.5723,442.87752 2140.9203,442.99552 2139.3623,442.12652 2139.7473,443.44852 2140.8063,442.51852 2141.7543,443.90852 2141.1163,444.88852 2140.8063,444.12952 2139.9173,444.07852 2139.7473,444.96052 2139.6013,445.70852 2140.4323,446.14452 2140.2863,446.91552 2140.2203,447.26852 2139.1403,447.77252 2138.8163,447.69652 2137.7953,447.45452 2138.2253,446.26252 2137.3663,445.82452 2138.3433,447.21852 2136.9803,446.05852 2136.2173,446.18452 2136.2373,447.12252 2137.3963,448.43952 2138.3773,448.41652 2136.3353,448.72452 2137.5213,452.32052 2135.0663,451.72852 2135.0983,452.69852 2134.8773,454.74752 2134.3763,455.58652 2133.5423,456.98252 2134.2413,457.90152 2134.6373,459.28852 2135.6683,458.30452 2137.3343,459.70852 2138.1593,460.31852 2139.7863,461.52252 2141.6853,461.96652 2143.5023,462.79452 2144.9253,463.44352 2145.4543,465.58752 2146.2973,466.77552 2147.5753,468.57552 2148.7913,470.65852 2150.4393,472.13852 2151.5743,473.15852 2152.6783,474.68852 2152.7793,476.22252 2152.8993,478.04452 2155.6603,478.30252 2156.9763,478.88752 2158.1303,479.40052 2157.6153,480.08352 2158.1773,480.95952 2158.6113,481.63252 2159.3193,481.63352 2159.9863,481.96852 2161.0843,482.52052 2163.5313,483.73552 2162.7883,485.35152 2161.2283,484.92052 2159.5053,483.36552 2157.8033,483.85152 2155.5183,484.50452 2155.6013,482.87352 2153.6483,482.14752 2151.6873,481.41852 2150.8443,483.91152 2149.1933,483.00752 2148.3763,482.56052 2147.9173,481.79752 2147.3963,481.06152 2146.7503,480.14852 2145.8163,480.20052 2144.9383,479.66452 2145.3833,480.00652 2145.5503,480.59752 2145.2893,481.10352 2145.6923,480.63652 2146.1263,480.61252 2146.5893,481.03152 2146.3183,480.82552 2146.0543,480.60952 2145.7993,480.38452 2146.6723,480.05752 2148.4363,482.35852 2146.7393,481.60852 2147.9093,482.39052 2149.2673,484.13052 2150.9033,483.38752 2151.5603,483.08852 2151.4843,482.45152 2152.3213,482.49552 2153.0423,482.53252 2153.9673,482.85252 2154.4313,483.43852 2154.7193,483.80252 2154.3803,484.24652 2154.8693,484.48852 2155.6653,484.88452 2156.6013,485.00252 2157.4293,485.32552 2159.2173,486.02452 2160.7613,487.63652 2162.4863,488.54252 2163.4373,489.04252 2165.5093,491.02952 2165.4483,492.23152 2165.4203,492.78952 2164.2503,492.57652 2163.9343,492.60552 2162.7113,492.71652 2162.0483,493.71952 2161.1443,494.39252 2160.5413,494.84152 2159.8003,495.07352 2159.6683,495.86252 2159.6093,496.21352 2159.5403,497.06552 2159.0313,497.09652 2158.1623,497.14852 2157.6643,496.30652 2156.6773,496.68652 2155.8483,497.00552 2155.2393,497.75252 2154.5783,498.31152 2155.0433,498.08452 2156.7803,496.64952 2157.2843,497.00252 2158.2423,497.67352 2158.2603,499.49652 2159.6973,499.46352 2159.3963,499.27352 2159.0833,499.10552 2158.7583,498.95952 2160.4653,499.21852 2161.5273,497.18952 2163.1733,497.66052 2164.3073,497.98452 2164.8693,498.90952 2165.6443,499.69452 2166.5653,500.62652 2168.6083,500.82852 2169.8483,501.11952 2169.0003,501.51752 2168.6253,502.16052 2168.0483,502.84752 2167.8503,503.21252 2167.6103,503.54852 2167.3283,503.85552 2166.8923,504.19652 2166.3073,504.01552 2165.8883,504.43152 2166.0293,504.71052 2166.2193,504.95052 2166.4583,505.15152 2166.9043,504.52152 2167.7503,503.64152 2168.5483,504.35952 2168.1313,503.93752 2168.2143,502.79552 2169.0433,503.24752 2169.9633,503.75052 2169.1573,504.52852 2169.5993,505.26652 2169.6093,505.28152 2170.4793,507.70952 2169.5473,507.10552 2169.0293,506.76952 2169.0833,505.90452 2168.6183,505.51152 2168.7343,505.98552 2168.8063,506.46552 2168.8383,506.95152 2168.2273,507.11152 2167.8203,506.72552 2167.6883,506.15852 2167.9493,507.49352 2167.5663,506.64652 2167.2493,506.15852 2167.1233,506.73852 2166.8833,507.26652 2166.5283,507.74252 2167.4563,507.55452 2168.8433,508.43652 2168.9783,509.39852 2168.5513,508.94652 2168.2183,508.99452 2167.9783,509.54352 2168.7353,509.48952 2169.6013,510.54452 2168.7373,511.07052 2167.6653,511.72352 2166.1553,510.44252 2165.2383,510.04752 2165.7253,510.43352 2166.0163,511.24652 2166.6083,511.48652 2167.4443,511.82552 2168.0133,511.14052 2168.5253,512.16452 2168.7703,512.65352 2170.1233,513.89052 2169.4513,514.49052 2168.8413,515.03552 2168.0693,514.99652 2168.4093,516.09452 2167.4703,515.66252 2167.4193,514.40552 2166.4593,514.00652 2166.1883,514.48252 2166.1583,514.58052 2165.6693,514.79852 2167.0973,514.99052 2164.9833,519.23752 2162.6483,516.38252 2162.9603,517.43252 2165.2833,517.22952 2164.9773,518.44252 2164.7143,519.48652 2163.6463,521.38052 2164.9483,522.07152 2164.2163,522.41452 2164.2323,522.88452 2164.3353,523.57452 2164.5573,525.06352 2163.3063,523.50052 2163.7293,524.51852 2163.2433,524.09352 2162.7633,523.66152 2162.2903,523.22252 2162.2693,523.74252 2164.8083,525.53552 2162.7203,525.09452 2163.0923,525.94852 2162.4333,526.72852 2161.6403,526.96652 2162.5093,528.18152 2163.1583,530.34152 2160.6303,529.70252 2161.3933,529.38852 2161.7503,528.60052 2161.4203,527.83052 2161.0763,528.10352 2160.8143,528.43952 2160.6303,528.83852 2160.1473,528.48852 2159.7703,527.97952 2159.6193,527.39852 2159.3213,527.93052 2158.7823,528.25252 2158.1803,527.97452 2158.5523,528.38652 2158.6993,528.86652 2158.6193,529.41452 2159.8013,528.88152 2161.1683,530.94752 2159.4793,530.78252 2159.5463,531.67152 2160.6513,532.14852 2160.9193,531.07052 2161.8103,531.99152 2160.8203,531.94952 2160.2143,532.54652 2159.5893,533.16052 2159.2713,534.00852 2158.9793,534.81452 2158.2033,534.08952 2157.0163,533.67952 2156.0193,533.37552 2156.8003,533.86452 2157.2823,535.23852 2158.3913,535.05352 2159.4883,534.86952 2159.8713,533.72252 2160.7793,535.10352 2160.0413,535.40852 2160.3053,536.61452 2160.0733,537.37752 2159.6883,538.63752 2161.6373,538.67752 2161.2103,539.99952 2160.9833,539.03952 2160.7173,539.03952 2160.4103,539.99952 2159.9593,539.30652 2159.3193,538.71652 2158.5403,538.41552 2158.4873,539.02052 2158.1353,539.55352 2157.6093,539.85452 2158.1323,540.13852 2159.4473,540.32052 2159.2333,541.22252 2158.9243,542.52352 2157.8993,540.65052 2157.8993,542.30352 2157.7353,541.55852 2157.0243,540.27052 2156.2403,541.36752 2157.2333,541.71652 2156.3673,543.18652 2157.5293,543.23852 2157.2713,544.03552 2155.5903,545.25952 2155.5903,543.88652 2154.7963,544.52052 2154.9793,544.69052 2155.6413,545.11152 2156.4643,545.63552 2155.7563,546.88452 2155.3703,547.41452 2154.9483,546.99752 2154.5413,546.56452 2154.1503,546.11852 2153.8993,547.06652 2152.6563,547.66752 2152.1403,546.55052 2151.5903,547.34252 2150.2473,546.84252 2151.0603,547.98952 2150.5123,547.82952 2149.9593,547.80452 2149.4003,547.91852 2149.9043,548.46652 2150.6313,548.67452 2151.3403,548.42252 2151.1973,548.99852 2151.4753,549.33752 2152.0603,549.35852 2151.8573,549.89052 2151.3713,549.88852 2150.9983,550.21052 2150.4163,550.71452 2150.8033,551.67552 2149.8993,552.23852 2150.2193,551.53952 2150.0033,551.27552 2149.2503,551.44652 2149.5413,552.22252 2149.0493,552.91252 2149.0403,553.67852 2148.9623,552.22552 2147.5053,553.75052 2146.7403,553.75052 2146.5813,553.93152 2146.0073,556.44152 2145.2263,555.67852 2144.5403,555.00752 2144.0803,554.65852 2143.9493,555.91652 2143.8033,557.29952 2143.1513,557.62552 2141.7693,557.42252 2142.5973,557.74152 2143.6313,557.72152 2143.8593,558.79052 2142.9343,557.65652 2142.9953,559.42252 2142.3393,558.71852 2142.0503,559.59752 2142.5663,560.71852 2141.4083,561.07052 2140.6513,561.30052 2139.3383,561.59452 2138.5983,561.16652 2139.6783,562.31152 2135.5123,562.89152 2136.4383,561.09452 2135.8123,561.79752 2134.9883,561.50252 2134.2783,561.16652 2134.4193,561.78052 2136.0653,562.59752 2135.6303,563.34652 2135.3623,563.80552 2134.7513,563.41752 2134.4833,563.23452 2133.6503,562.66752 2132.8803,562.75652 2132.9793,561.74252 2132.5333,562.35552 2130.8773,563.35852 2130.3193,562.96752 2131.5893,563.41152 2130.7643,564.38452 2129.9983,564.17352 2129.0983,563.92652 2129.1323,562.84552 2129.7403,562.31952 2128.8863,562.31652 2128.1233,562.76152 2127.6603,563.47152 2128.6243,563.64652 2127.5933,564.63252 2128.6603,564.91052 2128.4483,565.10152 2128.2083,565.24552 2127.9393,565.34352 2127.4843,563.79752 2123.9273,563.93552 2123.1193,565.19952 2123.0153,563.09152 2120.3803,562.54252 2120.6703,560.30352 2120.3843,561.73852 2120.4233,560.88152 2119.8103,560.37552 2120.2873,559.56952 2121.1143,559.43352 2121.9703,559.58352 2120.8563,558.80752 2119.9213,560.37352 2118.8003,559.87152 2120.3993,560.51452 2118.7243,561.75552 2117.6503,561.38352 2118.0533,561.54552 2119.5623,562.10652 2119.6413,562.59252 2119.4833,562.71952 2119.2993,562.72452 2119.0903,562.60752 2119.9873,563.20352 2122.1533,566.08452 2121.2503,567.35952 2120.2853,568.71152 2118.2593,564.80152 2117.7903,564.26352 2117.7263,565.55252 2119.2783,566.70652 2119.8803,567.71952 2119.3463,567.84352 2118.9533,568.25552 2118.8693,568.79952 2118.3393,568.53652 2117.9403,568.04552 2117.9393,567.43152 2116.6303,568.03252 2117.9943,569.51952 2117.1393,570.38352 2116.1543,569.10952 2115.4343,570.13452 2114.7693,571.04252 2114.3193,571.65652 2112.7393,570.34652 2113.6193,569.51952 2112.9983,569.76152 2112.6093,569.46252 2112.6803,568.79952 2112.5603,569.63552 2113.1733,570.49852 2112.9123,571.33452 2112.5843,572.38752 2109.8513,570.47652 2109.2903,570.31152 2110.5883,571.95452 2108.8653,571.19952 2107.9303,571.24852 2109.5563,571.89052 2107.1923,574.34352 2106.1303,572.83252 2105.9593,573.37552 2105.6023,573.91252 2105.0503,574.12852 2105.5853,573.02952 2104.2483,573.69752 2103.5133,573.87052 2102.6023,574.08552 2101.3053,574.38152 2100.7303,575.20852 2100.8933,574.79652 2101.1063,574.41252 2101.3703,574.05652 2100.7723,574.47552 2100.3033,575.19952 2100.7303,575.92852 2099.1703,576.39852 2099.7163,575.28652 2098.7803,574.56052 2098.4103,575.38152 2099.5203,575.91852 2098.7923,576.65852 2098.2783,577.17952 2097.1633,577.71252 2097.6193,578.65752 2097.8803,579.19852 2098.6463,579.22652 2099.1393,579.39652 2099.8253,579.63252 2099.6173,581.17152 2099.0713,579.52852 2099.1753,580.79252 2100.9353,581.45052 2100.8443,582.70752 2100.6913,584.82552 2097.8143,583.78752 2096.6203,584.35352 2096.6833,583.62552 2095.8373,582.46252 2097.1313,583.12952 2096.8663,581.90652 2094.6663,582.15352 2095.5413,580.46552 2094.5273,580.60052 2095.1633,579.15352 2094.3153,579.06252 2093.7763,579.00452 2093.6253,576.98852 2093.9833,576.61652 2094.6883,575.88352 2093.8113,575.37352 2094.7833,574.78152 2096.2763,573.87152 2094.1713,573.34852 2093.6003,572.83452 2093.7313,573.09352 2093.8513,573.35752 2093.9603,573.62652 2092.8483,573.86552 2092.2933,572.21552 2091.8003,571.53852 2091.4463,572.13552 2091.7043,572.69752 2092.3003,572.97752 2091.8813,573.44752 2090.4683,574.67852 2089.9303,573.69752 2089.0493,575.71852 2088.8563,572.66652 2088.4103,572.32952 2087.8873,571.93352 2086.0173,572.76752 2087.1193,571.25052 2086.8613,571.15852 2086.5983,571.08652 2086.3303,571.03352 2086.2643,571.55952 2086.3833,572.04052 2086.6893,572.47352 2085.8143,572.34052 2085.4043,570.67552 2084.5293,570.88952 2084.9253,570.38352 2084.7533,569.89152 2084.1703,569.66552 2083.9403,570.17952 2083.7153,570.90652 2083.5903,569.88152 2083.4023,570.94252 2085.0203,571.60152 2084.4193,572.68352 2084.1303,573.20352 2083.1363,571.99452 2082.7303,572.04152 2083.0063,572.66252 2082.7163,573.24352 2082.1503,573.55352 2082.1243,572.90752 2080.4665,572.59604 2079.6183,572.34352 2077.803,571.80309 2076.8338,573.60981 2076.4613,572.18552 2076.2223,572.33052 2075.9823,572.47452 2075.7413,572.61852 2075.0452,571.5702 2074.0368,571.71544 2073.2343,571.0565 2072.8363,570.72963 2073.0388,570.50064 2072.8084,570.10625 2072.5846,569.72337 2071.3314,568.98405 2070.3413,569.44952 2069.7283,567.53452 2068.6833,566.08952 2068.6913,564.12252 2070.3963,564.72531 2069.6207,560.41936 2067.0293,561.60125 2065.9851,562.07744 2065.7272,561.31484 2064.9342,560.91884 2063.9732,560.43984 2063.5502,561.33839 2062.3205,560.82474 2060.1816,559.93126 2059.3333,558.98453 2058.1023,557.28353 2057.5773,558.49553 2056.1223,558.63353 2055.2003,559.39853 2054.6113,559.88753 2055.7063,560.86753 2054.9683,561.61353 2054.3613,562.22853 2050.6113,564.05253 2050.9833,562.03453 2049.6823,562.08653 2049.3633,565.12753 2048.9003,564.83553 2048.2403,564.41953 2047.7003,563.75553 2047.1663,563.19553 2046.0293,562.00453 2046.1123,563.29553 2045.7243,564.19453 2044.3253,562.58553 2044.1423,562.23753 2043.0523,564.25053 2042.0493,566.10353 2040.6343,564.13153 2039.6783,563.33853 2037.6033,561.61753 2037.2984,564.08449 2036.4779,565.46239 2035.9716,566.31268 2035.3697,565.37929 2034.8149,565.39739 2034.4328,565.40989 2033.9663,565.46849 2033.6013,565.57953 2033.1103,565.72653 2033.2303,564.91453 2032.7993,564.91453 2030.9183,564.91453 2031.8333,568.55153 2032.2993,569.24653 2032.8273,570.03453 2033.5033,570.78853 2033.7863,571.71253 2033.9893,572.00453 2034.1753,572.30653 2034.3443,572.61953 2034.4133,573.14553 2033.9653,573.60353 2033.9843,574.13153 2034.0033,574.69053 2035.1653,575.86653 2034.6343,576.36253 2033.9183,577.03353 2033.0933,575.51353 2032.2013,575.78253 2030.8413,576.19453 2030.6843,576.29253 2030.1273,574.88853 2029.6473,573.68053 2028.8963,572.50753 2028.8043,571.17853 2027.5853,572.08353 2025.4923,574.61753 2023.8853,573.58153 2023.1173,573.08653 2022.9463,574.23253 2022.3033,574.09853 2021.6453,573.95953 2021.4383,572.51053 2021.7443,572.04253 2019.2293,572.00953 2021.0763,569.54053 2019.7383,568.87853 2018.2723,568.15253 2016.4693,568.24653 2014.9333,568.46253 2012.9533,568.74153 2014.5223,565.88353 2014.6443,565.18653 2014.8253,564.15953 2013.6403,561.23653 2015.5533,561.31353 2015.0413,559.79753 2014.0733,559.65753 2012.6033,559.65753 2010.6653,559.65753 2010.8383,558.08253 2010.0393,556.84753 2009.9663,556.73453 2009.2923,555.98853 2009.4243,555.79953 2010.0973,554.83053 2008.7313,554.16653 2008.3193,553.44753 2007.6283,552.23953 2009.3733,551.71953 2009.0743,550.51453 2007.3263,551.80453 2005.1563,550.16453 2003.3423,551.18453 2002.9233,551.41953 2000.4643,553.36653 2000.0353,553.02853 1999.1593,552.33653 2000.0843,551.61353 2000.3703,550.90353 2000.6543,550.19953 2000.1693,549.07853 1999.7843,548.49753 1999.1873,547.59553 1998.8263,547.71553 1998.5983,546.42153 1998.4283,545.45953 1998.8413,544.76153 1999.8643,544.68253 1999.0863,543.41153 1999.7863,542.41453 1999.7153,541.08253 2001.4023,542.60853 2001.5153,538.65953 2001.6653,538.13053 2004.1443,538.30853 2002.3563,537.25153 2003.9653,536.04253 2004.2183,535.85253 2005.1133,536.35553 2005.1703,535.91753 2005.2843,535.04053 2004.1813,534.39753 2003.8953,533.66653 2005.3763,534.24353 2004.6153,531.57753 2004.6153,530.84753 2004.6153,529.25953 2004.2484,527.41353 2003.7124,525.92353 2003.2854,524.73753 2003.2773,523.42269 2002.6068,522.35866 2002.0857,521.53178 2001.4618,520.62415 2000.1463,519.98653 2000.4403,520.56153 2000.1353,521.01153 1999.5763,521.21153 1999.0603,520.17353 1998.0903,519.12853 1997.7573,518.03453 1997.4633,517.06853 1997.4973,516.23953 1996.6943,515.51753 1995.3663,514.32253 1993.3073,513.85053 1992.1563,512.57053 1992.0583,513.33737 1991.6155,514.71764 1991.5488,515.20733 1991.5188,515.43006 1991.2442,515.58464 1991.157,515.73391 1990.9388,515.91039 1991.223,515.44881 1990.4222,514.66481 1989.5518,513.81228 1989.0813,514.74351 1988.2123,514.34853 1987.4173,513.98853 1986.4403,513.28153 1985.5363,513.29053 1984.7003,513.29953 1984.3763,514.37053 1983.4833,514.01253 1982.8433,513.75653 1983.3663,512.83453 1983.5673,512.47853 1983.8843,511.91753 1984.4893,511.33853 1984.6483,510.72153 1984.9033,509.73053 1983.0843,509.27753 1983.4463,508.03353 1982.8053,508.21653 1982.1333,509.09653 1981.4053,508.92953 1979.7823,508.55753 1981.5873,507.05553 1982.1463,506.81053 1981.4953,506.22053 1980.6213,505.42653 1979.9033,504.91253 1979.1923,504.40253 1977.0883,505.98253 1976.5033,506.39153 1975.9013,506.81253 1976.1953,507.74553 1975.6213,508.13853 1975.1083,508.49053 1974.1693,508.04253 1973.7203,507.85353 1973.5483,507.78053 1971.4083,506.47253 1972.2863,507.52953 1971.6283,507.14353 1970.6113,506.35153 1969.9063,506.16153 1969.0943,505.94253 1968.4583,506.62453 1967.6653,507.09353 1966.5233,507.76753 1965.9083,509.03153 1965.0693,510.00653 1964.0063,511.24353 1962.9773,511.21453 1961.4883,511.47453 1959.8463,511.76153 1960.4863,512.87253 1959.7713,513.88753 1959.1143,514.81953 1957.5013,515.23853 1957.2133,516.34453 1956.8353,517.78853 1956.8193,518.84553 1954.8693,518.91553 1953.6143,518.95953 1952.6893,519.73553 1951.4563,519.57053 1951.0028,519.51003 1950.247,519.68209 1949.961,519.51933 1949.675,519.35658 1949.8588,518.85902 1949.8423,518.36052 1949.8143,517.47352 1947.5612,516.96482 1946.7854,516.98096 1945.6001,517.00566 1945.9788,518.41051 1944.2453,517.24952 1942.132,517.17752 1940.9654,517.14495 1940.2367,516.77765 1939.1114,516.21048 1940.2087,515.35765 1939.0862,515.02065 1937.6562,514.59265 1936.4433,514.81683 1935.1723,515.66083 1933.8373,516.54783 1933.0376,518.63077 1932.3496,520.05977 1931.8276,521.14577 1930.5002,522.18883 1930.4092,523.37983 1927.6909,521.28702 1929.6863,519.65371 1929.1543,518.11452 1928.3096,515.67077 1925.6328,517.55592 1923.7553,517.68252 1923.8013,517.94752 1923.8513,518.21152 1923.9043,518.47452 1922.2763,518.00352 1919.9813,518.60852 1918.2583,518.57352 1916.7033,518.54152 1915.7073,517.94452 1914.2663,517.21552 1913.7633,516.96152 1912.9083,516.41752 1912.3083,516.67752 1911.7743,516.90852 1912.1203,517.76952 1911.5483,517.87352 1910.6783,518.03152 1908.9663,516.79052 1908.9243,515.88352 1908.7173,516.05352 1908.6743,519.01152 1907.9383,517.78352 1907.1883,516.53352 1905.5753,515.79652 1905.1043,514.37152 1904.8503,515.53452 1900.9433,515.04852 1900.6583,514.02152 1900.5063,513.47252 1901.0703,512.50552 1900.6283,512.05152 1900.1703,511.58152 1898.7873,512.63752 1897.9913,512.16052 1896.7253,511.40152 1893.8783,510.44752 1893.3763,508.96252 1892.7593,507.13452 1890.8753,505.13352 1888.9513,507.05652 1888.2583,507.74952 1886.0293,504.77552 1885.6723,504.34752 1884.6883,503.16952 1882.7423,502.92252 1881.2813,502.03352 1879.0063,500.64852 1876.9773,499.10952 1875.0243,497.35952 1874.2783,496.69052 1873.2523,496.78952 1872.3543,496.50052 1871.3853,496.18852 1871.3753,497.41852 1870.3343,497.01952 1870.7303,499.63952 1869.2543,499.97052 1867.7263,498.29552 1866.3593,496.79652 1864.6403,496.09652 1862.7423,495.57852 1862.3413,495.46852 1861.4003,495.35052 1861.1143,495.00452 1860.6733,494.46952 1861.4893,493.60752 1860.5343,493.22752 1859.8113,492.93952 1859.4503,492.85552 1858.8203,492.27752 1857.7403,491.28652 1857.0283,491.99952 1855.8753,491.65952 1854.1353,491.14752 1853.4333,489.27252 1852.2703,488.12952 1851.0973,486.97552 1849.8283,490.24852 1849.0933,487.94452 1848.8333,487.13352 1849.1473,486.31152 1848.6623,485.55352 1848.1723,484.78652 1847.9803,484.15852 1847.8323,483.27352 1847.6723,482.32152 1846.7193,481.74152 1846.0613,481.15452 1845.0883,480.28652 1845.3123,478.95352 1844.4853,478.01152 1846.4483,476.54952 1846.8333,477.61552 1847.9643,478.96652 1848.5223,479.63252 1849.3593,479.74952 1849.8073,479.00252 1850.3653,478.06952 1851.3327,478.14373 1851.9287,477.33273 1852.6627,476.33273 1851.6743,475.35552 1851.0873,474.66352 1850.6213,474.11352 1850.8583,472.60452 1850.2853,472.43252 1847.9433,471.72452 1848.0881,471.88893 1846.4179,470.19421 1844.533,468.28167 1844.3004,464.84446 1844.3674,464.37353 1844.4004,464.13908 1846.9,463.40125 1844.7865,462.72188 1842.9593,462.13453 1841.5361,460.71729 1839.8215,459.68164 1837.4586,458.25439 1838.2135,454.9533 1834.2883,452.65552 1831.9693,452.75752 1824.9723,452.27652 1824.8253,448.92452 1824.1373,449.10152 1823.1463,450.21152 1822.4093,449.54852 1821.8373,449.03352 1820.3053,448.12652 1820.0043,447.45852 1819.7283,446.84552 1819.7973,445.62352 1819.6093,444.91052 1819.3513,443.92852 1818.8673,443.13952 1818.1233,442.44452 1817.0743,441.46652 1815.2713,442.01352 1814.6203,441.01152 1813.9143,439.92752 1811.6053,438.61552 1810.7163,440.21252 1809.9993,438.47452 1808.0023,439.75452 1807.3193,438.48852 1806.4173,436.81652 1809.5553,437.52252 1810.0093,437.44052 1811.8903,437.10152 1811.1453,435.35752 1810.0783,434.70152 1809.1763,434.14452 1809.6023,433.85252 1809.5723,432.97752 1809.5593,432.58652 1808.8863,431.41252 1808.7053,430.99352 1808.4493,430.40152 1807.7303,430.33752 1807.4973,429.67752 1807.2243,428.90352 1807.4793,428.07252 1807.3183,427.28252 1807.0203,425.82552 1804.5773,425.42652 1803.3753,425.16352 1801.7803,424.81252 1800.6523,426.94352 1799.4363,425.41252 1799.0423,424.91752 1797.3823,422.65452 1798.9863,422.64452 1798.4723,421.92052 1797.7753,421.36552 1797.1533,420.74352 1796.5383,420.13152 1796.7903,419.05852 1796.5263,418.31752" id="path2708"/>
    </g>
    </g>
  <path class="landxx npl" d="M 1862.9073,508.89355 C 1863.2963,507.71455 1864.2043,507.11755 1863.6083,505.86755 1863.2333,505.07855 1863.3154,504.96512 1863.6323,504.1508 1864.2517,502.55768 1864.2661,502.98988 1864.9203,501.94424 1865.9126,500.35812 1866.5206,497.22048 1868.2826,498.55298 1868.5952,498.78935 1869.0677,499.56374 1869.5807,499.16974 1870.3847,498.55074 1870.4676,497.93655 1870.3276,497.01455 1871.2386,497.36355 1871.3926,496.07724 1872.0026,496.27324 1873.0716,496.61824 1874.0406,496.54234 1875.0824,497.38336 1877.3332,499.20027 1879.6119,501.06593 1881.6844,502.15736 1883.3981,503.05982 1884.7647,503.13946 1885.9877,504.55336 1887.2381,505.99901 1888.0168,507.88032 1889.6406,506.52355 1890.4381,505.85724 1891.5019,506.41453 1892.2756,507.01255 1893.2175,507.74055 1893.3483,509.29435 1893.8096,509.66455 1895.1274,510.72209 1897.6797,512.21579 1898.9216,512.21055 1899.7698,512.20655 1900.3937,511.27037 1900.9187,512.48655 1901.204,513.14741 1900.0992,513.5323 1900.9917,514.24655 1901.6729,514.79178 1904.3047,515.35758 1905.0967,514.36655 1905.5607,515.77255 1907.1587,516.2193 1907.8117,517.4743 1908.6527,519.0873 1908.5917,516.14355 1908.9167,515.87855 1908.9577,516.76155 1911.2338,518.61536 1911.8878,517.36836 1912.1308,516.90436 1912.2903,516.20061 1913.1013,516.60361 1913.8163,516.95861 1914.0648,516.80952 1914.7198,517.23036 1916.7039,518.5051 1917.1001,518.36292 1918.5624,518.44911 1919.8597,518.52561 1922.2088,517.89215 1923.69,518.38151 1924.7374,518.72755 1923.701,522.87061 1923.8587,524.05157 1924.16,526.30445 1926.2247,527.24057 1925.6957,529.77357 1925.2657,531.82457 1923.6217,530.84057 1921.7367,531.07057 1920.2597,531.25057 1918.1857,531.68757 1917.9167,529.63057 1916.5717,530.08157 1916.1237,531.27857 1914.6037,530.36657 1913.8767,529.93057 1910.5827,528.77257 1909.8097,529.07657 1908.2527,529.68857 1908.5277,528.91457 1907.6967,528.04657 1906.4287,526.72157 1905.4871,528.69953 1904.1677,528.04657 1903.5052,527.71868 1902.4804,526.36844 1901.2127,526.13857 1899.6816,525.86093 1899.8597,525.20057 1899.2437,523.97157 1898.6277,522.73957 1892.2657,520.89657 1893.0077,522.86357 1892.1777,522.49757 1891.0067,521.53057 1890.0407,522.00957 1888.7027,522.67557 1888.3857,522.82557 1886.8277,522.13457 1885.9747,521.75657 1884.7837,521.70257 1884.3897,520.72857 1883.8207,519.32357 1882.7299,520.35682 1881.5897,519.66757 1880.5263,519.02477 1879.478,517.85726 1878.4758,518.11132 1876.9807,518.49029 1875.5747,517.10867 1874.0407,516.40257 1872.7047,515.78762 1871.9287,514.41457 1870.6517,513.63757 1869.3107,512.82057 1867.8387,512.24457 1866.5057,511.41457 1866.5057,512.73957 1865.0477,511.51257 1864.2527,511.00657 1863.6977,510.65057 1862.2837,509.73157 1862.9077,508.89357" id="np">
    <title>Nepal</title>
  </path>
  <path class="landxx btn" d="M 1929.554,524.71933 C 1929.554,524.13233 1929.6657,524.0002 1930.0307,523.6922 1930.5817,523.2292 1930.242,522.26733 1930.839,521.83333 1932.121,520.89933 1932.617,518.71733 1933.511,517.42433 1934.49,516.00833 1935.851,514.67833 1937.694,514.71133 1938.146,514.71933 1939.636,514.91433 1939.822,515.43733 1939.991,515.91233 1939.545,516.58433 1940.195,516.79133 1941.321,517.14933 1942.648,517.01633 1943.814,517.01633 1944.517,517.01633 1944.895,518.15033 1945.668,517.46133 1946.293,516.90233 1946.461,516.64933 1947.364,516.92433 1948.547,517.28533 1950.03,517.58933 1950.009,519.01033 1949.986,520.60833 1949.975,522.22846 1952.148,522.10433 1954.2313,521.98533 1953.8508,523.78833 1953.71,524.97133 1953.652,525.45876 1954.945,526.79033 1954.384,527.06533 1953.052,527.71633 1951.776,527.84833 1950.454,527.35033 1949.907,527.14433 1948.69,527.88033 1948.037,527.92033 1947.058,527.98033 1946.031,528.00233 1945.05,527.97333 1943.551,527.93033 1942.424,526.56533 1941.051,527.37933 1939.985,528.01233 1938.471,529.08433 1937.116,528.58833 1935.947,528.16033 1935.3091,527.19316 1933.864,527.31133 1931.3253,527.51893 1930.532,526.13212 1929.554,524.71933" id="bt">
    <title>Bhutan</title>
  </path>
  </svg>