<svg xmlns="http://www.w3.org/2000/svg" class="world_map zoom6 zoom5 zoom4 zoom3 zoom2" height="127" id="svg2985" version="1.1" viewBox="1645 527 4 13" width="127">
  <title>World Map</title>
  <defs id="defs2987"/>
  <style id="style_css_sheet" type="text/css">
/*
 * Below are Cascading Style Sheet (CSS) definitions in use in this file,
 * which allow easily changing how countries are displayed.
 *
 */
/* --- Custom styles for Peace Corps --- */
.world_map .world_map-is_selected.circlexx {
  opacity:1;
}
.world_map .world_map-is_selected.landxx {
  fill: #C94112 !important;
}
.world_map .landxx {
  fill: #F2EFE8;
  stroke: #ffffff;
  fill-rule: evenodd;
}
.world_map.zoom6 .landxx {
  stroke-width: 0.1px;
}
.world_map.zoom5 .landxx {
  stroke-width: 1px;
}
.world_map.zoom4 .landxx {
  stroke-width: 2px;
}
.world_map.zoom3 .landxx {
  stroke-width: 3px;
}
.world_map.zoom2 .landxx {
  stroke-width: 4px;
}
.world_map.zoom1 .landxx {
  stroke-width: 5px;
}
.world_map .coastxx {
  fill: #F2EFE8;
  stroke: #ffffff;
  stroke-width: 2px;
  fill-rule: evenodd;
}
.world_map .oceanxx {
  opacity: 1;
  color: #ccc;
  fill: #ffffff;
  stroke: #ffffff;
  stroke-width: 0.5;
  stroke-miterlimit: 1;
}

/* --- Original Styles --- *
/*
 * Circles around small countries
 *
 * Change opacity to 1 to display all circles.
 *
 */
.circlexx
{
   opacity:0;
   fill-opacity:0;
   fill:#e0e0e0;
   stroke:#000000;
   stroke-width:0.5;
}

/*
 * Smaller circles around French DOMs and Chinese SARs
 *
 * Change opacity to 1 to display all subnational circles.
 *
 */
.subxx
{
   opacity:0;
   stroke-width:0.3;
}

/*
 * Circles around small, unrecognized countries
 *
 * Change opacity to 1 to display all circles.
 *
 */
.unxx
{
   opacity:0;
   fill:#e0e0e0;
   stroke:#000000;
   stroke-width:0.3;
}

/*
 * Circles around small countries, but with no permanent residents 
 *
 * Change opacity to 1 to display all circles.
 *
 */
.noxx
{
   opacity:0;
   fill:#e0e0e0;
   stroke:#000000;
   stroke-width:0.5;
}

/*
 * land
 */
.landxx
{
}
/*
 * Styles for coastlines of islands with no borders
 */


/*
 * Styles for nations with limited recognition
 */
.limitxx
{
   fill: #e0e0e0;
   stroke:#ffffff;
   stroke-width:0;
   fill-rule:evenodd;
}

/*
 * Styles for nations with no permanent population.
 */
.antxx
{
   fill: #e0e0e0;
   stroke:#ffffff;
   stroke-width:0;
   fill-rule:evenodd;
}

/*
 * Ocean
 */


/*
 * Additional style rules
 *
 * The following are examples of colouring countries.  You can substitute these with your own styles to colour the countries on the map.
 *
 * Color a few countries:
 *
 * .gb, .au, .nc
 * {
 *    fill:       #ff0000;
 * }
 *
 * Color a few small country circles (and the countries):
 *
 * .ms, .ky
 * {
 *    opacity:    1;
 *    fill:       #ff0000;
 * }
 *
 */

</style>
  <path class="oceanxx" d="M 2079.5058,1457.5605 615.24779,1457.5605 C 615.13079,1457.5605 615.07079,1457.5505 614.95179,1457.5215 611.67679,1456.6515 608.40179,1455.7815 605.12779,1454.9105 599.15079,1453.3225 593.22879,1451.5225 587.30779,1449.7385 564.39379,1442.8315 541.76579,1434.6995 519.46979,1426.0115 495.81079,1416.7935 472.34979,1407.0946 449.19179,1396.6816 426.78379,1386.6056 405.17679,1375.0536 383.76379,1363.0356 363.11779,1351.4496 343.01079,1338.8296 323.37979,1325.5996 302.29179,1311.3876 281.47879,1296.8506 261.05379,1281.7006 242.35079,1267.8276 223.73679,1253.6306 206.05279,1238.4686 186.98679,1222.1216 167.82379,1205.7706 150.35279,1187.6906 132.97779,1169.7106 116.33279,1151.0606 100.15679,1131.9976 84.352777,1113.3736 70.086776,1093.4716 56.901786,1072.9246 44.046786,1052.8916 32.093776,1032.1356 22.469776,1010.3426 17.516776,999.12753 12.408776,987.76556 8.7017761,976.06056 5.0657761,964.58166 1.5997761,953.04259 -1.5932239,941.43054 -8.0102239,918.09356 -14.055224,894.78356 -18.234224,870.92056 -22.491222,846.60856 -24.894222,822.19856 -26.943222,797.62156 -28.947222,773.58556 -28.829222,749.40156 -27.225222,725.34856 -25.648222,701.69856 -23.363222,677.92456 -19.274222,654.56456 -15.018224,630.25156 -9.3842239,606.45156 -2.8412239,582.66156 3.5687761,559.35256 10.483776,536.34856 20.265776,514.19856 30.320776,491.42956 42.318786,469.90956 55.502786,448.81656 68.512776,428.00356 83.108777,408.26756 98.686787,389.31756 113.73479,371.01156 129.68979,353.25256 146.15179,336.20856 163.77479,317.96256 182.64579,301.14556 201.89579,284.64756 220.33379,268.84456 239.55379,253.98456 258.95979,239.39656 278.42779,224.76056 298.39379,210.83356 318.55579,197.17556 339.26979,183.14456 360.47879,169.92056 382.15079,157.42556 403.46579,145.13656 425.31479,133.98856 447.60479,123.59356 469.58579,113.34356 492.14979,104.17656 514.74579,95.37556 537.44879,86.532565 560.37879,78.195565 583.63479,70.914565 589.69379,69.017565 595.80079,67.276565 601.90879,65.549565 604.63079,64.779565 607.36079,64.045565 610.09479,63.318565 611.59979,62.918565 613.56579,61.986565 615.13379,61.986565 L 2079.9638,61.986565 C 2079.9798,61.986565 2079.9958,61.986565 2080.0118,61.986565 2079.8448,61.986565 2079.6788,61.986565 2079.5118,61.986565 2102.8268,68.191565 2125.8778,75.323565 2148.5448,83.611565 2171.6378,92.054565 2194.6158,100.87956 2217.2348,110.52956 2240.5208,120.46556 2263.4848,130.95256 2285.8828,142.76456 2306.9808,153.89056 2327.8178,165.78556 2347.8608,178.72156 2368.9418,192.32656 2389.7498,206.29256 2410.2218,220.80056 2429.7368,234.62956 2448.9938,248.98756 2467.6208,263.99256 2486.8818,279.50856 2506.0408,295.30556 2524.0538,312.27356 2541.8708,329.05756 2558.7508,346.67256 2574.9408,365.03656 2591.2478,383.53256 2607.1478,402.30656 2621.4508,422.41856 2635.3488,441.96256 2648.4468,462.42756 2659.5898,483.67756 2671.1238,505.67356 2681.1048,528.35656 2688.6188,552.05056 2692.2518,563.50656 2695.3368,575.14756 2698.5608,586.72256 2701.7738,598.25356 2704.9238,609.81956 2707.4578,621.52456 2712.6258,645.40556 2716.6718,669.47856 2719.1178,693.79656 2721.5718,718.19256 2723.1798,742.56356 2722.9808,767.09056 2722.7908,790.65456 2720.6908,814.43756 2717.7688,837.81156 2714.7368,862.07056 2710.5198,886.16156 2704.6398,909.90056 2701.6808,921.84356 2698.3948,933.69556 2695.0378,945.53154 2691.7468,957.13466 2688.5558,968.83466 2684.3988,980.16156 2676.0918,1002.8036 2666.1688,1024.8836 2654.1338,1045.8046 2641.9958,1066.9066 2628.8498,1087.4866 2614.2378,1106.9696 2599.1658,1127.0666 2582.6678,1145.9446 2565.8948,1164.6296 2549.8298,1182.5266 2532.8918,1199.7316 2514.8648,1215.6616 2496.0788,1232.2646 2476.8978,1248.3126 2457.1558,1263.7656 2438.2988,1278.5276 2418.9668,1292.7306 2399.3188,1306.4206 2378.7018,1320.7866 2357.7538,1334.6106 2336.4758,1347.9776 2326.4088,1354.3016 2316.0058,1360.1326 2305.6418,1365.9516 2295.0348,1371.9086 2284.3858,1378.0166 2273.4448,1383.3436 2250.7338,1394.3986 2227.7768,1404.7266 2204.3888,1414.2665 2181.7848,1423.4875 2159.0678,1432.2695 2136.0228,1440.3345 2117.4118,1446.8465 2098.5568,1452.4975 2079.5058,1457.5605" id="ocean"/>
  <g class="landxx coastxx sau" id="sa" transform="translate(-29.9017,-45.0745)">
    <title>Saudi Arabia</title>
    <path class="landxx sau" d="M 1624.548,662.653 C 1624.645,661.745 1624.091,659.593 1623.274,659.073 1622.858,658.808 1620.843,654.574 1620.959,656.617 1620.772,652.958 1618.236,652.017 1616.218,649.54 1615.454,648.602 1614.376,647.248 1614.018,646.101 1613.555,644.621 1612.72,644.199 1611.962,642.996 1611.518,642.29 1611.896,641.674 1611.384,640.949 1611.019,640.434 1610.409,638.795 1610.168,638.134 1609.942,637.515 1609.805,636.861 1609.515,636.266 1609.248,635.719 1608.691,635.642 1608.423,635.161 1608.167,634.699 1608.413,634.069 1608.064,633.664 1607.705,633.255 1607.119,633.198 1606.73,632.836 1605.753,631.927 1604.622,631.008 1603.759,629.995 1602.712,628.765 1601.485,629.28 1600.304,628.41 1598.345,626.964 1597.042,624.279 1595.811,622.223 1595.094,621.026 1595.3,620.341 1595.24,619.078 1595.174,617.71 1594.184,616.578 1594.082,615.195 1593.948,613.38 1594.699,611.575 1594.338,609.767 1594.173,608.943 1593.723,608.246 1593.281,607.551 1593.049,607.185 1591.642,605.37 1593.23,606.611 1592.881,605.699 1592.088,605.689 1591.882,604.69 1591.697,603.797 1591.259,602.82 1590.91,601.977 1589.944,599.642 1588.059,598.051 1586.292,596.371 1585.003,595.147 1583.726,594.954 1582.154,594.524 1581.484,594.341 1581.164,593.066 1580.967,592.522 1580.545,591.356 1579.729,590.556 1578.998,589.584 1581.528,588.662 1578.004,584.509 1577.178,583.504 1576.621,582.829 1575.058,581.599 1575.125,580.708 1575.242,579.173 1573.265,578.286 1572.6,576.905 1570.584,572.715 1567.402,569.234 1565.168,565.123 1564.487,563.871 1563.727,561.94 1562.226,561.517 1561.544,561.325 1558.862,560.879 1558.809,562.138 1557.912,561.318 1559.362,559.163 1559.614,558.302 1560.142,556.497 1559.72,554.61929 1560.015,552.797 1560.3887,550.48848 1560.029,551.9254 1560.3535,550.54963 1562.0765,551.0622 1566.817,552.33479 1568.536,551.96 1571.951,551.21544 1571.897,546.25 1575.106,545.744 1576.309,545.554 1579.2619,545.85807 1579.133,544.236 1578.8389,540.53658 1580.4483,541.64719 1582.6876,540.89194 1579.765,538.09245 1576.9846,535.17277 1574.3111,532.13794 1579.5036,531.05316 1582.9504,529.88325 1589.0711,526.61336 1591.6638,527.11059 1596.2881,527.39321 1599.1306,528.70914 1608.682,533.13084 1616.549,539.891 1624.84,546.2 1626.596,547.537 1628.305,548.864 1629.944,550.337 1631.811,552.014 1633.1087,551.93027 1635.5687,552.16827 1638.4047,552.44227 1641.393,552.843 1644.23,553.105 1645.271,553.202 1645.785,552.671 1646.915,552.915 1648.442,553.244 1650.026,553.43 1651.581,553.571 1653.229,553.719 1653.359,555.635 1653.885,556.848 1654.664,558.65 1657.289,557.512 1658.779,557.643 1660.32,557.779 1660.521,558.614 1661.025,559.875 1661.57,561.24 1664.28,562.979 1663.859,564.51 1663.72,564.269 1663.55,564.053 1663.348,563.863 1662.887,564.96 1663.993,564.835 1663.859,565.803 1663.878,565.818 1668.491,566.245 1666.729,567.6 1667.405,567.814 1668.84,571.275 1669.529,569.325 1669.069,571.061 1673.235,573.011 1674.199,574.066 1673.685,573.912 1673.302,573.6 1673.049,573.132 1673.073,575.046 1674.233,575.074 1674.645,576.61 1674.886,577.51 1674.79,579.409 1673.48,578.234 1673.599,579.255 1673.269,579.458 1674.197,579.646 1674.34,579.674 1675.556,582.311 1675.64,582.617 1675.37,582.384 1675.107,582.144 1674.849,581.898 1675.646,583.067 1677.069,583.724 1677.699,585.018 1678.338,586.326 1678.532,587.526 1679.3,588.797 1679.89,589.775 1680.743,591.451 1681.965,591.751 1682.524,591.888 1684.552,591.358 1684.26,592.461 1684.474,591.901 1684.959,591.696 1685.481,592.029 1684.798,592.863 1684.1808,595.13714 1686.4878,594.54814 1686.3358,594.58714 1687.668,597.18459 1687.796,597.36759 1690.4559,600.38582 1694.0439,605.69524 1695.4539,606.26755 1704.2175,607.24656 1708.2698,607.72271 1713.0378,608.78434 1713.6593,608.63552 1714.2039,608.26213 1714.4029,607.85982 1715.467,610.31957 1717.884,611.60687 1718.2902,613.20382 1718.6572,614.64673 1718.5549,615.60485 1718.1767,617.08865 1716.9105,622.05712 1716.2131,631.00532 1714.378,631.99405 1701.8839,638.72558 1686.2472,641.0812 1671.399,643.541 1669.473,644.223 1667.6204,645.09378 1665.8625,646.11109 1663.2191,647.64081 1660.6488,652.23604 1659.7912,654.97914 1659.3949,656.2468 1657.9032,657.63486 1656.5082,657.64086 1655.0502,657.64686 1654.7807,655.27666 1653.5925,654.87681 1652.2423,654.42243 1651.2454,655.11243 1650.0813,654.96991 1648.2762,654.74896 1645.8635,655.03261 1644.241,654.19778 1642.292,653.19492 1640.8559,653.65516 1638.6969,653.65942 1636.8059,653.66342 1634.8091,654.8209 1632.9264,654.79696 1630.5887,654.76726 1630.247,652.9881 1629.0304,653.30796 1627.3999,653.73664 1626.9674,655.87715 1626.8766,657.23023 1626.7866,658.5654 1628.4577,659.34174 1627.0426,660.30623 1626.7712,660.49125 1626.4881,662.38268 1624.4535,663.0555 1624.4405,662.8765 1624.558,662.82796 1624.5475,662.65296" id="path3380"/>
    </g>
  <g class="landxx coastxx irn" id="ir" transform="translate(-29.9017,-45.0745)">
    <title>Iran, Islamic Republic of</title>
    <path class="landxx irn" d="M 1617.268,464.04 C 1619.2613,463.36074 1619.9745,464.83238 1619.9318,461.685 1619.9128,460.31952 1621.1097,460.82725 1621.972,461.461 1622.8201,462.08434 1623.285,463.077 1624.058,463.78 1624.805,464.459 1625.658,465.008 1626.403,465.688 1627.929,467.08 1628.593,467.854 1630.788,468.193 1632.148,468.403 1634.079,468.549 1635.408,468.155 1636.141,467.938 1638.612,465.796 1638.864,465.109 1639.155,464.317 1640.247,464.146 1640.847,463.631 1641.542,463.034 1642.145,462.323 1642.904,461.8 1644.886,460.435 1646.659,462.516 1647.869,463.967 1645.225,464.962 1648.807,467.185 1647.331,467.52 1644.591,468.142 1647.433,469.752 1648.602,470.48 1649.426,470.993 1650.163,471.785 1651.047,472.191 1651.404,472.354 1652.482,472.144 1652.592,472.368 1653.691,474.601 1653.529,478.281 1656.001,479.577 1658.103,480.681 1660.603,480.162 1662.728,481.071 1664.109,481.663 1664.573,483.204 1665.689,484.097 1666.91,485.075 1668.759,485.765 1670.188,486.401 1672.875,487.597 1676.48,488.43 1679.363,487.565 1682.828,486.527 1687.178,484.849 1690.849,485.421 1690.109,485.699 1689.317,485.614 1688.549,485.709 1689.078,486.104 1691.146,486.878 1691.44,485.802 1691.697,484.86 1690.2279,482.27069 1689.9449,481.30769 1691.6569,481.64637 1692.9529,481.61624 1694.5699,480.93325 1696.414,480.15437 1695.1478,479.47687 1695.9798,478.19687 1696.8068,476.92487 1698.7449,475.66587 1700.1359,475.14087 1702.1599,474.37587 1704.1159,475.54987 1706.1449,475.10787 1705.4469,473.96187 1706.9742,473.84914 1707.855,473.774 1708.9657,473.6792 1710.2418,474.08601 1711.3255,473.97487 1712.8761,473.81587 1712.8893,474.01697 1713.6473,475.42094 1714.3693,476.75694 1716.3838,476.72681 1717.7268,476.96981 1719.2238,477.23881 1720.262,478.742 1721.839,478.867 1723.596,479.006 1724.99,478.715 1726.704,479.354 1728.393,479.984 1728.9383,480.667 1729.8593,482.089 1730.7973,483.537 1732.9222,483.33187 1734.2462,484.22587 1735.4212,485.01887 1735.8061,486.4832 1737.0057,487.21169 1738.3643,488.03665 1741.8026,486.45036 1742.8501,487.582 1743.7267,488.5289 1743.9159,491.16666 1744.0971,492.18831 1744.3027,493.34772 1743.363,492.923 1744.276,493.712 1744.84,494.2 1745.365,496.269 1745.452,497.001 1745.59,498.154 1744.544,498.946 1744.754,500.176 1745.039,501.851 1745.618,505.442 1743.121,505.726 1743.345,506.041 1744.204,506.747 1744.131,507.166 1744.013,507.836 1742.484,508.04 1742.195,508.911 1741.677,510.474 1742.583,514.15 1744.488,514.279 1746.933,514.445 1744.7199,516.37499 1744.3475,517.603 1743.8043,519.39394 1746.3705,523.40851 1746.8773,525.42091 1747.4546,527.7133 1747.2633,529.9375 1748.8345,531.6845 1750.0876,533.07772 1752.821,532.348 1754.453,533.165 1756.158,534.02 1756.0493,536.652 1755.6163,538.101 1755.1713,539.591 1753.8016,540.82494 1753.0497,542.16214 1752.4257,543.27203 1750.8501,545.79127 1750.2211,546.23673 1751.0135,547.03673 1751.6595,547.65748 1752.0382,547.99514 1755.6483,551.21431 1756.8984,555.90408 1759.803,557.497 1760.6826,557.97936 1761.5715,558.27473 1762.4835,558.71973 1763.3385,559.13773 1764.379,559.88377 1765.348,559.94677 1766.697,560.03377 1767.1539,564.69724 1767.2095,565.8939 1767.4038,570.08186 1768.1675,568.93749 1770.5717,568.95968 1771.7151,568.97018 1771.0649,571.96005 1770.9839,573.14205 1770.8199,575.53105 1763.13,573.34 1764.36,576.573 1763.637,576.411 1762.3475,576.88371 1761.9556,577.43346 1760.635,579.28582 1760.8109,582.36288 1760.6816,584.80946 1760.6456,585.48492 1760.875,586.942 1759.68,586.508 1760.236,588.393 1756.126,586.709 1755.476,586.507 1754.747,586.28 1753.072,586.434 1752.879,585.417 1752.611,584.013 1750.979,584.851 1751.691,585.5 1751.368,585.561 1747.709,585.452 1747.404,585.207 1746.231,584.269 1743.963,584.408 1742.653,584.811 1741.548,585.152 1740.748,584.54 1739.895,583.933 1738.756,583.123 1737.815,583.616 1736.583,583.284 1735.602,583.019 1734.748,583.822 1733.76,583.412 1732.852,583.035 1732.63,581.746 1731.6,582.908 1731.871,581.502 1728.859,581.904 1728.021,581.12 1726.261,579.473 1725.742,575.82 1725.34,573.557 1724.836,570.711 1722.268,569.143 1719.473,569.357 1718.199,569.455 1717.29,570.52 1716.099,570.865 1715.106,571.153 1713.839,571.349 1714.412,572.503 1714.779,573.242 1712.196,572.912 1712.022,572.954 1710.736,573.265 1710.24,574.602 1709.14,575.15 1707.287,576.074 1705.596,573.548 1703.804,573.548 1701.601,573.548 1700.367,573.979 1699.003,571.954 1698.321,570.943 1696.803,570.616 1695.773,570.046 1694.429,569.304 1693.121,568.494 1691.719,567.86 1693.071,566.576 1689.767,565.382 1688.999,565.032 1688.302,564.713 1687.678,564.092 1686.939,563.914 1685.901,563.664 1684.508,564.075 1683.641,563.422 1681.724,561.979 1681.257,560.662 1679.989,558.654 1679.389,557.705 1679.796,556.405 1678.844,555.638 1678.195,555.115 1677.17,554.826 1677.168,553.819 1678.352,553.934 1678.18,552.894 1677.3,552.698 1676.713,552.567 1675.241,552.682 1675.838,551.634 1676.61,550.279 1674.344,548.798 1673.638,548.087 1672.448,546.889 1671.582,545.613 1670.979,544.05 1669.945,541.373 1667.855,546.058 1666.719,544.457 1665.956,543.384 1664.809,544.147 1664.302,543.133 1664.059,542.648 1662.577,542.388 1662.118,541.651 1662.865,541.602 1663.609,541.894 1664.347,541.651 1664.103,540.653 1662.934,540.383 1662.118,540.859 1662.306,541.081 1662.499,541.297 1662.698,541.506 1660.557,541.226 1664.048,546.133 1660.318,544.603 1660.574,545.352 1659.927,545.548 1659.353,545.295 1658.547,544.941 1658.512,544.01 1658.226,543.292 1657.637,541.81 1655.551,541.688 1655.304,539.854 1655.148,538.688 1655.68,536.367 1654.028,536.418 1651.429,536.499 1652.239,532.938 1652.591,531.172 1653.061,528.825 1651.9,528.394 1650.528,526.745 1649.133,525.068 1649.399,524.102 1647.134,523.673 1645.406,523.346 1644.267,521.497 1642.898,520.553 1642.151,520.038 1641.277,519.39 1640.321,519.47 1638.72,519.602 1639.678,518.7 1638.508,518.249 1641.071,517.467 1636.026,513.478 1635.21,512.783 1634.613,512.274 1634.09,511.667 1633.507,511.14 1632.642,510.359 1633.436,510.178 1633.793,509.201 1634.119,508.311 1633.942,507.877 1633.213,507.307 1632.487,506.74 1633.059,505.9 1633.178,505.216 1633.641,505.501 1634.145,505.645 1634.689,505.649 1634.57,505.011 1634.256,504.418 1634.188,503.769 1634.068,502.646 1635.311,502.828 1635.399,501.996 1635.527,500.782 1635.574,501.126 1636.593,501.132 1637.552,501.137 1637.442,500.266 1637.12,499.715 1636.582,498.789 1635.28,497.902 1635.61,496.672 1635.894,495.61 1637.514,495.882 1637.788,494.706 1637.093,494.908 1636.592,494.385 1635.913,494.454 1635.087,494.538 1634.193,494.936 1633.389,494.49 1632.172,493.816 1631.975,492.83 1630.368,493.194 1631.468,490.656 1627.357,489.923 1627.523,488.226 1627.62,487.237 1627.543,486.887 1626.606,486.493 1626.365,486.391 1624.9056,483.19814 1625.0068,482.772 1625.3706,481.241 1624.3474,481.85162 1623.597,480.809 1622.8541,479.77684 1623.2184,478.05105 1622.378,477.69 1621.9375,477.50076 1620.2359,476.96781 1620.3019,476.28281 1620.4009,475.25781 1620.881,473.84 1621.658,473.106 1619.5033,472.66258 1620.4923,469.81964 1619.5287,468.72694 1618.9894,468.11537 1619.1704,467.56884 1618.8262,466.85375 1618.6356,466.45778 1617.7786,464.84978 1617.268,464.04" id="path4606"/>
  </g>
  <g id="bh">
    <title>Bahrain</title>
    <path class="world_map-is_selected landxx coastxx bhr" d="M 1646.9073,533.08555 C 1647.1363,533.56455 1647.2333,534.06755 1647.1963,534.59755 1647.0623,535.28855 1647.9003,535.78555 1648.0563,536.39755 1648.3523,535.63755 1648.3873,531.50555 1646.9073,533.08555" id="bh-"/>
    </g>
  </svg>