<svg xmlns="http://www.w3.org/2000/svg" class="world_map zoom6 zoom5 zoom4 zoom3 zoom2" height="127" id="svg2985" version="1.1" viewBox="2133 706 26 27" width="127">
  <title>World Map</title>
  <defs id="defs2987"/>
  <style id="style_css_sheet" type="text/css">
/*
 * Below are Cascading Style Sheet (CSS) definitions in use in this file,
 * which allow easily changing how countries are displayed.
 *
 */
/* --- Custom styles for Peace Corps --- */
.world_map .world_map-is_selected.circlexx {
  opacity:1;
}
.world_map .world_map-is_selected.landxx {
  fill: #C94112 !important;
}
.world_map .landxx {
  fill: #F2EFE8;
  stroke: #ffffff;
  fill-rule: evenodd;
}
.world_map.zoom6 .landxx {
  stroke-width: 0.1px;
}
.world_map.zoom5 .landxx {
  stroke-width: 1px;
}
.world_map.zoom4 .landxx {
  stroke-width: 2px;
}
.world_map.zoom3 .landxx {
  stroke-width: 3px;
}
.world_map.zoom2 .landxx {
  stroke-width: 4px;
}
.world_map.zoom1 .landxx {
  stroke-width: 5px;
}
.world_map .coastxx {
  fill: #F2EFE8;
  stroke: #ffffff;
  stroke-width: 2px;
  fill-rule: evenodd;
}
.world_map .oceanxx {
  opacity: 1;
  color: #ccc;
  fill: #ffffff;
  stroke: #ffffff;
  stroke-width: 0.5;
  stroke-miterlimit: 1;
}

/* --- Original Styles --- *
/*
 * Circles around small countries
 *
 * Change opacity to 1 to display all circles.
 *
 */
.circlexx
{
   opacity:0;
   fill-opacity:0;
   fill:#e0e0e0;
   stroke:#000000;
   stroke-width:0.5;
}

/*
 * Smaller circles around French DOMs and Chinese SARs
 *
 * Change opacity to 1 to display all subnational circles.
 *
 */
.subxx
{
   opacity:0;
   stroke-width:0.3;
}

/*
 * Circles around small, unrecognized countries
 *
 * Change opacity to 1 to display all circles.
 *
 */
.unxx
{
   opacity:0;
   fill:#e0e0e0;
   stroke:#000000;
   stroke-width:0.3;
}

/*
 * Circles around small countries, but with no permanent residents 
 *
 * Change opacity to 1 to display all circles.
 *
 */
.noxx
{
   opacity:0;
   fill:#e0e0e0;
   stroke:#000000;
   stroke-width:0.5;
}

/*
 * land
 */
.landxx
{
}
/*
 * Styles for coastlines of islands with no borders
 */


/*
 * Styles for nations with limited recognition
 */
.limitxx
{
   fill: #e0e0e0;
   stroke:#ffffff;
   stroke-width:0;
   fill-rule:evenodd;
}

/*
 * Styles for nations with no permanent population.
 */
.antxx
{
   fill: #e0e0e0;
   stroke:#ffffff;
   stroke-width:0;
   fill-rule:evenodd;
}

/*
 * Ocean
 */


/*
 * Additional style rules
 *
 * The following are examples of colouring countries.  You can substitute these with your own styles to colour the countries on the map.
 *
 * Color a few countries:
 *
 * .gb, .au, .nc
 * {
 *    fill:       #ff0000;
 * }
 *
 * Color a few small country circles (and the countries):
 *
 * .ms, .ky
 * {
 *    opacity:    1;
 *    fill:       #ff0000;
 * }
 *
 */

</style>
  <path class="oceanxx" d="M 2079.5058,1457.5605 615.24779,1457.5605 C 615.13079,1457.5605 615.07079,1457.5505 614.95179,1457.5215 611.67679,1456.6515 608.40179,1455.7815 605.12779,1454.9105 599.15079,1453.3225 593.22879,1451.5225 587.30779,1449.7385 564.39379,1442.8315 541.76579,1434.6995 519.46979,1426.0115 495.81079,1416.7935 472.34979,1407.0946 449.19179,1396.6816 426.78379,1386.6056 405.17679,1375.0536 383.76379,1363.0356 363.11779,1351.4496 343.01079,1338.8296 323.37979,1325.5996 302.29179,1311.3876 281.47879,1296.8506 261.05379,1281.7006 242.35079,1267.8276 223.73679,1253.6306 206.05279,1238.4686 186.98679,1222.1216 167.82379,1205.7706 150.35279,1187.6906 132.97779,1169.7106 116.33279,1151.0606 100.15679,1131.9976 84.352777,1113.3736 70.086776,1093.4716 56.901786,1072.9246 44.046786,1052.8916 32.093776,1032.1356 22.469776,1010.3426 17.516776,999.12753 12.408776,987.76556 8.7017761,976.06056 5.0657761,964.58166 1.5997761,953.04259 -1.5932239,941.43054 -8.0102239,918.09356 -14.055224,894.78356 -18.234224,870.92056 -22.491222,846.60856 -24.894222,822.19856 -26.943222,797.62156 -28.947222,773.58556 -28.829222,749.40156 -27.225222,725.34856 -25.648222,701.69856 -23.363222,677.92456 -19.274222,654.56456 -15.018224,630.25156 -9.3842239,606.45156 -2.8412239,582.66156 3.5687761,559.35256 10.483776,536.34856 20.265776,514.19856 30.320776,491.42956 42.318786,469.90956 55.502786,448.81656 68.512776,428.00356 83.108777,408.26756 98.686787,389.31756 113.73479,371.01156 129.68979,353.25256 146.15179,336.20856 163.77479,317.96256 182.64579,301.14556 201.89579,284.64756 220.33379,268.84456 239.55379,253.98456 258.95979,239.39656 278.42779,224.76056 298.39379,210.83356 318.55579,197.17556 339.26979,183.14456 360.47879,169.92056 382.15079,157.42556 403.46579,145.13656 425.31479,133.98856 447.60479,123.59356 469.58579,113.34356 492.14979,104.17656 514.74579,95.37556 537.44879,86.532565 560.37879,78.195565 583.63479,70.914565 589.69379,69.017565 595.80079,67.276565 601.90879,65.549565 604.63079,64.779565 607.36079,64.045565 610.09479,63.318565 611.59979,62.918565 613.56579,61.986565 615.13379,61.986565 L 2079.9638,61.986565 C 2079.9798,61.986565 2079.9958,61.986565 2080.0118,61.986565 2079.8448,61.986565 2079.6788,61.986565 2079.5118,61.986565 2102.8268,68.191565 2125.8778,75.323565 2148.5448,83.611565 2171.6378,92.054565 2194.6158,100.87956 2217.2348,110.52956 2240.5208,120.46556 2263.4848,130.95256 2285.8828,142.76456 2306.9808,153.89056 2327.8178,165.78556 2347.8608,178.72156 2368.9418,192.32656 2389.7498,206.29256 2410.2218,220.80056 2429.7368,234.62956 2448.9938,248.98756 2467.6208,263.99256 2486.8818,279.50856 2506.0408,295.30556 2524.0538,312.27356 2541.8708,329.05756 2558.7508,346.67256 2574.9408,365.03656 2591.2478,383.53256 2607.1478,402.30656 2621.4508,422.41856 2635.3488,441.96256 2648.4468,462.42756 2659.5898,483.67756 2671.1238,505.67356 2681.1048,528.35656 2688.6188,552.05056 2692.2518,563.50656 2695.3368,575.14756 2698.5608,586.72256 2701.7738,598.25356 2704.9238,609.81956 2707.4578,621.52456 2712.6258,645.40556 2716.6718,669.47856 2719.1178,693.79656 2721.5718,718.19256 2723.1798,742.56356 2722.9808,767.09056 2722.7908,790.65456 2720.6908,814.43756 2717.7688,837.81156 2714.7368,862.07056 2710.5198,886.16156 2704.6398,909.90056 2701.6808,921.84356 2698.3948,933.69556 2695.0378,945.53154 2691.7468,957.13466 2688.5558,968.83466 2684.3988,980.16156 2676.0918,1002.8036 2666.1688,1024.8836 2654.1338,1045.8046 2641.9958,1066.9066 2628.8498,1087.4866 2614.2378,1106.9696 2599.1658,1127.0666 2582.6678,1145.9446 2565.8948,1164.6296 2549.8298,1182.5266 2532.8918,1199.7316 2514.8648,1215.6616 2496.0788,1232.2646 2476.8978,1248.3126 2457.1558,1263.7656 2438.2988,1278.5276 2418.9668,1292.7306 2399.3188,1306.4206 2378.7018,1320.7866 2357.7538,1334.6106 2336.4758,1347.9776 2326.4088,1354.3016 2316.0058,1360.1326 2305.6418,1365.9516 2295.0348,1371.9086 2284.3858,1378.0166 2273.4448,1383.3436 2250.7338,1394.3986 2227.7768,1404.7266 2204.3888,1414.2665 2181.7848,1423.4875 2159.0678,1432.2695 2136.0228,1440.3345 2117.4118,1446.8465 2098.5568,1452.4975 2079.5058,1457.5605" id="ocean"/>
  <g class="landxx coastxx idn" id="id" transform="translate(-29.9017,-45.0745)">
    <title>Indonesia</title>
    <path class="landxx idn" d="M 2132.639,797.113 C 2133.573,796.487 2132.938,795.831 2133.138,794.988 2133.399,793.893 2134.988,793.822 2135.159,792.575 2134.828,793.119 2134.422,793.598 2133.939,794.014 2133.061,792.722 2134.149,791.449 2134.977,790.492 2135.517,789.869 2135.678,789.284 2135.959,788.533 2136.323,787.56 2137.569,787.334 2138.258,786.671 2138.126,787.561 2136.95,788.652 2138.292,789.188 2138.483,789.265 2138.964,791.367 2139.341,791.778 2140.444,792.98 2142.424,793.921 2143.132,795.455 2143.406,796.048 2144.629,796.562 2145.217,796.867 2146.319,797.437 2147.872,796.31 2148.823,795.887 2150.713,795.044 2152.511,796.158 2154.524,795.962 2155.329,795.883 2156.06,795.265 2156.77,794.886 2157.832,794.319 2157.531,792.933 2158.335,792.058 2159.173,791.146 2163.429,790.222 2164.087,791.617 2164.714,792.944 2168.599,794.21 2169.841,793.444 2170.914,792.782 2171.145,791.727 2172.601,792.228 2173.317,792.475 2173.886,791.888 2174.501,791.643 2175.01,791.438 2175.605,792.099 2176.127,792.073 2175.846,790.687 2178.787,787.669 2177.979,786.774 2176.585,785.23 2179.711,783.26 2180.877,782.857 2180.193,782.012 2178.908,778.902 2181.039,778.646 2183.716,778.323 2181.711,776.666 2183.243,775.199 2183.834,774.634 2183.072,772.322 2183.163,771.349 2183.247,770.449 2183.479,769.309 2183.884,768.498 2184.234,767.8 2184.95,767.467 2185.127,766.656 2186.543,767.183 2186.896,767.464 2188.405,766.815 2188.919,766.594 2190.183,768.499 2190.307,766.511 2191.285,767.455 2193.132,767.218 2194.352,767.106 2195.915,766.963 2196.867,768.662 2198.376,768.528 2197.922,768.849 2197.419,769.041 2196.866,769.103 2197.138,769.34 2199.847,771.595 2198.016,770.688 2198.388,770.95 2199.349,771.125 2199.537,771.561 2199.725,771.998 2199.713,772.433 2200.246,772.631 2199.383,773.738 2197.975,773.046 2197.586,771.911 2197.764,772.4 2197.834,772.904 2197.796,773.423 2197.019,772.941 2195.658,772.99 2194.846,773.351 2195.875,773.749 2196.407,774.805 2197.517,775.08 2197.234,775.646 2197.104,776.895 2196.147,776.448 2196.852,777.365 2197.903,777.748 2198.957,778.103 2198.081,779.103 2199.776,779.201 2198.377,779.399 2198.86,779.418 2199.317,779.538 2199.747,779.759 2198.319,780.149 2200.111,780.962 2200.655,781.63 2201.276,782.395 2201.826,783.23 2202.337,784.072 2202.98,785.131 2201.626,787.214 2200.387,787.175 2201.195,787.459 2200.799,788.264 2201.429,788.787 2202.336,789.54 2203.242,790.317 2204.187,791.022 2204.949,791.59 2205.398,792.562 2206.288,792.882 2207.48,793.311 2208.318,794.525 2209.108,795.455 2209.441,795.847 2210.308,795.539 2209.703,796.486 2208.955,797.656 2207.735,797.075 2206.703,797.598 2204.991,798.464 2202.968,796.079 2201.618,795.532 2202.241,796.444 2202.732,797.595 2201.274,797.678 2199.95,797.752 2199.531,799.771 2199.194,800.763 2198.293,803.413 2197.86,806.449 2198.018,809.212 2198.399,808.774 2198.878,808.534 2199.457,808.492 2199.272,809.086 2198.319,809.796 2199.027,810.072 2198.345,810.494 2198.345,811.089 2199.027,811.511 2198.091,811.775 2197.051,812.893 2196.797,811.581 2196.508,813.438 2193.054,817.355 2192.547,813.601 2191.823,814.914 2193.051,815.942 2191.57,816.971 2190.887,817.445 2191.224,818.184 2190.747,818.782 2190.192,819.476 2189.166,819.453 2188.657,820.221 2190.921,819.362 2190.17,822.511 2189.087,823.322 2189.646,823.871 2190.791,823.11 2191.261,823.678 2191.717,824.231 2190.798,826.368 2190.457,826.851 2190.061,826.385 2189.582,826.266 2189.017,826.492 2190.434,827.718 2188.579,831.645 2187.578,829.652 2187.308,830.527 2188.041,831.28 2188.517,831.891 2186.537,832.254 2187.146,835.265 2185.479,835.939 2183.651,836.679 2181.806,837.909 2179.948,838.731 2179.459,838.947 2175.601,841.56 2175.764,840.087 2175.863,839.193 2175.754,838.212 2175.798,837.3 2175.857,836 2175.017,834.923 2175.337,833.611 2173.875,835.044 2172.875,834.504 2173.898,832.531 2173.235,833.653 2171.766,834.375 2172.097,832.39 2171.943,833.443 2169.163,835.89 2168.353,834.267 2168.073,833.706 2168.848,833.275 2168.311,832.685 2167.324,831.602 2166.272,833.564 2165.978,832.1 2166.303,833.766 2164.162,830.801 2163.957,830.08 2163.97,831.588 2162.346,833.267 2161.065,833.922 2159.732,834.604 2158.565,832.685 2157.272,833.618 2156.803,833.956 2154.987,836.565 2154.635,834.871 2154.207,832.809 2154.905,830.967 2153.807,828.93 2152.944,831.163 2152.644,830.123 2150.993,830.077 2150.298,830.058 2149.729,830.659 2149.191,830.999 2148.168,831.647 2147.498,831.068 2146.466,830.88 2146.8,830.516 2147.16,830.179 2147.546,829.87 2146.711,829.996 2146.438,831.078 2145.526,830.95 2145.908,828.759 2143.7,829.973 2142.796,830.66 2141.746,829.35 2142.585,827.178 2142.123,825.667 2141.81,824.64 2142.001,823.554 2141.812,822.51 2141.653,821.629 2140.275,820.921 2140.366,820.15 2140.387,819.969 2141.145,819.036 2141.236,818.767 2141.558,817.805 2141.734,816.971 2141.143,816.084 2140.739,815.478 2140.654,814.825 2140.31,814.243 2139.891,813.535 2138.995,813.273 2139.045,812.3 2138.839,812.55 2138.622,812.789 2138.396,813.02 2137.633,811.547 2136.822,812.902 2135.78,812.272 2135.19,811.916 2135.564,811.258 2135.824,810.855 2136.086,810.449 2137.053,810.917 2137.387,810.93 2136.824,810.616 2136.489,809.852 2135.866,809.696 2135.403,809.579 2134.805,809.666 2134.503,809.201 2134.078,808.549 2133.828,805.892 2135.156,806.69 2134.811,805.762 2134.238,804.639 2135.376,804.531 2134.415,803.262 2133.14,802.159 2132.799,800.546 2132.657,799.872 2132.032,797.685 2132.639,797.113" id="path2554"/>
    </g>
  <g class="landxx coastxx mys" id="my">
    <title>Malaysia</title>
    <path d="M 2149.4663,713.87753 C 2150.1993,714.14353 2150.2953,713.90253 2149.7563,713.15653 2149.6603,713.39753 2149.5633,713.63753 2149.4663,713.87753" id="path4710"/>
    <path class="landxx mys" d="M 2108.3563,741.59753 C 2108.1113,744.16253 2113.7063,746.34753 2113.6163,743.97353 2113.6433,744.64353 2114.6333,744.71753 2114.5663,744.99453 2114.3653,745.84153 2115.9823,746.20753 2116.5793,746.42753 2117.5003,746.76653 2118.0503,746.01953 2118.8393,746.92253 2119.5583,747.74653 2120.6493,747.83753 2121.6773,747.93353 2120.9613,746.95053 2119.4273,747.80953 2119.0493,746.33953 2118.8053,745.38653 2119.5473,744.58753 2120.3773,745.41453 2119.5813,744.91553 2119.5303,744.13753 2119.7963,743.31753 2119.9633,742.92253 2120.0893,742.51553 2120.1753,742.09553 2120.3883,741.09053 2120.9163,741.48253 2121.5273,740.87753 2121.0243,740.93053 2120.5213,740.97853 2120.0173,741.02153 2120.7113,740.35753 2120.0333,739.57053 2120.2383,738.79053 2120.9883,738.79653 2121.6533,739.18353 2122.3973,739.22253 2119.7903,737.26653 2123.7103,734.94053 2125.3223,734.68453 2127.8743,734.27953 2131.5513,733.74553 2133.7043,732.22853 2135.5643,730.91853 2135.6243,728.22653 2137.2743,726.74153 2139.3883,724.83953 2140.6003,722.64753 2140.7573,719.78253 2142.8481,719.82753 2142.7228,720.54747 2143.1348,721.75647 2143.3865,722.49478 2145.4145,724.30397 2146.1655,724.51353 2147.1507,724.78846 2147.2307,721.2789 2146.9705,720.4549 2146.2847,718.28378 2147.4832,718.2044 2148.4812,717.1004 2148.8292,718.9244 2148.4962,721.56053 2150.8373,722.08653 2150.684,720.63297 2150.6898,718.96079 2149.8823,717.86853 2148.6551,716.20848 2150.7139,717.23147 2151.2743,716.78453 2151.7916,716.37194 2153.5863,714.98853 2152.1583,714.43353 2150.0023,713.59553 2152.1103,711.99453 2152.7773,711.06953 2152.5993,712.89053 2154.8493,710.91353 2155.2473,710.13553 2155.8543,708.94753 2156.0473,707.60053 2156.6043,706.39153 2156.9213,705.70253 2157.3173,706.03653 2157.6773,705.59753 2158.1143,705.06653 2158.4833,704.16453 2158.9453,703.54453 2159.9563,702.18953 2159.8403,700.22053 2161.1373,698.97353 2162.1453,700.15953 2160.9363,701.38253 2161.4173,702.64553 2162.2413,702.12153 2163.0023,698.96653 2164.0213,699.15253 2164.0903,699.16553 2166.5383,704.75253 2166.8963,702.21453 2167.0243,703.25753 2168.9593,703.71553 2168.8183,704.96753 2168.7253,705.79453 2167.5733,705.49053 2167.8703,706.62053 2168.2183,707.94253 2168.0483,708.28053 2166.7473,708.76653 2167.5593,708.30053 2168.4293,708.81953 2169.1733,708.39453 2169.7813,708.04753 2170.1103,707.17453 2170.9683,707.53553 2172.5913,708.21753 2171.0733,709.34153 2170.2773,709.63053 2170.4423,711.18953 2171.9473,709.69553 2172.5423,709.31753 2173.8193,708.50553 2175.3313,710.39353 2175.4583,711.50253 2176.3393,710.56853 2177.8383,712.22153 2178.1973,712.94153 2178.9053,711.97353 2180.9093,712.72353 2180.9373,713.87353 2180.9793,715.53453 2177.3333,716.84753 2176.0223,716.74553 2175.1113,716.67453 2171.6163,715.45353 2172.6953,718.00253 2173.1203,719.00653 2175.4403,719.43153 2175.2483,720.64653 2175.9583,720.20153 2176.5273,720.86553 2176.1153,721.53653 2175.6733,722.25953 2174.6683,722.10053 2173.9623,722.15853 2171.7023,722.34053 2170.7623,722.91853 2168.8383,721.29553 2168.6713,721.81353 2169.1906,722.99112 2168.6726,723.35012 2167.8876,723.89412 2166.3938,722.78015 2165.8282,722.37619 2164.522,721.44333 2162.033,722.96979 2160.4083,721.43953 2160.3713,723.51801 2159.0038,721.42233 2158.3123,721.81553 2156.9252,722.60437 2156.4337,722.00144 2155.2592,721.59946 2155.0912,722.36946 2154.4482,722.60746 2154.1102,723.25446 2153.6722,724.09246 2153.4183,725.24353 2153.3033,726.17653 2153.2123,726.91453 2153.5404,728.3947 2153.5852,729.15381 2153.6612,730.44065 2153.0816,729.89937 2152.842,730.95705 2152.4594,732.64636 2153.0925,733.36833 2151.1565,733.62844 2149.0758,733.908 2150.3943,737.06253 2150.9783,737.78453 2149.8123,738.18753 2146.6863,740.15753 2148.0803,741.70153 2148.8893,742.59653 2145.9473,745.61453 2146.2283,747.00053 2145.1092,746.98983 2145.22,745.98047 2143.7753,747.00953 2142.9438,747.60185 2142.1332,746.60882 2141.3975,747.21626 2140.2043,748.20136 2139.7245,748.80175 2138.1845,748.56839 2136.5486,748.3205 2134.5003,747.37917 2134.0795,746.47262 2133.5347,745.2989 2129.2635,745.86942 2128.305,747.20826 2127.8283,747.8742 2127.7581,748.75853 2127.3453,749.52953 2127.2663,749.67673 2125.4636,750.67841 2125.3792,750.7118 2124.0067,751.25517 2122.2901,750.6411 2120.7987,750.51526 2119.3104,750.38963 2118.2754,751.18239 2117.007,751.78339 2115.4793,752.5072 2114.3854,751.17064 2113.6227,750.86426 2113.2057,750.69673 2112.6263,749.3661 2112.19,749.01614 2111.0917,748.1351 2110.121,747.5168 2109.3454,746.64565 2108.8769,746.11932 2108.7263,744.61163 2108.3931,744.15558 2107.0125,743.36399 2108.1963,742.67053 2108.3561,741.59753" id="path4724"/>
    </g>
  <g id="bn">
    <title>Brunei Darussalam</title>
    <g class="world_map-is_selected landxx brn" id="bn-" transform="translate(-29.9017,-45.0745)">
      <path d="M 2171.518,764.928 C 2174.415,764.854 2175.417,762.288 2177.851,761.346 2178.934,760.927 2178.453,762.364 2177.991,762.737 2176.919,763.602 2176.714,763.763 2176.899,765.265 2176.914,765.386 2177.6,770.829 2175.873,769.622 2175.22,769.166 2173.759,768.158 2173.319,767.449 2172.682,766.428 2172.976,765.24 2171.518,764.928" id="path6824"/>
      <path d="M 2178.508,763.704 C 2178.288,762.381 2179,763.266 2179.368,762.192 2180.418,763.535 2180.867,765.48 2180.738,767.16 2179.076,766.787 2178.597,765.217 2178.508,763.704" id="path6826"/>
    </g>
    </g>
  </svg>