<svg xmlns="http://www.w3.org/2000/svg" class="world_map zoom4" height="127" id="svg2985" version="1.1" viewBox="2128 704 33 33" width="127">
  <title>World Map</title>
  <defs id="defs2987"/>
  <defs>
    <link xmlns="http://www.w3.org/1999/xhtml" href="../css/svg.css" type="text/css" rel="stylesheet"/>
  </defs>
  <style id="style_css_sheet" type="text/css">
/*
 * Below are Cascading Style Sheet (CSS) definitions in use in this file,
 * which allow easily changing how countries are displayed.
 *
 */
/* --- Custom styles for Peace Corps --- */
.world_map .world_map-is_selected {
  fill: #C94112 !important;
}
.world_map .landxx {
  fill: #F2EFE8;
  stroke: #ffffff;
  fill-rule: evenodd;
}
.world_map.zoom4 .landxx {
  stroke-width: 2px;
}
.world_map.zoom3 .landxx {
  stroke-width: 3px;
}
.world_map.zoom2 .landxx {
  stroke-width: 4px;
}
.world_map.zoom1 .landxx {
  stroke-width: 5px;
}
.world_map .coastxx {
  fill: #F2EFE8;
  stroke: #ffffff;
  stroke-width: 2px;
  fill-rule: evenodd;
}
.world_map .oceanxx {
  opacity: 1;
  color: #ccc;
  fill: #ffffff;
  stroke: #ffffff;
  stroke-width: 0.5;
  stroke-miterlimit: 1;
}

/* --- Original Styles --- *
/*
 * Circles around small countries
 *
 * Change opacity to 1 to display all circles.
 *
 */
.circlexx
{
   opacity:0;
   fill:#e0e0e0;
   stroke:#000000;
   stroke-width:0.5;
}

/*
 * Smaller circles around French DOMs and Chinese SARs
 *
 * Change opacity to 1 to display all subnational circles.
 *
 */
.subxx
{
   opacity:0;
   stroke-width:0.3;
}

/*
 * Circles around small, unrecognized countries
 *
 * Change opacity to 1 to display all circles.
 *
 */
.unxx
{
   opacity:0;
   fill:#e0e0e0;
   stroke:#000000;
   stroke-width:0.3;
}

/*
 * Circles around small countries, but with no permanent residents 
 *
 * Change opacity to 1 to display all circles.
 *
 */
.noxx
{
   opacity:0;
   fill:#e0e0e0;
   stroke:#000000;
   stroke-width:0.5;
}

/*
 * land
 */
.landxx
{
}
/*
 * Styles for coastlines of islands with no borders
 */


/*
 * Styles for nations with limited recognition
 */
.limitxx
{
   fill: #e0e0e0;
   stroke:#ffffff;
   stroke-width:0;
   fill-rule:evenodd;
}

/*
 * Styles for nations with no permanent population.
 */
.antxx
{
   fill: #e0e0e0;
   stroke:#ffffff;
   stroke-width:0;
   fill-rule:evenodd;
}

/*
 * Ocean
 */


/*
 * Additional style rules
 *
 * The following are examples of colouring countries.  You can substitute these with your own styles to colour the countries on the map.
 *
 * Color a few countries:
 *
 * .gb, .au, .nc
 * {
 *    fill:       #ff0000;
 * }
 *
 * Color a few small country circles (and the countries):
 *
 * .ms, .ky
 * {
 *    opacity:    1;
 *    fill:       #ff0000;
 * }
 *
 */

</style>
  <path class="oceanxx" d="M 2079.5058,1457.5605 615.24779,1457.5605 C 615.13079,1457.5605 615.07079,1457.5505 614.95179,1457.5215 611.67679,1456.6515 608.40179,1455.7815 605.12779,1454.9105 599.15079,1453.3225 593.22879,1451.5225 587.30779,1449.7385 564.39379,1442.8315 541.76579,1434.6995 519.46979,1426.0115 495.81079,1416.7935 472.34979,1407.0946 449.19179,1396.6816 426.78379,1386.6056 405.17679,1375.0536 383.76379,1363.0356 363.11779,1351.4496 343.01079,1338.8296 323.37979,1325.5996 302.29179,1311.3876 281.47879,1296.8506 261.05379,1281.7006 242.35079,1267.8276 223.73679,1253.6306 206.05279,1238.4686 186.98679,1222.1216 167.82379,1205.7706 150.35279,1187.6906 132.97779,1169.7106 116.33279,1151.0606 100.15679,1131.9976 84.352777,1113.3736 70.086776,1093.4716 56.901786,1072.9246 44.046786,1052.8916 32.093776,1032.1356 22.469776,1010.3426 17.516776,999.12753 12.408776,987.76556 8.7017761,976.06056 5.0657761,964.58166 1.5997761,953.04259 -1.5932239,941.43054 -8.0102239,918.09356 -14.055224,894.78356 -18.234224,870.92056 -22.491222,846.60856 -24.894222,822.19856 -26.943222,797.62156 -28.947222,773.58556 -28.829222,749.40156 -27.225222,725.34856 -25.648222,701.69856 -23.363222,677.92456 -19.274222,654.56456 -15.018224,630.25156 -9.3842239,606.45156 -2.8412239,582.66156 3.5687761,559.35256 10.483776,536.34856 20.265776,514.19856 30.320776,491.42956 42.318786,469.90956 55.502786,448.81656 68.512776,428.00356 83.108777,408.26756 98.686787,389.31756 113.73479,371.01156 129.68979,353.25256 146.15179,336.20856 163.77479,317.96256 182.64579,301.14556 201.89579,284.64756 220.33379,268.84456 239.55379,253.98456 258.95979,239.39656 278.42779,224.76056 298.39379,210.83356 318.55579,197.17556 339.26979,183.14456 360.47879,169.92056 382.15079,157.42556 403.46579,145.13656 425.31479,133.98856 447.60479,123.59356 469.58579,113.34356 492.14979,104.17656 514.74579,95.37556 537.44879,86.532565 560.37879,78.195565 583.63479,70.914565 589.69379,69.017565 595.80079,67.276565 601.90879,65.549565 604.63079,64.779565 607.36079,64.045565 610.09479,63.318565 611.59979,62.918565 613.56579,61.986565 615.13379,61.986565 L 2079.9638,61.986565 C 2079.9798,61.986565 2079.9958,61.986565 2080.0118,61.986565 2079.8448,61.986565 2079.6788,61.986565 2079.5118,61.986565 2102.8268,68.191565 2125.8778,75.323565 2148.5448,83.611565 2171.6378,92.054565 2194.6158,100.87956 2217.2348,110.52956 2240.5208,120.46556 2263.4848,130.95256 2285.8828,142.76456 2306.9808,153.89056 2327.8178,165.78556 2347.8608,178.72156 2368.9418,192.32656 2389.7498,206.29256 2410.2218,220.80056 2429.7368,234.62956 2448.9938,248.98756 2467.6208,263.99256 2486.8818,279.50856 2506.0408,295.30556 2524.0538,312.27356 2541.8708,329.05756 2558.7508,346.67256 2574.9408,365.03656 2591.2478,383.53256 2607.1478,402.30656 2621.4508,422.41856 2635.3488,441.96256 2648.4468,462.42756 2659.5898,483.67756 2671.1238,505.67356 2681.1048,528.35656 2688.6188,552.05056 2692.2518,563.50656 2695.3368,575.14756 2698.5608,586.72256 2701.7738,598.25356 2704.9238,609.81956 2707.4578,621.52456 2712.6258,645.40556 2716.6718,669.47856 2719.1178,693.79656 2721.5718,718.19256 2723.1798,742.56356 2722.9808,767.09056 2722.7908,790.65456 2720.6908,814.43756 2717.7688,837.81156 2714.7368,862.07056 2710.5198,886.16156 2704.6398,909.90056 2701.6808,921.84356 2698.3948,933.69556 2695.0378,945.53154 2691.7468,957.13466 2688.5558,968.83466 2684.3988,980.16156 2676.0918,1002.8036 2666.1688,1024.8836 2654.1338,1045.8046 2641.9958,1066.9066 2628.8498,1087.4866 2614.2378,1106.9696 2599.1658,1127.0666 2582.6678,1145.9446 2565.8948,1164.6296 2549.8298,1182.5266 2532.8918,1199.7316 2514.8648,1215.6616 2496.0788,1232.2646 2476.8978,1248.3126 2457.1558,1263.7656 2438.2988,1278.5276 2418.9668,1292.7306 2399.3188,1306.4206 2378.7018,1320.7866 2357.7538,1334.6106 2336.4758,1347.9776 2326.4088,1354.3016 2316.0058,1360.1326 2305.6418,1365.9516 2295.0348,1371.9086 2284.3858,1378.0166 2273.4448,1383.3436 2250.7338,1394.3986 2227.7768,1404.7266 2204.3888,1414.2665 2181.7848,1423.4875 2159.0678,1432.2695 2136.0228,1440.3345 2117.4118,1446.8465 2098.5568,1452.4975 2079.5058,1457.5605" id="ocean"/>
  <g class="landxx coastxx vnm" id="vn" transform="translate(-29.9017,-45.0745)">
    <title>Viet Nam</title>
    <path class="landxx vnm" d="M 2065.538,610.848 C 2066.7346,610.7925 2066.8311,608.65107 2067.5781,608.06547 2068.8142,607.09645 2070.188,608.876 2070.821,609.51 2071.9526,610.64339 2072.6366,609.77373 2073.3346,608.57973 2074.2946,606.93773 2074.88,608.415 2075.618,609.264 2075.892,608.629 2075.878,607.077 2076.872,608.07 2077.486,608.683 2078.054,609.438 2078.795,609.905 2079.258,610.197 2079.577,607.156 2080.878,607.104 2080.506,609.123 2084.2939,607.32796 2084.8311,606.65114 2085.4063,605.92651 2084.6707,605.39548 2084.8861,604.741 2085.1699,603.87855 2087.4781,603.61614 2087.9971,602.353 2089.0631,603.828 2090.4121,604.991 2092.0441,605.778 2093.3211,606.395 2094.4971,605.215 2095.4211,606.345 2096.3481,607.479 2097.7851,605.719 2098.9131,606.847 2099.4851,607.42 2100.1811,609.743 2098.5871,609.193 2098.5771,611.16 2099.6241,612.605 2100.2371,614.52 2100.8061,614.031 2102.9071,614.696 2102.9071,615.528 2102.9071,616.775 2105.3071,616.496 2105.6371,617.689 2105.8771,617.545 2106.1171,617.401 2106.3571,617.256 2106.7451,618.275 2107.3369,617.59167 2108.1924,617.36952 2109.4732,617.03696 2113.0057,618.21907 2111.8105,618.88718 2110.9465,619.64418 2109.9091,618.012 2109.0241,618.747 2108.2221,619.413 2107.9651,620.362 2106.8841,620.53 2105.7261,620.71 2106.6381,621.765 2106.2141,622.53 2105.8011,623.275 2103.4631,623.996 2104.6371,622.656 2103.8831,622.473 2102.8751,623.62 2102.8361,624.024 2102.2011,623.669 2101.9531,622.486 2101.0361,622.799 2101.3201,623.107 2101.6531,623.346 2102.0361,623.519 2101.4001,624.263 2101.8801,624.631 2102.3621,625.421 2102.7641,626.079 2101.3111,626.06 2101.0361,625.895 2101.3631,626.576 2101.5461,628.483 2100.8161,628.992 2100.9131,629.024 2101.0091,629.024 2101.1061,628.992 2101.0281,629.537 2098.7811,631.987 2098.2951,631.368 2097.0831,631.973 2096.6941,633.789 2096.5771,634.997 2096.4151,636.664 2097.1181,637.793 2096.2561,639.361 2095.2781,641.139 2097.1761,641.545 2097.2851,643.175 2097.7141,642.05 2097.9701,643.746 2098.4351,644.359 2099.0611,645.183 2099.7891,645.822 2100.6351,646.412 2101.4401,646.974 2102.2541,647.558 2102.9731,648.229 2104.0061,649.193 2103.5531,650.23 2103.9051,651.456 2103.4611,651.11 2102.9581,650.918 2102.3951,650.88 2104.1931,651.185 2105.0421,653.428 2106.4481,654.554 2107.4741,655.376 2110.7261,656.977 2109.8861,658.728 2110.9861,658.093 2112.7351,660.295 2113.3451,660.96 2113.0391,660.82 2112.7261,660.7 2112.4061,660.6 2113.7511,661.438 2114.9791,662.359 2115.8661,663.697 2117.0641,662.261 2119.4841,665.482 2118.8161,666.217 2119.4501,665.773 2118.4681,664.385 2119.7551,665.065 2117.8251,666.728 2123.7471,670.575 2123.8561,672.049 2124.3471,670.798 2124.5741,671.842 2124.9681,672.417 2125.5841,673.316 2124.6391,672.947 2124.7951,673.633 2125.0851,674.909 2126.1211,676.045 2126.6281,677.236 2127.3151,678.85 2127.6731,680.601 2128.4001,682.223 2128.6931,682.876 2129.0081,683.536 2129.1681,684.24 2129.2461,684.584 2129.2781,686.398 2128.8251,684.649 2128.7991,685.624 2129.9471,688.455 2128.8251,686.738 2129.0801,687.317 2129.4391,687.821 2129.9051,688.25 2128.5651,688.434 2129.6441,689.104 2129.8561,689.864 2130.1631,690.964 2130.5121,691.707 2131.0961,692.684 2131.3341,693.082 2131.3491,695.06 2131.2641,695.665 2130.8581,695.256 2130.5711,694.776 2130.4051,694.225 2129.0451,695.022 2130.3211,696.672 2130.7641,697.61 2130.3141,697.344 2129.8331,697.152 2129.3251,697.034 2129.9691,697.619 2130.6221,700.696 2130.2641,701.569 2130.2541,701.048 2130.1151,700.569 2129.8341,700.13 2130.2851,700.846 2129.9021,701.587 2129.6851,702.29 2130.4971,702.268 2130.5391,702.86 2130.3261,703.476 2130.0981,704.133 2129.1371,704.447 2129.0751,704.666 2128.6981,706.017 2129.2271,706.056 2127.7551,706.811 2127.3411,707.166 2126.9031,707.488 2126.4421,707.776 2125.8011,708.038 2125.5991,708.966 2125.1091,709.114 2124.2971,709.359 2123.4611,709.706 2122.7501,710.172 2122.4171,710.39 2121.9151,712.004 2121.6591,711.917 2120.9281,711.668 2119.7001,712.575 2119.1471,712.992 2118.3971,713.558 2116.9151,714.056 2116.3661,714.747 2115.8571,713.759 2114.5201,713.791 2114.4261,712.515 2114.3311,713.02 2114.2361,713.524 2114.1371,714.028 2114.0221,713.622 2113.8551,713.238 2113.6371,712.876 2114.0101,713.709 2113.8861,713.661 2113.2661,712.731 2114.0771,712.731 2112.4601,712.223 2112.4771,712.227 2112.7251,713.101 2112.3711,714.221 2111.2561,713.956 2111.5191,714.761 2112.6781,713.539 2112.9441,714.676 2113.2841,716.127 2110.6961,715.416 2110.1761,715.396 2111.0731,716.124 2112.5471,715.983 2113.1261,717.125 2112.2571,717.257 2112.2081,718.628 2111.2101,717.93 2110.5481,717.467 2110.1091,716.074 2109.2361,715.973 2109.7951,716.628 2112.5741,718.927 2112.1161,719.645 2110.3441,718.924 2109.4141,717.165 2107.9461,716.045 2108.2621,717.198 2113.5371,720.74 2111.1711,722.032 2109.6171,722.881 2106.9841,718.749 2105.8571,718.06 2106.6251,719.323 2109.4641,721.272 2108.9791,722.953 2108.6031,724.253 2106.3951,724.608 2105.3501,725.131 2103.5861,726.014 2103.5261,727.333 2102.4461,728.742 2101.7111,729.703 2099.7981,731.297 2098.5871,730.156 2098.9581,729.686 2099.4391,729.398 2100.0271,729.292 2099.8921,728.992 2099.7961,728.68 2099.7371,728.355 2099.4321,728.497 2099.1191,728.617 2098.7971,728.715 2098.8451,726.9 2098.4691,725.098 2098.4561,723.282 2098.4461,722.387 2098.5141,721.47 2098.7971,720.615 2098.9871,720.039 2100.2611,717.593 2100.5271,719.354 2100.5171,716.527 2095.1311,716.939 2095.6371,714.531 2095.5331,714.957 2094.9577,714.66216 2094.6747,714.18816 2095.1567,714.02216 2095.874,713.48076 2096.412,713.42641 2100.6067,713.00261 2098.4386,711.30617 2099.6661,709.851 2101.0321,711.165 2102.9441,709.741 2104.4191,709.451 2104.9321,709.35 2105.2719,709.797 2105.5039,710.176 2106.0659,711.091 2107.1191,711.004 2108.0161,711.292 2108.0371,710.504 2107.2131,709.846 2108.1571,709.708 2107.9741,708.378 2106.3121,708.328 2105.7681,707.406 2105.3021,706.618 2104.9901,705.606 2104.8001,704.714 2104.6191,703.868 2105.5081,703.771 2105.9291,703.117 2106.5711,702.121 2108.7081,703.572 2109.5271,703.731 2109.0701,702.895 2109.6621,701.908 2109.0271,701.139 2109.7221,700.964 2110.5889,701.2242 2111.1721,701.026 2111.7679,700.82353 2112.8155,699.94527 2113.3735,699.55627 2114.0205,699.10327 2114.2551,698.521 2115.0761,698.286 2115.7111,698.105 2116.5641,698.176 2117.0761,697.693 2118.4551,696.392 2116.3471,692.822 2116.5221,691.157 2116.6701,689.73 2117.2011,688.707 2116.4951,687.327 2116.2631,686.904 2116.0281,686.482 2115.7911,686.061 2115.3911,685.308 2115.6411,684.772 2115.3571,684.076 2114.9561,683.092 2114.4041,683.182 2114.3061,681.871 2114.1881,680.285 2115.1981,679.357 2115.2901,677.953 2115.3121,677.615 2115.2211,676.03918 2115.0285,675.87818 2113.8285,674.87918 2115.0675,674.935 2115.5211,673.891 2116.2211,672.282 2114.3111,670.695 2113.1541,669.949 2112.6241,669.607 2111.2581,668.881 2111.3261,668.093 2111.4071,667.152 2112.9781,666.767 2113.3461,665.933 2112.3401,665.551 2111.0341,664.768 2110.3911,663.882 2109.9121,663.224 2109.4631,663.771 2108.9331,662.869 2108.2181,661.654 2107.8221,662.785 2106.9371,662.261 2106.4221,661.955 2105.8321,660.654 2105.7341,660.076 2105.4261,658.257 2104.6701,656.704 2103.1821,655.422 2102.7621,655.06 2101.8061,654.819 2101.2181,654.202 2100.1111,653.037 2098.7821,651.856 2097.8471,650.553 2097.2451,649.715 2096.9871,648.687 2096.3561,647.869 2096.1051,647.545 2095.6861,647.158 2095.2661,647.5 2094.8251,646.822 2094.0051,646.585 2093.5881,645.887 2093.2811,645.373 2092.4111,644.16 2092.9901,643.586 2093.7141,642.867 2090.3181,642.169 2090.0931,642.117 2087.8301,641.6 2086.2841,639.005 2084.1411,638.417 2083.5221,638.247 2081.8501,637.461 2083.1941,636.829 2085.1041,635.931 2082.7001,635.401 2083.0371,634.397 2083.2171,633.857 2085.8141,634.651 2086.0711,634.69 2087.1271,634.85 2089.9871,633.094 2088.5071,632.669 2088.8301,632.18 2089.7971,631.922 2089.7971,631.229 2089.7971,630.354 2088.8261,629.569 2087.9761,629.68 2087.3981,629.755 2087.3281,629.381 2087.1601,628.898 2086.7891,627.831 2085.6851,628.119 2084.8381,627.773 2085.0351,627.014 2086.1391,627.163 2086.1991,626.532 2086.3031,625.461 2085.1191,625.056 2084.4231,624.552 2083.5921,623.95 2083.0321,623.227 2081.8681,623.439 2080.0551,623.768 2080.4591,624.737 2079.6481,625.83 2078.8421,625.336 2077.6541,624.402 2076.7701,624.573 2075.7621,624.768 2073.8801,622.959 2073.3881,622.229 2072.8271,621.4 2072.3181,619.416 2072.6031,618.424 2073.1071,616.667 2071.6521,617.051 2071.2971,615.677 2071.5181,616.241 2071.4211,616.745 2071.0071,617.189 2070.0621,616.903 2069.8491,615.227 2069.0321,614.581 2067.9281,613.7 2066.1101,612.149 2065.5381,610.848" id="path3562"/>
    </g>
  <g class="landxx coastxx mys" id="my">
    <title>Malaysia</title>
    <path d="M 2149.4663,713.87753 C 2150.1993,714.14353 2150.2953,713.90253 2149.7563,713.15653 2149.6603,713.39753 2149.5633,713.63753 2149.4663,713.87753" id="path4710"/>
    <path class="landxx mys" d="M 2108.3563,741.59753 C 2108.1113,744.16253 2113.7063,746.34753 2113.6163,743.97353 2113.6433,744.64353 2114.6333,744.71753 2114.5663,744.99453 2114.3653,745.84153 2115.9823,746.20753 2116.5793,746.42753 2117.5003,746.76653 2118.0503,746.01953 2118.8393,746.92253 2119.5583,747.74653 2120.6493,747.83753 2121.6773,747.93353 2120.9613,746.95053 2119.4273,747.80953 2119.0493,746.33953 2118.8053,745.38653 2119.5473,744.58753 2120.3773,745.41453 2119.5813,744.91553 2119.5303,744.13753 2119.7963,743.31753 2119.9633,742.92253 2120.0893,742.51553 2120.1753,742.09553 2120.3883,741.09053 2120.9163,741.48253 2121.5273,740.87753 2121.0243,740.93053 2120.5213,740.97853 2120.0173,741.02153 2120.7113,740.35753 2120.0333,739.57053 2120.2383,738.79053 2120.9883,738.79653 2121.6533,739.18353 2122.3973,739.22253 2119.7903,737.26653 2123.7103,734.94053 2125.3223,734.68453 2127.8743,734.27953 2131.5513,733.74553 2133.7043,732.22853 2135.5643,730.91853 2135.6243,728.22653 2137.2743,726.74153 2139.3883,724.83953 2140.6003,722.64753 2140.7573,719.78253 2142.8481,719.82753 2142.7228,720.54747 2143.1348,721.75647 2143.3865,722.49478 2145.4145,724.30397 2146.1655,724.51353 2147.1507,724.78846 2147.2307,721.2789 2146.9705,720.4549 2146.2847,718.28378 2147.4832,718.2044 2148.4812,717.1004 2148.8292,718.9244 2148.4962,721.56053 2150.8373,722.08653 2150.684,720.63297 2150.6898,718.96079 2149.8823,717.86853 2148.6551,716.20848 2150.7139,717.23147 2151.2743,716.78453 2151.7916,716.37194 2153.5863,714.98853 2152.1583,714.43353 2150.0023,713.59553 2152.1103,711.99453 2152.7773,711.06953 2152.5993,712.89053 2154.8493,710.91353 2155.2473,710.13553 2155.8543,708.94753 2156.0473,707.60053 2156.6043,706.39153 2156.9213,705.70253 2157.3173,706.03653 2157.6773,705.59753 2158.1143,705.06653 2158.4833,704.16453 2158.9453,703.54453 2159.9563,702.18953 2159.8403,700.22053 2161.1373,698.97353 2162.1453,700.15953 2160.9363,701.38253 2161.4173,702.64553 2162.2413,702.12153 2163.0023,698.96653 2164.0213,699.15253 2164.0903,699.16553 2166.5383,704.75253 2166.8963,702.21453 2167.0243,703.25753 2168.9593,703.71553 2168.8183,704.96753 2168.7253,705.79453 2167.5733,705.49053 2167.8703,706.62053 2168.2183,707.94253 2168.0483,708.28053 2166.7473,708.76653 2167.5593,708.30053 2168.4293,708.81953 2169.1733,708.39453 2169.7813,708.04753 2170.1103,707.17453 2170.9683,707.53553 2172.5913,708.21753 2171.0733,709.34153 2170.2773,709.63053 2170.4423,711.18953 2171.9473,709.69553 2172.5423,709.31753 2173.8193,708.50553 2175.3313,710.39353 2175.4583,711.50253 2176.3393,710.56853 2177.8383,712.22153 2178.1973,712.94153 2178.9053,711.97353 2180.9093,712.72353 2180.9373,713.87353 2180.9793,715.53453 2177.3333,716.84753 2176.0223,716.74553 2175.1113,716.67453 2171.6163,715.45353 2172.6953,718.00253 2173.1203,719.00653 2175.4403,719.43153 2175.2483,720.64653 2175.9583,720.20153 2176.5273,720.86553 2176.1153,721.53653 2175.6733,722.25953 2174.6683,722.10053 2173.9623,722.15853 2171.7023,722.34053 2170.7623,722.91853 2168.8383,721.29553 2168.6713,721.81353 2169.1906,722.99112 2168.6726,723.35012 2167.8876,723.89412 2166.3938,722.78015 2165.8282,722.37619 2164.522,721.44333 2162.033,722.96979 2160.4083,721.43953 2160.3713,723.51801 2159.0038,721.42233 2158.3123,721.81553 2156.9252,722.60437 2156.4337,722.00144 2155.2592,721.59946 2155.0912,722.36946 2154.4482,722.60746 2154.1102,723.25446 2153.6722,724.09246 2153.4183,725.24353 2153.3033,726.17653 2153.2123,726.91453 2153.5404,728.3947 2153.5852,729.15381 2153.6612,730.44065 2153.0816,729.89937 2152.842,730.95705 2152.4594,732.64636 2153.0925,733.36833 2151.1565,733.62844 2149.0758,733.908 2150.3943,737.06253 2150.9783,737.78453 2149.8123,738.18753 2146.6863,740.15753 2148.0803,741.70153 2148.8893,742.59653 2145.9473,745.61453 2146.2283,747.00053 2145.1092,746.98983 2145.22,745.98047 2143.7753,747.00953 2142.9438,747.60185 2142.1332,746.60882 2141.3975,747.21626 2140.2043,748.20136 2139.7245,748.80175 2138.1845,748.56839 2136.5486,748.3205 2134.5003,747.37917 2134.0795,746.47262 2133.5347,745.2989 2129.2635,745.86942 2128.305,747.20826 2127.8283,747.8742 2127.7581,748.75853 2127.3453,749.52953 2127.2663,749.67673 2125.4636,750.67841 2125.3792,750.7118 2124.0067,751.25517 2122.2901,750.6411 2120.7987,750.51526 2119.3104,750.38963 2118.2754,751.18239 2117.007,751.78339 2115.4793,752.5072 2114.3854,751.17064 2113.6227,750.86426 2113.2057,750.69673 2112.6263,749.3661 2112.19,749.01614 2111.0917,748.1351 2110.121,747.5168 2109.3454,746.64565 2108.8769,746.11932 2108.7263,744.61163 2108.3931,744.15558 2107.0125,743.36399 2108.1963,742.67053 2108.3561,741.59753" id="path4724"/>
    </g>
  <g id="bn">
    <title>Brunei Darussalam</title>
    <circle class="world_map-is_selected circlexx brn" cx="2145.6943" cy="720.98956" id="bn." r="6.0130301" rx="6.0130301" ry="6.0130301"/>
  </g>
  </svg>