<svg xmlns="http://www.w3.org/2000/svg" class="world_map zoom3 zoom2" height="127" id="svg2985" version="1.1" viewBox="1303 658 161 215" width="127">
  <title>World Map</title>
  <defs id="defs2987"/>
  <style id="style_css_sheet" type="text/css">
/*
 * Below are Cascading Style Sheet (CSS) definitions in use in this file,
 * which allow easily changing how countries are displayed.
 *
 */
/* --- Custom styles for Peace Corps --- */
.world_map .world_map-is_selected.circlexx {
  opacity:1;
}
.world_map .world_map-is_selected.landxx {
  fill: #C94112 !important;
}
.world_map .landxx {
  fill: #F2EFE8;
  stroke: #ffffff;
  fill-rule: evenodd;
}
.world_map.zoom6 .landxx {
  stroke-width: 0.1px;
}
.world_map.zoom5 .landxx {
  stroke-width: 1px;
}
.world_map.zoom4 .landxx {
  stroke-width: 2px;
}
.world_map.zoom3 .landxx {
  stroke-width: 3px;
}
.world_map.zoom2 .landxx {
  stroke-width: 4px;
}
.world_map.zoom1 .landxx {
  stroke-width: 5px;
}
.world_map .coastxx {
  fill: #F2EFE8;
  stroke: #ffffff;
  stroke-width: 2px;
  fill-rule: evenodd;
}
.world_map .oceanxx {
  opacity: 1;
  color: #ccc;
  fill: #ffffff;
  stroke: #ffffff;
  stroke-width: 0.5;
  stroke-miterlimit: 1;
}

/* --- Original Styles --- *
/*
 * Circles around small countries
 *
 * Change opacity to 1 to display all circles.
 *
 */
.circlexx
{
   opacity:0;
   fill-opacity:0;
   fill:#e0e0e0;
   stroke:#000000;
   stroke-width:0.5;
}

/*
 * Smaller circles around French DOMs and Chinese SARs
 *
 * Change opacity to 1 to display all subnational circles.
 *
 */
.subxx
{
   opacity:0;
   stroke-width:0.3;
}

/*
 * Circles around small, unrecognized countries
 *
 * Change opacity to 1 to display all circles.
 *
 */
.unxx
{
   opacity:0;
   fill:#e0e0e0;
   stroke:#000000;
   stroke-width:0.3;
}

/*
 * Circles around small countries, but with no permanent residents 
 *
 * Change opacity to 1 to display all circles.
 *
 */
.noxx
{
   opacity:0;
   fill:#e0e0e0;
   stroke:#000000;
   stroke-width:0.5;
}

/*
 * land
 */
.landxx
{
}
/*
 * Styles for coastlines of islands with no borders
 */


/*
 * Styles for nations with limited recognition
 */
.limitxx
{
   fill: #e0e0e0;
   stroke:#ffffff;
   stroke-width:0;
   fill-rule:evenodd;
}

/*
 * Styles for nations with no permanent population.
 */
.antxx
{
   fill: #e0e0e0;
   stroke:#ffffff;
   stroke-width:0;
   fill-rule:evenodd;
}

/*
 * Ocean
 */


/*
 * Additional style rules
 *
 * The following are examples of colouring countries.  You can substitute these with your own styles to colour the countries on the map.
 *
 * Color a few countries:
 *
 * .gb, .au, .nc
 * {
 *    fill:       #ff0000;
 * }
 *
 * Color a few small country circles (and the countries):
 *
 * .ms, .ky
 * {
 *    opacity:    1;
 *    fill:       #ff0000;
 * }
 *
 */

</style>
  <path class="oceanxx" d="M 2079.5058,1457.5605 615.24779,1457.5605 C 615.13079,1457.5605 615.07079,1457.5505 614.95179,1457.5215 611.67679,1456.6515 608.40179,1455.7815 605.12779,1454.9105 599.15079,1453.3225 593.22879,1451.5225 587.30779,1449.7385 564.39379,1442.8315 541.76579,1434.6995 519.46979,1426.0115 495.81079,1416.7935 472.34979,1407.0946 449.19179,1396.6816 426.78379,1386.6056 405.17679,1375.0536 383.76379,1363.0356 363.11779,1351.4496 343.01079,1338.8296 323.37979,1325.5996 302.29179,1311.3876 281.47879,1296.8506 261.05379,1281.7006 242.35079,1267.8276 223.73679,1253.6306 206.05279,1238.4686 186.98679,1222.1216 167.82379,1205.7706 150.35279,1187.6906 132.97779,1169.7106 116.33279,1151.0606 100.15679,1131.9976 84.352777,1113.3736 70.086776,1093.4716 56.901786,1072.9246 44.046786,1052.8916 32.093776,1032.1356 22.469776,1010.3426 17.516776,999.12753 12.408776,987.76556 8.7017761,976.06056 5.0657761,964.58166 1.5997761,953.04259 -1.5932239,941.43054 -8.0102239,918.09356 -14.055224,894.78356 -18.234224,870.92056 -22.491222,846.60856 -24.894222,822.19856 -26.943222,797.62156 -28.947222,773.58556 -28.829222,749.40156 -27.225222,725.34856 -25.648222,701.69856 -23.363222,677.92456 -19.274222,654.56456 -15.018224,630.25156 -9.3842239,606.45156 -2.8412239,582.66156 3.5687761,559.35256 10.483776,536.34856 20.265776,514.19856 30.320776,491.42956 42.318786,469.90956 55.502786,448.81656 68.512776,428.00356 83.108777,408.26756 98.686787,389.31756 113.73479,371.01156 129.68979,353.25256 146.15179,336.20856 163.77479,317.96256 182.64579,301.14556 201.89579,284.64756 220.33379,268.84456 239.55379,253.98456 258.95979,239.39656 278.42779,224.76056 298.39379,210.83356 318.55579,197.17556 339.26979,183.14456 360.47879,169.92056 382.15079,157.42556 403.46579,145.13656 425.31479,133.98856 447.60479,123.59356 469.58579,113.34356 492.14979,104.17656 514.74579,95.37556 537.44879,86.532565 560.37879,78.195565 583.63479,70.914565 589.69379,69.017565 595.80079,67.276565 601.90879,65.549565 604.63079,64.779565 607.36079,64.045565 610.09479,63.318565 611.59979,62.918565 613.56579,61.986565 615.13379,61.986565 L 2079.9638,61.986565 C 2079.9798,61.986565 2079.9958,61.986565 2080.0118,61.986565 2079.8448,61.986565 2079.6788,61.986565 2079.5118,61.986565 2102.8268,68.191565 2125.8778,75.323565 2148.5448,83.611565 2171.6378,92.054565 2194.6158,100.87956 2217.2348,110.52956 2240.5208,120.46556 2263.4848,130.95256 2285.8828,142.76456 2306.9808,153.89056 2327.8178,165.78556 2347.8608,178.72156 2368.9418,192.32656 2389.7498,206.29256 2410.2218,220.80056 2429.7368,234.62956 2448.9938,248.98756 2467.6208,263.99256 2486.8818,279.50856 2506.0408,295.30556 2524.0538,312.27356 2541.8708,329.05756 2558.7508,346.67256 2574.9408,365.03656 2591.2478,383.53256 2607.1478,402.30656 2621.4508,422.41856 2635.3488,441.96256 2648.4468,462.42756 2659.5898,483.67756 2671.1238,505.67356 2681.1048,528.35656 2688.6188,552.05056 2692.2518,563.50656 2695.3368,575.14756 2698.5608,586.72256 2701.7738,598.25356 2704.9238,609.81956 2707.4578,621.52456 2712.6258,645.40556 2716.6718,669.47856 2719.1178,693.79656 2721.5718,718.19256 2723.1798,742.56356 2722.9808,767.09056 2722.7908,790.65456 2720.6908,814.43756 2717.7688,837.81156 2714.7368,862.07056 2710.5198,886.16156 2704.6398,909.90056 2701.6808,921.84356 2698.3948,933.69556 2695.0378,945.53154 2691.7468,957.13466 2688.5558,968.83466 2684.3988,980.16156 2676.0918,1002.8036 2666.1688,1024.8836 2654.1338,1045.8046 2641.9958,1066.9066 2628.8498,1087.4866 2614.2378,1106.9696 2599.1658,1127.0666 2582.6678,1145.9446 2565.8948,1164.6296 2549.8298,1182.5266 2532.8918,1199.7316 2514.8648,1215.6616 2496.0788,1232.2646 2476.8978,1248.3126 2457.1558,1263.7656 2438.2988,1278.5276 2418.9668,1292.7306 2399.3188,1306.4206 2378.7018,1320.7866 2357.7538,1334.6106 2336.4758,1347.9776 2326.4088,1354.3016 2316.0058,1360.1326 2305.6418,1365.9516 2295.0348,1371.9086 2284.3858,1378.0166 2273.4448,1383.3436 2250.7338,1394.3986 2227.7768,1404.7266 2204.3888,1414.2665 2181.7848,1423.4875 2159.0678,1432.2695 2136.0228,1440.3345 2117.4118,1446.8465 2098.5568,1452.4975 2079.5058,1457.5605" id="ocean"/>
  <path class="landxx sdn" d="M 1459.2027,675.52234 C 1459.5149,675.20908 1459.5678,674.60503 1459.84,674.33263 1460.267,673.90582 1460.9019,673.52581 1461.3272,673.10045 1461.9934,672.4343 1461.3272,671.01024 1462.0069,670.33868 1462.4875,669.85804 1463.9833,670.57178 1464.5564,669.99876 1464.9498,669.6052 1467.2434,668.90432 1467.6156,669.27643 1468.1191,669.78016 1468.0506,671.45357 1468.2952,671.69831 1468.5077,671.90984 1469.2647,671.77521 1469.4426,671.95331 1469.7711,672.28183 1469.7936,672.91034 1469.9948,673.31294 1470.1268,673.58016 1470.4481,673.89368 1470.5898,674.03525 1471.1008,674.54609 1470.8217,675.92378 1471.2698,676.37218 1471.5627,676.66644 1472.5045,677.10948 1472.8418,677.22193 1473.7172,677.51394 1477.234,676.35639 1477.7282,675.86229 1477.8376,675.75376 1478.3987,675.92829 1478.4928,675.94739 1479.8888,676.22651 1481.9862,676.25035 1483.0391,676.07487 1483.5682,676.81755 1483.8588,677.91409 1484.3987,678.45417 1484.9869,679.04224 1488.965,678.67793 1489.7524,678.28418 1490.0196,678.1509 1489.8748,677.52686 1490.0067,677.26442 1490.3622,676.55361 1491.4549,675.62681 1492.2588,675.22496 1493.1844,674.76202 1495.3463,675.15406 1495.8702,674.63011 1496.2305,674.27007 1495.5279,672.29569 1496.0408,671.78334 1496.7285,671.09569 1497.9842,670.54102 1498.6753,670.12626 1500.6338,670.58893 1501.4615,672.06289 1502.6692,673.2705 1503.3456,673.9468 1504.3038,674.26766 1504.8787,674.8426 1505.043,675.00744 1505.2548,674.59374 1505.3034,674.54511 1505.4483,674.40056 1506.7879,674.50261 1507.088,674.50261 1507.4566,674.50261 1508.4475,674.58771 1508.7026,674.33262 1510.0191,673.01618 1511.0776,671.02278 1512.4842,669.61633 1513.1393,668.96105 1513.217,667.35373 1513.8438,666.72709 1515.0089,665.56182 1516.6983,664.49483 1517.2005,662.98802 1515.6825,661.80433 1517.6039,658.37776 1516.6055,657.37957 1516.4735,657.24822 1514.5039,655.52995 1514.566,655.46756 1515.2321,654.80172 1518.8949,655.86014 1519.3672,654.91519 1519.6763,654.29874 1519.2892,653.47434 1519.3672,653.00317 1519.7545,652.79777 1523.3614,652.97097 1523.3614,653.00317 1523.3614,653.76021 1522.6853,656.43753 1522.2992,657.20962 1521.9133,657.98131 1523.1264,662.64298 1523.3614,663.58297 1523.474,664.03276 1523.0685,665.71082 1523.2327,665.87738 1523.5861,666.23102 1524.4811,666.38882 1524.9322,666.72718 1526.7367,668.08064 1527.7429,670.68495 1529.0535,671.9958 1529.4772,672.41933 1529.0155,674.76827 1528.2889,674.16279 1528.4338,678.4323 1528.0313,675.60607 1530.5755,676.45544 1530.6425,675.81573 1530.7739,675.18291 1530.9786,674.55552 L 1530.9786,674.55552 C 1531.4506,673.10552 1532.1456,672.06202 1532.0886,670.49902 1532.0246,668.74202 1531.8593,667.54952 1532.9963,666.11152 1533.8603,665.02052 1535.3343,665.93252 1535.3043,667.14852 1535.9123,666.47952 1536.1956,665.93885 1536.6663,664.95952 1537.8547,662.48718 1536.1042,662.52135 1536.6669,661.85696 1538.0396,660.23622 1537.0066,657.42085 1538.5003,656.43752 1539.9373,655.49154 1540.5143,652.32452 1541.4203,650.88552 1542.3453,649.41752 1543.5423,650.09277 1544.9723,649.89377 1545.9233,649.76077 1545.7506,646.90952 1545.7676,646.24052 1545.8136,644.35252 1546.9159,642.96782 1547.2983,641.17152 1547.8515,638.57489 1547.4343,635.71229 1547.3453,633.89415 1547.2493,631.94338 1546.6479,629.55966 1547.3553,628.23452 1548.3461,626.37848 1548.649,623.85624 1549.4933,621.56752 1549.8215,620.67781 1550.2843,619.70152 1550.4873,618.77252 1550.7093,617.76052 1550.1696,616.96946 1550.3536,615.97246 1550.5416,614.95746 1550.3906,612.87277 1551.324,612.32177 1552.001,611.92177 1553.8822,612.67777 1554.1422,611.76177 1554.6482,609.98177 1554.389,609.79195 1556.351,609.04895 1557.435,608.63795 1559.9024,607.75354 1560.499,606.78558 1560.9528,606.04927 1562.1009,604.06496 1562.3705,603.7719 1562.2035,602.4239 1559.9203,602.57352 1559.8543,601.34152 1558.9203,602.18152 1556.2953,597.80252 1554.8913,597.56352 1552.4613,597.15052 1551.7383,592.44452 1551.6333,590.40552 1551.4833,587.50152 1550.6103,584.88352 1550.9883,582.02852 1551.1563,580.76452 1550.7313,579.32252 1550.2283,578.17652 1549.5323,576.59052 1550.9393,575.87352 1551.2843,577.43752 1551.1903,575.38252 1548.8313,574.08852 1548.2633,572.18152 1547.5773,569.87752 1548.5633,568.99152 1546.4413,567.50852 1544.8403,566.38952 1543.8163,564.27152 1542.1433,563.39752 1540.2743,562.42052 1538.7633,561.65652 1538.2533,559.43752 1537.5793,560.11952 1535.7963,562.80952 1534.7193,562.24552 1533.3073,561.50552 1532.8563,563.37352 1532.5543,564.23252 1531.9713,565.88752 1531.4763,566.83052 1529.6733,567.13952 1527.8873,567.44652 1527.4233,567.82152 1527.0523,569.61652 1526.2413,573.54152 1522.4053,570.54652 1520.5463,569.53352 1518.9343,568.65552 1516.1103,569.32552 1514.3503,569.39852 1512.0513,569.49352 1509.7203,569.54952 1507.4433,569.15752 1508.1962,568.46425 1507.8023,566.01323 1506.6933,567.79152 1505.5966,569.54997 1504.1713,569.22952 1502.3153,569.22952 1497.5753,569.22952 1492.8353,569.22952 1488.0963,569.22952 1478.4383,569.22952 1468.6451,569.13942 1458.9881,569.13942 1459.1821,574.89742 1459.3893,580.74855 1459.4833,586.50955 1456.9903,586.50955 1454.4963,586.50955 1452.0033,586.50955 L 1452.7233,623.73355 C 1451.4863,623.34955 1450.1963,622.87655 1448.9613,623.52155 1447.9423,624.05555 1446.9663,623.46055 1445.9283,623.97455 1443.5073,625.17255 1446.0573,626.98655 1444.5443,628.91455 1443.3313,630.45855 1443.1153,632.13855 1441.3583,633.07155 1440.2523,633.65755 1441.3833,636.40255 1442.0623,637.05255 1439.5433,639.06755 1437.9163,639.75155 1439.7233,643.15555 1440.4113,644.45155 1439.5533,644.99755 1438.4963,645.74355 1437.3673,646.54055 1437.1683,647.56655 1436.6623,648.78954 1437.6423,651.43552 1439.5003,648.94652 1441.1483,649.90152 1442.1233,650.46952 1440.6483,651.40252 1441.0943,652.16752 1441.6433,653.10152 1441.9353,654.34152 1441.6333,655.41052 1441.8923,655.27952 1442.1543,655.15952 1442.4233,655.05052 1443.2073,656.31052 1441.7363,657.70552 1442.3763,658.98152 1443.0103,660.25152 1444.6403,660.42152 1445.1913,661.34452 1446.0003,662.70052 1444.2963,663.94552 1444.8963,665.26352 1445.5163,666.62852 1446.6043,667.65552 1447.6463,668.69652 1449.5093,670.55952 1451.1343,673.31792 1451.1483,675.98492 1451.1663,676.48113 1451.2644,676.96723 1451.2644,677.42439 1451.2744,677.43549 1455.7251,677.42439 1455.7251,677.42439 1456.2355,677.61321 1456.3944,677.18807 1456.7895,676.81802 1457.481,676.75982 1457.6252,677.71703 1458.0313,676.39872 1458.5464,676.07845 1458.845,676.01729 1459.2023,675.52241 z" id="sd">
    <title>Sudan</title>
  </path>
  <path class="landxx ssd" d="M 1455.3606,685.71039 C 1455.3246,686.15771 1455.2221,686.61768 1455.2221,686.86302 1455.2221,688.49822 1457.3648,688.36235 1458.4687,688.53492 1459.2276,688.65368 1460.0802,688.82738 1460.6471,689.38934 1461.2529,689.98924 1461.5019,690.58131 1462.307,691.09618 1463.1067,691.60724 1463.5327,692.00521 1463.5327,692.7223 1463.5327,693.37908 1462.5245,694.09479 1463.0755,694.71067 1464.6387,696.46049 1466.609,697.26701 1468.6243,698.42691 1469.6647,699.02581 1469.3661,699.61676 1470.0008,700.48415 1470.4601,701.11303 1471.6014,701.33463 1471.8816,702.05829 1472.1979,702.87383 1471.0937,703.51863 1471.6949,704.36711 1472.029,704.84025 1472.8678,705.20257 1472.8678,705.86239 1472.8578,707.41356 1474.5037,707.69005 1475.7355,708.58044 1476.8157,709.36101 1478.5219,709.66844 1478.6571,711.25059 1478.7461,712.29168 1478.4394,713.42463 1479.1771,714.313 1479.7141,714.95884 1479.9865,716.06569 1480.6931,716.48294 1481.6745,717.06287 1482.0289,717.44321 1482.1931,718.60781 1482.3667,719.83059 1483.9732,719.968 1484.5723,720.74554 1484.8656,721.12607 1485.6676,721.39799 1486.073,721.6504 1487.608,722.61566 1487.9445,721.96897 1489.3846,721.04477 1491.5683,719.64313 1491.8817,721.14297 1493.7641,721.29879 1495.6604,721.45568 1495.1182,717.6319 1497.3909,719.59036 1498.1375,720.23316 1498.2518,721.06367 1498.7878,721.77538 1499.2879,722.43914 1499.69,723.30988 1500.2521,723.92276 1501.5028,725.29026 1505.1181,725.79206 1504.0009,728.22564 1505.0061,727.99007 1506.1422,728.03398 1506.2967,729.30367 1506.7391,728.21666 1508.1296,726.53999 1509.5411,726.85937 1510.3994,727.05302 1510.7783,728.1789 1511.7644,727.73472 1512.3314,727.4802 1513.3223,726.32402 1513.8822,727.09661 1514.6269,728.12274 1515.1707,728.60593 1516.5081,729.08806 1515.6446,727.04176 1520.0595,727.3222 1522.0457,726.28324 1523.1545,725.70334 1524.3569,727.06646 1525.8106,727.08576 1526.3492,727.09376 1528.0869,725.81409 1528.3508,725.5018 1529.7784,723.81285 1531.6303,720.25411 1533.836,719.92105 1537.2718,719.40226 1541.438,719.72067 1544.9665,719.52944 1544.3307,718.7259 1543.6686,718.134 1543.6686,717.03099 1543.6686,716.15459 1544.2264,715.11247 1543.8908,714.25404 1543.5976,713.49643 1543.8658,713.79175 1543.0068,713.05616 1542.1215,712.29789 1541.1426,712.11223 1540.2957,713.20491 1539.7515,712.67887 1539.999,711.86432 1539.3494,711.5 1538.8002,711.19158 1538.6089,710.40597 1538.3353,709.88193 1537.5976,708.46849 1537.5477,706.88339 1536.8282,705.48592 1536.2232,704.31008 1536.2869,702.39492 1535.0929,701.4909 1533.9985,700.6623 1533.4509,699.7937 1532.5856,699.39631 1531.8794,699.07196 1530.9396,696.81934 1529.9893,695.67641 1529.1381,694.65231 1528.4462,693.79887 1527.0176,693.05922 1525.7272,692.39104 1524.2504,692.67394 1523.0209,691.96024 1521.1433,690.87119 1523.3568,690.09095 1523.553,688.94901 1523.7966,687.5406 1523.521,686.54396 1525.2296,686.47026 1526.3487,686.42136 1527.6502,686.88751 1528.7054,686.77483 1532.165,686.40449 1530.7673,682.33706 1530.5905,680.06621 1530.4808,678.85142 1530.4455,677.64691 1530.5905,676.45776 1528.0353,675.60607 1528.4378,678.4323 1528.2929,674.16279 1529.0195,674.76827 1529.4812,672.41933 1529.0575,671.9958 1527.7469,670.68495 1526.7407,668.08064 1524.9362,666.72718 1524.4851,666.38882 1523.5901,666.23102 1523.2367,665.87738 1523.0725,665.71082 1523.478,664.03276 1523.3654,663.58297 1523.1304,662.64298 1521.9173,657.98131 1522.3032,657.20962 1522.6893,656.43753 1523.3654,653.76021 1523.3654,653.00317 1523.3654,652.97097 1519.7585,652.79777 1519.3712,653.00317 1519.2932,653.47434 1519.6803,654.29874 1519.3712,654.91519 1518.8989,655.86014 1515.2361,654.80172 1514.57,655.46756 1514.508,655.52996 1516.4775,657.24822 1516.6095,657.37957 1517.6079,658.37776 1515.6865,661.80433 1517.2045,662.98802 1516.7023,664.49483 1515.0129,665.56182 1513.8478,666.72709 1513.221,667.35373 1513.1433,668.96105 1512.4882,669.61633 1511.0816,671.02278 1510.0231,673.01618 1508.7066,674.33262 1508.4515,674.58771 1507.4606,674.50261 1507.092,674.50261 1506.7919,674.50261 1505.4523,674.40056 1505.3074,674.54511 1505.2584,674.59371 1505.047,675.00744 1504.8827,674.8426 1504.3078,674.26766 1503.3496,673.9468 1502.6732,673.2705 1501.4655,672.06289 1500.6378,670.58893 1498.6793,670.12626 1497.9882,670.54102 1496.7325,671.09569 1496.0448,671.78334 1495.5319,672.29569 1496.2345,674.27007 1495.8742,674.63011 1495.3503,675.15406 1493.1884,674.76202 1492.2628,675.22496 1491.4589,675.62681 1490.3662,676.55361 1490.0107,677.26442 1489.8788,677.52686 1490.0237,678.1509 1489.7564,678.28418 1488.969,678.67793 1484.9909,679.04224 1484.4027,678.45417 1483.8628,677.91409 1483.5722,676.81755 1483.0431,676.07487 1481.9902,676.25035 1479.8928,676.22651 1478.4968,675.94739 1478.4028,675.92829 1477.8416,675.75376 1477.7322,675.86229 1477.238,676.35639 1473.7212,677.51394 1472.8458,677.22193 1472.5085,677.10948 1471.5667,676.66644 1471.2738,676.37218 1470.8257,675.92378 1471.1048,674.54609 1470.5938,674.03525 1470.4521,673.89368 1470.1308,673.58016 1469.9988,673.31294 1469.7976,672.91034 1469.7751,672.28183 1469.4466,671.95331 1469.2687,671.77521 1468.5117,671.90981 1468.2992,671.69831 1468.0546,671.45357 1468.1231,669.78016 1467.6196,669.27643 1467.2474,668.90432 1464.9538,669.6052 1464.5604,669.99876 1463.9873,670.57178 1462.4915,669.85804 1462.0109,670.33868 1461.3312,671.01024 1461.9969,672.4343 1461.3312,673.10045 1460.9059,673.52581 1460.271,673.90582 1459.844,674.33263 1459.5718,674.60503 1459.5189,675.20908 1459.2067,675.52234 1458.9172,675.81068 1458.762,676.01974 1458.0312,676.4001 1457.5722,677.80447 1457.3756,676.4825 1456.7883,676.81911 1456.6366,677.07317 1456.1989,677.42439 1455.7251,677.42439 L 1451.2645,677.42439 C 1451.1925,678.66886 1450.9011,679.33009 1450.4783,679.63952 1449.8693,680.47252 1449.2473,680.71752 1449.4783,681.90752 1449.7423,681.81252 1450.0043,681.71652 1450.2683,681.62052 1450.4813,682.42052 1450.0413,683.14052 1449.7683,683.85152 1451.0813,684.09052 1454.0813,683.70252 1455.0603,684.75552 1455.3451,684.88907 1455.4267,685.22589 1455.3606,685.71039 z" id="ss">
    <title>South Sudan</title>
  </path>
  <path class="landxx cmr" d="M 1336.1563,717.90855 C 1337.0993,717.10355 1337.6847,715.91618 1337.7263,714.72055 1337.7653,713.60364 1339.2271,711.443 1338.8146,710.67442 1338.3943,709.89129 1338.2233,709.57832 1339.3833,708.27555 1340.5339,706.98332 1341.6645,705.66668 1342.9355,704.48568 1343.6645,703.80668 1344.5848,703.51711 1344.9638,702.57611 1345.2908,701.76511 1346.5557,699.61449 1347.4587,699.35949 1348.4517,699.07849 1349.0293,700.39455 1350.2463,700.12855 1351.2103,699.91755 1351.2663,698.57755 1351.4863,697.82055 1351.6673,698.59055 1353.7392,700.69396 1354.4713,700.88955 1355.2036,701.0852 1355.4028,702.12113 1355.1169,702.90753 1354.9103,703.47582 1355.9449,704.32833 1357.0651,704.0648 1357.4036,703.48251 1359.2694,701.75891 1358.8103,700.71955 1358.4917,699.9984 1359.9983,699.03555 1360.5203,698.61755 1361.3883,697.92355 1360.5196,696.86821 1360.9886,695.93358 1361.908,694.10092 1363.2072,692.4248 1363.8344,690.12855 1364.1003,689.15513 1363.7474,688.12996 1364.0253,687.21055 1364.2405,686.49886 1365.3715,686.25372 1365.3143,685.07033 1364.9752,684.97123 1367.8258,685.35313 1368.4022,682.55655 1368.5322,681.92588 1369.6253,678.80555 1368.5573,678.59655 1369.7853,677.97055 1371.598,677.17455 1371.804,675.77155 1371.938,674.85655 1371.885,674.09908 1371.885,673.18308 1371.885,672.22908 1372.8446,672.31168 1373.275,671.65761 1373.7988,670.86154 1373.7387,669.73517 1374.0627,668.73598 1374.4006,667.69381 1374.7058,666.69283 1374.8403,666.06155 1375.1019,664.83419 1375.7967,662.53254 1377.0811,662.01402 1377.7513,661.74347 1381.7641,661.77313 1382.279,659.49921 1382.4239,658.85914 1381.7586,658.36075 1381.8543,657.61555 1382.0199,656.32573 1382.1037,655.58939 1382.3233,654.61055 1382.5802,653.46586 1380.4785,652.47938 1379.8033,652.69155 1379.2507,652.89674 1378.5298,651.71673 1378.2661,650.24109 1378.0548,647.89643 1378.1811,647.01678 1377.8473,646.34155 1378.7173,646.34155 1380.0676,646.26515 1380.7433,647.01939 1381.7466,648.13938 1380.7113,649.2605 1382.9291,649.87268 1384.0726,650.18834 1384.2048,652.85254 1384.2758,653.77364 1384.3468,654.6936 1384.1682,653.92248 1385.1187,654.82642 1387.0288,656.64301 1384.9718,662.0083 1385.2363,664.38755 1385.6039,667.69369 1387.1713,671.46755 1390.1553,673.12555 1388.9517,674.16385 1387.4272,673.67437 1386.4423,673.18375 1385.4392,673.27825 1385.2141,673.43604 1384.1511,673.4765 1381.9241,673.5612 1379.6557,672.11795 1378.5273,673.95456 1377.1575,676.18399 1377.3265,676.56984 1379.1485,678.65584 1380.9735,680.74584 1382.9798,682.55984 1384.9878,684.46784 1385.5948,685.04384 1386.3938,685.92703 1386.7978,686.67969 1387.5843,688.14465 1388.2391,691.13678 1389.1024,692.56256 1389.9804,694.01267 1388.2197,695.03087 1387.7806,695.61853 1387.0809,696.55492 1386.1184,698.72205 1385.4872,700.23928 1385.278,700.74222 1384.779,701.52075 1384.573,702.03175 1384.193,702.97575 1383.6137,703.72758 1383.176,704.64837 1382.5691,705.92505 1379.4444,707.18058 1381.2413,707.90269 1382.5552,708.43068 1382.443,709.77256 1382.264,711.51756 1382.183,712.30656 1382.139,713.01615 1381.698,713.69315 1381.748,713.61615 1382.6551,714.86443 1382.6691,714.95443 1382.8921,716.42643 1382.5397,718.6803 1383.5187,719.86184 1384.124,720.59233 1384.9341,720.86622 1385.208,722.00137 1385.4121,722.84726 1385.7743,723.98356 1386.5553,724.53356 1384.0895,724.59656 1389.642,731.14301 1390.1144,731.52056 1391.3152,732.48029 1392.9949,733.04741 1393.21,733.91456 1393.3716,734.56558 1393.4981,734.92337 1393.5271,735.55637 1393.6001,737.15837 1393.9683,738.82256 1394.3243,740.37256 1392.4464,741.25099 1394.5284,744.37643 1393.3243,745.26856 1392.2523,744.21556 1391.0673,743.26856 1389.6173,742.80456 1388.9883,742.60256 1387.1088,741.84035 1386.598,742.18215 1385.9401,742.62232 1384.6321,742.54568 1384.223,741.56315 1384.203,741.51425 1382.0236,741.09853 1381.8106,741.01453 1381.1326,740.74853 1379.2123,740.95053 1378.3273,740.89856 1376.7143,740.80556 1375.0748,740.82556 1373.4668,740.59853 1373.1938,740.56053 1372.3983,740.81456 1372.0853,740.66153 1371.4803,740.36453 1372.3563,739.75453 1371.2313,739.86653 1369.7453,740.01353 1368.4463,740.25453 1366.9323,739.92953 1365.1553,739.54853 1363.7003,739.84753 1361.9153,739.79253 1360.7513,739.75653 1358.6653,739.09453 1357.5613,739.70353 1357.2463,739.87753 1357.3653,740.80653 1357.0263,740.80653 1355.9243,740.80653 1354.8233,740.80653 1353.7213,740.80653 1352.1853,740.80653 1350.6593,740.86353 1349.1253,740.89753 1345.8333,740.97153 1345.1273,739.16253 1345.8203,736.10853 1346.2153,734.36853 1346.8153,732.48153 1345.8753,730.79753 1345.4323,730.00353 1343.9093,728.65953 1345.5153,728.13353 1344.6103,728.65353 1342.8563,727.79753 1343.9083,726.74953 1344.4623,726.19753 1345.6953,725.23953 1344.0753,725.18153 1344.3903,724.83353 1344.5563,724.42553 1344.5753,723.95753 1344.0683,725.18953 1343.5303,724.20953 1342.7053,724.24553 1343.0103,724.65353 1343.2253,724.94553 1342.7053,724.67753 1342.7373,725.07153 1342.6903,725.45553 1342.5653,725.82953 1341.9033,725.80553 1341.5833,725.29353 1341.7753,724.67753 1341.2043,725.71853 1339.5693,724.41353 1339.3583,723.64753 1339.0253,722.43653 1338.9553,720.36553 1338.0943,719.42153 1337.1053,720.63953 1337.2963,719.20553 1336.6543,719.20553 1336.7703,719.67953 1336.8433,720.15853 1336.8743,720.64453 1334.8313,720.90053 1335.9433,718.98453 1336.1563,717.90853" id="cm">
    <title>Cameroon</title>
  </path>
  <path class="landxx mli" d="M 1178.5463,631.79755 C 1179.8973,631.47255 1180.5003,632.20355 1181.5993,630.79455 1182.5263,629.60555 1182.1103,627.04555 1182.5633,625.56355 1183.5913,622.17855 1188.2933,627.78655 1188.7763,628.84555 1189.6743,626.38355 1191.1693,625.03455 1194.0003,626.18355 1195.8613,626.93855 1199.8063,626.80455 1200.2163,624.23655 1201.2763,626.80455 1206.5013,625.65655 1208.5463,625.50055 1213.5483,625.11855 1218.6803,625.38955 1223.6953,625.38955 1225.4613,625.38955 1227.6374,625.18382 1229.3838,625.36215 1230.6668,625.49318 1230.2948,623.36008 1230.4193,622.26353 1230.5603,621.02183 1231.7691,618.63 1230.4713,617.80553 1228.2296,616.38135 1228.8296,615.12309 1228.8443,613.31353 L 1223.6153,543.23753 1236.8626,543.24453 C 1250.5584,553.50818 1263.4102,563.72688 1276.3665,573.90557 1277.9234,575.03139 1280.8498,576.15875 1280.6323,578.50263 1280.5643,579.23622 1280.4606,579.88986 1281.7742,580.41686 1282.4129,580.67308 1283.1226,580.85209 1283.6646,581.21409 1284.5696,581.81809 1284.4206,582.90409 1285.1436,583.62709 1285.8316,584.31509 1286.5499,584.40946 1287.4373,584.56295 1288.0818,584.67442 1287.6054,583.97027 1288.7594,584.54365 1289.587,584.95491 1289.9463,586.05092 1290.8923,586.34892 1292.3663,586.81492 1294.3411,586.9387 1295.7061,587.7457 1296.7021,588.3347 1296.4128,591.10306 1295.9888,592.06706 1295.3988,593.40806 1294.5388,594.68019 1296.6728,594.98519 1298.9298,595.30919 1301.4862,594.10733 1303.7162,593.83033 1303.4264,599.97333 1304.3028,606.49782 1303.5068,612.58246 1303.4148,613.28151 1303.631,613.75792 1303.1053,617.08792 1302.9335,618.17644 1303.3182,616.78808 1301.7928,619.98892 1301.3242,620.97202 1301.3513,622.16092 1300.9243,623.17492 1300.5123,624.15192 1299.5603,624.44992 1298.7813,625.05192 1297.8233,625.79092 1298.4763,626.76492 1297.1623,626.54092 1296.8623,626.48992 1294.2403,625.78992 1294.1203,626.24392 1293.8053,627.43192 1285.6115,627.03024 1284.3695,627.12924 1281.3285,627.37124 1281.3913,626.99792 1279.2393,629.35092 1278.5643,630.08992 1277.2363,630.35192 1276.2893,630.14292 1275.7413,630.04292 1274.4873,630.03078 1273.9313,630.04482 1272.9413,630.02582 1273.0053,629.26496 1273.0053,630.50396 1272.2873,630.23296 1271.6019,629.88887 1270.8933,629.59196 1269.189,628.87783 1268.7799,630.07489 1268.1338,629.59796 1267.505,629.13363 1266.4288,628.5253 1265.0153,629.7851 1263.5425,631.09778 1261.4052,632.19329 1260.564,632.75677 1259.1505,633.70348 1258.1129,634.44913 1256.6673,634.8131 1255.479,635.11229 1256.4463,637.6291 1254.6863,636.8581 1253.6033,636.3841 1252.6158,635.72583 1251.4678,636.52083 1250.4918,637.19783 1249.9643,638.4421 1249.6073,639.5111 1249.4033,640.1221 1249.1267,641.1026 1248.8397,641.6816 1248.5907,641.51044 1246.9973,641.12161 1246.3653,641.0171 1246.9313,642.0271 1246.3843,643.5201 1246.5153,644.6181 1245.5413,644.5841 1244.7613,644.4251 1245.0053,645.6261 1243.9713,645.5231 1240.9853,644.0111 1241.0453,642.7451 1239.1497,647.2856 1237.7443,645.14461 1238.7023,646.7631 1239.2324,647.6586 1239.2524,648.33731 1239.0389,649.10937 1238.9519,649.42445 1236.6752,649.02517 1237.2282,649.97901 1238.2474,651.7373 1237.7975,653.63036 1235.8237,655.29735 1234.9056,656.07273 1233.8113,655.7581 1232.7003,655.9601 1231.6623,656.1481 1231.0803,657.2751 1229.9553,657.2191 1231.9533,657.72084 1230.5053,658.76258 1231.1116,659.11497 1232.1402,659.7129 1231.2631,662.35853 1230.6954,663.30385 1230.5081,663.61585 1229.4368,663.74684 1229.5013,664.0471 1229.8267,665.5611 1230.0235,667.4321 1228.9803,668.7951 1228.5615,669.34234 1227.3393,669.3221 1226.7483,669.4861 1225.5113,669.8301 1226.1523,671.4731 1224.5893,671.3301 1222.8573,671.1711 1223.9943,667.7181 1223.4053,666.6501 1222.7323,666.9281 1222.6053,668.1311 1221.9653,668.3061 1221.2983,668.4881 1220.7923,667.5691 1220.3053,667.2981 1220.2663,668.1161 1220.7043,670.1681 1219.4673,670.1501 1218.5413,670.1351 1217.2403,670.2071 1218.0063,671.4741 1216.8723,671.9761 1214.0333,670.5751 1214.1863,669.1701 1213.6033,669.4291 1212.6603,669.1301 1212.2163,669.6641 1211.5203,670.5021 1211.6113,671.5001 1210.2263,671.6181 1211.2483,669.7151 1207.8733,669.4341 1207.8653,667.8151 1207.8653,666.7801 1208.1253,665.5721 1207.8823,664.5651 1207.5353,663.1291 1205.6293,664.8081 1204.9663,664.7771 1205.2193,663.8551 1205.9523,661.4201 1207.3463,661.8971 1207.8503,660.5081 1204.9923,659.9951 1204.8263,658.6571 1203.9183,659.1731 1204.0003,658.1521 1204.0833,657.5711 1204.2693,656.2591 1203.7423,655.7541 1203.1873,654.6551 1202.7503,653.7891 1203.3003,652.5621 1202.2833,652.0551 1201.8873,651.8571 1200.5053,651.0911 1200.0953,651.4771 1199.6443,651.9011 1201.0973,652.9681 1200.1203,653.4291 1199.0133,653.9511 1198.1413,654.8371 1197.0233,655.3951 1196.2483,655.7821 1195.3803,654.6671 1194.7463,654.4081 1193.3763,653.8491 1192.3203,653.9491 1191.3493,655.1061 1188.9083,658.0161 1190.2473,654.5501 1188.1273,653.8331 1186.7503,653.3681 1185.2953,657.7711 1183.9453,654.3741 1183.5133,653.2881 1185.3083,652.2941 1184.4393,651.0681 1183.9393,650.3621 1184.3313,648.6791 1184.6023,647.9401 1184.9213,647.0681 1182.2663,642.0991 1181.7173,644.2571 1181.0933,644.0801 1180.1003,642.1471 1179.8253,641.5601 1179.5783,641.0321 1180.3763,639.9741 1180.3463,638.9291 1180.3023,637.3591 1180.4813,636.6911 1179.3703,635.4561 1178.9843,635.0271 1178.5803,634.5151 1178.8373,633.8971 1179.2753,632.8381 1178.9703,632.8391 1178.5463,631.7981" id="ml">
    <title>Mali</title>
  </path>
  <path class="landxx cod" d="M 1363.8063,809.49855 C 1364.4923,808.97755 1365.3416,809.41875 1365.6106,808.48674 1365.8286,807.73174 1366.451,804.76555 1365.921,804.15855 1364.534,802.57055 1369.9153,800.17055 1370.9263,799.26755 1371.1993,800.41455 1372.8793,800.58155 1372.9463,801.78855 1373.4843,801.22955 1374.1953,800.89855 1374.7933,800.41755 1375.6093,799.76155 1375.2683,798.57255 1375.9763,797.82855 1377.1763,799.41955 1378.9733,796.37555 1380.3903,797.08455 1381.7403,797.76055 1380.4943,798.06155 1380.2863,798.90855 1380.0533,799.85955 1380.6563,800.90155 1380.6563,801.85755 1381.2553,801.08555 1382.5783,802.05955 1383.3863,801.49855 1384.5793,800.66955 1385.3203,799.09455 1386.2283,797.98255 1386.6993,797.40655 1388.6143,796.48155 1388.7153,795.95855 1388.9843,794.57655 1390.1343,794.24555 1391.2763,793.75855 1393.9333,792.62455 1394.4093,787.62055 1394.3453,785.23055 1394.2963,783.41155 1394.4623,781.76755 1394.2333,779.95155 1394.0143,778.20955 1396.207,777.76255 1396.9426,776.38455 1398.6756,773.13802 1398.5434,771.08368 1402.0653,768.69255 1403.5473,767.68636 1404.4503,766.50355 1405.4343,765.11555 1406.4143,763.73355 1405.7063,761.71555 1406.1043,760.13055 1406.4543,758.73855 1407.1353,752.76255 1407.1953,751.19555 1407.2633,749.42455 1408.2893,747.87155 1408.5803,746.14555 1408.8623,744.47455 1408.3743,742.70755 1408.7503,741.05355 1409.4573,737.93955 1411.3169,735.39202 1412.3819,732.43102 1413.0009,730.71102 1412.7033,728.89755 1412.6553,727.14355 1412.6333,726.33455 1413.0083,725.48655 1412.8793,724.69555 1412.7653,723.99055 1412.3453,723.40255 1412.1523,722.72455 1411.8463,721.64655 1413.7273,721.67555 1414.1583,720.69255 1414.7543,719.33555 1415.3823,718.14355 1416.4103,717.04555 1417.3943,715.99355 1418.6253,715.09355 1420.1323,715.10455 1421.4083,715.11355 1421.9183,716.21655 1422.7333,716.39755 1424.6273,716.81655 1426.3833,718.86355 1427.0903,720.60355 1427.6663,722.02455 1429.7083,720.96355 1430.8613,721.31055 1431.4863,721.49855 1431.7953,722.34355 1432.5143,722.30955 1433.1513,722.27855 1433.2823,722.16455 1433.9403,722.50055 1434.9313,723.00655 1435.1293,722.49855 1436.1023,722.43655 1436.7523,722.39455 1437.4673,722.73855 1438.0633,722.95855 1439.1383,723.35655 1440.6063,724.13155 1441.7793,723.71855 1443.8763,722.98055 1443.2323,717.96955 1446.0273,717.83855 1447.6163,717.76255 1448.0403,720.98055 1450.1153,719.01555 1450.9923,718.18455 1457.0533,717.38255 1456.6873,715.39055 1457.9423,715.33655 1458.3633,717.05955 1459.5683,716.93855 1461.0153,716.79255 1463.4953,716.57455 1464.0973,715.03055 1464.3223,714.45455 1463.7423,713.87955 1464.5033,713.49755 1465.4363,713.03155 1466.2023,713.30955 1466.9303,714.02555 1468.0963,715.17255 1469.1773,713.82255 1470.4663,714.43355 1471.1043,714.73555 1471.6323,715.21555 1472.2573,715.53855 1472.9853,715.91455 1473.5043,715.59455 1474.2753,715.71055 1476.1053,715.98555 1476.8153,713.95455 1478.7453,715.04855 1479.4793,715.46455 1482.0273,717.06955 1482.0273,718.01855 1482.0273,718.48355 1482.6303,719.63055 1483.0813,719.81455 1484.9773,720.58755 1486.7843,723.38155 1488.8093,721.47355 1489.9563,720.39155 1490.8033,720.17555 1492.3253,720.91855 1493.8893,721.68355 1494.5111,721.37409 1495.4343,719.55555 1496.6509,717.15905 1499.7571,723.16319 1499.9163,723.55555 1500.6284,725.31003 1505.367,725.5411 1503.9183,728.27855 1504.8393,728.06255 1505.9533,728.00555 1506.1833,729.17855 1506.2993,729.49155 1506.4583,729.78155 1506.6623,730.04555 1506.7913,730.64755 1505.97,731.77341 1506.0597,732.40068 1506.3476,734.41308 1506.0057,736.41592 1505.7198,738.33424 1505.569,739.34482 1506.3192,739.21208 1507.453,739.0118 1507.9738,738.9198 1509.9611,740.3074 1509.5985,741.40849 1508.733,744.03698 1505.4703,746.64455 1503.5943,748.59255 1502.9738,749.23655 1501.7247,750.95036 1500.9734,751.58286 1500.2222,752.21536 1500.1491,751.67646 1499.7176,752.50142 1499.1776,753.53542 1499.8383,754.79755 1499.1833,755.85555 1498.4573,757.02955 1497.7353,758.79855 1497.5803,760.18055 1497.4413,761.41855 1497.4583,762.66955 1497.3723,763.91155 1497.2713,765.36455 1497.076,766.63355 1496.927,768.01355 1496.819,769.02255 1497.0773,770.43855 1496.6133,771.36255 1496.0863,772.41355 1495.2337,772.80824 1494.4647,773.65924 1493.2747,774.97624 1493.3742,775.40055 1493.3312,776.94555 1493.3032,777.96355 1492.2122,779.10936 1491.6612,779.83636 1490.4452,781.43936 1492.1385,783.11379 1493.0776,784.6413 1493.7849,785.79167 1494.3011,786.60032 1493.7753,788.18524 1491.8638,789.85939 1494.1815,795.11705 1492.3734,796.84412 1493.6905,797.60071 1493.4499,794.20669 1493.9067,794.78129 1494.3593,797.4537 1492.6868,799.39177 1492.6738,802.01104 1492.6568,805.4135 1495.5232,806.98042 1494.3172,809.33255 1493.6208,810.69078 1492.8882,810.98973 1493.4768,811.86514 1494.3774,813.20471 1494.7597,815.41345 1496.5385,818.89733 1497.7272,821.22547 1501.124,820.78883 1501.331,826.39662 1501.412,828.59797 1503.13,827.39032 1503.7904,830.76699 1499.0834,831.83999 1495.6123,831.96255 1490.8923,832.97255 1492.8433,836.19655 1487.7803,837.53655 1486.8623,839.95155 1489.5783,840.78955 1488.6763,844.98655 1488.4933,847.03755 1488.3593,848.53055 1488.9253,849.94055 1488.8383,851.41855 1488.7923,852.19355 1488.6237,852.93005 1488.3147,853.59905 1487.8677,854.56705 1487.5543,855.29655 1487.3063,856.31855 1486.8173,858.32455 1486.1363,859.4723 1487.4103,861.4123 1488.2963,862.7623 1489.9285,864.46042 1491.0995,865.56742 1491.6245,866.06442 1494.4031,867.76756 1494.6203,866.73355 1495.0061,864.89719 1495.4884,865.24047 1497.2933,864.72155 1497.2933,867.61855 1497.1963,870.52655 1497.1183,873.42255 1497.1053,873.86955 1497.4393,875.77855 1496.6893,875.85355 1495.8113,875.94155 1495.6153,874.92555 1496.2223,874.44055 1494.9243,872.84755 1492.0133,877.81686 1490.6423,874.83286 1490.1853,873.83886 1489.757,872.57855 1489.087,871.67755 1488.706,871.16555 1487.6855,870.50655 1487.5675,869.90155 1487.3365,868.71855 1487.1023,867.34655 1485.6123,867.30455 1484.3643,867.26955 1483.8313,865.96455 1482.6323,865.82055 1481.6303,865.69955 1481.0163,866.4558 1480.3233,865.3548 1479.7873,864.5008 1479.7712,863.25655 1478.9882,862.55555 1477.8732,861.55555 1477.0804,858.07961 1476.1084,861.19761 1475.1054,864.41361 1473.35,862.72268 1470.841,862.81168 1469.15,862.87168 1468.7502,862.33474 1467.3232,861.68774 1467.2272,861.64474 1465.7272,861.28674 1465.6852,861.29374 1463.4092,861.69374 1462.7293,858.23155 1463.5323,856.65255 1462.1343,856.73155 1460.7289,857.02778 1459.4233,857.52255 1457.819,858.13051 1457.4797,858.92297 1455.6833,858.17255 1456.3754,856.93458 1456.416,855.30122 1455.8173,855.32955 1455.0379,855.36645 1454.7117,854.70298 1454.1709,854.19011 1452.9149,852.99914 1453.0879,854.40483 1452.7903,854.5078 1451.6777,854.89281 1451.1893,854.83555 1450.1853,854.5766 1448.9793,854.2636 1448.23,855.10736 1447.1613,855.48485 1445.7885,855.96975 1444.9152,855.04797 1444.026,855.2016 1443.7067,855.2568 1442.4373,855.1176 1442.3973,855.1386 1441.5383,855.6016 1441.0983,856.8996 1439.9153,856.8706 1440.1823,855.9816 1439.6493,855.2836 1439.4943,854.4486 1439.2803,853.3016 1440.072,853.09647 1440.324,852.21447 1440.907,850.16947 1440.1073,846.6196 1438.8653,844.9746 1437.3523,842.9676 1436.7043,841.7116 1436.8943,839.1136 1437.0903,836.4286 1438.0271,833.6116 1437.3291,830.9396 1437.0611,829.9186 1436.3351,829.0326 1436.3501,827.9496 1436.3681,826.7256 1437.0423,825.5796 1437.1353,824.3646 1437.2893,822.3626 1435.9933,822.58485 1434.3713,822.56985 1432.8273,822.55685 1431.2924,822.52935 1429.7523,822.59455 1426.5894,822.72855 1427.0718,822.03755 1427.9643,819.36055 1427.2553,819.36055 1426.5595,819.18068 1425.8695,819.45065 1425.4025,819.63265 1425.7463,819.83552 1425.4843,820.05952 1424.6473,820.77652 1420.8023,820.15052 1419.6843,820.15052 1420.0573,821.09652 1419.3646,822.20352 1419.5256,823.21452 1419.6566,824.03152 1419.6873,825.32852 1418.3843,825.05052 1418.8083,826.29652 1418.0543,827.53252 1418.3143,828.79052 1417.7853,828.78552 1414.3438,828.90527 1413.7853,828.58152 1412.1388,827.62712 1409.2379,829.40952 1408.6763,829.45952 1407.3669,829.24698 1406.1356,829.30884 1404.7043,829.31614 1402.8843,828.93614 1402.097,825.15252 1401.184,823.81852 1400.862,823.34852 1400.6123,823.01152 1400.2813,822.54452 1399.6693,821.68052 1399.949,821.06052 1399.821,820.13952 1399.594,818.50052 1397.8812,817.42441 1398.127,815.68371 1398.3479,814.11926 1398.127,812.81315 1397.3879,811.89852 1396.3636,810.62226 1396.3821,810.1521 1394.7893,810.22852 1390.4033,810.43896 1386.0553,810.61088 1381.6763,810.36127 1378.1393,810.15965 1373.9983,810.74452 1370.5253,810.07552 1367.7473,809.53952 1365.4453,813.67652 1363.8063,809.49852" id="cd">
    <title>Congo, the Democratic Republic of the</title>
  </path>
  <g class="landxx ago" id="ao" transform="translate(-29.9017,-45.0745)">
    <title>Angola</title>
    <path d="M 1390.038,953.923 C 1389.929,950.414 1390.879,946.873 1390.482,943.353 1390.42,942.809 1390.019,942.285 1390.245,941.728 1390.568,940.932 1391.445,940.469 1391.795,939.641 1392.076,938.977 1392.108,938.26 1392.201,937.556 1392.285,936.922 1393.121,936.146 1392.912,935.609 1392.465,934.463 1394.028,931.381 1394.278,930.094 1394.635,928.257 1394.243,926.262 1395.272,924.65 1395.957,923.576 1395.523,921.33 1396.314,920.636 1397.127,919.923 1398.443,918.376 1398.954,917.415 1399.709,915.996 1399.245,913.75 1401.543,913.54 1403.16,913.393 1403.302,912.153 1404.101,910.757 1405.997,907.443 1406.533,902.306 1405.658,898.635 1405.254,896.94 1404.588,895.733 1403.634,894.3 1402.64,892.808 1402.608,891.649 1402.061,890.088 1401.812,889.376 1401.178,888.839 1401.082,888.078 1400.964,887.147 1401.102,886.285 1400.689,885.409 1400.077,884.109 1398.864,882.428 1400.688,881.496 1400.201,881.849 1399.852,882.393 1399.898,883.016 1400.286,882.285 1400.713,881.537 1401.308,880.952 1401.784,880.484 1402.553,880.513 1402.636,879.764 1402.851,877.812 1402.454,876.021 1401.52,874.315 1400.469,872.396 1399.918,870.385 1399.103,868.364 1398.742,867.468 1398.77,866.471 1398.509,865.549 1398.121,864.178 1396.853,863.252 1396.148,862.058 1395.571,861.081 1393.56,857.674 1395.313,857.132 1396.122,856.882 1396.957,856.877 1397.787,856.769 1398.941,856.618 1399.51,855.581 1400.786,855.458 1406.678,854.892 1412.631,855.564 1418.554,855.43 1420.802,855.379 1423.105,855.2 1425.351,855.281 1427.461,855.358 1427.01,856.797 1427.989,858.151 1428.397,858.715 1428.021,860.422 1428.209,861.174 1428.546,862.528 1429.209,863.762 1429.711,865.055 1430.101,866.057 1429.498,866.934 1430.342,867.832 1431.243,868.79 1431.475,869.487 1432.015,870.653 1432.348,871.37 1433.899,874.744 1434.92,874.462 1435.533,874.293 1438.642,874.532 1438.639,874.525 1438.479,874.132 1441.989,873.117 1442.628,873.259 1444.426,873.658 1446.076,873.869 1448.208,873.869 1447.948,872.611 1448.703,871.375 1448.278,870.129 1449.342,870.357 1449.439,869.339 1449.304,868.564 1449.117,867.491 1449.948,866.17 1449.578,865.229 1451.429,865.229 1453.285,865.265 1455.135,865.249 1455.688,865.244 1455.364,864.6 1455.815,864.447 1456.458,864.228 1457.201,864.44 1457.859,864.44 1457.447,866.503 1456.32,867.68 1458.943,867.68 1461.235,867.68 1463.548,867.559 1465.837,867.61 1467.737,867.652 1467.39,869.553 1466.948,870.834 1466.701,871.553 1466.376,872.287 1466.311,873.053 1466.21,874.267 1467.262,875.493 1467.479,876.706 1467.934,879.254 1466.988,882.073 1466.79,884.634 1466.583,887.305 1467.526,888.355 1469.059,890.355 1470.141,891.767 1470.683,895.422 1470.357,897.15 1470.243,897.759 1469.668,898.146 1469.455,898.725 1469.059,899.801 1470.145,900.834 1469.809,901.95 1470.739,901.973 1471.567,900.646 1472.325,900.238 1472.976,899.888 1474.943,900.414 1475.664,900.613 1476.942,900.966 1478.454,899.528 1479.82,899.581 1481.124,899.632 1482.579,900.441 1483.13,898.711 1483.7401,899.59164 1483.814,902.39163 1483.6307,903.388 1483.3772,904.76655 1483.4004,906.14151 1483.062,907.506 1482.6546,909.14843 1483.697,910.647 1483.269,912.251 1482.837,913.869 1481.679,915.188 1483.059,916.711 1480.222,917.90792 1476.2469,917.33165 1473.2206,917.31472 1471.7037,917.30672 1469.9253,916.94057 1468.4168,917.14236 1467.0908,917.31975 1467.7529,922.25589 1467.6925,923.836 1467.5319,928.03864 1467.7625,931.00498 1467.6015,934.221 1467.4414,937.42459 1467.6115,940.69 1467.5235,943.901 1467.4335,947.18315 1469.7145,948.06 1471.6045,950.402 1473.6205,952.9 1475.6525,955.407 1478.3795,957.18 1473.9225,958.047 1469.4385,958.805 1465.0395,959.945 1463.2865,960.4 1462.6115,959.956 1460.9495,959.77 1460.2075,959.687 1459.5765,960.043 1458.9005,960.267 1457.8025,960.631 1456.7555,960.096 1455.7065,959.808 1451.9745,958.787 1447.9785,959.198 1444.1825,958.605 1442.5545,958.351 1441.7249,956.94157 1440.9495,955.675 1440.2596,954.54808 1438.0543,955.01276 1436.8955,955.067 1427.5884,955.50266 1418.0215,955.09 1408.7015,955.09 1406.7815,955.09 1406.5745,954.971 1404.9185,953.672 1403.2535,952.366 1401.9378,950.74182 1399.6955,951.736 1398.0415,952.46933 1396.3256,954.46714 1394.4365,953.565 1392.1213,952.45938 1391.7908,953.6026 1390.0385,953.923" id="path3888"/>
    <path d="M 1392.268,848.013 C 1393.561,847 1395.016,844.403 1396.715,844.062 1397.471,843.911 1397.403,842.689 1398.238,842.693 1399.175,842.697 1399.776,844.186 1400.398,844.704 1398.884,845.741 1397.518,846.663 1396.21,847.971 1395.57,848.61 1395.754,848.611 1396.045,849.348 1396.455,850.387 1396.225,851.615 1396.13,852.689 1396.001,854.147 1393.262,855.332 1393.243,853.423 1393.233,852.37 1393.799,852.123 1393.475,850.959 1393.237,850.103 1391.935,848.663 1392.988,847.874 1392.748,847.919 1392.508,847.966 1392.268,848.013" id="path3890"/>
  </g>
  <path class="landxx ner" d="M 1272.9353,634.74955 C 1271.8763,633.49755 1273.1133,631.21555 1273.0053,629.78155 1274.2803,630.22855 1275.8523,630.10155 1277.1903,630.11655 1278.7673,630.13455 1279.1673,629.32655 1280.1023,628.24355 1281.2273,626.93955 1282.5363,627.26455 1284.1433,627.13955 1286.1913,626.97955 1288.2333,626.79255 1290.2893,626.75155 1291.2593,626.73255 1292.2093,626.73255 1293.1733,626.84555 1295.0723,627.06755 1293.2833,626.26355 1294.1753,626.03655 1295.5993,625.67155 1297.4643,627.59255 1298.0853,625.96555 1298.6303,624.53755 1300.3043,624.33955 1300.8673,623.04755 1301.4433,621.72255 1301.4243,620.30255 1302.1563,619.01055 1303.6843,616.31555 1303.3433,613.33155 1303.4963,610.25155 1303.7163,605.86155 1303.6463,601.46455 1303.6223,597.07055 1303.6073,594.33955 1303.8463,593.62855 1306.5593,592.99755 1308.9613,592.43855 1311.4453,592.30655 1313.8403,591.71755 1316.6663,591.02255 1318.5273,588.24455 1320.5303,586.29755 1323.4403,583.46855 1326.2263,580.38755 1329.4333,577.89155 1335.9693,572.80455 1343.2193,568.19755 1350.2003,563.74455 1353.4893,561.64655 1356.6473,559.34955 1359.9353,557.25055 1363.0133,555.28555 1367.1423,557.30255 1370.4193,558.19655 1373.2833,558.97955 1375.5903,560.84355 1377.5453,563.02255 1378.3893,563.96155 1378.6493,564.00555 1379.6813,563.29655 1381.1443,562.29255 1382.7163,561.48655 1384.2443,560.58855 1384.9693,564.40655 1385.5653,568.14355 1385.8633,572.00955 1385.9823,573.54655 1386.8843,574.60555 1387.6783,575.85855 1388.1313,576.57355 1388.5443,577.32255 1388.8513,578.11355 1389.1403,578.85455 1388.3263,579.45455 1388.9653,580.18755 1389.7883,581.13055 1391.1703,581.93355 1391.5183,583.20855 1391.9443,584.76855 1390.1693,586.37955 1390.0243,587.94055 1389.5923,592.59655 1388.8533,597.23655 1388.8533,601.92355 1388.8533,603.94355 1388.6473,605.95455 1388.5883,607.97255 1388.5413,609.59555 1388.7633,611.57955 1388.2213,613.13555 1387.7533,614.47655 1386.4153,615.61955 1385.5503,616.71455 1384.1473,618.49055 1382.6193,620.16255 1381.1963,621.92255 1378.8583,624.81655 1376.8733,628.13155 1375.5733,631.60655 1375.2603,632.44455 1374.8853,633.26055 1374.3123,633.95855 1374.0383,634.29155 1373.4673,634.19855 1373.2603,634.60455 1372.6113,635.87455 1374.1783,639.47355 1374.3823,640.87155 1373.6933,640.87155 1372.8073,640.69755 1372.1883,641.10155 1371.5313,641.53055 1371.6413,641.99155 1370.8933,642.32155 1369.2273,643.05555 1368.0213,643.73355 1366.7573,645.06455 1364.8113,647.11455 1363.6533,646.22255 1361.2903,645.26255 1358.5243,644.13955 1356.0393,643.98955 1353.0863,643.91155 1350.5613,643.84555 1348.3833,644.30655 1346.4623,646.04255 1345.8083,646.63355 1345.3283,647.31155 1344.8303,648.02755 1343.9703,649.26655 1343.4513,648.47955 1342.2083,648.59355 1339.2983,648.86055 1338.0493,647.38955 1335.6193,646.41855 1333.8423,645.70755 1331.8103,643.20355 1329.6683,644.33655 1328.8583,644.76455 1328.2463,645.47455 1327.4563,645.93355 1326.8483,646.28655 1325.8893,645.75355 1325.6163,646.34255 1324.4923,648.76355 1322.5383,645.76355 1322.0813,644.75555 1321.0033,642.37855 1319.3473,641.46855 1316.9353,641.03355 1315.5623,640.78655 1314.5253,639.62555 1313.1233,639.49755 1311.8813,639.38355 1311.3883,640.67255 1310.0663,640.64555 1307.6803,640.59855 1305.5003,640.39855 1303.7573,642.38155 1303.1843,643.03255 1302.5833,643.35055 1302.5043,644.24455 1302.3733,645.72655 1302.3283,646.97255 1301.4413,648.22055 1300.2453,649.90555 1298.7843,651.01855 1298.8663,653.25755 1298.8843,653.72855 1298.6263,658.50955 1298.3343,658.34555 1296.9143,657.54455 1293.8563,652.14455 1292.3683,652.32555 1291.9003,652.38255 1291.7063,652.95255 1291.2923,653.11055 1290.7423,653.32055 1289.5143,653.16655 1289.1453,653.72955 1288.9553,654.01855 1289.7833,656.41155 1289.2183,656.39355 1288.7123,656.37755 1287.5503,654.24855 1287.3113,653.85655 1286.5323,652.57755 1287.1353,652.31455 1288.2023,651.88755 1287.8613,651.17555 1287.7943,650.18555 1287.1243,649.67155 1285.9133,648.74455 1285.1663,650.67455 1283.9103,650.45255 1281.5723,650.03855 1277.7573,646.34555 1278.8423,643.89555 1279.4963,644.37055 1280.1383,644.38855 1280.8523,644.04055 1280.5033,643.74655 1275.9663,640.56155 1275.8163,640.86955 1276.1473,640.19255 1274.4683,638.92255 1274.2483,638.16555 1273.8723,636.86355 1274.1743,635.65255 1272.9353,634.74955" id="ne">
    <title>Niger</title>
  </path>
  <path class="landxx zmb" d="M 1437.6063,899.49855 C 1437.6063,891.31455 1437.6353,883.10491 1437.7398,874.92191 1437.7508,874.04491 1437.4343,872.23955 1438.6543,871.97255 1439.7223,871.73955 1441.0403,872.04155 1442.1273,872.07055 1445.7623,872.16555 1449.6243,872.79555 1453.1553,871.62855 1452.0103,870.36555 1452.5923,869.23455 1453.1313,867.86855 1453.7843,866.20855 1452.9073,864.91055 1452.9943,863.25455 1453.1563,860.18955 1454.4713,856.67755 1453.2253,853.62855 1454.3733,853.64755 1454.2605,854.89751 1455.4543,855.14355 1456.7752,855.41579 1456.1873,857.37681 1455.6753,858.16855 1457.2633,858.51755 1457.1173,858.47755 1458.6643,857.80455 1460.1683,857.15055 1461.8893,856.74055 1463.5243,856.64855 1462.9363,857.80455 1463.2253,859.90955 1464.1423,860.82855 1464.8623,861.54955 1466.0393,861.10555 1466.9313,861.51455 1468.2273,862.10955 1469.1689,862.67755 1470.6459,862.69755 1473.0279,862.72955 1475.2383,864.30155 1476.0813,861.26955 1476.9993,857.96555 1477.9753,861.65855 1479.1223,862.66155 1479.9073,863.34655 1479.8013,864.44655 1480.3703,865.27955 1481.2783,866.60955 1482.2762,865.34935 1483.0677,865.86973 1484.2651,866.65697 1484.7279,867.37455 1486.0261,867.35291 1487.5542,867.32741 1487.1963,869.82655 1488.2153,870.76955 1489.7103,872.15355 1489.9923,873.31555 1490.8413,875.08655 1491.9123,877.32155 1495.0343,872.99055 1496.2153,874.43955 1495.7003,874.84955 1495.6793,875.53355 1496.3363,875.79555 1497.4893,876.25655 1497.0973,873.92055 1497.1103,873.42055 1497.1883,870.52455 1497.2853,867.61655 1497.2853,864.71955 1496.7633,864.91655 1496.1883,864.96955 1495.6553,865.13555 1494.7403,865.41955 1495.0078,866.20802 1494.6129,866.83046 1493.9283,867.90962 1490.8973,865.43376 1490.2013,864.70755 1488.0995,862.51443 1485.6895,860.71798 1486.9278,857.07819 1487.5978,855.10869 1488.1663,853.48069 1488.7163,851.80655 1489.0958,850.65135 1488.3297,848.72555 1488.4367,847.42355 1488.6087,845.30155 1489.6577,840.82455 1486.8197,839.94855 1487.7377,837.53255 1492.8363,836.19355 1490.8853,832.96955 1495.0916,832.07068 1498.8314,831.80849 1503.6253,830.74055 1503.6253,831.55151 1502.6237,832.58447 1502.6543,832.78874 1502.7193,833.22177 1504.0801,832.61213 1503.3973,833.74271 1503.5397,834.01326 1504.0588,832.56592 1505.8406,834.34062 1507.6818,836.17451 1508.3601,834.96057 1508.1726,834.04828 1510.2247,834.06898 1510.7459,834.79412 1511.5953,836.29855 1511.9667,836.95627 1512.3849,836.68791 1512.9479,836.48591 1513.6769,836.22391 1513.933,837.43672 1514.5309,837.68791 1515.7399,838.19582 1517.9685,838.0274 1518.3613,839.45655 1518.4788,839.88391 1519.2883,839.72562 1519.7874,839.88155 1520.6174,840.14087 1521.3447,840.40892 1521.6487,840.7623 1521.9527,841.11569 1521.9404,841.55441 1521.7903,842.01255 1521.395,843.2192 1524.1673,842.76155 1524.6553,844.56055 1524.8183,845.16155 1524.3423,845.51255 1524.4343,846.07055 1524.5753,846.93455 1525.2313,847.24455 1525.8283,847.77455 1526.3463,848.23655 1526.5403,849.79855 1526.7613,850.44355 1527.1743,851.65055 1525.7613,852.79755 1524.5963,853.15355 1523.3273,853.54055 1524.0603,854.51855 1524.3723,855.48855 1524.8593,857.00555 1523.9663,857.81155 1523.9163,859.27355 1523.8463,861.37355 1522.8823,865.86855 1525.5153,866.66155 1524.4433,867.81055 1521.1653,868.35355 1521.1863,870.28255 1521.1993,871.54355 1521.5187,872.01121 1521.2623,873.43655 1520.889,875.51163 1519.5471,876.73083 1519.0545,878.18155 1518.7706,879.01767 1519.7124,879.68884 1520.3505,880.13936 1521.2725,880.79035 1521.7039,880.31128 1522.0703,880.94873 1514.9444,884.27009 1507.3206,886.2875 1500.0703,889.24255 1499.1408,889.89362 1501.6546,893.19648 1501.1871,894.85701 1500.4931,894.93801 1498.5723,895.22655 1497.8983,894.95551 1496.5783,894.42651 1495.0133,895.24351 1493.7723,895.66151 1492.0013,896.25751 1489.7173,897.30651 1489.3343,899.36351 1489.1703,900.23951 1489.3913,901.19451 1488.9913,902.02451 1488.4253,903.20351 1486.8623,903.34651 1485.7843,903.77151 1483.9113,904.50851 1481.3813,906.03951 1480.3453,907.80751 1479.2943,909.60051 1475.1663,917.44951 1472.0623,915.59351 1471.3853,915.18851 1470.6643,914.80951 1469.9103,914.57051 1468.8103,914.22051 1467.7163,915.67551 1466.8493,915.19551 1466.1673,914.81651 1465.8998,913.54637 1465.0363,913.75278 1464.8429,913.79898 1462.6379,914.35165 1461.5413,913.31778 1460.2988,912.14632 1459.7351,911.33581 1458.7517,911.07143 1457.6998,910.85093 1456.9913,911.95339 1455.0757,910.81787 1453.5567,910.58387 1452.5031,911.38878 1451.0093,911.50451 1450.2388,911.56421 1448.7634,912.156 1448.2713,911.96751 1445.6753,910.97319 1443.9406,907.9956 1442.1076,905.9536 1441.1026,904.8346 1440.3298,903.92869 1439.2463,902.89251 1438.2293,901.91999 1437.9422,900.94779 1437.6063,899.49851" id="zm">
    <title>Zambia</title>
  </path>
  <path class="landxx tcd" d="M 1373.1663,634.82155 C 1373.4333,634.14755 1374.1013,634.29955 1374.4463,633.75355 1374.7513,633.27055 1374.8403,632.59155 1375.3263,632.23055 1375.9363,631.77655 1376.0423,630.05455 1376.3033,629.37055 1377.7113,625.67255 1380.8723,622.29255 1383.3903,619.31655 1385.6963,616.59055 1388.3183,614.28455 1388.4943,610.60055 1388.7143,605.98455 1388.8053,601.35855 1389.1313,596.74755 1389.3823,593.18555 1389.2023,588.49855 1390.9713,585.34155 1391.9893,583.52355 1391.3193,582.67455 1390.0873,581.25455 1389.7373,580.85155 1389.2963,580.53455 1388.9413,580.13555 1388.3253,579.44555 1389.1313,578.82655 1388.8543,578.11555 1388.2143,576.47155 1386.8731,575.19855 1386.1131,573.63455 1385.4701,572.31155 1385.8833,570.70355 1385.7393,569.28455 1385.5013,566.93855 1384.8013,564.67455 1384.4323,562.34855 1384.3893,562.07855 1383.9412,561.12124 1384.3142,560.93524 L 1392.5459,557.02761 1452.1161,590.74993 1452.7273,623.73455 C 1450.7583,623.12355 1450.5799,623.3685 1448.5179,623.69325 1447.1534,623.90814 1445.3873,623.69261 1444.9501,624.97021 1444.6312,625.90179 1445.5302,627.67403 1444.8486,628.5755 1444.2072,629.42365 1443.2334,632.32966 1441.8823,632.79956 1440.3475,633.33336 1440.9716,636.0017 1442.0683,637.05556 1439.5773,639.05156 1437.9544,640.30312 1439.8887,643.08594 1441.1968,644.96799 1438.1474,645.76375 1437.3084,647.34675 1436.7324,648.43375 1436.507,648.81006 1437.3824,649.68506 1438.1274,650.43006 1439.4049,649.63126 1440.207,649.63846 1441.2147,649.64746 1442.0574,650.11397 1441.41,650.90146 1440.4684,652.04665 1442.3798,653.40875 1441.6397,655.41759 1441.8987,655.28659 1442.1607,655.16659 1442.4297,655.05759 1443.0077,655.98659 1442.3517,657.03759 1442.3597,658.00959 1442.3697,659.12059 1442.5015,659.1354 1443.2031,659.90596 1443.8395,660.60483 1445.369,660.22421 1445.4727,662.12459 1445.5187,662.97083 1444.6991,664.50705 1444.9449,665.47116 1444.5122,664.73882 1442.4374,664.03686 1441.5237,664.51159 1440.9812,664.79344 1440.2277,665.03159 1439.8707,665.56159 1439.4307,666.21359 1439.3384,665.79953 1438.8444,666.34653 1438.0534,667.22353 1436.1527,667.00659 1435.8807,668.37859 1435.7697,668.94359 1436.2175,669.42087 1436.0357,670.00459 1435.4276,671.95712 1433.6665,672.76319 1432.2491,674.05159 1431.1194,675.07853 1430.5437,676.52716 1429.5297,677.65259 1427.7329,679.64678 1426.4858,680.09579 1423.9483,681.03959 1422.5053,681.57626 1418.9087,681.80959 1417.3897,681.66459 1416.8717,681.61559 1413.6877,682.36359 1414.8237,683.21959 1415.3177,683.59259 1416.6327,683.84259 1416.3367,684.72659 1415.9967,685.74359 1414.8107,687.17859 1414.0227,687.90759 1413.4037,688.47859 1412.8607,689.90659 1412.0787,690.09959 1410.5997,690.46659 1408.8057,690.18359 1407.2777,690.31959 1405.2637,690.49859 1403.7647,690.99759 1402.0397,692.06459 1401.0917,692.65059 1399.3137,693.16459 1398.8697,694.29659 1398.1877,693.31659 1397.2417,692.62559 1396.9297,691.41659 1396.2987,691.64359 1396.0007,692.47259 1395.6997,693.00059 1395.4857,693.37459 1394.2547,693.47559 1393.8377,693.65859 1391.7697,694.56759 1391.0607,694.40659 1388.8597,694.43959 1390.0167,692.98359 1388.7197,692.45059 1388.3027,691.08559 1387.7347,689.23059 1387.2447,687.15059 1386.0207,685.59759 1384.9777,684.27359 1383.5397,683.34959 1382.2447,682.29959 1380.9587,681.25459 1380.2437,679.98259 1379.2047,678.74259 1378.4977,677.89859 1376.7027,676.30259 1377.5547,675.07659 1378.4177,673.83459 1378.8347,672.95259 1380.4477,673.02759 1382.2497,673.11159 1384.0167,673.84359 1385.8047,673.23559 1386.5907,672.96859 1387.2867,673.36259 1387.9897,673.64459 1388.6417,673.90459 1389.5537,673.30459 1390.1597,673.12759 1386.5827,671.14059 1384.9127,666.34859 1385.1017,662.43659 1385.1447,661.54259 1385.5957,660.82759 1385.6867,659.97759 1385.7807,659.09559 1385.5547,658.20759 1385.5317,657.32759 1385.5147,656.66259 1385.6507,655.57159 1385.2607,654.98359 1384.9537,654.52159 1384.1067,654.86459 1384.1597,654.08459 1384.2297,653.05559 1383.8157,651.67259 1383.6057,650.66359 1383.4537,649.93559 1382.4202,649.82374 1381.8997,649.50159 1380.2387,648.47359 1382.3504,646.91947 1379.0677,646.42659 1378.2826,646.30871 1378.513,646.92395 1377.6675,646.27552 1376.4942,644.89213 1374.935,642.19266 1374.5294,641.44965 1373.439,639.45156 1373.5987,636.98759 1373.1667,634.82159" id="td">
    <title>Chad</title>
  </path>
  <g class="landxx coastxx nga" id="ng" transform="translate(-29.9017,-45.0745)">
    <title>Nigeria</title>
    <path d="M 1355.258,766.728 C 1356.172,766.667 1356.499,766.104 1355.758,765.504 1355.445,765.853 1355.279,766.26 1355.258,766.728" id="path5382"/>
    <path d="M 1357.198,766.296 C 1357.438,766.152 1357.678,766.008 1357.918,765.864 1357.41,765.871 1356.93,765.991 1356.478,766.223 1356.718,766.248 1356.958,766.271 1357.198,766.296" id="path5386"/>
    <path class="landxx nga" d="M 1321.058,736.344 C 1321.957,733.224 1320.661,729.511 1322.034,726.563 1322.369,725.842 1323.637,726.48 1324.239,725.787 1325.268,724.6 1324.332,723.162 1325.388,721.974 1326.079,721.196 1326.04,719.965 1326.883,719.474 1327.767,718.958 1329.087,717.858 1328.655,716.602 1328.32,715.627 1327.875,714.819 1329.176,714.552 1331.002,714.178 1329.528,711.567 1329.339,710.784 1329.145,709.986 1329.422,709.284 1329.004,708.512 1328.645,707.849 1328.088,707.322 1327.743,706.65 1327.036,705.272 1328.063,704.106 1328.471,702.825 1328.963,701.282 1328.617,699.637 1328.728,698.036 1328.862,696.102 1329.381,695.703 1330.735,694.372 1331.9,693.226 1332.405,691.497 1332.364,689.903 1332.33,688.558 1333.259,687.757 1334.223,686.955 1335.359,686.011 1336.755,685.751 1338.191,685.694 1340.07,685.619 1341.082,684.941 1342.805,684.505 1343.814,684.249 1345.13,685.407 1345.964,685.825 1347.4,686.546 1348.895,686.125 1350.142,687.332 1351.242,688.398 1351.765,689.67 1352.512,690.959 1352.795,691.448 1353.179,691.967 1353.744,692.151 1354.931,692.538 1355.099,691.205 1356.046,691.101 1359.203,690.752 1360.239,687.922 1363.539,690.265 1363.995,690.588 1364.502,690.969 1364.799,691.453 1364.943,691.688 1365.808,691.57 1366.059,691.705 1367.435,692.442 1367.983,693.469 1369.763,693.536 1370.804,693.576 1372.974,694.146 1373.878,693.744 1375.157,693.175 1375.595,691.517 1376.691,690.69 1379.329,688.7 1383.316,688.529 1386.47,688.828 1388.124,688.985 1389.603,689.429 1391.069,690.202 1392.297,690.85 1393.843,691.804 1395.286,691.274 1396.672,690.765 1397.39,689.18 1398.53,688.321 1399.155,687.85 1399.764,687.41 1400.572,687.366 1401.803,687.3 1400.9492,687.04615 1401.63,686.592 1404.2521,684.84297 1405.0904,687.32338 1406.046,689.10237 1406.8582,690.61432 1408.4892,690.73688 1408.0997,694.9279 1408.0567,695.3913 1408.7761,697.23827 1409.1861,697.56827 1409.6921,697.97527 1410.0755,697.59827 1410.7,697.824 1413.945,698.99706 1410.9927,702.19777 1411.976,703.721 1413.2297,705.66308 1409.2084,707.15551 1407.7515,707.00309 1405.5556,706.77334 1404.7704,711.561 1404.1984,713.293 1403.8734,714.277 1403.6882,715.317 1403.3902,716.299 1403.0572,717.396 1401.8254,717.22854 1401.7974,718.46754 1401.7724,719.57654 1402.043,720.98591 1401.189,721.96991 1400.467,722.80191 1399.43,723.175 1398.459,723.671 1399.539,723.883 1398.469,726.647 1398.389,727.272 1398.166,729.063 1397.01,730.085 1395.219,730.152 1395.386,731.089 1394.664,731.296 1394.165,731.891 1393.542,732.633 1394.0506,733.732 1393.8776,734.616 1393.4766,736.667 1392.4554,738.82429 1391.168,740.514 1390.0602,741.96792 1392.1075,742.85885 1389.551,744.525 1388.4733,745.22741 1389.118,745.991 1388.739,747 1388.489,747.665 1387.6159,748.29728 1387.2763,748.92191 1386.9473,749.52691 1385.8593,749.16891 1385.4013,748.98591 1384.8391,748.7613 1384.968,747.095 1384.93,746.596 1384.887,746.018 1382.9068,745.49382 1382.6348,744.82782 1382.2018,743.76782 1381.676,744.124 1381.388,742.895 1381.168,743.652 1381.113,744.992 1380.148,745.203 1378.931,745.469 1378.4099,744.16136 1377.428,744.479 1375.6591,745.05122 1375.283,747.81097 1374.1335,748.5669 1372.6403,749.54879 1367.8683,754.42655 1368.5039,755.07372 1369.522,756.11024 1367.6911,758.77531 1367.686,759.522 1367.676,760.79303 1367.1981,761.84111 1365.6556,764.30237 1365.0426,764.14537 1364.474,763.274 1364.757,762.696 1364.101,763.121 1363.596,762.472 1363.317,761.975 1363.953,764.342 1364.546,764.878 1361.798,765.277 1360.711,765.435 1357.134,766.15 1358.136,763.919 1357.668,764.825 1357.646,765.067 1356.556,764.999 1355.349,764.924 1355.557,764.612 1354.386,763.847 1354.935,764.248 1355.598,766.316 1354.293,765.794 1353.419,765.445 1354.713,763.346 1353.166,764.135 1353.598,765.003 1353.97,765.827 1353.596,766.799 1352.88,766.496 1352.056,763.915 1352.306,763.127 1351.482,763.84 1352.849,765.921 1352.421,766.895 1351.825,768.253 1351.83,765.066 1351.866,764.783 1351.73,765.18 1351.514,767.362 1351.436,765.43 1351.417,766 1351.338,766.641 1350.936,767.086 1350.915,766.569 1350.772,766.089 1350.506,765.646 1350.814,766.265 1350.789,767.262 1349.841,767.177 1348.131,767.024 1348.601,767.416 1348.126,765.79 1348.144,767.327 1346.947,768.662 1346.686,766.438 1346.704,767.881 1346.328,766.935 1345.277,766.421 1344.24,765.914 1343.542,764.903 1343.016,763.918 1342.521,762.993 1341.902,761.984 1342.164,760.907 1342.339,760.187 1342.434,759.527 1341.426,759.813 1341.24,759.031 1341.323,758.592 1342.123,758.431 1343.674,758.119 1342.224,757.561 1343.375,756.862 1342.554,756.926 1341.828,758.041 1341.02,757.858 1338.442,757.274 1341.969,756.373 1342.585,756.286 1342.168,755.781 1341.688,755.709 1341.145,756.07 1341.167,755.757 1341.19,755.445 1341.215,755.133 1341.058,756.032 1339.922,756.681 1339.485,755.565 1339.089,754.555 1340.303,754.109 1340.855,753.549 1340.201,753.815 1339.612,754.27 1339.125,754.774 1338.138,752.527 1335.954,750.041 1333.499,749.416 1332.306,749.112 1330.877,748.956 1329.646,749.031 1328.685,749.091 1327.283,749.508 1326.456,748.798 1327.502,749.003 1329.039,748.307 1329.626,747.43 1328.556,747.38 1327.797,748.64 1326.746,747.79 1326.371,748.242 1326.274,748.746 1326.456,749.302 1324.732,749.528 1322.974,749.198 1321.266,749.59 1321.209,748.51 1321.817,747.559 1321.846,746.494 1321.876,745.392 1321.383,744.583 1321.657,743.444 1322.106,741.589 1322.146,738.024 1321.058,736.344" id="path5406"/>
  </g>
  <g class="landxx coastxx gnq" id="gq" transform="translate(-29.9017,-45.0745)">
    <title>Equatorial Guinea</title>
    <path d="M 1366.848,776.952 C 1367.377,776.327 1369.84,771.669 1367.661,772.118 1366.823,772.29 1366.444,772.803 1366.168,773.567 1365.84,774.476 1365.26,774.593 1364.71,775.265 1364.076,776.042 1366.448,776.739 1366.848,776.952" id="path5778"/>
    <path class="landxx gnq" d="M 1373.978,790.92 C 1374.258,790.985 1374.522,790.938 1374.768,790.776 1373.191,791.541 1374.625,789.222 1374.903,788.777 1375.706,787.496 1375.0603,785.63562 1375.6433,784.09662 1376.6959,786.1697 1377.3913,785.6592 1378.7656,785.94994 L 1386.9723,785.85904 1387.0233,795.87104 1377.9581,795.6716 C 1377.3751,795.7536 1374.5885,796.59704 1375.6385,795.31004 1374.7085,794.83204 1372.5265,795.84504 1371.9585,794.66304 1371.4365,793.57804 1373.5135,791.77504 1373.9785,790.92004" id="path5784"/>
  </g>
  <path class="world_map-is_selected landxx cog" d="M 1355.5963,793.57855 C 1356.1793,791.81555 1356.5313,791.29355 1357.9853,790.18755 1359.2733,789.20855 1359.7273,792.45955 1361.4153,791.42655 1361.6573,791.27855 1361.3453,789.82055 1361.6073,789.27855 1362.1723,788.11355 1360.9633,787.85255 1360.2713,787.41155 1359.6593,787.02155 1361.3903,783.19055 1358.6963,783.93855 1359.6353,782.65255 1359.3673,781.11455 1358.9763,779.68855 1360.0653,779.94455 1360.5163,779.82955 1361.5683,779.84555 1362.0323,779.85255 1362.2543,780.55755 1362.6883,780.45155 1363.9853,780.13555 1366.2743,780.46855 1365.9803,778.52055 1365.7783,777.18755 1365.3253,774.35355 1367.8753,775.72555 1368.8073,776.22655 1370.4613,779.00555 1369.8573,780.04955 1371.0443,779.36755 1372.1673,780.84155 1373.3773,780.54955 1374.4163,780.29855 1375.4143,778.61855 1375.6873,777.66955 1376.0073,778.25255 1376.5753,781.51455 1377.3073,781.45255 1377.8513,781.40655 1379.2693,779.99355 1379.1773,779.37855 1379.0833,778.75255 1379.2313,776.59755 1379.8653,776.22855 1380.7103,775.73755 1381.5063,774.13355 1380.4373,773.41955 1381.8913,772.90655 1381.1773,770.11955 1380.8643,769.10655 1380.3853,767.55755 1381.9883,765.84155 1381.2463,764.47155 1380.8063,763.65855 1379.6783,763.41855 1378.8573,763.41855 1378.4093,763.08355 1378.8103,761.95655 1377.8473,761.86355 1375.3523,761.62255 1377.2933,760.31055 1376.9893,758.77155 1376.7803,757.71255 1377.1453,755.62655 1378.1273,754.91855 1379.1563,754.17555 1380.0543,754.55255 1380.7153,753.15055 1381.2283,752.06155 1380.4106,751.24372 1380.0063,750.29755 1379.2751,748.58632 1379.0359,746.98218 1376.8173,747.33455 1374.8959,747.63972 1373.1943,748.68655 1371.2883,749.01355 1371.8303,747.59355 1371.2343,746.04557 1371.1023,744.61055 1370.9574,743.03586 1371.9572,741.54594 1372.0061,740.74732 1371.9961,740.10332 1379.7003,740.95055 1380.3683,740.87855 1381.6563,740.73955 1382.1093,741.08155 1383.3353,741.17355 1384.3663,741.25155 1384.5213,742.63555 1385.9043,742.25755 1388.6223,741.51355 1391.4673,743.44355 1393.3283,745.27055 1394.2073,744.01955 1393.3383,743.09155 1393.3853,741.77155 1393.4283,740.68055 1394.5153,740.03055 1394.9083,739.07855 1395.4633,737.73855 1396.1413,736.43355 1396.4683,735.01155 1396.7313,733.87055 1396.3143,732.81855 1396.5643,731.71655 1396.7533,730.88055 1396.9813,729.63655 1397.8163,729.17755 1398.8853,728.58955 1400.2323,729.17255 1401.3763,728.68355 1402.6153,728.15355 1403.5773,727.30455 1404.9623,727.94955 1406.3193,728.58155 1407.2453,729.14857 1408.7843,728.89955 1410.6693,728.59455 1413.1344,727.89248 1412.8733,730.53749 1412.65,732.79917 1411.053,735.93536 1409.973,737.87336 1408.703,740.14936 1408.7176,741.64755 1408.6966,744.28455 1408.6846,745.74655 1408.4295,747.23067 1407.9873,748.63555 1407.5029,750.17455 1407.132,751.01255 1407.1123,752.68955 1407.0993,753.77326 1407.0393,754.82855 1406.961,755.93055 1406.884,757.01855 1406.5699,758.3984 1406.3021,759.45718 1405.6205,762.15218 1406.912,763.89812 1404.6656,766.36677 1402.6541,768.57723 1400.5299,769.20262 1399.1731,771.67655 1398.5284,772.85203 1397.9914,774.12414 1397.4717,775.41427 1396.5072,777.80886 1394.201,778.16878 1394.345,779.63037 1394.5814,782.03009 1394.383,784.37535 1394.374,787.03655 1394.364,789.62544 1393.2299,793.61012 1390.7636,794.0423 1389.8658,794.19963 1388.9321,795.14608 1388.6491,796.09408 1388.4981,796.60208 1386.8733,797.29479 1386.3953,797.87114 1385.5356,798.90749 1384.9145,800.1252 1383.9186,801.14874 1382.6532,802.44924 1381.398,800.90355 1380.657,801.85955 1380.657,800.93255 1379.8173,799.25882 1380.4603,798.49749 1380.9735,797.88986 1381.2282,797.34439 1380.176,797.01708 1378.8735,796.6119 1377.099,799.31755 1375.977,797.83055 1375.418,798.41755 1375.515,799.15355 1375.224,799.84555 1374.837,800.76555 1373.607,801.10555 1372.948,801.79055 1372.881,800.58455 1371.201,800.41655 1370.928,799.26955 1370.03,800.91931 1369.1133,795.99926 1367.5669,798.41089 1367.0367,799.23782 1366.1602,799.16844 1365.508,799.73055 1364.8541,800.29408 1363.7355,801.59616 1363.062,802.3438 1361.4788,804.10141 1360.998,800.82855 1360.744,799.88355 1360.081,797.41955 1357.411,795.27355 1355.596,793.57855" id="cg">
    <title>Congo</title>
  </path>
  <g class="landxx coastxx gab" id="ga" transform="translate(-29.9017,-45.0745)">
    <title>Gabon</title>
    <path d="M 1368.938,810.723 C 1369.035,810.913 1369.131,811.103 1369.228,811.293 1369.506,810.807 1369.433,810.377 1369.008,810.003 1368.984,810.243 1368.961,810.483 1368.938,810.723" id="path5980"/>
    <path class="landxx gab" d="M 1367.928,812.303 C 1367.46,811.669 1367.101,810.849 1367.498,810.074 1367.522,810.66 1367.739,811.163 1368.148,811.584 1368.308,809.951 1369.281,811.3 1369.228,812.234 1369.389,810.239 1371.419,809.104 1371.641,807.154 1371.794,805.806 1370.931,803.185 1372.109,802.154 1372.16,802.811 1372.647,803.284 1372.969,803.814 1373.19,802.732 1374.778,803.333 1375.269,804.244 1375.14,803.323 1376.13,802.984 1376.859,803.014 1375.036,803.014 1373.634,802.636 1372.593,801.025 1372.179,800.383 1370.835,799.567 1372.319,799.271 1372.95,799.145 1373.804,799.465 1373.828,800.215 1374.364,799.02 1373.463,797.43 1373.806,796.155 1373.995,795.456 1374.8483,795.52594 1375.3683,795.80794 1376.3013,796.31494 1376.9577,795.69362 1377.9827,795.69362 L 1386.9547,795.8385 1386.9297,785.94577 C 1387.3316,783.6427 1388.2772,784.53155 1389.9998,784.60841 1391.4645,784.67371 1393.2572,784.87422 1394.8027,784.78914 1396.274,784.70814 1397.7706,785.20178 1398.7552,785.15127 1401.0922,785.03139 1402.947,783.80387 1401.3637,787.516 1400.378,789.827 1401.9777,792.021 1401.1867,794.09 1402.9107,793.795 1404.465,792.87659 1406.1727,792.506 1409.3677,791.81262 1408.9802,793.70661 1409.9376,795.31027 1410.8395,796.82111 1411.6152,799.02663 1408.5717,799.733 1406.8986,800.12132 1406.8107,802.973 1406.9677,804.297 1407.0427,804.926 1405.7083,806.65467 1407.2009,806.73427 1407.9288,806.77307 1408.6502,807.3309 1408.5685,807.86182 1408.4518,808.62001 1410.1774,808.48189 1410.8126,809.116 1412.2102,810.51143 1410.5076,812.28335 1410.7586,813.791 1410.918,814.7505 1412.0534,817.61044 1410.3391,818.495 1411.4261,819.221 1410.6671,821.109 1409.6631,821.519 1409.3831,821.633 1408.9814,824.03041 1409.0624,824.12641 1409.6874,824.86141 1407.9775,826.65246 1407.1515,826.56746 1406.2775,826.47746 1405.9811,823.46 1405.5881,822.744 1405.3211,823.673 1404.2266,825.58773 1403.1566,825.71673 1402.0786,825.84673 1400.8171,824.515 1399.7581,825.124 1400.4856,822.29633 1395.074,817.82771 1395.8393,822.54332 1396.287,825.30174 1395.208,825.33772 1392.6322,825.58146 1391.8064,825.65956 1392.0401,824.96821 1391.2282,825.02746 1390.1652,825.10506 1389.9391,825.00836 1388.8781,824.763 1389.2701,826.189 1389.5381,827.727 1388.5981,829.013 1389.6424,828.64325 1390.35,829.22659 1390.3001,830.267 1390.2571,831.1636 1390.0833,831.92446 1390.2041,832.38664 1390.6427,832.8176 1391.1849,832.81931 1391.4599,833.23859 1392.0795,834.18294 1391.3639,834.31368 1391.4439,835.12268 1391.5089,835.78168 1391.9263,836.69546 1390.7503,836.75946 1389.5083,836.82646 1389.4797,835.76472 1388.5836,835.21832 1387.6833,834.66932 1385.7183,838.027 1385.4973,838.654 1383.8373,837.353 1382.3983,834.644 1381.2513,832.894 1379.5653,830.322 1377.0223,828.262 1374.8363,826.133 1376.0503,825.383 1376.4523,828.159 1377.5763,826.773 1376.7673,826.85 1375.6063,825.846 1374.7273,825.629 1373.3153,825.28 1372.2893,822.025 1371.3863,820.874 1372.2963,820.957 1372.6253,821.955 1373.4763,822.174 1372.7043,820.924 1372.5593,821.22 1371.4533,820.573 1370.9513,820.28 1371.1033,819.39 1370.9813,818.948 1370.6823,817.863 1369.9043,817.008 1369.3663,816.044 1370.0633,816.624 1371.4523,817.893 1371.2363,818.934 1371.9553,818.686 1372.7103,818.524 1373.4763,818.575 1373.0603,818.258 1372.7243,817.871 1372.4663,817.415 1372.3043,817.987 1371.8783,818.282 1371.3063,817.995 1371.4013,817.241 1372.0003,816.557 1371.6763,815.765 1370.5453,819.056 1368.4693,812.705 1367.9283,812.303" id="path6014"/>
  </g>
  <path class="landxx caf" d="M 1451.1212,678.07255 C 1451.0027,680.12441 1449.2175,680.40209 1449.4879,681.91055 1449.7519,681.81555 1450.0139,681.71955 1450.2779,681.62355 1450.4909,682.42455 1450.0509,683.14355 1449.7779,683.85455 1451.3759,684.14555 1453.2569,683.73255 1454.7369,684.54655 1455.117,684.673 1455.3015,684.93581 1455.3009,685.41982 1454.8695,687.32716 1455.2209,687.96258 1456.7199,688.21755 1457.714,688.4613 1459.1099,688.28055 1459.9689,688.92855 1460.9699,689.68455 1461.4762,690.52096 1462.5569,691.32455 1464.2426,692.57805 1462.9497,693.54731 1462.9293,694.17699 1462.8953,695.23726 1464.3949,695.99924 1465.2129,696.48324 1466.0929,697.00524 1467.0564,697.58327 1467.9679,698.04955 1469.7467,698.95948 1469.2047,699.44987 1469.8589,700.48555 1470.3213,701.2176 1472.2951,701.58865 1471.7529,702.67455 1471.0309,704.12055 1471.6234,704.37114 1472.5128,705.2013 1473.3273,705.96141 1472.4128,706.59754 1473.8059,707.51255 1474.6942,708.09602 1475.5829,708.39155 1476.5589,708.89255 1478.1299,709.69855 1478.7174,710.64994 1478.6472,712.35861 1478.5812,713.95472 1479.6704,714.83063 1480.1599,716.18155 1478.9011,714.81222 1477.2193,714.25572 1476.1009,715.41942 1475.6269,715.91267 1474.6459,715.79055 1474.0649,715.73155 1473.7829,715.63655 1473.5099,715.65555 1473.2489,715.78855 1472.5959,716.11655 1472.3636,715.50474 1471.8646,715.30974 1470.8646,714.91974 1470.0446,714.10957 1468.9829,714.41255 1466.8598,715.01841 1466.7887,713.60553 1465.4338,713.3968 1464.5715,713.26395 1463.9672,713.8203 1464.1352,714.6773 1464.4102,716.0803 1462.754,716.29468 1461.775,716.60268 1460.799,716.90868 1459.4616,717.3538 1458.5536,716.69078 1458.0666,716.33578 1457.004,714.80759 1456.717,715.76259 1456.322,717.07259 1453.6444,717.94291 1452.5118,718.14891 1450.4389,718.52591 1449.1052,720.47435 1448.2269,719.51553 1447.2358,718.4335 1446.1273,716.86815 1444.4775,718.79215 1443.9758,719.37724 1444.0284,720.25859 1443.6434,720.89859 1443.1174,721.77259 1443.0089,722.95853 1442.0709,723.59953 1440.7629,724.49353 1437.6891,722.54013 1436.0622,722.60084 1435.1132,722.63624 1434.929,722.91573 1433.8187,722.54684 1432.6795,722.16837 1432.2901,722.72098 1431.4988,721.7429 1430.7046,720.76116 1429.0441,721.59477 1427.9301,721.39477 1426.5341,721.14377 1426.5075,719.21997 1425.7295,718.46314 1424.3744,717.14498 1422.3301,716.2334 1421.0292,715.44196 1419.197,714.32724 1416.5859,716.63152 1415.6579,718.23052 1415.1299,719.14052 1414.3729,720.04952 1414.0109,721.03652 1413.7269,721.80752 1412.6219,721.67596 1412.3319,722.11496 1411.8669,722.81796 1413.0406,724.26285 1412.9539,725.07752 1412.828,726.26033 1412.7121,726.77426 1412.7719,729.43152 1411.7739,727.77752 1409.254,729.20771 1407.554,728.95471 1406.791,728.84171 1405.4799,728.22452 1404.7759,727.89952 1403.4189,727.27352 1402.2995,728.5509 1400.9175,728.8239 1398.8825,729.2259 1397.2589,728.52452 1396.8109,731.04352 1396.5689,732.40352 1396.7099,733.88452 1396.4599,735.20152 1396.1259,736.96952 1394.9339,738.67552 1394.3309,740.37552 1393.8759,738.39552 1393.5129,736.63152 1393.3699,734.61852 1393.2259,732.59752 1391.0909,732.70352 1390.0299,731.52352 1389.5089,730.94252 1384.0749,724.59952 1386.5609,724.53652 1385.2749,723.62952 1385.5399,721.63552 1384.2219,720.60552 1382.5119,719.27052 1382.7609,717.35252 1382.6859,715.34552 1382.6579,714.59552 1381.6859,714.08252 1381.7129,713.57952 1381.7529,712.83752 1382.1829,712.07952 1382.2339,711.29752 1382.2909,710.44352 1382.2909,709.52152 1382.0519,708.69052 1381.8239,707.90952 1380.8709,708.27352 1380.5761,707.25354 1381.0663,706.45755 1381.8023,705.92855 1382.5093,705.34555 1383.6073,704.44155 1383.7123,703.40255 1384.4203,702.26655 1385.6243,700.33455 1386.4497,697.44227 1387.8027,695.60327 1389.4787,693.32227 1389.7453,694.882 1391.9013,694.255 1393.0263,693.928 1393.9093,693.69155 1395.0003,693.34255 1396.0773,692.99755 1395.7853,691.82355 1396.9263,691.41455 1397.2383,692.62355 1398.1843,693.31355 1398.8663,694.29455 1399.4693,693.09556 1401.3187,692.51185 1401.8849,692.08161 1403.6695,690.72565 1406.4687,690.18017 1408.6007,690.17517 1410.4667,690.17117 1412.3012,690.70048 1413.2153,688.97355 1413.8599,687.7558 1416.4812,685.5951 1416.3423,684.43255 1416.2563,683.71157 1414.6533,683.89741 1414.5822,682.97268 1414.4731,681.55328 1418.8256,681.51557 1419.9661,681.53461 1423.5273,681.59411 1427.4365,680.19691 1429.7613,677.31355 1430.9838,675.79739 1431.7383,674.16755 1433.3163,672.99555 1434.1153,672.40255 1436.349,670.38344 1435.903,669.45455 1435.3421,668.28642 1436.2628,667.11714 1437.6713,666.77755 1439.2627,666.39385 1440.4951,664.39323 1442.3522,664.34936 1444.5957,664.29636 1445.1131,665.75286 1446.1052,666.95524 1447.6648,668.84522 1449.3555,670.2525 1450.2786,672.27436 1451.2105,674.34432 1451.3255,676.03561 1451.1212,678.07255 z" id="cf">
    <title>Central African Republic</title>
  </path>
  <g id="st">
    <title>Sao Tome and Principe</title>
    <g class="landxx coastxx stp" id="st-" transform="translate(-29.9017,-45.0745)">
      <path d="M 1350.218,804.453 C 1350.897,804.083 1351.619,803.503 1351.859,802.73 1351.983,802.331 1351.92,800.999 1351.169,801.207 1349.436,801.686 1350.019,803.212 1350.218,804.453" id="path2898"/>
      <path d="M 1356.908,791.424 C 1357.219,790.936 1357.246,790.432 1356.988,789.912 1356.387,790.33 1356.361,790.944 1356.908,791.424" id="path5384"/>
    </g>
    </g>
  </svg>