<svg xmlns="http://www.w3.org/2000/svg" class="world_map zoom4" height="127" id="svg2985" version="1.1" viewBox="1586 845 33 33" width="127">
  <title>World Map</title>
  <defs id="defs2987"/>
  <defs>
    <link xmlns="http://www.w3.org/1999/xhtml" href="../css/svg.css" type="text/css" rel="stylesheet"/>
  </defs>
  <style id="style_css_sheet" type="text/css">
/*
 * Below are Cascading Style Sheet (CSS) definitions in use in this file,
 * which allow easily changing how countries are displayed.
 *
 */
/* --- Custom styles for Peace Corps --- */
.world_map .world_map-is_selected {
  fill: #C94112 !important;
}
.world_map .landxx {
  fill: #F2EFE8;
  stroke: #ffffff;
  fill-rule: evenodd;
}
.world_map.zoom4 .landxx {
  stroke-width: 2px;
}
.world_map.zoom3 .landxx {
  stroke-width: 3px;
}
.world_map.zoom2 .landxx {
  stroke-width: 4px;
}
.world_map.zoom1 .landxx {
  stroke-width: 5px;
}
.world_map .coastxx {
  fill: #F2EFE8;
  stroke: #ffffff;
  stroke-width: 2px;
  fill-rule: evenodd;
}
.world_map .oceanxx {
  opacity: 1;
  color: #ccc;
  fill: #ffffff;
  stroke: #ffffff;
  stroke-width: 0.5;
  stroke-miterlimit: 1;
}

/* --- Original Styles --- *
/*
 * Circles around small countries
 *
 * Change opacity to 1 to display all circles.
 *
 */
.circlexx
{
   opacity:0;
   fill:#e0e0e0;
   stroke:#000000;
   stroke-width:0.5;
}

/*
 * Smaller circles around French DOMs and Chinese SARs
 *
 * Change opacity to 1 to display all subnational circles.
 *
 */
.subxx
{
   opacity:0;
   stroke-width:0.3;
}

/*
 * Circles around small, unrecognized countries
 *
 * Change opacity to 1 to display all circles.
 *
 */
.unxx
{
   opacity:0;
   fill:#e0e0e0;
   stroke:#000000;
   stroke-width:0.3;
}

/*
 * Circles around small countries, but with no permanent residents 
 *
 * Change opacity to 1 to display all circles.
 *
 */
.noxx
{
   opacity:0;
   fill:#e0e0e0;
   stroke:#000000;
   stroke-width:0.5;
}

/*
 * land
 */
.landxx
{
}
/*
 * Styles for coastlines of islands with no borders
 */


/*
 * Styles for nations with limited recognition
 */
.limitxx
{
   fill: #e0e0e0;
   stroke:#ffffff;
   stroke-width:0;
   fill-rule:evenodd;
}

/*
 * Styles for nations with no permanent population.
 */
.antxx
{
   fill: #e0e0e0;
   stroke:#ffffff;
   stroke-width:0;
   fill-rule:evenodd;
}

/*
 * Ocean
 */


/*
 * Additional style rules
 *
 * The following are examples of colouring countries.  You can substitute these with your own styles to colour the countries on the map.
 *
 * Color a few countries:
 *
 * .gb, .au, .nc
 * {
 *    fill:       #ff0000;
 * }
 *
 * Color a few small country circles (and the countries):
 *
 * .ms, .ky
 * {
 *    opacity:    1;
 *    fill:       #ff0000;
 * }
 *
 */

</style>
  <path class="oceanxx" d="M 2079.5058,1457.5605 615.24779,1457.5605 C 615.13079,1457.5605 615.07079,1457.5505 614.95179,1457.5215 611.67679,1456.6515 608.40179,1455.7815 605.12779,1454.9105 599.15079,1453.3225 593.22879,1451.5225 587.30779,1449.7385 564.39379,1442.8315 541.76579,1434.6995 519.46979,1426.0115 495.81079,1416.7935 472.34979,1407.0946 449.19179,1396.6816 426.78379,1386.6056 405.17679,1375.0536 383.76379,1363.0356 363.11779,1351.4496 343.01079,1338.8296 323.37979,1325.5996 302.29179,1311.3876 281.47879,1296.8506 261.05379,1281.7006 242.35079,1267.8276 223.73679,1253.6306 206.05279,1238.4686 186.98679,1222.1216 167.82379,1205.7706 150.35279,1187.6906 132.97779,1169.7106 116.33279,1151.0606 100.15679,1131.9976 84.352777,1113.3736 70.086776,1093.4716 56.901786,1072.9246 44.046786,1052.8916 32.093776,1032.1356 22.469776,1010.3426 17.516776,999.12753 12.408776,987.76556 8.7017761,976.06056 5.0657761,964.58166 1.5997761,953.04259 -1.5932239,941.43054 -8.0102239,918.09356 -14.055224,894.78356 -18.234224,870.92056 -22.491222,846.60856 -24.894222,822.19856 -26.943222,797.62156 -28.947222,773.58556 -28.829222,749.40156 -27.225222,725.34856 -25.648222,701.69856 -23.363222,677.92456 -19.274222,654.56456 -15.018224,630.25156 -9.3842239,606.45156 -2.8412239,582.66156 3.5687761,559.35256 10.483776,536.34856 20.265776,514.19856 30.320776,491.42956 42.318786,469.90956 55.502786,448.81656 68.512776,428.00356 83.108777,408.26756 98.686787,389.31756 113.73479,371.01156 129.68979,353.25256 146.15179,336.20856 163.77479,317.96256 182.64579,301.14556 201.89579,284.64756 220.33379,268.84456 239.55379,253.98456 258.95979,239.39656 278.42779,224.76056 298.39379,210.83356 318.55579,197.17556 339.26979,183.14456 360.47879,169.92056 382.15079,157.42556 403.46579,145.13656 425.31479,133.98856 447.60479,123.59356 469.58579,113.34356 492.14979,104.17656 514.74579,95.37556 537.44879,86.532565 560.37879,78.195565 583.63479,70.914565 589.69379,69.017565 595.80079,67.276565 601.90879,65.549565 604.63079,64.779565 607.36079,64.045565 610.09479,63.318565 611.59979,62.918565 613.56579,61.986565 615.13379,61.986565 L 2079.9638,61.986565 C 2079.9798,61.986565 2079.9958,61.986565 2080.0118,61.986565 2079.8448,61.986565 2079.6788,61.986565 2079.5118,61.986565 2102.8268,68.191565 2125.8778,75.323565 2148.5448,83.611565 2171.6378,92.054565 2194.6158,100.87956 2217.2348,110.52956 2240.5208,120.46556 2263.4848,130.95256 2285.8828,142.76456 2306.9808,153.89056 2327.8178,165.78556 2347.8608,178.72156 2368.9418,192.32656 2389.7498,206.29256 2410.2218,220.80056 2429.7368,234.62956 2448.9938,248.98756 2467.6208,263.99256 2486.8818,279.50856 2506.0408,295.30556 2524.0538,312.27356 2541.8708,329.05756 2558.7508,346.67256 2574.9408,365.03656 2591.2478,383.53256 2607.1478,402.30656 2621.4508,422.41856 2635.3488,441.96256 2648.4468,462.42756 2659.5898,483.67756 2671.1238,505.67356 2681.1048,528.35656 2688.6188,552.05056 2692.2518,563.50656 2695.3368,575.14756 2698.5608,586.72256 2701.7738,598.25356 2704.9238,609.81956 2707.4578,621.52456 2712.6258,645.40556 2716.6718,669.47856 2719.1178,693.79656 2721.5718,718.19256 2723.1798,742.56356 2722.9808,767.09056 2722.7908,790.65456 2720.6908,814.43756 2717.7688,837.81156 2714.7368,862.07056 2710.5198,886.16156 2704.6398,909.90056 2701.6808,921.84356 2698.3948,933.69556 2695.0378,945.53154 2691.7468,957.13466 2688.5558,968.83466 2684.3988,980.16156 2676.0918,1002.8036 2666.1688,1024.8836 2654.1338,1045.8046 2641.9958,1066.9066 2628.8498,1087.4866 2614.2378,1106.9696 2599.1658,1127.0666 2582.6678,1145.9446 2565.8948,1164.6296 2549.8298,1182.5266 2532.8918,1199.7316 2514.8648,1215.6616 2496.0788,1232.2646 2476.8978,1248.3126 2457.1558,1263.7656 2438.2988,1278.5276 2418.9668,1292.7306 2399.3188,1306.4206 2378.7018,1320.7866 2357.7538,1334.6106 2336.4758,1347.9776 2326.4088,1354.3016 2316.0058,1360.1326 2305.6418,1365.9516 2295.0348,1371.9086 2284.3858,1378.0166 2273.4448,1383.3436 2250.7338,1394.3986 2227.7768,1404.7266 2204.3888,1414.2665 2181.7848,1423.4875 2159.0678,1432.2695 2136.0228,1440.3345 2117.4118,1446.8465 2098.5568,1452.4975 2079.5058,1457.5605" id="ocean"/>
  <g id="fr">
    <title>France</title>
    <g id="yt">
      <title>Mayotte</title>
      <path class="landxx coastxx eu myt fra" d="M 1613.4263,871.98855 C 1613.9023,871.34555 1614.5063,869.97055 1613.4263,869.53855 1613.1543,870.10155 1613.0153,871.45555 1613.4263,871.98855" id="yt-"/>
      <circle class="circlexx subxx eu myt fra" cx="1614.6058" cy="872.18304" id="yt_" r="4.2337999" rx="4.2337999" ry="4.2337999"/>
    </g>
    </g>
  <g class="landxx coastxx mdg" id="mg" transform="translate(-29.9017,-45.0745)">
    <title>Madagascar</title>
    <path d="M 1625.398,995.613 C 1625.968,998.016 1624.754,1000.946 1626.46,1003.045 1627.293,1004.072 1627.279,1005.225 1627.708,1006.413 1628.102,1007.507 1629.197,1007.679 1628.114,1008.921 1627.052,1010.139 1627.218,1014.094 1627.912,1015.536 1628.543,1016.847 1629.178,1017.82 1629.528,1019.273 1629.982,1021.161 1631.208,1021.69 1632.597,1022.833 1630.846,1021.817 1632.361,1023.176 1632.798,1023.312 1633.439,1023.512 1634.122,1023.444 1634.77,1023.609 1636.342,1024.01 1637.196,1025.746 1638.761,1026.092 1641.472,1026.691 1644.295,1023.231 1646.79,1022.499 1647.707,1022.23 1648.671,1022.776 1649.513,1022.467 1650.181,1022.221 1650.761,1021.777 1651.472,1021.641 1652.47,1021.451 1653.068,1020.266 1653.45,1019.443 1653.965,1018.335 1654.318,1017.156 1654.636,1015.979 1655.075,1014.349 1656.08,1013.026 1656.584,1011.461 1657.513,1008.571 1658.514,1005.778 1659.309,1002.813 1660.44,998.592 1662.141,994.822 1663.601,990.732 1664.785,987.417 1665.459,984.027 1666.925,980.818 1667.353,979.881 1668.165,978.398 1667.738,977.332 1668.242,977.331 1668.813,975.303 1668.939,974.967 1669.783,972.723 1670.239,970.351 1671.156,968.139 1672.496,964.907 1673.709,962.156 1674.407,958.691 1674.928,956.106 1673.161,952.333 1676.304,950.636 1676.92,950.303 1677.599,948.351 1677.674,947.581 1677.744,946.862 1677.585,946.154 1677.713,945.435 1677.886,944.464 1676.691,944.576 1676.706,943.646 1676.719,942.94 1675.991,937.465 1677.745,938.211 1679.25,938.851 1678.733,941.97 1680.187,942.481 1681.814,943.052 1682.878,938.658 1683.059,937.694 1683.319,936.303 1682.389,935.609 1682.009,934.374 1681.315,932.107 1681.38,929.904 1681.296,927.569 1681.141,923.281 1680.116,918.736 1678.387,914.901 1678.142,915.06 1677.906,915.23 1677.676,915.411 1677.867,914.828 1677.62,914.712 1677.264,914.355 1676.684,913.774 1677.588,913.408 1677.069,912.773 1676.573,912.168 1676.256,909.89 1675.006,910.651 1674.931,910.392 1674.907,910.129 1674.937,909.861 1677.108,910.069 1673.946,906.785 1674.305,909.539 1674.446,910.622 1672.213,912.622 1671.187,912.6 1673.117,913.569 1671.866,916.423 1671.477,917.71 1670.906,919.607 1670.934,920.819 1668.596,920.88 1668.881,922.253 1668.446,921.167 1667.792,921.959 1667.317,922.534 1667.297,923.358 1667.086,924.04 1666.502,924.023 1664.353,919.638 1664.046,922.738 1663.935,923.846 1664.32,924.568 1664.716,925.561 1665.072,926.454 1664.437,928.899 1664.277,927.14 1664.116,927.999 1661.454,928.101 1662.504,930.078 1663.062,931.127 1665.191,930.716 1664.347,932.4 1664.637,931.09 1663.281,930.97 1662.472,931.595 1661.34,932.471 1661.437,934.439 1659.888,934.919 1659.683,933.81 1660.755,932.959 1660.537,931.819 1659.424,932.063 1659.683,932.828 1659.237,933.619 1658.804,934.386 1657.548,934.802 1657.367,935.709 1657.241,936.338 1657.901,937.043 1658.163,937.556 1658.674,938.558 1656.867,938.769 1656.287,939.24 1656.405,938.548 1657.67,936.538 1655.892,936.583 1654.871,936.609 1654.05,937.881 1653.274,938.412 1652.755,938.766 1651.36,939.501 1651.503,940.305 1651.575,940.713 1651.241,941.227 1651.388,941.611 1651.594,942.145 1652.315,942.047 1652.478,942.69 1651.682,942.639 1650.851,942.801 1650.707,941.677 1650.526,940.262 1649.14,940.286 1649.087,941.76 1648.753,941.208 1647.158,941.049 1646.601,941.322 1645.898,941.667 1646.166,942.849 1645.638,943.34 1645.638,941.846 1643.926,943.022 1643.827,943.92 1643.585,943.458 1643.298,943.024 1642.967,942.62 1642.106,943.217 1641.444,944.247 1640.443,944.62 1639.504,944.97 1637.838,944.21 1637.075,944.923 1636.702,945.272 1637.019,948.118 1636.708,947.81 1636.982,948.962 1636.158,950.29 1635.6,951.227 1634.666,952.792 1631.672,955.71 1632.821,957.599 1633.614,958.902 1632.923,961.253 1633.05,962.771 1633.196,964.496 1634.433,965.933 1634.426,967.629 1634.416,969.208 1634.32,970.209 1635.174,971.61 1636.092,973.114 1635.569,973.791 1635.117,975.256 1634.793,976.309 1636.119,976.635 1635.494,977.766 1634.828,978.971 1633.96,980.119 1633.236,981.298 1632.459,982.565 1631.498,983.831 1630.942,985.215 1630.513,986.286 1630.865,988.072 1629.506,988.547 1627.873,989.117 1627.487,989.149 1627.329,991.024 1627.198,992.584 1625.783,994.014 1625.398,995.613" id="path2622"/>
    </g>
  <g id="km">
    <title>Comoros</title>
    <g class="world_map-is_selected landxx coastxx com" id="km-" transform="translate(-29.9017,-45.0745)">
      <path d="M 1630.878,907.923 C 1631.321,907.517 1631.048,906.747 1630.868,906.303 1630.415,905.175 1630.703,904.133 1630.366,903.022 1628.987,902.98 1629.592,904.8 1629.284,905.589 1628.801,906.83 1630.279,907.16 1630.876,907.923" id="path5750"/>
      <path d="M 1633.758,911.813 C 1633.518,911.118 1632.877,910.565 1632.098,910.722 1632.098,911.719 1633.047,911.662 1633.758,911.813" id="path5752"/>
      <path d="M 1638.798,911.733 C 1639.645,909.539 1637.964,910.357 1636.639,910.003 1637.383,910.548 1638.189,911.024 1638.798,911.733" id="path5754"/>
    </g>
    <circle class="world_map-is_selected circlexx com" cx="1603.8311" cy="862.79865" id="km." r="6.0130301" rx="6.0130301" ry="6.0130301"/>
  </g>
  </svg>