<svg xmlns="http://www.w3.org/2000/svg" class="world_map zoom4 zoom3 zoom2" height="127" id="svg2985" version="1.1" viewBox="594 637 70 77" width="127">
  <title>World Map</title>
  <defs id="defs2987"/>
  <style id="style_css_sheet" type="text/css">
/*
 * Below are Cascading Style Sheet (CSS) definitions in use in this file,
 * which allow easily changing how countries are displayed.
 *
 */
/* --- Custom styles for Peace Corps --- */
.world_map .world_map-is_selected.circlexx {
  opacity:1;
}
.world_map .world_map-is_selected.landxx {
  fill: #C94112 !important;
}
.world_map .landxx {
  fill: #F2EFE8;
  stroke: #ffffff;
  fill-rule: evenodd;
}
.world_map.zoom6 .landxx {
  stroke-width: 0.1px;
}
.world_map.zoom5 .landxx {
  stroke-width: 1px;
}
.world_map.zoom4 .landxx {
  stroke-width: 2px;
}
.world_map.zoom3 .landxx {
  stroke-width: 3px;
}
.world_map.zoom2 .landxx {
  stroke-width: 4px;
}
.world_map.zoom1 .landxx {
  stroke-width: 5px;
}
.world_map .coastxx {
  fill: #F2EFE8;
  stroke: #ffffff;
  stroke-width: 2px;
  fill-rule: evenodd;
}
.world_map .oceanxx {
  opacity: 1;
  color: #ccc;
  fill: #ffffff;
  stroke: #ffffff;
  stroke-width: 0.5;
  stroke-miterlimit: 1;
}

/* --- Original Styles --- *
/*
 * Circles around small countries
 *
 * Change opacity to 1 to display all circles.
 *
 */
.circlexx
{
   opacity:0;
   fill-opacity:0;
   fill:#e0e0e0;
   stroke:#000000;
   stroke-width:0.5;
}

/*
 * Smaller circles around French DOMs and Chinese SARs
 *
 * Change opacity to 1 to display all subnational circles.
 *
 */
.subxx
{
   opacity:0;
   stroke-width:0.3;
}

/*
 * Circles around small, unrecognized countries
 *
 * Change opacity to 1 to display all circles.
 *
 */
.unxx
{
   opacity:0;
   fill:#e0e0e0;
   stroke:#000000;
   stroke-width:0.3;
}

/*
 * Circles around small countries, but with no permanent residents 
 *
 * Change opacity to 1 to display all circles.
 *
 */
.noxx
{
   opacity:0;
   fill:#e0e0e0;
   stroke:#000000;
   stroke-width:0.5;
}

/*
 * land
 */
.landxx
{
}
/*
 * Styles for coastlines of islands with no borders
 */


/*
 * Styles for nations with limited recognition
 */
.limitxx
{
   fill: #e0e0e0;
   stroke:#ffffff;
   stroke-width:0;
   fill-rule:evenodd;
}

/*
 * Styles for nations with no permanent population.
 */
.antxx
{
   fill: #e0e0e0;
   stroke:#ffffff;
   stroke-width:0;
   fill-rule:evenodd;
}

/*
 * Ocean
 */


/*
 * Additional style rules
 *
 * The following are examples of colouring countries.  You can substitute these with your own styles to colour the countries on the map.
 *
 * Color a few countries:
 *
 * .gb, .au, .nc
 * {
 *    fill:       #ff0000;
 * }
 *
 * Color a few small country circles (and the countries):
 *
 * .ms, .ky
 * {
 *    opacity:    1;
 *    fill:       #ff0000;
 * }
 *
 */

</style>
  <path class="oceanxx" d="M 2079.5058,1457.5605 615.24779,1457.5605 C 615.13079,1457.5605 615.07079,1457.5505 614.95179,1457.5215 611.67679,1456.6515 608.40179,1455.7815 605.12779,1454.9105 599.15079,1453.3225 593.22879,1451.5225 587.30779,1449.7385 564.39379,1442.8315 541.76579,1434.6995 519.46979,1426.0115 495.81079,1416.7935 472.34979,1407.0946 449.19179,1396.6816 426.78379,1386.6056 405.17679,1375.0536 383.76379,1363.0356 363.11779,1351.4496 343.01079,1338.8296 323.37979,1325.5996 302.29179,1311.3876 281.47879,1296.8506 261.05379,1281.7006 242.35079,1267.8276 223.73679,1253.6306 206.05279,1238.4686 186.98679,1222.1216 167.82379,1205.7706 150.35279,1187.6906 132.97779,1169.7106 116.33279,1151.0606 100.15679,1131.9976 84.352777,1113.3736 70.086776,1093.4716 56.901786,1072.9246 44.046786,1052.8916 32.093776,1032.1356 22.469776,1010.3426 17.516776,999.12753 12.408776,987.76556 8.7017761,976.06056 5.0657761,964.58166 1.5997761,953.04259 -1.5932239,941.43054 -8.0102239,918.09356 -14.055224,894.78356 -18.234224,870.92056 -22.491222,846.60856 -24.894222,822.19856 -26.943222,797.62156 -28.947222,773.58556 -28.829222,749.40156 -27.225222,725.34856 -25.648222,701.69856 -23.363222,677.92456 -19.274222,654.56456 -15.018224,630.25156 -9.3842239,606.45156 -2.8412239,582.66156 3.5687761,559.35256 10.483776,536.34856 20.265776,514.19856 30.320776,491.42956 42.318786,469.90956 55.502786,448.81656 68.512776,428.00356 83.108777,408.26756 98.686787,389.31756 113.73479,371.01156 129.68979,353.25256 146.15179,336.20856 163.77479,317.96256 182.64579,301.14556 201.89579,284.64756 220.33379,268.84456 239.55379,253.98456 258.95979,239.39656 278.42779,224.76056 298.39379,210.83356 318.55579,197.17556 339.26979,183.14456 360.47879,169.92056 382.15079,157.42556 403.46579,145.13656 425.31479,133.98856 447.60479,123.59356 469.58579,113.34356 492.14979,104.17656 514.74579,95.37556 537.44879,86.532565 560.37879,78.195565 583.63479,70.914565 589.69379,69.017565 595.80079,67.276565 601.90879,65.549565 604.63079,64.779565 607.36079,64.045565 610.09479,63.318565 611.59979,62.918565 613.56579,61.986565 615.13379,61.986565 L 2079.9638,61.986565 C 2079.9798,61.986565 2079.9958,61.986565 2080.0118,61.986565 2079.8448,61.986565 2079.6788,61.986565 2079.5118,61.986565 2102.8268,68.191565 2125.8778,75.323565 2148.5448,83.611565 2171.6378,92.054565 2194.6158,100.87956 2217.2348,110.52956 2240.5208,120.46556 2263.4848,130.95256 2285.8828,142.76456 2306.9808,153.89056 2327.8178,165.78556 2347.8608,178.72156 2368.9418,192.32656 2389.7498,206.29256 2410.2218,220.80056 2429.7368,234.62956 2448.9938,248.98756 2467.6208,263.99256 2486.8818,279.50856 2506.0408,295.30556 2524.0538,312.27356 2541.8708,329.05756 2558.7508,346.67256 2574.9408,365.03656 2591.2478,383.53256 2607.1478,402.30656 2621.4508,422.41856 2635.3488,441.96256 2648.4468,462.42756 2659.5898,483.67756 2671.1238,505.67356 2681.1048,528.35656 2688.6188,552.05056 2692.2518,563.50656 2695.3368,575.14756 2698.5608,586.72256 2701.7738,598.25356 2704.9238,609.81956 2707.4578,621.52456 2712.6258,645.40556 2716.6718,669.47856 2719.1178,693.79656 2721.5718,718.19256 2723.1798,742.56356 2722.9808,767.09056 2722.7908,790.65456 2720.6908,814.43756 2717.7688,837.81156 2714.7368,862.07056 2710.5198,886.16156 2704.6398,909.90056 2701.6808,921.84356 2698.3948,933.69556 2695.0378,945.53154 2691.7468,957.13466 2688.5558,968.83466 2684.3988,980.16156 2676.0918,1002.8036 2666.1688,1024.8836 2654.1338,1045.8046 2641.9958,1066.9066 2628.8498,1087.4866 2614.2378,1106.9696 2599.1658,1127.0666 2582.6678,1145.9446 2565.8948,1164.6296 2549.8298,1182.5266 2532.8918,1199.7316 2514.8648,1215.6616 2496.0788,1232.2646 2476.8978,1248.3126 2457.1558,1263.7656 2438.2988,1278.5276 2418.9668,1292.7306 2399.3188,1306.4206 2378.7018,1320.7866 2357.7538,1334.6106 2336.4758,1347.9776 2326.4088,1354.3016 2316.0058,1360.1326 2305.6418,1365.9516 2295.0348,1371.9086 2284.3858,1378.0166 2273.4448,1383.3436 2250.7338,1394.3986 2227.7768,1404.7266 2204.3888,1414.2665 2181.7848,1423.4875 2159.0678,1432.2695 2136.0228,1440.3345 2117.4118,1446.8465 2098.5568,1452.4975 2079.5058,1457.5605" id="ocean"/>
  <path class="landxx gtm" d="M 572.81029,633.66955 C 573.62429,632.70055 573.48629,631.67755 573.77829,630.51555 573.92029,629.94955 574.71429,629.55755 574.54429,628.93255 574.22829,627.77155 574.24,627.57825 574.919,626.44725 575.939,624.74925 576.80306,622.56531 577.50736,621.12431 578.22511,619.65581 580.97329,620.49355 582.42829,620.49355 583.26329,620.49355 587.64729,621.01655 588.07829,620.31355 588.22129,620.08155 588.59729,617.37655 588.48029,617.27555 587.97729,616.83755 587.29329,617.03555 587.13729,616.22555 586.95729,615.29955 586.74829,614.79755 585.88529,614.27455 584.23129,613.27355 583.20229,611.63255 581.88429,610.26955 582.88429,610.26955 584.66829,610.73855 585.27029,609.62455 585.89129,608.47755 585.13329,606.72755 585.98829,605.72855 586.90429,604.65855 591.00829,605.37355 592.32129,605.37355 594.84229,605.37355 597.36329,605.37355 599.88429,605.37355 599.24629,608.09655 599.18229,610.91055 598.66029,613.65255 598.12629,616.45955 597.51229,619.25255 597.07629,622.07755 598.41329,621.93955 601.25629,621.87755 601.46829,623.73255 601.68629,623.25155 601.90929,622.67655 602.47629,622.50855 602.29829,622.25755 602.10629,622.01755 601.90029,621.78855 602.90229,622.15155 603.58329,623.00155 604.49229,623.51655 602.06229,624.53255 600.55829,626.97855 598.31929,628.29955 597.27729,628.91455 595.92229,629.64855 596.22129,631.08655 596.43229,632.10455 596.66029,632.79955 595.82429,633.56955 595.03329,634.29755 592.79129,634.74255 593.00829,635.89955 593.13729,636.58355 592.62929,636.44155 592.14329,636.86755 592.04729,636.95155 591.21129,638.06655 591.33329,638.01155 590.34829,638.45655 587.86329,638.61155 588.36429,640.65255 587.19029,640.14155 586.13429,639.28655 584.84429,639.06455 583.52929,638.83855 582.13029,639.26055 580.78629,639.10055 577.46029,638.70455 575.03629,635.89555 572.81029,633.66955" id="gt">
    <title>Guatemala</title>
  </path>
  <g class="landxx coastxx pan" id="pa" transform="translate(-29.9017,-45.0745)">
    <title>Panama</title>
    <path class="landxx pan" d="M 668.592,733.032 C 667.901,732.365 669.655,731.536 669.78,730.907 670.017,729.727 668.798,728.438 670.434,727.731 671.768,727.154 669.312,726.326 669.312,725.832 669.312,724.809 670.1134,722.3954 669.8834,721.9944 670.8374,721.04471 671.751,723.23574 672.407,721.872 672.905,722.314 673.632,722.869 673.847,723.528 673.846,724.009 673.822,724.489 673.775,724.967 673.862,725.344 674.527,724.931 674.472,725.48 674.237,727.834 676.552,726.985 678.023,727.272 677.741,726.772 677.429,726.293 677.086,725.832 678.331,725.452 679.545,728.481 680.986,728.68 684.02,729.098 685.723,726.736 688.283,725.78 690.038,725.125 692.088,724.603 693.418,723.259 694.145,722.524 694.553,721.583 695.724,721.573 697.035,721.562 698.307,722.144 699.621,722.016 699.385,722.314 699.169,722.626 698.973,722.953 701.534,722.667 705.022,723.265 706.901,725.23 707.795,726.165 709.801,730.07 711.429,729.577 710.22,731.439 711.5964,732.2704 712.2284,734.1954 712.9094,736.2674 710.745,738.357 709.197,739.441 709.03,738.908 708.766,738.427 708.405,738.001 707.878,738.76885 708.17859,738.89272 708.127,739.49 708.0738,740.10643 707.37671,740.65737 706.92179,742.0284 704.96979,740.6204 703.173,737.215 703.077,734.833 704.714,735.442 704.149,733.472 704.847,732.728 705.621,731.901 707.661,733.948 708.333,734.329 707.883,733.779 707.252,733.463 706.707,733.027 705.932,732.407 706.073,731.373 705.597,730.585 705.798,731.192 705.467,731.726 704.949,732.025 705.272,730.575 704.046,732.084 703.509,730.728 703.677,731.313 703.653,731.889 703.437,732.457 702.604,730.924 702.554,729.374 701.196,728.589 700.583,728.235 700.002,727.818 699.452,727.373 698.473,726.58 698.96,726.619 697.831,726.685 696.274,726.775 693.629,727.108 693.184,729.086 692.845,730.595 690.675,733.181 688.819,732.88 685.893,732.406 689.042,736.735 689.699,737.455 690.203,738.007 691.279,739.139 690.665,739.959 690.123,740.684 688.87,740.205 688.197,740.804 687.317,741.587 685.288,742.805 684.04,742.116 683.744,741.953 683.85,739.959 683.657,739.476 683.278,738.527 683.563,737.074 682.99,736.274 682.601,736.727 682.193,736.751 681.766,736.345 683.002,738.733 680.298,739.33 679.174,737.321 678.22,735.617 678.253,734.366 676.232,733.645 675.572,733.41 674.894,733.992 674.444,733.274 673.882,732.38 673.134,733.088 672.694,732.385 671.983,733.399 670.937,732.331 670.03,732.817 669.022,733.356 669.74,734.535 669.022,735.194 669.107,734.30901 668.9237,733.54034 668.592,733.032" id="path2682"/>
    <path d="M 672.913,733.248 C 672.914,733.774 673.082,733.751 673.417,733.176 673.223,733.049 673.055,733.073 672.913,733.248" id="path4792"/>
    <path d="M 677.665,738.504 C 677.212,738.966 676.432,739.313 676.673,740.117 676.872,740.781 677.539,741.201 678.169,740.736 677.698,740.067 677.849,739.251 677.665,738.504" id="path4794"/>
    <path d="M 681.336,739.944 C 681.89,739.779 682.37,739.491 682.776,739.08 682.223,739.245 681.743,739.533 681.336,739.944" id="path4796"/>
    </g>
  <path class="world_map-is_selected landxx cri" d="M 617.88329,669.88555 C 618.31029,669.53855 619.46229,667.92555 619.54129,667.38955 619.66929,666.52255 617.72629,665.46455 618.46229,665.02955 619.33729,664.51355 619.56329,663.77255 620.15729,662.78255 620.39129,662.39155 623.26129,663.78655 623.67529,663.99155 625.68929,664.99055 625.42222,664.33894 627.29038,663.82128 628.11178,663.59367 628.47195,664.86948 629.83283,664.62736 630.44583,665.42636 630.65177,666.19016 631.71229,666.38955 633.04352,666.63984 634.97217,666.69027 634.91211,665.27536 635.50011,666.27436 634.92331,666.44555 635.49629,667.31755 635.97529,668.04855 636.26829,668.90455 636.58829,669.71255 637.26429,671.41955 637.93829,672.01655 639.07429,673.15055 640.10329,674.17655 640.63729,675.82055 641.95029,676.49855 642.67229,676.87055 642.56429,677.66255 641.66629,677.39255 640.98129,677.18655 640.8135,676.36134 639.9575,676.97234 640.3425,677.64534 639.5062,679.27324 639.47208,680.38174 639.43698,681.52287 642.19477,681.89902 640.31629,682.87655 638.79995,683.66562 640.83435,685.36321 639.51829,686.51955 638.0654,687.79612 639.42729,688.55055 639.12229,690.12055 639.21029,689.32755 638.86529,688.71555 638.35329,688.14655 638.02829,687.92555 637.73229,687.67155 637.46529,687.38355 637.55429,687.08455 637.63229,686.78255 637.69729,686.47755 637.41229,685.52355 636.31829,683.41955 635.01729,684.21555 635.26629,685.37555 636.76529,685.80455 636.31329,687.16755 635.24129,686.83255 633.56329,686.45555 633.30129,685.12455 633.13029,684.25855 634.29129,683.59155 634.37029,682.70355 634.56529,680.51055 632.17229,679.67655 630.75829,678.57455 629.89729,677.90355 629.68429,677.42955 628.49129,677.39855 627.31629,677.36855 626.62529,676.79455 626.67529,675.56655 626.79429,672.65355 623.32529,672.66055 622.20229,670.60755 622.42529,671.16455 622.47329,671.76055 622.67929,672.32055 623.00529,673.20755 623.79929,673.09855 624.41329,673.63055 625.26829,674.37155 624.25229,675.87755 623.45529,676.18955 622.48929,676.56755 621.66829,674.52955 620.62229,674.29655 618.86229,673.90055 617.52229,671.70755 617.88329,669.88555" id="cr">
    <title>Costa Rica</title>
  </path>
  <path class="landxx slv" d="M 588.36329,640.65355 C 588.15029,639.78455 588.42929,639.39646 588.9793,638.88946 589.8093,638.12346 590.54578,638.43349 591.26102,637.97691 591.35882,637.91441 591.99629,636.75434 592.81138,636.39282 593.12181,636.25513 592.85938,635.75082 592.94238,635.36382 593.12438,634.50682 594.55329,634.83655 595.11529,634.99255 596.05329,635.25255 601.11729,638.41955 600.60329,639.57455 601.63529,639.56455 603.93629,637.66555 604.27529,639.57455 605.16629,638.98755 606.71729,639.36755 606.30129,640.59955 606.21229,640.86455 605.48229,644.40355 605.21129,643.31855 604.46729,644.32155 605.96129,645.13455 603.91529,645.69455 601.97529,646.22455 600.56529,644.32555 598.87529,644.75855 600.75329,645.27355 597.90229,645.02855 597.42529,644.80855 596.25429,644.26955 595.27029,643.31655 594.02129,642.94255 592.85229,642.59155 591.49529,643.08855 590.37829,642.52655 589.72029,642.19455 589.09229,641.09855 588.36329,640.65355" id="sv">
    <title>El Salvador</title>
  </path>
  <g class="landxx coastxx hnd" id="hn" transform="translate(-29.9017,-45.0745)">
    <title>Honduras</title>
    <path class="landxx hnd" d="M 624.529,679.752 C 625.071,678.404 626.832,678.099 625.99,676.41 625.518,675.465 626.834,674.018 627.567,673.686 629.261,672.92 630.58962,671.45575 631.96262,670.21175 632.50162,669.72275 633.227,669.292 633.859,668.913 634.591,668.474 635.005,669.078 635.598,668.379 636.415,667.416 638.277,666.559 639.245,667.546 639.949,668.265 643.437,668.346 644.484,668.25 645.945,668.117 648.172,668.472 649.429,667.668 649.879,667.38 653.22,666.64 651.385,666.072 653.026,666.02 654.437,667.051 656.066,667.08 657.746,667.109 659.701,665.879 661.204,667.21 662.482,668.342 663.211,667.221 664.49,667.872 665.979,668.631 666.752,670.385 667.874,671.544 667.355,671.28 666.866,670.464 666.229,670.464 665.608,670.464 665.065,670.572 664.562,670.104 665.044,670.375 665.068,670.927 665.191,671.392 665.282,671.734 666.23,672.456 666.506,672.768 666.703,672.191 666.44,671.808 665.859,671.689 666.558,670.934 667.661,673.1 669.027,672.409 669.116,672.882 669.271,673.064 668.955,673.489 670.407,673.123 669.081,672.149 668.379,671.905 670.714,672.234 670.275,674.209 672.123,674.928 670.808,675.153 669.585,674.92 668.422,675.734 667.406,676.446 665.324,677.125 664.088,677.092 663.107,677.067 662.208,678.117 661.366,677.864 660.77,677.685 660.211,677.465 659.667,677.16 659.415,677.018 659.392,676.511 659.142,676.46 657.772,676.182 657.632,677.923 657.147,678.672 656.834,679.155 656.282,679.385 655.995,679.896 655.838,680.175 656.20312,680.66378 655.934,680.859 654.93593,681.583 651.79525,683.353 651.315,685.008 649.1346,683.61687 648.70005,682.40005 647.294,684.768 646.31717,686.41311 643.34659,684.9001 643.502,686.34 643.65618,687.76853 644.283,689.432 642.6,689.714 641.714,689.862 641.856,690.819 641.621,691.456 641.213,692.561 639.668,692.162 638.786,692.28 639.438,691.22 636.191,689.754 638.498,688.895 637.786,689.131 636.83,689.12 636.698,688.175 636.488,688.974 635.833,689.201 635.186,688.679 636.041,688.4 635.887,687.507 635.932,686.805 636.006,685.667 637.043,684.394 635.037,684.378 634.379,684.898 634.024,684.801 633.97,684.088 633.766,683.833 633.502,683.734 633.178,683.789 632.244,683.895 631.454,684.638 630.506,684.647 631.218,683.046 625.256,680.492 624.529,679.752" id="path5978"/>
    </g>
  <path class="landxx nic" d="M 606.79529,646.55755 C 607.70229,646.93855 607.73029,647.89455 608.88329,647.78255 609.04381,647.51283 608.54329,647.23679 609.00895,647.16471 609.48282,647.10491 610.77879,647.03305 611.21629,646.90155 612.16529,646.61755 611.56529,645.31455 612.23729,644.84255 612.73929,644.49055 613.52429,644.76555 613.64629,644.04855 613.80129,643.14155 612.99729,641.30255 613.56329,640.58155 614.08629,639.91455 615.28829,640.45155 615.94329,640.53755 616.77229,640.64455 617.10629,639.91355 617.57529,639.35755 619.33329,637.27555 619.56829,638.75755 621.41129,639.93355 621.71652,638.18578 624.07674,637.01136 625.53429,635.78955 626.52678,635.71535 625.47869,635.01404 626.61729,634.05955 627.47669,633.33912 627.45565,632.16837 628.37865,631.47337 629.42465,630.68537 629.82232,631.99977 630.67629,632.46901 631.91525,633.1498 632.49197,632.41191 633.6623,632.00691 634.93306,631.56716 637.14929,631.43555 638.33129,630.79055 638.86829,630.49755 639.29729,629.99555 639.91529,629.85355 640.68529,629.67755 641.44629,629.98555 642.21929,629.85355 641.56329,630.16655 641.20429,631.55955 640.34729,630.79055 639.53729,632.19955 641.62129,634.53055 640.92329,636.33455 640.24829,638.08155 638.84829,639.08055 638.27529,640.98455 637.56229,643.35555 637.85129,645.72655 637.45929,648.12155 637.26929,649.28455 637.76929,652.35655 636.38729,652.53455 636.43129,651.17355 637.20329,650.17955 636.96329,648.71855 636.04629,648.94755 636.93429,650.61455 635.23529,651.16655 636.38829,652.65355 635.54229,654.20455 635.59529,655.84655 635.32929,655.39555 635.25729,654.91555 635.37929,654.40655 635.21329,655.39155 634.58329,656.26755 634.58729,657.28755 636.44329,656.62155 634.98229,659.10455 634.61429,659.71055 633.73829,661.15355 633.10829,662.83955 634.23029,664.44155 634.73029,665.15455 635.67329,665.80955 634.15429,666.41455 633.26529,666.76855 631.73929,666.70955 630.97329,666.10155 630.74329,665.90355 630.54829,665.67555 630.38829,665.41655 629.74129,664.46355 629.96229,664.80555 629.09129,664.65455 628.42229,664.53855 628.00629,663.73155 627.27529,663.88355 626.68329,664.00555 626.1442,664.2051 625.6312,664.4851 625.30845,664.66085 624.46974,664.37726 624.04377,664.18805 621.86142,663.21868 620.87667,662.75806 620.57833,662.72955 620.42916,662.71525 619.85214,662.66975 620.80614,662.50743 621.41418,662.60463 627.87863,666.01466 626.18839,661.53455 625.84241,661.15542 624.29814,658.33894 623.95588,657.99257 623.62727,657.66001 621.63561,656.30857 621.43739,655.76999 621.22486,655.19254 619.59968,654.81852 619.27526,654.87459 617.93435,655.10633 618.80326,658.91338 618.53953,658.48573 618.85935,658.8155 619.60874,661.94289 620.79835,662.50982 620.63825,662.49642 620.83735,662.82778 620.51284,662.723 619.64899,662.44407 619.86358,665.37241 618.67729,662.8016 618.01114,661.35796 616.61129,660.3626 615.50729,659.3026 613.31929,657.2016 612.40729,654.3336 610.06529,652.2986 608.56129,650.9916 605.32129,648.4166 606.79529,646.5576" id="ni">
    <title>Nicaragua</title>
  </path>
  </svg>