<svg xmlns="http://www.w3.org/2000/svg" class="world_map zoom6 zoom5 zoom4 zoom3 zoom2" height="127" id="svg2985" version="1.1" viewBox="743 650 8 7" width="127">
  <title>World Map</title>
  <defs id="defs2987"/>
  <style id="style_css_sheet" type="text/css">
/*
 * Below are Cascading Style Sheet (CSS) definitions in use in this file,
 * which allow easily changing how countries are displayed.
 *
 */
/* --- Custom styles for Peace Corps --- */
.world_map .world_map-is_selected.circlexx {
  opacity:1;
}
.world_map .world_map-is_selected.landxx {
  fill: #C94112 !important;
}
.world_map .landxx {
  fill: #F2EFE8;
  stroke: #ffffff;
  fill-rule: evenodd;
}
.world_map.zoom6 .landxx {
  stroke-width: 0.1px;
}
.world_map.zoom5 .landxx {
  stroke-width: 1px;
}
.world_map.zoom4 .landxx {
  stroke-width: 2px;
}
.world_map.zoom3 .landxx {
  stroke-width: 3px;
}
.world_map.zoom2 .landxx {
  stroke-width: 4px;
}
.world_map.zoom1 .landxx {
  stroke-width: 5px;
}
.world_map .coastxx {
  fill: #F2EFE8;
  stroke: #ffffff;
  stroke-width: 2px;
  fill-rule: evenodd;
}
.world_map .oceanxx {
  opacity: 1;
  color: #ccc;
  fill: #ffffff;
  stroke: #ffffff;
  stroke-width: 0.5;
  stroke-miterlimit: 1;
}

/* --- Original Styles --- *
/*
 * Circles around small countries
 *
 * Change opacity to 1 to display all circles.
 *
 */
.circlexx
{
   opacity:0;
   fill-opacity:0;
   fill:#e0e0e0;
   stroke:#000000;
   stroke-width:0.5;
}

/*
 * Smaller circles around French DOMs and Chinese SARs
 *
 * Change opacity to 1 to display all subnational circles.
 *
 */
.subxx
{
   opacity:0;
   stroke-width:0.3;
}

/*
 * Circles around small, unrecognized countries
 *
 * Change opacity to 1 to display all circles.
 *
 */
.unxx
{
   opacity:0;
   fill:#e0e0e0;
   stroke:#000000;
   stroke-width:0.3;
}

/*
 * Circles around small countries, but with no permanent residents 
 *
 * Change opacity to 1 to display all circles.
 *
 */
.noxx
{
   opacity:0;
   fill:#e0e0e0;
   stroke:#000000;
   stroke-width:0.5;
}

/*
 * land
 */
.landxx
{
}
/*
 * Styles for coastlines of islands with no borders
 */


/*
 * Styles for nations with limited recognition
 */
.limitxx
{
   fill: #e0e0e0;
   stroke:#ffffff;
   stroke-width:0;
   fill-rule:evenodd;
}

/*
 * Styles for nations with no permanent population.
 */
.antxx
{
   fill: #e0e0e0;
   stroke:#ffffff;
   stroke-width:0;
   fill-rule:evenodd;
}

/*
 * Ocean
 */


/*
 * Additional style rules
 *
 * The following are examples of colouring countries.  You can substitute these with your own styles to colour the countries on the map.
 *
 * Color a few countries:
 *
 * .gb, .au, .nc
 * {
 *    fill:       #ff0000;
 * }
 *
 * Color a few small country circles (and the countries):
 *
 * .ms, .ky
 * {
 *    opacity:    1;
 *    fill:       #ff0000;
 * }
 *
 */

</style>
  <path class="oceanxx" d="M 2079.5058,1457.5605 615.24779,1457.5605 C 615.13079,1457.5605 615.07079,1457.5505 614.95179,1457.5215 611.67679,1456.6515 608.40179,1455.7815 605.12779,1454.9105 599.15079,1453.3225 593.22879,1451.5225 587.30779,1449.7385 564.39379,1442.8315 541.76579,1434.6995 519.46979,1426.0115 495.81079,1416.7935 472.34979,1407.0946 449.19179,1396.6816 426.78379,1386.6056 405.17679,1375.0536 383.76379,1363.0356 363.11779,1351.4496 343.01079,1338.8296 323.37979,1325.5996 302.29179,1311.3876 281.47879,1296.8506 261.05379,1281.7006 242.35079,1267.8276 223.73679,1253.6306 206.05279,1238.4686 186.98679,1222.1216 167.82379,1205.7706 150.35279,1187.6906 132.97779,1169.7106 116.33279,1151.0606 100.15679,1131.9976 84.352777,1113.3736 70.086776,1093.4716 56.901786,1072.9246 44.046786,1052.8916 32.093776,1032.1356 22.469776,1010.3426 17.516776,999.12753 12.408776,987.76556 8.7017761,976.06056 5.0657761,964.58166 1.5997761,953.04259 -1.5932239,941.43054 -8.0102239,918.09356 -14.055224,894.78356 -18.234224,870.92056 -22.491222,846.60856 -24.894222,822.19856 -26.943222,797.62156 -28.947222,773.58556 -28.829222,749.40156 -27.225222,725.34856 -25.648222,701.69856 -23.363222,677.92456 -19.274222,654.56456 -15.018224,630.25156 -9.3842239,606.45156 -2.8412239,582.66156 3.5687761,559.35256 10.483776,536.34856 20.265776,514.19856 30.320776,491.42956 42.318786,469.90956 55.502786,448.81656 68.512776,428.00356 83.108777,408.26756 98.686787,389.31756 113.73479,371.01156 129.68979,353.25256 146.15179,336.20856 163.77479,317.96256 182.64579,301.14556 201.89579,284.64756 220.33379,268.84456 239.55379,253.98456 258.95979,239.39656 278.42779,224.76056 298.39379,210.83356 318.55579,197.17556 339.26979,183.14456 360.47879,169.92056 382.15079,157.42556 403.46579,145.13656 425.31479,133.98856 447.60479,123.59356 469.58579,113.34356 492.14979,104.17656 514.74579,95.37556 537.44879,86.532565 560.37879,78.195565 583.63479,70.914565 589.69379,69.017565 595.80079,67.276565 601.90879,65.549565 604.63079,64.779565 607.36079,64.045565 610.09479,63.318565 611.59979,62.918565 613.56579,61.986565 615.13379,61.986565 L 2079.9638,61.986565 C 2079.9798,61.986565 2079.9958,61.986565 2080.0118,61.986565 2079.8448,61.986565 2079.6788,61.986565 2079.5118,61.986565 2102.8268,68.191565 2125.8778,75.323565 2148.5448,83.611565 2171.6378,92.054565 2194.6158,100.87956 2217.2348,110.52956 2240.5208,120.46556 2263.4848,130.95256 2285.8828,142.76456 2306.9808,153.89056 2327.8178,165.78556 2347.8608,178.72156 2368.9418,192.32656 2389.7498,206.29256 2410.2218,220.80056 2429.7368,234.62956 2448.9938,248.98756 2467.6208,263.99256 2486.8818,279.50856 2506.0408,295.30556 2524.0538,312.27356 2541.8708,329.05756 2558.7508,346.67256 2574.9408,365.03656 2591.2478,383.53256 2607.1478,402.30656 2621.4508,422.41856 2635.3488,441.96256 2648.4468,462.42756 2659.5898,483.67756 2671.1238,505.67356 2681.1048,528.35656 2688.6188,552.05056 2692.2518,563.50656 2695.3368,575.14756 2698.5608,586.72256 2701.7738,598.25356 2704.9238,609.81956 2707.4578,621.52456 2712.6258,645.40556 2716.6718,669.47856 2719.1178,693.79656 2721.5718,718.19256 2723.1798,742.56356 2722.9808,767.09056 2722.7908,790.65456 2720.6908,814.43756 2717.7688,837.81156 2714.7368,862.07056 2710.5198,886.16156 2704.6398,909.90056 2701.6808,921.84356 2698.3948,933.69556 2695.0378,945.53154 2691.7468,957.13466 2688.5558,968.83466 2684.3988,980.16156 2676.0918,1002.8036 2666.1688,1024.8836 2654.1338,1045.8046 2641.9958,1066.9066 2628.8498,1087.4866 2614.2378,1106.9696 2599.1658,1127.0666 2582.6678,1145.9446 2565.8948,1164.6296 2549.8298,1182.5266 2532.8918,1199.7316 2514.8648,1215.6616 2496.0788,1232.2646 2476.8978,1248.3126 2457.1558,1263.7656 2438.2988,1278.5276 2418.9668,1292.7306 2399.3188,1306.4206 2378.7018,1320.7866 2357.7538,1334.6106 2336.4758,1347.9776 2326.4088,1354.3016 2316.0058,1360.1326 2305.6418,1365.9516 2295.0348,1371.9086 2284.3858,1378.0166 2273.4448,1383.3436 2250.7338,1394.3986 2227.7768,1404.7266 2204.3888,1414.2665 2181.7848,1423.4875 2159.0678,1432.2695 2136.0228,1440.3345 2117.4118,1446.8465 2098.5568,1452.4975 2079.5058,1457.5605" id="ocean"/>
  <g class="landxx coastxx ven" id="ve" transform="translate(-29.9017,-45.0745)">
    <title>Venezuela, Bolivarian Republic of</title>
    <path class="landxx ven" d="M 742.105,725.256 C 744.075,722.932 745.061,720.438 745.682,717.508 746.278,714.699 746.93191,712.51846 748.39591,710.06246 749.58891,708.06246 752.29336,706.90228 753.43736,704.80428 754.74136,702.41428 756.96573,703.03164 759.09673,701.71664 758.22873,703.83464 755.95436,703.00709 754.70036,704.51709 753.63236,705.80309 754.77196,708.581 756.144,709.128 754.903,709.066 756.1,711.819 756.22,712.339 756.588,713.938 755.051,715.557 753.986,716.565 752.599,717.877 751.923,719.472 752.782,721.194 753.115,721.86 753.226,722.702 753.865,723.175 754.573,723.699 754.687,723.468 754.566,724.42 754.311,726.421 755.846,726.872 757.454,725.958 759.114,725.014 759.771,723.618 759.985,721.775 760.26,719.411 759.198,718.088 758.011,716.159 757.539,715.393 757.124,714.531 756.844,713.674 756.592,712.902 757.249,711.848 756.648,711.217 757.55,711.323 758.332,709.959 759.024,709.561 760.29,708.832 761.475,707.875 762.95,707.616 764.226,707.391 765.246,707.217 766.366,706.542 766.788,706.288 768.044,705.273 768.597,705.53 768.523,705.128 768.333,704.792 768.027,704.521 768.577,704.745 770.255,706.149 770.827,705.486 771.215,705.036 770.813,703.93 770.313,703.722 769.458,703.367 768.312,704.175 767.447,704.233 767.616,703.241 766.782,697.982 769.722,699.191 771.06,699.741 770.785,702.645 770.992,703.782 771.451,706.305 774.163,704.63 775.959,705.256 777.969,705.957 780.474,706.499 781.353,708.833 781.891,710.262 780.493,713.468 782.873,713.973 785.704,714.574 789.289,713.263 792.094,712.89 794.499,712.57 797,712.057 798.473,714.206 799.083,715.096 799.937,715.823 800.957,716.182 801.788,716.475 802.65,716.669 803.5,716.894 803.41,716.87 806.29,717.482 804.956,717.482 807.22,718.709 808.297,716.055 810.087,715.889 811.175,715.788 811.424,714.655 812.327,714.233 813.572,713.653 814.992,714.761 816.265,714.027 815.169,712.87 812.593,714.109 811.865,712.659 812.494,712.659 813.124,712.659 813.754,712.659 814.64,712.659 814.9,712.113 815.545,712.083 815.863,712.193 816.171,712.325 816.47,712.48 817.352,712.64 818.268,712.531 819.142,712.383 822.876,711.753 826.701,712.457 830.375,711.722 829.801,712.886 827.962,712.667 826.905,713.223 825.247,714.096 823.294,712.71 821.735,714.026 822.237,713.525 822.758,713.592 822.955,714.313 822.339,714.262 821.896,714.649 821.805,715.25 823.17,714.445 824.217,715.263 824.187,716.864 824.163,718.132 822.037,717.283 821.375,717.266 821.852,719.045 824.78,717.793 824.475,716.186 825.264,716.298 825.6,717.203 825.664,717.884 825.749,718.79 826.589,719.81 826.485,720.65 827.046,720.052 827.328,719.223 827.065,718.419 827.789,719.127 827.898,720.495 827.275,721.299 828.04,720.753 827.724,719.682 827.635,718.923 828.027,719.015 828.41,719.135 828.785,719.283 828.711,719.202 826.334,717.934 827.733,718.11 829.061,718.277 830.791,719.671 830.085,721.155 830.401,720.581 830.855,720.632 830.515,720.075 831.05,719.808 831.603,719.761 832.175,719.93 830.956,718.578 832.929,719.797 833.374,720.517 834.191,721.839 835.632,721.297 836.69,722.118 839.515,724.309 836.2,724.319 835.485,726.339 835.713,726.087 835.953,725.847 836.205,725.619 836.404,726.654 835.281,728.449 834.792,729.31 834.49,729.842 834.577,730.298 833.89,730.298 833.282,730.298 831.421,729.754 831.025,730.298 831.908,730.798 833.334,730.946 833.835,731.954 834.406,731.21 835.211,730.682 835.345,731.882 836.172,730.972 836.792,730.542 838.005,730.298 839.138,730.07 839.578,731.276 840.633,730.259 842.456,728.501 845.738,732.865 844.712,733.383 843.691,733.899 843.104,734.644 842.273,735.435 841.496,736.176 840.15,736.532 839.535,737.183 839.094,737.65 838.735,738.293 838.338,738.805 837.534,739.843 838.706,740.498 838.619,741.625 838.564,742.326 838.826,743.105 839.639,742.66 840.611,742.129 841.291,743.408 840.556,744.116 839.747,744.895 838.544,745.17 837.761,745.952 837.386,746.327 836.734,745.783 836.348,745.745 836.004,745.711 835.808,746.383 835.475,746.513 832.445,747.697 835.526,749.575 833.922,751.352 833.514,751.804 831.887,752.827 832.464,753.616 833.445,754.957 834.452,756.314 835.507,757.596 836.758,759.117 839.309,761.525 836.918,763.269 836.11,763.858 835.5384,764.95039 834.7264,765.53539 834.2764,765.86039 832.724,765.48499 832.624,765.65 832.186,766.369 830.877,766.207 830.853,766.953 830.825,767.839 829.259,767.849 828.643,768.144 827.466,768.708 826.019,769.448 824.717,768.797 823.834,768.356 823.019,769.461 822.1,769.641 820.981,769.862 820.962,771.036 821.224,771.954 821.602,773.28 820.495,774.301 819.382,773.292 818.629,772.608 818.257,771.698 817.567,770.975 816.651,770.014 816.063,771.307 815.166,770.981 813.934,770.532 813.474,770.896 812.233,770.763 811.267,770.659 811.483,771.034 811.107,769.846 810.752,768.724 809.306,768.627 808.343,768.819 807.068,769.073 807.105,767.957 806.113,767.523 805.284,768.356 806.816,770.233 807.321,770.849 808.774,772.621 809.973,772.939 810.015,775.465 810.029,776.285 810.056,777.098 810.269,777.896 810.539,778.904 811.599,779.941 811.457,781.002 811.216,782.805 811.21,783.598 813.402,783.653 814.037,783.669 816.39164,783.17891 816.18901,784.3288 815.81401,786.4568 814.71964,786.2871 813.68121,787.01559 812.899,787.56433 811.51939,787.68779 811.20439,788.42279 810.84739,789.25679 810.929,789.862 810.355,790.67 809.843,791.39 809.164,791.959 808.703,792.722 808.7278,790.78012 805.72263,793.76191 805.161,793.872 803.80991,794.13683 802.94,794.912 802.131,796.037 801.589,796.791 800.459,798.759 799.553,799.055 798.957,798.334 799.725,797.428 799.533,796.645 799.209,795.321 797.264,796.606 796.752,796.975 793.82,799.085 791.58542,796.78642 789.67242,794.27342 788.77842,793.09942 788.868,791.729 788.456,790.354 787.984,788.775 786.829,786.58 786.901,784.927 786.957,783.626 783.48719,779.37327 781.91919,780.55227 781.86919,779.09227 784.224,777.538 785.239,776.739 787.01,775.344 785.829,773.86 784.58,772.431 781.821,769.278 782.61946,763.9019 782.62846,760.1159 782.63146,758.7619 783.06701,758.11431 783.89064,757.19554 784.41686,756.60854 784.16335,755.40094 784.583,754.634 785.03998,753.79884 785.77354,753.20332 786.004,752.469 786.41603,751.15611 784.61537,749.8428 783.87528,750.18246 782.09747,750.99837 780.65611,751.18278 779.1119,751.07846 778.40784,751.03086 776.89738,751.78122 775.28527,751.34481 774.14437,751.03596 774.21046,751.48277 772.76936,751.68491 772.50812,751.72161 770.41891,751.0551 770.61791,751.1831 769.82191,750.6741 769.456,749.544 768.954,748.779 768.245,747.697 767.574,746.631 766.926,745.514 766.594,744.941 766.128,744.24381 765.307,744.49181 763.776,744.95481 762.79891,743.47427 761.35291,743.32327 760.42191,743.22527 760.012,743.979 759.163,744.195 757.91,744.515 756.734,743.64 755.481,743.87 754.678,744.016 754.201,743.498 753.363,743.921 752.537,744.338 751.434,743.842 750.97,743.086 750.612,742.503 750.43173,742.07781 750.27073,741.43281 750.04773,740.53781 748.798,740.63 748.35,739.99 747.49,738.761 748.16437,736.153 748.89937,735.14 750.29337,733.219 747.909,731.331 747.283,729.939 746.623,728.472 747.342,725.065 745.195,725.62 745.234,725.1 745.162,724.596 744.979,724.107 744.138,724.842 743.252,725.289 742.105,725.256" id="path3410"/>
    </g>
  <path class="landxx col" d="M 667.27529,745.84555 C 667.01129,745.77355 666.74729,745.70155 666.48329,745.62955 666.76429,743.90955 668.61029,743.36655 670.01129,744.18955 670.77029,742.72155 668.88229,741.33755 669.63029,739.84055 670.58829,737.91955 672.74129,738.01755 674.54729,737.71055 674.89029,737.65255 674.77029,736.82155 675.23729,737.10255 675.58029,737.30855 676.35929,737.48955 676.36429,736.88455 676.37429,735.67755 677.95329,734.17655 676.99529,733.39055 678.71229,733.34455 679.02929,731.13455 679.53529,729.96255 679.93529,729.03655 680.71629,728.39555 681.53129,727.84655 680.51729,727.01855 681.72029,726.89355 682.03529,726.04655 681.32829,726.07455 680.42529,726.65755 680.16329,725.61455 680.71729,725.47055 681.12329,725.06355 681.09929,724.46255 680.55429,724.27155 679.44829,725.72955 679.33529,724.60655 679.21729,723.42855 679.88929,723.19455 680.81129,722.73355 679.36429,722.74755 680.02529,720.82155 680.22329,720.02955 680.61029,718.47455 680.27029,716.39055 680.12029,714.80655 680.00629,713.60755 679.47429,712.46355 679.39129,711.26855 679.34629,710.61455 681.43829,710.35755 681.08329,708.83055 680.87129,707.91655 678.76829,705.81755 680.16429,705.28855 681.41929,704.81355 680.34229,702.15055 679.79729,701.54255 678.69829,700.31555 678.56329,698.48055 677.37629,697.44655 676.59529,696.76655 677.37529,695.90955 677.82929,695.28755 678.37729,694.53855 677.85029,693.56155 678.50629,692.92555 678.86729,693.35255 679.13129,693.83255 679.29829,694.36555 680.83429,693.29055 683.01929,691.19055 682.30929,689.10455 681.58129,686.96755 680.22329,686.51455 681.53029,684.50055 682.27329,685.46155 683.08129,686.77355 683.72229,687.84155 684.38329,688.94355 686.00629,689.27955 684.55429,690.62055 686.50429,692.85855 685.54729,686.44055 685.27129,685.75355 684.87529,684.76355 689.43829,682.48155 690.02129,681.68155 690.75429,680.67455 691.27829,678.98455 692.50329,678.45355 693.19729,678.15355 694.84129,678.32455 695.23129,677.54555 695.78629,676.43855 694.71129,676.03855 694.93729,675.35655 695.33829,674.14355 695.50529,672.61955 696.21829,671.54155 695.15929,671.43355 695.44629,671.08255 696.16529,670.71455 696.82229,670.37855 696.56829,669.47455 696.55029,668.91055 696.50829,667.58655 698.73829,667.21555 698.73829,666.75255 698.73829,666.05955 701.45429,663.38155 702.08729,663.39855 703.34129,663.43055 704.40029,664.54355 705.65029,664.55755 704.59429,664.41755 704.74429,665.56255 703.77829,665.56555 704.51229,668.28655 706.11829,664.66555 706.48629,663.68455 707.40329,661.23555 708.48529,661.41155 711.06429,661.84155 714.58329,662.42855 715.70329,660.14055 718.47829,658.47755 720.00429,657.56255 724.44329,656.47355 723.07429,653.83055 723.65729,653.65655 725.30629,653.13055 724.37029,654.33455 725.45029,654.16955 724.77029,653.09655 725.95429,652.55855 727.38029,651.91155 728.63329,651.91055 729.85129,652.92855 734.00629,656.40155 725.06129,657.80855 723.72129,659.51855 723.00529,660.43155 722.73429,661.76455 721.88629,662.55755 721.29729,663.10855 720.33929,663.00255 719.81429,663.59955 718.82529,664.72355 717.78829,666.43955 717.15229,667.78755 716.20329,669.79655 716.16329,671.85855 715.62529,673.97555 715.09529,676.05455 713.58429,678.55355 712.20229,680.18355 713.34929,680.21655 714.23529,679.76955 715.08229,679.03155 715.26529,679.51955 715.33729,680.02455 715.29829,680.54455 717.47829,679.98155 716.74729,683.84855 717.85329,685.25455 719.43229,687.26255 719.86629,688.44255 718.94229,690.90955 718.47829,692.14955 717.73329,694.80255 719.41029,695.43155 721.31329,696.14455 720.30529,698.41055 722.26329,698.87255 723.05529,699.05955 723.81329,698.55555 724.58729,698.47255 725.85029,698.33655 727.00129,699.18355 728.26929,699.06755 729.39829,698.96455 730.34429,698.16255 731.49629,698.18455 732.52029,698.20455 733.28229,699.19355 734.25029,699.42155 734.96129,699.58855 735.62429,698.99155 736.27329,699.56055 737.12729,700.30855 737.70529,701.67655 738.33529,702.60355 738.91929,703.46355 739.45529,704.33655 739.98129,705.23055 740.66129,706.38455 740.94229,706.06155 741.96929,706.35855 743.46429,706.79155 744.83929,705.53628 746.78829,706.31825 747.38429,706.55725 748.69729,705.97452 749.34129,705.96052 750.75229,705.92852 751.95229,706.04052 753.19029,705.28952 754.59229,704.43952 756.90829,706.11152 756.17229,707.58652 755.75129,708.42952 754.72629,709.07652 754.54229,710.01952 754.31529,711.18052 754.78329,711.78952 753.68029,712.54052 752.21129,713.54152 752.79329,717.56552 752.64829,719.19752 752.47529,721.13652 753.27829,723.19852 753.64229,725.24552 753.91629,726.78752 756.87229,728.82452 756.39329,730.39752 755.80329,732.33252 752.15629,733.08752 752.23629,735.40752 753.55829,734.41452 756.78829,738.04852 757.20629,739.15152 757.11429,739.45052 757.13809,739.75252 757.07408,740.05852 757.24508,740.61952 757.67829,741.17452 757.67929,741.77552 757.68129,743.02452 758.40729,744.34452 758.71629,745.58152 758.83829,746.07102 759.48662,747.96565 759.62024,748.72378 759.75387,749.4819 759.34891,748.99209 758.74629,749.17952 757.73973,749.49259 757.42986,749.01644 757.67731,748.42645 758.08286,747.45946 757.50521,741.12941 754.98529,741.22552 754.00041,741.26312 751.32829,746.35552 750.57829,743.54752 750.29829,742.50252 748.95429,742.02652 749.10229,743.54352 749.26929,745.24852 747.10329,744.62452 745.94329,744.62452 744.20529,744.62452 742.46629,744.62452 740.72829,744.62452 739.57829,744.62452 738.33629,743.94752 737.20529,744.44652 735.51529,745.19052 736.86029,748.98452 736.68729,750.38452 738.05629,749.45952 741.26729,750.26152 741.88329,751.77252 742.11129,752.33152 742.24029,754.21352 741.17429,754.11652 740.51529,754.05652 740.11629,753.18052 739.40629,753.30752 737.83929,753.58752 735.09929,754.01852 734.98429,755.84752 734.84429,758.07552 734.64829,761.19352 736.57229,762.65052 737.54329,763.38552 738.67629,764.02052 738.62629,765.41052 738.57829,766.74452 739.25729,767.25552 739.77829,768.38152 740.96129,770.93652 739.42929,774.43152 739.06829,777.04452 738.20029,783.33552 738.34129,790.17852 736.39829,796.25152 735.93129,795.09452 735.01429,794.25833 734.18729,793.34133 733.24529,792.29733 732.05302,793.33933 730.96302,792.71933 729.95202,792.14433 732.49875,787.88725 732.85075,787.28725 733.53775,786.11925 735.59793,783.82452 734.55093,782.70352 734.09793,782.21952 733.63527,780.94383 732.90329,781.20052 731.60059,781.65734 730.12029,779.57789 729.79329,779.30752 728.54329,778.27399 727.48629,779.31352 726.16657,779.95706 724.90885,780.57054 724.07683,778.91729 722.92166,778.72352 722.21698,778.60532 720.21733,781.70746 717.87249,780.99679 717.0516,780.748 716.48929,780.75452 715.47029,780.88652 714.06429,781.07052 713.32202,780.92602 712.21602,780.06706 711.35302,779.39606 712.26032,777.61152 711.95029,776.59152 711.52729,775.19952 709.32129,775.95452 709.07429,774.55752 708.89829,773.56252 708.4022,772.42779 708.0022,771.49979 707.5822,770.52479 706.31502,770.94261 705.71402,770.08361 705.06302,769.15261 704.64529,768.88952 703.77429,768.59652 702.66629,768.22452 702.0152,766.72833 701.9312,765.72833 701.7722,763.82233 698.28429,760.77152 696.50929,760.25152 696.16729,760.15052 695.80929,759.75433 695.50629,760.23632 695.17829,760.75732 695.18629,760.76451 694.48729,760.44651 693.44629,759.97251 691.84529,759.41151 690.96829,758.72551 690.28729,758.19251 687.13138,754.21105 686.75738,757.04605 686.56338,758.51905 681.00929,756.64151 679.85629,756.43551 677.98629,756.10151 679.36229,754.51951 677.98429,753.93051 676.77529,753.41351 677.31029,752.38351 675.75329,752.36451 674.52929,752.35051 672.11048,750.9926 671.20548,750.2446 669.68248,748.9886 668.44729,747.44651 667.27529,745.84551" id="co">
    <title>Colombia</title>
  </path>
  <g id="cw">
    <title>Curacao</title>
    <path class="world_map-is_selected landxx coastxx cuw" d="M 748.99628,655.41353 C 747.75928,655.10953 746.07528,654.04153 746.04628,652.60453 746.71128,652.70453 748.81428,654.75353 748.99628,655.41353" id="cw-"/>
    </g>
  </svg>