<svg xmlns="http://www.w3.org/2000/svg" class="world_map zoom4" height="127" id="svg2985" version="1.1" viewBox="645 574 33 33" width="127">
  <title>World Map</title>
  <defs id="defs2987"/>
  <defs>
    <link xmlns="http://www.w3.org/1999/xhtml" href="../css/svg.css" type="text/css" rel="stylesheet"/>
  </defs>
  <style id="style_css_sheet" type="text/css">
/*
 * Below are Cascading Style Sheet (CSS) definitions in use in this file,
 * which allow easily changing how countries are displayed.
 *
 */
/* --- Custom styles for Peace Corps --- */
.world_map .world_map-is_selected {
  fill: #C94112 !important;
}
.world_map .landxx {
  fill: #F2EFE8;
  stroke: #ffffff;
  fill-rule: evenodd;
}
.world_map.zoom4 .landxx {
  stroke-width: 2px;
}
.world_map.zoom3 .landxx {
  stroke-width: 3px;
}
.world_map.zoom2 .landxx {
  stroke-width: 4px;
}
.world_map.zoom1 .landxx {
  stroke-width: 5px;
}
.world_map .coastxx {
  fill: #F2EFE8;
  stroke: #ffffff;
  stroke-width: 2px;
  fill-rule: evenodd;
}
.world_map .oceanxx {
  opacity: 1;
  color: #ccc;
  fill: #ffffff;
  stroke: #ffffff;
  stroke-width: 0.5;
  stroke-miterlimit: 1;
}

/* --- Original Styles --- *
/*
 * Circles around small countries
 *
 * Change opacity to 1 to display all circles.
 *
 */
.circlexx
{
   opacity:0;
   fill:#e0e0e0;
   stroke:#000000;
   stroke-width:0.5;
}

/*
 * Smaller circles around French DOMs and Chinese SARs
 *
 * Change opacity to 1 to display all subnational circles.
 *
 */
.subxx
{
   opacity:0;
   stroke-width:0.3;
}

/*
 * Circles around small, unrecognized countries
 *
 * Change opacity to 1 to display all circles.
 *
 */
.unxx
{
   opacity:0;
   fill:#e0e0e0;
   stroke:#000000;
   stroke-width:0.3;
}

/*
 * Circles around small countries, but with no permanent residents 
 *
 * Change opacity to 1 to display all circles.
 *
 */
.noxx
{
   opacity:0;
   fill:#e0e0e0;
   stroke:#000000;
   stroke-width:0.5;
}

/*
 * land
 */
.landxx
{
}
/*
 * Styles for coastlines of islands with no borders
 */


/*
 * Styles for nations with limited recognition
 */
.limitxx
{
   fill: #e0e0e0;
   stroke:#ffffff;
   stroke-width:0;
   fill-rule:evenodd;
}

/*
 * Styles for nations with no permanent population.
 */
.antxx
{
   fill: #e0e0e0;
   stroke:#ffffff;
   stroke-width:0;
   fill-rule:evenodd;
}

/*
 * Ocean
 */


/*
 * Additional style rules
 *
 * The following are examples of colouring countries.  You can substitute these with your own styles to colour the countries on the map.
 *
 * Color a few countries:
 *
 * .gb, .au, .nc
 * {
 *    fill:       #ff0000;
 * }
 *
 * Color a few small country circles (and the countries):
 *
 * .ms, .ky
 * {
 *    opacity:    1;
 *    fill:       #ff0000;
 * }
 *
 */

</style>
  <path class="oceanxx" d="M 2079.5058,1457.5605 615.24779,1457.5605 C 615.13079,1457.5605 615.07079,1457.5505 614.95179,1457.5215 611.67679,1456.6515 608.40179,1455.7815 605.12779,1454.9105 599.15079,1453.3225 593.22879,1451.5225 587.30779,1449.7385 564.39379,1442.8315 541.76579,1434.6995 519.46979,1426.0115 495.81079,1416.7935 472.34979,1407.0946 449.19179,1396.6816 426.78379,1386.6056 405.17679,1375.0536 383.76379,1363.0356 363.11779,1351.4496 343.01079,1338.8296 323.37979,1325.5996 302.29179,1311.3876 281.47879,1296.8506 261.05379,1281.7006 242.35079,1267.8276 223.73679,1253.6306 206.05279,1238.4686 186.98679,1222.1216 167.82379,1205.7706 150.35279,1187.6906 132.97779,1169.7106 116.33279,1151.0606 100.15679,1131.9976 84.352777,1113.3736 70.086776,1093.4716 56.901786,1072.9246 44.046786,1052.8916 32.093776,1032.1356 22.469776,1010.3426 17.516776,999.12753 12.408776,987.76556 8.7017761,976.06056 5.0657761,964.58166 1.5997761,953.04259 -1.5932239,941.43054 -8.0102239,918.09356 -14.055224,894.78356 -18.234224,870.92056 -22.491222,846.60856 -24.894222,822.19856 -26.943222,797.62156 -28.947222,773.58556 -28.829222,749.40156 -27.225222,725.34856 -25.648222,701.69856 -23.363222,677.92456 -19.274222,654.56456 -15.018224,630.25156 -9.3842239,606.45156 -2.8412239,582.66156 3.5687761,559.35256 10.483776,536.34856 20.265776,514.19856 30.320776,491.42956 42.318786,469.90956 55.502786,448.81656 68.512776,428.00356 83.108777,408.26756 98.686787,389.31756 113.73479,371.01156 129.68979,353.25256 146.15179,336.20856 163.77479,317.96256 182.64579,301.14556 201.89579,284.64756 220.33379,268.84456 239.55379,253.98456 258.95979,239.39656 278.42779,224.76056 298.39379,210.83356 318.55579,197.17556 339.26979,183.14456 360.47879,169.92056 382.15079,157.42556 403.46579,145.13656 425.31479,133.98856 447.60479,123.59356 469.58579,113.34356 492.14979,104.17656 514.74579,95.37556 537.44879,86.532565 560.37879,78.195565 583.63479,70.914565 589.69379,69.017565 595.80079,67.276565 601.90879,65.549565 604.63079,64.779565 607.36079,64.045565 610.09479,63.318565 611.59979,62.918565 613.56579,61.986565 615.13379,61.986565 L 2079.9638,61.986565 C 2079.9798,61.986565 2079.9958,61.986565 2080.0118,61.986565 2079.8448,61.986565 2079.6788,61.986565 2079.5118,61.986565 2102.8268,68.191565 2125.8778,75.323565 2148.5448,83.611565 2171.6378,92.054565 2194.6158,100.87956 2217.2348,110.52956 2240.5208,120.46556 2263.4848,130.95256 2285.8828,142.76456 2306.9808,153.89056 2327.8178,165.78556 2347.8608,178.72156 2368.9418,192.32656 2389.7498,206.29256 2410.2218,220.80056 2429.7368,234.62956 2448.9938,248.98756 2467.6208,263.99256 2486.8818,279.50856 2506.0408,295.30556 2524.0538,312.27356 2541.8708,329.05756 2558.7508,346.67256 2574.9408,365.03656 2591.2478,383.53256 2607.1478,402.30656 2621.4508,422.41856 2635.3488,441.96256 2648.4468,462.42756 2659.5898,483.67756 2671.1238,505.67356 2681.1048,528.35656 2688.6188,552.05056 2692.2518,563.50656 2695.3368,575.14756 2698.5608,586.72256 2701.7738,598.25356 2704.9238,609.81956 2707.4578,621.52456 2712.6258,645.40556 2716.6718,669.47856 2719.1178,693.79656 2721.5718,718.19256 2723.1798,742.56356 2722.9808,767.09056 2722.7908,790.65456 2720.6908,814.43756 2717.7688,837.81156 2714.7368,862.07056 2710.5198,886.16156 2704.6398,909.90056 2701.6808,921.84356 2698.3948,933.69556 2695.0378,945.53154 2691.7468,957.13466 2688.5558,968.83466 2684.3988,980.16156 2676.0918,1002.8036 2666.1688,1024.8836 2654.1338,1045.8046 2641.9958,1066.9066 2628.8498,1087.4866 2614.2378,1106.9696 2599.1658,1127.0666 2582.6678,1145.9446 2565.8948,1164.6296 2549.8298,1182.5266 2532.8918,1199.7316 2514.8648,1215.6616 2496.0788,1232.2646 2476.8978,1248.3126 2457.1558,1263.7656 2438.2988,1278.5276 2418.9668,1292.7306 2399.3188,1306.4206 2378.7018,1320.7866 2357.7538,1334.6106 2336.4758,1347.9776 2326.4088,1354.3016 2316.0058,1360.1326 2305.6418,1365.9516 2295.0348,1371.9086 2284.3858,1378.0166 2273.4448,1383.3436 2250.7338,1394.3986 2227.7768,1404.7266 2204.3888,1414.2665 2181.7848,1423.4875 2159.0678,1432.2695 2136.0228,1440.3345 2117.4118,1446.8465 2098.5568,1452.4975 2079.5058,1457.5605" id="ocean"/>
  <g class="landxx coastxx cub" id="cu" transform="translate(-29.9017,-45.0745)">
    <title>Cuba</title>
    <path d="M 666.865,615.312 C 668.251,614.811 669.718,613.513 671.257,614.304 671.762,613.168 670.351,612.208 671.353,611.094 672.166,610.19 673.462,608.83 674.461,608.164 675.644,607.376 677.175,607.08 678.508,606.643 679.655,606.267 680.693,605.512 681.932,605.539 684.508,605.596 686.657,604.283 689.205,604.094 690.387,604.006 691.812,603.921 692.931,604.395 693.188,604.503 693.499,604.694 693.505,605.015 694.436,604.575 695.475,604.428 696.385,603.936 694.891,604.329 696.522,605.168 697.332,604.874 698.079,604.603 700.33,604.578 700.592,605.004 701.003,605.671 702.105,606.663 702.98,606.4 704.002,606.093 705.364,607.276 706.25,606.528 706.042,606.78 705.85,607.044 705.674,607.32 707.324,607.752 707.003,608.527 708.144,609.651 709.639,611.124 710.318,610.759 712.288,610.939 714.169,611.111 714.899,611.957 716.403,612.865 716.973,613.209 717.784,613.127 718.171,613.771 718.528,614.366 718.995,615.434 719.787,614.592 719.491,615.474 720.208,616.083 721.022,616.157 721.973,616.244 722.27,617.083 723.099,617.399 722.754,616.71 722.516,615.817 721.659,615.599 722.434,615.77 724.945,616.746 724.539,617.904 724.023,617.834 723.519,617.714 723.027,617.544 723.38,617.999 723.517,618.505 723.819,618.983 724.921,617.094 725.257,619.253 726.555,619.272 726.377,619.523 726.185,619.763 725.979,619.992 726.454,619.713 726.958,619.641 727.491,619.776 727.392,620.039 727.296,620.302 727.203,620.567 727.749,620.674 728.229,620.915 728.643,621.288 728.54,619.332 731.308,621.6 731.871,621.999 732.608,622.521 733.282,621.895 734.07,621.822 735.35,621.703 735.806,623.477 734.403,623.664 734.667,623.808 734.931,623.951 735.195,624.096 734.593,624.284 734.061,624.674 733.683,625.176 735.738,625.614 739.219,624.871 740.854,626.281 742.237,627.475 742.61,628.727 744.536,628.996 746.815,629.313 743.807,630.903 742.871,631.012 742.587,631.045 737.698,632.349 737.598,632.188 737.632,631.933 737.766,631.731 738.003,631.584 737.098,631.584 737.148,632.737 735.605,632.587 733.957,632.426 732.416,631.838 730.744,631.765 726.555,631.583 722.333,633.161 718.131,633.025 718.192,630.803 720.948,630.271 722.396,629.192 723.249,628.556 723.771,627.956 722.937,627.27 722.313,626.756 723.19,625.117 721.683,625.487 718.86,626.182 716.014,625.662 714.4,623.056 713.821,622.121 713.924,620.882 713.76,619.835 713.684,619.356 713.566,618.838 713.247,618.454 712.868,617.997 712.034,618.183 712.875,617.76 711.586,617.144 710.307,618.105 709.059,618.228 707.762,618.356 706.659,617.146 705.469,616.931 704.305,616.72 703.59,616.91 702.959,616.147 701.955,614.934 700.623,615.002 700.419,613.08 700.197,614.688 695.319,614.21 695.235,612.072 694.95,612.536 694.806,613.04 694.802,613.584 694.367,613.569 694.028,613.387 693.785,613.036 693.167,612.413 692.187,612.649 691.419,612.649 690.154,612.649 689.06,611.9 688.179,611.063 688.849,610.326 690.139,610.709 691,610.565 692.281,610.35 692.197,609.052 691.082,608.678 688.885,607.94 684.747,607.869 682.766,609.172 681.539,609.98 680.142,610.875 679.156,611.971 678.234,612.994 677.58,612.228 676.49,612.681 675.866,612.94 675.199,612.546 674.601,612.904 673.969,613.283 674.184,613.898 673.707,614.376 672.706,615.38 671.081,615.286 670.035,616.248 670.342,613.33 666.921,617.002 666.579,615.096 666.673,615.168 666.769,615.239 666.865,615.312" id="path3580"/>
    <path d="M 681.193,619.2 C 680.422,619.021 679.569,618.716 679.393,617.832 680.939,619.488 680.289,616.549 680.302,616.081 680.329,615.07 681.872,614.664 682.633,615.024 683.429,615.402 684.032,616.853 684.013,617.682 683.988,618.808 681.977,618.974 681.193,619.2" id="path3582"/>
    </g>
  <g id="ky">
    <title>Cayman Islands</title>
    <path class="world_map-is_selected landxx coastxx cym" d="M 660.00329,592.34155 C 660.73329,592.38655 661.44029,592.17555 662.16329,592.12555 661.51329,592.57355 660.75129,592.96355 659.93129,592.84555 659.95429,592.67755 659.97929,592.50955 660.00329,592.34155" id="ky-"/>
    <circle class="world_map-is_selected circlexx cym" cx="662.26086" cy="591.69312" id="ky." r="6.0130301" rx="6.0130301" ry="6.0130301"/>
  </g>
  </svg>