<svg xmlns="http://www.w3.org/2000/svg" class="world_map zoom4" height="127" id="svg2985" version="1.1" viewBox="1575 634 39 45" width="127">
  <title>World Map</title>
  <defs id="defs2987"/>
  <defs>
    <link xmlns="http://www.w3.org/1999/xhtml" href="../css/svg.css" type="text/css" rel="stylesheet"/>
  </defs>
  <style id="style_css_sheet" type="text/css">
/*
 * Below are Cascading Style Sheet (CSS) definitions in use in this file,
 * which allow easily changing how countries are displayed.
 *
 */
/* --- Custom styles for Peace Corps --- */
.world_map .world_map-is_selected {
  fill: #C94112 !important;
}
.world_map .landxx {
  fill: #F2EFE8;
  stroke: #ffffff;
  fill-rule: evenodd;
}
.world_map.zoom4 .landxx {
  stroke-width: 2px;
}
.world_map.zoom3 .landxx {
  stroke-width: 3px;
}
.world_map.zoom2 .landxx {
  stroke-width: 4px;
}
.world_map.zoom1 .landxx {
  stroke-width: 5px;
}
.world_map .coastxx {
  fill: #F2EFE8;
  stroke: #ffffff;
  stroke-width: 2px;
  fill-rule: evenodd;
}
.world_map .oceanxx {
  opacity: 1;
  color: #ccc;
  fill: #ffffff;
  stroke: #ffffff;
  stroke-width: 0.5;
  stroke-miterlimit: 1;
}

/* --- Original Styles --- *
/*
 * Circles around small countries
 *
 * Change opacity to 1 to display all circles.
 *
 */
.circlexx
{
   opacity:0;
   fill:#e0e0e0;
   stroke:#000000;
   stroke-width:0.5;
}

/*
 * Smaller circles around French DOMs and Chinese SARs
 *
 * Change opacity to 1 to display all subnational circles.
 *
 */
.subxx
{
   opacity:0;
   stroke-width:0.3;
}

/*
 * Circles around small, unrecognized countries
 *
 * Change opacity to 1 to display all circles.
 *
 */
.unxx
{
   opacity:0;
   fill:#e0e0e0;
   stroke:#000000;
   stroke-width:0.3;
}

/*
 * Circles around small countries, but with no permanent residents 
 *
 * Change opacity to 1 to display all circles.
 *
 */
.noxx
{
   opacity:0;
   fill:#e0e0e0;
   stroke:#000000;
   stroke-width:0.5;
}

/*
 * land
 */
.landxx
{
}
/*
 * Styles for coastlines of islands with no borders
 */


/*
 * Styles for nations with limited recognition
 */
.limitxx
{
   fill: #e0e0e0;
   stroke:#ffffff;
   stroke-width:0;
   fill-rule:evenodd;
}

/*
 * Styles for nations with no permanent population.
 */
.antxx
{
   fill: #e0e0e0;
   stroke:#ffffff;
   stroke-width:0;
   fill-rule:evenodd;
}

/*
 * Ocean
 */


/*
 * Additional style rules
 *
 * The following are examples of colouring countries.  You can substitute these with your own styles to colour the countries on the map.
 *
 * Color a few countries:
 *
 * .gb, .au, .nc
 * {
 *    fill:       #ff0000;
 * }
 *
 * Color a few small country circles (and the countries):
 *
 * .ms, .ky
 * {
 *    opacity:    1;
 *    fill:       #ff0000;
 * }
 *
 */

</style>
  <path class="oceanxx" d="M 2079.5058,1457.5605 615.24779,1457.5605 C 615.13079,1457.5605 615.07079,1457.5505 614.95179,1457.5215 611.67679,1456.6515 608.40179,1455.7815 605.12779,1454.9105 599.15079,1453.3225 593.22879,1451.5225 587.30779,1449.7385 564.39379,1442.8315 541.76579,1434.6995 519.46979,1426.0115 495.81079,1416.7935 472.34979,1407.0946 449.19179,1396.6816 426.78379,1386.6056 405.17679,1375.0536 383.76379,1363.0356 363.11779,1351.4496 343.01079,1338.8296 323.37979,1325.5996 302.29179,1311.3876 281.47879,1296.8506 261.05379,1281.7006 242.35079,1267.8276 223.73679,1253.6306 206.05279,1238.4686 186.98679,1222.1216 167.82379,1205.7706 150.35279,1187.6906 132.97779,1169.7106 116.33279,1151.0606 100.15679,1131.9976 84.352777,1113.3736 70.086776,1093.4716 56.901786,1072.9246 44.046786,1052.8916 32.093776,1032.1356 22.469776,1010.3426 17.516776,999.12753 12.408776,987.76556 8.7017761,976.06056 5.0657761,964.58166 1.5997761,953.04259 -1.5932239,941.43054 -8.0102239,918.09356 -14.055224,894.78356 -18.234224,870.92056 -22.491222,846.60856 -24.894222,822.19856 -26.943222,797.62156 -28.947222,773.58556 -28.829222,749.40156 -27.225222,725.34856 -25.648222,701.69856 -23.363222,677.92456 -19.274222,654.56456 -15.018224,630.25156 -9.3842239,606.45156 -2.8412239,582.66156 3.5687761,559.35256 10.483776,536.34856 20.265776,514.19856 30.320776,491.42956 42.318786,469.90956 55.502786,448.81656 68.512776,428.00356 83.108777,408.26756 98.686787,389.31756 113.73479,371.01156 129.68979,353.25256 146.15179,336.20856 163.77479,317.96256 182.64579,301.14556 201.89579,284.64756 220.33379,268.84456 239.55379,253.98456 258.95979,239.39656 278.42779,224.76056 298.39379,210.83356 318.55579,197.17556 339.26979,183.14456 360.47879,169.92056 382.15079,157.42556 403.46579,145.13656 425.31479,133.98856 447.60479,123.59356 469.58579,113.34356 492.14979,104.17656 514.74579,95.37556 537.44879,86.532565 560.37879,78.195565 583.63479,70.914565 589.69379,69.017565 595.80079,67.276565 601.90879,65.549565 604.63079,64.779565 607.36079,64.045565 610.09479,63.318565 611.59979,62.918565 613.56579,61.986565 615.13379,61.986565 L 2079.9638,61.986565 C 2079.9798,61.986565 2079.9958,61.986565 2080.0118,61.986565 2079.8448,61.986565 2079.6788,61.986565 2079.5118,61.986565 2102.8268,68.191565 2125.8778,75.323565 2148.5448,83.611565 2171.6378,92.054565 2194.6158,100.87956 2217.2348,110.52956 2240.5208,120.46556 2263.4848,130.95256 2285.8828,142.76456 2306.9808,153.89056 2327.8178,165.78556 2347.8608,178.72156 2368.9418,192.32656 2389.7498,206.29256 2410.2218,220.80056 2429.7368,234.62956 2448.9938,248.98756 2467.6208,263.99256 2486.8818,279.50856 2506.0408,295.30556 2524.0538,312.27356 2541.8708,329.05756 2558.7508,346.67256 2574.9408,365.03656 2591.2478,383.53256 2607.1478,402.30656 2621.4508,422.41856 2635.3488,441.96256 2648.4468,462.42756 2659.5898,483.67756 2671.1238,505.67356 2681.1048,528.35656 2688.6188,552.05056 2692.2518,563.50656 2695.3368,575.14756 2698.5608,586.72256 2701.7738,598.25356 2704.9238,609.81956 2707.4578,621.52456 2712.6258,645.40556 2716.6718,669.47856 2719.1178,693.79656 2721.5718,718.19256 2723.1798,742.56356 2722.9808,767.09056 2722.7908,790.65456 2720.6908,814.43756 2717.7688,837.81156 2714.7368,862.07056 2710.5198,886.16156 2704.6398,909.90056 2701.6808,921.84356 2698.3948,933.69556 2695.0378,945.53154 2691.7468,957.13466 2688.5558,968.83466 2684.3988,980.16156 2676.0918,1002.8036 2666.1688,1024.8836 2654.1338,1045.8046 2641.9958,1066.9066 2628.8498,1087.4866 2614.2378,1106.9696 2599.1658,1127.0666 2582.6678,1145.9446 2565.8948,1164.6296 2549.8298,1182.5266 2532.8918,1199.7316 2514.8648,1215.6616 2496.0788,1232.2646 2476.8978,1248.3126 2457.1558,1263.7656 2438.2988,1278.5276 2418.9668,1292.7306 2399.3188,1306.4206 2378.7018,1320.7866 2357.7538,1334.6106 2336.4758,1347.9776 2326.4088,1354.3016 2316.0058,1360.1326 2305.6418,1365.9516 2295.0348,1371.9086 2284.3858,1378.0166 2273.4448,1383.3436 2250.7338,1394.3986 2227.7768,1404.7266 2204.3888,1414.2665 2181.7848,1423.4875 2159.0678,1432.2695 2136.0228,1440.3345 2117.4118,1446.8465 2098.5568,1452.4975 2079.5058,1457.5605" id="ocean"/>
  <g class="landxx coastxx yem" id="ye" transform="translate(-29.9017,-45.0745)">
    <title>Yemen</title>
    <path d="M 1625.188,684.288 C 1625.284,683.957 1625.306,683.621 1625.257,683.28 1624.155,683.457 1624.604,683.897 1625.188,684.288" id="path2190"/>
    <path class="landxx yem" d="M 1702.658,660.279 C 1700.232,660.189 1701.6044,655.21807 1699.1984,654.93507 1700.2778,653.2208 1696.2761,647.90196 1695.5873,646.026 L 1692.7797,639.53725 C 1685.6548,640.93734 1678.4965,642.47056 1671.4847,643.41794 1665.6343,645.22282 1662.6822,648.13037 1661.359,651.297 1660.138,653.121 1659.485,657.727 1656.558,657.55 1654.566,657.43 1654.783,654.443 1652.867,654.669 1650.452,654.954 1648.476,654.909 1646.028,654.565 1644.639,654.37 1643.215,653.381 1641.854,653.381 1640.347,653.381 1638.846,653.526 1637.348,653.668 1635.509,653.842 1633.956,654.668 1632.05,654.563 1631.002,654.505 1630.613,653.339 1629.542,653.206 1628.518,653.078 1627.73,653.769 1627.301,654.635 1626.832,655.58 1626.682,656.726 1626.859,657.764 1626.973,658.436 1627.915,659.103 1627.403,659.792 1626.919,660.445 1626.535,661.116 1626.037,661.796 1625.771,662.168 1625.436,662.461 1625.033,662.676 1624.073,663.156 1624.562,663.521 1624.76,664.574 1625.072,666.242 1624.444,667.015 1624.147,668.535 1623.872,669.942 1625.053,671.165 1624.919,672.564 1624.652,672.324 1623.218,672.287 1623.457,672.846 1623.406,672.729 1624.904,673.572 1624.901,673.568 1625.703,674.424 1626.003,675.31 1626.276,676.43 1626.814,678.626 1626.856,681.074 1627.546,683.21 1627.829,684.087 1628.533,684.743 1628.867,685.598 1629.268,686.629 1628.889,687.747 1628.867,688.802 1628.826,690.889 1631.35,692.645 1630.667,694.765 1631.588,694.836 1632.209,694.319 1633.141,694.691 1634.133,695.087 1634.815,695.414 1635.908,695.197 1638.163,694.75 1639.166,693.174 1641.517,694.407 1641.396,693.767 1642.078,693.117 1642.308,694.048 1642.697,693.62 1642.923,693.123 1643.237,692.647 1643.733,691.894 1644.538,691.911 1645.202,691.409 1646.682,690.291 1646.85,689.164 1648.888,688.696 1650.789,688.259 1652.804,688.176 1654.743,688.354 1655.885,688.458 1657.8,687.148 1658.944,686.824 1660.651,686.341 1661.496,684.864 1662.998,684.032 1663.459,683.777 1664.109,683.2 1664.608,683.051 1665.159,683.069 1665.684,683.2 1666.184,683.442 1666.748,683.469 1667.3,683.401 1667.838,683.239 1671.466,682.655 1672.282,678.901 1675.543,677.3 1677.058,676.556 1678.396,676.368 1680.015,676.085 1682.01,675.737 1683.664,674.399 1685.627,673.931 1686.992,673.605 1688.375,673.348 1689.699,672.87 1691.022,672.392 1691.492,671.338 1692.61,670.767 1693.538,670.293 1695.54,670.352 1695.825,669.092 1696.156,667.632 1695.142,666.304 1695.672,664.815 1696.74,661.806 1700.414,661.925 1702.656,660.279" id="path2592"/>
  </g>
  <g class="landxx coastxx som" id="so">
    <title>Somalia</title>
    <path class="landxx so- som" d="M 1583.6963,739.50955 C 1583.6963,738.10255 1583.3333,736.15655 1583.9403,734.83955 1584.5183,733.58555 1585.698,732.61742 1586.491,731.48742 1588.079,729.22942 1589.4563,725.18755 1591.8633,723.73455 1594.0603,722.40755 1596.6313,723.26555 1598.5543,721.20055 1600.7383,718.85555 1602.8053,717.32355 1606.1103,716.84555 1608.5823,716.48855 1612.9273,718.24655 1614.6353,715.98255 L 1636.3253,690.33455 C 1633.7033,690.33455 1630.9833,690.78055 1628.4053,690.11855 1625.4833,689.36855 1622.6933,687.96055 1619.8693,686.90855 1616.9583,685.82455 1614.0623,684.69955 1611.1573,683.59955 1608.4683,682.58155 1606.1083,681.87055 1604.0443,679.80155 1603.3543,679.10855 1603.1303,678.74455 1602.1733,678.49055 1601.1993,678.23155 1600.8203,676.72155 1600.3653,675.92255 1599.5933,674.56655 1599.0793,673.46955 1597.9853,672.27355 1596.6813,670.84655 1595.1473,669.01655 1595.7413,666.89355 1596.3933,664.56355 1598.434,662.51842 1599.344,660.22142 1601.746,661.56142 1603.0693,664.76255 1604.7123,666.83555 1606.7643,669.42355 1609.8913,670.14155 1613.0643,669.09555 1614.2793,668.69555 1615.8523,667.61155 1616.8903,666.84555 1618.7233,665.49155 1619.2413,665.71955 1621.4973,666.09055 1623.8283,666.47455 1624.8773,666.96255 1627.0543,665.60455 1628.1533,664.91855 1630.6753,662.36055 1632.0913,662.86455 1633.6513,663.41855 1634.7273,663.48755 1636.4043,662.91055 1637.4153,662.56255 1638.3733,662.05055 1639.4233,661.81755 1640.6253,661.54955 1641.4293,662.07255 1642.5753,662.18655 1644.4533,662.37455 1645.8913,661.26055 1647.5153,660.59955 1649.2083,659.91055 1651.1343,660.21555 1652.8413,659.34855 1654.2623,658.62655 1654.4063,656.77055 1655.6143,656.17655 1656.7853,655.59955 1660.5673,656.60255 1660.1023,658.29255 1659.4993,660.48155 1659.0933,661.81655 1659.4963,664.13755 1659.7753,665.75455 1660.1973,668.07255 1658.7843,669.31255 1659.7243,669.66555 1660.5013,669.44655 1660.2943,668.44855 1660.7603,668.75955 1661.2673,668.97555 1661.8143,669.09655 1661.5023,670.64755 1657.9853,668.52255 1657.9723,671.24555 1657.9623,673.46955 1658.1493,675.74555 1657.5303,677.92555 1657.0023,679.78755 1655.8823,681.21255 1654.8293,682.77555 1653.6033,684.59955 1653.7463,687.30155 1652.2443,689.05855 1651.6613,689.74055 1650.8573,689.91455 1650.4533,690.81455 1650.0513,691.70955 1650.3993,692.71955 1650.0643,693.66655 1649.2983,695.82655 1647.7533,697.54155 1646.6773,699.53155 1645.2443,702.17955 1645.1283,705.09455 1644.0093,707.83255 1642.8723,710.61555 1641.1003,713.07455 1639.4683,715.57955 1637.8853,718.01055 1636.8363,720.82655 1635.0243,723.09655 1633.0123,725.61755 1630.9953,728.13155 1628.9443,730.62055 1624.8213,735.62455 1620.6293,739.69155 1615.1653,743.20755 1612.8763,744.68155 1610.5983,746.21255 1608.6863,748.16855 1606.5333,750.36955 1604.0713,752.54255 1602.1253,754.92055 1600.1993,757.27455 1598.1743,759.56555 1596.2713,761.92855 1595.3443,763.07955 1594.5333,764.31655 1593.6313,765.48755 1593.0733,766.21155 1591.4023,768.82455 1591.1053,767.30055 1591.1053,769.77655 1589.4882,772.15649 1587.9952,774.02549 1588.1233,772.08327 1586.2488,770.47715 1584.9162,768.55949 1583.3947,766.37006 1583.637,764.8623 1583.612,762.3263 1583.547,754.6593 1583.696,747.17355 1583.696,739.50955" id="so-"/>
    <path class="limitxx xs som" d="M 1636.3253,690.33455 C 1633.7033,690.33455 1630.9833,690.78055 1628.4053,690.11855 1625.4833,689.36855 1622.6933,687.96055 1619.8693,686.90855 1616.9583,685.82455 1614.0623,684.69955 1611.1573,683.59955 1608.4683,682.58155 1606.1083,681.87055 1604.0443,679.80155 1603.3543,679.10855 1603.1303,678.74455 1602.1733,678.49055 1601.1993,678.23155 1600.8203,676.72155 1600.3653,675.92255 1599.5933,674.56655 1599.0793,673.46955 1597.9853,672.27355 1596.6813,670.84655 1595.1473,669.01655 1595.7413,666.89355 1596.3933,664.56355 1598.434,662.51842 1599.344,660.22142 1601.746,661.56142 1603.0693,664.76255 1604.7123,666.83555 1606.7643,669.42355 1609.8913,670.14155 1613.0643,669.09555 1614.2793,668.69555 1615.8523,667.61155 1616.8903,666.84555 1618.7233,665.49155 1619.2413,665.71955 1621.4973,666.09055 1623.8283,666.47455 1624.8773,666.96255 1627.0543,665.60455 1628.1533,664.91855 1630.6753,662.36055 1632.0913,662.86455 1633.6513,663.41855 1634.7273,663.48755 1636.4043,662.91055 1637.4153,662.56255 1638.3734,662.05081 1639.4233,661.81755 1639.7729,661.73985 1640.0888,661.72855 1640.3892,661.75495 L 1640.4682,685.32208 1636.3257,690.33459 z" id="xs"/>
  </g>
  <path class="landxx eth" d="M 1522.1263,691.34155 C 1522.2693,690.17555 1523.3803,689.55855 1523.3843,688.37355 1523.3943,686.34555 1524.8193,686.15455 1526.5263,686.44455 1528.0423,686.70255 1529.3563,687.18455 1530.4813,685.50855 1531.2593,684.35155 1530.7483,682.34055 1530.5943,681.06955 1530.3403,678.94855 1530.0273,676.66155 1530.8223,674.61755 1531.1343,673.81755 1531.5483,673.06155 1531.8403,672.25255 1532.2703,671.06455 1531.7973,670.26855 1531.7773,669.09255 1531.7573,667.91655 1532.3923,666.73355 1533.1533,665.85055 1534.0293,664.83455 1535.3353,666.04755 1535.3073,667.14755 1535.8133,666.59155 1537.8263,663.50955 1536.8223,662.54055 1536.2543,661.99055 1537.1713,660.68955 1537.3413,660.13555 1537.6743,659.04455 1536.9403,657.66555 1537.9103,656.77655 1539.4653,655.35155 1540.0863,653.47555 1541.0493,651.55555 1541.4553,650.74355 1541.7053,649.89655 1542.6973,649.84955 1543.1093,649.82955 1545.0563,650.04155 1545.2343,649.55055 1545.7763,648.05555 1545.6503,646.19555 1545.8833,644.62955 1546.0173,643.73855 1546.3803,643.04455 1546.7513,642.22355 1547.4143,640.75255 1547.2503,639.37755 1547.5463,637.84555 1548.1093,634.95255 1549.3253,636.01255 1551.5163,635.98955 1552.3623,635.98055 1552.5373,634.25755 1553.7263,634.94555 1554.6533,635.48155 1555.1663,636.71755 1555.7573,637.55755 1556.6493,635.34155 1557.5303,633.10755 1558.1273,630.78955 1558.4693,631.31755 1558.8553,631.98655 1559.4273,632.30155 1560.0513,632.64455 1560.7563,632.36855 1561.1333,633.12255 1561.8753,634.60455 1562.7833,634.77955 1564.3323,634.49855 1564.9043,634.39455 1565.5063,634.23955 1565.9583,633.84855 1566.2283,633.61455 1566.4623,632.72855 1566.7453,632.64855 1567.2673,632.50055 1568.1153,634.28855 1568.2173,634.67755 1569.6933,632.82555 1572.1823,634.97655 1573.6963,634.57355 1575.7743,634.02055 1577.9083,636.23655 1579.6803,636.98655 1582.0523,637.99055 1582.7413,641.05955 1584.6733,642.60355 1585.8343,643.53155 1587.3613,644.27455 1588.0813,645.64155 1588.7383,646.89155 1589.0483,647.93955 1590.2173,648.83455 1592.1813,650.33955 1593.0303,651.49555 1591.7313,653.77755 1590.1963,656.47455 1588.0963,658.00955 1588.5843,661.30355 1588.8263,662.93955 1588.1843,664.93255 1590.5263,664.77255 1591.8963,664.67855 1593.2553,664.02255 1594.5813,663.68555 1595.6563,663.41255 1596.068,664.35811 1597.072,664.02511 1596.964,665.73611 1594.9913,667.17644 1595.9402,669.16511 1597.0803,671.5542 1598.1225,672.16395 1599.6056,674.29205 1600.099,674.99992 1600.9763,677.35755 1601.5363,678.00755 1602.0973,678.65655 1602.5807,678.45399 1603.2317,678.98399 1604.2327,679.80099 1605.7799,681.53968 1607.0509,681.99668 1612.1559,683.83568 1616.7483,685.75255 1621.8393,687.63055 1624.2513,688.52055 1626.2045,689.57924 1628.7025,690.16824 1631.0185,690.71424 1633.9873,690.33355 1636.3273,690.33355 L 1614.9443,715.71555 C 1613.6363,717.24455 1612.6008,717.38993 1610.7465,717.13986 1607.6995,716.72895 1603.4348,716.5551 1599.4624,720.2078 1598.4114,721.17427 1598.0493,722.37455 1596.5183,722.67855 1595.1083,722.95955 1593.6176,722.91005 1592.3116,723.62505 1590.9006,724.39805 1590.9956,725.7208 1589.1416,725.2958 1587.5876,724.9388 1585.407,726.22042 1584.035,724.70142 1583.453,724.05542 1582.9844,723.05424 1582.0124,722.94024 1581.0754,722.83024 1579.8193,723.51255 1579.0073,723.88455 1577.7323,724.47055 1575.6066,725.59813 1574.793,726.79905 1573.9122,728.09934 1573.2831,729.08175 1572.6773,730.07655 1571.7123,729.14855 1569.5303,729.00655 1568.2723,729.12155 1567.3033,729.20955 1566.62,728.43461 1565.752,728.24961 1564.849,728.05861 1563.84,728.47823 1562.9329,728.39361 1559.2526,728.05035 1562.3546,727.57742 1552.6634,721.74599 1551.0116,720.75203 1548.608,721.88493 1546.5786,721.16768 1545.6385,720.83545 1544.2163,718.98955 1543.7963,718.13955 1543.2103,716.95455 1544.2123,715.38655 1543.8303,714.08555 1543.4863,712.91355 1541.0793,712.20255 1540.2763,713.22855 1539.7873,712.75455 1539.1043,711.34955 1538.7013,710.72355 1537.7693,709.27855 1537.4383,707.33755 1536.8103,705.73655 1536.3383,704.53455 1536.1033,703.17855 1535.4543,702.05155 1535.1553,701.53155 1534.7993,701.34655 1534.2933,701.09255 1533.7323,700.81255 1533.716,700.25561 1533.302,699.88561 1533.044,699.72061 1532.9433,699.57555 1532.6393,699.53855 1531.8463,699.31755 1531.7673,698.46555 1531.3463,697.89255 1530.4053,696.61455 1529.7683,695.05455 1528.5133,694.02955 1527.5943,693.27955 1526.4963,692.76655 1525.3183,692.62355 1524.2233,692.49255 1522.7093,692.48355 1522.1263,691.34155" id="et">
    <title>Ethiopia</title>
  </path>
  <path class="world_map-is_selected landxx dji" d="M 1588.6573,664.12555 C 1588.6573,661.80455 1587.7573,659.49755 1589.1643,657.39955 1590.2233,655.82155 1591.1933,654.38955 1592.1113,652.73255 1593.1833,650.79755 1593.7233,651.83355 1595.2573,652.24555 1596.0353,652.45355 1595.9933,651.23455 1596.2983,650.83155 1596.7713,650.20755 1597.5883,649.96055 1598.2373,649.58255 1598.9063,651.05055 1601.7123,653.78655 1600.3603,655.50155 1599.6673,656.38155 1597.5023,657.38555 1596.4673,657.79355 1595.4053,658.21255 1595.2683,659.46855 1594.0563,659.66355 1594.8513,660.68755 1597.2243,659.00055 1598.3763,659.44655 1600.4593,660.25355 1598.3863,662.29155 1597.8273,663.43655 1596.9893,665.16455 1595.6573,663.36255 1594.3563,663.70455 1593.0263,664.05355 1589.5443,665.79255 1588.6573,664.12555" id="dj">
    <title>Djibouti</title>
  </path>
  <g class="landxx coastxx eri" id="er" transform="translate(-29.9017,-45.0745)">
    <title>Eritrea</title>
    <path class="landxx eri" d="M 1576.878,673.56 C 1578.084,672.479 1578.015,670.783 1578.449,669.349 1578.92,667.793 1579.573,666.28 1580.131,664.752 1580.643,663.347 1579.193,657.516 1581.439,657.203 1581.887,657.14 1583.561,657.479 1583.83,657.03 1584.558,655.815 1584.001,654.882 1585.44,654.426 1586.6,654.059 1587.939,653.148 1589.15,652.67 1590.936,651.964 1590.998,650.128 1592.279,648.938 1594.518,653.405 1596.162,657.703 1597.256,662.58 1597.517,663.743 1597.5,664.893 1598.03,665.99 1598.604,667.176 1599.149,668.117 1599.384,669.42 1599.544,670.308 1600.662,670.383 1600.905,671.326 1601.13,672.196 1601.311,673.687 1602.079,674.282 1603.038,673.601 1601.467,671.016 1602.469,670.851 1603.45,670.689 1604.033,671.921 1604.099,672.651 1604.175,673.506 1604.786,674.964 1605.606,675.343 1606.765,675.879 1607.496,674.306 1608.68,675.626 1609.661,676.717 1609.775,677.525 1611.356,677.742 1613.18,677.993 1613.873,679.392 1614.844,680.84 1615.782,682.236 1616.598,683.656 1618.06,684.577 1618.75,685.012 1619.36,685.546 1619.94,686.116 1620.231,686.402 1621.643,688.339 1620.94,686.593 1621.905,687.21 1621.901,688.575 1622.205,689.541 1622.471,690.383 1623.406,690.153 1623.95,690.723 1624.476,691.274 1626.563,695.169 1627.349,693.217 1628.1355,693.955 1628.5194,694.29543 1628.0732,694.83733 1626.9229,695.37923 1625.9996,696.12259 1625.9801,696.76519 1625.9131,698.98857 1624.162,695.80625 1622.1846,697.37131 1622.4259,696.80144 1621.8501,695.0339 1619.6951,693.55835 1617.7998,690.70126 1616.5772,688.71946 1615.4194,688.40969 1613.3571,687.8579 1612.696,685.31735 1611.4613,683.61512 1610.1241,681.77155 1608.1267,681.68211 1606.4275,680.37275 1604.8369,679.14707 1603.8919,680.16562 1602.4187,679.7255 1601.2647,679.38074 1599.2625,678.29864 1598.119,679.753 1598.093,678.85733 1596.294,677.07577 1596.6857,677.69687 1596.8717,677.9917 1595.4017,679.6014 1594.3241,679.66413 1593.6205,679.70503 1592.1145,679.91467 1591.38,678.81 1590.0367,676.78979 1589.5982,678.4423 1588.028,675.865 1587.431,678.182 1586.549,680.417 1585.658,682.633 1585.177,681.947 1583.9211,679.3855 1582.7451,680.0185 1582.0091,680.4155 1582.0984,681.1534 1581.0621,681.07425 1578.2076,680.85623 1578.2636,680.73599 1577.5164,682.52675 1576.984,679.97949 1576.836,676.09994 1576.8329,673.74025" id="path6830"/>
  </g>
  </svg>