<svg xmlns="http://www.w3.org/2000/svg" class="world_map zoom3" height="127" id="svg2985" version="1.1" viewBox="1293 241 128 72" width="127">
  <title>World Map</title>
  <defs id="defs2987"/>
  <defs>
    <link xmlns="http://www.w3.org/1999/xhtml" href="../css/svg.css" type="text/css" rel="stylesheet"/>
  </defs>
  <style id="style_css_sheet" type="text/css">
/*
 * Below are Cascading Style Sheet (CSS) definitions in use in this file,
 * which allow easily changing how countries are displayed.
 *
 */
/* --- Custom styles for Peace Corps --- */
.world_map .world_map-is_selected {
  fill: #C94112 !important;
}
.world_map .landxx {
  fill: #F2EFE8;
  stroke: #ffffff;
  fill-rule: evenodd;
}
.world_map.zoom4 .landxx {
  stroke-width: 2px;
}
.world_map.zoom3 .landxx {
  stroke-width: 3px;
}
.world_map.zoom2 .landxx {
  stroke-width: 4px;
}
.world_map.zoom1 .landxx {
  stroke-width: 5px;
}
.world_map .coastxx {
  fill: #F2EFE8;
  stroke: #ffffff;
  stroke-width: 2px;
  fill-rule: evenodd;
}
.world_map .oceanxx {
  opacity: 1;
  color: #ccc;
  fill: #ffffff;
  stroke: #ffffff;
  stroke-width: 0.5;
  stroke-miterlimit: 1;
}

/* --- Original Styles --- *
/*
 * Circles around small countries
 *
 * Change opacity to 1 to display all circles.
 *
 */
.circlexx
{
   opacity:0;
   fill:#e0e0e0;
   stroke:#000000;
   stroke-width:0.5;
}

/*
 * Smaller circles around French DOMs and Chinese SARs
 *
 * Change opacity to 1 to display all subnational circles.
 *
 */
.subxx
{
   opacity:0;
   stroke-width:0.3;
}

/*
 * Circles around small, unrecognized countries
 *
 * Change opacity to 1 to display all circles.
 *
 */
.unxx
{
   opacity:0;
   fill:#e0e0e0;
   stroke:#000000;
   stroke-width:0.3;
}

/*
 * Circles around small countries, but with no permanent residents 
 *
 * Change opacity to 1 to display all circles.
 *
 */
.noxx
{
   opacity:0;
   fill:#e0e0e0;
   stroke:#000000;
   stroke-width:0.5;
}

/*
 * land
 */
.landxx
{
}
/*
 * Styles for coastlines of islands with no borders
 */


/*
 * Styles for nations with limited recognition
 */
.limitxx
{
   fill: #e0e0e0;
   stroke:#ffffff;
   stroke-width:0;
   fill-rule:evenodd;
}

/*
 * Styles for nations with no permanent population.
 */
.antxx
{
   fill: #e0e0e0;
   stroke:#ffffff;
   stroke-width:0;
   fill-rule:evenodd;
}

/*
 * Ocean
 */


/*
 * Additional style rules
 *
 * The following are examples of colouring countries.  You can substitute these with your own styles to colour the countries on the map.
 *
 * Color a few countries:
 *
 * .gb, .au, .nc
 * {
 *    fill:       #ff0000;
 * }
 *
 * Color a few small country circles (and the countries):
 *
 * .ms, .ky
 * {
 *    opacity:    1;
 *    fill:       #ff0000;
 * }
 *
 */

</style>
  <path class="oceanxx" d="M 2079.5058,1457.5605 615.24779,1457.5605 C 615.13079,1457.5605 615.07079,1457.5505 614.95179,1457.5215 611.67679,1456.6515 608.40179,1455.7815 605.12779,1454.9105 599.15079,1453.3225 593.22879,1451.5225 587.30779,1449.7385 564.39379,1442.8315 541.76579,1434.6995 519.46979,1426.0115 495.81079,1416.7935 472.34979,1407.0946 449.19179,1396.6816 426.78379,1386.6056 405.17679,1375.0536 383.76379,1363.0356 363.11779,1351.4496 343.01079,1338.8296 323.37979,1325.5996 302.29179,1311.3876 281.47879,1296.8506 261.05379,1281.7006 242.35079,1267.8276 223.73679,1253.6306 206.05279,1238.4686 186.98679,1222.1216 167.82379,1205.7706 150.35279,1187.6906 132.97779,1169.7106 116.33279,1151.0606 100.15679,1131.9976 84.352777,1113.3736 70.086776,1093.4716 56.901786,1072.9246 44.046786,1052.8916 32.093776,1032.1356 22.469776,1010.3426 17.516776,999.12753 12.408776,987.76556 8.7017761,976.06056 5.0657761,964.58166 1.5997761,953.04259 -1.5932239,941.43054 -8.0102239,918.09356 -14.055224,894.78356 -18.234224,870.92056 -22.491222,846.60856 -24.894222,822.19856 -26.943222,797.62156 -28.947222,773.58556 -28.829222,749.40156 -27.225222,725.34856 -25.648222,701.69856 -23.363222,677.92456 -19.274222,654.56456 -15.018224,630.25156 -9.3842239,606.45156 -2.8412239,582.66156 3.5687761,559.35256 10.483776,536.34856 20.265776,514.19856 30.320776,491.42956 42.318786,469.90956 55.502786,448.81656 68.512776,428.00356 83.108777,408.26756 98.686787,389.31756 113.73479,371.01156 129.68979,353.25256 146.15179,336.20856 163.77479,317.96256 182.64579,301.14556 201.89579,284.64756 220.33379,268.84456 239.55379,253.98456 258.95979,239.39656 278.42779,224.76056 298.39379,210.83356 318.55579,197.17556 339.26979,183.14456 360.47879,169.92056 382.15079,157.42556 403.46579,145.13656 425.31479,133.98856 447.60479,123.59356 469.58579,113.34356 492.14979,104.17656 514.74579,95.37556 537.44879,86.532565 560.37879,78.195565 583.63479,70.914565 589.69379,69.017565 595.80079,67.276565 601.90879,65.549565 604.63079,64.779565 607.36079,64.045565 610.09479,63.318565 611.59979,62.918565 613.56579,61.986565 615.13379,61.986565 L 2079.9638,61.986565 C 2079.9798,61.986565 2079.9958,61.986565 2080.0118,61.986565 2079.8448,61.986565 2079.6788,61.986565 2079.5118,61.986565 2102.8268,68.191565 2125.8778,75.323565 2148.5448,83.611565 2171.6378,92.054565 2194.6158,100.87956 2217.2348,110.52956 2240.5208,120.46556 2263.4848,130.95256 2285.8828,142.76456 2306.9808,153.89056 2327.8178,165.78556 2347.8608,178.72156 2368.9418,192.32656 2389.7498,206.29256 2410.2218,220.80056 2429.7368,234.62956 2448.9938,248.98756 2467.6208,263.99256 2486.8818,279.50856 2506.0408,295.30556 2524.0538,312.27356 2541.8708,329.05756 2558.7508,346.67256 2574.9408,365.03656 2591.2478,383.53256 2607.1478,402.30656 2621.4508,422.41856 2635.3488,441.96256 2648.4468,462.42756 2659.5898,483.67756 2671.1238,505.67356 2681.1048,528.35656 2688.6188,552.05056 2692.2518,563.50656 2695.3368,575.14756 2698.5608,586.72256 2701.7738,598.25356 2704.9238,609.81956 2707.4578,621.52456 2712.6258,645.40556 2716.6718,669.47856 2719.1178,693.79656 2721.5718,718.19256 2723.1798,742.56356 2722.9808,767.09056 2722.7908,790.65456 2720.6908,814.43756 2717.7688,837.81156 2714.7368,862.07056 2710.5198,886.16156 2704.6398,909.90056 2701.6808,921.84356 2698.3948,933.69556 2695.0378,945.53154 2691.7468,957.13466 2688.5558,968.83466 2684.3988,980.16156 2676.0918,1002.8036 2666.1688,1024.8836 2654.1338,1045.8046 2641.9958,1066.9066 2628.8498,1087.4866 2614.2378,1106.9696 2599.1658,1127.0666 2582.6678,1145.9446 2565.8948,1164.6296 2549.8298,1182.5266 2532.8918,1199.7316 2514.8648,1215.6616 2496.0788,1232.2646 2476.8978,1248.3126 2457.1558,1263.7656 2438.2988,1278.5276 2418.9668,1292.7306 2399.3188,1306.4206 2378.7018,1320.7866 2357.7538,1334.6106 2336.4758,1347.9776 2326.4088,1354.3016 2316.0058,1360.1326 2305.6418,1365.9516 2295.0348,1371.9086 2284.3858,1378.0166 2273.4448,1383.3436 2250.7338,1394.3986 2227.7768,1404.7266 2204.3888,1414.2665 2181.7848,1423.4875 2159.0678,1432.2695 2136.0228,1440.3345 2117.4118,1446.8465 2098.5568,1452.4975 2079.5058,1457.5605" id="ocean"/>
  <g class="landxx coastxx eu swe" id="se" transform="translate(-29.9017,-45.0745)">
    <title>Sweden</title>
    <path d="M 1387.368,306 C 1386.888,306.24 1386.409,306.48 1385.928,306.72 1386.338,307.282 1387.969,307.55 1388.291,306.706 1388.491,306.181 1387.836,305.31 1387.368,306" id="path3388"/>
    <path d="M 1387.008,307.584 C 1386.864,307.824 1386.721,308.063 1386.578,308.304 1387.184,308.391 1387.703,308.059 1387.948,307.512 1387.634,307.536 1387.321,307.56 1387.008,307.584" id="path3390"/>
    <path class="landxx eu swe" d="M 1384.488,299.231 C 1385.551,299.046 1385.875,301.037 1386.635,300.832 1387.841,300.506 1388.161,297.751 1387.754,296.86 1387.029,295.272 1388.7105,294.91599 1388.468,293.564 1388.12,291.62392 1391.6099,292.90489 1392.066,290.89 1392.4014,289.40831 1392.8767,288.38106 1391.9007,287.04106 1391.3617,286.30106 1390.0061,284.45069 1391.5041,283.81469 1392.9981,283.18069 1393.4687,283.84689 1394.0117,281.80087 1394.3777,280.41787 1392.787,280.165 1391.863,279.82 1390.155,279.179 1389.6967,277.896 1390.1297,276.317 1390.6477,274.426 1390.3579,273.43393 1389.711,271.692 1389.4566,271.007 1389.0541,269.93344 1389.4399,269.24344 1389.7529,268.68377 1390.151,268.793 1389.96,268.235 1389.724,267.547 1389.187,267.14546 1389.07,266.381 1388.9286,265.4571 1389.7922,264.98191 1389.7558,264.275 1389.6888,262.97354 1391.8671,261.84068 1392.49,261.336 1394.3289,259.8461 1396.0553,260.05529 1397.966,260.329 1399.2397,260.51147 1401.4916,260.57272 1401.147,258.805 1400.8049,257.05026 1398.9366,256.87293 1398.168,256.319 1398.861,255.468 1399.644,254.697 1400.42,253.923 1401.13,253.215 1402.049,251.398 1402.861,250.959 1403.885,250.405 1403.206,245.364 1402.988,244.583 1404.562,244.643 1406.6455,244.5216 1408.018,243.653 1408.6745,243.23755 1408.045,242.62241 1407.966,242.15241 1407.88,241.63831 1408.8681,241.451 1409.1501,241.151 1410.4251,239.791 1411.7198,238.87919 1413.1428,237.71519 1414.3088,236.76219 1412.0721,235.382 1411.5571,234.935 1413.8701,233.875 1414.5181,231.66 1416.7471,230.615 1418.1761,229.945 1419.0671,230.12887 1420.5301,230.45787 1421.2691,230.62387 1422.9081,230.097 1422.8111,229.118 1422.7461,228.465 1422.163,227.5311 1422.4411,226.873 1422.7921,226.04227 1425.4145,227.0585 1426.0066,226.9435 1427.5101,226.65153 1431.9365,228.66545 1434.1681,227.15797 1433.6821,226.93897 1433.1781,226.77097 1432.6581,226.65397 1433.8901,225.89797 1435.5941,224.21497 1433.4481,223.34097 1436.7151,221.87597 1440.3641,225.12697 1443.1681,226.36497 1445.0831,227.21097 1447.4684,227.23073 1449.3621,228.08124 1449.9811,228.35924 1453.3011,230.36053 1453.6561,231.08497 1453.9612,231.70756 1453.0612,231.68641 1452.9206,232.05697 1452.8676,232.19712 1452.9826,232.38067 1453.0554,234.10187 1453.0734,234.53106 1453.8912,234.63592 1454.2662,234.73692 1455.7162,235.12892 1454.6768,235.78229 1454.1742,236.41629 1453.6212,237.11329 1455.3516,238.20044 1455.7746,238.53744 1456.7196,239.29244 1456.4435,240.77497 1455.6475,241.65697 1454.0155,243.46097 1458.0272,245.25291 1458.5412,246.98291 1456.9252,247.20291 1454.1315,248.07197 1452.7485,246.81097 1452.9765,247.03797 1453.1905,247.27797 1453.3885,247.53197 1452.2295,247.53197 1451.2845,247.28197 1450.2985,246.66797 1450.1065,248.63897 1448.3215,245.76797 1447.9235,247.16297 1447.7345,247.82597 1448.5355,248.49797 1448.6385,249.11597 1447.9065,249.09897 1447.2165,248.83397 1446.5585,248.53997 1446.8145,248.69697 1447.0785,248.84097 1447.3485,248.97197 1446.8325,249.32997 1446.2795,249.40197 1445.6885,249.18897 1448.0195,249.87697 1443.9105,250.20997 1443.4585,250.26897 1443.9395,251.08197 1445.1165,251.40097 1444.1085,252.71597 1443.7605,253.17097 1441.8265,254.52297 1441.2285,254.22797 1441.6335,254.68697 1442.1375,254.97497 1442.7385,255.09197 1440.6935,255.52297 1444.4275,256.81097 1444.8285,257.46797 1443.4185,258.14697 1441.4425,258.93297 1440.8775,260.54697 1440.5525,261.47397 1437.9975,262.54997 1438.1985,263.37197 1438.0455,263.09897 1437.8795,262.83497 1437.6985,262.57997 1437.3255,263.51497 1436.0415,263.82497 1435.1655,263.98297 1434.2405,264.14897 1433.9545,266.02897 1433.0875,264.37897 1433.3245,265.59297 1433.0525,264.93797 1432.2225,264.96697 1431.7525,264.98397 1431.3635,266.06897 1430.9425,266.36097 1429.4225,267.41597 1427.4795,267.28297 1425.8875,268.48397 1426.3885,268.54797 1426.8915,268.57297 1427.3975,268.55497 1427.4245,269.35897 1426.7605,269.89097 1426.0045,269.51297 1425.5915,269.30597 1425.3565,270.43997 1424.5975,270.06797 1426.4315,269.87897 1424.1805,269.70597 1423.8775,269.77997 1424.0475,268.96497 1423.0095,268.60997 1422.9375,267.83597 1422.6805,268.99097 1424.0085,269.65697 1424.1785,270.71097 1424.4415,272.33797 1422.2205,273.45097 1421.1375,272.15597 1420.5775,273.44397 1421.3065,274.37097 1422.6475,274.45997 1421.7725,274.57797 1421.3055,275.98197 1421.1375,276.69197 1420.8805,277.78097 1422.2925,278.33897 1421.9275,279.28397 1421.3515,278.69997 1420.5435,278.26397 1419.6975,278.49197 1422.4305,279.10897 1418.1535,278.89097 1420.4875,279.35597 1418.4755,279.16797 1419.8645,279.59397 1420.4175,279.78797 1418.3195,279.40897 1421.6455,280.66297 1419.6275,280.86797 1420.6625,281.22597 1420.0785,282.61197 1420.1455,283.37697 1420.2455,284.50397 1420.9535,285.13097 1421.4975,286.05197 1421.2385,286.18097 1420.9745,286.30097 1420.7075,286.41197 1421.0795,286.63097 1422.8185,286.73597 1422.9605,287.04897 1423.5725,288.39697 1424.4745,287.39997 1425.4575,287.20397 1424.9135,289.18497 1428.3515,288.90297 1429.1275,290.01197 1427.3075,290.37497 1429.7685,291.04897 1430.3525,291.16397 1430.7715,291.24697 1432.9845,294.15297 1431.2175,292.74797 1431.7165,293.16597 1432.1365,293.68297 1432.4375,294.25997 1431.3305,294.29597 1430.5015,294.90697 1429.6545,295.54497 1428.9025,296.11097 1426.7165,296.43997 1428.1175,296.92397 1427.5715,297.06997 1427.0915,296.94897 1426.6775,296.56397 1426.5575,297.44897 1429.3095,297.97597 1428.9875,296.63597 1429.4895,296.91197 1430.5215,298.58997 1429.0575,297.78797 1430.9575,298.44197 1428.2665,297.75797 1427.9075,297.64497 1428.0245,298.23697 1428.4655,298.67797 1429.0575,298.79497 1428.4595,299.11297 1427.7845,299.15997 1427.1575,299.39097 1426.2855,299.71197 1426.1875,300.58097 1425.4785,301.02297 1425.0035,301.31897 1424.6595,299.40297 1423.8775,299.44397 1424.3435,299.81497 1424.5335,300.29497 1424.4475,300.88297 1424.2075,300.71497 1423.9675,300.54697 1423.7275,300.37897 1423.9535,301.04497 1423.9535,301.53097 1423.0075,301.09997 1423.1355,301.33597 1423.2555,301.57597 1423.3675,301.81997 1422.4305,302.34097 1421.4445,302.28197 1420.4175,302.17897 1420.6665,302.35997 1420.9065,302.55197 1421.1375,302.75497 1419.5365,303.60497 1417.5195,302.07697 1416.0275,303.18797 1417.2355,302.88697 1418.9765,303.02197 1419.6275,304.26797 1418.6635,304.79897 1417.6795,304.32197 1416.6775,304.26797 1418.1995,304.79797 1420.8345,307.23897 1418.1875,308.22697 1418.8315,308.07797 1419.0635,308.41497 1418.9075,309.01997 1418.4065,308.74297 1417.8765,308.66997 1417.3175,308.80297 1417.6605,309.24397 1419.4595,310.25097 1418.2245,310.74497 1417.1285,311.18297 1419.1715,311.83097 1418.5435,312.65697 1417.1025,314.54897 1418.4415,316.52097 1416.8795,318.49397 1415.8735,319.76597 1415.3545,323.44797 1413.0445,322.75597 1411.6625,322.34197 1410.2165,322.98997 1408.8165,322.89997 1408.0445,322.85097 1406.0355,322.67997 1407.0975,323.99597 1405.7435,324.52597 1404.5565,323.70397 1403.7655,325.45897 1403.3135,326.46197 1404.4035,327.23897 1404.4995,328.19797 1404.6815,330.00097 1402.1965,328.80797 1401.4725,328.87297 1399.1725,329.07997 1397.3015,329.15897 1394.9975,329.03597 1395.7415,329.00697 1396.2605,326.71897 1395.5665,325.98597 1394.8005,325.17697 1392.9075,322.98397 1392.9875,321.83597 1395.4495,322.69797 1394.0245,321.83897 1393.8475,320.46797 1397.2045,319.91397 1393.9215,318.80197 1393.1025,317.65797 1392.3135,316.55597 1391.1835,315.65697 1390.6845,314.36897 1390.3645,313.54397 1390.0025,312.46197 1388.8775,312.83497 1388.9335,312.28397 1388.9815,311.71197 1388.8605,311.16497 1388.6505,310.21997 1387.0945,310.09097 1388.5175,309.59497 1387.1415,310.08697 1388.5275,305.80397 1388.5975,305.27597 1387.6775,305.08297 1387.2075,306.11397 1386.2875,305.99597 1386.6955,305.51097 1387.0785,305.00697 1387.4375,304.48397 1386.1015,304.34797 1387.1675,305.24897 1385.9275,305.63497 1385.8005,304.95897 1385.3165,304.80697 1384.7775,305.20297 1385.3515,303.84897 1383.2615,300.07597 1384.4885,299.23097" id="path3452"/>
    <path d="M 1420.988,272.592 C 1421.164,272.967 1421.404,272.823 1421.138,273.384 1421.088,273.12 1421.038,272.855 1420.988,272.592" id="path3454"/>
  </g>
  <g class="world_map-is_selected landxx coastxx eu dnk" id="dk" transform="translate(-29.9017,-45.0745)">
    <title>Denmark</title>
    <path d="M 1366.848,318.744 C 1365.385,317.829 1366.635,316.218 1367.597,315.517 1368.948,314.533 1371.175,315.035 1372.743,314.879 1374.137,314.74 1374.86,313.262 1375.659,312.312 1376.549,311.254 1379.174,310.551 1380.528,310.105 1378.905,311.546 1380.821,312.52 1379.975,314.168 1379.039,315.99 1378.038,316.07 1376.193,315.505 1375.305,315.234 1374.516,315.427 1373.628,315.661 1372.642,315.92 1371.835,315.516 1370.893,315.703 1370.053,315.869 1368.881,316.121 1368.298,316.809 1367.923,317.252 1367.585,318.633 1366.848,318.601 1367.467,318.497 1367.818,318.839 1367.718,319.465 1367.408,319.248 1367.118,319.008 1366.848,318.744" id="path4550"/>
  </g>
  <path class="landxx eu lva" d="M 1416.2863,274.96555 C 1416.3833,275.20555 1416.4793,275.44455 1416.5763,275.68555 1416.4783,274.43555 1416.1833,273.11855 1417.0603,272.05755 1417.4363,271.60255 1418.1043,271.28055 1418.2623,270.66555 1418.4603,269.89355 1418.2453,269.22555 1418.6513,268.46355 1419.4353,266.99255 1420.4023,266.31655 1421.9893,265.92555 1422.7523,265.73755 1424.8073,264.51355 1425.4083,265.24455 1426.3613,266.40455 1427.3993,266.90955 1428.4783,267.90355 1429.7043,269.03255 1430.2113,270.52955 1431.9333,271.08055 1433.2913,271.51555 1434.6133,270.94755 1435.7243,270.16155 1437.3313,269.02355 1437.0993,267.65955 1436.4183,266.02555 1436.1483,265.37955 1435.8693,264.66755 1436.0163,263.94955 1436.6233,264.12355 1437.2453,263.67955 1437.7293,263.39655 1438.6923,262.83455 1440.5703,262.02755 1441.5853,262.67355 1442.2583,263.10155 1443.5603,262.97855 1444.4413,263.46755 1445.7593,264.19655 1446.8703,264.39755 1448.0323,265.45455 1448.9823,266.31855 1449.8753,266.83355 1451.0903,266.21555 1452.4443,265.52655 1453.9582,266.56075 1455.3863,266.61055 1456.3896,266.64555 1459.0357,268.77481 1458.8327,269.57365 1458.721,270.01318 1458.1219,271.73255 1457.7653,272.08455 1459.9073,271.82555 1459.0616,272.70891 1460.0016,273.06591 1461.1076,273.48591 1462.1311,277.33348 1462.3301,278.37648 1461.8914,278.57398 1461.1837,277.87314 1460.4138,278.26828 1459.8305,278.56761 1459.3488,279.31673 1458.9738,279.83473 1458.7618,280.12673 1458.8463,280.59855 1458.4863,280.79555 1457.3333,281.42655 1455.8948,280.07001 1454.6098,280.71705 1453.1248,281.46405 1452.4363,282.20859 1450.7093,281.25259 1449.2893,280.46659 1448.0023,279.44759 1446.6693,278.53159 1445.3853,277.64759 1443.7563,278.09459 1442.4913,277.29759 1441.3843,276.60059 1441.1613,275.10459 1439.6563,275.99059 1438.3473,276.76059 1437.8923,276.73059 1436.4523,276.87059 1435.1633,276.99559 1433.6233,276.15346 1432.2183,276.17359 1430.7524,276.19459 1430.5347,276.44159 1429.1114,275.94859 1428.2517,275.65078 1425.9852,275.88929 1425.0532,275.88929 1423.5962,275.88929 1422.3112,276.12229 1420.9042,276.46329 1420.0102,276.67929 1418.5872,276.88456 1418.1992,277.88456 1417.9442,278.54156 1417.2056,278.86988 1416.7536,278.31388 1415.9656,277.34988 1416.2053,276.11556 1416.2863,274.96556" id="lv">
    <title>Latvia</title>
  </path>
  <g class="landxx coastxx eu gbr" id="gb" transform="translate(-29.9017,-45.0745)">
    <title>United Kingdom</title>
    <path d="M 1275.627,373.68 C 1276.508,373.88 1277.77,372.163 1278.446,371.623 1279.691,370.629 1282.132,371.454 1282.967,369.936 1282.967,370.867 1284.826,371.768 1285.591,371.827 1287.019,371.938 1287.945,369.119 1287.937,368.063 1288.386,368.903 1289.957,368.056 1290.534,367.852 1292.049,367.317 1293.601,368.014 1294.707,369.072 1294.801,368.142 1295.751,368.423 1296.374,368.536 1297.054,368.66 1298.993,368.06 1297.157,367.704 1297.99,367.704 1303.232,367.679 1301.757,366.264 1302.635,367.159 1303.75,366.459 1304.787,366.697 1305.058,366.749 1305.179,366.9 1305.152,367.149 1305.185,367.576 1306.892,367.108 1306.876,367.11 1308.409,366.916 1309.871,366.846 1311.368,367.289 1312.625,367.661 1314.399,366.693 1315.637,366.368 1316.728,366.081 1316.969,365.721 1317.698,365.05 1318.485,364.328 1320.016,364.488 1320.489,363.4 1321.014,362.193 1315.38,362.026 1314.788,361.945 1315.188,361.838 1315.575,361.693 1315.948,361.512 1315.221,361.343 1314.448,361.164 1313.788,361.657 1314.438,360.964 1315.319,361.24 1316.137,361.082 1317.512,360.815 1317.464,359.43 1316.088,359.281 1316.621,359.391 1316.955,358.948 1317.376,358.743 1318.213,358.336 1318.839,359.167 1319.759,358.344 1319.53,357.85 1319.146,357.562 1318.609,357.48 1319.184,357.373 1320.56,357.459 1319.039,356.905 1321.139,357.535 1321.436,356.177 1322.333,354.682 1323.496,352.744 1323.289,350.871 1321.043,349.757 1319.741,349.111 1316.763,348.209 1315.475,349.314 1315.032,349.693 1314.878,350.514 1314.289,350.712 1313.393,351.013 1312.845,349.567 1311.909,349.776 1313.075,348.011 1315.489,347.901 1313.469,345.322 1311.796,343.187 1309.959,343.312 1307.599,343.007 1309.166,342.328 1311.948,342.919 1313.209,343.944 1312.918,342.939 1309.705,340.183 1311.989,339.551 1310.514,339.173 1310.231,337.687 1309.249,336.743 1308.332,335.861 1306.921,335.889 1305.767,335.709 1303.835,335.407 1303.313,330.81 1303.194,329.319 1302.994,326.838 1299.884,324.688 1297.504,324.252 1296.876,324.138 1296.352,323.269 1295.673,323.879 1295.237,324.273 1294.828,324.462 1294.242,324.453 1292.687,324.429 1290.539,324.523 1289.38,323.279 1291.79,325.071 1293.43,322.558 1295.86,322.558 1297.242,322.558 1296.745,321.491 1296.019,320.918 1294.994,320.108 1293.95,321.395 1292.83,321.262 1295.673,320.709 1297.989,319.387 1299.818,317.134 1300.641,316.121 1300.886,314.924 1301.585,313.887 1302.07,313.166 1303.398,312.697 1303.025,311.631 1302.353,309.707 1298.549,310.442 1296.97,310.618 1295.332,310.801 1293.749,310.155 1292.152,310.633 1290.805,311.036 1289.275,311.873 1287.94,312.118 1288.143,311.434 1288.933,311.373 1289.16,310.678 1288.371,310.603 1287.664,310.979 1286.93,311.182 1287.797,310.288 1289.99,310.909 1290.39,309.527 1289.354,309.284 1288.11,309.521 1287.22,308.806 1288.93,309.46 1288.6,309.03 1289.719,308.28 1290.643,307.661 1291.753,307.4 1292.685,306.804 1293.069,306.559 1297.961,303.369 1295.414,302.856 1293.861,302.543 1291.926,303.291 1290.414,303.586 1289.571,303.751 1288.67,303.958 1287.806,303.888 1287.59,303.871 1287.302,303.831 1287.155,303.645 1286.919,303.346 1285.908,304.102 1285.561,304.271 1286.33,303.019 1285.652,303.883 1285.103,303.548 1284.883,303.414 1284.499,302.929 1284.191,303.001 1283.561,303.147 1283.8,304.98 1282.9,305.423 1283.175,305.573 1283.76,305.778 1283.76,306.071 1281.577,305.07 1282.241,307.449 1281.17,307.799 1281.718,308.027 1282.17,308.469 1282.39,309.024 1281.686,309.297 1279.181,308.362 1279.37,309.815 1279.152,308.48 1277.532,310.743 1279.3,311.832 1278.822,311.769 1278.342,311.744 1277.861,311.76 1277.747,313.154 1278.901,313.161 1279.951,313.056 1279.418,313.223 1278.938,313.487 1278.511,313.848 1279.152,313.61 1279.86,313.744 1280.241,314.353 1279.301,313.265 1278.037,315.359 1280.161,315.216 1279.936,315.3 1276.493,315.446 1278.871,316.296 1277.838,315.375 1276.683,317.099 1278.081,317.376 1277.503,317.292 1277.161,317.587 1277.141,318.168 1276.363,317.796 1275.354,317.891 1274.691,318.456 1275.831,318.722 1277.413,317.959 1278.431,318.672 1277.618,318.3 1277.086,319.26 1276.271,318.888 1276.945,321.854 1280.63,318.257 1281.821,317.592 1281.351,318.113 1281.072,318.938 1282.251,318.456 1281.672,318.573 1278.648,319.948 1280.601,319.752 1280.355,319.989 1280.112,320.23 1279.871,320.472 1280.385,320.499 1280.892,320.451 1281.391,320.328 1281.094,320.489 1279.733,320.545 1279.646,320.653 1279.401,320.959 1279.031,321.22 1278.704,321.429 1278.32,321.674 1278.588,322.372 1278.543,322.761 1278.494,323.182 1276.522,325.93 1278.221,323.928 1277.37,324.52 1277.523,326.759 1278.721,325.728 1277.4,326.472 1277.361,327.908 1276.498,328.998 1275.894,329.761 1277.785,330.326 1277.98,328.802 1278.119,327.711 1279.568,326.447 1279.202,325.407 1278.681,323.928 1280.898,323.023 1281.821,322.489 1281.21,323.023 1279.587,323.835 1279.757,324.861 1279.881,325.346 1280.162,325.467 1280.601,325.224 1280.838,325.687 1281.148,326.096 1281.531,326.449 1281.704,325.836 1281.343,325.225 1280.811,324.937 1281.375,324.171 1281.683,324.677 1281.821,325.296 1282.825,324.399 1282.134,322.681 1283.331,322.92 1282.829,323.339 1282.758,323.819 1283.121,324.36 1282.969,322.999 1283.799,324.439 1284.631,324.792 1284.066,324.763 1282.781,324.282 1282.54,325.109 1282.079,326.691 1283.138,326.663 1283.635,327.781 1284.482,329.686 1280.188,330.795 1281.032,333.072 1280.94,332.911 1279.989,332.04 1279.859,332.535 1279.611,333.484 1281.147,334.782 1281.682,335.376 1281.119,333.719 1281.782,333.391 1283.331,334.094 1284.609,334.675 1284.857,334.633 1284.912,333.073 1286.405,334.553 1287.344,333.96 1289.02,333.473 1289.54,333.322 1290.351,333.154 1290.242,332.425 1291.391,332.566 1292.55,332.484 1293.702,332.569 1292.405,333.429 1290.853,333.541 1290.102,335.09 1289.626,336.07 1290.516,339.348 1291.972,338.546 1291.763,339.087 1291.86,339.567 1292.262,339.985 1292.566,339.578 1292.829,339.147 1293.052,338.69 1293.264,339.576 1294.015,339.138 1294.492,338.834 1294.023,339.476 1294.029,340.295 1293.482,340.994 1293.165,341.4 1291.893,343.058 1293.632,342.794 1291.881,343.667 1292.43,346.66 1294.562,345.962 1293.592,346.672 1290.643,343.958 1292.122,346.898 1290.13,345.2 1287.293,346.954 1285.132,346.898 1285.93,345.917 1283.418,345.001 1282.779,345.54 1281.487,346.63 1283.591,348.156 1284.842,347.043 1283.668,348.36 1282.004,349.13 1280.882,350.499 1282.34,350.613 1283.673,348.963 1285.132,349.707 1284.767,350.308 1285.096,350.899 1285.642,351.219 1284.777,351.617 1285.006,352.723 1286.002,352.587 1285.185,352.703 1285.127,353.478 1284.816,354.075 1284.409,354.858 1283.378,355.326 1282.596,355.616 1280.859,356.26 1278.347,356.701 1277.212,358.131 1277.833,358.379 1278.055,358.895 1277.572,359.427 1278.346,359.591 1279.127,359.501 1279.662,358.851 1279.287,359.545 1278.528,359.766 1277.792,359.715 1278.768,360.955 1281.757,359.544 1282.762,358.851 1282.708,359.894 1283.912,359.931 1284.632,359.715 1284.328,360.158 1283.918,360.278 1283.402,360.075 1283.601,361.326 1284.529,360.716 1285.27,360.37 1286.41,359.839 1287.038,361.592 1288.034,362.027 1289.85,362.819 1290.148,361.177 1291.63,360.962 1293.249,360.727 1294.345,359.884 1295.642,358.922 1294.407,360.402 1292.668,361.425 1291.322,362.81 1290.97,363.171 1291.489,363.606 1290.743,363.702 1289.895,363.81 1289.039,363.862 1288.197,363.688 1287.008,363.442 1285.007,363.029 1283.865,363.714 1283.18,364.126 1283.137,364.943 1282.439,365.362 1281.477,365.938 1281.292,364.506 1280.948,366.213 1280.81,366.899 1279.119,369.495 1278.245,369.297 1277.705,369.175 1277.569,369.197 1277.365,369.797 1277.04,370.752 1275.688,371.186 1274.845,371.531 1274.172,371.806 1273.427,372.105 1272.854,372.567 1272.617,372.757 1272.915,373.416 1273.175,373.36 1274.079,373.163 1275.176,372.384 1275.627,373.68" id="path2656"/>
    <path d="M 1295.138,301.824 C 1295.282,301.243 1295.097,300.665 1294.418,300.599 1294.269,301.184 1294.606,301.626 1295.138,301.824" id="path2670"/>
    <path d="M 1295.138,300.24 C 1295.891,300.919 1297.885,301.261 1298.518,300.24 1297.737,300.186 1296.414,300.239 1296.132,299.274 1295.903,298.492 1293.934,299.25 1295.138,300.24" id="path2672"/>
    <path d="M 1296.868,302.184 C 1297.11,301.948 1297.229,301.66 1297.228,301.32 1296.459,301.266 1296.339,301.554 1296.868,302.184" id="path2674"/>
    <path d="M 1297.658,298.224 C 1297.764,297.728 1297.571,297.392 1297.078,297.216 1296.816,297.783 1297.051,298.148 1297.658,298.224" id="path2676"/>
    <path d="M 1298.808,298.584 C 1299.23,298.241 1299.687,297.953 1300.178,297.72 1299.543,297.629 1299.028,298.005 1298.808,298.584" id="path2678"/>
    <path d="M 1307.667,292.032 C 1307.547,292.296 1307.427,292.56 1307.307,292.824 1308.876,292.827 1308.96,290.137 1309.537,289.151 1308.937,289.102 1308.61,288.757 1308.747,288.145 1308.507,288.313 1308.267,288.481 1308.027,288.649 1307.971,288.14 1308.065,287.659 1308.307,287.208 1307.411,287.085 1307.571,288.226 1306.657,288 1307.054,288.487 1307.534,288.871 1308.097,289.151 1307.415,289.532 1306.646,289.704 1305.867,289.656 1306.115,290.925 1306.209,289.987 1307.177,290.315 1307.967,290.584 1308.37,291.396 1307.667,292.032" id="path2776"/>
    <path d="M 1309.318,288.216 C 1309.842,287.813 1310.617,286.607 1309.388,286.56 1309.456,287.095 1308.986,287.716 1309.318,288.216" id="path2778"/>
    <path d="M 1311.118,286.776 C 1312.169,285.023 1309.064,286.511 1311.118,286.776" id="path2780"/>
    <path d="M 1310.828,287.64 C 1311.071,287.544 1311.315,287.449 1311.558,287.353 1310.838,286.963 1310.594,287.059 1310.828,287.64" id="path2782"/>
    </g>
  <path class="landxx eu pol" d="M 1373.8863,304.84555 C 1373.8383,303.12855 1376.3973,302.67955 1375.4553,300.67855 1375.1293,299.98555 1374.3693,298.95255 1374.6543,298.11455 1374.7863,297.72655 1376.1273,298.22255 1376.4063,298.22155 1376.2623,297.65555 1376.3823,297.15155 1376.7663,296.70955 1376.6913,296.82855 1376.6183,296.94855 1376.5463,297.06955 1376.1113,296.69455 1375.6083,296.47855 1375.0363,296.42155 1375.3403,297.18555 1374.1553,296.75255 1374.0963,296.06155 1375.7533,296.68455 1378.4093,295.24855 1379.9143,294.64355 1381.7203,293.91655 1386.1153,294.11455 1387.2493,292.60955 1388.6353,290.77155 1391.8993,289.92455 1394.0843,289.34755 1396.8133,288.62555 1400.5743,288.04555 1402.8953,290.01355 1402.2703,289.58255 1401.5273,289.14155 1400.7353,289.43755 1401.6853,290.33055 1401.9283,292.04655 1403.3103,292.44655 1404.9743,292.92755 1407.2073,292.20555 1408.8053,291.74155 1408.1033,292.16555 1407.2433,292.27655 1406.5553,292.74255 1405.5683,293.41255 1407.6692,293.02873 1408.0473,292.83555 1410.621,291.52073 1412.8754,292.5777 1415.9403,292.53455 1419.9779,292.47775 1425.6702,293.47605 1429.6792,292.88505 1432.6732,292.44505 1433.3903,293.84755 1434.1373,296.59055 1434.9063,299.41055 1438.3723,302.72455 1437.3773,305.82455 1436.8743,307.39355 1434.897,306.83101 1434.064,308.03401 1433.231,309.23801 1432.5029,310.14969 1434.5339,310.52569 1437.7889,311.12769 1435.0787,314.31121 1436.0436,316.06624 1437.0589,317.91287 1437.4196,320.12723 1440.1963,321.47755 1439.7963,321.68155 1439.3883,321.87355 1438.9763,322.05355 1440.2053,323.14155 1440.5313,324.37655 1438.7743,325.02655 1437.0063,325.67955 1435.4267,327.39037 1434.2173,328.77414 1433.1728,329.96914 1430.9431,331.52455 1431.6363,333.37155 1431.9266,334.14508 1431.8343,334.96555 1432.1263,335.73255 1432.3583,336.34155 1433.0423,336.13255 1432.9263,336.95755 1431.7303,336.11255 1429.9283,336.12755 1428.5653,335.64455 1427.2253,335.16855 1426.5733,334.14455 1425.1983,333.77655 1423.8463,333.41355 1422.3373,333.20155 1421.0103,333.75455 1419.2943,334.46955 1419.0933,333.81855 1417.4363,333.61455 1416.1603,333.45755 1415.6893,333.70955 1414.7543,334.49955 1414.3493,334.84155 1413.8303,335.27855 1413.2713,335.32555 1412.3133,335.40555 1412.6303,334.39455 1412.2563,333.93355 1411.8553,333.43755 1410.9383,333.02655 1410.4283,332.41455 1409.6063,331.42855 1407.6113,333.59255 1406.7163,333.71755 1406.9483,332.94355 1403.6413,329.46855 1402.5313,329.16455 1401.2853,328.82455 1400.6773,328.31155 1399.4653,328.69655 1398.1973,329.09755 1398.0743,326.97855 1398.2163,326.22855 1396.2003,326.83555 1394.4663,325.41955 1392.6063,324.93255 1392.6593,325.54555 1392.9223,326.04955 1393.3963,326.44455 1392.6153,326.96655 1391.2013,328.39355 1390.3213,327.17355 1389.6023,326.17655 1389.1753,325.51055 1387.9263,325.07655 1388.2563,324.79055 1389.4953,324.12855 1389.2263,323.53955 1388.8733,322.76855 1387.1363,323.09655 1386.6963,323.56355 1386.6313,321.59155 1383.0081,323.00601 1382.2473,321.86555 1381.5235,320.78055 1382.2373,320.96183 1380.6172,320.30249 1379.3647,319.79316 1380.39,321.7157 1378.7763,321.40355 1379.9002,318.60991 1380.6353,317.71355 1378.4933,316.25755 1377.5713,315.63055 1378.3013,314.92555 1377.5753,314.28155 1376.6303,313.44255 1377.6753,313.05055 1377.8333,312.15555 1377.9303,311.60555 1377.7183,310.61355 1377.6463,310.05455 1377.5743,309.49155 1376.4193,309.63255 1376.6403,308.69255 1376.7853,308.07655 1377.5543,307.46555 1376.7203,306.96355 1375.7093,306.35955 1374.7433,305.65455 1373.8863,304.84555" id="pl">
    <title>Poland</title>
  </path>
  <path class="landxx eu ltu" d="M 1416.7963,278.49255 C 1417.8123,278.65655 1418.0523,277.59655 1418.7363,277.12555 1419.4823,276.61155 1420.8073,276.44255 1421.6673,276.24155 1423.9023,275.71955 1426.5279,275.69947 1428.8163,275.82855 1430.1682,276.42126 1431.8282,275.91325 1433.0553,276.26855 1434.5453,276.39555 1437.7157,277.08032 1439.1448,276.15491 1441.0968,274.89084 1441.1799,276.26539 1442.3833,277.22455 1443.1153,277.80793 1444.0743,277.69855 1444.9693,277.83255 1446.1633,278.01155 1447.24,278.51984 1448.0118,279.39682 1448.4946,279.94544 1451.5569,281.96483 1452.2517,281.59154 1451.7617,283.74854 1451.9233,284.30855 1453.8773,284.82855 1452.6763,285.41655 1453.5563,286.40555 1451.8863,286.07655 1450.6043,285.82355 1450.4581,287.04127 1449.5243,287.58155 1447.2414,288.90245 1448.588,290.49393 1446.6773,292.53355 1447.1543,292.72955 1448.1283,292.80855 1448.2573,293.46855 1448.4113,294.26455 1447.3493,294.43255 1446.8173,294.26055 1447.3703,292.78555 1445.1017,293.22568 1444.9777,293.52268 1444.4077,294.90068 1442.6703,293.92355 1441.9973,295.31655 1441.7633,295.80255 1440.5593,295.80955 1440.0433,296.09155 1439.1763,296.56755 1437.5713,296.04165 1436.5993,296.13165 1436.1183,296.17565 1433.9811,296.46358 1433.8151,295.65158 1433.6161,294.68658 1432.6352,293.36771 1431.6942,292.94171 1430.3921,289.51674 1431.3354,289.79049 1431.8433,288.44458 1431.9494,288.16345 1430.025,286.63467 1429.7067,286.62746 1428.9358,286.60996 1424.9406,286.84158 1423.6523,285.81646 1422.2464,284.69785 1420.2633,284.31314 1420.0212,285.41184 1420.0662,284.34484 1418.3083,282.95352 1417.7673,282.04752 1417.1013,280.94052 1417.1983,279.68152 1416.7963,278.49252" id="lt">
    <title>Lithuania</title>
  </path>
  <g class="landxx coastxx nor" id="no" transform="translate(-29.9017,-45.0745)">
    <title>Norway</title>
    <path d="M 1346.978,283.176 C 1346.738,282.931 1346.475,282.716 1346.188,282.529 1345.928,283.37 1346.188,283.586 1346.978,283.176" id="path6606"/>
    <path d="M 1347.268,289.296 C 1346.956,289.054 1346.643,288.814 1346.328,288.576 1346.51,289.089 1346.606,289.617 1346.618,290.16 1347.221,290.189 1347.47,289.87 1347.268,289.296" id="path6608"/>
    <path d="M 1346.618,287.856 C 1346.881,288.047 1347.145,288.24 1347.408,288.431 1347.227,288.115 1346.963,287.923 1346.618,287.856" id="path6610"/>
    <path d="M 1346.688,287.424 C 1346.935,287.421 1347.175,287.373 1347.408,287.28 1347.167,287.328 1346.928,287.376 1346.688,287.424" id="path6612"/>
    <path d="M 1347.908,276.696 C 1348.14,276.002 1347.599,276.016 1347.118,276.192 1347.381,276.36 1347.645,276.528 1347.908,276.696" id="path6614"/>
    <path d="M 1347.558,297.432 C 1347.143,298.002 1347.358,298.547 1347.988,298.8 1348.267,298.157 1348.295,297.277 1347.698,296.784 1347.651,297 1347.604,297.216 1347.558,297.432" id="path6616"/>
    <path d="M 1347.988,293.472 C 1346.934,293.439 1347.448,294.508 1347.338,295.128 1347.502,294.519 1347.964,294.184 1348.558,294.552 1348.507,294.118 1348.317,293.758 1347.988,293.472" id="path6618"/>
    <path d="M 1348.558,292.319 C 1348.196,292.841 1348.326,294.094 1349.138,294.12 1350.227,294.154 1349.227,292.408 1348.558,292.319" id="path6620"/>
    <path d="M 1349.498,292.032 C 1349.258,292.08 1349.018,292.128 1348.778,292.176 1349.476,292.228 1350.042,293.006 1350.588,292.219 1351.078,291.514 1349.796,291.602 1349.498,292.032" id="path6624"/>
    <path d="M 1352.087,274.032 C 1351.589,273.886 1351.087,273.863 1350.577,273.96 1350.547,275.104 1351.761,274.792 1352.087,274.032" id="path6626"/>
    <path d="M 1353.308,273.168 C 1353.071,273.12 1352.835,273.072 1352.598,273.024 1352.542,273.503 1352.493,273.983 1352.448,274.463 1352.954,274.215 1353.316,273.751 1353.308,273.168" id="path6628"/>
    <path d="M 1354.758,272.664 C 1354.521,272.615 1354.28,272.591 1354.038,272.592 1354.278,272.616 1354.518,272.64 1354.758,272.664" id="path6630"/>
    <path d="M 1354.248,272.88 C 1354.511,272.976 1354.775,273.072 1355.038,273.168 1354.836,272.915 1354.573,272.819 1354.248,272.88" id="path6632"/>
    <path d="M 1358.278,270.576 C 1358.015,270.576 1357.751,270.576 1357.488,270.576 1357.812,270.733 1358.148,270.853 1358.498,270.936 1358.424,270.816 1358.351,270.696 1358.278,270.576" id="path6634"/>
    <path d="M 1358.928,269.64 C 1358.668,269.619 1358.4,269.64 1358.138,269.64 1358.686,270.06 1358.725,269.694 1358.928,269.64" id="path6636"/>
    <path d="M 1362.818,268.848 C 1363.058,268.68 1363.298,268.512 1363.538,268.344 1363.367,268.063 1363.15,267.823 1362.888,267.624 1362.972,268.448 1362.685,268.592 1362.028,268.056 1361.923,268.664 1362.187,268.996 1362.818,268.848" id="path6638"/>
    <path d="M 1366.348,265.752 C 1366.03,264.677 1364.655,265.015 1364.118,265.68 1364.841,265.896 1365.629,266.197 1366.348,265.752" id="path6642"/>
    <path d="M 1365.627,267.408 C 1365.89,267.36 1366.154,267.311 1366.417,267.263 1365.964,266.74 1365.354,266.712 1364.907,267.263 1365.147,267.312 1365.388,267.36 1365.627,267.408" id="path6644"/>
    <path d="M 1366.917,266.903 C 1367.377,267.223 1367.881,267.32 1368.427,267.192 1368.29,266.263 1367.423,266.248 1366.917,266.903" id="path6648"/>
    <path d="M 1367.138,264.888 C 1367.972,265.803 1371.374,265.06 1371.748,263.88 1371.236,263.435 1370.509,263.459 1369.893,263.596 1369.418,263.701 1367.655,263.999 1369.438,264.241 1368.59,264.24 1367.716,264.108 1367.138,264.888" id="path6650"/>
    <path d="M 1370.238,262.8 C 1369.484,262.122 1368.064,263.071 1367.278,263.232 1368.285,263.173 1369.427,263.675 1370.238,262.8" id="path6652"/>
    <path d="M 1368.868,265.536 C 1368.628,265.56 1368.388,265.584 1368.148,265.608 1368.419,265.766 1368.706,265.886 1369.008,265.967 1368.961,265.824 1368.915,265.68 1368.868,265.536" id="path6654"/>
    <path d="M 1382.478,253.512 C 1382.211,253.68 1381.945,253.848 1381.678,254.016 1382.221,253.889 1382.751,253.721 1383.268,253.512 1383.004,253.512 1382.741,253.512 1382.478,253.512" id="path6662"/>
    <path d="M 1382.397,253.944 C 1383.245,253.695 1383.933,254.658 1384.637,253.799 1383.89,253.471 1383.123,253.701 1382.397,253.944" id="path6664"/>
    <path d="M 1384.638,257.04 C 1384.875,257.016 1385.111,256.992 1385.348,256.968 1384.729,256.81 1384.158,256.474 1383.698,256.032 1383.631,256.655 1384.018,257.054 1384.638,257.04" id="path6666"/>
    <path d="M 1384.708,255.528 C 1384.441,255.551 1384.175,255.576 1383.908,255.599 1384.144,255.833 1384.411,256.025 1384.708,256.175 1384.708,255.96 1384.708,255.744 1384.708,255.528" id="path6668"/>
    <path d="M 1384.998,256.104 C 1384.764,256.604 1385.008,256.724 1385.718,256.463 1385.478,256.344 1385.238,256.225 1384.998,256.104" id="path6670"/>
    <path d="M 1387.518,252.216 C 1386.935,252.091 1386.361,252.328 1385.998,252.792 1386.553,252.728 1387.06,252.536 1387.518,252.216" id="path6672"/>
    <path d="M 1387.368,248.328 C 1387.673,248.547 1388.009,248.619 1388.378,248.544 1388.237,247.542 1387.816,247.795 1387.368,248.328" id="path6674"/>
    <path d="M 1391.547,246.384 C 1392.135,246.066 1392.758,245.849 1393.417,245.736 1392.449,245.293 1391.286,245.469 1390.827,246.529 1391.067,246.48 1391.308,246.432 1391.547,246.384" id="path6676"/>
    <path d="M 1392.118,244.44 C 1390.702,243.342 1390.944,246.02 1392.408,244.799 1392.311,244.68 1392.214,244.561 1392.118,244.44" id="path6678"/>
    <path d="M 1394.138,244.008 C 1393.898,244.104 1393.658,244.2 1393.418,244.296 1393.67,244.231 1393.911,244.136 1394.138,244.008" id="path6682"/>
    <path d="M 1394.718,243.647 C 1394.423,243.556 1394.156,243.628 1393.918,243.864 1394.184,243.792 1394.451,243.72 1394.718,243.647" id="path6684"/>
    <path class="landxx nor" d="M 1346.908,280.944 C 1348.431,280.208 1350.09,280.855 1351.658,280.368 1351.304,280.303 1350.965,280.349 1350.643,280.506 1349.915,280.744 1349.355,280.21 1348.638,280.224 1350.961,279.535 1347.099,279.886 1349.348,279.432 1348.558,279.308 1347.765,279.442 1346.978,279.504 1347.766,279.347 1348.584,279.352 1349.348,279.072 1348.663,279.232 1346.9,279.733 1346.908,278.496 1347.472,278.566 1347.976,278.422 1348.418,278.063 1346.494,278.257 1349.42,276.994 1349.928,276.983 1350.543,276.97 1350.87,277.448 1351.438,277.559 1352.003,277.669 1353.816,277.1 1352.518,278.352 1352.831,277.574 1356.839,277.052 1357.638,277.415 1356.77,276.942 1355.729,277.548 1354.813,277.38 1354.325,277.291 1350.323,277.123 1352.378,277.055 1351.129,276.966 1349.127,277.55 1348.058,276.696 1348.648,276.731 1349.151,276.539 1349.568,276.12 1349.237,275.759 1347.761,275.549 1347.815,274.902 1347.892,273.975 1349.936,275.622 1349.998,276.192 1350.269,276.068 1350.509,275.9 1350.718,275.688 1349.397,275.703 1350.419,274.125 1351.588,275.616 1351.659,274.911 1352.49,274.436 1352.599,275.272 1352.665,275.783 1354.684,275.684 1355.038,275.688 1354.451,275.558 1352.447,274.751 1353.675,274.015 1355.154,273.129 1355.39,274.007 1356.478,274.895 1354.553,271.106 1361.225,273.793 1358.568,275.543 1359.141,275.684 1359.671,275.588 1360.158,275.255 1359.557,275.127 1359.119,274.616 1359.718,274.104 1360.032,273.836 1360.897,274.228 1361.308,274.032 1359.613,274.094 1359.435,273.2 1358.108,272.709 1357.061,272.32 1355.888,272.95 1354.828,272.664 1355.668,272.385 1356.555,272.486 1357.418,272.376 1356.63,271.894 1355.707,272.289 1354.968,271.656 1356.349,271.351 1357.988,270.931 1359.373,271.437 1360.546,271.865 1362.491,272.489 1363.608,271.728 1363.089,271.866 1362.563,271.914 1362.028,271.873 1362.221,270.272 1364.991,270.426 1366.058,270.793 1364.707,269.409 1362.902,271.624 1361.448,270.577 1361.954,270.444 1362.458,270.301 1362.958,270.146 1361.823,270.201 1360.092,271.23 1359.148,270.146 1359.61,269.956 1360.09,269.883 1360.588,269.928 1359.972,269.798 1359.442,269.51 1358.998,269.064 1359.764,268.531 1360.679,268.337 1361.495,268.908 1362.327,269.49 1363.089,268.601 1363.969,268.777 1364.774,268.938 1365.473,268.479 1365.8,269.502 1366.074,270.361 1367.719,270.442 1368.359,270.938 1367.581,269.552 1365.501,269.567 1365.119,267.841 1365.699,267.474 1366.596,268.228 1366.931,268.619 1367.741,269.567 1367.306,269.373 1368.789,269.425 1367.338,269.284 1368.291,268.682 1368.939,268.561 1368.644,268.535 1366.045,268.453 1368.149,268.345 1367.831,268.366 1365.913,267.688 1366.968,267.448 1368.189,267.171 1369.617,267.12 1370.879,266.905 1370.133,267.003 1369.337,267.083 1368.649,266.69 1368.936,266.419 1369.188,266.118 1369.405,265.789 1369.837,265.261 1370.248,265.591 1370.785,265.38 1371.618,265.053 1372.483,265.365 1371.599,266.258 1372.33,265.922 1373.122,265.754 1373.909,265.611 1373.35,265.714 1372.797,265.69 1372.249,265.539 1372.703,265.218 1373.207,265.025 1373.759,264.963 1373.256,264.883 1372.752,264.883 1372.249,264.963 1373.024,264.442 1374.119,264.201 1375.008,263.952 1376.055,263.659 1377.524,265.451 1375.999,266.115 1376.747,265.838 1377.528,265.995 1378.299,265.97 1376.341,265.511 1378.744,265.061 1379.273,265.066 1380.155,265.076 1381.095,265.311 1381.969,265.107 1381.43,264.45 1381.573,264.162 1382.399,264.243 1381.874,264.055 1381.37,264.102 1380.889,264.387 1382.065,263.48 1383.425,262.759 1384.919,262.587 1384.86,261.94 1384.404,261.727 1383.839,262.011 1384.068,261.029 1385.128,261.068 1385.86,260.715 1385.204,260.63 1383.397,261.041 1385.07,260.067 1383.561,260.127 1382.674,261.813 1381.18,262.011 1381.724,262.009 1382.227,261.865 1382.69,261.579 1383.556,262.768 1380.738,263.65 1380.05,263.895 1377.792,264.702 1377.304,265.127 1376,263.234 1376.631,263.232 1377.192,262.924 1377.65,262.514 1376.605,262.764 1375.551,263.028 1374.56,263.451 1375.124,263.077 1375.784,262.579 1374.48,262.587 1375.619,262.084 1377.131,261.008 1378.44,261.507 1377.897,261.168 1377.371,261.193 1376.86,261.579 1377.086,261.369 1377.325,261.177 1377.58,261.003 1375.943,261.336 1377.67,260.412 1378.099,260.069 1378.631,259.643 1378.314,259.094 1379.241,259.419 1378.518,257.414 1382.957,257.936 1382.551,256.179 1383.353,256.418 1383.815,257.214 1384.641,257.403 1384.536,257.676 1384.412,257.94 1384.271,258.196 1385.002,257.72 1385.846,257.305 1386.721,257.187 1385.306,257.331 1386.144,256.326 1386.871,256.323 1386.381,256.138 1385.874,256.043 1385.351,256.036 1385.367,254.892 1386.95,254.872 1387.731,254.668 1387.343,254.654 1386.96,254.606 1386.581,254.524 1387.89,253.516 1389.799,253.252 1391.331,253.876 1388.778,252.619 1386.913,255.063 1384.421,255.028 1385.404,254.736 1385.381,254.545 1384.351,254.452 1385.08,254.069 1385.931,254.289 1386.651,253.876 1386.083,254.103 1385.506,254.127 1384.921,253.948 1385.406,253.75 1385.91,253.677 1386.431,253.731 1384.122,253.264 1389.01,253.056 1386.431,253.227 1387.133,253.166 1387.832,252.998 1388.451,252.651 1386.655,252.697 1388.43,251.838 1389.101,252.507 1389.223,251.584 1390.276,251.486 1390.471,252.435 1389.886,252.674 1389.286,252.722 1388.671,252.58 1390.352,253.359 1392.629,252.121 1393.851,250.996 1393.313,251.256 1392.824,251.601 1392.277,251.844 1391.776,252.065 1389.743,252 1391.551,251.788 1390.542,251.696 1390.673,251.288 1391.191,250.78 1390.593,250.666 1390.04,250.965 1389.681,251.427 1389.162,250.721 1389.81,249.149 1390.761,249.196 1390.97,249.373 1391.152,249.574 1391.307,249.801 1391.833,250.31 1392.572,249.874 1393.131,249.7 1392.9,249.766 1391.2,249.1 1391.131,248.991 1390.211,247.531 1392.107,247.934 1392.84,248.332 1390.955,247.587 1393.257,244.737 1395.43,246.892 1395.17,245.708 1393.38,245.204 1392.41,245.308 1393.406,245.276 1395.174,244.29 1396.164,243.93 1397.081,243.597 1396.756,244.109 1397.328,244.46 1397.694,244.684 1398.343,244.362 1398.75,244.445 1397.527,244.142 1400.2,243.648 1400.76,243.077 1398.739,243.559 1396.66,243.743 1394.64,244.228 1395.146,243.432 1396.03,243.356 1396.88,243.292 1396.088,243.163 1395.283,243.377 1394.5,243.147 1395.16,242.678 1395.054,242.114 1394.35,241.78 1395.086,241.275 1395.377,242.145 1396.08,242.139 1396.322,242.137 1398.256,241.196 1398.39,241.059 1397.224,240.71 1396.059,242.098 1395.22,240.7 1395.741,240.55 1396.267,240.526 1396.8,240.628 1396.425,240.482 1396.042,240.361 1395.65,240.268 1396.657,240.004 1397.69,240.559 1398.68,240.197 1398.382,240.229 1396.191,240.095 1398.03,239.908 1396.021,239.712 1399.237,239.641 1399.54,239.621 1398.709,239.493 1398.031,238.972 1397.23,238.757 1398.018,238.353 1399.084,237.983 1399.982,238.144 1401.14,238.352 1401.972,237.3 1403.14,237.893 1402.655,237.597 1402.128,237.453 1401.56,237.461 1401.853,236.447 1405.15,235.913 1405.15,236.669 1406.011,236.124 1407.301,236.511 1408.03,237.101 1408.03,236.298 1408.167,236.158 1408.97,236.454 1407.975,236.258 1407.002,235.877 1405.98,235.839 1404.55,235.785 1403.505,236.399 1402.06,235.806 1402.654,235.636 1402.98,235.033 1403.57,234.87 1404.242,234.685 1404.526,235.553 1405.08,234.725 1404.561,234.764 1404.058,234.692 1403.57,234.509 1404.262,234.123 1405.148,233.559 1405.95,234.077 1405.66,234.221 1405.37,234.365 1405.08,234.509 1405.806,234.331 1406.658,234.211 1407.39,234.437 1408.052,234.641 1408.544,235.542 1409.33,235.229 1407.699,235.168 1409.507,233.839 1410.27,233.862 1408.993,233.717 1407.785,234.402 1406.52,233.933 1408.952,233.4 1405.381,233.917 1406.796,232.889 1407.235,232.57 1407.989,232.973 1408.47,232.925 1406.62,232.629 1409.286,232.66 1409.98,233.069 1408.132,231.208 1406.341,233.238 1404.29,233.286 1404.612,232.762 1405.178,232.418 1405.8,232.422 1405.219,232.378 1404.693,232.186 1404.22,231.846 1404.721,231.781 1405.224,231.756 1405.73,231.774 1403.276,231.678 1407.668,231.219 1408.095,231.18 1408.746,231.12 1410.304,231.536 1410.56,230.622 1409.363,229.976 1408.07,230.548 1406.81,230.405 1407.274,229.528 1408.215,229.78 1408.97,229.397 1407.726,231.018 1410.293,228.63 1411.065,229.123 1412.029,229.738 1411.309,231.75 1413,231.63 1412.408,231.512 1411.967,231.069 1411.85,230.478 1412.201,230.759 1414.629,231.686 1412.57,230.478 1413.415,230.951 1413.608,230.783 1413.15,229.974 1413.671,230.124 1414.198,230.148 1414.73,230.046 1413.901,229.993 1413.075,229.861 1412.28,229.614 1412.655,229.447 1413.038,229.302 1413.43,229.181 1412.888,229.051 1412.338,228.979 1411.78,228.965 1412.838,228.886 1412.838,228.646 1411.78,228.245 1412.886,228.576 1413.874,229.262 1415.02,229.469 1414.053,229.21 1413.087,228.546 1412.35,227.885 1413.535,227.805 1414.688,227.491 1415.843,227.954 1416.339,228.004 1416.837,228.034 1417.335,228.045 1417.867,228.191 1417.724,228.644 1418.399,228.677 1418.031,228.65 1417.817,228.481 1417.757,228.169 1417.957,227.678 1419.084,227.849 1419.409,228.029 1417.432,227.583 1420.489,227.578 1420.919,227.669 1419.364,227.202 1418.364,227.214 1416.779,227.408 1415.78,227.531 1414.084,227.664 1413.219,227.02 1414.243,226.832 1413.833,225.754 1415.241,225.54 1416.586,225.335 1417.996,225.482 1419.338,225.652 1418.821,225.413 1418.295,225.197 1417.758,225.005 1418.456,224.549 1419.261,224.875 1419.988,225.005 1418.733,224.824 1419.272,224.459 1419.908,224.141 1417.892,224.337 1420.173,222.031 1421.858,222.341 1419.94,220.899 1424.367,218.488 1424.018,221.765 1424.216,220.428 1425.68,220.735 1426.758,221.189 1425.742,220.715 1424.492,220.693 1423.878,219.605 1424.78,219.395 1425.554,219.664 1426.334,220.098 1427.211,220.586 1429.147,220.556 1428.559,221.621 1429.108,221.558 1429.58,220.541 1428.782,220.541 1427.919,220.541 1427.107,220.721 1426.61,219.82 1427.035,219.367 1427.538,219.247 1428.12,219.461 1427.603,219.229 1427.076,219.204 1426.54,219.389 1426.373,217.417 1429.179,217.63 1430.43,217.373 1430.31,218.443 1430.506,219.318 1429.99,220.324 1430.703,219.854 1430.996,218.517 1432.08,219.029 1430.508,218.936 1431.71,216.656 1432.01,217.732 1432.326,216.891 1433.438,217.208 1433.52,216.22 1435.415,216.995 1432.82,220.466 1432.08,221.26 1432.887,220.711 1433.909,220.571 1434.315,219.562 1434.73,218.533 1436.244,219.687 1436.91,219.749 1434.501,218.916 1435.539,216.85 1437.56,216.436 1437.299,216.632 1437.056,216.848 1436.83,217.084 1437.759,218.26 1437.867,216.504 1438.85,217.228 1437.123,214.771 1443.423,217.892 1443.82,217.949 1443.455,217.533 1442.999,217.293 1442.45,217.228 1443.332,217.237 1443.407,217.159 1442.673,216.994 1442.222,216.682 1442.175,215.635 1443.31,216.509 1443.011,215.697 1441.082,215.734 1442.81,215.285 1441.62,215.641 1439.186,215.414 1438.27,214.421 1438.799,214.233 1439.305,214.281 1439.79,214.565 1439.862,214.301 1439.932,214.038 1440,213.773 1440.55,214.051 1441.08,214.363 1441.59,214.71 1441.829,212.939 1443.231,214.728 1444.111,213.989 1443.886,214.93 1444.895,215.049 1445.55,215.141 1444.987,215.101 1444.626,214.761 1444.54,214.205 1445.533,214.039 1446.589,214.413 1447.56,214.564 1447.32,215.669 1445.722,215.51 1444.9,215.572 1445.963,215.604 1447.14,215.595 1448.07,214.997 1448.187,216.889 1450.013,216.121 1451.16,216.077 1451.026,215.664 1449.958,215.796 1449.51,215.357 1450.194,215.003 1450.801,214.588 1449.43,214.42 1449.755,214.443 1452.22,214.232 1450.15,214.06 1450.98,214.229 1451.47,213.153 1452.067,212.796 1452.971,212.254 1453.995,212.51 1454.98,212.476 1453.517,211.255 1456.208,211.405 1456.781,211.037 1456.063,210.669 1455.217,210.74 1454.551,210.245 1455.354,209.582 1456.181,210.655 1456.921,209.812 1454.836,209.397 1458.042,209.03 1458.798,209.191 1458.849,209.202 1461.742,211.154 1460.311,209.308 1461.342,209.21 1462.313,210.208 1463.332,209.668 1462.714,211.238 1460.402,211.342 1459.372,212.548 1459.948,212.405 1460.288,212.683 1460.311,213.268 1459.952,213.304 1458.793,214.38 1458.872,215.14 1459.374,214.857 1460.337,215.409 1460.535,215.078 1460.747,214.72 1461.04,214.449 1461.415,214.263 1461.865,213.948 1461.2,213.736 1461.462,213.412 1462.665,211.926 1465.597,209.663 1467.432,209.164 1467.751,210.365 1467.822,211.079 1466.352,211.18 1467.739,210.937 1467.651,212.587 1467.222,213.412 1467.826,213.475 1467.904,213.157 1468.233,212.783 1468.712,212.24 1469.574,212.641 1470.172,212.62 1469.98,212.358 1469.789,212.094 1469.602,211.828 1470.112,211.731 1470.615,211.755 1471.113,211.899 1470.546,211.777 1470.182,211.326 1470.173,210.748 1471.034,210.805 1471.676,209.943 1472.553,210.315 1471.969,209.601 1471.051,209.7 1470.243,209.524 1470.791,209.434 1475.299,206.981 1475.647,208.659 1475.709,208.953 1477.096,209.011 1477.361,209.265 1478.097,209.972 1474.396,210.411 1474.203,210.532 1474.753,210.469 1475.259,210.59 1475.723,210.891 1474.942,211.098 1474.209,211.456 1473.413,211.612 1474.41,211.578 1475.808,210.738 1476.723,211.467 1475.99,211.962 1475.148,212.245 1474.353,212.619 1475.306,212.684 1476.291,212.305 1477.233,212.547 1476.715,212.847 1476.383,213.379 1476.584,213.986 1476.506,212.974 1477.476,212.387 1478.384,212.474 1476.519,212.491 1478.668,210.288 1479.278,209.922 1480.09,209.434 1483.118,209.894 1482.274,211.321 1482.994,211.106 1484.616,210.282 1484.865,211.538 1485.893,210.502 1488.432,211.966 1486.734,212.33 1488.29,212.212 1490.609,211.995 1491.875,213.269 1492.694,214.095 1490.042,214.375 1489.671,214.45 1488.004,214.785 1487.055,215.783 1485.192,215.519 1483.69,215.306 1480.776,214.213 1479.464,215.354 1480.387,215.412 1481.302,215.546 1482.211,215.708 1482.851,215.822 1486.134,215.916 1484.144,216.649 1484.985,216.76 1486.922,217.234 1484.934,218.089 1485.61,218.006 1486.283,217.909 1486.955,217.801 1487.037,218.383 1487.379,218.404 1487.955,218.377 1487.849,217.976 1487.802,217.567 1487.814,217.152 1488.586,217.192 1489.489,217.292 1489.764,218.161 1490.144,216.851 1491.9666,217.32406 1492.3095,218.34434 1493.0105,220.43071 1488.7267,219.08388 1488.313,218.593 1489.0822,220.05896 1487.3889,220.52447 1486.3289,220.70353 1485.7811,220.79603 1484.1912,220.8516 1484.112,221.48066 1484.057,221.91681 1484.3556,222.41662 1483.193,223.054 1482.6418,223.35618 1482.126,223.069 1481.647,222.775 1480.668,222.175 1481.951,221.566 1482.343,221.185 1483.378,220.183 1483.847,218.769 1481.918,218.265 1480.439,217.878 1478.933,217.661 1477.499,217.099 1475.864,216.458 1474.642,214.85932 1472.9039,215.97559 1470.0644,217.79923 1465.8074,215.80243 1464.784,219.351 1464.548,220.16929 1464.3676,220.97047 1464.2806,221.82147 1464.2266,222.35647 1464.737,223.269 1464.2266,223.729 1463.6636,224.235 1463.0522,223.97772 1462.4266,224.284 1461.7996,224.59098 1461.4739,225.26132 1461.0666,225.788 1460.11,227.0249 1458.3536,225.59 1457.2056,225.288 1456.4326,225.085 1455.6456,224.927 1454.8796,224.696 1453.9346,224.412 1453.8875,225.18658 1453.1836,225.504 1451.0018,226.48787 1448.6892,226.29309 1446.3856,225.34 1445.4587,224.95649 1443.787,223.19748 1442.9166,222.528 1441.3044,221.28795 1439.9255,221.04525 1438.1336,221.975 1438.3686,222.197 1438.6086,222.413 1438.8536,222.623 1437.4226,223.421 1435.0276,222.637 1433.4536,223.343 1435.5996,224.216 1433.8956,225.899 1432.6636,226.656 1433.1836,226.773 1433.6866,226.941 1434.1736,227.16 1431.7333,229.02939 1428.7807,226.81539 1426.2556,227.003 1425.0043,227.096 1424.1178,226.25334 1422.8356,226.743 1421.9213,227.09219 1423.0286,228.521 1422.8746,229.248 1422.3336,231.776 1419.1286,229.798 1417.5586,230.321 1414.9656,231.184 1414.0106,233.816 1411.5646,234.937 1412.1526,235.447 1413.6906,236.329 1413.5036,237.288 1413.3466,238.096 1410.3981,239.87359 1409.7101,240.63859 1409.2311,241.17159 1408.8776,241.351 1408.2716,241.685 1407.5536,242.081 1408.6617,242.905 1408.2476,243.44 1407.3406,244.613 1404.2945,244.634 1402.9945,244.585 1403.2115,245.366 1403.8915,250.407 1402.8675,250.961 1402.0635,251.396 1401.7175,252.766 1400.9665,253.43 1399.9695,254.311 1399.0155,255.289 1398.1745,256.321 1399.5755,256.789 1402.1565,257.675 1401.0255,259.718 1400.2395,261.138 1396.3235,260.086 1394.9245,260.311 1393.6315,260.519 1389.8865,262.559 1389.8175,264.104 1389.7815,264.913 1389.0375,265.545 1389.0955,266.272 1389.1405,266.844 1390.3885,268.402 1389.9195,268.726 1388.9115,269.419 1389.4995,271.39 1390.0165,272.442 1391.0435,274.535 1389.8735,275.902 1390.0885,277.971 1390.2255,279.285 1391.8425,279.72 1392.8445,280.107 1393.3355,280.297 1394.1155,280.576 1394.2945,281.146 1394.4095,281.51 1393.5635,283.655 1393.1315,283.653 1391.8055,283.646 1390.4935,284.01 1391.0445,285.554 1391.3735,286.476 1392.2625,287.029 1392.6275,287.929 1393.0555,288.985 1392.1225,289.511 1392.2345,290.523 1392.3305,291.383 1391.3475,292.145 1390.6525,292.412 1389.4995,292.856 1388.4045,292.295 1388.5065,293.653 1388.5615,294.384 1388.109,294.86506 1387.777,295.42106 1387.372,296.09806 1388.0765,297.073 1388.0135,297.83 1387.9535,298.554 1387.5985,301.101 1386.4345,300.891 1385.9005,300.794 1385.5212,299.88906 1385.2332,299.53006 1384.8892,299.10006 1384.3215,299.178 1383.8255,298.925 1382.5345,298.266 1381.5935,298.331 1381.1255,296.797 1380.9175,296.115 1380.8065,295.388 1380.8175,294.675 1380.8275,294.233 1381.2995,292.342 1381.4735,294.051 1382.2125,292.672 1380.3295,292.198 1380.1915,293.634 1380.1125,294.455 1381.1095,295.195 1380.1735,295.851 1379.9795,295.615 1379.7895,295.374 1379.6035,295.131 1379.4845,295.744 1379.0635,295.893 1378.5235,295.635 1379.5695,296.598 1379.7655,297.222 1379.3835,298.587 1379.3835,297.137 1379.3295,298.364 1378.8235,298.774 1378.3925,299.123 1377.8655,299.309 1377.4085,299.615 1376.6675,300.111 1377.2615,300.555 1376.1555,300.023 1375.4925,299.704 1374.8775,299.292 1374.1935,299.019 1376.0905,299.84 1373.7755,301.185 1372.6835,301.108 1372.8545,301.347 1373.0245,301.587 1373.1935,301.828 1372.5835,302.03 1371.9565,302.127 1371.3135,302.116 1371.4395,302.379 1371.5625,302.642 1371.6835,302.907 1370.2405,303.123 1369.7265,304.609 1368.5735,305.302 1367.1595,306.151 1365.6345,306.543 1364.0975,307.089 1363.4535,307.318 1362.6115,307.93 1361.9115,307.925 1361.2125,307.921 1360.5675,307.567 1359.8625,307.55 1358.7305,307.523 1356.7075,307.958 1355.9135,306.868 1356.3775,306.434 1356.9045,306.098 1357.4935,305.86 1354.9575,307.418 1346.9035,302.36 1350.3635,300.46 1350.1345,300.276 1349.8945,300.108 1349.6435,299.956 1351.1445,299.856 1352.2535,301.259 1353.7535,301.18 1353.4805,300.976 1353.2165,300.76 1352.9635,300.533 1353.9035,299.987 1355.0205,299.867 1356.0535,299.596 1354.8565,299.692 1353.6545,299.938 1352.6735,300.676 1352.8065,300.045 1352.4475,299.485 1351.8735,299.236 1352.3775,299.083 1352.8845,298.939 1353.3935,298.804 1351.5375,298.434 1355.0115,297.542 1355.6235,297.436 1355.1115,297.414 1354.6125,297.487 1354.1285,297.655 1353.2415,297.916 1352.7895,297.586 1354.0435,297.436 1353.5295,297.463 1353.0225,297.415 1352.5235,297.292 1353.5835,296.61 1354.5355,295.86 1355.7635,295.492 1355.0455,295.664 1354.3955,294.979 1353.9945,295.753 1353.6865,296.347 1352.6795,296.899 1352.0935,297.149 1352.1275,296.585 1352.4685,296.243 1353.0335,296.211 1352.2395,296.184 1351.3725,296.161 1350.7235,296.715 1351.2885,296.448 1351.6345,296.674 1351.6635,297.291 1351.1165,297.228 1350.6125,297.348 1350.1535,297.652 1350.1535,297.099 1350.1535,296.548 1350.1535,295.995 1349.8105,296.108 1349.4975,296.276 1349.2135,296.499 1351.1015,296.66 1348.5445,298.896 1349.0735,296.859 1348.9495,298.425 1347.9505,296.937 1347.9795,296.32 1348.0215,295.427 1348.8215,294.596 1349.6435,294.339 1349.5495,295.034 1349.4075,295.948 1348.4935,295.923 1349.2635,296.405 1349.5475,295.862 1349.7575,295.2 1350.0395,294.31 1351.3825,295.056 1352.0935,294.699 1350.0815,294.45 1353.0505,294.043 1353.4635,293.691 1352.6155,294.185 1351.4955,293.899 1350.7235,293.402 1351.4155,292.502 1352.8155,291.155 1354.0435,291.171 1352.1175,290.599 1355.7285,289.054 1356.3435,288.652 1356.6675,289.444 1356.0865,290.152 1355.9135,290.882 1357.1295,289.525 1357.4805,288.32 1359.5135,288.148 1357.9635,287.892 1356.2245,288.198 1354.7785,288.775 1354.3465,288.947 1352.9295,289.987 1352.6705,290.433 1350.7445,293.752 1351.7495,290.228 1350.2245,290.451 1350.3755,289.978 1350.4955,289.498 1350.5845,289.011 1350.3735,289.497 1349.6305,291.042 1348.8275,290.676 1348.1785,290.38 1348.4315,289.175 1347.6345,289.011 1348.1735,288.864 1348.6005,288.456 1348.7845,287.931 1349.5025,290.036 1351.4725,287.526 1351.0145,286.131 1350.0335,286.376 1349.5305,287.57 1348.4595,287.57 1347.4135,287.57 1347.3805,286.003 1346.4845,285.699 1347.3545,285.69 1348.3765,286.08 1348.9245,286.779 1348.8255,286.13 1348.6345,285.083 1349.6445,285.123 1348.7075,284.897 1347.0605,286.303 1346.8345,284.619 1347.4895,285.105 1347.6115,285.102 1347.9145,284.331 1347.1375,284.532 1346.5375,283.359 1348.1315,283.623 1349.8185,283.902 1350.8875,283.237 1352.5245,283.179 1353.7015,283.137 1355.2405,283.926 1356.3255,283.209 1357.4835,282.444 1359.7395,284.225 1358.1445,284.691 1358.6485,284.399 1359.1755,284.351 1359.7245,284.546 1358.0755,283.355 1362.0145,282.547 1362.6845,282.53 1360.5175,282.26 1361.3275,281.398 1362.5345,280.298 1361.5495,280.7 1360.3075,281.694 1361.2445,282.818 1360.4605,282.759 1359.7135,283.167 1358.9345,282.89 1359.1825,282.655 1359.4455,282.439 1359.7245,282.243 1359.0035,282.706 1355.4545,282.878 1357.0645,281.523 1356.1845,281.655 1356.3305,282.402 1355.8245,282.91 1355.0875,283.65 1354.0345,282.884 1353.2395,282.757 1352.3305,282.613 1350.7685,283.119 1349.8955,283.379 1348.9655,283.655 1348.2535,282.802 1347.4145,282.603 1348.7705,282.593 1347.9875,282.084 1347.4145,281.739 1348.3345,281.309 1349.4275,281.167 1350.4345,281.235 1349.4485,280.925 1348.3475,281.272 1347.4145,281.595 1348.0535,280.751 1347.8865,280.535 1346.9075,280.944" id="path6794"/>
    <path d="M 1346.978,287.063 C 1346.738,286.919 1346.498,286.775 1346.258,286.631 1346.815,286.295 1347.378,286.552 1347.698,287.063 1347.458,287.063 1347.218,287.063 1346.978,287.063" id="path6796"/>
    <path d="M 1347.768,277.2 C 1348.031,277.32 1348.295,277.439 1348.558,277.559 1347.765,277.688 1346.946,277.608 1346.188,277.343 1346.684,276.967 1347.211,276.919 1347.768,277.2" id="path6798"/>
    <path d="M 1350.147,288.504 C 1349.614,288.337 1349.134,288.073 1348.707,287.712 1349.441,287.305 1350.288,287.119 1350.937,286.56 1351.067,287.327 1351.125,288.299 1350.147,288.504" id="path6800"/>
    <path d="M 1353.678,296.353 C 1353.968,295.004 1354.804,295.717 1355.758,295.489 1355.036,295.704 1354.272,295.849 1353.678,296.353" id="path6802"/>
    <path d="M 1363.897,268.344 C 1363.994,268.128 1364.09,267.912 1364.187,267.697 1364.435,268.267 1364.149,268.03 1363.897,268.344" id="path6806"/>
    </g>
  <g id="cy">
    <title>Cyprus</title>
    </g>
  </svg>