<svg xmlns="http://www.w3.org/2000/svg" class="world_map zoom3" height="127" id="svg2985" version="1.1" viewBox="1500 558 144 140" width="127">
  <title>World Map</title>
  <defs id="defs2987"/>
  <defs>
    <link xmlns="http://www.w3.org/1999/xhtml" href="../css/svg.css" type="text/css" rel="stylesheet"/>
  </defs>
  <style id="style_css_sheet" type="text/css">
/*
 * Below are Cascading Style Sheet (CSS) definitions in use in this file,
 * which allow easily changing how countries are displayed.
 *
 */
/* --- Custom styles for Peace Corps --- */
.world_map .world_map-is_selected {
  fill: #C94112 !important;
}
.world_map .landxx {
  fill: #F2EFE8;
  stroke: #ffffff;
  fill-rule: evenodd;
}
.world_map.zoom4 .landxx {
  stroke-width: 2px;
}
.world_map.zoom3 .landxx {
  stroke-width: 3px;
}
.world_map.zoom2 .landxx {
  stroke-width: 4px;
}
.world_map.zoom1 .landxx {
  stroke-width: 5px;
}
.world_map .coastxx {
  fill: #F2EFE8;
  stroke: #ffffff;
  stroke-width: 2px;
  fill-rule: evenodd;
}
.world_map .oceanxx {
  opacity: 1;
  color: #ccc;
  fill: #ffffff;
  stroke: #ffffff;
  stroke-width: 0.5;
  stroke-miterlimit: 1;
}

/* --- Original Styles --- *
/*
 * Circles around small countries
 *
 * Change opacity to 1 to display all circles.
 *
 */
.circlexx
{
   opacity:0;
   fill:#e0e0e0;
   stroke:#000000;
   stroke-width:0.5;
}

/*
 * Smaller circles around French DOMs and Chinese SARs
 *
 * Change opacity to 1 to display all subnational circles.
 *
 */
.subxx
{
   opacity:0;
   stroke-width:0.3;
}

/*
 * Circles around small, unrecognized countries
 *
 * Change opacity to 1 to display all circles.
 *
 */
.unxx
{
   opacity:0;
   fill:#e0e0e0;
   stroke:#000000;
   stroke-width:0.3;
}

/*
 * Circles around small countries, but with no permanent residents 
 *
 * Change opacity to 1 to display all circles.
 *
 */
.noxx
{
   opacity:0;
   fill:#e0e0e0;
   stroke:#000000;
   stroke-width:0.5;
}

/*
 * land
 */
.landxx
{
}
/*
 * Styles for coastlines of islands with no borders
 */


/*
 * Styles for nations with limited recognition
 */
.limitxx
{
   fill: #e0e0e0;
   stroke:#ffffff;
   stroke-width:0;
   fill-rule:evenodd;
}

/*
 * Styles for nations with no permanent population.
 */
.antxx
{
   fill: #e0e0e0;
   stroke:#ffffff;
   stroke-width:0;
   fill-rule:evenodd;
}

/*
 * Ocean
 */


/*
 * Additional style rules
 *
 * The following are examples of colouring countries.  You can substitute these with your own styles to colour the countries on the map.
 *
 * Color a few countries:
 *
 * .gb, .au, .nc
 * {
 *    fill:       #ff0000;
 * }
 *
 * Color a few small country circles (and the countries):
 *
 * .ms, .ky
 * {
 *    opacity:    1;
 *    fill:       #ff0000;
 * }
 *
 */

</style>
  <path class="oceanxx" d="M 2079.5058,1457.5605 615.24779,1457.5605 C 615.13079,1457.5605 615.07079,1457.5505 614.95179,1457.5215 611.67679,1456.6515 608.40179,1455.7815 605.12779,1454.9105 599.15079,1453.3225 593.22879,1451.5225 587.30779,1449.7385 564.39379,1442.8315 541.76579,1434.6995 519.46979,1426.0115 495.81079,1416.7935 472.34979,1407.0946 449.19179,1396.6816 426.78379,1386.6056 405.17679,1375.0536 383.76379,1363.0356 363.11779,1351.4496 343.01079,1338.8296 323.37979,1325.5996 302.29179,1311.3876 281.47879,1296.8506 261.05379,1281.7006 242.35079,1267.8276 223.73679,1253.6306 206.05279,1238.4686 186.98679,1222.1216 167.82379,1205.7706 150.35279,1187.6906 132.97779,1169.7106 116.33279,1151.0606 100.15679,1131.9976 84.352777,1113.3736 70.086776,1093.4716 56.901786,1072.9246 44.046786,1052.8916 32.093776,1032.1356 22.469776,1010.3426 17.516776,999.12753 12.408776,987.76556 8.7017761,976.06056 5.0657761,964.58166 1.5997761,953.04259 -1.5932239,941.43054 -8.0102239,918.09356 -14.055224,894.78356 -18.234224,870.92056 -22.491222,846.60856 -24.894222,822.19856 -26.943222,797.62156 -28.947222,773.58556 -28.829222,749.40156 -27.225222,725.34856 -25.648222,701.69856 -23.363222,677.92456 -19.274222,654.56456 -15.018224,630.25156 -9.3842239,606.45156 -2.8412239,582.66156 3.5687761,559.35256 10.483776,536.34856 20.265776,514.19856 30.320776,491.42956 42.318786,469.90956 55.502786,448.81656 68.512776,428.00356 83.108777,408.26756 98.686787,389.31756 113.73479,371.01156 129.68979,353.25256 146.15179,336.20856 163.77479,317.96256 182.64579,301.14556 201.89579,284.64756 220.33379,268.84456 239.55379,253.98456 258.95979,239.39656 278.42779,224.76056 298.39379,210.83356 318.55579,197.17556 339.26979,183.14456 360.47879,169.92056 382.15079,157.42556 403.46579,145.13656 425.31479,133.98856 447.60479,123.59356 469.58579,113.34356 492.14979,104.17656 514.74579,95.37556 537.44879,86.532565 560.37879,78.195565 583.63479,70.914565 589.69379,69.017565 595.80079,67.276565 601.90879,65.549565 604.63079,64.779565 607.36079,64.045565 610.09479,63.318565 611.59979,62.918565 613.56579,61.986565 615.13379,61.986565 L 2079.9638,61.986565 C 2079.9798,61.986565 2079.9958,61.986565 2080.0118,61.986565 2079.8448,61.986565 2079.6788,61.986565 2079.5118,61.986565 2102.8268,68.191565 2125.8778,75.323565 2148.5448,83.611565 2171.6378,92.054565 2194.6158,100.87956 2217.2348,110.52956 2240.5208,120.46556 2263.4848,130.95256 2285.8828,142.76456 2306.9808,153.89056 2327.8178,165.78556 2347.8608,178.72156 2368.9418,192.32656 2389.7498,206.29256 2410.2218,220.80056 2429.7368,234.62956 2448.9938,248.98756 2467.6208,263.99256 2486.8818,279.50856 2506.0408,295.30556 2524.0538,312.27356 2541.8708,329.05756 2558.7508,346.67256 2574.9408,365.03656 2591.2478,383.53256 2607.1478,402.30656 2621.4508,422.41856 2635.3488,441.96256 2648.4468,462.42756 2659.5898,483.67756 2671.1238,505.67356 2681.1048,528.35656 2688.6188,552.05056 2692.2518,563.50656 2695.3368,575.14756 2698.5608,586.72256 2701.7738,598.25356 2704.9238,609.81956 2707.4578,621.52456 2712.6258,645.40556 2716.6718,669.47856 2719.1178,693.79656 2721.5718,718.19256 2723.1798,742.56356 2722.9808,767.09056 2722.7908,790.65456 2720.6908,814.43756 2717.7688,837.81156 2714.7368,862.07056 2710.5198,886.16156 2704.6398,909.90056 2701.6808,921.84356 2698.3948,933.69556 2695.0378,945.53154 2691.7468,957.13466 2688.5558,968.83466 2684.3988,980.16156 2676.0918,1002.8036 2666.1688,1024.8836 2654.1338,1045.8046 2641.9958,1066.9066 2628.8498,1087.4866 2614.2378,1106.9696 2599.1658,1127.0666 2582.6678,1145.9446 2565.8948,1164.6296 2549.8298,1182.5266 2532.8918,1199.7316 2514.8648,1215.6616 2496.0788,1232.2646 2476.8978,1248.3126 2457.1558,1263.7656 2438.2988,1278.5276 2418.9668,1292.7306 2399.3188,1306.4206 2378.7018,1320.7866 2357.7538,1334.6106 2336.4758,1347.9776 2326.4088,1354.3016 2316.0058,1360.1326 2305.6418,1365.9516 2295.0348,1371.9086 2284.3858,1378.0166 2273.4448,1383.3436 2250.7338,1394.3986 2227.7768,1404.7266 2204.3888,1414.2665 2181.7848,1423.4875 2159.0678,1432.2695 2136.0228,1440.3345 2117.4118,1446.8465 2098.5568,1452.4975 2079.5058,1457.5605" id="ocean"/>
  <path class="landxx sdn" d="M 1459.2027,675.52234 C 1459.5149,675.20908 1459.5678,674.60503 1459.84,674.33263 1460.267,673.90582 1460.9019,673.52581 1461.3272,673.10045 1461.9934,672.4343 1461.3272,671.01024 1462.0069,670.33868 1462.4875,669.85804 1463.9833,670.57178 1464.5564,669.99876 1464.9498,669.6052 1467.2434,668.90432 1467.6156,669.27643 1468.1191,669.78016 1468.0506,671.45357 1468.2952,671.69831 1468.5077,671.90984 1469.2647,671.77521 1469.4426,671.95331 1469.7711,672.28183 1469.7936,672.91034 1469.9948,673.31294 1470.1268,673.58016 1470.4481,673.89368 1470.5898,674.03525 1471.1008,674.54609 1470.8217,675.92378 1471.2698,676.37218 1471.5627,676.66644 1472.5045,677.10948 1472.8418,677.22193 1473.7172,677.51394 1477.234,676.35639 1477.7282,675.86229 1477.8376,675.75376 1478.3987,675.92829 1478.4928,675.94739 1479.8888,676.22651 1481.9862,676.25035 1483.0391,676.07487 1483.5682,676.81755 1483.8588,677.91409 1484.3987,678.45417 1484.9869,679.04224 1488.965,678.67793 1489.7524,678.28418 1490.0196,678.1509 1489.8748,677.52686 1490.0067,677.26442 1490.3622,676.55361 1491.4549,675.62681 1492.2588,675.22496 1493.1844,674.76202 1495.3463,675.15406 1495.8702,674.63011 1496.2305,674.27007 1495.5279,672.29569 1496.0408,671.78334 1496.7285,671.09569 1497.9842,670.54102 1498.6753,670.12626 1500.6338,670.58893 1501.4615,672.06289 1502.6692,673.2705 1503.3456,673.9468 1504.3038,674.26766 1504.8787,674.8426 1505.043,675.00744 1505.2548,674.59374 1505.3034,674.54511 1505.4483,674.40056 1506.7879,674.50261 1507.088,674.50261 1507.4566,674.50261 1508.4475,674.58771 1508.7026,674.33262 1510.0191,673.01618 1511.0776,671.02278 1512.4842,669.61633 1513.1393,668.96105 1513.217,667.35373 1513.8438,666.72709 1515.0089,665.56182 1516.6983,664.49483 1517.2005,662.98802 1515.6825,661.80433 1517.6039,658.37776 1516.6055,657.37957 1516.4735,657.24822 1514.5039,655.52995 1514.566,655.46756 1515.2321,654.80172 1518.8949,655.86014 1519.3672,654.91519 1519.6763,654.29874 1519.2892,653.47434 1519.3672,653.00317 1519.7545,652.79777 1523.3614,652.97097 1523.3614,653.00317 1523.3614,653.76021 1522.6853,656.43753 1522.2992,657.20962 1521.9133,657.98131 1523.1264,662.64298 1523.3614,663.58297 1523.474,664.03276 1523.0685,665.71082 1523.2327,665.87738 1523.5861,666.23102 1524.4811,666.38882 1524.9322,666.72718 1526.7367,668.08064 1527.7429,670.68495 1529.0535,671.9958 1529.4772,672.41933 1529.0155,674.76827 1528.2889,674.16279 1528.4338,678.4323 1528.0313,675.60607 1530.5755,676.45544 1530.6425,675.81573 1530.7739,675.18291 1530.9786,674.55552 L 1530.9786,674.55552 C 1531.4506,673.10552 1532.1456,672.06202 1532.0886,670.49902 1532.0246,668.74202 1531.8593,667.54952 1532.9963,666.11152 1533.8603,665.02052 1535.3343,665.93252 1535.3043,667.14852 1535.9123,666.47952 1536.1956,665.93885 1536.6663,664.95952 1537.8547,662.48718 1536.1042,662.52135 1536.6669,661.85696 1538.0396,660.23622 1537.0066,657.42085 1538.5003,656.43752 1539.9373,655.49154 1540.5143,652.32452 1541.4203,650.88552 1542.3453,649.41752 1543.5423,650.09277 1544.9723,649.89377 1545.9233,649.76077 1545.7506,646.90952 1545.7676,646.24052 1545.8136,644.35252 1546.9159,642.96782 1547.2983,641.17152 1547.8515,638.57489 1547.4343,635.71229 1547.3453,633.89415 1547.2493,631.94338 1546.6479,629.55966 1547.3553,628.23452 1548.3461,626.37848 1548.649,623.85624 1549.4933,621.56752 1549.8215,620.67781 1550.2843,619.70152 1550.4873,618.77252 1550.7093,617.76052 1550.1696,616.96946 1550.3536,615.97246 1550.5416,614.95746 1550.3906,612.87277 1551.324,612.32177 1552.001,611.92177 1553.8822,612.67777 1554.1422,611.76177 1554.6482,609.98177 1554.389,609.79195 1556.351,609.04895 1557.435,608.63795 1559.9024,607.75354 1560.499,606.78558 1560.9528,606.04927 1562.1009,604.06496 1562.3705,603.7719 1562.2035,602.4239 1559.9203,602.57352 1559.8543,601.34152 1558.9203,602.18152 1556.2953,597.80252 1554.8913,597.56352 1552.4613,597.15052 1551.7383,592.44452 1551.6333,590.40552 1551.4833,587.50152 1550.6103,584.88352 1550.9883,582.02852 1551.1563,580.76452 1550.7313,579.32252 1550.2283,578.17652 1549.5323,576.59052 1550.9393,575.87352 1551.2843,577.43752 1551.1903,575.38252 1548.8313,574.08852 1548.2633,572.18152 1547.5773,569.87752 1548.5633,568.99152 1546.4413,567.50852 1544.8403,566.38952 1543.8163,564.27152 1542.1433,563.39752 1540.2743,562.42052 1538.7633,561.65652 1538.2533,559.43752 1537.5793,560.11952 1535.7963,562.80952 1534.7193,562.24552 1533.3073,561.50552 1532.8563,563.37352 1532.5543,564.23252 1531.9713,565.88752 1531.4763,566.83052 1529.6733,567.13952 1527.8873,567.44652 1527.4233,567.82152 1527.0523,569.61652 1526.2413,573.54152 1522.4053,570.54652 1520.5463,569.53352 1518.9343,568.65552 1516.1103,569.32552 1514.3503,569.39852 1512.0513,569.49352 1509.7203,569.54952 1507.4433,569.15752 1508.1962,568.46425 1507.8023,566.01323 1506.6933,567.79152 1505.5966,569.54997 1504.1713,569.22952 1502.3153,569.22952 1497.5753,569.22952 1492.8353,569.22952 1488.0963,569.22952 1478.4383,569.22952 1468.6451,569.13942 1458.9881,569.13942 1459.1821,574.89742 1459.3893,580.74855 1459.4833,586.50955 1456.9903,586.50955 1454.4963,586.50955 1452.0033,586.50955 L 1452.7233,623.73355 C 1451.4863,623.34955 1450.1963,622.87655 1448.9613,623.52155 1447.9423,624.05555 1446.9663,623.46055 1445.9283,623.97455 1443.5073,625.17255 1446.0573,626.98655 1444.5443,628.91455 1443.3313,630.45855 1443.1153,632.13855 1441.3583,633.07155 1440.2523,633.65755 1441.3833,636.40255 1442.0623,637.05255 1439.5433,639.06755 1437.9163,639.75155 1439.7233,643.15555 1440.4113,644.45155 1439.5533,644.99755 1438.4963,645.74355 1437.3673,646.54055 1437.1683,647.56655 1436.6623,648.78954 1437.6423,651.43552 1439.5003,648.94652 1441.1483,649.90152 1442.1233,650.46952 1440.6483,651.40252 1441.0943,652.16752 1441.6433,653.10152 1441.9353,654.34152 1441.6333,655.41052 1441.8923,655.27952 1442.1543,655.15952 1442.4233,655.05052 1443.2073,656.31052 1441.7363,657.70552 1442.3763,658.98152 1443.0103,660.25152 1444.6403,660.42152 1445.1913,661.34452 1446.0003,662.70052 1444.2963,663.94552 1444.8963,665.26352 1445.5163,666.62852 1446.6043,667.65552 1447.6463,668.69652 1449.5093,670.55952 1451.1343,673.31792 1451.1483,675.98492 1451.1663,676.48113 1451.2644,676.96723 1451.2644,677.42439 1451.2744,677.43549 1455.7251,677.42439 1455.7251,677.42439 1456.2355,677.61321 1456.3944,677.18807 1456.7895,676.81802 1457.481,676.75982 1457.6252,677.71703 1458.0313,676.39872 1458.5464,676.07845 1458.845,676.01729 1459.2023,675.52241 z" id="sd">
    <title>Sudan</title>
  </path>
  <path class="landxx ssd" d="M 1455.3606,685.71039 C 1455.3246,686.15771 1455.2221,686.61768 1455.2221,686.86302 1455.2221,688.49822 1457.3648,688.36235 1458.4687,688.53492 1459.2276,688.65368 1460.0802,688.82738 1460.6471,689.38934 1461.2529,689.98924 1461.5019,690.58131 1462.307,691.09618 1463.1067,691.60724 1463.5327,692.00521 1463.5327,692.7223 1463.5327,693.37908 1462.5245,694.09479 1463.0755,694.71067 1464.6387,696.46049 1466.609,697.26701 1468.6243,698.42691 1469.6647,699.02581 1469.3661,699.61676 1470.0008,700.48415 1470.4601,701.11303 1471.6014,701.33463 1471.8816,702.05829 1472.1979,702.87383 1471.0937,703.51863 1471.6949,704.36711 1472.029,704.84025 1472.8678,705.20257 1472.8678,705.86239 1472.8578,707.41356 1474.5037,707.69005 1475.7355,708.58044 1476.8157,709.36101 1478.5219,709.66844 1478.6571,711.25059 1478.7461,712.29168 1478.4394,713.42463 1479.1771,714.313 1479.7141,714.95884 1479.9865,716.06569 1480.6931,716.48294 1481.6745,717.06287 1482.0289,717.44321 1482.1931,718.60781 1482.3667,719.83059 1483.9732,719.968 1484.5723,720.74554 1484.8656,721.12607 1485.6676,721.39799 1486.073,721.6504 1487.608,722.61566 1487.9445,721.96897 1489.3846,721.04477 1491.5683,719.64313 1491.8817,721.14297 1493.7641,721.29879 1495.6604,721.45568 1495.1182,717.6319 1497.3909,719.59036 1498.1375,720.23316 1498.2518,721.06367 1498.7878,721.77538 1499.2879,722.43914 1499.69,723.30988 1500.2521,723.92276 1501.5028,725.29026 1505.1181,725.79206 1504.0009,728.22564 1505.0061,727.99007 1506.1422,728.03398 1506.2967,729.30367 1506.7391,728.21666 1508.1296,726.53999 1509.5411,726.85937 1510.3994,727.05302 1510.7783,728.1789 1511.7644,727.73472 1512.3314,727.4802 1513.3223,726.32402 1513.8822,727.09661 1514.6269,728.12274 1515.1707,728.60593 1516.5081,729.08806 1515.6446,727.04176 1520.0595,727.3222 1522.0457,726.28324 1523.1545,725.70334 1524.3569,727.06646 1525.8106,727.08576 1526.3492,727.09376 1528.0869,725.81409 1528.3508,725.5018 1529.7784,723.81285 1531.6303,720.25411 1533.836,719.92105 1537.2718,719.40226 1541.438,719.72067 1544.9665,719.52944 1544.3307,718.7259 1543.6686,718.134 1543.6686,717.03099 1543.6686,716.15459 1544.2264,715.11247 1543.8908,714.25404 1543.5976,713.49643 1543.8658,713.79175 1543.0068,713.05616 1542.1215,712.29789 1541.1426,712.11223 1540.2957,713.20491 1539.7515,712.67887 1539.999,711.86432 1539.3494,711.5 1538.8002,711.19158 1538.6089,710.40597 1538.3353,709.88193 1537.5976,708.46849 1537.5477,706.88339 1536.8282,705.48592 1536.2232,704.31008 1536.2869,702.39492 1535.0929,701.4909 1533.9985,700.6623 1533.4509,699.7937 1532.5856,699.39631 1531.8794,699.07196 1530.9396,696.81934 1529.9893,695.67641 1529.1381,694.65231 1528.4462,693.79887 1527.0176,693.05922 1525.7272,692.39104 1524.2504,692.67394 1523.0209,691.96024 1521.1433,690.87119 1523.3568,690.09095 1523.553,688.94901 1523.7966,687.5406 1523.521,686.54396 1525.2296,686.47026 1526.3487,686.42136 1527.6502,686.88751 1528.7054,686.77483 1532.165,686.40449 1530.7673,682.33706 1530.5905,680.06621 1530.4808,678.85142 1530.4455,677.64691 1530.5905,676.45776 1528.0353,675.60607 1528.4378,678.4323 1528.2929,674.16279 1529.0195,674.76827 1529.4812,672.41933 1529.0575,671.9958 1527.7469,670.68495 1526.7407,668.08064 1524.9362,666.72718 1524.4851,666.38882 1523.5901,666.23102 1523.2367,665.87738 1523.0725,665.71082 1523.478,664.03276 1523.3654,663.58297 1523.1304,662.64298 1521.9173,657.98131 1522.3032,657.20962 1522.6893,656.43753 1523.3654,653.76021 1523.3654,653.00317 1523.3654,652.97097 1519.7585,652.79777 1519.3712,653.00317 1519.2932,653.47434 1519.6803,654.29874 1519.3712,654.91519 1518.8989,655.86014 1515.2361,654.80172 1514.57,655.46756 1514.508,655.52996 1516.4775,657.24822 1516.6095,657.37957 1517.6079,658.37776 1515.6865,661.80433 1517.2045,662.98802 1516.7023,664.49483 1515.0129,665.56182 1513.8478,666.72709 1513.221,667.35373 1513.1433,668.96105 1512.4882,669.61633 1511.0816,671.02278 1510.0231,673.01618 1508.7066,674.33262 1508.4515,674.58771 1507.4606,674.50261 1507.092,674.50261 1506.7919,674.50261 1505.4523,674.40056 1505.3074,674.54511 1505.2584,674.59371 1505.047,675.00744 1504.8827,674.8426 1504.3078,674.26766 1503.3496,673.9468 1502.6732,673.2705 1501.4655,672.06289 1500.6378,670.58893 1498.6793,670.12626 1497.9882,670.54102 1496.7325,671.09569 1496.0448,671.78334 1495.5319,672.29569 1496.2345,674.27007 1495.8742,674.63011 1495.3503,675.15406 1493.1884,674.76202 1492.2628,675.22496 1491.4589,675.62681 1490.3662,676.55361 1490.0107,677.26442 1489.8788,677.52686 1490.0237,678.1509 1489.7564,678.28418 1488.969,678.67793 1484.9909,679.04224 1484.4027,678.45417 1483.8628,677.91409 1483.5722,676.81755 1483.0431,676.07487 1481.9902,676.25035 1479.8928,676.22651 1478.4968,675.94739 1478.4028,675.92829 1477.8416,675.75376 1477.7322,675.86229 1477.238,676.35639 1473.7212,677.51394 1472.8458,677.22193 1472.5085,677.10948 1471.5667,676.66644 1471.2738,676.37218 1470.8257,675.92378 1471.1048,674.54609 1470.5938,674.03525 1470.4521,673.89368 1470.1308,673.58016 1469.9988,673.31294 1469.7976,672.91034 1469.7751,672.28183 1469.4466,671.95331 1469.2687,671.77521 1468.5117,671.90981 1468.2992,671.69831 1468.0546,671.45357 1468.1231,669.78016 1467.6196,669.27643 1467.2474,668.90432 1464.9538,669.6052 1464.5604,669.99876 1463.9873,670.57178 1462.4915,669.85804 1462.0109,670.33868 1461.3312,671.01024 1461.9969,672.4343 1461.3312,673.10045 1460.9059,673.52581 1460.271,673.90582 1459.844,674.33263 1459.5718,674.60503 1459.5189,675.20908 1459.2067,675.52234 1458.9172,675.81068 1458.762,676.01974 1458.0312,676.4001 1457.5722,677.80447 1457.3756,676.4825 1456.7883,676.81911 1456.6366,677.07317 1456.1989,677.42439 1455.7251,677.42439 L 1451.2645,677.42439 C 1451.1925,678.66886 1450.9011,679.33009 1450.4783,679.63952 1449.8693,680.47252 1449.2473,680.71752 1449.4783,681.90752 1449.7423,681.81252 1450.0043,681.71652 1450.2683,681.62052 1450.4813,682.42052 1450.0413,683.14052 1449.7683,683.85152 1451.0813,684.09052 1454.0813,683.70252 1455.0603,684.75552 1455.3451,684.88907 1455.4267,685.22589 1455.3606,685.71039 z" id="ss">
    <title>South Sudan</title>
  </path>
  <g class="landxx coastxx yem" id="ye" transform="translate(-29.9017,-45.0745)">
    <title>Yemen</title>
    <path d="M 1625.188,684.288 C 1625.284,683.957 1625.306,683.621 1625.257,683.28 1624.155,683.457 1624.604,683.897 1625.188,684.288" id="path2190"/>
    <path class="landxx yem" d="M 1702.658,660.279 C 1700.232,660.189 1701.6044,655.21807 1699.1984,654.93507 1700.2778,653.2208 1696.2761,647.90196 1695.5873,646.026 L 1692.7797,639.53725 C 1685.6548,640.93734 1678.4965,642.47056 1671.4847,643.41794 1665.6343,645.22282 1662.6822,648.13037 1661.359,651.297 1660.138,653.121 1659.485,657.727 1656.558,657.55 1654.566,657.43 1654.783,654.443 1652.867,654.669 1650.452,654.954 1648.476,654.909 1646.028,654.565 1644.639,654.37 1643.215,653.381 1641.854,653.381 1640.347,653.381 1638.846,653.526 1637.348,653.668 1635.509,653.842 1633.956,654.668 1632.05,654.563 1631.002,654.505 1630.613,653.339 1629.542,653.206 1628.518,653.078 1627.73,653.769 1627.301,654.635 1626.832,655.58 1626.682,656.726 1626.859,657.764 1626.973,658.436 1627.915,659.103 1627.403,659.792 1626.919,660.445 1626.535,661.116 1626.037,661.796 1625.771,662.168 1625.436,662.461 1625.033,662.676 1624.073,663.156 1624.562,663.521 1624.76,664.574 1625.072,666.242 1624.444,667.015 1624.147,668.535 1623.872,669.942 1625.053,671.165 1624.919,672.564 1624.652,672.324 1623.218,672.287 1623.457,672.846 1623.406,672.729 1624.904,673.572 1624.901,673.568 1625.703,674.424 1626.003,675.31 1626.276,676.43 1626.814,678.626 1626.856,681.074 1627.546,683.21 1627.829,684.087 1628.533,684.743 1628.867,685.598 1629.268,686.629 1628.889,687.747 1628.867,688.802 1628.826,690.889 1631.35,692.645 1630.667,694.765 1631.588,694.836 1632.209,694.319 1633.141,694.691 1634.133,695.087 1634.815,695.414 1635.908,695.197 1638.163,694.75 1639.166,693.174 1641.517,694.407 1641.396,693.767 1642.078,693.117 1642.308,694.048 1642.697,693.62 1642.923,693.123 1643.237,692.647 1643.733,691.894 1644.538,691.911 1645.202,691.409 1646.682,690.291 1646.85,689.164 1648.888,688.696 1650.789,688.259 1652.804,688.176 1654.743,688.354 1655.885,688.458 1657.8,687.148 1658.944,686.824 1660.651,686.341 1661.496,684.864 1662.998,684.032 1663.459,683.777 1664.109,683.2 1664.608,683.051 1665.159,683.069 1665.684,683.2 1666.184,683.442 1666.748,683.469 1667.3,683.401 1667.838,683.239 1671.466,682.655 1672.282,678.901 1675.543,677.3 1677.058,676.556 1678.396,676.368 1680.015,676.085 1682.01,675.737 1683.664,674.399 1685.627,673.931 1686.992,673.605 1688.375,673.348 1689.699,672.87 1691.022,672.392 1691.492,671.338 1692.61,670.767 1693.538,670.293 1695.54,670.352 1695.825,669.092 1696.156,667.632 1695.142,666.304 1695.672,664.815 1696.74,661.806 1700.414,661.925 1702.656,660.279" id="path2592"/>
  </g>
  <g class="landxx coastxx som" id="so">
    <title>Somalia</title>
    <path class="landxx so- som" d="M 1583.6963,739.50955 C 1583.6963,738.10255 1583.3333,736.15655 1583.9403,734.83955 1584.5183,733.58555 1585.698,732.61742 1586.491,731.48742 1588.079,729.22942 1589.4563,725.18755 1591.8633,723.73455 1594.0603,722.40755 1596.6313,723.26555 1598.5543,721.20055 1600.7383,718.85555 1602.8053,717.32355 1606.1103,716.84555 1608.5823,716.48855 1612.9273,718.24655 1614.6353,715.98255 L 1636.3253,690.33455 C 1633.7033,690.33455 1630.9833,690.78055 1628.4053,690.11855 1625.4833,689.36855 1622.6933,687.96055 1619.8693,686.90855 1616.9583,685.82455 1614.0623,684.69955 1611.1573,683.59955 1608.4683,682.58155 1606.1083,681.87055 1604.0443,679.80155 1603.3543,679.10855 1603.1303,678.74455 1602.1733,678.49055 1601.1993,678.23155 1600.8203,676.72155 1600.3653,675.92255 1599.5933,674.56655 1599.0793,673.46955 1597.9853,672.27355 1596.6813,670.84655 1595.1473,669.01655 1595.7413,666.89355 1596.3933,664.56355 1598.434,662.51842 1599.344,660.22142 1601.746,661.56142 1603.0693,664.76255 1604.7123,666.83555 1606.7643,669.42355 1609.8913,670.14155 1613.0643,669.09555 1614.2793,668.69555 1615.8523,667.61155 1616.8903,666.84555 1618.7233,665.49155 1619.2413,665.71955 1621.4973,666.09055 1623.8283,666.47455 1624.8773,666.96255 1627.0543,665.60455 1628.1533,664.91855 1630.6753,662.36055 1632.0913,662.86455 1633.6513,663.41855 1634.7273,663.48755 1636.4043,662.91055 1637.4153,662.56255 1638.3733,662.05055 1639.4233,661.81755 1640.6253,661.54955 1641.4293,662.07255 1642.5753,662.18655 1644.4533,662.37455 1645.8913,661.26055 1647.5153,660.59955 1649.2083,659.91055 1651.1343,660.21555 1652.8413,659.34855 1654.2623,658.62655 1654.4063,656.77055 1655.6143,656.17655 1656.7853,655.59955 1660.5673,656.60255 1660.1023,658.29255 1659.4993,660.48155 1659.0933,661.81655 1659.4963,664.13755 1659.7753,665.75455 1660.1973,668.07255 1658.7843,669.31255 1659.7243,669.66555 1660.5013,669.44655 1660.2943,668.44855 1660.7603,668.75955 1661.2673,668.97555 1661.8143,669.09655 1661.5023,670.64755 1657.9853,668.52255 1657.9723,671.24555 1657.9623,673.46955 1658.1493,675.74555 1657.5303,677.92555 1657.0023,679.78755 1655.8823,681.21255 1654.8293,682.77555 1653.6033,684.59955 1653.7463,687.30155 1652.2443,689.05855 1651.6613,689.74055 1650.8573,689.91455 1650.4533,690.81455 1650.0513,691.70955 1650.3993,692.71955 1650.0643,693.66655 1649.2983,695.82655 1647.7533,697.54155 1646.6773,699.53155 1645.2443,702.17955 1645.1283,705.09455 1644.0093,707.83255 1642.8723,710.61555 1641.1003,713.07455 1639.4683,715.57955 1637.8853,718.01055 1636.8363,720.82655 1635.0243,723.09655 1633.0123,725.61755 1630.9953,728.13155 1628.9443,730.62055 1624.8213,735.62455 1620.6293,739.69155 1615.1653,743.20755 1612.8763,744.68155 1610.5983,746.21255 1608.6863,748.16855 1606.5333,750.36955 1604.0713,752.54255 1602.1253,754.92055 1600.1993,757.27455 1598.1743,759.56555 1596.2713,761.92855 1595.3443,763.07955 1594.5333,764.31655 1593.6313,765.48755 1593.0733,766.21155 1591.4023,768.82455 1591.1053,767.30055 1591.1053,769.77655 1589.4882,772.15649 1587.9952,774.02549 1588.1233,772.08327 1586.2488,770.47715 1584.9162,768.55949 1583.3947,766.37006 1583.637,764.8623 1583.612,762.3263 1583.547,754.6593 1583.696,747.17355 1583.696,739.50955" id="so-"/>
    <path class="limitxx xs som" d="M 1636.3253,690.33455 C 1633.7033,690.33455 1630.9833,690.78055 1628.4053,690.11855 1625.4833,689.36855 1622.6933,687.96055 1619.8693,686.90855 1616.9583,685.82455 1614.0623,684.69955 1611.1573,683.59955 1608.4683,682.58155 1606.1083,681.87055 1604.0443,679.80155 1603.3543,679.10855 1603.1303,678.74455 1602.1733,678.49055 1601.1993,678.23155 1600.8203,676.72155 1600.3653,675.92255 1599.5933,674.56655 1599.0793,673.46955 1597.9853,672.27355 1596.6813,670.84655 1595.1473,669.01655 1595.7413,666.89355 1596.3933,664.56355 1598.434,662.51842 1599.344,660.22142 1601.746,661.56142 1603.0693,664.76255 1604.7123,666.83555 1606.7643,669.42355 1609.8913,670.14155 1613.0643,669.09555 1614.2793,668.69555 1615.8523,667.61155 1616.8903,666.84555 1618.7233,665.49155 1619.2413,665.71955 1621.4973,666.09055 1623.8283,666.47455 1624.8773,666.96255 1627.0543,665.60455 1628.1533,664.91855 1630.6753,662.36055 1632.0913,662.86455 1633.6513,663.41855 1634.7273,663.48755 1636.4043,662.91055 1637.4153,662.56255 1638.3734,662.05081 1639.4233,661.81755 1639.7729,661.73985 1640.0888,661.72855 1640.3892,661.75495 L 1640.4682,685.32208 1636.3257,690.33459 z" id="xs"/>
  </g>
  <path class="landxx eth" d="M 1522.1263,691.34155 C 1522.2693,690.17555 1523.3803,689.55855 1523.3843,688.37355 1523.3943,686.34555 1524.8193,686.15455 1526.5263,686.44455 1528.0423,686.70255 1529.3563,687.18455 1530.4813,685.50855 1531.2593,684.35155 1530.7483,682.34055 1530.5943,681.06955 1530.3403,678.94855 1530.0273,676.66155 1530.8223,674.61755 1531.1343,673.81755 1531.5483,673.06155 1531.8403,672.25255 1532.2703,671.06455 1531.7973,670.26855 1531.7773,669.09255 1531.7573,667.91655 1532.3923,666.73355 1533.1533,665.85055 1534.0293,664.83455 1535.3353,666.04755 1535.3073,667.14755 1535.8133,666.59155 1537.8263,663.50955 1536.8223,662.54055 1536.2543,661.99055 1537.1713,660.68955 1537.3413,660.13555 1537.6743,659.04455 1536.9403,657.66555 1537.9103,656.77655 1539.4653,655.35155 1540.0863,653.47555 1541.0493,651.55555 1541.4553,650.74355 1541.7053,649.89655 1542.6973,649.84955 1543.1093,649.82955 1545.0563,650.04155 1545.2343,649.55055 1545.7763,648.05555 1545.6503,646.19555 1545.8833,644.62955 1546.0173,643.73855 1546.3803,643.04455 1546.7513,642.22355 1547.4143,640.75255 1547.2503,639.37755 1547.5463,637.84555 1548.1093,634.95255 1549.3253,636.01255 1551.5163,635.98955 1552.3623,635.98055 1552.5373,634.25755 1553.7263,634.94555 1554.6533,635.48155 1555.1663,636.71755 1555.7573,637.55755 1556.6493,635.34155 1557.5303,633.10755 1558.1273,630.78955 1558.4693,631.31755 1558.8553,631.98655 1559.4273,632.30155 1560.0513,632.64455 1560.7563,632.36855 1561.1333,633.12255 1561.8753,634.60455 1562.7833,634.77955 1564.3323,634.49855 1564.9043,634.39455 1565.5063,634.23955 1565.9583,633.84855 1566.2283,633.61455 1566.4623,632.72855 1566.7453,632.64855 1567.2673,632.50055 1568.1153,634.28855 1568.2173,634.67755 1569.6933,632.82555 1572.1823,634.97655 1573.6963,634.57355 1575.7743,634.02055 1577.9083,636.23655 1579.6803,636.98655 1582.0523,637.99055 1582.7413,641.05955 1584.6733,642.60355 1585.8343,643.53155 1587.3613,644.27455 1588.0813,645.64155 1588.7383,646.89155 1589.0483,647.93955 1590.2173,648.83455 1592.1813,650.33955 1593.0303,651.49555 1591.7313,653.77755 1590.1963,656.47455 1588.0963,658.00955 1588.5843,661.30355 1588.8263,662.93955 1588.1843,664.93255 1590.5263,664.77255 1591.8963,664.67855 1593.2553,664.02255 1594.5813,663.68555 1595.6563,663.41255 1596.068,664.35811 1597.072,664.02511 1596.964,665.73611 1594.9913,667.17644 1595.9402,669.16511 1597.0803,671.5542 1598.1225,672.16395 1599.6056,674.29205 1600.099,674.99992 1600.9763,677.35755 1601.5363,678.00755 1602.0973,678.65655 1602.5807,678.45399 1603.2317,678.98399 1604.2327,679.80099 1605.7799,681.53968 1607.0509,681.99668 1612.1559,683.83568 1616.7483,685.75255 1621.8393,687.63055 1624.2513,688.52055 1626.2045,689.57924 1628.7025,690.16824 1631.0185,690.71424 1633.9873,690.33355 1636.3273,690.33355 L 1614.9443,715.71555 C 1613.6363,717.24455 1612.6008,717.38993 1610.7465,717.13986 1607.6995,716.72895 1603.4348,716.5551 1599.4624,720.2078 1598.4114,721.17427 1598.0493,722.37455 1596.5183,722.67855 1595.1083,722.95955 1593.6176,722.91005 1592.3116,723.62505 1590.9006,724.39805 1590.9956,725.7208 1589.1416,725.2958 1587.5876,724.9388 1585.407,726.22042 1584.035,724.70142 1583.453,724.05542 1582.9844,723.05424 1582.0124,722.94024 1581.0754,722.83024 1579.8193,723.51255 1579.0073,723.88455 1577.7323,724.47055 1575.6066,725.59813 1574.793,726.79905 1573.9122,728.09934 1573.2831,729.08175 1572.6773,730.07655 1571.7123,729.14855 1569.5303,729.00655 1568.2723,729.12155 1567.3033,729.20955 1566.62,728.43461 1565.752,728.24961 1564.849,728.05861 1563.84,728.47823 1562.9329,728.39361 1559.2526,728.05035 1562.3546,727.57742 1552.6634,721.74599 1551.0116,720.75203 1548.608,721.88493 1546.5786,721.16768 1545.6385,720.83545 1544.2163,718.98955 1543.7963,718.13955 1543.2103,716.95455 1544.2123,715.38655 1543.8303,714.08555 1543.4863,712.91355 1541.0793,712.20255 1540.2763,713.22855 1539.7873,712.75455 1539.1043,711.34955 1538.7013,710.72355 1537.7693,709.27855 1537.4383,707.33755 1536.8103,705.73655 1536.3383,704.53455 1536.1033,703.17855 1535.4543,702.05155 1535.1553,701.53155 1534.7993,701.34655 1534.2933,701.09255 1533.7323,700.81255 1533.716,700.25561 1533.302,699.88561 1533.044,699.72061 1532.9433,699.57555 1532.6393,699.53855 1531.8463,699.31755 1531.7673,698.46555 1531.3463,697.89255 1530.4053,696.61455 1529.7683,695.05455 1528.5133,694.02955 1527.5943,693.27955 1526.4963,692.76655 1525.3183,692.62355 1524.2233,692.49255 1522.7093,692.48355 1522.1263,691.34155" id="et">
    <title>Ethiopia</title>
  </path>
  <path class="landxx egy" d="M 1455.3863,499.96555 C 1453.9613,497.68455 1456.8963,495.29484 1456.5353,492.95555 1456.1477,490.44427 1453.8596,488.6908 1457.4753,485.70955 1457.5513,487.53955 1459.6843,486.88455 1460.7903,486.55555 1462.8113,485.95455 1464.4673,486.62455 1466.4753,486.82655 1468.6723,487.04655 1470.7803,487.53555 1472.9073,488.10255 1473.8063,488.34255 1473.9493,489.32055 1474.8623,489.60255 1475.6733,489.85255 1476.2903,489.75155 1477.0943,489.66655 1477.6343,489.60855 1477.8843,490.45255 1478.4933,490.57855 1479.1603,490.71655 1479.8413,490.71955 1480.5143,490.78655 1482.6773,491.00055 1484.1213,492.35755 1486.1503,492.69655 1488.1123,493.02455 1489.9883,491.70355 1491.3953,490.50355 1492.1253,489.88155 1492.8053,489.20555 1493.4743,488.51855 1494.0473,488.96555 1494.4793,489.42555 1495.2043,489.31055 1494.7903,489.10255 1494.8803,488.98355 1494.3343,489.02255 1495.0433,488.64655 1495.7513,487.96355 1495.9243,487.15055 1497.1493,487.88255 1498.3013,486.56755 1499.5243,486.57655 1498.7023,486.95455 1497.9133,487.42455 1497.2853,488.08755 1497.5023,487.95955 1502.4643,486.45955 1500.0953,486.28755 1501.8483,485.70755 1502.9863,487.71455 1504.6703,487.47555 1505.4743,487.36155 1506.2323,486.56655 1507.0853,486.86455 1507.8783,487.14055 1508.2523,488.28955 1508.9553,488.73555 1508.2433,488.23755 1507.5143,487.14355 1506.5753,487.08055 1506.8533,487.82655 1505.8253,489.23755 1507.0393,489.52755 1508.3593,489.84255 1507.7413,490.16955 1508.5953,490.96755 1508.5953,490.67355 1510.9503,489.67955 1509.2453,488.87955 1511.0593,489.30155 1511.6623,490.97555 1513.7903,490.78955 1514.4803,490.72955 1516.5173,489.45555 1516.1553,490.96755 1517.4743,490.12955 1518.9543,490.61855 1520.3713,490.19155 1521.6193,489.81655 1522.8684,489.32794 1523.8694,488.45894 L 1529.9489,504.50824 C 1528.4119,506.46324 1528.7553,510.07855 1527.7773,512.39455 1527.2053,513.74855 1527.2293,514.59255 1527.2443,516.02355 1527.2573,517.24755 1525.7013,518.43155 1526.0843,519.62455 1525.3413,518.93755 1524.3473,518.62755 1523.5273,518.05355 1522.4863,517.32455 1521.7583,516.26255 1521.0453,515.23555 1520.1423,513.93355 1517.5013,513.08355 1517.8843,511.12855 1518.2703,509.15855 1516.3703,507.79255 1515.3993,506.40455 1514.0563,504.48755 1513.0983,502.25455 1512.5543,499.96855 1511.6523,500.93755 1510.6923,503.05155 1511.6333,504.15755 1513.2423,506.05255 1513.0753,508.37855 1514.4243,510.33655 1515.5923,512.03255 1516.7763,514.10855 1518.2363,515.55555 1518.8823,516.19555 1519.6193,516.74655 1520.2083,517.44355 1520.5163,517.80855 1521.7853,519.90055 1520.2553,518.75955 1521.4933,519.72555 1520.4693,520.95555 1521.2543,521.75155 1522.3083,522.81955 1522.8683,523.95155 1523.4203,525.29755 1523.6913,525.95955 1524.1383,526.52655 1524.5233,527.12155 1524.8173,527.57655 1524.2333,528.15655 1524.2073,528.60155 1524.1713,529.19655 1525.1433,530.07955 1525.4083,530.59255 1526.0173,531.76655 1526.6813,532.91255 1527.2963,534.08455 1529.3153,537.93455 1531.3533,541.71655 1533.2643,545.62555 1534.0123,547.15455 1535.1113,548.24955 1536.0503,549.62355 1536.9243,550.90255 1538.4563,551.29855 1539.2663,552.59955 1538.5003,552.64055 1537.7273,552.50755 1537.0373,552.16755 1536.5323,554.25655 1536.7761,557.44607 1537.8423,558.67755 1538.8574,559.84993 1536.5144,562.20415 1535.0853,562.27355 1534.3773,562.30795 1534.1084,561.79253 1533.3948,562.58849 1532.8327,563.21549 1532.5363,564.29055 1532.2803,565.09455 1531.9863,566.02355 1531.5493,566.84455 1530.5233,567.08355 1529.6933,567.27655 1528.1997,567.10675 1527.7587,568.05874 1526.9527,569.80174 1527.4445,571.83582 1524.9875,571.64074 1522.125,571.41345 1520.6696,569.09252 1519.1615,569.15568 1514.193,569.36376 1511.3412,569.81686 1507.4463,569.15968 1507.5583,568.76868 1508.0103,567.94168 1507.7313,567.53968 1507.0283,566.52268 1506.4893,568.36668 1506.2563,568.69968 1505.3233,570.03368 1500.6613,569.23168 1499.1673,569.23168 L 1459.0783,569.14498 1457.6493,514.95971 C 1457.4993,512.42671 1457.5613,509.76971 1457.2113,507.26071 1456.9113,505.10271 1456.3573,501.91071 1455.3863,499.96571" id="eg">
    <title>Egypt</title>
  </path>
  <g class="landxx coastxx sau" id="sa" transform="translate(-29.9017,-45.0745)">
    <title>Saudi Arabia</title>
    <path d="M 1619.718,661.32 C 1619.677,660.509 1619.342,659.753 1618.639,659.303 1618.623,659.568 1618.596,659.832 1618.559,660.095 1617.621,660.132 1617.284,659.141 1616.479,658.871 1617.259,660.169 1619.268,660.143 1619.718,661.32" id="path3234"/>
    <path class="landxx sau" d="M 1624.548,662.653 C 1624.645,661.745 1624.091,659.593 1623.274,659.073 1622.858,658.808 1620.843,654.574 1620.959,656.617 1620.772,652.958 1618.236,652.017 1616.218,649.54 1615.454,648.602 1614.376,647.248 1614.018,646.101 1613.555,644.621 1612.72,644.199 1611.962,642.996 1611.518,642.29 1611.896,641.674 1611.384,640.949 1611.019,640.434 1610.409,638.795 1610.168,638.134 1609.942,637.515 1609.805,636.861 1609.515,636.266 1609.248,635.719 1608.691,635.642 1608.423,635.161 1608.167,634.699 1608.413,634.069 1608.064,633.664 1607.705,633.255 1607.119,633.198 1606.73,632.836 1605.753,631.927 1604.622,631.008 1603.759,629.995 1602.712,628.765 1601.485,629.28 1600.304,628.41 1598.345,626.964 1597.042,624.279 1595.811,622.223 1595.094,621.026 1595.3,620.341 1595.24,619.078 1595.174,617.71 1594.184,616.578 1594.082,615.195 1593.948,613.38 1594.699,611.575 1594.338,609.767 1594.173,608.943 1593.723,608.246 1593.281,607.551 1593.049,607.185 1591.642,605.37 1593.23,606.611 1592.881,605.699 1592.088,605.689 1591.882,604.69 1591.697,603.797 1591.259,602.82 1590.91,601.977 1589.944,599.642 1588.059,598.051 1586.292,596.371 1585.003,595.147 1583.726,594.954 1582.154,594.524 1581.484,594.341 1581.164,593.066 1580.967,592.522 1580.545,591.356 1579.729,590.556 1578.998,589.584 1581.528,588.662 1578.004,584.509 1577.178,583.504 1576.621,582.829 1575.058,581.599 1575.125,580.708 1575.242,579.173 1573.265,578.286 1572.6,576.905 1570.584,572.715 1567.402,569.234 1565.168,565.123 1564.487,563.871 1563.727,561.94 1562.226,561.517 1561.544,561.325 1558.862,560.879 1558.809,562.138 1557.912,561.318 1559.362,559.163 1559.614,558.302 1560.142,556.497 1559.72,554.61929 1560.015,552.797 1560.3887,550.48848 1560.029,551.9254 1560.3535,550.54963 1562.0765,551.0622 1566.817,552.33479 1568.536,551.96 1571.951,551.21544 1571.897,546.25 1575.106,545.744 1576.309,545.554 1579.2619,545.85807 1579.133,544.236 1578.8389,540.53658 1580.4483,541.64719 1582.6876,540.89194 1579.765,538.09245 1576.9846,535.17277 1574.3111,532.13794 1579.5036,531.05316 1582.9504,529.88325 1589.0711,526.61336 1591.6638,527.11059 1596.2881,527.39321 1599.1306,528.70914 1608.682,533.13084 1616.549,539.891 1624.84,546.2 1626.596,547.537 1628.305,548.864 1629.944,550.337 1631.811,552.014 1633.1087,551.93027 1635.5687,552.16827 1638.4047,552.44227 1641.393,552.843 1644.23,553.105 1645.271,553.202 1645.785,552.671 1646.915,552.915 1648.442,553.244 1650.026,553.43 1651.581,553.571 1653.229,553.719 1653.359,555.635 1653.885,556.848 1654.664,558.65 1657.289,557.512 1658.779,557.643 1660.32,557.779 1660.521,558.614 1661.025,559.875 1661.57,561.24 1664.28,562.979 1663.859,564.51 1663.72,564.269 1663.55,564.053 1663.348,563.863 1662.887,564.96 1663.993,564.835 1663.859,565.803 1663.878,565.818 1668.491,566.245 1666.729,567.6 1667.405,567.814 1668.84,571.275 1669.529,569.325 1669.069,571.061 1673.235,573.011 1674.199,574.066 1673.685,573.912 1673.302,573.6 1673.049,573.132 1673.073,575.046 1674.233,575.074 1674.645,576.61 1674.886,577.51 1674.79,579.409 1673.48,578.234 1673.599,579.255 1673.269,579.458 1674.197,579.646 1674.34,579.674 1675.556,582.311 1675.64,582.617 1675.37,582.384 1675.107,582.144 1674.849,581.898 1675.646,583.067 1677.069,583.724 1677.699,585.018 1678.338,586.326 1678.532,587.526 1679.3,588.797 1679.89,589.775 1680.743,591.451 1681.965,591.751 1682.524,591.888 1684.552,591.358 1684.26,592.461 1684.474,591.901 1684.959,591.696 1685.481,592.029 1684.798,592.863 1684.1808,595.13714 1686.4878,594.54814 1686.3358,594.58714 1687.668,597.18459 1687.796,597.36759 1690.4559,600.38582 1694.0439,605.69524 1695.4539,606.26755 1704.2175,607.24656 1708.2698,607.72271 1713.0378,608.78434 1713.6593,608.63552 1714.2039,608.26213 1714.4029,607.85982 1715.467,610.31957 1717.884,611.60687 1718.2902,613.20382 1718.6572,614.64673 1718.5549,615.60485 1718.1767,617.08865 1716.9105,622.05712 1716.2131,631.00532 1714.378,631.99405 1701.8839,638.72558 1686.2472,641.0812 1671.399,643.541 1669.473,644.223 1667.6204,645.09378 1665.8625,646.11109 1663.2191,647.64081 1660.6488,652.23604 1659.7912,654.97914 1659.3949,656.2468 1657.9032,657.63486 1656.5082,657.64086 1655.0502,657.64686 1654.7807,655.27666 1653.5925,654.87681 1652.2423,654.42243 1651.2454,655.11243 1650.0813,654.96991 1648.2762,654.74896 1645.8635,655.03261 1644.241,654.19778 1642.292,653.19492 1640.8559,653.65516 1638.6969,653.65942 1636.8059,653.66342 1634.8091,654.8209 1632.9264,654.79696 1630.5887,654.76726 1630.247,652.9881 1629.0304,653.30796 1627.3999,653.73664 1626.9674,655.87715 1626.8766,657.23023 1626.7866,658.5654 1628.4577,659.34174 1627.0426,660.30623 1626.7712,660.49125 1626.4881,662.38268 1624.4535,663.0555 1624.4405,662.8765 1624.558,662.82796 1624.5475,662.65296" id="path3380"/>
    <path d="M 1617.268,657.504 C 1617.799,657.636 1617.918,657.804 1617.628,658.008 1617.508,657.84 1617.388,657.672 1617.268,657.504" id="path5480"/>
    <path d="M 1617.628,658.008 C 1617.847,658.318 1617.893,658.654 1617.768,659.016 1617.504,658.943 1617.265,658.823 1617.048,658.657 1617.241,658.44 1617.435,658.224 1617.628,658.008" id="path5482"/>
    </g>
  <path class="landxx dji" d="M 1588.6573,664.12555 C 1588.6573,661.80455 1587.7573,659.49755 1589.1643,657.39955 1590.2233,655.82155 1591.1933,654.38955 1592.1113,652.73255 1593.1833,650.79755 1593.7233,651.83355 1595.2573,652.24555 1596.0353,652.45355 1595.9933,651.23455 1596.2983,650.83155 1596.7713,650.20755 1597.5883,649.96055 1598.2373,649.58255 1598.9063,651.05055 1601.7123,653.78655 1600.3603,655.50155 1599.6673,656.38155 1597.5023,657.38555 1596.4673,657.79355 1595.4053,658.21255 1595.2683,659.46855 1594.0563,659.66355 1594.8513,660.68755 1597.2243,659.00055 1598.3763,659.44655 1600.4593,660.25355 1598.3863,662.29155 1597.8273,663.43655 1596.9893,665.16455 1595.6573,663.36255 1594.3563,663.70455 1593.0263,664.05355 1589.5443,665.79255 1588.6573,664.12555" id="dj">
    <title>Djibouti</title>
  </path>
  <g class="world_map-is_selected landxx coastxx eri" id="er" transform="translate(-29.9017,-45.0745)">
    <title>Eritrea</title>
    <path d="M 1603.518,667.368 C 1603.573,667.933 1604.155,669.632 1603.149,668.807 1603.584,670.081 1605.791,669.964 1606.829,669.887 1606.316,668.786 1604.875,669.852 1604.501,668.718 1604.354,668.278 1604.34,666.869 1603.518,667.368" id="path6816"/>
    <path class="world_map-is_selected landxx eri" d="M 1576.878,673.56 C 1578.084,672.479 1578.015,670.783 1578.449,669.349 1578.92,667.793 1579.573,666.28 1580.131,664.752 1580.643,663.347 1579.193,657.516 1581.439,657.203 1581.887,657.14 1583.561,657.479 1583.83,657.03 1584.558,655.815 1584.001,654.882 1585.44,654.426 1586.6,654.059 1587.939,653.148 1589.15,652.67 1590.936,651.964 1590.998,650.128 1592.279,648.938 1594.518,653.405 1596.162,657.703 1597.256,662.58 1597.517,663.743 1597.5,664.893 1598.03,665.99 1598.604,667.176 1599.149,668.117 1599.384,669.42 1599.544,670.308 1600.662,670.383 1600.905,671.326 1601.13,672.196 1601.311,673.687 1602.079,674.282 1603.038,673.601 1601.467,671.016 1602.469,670.851 1603.45,670.689 1604.033,671.921 1604.099,672.651 1604.175,673.506 1604.786,674.964 1605.606,675.343 1606.765,675.879 1607.496,674.306 1608.68,675.626 1609.661,676.717 1609.775,677.525 1611.356,677.742 1613.18,677.993 1613.873,679.392 1614.844,680.84 1615.782,682.236 1616.598,683.656 1618.06,684.577 1618.75,685.012 1619.36,685.546 1619.94,686.116 1620.231,686.402 1621.643,688.339 1620.94,686.593 1621.905,687.21 1621.901,688.575 1622.205,689.541 1622.471,690.383 1623.406,690.153 1623.95,690.723 1624.476,691.274 1626.563,695.169 1627.349,693.217 1628.1355,693.955 1628.5194,694.29543 1628.0732,694.83733 1626.9229,695.37923 1625.9996,696.12259 1625.9801,696.76519 1625.9131,698.98857 1624.162,695.80625 1622.1846,697.37131 1622.4259,696.80144 1621.8501,695.0339 1619.6951,693.55835 1617.7998,690.70126 1616.5772,688.71946 1615.4194,688.40969 1613.3571,687.8579 1612.696,685.31735 1611.4613,683.61512 1610.1241,681.77155 1608.1267,681.68211 1606.4275,680.37275 1604.8369,679.14707 1603.8919,680.16562 1602.4187,679.7255 1601.2647,679.38074 1599.2625,678.29864 1598.119,679.753 1598.093,678.85733 1596.294,677.07577 1596.6857,677.69687 1596.8717,677.9917 1595.4017,679.6014 1594.3241,679.66413 1593.6205,679.70503 1592.1145,679.91467 1591.38,678.81 1590.0367,676.78979 1589.5982,678.4423 1588.028,675.865 1587.431,678.182 1586.549,680.417 1585.658,682.633 1585.177,681.947 1583.9211,679.3855 1582.7451,680.0185 1582.0091,680.4155 1582.0984,681.1534 1581.0621,681.07425 1578.2076,680.85623 1578.2636,680.73599 1577.5164,682.52675 1576.984,679.97949 1576.836,676.09994 1576.8329,673.74025" id="path6830"/>
  </g>
  </svg>