<svg xmlns="http://www.w3.org/2000/svg" class="world_map zoom3 zoom2" height="127" id="svg2985" version="1.1" viewBox="1083 465 185 168" width="127">
  <title>World Map</title>
  <defs id="defs2987"/>
  <style id="style_css_sheet" type="text/css">
/*
 * Below are Cascading Style Sheet (CSS) definitions in use in this file,
 * which allow easily changing how countries are displayed.
 *
 */
/* --- Custom styles for Peace Corps --- */
.world_map .world_map-is_selected {
  fill: #C94112 !important;
}
.world_map .landxx {
  fill: #F2EFE8;
  stroke: #ffffff;
  fill-rule: evenodd;
}
.world_map.zoom6 .landxx {
  stroke-width: 0.1px;
}
.world_map.zoom5 .landxx {
  stroke-width: 1px;
}
.world_map.zoom4 .landxx {
  stroke-width: 2px;
}
.world_map.zoom3 .landxx {
  stroke-width: 3px;
}
.world_map.zoom2 .landxx {
  stroke-width: 4px;
}
.world_map.zoom1 .landxx {
  stroke-width: 5px;
}
.world_map .coastxx {
  fill: #F2EFE8;
  stroke: #ffffff;
  stroke-width: 2px;
  fill-rule: evenodd;
}
.world_map .oceanxx {
  opacity: 1;
  color: #ccc;
  fill: #ffffff;
  stroke: #ffffff;
  stroke-width: 0.5;
  stroke-miterlimit: 1;
}

/* --- Original Styles --- *
/*
 * Circles around small countries
 *
 * Change opacity to 1 to display all circles.
 *
 */
.circlexx
{
   opacity:0;
   fill:#e0e0e0;
   stroke:#000000;
   stroke-width:0.5;
}

/*
 * Smaller circles around French DOMs and Chinese SARs
 *
 * Change opacity to 1 to display all subnational circles.
 *
 */
.subxx
{
   opacity:0;
   stroke-width:0.3;
}

/*
 * Circles around small, unrecognized countries
 *
 * Change opacity to 1 to display all circles.
 *
 */
.unxx
{
   opacity:0;
   fill:#e0e0e0;
   stroke:#000000;
   stroke-width:0.3;
}

/*
 * Circles around small countries, but with no permanent residents 
 *
 * Change opacity to 1 to display all circles.
 *
 */
.noxx
{
   opacity:0;
   fill:#e0e0e0;
   stroke:#000000;
   stroke-width:0.5;
}

/*
 * land
 */
.landxx
{
}
/*
 * Styles for coastlines of islands with no borders
 */


/*
 * Styles for nations with limited recognition
 */
.limitxx
{
   fill: #e0e0e0;
   stroke:#ffffff;
   stroke-width:0;
   fill-rule:evenodd;
}

/*
 * Styles for nations with no permanent population.
 */
.antxx
{
   fill: #e0e0e0;
   stroke:#ffffff;
   stroke-width:0;
   fill-rule:evenodd;
}

/*
 * Ocean
 */


/*
 * Additional style rules
 *
 * The following are examples of colouring countries.  You can substitute these with your own styles to colour the countries on the map.
 *
 * Color a few countries:
 *
 * .gb, .au, .nc
 * {
 *    fill:       #ff0000;
 * }
 *
 * Color a few small country circles (and the countries):
 *
 * .ms, .ky
 * {
 *    opacity:    1;
 *    fill:       #ff0000;
 * }
 *
 */

</style>
  <path class="oceanxx" d="M 2079.5058,1457.5605 615.24779,1457.5605 C 615.13079,1457.5605 615.07079,1457.5505 614.95179,1457.5215 611.67679,1456.6515 608.40179,1455.7815 605.12779,1454.9105 599.15079,1453.3225 593.22879,1451.5225 587.30779,1449.7385 564.39379,1442.8315 541.76579,1434.6995 519.46979,1426.0115 495.81079,1416.7935 472.34979,1407.0946 449.19179,1396.6816 426.78379,1386.6056 405.17679,1375.0536 383.76379,1363.0356 363.11779,1351.4496 343.01079,1338.8296 323.37979,1325.5996 302.29179,1311.3876 281.47879,1296.8506 261.05379,1281.7006 242.35079,1267.8276 223.73679,1253.6306 206.05279,1238.4686 186.98679,1222.1216 167.82379,1205.7706 150.35279,1187.6906 132.97779,1169.7106 116.33279,1151.0606 100.15679,1131.9976 84.352777,1113.3736 70.086776,1093.4716 56.901786,1072.9246 44.046786,1052.8916 32.093776,1032.1356 22.469776,1010.3426 17.516776,999.12753 12.408776,987.76556 8.7017761,976.06056 5.0657761,964.58166 1.5997761,953.04259 -1.5932239,941.43054 -8.0102239,918.09356 -14.055224,894.78356 -18.234224,870.92056 -22.491222,846.60856 -24.894222,822.19856 -26.943222,797.62156 -28.947222,773.58556 -28.829222,749.40156 -27.225222,725.34856 -25.648222,701.69856 -23.363222,677.92456 -19.274222,654.56456 -15.018224,630.25156 -9.3842239,606.45156 -2.8412239,582.66156 3.5687761,559.35256 10.483776,536.34856 20.265776,514.19856 30.320776,491.42956 42.318786,469.90956 55.502786,448.81656 68.512776,428.00356 83.108777,408.26756 98.686787,389.31756 113.73479,371.01156 129.68979,353.25256 146.15179,336.20856 163.77479,317.96256 182.64579,301.14556 201.89579,284.64756 220.33379,268.84456 239.55379,253.98456 258.95979,239.39656 278.42779,224.76056 298.39379,210.83356 318.55579,197.17556 339.26979,183.14456 360.47879,169.92056 382.15079,157.42556 403.46579,145.13656 425.31479,133.98856 447.60479,123.59356 469.58579,113.34356 492.14979,104.17656 514.74579,95.37556 537.44879,86.532565 560.37879,78.195565 583.63479,70.914565 589.69379,69.017565 595.80079,67.276565 601.90879,65.549565 604.63079,64.779565 607.36079,64.045565 610.09479,63.318565 611.59979,62.918565 613.56579,61.986565 615.13379,61.986565 L 2079.9638,61.986565 C 2079.9798,61.986565 2079.9958,61.986565 2080.0118,61.986565 2079.8448,61.986565 2079.6788,61.986565 2079.5118,61.986565 2102.8268,68.191565 2125.8778,75.323565 2148.5448,83.611565 2171.6378,92.054565 2194.6158,100.87956 2217.2348,110.52956 2240.5208,120.46556 2263.4848,130.95256 2285.8828,142.76456 2306.9808,153.89056 2327.8178,165.78556 2347.8608,178.72156 2368.9418,192.32656 2389.7498,206.29256 2410.2218,220.80056 2429.7368,234.62956 2448.9938,248.98756 2467.6208,263.99256 2486.8818,279.50856 2506.0408,295.30556 2524.0538,312.27356 2541.8708,329.05756 2558.7508,346.67256 2574.9408,365.03656 2591.2478,383.53256 2607.1478,402.30656 2621.4508,422.41856 2635.3488,441.96256 2648.4468,462.42756 2659.5898,483.67756 2671.1238,505.67356 2681.1048,528.35656 2688.6188,552.05056 2692.2518,563.50656 2695.3368,575.14756 2698.5608,586.72256 2701.7738,598.25356 2704.9238,609.81956 2707.4578,621.52456 2712.6258,645.40556 2716.6718,669.47856 2719.1178,693.79656 2721.5718,718.19256 2723.1798,742.56356 2722.9808,767.09056 2722.7908,790.65456 2720.6908,814.43756 2717.7688,837.81156 2714.7368,862.07056 2710.5198,886.16156 2704.6398,909.90056 2701.6808,921.84356 2698.3948,933.69556 2695.0378,945.53154 2691.7468,957.13466 2688.5558,968.83466 2684.3988,980.16156 2676.0918,1002.8036 2666.1688,1024.8836 2654.1338,1045.8046 2641.9958,1066.9066 2628.8498,1087.4866 2614.2378,1106.9696 2599.1658,1127.0666 2582.6678,1145.9446 2565.8948,1164.6296 2549.8298,1182.5266 2532.8918,1199.7316 2514.8648,1215.6616 2496.0788,1232.2646 2476.8978,1248.3126 2457.1558,1263.7656 2438.2988,1278.5276 2418.9668,1292.7306 2399.3188,1306.4206 2378.7018,1320.7866 2357.7538,1334.6106 2336.4758,1347.9776 2326.4088,1354.3016 2316.0058,1360.1326 2305.6418,1365.9516 2295.0348,1371.9086 2284.3858,1378.0166 2273.4448,1383.3436 2250.7338,1394.3986 2227.7768,1404.7266 2204.3888,1414.2665 2181.7848,1423.4875 2159.0678,1432.2695 2136.0228,1440.3345 2117.4118,1446.8465 2098.5568,1452.4975 2079.5058,1457.5605" id="ocean"/>
  <path class="landxx bfa" d="M 1228.8763,669.23755 C 1229.4103,667.85455 1229.8914,666.25336 1229.5714,664.77436 1229.2214,663.15736 1230.1951,664.12296 1230.8121,662.91096 1231.1931,662.16096 1232.0352,659.87926 1231.1498,659.1943 1230.554,658.73335 1231.738,657.69213 1229.9573,657.21455 1230.7903,657.25655 1231.312,656.60555 1231.945,656.21755 1232.979,655.58555 1234.4589,656.10429 1235.5261,655.45255 1236.8311,654.65555 1238.4076,651.56095 1237.2553,650.20055 1236.706,649.55201 1237.5062,649.11907 1238.2243,649.20255 1239.315,649.32935 1239.2273,648.34255 1239.0653,647.48255 1238.9583,646.92055 1237.8463,646.08555 1238.8133,645.74855 1239.5573,645.48855 1240.5813,643.38555 1241.0463,642.74155 1240.9863,644.00755 1243.9723,645.51955 1245.0063,645.62255 1244.7623,644.42155 1245.5423,644.58055 1246.5163,644.61455 1246.3853,643.51655 1246.9333,642.02355 1246.3663,641.01355 1247.1773,641.16855 1248.0183,641.22555 1248.7463,641.66155 1249.8383,640.02355 1249.7053,636.42755 1252.5403,636.13455 1253.9373,635.99055 1255.6686,638.20561 1255.9436,635.72961 1256.0906,634.40161 1257.5573,634.57255 1258.4663,634.10055 1259.6443,633.48955 1260.5472,632.59777 1261.7753,632.01455 1263.249,631.31472 1265.9403,627.68455 1267.9993,629.54155 1268.39,629.8939 1269.3453,629.07455 1269.9753,629.26555 1270.8383,629.52655 1271.7065,629.82631 1272.5183,630.21755 1273.7645,630.81816 1271.4716,633.99044 1273.3823,635.03055 1274.5625,635.67302 1273.636,637.6749 1274.5213,638.56555 1275.0213,639.06855 1276.0337,640.11409 1275.8659,640.77809 1276.8052,641.15136 1279.2739,642.81141 1280.8563,644.03755 1280.1423,644.38655 1279.5003,644.36855 1278.8463,643.89255 1277.8716,646.38055 1281.1483,649.26655 1283.1263,650.20755 1284.7152,650.96346 1285.6089,649.06961 1286.7399,649.39861 1287.6699,649.66861 1287.8493,651.13955 1288.2063,651.88455 1285.6765,652.7547 1287.7883,654.20363 1288.7202,655.94355 1289.7132,657.79749 1287.3153,660.48755 1285.4983,660.60555 1285.0493,660.63455 1283.3033,661.13955 1282.9783,660.87955 1282.0833,660.16555 1281.8843,660.52955 1281.1403,661.19955 1279.6713,662.52155 1278.8382,664.25836 1276.9543,664.52755 1274.0522,664.94224 1273.5357,664.02316 1271.8222,663.70368 1271.0019,663.55072 1270.2251,663.27764 1269.3704,663.26649 1268.613,663.25649 1266.6505,665.20901 1266.0903,664.96455 1264.734,664.37263 1267.722,664.32043 1257.5181,664.35336 1254.1312,664.36426 1252.1229,664.59394 1249.3953,664.34056 1249.7283,665.90134 1248.2266,666.70625 1248.6504,667.65306 1249.226,668.93898 1249.5093,669.95844 1249.7384,671.30197 1249.9332,672.44393 1250.0438,673.86955 1249.9083,675.15356 1249.7895,676.2792 1250.6663,677.63456 1249.8943,678.23656 1248.6343,677.29656 1247.4373,675.03856 1246.5843,673.70156 1245.8633,674.77456 1242.9583,673.48956 1241.8343,673.91756 1240.6053,674.38556 1238.0323,674.76256 1238.0143,676.50956 1237.2383,676.37656 1234.5156,675.23645 1234.0391,674.6464 1233.5942,674.09554 1233.126,673.8148 1233.0413,673.37156 1232.8774,672.51372 1232.0833,670.87156 1231.4633,670.53356 1230.4193,669.96441 1229.2573,670.79656 1228.8763,669.23756" id="bf">
    <title>Burkina Faso</title>
  </path>
  <path class="landxx dza" d="M 1208.8563,523.43755 1209.3663,512.56555 C 1208.8952,509.64211 1213.3773,508.67755 1214.9913,507.20755 1215.7915,506.47876 1217.0995,504.98963 1218.3312,505.06637 1219.4027,505.13317 1219.6506,503.5187 1221.0593,503.24555 1223.3526,502.80087 1224.5286,505.02464 1225.9076,501.98564 1226.3356,501.04464 1227.7643,501.43864 1228.5853,501.33064 1230.0633,501.13464 1231.5523,500.93355 1232.9473,500.41755 1235.7493,499.38155 1235.8651,496.37237 1238.2541,495.11037 1239.2391,494.58937 1240.5283,494.53155 1241.5673,494.14755 1242.8463,493.67355 1243.6863,492.23955 1245.0053,491.97455 1245.4883,491.87755 1248.0874,491.66637 1247.0244,490.29637 1246.3374,489.41137 1245.2453,489.08855 1246.6553,487.79955 1244.6383,487.24555 1246.4593,485.13155 1247.9393,485.25555 1249.8973,485.41955 1251.7033,484.72155 1252.3973,482.88855 1253.7273,479.37755 1262.7903,482.48755 1265.3753,481.82355 1262.4113,480.48579 1267.5402,478.85219 1265.9293,477.61055 1265.1686,477.02419 1264.3173,476.50655 1263.6993,475.75655 1262.9833,474.88955 1263.3563,473.64655 1262.6533,472.58455 1261.9183,471.47455 1262.3257,470.56109 1262.5377,469.45609 1262.7367,468.42009 1261.9373,468.40755 1262.0493,467.40255 1262.1543,466.46355 1262.1403,465.33237 1262.1519,464.39737 1262.1689,463.14237 1261.3323,462.13455 1262.5763,461.16055 1261.2833,460.63255 1261.8064,459.91182 1261.6194,458.94482 1261.3704,457.65682 1259.1367,457.23882 1258.6477,455.91382 1261.0427,455.90782 1262.0663,455.32655 1264.1013,454.28655 1264.9873,453.83355 1265.5453,453.83255 1266.0803,452.89855 1266.5533,452.07155 1266.9103,451.37755 1267.7893,450.90755 1268.2853,450.64155 1269.2463,449.86955 1269.7703,450.28355 1270.4503,450.82055 1271.3083,449.88755 1271.7603,449.47355 1272.9343,448.40055 1274.5463,451.10155 1275.7463,448.63355 1277.3553,445.32655 1282.9003,443.89555 1286.1483,443.52155 1288.4603,443.25555 1290.7963,442.61955 1293.1263,442.77655 1294.8643,442.89355 1296.0613,440.67755 1297.5693,441.53055 1298.2253,441.90155 1298.0763,441.69355 1298.3263,441.28055 1298.3813,441.19055 1300.9873,441.22855 1301.3753,441.07455 1303.6273,440.18155 1305.9013,440.51855 1308.2693,440.45255 1310.2423,440.39755 1310.7113,440.80655 1312.2133,441.93955 1314.1323,443.38655 1314.7983,441.24655 1316.4623,441.04255 1316.9973,440.97755 1320.3173,440.83355 1320.1353,439.85055 1319.8073,438.08055 1322.2243,439.17055 1322.7993,439.55655 1324.0003,440.36155 1325.8073,440.76855 1327.0383,439.78455 1327.7143,439.24355 1327.2733,438.53955 1328.5603,438.86055 1329.4743,439.08855 1330.1913,439.76055 1331.1853,439.70755 1330.3433,441.09855 1332.4313,440.61155 1333.0913,440.43955 1334.4083,440.09655 1335.8313,440.41755 1337.0953,439.99455 1337.1903,441.78855 1334.9163,442.66755 1333.9253,443.81055 1336.6243,444.39255 1334.0353,448.18755 1334.5803,449.92655 1335.5273,452.94755 1335.1323,455.23055 1334.4953,458.21055 1333.9713,460.66255 1331.2423,462.57255 1329.4193,464.18155 1328.3563,465.11955 1328.8733,467.56955 1329.4943,468.60855 1330.4983,470.28955 1330.0413,472.12155 1332.1103,472.90755 1334.9353,473.97955 1334.1063,477.55855 1336.3833,479.26255 1337.4393,480.05355 1338.6853,480.62555 1339.5793,481.61855 1340.7873,482.96155 1340.9643,485.16255 1341.2453,486.86655 1341.8253,490.38655 1343.4953,494.29755 1343.4953,497.84655 1343.4953,498.80455 1341.4813,498.43809 1342.7803,500.17009 1344.0373,501.84909 1345.0779,503.8229 1345.4933,505.88855 1346.9232,512.99892 1344.8215,512.95496 1345.8933,516.60055 1346.4047,518.33994 1346.4318,519.61146 1345.7558,521.30446 1344.9927,523.21545 1345.6888,525.00182 1346.1035,526.90882 1346.7295,529.79182 1345.4473,529.83764 1343.3983,531.38564 1341.0633,533.15164 1344.9453,536.58155 1345.9583,538.13955 1347.8523,541.05155 1346.7133,544.50855 1349.2323,547.22755 1350.1993,548.27155 1351.3113,547.01955 1352.3433,547.09755 1353.6493,547.19655 1355.0663,548.18155 1356.2923,548.62655 1359.0903,549.64255 1360.0303,551.99055 1361.0623,554.64855 1361.5523,555.90755 1362.0463,556.05955 1360.6823,556.83355 1346.4891,565.88635 1332.1714,574.94385 1320.0763,586.71855 1319.3806,587.73138 1317.1303,590.26255 1315.3823,591.22855 1314.0559,591.96158 1312.1043,592.02855 1310.6423,592.33155 1308.6553,592.74255 1306.6633,593.13255 1304.6783,593.55355 1303.6823,593.76455 1294.9543,596.76355 1295.3293,593.67455 1295.4613,592.58555 1296.2393,592.16355 1296.1323,590.95755 1296.0913,590.49455 1296.2303,588.06264 1295.7481,587.82164 1294.2811,587.08764 1292.4489,586.75173 1290.8299,586.44073 1290.0319,586.28673 1288.9599,584.25714 1288.3505,584.40673 1284.8532,585.26519 1284.3029,581.77993 1283.6743,581.25855 1282.9316,580.64256 1281.6503,580.58655 1280.9703,580.06955 1280.2053,579.48855 1280.8639,578.04546 1280.4039,577.26546 1279.8259,576.28446 1278.8223,575.43055 1277.8813,574.87355 1276.2693,573.91955 1274.7593,572.78655 1273.2823,571.63955 1269.6123,568.79055 1266.0063,565.85655 1262.3533,562.98555 1248.2653,551.90955 1234.1963,540.87455 1219.4563,530.66955 1215.9393,528.22955 1212.4043,525.82455 1208.8563,523.43755" id="dz">
    <title>Algeria</title>
  </path>
  <path class="landxx mli" d="M 1178.5463,631.79755 C 1179.8973,631.47255 1180.5003,632.20355 1181.5993,630.79455 1182.5263,629.60555 1182.1103,627.04555 1182.5633,625.56355 1183.5913,622.17855 1188.2933,627.78655 1188.7763,628.84555 1189.6743,626.38355 1191.1693,625.03455 1194.0003,626.18355 1195.8613,626.93855 1199.8063,626.80455 1200.2163,624.23655 1201.2763,626.80455 1206.5013,625.65655 1208.5463,625.50055 1213.5483,625.11855 1218.6803,625.38955 1223.6953,625.38955 1225.4613,625.38955 1227.6374,625.18382 1229.3838,625.36215 1230.6668,625.49318 1230.2948,623.36008 1230.4193,622.26353 1230.5603,621.02183 1231.7691,618.63 1230.4713,617.80553 1228.2296,616.38135 1228.8296,615.12309 1228.8443,613.31353 L 1223.6153,543.23753 1236.8626,543.24453 C 1250.5584,553.50818 1263.4102,563.72688 1276.3665,573.90557 1277.9234,575.03139 1280.8498,576.15875 1280.6323,578.50263 1280.5643,579.23622 1280.4606,579.88986 1281.7742,580.41686 1282.4129,580.67308 1283.1226,580.85209 1283.6646,581.21409 1284.5696,581.81809 1284.4206,582.90409 1285.1436,583.62709 1285.8316,584.31509 1286.5499,584.40946 1287.4373,584.56295 1288.0818,584.67442 1287.6054,583.97027 1288.7594,584.54365 1289.587,584.95491 1289.9463,586.05092 1290.8923,586.34892 1292.3663,586.81492 1294.3411,586.9387 1295.7061,587.7457 1296.7021,588.3347 1296.4128,591.10306 1295.9888,592.06706 1295.3988,593.40806 1294.5388,594.68019 1296.6728,594.98519 1298.9298,595.30919 1301.4862,594.10733 1303.7162,593.83033 1303.4264,599.97333 1304.3028,606.49782 1303.5068,612.58246 1303.4148,613.28151 1303.631,613.75792 1303.1053,617.08792 1302.9335,618.17644 1303.3182,616.78808 1301.7928,619.98892 1301.3242,620.97202 1301.3513,622.16092 1300.9243,623.17492 1300.5123,624.15192 1299.5603,624.44992 1298.7813,625.05192 1297.8233,625.79092 1298.4763,626.76492 1297.1623,626.54092 1296.8623,626.48992 1294.2403,625.78992 1294.1203,626.24392 1293.8053,627.43192 1285.6115,627.03024 1284.3695,627.12924 1281.3285,627.37124 1281.3913,626.99792 1279.2393,629.35092 1278.5643,630.08992 1277.2363,630.35192 1276.2893,630.14292 1275.7413,630.04292 1274.4873,630.03078 1273.9313,630.04482 1272.9413,630.02582 1273.0053,629.26496 1273.0053,630.50396 1272.2873,630.23296 1271.6019,629.88887 1270.8933,629.59196 1269.189,628.87783 1268.7799,630.07489 1268.1338,629.59796 1267.505,629.13363 1266.4288,628.5253 1265.0153,629.7851 1263.5425,631.09778 1261.4052,632.19329 1260.564,632.75677 1259.1505,633.70348 1258.1129,634.44913 1256.6673,634.8131 1255.479,635.11229 1256.4463,637.6291 1254.6863,636.8581 1253.6033,636.3841 1252.6158,635.72583 1251.4678,636.52083 1250.4918,637.19783 1249.9643,638.4421 1249.6073,639.5111 1249.4033,640.1221 1249.1267,641.1026 1248.8397,641.6816 1248.5907,641.51044 1246.9973,641.12161 1246.3653,641.0171 1246.9313,642.0271 1246.3843,643.5201 1246.5153,644.6181 1245.5413,644.5841 1244.7613,644.4251 1245.0053,645.6261 1243.9713,645.5231 1240.9853,644.0111 1241.0453,642.7451 1239.1497,647.2856 1237.7443,645.14461 1238.7023,646.7631 1239.2324,647.6586 1239.2524,648.33731 1239.0389,649.10937 1238.9519,649.42445 1236.6752,649.02517 1237.2282,649.97901 1238.2474,651.7373 1237.7975,653.63036 1235.8237,655.29735 1234.9056,656.07273 1233.8113,655.7581 1232.7003,655.9601 1231.6623,656.1481 1231.0803,657.2751 1229.9553,657.2191 1231.9533,657.72084 1230.5053,658.76258 1231.1116,659.11497 1232.1402,659.7129 1231.2631,662.35853 1230.6954,663.30385 1230.5081,663.61585 1229.4368,663.74684 1229.5013,664.0471 1229.8267,665.5611 1230.0235,667.4321 1228.9803,668.7951 1228.5615,669.34234 1227.3393,669.3221 1226.7483,669.4861 1225.5113,669.8301 1226.1523,671.4731 1224.5893,671.3301 1222.8573,671.1711 1223.9943,667.7181 1223.4053,666.6501 1222.7323,666.9281 1222.6053,668.1311 1221.9653,668.3061 1221.2983,668.4881 1220.7923,667.5691 1220.3053,667.2981 1220.2663,668.1161 1220.7043,670.1681 1219.4673,670.1501 1218.5413,670.1351 1217.2403,670.2071 1218.0063,671.4741 1216.8723,671.9761 1214.0333,670.5751 1214.1863,669.1701 1213.6033,669.4291 1212.6603,669.1301 1212.2163,669.6641 1211.5203,670.5021 1211.6113,671.5001 1210.2263,671.6181 1211.2483,669.7151 1207.8733,669.4341 1207.8653,667.8151 1207.8653,666.7801 1208.1253,665.5721 1207.8823,664.5651 1207.5353,663.1291 1205.6293,664.8081 1204.9663,664.7771 1205.2193,663.8551 1205.9523,661.4201 1207.3463,661.8971 1207.8503,660.5081 1204.9923,659.9951 1204.8263,658.6571 1203.9183,659.1731 1204.0003,658.1521 1204.0833,657.5711 1204.2693,656.2591 1203.7423,655.7541 1203.1873,654.6551 1202.7503,653.7891 1203.3003,652.5621 1202.2833,652.0551 1201.8873,651.8571 1200.5053,651.0911 1200.0953,651.4771 1199.6443,651.9011 1201.0973,652.9681 1200.1203,653.4291 1199.0133,653.9511 1198.1413,654.8371 1197.0233,655.3951 1196.2483,655.7821 1195.3803,654.6671 1194.7463,654.4081 1193.3763,653.8491 1192.3203,653.9491 1191.3493,655.1061 1188.9083,658.0161 1190.2473,654.5501 1188.1273,653.8331 1186.7503,653.3681 1185.2953,657.7711 1183.9453,654.3741 1183.5133,653.2881 1185.3083,652.2941 1184.4393,651.0681 1183.9393,650.3621 1184.3313,648.6791 1184.6023,647.9401 1184.9213,647.0681 1182.2663,642.0991 1181.7173,644.2571 1181.0933,644.0801 1180.1003,642.1471 1179.8253,641.5601 1179.5783,641.0321 1180.3763,639.9741 1180.3463,638.9291 1180.3023,637.3591 1180.4813,636.6911 1179.3703,635.4561 1178.9843,635.0271 1178.5803,634.5151 1178.8373,633.8971 1179.2753,632.8381 1178.9703,632.8391 1178.5463,631.7981" id="ml">
    <title>Mali</title>
  </path>
  <g class="landxx coastxx eu prt" id="pt" transform="translate(-29.9017,-45.0745)">
    <title>Portugal</title>
    <path d="M 1180.868,522.216 C 1180.141,522.07 1179.563,521.696 1179.045,521.179 1178.634,520.769 1179.401,520.147 1179.829,520.598 1180.387,521.187 1181.19,520.24 1181.834,520.963 1182.541,521.759 1181.687,522.413 1180.868,522.216" id="path3628"/>
  </g>
  <g class="landxx coastxx mrt" id="mr" transform="translate(-29.9017,-45.0745)">
    <title>Mauritania</title>
    <path d="M 1178.278,635.04 C 1178.786,634.399 1178.887,633.593 1178.928,632.808 1178.347,633.361 1177.851,634.229 1178.278,635.04" id="path3878"/>
    <path class="landxx mrt" d="M 1174.038,624.96 C 1173.834,623.583 1173.952,622.63231 1174.5022,621.30676 1174.656,620.93615 1175.1676,620.04229 1176.1362,619.992 L 1204.0196,619.9601 C 1205.4377,619.21303 1204.4635,613.05083 1204.369,610.67896 1204.196,608.29496 1203.955,606.74211 1205.8662,604.93332 1207.4667,603.41858 1207.4139,603.80466 1212.4988,601.7256 L 1213.6158,579.89333 1238.4949,579.60169 1238.8293,568.53078 C 1248.3013,574.90378 1257.5966,581.46796 1266.7336,588.31296 1262.3396,588.31296 1257.911,588.31296 1253.518,588.31296 L 1258.9415,661.22389 C 1259.3879,662.41642 1260.6158,662.93046 1260.725,663.20909 1261.4513,665.06351 1260.4953,665.62417 1260.4268,667.05312 1260.3468,668.72762 1260.1813,670.2358 1259.6934,670.41556 L 1243.8056,670.43456 C 1234.7811,670.74684 1230.9156,671.98294 1230.118,669.31396 1229.733,671.72996 1226.1541,672.12498 1224.389,671.42396 1221.6014,670.31683 1219.8215,670.78351 1218.679,673.92196 1218.0302,672.85057 1217.0856,671.93694 1216.118,671.00396 1214.9715,669.89845 1213.8663,669.30557 1213.2574,669.64318 1210.9685,670.91226 1214.1631,677.29354 1208.5413,676.89057 1208.5703,676.99271 1207.0251,675.79755 1206.6158,675.01503 1206.1101,674.04807 1205.5263,674.35618 1204.556,673.52796 1203.505,672.63085 1203.5789,671.16703 1202.7168,670.59395 1200.4084,669.05944 1201.3234,669.04029 1201.109,667.99971 1200.8449,666.71833 1199.5407,665.08635 1198.888,665.07696 1195.4916,665.02806 1195.2482,662.2719 1193.0458,661.21075 1191.9347,660.6754 1190.9663,660.39252 1189.4684,660.34358 1187.1356,660.26738 1186.3333,662.54717 1180.9789,662.14735 1179.8502,662.06305 1180.0008,661.30918 1179.0395,661.5822 1178.1062,661.92382 1177.0088,664.92762 1176.6368,665.71496 1176.6368,660.51296 1180.061,656.26996 1180.555,651.17096 1180.852,648.10096 1180.428,645.50496 1180.043,642.49896 1179.904,641.41496 1179.939,640.22596 1179.25,639.30696 1178.649,638.50496 1177.601,637.93496 1177.49,636.84296 1178.292,637.09296 1179.175,636.49796 1179.08,635.61896 1178.538,635.76396 1178.105,636.17096 1177.92,636.69896 1178.117,635.65496 1178.959,634.92196 1179.417,634.00496 1179.713,633.41196 1179.284,632.46396 1179.631,632.06696 1181.196,630.27496 1178.8,627.09696 1178.21,625.32296 1177.966,625.75096 1177.799,626.20696 1177.71,626.69096 1176.122,625.48896 1176.501,623.00296 1174.9,621.79496 1174.645,622.85696 1174.261,623.88696 1174.038,624.95996" id="path3882"/>
  </g>
  <path class="world_map-is_selected landxx esh" d="M 1144.1363,579.88555 C 1142.9523,577.79955 1144.7083,574.26055 1145.0683,572.09755 1145.3153,570.61855 1145.6963,569.23155 1146.4883,567.94155 1147.4473,566.37755 1149.2023,566.37455 1149.7913,564.41955 1150.0933,563.41755 1150.0743,561.87455 1151.0703,561.27655 1151.6353,560.93855 1151.3013,559.80355 1151.7423,559.15655 1152.4473,558.12155 1155.2863,554.58755 1154.4963,553.24455 1153.9653,553.58655 1153.5183,554.06355 1153.2063,554.61255 1154.4473,551.88255 1157.5893,549.87355 1159.6533,547.76655 1162.4023,544.95955 1161.8713,542.05855 1163.2093,538.61555 1164.3043,535.80055 1165.1533,532.69355 1167.8903,531.13455 1170.9063,529.41655 1172.5464,528.01573 1173.7953,524.69355 1174.5891,522.58178 1176.0918,519.58438 1175.5707,520.19919 L 1209.0699,519.92848 1208.5928,534.52396 1183.7363,534.81055 1182.5923,556.64355 C 1181.1133,557.71055 1179.0113,557.82755 1177.4663,558.78855 1175.1413,560.23355 1174.2023,561.77955 1174.3863,564.52555 1174.4933,566.12155 1175.7183,574.43655 1174.0233,574.91655 L 1146.3743,574.91655 C 1144.2523,574.91755 1143.9133,578.38355 1144.1363,579.88555" id="eh">
    <title>Western Sahara</title>
  </path>
  <path class="landxx sen" d="M 1140.0263,632.08555 C 1139.5863,632.07455 1139.2033,632.21855 1138.8763,632.51755 1138.7493,631.29055 1141.0453,630.90555 1141.7553,630.19855 1143.3023,628.65555 1144.5433,626.58255 1145.4493,624.61155 1145.8833,623.66755 1147.9743,614.67155 1150.1743,616.73655 1151.1633,617.66555 1156.4213,616.73055 1157.2633,615.74955 1158.5633,614.23355 1163.6693,615.93455 1164.7463,617.22155 1166.2013,618.95955 1166.3833,619.66455 1168.7673,619.90755 1170.0643,620.03955 1171.5053,622.57655 1171.2313,623.83155 1171.1043,624.41255 1172.9923,625.43655 1173.3253,626.05055 1173.7413,626.81755 1173.9453,627.70955 1174.5483,628.36555 1175.1393,629.00855 1176.3403,629.08655 1176.7313,629.87755 1177.3023,631.03355 1179.0373,631.67455 1179.1963,633.02355 1179.2683,633.62755 1178.2693,634.33555 1178.9623,634.95455 1179.5373,635.46855 1179.9453,635.80355 1180.0333,636.68655 1180.1273,637.62055 1180.9433,639.88155 1180.1833,640.58755 1179.3933,640.75955 1179.3223,641.14355 1179.9723,641.74055 1180.1313,642.18055 1180.3843,642.55055 1180.7313,642.84855 1181.4173,643.23455 1180.7513,643.98255 1181.7163,644.25555 1182.2373,642.21155 1183.8803,645.76155 1184.1653,646.32255 1184.5903,647.15955 1184.8223,647.79055 1184.5843,648.76155 1184.3153,649.86155 1185.0453,651.27455 1184.6663,652.17455 1183.4223,651.63955 1182.0693,652.47655 1180.7523,652.24655 1179.3813,652.00755 1178.5897,652.80879 1177.2943,652.98555 1175.9703,653.16622 1173.8433,650.81357 1172.7333,651.55055 1171.8658,652.12655 1172.1835,650.50191 1171.9963,650.44655 1170.8246,650.10007 1171.2219,649.89491 1170.2323,649.89319 L 1157.5894,649.87119 C 1155.9353,649.86819 1155.2421,649.96709 1153.9953,650.95155 1152.9023,651.81455 1151.4022,651.73455 1149.7763,651.67755 1148.3682,651.62815 1147.3854,652.46809 1146.0704,652.67909 1145.4124,652.78509 1144.7153,652.56455 1144.1353,652.96755 1144.0023,652.64155 1143.3113,651.93355 1143.6723,651.53755 1144.5793,650.54155 1145.0963,650.04855 1146.2953,650.80955 1147.2003,651.38455 1148.3253,650.49255 1149.2873,650.47355 1149.9913,650.45955 1150.3403,651.00155 1151.0583,650.77355 1151.6153,650.59655 1151.8773,650.71455 1152.3943,650.88255 1153.3133,651.18155 1153.2473,648.86455 1154.2853,648.50355 1152.7423,648.61455 1153.6373,649.92255 1152.6953,650.59155 1151.8853,651.16755 1149.7193,650.39955 1149.4553,649.43955 1148.8933,651.85655 1144.0713,650.09755 1145.1353,648.86355 1144.6833,649.51255 1144.7153,650.59755 1143.7753,650.80755 1143.6133,650.21455 1143.7753,649.73555 1144.2753,649.36855 1142.9903,649.65155 1143.7043,647.72055 1143.9863,646.85955 1144.4093,645.57055 1145.8691,645.49342 1147.0219,645.49037 L 1151.1398,645.47947 C 1151.8993,645.90157 1150.2639,645.2078 1151.6053,644.32556 1152.7764,643.55531 1153.9883,644.08156 1155.1393,643.75556 1156.4183,643.39256 1155.7371,641.57136 1157.4323,642.62692 1159.8043,644.10395 1162.1811,645.64719 1164.9264,644.73364 1165.9757,644.38446 1167.1489,643.35966 1165.8044,642.64229 1164.1226,641.74499 1163.7819,643.0275 1162.4663,642.96556 1161.1296,642.90266 1161.4773,640.90656 1159.9413,641.51956 1159.3603,641.75156 1158.8284,640.94618 1158.6393,640.55756 1158.2494,639.75636 1157.0055,640.03492 1156.2574,640.49506 1155.1911,641.15078 1154.9572,640.11758 1154.3966,640.69971 1153.9872,641.12478 1154.1332,641.66622 1153.6108,641.95743 L 1146.1098,641.91893 C 1146.4148,641.30093 1145.8183,640.88257 1145.0653,640.80257 1145.1883,640.20557 1145.5743,639.96457 1146.1453,640.22657 1146.0123,639.61257 1146.0593,639.01257 1146.2853,638.42657 1145.8493,639.25157 1145.3153,639.86757 1144.3453,640.01057 1144.0853,639.20957 1146.4163,637.15357 1147.2253,637.05857 1146.3443,636.68557 1143.9793,638.81757 1143.9853,639.65057 1143.9863,637.28457 1142.5383,632.99957 1140.0263,632.08557" id="sn">
    <title>Senegal</title>
  </path>
  <g class="landxx coastxx eu esp" id="es" transform="translate(-29.9017,-45.0745)">
    <title>Spain</title>
    <path d="M 1170.078,565.488 C 1169.002,564.773 1169.864,563.642 1170.938,563.975 1170.731,564.525 1170.444,565.029 1170.078,565.488" id="path5984"/>
    <path d="M 1172.087,557.784 C 1171.87,557.928 1171.654,558.072 1171.437,558.216 1171.337,557.481 1169.987,555.468 1171.367,555.192 1172.907,554.885 1172.633,557.011 1172.087,557.784" id="path5986"/>
    <path d="M 1175.828,562.32 C 1175.098,561.869 1175.061,560.515 1176.188,560.736 1177.366,560.967 1176.639,562.205 1175.828,562.32" id="path5988"/>
    <path d="M 1179.938,562.536 C 1179.347,561.521 1179.027,560.378 1178.428,559.368 1180.597,558.858 1182.246,558.183 1184.328,557.352 1183.579,558.957 1181.672,561.888 1179.938,562.536" id="path5990"/>
    <path d="M 1187.858,564.696 C 1186.083,564.444 1185.779,561.546 1187.605,561.141 1190.429,560.516 1189.568,563.902 1187.858,564.696" id="path5992"/>
    <path d="M 1197.288,561.96 C 1197.071,561.816 1196.855,561.672 1196.638,561.528 1198.767,560.822 1199.047,557.557 1200.585,556.087 1201.557,555.158 1201.04,558.796 1200.898,559.163 1200.243,560.842 1198.445,560.809 1197.288,561.96" id="path5994"/>
    <path d="M 1201.758,555.12 C 1201.518,555.024 1201.278,554.928 1201.038,554.832 1201.337,554.18 1203.66,551.147 1204.199,552.64 1204.65,553.893 1202.389,554.472 1201.758,555.12" id="path5996"/>
    </g>
  <path class="landxx mar" d="M 1175.7363,520.19755 C 1176.0823,519.81655 1177.2053,518.03455 1177.6003,517.89055 1179.0153,517.37555 1180.5633,517.30955 1182.0263,516.98755 1184.7413,516.38955 1187.4943,515.53155 1189.5433,513.56755 1191.5523,511.64155 1193.6433,510.12855 1195.7463,508.34355 1197.7613,506.63455 1199.3003,504.35455 1200.9133,502.27955 1202.0073,500.87155 1204.5203,496.81755 1202.4003,495.28155 1201.5793,494.68755 1201.0023,494.66755 1201.5273,493.56655 1202.0483,492.47355 1201.9933,491.38055 1202.0523,490.18855 1202.2163,486.86955 1203.4153,485.38855 1205.4463,482.91555 1206.6073,481.50155 1206.2883,480.06255 1206.7763,478.43655 1207.1303,477.25955 1208.0973,476.34755 1208.9773,475.54655 1210.8573,473.83355 1212.3473,471.72455 1214.7063,470.65855 1217.2743,469.49755 1220.0043,468.59055 1222.4583,467.19355 1227.3133,464.42855 1229.6493,457.69355 1231.4883,452.73655 1231.6663,452.25755 1232.3113,449.81355 1233.0513,449.88855 1233.9593,449.98155 1234.8753,449.61355 1235.6483,449.19855 1236.6253,448.67455 1236.8123,449.97155 1237.0973,450.66955 1237.6463,452.01755 1238.3783,452.93355 1239.5663,453.77755 1242.0473,455.53955 1244.1053,455.04655 1246.9423,454.70655 1249.2943,454.42555 1252.2853,455.85555 1253.7163,453.09255 1253.6953,453.99255 1253.9413,454.21655 1254.0663,454.89955 1254.2003,455.63155 1255.5303,456.00155 1254.3663,454.82055 1254.9953,455.69255 1256.1203,456.13755 1257.1303,455.63455 1258.1593,455.12155 1258.7723,456.17855 1259.4063,456.76455 1260.0863,457.39355 1261.3003,457.74955 1261.7063,458.63655 1262.1703,459.65055 1261.1653,460.57955 1262.5763,461.15655 1261.8123,461.75555 1262.0603,462.85555 1262.2053,463.66155 1262.4353,464.93755 1262.0103,466.05955 1262.1553,467.29055 1262.2723,468.27955 1262.9133,468.91055 1262.6673,469.97255 1262.2973,471.56955 1262.4793,472.13655 1263.2403,473.54155 1263.6273,474.25655 1263.2763,474.89355 1263.6633,475.54855 1264.2383,476.52255 1265.1393,476.90955 1265.9883,477.58055 1267.5533,478.81755 1262.8713,480.87155 1265.3753,481.82055 1262.7903,482.48455 1253.7273,479.37555 1252.3973,482.88555 1251.7033,484.71855 1249.8963,485.41655 1247.9393,485.25255 1246.4593,485.12755 1244.6383,487.24255 1246.6553,487.79655 1244.9473,489.35855 1248.0823,490.51555 1247.3343,491.25655 1246.4803,492.10355 1244.9833,491.79755 1244.0603,492.47055 1243.0943,493.17655 1242.0343,494.23455 1240.8903,494.62955 1240.0253,494.92755 1239.0483,494.90155 1238.2363,495.35555 1236.6623,496.23455 1236.0283,498.07755 1234.8743,499.36755 1233.5523,500.84655 1231.1083,501.42455 1229.1863,501.50055 1227.7423,501.55655 1226.1883,500.95155 1225.6053,502.67255 1224.9833,504.50855 1223.1783,503.13355 1221.7333,503.24055 1220.7143,503.31555 1220.1213,503.82455 1219.4653,504.53255 1218.7993,505.25255 1218.0133,505.10055 1217.1833,505.43255 1216.2253,505.81555 1215.6343,506.76355 1214.8693,507.40155 1214.0563,508.07955 1213.0493,508.50155 1212.2183,509.17455 1210.5973,510.48755 1209.1763,510.67855 1209.3383,512.95055 1209.4993,515.21055 1209.2603,517.71555 1209.0073,519.96255 1208.8993,520.91455 1178.8113,520.19755 1175.7363,520.19755" id="ma">
    <title>Morocco</title>
  </path>
  <g id="cv">
    <title>Cape Verde</title>
    <g class="landxx coastxx cpv" id="cv-" transform="translate(-29.9017,-45.0745)">
      <path d="M 1110.598,658.296 C 1111.333,658.361 1113.004,657.267 1112.652,656.379 1112.07,654.907 1109.431,656.826 1110.598,658.296" id="path5762"/>
      <path d="M 1112.688,659.448 C 1114.793,659.268 1111.895,657.538 1112.688,659.448" id="path5764"/>
      <path d="M 1116.507,676.512 C 1117.057,676.308 1117.62,675.09 1116.962,674.69 1115.824,673.999 1115.414,675.885 1116.507,676.512" id="path5766"/>
      <path d="M 1117.658,662.04 C 1117.862,660.395 1119.384,662.012 1119.888,661.103 1119.027,660.714 1117.903,660.184 1116.938,660.528 1117.229,661.008 1117.469,661.512 1117.658,662.04" id="path5768"/>
      <path d="M 1123.127,675.72 C 1124.284,674.487 1122.375,673.116 1121.827,672.12 1121.262,673.594 1120.955,675.659 1123.127,675.72" id="path5770"/>
      <path d="M 1125.868,673.848 C 1127.946,671.725 1123.832,672.547 1125.868,673.848" id="path5772"/>
      <path d="M 1128.958,666.36 C 1130.995,665.547 1129.227,664.494 1128.238,664.128 1128.283,665.022 1127.41,666.376 1128.958,666.36" id="path5774"/>
      <path d="M 1128.238,661.104 C 1128.711,660.411 1128.56,659.627 1128.388,658.873 1127.593,659.515 1128.233,660.308 1128.238,661.104" id="path5776"/>
    </g>
    </g>
  </svg>