<svg xmlns="http://www.w3.org/2000/svg" class="world_map zoom5 zoom4 zoom3 zoom2" height="127" id="svg2985" version="1.1" viewBox="860 1192 63 25" width="127">
  <title>World Map</title>
  <defs id="defs2987"/>
  <style id="style_css_sheet" type="text/css">
/*
 * Below are Cascading Style Sheet (CSS) definitions in use in this file,
 * which allow easily changing how countries are displayed.
 *
 */
/* --- Custom styles for Peace Corps --- */
.world_map .world_map-is_selected {
  fill: #C94112 !important;
}
.world_map .landxx {
  fill: #F2EFE8;
  stroke: #ffffff;
  fill-rule: evenodd;
}
.world_map.zoom6 .landxx {
  stroke-width: 0.1px;
}
.world_map.zoom5 .landxx {
  stroke-width: 1px;
}
.world_map.zoom4 .landxx {
  stroke-width: 2px;
}
.world_map.zoom3 .landxx {
  stroke-width: 3px;
}
.world_map.zoom2 .landxx {
  stroke-width: 4px;
}
.world_map.zoom1 .landxx {
  stroke-width: 5px;
}
.world_map .coastxx {
  fill: #F2EFE8;
  stroke: #ffffff;
  stroke-width: 2px;
  fill-rule: evenodd;
}
.world_map .oceanxx {
  opacity: 1;
  color: #ccc;
  fill: #ffffff;
  stroke: #ffffff;
  stroke-width: 0.5;
  stroke-miterlimit: 1;
}

/* --- Original Styles --- *
/*
 * Circles around small countries
 *
 * Change opacity to 1 to display all circles.
 *
 */
.circlexx
{
   opacity:0;
   fill:#e0e0e0;
   stroke:#000000;
   stroke-width:0.5;
}

/*
 * Smaller circles around French DOMs and Chinese SARs
 *
 * Change opacity to 1 to display all subnational circles.
 *
 */
.subxx
{
   opacity:0;
   stroke-width:0.3;
}

/*
 * Circles around small, unrecognized countries
 *
 * Change opacity to 1 to display all circles.
 *
 */
.unxx
{
   opacity:0;
   fill:#e0e0e0;
   stroke:#000000;
   stroke-width:0.3;
}

/*
 * Circles around small countries, but with no permanent residents 
 *
 * Change opacity to 1 to display all circles.
 *
 */
.noxx
{
   opacity:0;
   fill:#e0e0e0;
   stroke:#000000;
   stroke-width:0.5;
}

/*
 * land
 */
.landxx
{
}
/*
 * Styles for coastlines of islands with no borders
 */


/*
 * Styles for nations with limited recognition
 */
.limitxx
{
   fill: #e0e0e0;
   stroke:#ffffff;
   stroke-width:0;
   fill-rule:evenodd;
}

/*
 * Styles for nations with no permanent population.
 */
.antxx
{
   fill: #e0e0e0;
   stroke:#ffffff;
   stroke-width:0;
   fill-rule:evenodd;
}

/*
 * Ocean
 */


/*
 * Additional style rules
 *
 * The following are examples of colouring countries.  You can substitute these with your own styles to colour the countries on the map.
 *
 * Color a few countries:
 *
 * .gb, .au, .nc
 * {
 *    fill:       #ff0000;
 * }
 *
 * Color a few small country circles (and the countries):
 *
 * .ms, .ky
 * {
 *    opacity:    1;
 *    fill:       #ff0000;
 * }
 *
 */

</style>
  <path class="oceanxx" d="M 2079.5058,1457.5605 615.24779,1457.5605 C 615.13079,1457.5605 615.07079,1457.5505 614.95179,1457.5215 611.67679,1456.6515 608.40179,1455.7815 605.12779,1454.9105 599.15079,1453.3225 593.22879,1451.5225 587.30779,1449.7385 564.39379,1442.8315 541.76579,1434.6995 519.46979,1426.0115 495.81079,1416.7935 472.34979,1407.0946 449.19179,1396.6816 426.78379,1386.6056 405.17679,1375.0536 383.76379,1363.0356 363.11779,1351.4496 343.01079,1338.8296 323.37979,1325.5996 302.29179,1311.3876 281.47879,1296.8506 261.05379,1281.7006 242.35079,1267.8276 223.73679,1253.6306 206.05279,1238.4686 186.98679,1222.1216 167.82379,1205.7706 150.35279,1187.6906 132.97779,1169.7106 116.33279,1151.0606 100.15679,1131.9976 84.352777,1113.3736 70.086776,1093.4716 56.901786,1072.9246 44.046786,1052.8916 32.093776,1032.1356 22.469776,1010.3426 17.516776,999.12753 12.408776,987.76556 8.7017761,976.06056 5.0657761,964.58166 1.5997761,953.04259 -1.5932239,941.43054 -8.0102239,918.09356 -14.055224,894.78356 -18.234224,870.92056 -22.491222,846.60856 -24.894222,822.19856 -26.943222,797.62156 -28.947222,773.58556 -28.829222,749.40156 -27.225222,725.34856 -25.648222,701.69856 -23.363222,677.92456 -19.274222,654.56456 -15.018224,630.25156 -9.3842239,606.45156 -2.8412239,582.66156 3.5687761,559.35256 10.483776,536.34856 20.265776,514.19856 30.320776,491.42956 42.318786,469.90956 55.502786,448.81656 68.512776,428.00356 83.108777,408.26756 98.686787,389.31756 113.73479,371.01156 129.68979,353.25256 146.15179,336.20856 163.77479,317.96256 182.64579,301.14556 201.89579,284.64756 220.33379,268.84456 239.55379,253.98456 258.95979,239.39656 278.42779,224.76056 298.39379,210.83356 318.55579,197.17556 339.26979,183.14456 360.47879,169.92056 382.15079,157.42556 403.46579,145.13656 425.31479,133.98856 447.60479,123.59356 469.58579,113.34356 492.14979,104.17656 514.74579,95.37556 537.44879,86.532565 560.37879,78.195565 583.63479,70.914565 589.69379,69.017565 595.80079,67.276565 601.90879,65.549565 604.63079,64.779565 607.36079,64.045565 610.09479,63.318565 611.59979,62.918565 613.56579,61.986565 615.13379,61.986565 L 2079.9638,61.986565 C 2079.9798,61.986565 2079.9958,61.986565 2080.0118,61.986565 2079.8448,61.986565 2079.6788,61.986565 2079.5118,61.986565 2102.8268,68.191565 2125.8778,75.323565 2148.5448,83.611565 2171.6378,92.054565 2194.6158,100.87956 2217.2348,110.52956 2240.5208,120.46556 2263.4848,130.95256 2285.8828,142.76456 2306.9808,153.89056 2327.8178,165.78556 2347.8608,178.72156 2368.9418,192.32656 2389.7498,206.29256 2410.2218,220.80056 2429.7368,234.62956 2448.9938,248.98756 2467.6208,263.99256 2486.8818,279.50856 2506.0408,295.30556 2524.0538,312.27356 2541.8708,329.05756 2558.7508,346.67256 2574.9408,365.03656 2591.2478,383.53256 2607.1478,402.30656 2621.4508,422.41856 2635.3488,441.96256 2648.4468,462.42756 2659.5898,483.67756 2671.1238,505.67356 2681.1048,528.35656 2688.6188,552.05056 2692.2518,563.50656 2695.3368,575.14756 2698.5608,586.72256 2701.7738,598.25356 2704.9238,609.81956 2707.4578,621.52456 2712.6258,645.40556 2716.6718,669.47856 2719.1178,693.79656 2721.5718,718.19256 2723.1798,742.56356 2722.9808,767.09056 2722.7908,790.65456 2720.6908,814.43756 2717.7688,837.81156 2714.7368,862.07056 2710.5198,886.16156 2704.6398,909.90056 2701.6808,921.84356 2698.3948,933.69556 2695.0378,945.53154 2691.7468,957.13466 2688.5558,968.83466 2684.3988,980.16156 2676.0918,1002.8036 2666.1688,1024.8836 2654.1338,1045.8046 2641.9958,1066.9066 2628.8498,1087.4866 2614.2378,1106.9696 2599.1658,1127.0666 2582.6678,1145.9446 2565.8948,1164.6296 2549.8298,1182.5266 2532.8918,1199.7316 2514.8648,1215.6616 2496.0788,1232.2646 2476.8978,1248.3126 2457.1558,1263.7656 2438.2988,1278.5276 2418.9668,1292.7306 2399.3188,1306.4206 2378.7018,1320.7866 2357.7538,1334.6106 2336.4758,1347.9776 2326.4088,1354.3016 2316.0058,1360.1326 2305.6418,1365.9516 2295.0348,1371.9086 2284.3858,1378.0166 2273.4448,1383.3436 2250.7338,1394.3986 2227.7768,1404.7266 2204.3888,1414.2665 2181.7848,1423.4875 2159.0678,1432.2695 2136.0228,1440.3345 2117.4118,1446.8465 2098.5568,1452.4975 2079.5058,1457.5605" id="ocean"/>
  <g class="landxx coastxx arg" id="ar" transform="translate(-29.9017,-45.0745)">
    <title>Argentina</title>
    <path class="landxx arg" d="M 788.547,1057.823 C 788.684,1057.101 789.512,1056.925 789.677,1056.254 789.901,1055.339 789.365,1053.985 789.407,1053.003 789.526,1050.21 791.079,1049.058 792.094,1046.687 792.754,1045.146 792.744,1043.563 793.094,1041.956 793.265,1041.169 793.453,1040.283 793.904,1039.601 794.355,1038.919 795.195,1039.468 795.896,1039.145 798.876,1037.773 795.804,1035.961 794.806,1034.396 793.67,1032.616 795.679,1031.504 795.047,1029.773 794.597,1028.541 791.061,1022.217 794.088,1022.113 793.782,1021.332 792.16,1019.497 792.398,1018.728 792.959,1016.917 794.131,1015.645 795.846,1014.883 797.362,1014.21 799.806,1013.609 800.53,1011.933 801.257,1010.248 801.134,1007.987 801.424,1006.194 801.539,1005.485 801.31528,1003.4717 801.01228,1002.7627 800.80528,1002.2777 799.67983,1002.6028 799.79783,1002.0898 800.41196,1002.1398 802.19647,997.65493 804.032,996.732 806.05,995.723 806.164,995.515 806.4,993.093 808.026,993.419 808.852,995.073 810.308,995.713 811.983,996.449 813.95,995.508 815.699,995.776 819.861,996.412 819.688,999.579 821.81,1002.534 821.949,1001.198 821.919,999.931 822.456,998.67 822.745,997.99 823.217,995.566 823.913,995.289 824.443,995.078 825.438,995.186 826.06,995.032 827.205,994.749 828.52,994.973 829.688,994.973 830.379,994.973 831.906,994.6 832.125,995.382 832.421,996.438 834.542,997.696 835.316,998.47 836.209,999.363 836.836,999.485 837.393,1000.647 837.831,1001.562 838.402,1002.474 839.027,1003.271 840.473,1005.114 842.895,1006.414 844.781,1007.763 845.862,1008.536 846.382,1009.633 847.37,1010.454 848.287,1011.216 849.555,1011.169 850.617,1011.59 852.049,1012.158 852.986,1012.534 854.576,1012.534 855.782,1012.534 856.641,1013.628 857.637,1014.139 860.219,1015.467 862.237,1017.975 865.09,1018.893 865.929,1019.164 866.929,1019.249 867.602,1019.873 868.581,1020.783 869.005,1020.251 870.007,1020.85 870.974,1021.428 872.256,1021.517 872.981,1022.434 873.493,1023.082 874.061,1023.67 874.567,1024.326 875.566,1025.619 873.672,1026.984 873.418,1028.481 873.038,1030.71 871.043,1031.298 871.504,1033.92 871.926,1036.32 870.142,1037.061 869.621,1039.102 869.362,1040.119 869.003,1039.757 869.551,1040.972 871.019,1040.401 872.589,1040.391 874.118,1040.687 876.823,1041.21 879.362,1042.798 882.011,1041.94 882.842,1041.671 883.237,1042.945 884.094,1042.333 884.918,1041.745 885.798,1043.094 886.471,1043.352 886.94,1042.372 887.013,1041.019 888.341,1040.832 889.358,1040.689 889.88,1041.85 890.761,1041.732 892.158,1041.546 891.938,1039.861 892.28,1038.929 892.673,1037.859 894.939,1037.969 894.826,1037.348 894.79,1037.151 896.129,1035.218 896.286,1035.244 897.28,1035.405 897.087,1033.077 897.205,1032.257 897.44,1030.621 897.417,1028.841 896.996,1027.234 896.566,1025.596 897.596,1026.155 898.491,1026.722 898.694,1025.417 900.421,1025.547 901.333,1025.87 902.912,1026.43 903.237,1028.065 903.754,1029.484 904.484,1031.49 904.691,1032.621 904.749,1034.773 904.779,1035.895 905.061,1036.907 904.891,1038.04 904.793,1038.61 904.7,1039.181 904.611,1039.752 904.254,1039.615 903.914,1039.651 903.592,1039.862 902.399,1040.538 901.628,1041.438 900.329,1041.968 899.68,1042.234 897.538,1042.979 897.462,1043.846 897.345,1045.165 895.889,1045.285 894.997,1045.859 894.478,1046.192 894.386,1046.914 893.939,1047.354 893.287,1047.997 892.456,1048.473 891.87,1049.182 892.471,1049.385 892.732,1049.897 892.44,1050.483 891.116,1049.115 888.504,1054.56 887.761,1055.621 886.466,1057.472 886.126,1061.244 883.706,1062.218 882.617,1062.656 882.697,1064.128 882.166,1064.995 881.885,1065.453 881.448,1065.724 880.919,1065.814 881.217,1066.585 880.935,1067.6089 880.363,1068.1179 878.737,1069.5639 880.69581,1069.7468 880.85281,1071.2878 880.93081,1072.0528 880.45136,1072.1899 880.41536,1072.7929 880.37336,1073.5039 880.46896,1073.679 880.537,1074.379 880.606,1075.082 880.54,1075.7135 880.22527,1076.3455 879.58727,1077.6245 880.8,1076.956 880.691,1078.189 880.553,1079.751 879.659,1080.044 879.952,1081.746 880.203,1083.205 881.077,1083.752 880.603,1085.231 880.175,1086.565 881.082,1088.205 881.748,1089.318 882.908,1091.259 880.298,1090.55 880.4,1091.676 880.534,1093.148 879.661,1094.642 880.352,1096.125 880.739,1096.955 883.865,1101.446 881.349,1101.314 882.49,1102.241 882.613,1103.44 883.978,1104.293 885.462,1105.221 886.939,1105.937 888.525,1106.671 891.113,1107.87 894.745,1109.9 893.341,1113.099 892.33,1115.404 895.383,1120.049 898.134,1118.904 899.219,1118.451 899.698,1121.714 899.926,1122.298 900.607,1124.047 899.435,1126.015 898.72,1127.584 898.062,1129.027 896.376,1131.076 896.326,1132.67 896.273,1134.36 896.437,1134.859 894.877,1135.973 892.051,1137.988 888.808,1139.021 885.443,1139.7 881.382,1140.519 877.447,1141.71 873.281,1141.899 871.673,1141.972 870.324,1141.94 868.745,1141.797 866.944,1141.634 865.725,1140.488 863.998,1140.264 864.238,1140.731 864.561,1141.131 864.964,1141.466 865.409,1141.873 864.918,1142.755 865.171,1143.261 865.313,1143.543 868.595,1145.972 866.518,1145.164 867.475,1145.863 867.931,1146.357 868.142,1147.549 868.294,1148.409 868.425,1149.834 867.098,1149.124 867.295,1149.992 867.543,1150.877 867.511,1151.775 867.486,1152.502 866.74,1153.133 867.28,1153.782 867.674,1154.256 868.221,1154.585 868.676,1154.994 869.369,1155.616 869.01,1156.623 869.978,1156.104 869.388,1159.638 865.793,1160.174 862.817,1160.442 858.87,1160.797 855.64,1158.131 851.758,1157.544 853.365,1157.231 851.68,1156.647 851.165,1156.913 850.487,1157.263 850.08,1158.132 850.051,1158.865 849.97,1160.981 852.551,1162.516 852.946,1164.599 853.267,1166.288 853.306,1168.38 855.183,1169.098 856.141,1169.464 858.773,1169.669 858.029,1171.293 858.429,1171.392 862.126,1171.805 861.877,1170.845 861.674,1170.061 859.967,1170.03 859.389,1169.713 860.619,1169.901 861.277,1168.633 862.419,1168.564 863.596,1168.493 864.811,1170.132 865.009,1171.154 865.193,1172.1 866.389,1173.491 865.729,1174.464 865.272,1175.137 863.589,1175.347 862.863,1175.258 861.654,1175.111 861.85,1173.737 861.25,1173.139 860.267,1172.16 858.919,1171.764 857.716,1172.57 854.53,1174.703 859.787,1176.44 861.629,1175.974 861.475,1176.979 860.403,1177.308 859.596,1177.64 858.002,1178.297 858.068,1179.02 857.451,1180.439 856.81,1181.916 856.708,1182.418 857.726,1183.799 858.079,1184.278 858.573,1184.862 858.634,1185.485 858.515,1185.906 858.507,1186.328 858.609,1186.752 859.035,1187.146 859.26,1187.632 859.283,1188.21 859.235,1188.481 859.371,1189.463 858.974,1189.569 858.411,1189.717 857.638,1189.959 857.559,1190.665 857.427,1191.851 859.226,1192.037 859.034,1192.97 858.824,1193.989 851.665,1192.538 853.199,1195.135 850.108,1194.482 849.289,1198.191 848.862,1200.445 848.145,1204.22 850.623,1205.718 853.465,1207.639 854.861,1208.583 856.067,1209.832 857.631,1210.518 859.624,1211.392 862.036,1210.212 863.926,1211.331 866.567,1212.894 866.97,1218.125 862.85,1217.595 863.609,1217.9 864.154,1217.225 864.87,1217.165 865.958,1217.074 866.385,1217.818 867.03,1218.535 866.4,1218.61 866.196,1218.978 866.52,1219.535 865.332,1219.294 862.941,1222.362 862.205,1223.091 861.241,1224.042 860.498,1224.967 859.785,1226.133 859.304,1226.92 858.836,1227.386 858.879,1228.357 858.913,1229.13 858.992,1229.864 858.31,1230.416 858.897,1230.52 859.358,1230.201 859.47,1229.616 859.545,1231.757 861.898,1235.472 858.698,1236.494 856.341,1237.245 855.585,1233.661 853.56,1233.296 854.081,1233.492 855.455,1234.542 855,1235.236 854.663,1235.752 853.279,1235.307 852.77,1235.736 854.743,1234.928 855.579,1236.238 857.31,1236.606 857.096,1237.93 855.007,1237.861 854.526,1239.33 853.879,1241.307 855.27,1242.587 854.14,1244.596 855.6,1242.784 857.715,1246.76 858.246,1247.8 859.062,1249.398 855.748,1248.462 854.93,1249.136 855.788,1248.854 857.807,1249.662 858.174,1249.447 859.355,1248.753 860.269,1250.339 861.169,1251.052 862.915,1252.436 864.783,1253.444 865.59,1255.466 865.166,1254.743 864.194,1254.777 863.478,1254.7 862.195,1254.564 861.023,1253.868 859.797,1253.511 856.708,1252.611 853.382,1252.226 850.18,1252.226 848.761,1252.226 847.341,1252.226 845.922,1252.226 844.728,1252.226 842.213,1252.712 841.182,1252.068 839.575,1251.064 838.224,1248.816 836.14,1248.556 836.796,1247.59 836.192,1246.02 835.359,1245.414 834.257,1244.612 835.111,1243.562 834.518,1242.575 834.152,1241.967 833.018,1240.387 832.116,1240.8 831.41,1241.121 830.797,1240.667 830.09,1240.846 829.566,1240.978 829.292,1241.606 828.843,1241.865 827.895,1242.413 826.554,1239.896 826.257,1239.301 825.666,1238.117 823.287,1237.306 823.097,1236.102 822.997,1235.465 822.662,1235.447 822.378,1234.915 822.153,1234.495 822.336,1233.958 822.17,1233.507 821.935,1232.872 821.183,1232.64 820.95,1231.997 820.688,1231.272 820.913,1230.508 820.8,1229.767 822.002,1229.961 822.092,1229.26 822.39,1228.328 822.56,1227.797 822.241,1227.363 822.67,1226.888 823.051,1226.467 823.798,1226.764 824.191,1226.308 824.966,1225.409 824.135,1223.944 823.535,1223.149 822.844,1222.235 824.662,1222.165 824.761,1221.419 824.87,1220.591 823.655,1219.545 823.065,1219.127 821.866,1218.278 821.691,1217.736 821.699,1216.292 821.704,1215.3 821.944,1211.782 823.681,1212.049 823.33,1211.259 822.362,1211.183 822.403,1210.352 822.429,1209.819 821.882,1209.391 822.117,1208.834 822.284,1208.439 822.71,1208.241 822.901,1207.854 823.685,1206.263 820.987,1203.792 819.871,1202.979 820.849,1202.933 821.435,1201.069 820.361,1200.764 819.594,1200.546 818.349,1198.78 819.169,1198.025 819.866,1197.382 820.083,1197.812 820.572,1196.772 820.986,1195.892 821.128,1195.872 820.343,1195.111 819.653,1194.441 818.89,1193.822 818.106,1193.265 816.995,1192.474 815.425,1193.306 814.413,1192.198 813.554,1191.257 819.131,1191.66 819.581,1191.03 819.332,1191.378 819.606,1189.197 819.721,1189.519 818.876,1187.146 815.044,1189.567 814.106,1187.243 813.871,1186.865 813.641,1186.483 813.418,1186.097 813.258,1185.476 814.215,1184.923 813.801,1184.332 813.274,1183.579 811.958,1183.148 812.696,1182.315 813.618,1181.274 809.052,1180.455 810.703,1178.975 811.586,1178.183 810.476,1177.543 809.669,1177.405 808.132,1177.142 807.537,1176.565 807.059,1175.079 806.694,1173.944 806.655,1172.592 806.26,1171.518 805.96,1170.704 804.739,1170.011 805.902,1169.189 806.623,1168.68 807.883,1169.091 806.973,1167.867 806.197,1166.822 804.508,1165.372 804.656,1163.95 804.911,1161.489 802.384,1159.205 801.959,1156.978 801.787,1156.075 801.85,1154.876 802.26,1154.066 802.914,1152.773 801.068,1152.454 800.862,1151.359 802.577,1151.936 801.47,1149.449 800.977,1148.88 799.983,1147.734 800.269,1147.158 801.652,1147.109 800.774,1146.253 801.225,1143.76 800.819,1142.572 800.195,1140.751 802.021,1140.398 803.127,1139.394 804.331,1138.301 801.719,1136.549 801.353,1135.204 800.89,1133.504 798.255,1131.425 798.523,1129.747 798.703,1128.62 797.573,1125.885 797.047,1124.806 796.484,1123.648 796.192,1121.098 797.109,1120.094 797.604,1119.552 798.05,1120.133 798.346,1119.476 798.568,1118.981 798.517,1118.263 798.893,1117.846 799.19,1117.516 799.978,1117.312 800.019,1116.819 800.117,1115.644 799.696,1114.399 799.243,1113.338 798.86,1112.442 798.394,1111.584 797.958,1110.713 797.851,1110.498 796.972,1109.916 796.971,1109.82 796.964,1109.033 797.94,1109.38 798.038,1108.488 798.135,1107.612 797.961,1106.728 797.876,1105.859 797.793,1105.012 798,1101.054 799.287,1101.284 800.533,1101.506 798.769,1098.378 798.664,1098.127 798.177,1096.962 798.8,1092.947 797.428,1092.503 796.649,1092.251 797.121,1093.519 796.051,1092.188 795.266,1091.211 795.489,1090.74 795.656,1089.654 795.787,1088.802 795.17,1088.491 794.592,1088.07 793.844,1087.525 794.088,1087.009 793.85,1086.24 793.328,1084.554 791.628,1083.507 791.141,1081.808 792.751,1082.549 790.963,1080.347 790.347,1080.033 788.875,1079.283 788.382,1076.866 788.319,1075.416 788.242,1073.635 789.599,1074.295 789.211,1072.399 788.927,1071.008 790.336,1068.469 789.341,1067.338 791.775,1068.964 790.856,1064.761 790.527,1063.864 790.045,1062.554 787.771,1059.083 788.547,1057.823" id="path4518"/>
    <path class="landxx arg" d="M 865.438,1257.553 C 866.895,1258.868 868.727,1259.769 869.837,1261.444 868.834,1259.596 866.527,1262.818 870.344,1262.855 871.773,1262.869 872.207,1264.459 873.12,1265.276 874.24,1266.279 875.886,1266.528 876.935,1267.463 879.711,1269.937 883.738,1271.094 887.102,1272.628 888.634,1273.326 890.861,1274.202 892.561,1274.152 893.398,1274.128 894.227,1273.956 895.067,1273.994 896.25,1274.047 895.984,1275.286 895.677,1276.274 894.728,1275.75 893.613,1276.658 892.493,1276.226 891.271,1275.754 889.587,1277.324 888.054,1276.996 886.333,1276.627 884.833,1276.21 883.047,1276.156 881.056,1276.096 878.507,1276.19 876.637,1275.409 875.434,1274.908 874.708,1276.143 873.677,1274.621 872.73,1273.223 872.195,1271.473 871.436,1269.965 869.386,1265.886 867.168,1261.777 865.438,1257.553" id="path4520"/>
    </g>
  <g id="fk">
    <title>Falkland Islands (Malvinas)</title>
    <g class="world_map-is_selected landxx coastxx flk" id="fk-" transform="translate(-29.9017,-45.0745)">
      <path d="M 912.598,1251.934 C 913.025,1251.796 913.157,1251.54 912.992,1251.167 912.316,1250.225 912.029,1252.161 912.029,1250.423 910.526,1250.648 911.985,1251.676 912.598,1251.934" id="path4876"/>
      <path d="M 917.138,1247.253 C 917.235,1247.446 917.331,1247.64 917.428,1247.833 915.797,1248.454 914.494,1246.924 912.888,1247.043 913.624,1247.696 914.248,1247.4 914.793,1248.274 915.218,1248.956 916.917,1249.461 917.638,1249.703 916.432,1249.351 915.352,1249.659 914.188,1249.993 915.024,1251.217 916.167,1249.235 917.138,1250.353 916.545,1250.207 916.273,1250.479 916.418,1251.073 916.227,1250.808 916.034,1250.545 915.838,1250.283 915.802,1251.006 914.938,1252.367 916.348,1251.503 915.909,1252.585 913.668,1252.455 912.748,1252.723 913.122,1252.902 916.318,1254.276 914.328,1253.083 914.767,1253.021 916.078,1254.541 916.364,1253.986 916.815,1253.109 918.261,1253.482 917.638,1252.083 919.652,1252.743 920.352,1250.503 921.277,1249.184 921.593,1248.733 922.01,1248.182 922.055,1247.611 922.106,1246.967 920.596,1246.232 920.878,1247.694 919.993,1247.294 918.058,1246.775 917.138,1247.253" id="path4878"/>
      <path d="M 915.188,1247.043 C 915.586,1247.258 915.997,1247.281 916.417,1247.113 916.262,1246.512 915.775,1246.238 915.188,1246.463 915.453,1246.659 915.719,1246.853 915.988,1247.043 915.721,1247.043 915.455,1247.043 915.188,1247.043" id="path4880"/>
      <path d="M 916.778,1246.394 C 917,1246.597 917.264,1246.694 917.568,1246.684 917.305,1246.587 917.041,1246.49 916.778,1246.394" id="path4882"/>
      <path d="M 917.998,1245.963 C 918.414,1246.58 919.659,1246.517 920.238,1246.253 919.504,1246.05 918.735,1246.141 917.998,1245.963" id="path4884"/>
      <path d="M 921.667,1254.313 C 922.18,1253.857 921.514,1253.53 921.097,1253.592 921.288,1253.833 921.478,1254.073 921.667,1254.313" id="path4886"/>
      <path d="M 921.458,1253.163 C 922.452,1253.641 923.189,1254.809 924.408,1254.743 923.908,1254.419 923.634,1253.88 923.908,1253.303 924.643,1253.585 925.339,1254.007 926.138,1254.093 926.153,1253.16 925.187,1252.702 924.478,1252.373 925.355,1252.277 925.916,1252.858 926.708,1252.86 927.25,1252.86 927.567,1252.501 928.148,1252.653 928.119,1251.669 926.239,1251.45 925.708,1250.783 926.737,1251.397 927.914,1251.506 929.079,1251.374 929.815,1251.291 930.878,1250.414 929.808,1250.213 930.898,1250.384 932.047,1250.136 933.048,1249.703 932.757,1249.775 930.26,1248.677 929.958,1248.413 930.711,1248.012 931.479,1248.52 932.258,1248.333 931.571,1247.801 928.368,1245.861 928.298,1248.123 928.91,1248.196 929.476,1248.52 929.878,1248.983 929.025,1249.01 926.371,1247.324 928.228,1247.543 927.462,1246.164 925.234,1246.267 923.908,1246.394 924.342,1247.001 923.996,1247.556 923.398,1247.833 923.96,1247.875 924.307,1248.183 924.188,1248.773 923.918,1248.637 923.655,1248.491 923.398,1248.333 923.636,1249.148 924.823,1249.277 924.768,1250.213 923.591,1248.76 921.291,1251.641 922.178,1252.873 921.938,1252.97 921.698,1253.066 921.458,1253.163" id="path4888"/>
      <path d="M 929.018,1252.373 C 929.221,1252.576 929.461,1252.72 929.738,1252.803 929.498,1252.659 929.258,1252.517 929.018,1252.373" id="path4890"/>
    </g>
    </g>
  </svg>