<svg xmlns="http://www.w3.org/2000/svg" class="world_map zoom6 zoom5 zoom4 zoom3 zoom2" height="127" id="svg2985" version="1.1" viewBox="1235 446 1 2" width="127">
  <title>World Map</title>
  <defs id="defs2987"/>
  <style id="style_css_sheet" type="text/css">
/*
 * Below are Cascading Style Sheet (CSS) definitions in use in this file,
 * which allow easily changing how countries are displayed.
 *
 */
/* --- Custom styles for Peace Corps --- */
.world_map .world_map-is_selected.circlexx {
  opacity:1;
}
.world_map .world_map-is_selected.landxx {
  fill: #C94112 !important;
}
.world_map .landxx {
  fill: #F2EFE8;
  stroke: #ffffff;
  fill-rule: evenodd;
}
.world_map.zoom6 .landxx {
  stroke-width: 0.1px;
}
.world_map.zoom5 .landxx {
  stroke-width: 1px;
}
.world_map.zoom4 .landxx {
  stroke-width: 2px;
}
.world_map.zoom3 .landxx {
  stroke-width: 3px;
}
.world_map.zoom2 .landxx {
  stroke-width: 4px;
}
.world_map.zoom1 .landxx {
  stroke-width: 5px;
}
.world_map .coastxx {
  fill: #F2EFE8;
  stroke: #ffffff;
  stroke-width: 2px;
  fill-rule: evenodd;
}
.world_map .oceanxx {
  opacity: 1;
  color: #ccc;
  fill: #ffffff;
  stroke: #ffffff;
  stroke-width: 0.5;
  stroke-miterlimit: 1;
}

/* --- Original Styles --- *
/*
 * Circles around small countries
 *
 * Change opacity to 1 to display all circles.
 *
 */
.circlexx
{
   opacity:0;
   fill-opacity:0;
   fill:#e0e0e0;
   stroke:#000000;
   stroke-width:0.5;
}

/*
 * Smaller circles around French DOMs and Chinese SARs
 *
 * Change opacity to 1 to display all subnational circles.
 *
 */
.subxx
{
   opacity:0;
   stroke-width:0.3;
}

/*
 * Circles around small, unrecognized countries
 *
 * Change opacity to 1 to display all circles.
 *
 */
.unxx
{
   opacity:0;
   fill:#e0e0e0;
   stroke:#000000;
   stroke-width:0.3;
}

/*
 * Circles around small countries, but with no permanent residents 
 *
 * Change opacity to 1 to display all circles.
 *
 */
.noxx
{
   opacity:0;
   fill:#e0e0e0;
   stroke:#000000;
   stroke-width:0.5;
}

/*
 * land
 */
.landxx
{
}
/*
 * Styles for coastlines of islands with no borders
 */


/*
 * Styles for nations with limited recognition
 */
.limitxx
{
   fill: #e0e0e0;
   stroke:#ffffff;
   stroke-width:0;
   fill-rule:evenodd;
}

/*
 * Styles for nations with no permanent population.
 */
.antxx
{
   fill: #e0e0e0;
   stroke:#ffffff;
   stroke-width:0;
   fill-rule:evenodd;
}

/*
 * Ocean
 */


/*
 * Additional style rules
 *
 * The following are examples of colouring countries.  You can substitute these with your own styles to colour the countries on the map.
 *
 * Color a few countries:
 *
 * .gb, .au, .nc
 * {
 *    fill:       #ff0000;
 * }
 *
 * Color a few small country circles (and the countries):
 *
 * .ms, .ky
 * {
 *    opacity:    1;
 *    fill:       #ff0000;
 * }
 *
 */

</style>
  <path class="oceanxx" d="M 2079.5058,1457.5605 615.24779,1457.5605 C 615.13079,1457.5605 615.07079,1457.5505 614.95179,1457.5215 611.67679,1456.6515 608.40179,1455.7815 605.12779,1454.9105 599.15079,1453.3225 593.22879,1451.5225 587.30779,1449.7385 564.39379,1442.8315 541.76579,1434.6995 519.46979,1426.0115 495.81079,1416.7935 472.34979,1407.0946 449.19179,1396.6816 426.78379,1386.6056 405.17679,1375.0536 383.76379,1363.0356 363.11779,1351.4496 343.01079,1338.8296 323.37979,1325.5996 302.29179,1311.3876 281.47879,1296.8506 261.05379,1281.7006 242.35079,1267.8276 223.73679,1253.6306 206.05279,1238.4686 186.98679,1222.1216 167.82379,1205.7706 150.35279,1187.6906 132.97779,1169.7106 116.33279,1151.0606 100.15679,1131.9976 84.352777,1113.3736 70.086776,1093.4716 56.901786,1072.9246 44.046786,1052.8916 32.093776,1032.1356 22.469776,1010.3426 17.516776,999.12753 12.408776,987.76556 8.7017761,976.06056 5.0657761,964.58166 1.5997761,953.04259 -1.5932239,941.43054 -8.0102239,918.09356 -14.055224,894.78356 -18.234224,870.92056 -22.491222,846.60856 -24.894222,822.19856 -26.943222,797.62156 -28.947222,773.58556 -28.829222,749.40156 -27.225222,725.34856 -25.648222,701.69856 -23.363222,677.92456 -19.274222,654.56456 -15.018224,630.25156 -9.3842239,606.45156 -2.8412239,582.66156 3.5687761,559.35256 10.483776,536.34856 20.265776,514.19856 30.320776,491.42956 42.318786,469.90956 55.502786,448.81656 68.512776,428.00356 83.108777,408.26756 98.686787,389.31756 113.73479,371.01156 129.68979,353.25256 146.15179,336.20856 163.77479,317.96256 182.64579,301.14556 201.89579,284.64756 220.33379,268.84456 239.55379,253.98456 258.95979,239.39656 278.42779,224.76056 298.39379,210.83356 318.55579,197.17556 339.26979,183.14456 360.47879,169.92056 382.15079,157.42556 403.46579,145.13656 425.31479,133.98856 447.60479,123.59356 469.58579,113.34356 492.14979,104.17656 514.74579,95.37556 537.44879,86.532565 560.37879,78.195565 583.63479,70.914565 589.69379,69.017565 595.80079,67.276565 601.90879,65.549565 604.63079,64.779565 607.36079,64.045565 610.09479,63.318565 611.59979,62.918565 613.56579,61.986565 615.13379,61.986565 L 2079.9638,61.986565 C 2079.9798,61.986565 2079.9958,61.986565 2080.0118,61.986565 2079.8448,61.986565 2079.6788,61.986565 2079.5118,61.986565 2102.8268,68.191565 2125.8778,75.323565 2148.5448,83.611565 2171.6378,92.054565 2194.6158,100.87956 2217.2348,110.52956 2240.5208,120.46556 2263.4848,130.95256 2285.8828,142.76456 2306.9808,153.89056 2327.8178,165.78556 2347.8608,178.72156 2368.9418,192.32656 2389.7498,206.29256 2410.2218,220.80056 2429.7368,234.62956 2448.9938,248.98756 2467.6208,263.99256 2486.8818,279.50856 2506.0408,295.30556 2524.0538,312.27356 2541.8708,329.05756 2558.7508,346.67256 2574.9408,365.03656 2591.2478,383.53256 2607.1478,402.30656 2621.4508,422.41856 2635.3488,441.96256 2648.4468,462.42756 2659.5898,483.67756 2671.1238,505.67356 2681.1048,528.35656 2688.6188,552.05056 2692.2518,563.50656 2695.3368,575.14756 2698.5608,586.72256 2701.7738,598.25356 2704.9238,609.81956 2707.4578,621.52456 2712.6258,645.40556 2716.6718,669.47856 2719.1178,693.79656 2721.5718,718.19256 2723.1798,742.56356 2722.9808,767.09056 2722.7908,790.65456 2720.6908,814.43756 2717.7688,837.81156 2714.7368,862.07056 2710.5198,886.16156 2704.6398,909.90056 2701.6808,921.84356 2698.3948,933.69556 2695.0378,945.53154 2691.7468,957.13466 2688.5558,968.83466 2684.3988,980.16156 2676.0918,1002.8036 2666.1688,1024.8836 2654.1338,1045.8046 2641.9958,1066.9066 2628.8498,1087.4866 2614.2378,1106.9696 2599.1658,1127.0666 2582.6678,1145.9446 2565.8948,1164.6296 2549.8298,1182.5266 2532.8918,1199.7316 2514.8648,1215.6616 2496.0788,1232.2646 2476.8978,1248.3126 2457.1558,1263.7656 2438.2988,1278.5276 2418.9668,1292.7306 2399.3188,1306.4206 2378.7018,1320.7866 2357.7538,1334.6106 2336.4758,1347.9776 2326.4088,1354.3016 2316.0058,1360.1326 2305.6418,1365.9516 2295.0348,1371.9086 2284.3858,1378.0166 2273.4448,1383.3436 2250.7338,1394.3986 2227.7768,1404.7266 2204.3888,1414.2665 2181.7848,1423.4875 2159.0678,1432.2695 2136.0228,1440.3345 2117.4118,1446.8465 2098.5568,1452.4975 2079.5058,1457.5605" id="ocean"/>
  <path class="landxx dza" d="M 1208.8563,523.43755 1209.3663,512.56555 C 1208.8952,509.64211 1213.3773,508.67755 1214.9913,507.20755 1215.7915,506.47876 1217.0995,504.98963 1218.3312,505.06637 1219.4027,505.13317 1219.6506,503.5187 1221.0593,503.24555 1223.3526,502.80087 1224.5286,505.02464 1225.9076,501.98564 1226.3356,501.04464 1227.7643,501.43864 1228.5853,501.33064 1230.0633,501.13464 1231.5523,500.93355 1232.9473,500.41755 1235.7493,499.38155 1235.8651,496.37237 1238.2541,495.11037 1239.2391,494.58937 1240.5283,494.53155 1241.5673,494.14755 1242.8463,493.67355 1243.6863,492.23955 1245.0053,491.97455 1245.4883,491.87755 1248.0874,491.66637 1247.0244,490.29637 1246.3374,489.41137 1245.2453,489.08855 1246.6553,487.79955 1244.6383,487.24555 1246.4593,485.13155 1247.9393,485.25555 1249.8973,485.41955 1251.7033,484.72155 1252.3973,482.88855 1253.7273,479.37755 1262.7903,482.48755 1265.3753,481.82355 1262.4113,480.48579 1267.5402,478.85219 1265.9293,477.61055 1265.1686,477.02419 1264.3173,476.50655 1263.6993,475.75655 1262.9833,474.88955 1263.3563,473.64655 1262.6533,472.58455 1261.9183,471.47455 1262.3257,470.56109 1262.5377,469.45609 1262.7367,468.42009 1261.9373,468.40755 1262.0493,467.40255 1262.1543,466.46355 1262.1403,465.33237 1262.1519,464.39737 1262.1689,463.14237 1261.3323,462.13455 1262.5763,461.16055 1261.2833,460.63255 1261.8064,459.91182 1261.6194,458.94482 1261.3704,457.65682 1259.1367,457.23882 1258.6477,455.91382 1261.0427,455.90782 1262.0663,455.32655 1264.1013,454.28655 1264.9873,453.83355 1265.5453,453.83255 1266.0803,452.89855 1266.5533,452.07155 1266.9103,451.37755 1267.7893,450.90755 1268.2853,450.64155 1269.2463,449.86955 1269.7703,450.28355 1270.4503,450.82055 1271.3083,449.88755 1271.7603,449.47355 1272.9343,448.40055 1274.5463,451.10155 1275.7463,448.63355 1277.3553,445.32655 1282.9003,443.89555 1286.1483,443.52155 1288.4603,443.25555 1290.7963,442.61955 1293.1263,442.77655 1294.8643,442.89355 1296.0613,440.67755 1297.5693,441.53055 1298.2253,441.90155 1298.0763,441.69355 1298.3263,441.28055 1298.3813,441.19055 1300.9873,441.22855 1301.3753,441.07455 1303.6273,440.18155 1305.9013,440.51855 1308.2693,440.45255 1310.2423,440.39755 1310.7113,440.80655 1312.2133,441.93955 1314.1323,443.38655 1314.7983,441.24655 1316.4623,441.04255 1316.9973,440.97755 1320.3173,440.83355 1320.1353,439.85055 1319.8073,438.08055 1322.2243,439.17055 1322.7993,439.55655 1324.0003,440.36155 1325.8073,440.76855 1327.0383,439.78455 1327.7143,439.24355 1327.2733,438.53955 1328.5603,438.86055 1329.4743,439.08855 1330.1913,439.76055 1331.1853,439.70755 1330.3433,441.09855 1332.4313,440.61155 1333.0913,440.43955 1334.4083,440.09655 1335.8313,440.41755 1337.0953,439.99455 1337.1903,441.78855 1334.9163,442.66755 1333.9253,443.81055 1336.6243,444.39255 1334.0353,448.18755 1334.5803,449.92655 1335.5273,452.94755 1335.1323,455.23055 1334.4953,458.21055 1333.9713,460.66255 1331.2423,462.57255 1329.4193,464.18155 1328.3563,465.11955 1328.8733,467.56955 1329.4943,468.60855 1330.4983,470.28955 1330.0413,472.12155 1332.1103,472.90755 1334.9353,473.97955 1334.1063,477.55855 1336.3833,479.26255 1337.4393,480.05355 1338.6853,480.62555 1339.5793,481.61855 1340.7873,482.96155 1340.9643,485.16255 1341.2453,486.86655 1341.8253,490.38655 1343.4953,494.29755 1343.4953,497.84655 1343.4953,498.80455 1341.4813,498.43809 1342.7803,500.17009 1344.0373,501.84909 1345.0779,503.8229 1345.4933,505.88855 1346.9232,512.99892 1344.8215,512.95496 1345.8933,516.60055 1346.4047,518.33994 1346.4318,519.61146 1345.7558,521.30446 1344.9927,523.21545 1345.6888,525.00182 1346.1035,526.90882 1346.7295,529.79182 1345.4473,529.83764 1343.3983,531.38564 1341.0633,533.15164 1344.9453,536.58155 1345.9583,538.13955 1347.8523,541.05155 1346.7133,544.50855 1349.2323,547.22755 1350.1993,548.27155 1351.3113,547.01955 1352.3433,547.09755 1353.6493,547.19655 1355.0663,548.18155 1356.2923,548.62655 1359.0903,549.64255 1360.0303,551.99055 1361.0623,554.64855 1361.5523,555.90755 1362.0463,556.05955 1360.6823,556.83355 1346.4891,565.88635 1332.1714,574.94385 1320.0763,586.71855 1319.3806,587.73138 1317.1303,590.26255 1315.3823,591.22855 1314.0559,591.96158 1312.1043,592.02855 1310.6423,592.33155 1308.6553,592.74255 1306.6633,593.13255 1304.6783,593.55355 1303.6823,593.76455 1294.9543,596.76355 1295.3293,593.67455 1295.4613,592.58555 1296.2393,592.16355 1296.1323,590.95755 1296.0913,590.49455 1296.2303,588.06264 1295.7481,587.82164 1294.2811,587.08764 1292.4489,586.75173 1290.8299,586.44073 1290.0319,586.28673 1288.9599,584.25714 1288.3505,584.40673 1284.8532,585.26519 1284.3029,581.77993 1283.6743,581.25855 1282.9316,580.64256 1281.6503,580.58655 1280.9703,580.06955 1280.2053,579.48855 1280.8639,578.04546 1280.4039,577.26546 1279.8259,576.28446 1278.8223,575.43055 1277.8813,574.87355 1276.2693,573.91955 1274.7593,572.78655 1273.2823,571.63955 1269.6123,568.79055 1266.0063,565.85655 1262.3533,562.98555 1248.2653,551.90955 1234.1963,540.87455 1219.4563,530.66955 1215.9393,528.22955 1212.4043,525.82455 1208.8563,523.43755" id="dz">
    <title>Algeria</title>
  </path>
  <g class="landxx coastxx eu esp" id="es" transform="translate(-29.9017,-45.0745)">
    <title>Spain</title>
    <path class="landxx eu esp" d="M 1244.018,434.16 C 1244.091,434.04 1244.165,433.92 1244.238,433.8 1243.311,433.88 1243.278,433.091 1243.536,432.434 1243.952,431.375 1244.704,431.658 1245.368,430.942 1246.653,429.556 1249.43,430.209 1251.219,429.409 1249.765,429.469 1250.701,429.055 1251.219,428.761 1250.911,428.874 1250.598,428.97 1250.279,429.049 1250.064,428.104 1253.239,425.682 1253.239,427.249 1253.719,426.961 1254.199,426.673 1254.679,426.385 1254.798,427.448 1258.97,426.963 1258.999,428.761 1260.272,427.117 1264,428.394 1265.759,428.114 1267.272,427.874 1267.662,427.785 1269.25,428.164 1270.94,428.567 1272.657,428.943 1274.378,429.234 1276.724,429.631 1278.873,429.411 1281.022,428.895 1282.38,428.569 1283.985,428.878 1285.175,429.593 1286.802,430.569 1286.556,429.216 1288.064,429.324 1289.39,429.419 1290.685,429.947 1291.986,430.197 1292.774,430.348 1295.2972,429.50609 1295.6432,430.05509 1296.0192,430.65209 1298.3722,429.92709 1297.9482,431.36809 1297.8592,431.67309 1297.4946,432.03809 1297.7566,432.33509 1298.3676,433.02809 1298.178,432.25169 1298.829,432.28499 1300.879,432.38999 1303.5912,434.32139 1304.433,434.64699 1304.8357,434.80275 1305.3213,434.39992 1305.739,434.55299 1306.2766,434.74999 1306.6409,435.53847 1307.146,435.43299 1308.5594,435.13783 1310.3485,435.20469 1312.058,435.67299 1311.827,435.04697 1312.071,434.60519 1312.418,434.16099 1313.2861,434.17699 1313.9145,434.24869 1315.4485,435.20206 1316.7183,435.23916 1317.9024,435.66135 1317.598,437.76099 1319.3375,437.48424 1319.2328,436.23114 1319.3485,437.09462 1319.6765,437.28162 1321.4176,438.33945 1321.8336,438.20445 1322.3166,438.04745 1322.7756,437.68598 1323.335,437.90899 1324.401,438.33398 1325.5386,438.75181 1326.417,438.03959 1327.0878,437.49575 1327.7238,437.57381 1329.333,437.7458 1329.9493,437.8117 1329.452,438.80699 1330.199,438.69799 1330.189,439.46599 1329.717,439.23099 1329.281,439.57999 1328.636,440.09699 1329.281,441.37399 1329.246,442.04299 1329.162,443.89299 1325.12,445.22899 1323.756,445.79399 1322.734,446.21799 1322.462,447.18299 1321.611,447.58699 1320.584,448.07499 1319.167,448.05999 1318.067,448.33699 1315.398,449.00899 1313.783,450.16899 1311.63,451.65799 1313.303,452.99499 1311.716,453.24999 1310.577,453.90299 1308.904,454.86199 1308.576,457.17399 1306.935,458.22299 1304.136,460.01199 1303.147,465.13799 1305.451,467.58699 1306.853,469.07799 1307.984,469.53099 1305.673,470.97499 1304.335,471.81099 1303.322,472.16299 1302.235,473.35499 1301.591,474.06099 1301.01,475.14199 1300.562,476.16999 1300.281,476.81499 1299.963,477.53799 1299.946,478.25399 1299.932,478.85099 1300.913,479.65899 1300.32,478.22499 1301.235,479.73699 1297.512,479.85099 1296.792,479.93699 1295.053,480.14599 1292.64,481.72499 1292.22,483.43999 1291.86,484.91399 1290.636,487.54099 1289.057,486.26699 1288.092,485.48699 1287.371,486.53699 1286.569,486.86599 1285.411,487.34199 1284.157,486.62599 1282.929,486.82699 1280.369,487.24699 1277.817,486.95299 1275.201,487.00399 1273.804,487.03099 1273.494,487.29199 1272.48,488.24099 1271.32,489.32599 1269.793,488.88099 1268.453,489.55099 1267.785,489.88399 1267.129,492.13299 1266.531,492.07399 1265.785,492.00099 1265.984,493.22899 1264.829,493.20099 1263.896,493.17899 1263.192,491.57799 1262.302,491.67499 1261.331,491.78099 1260.593,489.75099 1260.359,489.02599 1261.643,488.80099 1260.046,487.87699 1259.668,487.58499 1258.756,486.88199 1259.843,485.67699 1260.719,485.42499 1260.172,485.24899 1259.899,485.54499 1259.859,486.07299 1259.389,485.57199 1255.548,482.97199 1256.399,482.18399 1255.071,482.03799 1256.374,482.73899 1254.951,482.77099 1254.313,482.78599 1253.522,483.02699 1252.897,482.79799 1252.004,482.47199 1252.035,480.18699 1252.16,479.44799 1252.269,478.80199 1252.776,478.31799 1253.209,477.87299 1253.741,477.32599 1253.805,476.46599 1254.272,476.00699 1255.345,474.95199 1255.793,475.76599 1256.48,474.11999 1255.106,474.57399 1253.998,472.75199 1253.96,471.59899 1253.901,469.80699 1255.981,468.93299 1256.487,467.34999 1256.761,466.49299 1255.133,465.34699 1254.75,464.58999 1254.427,463.95099 1254.75,463.57799 1254.275,463.02999 1253.879,462.56999 1253.345,462.07799 1253.089,461.51799 1254.002,461.77299 1254.96,461.58999 1255.887,461.58999 1256.85,461.58999 1256.5872,461.02509 1256.923,460.42799 1257.342,459.68299 1258.1828,459.5815 1257.263,457.31399 1256.9915,456.64478 1258.217,456.29699 1258.343,456.23799 1258.989,455.92999 1258.759,455.01399 1258.733,454.45899 1258.713,454.02999 1258.932,449.77399 1258.373,449.91099 1259.375,449.66699 1259.849,448.57329 1260.812,447.96499 1261.3677,447.61399 1263.768,445.56287 1263.4815,444.98545 1263.1284,444.27397 1261.2937,444.42479 1261.2212,443.98926 1261.1085,443.31255 1261.606,441.44722 1260.8859,442.07199 1260.3968,442.49639 1257.0177,441.5569 1256.939,442.14499 1256.7756,443.36567 1254.806,442.91599 1254.124,442.63799 1253.031,442.19099 1251.9149,442.70689 1250.884,443.07699 1248.7656,443.83742 1250.057,441.64999 1250.861,441.06899 1250.234,441.15299 1249.966,440.80499 1250.071,440.20499 1249.45,440.79599 1248.613,440.81699 1247.825,440.95999 1246.836,441.13999 1246.255,441.94299 1245.39,442.36499 1244.601,440.30199 1246.885,440.07799 1247.4,438.47599 1247.026,439.17999 1246.27,439.40099 1245.53,439.41299 1245.688,438.58999 1246.468,438.26199 1247.12,437.90099 1246.463,438.18999 1245.48,438.26299 1245.53,437.25299 1245.566,436.53299 1246.704,436.25799 1246.83,435.52499 1246.193,436.12099 1245.183,436.06199 1244.81,436.96399 1244.092,435.92399 1245.24,435.08699 1245.96,434.51599 1245.232,435.10399 1244.301,435.26599 1244.018,434.15999" id="path5998"/>
    </g>
  </svg>