<svg xmlns="http://www.w3.org/2000/svg" class="world_map zoom4" height="127" id="svg2985" version="1.1" viewBox="1122 626 64 33" width="127">
  <title>World Map</title>
  <defs id="defs2987"/>
  <defs>
    <link xmlns="http://www.w3.org/1999/xhtml" href="../css/svg.css" type="text/css" rel="stylesheet"/>
  </defs>
  <style id="style_css_sheet" type="text/css">
/*
 * Below are Cascading Style Sheet (CSS) definitions in use in this file,
 * which allow easily changing how countries are displayed.
 *
 */
/* --- Custom styles for Peace Corps --- */
.world_map .world_map-is_selected {
  fill: #C94112 !important;
}
.world_map .landxx {
  fill: #F2EFE8;
  stroke: #ffffff;
  fill-rule: evenodd;
}
.world_map.zoom4 .landxx {
  stroke-width: 2px;
}
.world_map.zoom3 .landxx {
  stroke-width: 3px;
}
.world_map.zoom2 .landxx {
  stroke-width: 4px;
}
.world_map.zoom1 .landxx {
  stroke-width: 5px;
}
.world_map .coastxx {
  fill: #F2EFE8;
  stroke: #ffffff;
  stroke-width: 2px;
  fill-rule: evenodd;
}
.world_map .oceanxx {
  opacity: 1;
  color: #ccc;
  fill: #ffffff;
  stroke: #ffffff;
  stroke-width: 0.5;
  stroke-miterlimit: 1;
}

/* --- Original Styles --- *
/*
 * Circles around small countries
 *
 * Change opacity to 1 to display all circles.
 *
 */
.circlexx
{
   opacity:0;
   fill:#e0e0e0;
   stroke:#000000;
   stroke-width:0.5;
}

/*
 * Smaller circles around French DOMs and Chinese SARs
 *
 * Change opacity to 1 to display all subnational circles.
 *
 */
.subxx
{
   opacity:0;
   stroke-width:0.3;
}

/*
 * Circles around small, unrecognized countries
 *
 * Change opacity to 1 to display all circles.
 *
 */
.unxx
{
   opacity:0;
   fill:#e0e0e0;
   stroke:#000000;
   stroke-width:0.3;
}

/*
 * Circles around small countries, but with no permanent residents 
 *
 * Change opacity to 1 to display all circles.
 *
 */
.noxx
{
   opacity:0;
   fill:#e0e0e0;
   stroke:#000000;
   stroke-width:0.5;
}

/*
 * land
 */
.landxx
{
}
/*
 * Styles for coastlines of islands with no borders
 */


/*
 * Styles for nations with limited recognition
 */
.limitxx
{
   fill: #e0e0e0;
   stroke:#ffffff;
   stroke-width:0;
   fill-rule:evenodd;
}

/*
 * Styles for nations with no permanent population.
 */
.antxx
{
   fill: #e0e0e0;
   stroke:#ffffff;
   stroke-width:0;
   fill-rule:evenodd;
}

/*
 * Ocean
 */


/*
 * Additional style rules
 *
 * The following are examples of colouring countries.  You can substitute these with your own styles to colour the countries on the map.
 *
 * Color a few countries:
 *
 * .gb, .au, .nc
 * {
 *    fill:       #ff0000;
 * }
 *
 * Color a few small country circles (and the countries):
 *
 * .ms, .ky
 * {
 *    opacity:    1;
 *    fill:       #ff0000;
 * }
 *
 */

</style>
  <path class="oceanxx" d="M 2079.5058,1457.5605 615.24779,1457.5605 C 615.13079,1457.5605 615.07079,1457.5505 614.95179,1457.5215 611.67679,1456.6515 608.40179,1455.7815 605.12779,1454.9105 599.15079,1453.3225 593.22879,1451.5225 587.30779,1449.7385 564.39379,1442.8315 541.76579,1434.6995 519.46979,1426.0115 495.81079,1416.7935 472.34979,1407.0946 449.19179,1396.6816 426.78379,1386.6056 405.17679,1375.0536 383.76379,1363.0356 363.11779,1351.4496 343.01079,1338.8296 323.37979,1325.5996 302.29179,1311.3876 281.47879,1296.8506 261.05379,1281.7006 242.35079,1267.8276 223.73679,1253.6306 206.05279,1238.4686 186.98679,1222.1216 167.82379,1205.7706 150.35279,1187.6906 132.97779,1169.7106 116.33279,1151.0606 100.15679,1131.9976 84.352777,1113.3736 70.086776,1093.4716 56.901786,1072.9246 44.046786,1052.8916 32.093776,1032.1356 22.469776,1010.3426 17.516776,999.12753 12.408776,987.76556 8.7017761,976.06056 5.0657761,964.58166 1.5997761,953.04259 -1.5932239,941.43054 -8.0102239,918.09356 -14.055224,894.78356 -18.234224,870.92056 -22.491222,846.60856 -24.894222,822.19856 -26.943222,797.62156 -28.947222,773.58556 -28.829222,749.40156 -27.225222,725.34856 -25.648222,701.69856 -23.363222,677.92456 -19.274222,654.56456 -15.018224,630.25156 -9.3842239,606.45156 -2.8412239,582.66156 3.5687761,559.35256 10.483776,536.34856 20.265776,514.19856 30.320776,491.42956 42.318786,469.90956 55.502786,448.81656 68.512776,428.00356 83.108777,408.26756 98.686787,389.31756 113.73479,371.01156 129.68979,353.25256 146.15179,336.20856 163.77479,317.96256 182.64579,301.14556 201.89579,284.64756 220.33379,268.84456 239.55379,253.98456 258.95979,239.39656 278.42779,224.76056 298.39379,210.83356 318.55579,197.17556 339.26979,183.14456 360.47879,169.92056 382.15079,157.42556 403.46579,145.13656 425.31479,133.98856 447.60479,123.59356 469.58579,113.34356 492.14979,104.17656 514.74579,95.37556 537.44879,86.532565 560.37879,78.195565 583.63479,70.914565 589.69379,69.017565 595.80079,67.276565 601.90879,65.549565 604.63079,64.779565 607.36079,64.045565 610.09479,63.318565 611.59979,62.918565 613.56579,61.986565 615.13379,61.986565 L 2079.9638,61.986565 C 2079.9798,61.986565 2079.9958,61.986565 2080.0118,61.986565 2079.8448,61.986565 2079.6788,61.986565 2079.5118,61.986565 2102.8268,68.191565 2125.8778,75.323565 2148.5448,83.611565 2171.6378,92.054565 2194.6158,100.87956 2217.2348,110.52956 2240.5208,120.46556 2263.4848,130.95256 2285.8828,142.76456 2306.9808,153.89056 2327.8178,165.78556 2347.8608,178.72156 2368.9418,192.32656 2389.7498,206.29256 2410.2218,220.80056 2429.7368,234.62956 2448.9938,248.98756 2467.6208,263.99256 2486.8818,279.50856 2506.0408,295.30556 2524.0538,312.27356 2541.8708,329.05756 2558.7508,346.67256 2574.9408,365.03656 2591.2478,383.53256 2607.1478,402.30656 2621.4508,422.41856 2635.3488,441.96256 2648.4468,462.42756 2659.5898,483.67756 2671.1238,505.67356 2681.1048,528.35656 2688.6188,552.05056 2692.2518,563.50656 2695.3368,575.14756 2698.5608,586.72256 2701.7738,598.25356 2704.9238,609.81956 2707.4578,621.52456 2712.6258,645.40556 2716.6718,669.47856 2719.1178,693.79656 2721.5718,718.19256 2723.1798,742.56356 2722.9808,767.09056 2722.7908,790.65456 2720.6908,814.43756 2717.7688,837.81156 2714.7368,862.07056 2710.5198,886.16156 2704.6398,909.90056 2701.6808,921.84356 2698.3948,933.69556 2695.0378,945.53154 2691.7468,957.13466 2688.5558,968.83466 2684.3988,980.16156 2676.0918,1002.8036 2666.1688,1024.8836 2654.1338,1045.8046 2641.9958,1066.9066 2628.8498,1087.4866 2614.2378,1106.9696 2599.1658,1127.0666 2582.6678,1145.9446 2565.8948,1164.6296 2549.8298,1182.5266 2532.8918,1199.7316 2514.8648,1215.6616 2496.0788,1232.2646 2476.8978,1248.3126 2457.1558,1263.7656 2438.2988,1278.5276 2418.9668,1292.7306 2399.3188,1306.4206 2378.7018,1320.7866 2357.7538,1334.6106 2336.4758,1347.9776 2326.4088,1354.3016 2316.0058,1360.1326 2305.6418,1365.9516 2295.0348,1371.9086 2284.3858,1378.0166 2273.4448,1383.3436 2250.7338,1394.3986 2227.7768,1404.7266 2204.3888,1414.2665 2181.7848,1423.4875 2159.0678,1432.2695 2136.0228,1440.3345 2117.4118,1446.8465 2098.5568,1452.4975 2079.5058,1457.5605" id="ocean"/>
  <path class="landxx mli" d="M 1178.5463,631.79755 C 1179.8973,631.47255 1180.5003,632.20355 1181.5993,630.79455 1182.5263,629.60555 1182.1103,627.04555 1182.5633,625.56355 1183.5913,622.17855 1188.2933,627.78655 1188.7763,628.84555 1189.6743,626.38355 1191.1693,625.03455 1194.0003,626.18355 1195.8613,626.93855 1199.8063,626.80455 1200.2163,624.23655 1201.2763,626.80455 1206.5013,625.65655 1208.5463,625.50055 1213.5483,625.11855 1218.6803,625.38955 1223.6953,625.38955 1225.4613,625.38955 1227.6374,625.18382 1229.3838,625.36215 1230.6668,625.49318 1230.2948,623.36008 1230.4193,622.26353 1230.5603,621.02183 1231.7691,618.63 1230.4713,617.80553 1228.2296,616.38135 1228.8296,615.12309 1228.8443,613.31353 L 1223.6153,543.23753 1236.8626,543.24453 C 1250.5584,553.50818 1263.4102,563.72688 1276.3665,573.90557 1277.9234,575.03139 1280.8498,576.15875 1280.6323,578.50263 1280.5643,579.23622 1280.4606,579.88986 1281.7742,580.41686 1282.4129,580.67308 1283.1226,580.85209 1283.6646,581.21409 1284.5696,581.81809 1284.4206,582.90409 1285.1436,583.62709 1285.8316,584.31509 1286.5499,584.40946 1287.4373,584.56295 1288.0818,584.67442 1287.6054,583.97027 1288.7594,584.54365 1289.587,584.95491 1289.9463,586.05092 1290.8923,586.34892 1292.3663,586.81492 1294.3411,586.9387 1295.7061,587.7457 1296.7021,588.3347 1296.4128,591.10306 1295.9888,592.06706 1295.3988,593.40806 1294.5388,594.68019 1296.6728,594.98519 1298.9298,595.30919 1301.4862,594.10733 1303.7162,593.83033 1303.4264,599.97333 1304.3028,606.49782 1303.5068,612.58246 1303.4148,613.28151 1303.631,613.75792 1303.1053,617.08792 1302.9335,618.17644 1303.3182,616.78808 1301.7928,619.98892 1301.3242,620.97202 1301.3513,622.16092 1300.9243,623.17492 1300.5123,624.15192 1299.5603,624.44992 1298.7813,625.05192 1297.8233,625.79092 1298.4763,626.76492 1297.1623,626.54092 1296.8623,626.48992 1294.2403,625.78992 1294.1203,626.24392 1293.8053,627.43192 1285.6115,627.03024 1284.3695,627.12924 1281.3285,627.37124 1281.3913,626.99792 1279.2393,629.35092 1278.5643,630.08992 1277.2363,630.35192 1276.2893,630.14292 1275.7413,630.04292 1274.4873,630.03078 1273.9313,630.04482 1272.9413,630.02582 1273.0053,629.26496 1273.0053,630.50396 1272.2873,630.23296 1271.6019,629.88887 1270.8933,629.59196 1269.189,628.87783 1268.7799,630.07489 1268.1338,629.59796 1267.505,629.13363 1266.4288,628.5253 1265.0153,629.7851 1263.5425,631.09778 1261.4052,632.19329 1260.564,632.75677 1259.1505,633.70348 1258.1129,634.44913 1256.6673,634.8131 1255.479,635.11229 1256.4463,637.6291 1254.6863,636.8581 1253.6033,636.3841 1252.6158,635.72583 1251.4678,636.52083 1250.4918,637.19783 1249.9643,638.4421 1249.6073,639.5111 1249.4033,640.1221 1249.1267,641.1026 1248.8397,641.6816 1248.5907,641.51044 1246.9973,641.12161 1246.3653,641.0171 1246.9313,642.0271 1246.3843,643.5201 1246.5153,644.6181 1245.5413,644.5841 1244.7613,644.4251 1245.0053,645.6261 1243.9713,645.5231 1240.9853,644.0111 1241.0453,642.7451 1239.1497,647.2856 1237.7443,645.14461 1238.7023,646.7631 1239.2324,647.6586 1239.2524,648.33731 1239.0389,649.10937 1238.9519,649.42445 1236.6752,649.02517 1237.2282,649.97901 1238.2474,651.7373 1237.7975,653.63036 1235.8237,655.29735 1234.9056,656.07273 1233.8113,655.7581 1232.7003,655.9601 1231.6623,656.1481 1231.0803,657.2751 1229.9553,657.2191 1231.9533,657.72084 1230.5053,658.76258 1231.1116,659.11497 1232.1402,659.7129 1231.2631,662.35853 1230.6954,663.30385 1230.5081,663.61585 1229.4368,663.74684 1229.5013,664.0471 1229.8267,665.5611 1230.0235,667.4321 1228.9803,668.7951 1228.5615,669.34234 1227.3393,669.3221 1226.7483,669.4861 1225.5113,669.8301 1226.1523,671.4731 1224.5893,671.3301 1222.8573,671.1711 1223.9943,667.7181 1223.4053,666.6501 1222.7323,666.9281 1222.6053,668.1311 1221.9653,668.3061 1221.2983,668.4881 1220.7923,667.5691 1220.3053,667.2981 1220.2663,668.1161 1220.7043,670.1681 1219.4673,670.1501 1218.5413,670.1351 1217.2403,670.2071 1218.0063,671.4741 1216.8723,671.9761 1214.0333,670.5751 1214.1863,669.1701 1213.6033,669.4291 1212.6603,669.1301 1212.2163,669.6641 1211.5203,670.5021 1211.6113,671.5001 1210.2263,671.6181 1211.2483,669.7151 1207.8733,669.4341 1207.8653,667.8151 1207.8653,666.7801 1208.1253,665.5721 1207.8823,664.5651 1207.5353,663.1291 1205.6293,664.8081 1204.9663,664.7771 1205.2193,663.8551 1205.9523,661.4201 1207.3463,661.8971 1207.8503,660.5081 1204.9923,659.9951 1204.8263,658.6571 1203.9183,659.1731 1204.0003,658.1521 1204.0833,657.5711 1204.2693,656.2591 1203.7423,655.7541 1203.1873,654.6551 1202.7503,653.7891 1203.3003,652.5621 1202.2833,652.0551 1201.8873,651.8571 1200.5053,651.0911 1200.0953,651.4771 1199.6443,651.9011 1201.0973,652.9681 1200.1203,653.4291 1199.0133,653.9511 1198.1413,654.8371 1197.0233,655.3951 1196.2483,655.7821 1195.3803,654.6671 1194.7463,654.4081 1193.3763,653.8491 1192.3203,653.9491 1191.3493,655.1061 1188.9083,658.0161 1190.2473,654.5501 1188.1273,653.8331 1186.7503,653.3681 1185.2953,657.7711 1183.9453,654.3741 1183.5133,653.2881 1185.3083,652.2941 1184.4393,651.0681 1183.9393,650.3621 1184.3313,648.6791 1184.6023,647.9401 1184.9213,647.0681 1182.2663,642.0991 1181.7173,644.2571 1181.0933,644.0801 1180.1003,642.1471 1179.8253,641.5601 1179.5783,641.0321 1180.3763,639.9741 1180.3463,638.9291 1180.3023,637.3591 1180.4813,636.6911 1179.3703,635.4561 1178.9843,635.0271 1178.5803,634.5151 1178.8373,633.8971 1179.2753,632.8381 1178.9703,632.8391 1178.5463,631.7981" id="ml">
    <title>Mali</title>
  </path>
  <g class="landxx coastxx gnb" id="gw" transform="translate(-29.9017,-45.0745)">
    <title>Guinea-Bissau</title>
    <path d="M 1177.348,702.216 C 1178.008,701.888 1177.911,701.648 1177.058,701.496 1177.154,701.736 1177.251,701.976 1177.348,702.216" id="path3432"/>
    <path d="M 1179.218,701.784 C 1178.855,701.807 1178.495,701.855 1178.138,701.928 1178.204,702.982 1179.518,702.813 1179.218,701.784" id="path3436"/>
    <path class="landxx gnb" d="M 1174.038,698.04 C 1174.735,697.556 1175.646,697.923 1176.395,697.586 1177.199,697.225 1177.946,696.768 1178.858,696.744 1180.786,696.692 1182.536,697.202 1184.148,695.808 1185.566,694.58 1187.351,694.944 1189.063,694.944 1191.662,694.944 1194.26,694.944 1196.859,694.944 1196.639,695.954 1197.761,697.126 1196.859,698.012 1196.37,698.493 1195.03,698.383 1194.836,699.119 1194.561,700.163 1198.281,700.974 1196.434,703.056 1195.482,704.128 1194.084,703.553 1192.886,703.756 1191.761,703.946 1190.419,704.837 1189.263,705.184 1187.275,705.78 1188.228,709.26 1186.197,709.992 1185.71,708.117 1185.446,707.871 1183.757,707.04 1183.908,706.766 1184.074,706.502 1184.257,706.248 1182.809,707.331 1184.188,702.897 1186.267,704.519 1185.766,703.108 1184.493,704.049 1183.757,704.664 1183.049,703.401 1182.924,702.551 1184.477,702 1185.8,701.531 1186.269,702.949 1187.497,702.864 1186.838,702.599 1186.45,701.758 1187.067,701.208 1186.586,701.044 1186.131,701.106 1185.702,701.392 1184.996,701.777 1184.407,701.303 1183.677,701.424 1182.968,701.542 1182.515,702.083 1181.987,702.504 1181.302,703.05 1180.377,702.965 1179.577,703.152 1179.627,701.845 1180.722,701.424 1181.597,700.704 1180.354,700.582 1179.369,701.876 1178.137,701.608 1175.736,701.086 1177.277,698.958 1178.428,698.183 1177.968,698.232 1177.511,698.304 1177.058,698.399 1176.819,698.688 1176.556,698.952 1176.268,699.192 1175.377,699.229 1174.881,698.177 1174.036,698.04" id="path3444"/>
  </g>
  <g class="landxx coastxx mrt" id="mr" transform="translate(-29.9017,-45.0745)">
    <title>Mauritania</title>
    <path class="landxx mrt" d="M 1174.038,624.96 C 1173.834,623.583 1173.952,622.63231 1174.5022,621.30676 1174.656,620.93615 1175.1676,620.04229 1176.1362,619.992 L 1204.0196,619.9601 C 1205.4377,619.21303 1204.4635,613.05083 1204.369,610.67896 1204.196,608.29496 1203.955,606.74211 1205.8662,604.93332 1207.4667,603.41858 1207.4139,603.80466 1212.4988,601.7256 L 1213.6158,579.89333 1238.4949,579.60169 1238.8293,568.53078 C 1248.3013,574.90378 1257.5966,581.46796 1266.7336,588.31296 1262.3396,588.31296 1257.911,588.31296 1253.518,588.31296 L 1258.9415,661.22389 C 1259.3879,662.41642 1260.6158,662.93046 1260.725,663.20909 1261.4513,665.06351 1260.4953,665.62417 1260.4268,667.05312 1260.3468,668.72762 1260.1813,670.2358 1259.6934,670.41556 L 1243.8056,670.43456 C 1234.7811,670.74684 1230.9156,671.98294 1230.118,669.31396 1229.733,671.72996 1226.1541,672.12498 1224.389,671.42396 1221.6014,670.31683 1219.8215,670.78351 1218.679,673.92196 1218.0302,672.85057 1217.0856,671.93694 1216.118,671.00396 1214.9715,669.89845 1213.8663,669.30557 1213.2574,669.64318 1210.9685,670.91226 1214.1631,677.29354 1208.5413,676.89057 1208.5703,676.99271 1207.0251,675.79755 1206.6158,675.01503 1206.1101,674.04807 1205.5263,674.35618 1204.556,673.52796 1203.505,672.63085 1203.5789,671.16703 1202.7168,670.59395 1200.4084,669.05944 1201.3234,669.04029 1201.109,667.99971 1200.8449,666.71833 1199.5407,665.08635 1198.888,665.07696 1195.4916,665.02806 1195.2482,662.2719 1193.0458,661.21075 1191.9347,660.6754 1190.9663,660.39252 1189.4684,660.34358 1187.1356,660.26738 1186.3333,662.54717 1180.9789,662.14735 1179.8502,662.06305 1180.0008,661.30918 1179.0395,661.5822 1178.1062,661.92382 1177.0088,664.92762 1176.6368,665.71496 1176.6368,660.51296 1180.061,656.26996 1180.555,651.17096 1180.852,648.10096 1180.428,645.50496 1180.043,642.49896 1179.904,641.41496 1179.939,640.22596 1179.25,639.30696 1178.649,638.50496 1177.601,637.93496 1177.49,636.84296 1178.292,637.09296 1179.175,636.49796 1179.08,635.61896 1178.538,635.76396 1178.105,636.17096 1177.92,636.69896 1178.117,635.65496 1178.959,634.92196 1179.417,634.00496 1179.713,633.41196 1179.284,632.46396 1179.631,632.06696 1181.196,630.27496 1178.8,627.09696 1178.21,625.32296 1177.966,625.75096 1177.799,626.20696 1177.71,626.69096 1176.122,625.48896 1176.501,623.00296 1174.9,621.79496 1174.645,622.85696 1174.261,623.88696 1174.038,624.95996" id="path3882"/>
  </g>
  <g class="landxx coastxx gin" id="gn" transform="translate(-29.9017,-45.0745)">
    <title>Guinea</title>
    <path class="landxx gin" d="M 1186.778,709.704 C 1187.775,708.462 1187.676,706.427 1188.939,705.368 1189.795,704.651 1191.454,704.505 1192.477,703.971 1193.497,703.438 1194.553,704.084 1195.599,703.528 1196.287,703.162 1196.8688,702.50362 1196.77,701.687 1196.6227,700.46957 1194.4683,699.98693 1194.8198,699.04382 1195.1351,698.1978 1196.8497,698.44847 1197.0806,697.59396 1197.3396,696.6356 1196.6179,695.25931 1196.8791,694.96206 L 1200.4947,694.95206 C 1201.0161,695.08706 1201.6016,695.485 1201.9798,695.51368 1202.2618,695.59918 1201.6252,697.23211 1202.7298,696.56125 1203.4878,696.10091 1205.0583,697.15837 1205.4756,697.49006 1205.5336,697.53596 1207.1488,698.03026 1207.1078,698.03426 1208.1608,697.93326 1208.9082,697.13056 1210.0512,697.25528 1211.7148,697.43681 1213.3671,696.71704 1214.569,697.24828 1213.9883,698.41121 1213.1248,699.27042 1214.689,700.58509 1215.5773,701.33165 1216.9048,698.47917 1217.9402,698.87288 1220.4365,699.82212 1218.8232,702.81589 1221.0142,700.32268 1223.8215,697.12809 1225.5352,700.78741 1226.599,700.51827 1227.2343,700.35755 1227.6502,699.75773 1228.228,699.27528 1228.6998,698.88134 1229.8531,698.76972 1230.0769,698.39428 1230.5096,697.66829 1228.7449,695.95195 1231.19,696.58128 1231.7133,696.71597 1232.974,697.31352 1232.875,698.29928 1232.842,698.6258 1233.2901,700.29927 1233.521,700.51728 1234.6843,701.61588 1233.298,704.50191 1234.73,703.72828 1234.9146,705.16474 1237.5802,705.23182 1237.299,706.94327 1236.6631,706.97347 1236.4072,706.93247 1235.999,707.42628 1235.435,708.10856 1235.102,709.00828 1234.871,709.84828 1235.616,709.72627 1236.0489,709.11152 1236.904,709.01928 1238.2922,708.86954 1237.8763,710.64762 1237.8442,711.63555 1237.8202,712.36253 1237.4978,713.55546 1238.839,714.30092 1239.0917,714.44139 1240.2122,715.17599 1240.3863,715.83355 1240.6205,716.71852 1239.7726,717.14483 1239.09,717.65119 1238.6488,717.97845 1238.6443,719.47096 1238.6505,720.14946 1238.6625,721.40778 1239.1019,724.21398 1240.852,723.09628 1240.456,725.07728 1240.668,724.78928 1241.792,726.12028 1240.44,726.32328 1240.435,727.44428 1240.062,728.49628 1242.109,728.83328 1241.916,730.59228 1242.432,732.16828 1241.3763,731.80265 1238.2866,730.59444 1237.9021,731.62155 1237.3977,732.96893 1239.421,734.31028 1240.062,735.26428 1239.2954,734.87074 1238.7552,736.33528 1238.7661,736.38747 1238.9323,737.18471 1239.207,736.92443 1239.0522,737.41595 1238.8948,737.91533 1238.0205,739.19015 1238.0327,739.2959 1237.8212,739.11202 1236.7267,738.5788 1236.1259,739.10814 1235.8046,739.39121 1236.2079,738.5446 1235.2418,738.06356 1234.3033,737.73199 1233.9961,739.73629 1233.7662,740.19501 1233.0996,741.52502 1232.606,741.80228 1231.132,742.39228 1231.05,740.71328 1229.678,740.44628 1228.322,740.95328 1228.697,739.85428 1228.9327,738.72534 1228.9719,737.55828 1228.9869,737.11333 1228.8382,734.68057 1228.7024,734.90747 1228.6114,735.07458 1228.4303,735.51726 1228.4109,734.06455 1228.4109,733.84176 1227.8881,733.03989 1228.3699,732.40879 1226.057,729.75758 1225.8896,731.18426 1225.523,730.99601 1224.7438,731.62036 1224.4979,731.22119 1223.4257,731.11146 1222.6868,731.03586 1221.8893,731.22228 1221.2723,731.59228 1220.8923,731.82128 1219.2773,732.67028 1219.1123,733.03228 1218.9554,731.57967 1220.9419,729.70354 1220.6193,729.26628 1219.3528,727.54944 1221.2917,727.02927 1219.3172,725.76446 1218.7226,725.38359 1219.5247,724.73203 1219.2322,724.19364 1217.1275,720.32603 1216.328,717.32575 1211.5919,718.03919 1210.3164,718.23133 1210.0053,718.62984 1208.8817,718.8861 1206.9061,719.33665 1206.2886,718.3253 1205.4427,720.25928 1204.7653,721.80813 1204.2113,723.60346 1203.2347,724.04037 1202.3536,724.43455 1202.2924,724.75582 1201.8853,725.62874 1201.4016,726.6661 1200.1637,725.82828 1199.4527,726.48028 1199.3697,725.80928 1199.8017,725.32128 1200.4627,725.25628 1200.3167,724.97828 1200.1237,724.73828 1199.8827,724.53628 1199.7047,724.76828 1199.5377,725.00828 1199.3827,725.25628 1199.3207,724.77728 1199.2977,724.29828 1199.3127,723.81628 1199.0497,723.84028 1198.7857,723.86428 1198.5227,723.88828 1198.7487,722.99728 1197.4497,722.82828 1198.0127,721.94528 1196.6907,723.27828 1197.3367,719.82828 1196.8627,719.49728 1196.9327,720.07528 1196.6097,720.28628 1196.0727,720.14428 1196.3027,719.63628 1196.4697,719.10828 1196.5727,718.56028 1196.2627,719.62028 1195.5647,719.25228 1194.9127,718.77728 1193.9857,718.10128 1194.4687,717.62228 1194.1227,716.68928 1193.6297,716.86628 1193.2967,717.20228 1193.1227,717.69728 1193.0127,715.88328 1189.1767,716.03728 1190.2427,713.73728 1189.9157,713.85528 1189.5787,713.92728 1189.2327,713.95328 1189.8017,712.89628 1190.1907,711.71828 1190.5227,710.56828 1190.0867,711.00528 1189.7527,711.50828 1189.5227,712.08128 1189.4037,710.91028 1188.9387,711.51128 1188.5827,712.08128 1188.4137,711.29128 1188.3017,709.61828 1189.3027,709.27328 1188.4987,709.71728 1187.6597,709.69528 1186.7787,709.70328" id="path5400"/>
  </g>
  <path class="landxx sen" d="M 1140.0263,632.08555 C 1139.5863,632.07455 1139.2033,632.21855 1138.8763,632.51755 1138.7493,631.29055 1141.0453,630.90555 1141.7553,630.19855 1143.3023,628.65555 1144.5433,626.58255 1145.4493,624.61155 1145.8833,623.66755 1147.9743,614.67155 1150.1743,616.73655 1151.1633,617.66555 1156.4213,616.73055 1157.2633,615.74955 1158.5633,614.23355 1163.6693,615.93455 1164.7463,617.22155 1166.2013,618.95955 1166.3833,619.66455 1168.7673,619.90755 1170.0643,620.03955 1171.5053,622.57655 1171.2313,623.83155 1171.1043,624.41255 1172.9923,625.43655 1173.3253,626.05055 1173.7413,626.81755 1173.9453,627.70955 1174.5483,628.36555 1175.1393,629.00855 1176.3403,629.08655 1176.7313,629.87755 1177.3023,631.03355 1179.0373,631.67455 1179.1963,633.02355 1179.2683,633.62755 1178.2693,634.33555 1178.9623,634.95455 1179.5373,635.46855 1179.9453,635.80355 1180.0333,636.68655 1180.1273,637.62055 1180.9433,639.88155 1180.1833,640.58755 1179.3933,640.75955 1179.3223,641.14355 1179.9723,641.74055 1180.1313,642.18055 1180.3843,642.55055 1180.7313,642.84855 1181.4173,643.23455 1180.7513,643.98255 1181.7163,644.25555 1182.2373,642.21155 1183.8803,645.76155 1184.1653,646.32255 1184.5903,647.15955 1184.8223,647.79055 1184.5843,648.76155 1184.3153,649.86155 1185.0453,651.27455 1184.6663,652.17455 1183.4223,651.63955 1182.0693,652.47655 1180.7523,652.24655 1179.3813,652.00755 1178.5897,652.80879 1177.2943,652.98555 1175.9703,653.16622 1173.8433,650.81357 1172.7333,651.55055 1171.8658,652.12655 1172.1835,650.50191 1171.9963,650.44655 1170.8246,650.10007 1171.2219,649.89491 1170.2323,649.89319 L 1157.5894,649.87119 C 1155.9353,649.86819 1155.2421,649.96709 1153.9953,650.95155 1152.9023,651.81455 1151.4022,651.73455 1149.7763,651.67755 1148.3682,651.62815 1147.3854,652.46809 1146.0704,652.67909 1145.4124,652.78509 1144.7153,652.56455 1144.1353,652.96755 1144.0023,652.64155 1143.3113,651.93355 1143.6723,651.53755 1144.5793,650.54155 1145.0963,650.04855 1146.2953,650.80955 1147.2003,651.38455 1148.3253,650.49255 1149.2873,650.47355 1149.9913,650.45955 1150.3403,651.00155 1151.0583,650.77355 1151.6153,650.59655 1151.8773,650.71455 1152.3943,650.88255 1153.3133,651.18155 1153.2473,648.86455 1154.2853,648.50355 1152.7423,648.61455 1153.6373,649.92255 1152.6953,650.59155 1151.8853,651.16755 1149.7193,650.39955 1149.4553,649.43955 1148.8933,651.85655 1144.0713,650.09755 1145.1353,648.86355 1144.6833,649.51255 1144.7153,650.59755 1143.7753,650.80755 1143.6133,650.21455 1143.7753,649.73555 1144.2753,649.36855 1142.9903,649.65155 1143.7043,647.72055 1143.9863,646.85955 1144.4093,645.57055 1145.8691,645.49342 1147.0219,645.49037 L 1151.1398,645.47947 C 1151.8993,645.90157 1150.2639,645.2078 1151.6053,644.32556 1152.7764,643.55531 1153.9883,644.08156 1155.1393,643.75556 1156.4183,643.39256 1155.7371,641.57136 1157.4323,642.62692 1159.8043,644.10395 1162.1811,645.64719 1164.9264,644.73364 1165.9757,644.38446 1167.1489,643.35966 1165.8044,642.64229 1164.1226,641.74499 1163.7819,643.0275 1162.4663,642.96556 1161.1296,642.90266 1161.4773,640.90656 1159.9413,641.51956 1159.3603,641.75156 1158.8284,640.94618 1158.6393,640.55756 1158.2494,639.75636 1157.0055,640.03492 1156.2574,640.49506 1155.1911,641.15078 1154.9572,640.11758 1154.3966,640.69971 1153.9872,641.12478 1154.1332,641.66622 1153.6108,641.95743 L 1146.1098,641.91893 C 1146.4148,641.30093 1145.8183,640.88257 1145.0653,640.80257 1145.1883,640.20557 1145.5743,639.96457 1146.1453,640.22657 1146.0123,639.61257 1146.0593,639.01257 1146.2853,638.42657 1145.8493,639.25157 1145.3153,639.86757 1144.3453,640.01057 1144.0853,639.20957 1146.4163,637.15357 1147.2253,637.05857 1146.3443,636.68557 1143.9793,638.81757 1143.9853,639.65057 1143.9863,637.28457 1142.5383,632.99957 1140.0263,632.08557" id="sn">
    <title>Senegal</title>
  </path>
  <g id="gm">
    <title>Gambia</title>
    <path class="world_map-is_selected landxx gmb" d="M 1143.6263,643.89355 C 1145.0423,642.78455 1144.8433,642.84655 1145.5523,644.40855 1146.0893,645.59155 1147.7603,644.00155 1148.5953,644.61455 1146.8033,643.68955 1152.2943,643.14555 1152.6253,642.95855 1151.2083,642.87055 1149.5063,642.92655 1148.1883,643.50555 1147.0543,644.00355 1146.4003,644.33355 1145.6863,643.01955 1145.0503,641.84855 1146.3273,641.83155 1147.1393,641.89355 1149.2763,642.05455 1151.4453,641.95155 1153.5873,641.95155 1154.1403,641.95155 1153.9073,640.22055 1155.1763,640.58055 1156.1973,640.87055 1157.1933,639.61955 1158.2433,640.17055 1158.7743,640.44955 1158.8963,641.13655 1159.4213,641.44855 1159.9283,641.74955 1160.4023,641.20355 1160.9303,641.45455 1161.4893,641.72055 1161.3153,642.56555 1161.9363,642.82855 1162.5953,643.10755 1163.4313,642.58255 1164.0423,642.39855 1164.7683,642.18055 1166.5203,642.32855 1166.4063,643.44855 1166.3023,644.47755 1164.6511,644.84355 1163.8403,644.96055 1160.4287,645.45285 1156.8136,641.51769 1156.3151,642.45664 1155.7368,643.54607 1155.5995,643.91181 1153.4831,643.88046 1152.734,643.86936 1150.6683,644.31955 1151.1233,645.45755 1151.2123,645.67955 1144.4432,644.91791 1144.1632,646.52291 1143.7542,645.72691 1143.4683,644.77755 1143.6263,643.89355" id="gm-"/>
    <circle class="world_map-is_selected circlexx gmb" cx="1154.4216" cy="643.4812" id="gm." r="6.0130301" rx="6.0130301" ry="6.0130301"/>
  </g>
  </svg>