<svg xmlns="http://www.w3.org/2000/svg" class="world_map zoom4" height="127" id="svg2985" version="1.1" viewBox="1313 704 64 69" width="127">
  <title>World Map</title>
  <defs id="defs2987"/>
  <defs>
    <link xmlns="http://www.w3.org/1999/xhtml" href="../css/svg.css" type="text/css" rel="stylesheet"/>
  </defs>
  <style id="style_css_sheet" type="text/css">
/*
 * Below are Cascading Style Sheet (CSS) definitions in use in this file,
 * which allow easily changing how countries are displayed.
 *
 */
/* --- Custom styles for Peace Corps --- */
.world_map .world_map-is_selected {
  fill: #C94112 !important;
}
.world_map .landxx {
  fill: #F2EFE8;
  stroke: #ffffff;
  fill-rule: evenodd;
}
.world_map.zoom4 .landxx {
  stroke-width: 2px;
}
.world_map.zoom3 .landxx {
  stroke-width: 3px;
}
.world_map.zoom2 .landxx {
  stroke-width: 4px;
}
.world_map.zoom1 .landxx {
  stroke-width: 5px;
}
.world_map .coastxx {
  fill: #F2EFE8;
  stroke: #ffffff;
  stroke-width: 2px;
  fill-rule: evenodd;
}
.world_map .oceanxx {
  opacity: 1;
  color: #ccc;
  fill: #ffffff;
  stroke: #ffffff;
  stroke-width: 0.5;
  stroke-miterlimit: 1;
}

/* --- Original Styles --- *
/*
 * Circles around small countries
 *
 * Change opacity to 1 to display all circles.
 *
 */
.circlexx
{
   opacity:0;
   fill:#e0e0e0;
   stroke:#000000;
   stroke-width:0.5;
}

/*
 * Smaller circles around French DOMs and Chinese SARs
 *
 * Change opacity to 1 to display all subnational circles.
 *
 */
.subxx
{
   opacity:0;
   stroke-width:0.3;
}

/*
 * Circles around small, unrecognized countries
 *
 * Change opacity to 1 to display all circles.
 *
 */
.unxx
{
   opacity:0;
   fill:#e0e0e0;
   stroke:#000000;
   stroke-width:0.3;
}

/*
 * Circles around small countries, but with no permanent residents 
 *
 * Change opacity to 1 to display all circles.
 *
 */
.noxx
{
   opacity:0;
   fill:#e0e0e0;
   stroke:#000000;
   stroke-width:0.5;
}

/*
 * land
 */
.landxx
{
}
/*
 * Styles for coastlines of islands with no borders
 */


/*
 * Styles for nations with limited recognition
 */
.limitxx
{
   fill: #e0e0e0;
   stroke:#ffffff;
   stroke-width:0;
   fill-rule:evenodd;
}

/*
 * Styles for nations with no permanent population.
 */
.antxx
{
   fill: #e0e0e0;
   stroke:#ffffff;
   stroke-width:0;
   fill-rule:evenodd;
}

/*
 * Ocean
 */


/*
 * Additional style rules
 *
 * The following are examples of colouring countries.  You can substitute these with your own styles to colour the countries on the map.
 *
 * Color a few countries:
 *
 * .gb, .au, .nc
 * {
 *    fill:       #ff0000;
 * }
 *
 * Color a few small country circles (and the countries):
 *
 * .ms, .ky
 * {
 *    opacity:    1;
 *    fill:       #ff0000;
 * }
 *
 */

</style>
  <path class="oceanxx" d="M 2079.5058,1457.5605 615.24779,1457.5605 C 615.13079,1457.5605 615.07079,1457.5505 614.95179,1457.5215 611.67679,1456.6515 608.40179,1455.7815 605.12779,1454.9105 599.15079,1453.3225 593.22879,1451.5225 587.30779,1449.7385 564.39379,1442.8315 541.76579,1434.6995 519.46979,1426.0115 495.81079,1416.7935 472.34979,1407.0946 449.19179,1396.6816 426.78379,1386.6056 405.17679,1375.0536 383.76379,1363.0356 363.11779,1351.4496 343.01079,1338.8296 323.37979,1325.5996 302.29179,1311.3876 281.47879,1296.8506 261.05379,1281.7006 242.35079,1267.8276 223.73679,1253.6306 206.05279,1238.4686 186.98679,1222.1216 167.82379,1205.7706 150.35279,1187.6906 132.97779,1169.7106 116.33279,1151.0606 100.15679,1131.9976 84.352777,1113.3736 70.086776,1093.4716 56.901786,1072.9246 44.046786,1052.8916 32.093776,1032.1356 22.469776,1010.3426 17.516776,999.12753 12.408776,987.76556 8.7017761,976.06056 5.0657761,964.58166 1.5997761,953.04259 -1.5932239,941.43054 -8.0102239,918.09356 -14.055224,894.78356 -18.234224,870.92056 -22.491222,846.60856 -24.894222,822.19856 -26.943222,797.62156 -28.947222,773.58556 -28.829222,749.40156 -27.225222,725.34856 -25.648222,701.69856 -23.363222,677.92456 -19.274222,654.56456 -15.018224,630.25156 -9.3842239,606.45156 -2.8412239,582.66156 3.5687761,559.35256 10.483776,536.34856 20.265776,514.19856 30.320776,491.42956 42.318786,469.90956 55.502786,448.81656 68.512776,428.00356 83.108777,408.26756 98.686787,389.31756 113.73479,371.01156 129.68979,353.25256 146.15179,336.20856 163.77479,317.96256 182.64579,301.14556 201.89579,284.64756 220.33379,268.84456 239.55379,253.98456 258.95979,239.39656 278.42779,224.76056 298.39379,210.83356 318.55579,197.17556 339.26979,183.14456 360.47879,169.92056 382.15079,157.42556 403.46579,145.13656 425.31479,133.98856 447.60479,123.59356 469.58579,113.34356 492.14979,104.17656 514.74579,95.37556 537.44879,86.532565 560.37879,78.195565 583.63479,70.914565 589.69379,69.017565 595.80079,67.276565 601.90879,65.549565 604.63079,64.779565 607.36079,64.045565 610.09479,63.318565 611.59979,62.918565 613.56579,61.986565 615.13379,61.986565 L 2079.9638,61.986565 C 2079.9798,61.986565 2079.9958,61.986565 2080.0118,61.986565 2079.8448,61.986565 2079.6788,61.986565 2079.5118,61.986565 2102.8268,68.191565 2125.8778,75.323565 2148.5448,83.611565 2171.6378,92.054565 2194.6158,100.87956 2217.2348,110.52956 2240.5208,120.46556 2263.4848,130.95256 2285.8828,142.76456 2306.9808,153.89056 2327.8178,165.78556 2347.8608,178.72156 2368.9418,192.32656 2389.7498,206.29256 2410.2218,220.80056 2429.7368,234.62956 2448.9938,248.98756 2467.6208,263.99256 2486.8818,279.50856 2506.0408,295.30556 2524.0538,312.27356 2541.8708,329.05756 2558.7508,346.67256 2574.9408,365.03656 2591.2478,383.53256 2607.1478,402.30656 2621.4508,422.41856 2635.3488,441.96256 2648.4468,462.42756 2659.5898,483.67756 2671.1238,505.67356 2681.1048,528.35656 2688.6188,552.05056 2692.2518,563.50656 2695.3368,575.14756 2698.5608,586.72256 2701.7738,598.25356 2704.9238,609.81956 2707.4578,621.52456 2712.6258,645.40556 2716.6718,669.47856 2719.1178,693.79656 2721.5718,718.19256 2723.1798,742.56356 2722.9808,767.09056 2722.7908,790.65456 2720.6908,814.43756 2717.7688,837.81156 2714.7368,862.07056 2710.5198,886.16156 2704.6398,909.90056 2701.6808,921.84356 2698.3948,933.69556 2695.0378,945.53154 2691.7468,957.13466 2688.5558,968.83466 2684.3988,980.16156 2676.0918,1002.8036 2666.1688,1024.8836 2654.1338,1045.8046 2641.9958,1066.9066 2628.8498,1087.4866 2614.2378,1106.9696 2599.1658,1127.0666 2582.6678,1145.9446 2565.8948,1164.6296 2549.8298,1182.5266 2532.8918,1199.7316 2514.8648,1215.6616 2496.0788,1232.2646 2476.8978,1248.3126 2457.1558,1263.7656 2438.2988,1278.5276 2418.9668,1292.7306 2399.3188,1306.4206 2378.7018,1320.7866 2357.7538,1334.6106 2336.4758,1347.9776 2326.4088,1354.3016 2316.0058,1360.1326 2305.6418,1365.9516 2295.0348,1371.9086 2284.3858,1378.0166 2273.4448,1383.3436 2250.7338,1394.3986 2227.7768,1404.7266 2204.3888,1414.2665 2181.7848,1423.4875 2159.0678,1432.2695 2136.0228,1440.3345 2117.4118,1446.8465 2098.5568,1452.4975 2079.5058,1457.5605" id="ocean"/>
  <path class="landxx cmr" d="M 1336.1563,717.90855 C 1337.0993,717.10355 1337.6847,715.91618 1337.7263,714.72055 1337.7653,713.60364 1339.2271,711.443 1338.8146,710.67442 1338.3943,709.89129 1338.2233,709.57832 1339.3833,708.27555 1340.5339,706.98332 1341.6645,705.66668 1342.9355,704.48568 1343.6645,703.80668 1344.5848,703.51711 1344.9638,702.57611 1345.2908,701.76511 1346.5557,699.61449 1347.4587,699.35949 1348.4517,699.07849 1349.0293,700.39455 1350.2463,700.12855 1351.2103,699.91755 1351.2663,698.57755 1351.4863,697.82055 1351.6673,698.59055 1353.7392,700.69396 1354.4713,700.88955 1355.2036,701.0852 1355.4028,702.12113 1355.1169,702.90753 1354.9103,703.47582 1355.9449,704.32833 1357.0651,704.0648 1357.4036,703.48251 1359.2694,701.75891 1358.8103,700.71955 1358.4917,699.9984 1359.9983,699.03555 1360.5203,698.61755 1361.3883,697.92355 1360.5196,696.86821 1360.9886,695.93358 1361.908,694.10092 1363.2072,692.4248 1363.8344,690.12855 1364.1003,689.15513 1363.7474,688.12996 1364.0253,687.21055 1364.2405,686.49886 1365.3715,686.25372 1365.3143,685.07033 1364.9752,684.97123 1367.8258,685.35313 1368.4022,682.55655 1368.5322,681.92588 1369.6253,678.80555 1368.5573,678.59655 1369.7853,677.97055 1371.598,677.17455 1371.804,675.77155 1371.938,674.85655 1371.885,674.09908 1371.885,673.18308 1371.885,672.22908 1372.8446,672.31168 1373.275,671.65761 1373.7988,670.86154 1373.7387,669.73517 1374.0627,668.73598 1374.4006,667.69381 1374.7058,666.69283 1374.8403,666.06155 1375.1019,664.83419 1375.7967,662.53254 1377.0811,662.01402 1377.7513,661.74347 1381.7641,661.77313 1382.279,659.49921 1382.4239,658.85914 1381.7586,658.36075 1381.8543,657.61555 1382.0199,656.32573 1382.1037,655.58939 1382.3233,654.61055 1382.5802,653.46586 1380.4785,652.47938 1379.8033,652.69155 1379.2507,652.89674 1378.5298,651.71673 1378.2661,650.24109 1378.0548,647.89643 1378.1811,647.01678 1377.8473,646.34155 1378.7173,646.34155 1380.0676,646.26515 1380.7433,647.01939 1381.7466,648.13938 1380.7113,649.2605 1382.9291,649.87268 1384.0726,650.18834 1384.2048,652.85254 1384.2758,653.77364 1384.3468,654.6936 1384.1682,653.92248 1385.1187,654.82642 1387.0288,656.64301 1384.9718,662.0083 1385.2363,664.38755 1385.6039,667.69369 1387.1713,671.46755 1390.1553,673.12555 1388.9517,674.16385 1387.4272,673.67437 1386.4423,673.18375 1385.4392,673.27825 1385.2141,673.43604 1384.1511,673.4765 1381.9241,673.5612 1379.6557,672.11795 1378.5273,673.95456 1377.1575,676.18399 1377.3265,676.56984 1379.1485,678.65584 1380.9735,680.74584 1382.9798,682.55984 1384.9878,684.46784 1385.5948,685.04384 1386.3938,685.92703 1386.7978,686.67969 1387.5843,688.14465 1388.2391,691.13678 1389.1024,692.56256 1389.9804,694.01267 1388.2197,695.03087 1387.7806,695.61853 1387.0809,696.55492 1386.1184,698.72205 1385.4872,700.23928 1385.278,700.74222 1384.779,701.52075 1384.573,702.03175 1384.193,702.97575 1383.6137,703.72758 1383.176,704.64837 1382.5691,705.92505 1379.4444,707.18058 1381.2413,707.90269 1382.5552,708.43068 1382.443,709.77256 1382.264,711.51756 1382.183,712.30656 1382.139,713.01615 1381.698,713.69315 1381.748,713.61615 1382.6551,714.86443 1382.6691,714.95443 1382.8921,716.42643 1382.5397,718.6803 1383.5187,719.86184 1384.124,720.59233 1384.9341,720.86622 1385.208,722.00137 1385.4121,722.84726 1385.7743,723.98356 1386.5553,724.53356 1384.0895,724.59656 1389.642,731.14301 1390.1144,731.52056 1391.3152,732.48029 1392.9949,733.04741 1393.21,733.91456 1393.3716,734.56558 1393.4981,734.92337 1393.5271,735.55637 1393.6001,737.15837 1393.9683,738.82256 1394.3243,740.37256 1392.4464,741.25099 1394.5284,744.37643 1393.3243,745.26856 1392.2523,744.21556 1391.0673,743.26856 1389.6173,742.80456 1388.9883,742.60256 1387.1088,741.84035 1386.598,742.18215 1385.9401,742.62232 1384.6321,742.54568 1384.223,741.56315 1384.203,741.51425 1382.0236,741.09853 1381.8106,741.01453 1381.1326,740.74853 1379.2123,740.95053 1378.3273,740.89856 1376.7143,740.80556 1375.0748,740.82556 1373.4668,740.59853 1373.1938,740.56053 1372.3983,740.81456 1372.0853,740.66153 1371.4803,740.36453 1372.3563,739.75453 1371.2313,739.86653 1369.7453,740.01353 1368.4463,740.25453 1366.9323,739.92953 1365.1553,739.54853 1363.7003,739.84753 1361.9153,739.79253 1360.7513,739.75653 1358.6653,739.09453 1357.5613,739.70353 1357.2463,739.87753 1357.3653,740.80653 1357.0263,740.80653 1355.9243,740.80653 1354.8233,740.80653 1353.7213,740.80653 1352.1853,740.80653 1350.6593,740.86353 1349.1253,740.89753 1345.8333,740.97153 1345.1273,739.16253 1345.8203,736.10853 1346.2153,734.36853 1346.8153,732.48153 1345.8753,730.79753 1345.4323,730.00353 1343.9093,728.65953 1345.5153,728.13353 1344.6103,728.65353 1342.8563,727.79753 1343.9083,726.74953 1344.4623,726.19753 1345.6953,725.23953 1344.0753,725.18153 1344.3903,724.83353 1344.5563,724.42553 1344.5753,723.95753 1344.0683,725.18953 1343.5303,724.20953 1342.7053,724.24553 1343.0103,724.65353 1343.2253,724.94553 1342.7053,724.67753 1342.7373,725.07153 1342.6903,725.45553 1342.5653,725.82953 1341.9033,725.80553 1341.5833,725.29353 1341.7753,724.67753 1341.2043,725.71853 1339.5693,724.41353 1339.3583,723.64753 1339.0253,722.43653 1338.9553,720.36553 1338.0943,719.42153 1337.1053,720.63953 1337.2963,719.20553 1336.6543,719.20553 1336.7703,719.67953 1336.8433,720.15853 1336.8743,720.64453 1334.8313,720.90053 1335.9433,718.98453 1336.1563,717.90853" id="cm">
    <title>Cameroon</title>
  </path>
  <path class="landxx cod" d="M 1363.8063,809.49855 C 1364.4923,808.97755 1365.3416,809.41875 1365.6106,808.48674 1365.8286,807.73174 1366.451,804.76555 1365.921,804.15855 1364.534,802.57055 1369.9153,800.17055 1370.9263,799.26755 1371.1993,800.41455 1372.8793,800.58155 1372.9463,801.78855 1373.4843,801.22955 1374.1953,800.89855 1374.7933,800.41755 1375.6093,799.76155 1375.2683,798.57255 1375.9763,797.82855 1377.1763,799.41955 1378.9733,796.37555 1380.3903,797.08455 1381.7403,797.76055 1380.4943,798.06155 1380.2863,798.90855 1380.0533,799.85955 1380.6563,800.90155 1380.6563,801.85755 1381.2553,801.08555 1382.5783,802.05955 1383.3863,801.49855 1384.5793,800.66955 1385.3203,799.09455 1386.2283,797.98255 1386.6993,797.40655 1388.6143,796.48155 1388.7153,795.95855 1388.9843,794.57655 1390.1343,794.24555 1391.2763,793.75855 1393.9333,792.62455 1394.4093,787.62055 1394.3453,785.23055 1394.2963,783.41155 1394.4623,781.76755 1394.2333,779.95155 1394.0143,778.20955 1396.207,777.76255 1396.9426,776.38455 1398.6756,773.13802 1398.5434,771.08368 1402.0653,768.69255 1403.5473,767.68636 1404.4503,766.50355 1405.4343,765.11555 1406.4143,763.73355 1405.7063,761.71555 1406.1043,760.13055 1406.4543,758.73855 1407.1353,752.76255 1407.1953,751.19555 1407.2633,749.42455 1408.2893,747.87155 1408.5803,746.14555 1408.8623,744.47455 1408.3743,742.70755 1408.7503,741.05355 1409.4573,737.93955 1411.3169,735.39202 1412.3819,732.43102 1413.0009,730.71102 1412.7033,728.89755 1412.6553,727.14355 1412.6333,726.33455 1413.0083,725.48655 1412.8793,724.69555 1412.7653,723.99055 1412.3453,723.40255 1412.1523,722.72455 1411.8463,721.64655 1413.7273,721.67555 1414.1583,720.69255 1414.7543,719.33555 1415.3823,718.14355 1416.4103,717.04555 1417.3943,715.99355 1418.6253,715.09355 1420.1323,715.10455 1421.4083,715.11355 1421.9183,716.21655 1422.7333,716.39755 1424.6273,716.81655 1426.3833,718.86355 1427.0903,720.60355 1427.6663,722.02455 1429.7083,720.96355 1430.8613,721.31055 1431.4863,721.49855 1431.7953,722.34355 1432.5143,722.30955 1433.1513,722.27855 1433.2823,722.16455 1433.9403,722.50055 1434.9313,723.00655 1435.1293,722.49855 1436.1023,722.43655 1436.7523,722.39455 1437.4673,722.73855 1438.0633,722.95855 1439.1383,723.35655 1440.6063,724.13155 1441.7793,723.71855 1443.8763,722.98055 1443.2323,717.96955 1446.0273,717.83855 1447.6163,717.76255 1448.0403,720.98055 1450.1153,719.01555 1450.9923,718.18455 1457.0533,717.38255 1456.6873,715.39055 1457.9423,715.33655 1458.3633,717.05955 1459.5683,716.93855 1461.0153,716.79255 1463.4953,716.57455 1464.0973,715.03055 1464.3223,714.45455 1463.7423,713.87955 1464.5033,713.49755 1465.4363,713.03155 1466.2023,713.30955 1466.9303,714.02555 1468.0963,715.17255 1469.1773,713.82255 1470.4663,714.43355 1471.1043,714.73555 1471.6323,715.21555 1472.2573,715.53855 1472.9853,715.91455 1473.5043,715.59455 1474.2753,715.71055 1476.1053,715.98555 1476.8153,713.95455 1478.7453,715.04855 1479.4793,715.46455 1482.0273,717.06955 1482.0273,718.01855 1482.0273,718.48355 1482.6303,719.63055 1483.0813,719.81455 1484.9773,720.58755 1486.7843,723.38155 1488.8093,721.47355 1489.9563,720.39155 1490.8033,720.17555 1492.3253,720.91855 1493.8893,721.68355 1494.5111,721.37409 1495.4343,719.55555 1496.6509,717.15905 1499.7571,723.16319 1499.9163,723.55555 1500.6284,725.31003 1505.367,725.5411 1503.9183,728.27855 1504.8393,728.06255 1505.9533,728.00555 1506.1833,729.17855 1506.2993,729.49155 1506.4583,729.78155 1506.6623,730.04555 1506.7913,730.64755 1505.97,731.77341 1506.0597,732.40068 1506.3476,734.41308 1506.0057,736.41592 1505.7198,738.33424 1505.569,739.34482 1506.3192,739.21208 1507.453,739.0118 1507.9738,738.9198 1509.9611,740.3074 1509.5985,741.40849 1508.733,744.03698 1505.4703,746.64455 1503.5943,748.59255 1502.9738,749.23655 1501.7247,750.95036 1500.9734,751.58286 1500.2222,752.21536 1500.1491,751.67646 1499.7176,752.50142 1499.1776,753.53542 1499.8383,754.79755 1499.1833,755.85555 1498.4573,757.02955 1497.7353,758.79855 1497.5803,760.18055 1497.4413,761.41855 1497.4583,762.66955 1497.3723,763.91155 1497.2713,765.36455 1497.076,766.63355 1496.927,768.01355 1496.819,769.02255 1497.0773,770.43855 1496.6133,771.36255 1496.0863,772.41355 1495.2337,772.80824 1494.4647,773.65924 1493.2747,774.97624 1493.3742,775.40055 1493.3312,776.94555 1493.3032,777.96355 1492.2122,779.10936 1491.6612,779.83636 1490.4452,781.43936 1492.1385,783.11379 1493.0776,784.6413 1493.7849,785.79167 1494.3011,786.60032 1493.7753,788.18524 1491.8638,789.85939 1494.1815,795.11705 1492.3734,796.84412 1493.6905,797.60071 1493.4499,794.20669 1493.9067,794.78129 1494.3593,797.4537 1492.6868,799.39177 1492.6738,802.01104 1492.6568,805.4135 1495.5232,806.98042 1494.3172,809.33255 1493.6208,810.69078 1492.8882,810.98973 1493.4768,811.86514 1494.3774,813.20471 1494.7597,815.41345 1496.5385,818.89733 1497.7272,821.22547 1501.124,820.78883 1501.331,826.39662 1501.412,828.59797 1503.13,827.39032 1503.7904,830.76699 1499.0834,831.83999 1495.6123,831.96255 1490.8923,832.97255 1492.8433,836.19655 1487.7803,837.53655 1486.8623,839.95155 1489.5783,840.78955 1488.6763,844.98655 1488.4933,847.03755 1488.3593,848.53055 1488.9253,849.94055 1488.8383,851.41855 1488.7923,852.19355 1488.6237,852.93005 1488.3147,853.59905 1487.8677,854.56705 1487.5543,855.29655 1487.3063,856.31855 1486.8173,858.32455 1486.1363,859.4723 1487.4103,861.4123 1488.2963,862.7623 1489.9285,864.46042 1491.0995,865.56742 1491.6245,866.06442 1494.4031,867.76756 1494.6203,866.73355 1495.0061,864.89719 1495.4884,865.24047 1497.2933,864.72155 1497.2933,867.61855 1497.1963,870.52655 1497.1183,873.42255 1497.1053,873.86955 1497.4393,875.77855 1496.6893,875.85355 1495.8113,875.94155 1495.6153,874.92555 1496.2223,874.44055 1494.9243,872.84755 1492.0133,877.81686 1490.6423,874.83286 1490.1853,873.83886 1489.757,872.57855 1489.087,871.67755 1488.706,871.16555 1487.6855,870.50655 1487.5675,869.90155 1487.3365,868.71855 1487.1023,867.34655 1485.6123,867.30455 1484.3643,867.26955 1483.8313,865.96455 1482.6323,865.82055 1481.6303,865.69955 1481.0163,866.4558 1480.3233,865.3548 1479.7873,864.5008 1479.7712,863.25655 1478.9882,862.55555 1477.8732,861.55555 1477.0804,858.07961 1476.1084,861.19761 1475.1054,864.41361 1473.35,862.72268 1470.841,862.81168 1469.15,862.87168 1468.7502,862.33474 1467.3232,861.68774 1467.2272,861.64474 1465.7272,861.28674 1465.6852,861.29374 1463.4092,861.69374 1462.7293,858.23155 1463.5323,856.65255 1462.1343,856.73155 1460.7289,857.02778 1459.4233,857.52255 1457.819,858.13051 1457.4797,858.92297 1455.6833,858.17255 1456.3754,856.93458 1456.416,855.30122 1455.8173,855.32955 1455.0379,855.36645 1454.7117,854.70298 1454.1709,854.19011 1452.9149,852.99914 1453.0879,854.40483 1452.7903,854.5078 1451.6777,854.89281 1451.1893,854.83555 1450.1853,854.5766 1448.9793,854.2636 1448.23,855.10736 1447.1613,855.48485 1445.7885,855.96975 1444.9152,855.04797 1444.026,855.2016 1443.7067,855.2568 1442.4373,855.1176 1442.3973,855.1386 1441.5383,855.6016 1441.0983,856.8996 1439.9153,856.8706 1440.1823,855.9816 1439.6493,855.2836 1439.4943,854.4486 1439.2803,853.3016 1440.072,853.09647 1440.324,852.21447 1440.907,850.16947 1440.1073,846.6196 1438.8653,844.9746 1437.3523,842.9676 1436.7043,841.7116 1436.8943,839.1136 1437.0903,836.4286 1438.0271,833.6116 1437.3291,830.9396 1437.0611,829.9186 1436.3351,829.0326 1436.3501,827.9496 1436.3681,826.7256 1437.0423,825.5796 1437.1353,824.3646 1437.2893,822.3626 1435.9933,822.58485 1434.3713,822.56985 1432.8273,822.55685 1431.2924,822.52935 1429.7523,822.59455 1426.5894,822.72855 1427.0718,822.03755 1427.9643,819.36055 1427.2553,819.36055 1426.5595,819.18068 1425.8695,819.45065 1425.4025,819.63265 1425.7463,819.83552 1425.4843,820.05952 1424.6473,820.77652 1420.8023,820.15052 1419.6843,820.15052 1420.0573,821.09652 1419.3646,822.20352 1419.5256,823.21452 1419.6566,824.03152 1419.6873,825.32852 1418.3843,825.05052 1418.8083,826.29652 1418.0543,827.53252 1418.3143,828.79052 1417.7853,828.78552 1414.3438,828.90527 1413.7853,828.58152 1412.1388,827.62712 1409.2379,829.40952 1408.6763,829.45952 1407.3669,829.24698 1406.1356,829.30884 1404.7043,829.31614 1402.8843,828.93614 1402.097,825.15252 1401.184,823.81852 1400.862,823.34852 1400.6123,823.01152 1400.2813,822.54452 1399.6693,821.68052 1399.949,821.06052 1399.821,820.13952 1399.594,818.50052 1397.8812,817.42441 1398.127,815.68371 1398.3479,814.11926 1398.127,812.81315 1397.3879,811.89852 1396.3636,810.62226 1396.3821,810.1521 1394.7893,810.22852 1390.4033,810.43896 1386.0553,810.61088 1381.6763,810.36127 1378.1393,810.15965 1373.9983,810.74452 1370.5253,810.07552 1367.7473,809.53952 1365.4453,813.67652 1363.8063,809.49852" id="cd">
    <title>Congo, the Democratic Republic of the</title>
  </path>
  <g class="landxx coastxx nga" id="ng" transform="translate(-29.9017,-45.0745)">
    <title>Nigeria</title>
    <path d="M 1355.258,766.728 C 1356.172,766.667 1356.499,766.104 1355.758,765.504 1355.445,765.853 1355.279,766.26 1355.258,766.728" id="path5382"/>
    <path d="M 1357.198,766.296 C 1357.438,766.152 1357.678,766.008 1357.918,765.864 1357.41,765.871 1356.93,765.991 1356.478,766.223 1356.718,766.248 1356.958,766.271 1357.198,766.296" id="path5386"/>
    <path class="landxx nga" d="M 1321.058,736.344 C 1321.957,733.224 1320.661,729.511 1322.034,726.563 1322.369,725.842 1323.637,726.48 1324.239,725.787 1325.268,724.6 1324.332,723.162 1325.388,721.974 1326.079,721.196 1326.04,719.965 1326.883,719.474 1327.767,718.958 1329.087,717.858 1328.655,716.602 1328.32,715.627 1327.875,714.819 1329.176,714.552 1331.002,714.178 1329.528,711.567 1329.339,710.784 1329.145,709.986 1329.422,709.284 1329.004,708.512 1328.645,707.849 1328.088,707.322 1327.743,706.65 1327.036,705.272 1328.063,704.106 1328.471,702.825 1328.963,701.282 1328.617,699.637 1328.728,698.036 1328.862,696.102 1329.381,695.703 1330.735,694.372 1331.9,693.226 1332.405,691.497 1332.364,689.903 1332.33,688.558 1333.259,687.757 1334.223,686.955 1335.359,686.011 1336.755,685.751 1338.191,685.694 1340.07,685.619 1341.082,684.941 1342.805,684.505 1343.814,684.249 1345.13,685.407 1345.964,685.825 1347.4,686.546 1348.895,686.125 1350.142,687.332 1351.242,688.398 1351.765,689.67 1352.512,690.959 1352.795,691.448 1353.179,691.967 1353.744,692.151 1354.931,692.538 1355.099,691.205 1356.046,691.101 1359.203,690.752 1360.239,687.922 1363.539,690.265 1363.995,690.588 1364.502,690.969 1364.799,691.453 1364.943,691.688 1365.808,691.57 1366.059,691.705 1367.435,692.442 1367.983,693.469 1369.763,693.536 1370.804,693.576 1372.974,694.146 1373.878,693.744 1375.157,693.175 1375.595,691.517 1376.691,690.69 1379.329,688.7 1383.316,688.529 1386.47,688.828 1388.124,688.985 1389.603,689.429 1391.069,690.202 1392.297,690.85 1393.843,691.804 1395.286,691.274 1396.672,690.765 1397.39,689.18 1398.53,688.321 1399.155,687.85 1399.764,687.41 1400.572,687.366 1401.803,687.3 1400.9492,687.04615 1401.63,686.592 1404.2521,684.84297 1405.0904,687.32338 1406.046,689.10237 1406.8582,690.61432 1408.4892,690.73688 1408.0997,694.9279 1408.0567,695.3913 1408.7761,697.23827 1409.1861,697.56827 1409.6921,697.97527 1410.0755,697.59827 1410.7,697.824 1413.945,698.99706 1410.9927,702.19777 1411.976,703.721 1413.2297,705.66308 1409.2084,707.15551 1407.7515,707.00309 1405.5556,706.77334 1404.7704,711.561 1404.1984,713.293 1403.8734,714.277 1403.6882,715.317 1403.3902,716.299 1403.0572,717.396 1401.8254,717.22854 1401.7974,718.46754 1401.7724,719.57654 1402.043,720.98591 1401.189,721.96991 1400.467,722.80191 1399.43,723.175 1398.459,723.671 1399.539,723.883 1398.469,726.647 1398.389,727.272 1398.166,729.063 1397.01,730.085 1395.219,730.152 1395.386,731.089 1394.664,731.296 1394.165,731.891 1393.542,732.633 1394.0506,733.732 1393.8776,734.616 1393.4766,736.667 1392.4554,738.82429 1391.168,740.514 1390.0602,741.96792 1392.1075,742.85885 1389.551,744.525 1388.4733,745.22741 1389.118,745.991 1388.739,747 1388.489,747.665 1387.6159,748.29728 1387.2763,748.92191 1386.9473,749.52691 1385.8593,749.16891 1385.4013,748.98591 1384.8391,748.7613 1384.968,747.095 1384.93,746.596 1384.887,746.018 1382.9068,745.49382 1382.6348,744.82782 1382.2018,743.76782 1381.676,744.124 1381.388,742.895 1381.168,743.652 1381.113,744.992 1380.148,745.203 1378.931,745.469 1378.4099,744.16136 1377.428,744.479 1375.6591,745.05122 1375.283,747.81097 1374.1335,748.5669 1372.6403,749.54879 1367.8683,754.42655 1368.5039,755.07372 1369.522,756.11024 1367.6911,758.77531 1367.686,759.522 1367.676,760.79303 1367.1981,761.84111 1365.6556,764.30237 1365.0426,764.14537 1364.474,763.274 1364.757,762.696 1364.101,763.121 1363.596,762.472 1363.317,761.975 1363.953,764.342 1364.546,764.878 1361.798,765.277 1360.711,765.435 1357.134,766.15 1358.136,763.919 1357.668,764.825 1357.646,765.067 1356.556,764.999 1355.349,764.924 1355.557,764.612 1354.386,763.847 1354.935,764.248 1355.598,766.316 1354.293,765.794 1353.419,765.445 1354.713,763.346 1353.166,764.135 1353.598,765.003 1353.97,765.827 1353.596,766.799 1352.88,766.496 1352.056,763.915 1352.306,763.127 1351.482,763.84 1352.849,765.921 1352.421,766.895 1351.825,768.253 1351.83,765.066 1351.866,764.783 1351.73,765.18 1351.514,767.362 1351.436,765.43 1351.417,766 1351.338,766.641 1350.936,767.086 1350.915,766.569 1350.772,766.089 1350.506,765.646 1350.814,766.265 1350.789,767.262 1349.841,767.177 1348.131,767.024 1348.601,767.416 1348.126,765.79 1348.144,767.327 1346.947,768.662 1346.686,766.438 1346.704,767.881 1346.328,766.935 1345.277,766.421 1344.24,765.914 1343.542,764.903 1343.016,763.918 1342.521,762.993 1341.902,761.984 1342.164,760.907 1342.339,760.187 1342.434,759.527 1341.426,759.813 1341.24,759.031 1341.323,758.592 1342.123,758.431 1343.674,758.119 1342.224,757.561 1343.375,756.862 1342.554,756.926 1341.828,758.041 1341.02,757.858 1338.442,757.274 1341.969,756.373 1342.585,756.286 1342.168,755.781 1341.688,755.709 1341.145,756.07 1341.167,755.757 1341.19,755.445 1341.215,755.133 1341.058,756.032 1339.922,756.681 1339.485,755.565 1339.089,754.555 1340.303,754.109 1340.855,753.549 1340.201,753.815 1339.612,754.27 1339.125,754.774 1338.138,752.527 1335.954,750.041 1333.499,749.416 1332.306,749.112 1330.877,748.956 1329.646,749.031 1328.685,749.091 1327.283,749.508 1326.456,748.798 1327.502,749.003 1329.039,748.307 1329.626,747.43 1328.556,747.38 1327.797,748.64 1326.746,747.79 1326.371,748.242 1326.274,748.746 1326.456,749.302 1324.732,749.528 1322.974,749.198 1321.266,749.59 1321.209,748.51 1321.817,747.559 1321.846,746.494 1321.876,745.392 1321.383,744.583 1321.657,743.444 1322.106,741.589 1322.146,738.024 1321.058,736.344" id="path5406"/>
  </g>
  <g class="world_map-is_selected landxx coastxx gnq" id="gq" transform="translate(-29.9017,-45.0745)">
    <title>Equatorial Guinea</title>
    <path d="M 1366.848,776.952 C 1367.377,776.327 1369.84,771.669 1367.661,772.118 1366.823,772.29 1366.444,772.803 1366.168,773.567 1365.84,774.476 1365.26,774.593 1364.71,775.265 1364.076,776.042 1366.448,776.739 1366.848,776.952" id="path5778"/>
    <path class="world_map-is_selected landxx gnq" d="M 1373.978,790.92 C 1374.258,790.985 1374.522,790.938 1374.768,790.776 1373.191,791.541 1374.625,789.222 1374.903,788.777 1375.706,787.496 1375.0603,785.63562 1375.6433,784.09662 1376.6959,786.1697 1377.3913,785.6592 1378.7656,785.94994 L 1386.9723,785.85904 1387.0233,795.87104 1377.9581,795.6716 C 1377.3751,795.7536 1374.5885,796.59704 1375.6385,795.31004 1374.7085,794.83204 1372.5265,795.84504 1371.9585,794.66304 1371.4365,793.57804 1373.5135,791.77504 1373.9785,790.92004" id="path5784"/>
  </g>
  <path class="landxx cog" d="M 1355.5963,793.57855 C 1356.1793,791.81555 1356.5313,791.29355 1357.9853,790.18755 1359.2733,789.20855 1359.7273,792.45955 1361.4153,791.42655 1361.6573,791.27855 1361.3453,789.82055 1361.6073,789.27855 1362.1723,788.11355 1360.9633,787.85255 1360.2713,787.41155 1359.6593,787.02155 1361.3903,783.19055 1358.6963,783.93855 1359.6353,782.65255 1359.3673,781.11455 1358.9763,779.68855 1360.0653,779.94455 1360.5163,779.82955 1361.5683,779.84555 1362.0323,779.85255 1362.2543,780.55755 1362.6883,780.45155 1363.9853,780.13555 1366.2743,780.46855 1365.9803,778.52055 1365.7783,777.18755 1365.3253,774.35355 1367.8753,775.72555 1368.8073,776.22655 1370.4613,779.00555 1369.8573,780.04955 1371.0443,779.36755 1372.1673,780.84155 1373.3773,780.54955 1374.4163,780.29855 1375.4143,778.61855 1375.6873,777.66955 1376.0073,778.25255 1376.5753,781.51455 1377.3073,781.45255 1377.8513,781.40655 1379.2693,779.99355 1379.1773,779.37855 1379.0833,778.75255 1379.2313,776.59755 1379.8653,776.22855 1380.7103,775.73755 1381.5063,774.13355 1380.4373,773.41955 1381.8913,772.90655 1381.1773,770.11955 1380.8643,769.10655 1380.3853,767.55755 1381.9883,765.84155 1381.2463,764.47155 1380.8063,763.65855 1379.6783,763.41855 1378.8573,763.41855 1378.4093,763.08355 1378.8103,761.95655 1377.8473,761.86355 1375.3523,761.62255 1377.2933,760.31055 1376.9893,758.77155 1376.7803,757.71255 1377.1453,755.62655 1378.1273,754.91855 1379.1563,754.17555 1380.0543,754.55255 1380.7153,753.15055 1381.2283,752.06155 1380.4106,751.24372 1380.0063,750.29755 1379.2751,748.58632 1379.0359,746.98218 1376.8173,747.33455 1374.8959,747.63972 1373.1943,748.68655 1371.2883,749.01355 1371.8303,747.59355 1371.2343,746.04557 1371.1023,744.61055 1370.9574,743.03586 1371.9572,741.54594 1372.0061,740.74732 1371.9961,740.10332 1379.7003,740.95055 1380.3683,740.87855 1381.6563,740.73955 1382.1093,741.08155 1383.3353,741.17355 1384.3663,741.25155 1384.5213,742.63555 1385.9043,742.25755 1388.6223,741.51355 1391.4673,743.44355 1393.3283,745.27055 1394.2073,744.01955 1393.3383,743.09155 1393.3853,741.77155 1393.4283,740.68055 1394.5153,740.03055 1394.9083,739.07855 1395.4633,737.73855 1396.1413,736.43355 1396.4683,735.01155 1396.7313,733.87055 1396.3143,732.81855 1396.5643,731.71655 1396.7533,730.88055 1396.9813,729.63655 1397.8163,729.17755 1398.8853,728.58955 1400.2323,729.17255 1401.3763,728.68355 1402.6153,728.15355 1403.5773,727.30455 1404.9623,727.94955 1406.3193,728.58155 1407.2453,729.14857 1408.7843,728.89955 1410.6693,728.59455 1413.1344,727.89248 1412.8733,730.53749 1412.65,732.79917 1411.053,735.93536 1409.973,737.87336 1408.703,740.14936 1408.7176,741.64755 1408.6966,744.28455 1408.6846,745.74655 1408.4295,747.23067 1407.9873,748.63555 1407.5029,750.17455 1407.132,751.01255 1407.1123,752.68955 1407.0993,753.77326 1407.0393,754.82855 1406.961,755.93055 1406.884,757.01855 1406.5699,758.3984 1406.3021,759.45718 1405.6205,762.15218 1406.912,763.89812 1404.6656,766.36677 1402.6541,768.57723 1400.5299,769.20262 1399.1731,771.67655 1398.5284,772.85203 1397.9914,774.12414 1397.4717,775.41427 1396.5072,777.80886 1394.201,778.16878 1394.345,779.63037 1394.5814,782.03009 1394.383,784.37535 1394.374,787.03655 1394.364,789.62544 1393.2299,793.61012 1390.7636,794.0423 1389.8658,794.19963 1388.9321,795.14608 1388.6491,796.09408 1388.4981,796.60208 1386.8733,797.29479 1386.3953,797.87114 1385.5356,798.90749 1384.9145,800.1252 1383.9186,801.14874 1382.6532,802.44924 1381.398,800.90355 1380.657,801.85955 1380.657,800.93255 1379.8173,799.25882 1380.4603,798.49749 1380.9735,797.88986 1381.2282,797.34439 1380.176,797.01708 1378.8735,796.6119 1377.099,799.31755 1375.977,797.83055 1375.418,798.41755 1375.515,799.15355 1375.224,799.84555 1374.837,800.76555 1373.607,801.10555 1372.948,801.79055 1372.881,800.58455 1371.201,800.41655 1370.928,799.26955 1370.03,800.91931 1369.1133,795.99926 1367.5669,798.41089 1367.0367,799.23782 1366.1602,799.16844 1365.508,799.73055 1364.8541,800.29408 1363.7355,801.59616 1363.062,802.3438 1361.4788,804.10141 1360.998,800.82855 1360.744,799.88355 1360.081,797.41955 1357.411,795.27355 1355.596,793.57855" id="cg">
    <title>Congo</title>
  </path>
  <g class="landxx coastxx gab" id="ga" transform="translate(-29.9017,-45.0745)">
    <title>Gabon</title>
    <path d="M 1368.938,810.723 C 1369.035,810.913 1369.131,811.103 1369.228,811.293 1369.506,810.807 1369.433,810.377 1369.008,810.003 1368.984,810.243 1368.961,810.483 1368.938,810.723" id="path5980"/>
    <path class="landxx gab" d="M 1367.928,812.303 C 1367.46,811.669 1367.101,810.849 1367.498,810.074 1367.522,810.66 1367.739,811.163 1368.148,811.584 1368.308,809.951 1369.281,811.3 1369.228,812.234 1369.389,810.239 1371.419,809.104 1371.641,807.154 1371.794,805.806 1370.931,803.185 1372.109,802.154 1372.16,802.811 1372.647,803.284 1372.969,803.814 1373.19,802.732 1374.778,803.333 1375.269,804.244 1375.14,803.323 1376.13,802.984 1376.859,803.014 1375.036,803.014 1373.634,802.636 1372.593,801.025 1372.179,800.383 1370.835,799.567 1372.319,799.271 1372.95,799.145 1373.804,799.465 1373.828,800.215 1374.364,799.02 1373.463,797.43 1373.806,796.155 1373.995,795.456 1374.8483,795.52594 1375.3683,795.80794 1376.3013,796.31494 1376.9577,795.69362 1377.9827,795.69362 L 1386.9547,795.8385 1386.9297,785.94577 C 1387.3316,783.6427 1388.2772,784.53155 1389.9998,784.60841 1391.4645,784.67371 1393.2572,784.87422 1394.8027,784.78914 1396.274,784.70814 1397.7706,785.20178 1398.7552,785.15127 1401.0922,785.03139 1402.947,783.80387 1401.3637,787.516 1400.378,789.827 1401.9777,792.021 1401.1867,794.09 1402.9107,793.795 1404.465,792.87659 1406.1727,792.506 1409.3677,791.81262 1408.9802,793.70661 1409.9376,795.31027 1410.8395,796.82111 1411.6152,799.02663 1408.5717,799.733 1406.8986,800.12132 1406.8107,802.973 1406.9677,804.297 1407.0427,804.926 1405.7083,806.65467 1407.2009,806.73427 1407.9288,806.77307 1408.6502,807.3309 1408.5685,807.86182 1408.4518,808.62001 1410.1774,808.48189 1410.8126,809.116 1412.2102,810.51143 1410.5076,812.28335 1410.7586,813.791 1410.918,814.7505 1412.0534,817.61044 1410.3391,818.495 1411.4261,819.221 1410.6671,821.109 1409.6631,821.519 1409.3831,821.633 1408.9814,824.03041 1409.0624,824.12641 1409.6874,824.86141 1407.9775,826.65246 1407.1515,826.56746 1406.2775,826.47746 1405.9811,823.46 1405.5881,822.744 1405.3211,823.673 1404.2266,825.58773 1403.1566,825.71673 1402.0786,825.84673 1400.8171,824.515 1399.7581,825.124 1400.4856,822.29633 1395.074,817.82771 1395.8393,822.54332 1396.287,825.30174 1395.208,825.33772 1392.6322,825.58146 1391.8064,825.65956 1392.0401,824.96821 1391.2282,825.02746 1390.1652,825.10506 1389.9391,825.00836 1388.8781,824.763 1389.2701,826.189 1389.5381,827.727 1388.5981,829.013 1389.6424,828.64325 1390.35,829.22659 1390.3001,830.267 1390.2571,831.1636 1390.0833,831.92446 1390.2041,832.38664 1390.6427,832.8176 1391.1849,832.81931 1391.4599,833.23859 1392.0795,834.18294 1391.3639,834.31368 1391.4439,835.12268 1391.5089,835.78168 1391.9263,836.69546 1390.7503,836.75946 1389.5083,836.82646 1389.4797,835.76472 1388.5836,835.21832 1387.6833,834.66932 1385.7183,838.027 1385.4973,838.654 1383.8373,837.353 1382.3983,834.644 1381.2513,832.894 1379.5653,830.322 1377.0223,828.262 1374.8363,826.133 1376.0503,825.383 1376.4523,828.159 1377.5763,826.773 1376.7673,826.85 1375.6063,825.846 1374.7273,825.629 1373.3153,825.28 1372.2893,822.025 1371.3863,820.874 1372.2963,820.957 1372.6253,821.955 1373.4763,822.174 1372.7043,820.924 1372.5593,821.22 1371.4533,820.573 1370.9513,820.28 1371.1033,819.39 1370.9813,818.948 1370.6823,817.863 1369.9043,817.008 1369.3663,816.044 1370.0633,816.624 1371.4523,817.893 1371.2363,818.934 1371.9553,818.686 1372.7103,818.524 1373.4763,818.575 1373.0603,818.258 1372.7243,817.871 1372.4663,817.415 1372.3043,817.987 1371.8783,818.282 1371.3063,817.995 1371.4013,817.241 1372.0003,816.557 1371.6763,815.765 1370.5453,819.056 1368.4693,812.705 1367.9283,812.303" id="path6014"/>
  </g>
  <g id="st">
    <title>Sao Tome and Principe</title>
    <g class="landxx coastxx stp" id="st-" transform="translate(-29.9017,-45.0745)">
      <path d="M 1350.218,804.453 C 1350.897,804.083 1351.619,803.503 1351.859,802.73 1351.983,802.331 1351.92,800.999 1351.169,801.207 1349.436,801.686 1350.019,803.212 1350.218,804.453" id="path2898"/>
      <path d="M 1356.908,791.424 C 1357.219,790.936 1357.246,790.432 1356.988,789.912 1356.387,790.33 1356.361,790.944 1356.908,791.424" id="path5384"/>
    </g>
    <circle class="circlexx stp" cx="1322.9935" cy="751.57587" id="st." r="6.0130301" rx="6.0130301" ry="6.0130301"/>
  </g>
  </svg>