<svg xmlns="http://www.w3.org/2000/svg" class="world_map zoom4 zoom3 zoom2" height="127" id="svg2985" version="1.1" viewBox="1333 324 114 99" width="127">
  <title>World Map</title>
  <defs id="defs2987"/>
  <style id="style_css_sheet" type="text/css">
/*
 * Below are Cascading Style Sheet (CSS) definitions in use in this file,
 * which allow easily changing how countries are displayed.
 *
 */
/* --- Custom styles for Peace Corps --- */
.world_map .world_map-is_selected.circlexx {
  opacity:1;
}
.world_map .world_map-is_selected.landxx {
  fill: #C94112 !important;
}
.world_map .landxx {
  fill: #F2EFE8;
  stroke: #ffffff;
  fill-rule: evenodd;
}
.world_map.zoom6 .landxx {
  stroke-width: 0.1px;
}
.world_map.zoom5 .landxx {
  stroke-width: 1px;
}
.world_map.zoom4 .landxx {
  stroke-width: 2px;
}
.world_map.zoom3 .landxx {
  stroke-width: 3px;
}
.world_map.zoom2 .landxx {
  stroke-width: 4px;
}
.world_map.zoom1 .landxx {
  stroke-width: 5px;
}
.world_map .coastxx {
  fill: #F2EFE8;
  stroke: #ffffff;
  stroke-width: 2px;
  fill-rule: evenodd;
}
.world_map .oceanxx {
  opacity: 1;
  color: #ccc;
  fill: #ffffff;
  stroke: #ffffff;
  stroke-width: 0.5;
  stroke-miterlimit: 1;
}

/* --- Original Styles --- *
/*
 * Circles around small countries
 *
 * Change opacity to 1 to display all circles.
 *
 */
.circlexx
{
   opacity:0;
   fill-opacity:0;
   fill:#e0e0e0;
   stroke:#000000;
   stroke-width:0.5;
}

/*
 * Smaller circles around French DOMs and Chinese SARs
 *
 * Change opacity to 1 to display all subnational circles.
 *
 */
.subxx
{
   opacity:0;
   stroke-width:0.3;
}

/*
 * Circles around small, unrecognized countries
 *
 * Change opacity to 1 to display all circles.
 *
 */
.unxx
{
   opacity:0;
   fill:#e0e0e0;
   stroke:#000000;
   stroke-width:0.3;
}

/*
 * Circles around small countries, but with no permanent residents 
 *
 * Change opacity to 1 to display all circles.
 *
 */
.noxx
{
   opacity:0;
   fill:#e0e0e0;
   stroke:#000000;
   stroke-width:0.5;
}

/*
 * land
 */
.landxx
{
}
/*
 * Styles for coastlines of islands with no borders
 */


/*
 * Styles for nations with limited recognition
 */
.limitxx
{
   fill: #e0e0e0;
   stroke:#ffffff;
   stroke-width:0;
   fill-rule:evenodd;
}

/*
 * Styles for nations with no permanent population.
 */
.antxx
{
   fill: #e0e0e0;
   stroke:#ffffff;
   stroke-width:0;
   fill-rule:evenodd;
}

/*
 * Ocean
 */


/*
 * Additional style rules
 *
 * The following are examples of colouring countries.  You can substitute these with your own styles to colour the countries on the map.
 *
 * Color a few countries:
 *
 * .gb, .au, .nc
 * {
 *    fill:       #ff0000;
 * }
 *
 * Color a few small country circles (and the countries):
 *
 * .ms, .ky
 * {
 *    opacity:    1;
 *    fill:       #ff0000;
 * }
 *
 */

</style>
  <path class="oceanxx" d="M 2079.5058,1457.5605 615.24779,1457.5605 C 615.13079,1457.5605 615.07079,1457.5505 614.95179,1457.5215 611.67679,1456.6515 608.40179,1455.7815 605.12779,1454.9105 599.15079,1453.3225 593.22879,1451.5225 587.30779,1449.7385 564.39379,1442.8315 541.76579,1434.6995 519.46979,1426.0115 495.81079,1416.7935 472.34979,1407.0946 449.19179,1396.6816 426.78379,1386.6056 405.17679,1375.0536 383.76379,1363.0356 363.11779,1351.4496 343.01079,1338.8296 323.37979,1325.5996 302.29179,1311.3876 281.47879,1296.8506 261.05379,1281.7006 242.35079,1267.8276 223.73679,1253.6306 206.05279,1238.4686 186.98679,1222.1216 167.82379,1205.7706 150.35279,1187.6906 132.97779,1169.7106 116.33279,1151.0606 100.15679,1131.9976 84.352777,1113.3736 70.086776,1093.4716 56.901786,1072.9246 44.046786,1052.8916 32.093776,1032.1356 22.469776,1010.3426 17.516776,999.12753 12.408776,987.76556 8.7017761,976.06056 5.0657761,964.58166 1.5997761,953.04259 -1.5932239,941.43054 -8.0102239,918.09356 -14.055224,894.78356 -18.234224,870.92056 -22.491222,846.60856 -24.894222,822.19856 -26.943222,797.62156 -28.947222,773.58556 -28.829222,749.40156 -27.225222,725.34856 -25.648222,701.69856 -23.363222,677.92456 -19.274222,654.56456 -15.018224,630.25156 -9.3842239,606.45156 -2.8412239,582.66156 3.5687761,559.35256 10.483776,536.34856 20.265776,514.19856 30.320776,491.42956 42.318786,469.90956 55.502786,448.81656 68.512776,428.00356 83.108777,408.26756 98.686787,389.31756 113.73479,371.01156 129.68979,353.25256 146.15179,336.20856 163.77479,317.96256 182.64579,301.14556 201.89579,284.64756 220.33379,268.84456 239.55379,253.98456 258.95979,239.39656 278.42779,224.76056 298.39379,210.83356 318.55579,197.17556 339.26979,183.14456 360.47879,169.92056 382.15079,157.42556 403.46579,145.13656 425.31479,133.98856 447.60479,123.59356 469.58579,113.34356 492.14979,104.17656 514.74579,95.37556 537.44879,86.532565 560.37879,78.195565 583.63479,70.914565 589.69379,69.017565 595.80079,67.276565 601.90879,65.549565 604.63079,64.779565 607.36079,64.045565 610.09479,63.318565 611.59979,62.918565 613.56579,61.986565 615.13379,61.986565 L 2079.9638,61.986565 C 2079.9798,61.986565 2079.9958,61.986565 2080.0118,61.986565 2079.8448,61.986565 2079.6788,61.986565 2079.5118,61.986565 2102.8268,68.191565 2125.8778,75.323565 2148.5448,83.611565 2171.6378,92.054565 2194.6158,100.87956 2217.2348,110.52956 2240.5208,120.46556 2263.4848,130.95256 2285.8828,142.76456 2306.9808,153.89056 2327.8178,165.78556 2347.8608,178.72156 2368.9418,192.32656 2389.7498,206.29256 2410.2218,220.80056 2429.7368,234.62956 2448.9938,248.98756 2467.6208,263.99256 2486.8818,279.50856 2506.0408,295.30556 2524.0538,312.27356 2541.8708,329.05756 2558.7508,346.67256 2574.9408,365.03656 2591.2478,383.53256 2607.1478,402.30656 2621.4508,422.41856 2635.3488,441.96256 2648.4468,462.42756 2659.5898,483.67756 2671.1238,505.67356 2681.1048,528.35656 2688.6188,552.05056 2692.2518,563.50656 2695.3368,575.14756 2698.5608,586.72256 2701.7738,598.25356 2704.9238,609.81956 2707.4578,621.52456 2712.6258,645.40556 2716.6718,669.47856 2719.1178,693.79656 2721.5718,718.19256 2723.1798,742.56356 2722.9808,767.09056 2722.7908,790.65456 2720.6908,814.43756 2717.7688,837.81156 2714.7368,862.07056 2710.5198,886.16156 2704.6398,909.90056 2701.6808,921.84356 2698.3948,933.69556 2695.0378,945.53154 2691.7468,957.13466 2688.5558,968.83466 2684.3988,980.16156 2676.0918,1002.8036 2666.1688,1024.8836 2654.1338,1045.8046 2641.9958,1066.9066 2628.8498,1087.4866 2614.2378,1106.9696 2599.1658,1127.0666 2582.6678,1145.9446 2565.8948,1164.6296 2549.8298,1182.5266 2532.8918,1199.7316 2514.8648,1215.6616 2496.0788,1232.2646 2476.8978,1248.3126 2457.1558,1263.7656 2438.2988,1278.5276 2418.9668,1292.7306 2399.3188,1306.4206 2378.7018,1320.7866 2357.7538,1334.6106 2336.4758,1347.9776 2326.4088,1354.3016 2316.0058,1360.1326 2305.6418,1365.9516 2295.0348,1371.9086 2284.3858,1378.0166 2273.4448,1383.3436 2250.7338,1394.3986 2227.7768,1404.7266 2204.3888,1414.2665 2181.7848,1423.4875 2159.0678,1432.2695 2136.0228,1440.3345 2117.4118,1446.8465 2098.5568,1452.4975 2079.5058,1457.5605" id="ocean"/>
  <g id="fr">
    <title>France</title>
    <g class="landxx coastxx frx eu fra" id="frx">
      <path class="landxx frx eu fra" d="M 1247.9563,345.09353 C 1248.8483,344.67153 1249.9183,344.40753 1250.9063,344.58953 1251.2503,343.07553 1249.2373,344.11653 1248.8163,343.07753 1249.7423,342.77053 1250.8213,342.88353 1251.7763,342.93253 1251.0263,342.80353 1250.0103,343.07053 1250.5463,342.14053 1249.9683,342.10953 1248.0023,343.21953 1247.7643,342.24853 1247.4403,340.92353 1249.4573,340.12353 1250.4183,339.93353 1251.7103,339.67753 1252.9283,339.57353 1254.2383,339.60953 1256.0933,339.66053 1257.2803,337.85953 1259.3353,338.10853 1259.1023,338.77353 1261.5713,341.09553 1262.2613,340.81653 1262.7253,340.59053 1263.1723,340.33253 1263.6013,340.04453 1264.5383,339.52353 1264.4763,340.19653 1265.2593,340.34653 1266.0333,340.49453 1266.6253,339.88453 1266.6763,341.13353 1267.1823,340.78653 1266.4383,340.37153 1266.8543,339.80653 1267.2793,339.22953 1267.4953,340.10553 1267.8683,340.20353 1268.7543,340.43553 1269.8883,340.19953 1270.7763,340.05353 1268.8903,339.50053 1269.5823,336.83453 1269.7363,335.44553 1269.8113,334.76953 1268.7883,334.09153 1268.4413,333.61953 1267.8433,332.80653 1268.3953,331.57053 1267.5363,330.90853 1268.1903,331.02253 1268.7863,331.34253 1269.4353,331.47753 1270.1453,331.62553 1271.0223,330.92853 1271.6453,331.24253 1272.6163,331.73053 1271.4053,333.19653 1272.7503,333.96653 1273.1383,334.18853 1273.8353,333.79353 1274.2353,333.78953 1275.4053,333.77853 1276.5303,334.17453 1277.6673,334.39053 1278.7783,334.60153 1279.7453,334.56953 1280.7413,334.00053 1281.6443,333.48553 1282.8513,333.50453 1283.6653,332.92553 1283.0193,333.18153 1281.9213,333.31153 1281.2923,332.95153 1280.0173,332.22053 1282.9563,330.42253 1283.4443,330.20353 1284.9943,329.50953 1286.7483,329.59253 1288.3213,328.96253 1289.2343,328.59753 1290.4503,326.50953 1291.5843,327.09353 1290.5913,326.45453 1291.1983,322.02953 1292.0223,321.20053 1292.8333,320.38653 1296.9643,318.91453 1298.0263,319.80953 1298.5673,320.26553 1297.5066,322.01981 1299.0912,322.41093 1300.7239,322.81393 1300.3433,322.44623 1301.4983,322.79423 1302.5753,323.11923 1302.2375,323.9499 1303.0715,324.3539 1304.1595,324.8809 1305.2593,324.2555 1305.1233,325.93953 1305.7713,325.52053 1306.8953,325.61753 1307.5843,325.85453 1308.8783,326.29853 1308.3323,327.89353 1308.0723,328.81953 1308.9373,328.96453 1309.9183,329.23353 1310.7793,328.88953 1311.6313,328.54853 1311.8263,327.57553 1312.6823,327.23553 1312.7563,327.77153 1312.5323,330.16853 1313.2583,330.19453 1314.3293,330.23253 1316.4853,331.64553 1316.8183,332.67253 1316.7223,332.37653 1320.8893,333.05053 1321.1033,333.06853 1322.1163,333.15553 1322.8723,332.94653 1323.6753,333.78353 1324.3073,334.44353 1324.7523,335.48053 1325.7133,335.73153 1325.9193,335.63353 1326.0843,335.48753 1326.2083,335.29353 1326.5183,334.97253 1326.6743,335.39853 1327.0033,335.44353 1327.1873,335.51353 1327.2363,335.63953 1327.1503,335.82053 1327.0933,336.21253 1328.0113,335.99853 1328.1633,336.01153 1329.1863,336.10453 1329.7743,335.47353 1330.7213,336.19453 1331.7293,336.96253 1333.8123,337.10453 1335.0733,337.31553 1333.5263,338.68053 1332.0983,340.17853 1331.5983,342.20653 1331.3553,343.19253 1330.7683,344.09853 1330.6133,345.09253 1330.5113,345.74253 1330.7323,346.00653 1330.4713,346.84153 1330.1573,347.85053 1330.9253,348.69153 1330.2463,349.31753 1329.6743,349.84553 1329.2323,350.35453 1328.3723,350.27753 1327.6513,350.21353 1327.5903,349.14653 1326.7223,349.62953 1326.0953,349.97853 1326.0353,351.09253 1327.0823,350.92553 1326.2953,351.75153 1325.6003,352.73253 1324.7023,353.44553 1324.1523,353.80353 1323.6143,354.17953 1323.0883,354.57353 1322.6553,354.96353 1322.6973,355.72753 1322.3323,356.18153 1321.7093,356.95553 1320.5023,357.31953 1320.3123,358.41353 1320.4523,358.78653 1320.5483,359.17053 1320.6023,359.56453 1320.4533,360.27353 1319.7943,360.52653 1319.5223,361.14853 1320.7103,360.99953 1321.1463,360.59353 1321.4613,359.45753 1321.7723,358.33953 1323.8323,358.42553 1324.6653,358.66053 1325.6653,358.94353 1324.9863,360.58753 1325.7143,361.38853 1326.9783,362.78053 1326.2003,363.30253 1325.0623,364.24553 1325.6653,365.10253 1327.9443,366.69053 1327.3153,367.94653 1326.8933,368.78953 1323.7483,369.94653 1323.7563,370.09053 1323.8123,371.08453 1325.7303,371.93153 1326.3923,372.49853 1327.3473,373.31853 1325.0603,374.77953 1325.3913,375.86353 1325.7923,377.17953 1328.3083,378.67153 1329.6393,378.13853 1331.3113,377.46953 1331.0613,378.44253 1330.4293,379.55553 1328.9063,382.23653 1325.9973,383.58853 1323.4023,385.34153 1323.5663,385.58553 1323.7363,385.82553 1323.9123,386.06153 1322.9433,386.20053 1322.1323,386.69853 1321.2243,387.01653 1320.2473,387.35953 1319.6233,386.81953 1318.7013,386.89253 1317.3023,387.00253 1316.4443,385.83653 1314.7713,385.98953 1315.4423,384.25853 1312.5743,385.58553 1312.5423,384.57953 1312.7243,384.26753 1313.0103,384.18553 1313.4003,384.33353 1313.3703,383.76653 1313.0303,383.44653 1312.4603,383.46953 1312.9383,384.20353 1312.5263,384.31153 1311.8663,384.34453 1310.7833,384.39853 1310.6663,384.33453 1310.3703,383.03753 1310.7613,385.62053 1310.1013,383.97353 1308.4303,383.97353 1307.4643,383.97353 1306.6743,383.36353 1305.7313,383.31753 1304.5753,383.26053 1303.3083,384.56653 1302.2813,385.03653 1301.4813,385.40353 1298.6623,386.44753 1298.8393,387.53653 1298.8203,387.89353 1298.7143,388.22553 1298.5183,388.53253 1298.0693,388.93253 1298.1073,389.28853 1298.6333,389.60053 1299.0293,390.85253 1298.7703,391.47953 1299.4993,392.68653 1298.8123,392.88353 1298.2133,392.53753 1297.5333,392.57853 1296.8273,392.62153 1296.4693,393.18353 1295.8393,393.35553 1294.3183,393.77053 1293.3913,392.19553 1291.9343,393.25653 1291.8323,393.33053 1289.8063,392.38453 1289.5883,392.22153 1289.0223,391.79853 1290.3173,391.85253 1289.4053,391.24353 1288.8773,390.89053 1287.9263,390.73553 1287.4783,391.31753 1287.2703,390.02853 1285.8433,390.56753 1285.0673,389.95553 1283.9973,389.11053 1281.8083,388.56853 1282.1483,390.59853 1280.9513,390.42553 1279.6003,390.12353 1278.3933,390.34553 1277.7223,390.46853 1277.2743,390.65853 1276.7013,390.14253 1275.6843,389.22853 1275.7613,389.60453 1274.7283,389.59053 1273.7043,389.57653 1268.7553,386.33053 1268.2483,387.64653 1267.3133,387.26053 1267.9773,386.58053 1268.0363,385.92553 1268.1063,385.14653 1265.8413,385.50153 1265.3683,384.91053 1268.2283,383.85153 1268.4703,379.88753 1268.9913,377.30953 1269.1963,376.29753 1269.3813,374.70253 1270.2223,373.98053 1271.4463,372.92853 1269.8043,372.78053 1269.6883,373.96653 1269.5183,371.53053 1270.0083,368.54553 1271.0583,366.33453 1272.0693,366.90353 1273.0753,367.57853 1273.5083,368.71053 1273.6063,369.21453 1273.7023,369.71853 1273.7983,370.22253 1274.0323,370.86353 1274.6733,370.95153 1274.6583,371.73453 1274.9483,370.72753 1273.9263,369.95253 1273.8333,368.99853 1273.6893,367.53253 1273.1743,366.53953 1271.8743,365.82653 1271.3293,365.52853 1270.7213,365.12153 1270.2673,364.68453 1269.5283,363.97253 1271.4573,364.32753 1271.8493,364.67953 1270.9413,364.23853 1270.8923,360.38553 1271.4193,359.63953 1270.2263,360.47453 1267.4193,358.83153 1266.8663,357.72453 1266.3773,356.74553 1265.2743,356.23653 1265.0533,355.09353 1264.8503,354.05053 1266.7633,352.90853 1264.3603,352.80053 1264.6433,352.46753 1264.6983,351.86253 1265.0633,351.60853 1265.9773,350.97053 1266.8193,352.04353 1267.6803,352.15253 1266.1523,351.14353 1265.5453,351.47853 1263.9513,351.68653 1263.1483,351.79153 1261.5923,350.60653 1263.0713,350.42453 1262.6583,350.01753 1262.8253,349.75353 1263.5713,349.63253 1262.4363,349.35053 1260.8233,350.27453 1259.9013,349.27253 1260.4093,349.26553 1260.8893,349.14553 1261.3413,348.91253 1260.4373,348.30853 1258.7713,348.55353 1258.5313,349.77653 1258.4983,348.97653 1257.6113,348.22853 1258.4613,347.54553 1258.1123,348.42153 1256.5413,348.36453 1257.5213,347.25753 1255.5273,348.98753 1252.8533,345.04853 1250.8313,347.18553 1250.0233,346.06853 1249.3483,345.38253 1247.9563,345.09353" id="path2182"/>
      <path d="M 1337.1663,393.11753 C 1337.5793,392.70253 1337.6613,391.86053 1338.2123,391.58353 1339.3123,391.03353 1340.5553,390.89153 1341.5973,390.19853 1342.5273,389.57953 1341.8713,387.83453 1343.1363,387.93253 1343.2883,390.12853 1344.3433,393.29353 1343.8213,395.42053 1343.2723,397.66453 1342.1673,399.80953 1341.1963,401.89953 1340.8193,401.30653 1337.2893,400.01753 1339.1763,399.23553 1338.6673,399.11653 1338.1873,398.92453 1337.7363,398.66053 1338.2333,398.34853 1338.5823,397.82753 1338.5263,397.22053 1337.5213,397.45753 1337.3763,396.33353 1337.9563,395.78153 1337.0983,395.56553 1336.5583,394.43953 1337.7363,394.19753 1337.4923,393.86553 1337.3023,393.50653 1337.1663,393.11753" id="path2184"/>
    </g>
    </g>
  <g id="rs">
    <title>Serbia</title>
    <path class="landxx rs- srb" d="M 1412.8746,360.84017 C 1411.7114,360.34722 1410.6808,362.11391 1410.2792,362.27648 1409.5738,362.56202 1408.3524,362.35008 1406.9026,362.83083 1407.3106,363.83883 1407.612,364.42267 1407.8349,365.47666 1407.975,366.14167 1408.1821,366.33361 1408.8681,366.3586 1406.8981,367.72762 1410.5743,368.56683 1411.1863,369.18082 1411.0963,369.09082 1409.1947,369.60897 1408.9437,369.70998 1409.5489,370.91265 1408.9057,371.52858 1408.7256,371.87704 1409.6349,371.52323 1410.4457,371.288 1410.6571,371.75105 1411.153,372.837 1411.2614,372.75365 1409.5988,375.27882 1409.0517,376.10984 1410.8168,377.34756 1412.3202,378.40341 1413.9493,379.91587 1411.1638,379.19038 1410.7327,379.53734 1410.4742,379.60204 1413.0235,382.41022 1412.488,382.66579 1411.08,383.33777 1409.6068,383.46907 1408.5708,383.49462 1409.0653,383.41872 1410.3249,384.94891 1412.2029,386.45217 1412.8002,386.93028 1412.9355,387.43002 1414.2833,387.88581 1415.3514,388.52213 1417.2831,387.91561 1417.6016,389.16445 1417.7384,389.25245 1416.1222,390.05601 1416.2218,390.09641 1416.3622,390.15331 1417.1972,391.52616 1416.903,391.67409 1418.8262,392.29515 1416.5214,393.47922 1419.8975,394.12153 1420.9174,394.31558 1420.887,398.86636 1420.9969,397.76398 1422.455,396.53254 1422.3439,394.30358 1425.7272,395.52482 1425.7632,394.43702 1426.8991,394.61812 1427.5034,394.1941 1428.1896,394.89444 1428.9481,393.47633 1430.0095,393.79959 1430.6713,394.00115 1435.14,393.51762 1434.016,391.85932 1433.3687,390.90438 1433.2064,389.78213 1433.764,389.18829 1434.3018,388.61551 1434.9767,389.24329 1435.5783,388.48275 1436.1688,387.73631 1436.6426,387.00309 1436.9642,386.24009 1435.9732,385.9261 1434.6994,384.63285 1433.9404,383.92185 1431.4994,381.63385 1432.7176,379.78626 1434.0916,377.49627 1433.7786,377.20927 1432.0779,375.48204 1432.7309,375.05203 1433.2779,374.69305 1433.9882,374.91986 1434.5452,374.64886 1433.9962,373.97685 1432.561,373.07171 1431.723,373.74172 1431.458,373.95472 1430.6877,375.26662 1430.4126,375.25362 1430.0366,375.23562 1429.3207,374.21708 1428.9007,374.0441 1427.9207,373.64009 1426.8219,373.32158 1425.8769,372.83458 1425.1763,372.47379 1425.6049,372.60119 1424.8869,372.34367 1425.7936,371.85719 1426.1702,371.07387 1424.9189,370.91951 1426.3219,369.60052 1425.184,369.32759 1424.001,368.89058 1422.786,368.44257 1421.2352,367.3468 1420.1822,366.63579 1421.4971,364.02678 1418.6876,364.01121 1418.3174,362.20088 1417.9869,360.5842 1414.5874,360.55592 1412.8746,360.84017 z" id="rs-"/>
    <g id="xk">
      <path class="limitxx xk srb" d="M 1416.3623,389.94751 C 1416.7509,389.65989 1417.5637,389.13913 1417.9667,389.32013 1418.0687,388.63313 1418.1418,389.41593 1418.4127,388.95877 1418.8529,388.21601 1419.3863,388.31955 1419.8723,388.11055 1420.8673,387.68155 1420.8397,387.22655 1420.3697,386.13355 1420.8427,386.06955 1421.436,385.74223 1421.829,385.47023 1422.131,387.43223 1426.9617,386.74303 1426.6217,388.69403 1426.4497,389.68003 1428.362,390.03069 1428.57,390.84069 1428.875,392.02669 1426.6523,393.24027 1427.5263,394.19827 1426.7343,394.56435 1425.5126,394.61471 1425.8076,395.57733 1424.6058,395.42781 1424.8132,394.75663 1423.0556,395.46431 1421.6552,396.02813 1421.7462,397.66257 1421.025,397.88148 1420.5465,397.74941 1421.2253,395.48841 1420.2357,394.71861 1419.9956,393.85512 1419.1386,394.1619 1418.2791,393.5074 1417.7134,392.59298 1418.123,392.12743 1417.066,391.79403 1416.8527,391.30085 1415.8868,390.34349 1416.3623,389.94751" id="xk-"/>
      </g>
  </g>
  <path class="landxx che" d="M 1319.5263,361.14955 C 1319.7503,360.71455 1319.9933,360.29255 1320.2553,359.88055 1320.5913,359.23355 1320.0754,358.71442 1320.3063,358.10637 1320.6512,357.19711 1322.2119,356.48975 1322.2653,356.20037 1322.4809,355.03381 1323.0602,354.2935 1324.7189,353.3465 1325.6145,352.83511 1326.1857,351.77382 1327.051,350.92655 1325.4385,351.12047 1326.4126,348.59372 1327.7386,349.79255 1329.1655,351.08269 1329.8046,348.96155 1331.1856,348.76655 1330.4656,349.60755 1334.1076,348.96155 1334.7766,348.99655 1336.0756,349.06355 1337.1031,349.10637 1337.3841,348.28037 1336.3901,348.65137 1336.1896,347.72466 1337.0909,347.41473 1337.4567,347.28894 1337.826,347.42473 1338.3911,347.64664 1339.336,348.0181 1340.5408,348.04137 1340.7322,348.11328 1341.8453,348.53126 1343.2346,348.68755 1344.1376,349.47955 1345.3256,350.52055 1343.5606,352.21655 1343.3556,353.37455 1345.6526,353.08555 1345.8406,354.74855 1347.7156,355.11255 1348.5256,355.26955 1348.8466,353.73855 1349.7316,353.98955 1350.7666,354.28255 1349.8816,355.44355 1349.7926,355.97655 1349.7236,356.39055 1350.6326,357.68455 1349.7076,357.70955 1349.0436,357.72755 1348.5256,356.53455 1347.8966,357.09055 1347.6696,357.29055 1346.8906,358.46655 1347.4336,358.71655 1348.3946,359.15755 1347.8256,359.49255 1347.6756,360.42955 1346.7386,360.05355 1346.6996,359.04155 1345.5156,359.27755 1344.3596,359.50755 1344.2326,359.75255 1343.2856,358.84555 1343.1926,358.75655 1342.1626,357.00355 1342.0246,358.43655 1341.8976,359.75055 1341.9226,360.07055 1340.9716,361.06355 1339.7606,362.32955 1340.8496,365.29755 1338.9136,362.46355 1338.4816,361.83255 1337.9716,361.52355 1337.3756,361.07755 1336.4646,360.39755 1336.8276,359.10555 1335.9356,358.48455 1335.4246,359.12655 1334.8216,359.77555 1333.9956,359.99755 1334.8986,361.04455 1332.9196,362.88655 1331.8056,362.78355 1329.7056,362.58955 1327.9706,363.91955 1326.3666,362.22955 1325.8016,361.63355 1325.0166,361.00755 1325.2116,360.06955 1325.4846,358.75855 1324.4485,358.44362 1323.3275,358.55719 1321.447,358.74772 1321.7671,361.09335 1319.5266,361.14955" id="ch">
    <title>Switzerland</title>
  </path>
  <path class="landxx mkd" d="M 1420.0363,400.24555 C 1420.9343,400.11355 1420.3383,399.38355 1420.3283,398.84555 1420.3143,398.09855 1421.6313,397.72455 1421.8123,396.80855 1421.9703,396.00955 1422.6433,395.61855 1423.3123,395.29655 1424.7933,394.58655 1424.5243,395.52155 1425.8663,395.56555 1425.5813,394.48155 1426.3513,394.88555 1426.8763,394.34155 1427.1843,394.18655 1427.4913,394.19155 1427.8013,394.35755 1428.5383,394.57055 1428.6113,393.87455 1429.2463,393.76555 1429.9653,393.64255 1431.4583,393.92955 1432.0393,393.49055 1432.7703,392.93755 1433.5493,394.56655 1434.0073,394.98955 1435.7133,396.56455 1437.2024,397.03166 1437.1926,399.80399 1437.1926,400.38199 1437.5822,401.34009 1437.2496,401.99655 1437.0591,402.37225 1436.3561,401.95175 1436.4196,402.57841 1436.5086,403.45487 1434.8291,404.06151 1433.8242,403.76115 1432.6966,403.42411 1431.5636,403.70955 1430.5956,404.41455 1428.6746,405.81155 1427.1526,405.81855 1424.7986,406.19655 1423.5326,406.39955 1424.0736,405.52955 1423.0066,405.80255 1421.6966,406.13855 1422.3376,405.00055 1421.6476,404.46255 1420.2586,403.38055 1420.5876,401.78555 1420.0366,400.24555" id="mk">
    <title>Macedonia, the Former Yugoslav Republic of</title>
  </path>
  <g class="landxx coastxx eu ita" id="it" transform="translate(-29.9017,-45.0745)">
    <title>Italy</title>
    <path class="landxx eu ita" d="M 1353.5711,414.65164 C 1354.5811,413.57664 1357.2431,414.48464 1357.1191,412.24764 1357.0691,411.34564 1356.411,410.95 1355.838,410.332 1355.527,410.013 1355.1701,409.64432 1354.9011,409.28932 1355.7468,408.80713 1356.603,407.74092 1356.0773,407.16239 1356.9793,407.40239 1357.971,408.279 1358.939,407.942 1360.155,407.518 1360.7132,407.72227 1361.8742,407.80927 1362.6372,407.86627 1363.5707,406.94036 1363.9157,406.34836 1364.1957,405.89436 1364.237,405.492 1363.8967,405.072 1364.7227,404.85 1365.3257,404.201 1365.8367,403.559 1366.7325,404.11066 1366.3768,404.83194 1366.8662,405.61418 1367.3328,406.35991 1368.0418,406.55999 1368.6823,407.17827 1368.9304,407.41769 1368.9869,408.13197 1369.9251,408.70955 1370.2274,408.89569 1370.1019,406.85659 1370.7661,406.23418 1371.5218,405.52595 1371.7656,405.06534 1371.8636,403.91627 1372.0307,401.95811 1372.6773,403.34771 1373.1144,403.81209 1373.8453,404.58865 1374.1084,404.70505 1375.0379,404.38736 1376.5408,403.87369 1376.5351,404.97701 1377.5757,405.503 1377.6817,404.844 1378.1897,404.178 1377.3507,403.796 1376.5997,403.454 1377.5957,402.10809 1378.0757,402.01209 1378.5507,401.91709 1379.0739,402.61727 1379.5149,402.73827 1380.4859,403.00527 1379.5849,401.41782 1379.6818,401.09736 1379.8706,400.47606 1379.9569,400.27088 1380.0607,399.98291 1380.6907,400.04571 1382.2715,400.52909 1382.6345,400.71509 1383.5875,401.20409 1384.2377,399.946 1384.7957,399.444 1385.5407,398.775 1386.7127,398.965 1387.6167,399.018 1389.0827,399.105 1390.4877,398.006 1391.9067,398.302 1390.3347,399.245 1393.5278,401.70153 1394.4128,401.98253 1397.0748,402.82653 1398.9418,401.97353 1401.5998,402.74652 1401.4888,403.75352 1400.4049,404.4439 1399.8967,405.071 1400.4927,405.408 1401.0887,405.784 1401.7667,405.935 1401.1907,406.611 1400.309,407.586 1401.5567,407.951 1400.8169,408.91389 1402.0236,409.27455 1402.4222,409.35427 1403.3675,409.5433 1403.6365,411.11004 1402.1967,410.831 1403.2037,408.754 1400.4827,409.92 1399.9667,410.111 1399.7487,408.678 1398.0087,409.983 1397.5027,410.301 1396.9477,410.65 1396.3677,410.973 1395.7827,411.267 1395.3947,411.462 1392.1017,412.526 1394.1367,411.477 1393.5907,411.59 1392.8617,411.516 1392.4067,411.91 1392.0847,412.189 1392.2367,413.34 1391.6167,413.206 1391.6067,413.539 1392.8387,415.25 1392.9577,415.283 1394.7847,415.785 1393.6287,418.438 1392.5567,417.238 1390.4697,420.924 1395.1547,424.426 1397.6797,426.037 1398.9157,426.826 1400.9167,427.381 1401.7837,428.618 1403.0477,430.419 1403.7157,432.788 1404.4567,434.843 1405.4077,437.481 1408.8737,440.18 1411.3417,441.314 1413.1687,442.154 1414.1417,442.413 1416.1737,442.141 1416.9327,442.04 1420.2827,441.547 1419.8677,443.286 1419.6697,444.116 1417.2957,444.888 1418.1647,445.903 1419.1027,446.998 1421.5867,447.621 1422.8597,448.075 1424.8897,448.8 1426.7157,449.517 1428.4147,450.871 1430.1477,452.252 1432.2757,452.662 1433.9667,454.187 1435.1037,455.212 1436.6187,456.286 1436.3347,457.994 1436.2697,458.382 1436.1887,460.128 1435.6057,460.186 1434.8117,460.265 1433.8297,459.793 1433.4087,459.103 1432.4897,457.597 1432.5507,455.853 1430.2757,456.082 1428.4487,456.266 1428.0807,455.073 1427.8257,454.39 1425.8977,454.715 1425.4747,454.696 1424.2597,456.488 1423.5077,457.599 1422.9607,458.993 1422.6857,460.308 1422.3707,461.815 1424.2917,462.182 1425.3317,462.66 1427.0017,463.427 1427.3037,464.62 1427.4677,466.308 1427.7437,469.158 1422.8137,467.109 1423.2757,470.55 1423.5017,472.233 1423.0467,472.365 1421.9727,473.508 1421.0647,474.476 1420.3607,475.67 1419.2767,476.464 1418.2577,477.211 1417.3967,476.791 1416.8857,475.702 1416.1087,474.044 1418.5157,473.275 1418.6377,471.767 1418.6787,471.255 1418.4297,470.638 1418.7837,470.181 1419.3737,469.417 1420.5317,469.988 1420.8467,469.005 1421.1207,468.149 1420.0447,467.178 1419.8337,466.396 1419.5057,465.181 1419.4007,464.113 1418.7447,463.003 1417.9587,461.673 1417.8417,459.68 1416.7967,458.556 1416.1737,457.887 1415.7397,458.046 1415.1507,458.535 1414.4477,459.12 1413.7247,457.932 1413.2637,457.562 1412.7417,457.144 1411.8927,457.254 1411.7317,456.413 1411.5997,455.72 1412.0537,455.513 1411.6857,454.661 1410.8907,452.822 1408.8217,452.779 1407.3077,453.741 1408.0847,452.562 1407.8377,451.456 1406.2377,451.617 1405.0457,451.736 1404.3717,449.977 1403.9407,449.155 1403.1757,447.694 1402.2697,448.544 1401.0207,448.176 1400.3537,447.98 1399.7317,447.666 1399.0147,447.837 1397.5127,448.194 1398.4757,447.996 1397.4407,447.151 1396.4137,446.314 1395.1157,446.084 1394.0957,445.16 1392.9627,444.135 1392.2967,442.619 1391.0567,441.754 1389.9807,441.002 1389.5627,441.193 1388.8447,440.019 1388.0957,438.793 1386.1737,437.353 1384.7087,438.261 1385.5487,436.854 1382.1217,433.222 1380.8537,433.402 1381.0037,433.381 1378.9787,427.645 1378.9017,427.272 1378.2067,423.895 1375.9067,424.272 1373.4787,422.637 1370.9667,420.946 1367.7737,420.027 1365.6657,422.756 1364.9167,423.725 1364.2957,424.843 1363.1797,425.445 1362.7847,425.659 1359.1704,426.80528 1359.4169,425.87946 1359.5979,425.19963 1362.2977,422.20476 1359.0847,423.34181 1357.1633,424.02178 1353.5423,420.98964 1355.9242,419.02164 1356.7789,418.31541 1356.6248,417.73137 1355.6122,417.22064 1353.9418,416.37814 1353.4556,415.09597 1353.6777,415.008" id="path2906"/>
    <path d="M 1365.478,455.04 C 1365.228,454.465 1364.743,454.1 1364.399,453.595 1363.764,452.664 1364.262,451.792 1364.118,450.792 1366.017,452.938 1368.455,450.371 1369.948,449.088 1370.49,448.623 1371.247,447.823 1372.026,448.317 1372.535,448.64 1372.888,449.501 1373.618,449.135 1373.359,449.694 1373.576,450.041 1374.188,450.072 1373.953,450.266 1373.716,450.459 1373.478,450.649 1374.95,450.589 1375.582,454.014 1375.268,455.04 1374.995,455.934 1373.657,456.413 1374.486,457.459 1375.308,458.497 1374.537,461.137 1374.472,462.389 1374.424,463.327 1374.503,465.269 1373.57,465.86 1372.707,466.406 1371.269,465.322 1370.308,465.408 1369.806,466.172 1369.978,468.288 1368.49,468.039 1367.075,467.802 1367.05,468.178 1366.348,466.776 1366.157,467.017 1365.963,467.257 1365.768,467.496 1365.529,467.293 1365.335,467.053 1365.188,466.776 1366.443,466.526 1365.651,465.742 1365.609,464.67 1365.557,463.351 1365.746,462.04 1365.838,460.728 1366.079,460.918 1366.319,461.111 1366.558,461.304 1366.542,460.85 1366.746,460.372 1366.606,459.921 1366.454,459.431 1365.722,459.609 1365.617,459.025 1365.522,458.5 1366.167,457.795 1366.16,457.192 1366.15,456.405 1365.296,455.779 1365.478,455.04" id="path2910"/>
    <path d="M 1379.738,435.456 C 1379.029,435.022 1378.186,435.404 1377.508,434.88 1378.235,434.54 1379.09,434.619 1379.738,434.088 1379.814,434.544 1379.814,435 1379.738,435.456" id="path2912"/>
    </g>
  <path class="landxx eu aut" d="M 1343.7863,351.57455 C 1344.4933,350.33655 1344.3483,350.68655 1344.0043,349.56855 1343.8853,349.18355 1349.4013,349.34655 1348.1063,351.57455 1349.6693,351.52855 1349.7113,350.06355 1350.0563,348.90855 1350.7213,349.50355 1352.2958,349.5101 1353.1298,349.4311 1352.4443,349.78018 1354.3232,350.37525 1354.5582,350.29764 1355.0477,350.53082 1355.7755,349.86042 1356.4563,349.62955 1357.8213,348.80555 1360.092,348.2051 1361.645,348.7121 1361.625,348.4431 1361.596,348.16128 1361.5228,347.90228 1362.2978,347.99828 1363.5506,348.64207 1364.3177,348.27764 1365.9214,347.51573 1365.738,349.29636 1366.7233,349.66891 1367.5316,349.97455 1367.8591,348.01904 1367.1633,347.92355 1366.2664,347.80045 1366.8132,346.77228 1366.7088,346.30928 1366.5681,345.68562 1366.0143,345.50655 1365.7573,344.95155 1365.1013,343.53355 1368.7543,343.04655 1369.4843,342.55255 1370.1163,342.12555 1369.6278,340.27228 1370.8028,340.71728 1372.3858,341.31728 1371.4659,339.67529 1371.8389,338.24329 1372.967,338.54121 1374.2928,340.33835 1375.5729,340.5051 1377.9087,339.91902 1378.1152,340.4786 1378.3473,340.5585 1378.3473,339.8625 1378.7384,339.18085 1379.4283,338.9575 1380.3272,338.6665 1380.2198,338.0375 1380.2873,336.8865 1381.7729,336.75613 1383.5635,337.4476 1384.9638,337.91286 1385.4399,337.66427 1387.721,339.4476 1389.4172,339.0435 1390.7459,338.72695 1393.3209,338.58892 1393.5197,340.16286 1393.5437,340.35459 1393.5507,341.10708 1393.7158,341.78211 1393.8971,342.52405 1393.7558,343.58697 1394.1441,344.13197 1394.6754,344.87742 1395.4171,345.00971 1395.3493,345.48728 1395.2813,345.96485 1394.4179,346.77775 1394.0603,347.71422 1393.3883,349.47422 1392.5628,347.23343 1390.9281,347.88959 1390.2162,348.17537 1393.5191,348.86124 1391.5602,349.85659 1390.0243,350.63705 1390.4283,352.6985 1390.8753,353.8775 1389.7749,353.64366 1386.9575,355.30293 1387.8553,356.7575 1386.2883,355.7665 1385.5563,356.9015 1384.0743,357.0365 1383.0073,357.1355 1382.2622,356.62838 1381.2598,356.83214 1380.4962,356.98738 1378.8494,358.58028 1378.2464,358.89428 1377.1164,359.48328 1374.2059,358.14091 1373.0803,357.97809 1370.1622,357.55597 1367.6085,357.91449 1364.6185,356.97846 1363.7095,356.69346 1360.2683,354.2715 1362.0063,353.2285 1361.0133,353.0215 1360.2053,353.7425 1359.2663,353.8765 1357.8923,354.0735 1356.7243,353.8895 1355.3473,354.2785 1354.5233,354.5105 1353.8673,355.9945 1353.0153,355.7465 1352.1553,355.4955 1351.3743,355.2995 1350.5073,355.0845 1349.7923,354.9065 1350.1736,354.07605 1349.7106,354.00005 1349.1526,353.90805 1348.7829,354.43548 1348.4539,354.84341 1347.8514,355.59048 1346.1183,354.5293 1345.6332,354.00904 1345.1074,353.44518 1344.3341,353.36114 1344.0381,353.35568 1344.3271,352.69668 1344.1603,352.0985 1343.7863,351.5745" id="at">
    <title>Austria</title>
  </path>
  <g class="landxx coastxx eu deu" id="de" transform="translate(-29.9017,-45.0745)">
    <title>Germany</title>
    <path class="landxx eu deu" d="M 1366.5765,332.3355 C 1365.9045,332.6125 1365.8348,333.57077 1365.9718,334.14978 1365.9718,333.75778 1366.3315,333.41727 1366.7781,333.24264 1366.4563,333.13649 1366.2923,332.82357 1366.5765,332.3355 z M 1367.4837,333.14185 C 1367.2681,333.14085 1367.0772,333.17705 1366.8789,333.24264 1367.2555,333.33454 1367.7879,333.27464 1368.0884,333.24264 1367.8913,333.15954 1367.6992,333.14324 1367.4837,333.14185 z M 1369.2312,333.03494 C 1368.6027,332.97024 1368.8234,333.17943 1368.1892,333.24264 1368.6052,333.45464 1369.06,334.75471 1369.298,335.15771 1369.509,335.51271 1370.4901,336.20362 1370.2051,336.66961 1369.7361,337.43661 1368.4208,337.01193 1367.8869,337.97993 1368.5929,338.27793 1369.2895,338.14693 1370.0035,337.97993 1368.4035,338.71593 1370.1297,339.22058 1370.4067,340.09659 1369.7297,340.06259 1369.4785,340.48872 1370.0035,341.00373 1370.5765,341.56473 1371.4132,341.39149 1372.1202,341.60849 1372.8712,341.83949 1373.2528,342.43959 1373.7329,343.01959 1374.3089,343.71459 1375.0797,343.79791 1375.7487,344.32991 1374.0127,344.14091 1373.552,342.69587 1372.221,341.91087 1371.348,341.39687 1370.3348,342.00387 1369.3988,341.91087 1368.3088,341.80287 1367.2505,341.4498 1367.0805,342.9188 1367.0125,343.5048 1367.4947,343.9665 1367.4837,344.53149 1367.3247,344.95249 1367.2623,345.3988 1367.1813,345.84181 1367.1113,345.11381 1367.2888,344.41653 1366.4757,344.02753 1365.5217,343.57153 1365.1782,344.47426 1365.7702,345.13625 1365.2442,345.26925 1364.7931,345.15885 1364.3591,344.83387 1366.7281,343.23387 1360.3128,342.98239 1359.6218,343.12039 1358.8278,343.27839 1357.4902,344.54764 1357.5051,345.43863 1357.5181,346.17764 1360.2801,346.56941 1359.8234,346.34577 1358.7044,345.79777 1357.9386,350.03046 1357.7067,350.98227 1357.4077,352.20932 1356.373,351.29697 1355.4893,351.88941 1354.1137,352.81162 1356.6798,353.24357 1357.0246,353.81671 1358.0119,355.45789 1354.592,355.94809 1355.6553,357.17241 1356.6936,358.36803 1352.0498,358.08896 1351.4158,357.76495 1351.8348,358.91794 1351.069,357.90997 1350.248,358.44098 1350.33,358.70825 1350.0408,358.7749 1350.248,359.14653 1351.167,359.46253 1352.2863,361.62283 1351.7833,362.59184 1351.3323,363.45984 1349.5692,364.73247 1350.4196,365.9175 1350.8753,366.55258 1350.5196,367.43276 1350.6095,367.6661 1350.8839,368.37676 1352.5419,368.41245 1351.7599,369.42745 1352.7489,369.26044 1352.6606,370.39852 1352.9516,371.0045 1349.9792,370.9765 1349.478,373.32542 1352.3162,374.7094 1354.3119,375.68254 1352.3171,377.56012 1353.0413,378.41186 1353.1517,378.54172 1355.0752,380.91604 1355.5565,380.83702 1356.2536,380.72255 1355.7018,380.29811 1356.7166,380.43174 1357.2579,380.50304 1356.7166,381.39185 1357.6415,381.15512 1357.985,381.06702 1358.4747,381.16412 1358.8277,381.12562 1360.1107,380.68162 1360.2424,381.37619 1361.4244,381.7482 1362.4904,382.08319 1363.8203,382.22699 1364.9282,382.412 1364.0272,383.20699 1363.176,383.99265 1362.444,384.94966 1361.605,386.04564 1361.3173,387.71434 1360.7595,388.92846 1360.3865,389.74045 1358.9898,395.60017 1361.0802,393.83729 1360.3582,394.67628 1363.9945,394.08685 1364.6615,394.12185 1365.9605,394.18985 1367.1029,394.14155 1367.3829,393.3155 1365.8239,393.89649 1366.3462,391.79773 1368.1892,392.71074 1369.4892,393.35576 1372.6354,393.75049 1373.9604,394.52049 1374.7734,394.99249 1379.0952,394.70071 1377.9662,396.64168 1379.5302,396.59568 1379.6371,395.17603 1379.9821,394.02106 1380.6471,394.61604 1382.1718,394.60401 1383.0059,394.52502 1382.2819,394.88301 1384.1508,395.42316 1384.5178,395.43216 1385.3787,395.45216 1385.9242,394.70681 1386.7352,394.62582 1388.3062,394.4678 1389.8313,393.25148 1391.5733,393.81947 1391.5533,393.55047 1391.5453,393.27212 1391.4725,393.01312 1392.2815,393.11312 1393.0685,393.51709 1393.8915,393.51709 1394.2905,393.38107 1394.6871,393.2947 1395.1011,393.21471 1395.5501,393.26571 1395.737,394.13923 1396.109,394.42423 1397.231,395.28521 1397.2201,394.84846 1397.5201,393.81947 1397.8191,392.79347 1396.5419,393.18858 1396.613,392.30757 1396.7,391.23258 1396.7384,391.27851 1395.9074,390.3925 1395.2814,389.72449 1395.7054,389.20562 1396.4114,388.8806 1397.2184,388.50961 1399.8383,388.06173 1399.8383,386.86473 1399.8383,384.75774 1401.2828,386.59122 1402.0558,385.65521 1403.4608,383.9552 1401.0142,382.77142 1399.9391,382.12744 1398.6831,381.37444 1397.6155,380.33161 1396.3106,379.60761 1394.6716,378.6966 1394.3428,376.62448 1392.7828,375.77746 1394.0128,374.79946 1393.4398,373.99543 1392.2788,373.35842 1391.3806,372.86487 1391.1803,371.97292 1390.7669,371.24176 1391.4203,371.14636 1391.9268,371.40661 1392.178,372.35049 1392.431,369.69548 1395.8437,370.72905 1397.2177,369.62907 1399.4107,367.87307 1403.0744,366.90372 1405.6844,365.89971 1405.4504,365.67771 1405.2248,365.50495 1404.9788,365.29495 1405.9788,365.05895 1406.2212,364.77183 1407.0838,365.90583 1409.2044,368.63969 1410.5465,363.57785 1409.4967,362.26557 1409.3647,361.44957 1408.0639,361.40925 1407.9909,360.75925 1407.8909,359.87625 1407.9589,359.57319 1407.2971,358.84418 1406.853,358.35618 1407.5187,357.9635 1407.7002,357.49876 1408.7413,354.83351 1406.077,354.11832 1406.7753,353.31837 1408.1753,351.71448 1404.3134,351.15562 1403.781,349.64805 1404.4923,349.08975 1406.739,345.64153 1405.2812,345.43866 1404.9842,344.32966 1404.6499,343.15525 1403.4669,342.71724 1402.7389,342.44824 1401.5541,342.25113 1401.451,341.30614 1401.398,340.81414 1401.1761,339.29026 1400.4431,339.29027 1399.9961,339.29027 1399.0913,339.29927 1399.3344,339.79424 1398.5254,339.32324 1396.7772,337.24262 1396.0082,337.17361 1394.3932,337.02861 1393.2853,337.16011 1392.0773,338.38313 1391.8812,337.02813 1394.1493,336.93182 1395.0003,337.07282 1393.3463,336.45682 1393.1077,336.93217 1391.8757,337.87916 1391.2947,338.32716 1390.0178,338.82624 1390.3638,339.79424 1390.5248,338.16024 1387.2836,339.61561 1386.5336,340.09662 1388.0046,339.38162 1386.3744,340.58113 1386.1304,341.30614 1385.5315,340.74414 1382.0273,339.96313 1382.8043,341.30614 1382.6613,340.78914 1382.3034,340.51 1381.7963,340.399 1382.7713,339.398 1383.651,338.73441 1383.913,337.2744 1382.586,337.5374 1381.8,338.068 1380.486,337.47599 1379.668,337.10699 1378.3672,336.60738 1377.9662,337.77837 1377.8602,337.25837 1377.8358,337.22843 1378.1678,336.77044 1377.4958,336.47144 1376.7101,336.50044 1376.0511,336.77044 1376.5531,336.53444 1377.6963,335.02596 1376.4543,335.05695 1378.4503,334.14995 1371.6583,333.5442 1371.9303,333.69319 1371.3258,333.36219 1369.8927,333.10309 1369.2312,333.03497 z" id="path3884"/>
    </g>
  <g class="world_map-is_selected landxx coastxx hrv" id="hr" transform="translate(-29.9017,-45.0745)">
    <title>Croatia</title>
    <path class="world_map-is_selected landxx hrv" d="M 1401.337,411.84 C 1401.831,411.955 1402.3193,412.08445 1402.817,412.191 1403.4639,412.3295 1403.9702,411.70835 1404.3154,411.58745 1404.4887,411.52675 1405.9437,412.92305 1408.0448,410.23818 1409.3489,411.51588 1410.4094,411.05393 1411.824,411.84 1413.6727,412.86731 1412.7556,410.59955 1413.577,410.4 1413.219,410.319 1412.918,410.012 1412.567,409.896 1415.4212,407.84864 1416.0964,410.00736 1415.0612,406.11118 1414.9294,405.61502 1417.4336,405.16889 1417.8427,404.77737 1418.4714,404.1757 1417.8207,404.38636 1418.4742,403.95736 1418.4842,403.95336 1419.461,404.204 1419.628,404.209 1417.7315,402.04246 1421.2982,402.90731 1422.0113,403.62174 1422.5151,404.12647 1425.2338,405.75581 1425.5945,406.24818 1427.0418,407.8758 1429.1484,408.67346 1431.4092,409.40936 1436.7919,409.70923 1434.352,408.2964 1436.7348,407.96846 1436.6798,407.4488 1437.1135,408.55045 1437.4217,409.199 1437.8667,410.1353 1437.4607,411.353 1438.847,411.409 1436.555,413.002 1441.5985,413.9125 1441.0656,414.24327 L 1438.847,414.793 C 1439.574,415.984 1438.6439,417.94173 1437.1279,416.76773 1436.132,414.99792 1436.1613,415.93186 1435.659,415.45064 1434.723,415.10764 1433.8626,414.91087 1432.9167,415.15945 1431.8897,415.42935 1431.9561,414.63975 1430.9541,415.19185 1430.2138,415.59972 1429.7078,415.17625 1429.0048,415.0083 1427.3101,414.9718 1425.8213,414.42702 1424.2335,413.97339 1423.0619,414.07912 1424.6853,414.57294 1422.8695,414.07921 1421.5399,413.71765 1421.4344,414.05821 1420.9779,414.88166 1419.9959,416.65304 1419.8539,415.87358 1418.1566,414.61741 1415.9727,413.00116 1416.2733,415.96173 1416.4067,417.06494 1416.4887,417.74688 1416.2825,417.87141 1416.9878,418.17539 1417.6198,418.44779 1418.6854,419.12326 1419.1329,419.74165 1420.0647,421.0294 1419.0939,422.82911 1421.0798,423.99012 1422.9791,425.10031 1424.0529,426.95102 1425.8113,428.26484 1427.2273,429.32284 1427.8765,430.63443 1429.0999,431.70085 1430.5765,432.98784 1429.8367,434.47027 1428.165,432.52003 1426.436,430.5029 1422.129,427.54703 1419.34,428.58603 1418.609,428.85803 1418.225,428.57703 1417.757,427.96903 1417.175,427.21403 1417.536,427.01203 1416.434,426.46503 1414.826,425.66603 1412.62,423.85503 1411.987,422.13703 1412.987,421.96503 1413.891,422.10903 1414.877,422.28203 1413.581,421.33003 1411.983,420.61703 1411.079,419.22003 1410.324,418.05303 1410.823,416.55803 1410.089,415.40103 1409.443,414.38403 1408.001,413.41203 1406.841,413.09503 1405.987,412.86203 1405.205,415.31903 1405.368,415.94603 1405.001,415.79403 1404.865,415.90303 1404.578,415.58603 1404.468,416.41003 1404.27,417.29203 1403.638,417.89003 1403.126,417.49503 1401.474,415.45103 1402.268,414.79403 1401.357,415.00503 1400.916,412.50703 1400.688,411.77003 1400.904,411.79203 1401.121,411.81503 1401.337,411.84003" id="path4066"/>
    <path class="world_map-is_selected landxx hrv" d="M 1429.917,433.944 C 1430.6635,433.28714 1431.5783,434.28448 1432.6004,435.18391 1433.8772,436.30744 1436.7268,436.54185 1435.827,437.616 1434.672,437.455 1432.664,435.822 1431.75,435.091 1430.95,434.451 1429.908,434.548 1428.987,434.232 1427.99,433.89 1427.163,433.005 1426.027,433.153 1427.206,432.247 1429.485,433.651 1430.427,434.377 1430.258,434.232 1430.087,434.088 1429.917,433.944" id="path4068"/>
    <path d="M 1406.667,415.944 C 1406.26,415.507 1406.141,415.004 1406.307,414.431 1407.139,415.803 1407.285,417.391 1407.747,418.895 1406.794,418.752 1405.864,416.649 1406.667,415.944" id="path4070"/>
    <path d="M 1407.888,420.408 C 1407.502,419.91 1407.095,419.43 1406.668,418.968 1407.184,419.336 1407.617,419.833 1407.888,420.408" id="path4072"/>
    <path d="M 1408.538,415.944 C 1407.892,415.875 1406.739,414.55 1407.818,414.215 1408.569,413.982 1409.146,415.658 1409.688,415.944 1409.298,416.342 1408.914,416.342 1408.538,415.944" id="path4074"/>
    <path d="M 1409.038,417.384 C 1409.278,417.528 1409.518,417.672 1409.758,417.816 1409.11,418.122 1408.871,417.978 1409.038,417.384" id="path4076"/>
    <path d="M 1410.478,422.784 C 1410.238,422.592 1409.998,422.4 1409.758,422.208 1410.075,422.308 1410.315,422.5 1410.478,422.784" id="path4078"/>
    <path d="M 1411.198,420.696 C 1410.498,420.024 1409.796,419.326 1409.328,418.464 1410.208,419.684 1411.758,420.126 1412.638,421.344 1411.938,421.881 1411.523,421.228 1411.198,420.696" id="path4080"/>
    <path d="M 1411.268,424.08 C 1411.031,423.864 1410.795,423.647 1410.558,423.432 1411.492,423.502 1411.712,424.597 1412.428,425.016 1411.879,424.904 1411.493,424.592 1411.268,424.08" id="path4082"/>
    <path d="M 1412.928,425.52 C 1413.487,425.832 1413.99,426.215 1414.438,426.672 1413.872,426.41 1413.276,426.057 1412.928,425.52" id="path4086"/>
    <path d="M 1412.928,424.296 C 1412.688,424.128 1412.448,423.96 1412.208,423.792 1412.569,423.804 1412.809,423.972 1412.928,424.296" id="path4088"/>
    <path d="M 1415.667,427.248 C 1415.93,427.368 1416.194,427.488 1416.457,427.608 1416.18,427.52 1415.917,427.399 1415.667,427.248" id="path4090"/>
    <path d="M 1419.768,428.688 C 1420.008,428.664 1420.248,428.64 1420.488,428.616 1420.252,428.712 1420.012,428.736 1419.768,428.688" id="path4092"/>
    <path d="M 1420.917,430.2 C 1420.677,430.08 1420.437,429.96 1420.197,429.84 1420.505,429.839 1420.745,429.959 1420.917,430.2" id="path4094"/>
    <path d="M 1423.078,430.776 C 1422.336,430.769 1421.402,430.59 1421.278,429.696 1422.275,429.665 1423.284,429.795 1424.228,430.128 1423.928,430.493 1423.544,430.709 1423.078,430.776" id="path4096"/>
    <path d="M 1424.448,433.872 C 1423.951,433.755 1423.448,433.684 1422.938,433.656 1423.829,432.881 1425.723,433.007 1426.678,433.584 1425.932,433.819 1425.149,433.419 1424.448,433.872" id="path4098"/>
    <path d="M 1425.748,432 C 1424.267,432.052 1422.774,431.916 1421.348,431.496 1423.039,430.94 1424.76,431.842 1426.468,431.784 1426.228,431.856 1425.988,431.928 1425.748,432" id="path4100"/>
    <path d="M 1430.568,435.6 C 1429.845,435.349 1429.084,435.25 1428.338,435.096 1429.099,434.929 1429.925,435.206 1430.568,435.6" id="path4102"/>
  </g>
  <path class="landxx eu rou" d="M 1416.7253,361.36555 C 1417.5063,360.82955 1418.1053,360.87455 1418.8933,361.07855 1419.6603,361.27655 1419.7073,360.28555 1420.3253,360.06955 1421.0043,359.83255 1421.7403,360.00455 1422.4213,359.79055 1423.4083,359.48055 1423.2173,358.28555 1423.6823,357.54555 1424.1243,356.84155 1424.7213,356.25055 1425.2183,355.58755 1425.8583,354.73455 1425.7773,353.97155 1426.3493,353.20055 1426.8533,352.52055 1427.4419,351.72177 1427.7172,350.90855 1428.0373,349.96273 1427.6622,349.52255 1428.3363,349.16455 1429.0003,348.81155 1429.1963,348.57255 1429.6563,347.98555 1430.3773,347.06755 1431.6913,347.72155 1432.5543,346.99855 1433.2653,346.40155 1433.7603,345.56355 1434.5443,345.04955 1435.6283,344.33755 1436.8543,345.23755 1437.9653,345.38255 1439.0233,345.52055 1440.0693,345.74255 1441.1303,345.85055 1442.3943,345.97955 1443.9953,345.42055 1445.1373,346.15655 1447.2983,347.55055 1447.4973,348.39155 1449.5073,346.47355 1450.7653,345.27255 1453.3833,345.88355 1454.9753,345.61655 1456.0233,345.44055 1455.8414,344.67864 1456.4414,344.01564 1457.0874,343.30164 1458.3304,343.25628 1459.2164,343.35728 1461.2014,343.58228 1462.3243,345.66855 1463.1563,347.24555 1464.0793,348.99355 1465.3803,350.51755 1466.7903,351.87055 1468.8493,353.84855 1469.8033,355.30655 1470.6323,358.02555 1470.9363,359.02055 1470.3423,360.02955 1470.1193,360.96955 1469.8633,362.05055 1470.3413,363.19855 1470.4223,364.28955 1470.5563,366.10255 1471.0013,366.84055 1472.4313,367.84955 1472.9803,368.23655 1474.291,369.18167 1475.1125,368.70545 1476.026,368.17586 1480.6929,365.59413 1481.3413,368.31355 1482.1646,371.76656 1480.3143,373.05555 1477.1263,373.02955 1477.5163,372.71555 1477.8523,370.82055 1477.0233,370.84855 1476.0343,370.88255 1476.5643,373.16755 1475.8353,373.74955 1476.3093,373.63855 1476.7893,373.56655 1477.2743,373.53355 1476.5483,373.84955 1475.2533,373.94655 1476.1253,374.90055 1476.3833,374.67855 1476.6233,374.43855 1476.8453,374.18055 1476.5363,375.31955 1475.3183,375.94455 1475.1153,377.13255 1474.8993,378.39955 1475.8559,380.47493 1475.0283,381.65793 1474.5473,381.25022 1473.472,381.69933 1472.9931,381.45073 1472.6123,381.25305 1471.2262,380.23555 1470.4767,379.55155 1469.4536,379.2364 1468.486,379.72217 1467.116,379.0637 1466.0109,378.53256 1464.1071,377.84044 1461.9813,378.70073 1457.3071,379.16101 1456.2996,381.78836 1454.1595,382.27295 1452.8449,382.57063 1451.0263,381.93104 1449.1267,381.68756 1446.8442,381.39501 1445.6294,382.04168 1444.3697,382.01234 1443.3171,381.98784 1442.0298,380.92434 1440.1858,380.85234 1439.2488,380.81574 1436.2316,381.61146 1435.5867,380.59055 1434.6427,379.09629 1438.3945,379.03192 1434.9487,377.78455 1434.0987,377.47686 1433.8054,377.52483 1432.6771,375.93953 1431.696,374.56104 1433.9939,374.89995 1434.4749,374.66495 1433.9329,374.00095 1432.7897,373.29555 1431.9167,373.60555 1431.3167,373.81855 1431.1607,375.40234 1430.4437,375.24734 1429.7247,375.09234 1428.6937,373.90534 1427.7757,373.64134 1426.7797,373.35434 1425.6137,373.09255 1424.8557,372.30955 1425.6907,372.06655 1425.8847,370.99655 1424.8557,370.87055 1425.8137,369.96955 1425.2967,369.34155 1424.1627,368.94455 1422.6347,368.40955 1421.4787,367.51255 1420.1607,366.62255 1421.3397,364.28455 1418.0717,362.86755 1416.7257,361.36555" id="ro">
    <title>Romania</title>
  </path>
  <path class="landxx eu cze" d="M 1360.7763,325.94155 C 1361.5213,325.94355 1362.1053,326.55955 1362.2863,327.23755 1362.546,324.64589 1366.2836,325.31261 1367.007,324.76096 1369.5931,322.78903 1372.9686,321.79997 1375.7563,320.83055 1375.5223,320.60755 1375.2813,320.39255 1375.0363,320.18255 1375.6643,320.03655 1376.3963,319.80855 1376.8863,320.36455 1377.3213,320.85855 1377.7068,321.789 1378.4953,321.51455 1379.0331,321.32735 1379.7166,321.43885 1379.8233,320.80355 1379.9507,320.0448 1380.2661,320.19649 1380.7661,320.32449 1381.6051,320.53849 1381.8413,320.66555 1382.0813,321.45655 1382.7823,323.35845 1386.6038,321.27911 1386.6963,323.56655 1387.0713,323.16855 1388.0001,323.0302 1388.5433,323.13755 1390.3401,323.49264 1388.5533,324.55808 1387.9263,325.07955 1389.1753,325.51355 1389.6023,326.17955 1390.3213,327.17655 1391.2003,328.39655 1392.6153,326.96855 1393.3963,326.44755 1392.9233,326.05255 1392.6603,325.54955 1392.6063,324.93555 1394.4653,325.42255 1396.2003,326.83855 1398.2163,326.23155 1398.2373,327.16161 1398.1031,328.71 1399.1785,328.62728 1400.3196,328.53948 1400.7293,328.32855 1401.9343,328.89555 1403.2253,329.50255 1403.5246,329.06455 1404.1886,330.46755 1403.0611,329.69959 1405.5341,330.70987 1406.5541,332.9706 1405.2471,333.4566 1403.276,333.6926 1402.115,334.5616 1401.28,335.1866 1401.2809,336.56657 1400.4019,337.0016 1399.5064,337.44476 1398.3984,338.58671 1396.4373,338.55201 1395.1502,338.52921 1394.2182,338.55801 1393.4663,340.19955 1392.8083,337.79855 1389.4783,339.51655 1387.9783,338.99955 1386.7423,338.57355 1385.5313,338.08155 1384.2833,337.67755 1383.2713,337.35055 1381.3383,336.81355 1380.2863,336.88755 1380.3643,337.57255 1380.0803,338.22055 1380.1463,338.90355 1379.1273,338.76255 1378.3533,339.57155 1378.3463,340.55955 1376.8323,339.95655 1376.8023,340.60555 1375.3183,340.46955 1374.3313,340.37855 1373.5093,339.31755 1372.7323,338.79555 1371.7353,338.12555 1370.6732,337.56365 1369.6363,336.96055 1368.6683,336.39755 1367.5679,335.00072 1366.5355,334.59614 1364.8143,333.92166 1364.4133,331.53655 1362.8663,330.69555 1365.0434,328.77649 1360.9755,328.65104 1360.7763,325.94155" id="cz">
    <title>Czech Republic</title>
  </path>
  <path class="landxx alb" d="M 1412.2563,408.09355 C 1412.6463,407.42755 1412.9813,406.64355 1412.6963,405.86255 1413.7513,406.03155 1413.2113,403.61155 1413.4293,402.82755 1413.5973,402.22255 1412.6573,402.19255 1412.9963,401.42155 1413.2513,400.84355 1413.4613,400.23555 1413.5883,399.61555 1413.8033,398.55955 1413.6253,397.38655 1412.2563,397.72555 1411.7413,396.12755 1411.7536,393.98367 1412.7713,392.63596 1413.598,391.5412 1413.7344,389.79667 1414.8921,391.83776 1415.6257,393.13126 1416.7482,390.31175 1417.8371,392.39655 1418.0637,392.83047 1418.03,393.14542 1418.3875,393.49096 1419.0775,394.15796 1419.5402,393.46606 1420.5833,394.93436 1420.7586,395.18113 1421.0439,396.72914 1420.9729,397.93592 1419.8339,398.66046 1421.2368,399.81108 1420.0615,400.37154 1420.1155,400.80654 1420.4833,401.14055 1420.6743,401.50855 1420.7083,401.82555 1420.8077,401.99256 1420.6193,402.26056 1420.4783,402.95556 1421.0498,403.87607 1421.5179,404.24855 1422.0686,404.68676 1421.9089,405.77665 1422.9219,405.65855 1423.9101,405.54334 1423.8518,406.14049 1424.1609,406.83555 1425.363,409.53836 1423.4377,408.90691 1422.7501,410.61715 1422.5188,411.19229 1421.9295,412.52215 1421.2815,412.86556 1419.6071,413.75288 1419.6675,413.68368 1420.3259,415.29255 1418.8294,415.11407 1420.7831,416.19153 1418.8079,416.51776 1417.6606,416.70725 1417.3379,416.07455 1417.1929,415.15655 1416.8159,412.76655 1413.6409,411.91055 1412.2559,410.03655 1412.7409,410.11155 1413.0779,410.37555 1413.2659,410.82855 1413.9849,409.99555 1412.5939,409.46855 1413.3359,409.17255 1412.8959,408.89355 1412.5359,408.53255 1412.2559,408.09355" id="al">
    <title>Albania</title>
  </path>
  <path class="landxx eu pol" d="M 1373.8863,304.84555 C 1373.8383,303.12855 1376.3973,302.67955 1375.4553,300.67855 1375.1293,299.98555 1374.3693,298.95255 1374.6543,298.11455 1374.7863,297.72655 1376.1273,298.22255 1376.4063,298.22155 1376.2623,297.65555 1376.3823,297.15155 1376.7663,296.70955 1376.6913,296.82855 1376.6183,296.94855 1376.5463,297.06955 1376.1113,296.69455 1375.6083,296.47855 1375.0363,296.42155 1375.3403,297.18555 1374.1553,296.75255 1374.0963,296.06155 1375.7533,296.68455 1378.4093,295.24855 1379.9143,294.64355 1381.7203,293.91655 1386.1153,294.11455 1387.2493,292.60955 1388.6353,290.77155 1391.8993,289.92455 1394.0843,289.34755 1396.8133,288.62555 1400.5743,288.04555 1402.8953,290.01355 1402.2703,289.58255 1401.5273,289.14155 1400.7353,289.43755 1401.6853,290.33055 1401.9283,292.04655 1403.3103,292.44655 1404.9743,292.92755 1407.2073,292.20555 1408.8053,291.74155 1408.1033,292.16555 1407.2433,292.27655 1406.5553,292.74255 1405.5683,293.41255 1407.6692,293.02873 1408.0473,292.83555 1410.621,291.52073 1412.8754,292.5777 1415.9403,292.53455 1419.9779,292.47775 1425.6702,293.47605 1429.6792,292.88505 1432.6732,292.44505 1433.3903,293.84755 1434.1373,296.59055 1434.9063,299.41055 1438.3723,302.72455 1437.3773,305.82455 1436.8743,307.39355 1434.897,306.83101 1434.064,308.03401 1433.231,309.23801 1432.5029,310.14969 1434.5339,310.52569 1437.7889,311.12769 1435.0787,314.31121 1436.0436,316.06624 1437.0589,317.91287 1437.4196,320.12723 1440.1963,321.47755 1439.7963,321.68155 1439.3883,321.87355 1438.9763,322.05355 1440.2053,323.14155 1440.5313,324.37655 1438.7743,325.02655 1437.0063,325.67955 1435.4267,327.39037 1434.2173,328.77414 1433.1728,329.96914 1430.9431,331.52455 1431.6363,333.37155 1431.9266,334.14508 1431.8343,334.96555 1432.1263,335.73255 1432.3583,336.34155 1433.0423,336.13255 1432.9263,336.95755 1431.7303,336.11255 1429.9283,336.12755 1428.5653,335.64455 1427.2253,335.16855 1426.5733,334.14455 1425.1983,333.77655 1423.8463,333.41355 1422.3373,333.20155 1421.0103,333.75455 1419.2943,334.46955 1419.0933,333.81855 1417.4363,333.61455 1416.1603,333.45755 1415.6893,333.70955 1414.7543,334.49955 1414.3493,334.84155 1413.8303,335.27855 1413.2713,335.32555 1412.3133,335.40555 1412.6303,334.39455 1412.2563,333.93355 1411.8553,333.43755 1410.9383,333.02655 1410.4283,332.41455 1409.6063,331.42855 1407.6113,333.59255 1406.7163,333.71755 1406.9483,332.94355 1403.6413,329.46855 1402.5313,329.16455 1401.2853,328.82455 1400.6773,328.31155 1399.4653,328.69655 1398.1973,329.09755 1398.0743,326.97855 1398.2163,326.22855 1396.2003,326.83555 1394.4663,325.41955 1392.6063,324.93255 1392.6593,325.54555 1392.9223,326.04955 1393.3963,326.44455 1392.6153,326.96655 1391.2013,328.39355 1390.3213,327.17355 1389.6023,326.17655 1389.1753,325.51055 1387.9263,325.07655 1388.2563,324.79055 1389.4953,324.12855 1389.2263,323.53955 1388.8733,322.76855 1387.1363,323.09655 1386.6963,323.56355 1386.6313,321.59155 1383.0081,323.00601 1382.2473,321.86555 1381.5235,320.78055 1382.2373,320.96183 1380.6172,320.30249 1379.3647,319.79316 1380.39,321.7157 1378.7763,321.40355 1379.9002,318.60991 1380.6353,317.71355 1378.4933,316.25755 1377.5713,315.63055 1378.3013,314.92555 1377.5753,314.28155 1376.6303,313.44255 1377.6753,313.05055 1377.8333,312.15555 1377.9303,311.60555 1377.7183,310.61355 1377.6463,310.05455 1377.5743,309.49155 1376.4193,309.63255 1376.6403,308.69255 1376.7853,308.07655 1377.5543,307.46555 1376.7203,306.96355 1375.7093,306.35955 1374.7433,305.65455 1373.8863,304.84555" id="pl">
    <title>Poland</title>
  </path>
  <path class="landxx bih" d="M 1386.4063,370.22155 C 1386.3253,367.87755 1388.2853,369.54255 1389.1893,370.27755 1390.1673,371.07355 1390.8473,370.40255 1391.2363,369.39455 1391.6103,368.42655 1393.0883,369.07755 1393.7563,369.21355 1393.8743,368.27155 1397.8303,369.86155 1398.7263,369.86155 1399.3453,369.86155 1400.4753,370.49155 1400.9763,370.13855 1402.1333,369.32555 1401.8333,370.30355 1402.8613,370.07655 1404.1143,369.79955 1405.2083,370.11255 1406.3803,370.58355 1407.3593,370.97855 1406.7443,371.92555 1408.0043,371.99455 1408.7893,372.03655 1409.8613,371.19455 1410.5483,371.53755 1411.6513,372.09055 1410.7283,373.61155 1410.2713,374.22555 1408.7513,376.26755 1410.4313,376.96355 1411.9203,378.09655 1414.4883,380.05155 1411.1783,379.08455 1410.8013,379.62655 1410.7533,379.69555 1412.5623,381.96155 1412.5743,382.51855 1412.5853,383.00455 1409.1613,383.65855 1408.5863,383.46855 1408.4463,384.37655 1409.5733,384.74355 1409.1663,385.70055 1408.6073,383.85855 1405.9423,386.19455 1406.7863,387.71655 1403.9699,387.09372 1407.5684,391.65654 1405.8228,391.62508 1404.7154,391.60518 1402.7713,390.26455 1401.9203,389.58255 1401.4693,389.22255 1401.4072,388.78974 1400.7774,388.70768 1400.195,388.63178 1400.0413,389.20324 1399.4473,388.36455 1401.3263,388.33955 1397.7617,385.35074 1397.4314,384.94079 1395.7397,382.84079 1394.4843,382.13355 1392.9483,380.40555 1392.1603,379.51855 1391.1173,379.05555 1390.3113,378.22055 1389.3633,377.23855 1389.9741,375.65755 1389.0751,374.56255 1388.3921,373.73055 1387.5163,373.51555 1386.6803,372.92855 1386.2583,372.63555 1386.4803,370.85955 1386.4063,370.22155" id="ba">
    <title>Bosnia and Herzegovina</title>
  </path>
  <path class="landxx eu bgr" d="M 1432.3463,381.23755 C 1432.2923,380.06055 1433.3093,378.45055 1434.0413,377.56955 1434.2753,377.28755 1436.2563,378.24555 1436.3763,378.50255 1436.7013,379.20455 1435.3223,379.90355 1435.7373,380.61855 1436.3423,381.66155 1439.6823,380.66655 1440.7203,380.88255 1442.4093,381.23455 1444.2603,382.42555 1445.9733,381.80855 1447.3523,381.31155 1449.0993,381.69755 1450.5653,381.81455 1452.7333,381.98755 1453.8923,382.96055 1455.8953,381.43555 1457.4433,380.25555 1458.5193,379.30455 1460.5043,378.96055 1462.3173,378.64655 1464.2603,377.63755 1466.0283,378.56255 1467.1533,379.15155 1468.7773,379.62655 1470.0413,379.39455 1470.4753,379.31555 1472.1113,381.07455 1472.7353,381.32455 1473.5783,381.66155 1475.0643,380.98455 1475.2123,382.20055 1475.3703,383.51355 1475.5563,384.52255 1473.9643,384.39955 1472.3743,384.27655 1471.6433,385.44055 1471.0023,386.75255 1470.4503,387.88255 1471.0473,389.14655 1470.3643,390.38455 1470.1543,390.76355 1469.9103,391.12555 1469.6843,391.49555 1469.3203,392.09455 1468.5803,391.68955 1468.2053,392.40055 1470.1643,392.84555 1470.5373,394.25955 1471.7983,395.57055 1473.3493,397.18455 1469.9333,397.16655 1468.9193,396.87955 1467.8193,396.56855 1467.7071,395.43682 1466.3161,395.83582 1465.2841,396.13282 1464.4653,396.41652 1463.4001,396.75982 1461.7952,397.27706 1462.8657,397.47151 1462.5153,397.65555 1461.9219,397.96717 1460.6981,398.55078 1461.3591,399.02382 1456.4584,398.05407 1462.0969,401.13652 1459.1706,402.226 1457.8554,402.71564 1458.195,401.88888 1454.4236,402.69501 1453.3347,402.92774 1452.4652,401.75383 1451.4967,401.809 1450.2375,401.8807 1450.1348,402.33097 1448.9494,400.79655 1448.2552,399.89805 1447.4847,400.08046 1446.4677,400.24446 1445.0627,400.47246 1444.1838,402.1092 1442.6926,402.07679 1440.7608,402.03479 1439.9015,401.98509 1439.2966,402.50833 1438.9652,402.79508 1437.9666,402.51943 1437.0699,402.24701 1437.8014,401.43133 1437.0159,400.23511 1437.1139,399.00466 1437.2119,397.76701 1435.9022,396.59844 1435.0353,395.88534 1434.1543,395.36134 1433.3969,394.14137 1432.6989,393.41837 1436.0123,392.433 1432.5959,391.65432 1433.5297,389.36655 1433.8514,388.5784 1434.6167,389.13755 1435.1507,388.79855 1435.8047,388.38255 1436.6457,386.98155 1436.9567,386.28055 1435.0281,385.66739 1432.6152,383.09868 1432.3467,381.23755" id="bg">
    <title>Bulgaria</title>
  </path>
  <g id="me">
    <title>Montenegro</title>
    <path class="landxx mne" d="M 1405.7063,391.60555 C 1407.5893,391.29555 1403.8173,387.08455 1406.7863,387.71755 1405.9423,386.19555 1408.6073,383.85955 1409.1663,385.70155 1409.5733,384.74455 1408.4463,384.37655 1408.5863,383.46955 1409.7943,383.86755 1410.1023,384.59095 1411.1133,385.46695 1412.4893,386.65795 1412.9187,387.20113 1414.5477,388.02213 1415.1827,388.34213 1417.0479,388.12955 1417.4409,388.82155 1418.0409,389.87755 1416.4816,389.80055 1416.3196,389.93455 1415.8236,390.34155 1417.6333,391.43255 1416.7223,391.89255 1416.1053,392.20455 1415.3583,392.59555 1414.8403,391.86255 1414.5563,391.46255 1414.3633,390.62355 1413.7273,391.34355 1412.1093,393.17455 1411.5646,395.20901 1412.3296,397.58101 1411.1586,396.91501 1409.9413,395.72355 1409.1603,394.63855 1408.9223,394.30655 1406.922,392.63292 1406.507,392.68892 1407.22,392.37292 1407.0713,392.43355 1407.8683,392.82855 1407.9473,391.61055 1405.3533,393.64755 1405.7063,391.60555" id="me-"/>
    </g>
  <path class="landxx eu hun" d="M 1388.2863,354.95755 C 1388.9623,354.23555 1389.8373,353.64755 1390.8763,353.87755 1390.5463,353.00455 1390.3173,351.83255 1390.5983,350.91755 1390.8363,350.14255 1391.8123,349.88855 1392.0633,349.10555 1392.2703,348.45955 1389.9403,348.22255 1391.2213,347.73955 1392.1933,347.37355 1393.2273,349.00855 1393.9503,347.80355 1394.4608,346.95205 1394.9095,345.79741 1395.332,345.40066 1395.7545,345.00391 1396.1508,345.36506 1397.3213,346.27055 1400.2113,348.50755 1403.1393,347.37455 1406.4963,346.96455 1404.6353,345.48255 1407.2948,345.42469 1408.4338,345.31469 1408.9918,345.26069 1410.4288,344.76764 1410.5728,344.07164 1410.8198,342.88264 1411.8023,343.82494 1412.6673,344.16594 1413.8333,344.62494 1415.6728,344.14694 1416.5218,343.33891 1417.1398,342.75191 1416.9023,341.08955 1417.6703,340.78555 1419.1663,340.19555 1420.9813,341.05955 1422.4863,341.20555 1423.1343,340.16755 1424.0493,340.86123 1424.6363,341.46523 1425.5163,342.37123 1426.3896,342.72477 1427.5683,342.23555 1429.6179,341.38485 1430.6263,343.83904 1432.5613,344.52355 1434.7072,345.28267 1433.2274,346.44199 1432.6773,346.94455 1431.7736,347.77007 1430.2746,347.02905 1429.6563,347.98455 1429.1809,348.71935 1427.8633,349.72337 1427.8457,350.43906 1427.8267,351.20294 1426.3015,353.6847 1425.2193,355.58755 1424.7363,356.43679 1423.7439,357.17506 1423.496,358.15001 1423.3044,358.90371 1423.486,359.60752 1421.8603,360.03255 1421.0341,360.2486 1420.3375,359.85297 1419.8103,360.62955 1419.2143,361.50754 1418.4913,360.82791 1417.7423,361.07155 1416.6472,361.42778 1415.3793,361.11955 1414.2763,361.00655 1413.4983,360.92655 1412.2603,360.47855 1411.6073,361.09855 1410.8613,361.80655 1410.6323,362.40555 1409.5173,362.45755 1408.4913,362.50455 1407.3863,362.60955 1406.4293,363.00955 1405.5333,363.38355 1405.2823,364.27055 1404.2183,364.40555 1402.4373,364.63055 1400.1323,364.18955 1398.6693,363.25655 1397.8293,362.72155 1397.0363,362.84055 1396.3663,361.92855 1395.5363,360.79855 1394.3653,360.14155 1393.2113,359.38055 1392.1533,358.68255 1391.3303,358.07055 1390.6833,356.97655 1390.1713,356.11155 1389.5213,354.73855 1388.2863,354.95755" id="hu">
    <title>Hungary</title>
  </path>
  <g id="nl" transform="translate(-29.9017,-45.0745)">
    <title>Netherlands</title>
    <g class="landxx coastxx nlx eu nld" id="nlx">
      <path d="M 1336.388,359.208 C 1336.151,359.232 1335.915,359.256 1335.678,359.28 1336.439,359.597 1337.345,360.67 1338.188,359.856 1337.696,359.42 1337.059,359.128 1336.388,359.208" id="path6448"/>
      <path d="M 1336.678,358.848 C 1337.875,358.393 1338.621,360.43 1339.778,359.568 1338.883,359.141 1337.65,357.759 1336.678,358.848" id="path6450"/>
      <path d="M 1342.797,348.84 C 1343.418,348.6 1343.853,348.031 1343.377,347.4 1342.847,347.698 1342.525,348.237 1342.797,348.84" id="path6452"/>
      <path d="M 1344.458,346.536 C 1344.213,346.682 1343.927,346.818 1343.738,347.04 1343.978,346.872 1344.218,346.704 1344.458,346.536" id="path6454"/>
      <path d="M 1345.758,345.888 C 1346.511,345.655 1347.302,345.507 1347.988,345.096 1347.205,345.229 1346.427,345.444 1345.758,345.888" id="path6456"/>
      <path d="M 1348.917,345.24 C 1349.446,345.227 1349.95,345.107 1350.427,344.88 1349.894,344.873 1349.391,344.993 1348.917,345.24" id="path6458"/>
      <path d="M 1333.228,362.736 C 1333.349,361.401 1338.067,362.451 1338.988,362.448 1338.174,363.275 1336.846,363.895 1335.724,363.367 1334.989,363.021 1333.501,363.413 1333.228,362.736" id="path6482"/>
      <path class="landxx nlx eu nld" d="M 1354.7858,344.93451 C 1352.2738,345.25451 1349.2619,345.44555 1347.4279,347.35355 1346.5859,348.22955 1345.3287,349.07162 1344.1017,349.26862 1343.2987,349.39762 1342.4937,349.62414 1342.1866,350.47814 1341.1407,353.39214 1340.3132,355.21589 1338.0541,357.43288 1337.1791,358.29088 1339.3574,358.98437 1339.8684,359.14636 1341.0824,359.53137 1342.594,358.55674 1342.993,359.44874 1341.428,359.14874 1339.7697,360.61472 1338.2557,359.95271 1339.6077,360.81371 1338.0354,360.17848 1337.4494,360.55747 1338.0124,360.95147 1339.0748,360.7552 1339.1629,361.6662 1338.0539,362.0142 1337.406,360.91688 1336.643,360.35588 1335.69,360.35588 1334.4976,360.04843 1333.9216,361.06144 1334.6516,362.02444 1336.0132,361.82699 1337.0462,361.76699 1337.8982,361.71799 1340.6401,363.17262 1340.4732,361.46461 1340.9962,361.86161 1341.7646,362.06983 1342.1866,361.36382 1342.5406,362.22682 1343.8373,361.94783 1344.3033,361.36382 1344.8513,363.39082 1347.8005,363.37024 1349.5446,364.08524 1348.3593,365.45439 1347.2082,367.474 1350.2501,367.51221 1351.5613,367.52871 1350.0272,365.47217 1350.2501,365.09317 1350.9399,363.92069 1352.3358,362.68824 1351.8628,361.16223 1351.6218,360.38423 1351.0882,359.43537 1350.2501,359.14636 1350.1731,357.37936 1352.0625,359.22006 1351.5604,357.83605 1352.1454,358.13505 1355.5667,358.48468 1355.7937,357.53367 1355.8957,357.10567 1355.1707,356.56137 1355.7937,356.22336 1356.0657,356.13336 1356.2613,355.98118 1356.4993,355.82019 1359.0653,353.25619 1354.5798,353.27783 1355.2898,352.09083 1355.8208,351.20283 1357.6268,352.22528 1357.7088,351.38528 1357.8168,350.26228 1358.4568,349.43348 1358.7167,348.36148 1359.1168,346.71248 1356.3889,344.7315 1354.7858,344.93451 z M 1348.4358,352.09083 C 1348.6762,352.06273 1348.9649,352.06963 1349.2422,352.19163 1350.0762,352.55864 1349.7232,353.11694 1349.2422,353.50194 1348.7712,353.87894 1348.3071,354.34146 1347.8311,354.71146 1347.119,355.26646 1345.9804,354.17649 1345.2104,354.20749 1345.4474,353.6945 1345.9768,353.36356 1346.5208,353.19956 1347.1868,352.85006 1347.7149,352.17512 1348.4358,352.09083 z" id="path6484"/>
    </g>
    </g>
  <path class="landxx eu svk" d="M 1393.4663,340.19755 C 1394.2503,338.16755 1395.2303,338.52655 1397.0963,338.50655 1397.8143,338.49855 1400.8463,337.00255 1400.9273,336.33955 1401.2373,333.79355 1407.2793,331.84155 1406.7163,333.71655 1407.5033,333.60755 1409.1446,331.87349 1410.0017,332.19109 1411.3384,332.6864 1412.7143,334.1024 1412.4053,334.65255 1413.5576,335.56589 1413.9557,334.99509 1415.2567,334.04009 1415.7047,333.71109 1416.9335,333.30794 1417.5876,333.54209 1419.9774,334.39772 1420.9567,333.39036 1422.7633,333.40955 1424.8021,333.43125 1425.7757,333.41655 1427.4977,335.05491 1428.1738,335.69803 1429.9058,335.89087 1430.4533,336.09409 1430.8977,336.16479 1430.8213,336.08209 1430.2843,337.64164 1429.815,339.00462 1428.5365,340.34129 1428.3463,341.53455 1428.3083,341.77052 1428.8286,342.17407 1428.0324,342.10841 1425.4651,343.49033 1424.1213,340.68065 1423.5615,340.85487 1422.9719,341.03835 1422.8788,341.33628 1422.1818,341.20128 1421.3498,341.04028 1420.4078,340.72202 1419.5623,340.63755 1417.5763,340.43914 1417.1239,340.82985 1416.9257,342.72901 1416.7931,343.99902 1413.7032,344.76512 1412.642,344.18633 1410.0441,342.76935 1411.1632,343.89957 1410.0771,344.84006 1409.1225,345.66678 1404.2373,345.16244 1406.559,346.99641 1404.98,347.18941 1403.376,347.75066 1401.6784,347.63201 1401.0968,347.59131 1400.0583,347.72051 1399.2253,347.50455 1398.4796,347.31123 1397.6623,346.66055 1396.9603,346.31155 1395.8883,345.77955 1394.5133,344.87155 1393.9273,343.78755 1393.6783,343.32755 1393.9163,342.75055 1393.7579,342.25355 1393.4639,341.32655 1393.6353,341.03855 1393.4663,340.19755" id="sk">
    <title>Slovakia</title>
  </path>
  <g class="landxx coastxx eu grc" id="gr">
    <title>Greece</title>
    <path class="landxx eu grc" d="M 1417.6563,416.37355 C 1418.1843,416.49355 1418.8683,416.59655 1419.3793,416.35155 1420.4663,415.83055 1418.6803,415.12555 1420.3263,415.29355 1419.7453,413.85255 1419.3513,413.90455 1420.7333,413.15655 1421.6043,412.68555 1422.1923,412.03055 1422.5033,411.08155 1422.9323,409.77155 1423.4053,409.88655 1424.2393,408.94955 1425.0453,408.04555 1423.8047,406.94437 1423.8507,406.01637 1424.4562,406.41638 1425.4109,405.86518 1426.4153,405.88734 1428.6501,405.93664 1429.7974,404.59567 1431.6483,403.77034 1432.8386,403.23956 1434.2425,403.94964 1435.5571,403.50255 1436.396,403.21726 1435.8621,402.10356 1437.0365,402.12735 1437.816,402.14315 1438.7363,402.91331 1439.4293,402.42731 1440.3583,401.77631 1441.7603,402.17131 1442.8103,402.02931 1443.8593,401.88731 1444.8573,400.72455 1445.8603,400.40655 1446.6493,400.15555 1447.9893,399.71255 1448.6743,400.42755 1449.2733,401.05155 1449.7403,402.21755 1450.8343,401.87055 1452.0183,401.49555 1452.7403,402.41955 1453.8543,402.63855 1454.8503,402.83355 1455.7473,402.21155 1456.7463,402.25155 1457.6453,402.28755 1458.8783,402.55555 1459.6593,401.95455 1460.6303,401.20555 1459.5643,400.26755 1459.2843,399.49455 1458.7843,398.10855 1461.8017,399.111 1462.1207,399.29 1463.1387,399.856 1462.9465,400.77756 1463.3315,401.77656 1461.1129,402.73037 1461.6753,403.29343 1461.5712,404.69418 1461.4902,405.78793 1460.8413,406.65705 1459.4873,407.30255 1459.9093,406.15255 1454.6313,405.91955 1453.8123,405.59555 1452.2193,404.96555 1452.2443,405.28355 1450.8173,406.22255 1449.8333,406.86955 1448.9213,405.02855 1447.9903,405.49155 1446.6843,406.14155 1446.6343,407.88555 1444.6513,407.16155 1443.1663,406.61955 1443.2713,407.32155 1443.6563,408.31055 1443.8653,408.84555 1444.6453,408.44855 1444.2213,409.21755 1443.9333,409.73955 1444.5643,410.35855 1444.9603,409.93255 1445.7693,409.06555 1447.8163,411.84655 1448.2563,412.34255 1447.1173,412.96455 1445.6743,410.51855 1444.4963,410.41955 1441.7773,410.19355 1445.3923,412.87155 1445.5253,413.63855 1444.2573,414.04955 1442.9313,411.82555 1441.8793,411.40355 1440.9993,411.05055 1440.8863,411.61155 1441.2223,412.27355 1441.7133,413.24055 1442.6653,413.48255 1443.4363,414.14255 1441.5813,414.91955 1441.1293,413.28855 1440.5933,412.12455 1439.9893,410.81155 1438.0303,410.63755 1437.1763,409.53455 1437.7353,409.37155 1438.0203,408.96555 1437.8963,408.38255 1433.8833,408.93355 1435.7273,413.40255 1437.2083,415.34955 1437.9953,416.38355 1443.1773,421.12155 1439.4773,421.48555 1441.0643,420.93355 1439.5633,418.76655 1438.3973,419.10955 1436.8733,419.55755 1438.1913,422.40355 1439.4073,421.91855 1438.6313,422.91855 1437.3463,423.52055 1436.0883,423.14255 1436.9133,423.56555 1439.1943,424.19155 1439.5423,424.99855 1439.8223,425.64655 1440.6073,424.59555 1441.0503,425.25555 1441.4673,425.87855 1440.4093,425.94355 1441.8663,426.35455 1443.4013,426.78755 1444.3483,427.67155 1445.7983,428.32255 1446.8693,428.80355 1446.8053,429.70355 1446.6703,430.71055 1446.5223,431.82055 1447.4723,432.81055 1446.8983,433.87155 1445.6763,432.90255 1444.6153,431.23455 1442.9773,430.92755 1441.7823,430.70355 1440.6233,431.65355 1439.4783,431.56655 1439.4573,432.56155 1440.3743,431.66255 1440.4383,432.72855 1440.4803,433.41955 1441.6603,435.89255 1441.8583,434.08755 1442.1063,434.58155 1443.4043,435.12055 1442.9283,435.81555 1443.0383,435.65455 1440.7653,436.81555 1441.1283,436.82355 1440.1123,436.80255 1440.8013,435.76955 1440.0243,435.45855 1439.2573,435.15155 1438.3243,435.08155 1437.6773,434.51955 1437.5483,436.29455 1439.2263,437.86255 1439.8123,439.44955 1440.1603,440.39355 1440.6163,441.21055 1440.3653,442.21355 1440.1443,443.09855 1441.4933,443.35655 1441.3023,444.18555 1441.2173,444.55355 1438.6673,441.98955 1438.4513,441.64655 1437.1823,439.62855 1436.0713,442.84555 1436.4473,444.02355 1435.3623,444.17855 1434.9803,441.10555 1434.1943,440.55455 1433.6903,440.20155 1433.8853,439.22555 1433.0683,439.30755 1432.0013,439.41455 1432.1833,440.77455 1432.2773,441.50355 1430.1163,441.13655 1429.3713,438.64755 1430.2363,436.86555 1430.9403,435.41655 1426.6923,432.63455 1426.0073,431.63855 1426.8613,431.36955 1427.2903,430.16755 1427.9043,429.59355 1428.5033,429.03455 1429.2033,429.63755 1429.8603,429.06255 1430.3113,428.66755 1430.8063,427.75955 1431.5273,427.89855 1432.8483,428.15355 1433.7463,429.51055 1435.2143,429.64155 1436.3583,429.74355 1437.1053,430.57955 1438.0323,431.13555 1438.7673,431.57655 1439.1243,430.69955 1439.8883,430.23955 1440.5043,429.86755 1441.3343,429.31855 1439.9593,429.14855 1439.2103,429.05555 1438.5693,429.16855 1437.8853,428.74155 1437.1043,428.25355 1436.9393,427.38655 1436.3063,428.39855 1435.9433,427.87655 1435.5103,427.41955 1435.0063,427.03055 1435.1213,428.90155 1432.4423,427.42255 1431.6783,427.59355 1429.7283,428.03055 1428.4843,428.64055 1427.4463,426.81555 1427.3103,427.47055 1426.7073,427.95455 1426.1563,428.25555 1425.7883,427.06755 1425.4863,425.76855 1424.4403,424.99055 1423.8873,424.57955 1422.3273,423.46455 1423.1263,422.63855 1423.4273,422.32655 1427.3783,423.57055 1425.5763,421.91855 1425.0193,421.40955 1422.9223,421.28355 1423.0563,422.56555 1422.4653,420.82055 1420.8463,420.57155 1419.7123,419.44355 1418.9163,418.65155 1419.0443,416.49555 1417.6563,416.37355" id="path6492"/>
    <path d="M 1417.5153,418.31755 C 1417.7783,418.48555 1418.0423,418.65355 1418.3053,418.82155 1416.9073,419.09155 1415.0703,416.69755 1415.1353,415.43755 1417.9353,415.16155 1415.5463,417.68355 1417.5153,418.31755" id="path6518"/>
    <path d="M 1443.4363,426.81355 C 1443.7733,425.33155 1439.7543,422.60455 1438.5363,423.64555 1439.1243,422.99555 1439.7743,421.96555 1440.7623,421.93755 1441.8983,421.90455 1442.3233,423.22855 1442.9983,423.88255 1444.0113,424.86355 1445.4903,424.47055 1446.6773,425.01455 1448.0653,425.64955 1447.3973,427.49155 1448.1463,428.54855 1448.7473,429.39655 1450.0133,429.10955 1450.4883,430.18055 1451.1363,431.64655 1448.8773,430.45855 1448.5633,430.17155 1447.8273,429.49555 1447.3623,427.89055 1446.5073,427.47155 1445.5913,427.02055 1444.0683,427.89555 1443.4363,426.81355" id="path6534"/>
    <path d="M 1444.0063,421.62955 C 1443.7503,421.43155 1443.5103,421.21455 1443.2853,420.98155 1443.8293,420.84155 1444.1393,421.04655 1444.0063,421.62955" id="path6536"/>
    </g>
  <path class="landxx eu svn" d="M 1371.0014,362.58227 C 1370.8698,361.96351 1371.4584,361.20919 1371.8663,360.86155 1371.1883,360.71055 1370.5923,360.33455 1369.9963,359.99755 1371.5081,358.35249 1370.7903,357.34841 1372.6623,357.79941 1373.3643,357.96841 1377.5543,359.44355 1378.1553,358.91155 1379.3503,357.85155 1380.4153,356.68255 1382.1433,356.79055 1383.0543,356.84755 1384.1583,357.29755 1385.0173,356.77455 1385.8983,356.23855 1386.9593,356.19055 1387.8573,356.75755 1387.0863,355.79055 1388.2873,354.27055 1389.3343,355.10755 1390.1473,355.75855 1391.1491,357.39128 1391.7551,358.27028 1390.9491,358.14728 1388.3073,357.47055 1389.7273,359.13355 1388.9273,359.10355 1388.4803,358.57455 1388.1473,359.50055 1387.9613,360.01755 1385.9703,360.48655 1385.3803,360.84255 1384.9223,361.11955 1385.7623,362.48555 1385.7263,363.07555 1385.6713,363.99655 1383.5233,364.06555 1382.6673,364.82055 1383.0183,364.93655 1383.3183,365.24355 1383.6773,365.32455 1383.0373,365.45555 1383.5003,367.76355 1382.2643,366.97255 1380.8453,366.06455 1379.4763,366.48155 1378.1273,365.18055 1377.6713,366.28455 1376.0803,367.22955 1374.8633,366.68455 1374.3623,366.46055 1374.3753,366.44555 1373.9793,366.83755 1373.3783,367.43255 1372.1213,366.92355 1371.4373,366.76455 1372.1933,366.09755 1373.7483,365.84555 1373.1673,364.82055 1372.7093,364.00955 1370.6223,364.22255 1371.6573,362.87755" id="si">
    <title>Slovenia</title>
  </path>
  <path class="landxx ukr" d="M 1428.3863,341.99755 C 1428.1533,340.47755 1429.4483,339.43055 1430.0693,338.16755 1430.4168,337.46055 1430.2071,336.49383 1430.5922,336.22749 1430.9774,335.96115 1432.0023,336.30509 1432.9263,336.95755 1433.0053,336.39555 1432.6502,336.3368 1432.2262,336.0438 1431.6152,335.6218 1431.9633,334.48155 1431.7023,333.84455 1430.8523,331.77855 1432.5733,330.39655 1433.9413,328.96455 1435.0703,327.78355 1436.2283,326.39455 1437.6333,325.53655 1439.1963,324.58255 1441.0783,323.91655 1438.9763,322.05255 1439.3883,321.87255 1439.7953,321.68055 1440.1963,321.47655 1438.4333,321.07455 1435.9573,317.28055 1436.0773,315.54155 1436.1813,314.04355 1438.2233,315.58555 1439.0573,315.14655 1439.8273,314.74155 1440.5203,314.14455 1441.0013,313.43055 1441.6093,312.53055 1443.1223,312.76655 1444.0293,312.76255 1446.0703,312.75255 1448.1223,312.57755 1450.1583,312.49955 1451.9653,312.43055 1453.4233,313.08255 1455.1073,313.50755 1455.9333,313.71555 1458.5633,313.44955 1459.1543,314.10255 1459.7733,314.78855 1460.3673,315.51955 1461.4003,315.17655 1462.2903,314.88155 1462.9463,315.73055 1463.7363,315.93155 1463.8683,314.73055 1464.3333,315.40555 1465.3313,315.29355 1466.0673,315.21055 1466.7133,315.17355 1467.3513,315.63855 1467.8033,315.96855 1468.4693,315.35355 1468.9973,315.57355 1469.5053,315.78455 1469.5283,316.62055 1470.0773,316.86855 1469.8913,315.41155 1471.6483,314.93355 1472.7183,315.50255 1473.8453,316.10055 1473.7903,317.77955 1475.4543,316.57455 1475.9343,316.22755 1476.3203,316.21155 1476.8703,316.48655 1477.5773,316.84055 1478.5183,316.09655 1479.3083,316.26855 1479.8053,316.37655 1481.9573,318.93555 1482.2623,317.59555 1482.6373,315.94155 1481.2123,315.40655 1482.1553,313.58855 1482.8253,312.29655 1484.0133,310.74055 1485.5883,311.51855 1485.8373,311.64155 1486.8133,311.14155 1487.0483,311.08355 1487.7833,310.90155 1488.8246,310.921 1489.5533,311.09755 1491.0017,311.44843 1492.485,311.86203 1492.7832,309.16796 1496.4924,309.68888 1495.6514,309.84008 1498.1201,309.03268 1499.2867,308.95178 1500.485,309.82645 1501.7451,309.11118 1502.4603,308.70523 1503.7379,310.10301 1504.0307,310.80365 1505.0919,313.34253 1506.3387,312.60231 1507.0093,313.98759 1506.4763,314.31859 1505.4334,314.32465 1505.0254,314.76465 1504.7874,315.02265 1507.1788,317.41353 1506.1028,318.04753 1507.0009,318.35019 1509.3826,319.2346 1510.496,318.63293 1511.7607,317.94947 1512.5103,319.9646 1513.8603,319.89159 1513.9063,320.27641 1513.2504,320.46455 1515.6847,324.96634 1516.8064,326.12884 1517.8253,325.00234 1518.6086,324.92804 1519.9899,324.79417 1521.3391,326.25308 1522.9543,326.75632 1523.9973,326.74932 1525.4227,325.50784 1527.5239,324.96579 1528.7318,324.6542 1529.599,325.82362 1529.977,326.64051 1530.5923,327.97014 1532.516,328.25741 1532.9303,329.44504 1534.6103,328.47804 1533.8473,327.80904 1535.8833,328.87504 1536.9373,329.42704 1539.7663,330.61304 1540.6403,329.59004 1541.3943,331.09404 1542.5913,330.19404 1543.4483,331.21104 1543.8703,331.71304 1544.5739,332.03599 1545.2073,332.19451 1546.3233,332.47381 1546.6418,331.59872 1547.4564,331.89745 1546.4504,332.85751 1548.6741,334.97723 1546.8965,336.29257 1546.3892,336.66795 1545.1546,336.50287 1545.6113,337.46057 1546.2067,338.70912 1547.5124,337.1855 1547.5513,338.75657 1546.6953,338.50057 1545.2584,339.28604 1545.7404,340.36504 1545.9054,340.73404 1548.6248,341.66604 1547.2138,342.69404 1547.5128,342.93604 1547.8498,343.00804 1548.2238,342.91004 1548.406,343.50734 1547.7089,345.83257 1547.445,346.2627 1546.6156,347.61446 1544.5513,346.48557 1543.2313,346.74857 1542.4603,346.90257 1541.7941,346.39423 1541.0473,346.79957 1540.3509,347.17757 1540.3219,348.11557 1539.3313,348.45157 1536.3824,350.16638 1537.6581,351.40138 1538.1203,351.42857 1537.5683,351.91257 1538.1313,352.71257 1537.4633,353.09857 1536.6473,353.57057 1534.5753,353.08657 1533.5963,353.26557 1532.6303,353.44357 1532.4983,354.48457 1531.4963,354.56057 1530.3153,354.65057 1528.9173,355.26957 1528.6203,356.54057 1528.0753,355.63057 1526.8233,355.70157 1526.0133,356.16457 1524.6483,356.94357 1523.6903,356.55657 1522.2473,356.98857 1519.8323,357.71257 1519.4493,361.10457 1517.0203,361.72357 1517.1163,361.30557 1520.5233,358.69357 1517.8203,358.33957 1518.7623,359.70557 1516.9453,359.96557 1516.1303,360.51457 1515.8338,360.71407 1516.6392,363.24186 1516.5999,363.48719 1516.4006,362.79063 1515.1614,361.81652 1515.0838,362.09108 1515.0038,361.87556 1516.0087,361.35477 1514.746,360.84219 1513.8089,364.9206 1512.4488,360.62691 1513.8514,361.67638 1513.9901,360.89118 1513.9384,359.8634 1513.9294,360.86484 1513.9754,360.95894 1513.5516,361.06477 1513.2585,361.02304 1512.8681,360.96744 1512.5489,360.32496 1512.417,361.46429 1512.5564,361.53799 1511.1739,359.87736 1511.1952,360.00247 1511.2632,360.68661 1511.9185,361.17705 1507.9749,360.48611 1508.2085,360.88723 1509.1141,361.62215 1510.0878,362.22663 1510.1698,361.78539 1510.6558,361.36893 1511.2709,362.75902 1511.0266,360.47018 1514.1874,364.07678 1514.2573,362.70502 1514.3353,362.81413 1514.7847,363.49361 1513.8456,364.27208 L 1515.1902,363.46756 C 1514.7494,364.20423 1517.6488,365.46394 1517.7603,365.60537 1519.077,367.27594 1516.8632,367.62943 1520.3789,368.63151 1520.2456,367.95252 1517.1862,364.87255 1517.7853,365.43686 1518.2692,365.89266 1519.4599,367.00932 1519.9725,367.29284 1520.4851,367.57635 1520.974,367.7867 1521.4123,367.89091 1521.8506,367.99512 1522.2384,367.99318 1522.5487,367.85211 1522.8591,367.71104 1523.0921,367.43085 1523.2209,366.97855 1523.9989,367.88155 1524.4949,367.60855 1525.3849,367.14455 1526.5739,366.52555 1528.0229,367.11755 1528.9809,367.91555 1527.8349,368.06855 1527.8539,368.62155 1527.8719,369.57155 1527.8929,370.73655 1526.8329,370.68255 1525.9399,370.78455 1524.9689,370.89455 1524.4359,370.85155 1523.5519,370.36355 1523.0169,370.06755 1522.2809,369.60455 1521.6309,369.85955 1520.9889,370.11255 1521.3379,370.78455 1520.9439,370.94155 1519.9849,371.32455 1519.4309,372.28055 1518.4119,372.42455 1517.0279,372.62055 1515.8079,372.48255 1514.7329,373.56555 1512.8859,375.42655 1509.4569,377.66055 1507.4499,374.32255 1508.8969,374.64955 1509.2579,369.77955 1507.0319,369.45155 1505.8009,369.26955 1505.1549,368.82455 1504.1129,368.20255 1503.1419,367.62355 1502.2409,368.03555 1501.2139,367.90755 1499.6539,367.71055 1503.1329,365.39355 1503.6709,365.17855 1504.7329,364.75555 1508.4079,364.16355 1508.7409,362.87455 1507.8289,362.90155 1507.6799,361.99355 1507.6609,361.29055 1506.6049,361.88455 1506.8719,362.03155 1505.5199,361.36555 1504.4099,360.81855 1502.9159,361.40355 1501.6979,361.42455 1500.3759,361.44755 1499.5499,361.59055 1498.3389,360.92155 1497.2979,360.34655 1496.1219,359.40755 1494.8509,359.77855 1498.6089,358.29655 1493.8949,358.86255 1492.9809,357.54655 1495.3299,358.69955 1498.4729,358.37555 1500.4609,356.89855 1499.1209,357.28055 1497.3029,357.93955 1496.1119,356.75755 1495.2159,355.86855 1495.8979,354.35655 1494.9209,353.44255 1495.6829,354.44255 1495.4389,355.39355 1495.4609,356.50555 1495.4779,357.35655 1493.5139,356.81555 1493.0509,357.11455 1492.7919,356.62055 1492.8159,356.14055 1493.1199,355.67455 1492.5339,355.79755 1492.4269,356.58055 1492.1369,356.99055 1491.7309,357.56655 1490.5449,357.02055 1489.9359,357.12655 1487.3319,357.57755 1487.7319,360.05555 1486.2109,361.64955 1486.0699,360.89255 1484.6289,358.60955 1483.6199,359.34555 1483.9919,360.40355 1485.6339,360.49455 1485.9469,361.55755 1486.3179,362.81455 1482.7909,365.12855 1481.8899,365.61055 1482.7069,365.06555 1483.7269,364.48955 1483.9799,363.45055 1483.0269,363.52155 1481.2849,366.67855 1481.0899,364.45855 1480.6389,364.95555 1480.0069,366.55655 1481.4489,365.89755 1481.2709,366.13055 1481.1049,366.37055 1480.9489,366.61855 1481.9649,366.76555 1482.5279,368.70555 1481.3799,369.06655 1481.0522,365.98952 1478.5078,367.44595 1477.0987,367.79392 1475.2918,368.24012 1474.8813,369.56393 1472.8401,368.19401 1472.5285,367.98491 1470.2548,366.76106 1471.9622,366.46828 1473.7235,366.16624 1473.1731,365.17201 1474.0191,364.11801 1474.9511,362.95601 1476.0236,362.04237 1475.7806,360.31637 1475.5676,358.80237 1475.3359,358.44255 1477.2089,357.76255 1477.3639,358.19955 1477.5299,358.63055 1477.7089,359.05855 1478.7849,356.84255 1481.7554,360.51091 1483.3684,358.80691 1482.6664,358.59191 1482.3908,357.96315 1481.7278,357.68915 1483.6187,356.74746 1480.3156,353.68219 1478.7415,353.46895 1479.1435,352.82842 1479.1613,350.37153 1478.2585,351.54591 1477.9864,351.89978 1477.0334,349.13258 1476.8424,348.84558 1476.3564,348.11158 1476.2104,347.32623 1475.6829,346.52755 1474.3573,344.5206 1474.9611,346.94662 1473.5166,345.293 1472.9125,344.60142 1471.3151,343.44174 1471.0001,344.89774 1470.7751,343.60574 1469.925,345.22596 1469.682,343.97996 1468.216,344.66996 1466.571,341.82268 1465.3001,341.42146 1464.2861,341.10137 1463.5184,342.84756 1460.5519,342.19555 1459.9694,342.06753 1459.2859,342.21455 1459.4889,343.00455 1459.15,343.43352 1458.1716,343.33815 1457.6339,343.46455 1457.1133,343.58693 1456.4309,343.82755 1456.2289,344.39655 1455.7629,345.71055 1455.0759,345.60055 1453.7239,345.72155 1452.0569,345.87155 1450.2449,345.55155 1449.0209,346.92855 1447.2179,348.95755 1446.2359,346.47155 1444.5219,345.91655 1443.7029,345.65155 1442.7739,345.93855 1441.9539,346.03655 1440.9319,346.15855 1440.4069,345.82055 1439.4449,345.65555 1438.4689,345.48855 1437.5129,345.82055 1436.6379,345.20955 1435.1799,344.18955 1434.9809,345.47255 1433.6489,345.81355 1433.6139,344.26755 1432.1359,344.87555 1431.3639,344.02455 1430.8209,343.42455 1430.5089,343.68655 1429.9789,343.29455 1429.3779,342.85155 1429.2479,342.19355 1428.3859,341.99755" id="ua">
    <title>Ukraine</title>
  </path>
  <g id="li">
    <title>Liechtenstein</title>
    <path class="landxx lie" d="M 1343.3563,353.37355 C 1343.3793,352.74555 1343.5223,352.14555 1343.7863,351.57455 1344.2463,352.21955 1344.7263,353.66655 1343.3563,353.37355" id="li-"/>
    </g>
  <g id="sm">
    <title>San Marino</title>
    <path class="landxx smr" d="M 1363.2352,381.46247 1363.7119,380.77194 1364.3883,381.30769 1363.8343,381.90329 1363.2352,381.46247 z" id="sm-"/>
    </g>
  <g id="va">
    <title>Holy See (Vatican City State)</title>
    <path class="landxx coastxx vat" d="M 1364.4789,398.71214 1364.3909,398.74024 1364.281,398.70324 1364.363,398.61974 1364.4669,398.60154" id="va-"/>
    </g>
  </svg>