<svg xmlns="http://www.w3.org/2000/svg" class="world_map zoom4" height="127" id="svg2985" version="1.1" viewBox="1235 277 33 33" width="127">
  <title>World Map</title>
  <defs id="defs2987"/>
  <defs>
    <link xmlns="http://www.w3.org/1999/xhtml" href="../css/svg.css" type="text/css" rel="stylesheet"/>
  </defs>
  <style id="style_css_sheet" type="text/css">
/*
 * Below are Cascading Style Sheet (CSS) definitions in use in this file,
 * which allow easily changing how countries are displayed.
 *
 */
/* --- Custom styles for Peace Corps --- */
.world_map .world_map-is_selected {
  fill: #C94112 !important;
}
.world_map .landxx {
  fill: #F2EFE8;
  stroke: #ffffff;
  fill-rule: evenodd;
}
.world_map.zoom4 .landxx {
  stroke-width: 2px;
}
.world_map.zoom3 .landxx {
  stroke-width: 3px;
}
.world_map.zoom2 .landxx {
  stroke-width: 4px;
}
.world_map.zoom1 .landxx {
  stroke-width: 5px;
}
.world_map .coastxx {
  fill: #F2EFE8;
  stroke: #ffffff;
  stroke-width: 2px;
  fill-rule: evenodd;
}
.world_map .oceanxx {
  opacity: 1;
  color: #ccc;
  fill: #ffffff;
  stroke: #ffffff;
  stroke-width: 0.5;
  stroke-miterlimit: 1;
}

/* --- Original Styles --- *
/*
 * Circles around small countries
 *
 * Change opacity to 1 to display all circles.
 *
 */
.circlexx
{
   opacity:0;
   fill:#e0e0e0;
   stroke:#000000;
   stroke-width:0.5;
}

/*
 * Smaller circles around French DOMs and Chinese SARs
 *
 * Change opacity to 1 to display all subnational circles.
 *
 */
.subxx
{
   opacity:0;
   stroke-width:0.3;
}

/*
 * Circles around small, unrecognized countries
 *
 * Change opacity to 1 to display all circles.
 *
 */
.unxx
{
   opacity:0;
   fill:#e0e0e0;
   stroke:#000000;
   stroke-width:0.3;
}

/*
 * Circles around small countries, but with no permanent residents 
 *
 * Change opacity to 1 to display all circles.
 *
 */
.noxx
{
   opacity:0;
   fill:#e0e0e0;
   stroke:#000000;
   stroke-width:0.5;
}

/*
 * land
 */
.landxx
{
}
/*
 * Styles for coastlines of islands with no borders
 */


/*
 * Styles for nations with limited recognition
 */
.limitxx
{
   fill: #e0e0e0;
   stroke:#ffffff;
   stroke-width:0;
   fill-rule:evenodd;
}

/*
 * Styles for nations with no permanent population.
 */
.antxx
{
   fill: #e0e0e0;
   stroke:#ffffff;
   stroke-width:0;
   fill-rule:evenodd;
}

/*
 * Ocean
 */


/*
 * Additional style rules
 *
 * The following are examples of colouring countries.  You can substitute these with your own styles to colour the countries on the map.
 *
 * Color a few countries:
 *
 * .gb, .au, .nc
 * {
 *    fill:       #ff0000;
 * }
 *
 * Color a few small country circles (and the countries):
 *
 * .ms, .ky
 * {
 *    opacity:    1;
 *    fill:       #ff0000;
 * }
 *
 */

</style>
  <path class="oceanxx" d="M 2079.5058,1457.5605 615.24779,1457.5605 C 615.13079,1457.5605 615.07079,1457.5505 614.95179,1457.5215 611.67679,1456.6515 608.40179,1455.7815 605.12779,1454.9105 599.15079,1453.3225 593.22879,1451.5225 587.30779,1449.7385 564.39379,1442.8315 541.76579,1434.6995 519.46979,1426.0115 495.81079,1416.7935 472.34979,1407.0946 449.19179,1396.6816 426.78379,1386.6056 405.17679,1375.0536 383.76379,1363.0356 363.11779,1351.4496 343.01079,1338.8296 323.37979,1325.5996 302.29179,1311.3876 281.47879,1296.8506 261.05379,1281.7006 242.35079,1267.8276 223.73679,1253.6306 206.05279,1238.4686 186.98679,1222.1216 167.82379,1205.7706 150.35279,1187.6906 132.97779,1169.7106 116.33279,1151.0606 100.15679,1131.9976 84.352777,1113.3736 70.086776,1093.4716 56.901786,1072.9246 44.046786,1052.8916 32.093776,1032.1356 22.469776,1010.3426 17.516776,999.12753 12.408776,987.76556 8.7017761,976.06056 5.0657761,964.58166 1.5997761,953.04259 -1.5932239,941.43054 -8.0102239,918.09356 -14.055224,894.78356 -18.234224,870.92056 -22.491222,846.60856 -24.894222,822.19856 -26.943222,797.62156 -28.947222,773.58556 -28.829222,749.40156 -27.225222,725.34856 -25.648222,701.69856 -23.363222,677.92456 -19.274222,654.56456 -15.018224,630.25156 -9.3842239,606.45156 -2.8412239,582.66156 3.5687761,559.35256 10.483776,536.34856 20.265776,514.19856 30.320776,491.42956 42.318786,469.90956 55.502786,448.81656 68.512776,428.00356 83.108777,408.26756 98.686787,389.31756 113.73479,371.01156 129.68979,353.25256 146.15179,336.20856 163.77479,317.96256 182.64579,301.14556 201.89579,284.64756 220.33379,268.84456 239.55379,253.98456 258.95979,239.39656 278.42779,224.76056 298.39379,210.83356 318.55579,197.17556 339.26979,183.14456 360.47879,169.92056 382.15079,157.42556 403.46579,145.13656 425.31479,133.98856 447.60479,123.59356 469.58579,113.34356 492.14979,104.17656 514.74579,95.37556 537.44879,86.532565 560.37879,78.195565 583.63479,70.914565 589.69379,69.017565 595.80079,67.276565 601.90879,65.549565 604.63079,64.779565 607.36079,64.045565 610.09479,63.318565 611.59979,62.918565 613.56579,61.986565 615.13379,61.986565 L 2079.9638,61.986565 C 2079.9798,61.986565 2079.9958,61.986565 2080.0118,61.986565 2079.8448,61.986565 2079.6788,61.986565 2079.5118,61.986565 2102.8268,68.191565 2125.8778,75.323565 2148.5448,83.611565 2171.6378,92.054565 2194.6158,100.87956 2217.2348,110.52956 2240.5208,120.46556 2263.4848,130.95256 2285.8828,142.76456 2306.9808,153.89056 2327.8178,165.78556 2347.8608,178.72156 2368.9418,192.32656 2389.7498,206.29256 2410.2218,220.80056 2429.7368,234.62956 2448.9938,248.98756 2467.6208,263.99256 2486.8818,279.50856 2506.0408,295.30556 2524.0538,312.27356 2541.8708,329.05756 2558.7508,346.67256 2574.9408,365.03656 2591.2478,383.53256 2607.1478,402.30656 2621.4508,422.41856 2635.3488,441.96256 2648.4468,462.42756 2659.5898,483.67756 2671.1238,505.67356 2681.1048,528.35656 2688.6188,552.05056 2692.2518,563.50656 2695.3368,575.14756 2698.5608,586.72256 2701.7738,598.25356 2704.9238,609.81956 2707.4578,621.52456 2712.6258,645.40556 2716.6718,669.47856 2719.1178,693.79656 2721.5718,718.19256 2723.1798,742.56356 2722.9808,767.09056 2722.7908,790.65456 2720.6908,814.43756 2717.7688,837.81156 2714.7368,862.07056 2710.5198,886.16156 2704.6398,909.90056 2701.6808,921.84356 2698.3948,933.69556 2695.0378,945.53154 2691.7468,957.13466 2688.5558,968.83466 2684.3988,980.16156 2676.0918,1002.8036 2666.1688,1024.8836 2654.1338,1045.8046 2641.9958,1066.9066 2628.8498,1087.4866 2614.2378,1106.9696 2599.1658,1127.0666 2582.6678,1145.9446 2565.8948,1164.6296 2549.8298,1182.5266 2532.8918,1199.7316 2514.8648,1215.6616 2496.0788,1232.2646 2476.8978,1248.3126 2457.1558,1263.7656 2438.2988,1278.5276 2418.9668,1292.7306 2399.3188,1306.4206 2378.7018,1320.7866 2357.7538,1334.6106 2336.4758,1347.9776 2326.4088,1354.3016 2316.0058,1360.1326 2305.6418,1365.9516 2295.0348,1371.9086 2284.3858,1378.0166 2273.4448,1383.3436 2250.7338,1394.3986 2227.7768,1404.7266 2204.3888,1414.2665 2181.7848,1423.4875 2159.0678,1432.2695 2136.0228,1440.3345 2117.4118,1446.8465 2098.5568,1452.4975 2079.5058,1457.5605" id="ocean"/>
  <g class="landxx coastxx eu gbr" id="gb" transform="translate(-29.9017,-45.0745)">
    <title>United Kingdom</title>
    <path class="landxx eu gbr" d="M 1260.508,337.032 C 1261.121,336.062 1262.494,336.081 1263.388,335.52 1263.057,335.277 1262.743,335.012 1262.448,334.727 1264.3,335.304 1265.011,333.238 1265.893,332.227 1266.732,331.266 1268.474,332.53 1268.718,330.767 1270.35,331.522 1272.386,329.639 1274.016,330.766 1274.677,331.222 1275.068,332.288 1275.375,332.975 1275.319,332.851 1276.594,334.325 1276.56,334.063 1276.597,334.341 1275.171,335.037 1274.978,335.231 1275.478,335.181 1276.972,334.543 1277.301,335.202 1277.635,335.87 1278.28,337.23 1277.138,337.536 1277.316,336.828 1277.055,335.884 1276.128,336.096 1276.687,336.427 1276.615,337.009 1276.268,337.464 1276.561,337.31 1276.811,337.331 1277.018,337.527 1277.091,338.02 1275.965,338.658 1275.586,338.698 1274.608,338.801 1274.61,340.437 1273.42,340.084 1272.419,339.787 1272.235,339.475 1271.382,340.035 1270.657,340.511 1269.467,340.023 1269.788,339.049 1269.388,339.07 1266.639,336.003 1266.454,337.971 1266.126,341.45 1261.861,338.159 1260.508,337.032" id="path2690"/>
    <path d="M 1273.468,327.672 C 1274.66,327.143 1275.684,325.99 1274.058,325.085 1273.016,324.505 1272.451,326.249 1272.098,326.88 1272.576,326.587 1273.079,326.347 1273.608,326.16 1273.71,326.678 1273.664,327.182 1273.468,327.672" id="path2652"/>
    <path d="M 1275.627,373.68 C 1276.508,373.88 1277.77,372.163 1278.446,371.623 1279.691,370.629 1282.132,371.454 1282.967,369.936 1282.967,370.867 1284.826,371.768 1285.591,371.827 1287.019,371.938 1287.945,369.119 1287.937,368.063 1288.386,368.903 1289.957,368.056 1290.534,367.852 1292.049,367.317 1293.601,368.014 1294.707,369.072 1294.801,368.142 1295.751,368.423 1296.374,368.536 1297.054,368.66 1298.993,368.06 1297.157,367.704 1297.99,367.704 1303.232,367.679 1301.757,366.264 1302.635,367.159 1303.75,366.459 1304.787,366.697 1305.058,366.749 1305.179,366.9 1305.152,367.149 1305.185,367.576 1306.892,367.108 1306.876,367.11 1308.409,366.916 1309.871,366.846 1311.368,367.289 1312.625,367.661 1314.399,366.693 1315.637,366.368 1316.728,366.081 1316.969,365.721 1317.698,365.05 1318.485,364.328 1320.016,364.488 1320.489,363.4 1321.014,362.193 1315.38,362.026 1314.788,361.945 1315.188,361.838 1315.575,361.693 1315.948,361.512 1315.221,361.343 1314.448,361.164 1313.788,361.657 1314.438,360.964 1315.319,361.24 1316.137,361.082 1317.512,360.815 1317.464,359.43 1316.088,359.281 1316.621,359.391 1316.955,358.948 1317.376,358.743 1318.213,358.336 1318.839,359.167 1319.759,358.344 1319.53,357.85 1319.146,357.562 1318.609,357.48 1319.184,357.373 1320.56,357.459 1319.039,356.905 1321.139,357.535 1321.436,356.177 1322.333,354.682 1323.496,352.744 1323.289,350.871 1321.043,349.757 1319.741,349.111 1316.763,348.209 1315.475,349.314 1315.032,349.693 1314.878,350.514 1314.289,350.712 1313.393,351.013 1312.845,349.567 1311.909,349.776 1313.075,348.011 1315.489,347.901 1313.469,345.322 1311.796,343.187 1309.959,343.312 1307.599,343.007 1309.166,342.328 1311.948,342.919 1313.209,343.944 1312.918,342.939 1309.705,340.183 1311.989,339.551 1310.514,339.173 1310.231,337.687 1309.249,336.743 1308.332,335.861 1306.921,335.889 1305.767,335.709 1303.835,335.407 1303.313,330.81 1303.194,329.319 1302.994,326.838 1299.884,324.688 1297.504,324.252 1296.876,324.138 1296.352,323.269 1295.673,323.879 1295.237,324.273 1294.828,324.462 1294.242,324.453 1292.687,324.429 1290.539,324.523 1289.38,323.279 1291.79,325.071 1293.43,322.558 1295.86,322.558 1297.242,322.558 1296.745,321.491 1296.019,320.918 1294.994,320.108 1293.95,321.395 1292.83,321.262 1295.673,320.709 1297.989,319.387 1299.818,317.134 1300.641,316.121 1300.886,314.924 1301.585,313.887 1302.07,313.166 1303.398,312.697 1303.025,311.631 1302.353,309.707 1298.549,310.442 1296.97,310.618 1295.332,310.801 1293.749,310.155 1292.152,310.633 1290.805,311.036 1289.275,311.873 1287.94,312.118 1288.143,311.434 1288.933,311.373 1289.16,310.678 1288.371,310.603 1287.664,310.979 1286.93,311.182 1287.797,310.288 1289.99,310.909 1290.39,309.527 1289.354,309.284 1288.11,309.521 1287.22,308.806 1288.93,309.46 1288.6,309.03 1289.719,308.28 1290.643,307.661 1291.753,307.4 1292.685,306.804 1293.069,306.559 1297.961,303.369 1295.414,302.856 1293.861,302.543 1291.926,303.291 1290.414,303.586 1289.571,303.751 1288.67,303.958 1287.806,303.888 1287.59,303.871 1287.302,303.831 1287.155,303.645 1286.919,303.346 1285.908,304.102 1285.561,304.271 1286.33,303.019 1285.652,303.883 1285.103,303.548 1284.883,303.414 1284.499,302.929 1284.191,303.001 1283.561,303.147 1283.8,304.98 1282.9,305.423 1283.175,305.573 1283.76,305.778 1283.76,306.071 1281.577,305.07 1282.241,307.449 1281.17,307.799 1281.718,308.027 1282.17,308.469 1282.39,309.024 1281.686,309.297 1279.181,308.362 1279.37,309.815 1279.152,308.48 1277.532,310.743 1279.3,311.832 1278.822,311.769 1278.342,311.744 1277.861,311.76 1277.747,313.154 1278.901,313.161 1279.951,313.056 1279.418,313.223 1278.938,313.487 1278.511,313.848 1279.152,313.61 1279.86,313.744 1280.241,314.353 1279.301,313.265 1278.037,315.359 1280.161,315.216 1279.936,315.3 1276.493,315.446 1278.871,316.296 1277.838,315.375 1276.683,317.099 1278.081,317.376 1277.503,317.292 1277.161,317.587 1277.141,318.168 1276.363,317.796 1275.354,317.891 1274.691,318.456 1275.831,318.722 1277.413,317.959 1278.431,318.672 1277.618,318.3 1277.086,319.26 1276.271,318.888 1276.945,321.854 1280.63,318.257 1281.821,317.592 1281.351,318.113 1281.072,318.938 1282.251,318.456 1281.672,318.573 1278.648,319.948 1280.601,319.752 1280.355,319.989 1280.112,320.23 1279.871,320.472 1280.385,320.499 1280.892,320.451 1281.391,320.328 1281.094,320.489 1279.733,320.545 1279.646,320.653 1279.401,320.959 1279.031,321.22 1278.704,321.429 1278.32,321.674 1278.588,322.372 1278.543,322.761 1278.494,323.182 1276.522,325.93 1278.221,323.928 1277.37,324.52 1277.523,326.759 1278.721,325.728 1277.4,326.472 1277.361,327.908 1276.498,328.998 1275.894,329.761 1277.785,330.326 1277.98,328.802 1278.119,327.711 1279.568,326.447 1279.202,325.407 1278.681,323.928 1280.898,323.023 1281.821,322.489 1281.21,323.023 1279.587,323.835 1279.757,324.861 1279.881,325.346 1280.162,325.467 1280.601,325.224 1280.838,325.687 1281.148,326.096 1281.531,326.449 1281.704,325.836 1281.343,325.225 1280.811,324.937 1281.375,324.171 1281.683,324.677 1281.821,325.296 1282.825,324.399 1282.134,322.681 1283.331,322.92 1282.829,323.339 1282.758,323.819 1283.121,324.36 1282.969,322.999 1283.799,324.439 1284.631,324.792 1284.066,324.763 1282.781,324.282 1282.54,325.109 1282.079,326.691 1283.138,326.663 1283.635,327.781 1284.482,329.686 1280.188,330.795 1281.032,333.072 1280.94,332.911 1279.989,332.04 1279.859,332.535 1279.611,333.484 1281.147,334.782 1281.682,335.376 1281.119,333.719 1281.782,333.391 1283.331,334.094 1284.609,334.675 1284.857,334.633 1284.912,333.073 1286.405,334.553 1287.344,333.96 1289.02,333.473 1289.54,333.322 1290.351,333.154 1290.242,332.425 1291.391,332.566 1292.55,332.484 1293.702,332.569 1292.405,333.429 1290.853,333.541 1290.102,335.09 1289.626,336.07 1290.516,339.348 1291.972,338.546 1291.763,339.087 1291.86,339.567 1292.262,339.985 1292.566,339.578 1292.829,339.147 1293.052,338.69 1293.264,339.576 1294.015,339.138 1294.492,338.834 1294.023,339.476 1294.029,340.295 1293.482,340.994 1293.165,341.4 1291.893,343.058 1293.632,342.794 1291.881,343.667 1292.43,346.66 1294.562,345.962 1293.592,346.672 1290.643,343.958 1292.122,346.898 1290.13,345.2 1287.293,346.954 1285.132,346.898 1285.93,345.917 1283.418,345.001 1282.779,345.54 1281.487,346.63 1283.591,348.156 1284.842,347.043 1283.668,348.36 1282.004,349.13 1280.882,350.499 1282.34,350.613 1283.673,348.963 1285.132,349.707 1284.767,350.308 1285.096,350.899 1285.642,351.219 1284.777,351.617 1285.006,352.723 1286.002,352.587 1285.185,352.703 1285.127,353.478 1284.816,354.075 1284.409,354.858 1283.378,355.326 1282.596,355.616 1280.859,356.26 1278.347,356.701 1277.212,358.131 1277.833,358.379 1278.055,358.895 1277.572,359.427 1278.346,359.591 1279.127,359.501 1279.662,358.851 1279.287,359.545 1278.528,359.766 1277.792,359.715 1278.768,360.955 1281.757,359.544 1282.762,358.851 1282.708,359.894 1283.912,359.931 1284.632,359.715 1284.328,360.158 1283.918,360.278 1283.402,360.075 1283.601,361.326 1284.529,360.716 1285.27,360.37 1286.41,359.839 1287.038,361.592 1288.034,362.027 1289.85,362.819 1290.148,361.177 1291.63,360.962 1293.249,360.727 1294.345,359.884 1295.642,358.922 1294.407,360.402 1292.668,361.425 1291.322,362.81 1290.97,363.171 1291.489,363.606 1290.743,363.702 1289.895,363.81 1289.039,363.862 1288.197,363.688 1287.008,363.442 1285.007,363.029 1283.865,363.714 1283.18,364.126 1283.137,364.943 1282.439,365.362 1281.477,365.938 1281.292,364.506 1280.948,366.213 1280.81,366.899 1279.119,369.495 1278.245,369.297 1277.705,369.175 1277.569,369.197 1277.365,369.797 1277.04,370.752 1275.688,371.186 1274.845,371.531 1274.172,371.806 1273.427,372.105 1272.854,372.567 1272.617,372.757 1272.915,373.416 1273.175,373.36 1274.079,373.163 1275.176,372.384 1275.627,373.68" id="path2656"/>
    <path d="M 1275.558,325.872 C 1276.173,324.931 1277.227,324.162 1277.428,322.992 1276.47,323.567 1275.94,324.688 1274.908,325.151 1275.095,325.418 1275.312,325.658 1275.558,325.872" id="path2662"/>
    <path d="M 1280.308,328.824 C 1281.268,328.435 1280.965,326.377 1279.868,326.448 1278.587,326.532 1279.183,328.896 1280.308,328.824" id="path2666"/>
    </g>
  <g class="landxx coastxx eu irl" id="ie" transform="translate(-29.9017,-45.0745)">
    <title>Ireland</title>
    <path class="landxx eu irl" d="M 1245.678,360.36 C 1245.438,360.383 1245.198,360.408 1244.958,360.431 1245.911,359.572 1246.921,358.511 1248.268,358.343 1247.005,358.131 1244.925,359.911 1243.779,358.936 1242.491,357.84 1246.697,355.757 1247.548,356.039 1246.286,355.477 1244.569,355.959 1243.298,356.255 1242.955,355.239 1244.034,355.082 1244.769,354.985 1245.156,354.934 1245.6,354.907 1245.952,354.718 1246.283,354.54 1246.99,355.178 1247.759,355.031 1247.585,354.48 1247.321,353.976 1246.969,353.518 1248.343,353.524 1248.746,352.267 1250.175,352.287 1251.837,352.31 1253.326,351.653 1254.959,351.503 1254.406,351.486 1253.934,351.159 1253.739,350.639 1251.649,351.98 1250.047,351.931 1247.619,352.368 1248.28,351.904 1251.565,350.28 1251.161,349.188 1250.584,347.63 1253.782,347.669 1254.458,346.967 1253.207,346.888 1252.026,346.844 1250.775,346.854 1250.165,346.859 1249.123,346.2 1248.338,346.103 1248.48,345.862 1248.623,345.623 1248.768,345.383 1248.044,345.164 1247.466,345.863 1246.758,345.455 1247.002,345.292 1247.241,345.124 1247.478,344.951 1247.24,344.781 1246.999,344.613 1246.758,344.447 1247.609,344.309 1247.283,344.208 1247.882,343.826 1248.365,343.517 1249.114,343.859 1249.638,343.799 1248.888,343.894 1248.052,343.236 1248.871,342.58 1249.207,342.31 1249.926,342.363 1250.329,342.233 1252.349,341.58 1248.396,341.322 1248.573,341.583 1248.298,341.178 1249.187,341.157 1249.347,341.28 1248.893,340.54 1249.654,339.313 1248.407,339.983 1248.747,339.552 1248.724,339.144 1248.337,338.759 1248.126,338.984 1247.932,339.224 1247.757,339.479 1247.871,338.953 1248.088,338.473 1248.407,338.04 1248.518,339.174 1250.102,337.987 1251.243,337.915 1252.31,337.848 1253.684,338.118 1253.806,339.408 1254.347,337.055 1256.82,339.458 1258.056,338.256 1257.789,338.119 1257.526,337.975 1257.266,337.824 1258.055,336.787 1260.241,336.892 1260.426,335.664 1259.211,335.427 1257.886,335.809 1256.756,335.16 1257.017,334.306 1257.943,334.083 1258.706,334.368 1258.416,333.744 1258.4,333.318 1259.346,333.649 1258.772,332.89 1259.368,331.653 1260.112,331.254 1261.438,330.542 1262.622,331.145 1263.886,330.983 1263.306,329.979 1264.265,329.896 1264.59,330.469 1265.168,331.489 1264.58,331.485 1264.317,332.352 1265.406,332.369 1265.844,331.197 1265.037,330.479 1266.605,329.389 1267.186,329.982 1268.717,330.263 1267.893,331.189 1266.0617,331.39194 1265.652,332.675 1265.2914,333.80437 1263.9426,335.36258 1262.447,334.727 1262.742,335.012 1263.056,335.277 1263.387,335.52 1262.066,336.349 1259.8282,336.15209 1261.5624,337.74381 1262.32,338.43918 1263.42,338.85479 1264.3114,339.13862 1265.1566,339.40775 1265.8247,339.73298 1266.2188,338.38281 1266.4273,337.66871 1266.1378,336.98776 1267.682,337.379 1268.7164,337.64109 1269.2099,338.88268 1269.787,339.046 1269.777,340.4483 1270.7384,340.05283 1271.447,339.982 1272.0803,339.9187 1272.061,339.424 1272.957,340.271 1272.458,340.526 1271.826,340.549 1271.393,340.94 1271.251,341.069 1272.038,342.075 1271.968,342.63 1271.871,343.41 1273.854,345.433 1271.877,345.814 1273.196,347.842 1272.626,349.051 1271.812,351.081 1271.39,352.134 1270.793,354.267 1269.287,354.094 1270.929,354.317 1269.853,355.717 1268.653,355.497 1267.697,355.321 1266.229,356.084 1265.977,354.67 1266.597,356.518 1263.188,355.827 1262.239,356.163 1261.355,356.476 1261.936,357.32 1260.561,357.32 1259.486,357.32 1258.947,358.797 1257.557,358.702 1258.385,357.482 1256.881,357.819 1256.257,358.054 1257.368,358.371 1256.985,358.901 1256.257,359.323 1255.933,359.453 1255.668,359.658 1255.459,359.939 1255.207,360.431 1254.789,360.002 1254.34,360.186 1253.281,360.619 1252.148,360.601 1251.047,360.957 1249.819,361.354 1248.406,360.966 1247.257,361.51 1247.568,360.988 1248.001,360.604 1248.557,360.359 1248.031,360.435 1247.524,360.579 1247.037,360.791 1247.667,360.223 1248.464,359.934 1249.267,359.711 1248.326,359.213 1246.475,359.767 1245.678,360.36" id="path5402"/>
  </g>
  <g id="im">
    <title>Isle of Man</title>
    <path class="world_map-is_selected landxx coastxx imn" d="M 1251.8463,294.98155 C 1252.7373,294.77855 1254.4583,294.25755 1254.8753,293.35555 1255.1573,292.74455 1254.2123,292.39255 1253.7633,292.57555 1252.8343,292.95355 1252.3033,294.16855 1251.8463,294.98155" id="im-"/>
    <circle class="world_map-is_selected circlexx imn" cx="1252.4366" cy="294.51974" id="im." r="6.0130301" rx="6.0130301" ry="6.0130301"/>
  </g>
  </svg>