<svg xmlns="http://www.w3.org/2000/svg" class="world_map zoom4" height="127" id="svg2985" version="1.1" viewBox="1184 255 87 89" width="127">
  <title>World Map</title>
  <defs id="defs2987"/>
  <defs>
    <link xmlns="http://www.w3.org/1999/xhtml" href="../css/svg.css" type="text/css" rel="stylesheet"/>
  </defs>
  <style id="style_css_sheet" type="text/css">
/*
 * Below are Cascading Style Sheet (CSS) definitions in use in this file,
 * which allow easily changing how countries are displayed.
 *
 */
/* --- Custom styles for Peace Corps --- */
.world_map .world_map-is_selected {
  fill: #C94112 !important;
}
.world_map .landxx {
  fill: #F2EFE8;
  stroke: #ffffff;
  fill-rule: evenodd;
}
.world_map.zoom4 .landxx {
  stroke-width: 2px;
}
.world_map.zoom3 .landxx {
  stroke-width: 3px;
}
.world_map.zoom2 .landxx {
  stroke-width: 4px;
}
.world_map.zoom1 .landxx {
  stroke-width: 5px;
}
.world_map .coastxx {
  fill: #F2EFE8;
  stroke: #ffffff;
  stroke-width: 2px;
  fill-rule: evenodd;
}
.world_map .oceanxx {
  opacity: 1;
  color: #ccc;
  fill: #ffffff;
  stroke: #ffffff;
  stroke-width: 0.5;
  stroke-miterlimit: 1;
}

/* --- Original Styles --- *
/*
 * Circles around small countries
 *
 * Change opacity to 1 to display all circles.
 *
 */
.circlexx
{
   opacity:0;
   fill:#e0e0e0;
   stroke:#000000;
   stroke-width:0.5;
}

/*
 * Smaller circles around French DOMs and Chinese SARs
 *
 * Change opacity to 1 to display all subnational circles.
 *
 */
.subxx
{
   opacity:0;
   stroke-width:0.3;
}

/*
 * Circles around small, unrecognized countries
 *
 * Change opacity to 1 to display all circles.
 *
 */
.unxx
{
   opacity:0;
   fill:#e0e0e0;
   stroke:#000000;
   stroke-width:0.3;
}

/*
 * Circles around small countries, but with no permanent residents 
 *
 * Change opacity to 1 to display all circles.
 *
 */
.noxx
{
   opacity:0;
   fill:#e0e0e0;
   stroke:#000000;
   stroke-width:0.5;
}

/*
 * land
 */
.landxx
{
}
/*
 * Styles for coastlines of islands with no borders
 */


/*
 * Styles for nations with limited recognition
 */
.limitxx
{
   fill: #e0e0e0;
   stroke:#ffffff;
   stroke-width:0;
   fill-rule:evenodd;
}

/*
 * Styles for nations with no permanent population.
 */
.antxx
{
   fill: #e0e0e0;
   stroke:#ffffff;
   stroke-width:0;
   fill-rule:evenodd;
}

/*
 * Ocean
 */


/*
 * Additional style rules
 *
 * The following are examples of colouring countries.  You can substitute these with your own styles to colour the countries on the map.
 *
 * Color a few countries:
 *
 * .gb, .au, .nc
 * {
 *    fill:       #ff0000;
 * }
 *
 * Color a few small country circles (and the countries):
 *
 * .ms, .ky
 * {
 *    opacity:    1;
 *    fill:       #ff0000;
 * }
 *
 */

</style>
  <path class="oceanxx" d="M 2079.5058,1457.5605 615.24779,1457.5605 C 615.13079,1457.5605 615.07079,1457.5505 614.95179,1457.5215 611.67679,1456.6515 608.40179,1455.7815 605.12779,1454.9105 599.15079,1453.3225 593.22879,1451.5225 587.30779,1449.7385 564.39379,1442.8315 541.76579,1434.6995 519.46979,1426.0115 495.81079,1416.7935 472.34979,1407.0946 449.19179,1396.6816 426.78379,1386.6056 405.17679,1375.0536 383.76379,1363.0356 363.11779,1351.4496 343.01079,1338.8296 323.37979,1325.5996 302.29179,1311.3876 281.47879,1296.8506 261.05379,1281.7006 242.35079,1267.8276 223.73679,1253.6306 206.05279,1238.4686 186.98679,1222.1216 167.82379,1205.7706 150.35279,1187.6906 132.97779,1169.7106 116.33279,1151.0606 100.15679,1131.9976 84.352777,1113.3736 70.086776,1093.4716 56.901786,1072.9246 44.046786,1052.8916 32.093776,1032.1356 22.469776,1010.3426 17.516776,999.12753 12.408776,987.76556 8.7017761,976.06056 5.0657761,964.58166 1.5997761,953.04259 -1.5932239,941.43054 -8.0102239,918.09356 -14.055224,894.78356 -18.234224,870.92056 -22.491222,846.60856 -24.894222,822.19856 -26.943222,797.62156 -28.947222,773.58556 -28.829222,749.40156 -27.225222,725.34856 -25.648222,701.69856 -23.363222,677.92456 -19.274222,654.56456 -15.018224,630.25156 -9.3842239,606.45156 -2.8412239,582.66156 3.5687761,559.35256 10.483776,536.34856 20.265776,514.19856 30.320776,491.42956 42.318786,469.90956 55.502786,448.81656 68.512776,428.00356 83.108777,408.26756 98.686787,389.31756 113.73479,371.01156 129.68979,353.25256 146.15179,336.20856 163.77479,317.96256 182.64579,301.14556 201.89579,284.64756 220.33379,268.84456 239.55379,253.98456 258.95979,239.39656 278.42779,224.76056 298.39379,210.83356 318.55579,197.17556 339.26979,183.14456 360.47879,169.92056 382.15079,157.42556 403.46579,145.13656 425.31479,133.98856 447.60479,123.59356 469.58579,113.34356 492.14979,104.17656 514.74579,95.37556 537.44879,86.532565 560.37879,78.195565 583.63479,70.914565 589.69379,69.017565 595.80079,67.276565 601.90879,65.549565 604.63079,64.779565 607.36079,64.045565 610.09479,63.318565 611.59979,62.918565 613.56579,61.986565 615.13379,61.986565 L 2079.9638,61.986565 C 2079.9798,61.986565 2079.9958,61.986565 2080.0118,61.986565 2079.8448,61.986565 2079.6788,61.986565 2079.5118,61.986565 2102.8268,68.191565 2125.8778,75.323565 2148.5448,83.611565 2171.6378,92.054565 2194.6158,100.87956 2217.2348,110.52956 2240.5208,120.46556 2263.4848,130.95256 2285.8828,142.76456 2306.9808,153.89056 2327.8178,165.78556 2347.8608,178.72156 2368.9418,192.32656 2389.7498,206.29256 2410.2218,220.80056 2429.7368,234.62956 2448.9938,248.98756 2467.6208,263.99256 2486.8818,279.50856 2506.0408,295.30556 2524.0538,312.27356 2541.8708,329.05756 2558.7508,346.67256 2574.9408,365.03656 2591.2478,383.53256 2607.1478,402.30656 2621.4508,422.41856 2635.3488,441.96256 2648.4468,462.42756 2659.5898,483.67756 2671.1238,505.67356 2681.1048,528.35656 2688.6188,552.05056 2692.2518,563.50656 2695.3368,575.14756 2698.5608,586.72256 2701.7738,598.25356 2704.9238,609.81956 2707.4578,621.52456 2712.6258,645.40556 2716.6718,669.47856 2719.1178,693.79656 2721.5718,718.19256 2723.1798,742.56356 2722.9808,767.09056 2722.7908,790.65456 2720.6908,814.43756 2717.7688,837.81156 2714.7368,862.07056 2710.5198,886.16156 2704.6398,909.90056 2701.6808,921.84356 2698.3948,933.69556 2695.0378,945.53154 2691.7468,957.13466 2688.5558,968.83466 2684.3988,980.16156 2676.0918,1002.8036 2666.1688,1024.8836 2654.1338,1045.8046 2641.9958,1066.9066 2628.8498,1087.4866 2614.2378,1106.9696 2599.1658,1127.0666 2582.6678,1145.9446 2565.8948,1164.6296 2549.8298,1182.5266 2532.8918,1199.7316 2514.8648,1215.6616 2496.0788,1232.2646 2476.8978,1248.3126 2457.1558,1263.7656 2438.2988,1278.5276 2418.9668,1292.7306 2399.3188,1306.4206 2378.7018,1320.7866 2357.7538,1334.6106 2336.4758,1347.9776 2326.4088,1354.3016 2316.0058,1360.1326 2305.6418,1365.9516 2295.0348,1371.9086 2284.3858,1378.0166 2273.4448,1383.3436 2250.7338,1394.3986 2227.7768,1404.7266 2204.3888,1414.2665 2181.7848,1423.4875 2159.0678,1432.2695 2136.0228,1440.3345 2117.4118,1446.8465 2098.5568,1452.4975 2079.5058,1457.5605" id="ocean"/>
  <g id="fr">
    <title>France</title>
    <g class="landxx coastxx frx eu fra" id="frx">
      <path class="landxx frx eu fra" d="M 1247.9563,345.09353 C 1248.8483,344.67153 1249.9183,344.40753 1250.9063,344.58953 1251.2503,343.07553 1249.2373,344.11653 1248.8163,343.07753 1249.7423,342.77053 1250.8213,342.88353 1251.7763,342.93253 1251.0263,342.80353 1250.0103,343.07053 1250.5463,342.14053 1249.9683,342.10953 1248.0023,343.21953 1247.7643,342.24853 1247.4403,340.92353 1249.4573,340.12353 1250.4183,339.93353 1251.7103,339.67753 1252.9283,339.57353 1254.2383,339.60953 1256.0933,339.66053 1257.2803,337.85953 1259.3353,338.10853 1259.1023,338.77353 1261.5713,341.09553 1262.2613,340.81653 1262.7253,340.59053 1263.1723,340.33253 1263.6013,340.04453 1264.5383,339.52353 1264.4763,340.19653 1265.2593,340.34653 1266.0333,340.49453 1266.6253,339.88453 1266.6763,341.13353 1267.1823,340.78653 1266.4383,340.37153 1266.8543,339.80653 1267.2793,339.22953 1267.4953,340.10553 1267.8683,340.20353 1268.7543,340.43553 1269.8883,340.19953 1270.7763,340.05353 1268.8903,339.50053 1269.5823,336.83453 1269.7363,335.44553 1269.8113,334.76953 1268.7883,334.09153 1268.4413,333.61953 1267.8433,332.80653 1268.3953,331.57053 1267.5363,330.90853 1268.1903,331.02253 1268.7863,331.34253 1269.4353,331.47753 1270.1453,331.62553 1271.0223,330.92853 1271.6453,331.24253 1272.6163,331.73053 1271.4053,333.19653 1272.7503,333.96653 1273.1383,334.18853 1273.8353,333.79353 1274.2353,333.78953 1275.4053,333.77853 1276.5303,334.17453 1277.6673,334.39053 1278.7783,334.60153 1279.7453,334.56953 1280.7413,334.00053 1281.6443,333.48553 1282.8513,333.50453 1283.6653,332.92553 1283.0193,333.18153 1281.9213,333.31153 1281.2923,332.95153 1280.0173,332.22053 1282.9563,330.42253 1283.4443,330.20353 1284.9943,329.50953 1286.7483,329.59253 1288.3213,328.96253 1289.2343,328.59753 1290.4503,326.50953 1291.5843,327.09353 1290.5913,326.45453 1291.1983,322.02953 1292.0223,321.20053 1292.8333,320.38653 1296.9643,318.91453 1298.0263,319.80953 1298.5673,320.26553 1297.5066,322.01981 1299.0912,322.41093 1300.7239,322.81393 1300.3433,322.44623 1301.4983,322.79423 1302.5753,323.11923 1302.2375,323.9499 1303.0715,324.3539 1304.1595,324.8809 1305.2593,324.2555 1305.1233,325.93953 1305.7713,325.52053 1306.8953,325.61753 1307.5843,325.85453 1308.8783,326.29853 1308.3323,327.89353 1308.0723,328.81953 1308.9373,328.96453 1309.9183,329.23353 1310.7793,328.88953 1311.6313,328.54853 1311.8263,327.57553 1312.6823,327.23553 1312.7563,327.77153 1312.5323,330.16853 1313.2583,330.19453 1314.3293,330.23253 1316.4853,331.64553 1316.8183,332.67253 1316.7223,332.37653 1320.8893,333.05053 1321.1033,333.06853 1322.1163,333.15553 1322.8723,332.94653 1323.6753,333.78353 1324.3073,334.44353 1324.7523,335.48053 1325.7133,335.73153 1325.9193,335.63353 1326.0843,335.48753 1326.2083,335.29353 1326.5183,334.97253 1326.6743,335.39853 1327.0033,335.44353 1327.1873,335.51353 1327.2363,335.63953 1327.1503,335.82053 1327.0933,336.21253 1328.0113,335.99853 1328.1633,336.01153 1329.1863,336.10453 1329.7743,335.47353 1330.7213,336.19453 1331.7293,336.96253 1333.8123,337.10453 1335.0733,337.31553 1333.5263,338.68053 1332.0983,340.17853 1331.5983,342.20653 1331.3553,343.19253 1330.7683,344.09853 1330.6133,345.09253 1330.5113,345.74253 1330.7323,346.00653 1330.4713,346.84153 1330.1573,347.85053 1330.9253,348.69153 1330.2463,349.31753 1329.6743,349.84553 1329.2323,350.35453 1328.3723,350.27753 1327.6513,350.21353 1327.5903,349.14653 1326.7223,349.62953 1326.0953,349.97853 1326.0353,351.09253 1327.0823,350.92553 1326.2953,351.75153 1325.6003,352.73253 1324.7023,353.44553 1324.1523,353.80353 1323.6143,354.17953 1323.0883,354.57353 1322.6553,354.96353 1322.6973,355.72753 1322.3323,356.18153 1321.7093,356.95553 1320.5023,357.31953 1320.3123,358.41353 1320.4523,358.78653 1320.5483,359.17053 1320.6023,359.56453 1320.4533,360.27353 1319.7943,360.52653 1319.5223,361.14853 1320.7103,360.99953 1321.1463,360.59353 1321.4613,359.45753 1321.7723,358.33953 1323.8323,358.42553 1324.6653,358.66053 1325.6653,358.94353 1324.9863,360.58753 1325.7143,361.38853 1326.9783,362.78053 1326.2003,363.30253 1325.0623,364.24553 1325.6653,365.10253 1327.9443,366.69053 1327.3153,367.94653 1326.8933,368.78953 1323.7483,369.94653 1323.7563,370.09053 1323.8123,371.08453 1325.7303,371.93153 1326.3923,372.49853 1327.3473,373.31853 1325.0603,374.77953 1325.3913,375.86353 1325.7923,377.17953 1328.3083,378.67153 1329.6393,378.13853 1331.3113,377.46953 1331.0613,378.44253 1330.4293,379.55553 1328.9063,382.23653 1325.9973,383.58853 1323.4023,385.34153 1323.5663,385.58553 1323.7363,385.82553 1323.9123,386.06153 1322.9433,386.20053 1322.1323,386.69853 1321.2243,387.01653 1320.2473,387.35953 1319.6233,386.81953 1318.7013,386.89253 1317.3023,387.00253 1316.4443,385.83653 1314.7713,385.98953 1315.4423,384.25853 1312.5743,385.58553 1312.5423,384.57953 1312.7243,384.26753 1313.0103,384.18553 1313.4003,384.33353 1313.3703,383.76653 1313.0303,383.44653 1312.4603,383.46953 1312.9383,384.20353 1312.5263,384.31153 1311.8663,384.34453 1310.7833,384.39853 1310.6663,384.33453 1310.3703,383.03753 1310.7613,385.62053 1310.1013,383.97353 1308.4303,383.97353 1307.4643,383.97353 1306.6743,383.36353 1305.7313,383.31753 1304.5753,383.26053 1303.3083,384.56653 1302.2813,385.03653 1301.4813,385.40353 1298.6623,386.44753 1298.8393,387.53653 1298.8203,387.89353 1298.7143,388.22553 1298.5183,388.53253 1298.0693,388.93253 1298.1073,389.28853 1298.6333,389.60053 1299.0293,390.85253 1298.7703,391.47953 1299.4993,392.68653 1298.8123,392.88353 1298.2133,392.53753 1297.5333,392.57853 1296.8273,392.62153 1296.4693,393.18353 1295.8393,393.35553 1294.3183,393.77053 1293.3913,392.19553 1291.9343,393.25653 1291.8323,393.33053 1289.8063,392.38453 1289.5883,392.22153 1289.0223,391.79853 1290.3173,391.85253 1289.4053,391.24353 1288.8773,390.89053 1287.9263,390.73553 1287.4783,391.31753 1287.2703,390.02853 1285.8433,390.56753 1285.0673,389.95553 1283.9973,389.11053 1281.8083,388.56853 1282.1483,390.59853 1280.9513,390.42553 1279.6003,390.12353 1278.3933,390.34553 1277.7223,390.46853 1277.2743,390.65853 1276.7013,390.14253 1275.6843,389.22853 1275.7613,389.60453 1274.7283,389.59053 1273.7043,389.57653 1268.7553,386.33053 1268.2483,387.64653 1267.3133,387.26053 1267.9773,386.58053 1268.0363,385.92553 1268.1063,385.14653 1265.8413,385.50153 1265.3683,384.91053 1268.2283,383.85153 1268.4703,379.88753 1268.9913,377.30953 1269.1963,376.29753 1269.3813,374.70253 1270.2223,373.98053 1271.4463,372.92853 1269.8043,372.78053 1269.6883,373.96653 1269.5183,371.53053 1270.0083,368.54553 1271.0583,366.33453 1272.0693,366.90353 1273.0753,367.57853 1273.5083,368.71053 1273.6063,369.21453 1273.7023,369.71853 1273.7983,370.22253 1274.0323,370.86353 1274.6733,370.95153 1274.6583,371.73453 1274.9483,370.72753 1273.9263,369.95253 1273.8333,368.99853 1273.6893,367.53253 1273.1743,366.53953 1271.8743,365.82653 1271.3293,365.52853 1270.7213,365.12153 1270.2673,364.68453 1269.5283,363.97253 1271.4573,364.32753 1271.8493,364.67953 1270.9413,364.23853 1270.8923,360.38553 1271.4193,359.63953 1270.2263,360.47453 1267.4193,358.83153 1266.8663,357.72453 1266.3773,356.74553 1265.2743,356.23653 1265.0533,355.09353 1264.8503,354.05053 1266.7633,352.90853 1264.3603,352.80053 1264.6433,352.46753 1264.6983,351.86253 1265.0633,351.60853 1265.9773,350.97053 1266.8193,352.04353 1267.6803,352.15253 1266.1523,351.14353 1265.5453,351.47853 1263.9513,351.68653 1263.1483,351.79153 1261.5923,350.60653 1263.0713,350.42453 1262.6583,350.01753 1262.8253,349.75353 1263.5713,349.63253 1262.4363,349.35053 1260.8233,350.27453 1259.9013,349.27253 1260.4093,349.26553 1260.8893,349.14553 1261.3413,348.91253 1260.4373,348.30853 1258.7713,348.55353 1258.5313,349.77653 1258.4983,348.97653 1257.6113,348.22853 1258.4613,347.54553 1258.1123,348.42153 1256.5413,348.36453 1257.5213,347.25753 1255.5273,348.98753 1252.8533,345.04853 1250.8313,347.18553 1250.0233,346.06853 1249.3483,345.38253 1247.9563,345.09353" id="path2182"/>
      </g>
    </g>
  <g class="landxx coastxx eu gbr" id="gb" transform="translate(-29.9017,-45.0745)">
    <title>United Kingdom</title>
    <path class="landxx eu gbr" d="M 1260.508,337.032 C 1261.121,336.062 1262.494,336.081 1263.388,335.52 1263.057,335.277 1262.743,335.012 1262.448,334.727 1264.3,335.304 1265.011,333.238 1265.893,332.227 1266.732,331.266 1268.474,332.53 1268.718,330.767 1270.35,331.522 1272.386,329.639 1274.016,330.766 1274.677,331.222 1275.068,332.288 1275.375,332.975 1275.319,332.851 1276.594,334.325 1276.56,334.063 1276.597,334.341 1275.171,335.037 1274.978,335.231 1275.478,335.181 1276.972,334.543 1277.301,335.202 1277.635,335.87 1278.28,337.23 1277.138,337.536 1277.316,336.828 1277.055,335.884 1276.128,336.096 1276.687,336.427 1276.615,337.009 1276.268,337.464 1276.561,337.31 1276.811,337.331 1277.018,337.527 1277.091,338.02 1275.965,338.658 1275.586,338.698 1274.608,338.801 1274.61,340.437 1273.42,340.084 1272.419,339.787 1272.235,339.475 1271.382,340.035 1270.657,340.511 1269.467,340.023 1269.788,339.049 1269.388,339.07 1266.639,336.003 1266.454,337.971 1266.126,341.45 1261.861,338.159 1260.508,337.032" id="path2690"/>
    <path d="M 1268.788,315.288 C 1267.835,314.948 1268.392,313.982 1269.218,313.704 1268.001,311.325 1266.78,315.744 1268.788,315.288" id="path2640"/>
    <path d="M 1269.147,312.048 C 1269.157,311.829 1270.483,310.945 1269.891,310.769 1269.23,310.571 1267.646,310.447 1267.707,311.544 1268.25,311.531 1268.73,311.699 1269.147,312.048" id="path2642"/>
    <path d="M 1268.788,312.84 C 1268.989,312.07 1268.748,311.95 1268.068,312.48 1268.308,312.6 1268.548,312.72 1268.788,312.84" id="path2644"/>
    <path d="M 1270.297,320.616 C 1270.624,320.326 1270.984,320.086 1271.377,319.895 1270.799,319.765 1270.416,320.048 1270.297,320.616" id="path2646"/>
    <path d="M 1272.958,308.16 C 1274.131,309.783 1275.458,306.743 1274.118,307.223 1274.82,307.136 1277.147,306.159 1275.628,305.856 1276.965,305.247 1276.71,303.467 1275.297,304.444 1274.603,304.924 1273.775,305.036 1273.061,305.464 1272.285,305.929 1272.959,306.739 1271.957,307.08 1271.938,306.815 1271.912,306.551 1271.877,306.288 1271.331,306.394 1270.85,306.635 1270.437,307.008 1271.049,307.443 1271.405,307.917 1270.367,308.16 1270.894,308.271 1271.374,308.487 1271.807,308.807 1271.309,309.038 1270.829,309.302 1270.367,309.599 1271.164,310.914 1272.775,309.026 1272.958,308.16" id="path2648"/>
    <path d="M 1271.877,319.608 C 1272.429,319.424 1272.862,319.088 1273.177,318.599 1272.628,318.742 1272.149,319.109 1271.877,319.608" id="path2650"/>
    <path d="M 1273.468,327.672 C 1274.66,327.143 1275.684,325.99 1274.058,325.085 1273.016,324.505 1272.451,326.249 1272.098,326.88 1272.576,326.587 1273.079,326.347 1273.608,326.16 1273.71,326.678 1273.664,327.182 1273.468,327.672" id="path2652"/>
    <path d="M 1276.417,315.937 C 1277.248,315.708 1278.57,314.968 1278.427,313.92 1275.265,315.035 1276.614,311.215 1274.907,310.608 1274.731,311.072 1274.634,311.551 1274.617,312.047 1273.189,311.712 1273.376,312.618 1272.307,312.407 1272.134,313.854 1273.893,312.956 1274.547,313.631 1272.913,313.749 1274.582,314.774 1275.207,314.768 1275.896,314.762 1276.676,314.411 1277.347,314.711 1276.757,314.852 1276.371,315.318 1276.417,315.937" id="path2654"/>
    <path d="M 1275.627,373.68 C 1276.508,373.88 1277.77,372.163 1278.446,371.623 1279.691,370.629 1282.132,371.454 1282.967,369.936 1282.967,370.867 1284.826,371.768 1285.591,371.827 1287.019,371.938 1287.945,369.119 1287.937,368.063 1288.386,368.903 1289.957,368.056 1290.534,367.852 1292.049,367.317 1293.601,368.014 1294.707,369.072 1294.801,368.142 1295.751,368.423 1296.374,368.536 1297.054,368.66 1298.993,368.06 1297.157,367.704 1297.99,367.704 1303.232,367.679 1301.757,366.264 1302.635,367.159 1303.75,366.459 1304.787,366.697 1305.058,366.749 1305.179,366.9 1305.152,367.149 1305.185,367.576 1306.892,367.108 1306.876,367.11 1308.409,366.916 1309.871,366.846 1311.368,367.289 1312.625,367.661 1314.399,366.693 1315.637,366.368 1316.728,366.081 1316.969,365.721 1317.698,365.05 1318.485,364.328 1320.016,364.488 1320.489,363.4 1321.014,362.193 1315.38,362.026 1314.788,361.945 1315.188,361.838 1315.575,361.693 1315.948,361.512 1315.221,361.343 1314.448,361.164 1313.788,361.657 1314.438,360.964 1315.319,361.24 1316.137,361.082 1317.512,360.815 1317.464,359.43 1316.088,359.281 1316.621,359.391 1316.955,358.948 1317.376,358.743 1318.213,358.336 1318.839,359.167 1319.759,358.344 1319.53,357.85 1319.146,357.562 1318.609,357.48 1319.184,357.373 1320.56,357.459 1319.039,356.905 1321.139,357.535 1321.436,356.177 1322.333,354.682 1323.496,352.744 1323.289,350.871 1321.043,349.757 1319.741,349.111 1316.763,348.209 1315.475,349.314 1315.032,349.693 1314.878,350.514 1314.289,350.712 1313.393,351.013 1312.845,349.567 1311.909,349.776 1313.075,348.011 1315.489,347.901 1313.469,345.322 1311.796,343.187 1309.959,343.312 1307.599,343.007 1309.166,342.328 1311.948,342.919 1313.209,343.944 1312.918,342.939 1309.705,340.183 1311.989,339.551 1310.514,339.173 1310.231,337.687 1309.249,336.743 1308.332,335.861 1306.921,335.889 1305.767,335.709 1303.835,335.407 1303.313,330.81 1303.194,329.319 1302.994,326.838 1299.884,324.688 1297.504,324.252 1296.876,324.138 1296.352,323.269 1295.673,323.879 1295.237,324.273 1294.828,324.462 1294.242,324.453 1292.687,324.429 1290.539,324.523 1289.38,323.279 1291.79,325.071 1293.43,322.558 1295.86,322.558 1297.242,322.558 1296.745,321.491 1296.019,320.918 1294.994,320.108 1293.95,321.395 1292.83,321.262 1295.673,320.709 1297.989,319.387 1299.818,317.134 1300.641,316.121 1300.886,314.924 1301.585,313.887 1302.07,313.166 1303.398,312.697 1303.025,311.631 1302.353,309.707 1298.549,310.442 1296.97,310.618 1295.332,310.801 1293.749,310.155 1292.152,310.633 1290.805,311.036 1289.275,311.873 1287.94,312.118 1288.143,311.434 1288.933,311.373 1289.16,310.678 1288.371,310.603 1287.664,310.979 1286.93,311.182 1287.797,310.288 1289.99,310.909 1290.39,309.527 1289.354,309.284 1288.11,309.521 1287.22,308.806 1288.93,309.46 1288.6,309.03 1289.719,308.28 1290.643,307.661 1291.753,307.4 1292.685,306.804 1293.069,306.559 1297.961,303.369 1295.414,302.856 1293.861,302.543 1291.926,303.291 1290.414,303.586 1289.571,303.751 1288.67,303.958 1287.806,303.888 1287.59,303.871 1287.302,303.831 1287.155,303.645 1286.919,303.346 1285.908,304.102 1285.561,304.271 1286.33,303.019 1285.652,303.883 1285.103,303.548 1284.883,303.414 1284.499,302.929 1284.191,303.001 1283.561,303.147 1283.8,304.98 1282.9,305.423 1283.175,305.573 1283.76,305.778 1283.76,306.071 1281.577,305.07 1282.241,307.449 1281.17,307.799 1281.718,308.027 1282.17,308.469 1282.39,309.024 1281.686,309.297 1279.181,308.362 1279.37,309.815 1279.152,308.48 1277.532,310.743 1279.3,311.832 1278.822,311.769 1278.342,311.744 1277.861,311.76 1277.747,313.154 1278.901,313.161 1279.951,313.056 1279.418,313.223 1278.938,313.487 1278.511,313.848 1279.152,313.61 1279.86,313.744 1280.241,314.353 1279.301,313.265 1278.037,315.359 1280.161,315.216 1279.936,315.3 1276.493,315.446 1278.871,316.296 1277.838,315.375 1276.683,317.099 1278.081,317.376 1277.503,317.292 1277.161,317.587 1277.141,318.168 1276.363,317.796 1275.354,317.891 1274.691,318.456 1275.831,318.722 1277.413,317.959 1278.431,318.672 1277.618,318.3 1277.086,319.26 1276.271,318.888 1276.945,321.854 1280.63,318.257 1281.821,317.592 1281.351,318.113 1281.072,318.938 1282.251,318.456 1281.672,318.573 1278.648,319.948 1280.601,319.752 1280.355,319.989 1280.112,320.23 1279.871,320.472 1280.385,320.499 1280.892,320.451 1281.391,320.328 1281.094,320.489 1279.733,320.545 1279.646,320.653 1279.401,320.959 1279.031,321.22 1278.704,321.429 1278.32,321.674 1278.588,322.372 1278.543,322.761 1278.494,323.182 1276.522,325.93 1278.221,323.928 1277.37,324.52 1277.523,326.759 1278.721,325.728 1277.4,326.472 1277.361,327.908 1276.498,328.998 1275.894,329.761 1277.785,330.326 1277.98,328.802 1278.119,327.711 1279.568,326.447 1279.202,325.407 1278.681,323.928 1280.898,323.023 1281.821,322.489 1281.21,323.023 1279.587,323.835 1279.757,324.861 1279.881,325.346 1280.162,325.467 1280.601,325.224 1280.838,325.687 1281.148,326.096 1281.531,326.449 1281.704,325.836 1281.343,325.225 1280.811,324.937 1281.375,324.171 1281.683,324.677 1281.821,325.296 1282.825,324.399 1282.134,322.681 1283.331,322.92 1282.829,323.339 1282.758,323.819 1283.121,324.36 1282.969,322.999 1283.799,324.439 1284.631,324.792 1284.066,324.763 1282.781,324.282 1282.54,325.109 1282.079,326.691 1283.138,326.663 1283.635,327.781 1284.482,329.686 1280.188,330.795 1281.032,333.072 1280.94,332.911 1279.989,332.04 1279.859,332.535 1279.611,333.484 1281.147,334.782 1281.682,335.376 1281.119,333.719 1281.782,333.391 1283.331,334.094 1284.609,334.675 1284.857,334.633 1284.912,333.073 1286.405,334.553 1287.344,333.96 1289.02,333.473 1289.54,333.322 1290.351,333.154 1290.242,332.425 1291.391,332.566 1292.55,332.484 1293.702,332.569 1292.405,333.429 1290.853,333.541 1290.102,335.09 1289.626,336.07 1290.516,339.348 1291.972,338.546 1291.763,339.087 1291.86,339.567 1292.262,339.985 1292.566,339.578 1292.829,339.147 1293.052,338.69 1293.264,339.576 1294.015,339.138 1294.492,338.834 1294.023,339.476 1294.029,340.295 1293.482,340.994 1293.165,341.4 1291.893,343.058 1293.632,342.794 1291.881,343.667 1292.43,346.66 1294.562,345.962 1293.592,346.672 1290.643,343.958 1292.122,346.898 1290.13,345.2 1287.293,346.954 1285.132,346.898 1285.93,345.917 1283.418,345.001 1282.779,345.54 1281.487,346.63 1283.591,348.156 1284.842,347.043 1283.668,348.36 1282.004,349.13 1280.882,350.499 1282.34,350.613 1283.673,348.963 1285.132,349.707 1284.767,350.308 1285.096,350.899 1285.642,351.219 1284.777,351.617 1285.006,352.723 1286.002,352.587 1285.185,352.703 1285.127,353.478 1284.816,354.075 1284.409,354.858 1283.378,355.326 1282.596,355.616 1280.859,356.26 1278.347,356.701 1277.212,358.131 1277.833,358.379 1278.055,358.895 1277.572,359.427 1278.346,359.591 1279.127,359.501 1279.662,358.851 1279.287,359.545 1278.528,359.766 1277.792,359.715 1278.768,360.955 1281.757,359.544 1282.762,358.851 1282.708,359.894 1283.912,359.931 1284.632,359.715 1284.328,360.158 1283.918,360.278 1283.402,360.075 1283.601,361.326 1284.529,360.716 1285.27,360.37 1286.41,359.839 1287.038,361.592 1288.034,362.027 1289.85,362.819 1290.148,361.177 1291.63,360.962 1293.249,360.727 1294.345,359.884 1295.642,358.922 1294.407,360.402 1292.668,361.425 1291.322,362.81 1290.97,363.171 1291.489,363.606 1290.743,363.702 1289.895,363.81 1289.039,363.862 1288.197,363.688 1287.008,363.442 1285.007,363.029 1283.865,363.714 1283.18,364.126 1283.137,364.943 1282.439,365.362 1281.477,365.938 1281.292,364.506 1280.948,366.213 1280.81,366.899 1279.119,369.495 1278.245,369.297 1277.705,369.175 1277.569,369.197 1277.365,369.797 1277.04,370.752 1275.688,371.186 1274.845,371.531 1274.172,371.806 1273.427,372.105 1272.854,372.567 1272.617,372.757 1272.915,373.416 1273.175,373.36 1274.079,373.163 1275.176,372.384 1275.627,373.68" id="path2656"/>
    <path d="M 1274.397,316.584 C 1274.541,316.512 1274.684,316.44 1274.827,316.368 1274.642,315.683 1274.163,315.565 1273.677,316.08 1273.917,316.248 1274.158,316.416 1274.397,316.584" id="path2658"/>
    <path d="M 1274.328,321.912 C 1275.594,321.824 1276.766,321.302 1277.998,321.048 1277.754,319.691 1274.888,318.362 1274.038,319.824 1274.616,319.869 1275.095,320.109 1275.478,320.544 1274.977,320.93 1274.286,321.487 1275.628,321.264 1275.113,321.318 1274.68,321.534 1274.328,321.912" id="path2660"/>
    <path d="M 1275.558,325.872 C 1276.173,324.931 1277.227,324.162 1277.428,322.992 1276.47,323.567 1275.94,324.688 1274.908,325.151 1275.095,325.418 1275.312,325.658 1275.558,325.872" id="path2662"/>
    <path d="M 1276.417,313.488 C 1276.637,313.006 1276.781,312.502 1276.847,311.975 1276.396,312.393 1276.253,312.897 1276.417,313.488" id="path2664"/>
    <path d="M 1280.308,328.824 C 1281.268,328.435 1280.965,326.377 1279.868,326.448 1278.587,326.532 1279.183,328.896 1280.308,328.824" id="path2666"/>
    <path d="M 1295.138,301.824 C 1295.282,301.243 1295.097,300.665 1294.418,300.599 1294.269,301.184 1294.606,301.626 1295.138,301.824" id="path2670"/>
    <path d="M 1295.138,300.24 C 1295.891,300.919 1297.885,301.261 1298.518,300.24 1297.737,300.186 1296.414,300.239 1296.132,299.274 1295.903,298.492 1293.934,299.25 1295.138,300.24" id="path2672"/>
    <path d="M 1296.868,302.184 C 1297.11,301.948 1297.229,301.66 1297.228,301.32 1296.459,301.266 1296.339,301.554 1296.868,302.184" id="path2674"/>
    <path d="M 1302.268,368.856 C 1302.889,368.799 1303.434,368.427 1303.778,367.919 1302.602,367.264 1301.934,367.472 1300.828,368.135 1301.342,368.308 1301.821,368.548 1302.268,368.856" id="path5354"/>
  </g>
  <g class="world_map-is_selected landxx coastxx eu irl" id="ie" transform="translate(-29.9017,-45.0745)">
    <title>Ireland</title>
    <path d="M 1258.488,332.353 C 1258.625,332.463 1258.413,332.829 1258.668,332.497 1258.925,332.161 1258.628,332.465 1258.488,332.353" id="path5352"/>
    <path d="M 1248.047,341.353 C 1249.205,340.855 1247.088,340.483 1246.537,340.777 1247.117,340.768 1247.621,340.96 1248.047,341.353" id="path5348"/>
    <path class="world_map-is_selected landxx eu irl" d="M 1245.678,360.36 C 1245.438,360.383 1245.198,360.408 1244.958,360.431 1245.911,359.572 1246.921,358.511 1248.268,358.343 1247.005,358.131 1244.925,359.911 1243.779,358.936 1242.491,357.84 1246.697,355.757 1247.548,356.039 1246.286,355.477 1244.569,355.959 1243.298,356.255 1242.955,355.239 1244.034,355.082 1244.769,354.985 1245.156,354.934 1245.6,354.907 1245.952,354.718 1246.283,354.54 1246.99,355.178 1247.759,355.031 1247.585,354.48 1247.321,353.976 1246.969,353.518 1248.343,353.524 1248.746,352.267 1250.175,352.287 1251.837,352.31 1253.326,351.653 1254.959,351.503 1254.406,351.486 1253.934,351.159 1253.739,350.639 1251.649,351.98 1250.047,351.931 1247.619,352.368 1248.28,351.904 1251.565,350.28 1251.161,349.188 1250.584,347.63 1253.782,347.669 1254.458,346.967 1253.207,346.888 1252.026,346.844 1250.775,346.854 1250.165,346.859 1249.123,346.2 1248.338,346.103 1248.48,345.862 1248.623,345.623 1248.768,345.383 1248.044,345.164 1247.466,345.863 1246.758,345.455 1247.002,345.292 1247.241,345.124 1247.478,344.951 1247.24,344.781 1246.999,344.613 1246.758,344.447 1247.609,344.309 1247.283,344.208 1247.882,343.826 1248.365,343.517 1249.114,343.859 1249.638,343.799 1248.888,343.894 1248.052,343.236 1248.871,342.58 1249.207,342.31 1249.926,342.363 1250.329,342.233 1252.349,341.58 1248.396,341.322 1248.573,341.583 1248.298,341.178 1249.187,341.157 1249.347,341.28 1248.893,340.54 1249.654,339.313 1248.407,339.983 1248.747,339.552 1248.724,339.144 1248.337,338.759 1248.126,338.984 1247.932,339.224 1247.757,339.479 1247.871,338.953 1248.088,338.473 1248.407,338.04 1248.518,339.174 1250.102,337.987 1251.243,337.915 1252.31,337.848 1253.684,338.118 1253.806,339.408 1254.347,337.055 1256.82,339.458 1258.056,338.256 1257.789,338.119 1257.526,337.975 1257.266,337.824 1258.055,336.787 1260.241,336.892 1260.426,335.664 1259.211,335.427 1257.886,335.809 1256.756,335.16 1257.017,334.306 1257.943,334.083 1258.706,334.368 1258.416,333.744 1258.4,333.318 1259.346,333.649 1258.772,332.89 1259.368,331.653 1260.112,331.254 1261.438,330.542 1262.622,331.145 1263.886,330.983 1263.306,329.979 1264.265,329.896 1264.59,330.469 1265.168,331.489 1264.58,331.485 1264.317,332.352 1265.406,332.369 1265.844,331.197 1265.037,330.479 1266.605,329.389 1267.186,329.982 1268.717,330.263 1267.893,331.189 1266.0617,331.39194 1265.652,332.675 1265.2914,333.80437 1263.9426,335.36258 1262.447,334.727 1262.742,335.012 1263.056,335.277 1263.387,335.52 1262.066,336.349 1259.8282,336.15209 1261.5624,337.74381 1262.32,338.43918 1263.42,338.85479 1264.3114,339.13862 1265.1566,339.40775 1265.8247,339.73298 1266.2188,338.38281 1266.4273,337.66871 1266.1378,336.98776 1267.682,337.379 1268.7164,337.64109 1269.2099,338.88268 1269.787,339.046 1269.777,340.4483 1270.7384,340.05283 1271.447,339.982 1272.0803,339.9187 1272.061,339.424 1272.957,340.271 1272.458,340.526 1271.826,340.549 1271.393,340.94 1271.251,341.069 1272.038,342.075 1271.968,342.63 1271.871,343.41 1273.854,345.433 1271.877,345.814 1273.196,347.842 1272.626,349.051 1271.812,351.081 1271.39,352.134 1270.793,354.267 1269.287,354.094 1270.929,354.317 1269.853,355.717 1268.653,355.497 1267.697,355.321 1266.229,356.084 1265.977,354.67 1266.597,356.518 1263.188,355.827 1262.239,356.163 1261.355,356.476 1261.936,357.32 1260.561,357.32 1259.486,357.32 1258.947,358.797 1257.557,358.702 1258.385,357.482 1256.881,357.819 1256.257,358.054 1257.368,358.371 1256.985,358.901 1256.257,359.323 1255.933,359.453 1255.668,359.658 1255.459,359.939 1255.207,360.431 1254.789,360.002 1254.34,360.186 1253.281,360.619 1252.148,360.601 1251.047,360.957 1249.819,361.354 1248.406,360.966 1247.257,361.51 1247.568,360.988 1248.001,360.604 1248.557,360.359 1248.031,360.435 1247.524,360.579 1247.037,360.791 1247.667,360.223 1248.464,359.934 1249.267,359.711 1248.326,359.213 1246.475,359.767 1245.678,360.36" id="path5402"/>
  </g>
  <g id="je">
    <title>Jersey</title>
    <path class="landxx coastxx jey" d="M 1266.3863,335.58955 C 1266.4593,335.37355 1266.5333,335.15655 1266.6063,334.94155 1266.0333,334.73755 1265.6913,334.99155 1265.6663,335.58955 1265.9063,335.58955 1266.1463,335.58955 1266.3863,335.58955" id="je-"/>
    <circle class="circlexx jey" cx="1268.2172" cy="338.91202" id="je." r="6.0130301" rx="6.0130301" ry="6.0130301"/>
  </g>
  <g id="gg">
    <title>Guernsey</title>
    <path class="landxx coastxx ggy" d="M 1263.1886,333.11172 C 1263.6476,332.91272 1263.8166,332.91572 1263.6926,332.31172 1263.5246,332.57772 1263.3566,332.84472 1263.1886,333.11172" id="gg-"/>
    <circle class="circlexx ggy" cx="1258.4613" cy="332.14261" id="gg." r="6.0130301" rx="6.0130301" ry="6.0130301"/>
  </g>
  <g id="im">
    <title>Isle of Man</title>
    <path class="landxx coastxx imn" d="M 1251.8463,294.98155 C 1252.7373,294.77855 1254.4583,294.25755 1254.8753,293.35555 1255.1573,292.74455 1254.2123,292.39255 1253.7633,292.57555 1252.8343,292.95355 1252.3033,294.16855 1251.8463,294.98155" id="im-"/>
    <circle class="circlexx imn" cx="1252.4366" cy="294.51974" id="im." r="6.0130301" rx="6.0130301" ry="6.0130301"/>
  </g>
  </svg>