<svg xmlns="http://www.w3.org/2000/svg" class="world_map zoom3" height="127" id="svg2985" version="1.1" viewBox="1091 174 177 67" width="127">
  <title>World Map</title>
  <defs id="defs2987"/>
  <defs>
    <link xmlns="http://www.w3.org/1999/xhtml" href="../css/svg.css" type="text/css" rel="stylesheet"/>
  </defs>
  <style id="style_css_sheet" type="text/css">
/*
 * Below are Cascading Style Sheet (CSS) definitions in use in this file,
 * which allow easily changing how countries are displayed.
 *
 */
/* --- Custom styles for Peace Corps --- */
.world_map .world_map-is_selected {
  fill: #C94112 !important;
}
.world_map .landxx {
  fill: #F2EFE8;
  stroke: #ffffff;
  fill-rule: evenodd;
}
.world_map.zoom4 .landxx {
  stroke-width: 2px;
}
.world_map.zoom3 .landxx {
  stroke-width: 3px;
}
.world_map.zoom2 .landxx {
  stroke-width: 4px;
}
.world_map.zoom1 .landxx {
  stroke-width: 5px;
}
.world_map .coastxx {
  fill: #F2EFE8;
  stroke: #ffffff;
  stroke-width: 2px;
  fill-rule: evenodd;
}
.world_map .oceanxx {
  opacity: 1;
  color: #ccc;
  fill: #ffffff;
  stroke: #ffffff;
  stroke-width: 0.5;
  stroke-miterlimit: 1;
}

/* --- Original Styles --- *
/*
 * Circles around small countries
 *
 * Change opacity to 1 to display all circles.
 *
 */
.circlexx
{
   opacity:0;
   fill:#e0e0e0;
   stroke:#000000;
   stroke-width:0.5;
}

/*
 * Smaller circles around French DOMs and Chinese SARs
 *
 * Change opacity to 1 to display all subnational circles.
 *
 */
.subxx
{
   opacity:0;
   stroke-width:0.3;
}

/*
 * Circles around small, unrecognized countries
 *
 * Change opacity to 1 to display all circles.
 *
 */
.unxx
{
   opacity:0;
   fill:#e0e0e0;
   stroke:#000000;
   stroke-width:0.3;
}

/*
 * Circles around small countries, but with no permanent residents 
 *
 * Change opacity to 1 to display all circles.
 *
 */
.noxx
{
   opacity:0;
   fill:#e0e0e0;
   stroke:#000000;
   stroke-width:0.5;
}

/*
 * land
 */
.landxx
{
}
/*
 * Styles for coastlines of islands with no borders
 */


/*
 * Styles for nations with limited recognition
 */
.limitxx
{
   fill: #e0e0e0;
   stroke:#ffffff;
   stroke-width:0;
   fill-rule:evenodd;
}

/*
 * Styles for nations with no permanent population.
 */
.antxx
{
   fill: #e0e0e0;
   stroke:#ffffff;
   stroke-width:0;
   fill-rule:evenodd;
}

/*
 * Ocean
 */


/*
 * Additional style rules
 *
 * The following are examples of colouring countries.  You can substitute these with your own styles to colour the countries on the map.
 *
 * Color a few countries:
 *
 * .gb, .au, .nc
 * {
 *    fill:       #ff0000;
 * }
 *
 * Color a few small country circles (and the countries):
 *
 * .ms, .ky
 * {
 *    opacity:    1;
 *    fill:       #ff0000;
 * }
 *
 */

</style>
  <path class="oceanxx" d="M 2079.5058,1457.5605 615.24779,1457.5605 C 615.13079,1457.5605 615.07079,1457.5505 614.95179,1457.5215 611.67679,1456.6515 608.40179,1455.7815 605.12779,1454.9105 599.15079,1453.3225 593.22879,1451.5225 587.30779,1449.7385 564.39379,1442.8315 541.76579,1434.6995 519.46979,1426.0115 495.81079,1416.7935 472.34979,1407.0946 449.19179,1396.6816 426.78379,1386.6056 405.17679,1375.0536 383.76379,1363.0356 363.11779,1351.4496 343.01079,1338.8296 323.37979,1325.5996 302.29179,1311.3876 281.47879,1296.8506 261.05379,1281.7006 242.35079,1267.8276 223.73679,1253.6306 206.05279,1238.4686 186.98679,1222.1216 167.82379,1205.7706 150.35279,1187.6906 132.97779,1169.7106 116.33279,1151.0606 100.15679,1131.9976 84.352777,1113.3736 70.086776,1093.4716 56.901786,1072.9246 44.046786,1052.8916 32.093776,1032.1356 22.469776,1010.3426 17.516776,999.12753 12.408776,987.76556 8.7017761,976.06056 5.0657761,964.58166 1.5997761,953.04259 -1.5932239,941.43054 -8.0102239,918.09356 -14.055224,894.78356 -18.234224,870.92056 -22.491222,846.60856 -24.894222,822.19856 -26.943222,797.62156 -28.947222,773.58556 -28.829222,749.40156 -27.225222,725.34856 -25.648222,701.69856 -23.363222,677.92456 -19.274222,654.56456 -15.018224,630.25156 -9.3842239,606.45156 -2.8412239,582.66156 3.5687761,559.35256 10.483776,536.34856 20.265776,514.19856 30.320776,491.42956 42.318786,469.90956 55.502786,448.81656 68.512776,428.00356 83.108777,408.26756 98.686787,389.31756 113.73479,371.01156 129.68979,353.25256 146.15179,336.20856 163.77479,317.96256 182.64579,301.14556 201.89579,284.64756 220.33379,268.84456 239.55379,253.98456 258.95979,239.39656 278.42779,224.76056 298.39379,210.83356 318.55579,197.17556 339.26979,183.14456 360.47879,169.92056 382.15079,157.42556 403.46579,145.13656 425.31479,133.98856 447.60479,123.59356 469.58579,113.34356 492.14979,104.17656 514.74579,95.37556 537.44879,86.532565 560.37879,78.195565 583.63479,70.914565 589.69379,69.017565 595.80079,67.276565 601.90879,65.549565 604.63079,64.779565 607.36079,64.045565 610.09479,63.318565 611.59979,62.918565 613.56579,61.986565 615.13379,61.986565 L 2079.9638,61.986565 C 2079.9798,61.986565 2079.9958,61.986565 2080.0118,61.986565 2079.8448,61.986565 2079.6788,61.986565 2079.5118,61.986565 2102.8268,68.191565 2125.8778,75.323565 2148.5448,83.611565 2171.6378,92.054565 2194.6158,100.87956 2217.2348,110.52956 2240.5208,120.46556 2263.4848,130.95256 2285.8828,142.76456 2306.9808,153.89056 2327.8178,165.78556 2347.8608,178.72156 2368.9418,192.32656 2389.7498,206.29256 2410.2218,220.80056 2429.7368,234.62956 2448.9938,248.98756 2467.6208,263.99256 2486.8818,279.50856 2506.0408,295.30556 2524.0538,312.27356 2541.8708,329.05756 2558.7508,346.67256 2574.9408,365.03656 2591.2478,383.53256 2607.1478,402.30656 2621.4508,422.41856 2635.3488,441.96256 2648.4468,462.42756 2659.5898,483.67756 2671.1238,505.67356 2681.1048,528.35656 2688.6188,552.05056 2692.2518,563.50656 2695.3368,575.14756 2698.5608,586.72256 2701.7738,598.25356 2704.9238,609.81956 2707.4578,621.52456 2712.6258,645.40556 2716.6718,669.47856 2719.1178,693.79656 2721.5718,718.19256 2723.1798,742.56356 2722.9808,767.09056 2722.7908,790.65456 2720.6908,814.43756 2717.7688,837.81156 2714.7368,862.07056 2710.5198,886.16156 2704.6398,909.90056 2701.6808,921.84356 2698.3948,933.69556 2695.0378,945.53154 2691.7468,957.13466 2688.5558,968.83466 2684.3988,980.16156 2676.0918,1002.8036 2666.1688,1024.8836 2654.1338,1045.8046 2641.9958,1066.9066 2628.8498,1087.4866 2614.2378,1106.9696 2599.1658,1127.0666 2582.6678,1145.9446 2565.8948,1164.6296 2549.8298,1182.5266 2532.8918,1199.7316 2514.8648,1215.6616 2496.0788,1232.2646 2476.8978,1248.3126 2457.1558,1263.7656 2438.2988,1278.5276 2418.9668,1292.7306 2399.3188,1306.4206 2378.7018,1320.7866 2357.7538,1334.6106 2336.4758,1347.9776 2326.4088,1354.3016 2316.0058,1360.1326 2305.6418,1365.9516 2295.0348,1371.9086 2284.3858,1378.0166 2273.4448,1383.3436 2250.7338,1394.3986 2227.7768,1404.7266 2204.3888,1414.2665 2181.7848,1423.4875 2159.0678,1432.2695 2136.0228,1440.3345 2117.4118,1446.8465 2098.5568,1452.4975 2079.5058,1457.5605" id="ocean"/>
  <g class="landxx coastxx grl" id="gl">
    <title>Greenland</title>
    <g id="g27049" transform="translate(-29.9017,-45.0745)">
      <path d="M 1192.678,195.552 C 1191.695,195.355 1190.656,195.696 1189.728,195.984 1190.818,196.133 1191.867,196.606 1192.678,195.552" id="path4424"/>
      <path d="M 1192.538,192.672 C 1195.525,192.152 1198.52,194.063 1201.468,193.032 1198.729,192.639 1193.812,190.118 1191.458,192.599 1191.816,192.65 1192.176,192.674 1192.538,192.672" id="path4426"/>
      <path d="M 1207.948,195.479 C 1205.581,194.339 1196.479,192.994 1194.408,195.551 1196.387,195.368 1199.964,195.134 1201.81,195.897 1202.29,196.096 1203.225,197.052 1203.763,196.954 1204.949,196.737 1206.186,196.907 1207.368,197.062 1207.297,196.485 1206.863,196.125 1206.288,196.126 1206.878,196.006 1207.431,195.79 1207.948,195.479" id="path4432"/>
      <path d="M 1216.297,184.896 C 1215.704,184.819 1209.931,185.48 1211.321,186.488 1213.394,187.991 1217.687,187.198 1219.967,186.697 1219.192,186.464 1218.872,185.693 1218.214,185.297 1217.631,184.945 1216.924,185.078 1216.297,184.896" id="path4434"/>
      <path d="M 1221.908,182.952 C 1222.441,182.768 1222.948,182.528 1223.428,182.231 1222.946,181.745 1222.209,181.518 1221.558,181.799 1221.933,181.643 1222.244,181.403 1222.488,181.079 1221.819,180.846 1220.886,180.566 1220.188,180.863 1219.454,181.176 1219.378,182.053 1218.598,182.302 1219.41,183.05 1220.875,183.462 1221.908,182.952" id="path4438"/>
      <path d="M 1228.388,183.815 C 1227.663,183.186 1226.878,183.479 1226.088,183.815 1226.778,184.363 1227.837,184.45 1228.388,183.815" id="path4454"/>
      <path d="M 1234.008,178.488 C 1233.294,178.357 1233.133,179.027 1232.498,179.063 1231.892,179.098 1231.377,178.561 1230.781,178.668 1229.503,178.899 1228.484,179.81 1228.388,181.15 1230.024,180.897 1231.997,180.743 1233.642,180.976 1234.878,181.152 1235.98,181.62 1236.748,180.287 1236.071,180.004 1235.675,180.464 1235.031,180.521 1234.214,180.595 1233.561,180.153 1232.928,179.71 1233.457,179.516 1233.987,179.324 1234.518,179.134 1234.348,178.92 1234.178,178.704 1234.008,178.488" id="path4462"/>
      <path d="M 1232.138,173.448 C 1232.373,173.022 1233.057,170.635 1232.84,170.203 1232.191,168.913 1230.471,170.554 1232.138,170.424 1231.707,170.568 1230.649,170.591 1230.585,171.223 1230.507,172.009 1231.332,173.891 1231.778,174.529 1232.053,174.219 1232.173,173.859 1232.138,173.448" id="path4464"/>
      <path d="M 1152.428,229.464 C 1152.935,229.709 1153.442,229.709 1153.948,229.464 1153.517,228.968 1152.806,228.781 1152.428,229.464" id="path4414"/>
      <path d="M 1183.388,208.44 C 1182.389,208.419 1181.381,208.746 1180.449,209.065 1178.876,209.602 1177.424,209.381 1175.828,209.664 1174.313,209.932 1173.065,210.853 1171.607,211.26 1171.147,211.368 1170.684,211.461 1170.218,211.536 1169.529,211.675 1169.394,212.499 1168.708,212.688 1170.761,213.861 1173.749,212.567 1175.906,212.361 1178.852,212.079 1181.762,212.305 1184.618,211.248 1184.376,211.033 1184.137,210.817 1183.898,210.6 1185.415,210.454 1184.074,208.953 1183.108,209.088 1183.201,208.872 1183.294,208.656 1183.388,208.44" id="path4418"/>
      <path d="M 1174.248,209.808 C 1173.416,209.59 1172.37,209.527 1171.588,209.953 1171.978,211.158 1173.632,210.283 1174.248,209.808" id="path4420"/>
      <path d="M 1179.868,212.399 C 1179.397,212.083 1178.691,212.342 1178.278,212.616 1178.856,212.902 1179.386,212.83 1179.868,212.399" id="path4422"/>
      <path d="M 1193.547,218.088 C 1192.999,217.866 1192.354,218.137 1191.957,218.521 1192.544,218.774 1193.156,218.572 1193.547,218.088" id="path4428"/>
      <path d="M 1203.627,199.512 C 1202.984,199.582 1202.644,199.207 1202.827,198.576 1204.039,198.853 1205.323,199.175 1206.577,199.08 1206.542,198.252 1204.798,197.674 1204.197,197.424 1203.889,197.478 1203.581,197.482 1203.272,197.437 1202.641,197.035 1202.044,196.68 1201.437,196.248 1200.451,195.546 1198.224,195.799 1197.063,195.788 1195.493,195.772 1194.1,195.301 1194.159,197.141 1194.207,198.621 1199.001,199.151 1200.059,199.613 1201.367,200.184 1204.541,202.267 1205.427,200.089 1204.816,199.932 1204.216,199.739 1203.627,199.512" id="path4430"/>
      <path d="M 975.958,169.488 C 978.975,170.219 982.104,170.226 985.178,169.92 985.029,171.345 982.416,170.701 981.542,170.684 979.885,170.652 977.017,171.213 975.528,171.937 976.549,172.933 978.608,173.471 979.998,173.521 978.392,173.837 980.075,174.07 980.611,174.155 981.388,174.28 982.177,174.251 982.961,174.272 984.652,174.315 986.62,175.277 988.269,174.6 987.442,174.287 986.97,173.395 986.039,173.304 987.811,173.096 987.947,172.614 989.411,173.698 990.333,174.38 992.823,172.098 994.469,173.016 993.895,173.214 993.392,173.527 992.959,173.953 993.926,174.669 995.03,174.33 995.646,173.515 995.819,173.286 997.247,173.714 997.761,173.431 998.108,173.33 998.456,173.331 998.807,173.436 999.332,173.494 999.331,172.949 999.771,172.852 1000.765,172.632 1002.074,172.344 1001.959,173.521 1002.453,173.536 1009.779,171.001 1008.939,173.232 1010.043,172.324 1011.752,172.815 1012.999,173.054 1014.773,173.395 1016.603,173.207 1018.369,173.592 1018.229,173.834 1018.086,174.073 1017.939,174.312 1018.694,174.467 1021.951,173.787 1021.539,174.96 1022.071,174.93 1022.598,174.857 1023.119,174.744 1022.872,174.952 1022.632,175.168 1022.399,175.391 1023.424,175.716 1024.469,175.162 1025.499,175.463 1023.951,175.52 1025.311,176.409 1025.91,176.438 1026.667,176.473 1027.405,176.23 1028.159,176.255 1026.166,176.824 1028.781,176.364 1028.169,177.576 1027.63,178.644 1026.221,178.386 1025.279,178.703 1026.104,179.047 1026.776,178.375 1027.589,178.415 1026.901,178.739 1026.349,179.955 1027.589,179.855 1027.344,180.041 1027.105,180.233 1026.869,180.43 1028.338,181.311 1031.008,180.81 1032.119,182.23 1031.546,182.625 1030.426,182.396 1030.469,183.382 1031.887,182.44 1032.826,184.514 1033.78,184.174 1033.063,184.913 1031.709,184.994 1030.759,184.822 1031.454,185.285 1032.28,185.211 1033.059,185.11 1032.362,185.574 1031.538,185.44 1030.759,185.542 1031.243,185.875 1031.769,185.971 1032.339,185.83 1030.35,186.494 1028.191,186.398 1026.219,187.126 1028.335,187.472 1030.466,186.741 1032.479,186.19 1032.081,186.689 1031.558,187.094 1030.969,187.341 1031.498,187.572 1032.052,187.692 1032.629,187.701 1030.866,187.885 1032.916,188.638 1033.349,188.709 1032.463,188.787 1031.993,189.667 1033.199,189.789 1033.018,189.862 1029.527,189.864 1031.619,190.077 1029.883,190.399 1033.996,191.638 1034.209,192.381 1033.642,192.064 1030.82,192.812 1032.629,193.173 1031.769,193.38 1031.155,194.384 1030.179,193.965 1031.305,194.558 1032.267,194.03 1033.269,194.397 1034.785,194.95 1033.931,196.243 1032.699,196.341 1033.215,196.599 1033.719,196.575 1034.209,196.27 1033.122,196.647 1032.291,197.505 1031.189,197.854 1032.201,198.133 1033.247,198.189 1034.279,198.358 1031.966,198.904 1029.455,197.571 1027.229,198.645 1028.32,199.723 1030.699,198.374 1031.839,199.221 1030.689,199.302 1029.902,200.212 1028.849,200.554 1027.854,200.877 1026.459,201.157 1025.719,201.958 1028.291,203.174 1030.161,201.229 1032.479,200.446 1030.645,201.676 1029.294,202.386 1027.087,202.634 1025.673,202.793 1023.665,203.166 1022.548,204.118 1023.297,204.274 1023.375,205.002 1023.652,205.579 1023.969,206.238 1025.839,206.731 1024.918,205.413 1026.146,206.385 1027.956,206.555 1029.459,206.4 1030.151,206.329 1030.843,206.175 1031.486,205.904 1033.243,205.161 1031.609,205.117 1032.189,203.829 1032.593,204.31 1033.099,204.478 1033.709,204.333 1032.792,203.03 1036.801,204.212 1036.403,201.968 1036.262,201.171 1035.553,200.963 1035.869,200.085 1036.212,199.132 1036.917,199.365 1037.739,199.365 1035.004,199.461 1037.26,201.587 1036.659,203.396 1037.742,202.875 1039.365,202.12 1040.549,201.957 1039.534,202.407 1037.616,203.23 1036.799,203.973 1038.27,204.159 1039.827,204.398 1041.275,204.531 1042.615,204.653 1043.985,203.493 1045.299,203.901 1043.015,205.88 1039.495,204.572 1036.949,205.99 1039.887,206.188 1043.216,204.765 1046.019,205.486 1044.888,206.139 1043.423,205.684 1042.199,205.918 1040.867,206.172 1039.866,207.191 1038.529,207.43 1040.089,208.436 1042.305,206.581 1043.859,206.351 1044.179,207.157 1043.869,207.408 1042.923,207.101 1041.949,207.197 1041.021,207.501 1040.118,207.863 1041.224,208.786 1043.511,208.006 1044.788,207.935 1042.763,208.46 1045.824,208.789 1046.308,208.726 1044.52,209.933 1042.582,207.664 1040.838,208.726 1041.877,209.039 1042.705,209.657 1043.823,209.719 1044.567,209.76 1045.399,209.77 1046.132,209.947 1046.927,210.139 1045.932,210.968 1045.381,210.721 1044.422,210.29 1043.621,210.657 1042.639,210.671 1043.183,211.247 1045.456,211.176 1046.309,211.463 1045.779,211.378 1045.249,211.378 1044.719,211.463 1044.951,211.711 1045.191,211.951 1045.44,212.183 1044.631,211.776 1043.368,211.797 1042.49,211.895 1042.898,212.201 1045.098,212.847 1043.21,212.688 1044.244,213.377 1045.415,212.931 1046.31,212.255 1045.811,212.593 1045.726,213.075 1045.332,213.473 1044.768,214.044 1043.336,213.396 1042.711,213.257 1040.488,212.763 1039.131,212.287 1037.09,211.242 1035.083,210.216 1032.907,211.068 1030.816,210.543 1028.88,210.057 1026.591,209.983 1024.919,211.247 1025.999,212.007 1026.905,213.006 1028.237,213.316 1030.066,213.742 1032.306,213.34 1033.799,214.743 1035.169,216.031 1036.209,215.731 1037.954,216.049 1038.238,216.101 1038.955,216.391 1039.244,216.285 1040.019,216.002 1040.974,215.188 1041.769,215.927 1041.259,216.019 1040.755,216.139 1040.259,216.287 1042.207,216.542 1044.077,215.714 1046.019,215.783 1045.695,216.356 1044.836,216.405 1044.359,216.791 1044.965,216.85 1045.249,217.292 1045.079,217.871 1043.912,217.807 1042.925,217.661 1041.989,218.519 1042.581,218.352 1043.084,218.496 1043.499,218.951 1042.668,218.779 1041.02,218.294 1040.979,219.671 1041.855,219.671 1043.132,219.101 1043.929,219.671 1041.889,219.323 1039.647,220.585 1038.239,221.902 1039.604,222.313 1040.369,221.243 1041.604,221.243 1042.154,221.243 1042.31,222.134 1042.918,222.262 1042.2,222.578 1041.389,222.265 1040.758,222.838 1041.275,222.9 1041.756,223.067 1042.198,223.342 1041.655,223.329 1041.175,223.497 1040.758,223.846 1040.676,222.515 1039.243,222.995 1038.388,223.054 1038.632,222.867 1038.872,222.675 1039.108,222.478 1038.178,222.228 1037.471,222.929 1037.156,223.781 1036.869,224.555 1035.867,224.459 1035.438,225.215 1036.475,225.465 1037.44,224.836 1038.458,224.783 1037.802,225.002 1036.475,225.22 1037.088,226.222 1035.986,225.764 1034.903,226.806 1033.791,226.707 1032.681,226.607 1031.428,226.253 1030.319,226.51 1030.793,226.389 1031.25,226.221 1031.689,226.006 1030.71,226.493 1029.637,225.833 1028.668,226.439 1029.197,226.418 1029.723,226.442 1030.248,226.51 1029.224,226.455 1028.085,226.566 1027.148,227.014 1029.049,227.014 1026.023,227.742 1025.626,227.823 1024.571,228.04 1023.471,228.156 1022.478,228.598 1023.749,228.638 1025.018,228.015 1026.288,228.31 1025.663,228.296 1025.077,228.602 1024.708,229.103 1025.591,228.235 1028.018,229.181 1029.204,229.015 1030.505,228.832 1032.784,229.297 1033.708,228.094 1033.112,228.196 1032.605,228.028 1032.188,227.59 1033.749,228.026 1035.248,227.192 1036.797,227.158 1036.128,227.471 1035.374,227.478 1034.702,227.784 1034.081,228.067 1034.032,228.793 1033.267,228.885 1033.763,229.016 1034.246,229.184 1034.717,229.389 1033.973,229.331 1033.203,229.035 1032.477,229.389 1034.51,229.897 1036.338,231.077 1038.457,231.261 1036.198,231.702 1034.218,230.065 1031.977,230.289 1030.835,230.403 1029.652,230.467 1028.517,230.253 1027.299,230.024 1026.142,229.033 1024.847,229.461 1025.394,229.643 1025.897,229.906 1026.357,230.253 1024.707,229.76 1022.925,229.05 1021.177,229.461 1022.203,229.461 1022.448,229.749 1023.174,230.335 1024.369,231.298 1026.007,231.084 1027.437,231.045 1025.364,231.641 1023.449,230.108 1021.387,230.541 1021.878,230.724 1022.385,230.795 1022.907,230.757 1022.153,230.912 1021.369,230.987 1020.667,231.333 1022.49,231.279 1020.546,231.882 1019.957,231.477 1021.483,233.392 1017.445,231.088 1018.297,232.486 1017.476,232.156 1017.26,232.372 1017.648,233.133 1017.859,232.911 1018.075,232.695 1018.297,232.486 1018.818,233.507 1016.667,233.003 1016.927,234.358 1019.035,234.399 1020.639,232.72 1022.644,232.343 1025.273,231.848 1027.96,231.368 1030.607,230.901 1029.216,231.74 1027.536,231.276 1026.067,231.838 1026.904,232.67 1028.057,232.622 1029.097,232.271 1027.279,232.758 1030.481,232.904 1031.327,232.199 1031.144,231.929 1030.954,231.666 1030.757,231.407 1031.783,231.397 1032.796,230.556 1033.778,231.262 1033.04,231.419 1032.283,231.45 1031.548,231.622 1031.729,232.985 1034.085,232.345 1034.859,232.054 1033.051,231.857 1034.798,231.45 1035.244,231.447 1035.9,231.441 1036.569,231.635 1037.159,231.911 1035.222,232.428 1033.198,232.775 1031.189,232.775 1033.072,233.946 1034.976,232.894 1036.949,232.703 1035.732,233.234 1034.391,233.332 1033.129,233.711 1034.177,234.489 1035.558,234.47 1036.799,234.431 1034.636,235.045 1032.814,233.636 1030.748,233.333 1028.315,232.976 1025.65,232.686 1023.189,232.559 1025.277,232.571 1021.389,232.936 1020.959,233.135 1022.788,232.865 1021.008,233.302 1020.641,233.402 1019.748,233.644 1018.851,233.875 1017.974,234.173 1017.022,234.495 1014.79,235.197 1015.059,236.592 1016.11,236.405 1017.098,235.97 1018.142,235.755 1019.373,235.502 1020.538,235.958 1021.804,235.669 1024.829,234.978 1027.909,235.706 1030.9,235.008 1030.179,235.249 1029.429,235.399 1028.67,235.441 1029.509,238.143 1032.106,236.118 1034,236.665 1033.039,236.785 1029.907,237.766 1029.159,236.971 1028.062,235.805 1028.313,235.45 1026.447,235.624 1024.702,235.787 1022.938,235.807 1021.18,235.981 1020.193,236.079 1019.201,236.114 1018.214,236.211 1018.003,236.232 1014.835,236.526 1017.07,236.593 1016.092,236.835 1015.007,236.58 1014.12,237.169 1015.053,237.648 1016.091,237.521 1017.07,237.313 1016.352,237.557 1015.593,237.626 1014.84,237.601 1015.48,238.157 1016.304,238.011 1017.07,238.106 1016.066,238.193 1015.058,238.25 1014.049,238.25 1015.663,238.918 1017.408,238.615 1019.089,238.897 1017.862,238.857 1016.348,238.746 1015.349,239.618 1016.856,239.307 1021.073,237.511 1022.399,238.681 1021.412,238.875 1021.438,239.092 1022.479,239.329 1021.762,239.706 1021.09,239.269 1020.374,239.203 1019.551,239.128 1018.763,239.525 1017.94,239.329 1018.439,239.434 1018.942,239.506 1019.45,239.545 1018.814,240.117 1017.974,239.922 1017.22,240.121 1017.963,240.485 1018.751,240.14 1019.52,240.193 1018.018,240.659 1016.403,240.255 1014.91,240.768 1015.781,242.027 1018.963,241.72 1020.24,241.489 1019.279,241.875 1016.035,242.08 1014.99,241.777 1016.817,241.777 1014.705,241.597 1014.363,241.682 1013.592,241.873 1013.032,242.528 1012.385,242.942 1011.01,243.821 1015.182,243.522 1015.35,243.505 1014.133,243.727 1012.763,243.726 1011.82,244.657 1013.491,245.376 1015.596,244.219 1017.07,243.505 1018.829,242.652 1020.985,242.521 1022.534,241.249 1023.934,240.1 1025.872,239.74 1027.555,239.205 1029.853,238.474 1032.082,237.814 1034.5,237.601 1034.013,237.784 1033.509,237.856 1032.99,237.817 1033.696,238.195 1034.513,238.205 1035.29,238.177 1034.728,238.46 1033.963,238.372 1033.368,238.301 1032.099,238.147 1031.185,238.365 1029.96,238.681 1030.633,239.505 1032.139,239.306 1033.06,239.257 1031.374,239.785 1029.626,238.955 1027.935,239.417 1026.131,239.91 1024.206,240.48 1022.664,241.574 1021.198,242.614 1019.173,242.231 1017.753,243.366 1016.27,244.553 1014.243,244.549 1012.54,245.232 1013.037,245.349 1013.54,245.421 1014.05,245.449 1013.563,245.632 1013.059,245.704 1012.54,245.665 1013.385,246.46 1014.54,245.713 1015.42,245.449 1014.691,245.749 1013.952,246.031 1013.191,246.241 1014.457,247.323 1016.274,245.525 1017.651,245.665 1018.649,245.767 1017.804,246.548 1019.09,245.929 1020.018,245.482 1021.138,245.379 1022.121,245.089 1022.132,246.319 1021.289,245.581 1020.463,245.694 1019.54,245.82 1019.154,246.266 1018.425,246.716 1018.237,246.832 1016.855,246.503 1016.676,246.501 1015.364,246.489 1014.163,246.775 1012.971,247.319 1013.516,247.435 1014.046,247.387 1014.561,247.175 1014.09,247.529 1013.56,247.697 1012.971,247.679 1013.92,248.471 1015.217,247.944 1015.921,247.104 1015.94,247.673 1015.621,248.034 1015.061,248.112 1016.972,247.919 1014.728,248.704 1014.341,248.975 1015.211,249.481 1016.024,248.585 1016.641,248.112 1016.178,248.612 1015.674,249.068 1015.131,249.479 1016.098,249.111 1016.194,249.303 1015.421,250.055 1015.94,249.961 1016.46,249.878 1016.982,249.806 1018.053,249.63 1018.8,249.228 1019.669,248.597 1020.638,247.893 1021.891,247.579 1023.044,247.328 1024.515,247.008 1025.829,247.817 1027.232,247.536 1026.734,247.936 1026.878,248.104 1027.662,248.04 1025.169,248.46 1022.754,246.448 1020.323,248.45 1019.439,249.179 1018.553,249.207 1017.588,249.736 1016.988,249.977 1016.375,250.179 1015.749,250.341 1015.135,250.587 1015.068,251.463 1014.482,251.784 1015.209,251.498 1015.827,250.401 1016.722,250.92 1016.566,251.17 1016.396,251.409 1016.212,251.64 1016.709,251.46 1017.189,251.244 1017.652,250.993 1016.732,251.604 1015.686,252.335 1016.282,253.585 1015.909,253.536 1015.65,253.673 1015.504,253.996 1015.247,255.119 1017.479,254.062 1015.492,254.809 1016.63,254.755 1018.115,252.531 1019.242,253.37 1019.017,253.602 1018.777,253.818 1018.522,254.017 1019.279,253.751 1020.012,253.381 1020.822,253.297 1019.185,253.761 1016.537,254.368 1015.164,255.367 1014.718,255.692 1013.977,258.76 1014.051,259.273 1016.874,259.459 1018.544,253.966 1021.391,255.096 1020.811,255.242 1020.304,255.619 1019.961,256.105 1021.293,256.307 1023.731,255.271 1024.092,253.87 1024.235,253.317 1024.253,252.956 1023.731,253.058 1023.186,253.164 1023.536,251.744 1023.561,251.496 1024.015,251.919 1024.519,251.991 1025.071,251.712 1024,251.858 1023.957,253.256 1024.248,254.033 1024.957,255.92 1026.76,254.568 1027.951,254.16 1027.499,254.374 1025.523,256.049 1027.371,255.456 1025.007,256.825 1028.385,256.879 1028.241,258.336 1027.396,257.996 1026.234,257.803 1025.641,257.04 1024.961,256.165 1025.222,254.965 1023.701,255.528 1025.693,255.925 1022.519,255.9 1022.191,255.96 1022.686,256.24 1023.189,256.504 1023.701,256.752 1021.924,257.106 1024.532,257.533 1025.281,257.184 1024.582,258.088 1023.396,257.86 1022.41,257.804 1021.768,257.768 1018.865,258.289 1020.67,258.84 1019.141,259.993 1017.181,258.901 1015.49,259.344 1016.017,259.392 1016.543,259.441 1017.07,259.489 1016.527,259.494 1016.024,259.638 1015.56,259.921 1017.832,261.151 1021.846,259.52 1023.77,258.193 1023.31,258.58 1022.83,258.94 1022.33,259.273 1023.051,259.412 1024.726,258.543 1024.85,259.777 1024.366,259.305 1021.511,259.535 1020.832,259.779 1019.334,260.319 1017.374,260.867 1015.78,260.496 1016.557,260.729 1016.708,261.186 1016.07,261.72 1016.943,262.304 1018.139,261.609 1019.02,261.432 1018.263,261.662 1017.613,262.131 1016.86,262.369 1016.576,262.459 1013.189,263.353 1015.35,262.945 1013.792,263.222 1015.543,263.952 1016,264.529 1016.349,263.019 1019.022,263.524 1020.1,263.449 1019.125,263.809 1017.003,263.152 1016.57,264.457 1017.293,264.457 1018.013,264.409 1018.73,264.312 1017.762,264.637 1016.707,264.647 1015.78,265.105 1016.543,265.053 1017.054,265.68 1017.805,265.68 1018.654,265.68 1019.481,265.471 1020.31,265.32 1019.073,266.066 1016.924,265.198 1015.942,266.079 1015.224,266.724 1016.75,267.016 1017.22,266.689 1015.342,267.641 1017.848,266.89 1018.276,266.854 1019.169,266.779 1020.065,266.771 1020.961,266.76 1020.314,266.984 1018.549,267.357 1018.143,267.931 1017.61,268.685 1019.141,268.973 1019.601,268.489 1019.13,268.943 1018.72,269.447 1018.371,270.001 1019.102,269.577 1019.73,268.756 1020.671,268.849 1019.824,269.304 1019.006,269.845 1018.371,270.578 1019.442,270.56 1020.454,270 1021.321,269.426 1020.192,270.393 1018.429,270.925 1017.624,272.239 1016.675,273.788 1021.466,274.375 1022.121,274.538 1021.52,274.423 1020.962,274.719 1020.601,275.185 1021.115,275.159 1021.622,275.206 1022.121,275.33 1021.36,275.804 1020.559,275.185 1019.811,275.69 1020.832,275.893 1020.505,276.061 1019.811,276.481 1020.526,276.11 1021.299,276.482 1022.041,276.265 1022.847,276.029 1023.179,275.19 1023.991,274.969 1023.847,275.547 1024.12,275.865 1024.711,275.833 1023.915,275.822 1023.077,276.077 1022.352,276.384 1021.748,276.641 1019.748,278.556 1021.471,277.561 1021.3,277.824 1021.13,278.088 1020.961,278.354 1022.309,278.237 1022.96,276.024 1024.491,276.698 1023.659,276.893 1022.104,277.537 1021.901,278.498 1022.47,278.509 1022.996,278.364 1023.481,278.065 1022.922,278.329 1022.442,278.761 1022.121,279.29 1022.863,279.407 1023.607,279.269 1024.351,279.29 1023.239,279.513 1021.587,279.106 1020.671,279.938 1022.257,281.212 1024.201,279.702 1025.931,279.793 1024.971,279.981 1024.971,280.077 1025.931,280.081 1024.508,280.221 1022.454,280.112 1021.471,281.377 1022.475,280.63 1024.015,281.094 1025.072,281.449 1024.648,281.856 1024.145,282.024 1023.562,281.953 1023.415,283.03 1024.575,282.684 1025.142,282.457 1024.923,282.694 1024.706,282.935 1024.492,283.177 1025.678,283.27 1025.929,281.323 1027.732,281.665 1026.84,281.677 1026.274,282.43 1025.502,282.745 1025.908,283.703 1026.777,283.349 1027.522,283.105 1027.439,284.471 1025.028,283.888 1024.202,284.329 1025.426,284.297 1026.647,284.184 1027.872,284.184 1026.643,284.693 1025.31,284.916 1024.132,285.552 1025.337,285.66 1028.463,286.005 1029.392,285.048 1028.65,285.125 1027.869,285.305 1027.152,284.976 1028.901,284.794 1030.653,284.533 1032.412,284.76 1032.142,284.968 1031.879,285.185 1031.622,285.408 1032.252,285.921 1033.473,285.729 1033.062,284.688 1034.008,284.812 1036.501,282.718 1036.802,284.399 1037.461,284.179 1037.948,283.92 1036.802,283.536 1037.858,283.966 1040.051,282.518 1038.462,282.24 1039.285,282.615 1039.879,281.738 1040.692,281.807 1040.415,282.033 1040.152,282.273 1039.902,282.528 1040.142,282.695 1040.382,282.863 1040.622,283.032 1039.951,283.904 1038.243,283.551 1038.032,284.832 1039.47,284.16 1041.502,284.245 1042.202,282.528 1042.317,283.704 1042.916,283.148 1043.722,282.672 1042.113,284.908 1038.926,283.934 1036.952,285.552 1037.428,285.31 1037.931,285.214 1038.462,285.264 1037.712,285.558 1036.893,285.707 1036.232,286.201 1037.264,286.816 1038.032,285.097 1039.182,285.553 1038.925,285.753 1038.661,285.946 1038.392,286.129 1039.807,286.176 1041.052,285.013 1042.132,284.257 1042.795,285.391 1041.507,285.035 1040.771,285.379 1040.238,285.629 1037.616,286.705 1039.322,286.705 1038.55,286.912 1037.811,287.225 1037.092,287.568 1037.955,287.852 1038.474,286.909 1039.322,286.993 1037.858,287.765 1039.373,286.97 1039.252,288.217 1040.067,287.446 1040.923,286.67 1042.132,286.778 1041.27,286.953 1040.522,287.474 1039.972,288.147 1040.765,287.897 1041.479,287.459 1042.272,287.209 1041.713,287.473 1041.233,287.904 1040.912,288.433 1042.707,288.49 1043.562,286.694 1045.232,286.49 1044.339,286.984 1043.956,287.956 1043.227,288.62 1042.489,289.293 1041.051,289.691 1040.842,290.809 1042.426,289.999 1044.281,288.449 1045.952,288.001 1044.323,289.352 1042.367,289.99 1040.762,291.241 1041.164,291.82 1041.75,291.874 1042.202,291.312 1042.374,292.295 1043.128,292.048 1043.432,291.312 1042.566,293.169 1044.766,291.007 1045.082,290.808 1045.855,290.321 1046.779,290.622 1046.742,289.369 1047.243,289.983 1047.704,289.898 1047.962,289.152 1047.863,289.722 1047.599,290.202 1047.172,290.592 1047.605,290.669 1048.038,290.741 1048.472,290.808 1047.904,290.657 1047.424,290.801 1047.033,291.241 1047.471,291.605 1047.974,291.773 1048.543,291.745 1046.981,292.117 1048.353,292.356 1048.989,292.508 1049.821,292.706 1050.431,292.404 1050.273,291.457 1050.951,291.704 1051.62,292.05 1052.363,292.033 1052.284,290.973 1049.337,290.954 1048.613,290.808 1050.107,290.501 1051.637,291.952 1053.073,291.096 1052.96,290.527 1052.58,290.243 1052.003,290.376 1052.474,290.113 1052.978,290.017 1053.513,290.088 1053.176,289.259 1051.561,289.229 1053.003,288.864 1052.229,288.973 1051.531,289.341 1050.773,289.511 1051.333,289.244 1051.815,288.814 1052.143,288.287 1050.904,287.869 1049.523,287.943 1048.393,287.207 1049.244,287.518 1050.599,287.964 1051.273,287.062 1051.593,288.491 1054.904,288.378 1053.073,287.71 1054.06,287.991 1055.15,287.817 1056.103,287.494 1055.593,287.466 1055.09,287.394 1054.593,287.278 1055.416,287.408 1056.295,287.384 1056.823,286.63 1055.826,287.065 1054.906,287.133 1053.873,286.775 1054.729,286.86 1056.183,287.314 1056.393,286.054 1055.454,285.658 1054.401,285.805 1053.443,285.478 1054.627,285.638 1056.015,286.103 1057.183,285.623 1055.964,285.173 1054.599,285.259 1053.443,284.615 1054.335,284.916 1055.315,285.079 1056.258,284.993 1057.248,284.902 1057.467,283.987 1058.333,283.679 1056.769,283.984 1054.773,283.648 1053.293,283.104 1054.967,283.015 1056.909,283.93 1058.483,283.032 1057.726,282.807 1056.949,282.665 1056.173,282.528 1057.062,282.528 1058.55,283.08 1059.194,282.168 1058.719,282.232 1058.242,282.256 1057.763,282.24 1059.61,281.768 1056.724,281.608 1056.243,281.448 1057.535,281.582 1061.021,282.338 1060.713,280.008 1059.768,280.008 1058.569,280.311 1057.833,279.504 1058.741,279.693 1060.219,280.067 1061.13,279.778 1061.828,279.556 1062.098,278.76 1062.793,278.496 1061.824,279.069 1060.739,278.552 1059.913,277.992 1060.601,277.987 1064.725,278.762 1063.373,276.983 1064.033,277.107 1064.331,276.746 1064.093,276.12 1063.511,276.242 1062.935,276.387 1062.364,276.552 1063.038,276.099 1064.951,275.092 1064.407,274.002 1063.979,273.147 1062.037,272.862 1061.284,272.304 1062.75,272.451 1064.149,273.804 1065.674,273.312 1065.181,273.079 1064.704,272.815 1064.244,272.521 1065.698,272.811 1064.619,271.753 1063.719,271.828 1062.847,271.9 1061.634,271.04 1061.074,270.432 1061.836,270.795 1062.809,270.981 1063.647,270.985 1063.963,270.986 1064.455,270.966 1064.649,270.652 1064.757,270.409 1064.742,270.167 1064.603,269.928 1065.633,269.956 1065.656,269.836 1064.673,269.568 1065.569,269.742 1066.4,269.59 1067.194,270.146 1066.423,269.999 1065.524,270.049 1065.244,270.937 1065.865,270.931 1066.468,270.821 1067.051,270.608 1069.073,269.932 1066.57,270.193 1068.238,269.862 1068.751,269.76 1069.967,269.086 1070.364,269.281 1070.657,267.713 1067.31,268.956 1068.194,267.121 1068.565,267.939 1070.173,268.539 1071.004,268.273 1070.901,267.69 1070.474,267.24 1069.924,267.048 1070.412,267.048 1072.109,268.37 1072.361,267.486 1072.836,265.825 1070.34,266.724 1070.864,265.248 1071.532,265.555 1073.669,267.544 1074.483,266.923 1074.788,266.691 1072.685,265.183 1072.444,265.032 1073.226,265.29 1073.904,265.764 1074.604,266.183 1074.185,265.742 1073.705,265.382 1073.164,265.104 1073.873,265.566 1074.114,265.398 1073.884,264.599 1074.18,264.834 1076.27,266.4 1074.824,264.744 1075.34,265.251 1075.628,265.154 1075.991,264.589 1076.219,264.235 1077.229,264.681 1077.563,264.6 1077.288,263.164 1074.513,262.475 1073.313,262.728 1074.072,261.854 1075.327,262.714 1076.146,262.96 1077.2,263.275 1078.327,262.847 1079.363,263.231 1079.177,262.507 1079.925,261.634 1078.853,261.36 1079.877,261.201 1080.927,259.801 1079.278,259.65 1077.964,259.53 1076.382,260.109 1075.393,258.912 1076.357,257.844 1077.91,258.693 1079.104,258.233 1080.274,257.784 1081.088,258.563 1082.163,258.263 1082.136,257.698 1081.797,257.358 1081.233,257.327 1082.692,255.698 1080.584,255.071 1079.863,253.799 1080.622,253.705 1080.348,253.382 1080.634,252.909 1081.058,252.206 1082.616,252.613 1083.277,252.415 1083.755,252.272 1084.237,252.961 1084.614,253.125 1085.086,253.329 1087.731,252.823 1086.194,252.143 1087.19,252.309 1087.57,251.021 1088.644,251.352 1088.444,251.12 1088.254,250.879 1088.074,250.631 1088.332,250.478 1088.595,250.333 1088.864,250.199 1088.297,249.998 1087.72,249.83 1087.134,249.695 1087.506,248.41 1088.2,249.369 1089.01,249.245 1089.656,249.146 1089.829,248.037 1090.536,248.09 1091.092,248.132 1090.994,249.031 1091.454,249.118 1092.158,249.251 1093.227,248.625 1092.604,247.822 1093.866,248.289 1094.966,248.843 1096.354,248.758 1096.137,248.518 1095.92,248.279 1095.704,248.038 1096.652,248.069 1097.241,247.472 1097.004,248.686 1097.9,247.812 1098.892,248.676 1099.664,247.03 1099.015,246.728 1097.766,246.342 1098.654,245.446 1098.698,246.904 1100.45,246.284 1101.104,245.662 1101.491,245.294 1100.49,244.87 1101.424,244.723 1102.176,244.604 1102.242,243.642 1102.974,243.358 1102.421,243.295 1101.918,243.104 1101.464,242.782 1103.237,242.733 1104.956,243.267 1106.724,243.286 1105.265,243.386 1102.28,244.773 1101.964,246.382 1102.731,245.83 1104.205,246.849 1105.087,246.949 1106.284,247.086 1105.333,245.26 1106.724,245.374 1106.213,245.725 1106.044,246.293 1106.434,246.813 1107.162,245.727 1109.439,246.598 1109.604,245.013 1110.2,245.216 1110.455,245.727 1110.174,246.309 1111.013,245.77 1112.053,246.187 1112.849,245.498 1113.9,244.589 1114.109,244.893 1115.365,244.653 1114.966,243.868 1115.675,243.006 1114.565,242.636 1115.524,241.948 1115.401,243.089 1116.255,243.459 1116.937,243.754 1117.717,243.849 1118.455,243.86 1117.854,243.363 1118.012,242.807 1118.675,242.492 1118.26,244.569 1122.576,241.659 1123.205,241.555 1122.711,240.998 1122.968,240.429 1123.565,240.116 1123.404,241.763 1124.944,239.737 1123.855,241.268 1124.44,240.959 1125.682,239.382 1126.445,239.971 1126.261,239.279 1126.445,238.13 1127.455,238.532 1126.24,237.515 1129.696,237.954 1129.866,236.975 1130,236.205 1131.07,236.213 1130.554,235.364 1131.42,235.775 1132.077,234.858 1131.914,234.068 1132.909,234.376 1133.082,233.508 1133.769,233.096 1134.605,232.595 1136.316,232.278 1137.303,231.906 1137.967,231.656 1139.57,232.159 1139.92,231.509 1140.199,230.992 1140.025,230.115 1140.914,230.324 1140.853,229.303 1139.769,229.449 1139.124,229.028 1139.657,229.163 1140.16,229.091 1140.634,228.811 1140.319,228.373 1139.261,228.154 1139.155,227.598 1138.997,226.767 1139.942,226.935 1140.053,226.147 1140.257,226.887 1140.245,228.043 1141.273,227.299 1141.435,229.065 1142.471,228.563 1143.793,229.028 1142.264,229.158 1143.453,230.172 1144.432,230.168 1146.241,230.159 1147.98,230.334 1149.773,229.964 1149.507,229.43 1149.101,229.046 1148.553,228.812 1149.304,228.845 1149.636,229.463 1150.25,229.77 1150.926,230.108 1151.593,229.874 1152.293,229.821 1152.195,229.226 1151.752,228.821 1151.143,228.812 1151.861,228.677 1152.6,229.142 1152.886,228.208 1153.132,227.407 1154.23,228.567 1154.578,228.697 1155.271,228.956 1158.099,229.256 1157.762,227.804 1158.923,228.523 1160.393,228.084 1161.567,227.658 1162.201,227.428 1162.7,226.928 1163.413,227.279 1164.046,227.592 1164.623,227.21 1164.602,226.508 1165.153,227.331 1167.056,226.836 1167.773,226.58 1168.935,226.166 1170.019,226.431 1171.235,226.038 1172.117,225.753 1173.008,226.044 1173.887,225.804 1174.547,225.623 1174.846,224.924 1175.577,224.924 1177.121,224.924 1178.14,223.656 1179.582,223.34 1177.8,223.4 1180.241,222.835 1181.022,223.124 1180.752,221.825 1181.147,222.698 1182.029,222.527 1182.613,222.414 1183.379,221.481 1181.962,221.685 1182.814,220.735 1183.969,221.811 1184.982,221.468 1183.148,221.147 1185.848,221.636 1184.692,220.316 1185.387,220.5 1186.153,220.539 1186.867,220.474 1187.43,220.422 1189.608,219.597 1187.792,219.237 1188.597,219.288 1190.031,219.791 1190.714,219.412 1191.746,218.839 1191.468,217.929 1190.242,217.941 1190.865,217.995 1193.582,218.459 1193.262,217.148 1193.957,217.414 1194.71,218.018 1195.492,217.581 1195.077,217.218 1194.597,217.074 1194.052,217.148 1195.64,217.029 1198.857,216.637 1200.172,215.709 1199.445,214.859 1197.875,215.335 1196.956,215.449 1195.375,215.644 1193.468,215.577 1191.939,215.117 1190.606,214.716 1189.086,215.028 1187.816,214.392 1186.296,213.631 1185.077,213.731 1183.473,214.125 1183.698,213.868 1183.915,213.604 1184.123,213.333 1182.438,213.003 1180.829,213.949 1179.223,214.269 1177.121,214.687 1174.893,213.773 1173.127,215.346 1171.756,216.566 1171.333,215.56 1169.956,215.808 1168.752,216.025 1166.414,216.012 1165.323,215.421 1166.905,215.652 1170.056,215.486 1171.507,214.823 1172.399,214.417 1173.333,213.939 1174.323,213.837 1175.657,213.699 1176.913,214.088 1178.073,213.19 1176.403,211.469 1172.109,212.947 1170.078,213.154 1169.334,213.23 1168.595,213.373 1167.843,213.298 1167.137,213.227 1167.487,212.304 1166.754,212.558 1165.892,212.856 1163.419,213.407 1162.663,212.758 1164.105,212.867 1166.664,212.8 1167.807,211.775 1168.947,210.751 1171.609,210.028 1168.713,209.014 1169.817,209.364 1171.413,209.446 1172.523,209.086 1171.999,208.915 1171.611,208.483 1171.523,207.935 1172.319,207.723 1172.702,208.459 1173.169,208.929 1173.908,209.673 1175.257,209.397 1176.193,209.376 1177.963,209.335 1182.899,209.022 1183.698,207.3 1183.933,206.794 1185.368,207.863 1185.233,206.639 1185.157,205.958 1184.216,205.604 1183.669,205.462 1182.734,205.219 1181.76,205.532 1180.809,205.518 1179.218,205.495 1177.644,205.2 1176.053,205.2 1178.064,204.669 1175.004,204.688 1174.504,204.67 1173.003,204.613 1171.497,205.332 1170.004,204.912 1171.602,204.715 1174.942,205.312 1176.054,203.832 1175.507,203.709 1171.811,202.277 1173.825,202.536 1172.819,202.277 1171.755,202.284 1170.725,202.319 1171.271,201.774 1171.107,201.192 1170.435,200.88 1172.008,201.692 1173.537,201.918 1175.042,202.734 1176.166,203.343 1177.682,205.23 1179.037,205.026 1179.599,204.942 1180.02,204.528 1180.595,204.48 1181.369,204.414 1182.131,204.849 1182.895,204.913 1185.002,205.088 1186.328,206.726 1188.533,206.536 1189.799,206.427 1191.299,208.186 1191.097,209.398 1190.723,211.642 1192.547,212.022 1194.335,212.582 1195.333,212.895 1197.817,213.523 1198.743,212.66 1199.331,212.113 1198.895,209.557 1200.315,210.456 1198.449,213.477 1201.851,211.916 1202.19,212.83 1202.788,214.44 1205.792,211.449 1203.706,211.752 1203.843,211.161 1204.307,210.773 1204.926,210.815 1204.446,210.563 1203.943,210.371 1203.416,210.24 1204.313,210.679 1204.668,209.443 1205.356,209.16 1204.835,209.009 1204.309,208.984 1203.776,209.088 1204.016,208.848 1204.256,208.609 1204.496,208.368 1203.754,208.433 1203.013,208.535 1202.266,208.512 1203.029,208.334 1204.43,207.324 1205.216,207.792 1205.242,207.167 1204.874,206.896 1204.276,207 1204.802,206.924 1205.309,206.78 1205.796,206.567 1204.743,206.376 1204.743,206.184 1205.796,205.992 1203.853,205.452 1202.816,205.882 1201.256,207.072 1201.527,204.975 1203.027,204.294 1205.076,203.903 1203.7,203.878 1202.446,203.943 1201.256,204.84 1201.157,204.229 1201.557,203.852 1202.126,203.76 1201.071,203.374 1199.98,204.061 1199.026,204.408 1199.366,203.291 1201.417,202.799 1202.406,202.679 1201.449,201.799 1199.978,202.384 1199.181,201.71 1198.225,200.901 1196.467,201.276 1196.576,200.159 1195.281,200.697 1193.38,199.411 1192.193,199.008 1190.189,198.325 1188.992,200.146 1187.146,200.375 1187.672,200.086 1188.071,199.588 1188.226,199.007 1187.456,198.979 1186.655,199.198 1185.916,198.863 1186.615,198.888 1192.689,199.154 1192.221,197.532 1191.359,194.546 1185.094,196.88 1183.476,197.495 1183.724,197.238 1183.964,196.974 1184.196,196.703 1183.406,196.804 1182.61,196.775 1181.816,196.775 1182.364,196.71 1182.891,196.565 1183.396,196.342 1181.901,195.838 1180.236,196.576 1178.796,195.838 1180,195.921 1181.198,195.766 1182.401,195.766 1183.478,195.766 1184.409,196.46 1185.502,196.361 1186.597,196.261 1187.563,195.662 1188.656,195.55 1189.773,195.436 1190.986,195.534 1191.756,194.542 1190.83,194.01 1189.718,194.296 1188.726,194.038 1187.131,193.624 1185.832,193.296 1184.191,193.729 1183.055,194.029 1181.568,193.605 1180.565,194.092 1179.836,194.446 1179.345,195.287 1178.437,195.19 1179.39,194.924 1179.358,193.722 1178.287,193.75 1179.361,193.788 1180.454,193.298 1181.522,193.59 1182.77,193.931 1183.491,193.726 1184.407,192.814 1182.809,192.864 1181.441,192.085 1179.947,191.663 1181.114,191.022 1182.086,192.455 1183.193,192.546 1184.648,192.665 1186.087,193.267 1187.554,193.184 1188.904,193.108 1189.655,192.487 1190.801,191.931 1191.965,191.365 1193.318,191.498 1194.568,191.376 1193.319,190.56 1191.361,189.783 1190.388,188.64 1191.619,188.083 1193.045,189.933 1193.863,190.578 1195.149,191.59 1196.139,190.389 1197.191,189.722 1198.544,188.865 1200.342,189.502 1201.746,189.91 1203.84,190.519 1205.439,190.556 1207.598,190.513 1205.617,191.107 1204.052,190.773 1202.132,190.193 1201.081,189.876 1199.044,189.288 1198.448,190.657 1202.596,192.434 1205.738,193.934 1210.165,192.13 1211.981,191.39 1213.55,191.956 1215.476,191.812 1217.055,191.693 1216.308,191.576 1216.852,190.558 1217.226,189.861 1218.199,189.565 1218.318,188.713 1216.025,188.652 1213.753,187.521 1211.533,187.543 1209.055,187.567 1211.79,189.95 1209.968,190.297 1210.265,188.023 1209.645,188.064 1207.448,187.417 1208.265,187.211 1209.226,187.47 1209.688,186.553 1209.268,186.13 1208.761,185.89 1208.168,185.833 1209.396,186.054 1210.843,185.829 1211.918,185.185 1211.697,184.628 1211.241,184.186 1210.688,183.961 1211.614,183.853 1212.145,184.866 1213.185,184.844 1215.147,184.802 1217.09,184.897 1219.053,184.897 1219.646,184.897 1220.049,185.828 1220.557,186.049 1221.136,186.3 1221.804,186.229 1222.415,186.283 1224.169,186.442 1225.422,185.357 1226.887,184.609 1226.139,184.673 1225.142,184.236 1225.377,183.312 1223.875,183.372 1222.574,184.141 1221.104,183.406 1219.64,182.673 1217.907,183.767 1216.377,183.529 1217.171,183.484 1217.999,183.394 1218.687,182.953 1217.756,182.156 1218.758,181.307 1219.327,180.721 1217.573,180.497 1216.088,180.971 1214.4,181.332 1212.689,181.698 1212.231,180.295 1210.767,180.144 1212.283,180.223 1212.898,181.49 1214.589,180.963 1216.382,180.405 1218.29,180.79 1220.047,180.216 1218.043,178.234 1215.089,178.579 1212.567,177.912 1213.595,178.038 1214.642,177.865 1215.657,178.128 1214.904,177.212 1213.71,177.125 1212.637,176.903 1214.558,176.202 1216.473,177.899 1218.107,178.632 1218.921,178.997 1223.864,178.526 1222.857,179.928 1223.833,180.257 1225.119,180.364 1225.957,179.64 1226.762,178.945 1227.216,177.336 1226.097,176.689 1226.337,176.544 1226.577,176.4 1226.817,176.256 1223.973,173.486 1218.755,174.744 1215.227,174.744 1216.972,174.558 1218.734,174.747 1220.482,174.76 1222.192,174.772 1223.81,174.099 1225.456,174.121 1227.206,174.145 1226.452,172.739 1225.017,172.837 1223.319,172.954 1221.584,172.17 1219.908,172.511 1220.97,172.715 1221.877,173.355 1222.928,173.591 1221.838,173.713 1221.002,172.909 1219.978,172.727 1218.9,172.536 1217.883,173.178 1216.808,172.944 1217.033,172.686 1217.249,172.422 1217.458,172.151 1216.44,171.319 1214.761,171.687 1213.568,171.719 1214.704,170.99 1216.126,171.977 1217.318,171.36 1216.78,171.325 1216.251,171.373 1215.728,171.504 1216.228,171.355 1216.734,171.235 1217.248,171.144 1216.765,170.85 1216.258,170.802 1215.728,171 1217.187,170.757 1214.905,170.095 1214.218,171.144 1214.037,170.596 1213.587,170.185 1212.998,170.136 1213.304,169.837 1215.007,168.912 1215.422,168.873 1216.382,168.783 1216.764,169.877 1217.547,170.098 1218.949,170.493 1220.818,169.535 1222.137,169.128 1220.959,168.505 1219.574,168.928 1218.317,168.768 1219.981,168.289 1222.033,169.509 1223.577,168.552 1223.101,168.286 1222.598,168.215 1222.067,168.336 1224.531,167.55 1227.414,168.19 1229.873,168.707 1231.418,169.031 1234.536,169.992 1235.905,168.798 1238.587,166.46 1234.104,165.158 1232.279,166.28 1231.378,166.834 1230.61,166.265 1230.046,165.727 1229.061,164.788 1226.121,165.365 1224.878,165.311 1225.89,164.992 1226.946,165.428 1227.968,165.167 1226.432,164.794 1224.841,164.786 1223.288,164.52 1224.307,164.466 1225.297,164.822 1226.318,164.664 1224.372,164.292 1226.898,164.321 1227.178,164.376 1226.352,163.809 1225.067,163.616 1224.088,163.728 1227.163,162.774 1230.198,164.253 1233.298,164.016 1232.893,162.266 1228.783,162.449 1227.471,162.246 1226.223,162.054 1225.218,161.481 1223.939,161.935 1222.458,162.461 1221.679,164.095 1220.198,164.448 1222.259,163.731 1219.046,163.584 1218.608,163.584 1219.795,162.41 1221.289,161.617 1222.788,160.92 1222.285,160.875 1221.781,160.827 1221.278,160.776 1222.114,160.699 1223.588,160.87 1223.708,159.685 1223.784,158.929 1225.276,158.209 1225.878,157.968 1225.436,157.551 1224.933,157.454 1224.368,157.68 1224.765,157.491 1227.684,156.726 1225.668,156.529 1226.69,156.304 1227.851,155.815 1228.914,155.99 1229.871,156.147 1231.265,156.522 1231.894,155.491 1232.477,154.535 1233.132,154.87 1234.088,154.585 1234.693,154.404 1235.069,153.834 1235.678,153.648 1236.412,153.425 1236.508,154.207 1237.188,153.432 1235.591,152.969 1234.674,154.072 1233.368,153.937 1233.924,153.648 1234.404,153.264 1234.807,152.785 1235.075,152.484 1234.443,152.211 1234.924,151.971 1236.311,151.28 1236.635,150.399 1238.404,150.445 1241.605,150.529 1243.935,150.156 1246.907,148.896 1244.857,147.322 1241.56,148.711 1239.235,148.675 1238.001,148.656 1236.747,148.627 1235.53,148.871 1234.906,148.996 1232.16,150.476 1233.947,150.12 1232.434,150.673 1232.117,149.916 1230.777,149.975 1231.459,149.423 1233.674,148.826 1232.217,148.536 1233.836,148.374 1235.331,147.619 1236.961,147.532 1239.332,147.404 1241.763,147.969 1244.155,147.945 1247.744,147.908 1251.008,147.622 1254.247,146.232 1250.011,145.245 1245.641,146.323 1241.358,145.863 1239.573,145.671 1237.767,145.35 1235.967,145.512 1233.942,145.694 1231.963,146.214 1229.917,145.945 1233.223,145.544 1236.379,145.257 1239.706,145.559 1241.005,145.677 1242.336,145.762 1243.629,145.54 1244.667,145.362 1245.509,144.605 1246.555,144.621 1249.207,144.659 1251.844,145.32 1254.516,144.936 1255.794,144.753 1256.993,144.323 1258.301,144.351 1259.373,144.374 1260.889,144.59 1261.667,143.639 1261.104,143.656 1260.624,143.464 1260.227,143.063 1261.749,142.5 1263.36,143.021 1264.919,142.784 1266.147,142.597 1267.289,142.07 1268.52,141.881 1270.662,141.553 1273.596,141.661 1275.347,140.184 1271.583,139.883 1267.845,139.017 1264.06,138.681 1259.464,138.274 1254.87,138.637 1250.287,139.033 1250.454,139.275 1250.623,139.515 1250.797,139.753 1250.03,139.71 1247.354,140.4 1249.357,140.257 1247.873,141.026 1245.516,141.233 1243.86,140.976 1242.916,140.83 1242.058,140.459 1241.083,140.495 1239.559,140.55 1238.123,141.15 1236.607,141.265 1236.911,140.437 1237.766,140.121 1238.557,139.969 1234.261,140.532 1230.187,141.567 1226.032,142.781 1224.173,143.324 1221.847,143.536 1220.102,144.23 1218.232,144.974 1216.717,145.603 1214.727,146.089 1215.153,145.895 1217.545,145.233 1215.437,145.297 1217.613,144.824 1219.613,143.798 1221.656,142.951 1223.305,142.267 1225.075,141.985 1226.695,141.251 1227.641,140.823 1228.995,140.232 1229.501,139.254 1230.3,137.709 1227.103,137.629 1226.357,137.675 1224.785,137.772 1223.068,137.722 1221.523,137.991 1219.744,138.3 1219.065,139.803 1217.093,139.829 1214.713,139.861 1212.433,140.394 1210.056,140.597 1207.713,140.797 1204.954,141.794 1202.627,141.41 1203.132,141.424 1203.635,141.4 1204.137,141.338 1203.633,141.117 1203.106,140.997 1202.557,140.978 1204.396,140.016 1207.017,140.289 1209.04,140.077 1210.645,139.909 1213.604,140.26 1214.578,138.602 1213.022,137.33 1209.052,138.087 1207.207,138.052 1203.868,137.988 1200.464,137.847 1197.137,138.183 1190.759,138.827 1184.376,139.097 1178.008,139.97 1178.577,138.229 1182.4,138.413 1183.783,138.391 1186.877,138.342 1190.012,138.453 1193.048,137.738 1191.346,136.426 1188.532,137.163 1186.568,137.163 1190.307,136.717 1194.035,137.688 1197.777,137.397 1202.157,137.057 1206.527,137.405 1210.91,137.387 1215.15,137.369 1219.356,136.649 1223.593,136.635 1225.656,136.628 1227.659,136.713 1229.665,136.135 1231.117,135.717 1232.974,135.784 1234.308,135.074 1230.778,133.373 1226.331,133.852 1222.568,134.282 1222.865,134.075 1223.155,133.859 1223.438,133.634 1220.396,132.681 1217.22,134.307 1214.148,134.21 1216.02,134.104 1217.836,133.613 1219.618,133.058 1215.958,131.285 1211.5,132.699 1207.639,132.699 1202.843,132.699 1198.135,132.214 1193.34,132.668 1189.173,133.062 1185.287,133.171 1181.078,133.263 1180.048,133.285 1179.326,133.262 1178.444,133.846 1178.206,134.004 1176.535,133.488 1176.227,133.484 1174.118,133.456 1172.126,134.228 1170.089,134.212 1170.494,134.128 1172.744,133.746 1170.949,133.564 1175.435,132.999 1179.972,132.917 1184.489,132.917 1183.483,132.362 1182.346,132.479 1181.249,132.341 1183.986,132.341 1186.71,132.899 1189.449,132.629 1192.215,132.357 1194.992,132.197 1197.772,132.197 1203.906,132.197 1210.07,132.518 1216.169,131.693 1212.601,130.001 1208.364,130.884 1204.569,130.756 1206.732,131.019 1202.713,130.859 1202.269,130.756 1202.793,130.687 1203.32,130.662 1203.849,130.684 1202.953,130.317 1202.099,130.739 1201.189,130.684 1200.185,130.624 1199.252,130.18 1198.239,130.18 1196.176,130.18 1194.113,130.314 1192.049,130.252 1187.922,130.129 1183.783,129.796 1179.659,130.18 1179.95,130.323 1180.24,130.467 1180.529,130.613 1179.529,130.984 1179.045,130.261 1178.219,130.109 1177.51,129.979 1175.941,130.322 1175.11,130.358 1172.402,130.474 1169.384,129.709 1166.769,130.613 1167.322,130.675 1167.825,130.866 1168.279,131.188 1166.514,131.422 1164.857,130.412 1163.093,130.559 1161.242,130.713 1159.425,131.117 1157.558,130.9 1157.103,132.638 1163.934,132.381 1164.898,132.268 1162.24,132.919 1159.465,132.454 1156.768,132.701 1158.699,133.231 1160.71,132.688 1162.668,132.917 1159.977,132.917 1157.174,132.454 1154.528,133.133 1155.343,133.237 1155.892,134.099 1156.768,133.925 1156.026,134.56 1154.868,133.907 1154.149,133.596 1153.041,133.117 1151.896,133.154 1150.713,133.194 1148.004,133.284 1145.265,131.972 1142.578,132.557 1144.769,132.219 1141.324,131.65 1140.783,131.605 1139.488,131.497 1137.913,131.418 1136.678,131.909 1137.28,131.892 1137.88,131.916 1138.478,131.981 1137.046,132.201 1135.596,131.981 1134.159,131.981 1135.466,132.48 1136.909,132.273 1138.259,132.557 1136.32,132.451 1134.377,132.423 1132.442,132.25 1130.441,132.072 1128.447,132.654 1126.45,132.341 1128.221,132.95 1130.107,132.998 1131.92,133.421 1130.273,133.241 1128.615,133.192 1126.965,133.042 1125.008,132.862 1122.867,132.178 1120.979,133.061 1121.79,133.019 1122.625,133.13 1123.359,133.494 1122.256,133.431 1121.152,133.055 1120.049,133.349 1121.291,133.929 1122.744,133.863 1124.079,133.853 1124.911,133.847 1125.742,133.857 1126.574,133.831 1126.866,133.822 1129.47,133.913 1127.529,133.494 1131.941,133.72 1136.357,133.627 1140.767,133.804 1142.543,133.875 1144.306,134.122 1146.082,134.175 1146.684,134.193 1151.262,134.671 1149.199,135.366 1150.728,135.573 1149.189,136.383 1148.86,136.038 1148.295,135.455 1147.407,135.166 1146.653,134.938 1145.151,134.484 1142.815,133.867 1141.279,134.501 1141.529,134.634 1141.772,134.777 1142.009,134.933 1141.414,136.736 1140.666,134.5 1140.149,134.35 1138.642,133.911 1136.854,134.038 1135.31,134.093 1133.408,134.161 1131.502,134.179 1129.6,134.206 1127.882,134.231 1125.847,133.717 1124.219,134.43 1125.413,134.812 1126.633,135.109 1127.858,135.37 1128.479,135.502 1129.102,135.626 1129.727,135.744 1130.164,135.827 1132.825,135.891 1130.769,136.374 1132.885,136.787 1135.065,136.589 1137.179,137.021 1135.006,137.158 1132.745,136.937 1130.592,136.632 1129.698,136.506 1128.764,136.37 1127.864,136.53 1127.317,136.628 1125.258,137.527 1127.099,137.669 1126.304,137.827 1125.43,137.756 1124.729,138.245 1125.232,138.297 1125.735,138.345 1126.239,138.389 1124.459,138.959 1126.572,139.014 1127.029,139.037 1124.374,139.656 1121.942,139.163 1119.43,138.252 1117.351,137.498 1115.1,137.76 1113.046,137.023 1111.122,136.334 1108.603,136.05 1106.579,135.652 1103.872,135.119 1101.022,135.256 1098.299,135.581 1098.986,136.058 1098.667,136.944 1099.32,137.354 1100.385,138.021 1102.12,138.23 1103.339,138.461 1101.074,139.164 1098.488,138.867 1096.209,138.389 1097.649,139.211 1099.376,139.233 1100.819,140.045 1099.152,140.471 1097.766,139.483 1096.209,139.109 1094.27,138.643 1092.154,138.522 1090.178,138.237 1089.55,138.146 1088.631,137.865 1088,138.013 1087.199,138.201 1086.742,139.034 1085.887,139.242 1084.684,139.535 1082.803,140.758 1081.599,140.548 1082.293,139.336 1084.372,139.177 1084.852,137.75 1085.602,135.522 1078.055,136.586 1077.199,136.66 1079.412,136.54 1074.77,137.026 1074.158,137.088 1072.658,137.239 1071.259,137.042 1069.757,137.143 1065.726,137.414 1061.664,137.347 1057.689,138.172 1058.46,138.457 1059.29,138.296 1060.069,138.532 1060.786,138.75 1061.257,139.426 1061.892,139.782 1062.586,140.172 1063.569,140.034 1064.33,140.25 1065.496,140.58 1066.591,141.119 1067.768,141.412 1065.591,141.487 1063.499,140.359 1061.297,140.243 1060.326,140.192 1060.038,140.027 1059.533,139.285 1058.99,138.486 1057.602,138.761 1056.775,138.707 1054.729,138.574 1052.665,138.294 1050.615,138.53 1049.344,138.676 1045.635,140.387 1048.838,140.837 1047.867,141.316 1046.631,141.115 1045.808,141.917 1045.996,142.161 1046.19,142.401 1046.388,142.637 1044.081,143.463 1041.329,142.547 1038.96,142.391 1037.736,142.31 1036.27,142.073 1035.166,142.774 1034.356,143.288 1035.323,144.319 1035.589,144.87 1034.944,144.379 1034.586,143.616 1034.001,143.067 1033.171,142.289 1031.2,143.226 1030.197,143.348 1027.329,143.698 1024.654,144.713 1021.803,145.115 1019.41,145.451 1017.067,145.869 1014.696,146.318 1013.417,146.56 1010.801,146.789 1010.169,148.181 1011.252,148.09 1012.242,148.86 1013.503,148.74 1014.825,148.614 1015.974,148.971 1017.276,149.006 1020.373,149.088 1023.651,147.902 1026.728,148.398 1024.532,148.319 1021.466,148.338 1019.688,149.83 1018.938,150.459 1018.995,151.472 1018.23,152.085 1017.188,152.92 1015.713,153.188 1014.443,153.459 1011.371,154.113 1009.003,154.765 1005.798,154.478 1004.011,154.318 1002.501,154.763 1000.749,154.963 998.442,155.228 996.078,155.073 993.829,155.742 995.953,156.067 993.12,156.305 992.781,156.341 991.547,156.474 990.3,156.436 989.073,156.642 988.07,156.81 987.046,156.807 986.041,156.96 985.157,157.095 984.343,157.749 983.504,157.819 981.793,157.963 980.295,157.683 978.527,157.993 977.369,158.196 976.21,158.173 975.043,158.28 973.968,158.379 973.236,159.332 972.158,159.414 974.118,159.83 970.553,160.667 969.918,160.494 971.147,160.731 971.963,161.633 973.088,162.078 974.171,162.506 975.696,162.505 976.838,162.366 976.326,162.545 975.82,162.737 975.318,162.942 977.796,163.567 980.249,162.376 982.738,162.582 981.455,162.99 980.111,163.263 978.778,163.446 980.276,164.155 982.61,163.883 984.108,163.301 982.868,164.197 981.15,164.048 979.718,164.309 981.682,164.974 983.905,165.14 985.965,164.986 986.948,164.912 987.204,164.828 987.698,164.078 988.168,163.364 989.27,164.646 989.902,164.732 991.986,165.014 993.855,164.443 995.82,163.874 997.114,163.499 999.657,162.948 1000.088,164.812 999.399,165.243 998.137,165.22 997.345,165.192 996.487,165.161 996.728,166.295 997.648,166.18 995.925,166.533 993.645,165.408 991.795,165.463 989.306,165.537 986.694,165.627 984.248,166.109 985.689,167.205 987.983,166.76 989.649,166.699 992.317,166.601 994.906,167.308 997.567,166.684 994.911,167.925 970.789,165.078 971.217,168.268 972.003,168.108 972.742,168.492 973.527,168.413 973.003,168.526 972.473,168.598 971.937,168.629 974.229,171.007 976.984,167.094 979.497,168.053 978.371,168.059 976.666,168.563 975.958,169.488" id="path4206"/>
      </g>
  </g>
  <path class="world_map-is_selected landxx isl" d="M 1151.0463,205.05355 C 1152.0953,205.01455 1153.6043,204.69955 1154.6463,204.47755 1155.2203,204.35555 1155.0203,203.45455 1155.7623,203.90355 1156.7633,204.50955 1157.5763,202.68755 1157.7373,204.33355 1158.2693,204.11755 1158.7753,203.85355 1159.2573,203.54155 1159.3633,204.63155 1160.7293,204.34355 1161.4873,203.68555 1161.0283,204.05755 1160.5213,204.34555 1159.9673,204.54955 1160.6493,205.11055 1160.8663,204.47855 1161.4253,204.24155 1161.8033,204.08155 1162.9613,204.91355 1163.7173,204.69255 1161.8403,205.14855 1159.7323,205.59855 1158.2473,206.92455 1159.0083,206.86655 1159.7303,207.13755 1160.4773,207.21255 1161.2293,207.28755 1161.9643,206.84455 1162.7073,207.14055 1161.1433,209.63855 1156.1953,206.19355 1154.4973,208.72455 1154.3263,207.40455 1153.7663,208.42655 1153.0153,208.60255 1152.1123,208.81455 1151.1803,208.72455 1150.2633,208.72455 1148.4073,208.72455 1149.4513,210.54555 1150.8123,210.05255 1152.2633,209.52755 1153.1453,209.41555 1154.7513,209.58355 1155.5193,209.66355 1156.2613,209.63455 1157.0313,209.63455 1157.8093,209.63455 1158.7363,210.62655 1159.4673,210.16455 1158.8973,210.33355 1158.3783,210.74055 1158.1773,211.31555 1158.7283,211.40355 1159.0653,211.76555 1159.1073,212.32355 1160.1473,211.45555 1161.7773,210.81955 1163.1373,210.81155 1162.7973,211.39255 1161.9643,211.44155 1161.3863,211.57255 1160.6943,211.72855 1159.0233,213.26955 1160.7673,212.82755 1160.2023,212.85855 1159.6993,213.05055 1159.2573,213.40355 1160.5653,213.69055 1161.6213,212.32355 1162.9273,212.89955 1162.2633,212.98255 1159.0693,213.72155 1160.9773,214.48355 1160.4133,214.60555 1159.8073,214.32055 1159.2573,214.55555 1159.3723,215.73655 1158.4233,215.44155 1157.4573,215.63555 1157.0073,215.92455 1156.5673,215.96155 1156.1373,215.74555 1155.9923,215.53555 1155.8063,215.37855 1155.5773,215.27655 1154.6663,215.58455 1154.7933,216.53355 1154.7173,217.29255 1156.3843,217.20555 1158.4113,217.18655 1160.0473,216.86055 1160.8393,216.70255 1161.6363,217.02455 1162.4333,216.95055 1163.3203,216.86955 1163.6563,216.00655 1164.6583,216.21255 1164.5123,216.46555 1164.3883,216.72955 1164.2883,217.00455 1164.7313,217.08155 1165.5583,217.56555 1165.9953,217.21555 1166.8013,216.57155 1167.1833,217.70055 1165.9493,217.58055 1166.7373,218.14355 1167.6043,217.52155 1168.1793,217.00455 1168.3733,217.26855 1168.5193,217.55655 1168.6193,217.86855 1168.2773,217.91555 1167.9403,217.98755 1167.6093,218.08455 1168.4013,219.65555 1170.0673,219.13755 1171.4743,219.38755 1173.1563,219.68655 1174.6663,220.30155 1176.3953,220.37655 1177.7053,220.43355 1179.0463,220.39355 1180.3303,220.10355 1180.9133,219.97155 1181.4963,219.78455 1182.0113,219.47755 1183.2853,218.71855 1181.8033,218.71055 1183.0893,218.37255 1181.2763,218.01155 1184.8543,217.70555 1185.4183,217.67655 1186.4093,217.62355 1188.1933,217.62955 1188.5593,216.42855 1188.6553,218.26555 1191.7423,216.32955 1192.6893,215.84155 1194.4963,214.91055 1196.3733,214.23155 1198.1263,213.22855 1199.1513,212.64255 1200.1723,213.98755 1201.2663,213.57355 1201.8723,213.34355 1205.4483,211.36155 1203.6093,211.24355 1204.2153,210.54255 1205.7203,210.92255 1204.7593,209.80455 1205.6983,211.26055 1206.9403,209.50055 1208.1393,209.65955 1206.7803,208.97455 1209.4033,208.75555 1207.4893,208.72355 1208.0043,208.75855 1208.5103,208.71055 1209.0093,208.57955 1208.3043,208.29755 1207.6063,207.97655 1206.8493,207.85955 1208.1293,206.99555 1209.2873,209.07255 1210.4873,207.56155 1211.2433,206.60955 1208.6933,206.63455 1208.2893,206.63455 1209.0443,206.55855 1209.8263,206.57455 1210.4493,206.05855 1209.6713,205.86555 1208.8583,205.88255 1208.0693,205.98655 1208.8543,205.82755 1210.5743,205.21755 1210.2993,204.11555 1209.4383,204.38655 1208.5153,203.55655 1207.7093,203.39455 1206.6023,203.17155 1205.9023,203.73355 1205.0493,204.33155 1205.6363,203.70455 1207.0263,203.27255 1206.7793,202.17155 1205.7583,202.23955 1204.7733,202.55055 1203.7493,202.60355 1203.9563,201.82855 1205.0833,201.63855 1205.3723,200.90655 1205.6413,200.22555 1203.0923,200.09055 1202.7393,199.50855 1203.6273,199.55255 1203.5113,199.26355 1203.6963,198.62855 1203.9123,197.88355 1205.5503,197.96155 1206.1293,197.70955 1204.7603,197.97655 1201.7733,197.74055 1201.2993,199.50955 1200.8173,199.04755 1199.4463,198.61155 1199.6943,197.85255 1200.0903,196.64255 1197.4403,196.54155 1196.8833,196.82455 1196.3253,197.10855 1195.1723,196.41555 1195.3853,197.51655 1195.6573,198.92255 1194.4543,198.86255 1194.3193,199.87055 1194.0763,199.60655 1191.7533,198.89755 1191.3693,198.93355 1190.1063,199.05355 1189.4193,200.56255 1188.4893,201.23755 1188.1563,200.38355 1185.4033,198.19555 1184.5033,199.43355 1184.2313,199.80855 1184.4913,200.62555 1184.7863,200.91955 1185.4603,201.59455 1185.2463,202.43855 1185.0303,203.25355 1184.0013,201.94055 1183.3513,198.64355 1181.0703,199.14955 1180.4113,199.29555 1180.3323,199.92655 1179.8453,200.03455 1179.2693,200.16255 1178.7423,199.77055 1178.1583,200.05055 1177.3423,200.44155 1178.0083,201.77655 1177.3723,202.40255 1176.3133,203.44455 1174.7993,200.20655 1174.1433,199.73055 1172.9873,198.89255 1172.0853,200.49755 1172.4273,201.46455 1172.7063,202.25655 1171.7853,204.68555 1171.1393,203.68555 1170.9183,205.47355 1170.2263,203.33155 1169.6093,203.21055 1167.9333,202.88555 1168.0963,206.46155 1167.2493,204.69255 1167.2953,205.50255 1166.5833,206.10055 1166.7393,206.92455 1166.3393,205.90755 1166.7393,204.00955 1165.0093,204.69255 1167.3143,204.32155 1164.1433,203.04655 1164.0793,202.24455 1165.8503,204.42855 1167.6943,200.39155 1165.5893,200.80555 1166.9603,200.34255 1166.0183,200.17155 1165.4193,199.98555 1164.5953,199.73055 1164.8263,199.23655 1164.1953,198.76755 1163.5413,198.28255 1162.5653,198.64855 1162.1523,197.82455 1161.9553,197.43055 1161.0193,197.13055 1160.6193,197.06155 1160.3173,197.00955 1157.0363,197.57455 1157.6583,197.97855 1158.5193,198.53955 1160.2693,198.64855 1161.2693,198.57355 1160.3123,198.83055 1158.9183,198.19455 1158.3193,199.29455 1158.9073,199.57255 1160.3943,199.79255 1160.5193,200.62855 1160.6063,201.20955 1159.2813,201.42955 1159.0393,201.88655 1160.3193,200.13855 1158.7843,200.41055 1157.6693,200.95055 1158.1283,200.08955 1157.9383,199.96955 1157.0993,200.59055 1157.2583,200.36055 1157.4023,200.12055 1157.5293,199.87055 1156.9253,199.54355 1156.2793,199.18955 1155.5843,199.10655 1155.0323,199.04055 1153.6193,199.39155 1155.1493,199.79755 1154.1883,200.01455 1154.1883,200.30155 1155.1493,200.66055 1154.4933,200.25255 1153.7283,200.16055 1152.9893,200.01355 1152.6303,201.30755 1154.3913,201.31155 1155.1493,201.66955 1154.2433,201.57855 1152.8633,200.88755 1152.1993,201.88555 1153.1213,202.42655 1154.1613,202.24555 1155.1493,202.53355 1154.6393,202.56055 1154.1363,202.63255 1153.6393,202.74955 1154.0213,202.94755 1154.4283,203.04355 1154.8593,203.03755 1153.4683,203.99155 1151.9063,201.80955 1150.3993,202.31655 1150.5843,202.84155 1151.0113,203.24855 1151.5493,203.39655 1150.5873,203.55955 1150.5873,203.79955 1151.5493,204.11755 1150.3543,203.75855 1148.8073,202.89855 1148.0193,204.40455 1149.0773,204.40455 1150.1513,204.37955 1151.0463,205.05355" id="is">
    <title>Iceland</title>
  </path>
  <g id="fo">
    <title>Faroe Islands</title>
    <circle class="circlexx fro" cx="1245.1376" cy="231.957" id="fo." r="6.0130301" rx="6.0130301" ry="6.0130301"/>
  </g>
  </svg>