<svg xmlns="http://www.w3.org/2000/svg" class="world_map zoom6 zoom5 zoom4 zoom3 zoom2" height="127" id="svg2985" version="1.1" viewBox="1264 333 2 2" width="127">
  <title>World Map</title>
  <defs id="defs2987"/>
  <style id="style_css_sheet" type="text/css">
/*
 * Below are Cascading Style Sheet (CSS) definitions in use in this file,
 * which allow easily changing how countries are displayed.
 *
 */
/* --- Custom styles for Peace Corps --- */
.world_map .world_map-is_selected {
  fill: #C94112 !important;
}
.world_map .landxx {
  fill: #F2EFE8;
  stroke: #ffffff;
  fill-rule: evenodd;
}
.world_map.zoom6 .landxx {
  stroke-width: 0.1px;
}
.world_map.zoom5 .landxx {
  stroke-width: 1px;
}
.world_map.zoom4 .landxx {
  stroke-width: 2px;
}
.world_map.zoom3 .landxx {
  stroke-width: 3px;
}
.world_map.zoom2 .landxx {
  stroke-width: 4px;
}
.world_map.zoom1 .landxx {
  stroke-width: 5px;
}
.world_map .coastxx {
  fill: #F2EFE8;
  stroke: #ffffff;
  stroke-width: 2px;
  fill-rule: evenodd;
}
.world_map .oceanxx {
  opacity: 1;
  color: #ccc;
  fill: #ffffff;
  stroke: #ffffff;
  stroke-width: 0.5;
  stroke-miterlimit: 1;
}

/* --- Original Styles --- *
/*
 * Circles around small countries
 *
 * Change opacity to 1 to display all circles.
 *
 */
.circlexx
{
   opacity:0;
   fill:#e0e0e0;
   stroke:#000000;
   stroke-width:0.5;
}

/*
 * Smaller circles around French DOMs and Chinese SARs
 *
 * Change opacity to 1 to display all subnational circles.
 *
 */
.subxx
{
   opacity:0;
   stroke-width:0.3;
}

/*
 * Circles around small, unrecognized countries
 *
 * Change opacity to 1 to display all circles.
 *
 */
.unxx
{
   opacity:0;
   fill:#e0e0e0;
   stroke:#000000;
   stroke-width:0.3;
}

/*
 * Circles around small countries, but with no permanent residents 
 *
 * Change opacity to 1 to display all circles.
 *
 */
.noxx
{
   opacity:0;
   fill:#e0e0e0;
   stroke:#000000;
   stroke-width:0.5;
}

/*
 * land
 */
.landxx
{
}
/*
 * Styles for coastlines of islands with no borders
 */


/*
 * Styles for nations with limited recognition
 */
.limitxx
{
   fill: #e0e0e0;
   stroke:#ffffff;
   stroke-width:0;
   fill-rule:evenodd;
}

/*
 * Styles for nations with no permanent population.
 */
.antxx
{
   fill: #e0e0e0;
   stroke:#ffffff;
   stroke-width:0;
   fill-rule:evenodd;
}

/*
 * Ocean
 */


/*
 * Additional style rules
 *
 * The following are examples of colouring countries.  You can substitute these with your own styles to colour the countries on the map.
 *
 * Color a few countries:
 *
 * .gb, .au, .nc
 * {
 *    fill:       #ff0000;
 * }
 *
 * Color a few small country circles (and the countries):
 *
 * .ms, .ky
 * {
 *    opacity:    1;
 *    fill:       #ff0000;
 * }
 *
 */

</style>
  <path class="oceanxx" d="M 2079.5058,1457.5605 615.24779,1457.5605 C 615.13079,1457.5605 615.07079,1457.5505 614.95179,1457.5215 611.67679,1456.6515 608.40179,1455.7815 605.12779,1454.9105 599.15079,1453.3225 593.22879,1451.5225 587.30779,1449.7385 564.39379,1442.8315 541.76579,1434.6995 519.46979,1426.0115 495.81079,1416.7935 472.34979,1407.0946 449.19179,1396.6816 426.78379,1386.6056 405.17679,1375.0536 383.76379,1363.0356 363.11779,1351.4496 343.01079,1338.8296 323.37979,1325.5996 302.29179,1311.3876 281.47879,1296.8506 261.05379,1281.7006 242.35079,1267.8276 223.73679,1253.6306 206.05279,1238.4686 186.98679,1222.1216 167.82379,1205.7706 150.35279,1187.6906 132.97779,1169.7106 116.33279,1151.0606 100.15679,1131.9976 84.352777,1113.3736 70.086776,1093.4716 56.901786,1072.9246 44.046786,1052.8916 32.093776,1032.1356 22.469776,1010.3426 17.516776,999.12753 12.408776,987.76556 8.7017761,976.06056 5.0657761,964.58166 1.5997761,953.04259 -1.5932239,941.43054 -8.0102239,918.09356 -14.055224,894.78356 -18.234224,870.92056 -22.491222,846.60856 -24.894222,822.19856 -26.943222,797.62156 -28.947222,773.58556 -28.829222,749.40156 -27.225222,725.34856 -25.648222,701.69856 -23.363222,677.92456 -19.274222,654.56456 -15.018224,630.25156 -9.3842239,606.45156 -2.8412239,582.66156 3.5687761,559.35256 10.483776,536.34856 20.265776,514.19856 30.320776,491.42956 42.318786,469.90956 55.502786,448.81656 68.512776,428.00356 83.108777,408.26756 98.686787,389.31756 113.73479,371.01156 129.68979,353.25256 146.15179,336.20856 163.77479,317.96256 182.64579,301.14556 201.89579,284.64756 220.33379,268.84456 239.55379,253.98456 258.95979,239.39656 278.42779,224.76056 298.39379,210.83356 318.55579,197.17556 339.26979,183.14456 360.47879,169.92056 382.15079,157.42556 403.46579,145.13656 425.31479,133.98856 447.60479,123.59356 469.58579,113.34356 492.14979,104.17656 514.74579,95.37556 537.44879,86.532565 560.37879,78.195565 583.63479,70.914565 589.69379,69.017565 595.80079,67.276565 601.90879,65.549565 604.63079,64.779565 607.36079,64.045565 610.09479,63.318565 611.59979,62.918565 613.56579,61.986565 615.13379,61.986565 L 2079.9638,61.986565 C 2079.9798,61.986565 2079.9958,61.986565 2080.0118,61.986565 2079.8448,61.986565 2079.6788,61.986565 2079.5118,61.986565 2102.8268,68.191565 2125.8778,75.323565 2148.5448,83.611565 2171.6378,92.054565 2194.6158,100.87956 2217.2348,110.52956 2240.5208,120.46556 2263.4848,130.95256 2285.8828,142.76456 2306.9808,153.89056 2327.8178,165.78556 2347.8608,178.72156 2368.9418,192.32656 2389.7498,206.29256 2410.2218,220.80056 2429.7368,234.62956 2448.9938,248.98756 2467.6208,263.99256 2486.8818,279.50856 2506.0408,295.30556 2524.0538,312.27356 2541.8708,329.05756 2558.7508,346.67256 2574.9408,365.03656 2591.2478,383.53256 2607.1478,402.30656 2621.4508,422.41856 2635.3488,441.96256 2648.4468,462.42756 2659.5898,483.67756 2671.1238,505.67356 2681.1048,528.35656 2688.6188,552.05056 2692.2518,563.50656 2695.3368,575.14756 2698.5608,586.72256 2701.7738,598.25356 2704.9238,609.81956 2707.4578,621.52456 2712.6258,645.40556 2716.6718,669.47856 2719.1178,693.79656 2721.5718,718.19256 2723.1798,742.56356 2722.9808,767.09056 2722.7908,790.65456 2720.6908,814.43756 2717.7688,837.81156 2714.7368,862.07056 2710.5198,886.16156 2704.6398,909.90056 2701.6808,921.84356 2698.3948,933.69556 2695.0378,945.53154 2691.7468,957.13466 2688.5558,968.83466 2684.3988,980.16156 2676.0918,1002.8036 2666.1688,1024.8836 2654.1338,1045.8046 2641.9958,1066.9066 2628.8498,1087.4866 2614.2378,1106.9696 2599.1658,1127.0666 2582.6678,1145.9446 2565.8948,1164.6296 2549.8298,1182.5266 2532.8918,1199.7316 2514.8648,1215.6616 2496.0788,1232.2646 2476.8978,1248.3126 2457.1558,1263.7656 2438.2988,1278.5276 2418.9668,1292.7306 2399.3188,1306.4206 2378.7018,1320.7866 2357.7538,1334.6106 2336.4758,1347.9776 2326.4088,1354.3016 2316.0058,1360.1326 2305.6418,1365.9516 2295.0348,1371.9086 2284.3858,1378.0166 2273.4448,1383.3436 2250.7338,1394.3986 2227.7768,1404.7266 2204.3888,1414.2665 2181.7848,1423.4875 2159.0678,1432.2695 2136.0228,1440.3345 2117.4118,1446.8465 2098.5568,1452.4975 2079.5058,1457.5605" id="ocean"/>
  <g id="fr">
    <title>France</title>
    <g class="landxx coastxx frx eu fra" id="frx">
      <path class="landxx frx eu fra" d="M 1247.9563,345.09353 C 1248.8483,344.67153 1249.9183,344.40753 1250.9063,344.58953 1251.2503,343.07553 1249.2373,344.11653 1248.8163,343.07753 1249.7423,342.77053 1250.8213,342.88353 1251.7763,342.93253 1251.0263,342.80353 1250.0103,343.07053 1250.5463,342.14053 1249.9683,342.10953 1248.0023,343.21953 1247.7643,342.24853 1247.4403,340.92353 1249.4573,340.12353 1250.4183,339.93353 1251.7103,339.67753 1252.9283,339.57353 1254.2383,339.60953 1256.0933,339.66053 1257.2803,337.85953 1259.3353,338.10853 1259.1023,338.77353 1261.5713,341.09553 1262.2613,340.81653 1262.7253,340.59053 1263.1723,340.33253 1263.6013,340.04453 1264.5383,339.52353 1264.4763,340.19653 1265.2593,340.34653 1266.0333,340.49453 1266.6253,339.88453 1266.6763,341.13353 1267.1823,340.78653 1266.4383,340.37153 1266.8543,339.80653 1267.2793,339.22953 1267.4953,340.10553 1267.8683,340.20353 1268.7543,340.43553 1269.8883,340.19953 1270.7763,340.05353 1268.8903,339.50053 1269.5823,336.83453 1269.7363,335.44553 1269.8113,334.76953 1268.7883,334.09153 1268.4413,333.61953 1267.8433,332.80653 1268.3953,331.57053 1267.5363,330.90853 1268.1903,331.02253 1268.7863,331.34253 1269.4353,331.47753 1270.1453,331.62553 1271.0223,330.92853 1271.6453,331.24253 1272.6163,331.73053 1271.4053,333.19653 1272.7503,333.96653 1273.1383,334.18853 1273.8353,333.79353 1274.2353,333.78953 1275.4053,333.77853 1276.5303,334.17453 1277.6673,334.39053 1278.7783,334.60153 1279.7453,334.56953 1280.7413,334.00053 1281.6443,333.48553 1282.8513,333.50453 1283.6653,332.92553 1283.0193,333.18153 1281.9213,333.31153 1281.2923,332.95153 1280.0173,332.22053 1282.9563,330.42253 1283.4443,330.20353 1284.9943,329.50953 1286.7483,329.59253 1288.3213,328.96253 1289.2343,328.59753 1290.4503,326.50953 1291.5843,327.09353 1290.5913,326.45453 1291.1983,322.02953 1292.0223,321.20053 1292.8333,320.38653 1296.9643,318.91453 1298.0263,319.80953 1298.5673,320.26553 1297.5066,322.01981 1299.0912,322.41093 1300.7239,322.81393 1300.3433,322.44623 1301.4983,322.79423 1302.5753,323.11923 1302.2375,323.9499 1303.0715,324.3539 1304.1595,324.8809 1305.2593,324.2555 1305.1233,325.93953 1305.7713,325.52053 1306.8953,325.61753 1307.5843,325.85453 1308.8783,326.29853 1308.3323,327.89353 1308.0723,328.81953 1308.9373,328.96453 1309.9183,329.23353 1310.7793,328.88953 1311.6313,328.54853 1311.8263,327.57553 1312.6823,327.23553 1312.7563,327.77153 1312.5323,330.16853 1313.2583,330.19453 1314.3293,330.23253 1316.4853,331.64553 1316.8183,332.67253 1316.7223,332.37653 1320.8893,333.05053 1321.1033,333.06853 1322.1163,333.15553 1322.8723,332.94653 1323.6753,333.78353 1324.3073,334.44353 1324.7523,335.48053 1325.7133,335.73153 1325.9193,335.63353 1326.0843,335.48753 1326.2083,335.29353 1326.5183,334.97253 1326.6743,335.39853 1327.0033,335.44353 1327.1873,335.51353 1327.2363,335.63953 1327.1503,335.82053 1327.0933,336.21253 1328.0113,335.99853 1328.1633,336.01153 1329.1863,336.10453 1329.7743,335.47353 1330.7213,336.19453 1331.7293,336.96253 1333.8123,337.10453 1335.0733,337.31553 1333.5263,338.68053 1332.0983,340.17853 1331.5983,342.20653 1331.3553,343.19253 1330.7683,344.09853 1330.6133,345.09253 1330.5113,345.74253 1330.7323,346.00653 1330.4713,346.84153 1330.1573,347.85053 1330.9253,348.69153 1330.2463,349.31753 1329.6743,349.84553 1329.2323,350.35453 1328.3723,350.27753 1327.6513,350.21353 1327.5903,349.14653 1326.7223,349.62953 1326.0953,349.97853 1326.0353,351.09253 1327.0823,350.92553 1326.2953,351.75153 1325.6003,352.73253 1324.7023,353.44553 1324.1523,353.80353 1323.6143,354.17953 1323.0883,354.57353 1322.6553,354.96353 1322.6973,355.72753 1322.3323,356.18153 1321.7093,356.95553 1320.5023,357.31953 1320.3123,358.41353 1320.4523,358.78653 1320.5483,359.17053 1320.6023,359.56453 1320.4533,360.27353 1319.7943,360.52653 1319.5223,361.14853 1320.7103,360.99953 1321.1463,360.59353 1321.4613,359.45753 1321.7723,358.33953 1323.8323,358.42553 1324.6653,358.66053 1325.6653,358.94353 1324.9863,360.58753 1325.7143,361.38853 1326.9783,362.78053 1326.2003,363.30253 1325.0623,364.24553 1325.6653,365.10253 1327.9443,366.69053 1327.3153,367.94653 1326.8933,368.78953 1323.7483,369.94653 1323.7563,370.09053 1323.8123,371.08453 1325.7303,371.93153 1326.3923,372.49853 1327.3473,373.31853 1325.0603,374.77953 1325.3913,375.86353 1325.7923,377.17953 1328.3083,378.67153 1329.6393,378.13853 1331.3113,377.46953 1331.0613,378.44253 1330.4293,379.55553 1328.9063,382.23653 1325.9973,383.58853 1323.4023,385.34153 1323.5663,385.58553 1323.7363,385.82553 1323.9123,386.06153 1322.9433,386.20053 1322.1323,386.69853 1321.2243,387.01653 1320.2473,387.35953 1319.6233,386.81953 1318.7013,386.89253 1317.3023,387.00253 1316.4443,385.83653 1314.7713,385.98953 1315.4423,384.25853 1312.5743,385.58553 1312.5423,384.57953 1312.7243,384.26753 1313.0103,384.18553 1313.4003,384.33353 1313.3703,383.76653 1313.0303,383.44653 1312.4603,383.46953 1312.9383,384.20353 1312.5263,384.31153 1311.8663,384.34453 1310.7833,384.39853 1310.6663,384.33453 1310.3703,383.03753 1310.7613,385.62053 1310.1013,383.97353 1308.4303,383.97353 1307.4643,383.97353 1306.6743,383.36353 1305.7313,383.31753 1304.5753,383.26053 1303.3083,384.56653 1302.2813,385.03653 1301.4813,385.40353 1298.6623,386.44753 1298.8393,387.53653 1298.8203,387.89353 1298.7143,388.22553 1298.5183,388.53253 1298.0693,388.93253 1298.1073,389.28853 1298.6333,389.60053 1299.0293,390.85253 1298.7703,391.47953 1299.4993,392.68653 1298.8123,392.88353 1298.2133,392.53753 1297.5333,392.57853 1296.8273,392.62153 1296.4693,393.18353 1295.8393,393.35553 1294.3183,393.77053 1293.3913,392.19553 1291.9343,393.25653 1291.8323,393.33053 1289.8063,392.38453 1289.5883,392.22153 1289.0223,391.79853 1290.3173,391.85253 1289.4053,391.24353 1288.8773,390.89053 1287.9263,390.73553 1287.4783,391.31753 1287.2703,390.02853 1285.8433,390.56753 1285.0673,389.95553 1283.9973,389.11053 1281.8083,388.56853 1282.1483,390.59853 1280.9513,390.42553 1279.6003,390.12353 1278.3933,390.34553 1277.7223,390.46853 1277.2743,390.65853 1276.7013,390.14253 1275.6843,389.22853 1275.7613,389.60453 1274.7283,389.59053 1273.7043,389.57653 1268.7553,386.33053 1268.2483,387.64653 1267.3133,387.26053 1267.9773,386.58053 1268.0363,385.92553 1268.1063,385.14653 1265.8413,385.50153 1265.3683,384.91053 1268.2283,383.85153 1268.4703,379.88753 1268.9913,377.30953 1269.1963,376.29753 1269.3813,374.70253 1270.2223,373.98053 1271.4463,372.92853 1269.8043,372.78053 1269.6883,373.96653 1269.5183,371.53053 1270.0083,368.54553 1271.0583,366.33453 1272.0693,366.90353 1273.0753,367.57853 1273.5083,368.71053 1273.6063,369.21453 1273.7023,369.71853 1273.7983,370.22253 1274.0323,370.86353 1274.6733,370.95153 1274.6583,371.73453 1274.9483,370.72753 1273.9263,369.95253 1273.8333,368.99853 1273.6893,367.53253 1273.1743,366.53953 1271.8743,365.82653 1271.3293,365.52853 1270.7213,365.12153 1270.2673,364.68453 1269.5283,363.97253 1271.4573,364.32753 1271.8493,364.67953 1270.9413,364.23853 1270.8923,360.38553 1271.4193,359.63953 1270.2263,360.47453 1267.4193,358.83153 1266.8663,357.72453 1266.3773,356.74553 1265.2743,356.23653 1265.0533,355.09353 1264.8503,354.05053 1266.7633,352.90853 1264.3603,352.80053 1264.6433,352.46753 1264.6983,351.86253 1265.0633,351.60853 1265.9773,350.97053 1266.8193,352.04353 1267.6803,352.15253 1266.1523,351.14353 1265.5453,351.47853 1263.9513,351.68653 1263.1483,351.79153 1261.5923,350.60653 1263.0713,350.42453 1262.6583,350.01753 1262.8253,349.75353 1263.5713,349.63253 1262.4363,349.35053 1260.8233,350.27453 1259.9013,349.27253 1260.4093,349.26553 1260.8893,349.14553 1261.3413,348.91253 1260.4373,348.30853 1258.7713,348.55353 1258.5313,349.77653 1258.4983,348.97653 1257.6113,348.22853 1258.4613,347.54553 1258.1123,348.42153 1256.5413,348.36453 1257.5213,347.25753 1255.5273,348.98753 1252.8533,345.04853 1250.8313,347.18553 1250.0233,346.06853 1249.3483,345.38253 1247.9563,345.09353" id="path2182"/>
      </g>
    </g>
  <g id="je">
    <title>Jersey</title>
    <path class="world_map-is_selected landxx coastxx jey" d="M 1266.3863,335.58955 C 1266.4593,335.37355 1266.5333,335.15655 1266.6063,334.94155 1266.0333,334.73755 1265.6913,334.99155 1265.6663,335.58955 1265.9063,335.58955 1266.1463,335.58955 1266.3863,335.58955" id="je-"/>
    </g>
  </svg>