<svg xmlns="http://www.w3.org/2000/svg" class="world_map zoom4" height="127" id="svg2985" version="1.1" viewBox="2009 595 116 116" width="127">
  <title>World Map</title>
  <defs id="defs2987"/>
  <style id="style_css_sheet" type="text/css">
/*
 * Below are Cascading Style Sheet (CSS) definitions in use in this file,
 * which allow easily changing how countries are displayed.
 *
 */
/* --- Custom styles for Peace Corps --- */
.world_map .world_map-is_selected {
  fill: #C94112 !important;
}
.world_map .landxx {
  fill: #F2EFE8;
  stroke: #ffffff;
  fill-rule: evenodd;
}
.world_map.zoom6 .landxx {
  stroke-width: 0.1px;
}
.world_map.zoom5 .landxx {
  stroke-width: 1px;
}
.world_map.zoom4 .landxx {
  stroke-width: 2px;
}
.world_map.zoom3 .landxx {
  stroke-width: 3px;
}
.world_map.zoom2 .landxx {
  stroke-width: 4px;
}
.world_map.zoom1 .landxx {
  stroke-width: 5px;
}
.world_map .coastxx {
  fill: #F2EFE8;
  stroke: #ffffff;
  stroke-width: 2px;
  fill-rule: evenodd;
}
.world_map .oceanxx {
  opacity: 1;
  color: #ccc;
  fill: #ffffff;
  stroke: #ffffff;
  stroke-width: 0.5;
  stroke-miterlimit: 1;
}

/* --- Original Styles --- *
/*
 * Circles around small countries
 *
 * Change opacity to 1 to display all circles.
 *
 */
.circlexx
{
   opacity:0;
   fill:#e0e0e0;
   stroke:#000000;
   stroke-width:0.5;
}

/*
 * Smaller circles around French DOMs and Chinese SARs
 *
 * Change opacity to 1 to display all subnational circles.
 *
 */
.subxx
{
   opacity:0;
   stroke-width:0.3;
}

/*
 * Circles around small, unrecognized countries
 *
 * Change opacity to 1 to display all circles.
 *
 */
.unxx
{
   opacity:0;
   fill:#e0e0e0;
   stroke:#000000;
   stroke-width:0.3;
}

/*
 * Circles around small countries, but with no permanent residents 
 *
 * Change opacity to 1 to display all circles.
 *
 */
.noxx
{
   opacity:0;
   fill:#e0e0e0;
   stroke:#000000;
   stroke-width:0.5;
}

/*
 * land
 */
.landxx
{
}
/*
 * Styles for coastlines of islands with no borders
 */


/*
 * Styles for nations with limited recognition
 */
.limitxx
{
   fill: #e0e0e0;
   stroke:#ffffff;
   stroke-width:0;
   fill-rule:evenodd;
}

/*
 * Styles for nations with no permanent population.
 */
.antxx
{
   fill: #e0e0e0;
   stroke:#ffffff;
   stroke-width:0;
   fill-rule:evenodd;
}

/*
 * Ocean
 */


/*
 * Additional style rules
 *
 * The following are examples of colouring countries.  You can substitute these with your own styles to colour the countries on the map.
 *
 * Color a few countries:
 *
 * .gb, .au, .nc
 * {
 *    fill:       #ff0000;
 * }
 *
 * Color a few small country circles (and the countries):
 *
 * .ms, .ky
 * {
 *    opacity:    1;
 *    fill:       #ff0000;
 * }
 *
 */

</style>
  <path class="oceanxx" d="M 2079.5058,1457.5605 615.24779,1457.5605 C 615.13079,1457.5605 615.07079,1457.5505 614.95179,1457.5215 611.67679,1456.6515 608.40179,1455.7815 605.12779,1454.9105 599.15079,1453.3225 593.22879,1451.5225 587.30779,1449.7385 564.39379,1442.8315 541.76579,1434.6995 519.46979,1426.0115 495.81079,1416.7935 472.34979,1407.0946 449.19179,1396.6816 426.78379,1386.6056 405.17679,1375.0536 383.76379,1363.0356 363.11779,1351.4496 343.01079,1338.8296 323.37979,1325.5996 302.29179,1311.3876 281.47879,1296.8506 261.05379,1281.7006 242.35079,1267.8276 223.73679,1253.6306 206.05279,1238.4686 186.98679,1222.1216 167.82379,1205.7706 150.35279,1187.6906 132.97779,1169.7106 116.33279,1151.0606 100.15679,1131.9976 84.352777,1113.3736 70.086776,1093.4716 56.901786,1072.9246 44.046786,1052.8916 32.093776,1032.1356 22.469776,1010.3426 17.516776,999.12753 12.408776,987.76556 8.7017761,976.06056 5.0657761,964.58166 1.5997761,953.04259 -1.5932239,941.43054 -8.0102239,918.09356 -14.055224,894.78356 -18.234224,870.92056 -22.491222,846.60856 -24.894222,822.19856 -26.943222,797.62156 -28.947222,773.58556 -28.829222,749.40156 -27.225222,725.34856 -25.648222,701.69856 -23.363222,677.92456 -19.274222,654.56456 -15.018224,630.25156 -9.3842239,606.45156 -2.8412239,582.66156 3.5687761,559.35256 10.483776,536.34856 20.265776,514.19856 30.320776,491.42956 42.318786,469.90956 55.502786,448.81656 68.512776,428.00356 83.108777,408.26756 98.686787,389.31756 113.73479,371.01156 129.68979,353.25256 146.15179,336.20856 163.77479,317.96256 182.64579,301.14556 201.89579,284.64756 220.33379,268.84456 239.55379,253.98456 258.95979,239.39656 278.42779,224.76056 298.39379,210.83356 318.55579,197.17556 339.26979,183.14456 360.47879,169.92056 382.15079,157.42556 403.46579,145.13656 425.31479,133.98856 447.60479,123.59356 469.58579,113.34356 492.14979,104.17656 514.74579,95.37556 537.44879,86.532565 560.37879,78.195565 583.63479,70.914565 589.69379,69.017565 595.80079,67.276565 601.90879,65.549565 604.63079,64.779565 607.36079,64.045565 610.09479,63.318565 611.59979,62.918565 613.56579,61.986565 615.13379,61.986565 L 2079.9638,61.986565 C 2079.9798,61.986565 2079.9958,61.986565 2080.0118,61.986565 2079.8448,61.986565 2079.6788,61.986565 2079.5118,61.986565 2102.8268,68.191565 2125.8778,75.323565 2148.5448,83.611565 2171.6378,92.054565 2194.6158,100.87956 2217.2348,110.52956 2240.5208,120.46556 2263.4848,130.95256 2285.8828,142.76456 2306.9808,153.89056 2327.8178,165.78556 2347.8608,178.72156 2368.9418,192.32656 2389.7498,206.29256 2410.2218,220.80056 2429.7368,234.62956 2448.9938,248.98756 2467.6208,263.99256 2486.8818,279.50856 2506.0408,295.30556 2524.0538,312.27356 2541.8708,329.05756 2558.7508,346.67256 2574.9408,365.03656 2591.2478,383.53256 2607.1478,402.30656 2621.4508,422.41856 2635.3488,441.96256 2648.4468,462.42756 2659.5898,483.67756 2671.1238,505.67356 2681.1048,528.35656 2688.6188,552.05056 2692.2518,563.50656 2695.3368,575.14756 2698.5608,586.72256 2701.7738,598.25356 2704.9238,609.81956 2707.4578,621.52456 2712.6258,645.40556 2716.6718,669.47856 2719.1178,693.79656 2721.5718,718.19256 2723.1798,742.56356 2722.9808,767.09056 2722.7908,790.65456 2720.6908,814.43756 2717.7688,837.81156 2714.7368,862.07056 2710.5198,886.16156 2704.6398,909.90056 2701.6808,921.84356 2698.3948,933.69556 2695.0378,945.53154 2691.7468,957.13466 2688.5558,968.83466 2684.3988,980.16156 2676.0918,1002.8036 2666.1688,1024.8836 2654.1338,1045.8046 2641.9958,1066.9066 2628.8498,1087.4866 2614.2378,1106.9696 2599.1658,1127.0666 2582.6678,1145.9446 2565.8948,1164.6296 2549.8298,1182.5266 2532.8918,1199.7316 2514.8648,1215.6616 2496.0788,1232.2646 2476.8978,1248.3126 2457.1558,1263.7656 2438.2988,1278.5276 2418.9668,1292.7306 2399.3188,1306.4206 2378.7018,1320.7866 2357.7538,1334.6106 2336.4758,1347.9776 2326.4088,1354.3016 2316.0058,1360.1326 2305.6418,1365.9516 2295.0348,1371.9086 2284.3858,1378.0166 2273.4448,1383.3436 2250.7338,1394.3986 2227.7768,1404.7266 2204.3888,1414.2665 2181.7848,1423.4875 2159.0678,1432.2695 2136.0228,1440.3345 2117.4118,1446.8465 2098.5568,1452.4975 2079.5058,1457.5605" id="ocean"/>
  <g class="landxx coastxx tha" id="th" transform="translate(-29.9017,-45.0745)">
    <title>Thailand</title>
    <path d="M 2049.559,733.824 C 2049.188,735.032 2049.397,736.339 2049.838,737.496 2050.91,736.634 2050.791,734.499 2049.559,733.824" id="path3902"/>
    <path d="M 2051.348,734.472 C 2051.565,734.975 2051.825,735.462 2051.998,735.984 2052.039,735.369 2051.822,734.865 2051.348,734.472" id="path3904"/>
    <path d="M 2055.958,740.088 C 2055.875,739.51 2055.635,739.006 2055.238,738.576 2055.3,739.165 2055.54,739.669 2055.958,740.088" id="path3906"/>
    <path d="M 2060.568,746.64 C 2060.059,747.15 2060.006,747.905 2060.858,748.08 2060.767,747.599 2060.67,747.119 2060.568,746.64" id="path3908"/>
    <path d="M 2061.798,721.8 C 2061.301,722.253 2061.324,722.685 2061.868,723.096 2062.352,722.648 2062.328,722.216 2061.798,721.8" id="path3910"/>
    <path d="M 2061.648,719.928 C 2061.426,720.441 2061.843,720.654 2062.297,720.648 2062.102,720.389 2061.885,720.149 2061.648,719.928" id="path3912"/>
    <path d="M 2077.639,700.776 C 2077.875,700.799 2078.112,700.824 2078.348,700.847 2078.358,700.264 2077.994,699.8 2077.489,699.551 2077.489,699.966 2077.544,700.374 2077.639,700.776" id="path3914"/>
    <path d="M 2079.868,702.936 C 2079.639,703.497 2079.76,703.977 2080.228,704.376 2080.37,703.831 2080.25,703.351 2079.868,702.936" id="path3916"/>
    <path class="landxx tha" d="M 2034.288,643.824 C 2034.733,644.681 2036.586,644.647 2037.197,644.019 2037.934,643.263 2036.477,641.212 2036.668,640.223 2036.774,639.672 2037.212,639.292 2037.238,638.711 2037.279,637.811 2036.55,637.228 2036.794,636.269 2036.948,635.658 2038.06,633.589 2038.476,633.665 2039.696,633.891 2040.89,634.419 2042.143,634.145 2042.738,634.016 2043.308,633.337 2043.899,633.35 2044.5,633.363 2044.736,633.949 2045.244,633.172 2045.743,632.407 2044.813,630.951 2045.991,630.648 2046.837,630.431 2050.058,631.087 2048.329,628.847 2049.563,628.785 2052.881,626.598 2052.869,629.28 2053.546,629.092 2053.761,628.123 2054.553,628.36 2054.906,628.465 2056.101,630.056 2056.385,630.381 2057.081,631.173 2056.103,632.361 2055.898,633.154 2055.61,634.272 2056.2904,635.00161 2057.0994,635.66461 2057.3832,635.89611 2058.2384,635.66261 2058.5453,635.8035 2059.2413,636.12394 2059.0151,635.33064 2059.4523,635.20949 2059.8282,635.1053 2059.7468,635.19349 2060.1029,635.08742 2060.459,634.98133 2060.9716,634.89045 2061.3059,634.93736 2062.8415,635.15285 2062.6014,637.63867 2063.531,639.942 2063.8304,640.68375 2063.0331,641.57861 2063.262,642.361 2063.7151,643.90992 2062.9223,643.65097 2062.5506,644.67636 2062.3963,645.10185 2063.05,646.01371 2063.137,646.59871 2063.282,647.57271 2063.5328,648.11529 2063.212,649.054 2062.3855,651.47237 2061.9581,653.42131 2064.169,653.30402 2064.2764,653.29802 2067.6099,650.2433 2068.129,648.359 2069.35,649.09 2069.444,647.103 2070.379,647.085 2071.025,647.073 2071.894,648.332 2072.483,648.625 2072.944,648.855 2074.009,648.936 2074.291,649.409 2075.184,650.903 2076.225,648.711 2077.35,648.935 2077.958,649.056 2078.176,646.623 2079.151,646.487 2077.466,644.631 2082.6151,645.65875 2083.1731,645.81375 2086.3111,646.68575 2087.4231,651.05775 2090.3301,652.58175 2092.7321,653.84175 2091.3071,658.52541 2092.02,660.674 2092.4794,662.05847 2092.7337,662.56086 2093.6754,663.45736 2095.3082,665.01174 2096.1856,665.41423 2097.94,666.215 2096.315,667.324 2098.7099,668.11902 2099.472,668.668 2101.2498,669.94865 2097.7551,672.45831 2099.81,671.975 2099.497,672.688 2098.78,673.38 2099.274,674.189 2099.554,674.647 2100.119,674.852 2100.059,675.476 2099.894,677.193 2100.568,678.889 2098.855,679.953 2097.711,680.663 2097.092,682.149 2096.206,680.55 2095.292,678.904 2092.693,680.533 2091.344,680.128 2090.408,679.848 2089.51,680.186 2088.588,680.315 2087.599,680.453 2087.141,679.844 2086.27,679.773 2085.069,679.674 2083.7387,680.222 2082.6367,680.655 2080.8967,681.339 2080.502,683.25692 2079.9678,684.81553 2079.7344,685.49665 2078.9844,686.18445 2078.332,686.786 2077.8871,687.19622 2077.1847,687.22845 2076.769,687.312 2077.367,688.7438 2076.709,689.76791 2078.099,691.856 2078.8331,692.95877 2079.0282,694.30632 2079.976,695.42575 2080.8969,696.51345 2081.2222,697.53287 2081.16,698.95641 2081.061,701.22315 2082.7788,702.19694 2082.599,703.945 2082.581,703.064 2081.847,702.584 2081.459,701.88 2080.874,700.817 2080.952,699.481 2079.509,699.048 2079.542,699.48 2079.566,699.911 2079.579,700.344 2079.181,699.389 2075.958,698.94 2077.849,697.68 2077.328,697.991 2076.963,697.659 2076.769,697.176 2076.769,698.727 2074.934,696.328 2074.61,695.592 2074.61,696.956 2073.58,694.192 2072.296,694.779 2071.67,695.065 2071.037,695.596 2070.29,695.447 2069.375,695.264 2068.318,694.761 2067.371,694.995 2065.519,695.453 2066.558,693.533 2066.434,692.392 2066.362,691.724 2066.34,691.047 2066.247,690.381 2066.12,689.46 2066.797,688.742 2066.619,687.887 2065.835,688.515 2063.74,687.935 2063.449,686.951 2063.79,688.925 2057.801,687.181 2059.514,690.248 2060.368,691.777 2059.825,692.749 2059.524,694.347 2059.202,696.043 2060.463,697.628 2060.143,699.335 2060.016,700.012 2059.513,700.523 2059.174,701.093 2058.757,701.791 2059.021,702.636 2058.542,703.324 2057.641,704.622 2057.5,706.617 2057.171,708.131 2056.77,709.977 2056.5,711.309 2055.729,713.004 2055.454,713.609 2056.034,715.272 2054.882,715.103 2056.185,716.677 2054.803,719.59 2055.627,721.493 2056.02,722.398 2056.602,723.001 2056.148,723.921 2055.635,724.963 2057.53,725.195 2058.076,724.906 2059.999,723.888 2061.181,723.867 2061.472,726.48 2061.568,727.342 2062.785,733.518 2064.033,731.52 2064.795,733.276 2064.921,735.228 2065.501,737.041 2066.021,738.662 2066.825,740.373 2066.843,742.104 2065.648,741.886 2065.413,736.646 2064.121,737.551 2063.192,738.202 2064.577,740.253 2064.941,740.777 2065.376,741.4 2065.889,741.88 2066.442,742.387 2066.903,742.81 2067.578,742.649 2068.028,743.071 2069.071,744.051 2069.272,745.074 2070.995,745.124 2072.261,745.16 2073.673,744.658 2074.786,745.509 2076.011,746.445 2076.27,748.156 2077.456,749.148 2078.71,750.197 2079.519,750.702 2078.892,752.364 2078.604,753.126 2078.101,754.674 2077.153,754.875 2076.424,755.03 2076.28,753.838 2075.723,753.618 2074.263,753.04 2073.452,755.617 2072.518,755.612 2070.715,755.603 2071.0993,753.84593 2071.7293,752.85693 2072.4153,751.78293 2071.1873,750.79993 2070.4003,750.60593 2069.2833,750.33093 2069.793,748.723 2068.364,748.531 2067.049,748.355 2066.285,748.3 2065.442,747.198 2064.261,745.653 2064.681,748.322 2064.172,749.017 2064.062,746.977 2058.965,745.063 2061.002,742.897 2059.286,743.927 2059.974,741.254 2059.132,740.738 2059.22,741.787 2058.335,741.564 2057.953,740.925 2057.461,740.1 2057.571,738.848 2056.857,738.161 2056.384,737.706 2055.439,738.299 2055.346,737.552 2055.262,736.873 2055.402,736.623 2055.001,736.056 2054.397,735.202 2054.469,735.267 2053.573,735.096 2053.012,734.99 2053.118,734.069 2052.941,733.682 2052.655,733.055 2052.33,732.089 2051.43,732.314 2050.47,732.554 2050.867,733.431 2050.561,734.115 2048.154,733.619 2048.635,730.017 2048.91,728.279 2049.464,724.779 2050.205,721.223 2050.946,717.756 2051.233,716.41 2052.342,714.622 2052.326,713.298 2052.306,711.742 2052.912,711.653 2053.507,710.267 2054.256,708.522 2058.837,703.841 2057.287,701.92 2056.624,701.102 2056.071,698.876 2055.833,697.873 2055.471,696.345 2054.908,695.826 2054.153,694.534 2053.718,693.79 2052.74,691.703 2052.886,690.891 2053.24,688.929 2053.156,687.501 2052.356,685.614 2051.053,682.543 2048.02,680.687 2046.053,678.061 2045.192,676.91 2044.351,675.777 2044.167,674.29 2044.063,673.454 2044.309,671.532 2045.52,672.626 2045.259,671.608 2046.463,671.826 2046.71,671.112 2047.062,670.099 2046.421,667.729 2046.263,666.641 2046.001,664.843 2047.409,665.763 2048.044,664.756 2048.451,664.11 2048.471,662.713 2047.83,662.185 2047.649,662.752 2047.359,663.256 2046.96,663.698 2045.746,662.195 2045.397,660.438 2044.88,658.658 2044.552,657.525 2042.877,656.404 2042.086,655.522 2040.867,654.164 2039.259,652.725 2038.232,651.244 2037.664,650.424 2037.928,649.651 2037.658,648.765 2037.413,647.966 2036.565,647.332 2036.741,646.418 2035.25,646.855 2034.596,644.89 2034.292,643.824" id="path3918"/>
  </g>
  <g class="landxx coastxx mmr" id="mm" transform="translate(-29.9017,-45.0745)">
    <title>Myanmar</title>
    <path d="M 2044.729,698.256 C 2044.936,698.032 2045.056,697.769 2045.088,697.464 2044.233,697.323 2044.113,697.587 2044.729,698.256" id="path4584"/>
    <path d="M 2045.668,703.728 C 2045.691,703.185 2045.522,702.706 2045.158,702.289 2045.363,702.755 2045.533,703.235 2045.668,703.728" id="path4586"/>
    <path d="M 2045.448,699.336 C 2045.592,699.336 2045.734,699.336 2045.878,699.336 2045.696,699.044 2045.48,698.779 2045.229,698.544 2045.302,698.808 2045.375,699.072 2045.448,699.336" id="path4588"/>
    <path d="M 2046.458,692.352 C 2046.914,691.777 2046.66,691.184 2046.028,690.913 2046.167,691.394 2046.31,691.873 2046.458,692.352" id="path4590"/>
    <path d="M 2048.038,711.864 C 2047.944,711.021 2047.533,710.251 2046.818,709.776 2046.631,709.99 2046.489,710.23 2046.388,710.496 2047.374,710.019 2047.74,711.21 2048.038,711.864" id="path4592"/>
    <path d="M 2046.678,705.528 C 2047.889,705.445 2047.773,703.251 2047.248,702.576 2047.001,703.547 2046.811,704.536 2046.678,705.528" id="path4594"/>
    <path d="M 2047.178,697.608 C 2047.546,698.133 2049.175,694.92 2046.889,695.376 2047.029,696.113 2047.331,696.842 2047.178,697.608" id="path4596"/>
    <path d="M 2047.538,718.128 C 2047.585,718.368 2047.631,718.607 2047.678,718.848 2048.127,718.562 2048.344,718.154 2048.328,717.624 2048.048,717.766 2047.785,717.934 2047.538,718.128" id="path4598"/>
    <path d="M 2048.479,704.16 C 2048.647,704.576 2048.958,704.792 2049.409,704.807 2049.768,702.468 2047.163,702.023 2048.479,704.16" id="path4600"/>
    <path d="M 2048.398,700.776 C 2048.595,701.11 2048.789,701.446 2048.978,701.784 2049.261,701.616 2049.5,701.399 2049.698,701.136 2049.118,700.91 2048.637,700.55 2048.258,700.056 2048.305,700.296 2048.352,700.536 2048.398,700.776" id="path4602"/>
    <path d="M 2048.328,697.176 C 2048.473,696.79 2048.717,696.933 2048.398,696.384 2048.375,696.647 2048.352,696.912 2048.328,697.176" id="path4604"/>
    <path class="landxx mmr" d="M 1992.528,621.288 C 1992.599,620.734 1992.3057,619.24286 1993.1247,619.15087 1994.1397,619.03687 1994.6681,620.04824 1995.988,620.352 1995.2189,618.49764 1994.9525,616.49481 1994.6037,614.53841 1994.5587,614.51381 1995.475,613.78205 1995.267,612.936 1996,613.198 1996.405,614.751 1997.313,614.466 1997.963,614.262 1997.665,612.986 1997.788,612.503 1999.298,613.384 1998.652,611.165 1998.375,610.504 1997.596,608.644 1997.753,607.199 1997.498,605.231 1998.984,606.334 1999.041,604.064 1999.014,603.128 1998.946,600.821 1998.512,598.836 1997.718,596.663 1998.064,596.638 1998.369,596.738 1998.635,596.962 1999.318,597.42 1999.275,597.085 2000.092,596.94 2000.906,596.794 2003.344,597.816 2003.979,598.32 2003.951,595.016 2008.5,589.127 2005.937,586.554 2004.577,585.189 2007.459,583.286 2007.769,581.922 2008.129,580.333 2008.609,579.414 2007.817,578.007 2007.166,576.849 2006.966,574.624 2008.229,573.767 2008.62,573.5 2009.808,573.853 2009.879,573.161 2009.944,572.515 2011.235,572.086 2011.733,571.612 2012.362,571.012 2012.705,570.402 2013.126,569.651 2013.84,568.374 2015.695,568.56 2016.939,568.368 2017.537,568.276 2018.267,567.857 2018.795,568.362 2019.508,569.043 2020.242,570.633 2021.548,570.095 2021.345,568.989 2020.259,568.454 2019.59,567.666 2018.366,566.225 2019.185,565.115 2020.281,564.018 2021.857,562.444 2021.0279,562.69341 2021.0279,560.99241 2021.0279,560.38941 2021.5135,560.54044 2021.4565,559.98244 2021.3865,559.28944 2022.025,558.325 2022.047,557.64 2023.393,559.136 2026.095,559.378 2027.185,561.289 2027.581,561.982 2027.457,562.837 2027.808,563.544 2028.284,564.502 2028.991,565.322 2029.467,566.28 2030.027,566.081 2030.331,565.631 2030.037,565.055 2033.023,566.443 2033.2761,569.47969 2034.0892,572.43394 2034.4902,573.89094 2034.6247,575.09457 2034.6684,576.667 2034.6854,577.29118 2035.377,579.355 2033.787,578.735 2034.1728,579.33537 2036.4935,581.71474 2034.1116,581.07687 2033.7436,580.97837 2033.0515,582.20944 2033.1135,582.50444 2033.3115,583.44444 2032.05,583.235 2031.558,583.2 2031.408,583.729 2031.294,587.679 2029.608,586.152 2029.679,587.484 2028.979,588.48 2029.757,589.752 2028.416,589.857 2028.5572,590.69081 2028.6132,591.74281 2028.6702,592.83281 2029.4926,592.93594 2029.8716,593.77994 2030.0366,594.14794 2030.5925,595.30313 2030.4255,595.71713 2030.1355,596.43713 2029.01,597.374 2029.928,598.099 2030.357,598.437 2032.816,596.49 2033.235,596.255 2035.049,595.235 2037.219,596.874 2038.967,595.585 2039.245,596.71 2037.779,597.153 2038.152,598.271 2038.363,598.905 2038.8791,599.221 2039.3101,599.689 2039.8561,600.28 2039.0954,600.93152 2039.469,601.267 2040.7297,602.39916 2040.372,603.98697 2041.4801,604.48353 2042.9919,605.161 2044.3904,603.76403 2045.4931,606.385 2043.8295,606.2609 2044.5127,608.83818 2044.6439,609.84991 2044.7869,610.95306 2042.9345,613.69693 2044.6169,613.50225 2045.5826,613.39052 2048.6611,612.96052 2049.7879,613.98566 2050.9895,615.07876 2049.2208,617.081 2051.6378,617.113 2051.3088,617.615 2051.5688,618.539 2051.9128,618.966 2052.4718,619.659 2052.9988,618.151 2053.7778,618.653 2055.3848,619.689 2057.4778,617.155 2058.6968,616.25 2058.7838,617.505 2059.7428,618.207 2058.5778,619.252 2058.0408,619.734 2056.8273,620.10013 2056.5123,620.65513 2056.2653,621.09113 2054.7018,624.757 2056.1768,623.882 2056.0628,624.951 2054.3558,624.412 2053.7278,624.89 2052.6318,625.724 2053.0038,627.395 2052.7168,628.562 2052.0711,627.128 2050.1048,628.762 2048.3268,628.85 2048.7958,629.456 2049.2855,630.07797 2048.4995,630.43097 2047.7215,630.78097 2046.6832,630.64091 2045.9602,630.69991 2045.0602,630.77491 2045.5876,632.39594 2045.4236,632.98594 2045.2396,633.64694 2044.6081,633.74777 2044.1328,633.42719 2043.6658,633.1122 2042.6358,634.17626 2041.6867,634.33206 2041.3569,634.38616 2038.4343,633.74024 2038.4424,633.7316 2038.7393,633.4161 2036.7247,635.75829 2036.8594,636.87113 2036.9284,637.44298 2037.2442,637.87928 2037.337,638.41328 2037.4632,639.13947 2036.6335,640.26075 2036.7941,640.96378 2037.0073,641.89678 2037.9885,642.91119 2037.3435,643.87819 2036.7611,644.75128 2034.8298,644.872 2034.2868,643.82699 2034.5908,644.89199 2035.2448,646.85799 2036.7368,646.41899 2036.6068,647.09799 2037.086,647.64709 2037.4474,648.15546 2038.0161,648.95546 2037.7438,649.79934 2038.0005,650.59499 2038.4801,652.08158 2040.5294,653.70867 2041.4528,654.83199 2042.5567,656.17487 2044.0353,656.60234 2044.8768,658.65899 2045.5611,660.33131 2045.7428,662.19599 2046.9568,663.69899 2047.3558,663.25799 2047.6458,662.75399 2047.8268,662.18599 2048.7358,662.93499 2048.5846,664.47135 2047.7648,665.13799 2046.942,665.80683 2045.9232,665.07359 2046.3181,666.98599 2046.5185,667.95644 2046.9735,669.82151 2046.8549,670.89858 2046.7609,671.75117 2045.2581,671.61899 2045.5161,672.62699 2044.8191,671.99799 2044.3993,672.51152 2044.2453,673.27852 2044.0253,674.37752 2044.5987,675.77987 2045.1423,676.70452 2046.6145,679.20893 2049.1246,681.00598 2050.7224,683.02099 2052.4322,685.17719 2053.3657,687.40427 2053.0368,689.89327 2052.8854,691.03856 2052.6665,691.06383 2053.2151,692.35999 2053.7353,693.58891 2053.9001,694.18182 2054.6579,695.25999 2055.4114,696.33198 2055.894,697.21449 2056.0292,698.35352 2056.1733,699.56703 2057.278,701.63626 2057.5879,702.32493 2058.1307,703.53115 2056.5954,705.71048 2055.6598,707.15699 2054.8435,708.41896 2053.9032,709.63923 2052.6405,711.84818 2052.0551,712.87215 2052.7305,713.45118 2052.2885,714.33518 2051.6365,715.63418 2051.5655,716.97999 2050.8005,718.27499 2049.9395,716.92099 2050.0631,714.93099 2049.7051,713.41199 2049.5591,712.79099 2049.2261,712.25599 2049.8411,711.87399 2050.5931,711.40899 2050.0191,711.12999 2050.3801,710.55199 2051.1571,709.30699 2051.3271,707.81599 2051.0301,706.35499 2050.8891,705.66299 2050.4641,703.36599 2051.7151,703.36999 2051.5161,703.03699 2051.4191,702.67699 2051.4251,702.28999 2051.0761,702.77299 2050.5671,703.14899 2049.9861,703.29799 2049.8071,702.26999 2051.2231,701.70999 2049.7651,701.85899 2051.4321,701.06499 2048.9901,699.80899 2050.3451,699.04999 2049.7481,699.20799 2049.2451,698.89899 2049.0451,698.32999 2049.4401,698.27099 2049.8001,698.12699 2050.1251,697.89699 2049.4731,697.54499 2049.0221,696.76399 2050.0561,696.52999 2049.1671,696.23499 2049.7041,695.37099 2049.5701,694.57099 2049.3461,693.24099 2048.8421,691.84299 2048.3301,690.59799 2047.7911,689.28899 2046.9971,688.03599 2046.3621,686.76699 2045.7581,685.55799 2045.7011,684.09799 2044.8761,682.99399 2045.2581,684.02299 2045.7321,686.37599 2044.9461,687.31299 2045.2231,686.45999 2044.4901,685.69699 2044.4181,684.87599 2044.3491,684.10199 2044.3261,682.83399 2044.1471,682.12899 2043.9771,681.45999 2041.2291,676.73199 2042.9261,677.66499 2042.8561,677.37899 2042.7361,677.11499 2042.5671,676.87299 2042.3271,677.01699 2042.0871,677.16099 2041.8461,677.30499 2040.6071,674.20999 2040.8841,670.74599 2039.7501,667.66199 2039.5301,667.06499 2038.9961,666.74099 2038.7331,666.18899 2038.4991,665.69699 2038.7671,665.11799 2038.7431,664.60199 2038.6931,663.65799 2038.0231,661.81399 2039.2601,661.32199 2038.4641,661.44899 2037.0651,661.99999 2036.4711,661.22299 2035.3891,659.80599 2034.5321,658.24799 2034.4301,656.42599 2033.7201,656.89999 2033.8581,655.86099 2033.2531,655.30499 2032.7311,654.82599 2032.0581,654.41099 2031.8401,653.68999 2031.6941,653.87299 2031.9531,655.42599 2031.9471,655.77999 2031.9291,656.99899 2032.6691,658.24599 2032.0191,659.52099 2031.5501,660.44499 2030.9521,661.72699 2029.7591,661.82499 2028.5341,661.92699 2027.1291,660.26999 2028.0301,659.16099 2026.6071,659.51799 2027.8381,660.56499 2028.2181,661.43999 2028.7441,662.65099 2027.4671,664.03599 2026.3691,662.90499 2027.5431,663.73099 2025.2121,665.19799 2024.3481,664.34399 2024.6411,665.44799 2023.7651,669.19499 2021.9531,668.50799 2021.0181,668.15399 2021.8871,665.66499 2021.6881,664.91999 2021.6431,664.98799 2020.7051,668.41599 2021.1881,666.14399 2020.8921,666.75899 2020.7721,667.40799 2020.8281,668.08799 2019.9291,667.64499 2019.6811,665.68499 2020.3891,665.13599 2019.3251,664.44099 2019.7451,669.45999 2018.3131,668.20999 2017.6311,667.61499 2018.2251,664.36299 2018.8091,664.05599 2017.7591,664.46899 2017.4711,666.61899 2016.9391,667.58399 2016.6261,667.39799 2016.3631,667.15799 2016.1491,666.86399 2017.0301,666.49499 2017.1491,665.58499 2017.3691,664.77599 2016.9561,665.48299 2016.7881,666.54099 2015.7891,666.64699 2016.8731,665.18599 2016.3791,663.34899 2016.5791,661.67899 2016.4351,661.69299 2016.2931,661.69299 2016.1491,661.67899 2016.7091,662.88099 2015.0771,665.57099 2013.9581,666.02099 2012.3401,666.67199 2013.6511,659.82399 2013.8591,659.06499 2014.0681,658.30299 2013.8371,656.05399 2014.2591,655.65399 2015.3311,654.63999 2014.1611,651.78799 2013.6561,650.66999 2013.0071,649.23199 2013.2251,647.04699 2012.1591,645.86799 2011.7071,645.36799 2011.4451,644.71699 2011.1531,644.11999 2010.7151,643.22499 2009.5301,642.69699 2010.7481,642.45499 2009.8981,641.86799 2008.8781,641.66999 2008.8781,640.42799 2008.8781,639.50299 2008.9321,638.01599 2008.4391,637.19899 2008.5571,637.87199 2008.8551,639.42199 2007.6491,638.56599 2008.2051,639.24799 2008.6541,640.60499 2008.2291,641.44699 2006.4871,640.73799 2005.4221,638.93599 2004.3981,637.45799 2004.1171,637.05399 2005.0031,636.64299 2005.3021,637.19199 2005.5261,637.60499 2006.1161,637.74899 2006.5311,637.86899 2007.4671,638.13999 2008.6671,637.64199 2007.8031,636.49999 2007.3161,635.85499 2005.1321,635.02299 2006.4281,634.10299 2005.8441,634.08999 2005.2681,634.01799 2004.6991,633.88699 2004.8771,633.39799 2004.9471,632.89399 2004.9091,632.37499 2004.2481,632.69799 2003.3381,631.91999 2002.9711,631.45899 2002.2851,630.59799 2001.7001,631.20399 2000.7391,630.79099 2001.0731,631.55999 2001.4951,632.29099 2001.7491,633.09499 2001.4421,632.59999 2001.1521,632.09599 2000.8791,631.58299 2000.7491,632.10799 2000.8461,632.58899 2001.1691,633.02299 2000.3101,631.84299 1999.8451,631.10299 2000.5991,629.70999 2000.2651,629.77299 1999.9291,629.79599 1999.5891,629.78199 1999.7871,629.27099 2000.0001,628.76699 2000.2301,628.26999 2000.0901,628.30099 1999.9731,628.37399 1999.8791,628.48599 1999.7331,627.93399 1999.7331,627.38199 1999.8791,626.82999 1999.3791,628.03899 1999.4581,629.39099 1998.8691,630.57399 1997.9061,630.15199 1998.3491,629.62599 1998.4571,628.86899 1998.5831,627.98699 1997.5701,627.25899 1997.1401,626.61399 1997.2651,627.34799 1997.6961,628.12999 1997.2091,628.84499 1996.8481,627.51199 1995.8496,626.43442 1994.7061,625.80899 1993.4022,625.09584 1993.1749,622.79931 1992.5321,621.28799" id="path4608"/>
  </g>
  <g class="landxx coastxx vnm" id="vn" transform="translate(-29.9017,-45.0745)">
    <title>Viet Nam</title>
    <path d="M 2108.088,720.288 C 2108.326,721.055 2108.776,721.841 2109.598,722.088 2109.018,721.561 2108.49,720.965 2108.088,720.288" id="path3474"/>
    <path d="M 2112.698,712.368 C 2112.866,713.156 2112.315,713.948 2113.128,714.528 2113.494,713.768 2113.244,712.96 2112.698,712.368" id="path3476"/>
    <path d="M 2113.918,713.664 C 2113.859,713.902 2113.859,714.142 2113.918,714.384 2113.918,714.144 2113.918,713.904 2113.918,713.664" id="path3478"/>
    <path d="M 2130.559,695.304 C 2130.676,695.643 2130.913,695.859 2131.268,695.952 2131.031,695.736 2130.795,695.52 2130.559,695.304" id="path3480"/>
    <path class="landxx vnm" d="M 2065.538,610.848 C 2066.7346,610.7925 2066.8311,608.65107 2067.5781,608.06547 2068.8142,607.09645 2070.188,608.876 2070.821,609.51 2071.9526,610.64339 2072.6366,609.77373 2073.3346,608.57973 2074.2946,606.93773 2074.88,608.415 2075.618,609.264 2075.892,608.629 2075.878,607.077 2076.872,608.07 2077.486,608.683 2078.054,609.438 2078.795,609.905 2079.258,610.197 2079.577,607.156 2080.878,607.104 2080.506,609.123 2084.2939,607.32796 2084.8311,606.65114 2085.4063,605.92651 2084.6707,605.39548 2084.8861,604.741 2085.1699,603.87855 2087.4781,603.61614 2087.9971,602.353 2089.0631,603.828 2090.4121,604.991 2092.0441,605.778 2093.3211,606.395 2094.4971,605.215 2095.4211,606.345 2096.3481,607.479 2097.7851,605.719 2098.9131,606.847 2099.4851,607.42 2100.1811,609.743 2098.5871,609.193 2098.5771,611.16 2099.6241,612.605 2100.2371,614.52 2100.8061,614.031 2102.9071,614.696 2102.9071,615.528 2102.9071,616.775 2105.3071,616.496 2105.6371,617.689 2105.8771,617.545 2106.1171,617.401 2106.3571,617.256 2106.7451,618.275 2107.3369,617.59167 2108.1924,617.36952 2109.4732,617.03696 2113.0057,618.21907 2111.8105,618.88718 2110.9465,619.64418 2109.9091,618.012 2109.0241,618.747 2108.2221,619.413 2107.9651,620.362 2106.8841,620.53 2105.7261,620.71 2106.6381,621.765 2106.2141,622.53 2105.8011,623.275 2103.4631,623.996 2104.6371,622.656 2103.8831,622.473 2102.8751,623.62 2102.8361,624.024 2102.2011,623.669 2101.9531,622.486 2101.0361,622.799 2101.3201,623.107 2101.6531,623.346 2102.0361,623.519 2101.4001,624.263 2101.8801,624.631 2102.3621,625.421 2102.7641,626.079 2101.3111,626.06 2101.0361,625.895 2101.3631,626.576 2101.5461,628.483 2100.8161,628.992 2100.9131,629.024 2101.0091,629.024 2101.1061,628.992 2101.0281,629.537 2098.7811,631.987 2098.2951,631.368 2097.0831,631.973 2096.6941,633.789 2096.5771,634.997 2096.4151,636.664 2097.1181,637.793 2096.2561,639.361 2095.2781,641.139 2097.1761,641.545 2097.2851,643.175 2097.7141,642.05 2097.9701,643.746 2098.4351,644.359 2099.0611,645.183 2099.7891,645.822 2100.6351,646.412 2101.4401,646.974 2102.2541,647.558 2102.9731,648.229 2104.0061,649.193 2103.5531,650.23 2103.9051,651.456 2103.4611,651.11 2102.9581,650.918 2102.3951,650.88 2104.1931,651.185 2105.0421,653.428 2106.4481,654.554 2107.4741,655.376 2110.7261,656.977 2109.8861,658.728 2110.9861,658.093 2112.7351,660.295 2113.3451,660.96 2113.0391,660.82 2112.7261,660.7 2112.4061,660.6 2113.7511,661.438 2114.9791,662.359 2115.8661,663.697 2117.0641,662.261 2119.4841,665.482 2118.8161,666.217 2119.4501,665.773 2118.4681,664.385 2119.7551,665.065 2117.8251,666.728 2123.7471,670.575 2123.8561,672.049 2124.3471,670.798 2124.5741,671.842 2124.9681,672.417 2125.5841,673.316 2124.6391,672.947 2124.7951,673.633 2125.0851,674.909 2126.1211,676.045 2126.6281,677.236 2127.3151,678.85 2127.6731,680.601 2128.4001,682.223 2128.6931,682.876 2129.0081,683.536 2129.1681,684.24 2129.2461,684.584 2129.2781,686.398 2128.8251,684.649 2128.7991,685.624 2129.9471,688.455 2128.8251,686.738 2129.0801,687.317 2129.4391,687.821 2129.9051,688.25 2128.5651,688.434 2129.6441,689.104 2129.8561,689.864 2130.1631,690.964 2130.5121,691.707 2131.0961,692.684 2131.3341,693.082 2131.3491,695.06 2131.2641,695.665 2130.8581,695.256 2130.5711,694.776 2130.4051,694.225 2129.0451,695.022 2130.3211,696.672 2130.7641,697.61 2130.3141,697.344 2129.8331,697.152 2129.3251,697.034 2129.9691,697.619 2130.6221,700.696 2130.2641,701.569 2130.2541,701.048 2130.1151,700.569 2129.8341,700.13 2130.2851,700.846 2129.9021,701.587 2129.6851,702.29 2130.4971,702.268 2130.5391,702.86 2130.3261,703.476 2130.0981,704.133 2129.1371,704.447 2129.0751,704.666 2128.6981,706.017 2129.2271,706.056 2127.7551,706.811 2127.3411,707.166 2126.9031,707.488 2126.4421,707.776 2125.8011,708.038 2125.5991,708.966 2125.1091,709.114 2124.2971,709.359 2123.4611,709.706 2122.7501,710.172 2122.4171,710.39 2121.9151,712.004 2121.6591,711.917 2120.9281,711.668 2119.7001,712.575 2119.1471,712.992 2118.3971,713.558 2116.9151,714.056 2116.3661,714.747 2115.8571,713.759 2114.5201,713.791 2114.4261,712.515 2114.3311,713.02 2114.2361,713.524 2114.1371,714.028 2114.0221,713.622 2113.8551,713.238 2113.6371,712.876 2114.0101,713.709 2113.8861,713.661 2113.2661,712.731 2114.0771,712.731 2112.4601,712.223 2112.4771,712.227 2112.7251,713.101 2112.3711,714.221 2111.2561,713.956 2111.5191,714.761 2112.6781,713.539 2112.9441,714.676 2113.2841,716.127 2110.6961,715.416 2110.1761,715.396 2111.0731,716.124 2112.5471,715.983 2113.1261,717.125 2112.2571,717.257 2112.2081,718.628 2111.2101,717.93 2110.5481,717.467 2110.1091,716.074 2109.2361,715.973 2109.7951,716.628 2112.5741,718.927 2112.1161,719.645 2110.3441,718.924 2109.4141,717.165 2107.9461,716.045 2108.2621,717.198 2113.5371,720.74 2111.1711,722.032 2109.6171,722.881 2106.9841,718.749 2105.8571,718.06 2106.6251,719.323 2109.4641,721.272 2108.9791,722.953 2108.6031,724.253 2106.3951,724.608 2105.3501,725.131 2103.5861,726.014 2103.5261,727.333 2102.4461,728.742 2101.7111,729.703 2099.7981,731.297 2098.5871,730.156 2098.9581,729.686 2099.4391,729.398 2100.0271,729.292 2099.8921,728.992 2099.7961,728.68 2099.7371,728.355 2099.4321,728.497 2099.1191,728.617 2098.7971,728.715 2098.8451,726.9 2098.4691,725.098 2098.4561,723.282 2098.4461,722.387 2098.5141,721.47 2098.7971,720.615 2098.9871,720.039 2100.2611,717.593 2100.5271,719.354 2100.5171,716.527 2095.1311,716.939 2095.6371,714.531 2095.5331,714.957 2094.9577,714.66216 2094.6747,714.18816 2095.1567,714.02216 2095.874,713.48076 2096.412,713.42641 2100.6067,713.00261 2098.4386,711.30617 2099.6661,709.851 2101.0321,711.165 2102.9441,709.741 2104.4191,709.451 2104.9321,709.35 2105.2719,709.797 2105.5039,710.176 2106.0659,711.091 2107.1191,711.004 2108.0161,711.292 2108.0371,710.504 2107.2131,709.846 2108.1571,709.708 2107.9741,708.378 2106.3121,708.328 2105.7681,707.406 2105.3021,706.618 2104.9901,705.606 2104.8001,704.714 2104.6191,703.868 2105.5081,703.771 2105.9291,703.117 2106.5711,702.121 2108.7081,703.572 2109.5271,703.731 2109.0701,702.895 2109.6621,701.908 2109.0271,701.139 2109.7221,700.964 2110.5889,701.2242 2111.1721,701.026 2111.7679,700.82353 2112.8155,699.94527 2113.3735,699.55627 2114.0205,699.10327 2114.2551,698.521 2115.0761,698.286 2115.7111,698.105 2116.5641,698.176 2117.0761,697.693 2118.4551,696.392 2116.3471,692.822 2116.5221,691.157 2116.6701,689.73 2117.2011,688.707 2116.4951,687.327 2116.2631,686.904 2116.0281,686.482 2115.7911,686.061 2115.3911,685.308 2115.6411,684.772 2115.3571,684.076 2114.9561,683.092 2114.4041,683.182 2114.3061,681.871 2114.1881,680.285 2115.1981,679.357 2115.2901,677.953 2115.3121,677.615 2115.2211,676.03918 2115.0285,675.87818 2113.8285,674.87918 2115.0675,674.935 2115.5211,673.891 2116.2211,672.282 2114.3111,670.695 2113.1541,669.949 2112.6241,669.607 2111.2581,668.881 2111.3261,668.093 2111.4071,667.152 2112.9781,666.767 2113.3461,665.933 2112.3401,665.551 2111.0341,664.768 2110.3911,663.882 2109.9121,663.224 2109.4631,663.771 2108.9331,662.869 2108.2181,661.654 2107.8221,662.785 2106.9371,662.261 2106.4221,661.955 2105.8321,660.654 2105.7341,660.076 2105.4261,658.257 2104.6701,656.704 2103.1821,655.422 2102.7621,655.06 2101.8061,654.819 2101.2181,654.202 2100.1111,653.037 2098.7821,651.856 2097.8471,650.553 2097.2451,649.715 2096.9871,648.687 2096.3561,647.869 2096.1051,647.545 2095.6861,647.158 2095.2661,647.5 2094.8251,646.822 2094.0051,646.585 2093.5881,645.887 2093.2811,645.373 2092.4111,644.16 2092.9901,643.586 2093.7141,642.867 2090.3181,642.169 2090.0931,642.117 2087.8301,641.6 2086.2841,639.005 2084.1411,638.417 2083.5221,638.247 2081.8501,637.461 2083.1941,636.829 2085.1041,635.931 2082.7001,635.401 2083.0371,634.397 2083.2171,633.857 2085.8141,634.651 2086.0711,634.69 2087.1271,634.85 2089.9871,633.094 2088.5071,632.669 2088.8301,632.18 2089.7971,631.922 2089.7971,631.229 2089.7971,630.354 2088.8261,629.569 2087.9761,629.68 2087.3981,629.755 2087.3281,629.381 2087.1601,628.898 2086.7891,627.831 2085.6851,628.119 2084.8381,627.773 2085.0351,627.014 2086.1391,627.163 2086.1991,626.532 2086.3031,625.461 2085.1191,625.056 2084.4231,624.552 2083.5921,623.95 2083.0321,623.227 2081.8681,623.439 2080.0551,623.768 2080.4591,624.737 2079.6481,625.83 2078.8421,625.336 2077.6541,624.402 2076.7701,624.573 2075.7621,624.768 2073.8801,622.959 2073.3881,622.229 2072.8271,621.4 2072.3181,619.416 2072.6031,618.424 2073.1071,616.667 2071.6521,617.051 2071.2971,615.677 2071.5181,616.241 2071.4211,616.745 2071.0071,617.189 2070.0621,616.903 2069.8491,615.227 2069.0321,614.581 2067.9281,613.7 2066.1101,612.149 2065.5381,610.848" id="path3562"/>
    </g>
  <g id="cn">
    <title>China</title>
    <g class="landxx coastxx cnx chn" id="cnx">
      <path d="M 2088.4873,592.41353 C 2088.1233,593.00053 2088.8483,595.35853 2088.9693,596.01553 2089.1683,597.09353 2089.1133,598.69553 2089.9263,599.54153 2090.9193,600.57653 2092.5963,600.37953 2093.7703,601.08553 2094.8853,601.75653 2096.6453,601.87953 2097.9163,601.84553 2097.4243,600.43153 2099.2843,599.59553 2099.8423,600.54653 2099.4593,599.89453 2101.8683,597.93553 2102.2583,597.56753 2102.8153,597.04453 2103.5243,594.12653 2102.6663,593.78153 2103.5973,593.28853 2104.5323,590.82053 2104.3263,589.82053 2106.1953,591.21153 2105.0913,587.60553 2104.8033,586.90553 2104.3233,585.73953 2100.9693,584.50453 2102.3763,587.15553 2101.9413,586.61453 2099.7433,585.72953 2100.8653,587.22753 2100.2183,585.33053 2098.2173,586.51553 2097.6263,587.37253 2097.0823,586.14753 2094.9713,586.30653 2094.0963,587.01253 2094.2603,587.28053 2094.4303,587.54353 2094.6063,587.80453 2093.7503,588.09653 2093.2123,586.99953 2092.4463,587.22853 2091.4513,587.52553 2091.9363,588.85153 2092.7373,589.02853 2090.9523,589.52253 2089.7963,591.23453 2088.4873,592.41353" id="path2710"/>
      </g>
    </g>
  <g class="landxx coastxx mys" id="my">
    <title>Malaysia</title>
    <path class="landxx mys" d="M 2034.2663,703.94153 C 2034.6249,703.32782 2034.4749,702.50997 2034.7298,701.88412 2035.0907,700.99814 2035.5939,702.66815 2036.6137,703.05169 2037.3595,703.3322 2038.1487,703.32807 2038.8567,703.52607 2039.5207,703.71207 2039.645,704.62705 2040.0073,705.09353 2040.5691,705.81687 2042.6516,705.73867 2041.9055,707.60787 2041.6059,708.35851 2040.5843,710.932 2042.8692,710.40621 2043.6346,710.23007 2044.072,708.58746 2045.2623,708.43553 2046.4615,708.28246 2046.4846,710.09257 2047.3861,709.74101 2048.1346,709.4491 2049.855,706.17293 2048.8456,705.31175 2049.7656,705.60375 2051.1543,705.98153 2051.7673,706.82253 2052.3743,707.65553 2052.6153,708.66853 2053.4513,709.33753 2055.5323,711.00253 2057.3623,712.53353 2058.5983,714.93853 2059.8473,717.36653 2060.7213,719.82553 2060.5843,722.60653 2060.5313,723.67553 2060.3913,724.85853 2060.1873,725.90953 2059.8983,727.39853 2060.1673,727.51053 2060.6163,728.84953 2061.2853,730.85253 2060.0623,733.28253 2061.2533,735.29753 2062.1733,736.85553 2064.2783,737.68453 2064.7823,739.57153 2065.3733,741.80253 2066.8433,743.67653 2067.4083,745.93453 2068.1673,748.96553 2064.7333,747.30453 2066.3073,746.20553 2065.7043,746.22753 2065.1903,745.87853 2064.9373,745.34153 2065.0443,745.54953 2065.6083,747.57653 2064.7723,746.97353 2063.9313,746.36553 2061.9643,747.70653 2061.1973,748.07753 2060.3873,745.43653 2057.1763,744.70853 2055.2593,743.08553 2054.7643,742.66653 2054.3883,742.16153 2053.9153,741.72553 2053.1583,741.02653 2051.9543,741.04553 2051.1173,740.44453 2050.2753,739.84053 2048.9363,738.54853 2048.4713,737.67653 2048.1503,737.07353 2047.6523,737.01653 2047.0543,736.85553 2046.1263,736.60553 2045.7093,735.76953 2044.9633,735.24853 2044.2523,734.75153 2044.4003,734.61553 2044.7853,734.07353 2045.2143,733.46953 2044.6493,732.23653 2044.3983,731.66953 2043.6103,729.89153 2041.6143,728.66553 2040.8913,726.86653 2040.5423,726.00053 2038.6493,725.52053 2040.8163,724.82053 2039.5393,725.00353 2038.2603,722.34453 2038.5993,721.40853 2039.2563,719.59253 2038.2913,717.63553 2037.1963,716.28253 2036.2313,715.09253 2036.4313,711.35253 2036.4263,709.84453 2036.4163,707.63953 2035.0793,705.89453 2034.2663,703.94153" id="path4722"/>
    <path d="M 2032.1763,703.65353 C 2031.8243,704.03753 2031.4183,704.34953 2030.9563,704.59053 2031.7293,706.07453 2033.3573,704.60753 2032.1763,703.65353" id="path4700"/>
    <path class="landxx mys" d="M 2108.3563,741.59753 C 2108.1113,744.16253 2113.7063,746.34753 2113.6163,743.97353 2113.6433,744.64353 2114.6333,744.71753 2114.5663,744.99453 2114.3653,745.84153 2115.9823,746.20753 2116.5793,746.42753 2117.5003,746.76653 2118.0503,746.01953 2118.8393,746.92253 2119.5583,747.74653 2120.6493,747.83753 2121.6773,747.93353 2120.9613,746.95053 2119.4273,747.80953 2119.0493,746.33953 2118.8053,745.38653 2119.5473,744.58753 2120.3773,745.41453 2119.5813,744.91553 2119.5303,744.13753 2119.7963,743.31753 2119.9633,742.92253 2120.0893,742.51553 2120.1753,742.09553 2120.3883,741.09053 2120.9163,741.48253 2121.5273,740.87753 2121.0243,740.93053 2120.5213,740.97853 2120.0173,741.02153 2120.7113,740.35753 2120.0333,739.57053 2120.2383,738.79053 2120.9883,738.79653 2121.6533,739.18353 2122.3973,739.22253 2119.7903,737.26653 2123.7103,734.94053 2125.3223,734.68453 2127.8743,734.27953 2131.5513,733.74553 2133.7043,732.22853 2135.5643,730.91853 2135.6243,728.22653 2137.2743,726.74153 2139.3883,724.83953 2140.6003,722.64753 2140.7573,719.78253 2142.8481,719.82753 2142.7228,720.54747 2143.1348,721.75647 2143.3865,722.49478 2145.4145,724.30397 2146.1655,724.51353 2147.1507,724.78846 2147.2307,721.2789 2146.9705,720.4549 2146.2847,718.28378 2147.4832,718.2044 2148.4812,717.1004 2148.8292,718.9244 2148.4962,721.56053 2150.8373,722.08653 2150.684,720.63297 2150.6898,718.96079 2149.8823,717.86853 2148.6551,716.20848 2150.7139,717.23147 2151.2743,716.78453 2151.7916,716.37194 2153.5863,714.98853 2152.1583,714.43353 2150.0023,713.59553 2152.1103,711.99453 2152.7773,711.06953 2152.5993,712.89053 2154.8493,710.91353 2155.2473,710.13553 2155.8543,708.94753 2156.0473,707.60053 2156.6043,706.39153 2156.9213,705.70253 2157.3173,706.03653 2157.6773,705.59753 2158.1143,705.06653 2158.4833,704.16453 2158.9453,703.54453 2159.9563,702.18953 2159.8403,700.22053 2161.1373,698.97353 2162.1453,700.15953 2160.9363,701.38253 2161.4173,702.64553 2162.2413,702.12153 2163.0023,698.96653 2164.0213,699.15253 2164.0903,699.16553 2166.5383,704.75253 2166.8963,702.21453 2167.0243,703.25753 2168.9593,703.71553 2168.8183,704.96753 2168.7253,705.79453 2167.5733,705.49053 2167.8703,706.62053 2168.2183,707.94253 2168.0483,708.28053 2166.7473,708.76653 2167.5593,708.30053 2168.4293,708.81953 2169.1733,708.39453 2169.7813,708.04753 2170.1103,707.17453 2170.9683,707.53553 2172.5913,708.21753 2171.0733,709.34153 2170.2773,709.63053 2170.4423,711.18953 2171.9473,709.69553 2172.5423,709.31753 2173.8193,708.50553 2175.3313,710.39353 2175.4583,711.50253 2176.3393,710.56853 2177.8383,712.22153 2178.1973,712.94153 2178.9053,711.97353 2180.9093,712.72353 2180.9373,713.87353 2180.9793,715.53453 2177.3333,716.84753 2176.0223,716.74553 2175.1113,716.67453 2171.6163,715.45353 2172.6953,718.00253 2173.1203,719.00653 2175.4403,719.43153 2175.2483,720.64653 2175.9583,720.20153 2176.5273,720.86553 2176.1153,721.53653 2175.6733,722.25953 2174.6683,722.10053 2173.9623,722.15853 2171.7023,722.34053 2170.7623,722.91853 2168.8383,721.29553 2168.6713,721.81353 2169.1906,722.99112 2168.6726,723.35012 2167.8876,723.89412 2166.3938,722.78015 2165.8282,722.37619 2164.522,721.44333 2162.033,722.96979 2160.4083,721.43953 2160.3713,723.51801 2159.0038,721.42233 2158.3123,721.81553 2156.9252,722.60437 2156.4337,722.00144 2155.2592,721.59946 2155.0912,722.36946 2154.4482,722.60746 2154.1102,723.25446 2153.6722,724.09246 2153.4183,725.24353 2153.3033,726.17653 2153.2123,726.91453 2153.5404,728.3947 2153.5852,729.15381 2153.6612,730.44065 2153.0816,729.89937 2152.842,730.95705 2152.4594,732.64636 2153.0925,733.36833 2151.1565,733.62844 2149.0758,733.908 2150.3943,737.06253 2150.9783,737.78453 2149.8123,738.18753 2146.6863,740.15753 2148.0803,741.70153 2148.8893,742.59653 2145.9473,745.61453 2146.2283,747.00053 2145.1092,746.98983 2145.22,745.98047 2143.7753,747.00953 2142.9438,747.60185 2142.1332,746.60882 2141.3975,747.21626 2140.2043,748.20136 2139.7245,748.80175 2138.1845,748.56839 2136.5486,748.3205 2134.5003,747.37917 2134.0795,746.47262 2133.5347,745.2989 2129.2635,745.86942 2128.305,747.20826 2127.8283,747.8742 2127.7581,748.75853 2127.3453,749.52953 2127.2663,749.67673 2125.4636,750.67841 2125.3792,750.7118 2124.0067,751.25517 2122.2901,750.6411 2120.7987,750.51526 2119.3104,750.38963 2118.2754,751.18239 2117.007,751.78339 2115.4793,752.5072 2114.3854,751.17064 2113.6227,750.86426 2113.2057,750.69673 2112.6263,749.3661 2112.19,749.01614 2111.0917,748.1351 2110.121,747.5168 2109.3454,746.64565 2108.8769,746.11932 2108.7263,744.61163 2108.3931,744.15558 2107.0125,743.36399 2108.1963,742.67053 2108.3561,741.59753" id="path4724"/>
    </g>
  <g class="world_map-is_selected landxx coastxx khm" id="kh" transform="translate(-29.9017,-45.0745)">
    <title>Cambodia</title>
    <path d="M 2091.818,714.312 C 2091.504,714.767 2091.07,715.007 2090.517,715.033 2091.492,715.781 2091.585,717.065 2092.318,717.984 2091.959,716.754 2093,715.297 2091.818,714.312" id="path3472"/>
    <path d="M 2083.678,705.96 C 2083.534,705.96 2083.392,705.96 2083.248,705.96 2083.405,706.251 2083.599,706.515 2083.828,706.752 2083.778,706.488 2083.728,706.224 2083.678,705.96" id="path6024"/>
    <path d="M 2085.988,712.296 C 2086.339,711.687 2086.122,711.447 2085.338,711.576 2085.538,711.832 2085.755,712.071 2085.988,712.296" id="path6026"/>
    <path class="world_map-is_selected landxx khm" d="M 2077.059,689.544 C 2077.08,688.79 2077.038,688.025 2076.768,687.312 2079.156,687.394 2080.166,683.962 2080.902,682.228 2081.705,680.335 2085.6998,678.91186 2087.3051,680.04775 2088.0051,680.54309 2088.8332,680.25517 2089.9386,680.00975 2091.1731,679.73566 2090.8001,680.48495 2094.0408,679.85834 2097.1196,679.26302 2095.8611,682.56599 2098.0114,680.56859 2098.1574,683.58459 2101.602,681.381 2102.797,683.382 2103.382,684.362 2105.394,684.412 2105.204,682.919 2105.099,682.095 2103.274,681.085 2104.372,680.315 2104.832,679.992 2105.279,680.643 2105.423,679.893 2105.541,679.281 2106.057,679.495 2106.522,679.455 2107.106,679.405 2107.024,678.589 2107.51,678.546 2108.17,678.489 2108.837,679.407 2109.309,679.752 2111.382,681.268 2114.2706,679.03707 2115.3136,677.36007 2115.3236,677.91307 2115.3366,678.5642 2115.149,679.104 2114.943,679.69848 2114.3215,680.57348 2114.3925,681.1771 2114.4795,681.92006 2114.2741,682.39754 2114.722,682.92593 2115.4096,683.73704 2115.4579,684.53583 2115.6037,685.24227 2115.997,687.14906 2117.2794,687.63783 2116.7911,689.85548 2116.6011,690.71818 2116.4184,691.60102 2116.7811,692.61702 2117.0637,693.40379 2117.244,694.41518 2117.4402,695.242 2118.2742,698.75678 2115.29,698.08968 2114.8535,698.38957 2113.942,699.01581 2113.5091,699.52843 2112.8107,700.084 2111.1942,701.3699 2110.4214,701.12991 2109.0267,701.137 2109.6617,701.906 2109.0697,702.893 2109.5267,703.729 2108.7087,703.57 2106.5707,702.119 2105.9287,703.115 2105.5077,703.768 2104.6187,703.866 2104.7997,704.712 2104.9887,705.604 2105.3017,706.616 2105.7677,707.404 2106.3117,708.326 2107.9737,708.376 2108.1567,709.706 2107.2137,709.844 2108.0367,710.502 2108.0157,711.29 2107.3477,711.075 2106.5647,711.097 2105.9587,710.7 2105.4337,710.356 2105.1917,709.298 2104.4187,709.449 2102.9437,709.739 2101.0317,711.163 2099.6657,709.849 2098.9027,710.639 2099.8407,711.702 2098.8547,712.683 2097.8977,713.636 2097.0287,713.159 2095.9207,713.603 2095.1027,713.931 2094.9847,714.457 2093.9757,714.026 2092.9827,713.603 2090.9447,713.307 2090.4457,712.297 2090.7167,713.365 2089.2457,714.097 2088.4717,713.401 2087.4487,712.479 2088.3827,712.282 2088.9807,711.649 2089.6787,710.908 2088.8287,708.932 2088.1817,708.415 2087.0257,707.489 2086.8937,709.908 2086.7047,710.498 2085.9937,709.899 2085.5537,710.771 2084.8987,710.45 2083.9077,709.963 2084.5077,708.391 2084.2697,707.575 2084.0527,706.833 2084.7817,705.768 2084.0107,705.228 2083.4737,704.852 2082.3247,703.544 2083.6737,703.37 2083.1037,703.068 2082.7147,703.361 2082.5937,703.946 2082.7797,702.718 2081.7267,701.625 2081.3047,700.561 2080.8337,699.371 2081.4507,697.707 2080.7137,696.644 2079.1387,694.374 2077.9637,692.222 2077.0567,689.544" id="path6044"/>
  </g>
  <path class="landxx lao" d="M 2022.8163,583.48555 C 2023.1033,582.31855 2022.7313,580.64755 2023.8273,579.81355 2024.4553,579.33555 2026.1623,579.87455 2026.2763,578.80555 2024.7953,579.68355 2025.9773,577.04455 2026.1643,576.56555 2026.4733,575.77355 2026.4643,575.34255 2027.3253,574.96055 2028.0503,574.63855 2029.4483,573.90055 2029.2263,572.90155 2030.2147,573.59555 2029.9058,576.72137 2031.7616,575.82737 2033.0032,575.22927 2032.9608,576.33847 2034.1458,576.42296 2035.457,576.51646 2034.0172,574.5129 2033.98,574.39054 2033.6752,573.38827 2034.6114,573.00602 2034.2246,572.44255 2033.4512,571.31609 2033.3092,570.55361 2032.7318,569.89669 2031.9253,568.9789 2031.7944,567.86961 2031.6373,567.28955 2031.4304,566.5258 2031.7577,564.59085 2032.9149,564.93769 2033.3901,565.08012 2033.1952,565.53942 2033.4304,565.50877 2036.0445,565.16819 2034.4629,565.28245 2035.582,565.64921 2035.726,565.68401 2035.8544,566.34229 2036.5993,567.09955 2037.4894,568.00443 2038.4008,568.82562 2039.3488,569.67862 2040.0758,570.33162 2040.1173,571.81055 2041.1053,572.10955 2041.8161,571.39417 2041.2589,570.41402 2041.4909,570.8206 2041.977,571.82423 2042.391,571.40521 2042.7628,572.37528 2042.9957,572.98319 2042.4944,573.93306 2042.8518,575.57589 2043.204,577.19434 2045.2934,579.48993 2046.717,579.442 2048.0238,579.398 2048.4857,579.97655 2049.7452,580.74955 2050.3702,579.90555 2050.2132,579.07995 2051.2871,578.53409 2052.5907,577.87147 2053.5022,578.61429 2054.6005,579.44241 2055.2205,579.90994 2056.2378,580.36908 2056.3482,581.22155 2056.4622,582.10211 2055.1262,581.97862 2054.9352,582.69355 2055.6022,582.96555 2057.0184,582.77235 2057.2416,583.65748 2057.4548,584.50304 2057.8351,584.48775 2058.3152,584.56555 2061.016,585.0032 2059.9118,587.25657 2058.6052,587.58955 2060.0852,588.01355 2057.2252,589.77055 2056.1692,589.61055 2055.9122,589.57155 2053.3326,588.78367 2053.1352,589.31755 2052.8938,589.97032 2054.539,590.89885 2053.9986,591.35171 2053.4905,591.77746 2051.9945,592.20921 2053.4568,592.94055 2054.4814,593.45296 2054.1195,593.06703 2055.1602,593.69554 2056.2045,594.32621 2058.3977,596.05755 2059.2792,596.67455 2059.9742,597.16155 2064.1026,597.60724 2063.2182,598.43355 2062.9448,598.68899 2062.5657,599.00734 2063.6768,600.62228 2064.195,601.37532 2065.1197,602.23468 2065.7262,602.28255 2066.4741,602.34155 2066.9452,603.60955 2067.2042,604.14455 2067.7962,605.36955 2068.591,606.27519 2069.5196,607.24555 2070.0536,607.80355 2072.5593,609.97069 2073.0545,610.10996 2074.0233,610.38241 2075.0475,612.67598 2075.2137,612.90255 2075.883,613.81473 2075.7141,615.19155 2076.2432,615.95955 2076.4245,616.22275 2076.9201,617.21148 2077.2691,617.26648 2077.6921,617.33348 2078.0675,616.97907 2078.4825,617.22008 2079.3235,617.70908 2078.9495,618.14875 2080.0279,618.42058 2080.4394,618.52432 2081.804,620.30723 2083.4462,620.85256 2083.0682,621.71256 2081.8236,622.00697 2081.4976,622.89697 2081.1436,623.86397 2083.7703,625.01394 2084.2971,625.61679 2085.2338,626.68879 2086.2064,627.10548 2085.6962,628.70281 2085.5223,629.24721 2084.7606,629.69326 2084.7552,630.01356 2084.7452,630.40473 2084.9972,630.19166 2085.4037,631.40956 2085.8583,632.77148 2083.9795,634.54458 2081.531,635.16257 2079.5581,635.66054 2078.5892,633.62729 2077.7635,633.48481 2077.1447,633.37805 2077.5182,634.07356 2077.1062,634.24656 2076.6962,634.41856 2075.7865,634.12802 2075.7972,634.57056 2075.8122,635.18086 2075.2052,635.39581 2074.6767,635.12781 2074.5917,635.08461 2074.0073,635.71824 2074.1892,636.0267 2074.6762,636.85247 2075.9822,637.80123 2075.0278,638.78056 2074.4912,639.33114 2073.3432,639.04094 2072.756,638.17052 2072.3975,637.63916 2070.7949,637.25827 2069.7876,637.31956 2068.6832,637.38676 2067.4596,635.99929 2068.3742,635.23156 2069.0538,634.66109 2070.1658,634.0041 2070.0528,632.9421 2069.9488,631.9551 2070.3318,630.69471 2069.9628,629.91102 2069.775,629.5124 2069.1465,629.29517 2069.1855,628.52356 2069.2155,627.94031 2069.6845,627.40956 2069.9065,626.90256 2069.6245,627.03856 2069.3745,627.02256 2069.1555,626.85556 2069.0105,626.04756 2070.8845,624.99056 2069.6605,623.74956 2068.9975,623.07756 2066.3705,622.28156 2068.0365,621.14356 2065.2605,620.05456 2062.3727,618.17163 2061.9327,614.88163 2061.5907,612.32663 2062.5095,608.76356 2059.8835,607.20656 2057.2065,605.61856 2056.3588,601.50038 2053.2532,600.83072 2052.8544,600.74472 2047.6568,599.45256 2049.2465,601.41656 2048.3642,601.59156 2048.2707,603.85343 2047.4719,603.88876 2047.2501,603.89876 2046.402,604.18554 2045.8325,604.63256 2044.8297,605.41972 2044.2141,604.06462 2043.8899,604.02517 2042.3065,603.8325 2041.7734,602.75772 2040.821,602.14563 2039.7624,601.46532 2039.5415,604.24652 2038.2255,603.28856 2038.1295,605.26756 2035.7545,606.64556 2034.6065,608.01656 2034.0765,608.64956 2033.3255,608.29956 2032.7505,607.70056 2032.1115,607.03356 2032.6225,605.80456 2032.9105,605.10356 2033.3595,604.01056 2033.4965,603.27256 2033.3275,602.08656 2033.2265,601.37856 2032.5285,600.16256 2032.6155,599.54456 2032.7955,599.18656 2033.0225,598.85956 2033.2975,598.56556 2033.6635,597.95256 2033.3695,597.93352 2033.3265,597.31156 2033.2335,595.94956 2033.8705,595.16256 2033.1835,593.85956 2032.2147,592.022 2033.2135,589.22756 2030.1065,590.08156 2029.7355,590.07956 2029.4595,590.22556 2029.2755,590.52256 2028.9725,591.22056 2028.8865,590.61556 2028.2965,590.73256 2027.2645,590.93856 2026.5675,590.25272 2026.0605,589.25972 2025.3385,587.84672 2027.3121,586.43742 2026.4851,585.38842 2026.1451,584.95742 2025.1313,583.63542 2024.6921,583.37442 2024.0316,582.98192 2023.7456,583.99243 2022.9655,584.20656 2022.9165,583.96556 2022.8665,583.72556 2022.8165,583.48556" id="la">
    <title>Lao People's Democratic Republic</title>
  </path>
  </svg>
