<svg xmlns="http://www.w3.org/2000/svg" class="world_map zoom1" height="127" id="svg2985" version="1.1" viewBox="-186 736 3042 14" width="127">
  <title>World Map</title>
  <defs id="defs2987"/>
  <defs>
    <link xmlns="http://www.w3.org/1999/xhtml" href="../css/svg.css" type="text/css" rel="stylesheet"/>
  </defs>
  <style id="style_css_sheet" type="text/css">
/*
 * Below are Cascading Style Sheet (CSS) definitions in use in this file,
 * which allow easily changing how countries are displayed.
 *
 */
/* --- Custom styles for Peace Corps --- */
.world_map .world_map-is_selected {
  fill: #C94112 !important;
}
.world_map .landxx {
  fill: #F2EFE8;
  stroke: #ffffff;
  fill-rule: evenodd;
}
.world_map.zoom4 .landxx {
  stroke-width: 2px;
}
.world_map.zoom3 .landxx {
  stroke-width: 3px;
}
.world_map.zoom2 .landxx {
  stroke-width: 4px;
}
.world_map.zoom1 .landxx {
  stroke-width: 5px;
}
.world_map .coastxx {
  fill: #F2EFE8;
  stroke: #ffffff;
  stroke-width: 2px;
  fill-rule: evenodd;
}
.world_map .oceanxx {
  opacity: 1;
  color: #ccc;
  fill: #ffffff;
  stroke: #ffffff;
  stroke-width: 0.5;
  stroke-miterlimit: 1;
}

/* --- Original Styles --- *
/*
 * Circles around small countries
 *
 * Change opacity to 1 to display all circles.
 *
 */
.circlexx
{
   opacity:0;
   fill:#e0e0e0;
   stroke:#000000;
   stroke-width:0.5;
}

/*
 * Smaller circles around French DOMs and Chinese SARs
 *
 * Change opacity to 1 to display all subnational circles.
 *
 */
.subxx
{
   opacity:0;
   stroke-width:0.3;
}

/*
 * Circles around small, unrecognized countries
 *
 * Change opacity to 1 to display all circles.
 *
 */
.unxx
{
   opacity:0;
   fill:#e0e0e0;
   stroke:#000000;
   stroke-width:0.3;
}

/*
 * Circles around small countries, but with no permanent residents 
 *
 * Change opacity to 1 to display all circles.
 *
 */
.noxx
{
   opacity:0;
   fill:#e0e0e0;
   stroke:#000000;
   stroke-width:0.5;
}

/*
 * land
 */
.landxx
{
}
/*
 * Styles for coastlines of islands with no borders
 */


/*
 * Styles for nations with limited recognition
 */
.limitxx
{
   fill: #e0e0e0;
   stroke:#ffffff;
   stroke-width:0;
   fill-rule:evenodd;
}

/*
 * Styles for nations with no permanent population.
 */
.antxx
{
   fill: #e0e0e0;
   stroke:#ffffff;
   stroke-width:0;
   fill-rule:evenodd;
}

/*
 * Ocean
 */


/*
 * Additional style rules
 *
 * The following are examples of colouring countries.  You can substitute these with your own styles to colour the countries on the map.
 *
 * Color a few countries:
 *
 * .gb, .au, .nc
 * {
 *    fill:       #ff0000;
 * }
 *
 * Color a few small country circles (and the countries):
 *
 * .ms, .ky
 * {
 *    opacity:    1;
 *    fill:       #ff0000;
 * }
 *
 */

</style>
  <path class="oceanxx" d="M 2079.5058,1457.5605 615.24779,1457.5605 C 615.13079,1457.5605 615.07079,1457.5505 614.95179,1457.5215 611.67679,1456.6515 608.40179,1455.7815 605.12779,1454.9105 599.15079,1453.3225 593.22879,1451.5225 587.30779,1449.7385 564.39379,1442.8315 541.76579,1434.6995 519.46979,1426.0115 495.81079,1416.7935 472.34979,1407.0946 449.19179,1396.6816 426.78379,1386.6056 405.17679,1375.0536 383.76379,1363.0356 363.11779,1351.4496 343.01079,1338.8296 323.37979,1325.5996 302.29179,1311.3876 281.47879,1296.8506 261.05379,1281.7006 242.35079,1267.8276 223.73679,1253.6306 206.05279,1238.4686 186.98679,1222.1216 167.82379,1205.7706 150.35279,1187.6906 132.97779,1169.7106 116.33279,1151.0606 100.15679,1131.9976 84.352777,1113.3736 70.086776,1093.4716 56.901786,1072.9246 44.046786,1052.8916 32.093776,1032.1356 22.469776,1010.3426 17.516776,999.12753 12.408776,987.76556 8.7017761,976.06056 5.0657761,964.58166 1.5997761,953.04259 -1.5932239,941.43054 -8.0102239,918.09356 -14.055224,894.78356 -18.234224,870.92056 -22.491222,846.60856 -24.894222,822.19856 -26.943222,797.62156 -28.947222,773.58556 -28.829222,749.40156 -27.225222,725.34856 -25.648222,701.69856 -23.363222,677.92456 -19.274222,654.56456 -15.018224,630.25156 -9.3842239,606.45156 -2.8412239,582.66156 3.5687761,559.35256 10.483776,536.34856 20.265776,514.19856 30.320776,491.42956 42.318786,469.90956 55.502786,448.81656 68.512776,428.00356 83.108777,408.26756 98.686787,389.31756 113.73479,371.01156 129.68979,353.25256 146.15179,336.20856 163.77479,317.96256 182.64579,301.14556 201.89579,284.64756 220.33379,268.84456 239.55379,253.98456 258.95979,239.39656 278.42779,224.76056 298.39379,210.83356 318.55579,197.17556 339.26979,183.14456 360.47879,169.92056 382.15079,157.42556 403.46579,145.13656 425.31479,133.98856 447.60479,123.59356 469.58579,113.34356 492.14979,104.17656 514.74579,95.37556 537.44879,86.532565 560.37879,78.195565 583.63479,70.914565 589.69379,69.017565 595.80079,67.276565 601.90879,65.549565 604.63079,64.779565 607.36079,64.045565 610.09479,63.318565 611.59979,62.918565 613.56579,61.986565 615.13379,61.986565 L 2079.9638,61.986565 C 2079.9798,61.986565 2079.9958,61.986565 2080.0118,61.986565 2079.8448,61.986565 2079.6788,61.986565 2079.5118,61.986565 2102.8268,68.191565 2125.8778,75.323565 2148.5448,83.611565 2171.6378,92.054565 2194.6158,100.87956 2217.2348,110.52956 2240.5208,120.46556 2263.4848,130.95256 2285.8828,142.76456 2306.9808,153.89056 2327.8178,165.78556 2347.8608,178.72156 2368.9418,192.32656 2389.7498,206.29256 2410.2218,220.80056 2429.7368,234.62956 2448.9938,248.98756 2467.6208,263.99256 2486.8818,279.50856 2506.0408,295.30556 2524.0538,312.27356 2541.8708,329.05756 2558.7508,346.67256 2574.9408,365.03656 2591.2478,383.53256 2607.1478,402.30656 2621.4508,422.41856 2635.3488,441.96256 2648.4468,462.42756 2659.5898,483.67756 2671.1238,505.67356 2681.1048,528.35656 2688.6188,552.05056 2692.2518,563.50656 2695.3368,575.14756 2698.5608,586.72256 2701.7738,598.25356 2704.9238,609.81956 2707.4578,621.52456 2712.6258,645.40556 2716.6718,669.47856 2719.1178,693.79656 2721.5718,718.19256 2723.1798,742.56356 2722.9808,767.09056 2722.7908,790.65456 2720.6908,814.43756 2717.7688,837.81156 2714.7368,862.07056 2710.5198,886.16156 2704.6398,909.90056 2701.6808,921.84356 2698.3948,933.69556 2695.0378,945.53154 2691.7468,957.13466 2688.5558,968.83466 2684.3988,980.16156 2676.0918,1002.8036 2666.1688,1024.8836 2654.1338,1045.8046 2641.9958,1066.9066 2628.8498,1087.4866 2614.2378,1106.9696 2599.1658,1127.0666 2582.6678,1145.9446 2565.8948,1164.6296 2549.8298,1182.5266 2532.8918,1199.7316 2514.8648,1215.6616 2496.0788,1232.2646 2476.8978,1248.3126 2457.1558,1263.7656 2438.2988,1278.5276 2418.9668,1292.7306 2399.3188,1306.4206 2378.7018,1320.7866 2357.7538,1334.6106 2336.4758,1347.9776 2326.4088,1354.3016 2316.0058,1360.1326 2305.6418,1365.9516 2295.0348,1371.9086 2284.3858,1378.0166 2273.4448,1383.3436 2250.7338,1394.3986 2227.7768,1404.7266 2204.3888,1414.2665 2181.7848,1423.4875 2159.0678,1432.2695 2136.0228,1440.3345 2117.4118,1446.8465 2098.5568,1452.4975 2079.5058,1457.5605" id="ocean"/>
  <g id="fr">
    <title>France</title>
    <path class="landxx eu guf fra" d="M 853.32629,739.43755 C 854.61429,739.37755 855.64229,737.16955 856.08129,736.20055 856.89929,734.39155 856.09329,732.37855 857.32729,730.73055 858.79029,728.77755 857.44629,727.33755 856.20029,725.78255 854.90829,724.16955 854.96029,721.28955 854.83629,719.32155 854.69229,717.02855 855.02629,715.72555 856.69929,714.12855 857.32229,713.53355 858.09829,712.87655 858.29829,711.99755 858.55729,710.85855 858.85129,709.43555 860.46629,710.04555 861.51429,710.44155 862.23329,711.28955 863.34729,711.59455 864.55029,711.92555 866.01129,711.90655 867.02929,712.72055 868.22329,713.67755 869.81029,717.32255 871.68529,717.18955 871.37029,717.65155 871.15429,718.15555 871.03629,718.70255 871.56829,716.30655 875.67329,720.41755 873.33629,722.01455 874.46829,721.59755 873.81029,720.53955 874.37429,719.78555 875.23029,718.63955 875.89529,721.31055 875.96129,721.87955 876.27329,724.57755 874.20329,727.43355 872.80029,729.58155 871.18829,732.04955 870.06729,734.13855 869.01629,736.91955 868.62629,737.95155 868.12329,738.82455 867.25629,739.52655 866.89629,739.81855 866.25129,740.49055 865.77729,740.61555 864.99629,740.82255 864.38129,740.19755 863.54629,740.59155 863.89029,739.61055 863.27529,739.60655 862.53829,739.83455 861.50829,740.15355 860.62829,739.73455 859.64929,739.40355 859.15529,739.23655 857.23429,740.62855 856.92729,740.99355 856.35729,741.67055 853.70329,739.83455 853.32629,739.43755" id="gf">
      <title>French Guiana</title>
    </path>
  </g>
  <path class="landxx cmr" d="M 1336.1563,717.90855 C 1337.0993,717.10355 1337.6847,715.91618 1337.7263,714.72055 1337.7653,713.60364 1339.2271,711.443 1338.8146,710.67442 1338.3943,709.89129 1338.2233,709.57832 1339.3833,708.27555 1340.5339,706.98332 1341.6645,705.66668 1342.9355,704.48568 1343.6645,703.80668 1344.5848,703.51711 1344.9638,702.57611 1345.2908,701.76511 1346.5557,699.61449 1347.4587,699.35949 1348.4517,699.07849 1349.0293,700.39455 1350.2463,700.12855 1351.2103,699.91755 1351.2663,698.57755 1351.4863,697.82055 1351.6673,698.59055 1353.7392,700.69396 1354.4713,700.88955 1355.2036,701.0852 1355.4028,702.12113 1355.1169,702.90753 1354.9103,703.47582 1355.9449,704.32833 1357.0651,704.0648 1357.4036,703.48251 1359.2694,701.75891 1358.8103,700.71955 1358.4917,699.9984 1359.9983,699.03555 1360.5203,698.61755 1361.3883,697.92355 1360.5196,696.86821 1360.9886,695.93358 1361.908,694.10092 1363.2072,692.4248 1363.8344,690.12855 1364.1003,689.15513 1363.7474,688.12996 1364.0253,687.21055 1364.2405,686.49886 1365.3715,686.25372 1365.3143,685.07033 1364.9752,684.97123 1367.8258,685.35313 1368.4022,682.55655 1368.5322,681.92588 1369.6253,678.80555 1368.5573,678.59655 1369.7853,677.97055 1371.598,677.17455 1371.804,675.77155 1371.938,674.85655 1371.885,674.09908 1371.885,673.18308 1371.885,672.22908 1372.8446,672.31168 1373.275,671.65761 1373.7988,670.86154 1373.7387,669.73517 1374.0627,668.73598 1374.4006,667.69381 1374.7058,666.69283 1374.8403,666.06155 1375.1019,664.83419 1375.7967,662.53254 1377.0811,662.01402 1377.7513,661.74347 1381.7641,661.77313 1382.279,659.49921 1382.4239,658.85914 1381.7586,658.36075 1381.8543,657.61555 1382.0199,656.32573 1382.1037,655.58939 1382.3233,654.61055 1382.5802,653.46586 1380.4785,652.47938 1379.8033,652.69155 1379.2507,652.89674 1378.5298,651.71673 1378.2661,650.24109 1378.0548,647.89643 1378.1811,647.01678 1377.8473,646.34155 1378.7173,646.34155 1380.0676,646.26515 1380.7433,647.01939 1381.7466,648.13938 1380.7113,649.2605 1382.9291,649.87268 1384.0726,650.18834 1384.2048,652.85254 1384.2758,653.77364 1384.3468,654.6936 1384.1682,653.92248 1385.1187,654.82642 1387.0288,656.64301 1384.9718,662.0083 1385.2363,664.38755 1385.6039,667.69369 1387.1713,671.46755 1390.1553,673.12555 1388.9517,674.16385 1387.4272,673.67437 1386.4423,673.18375 1385.4392,673.27825 1385.2141,673.43604 1384.1511,673.4765 1381.9241,673.5612 1379.6557,672.11795 1378.5273,673.95456 1377.1575,676.18399 1377.3265,676.56984 1379.1485,678.65584 1380.9735,680.74584 1382.9798,682.55984 1384.9878,684.46784 1385.5948,685.04384 1386.3938,685.92703 1386.7978,686.67969 1387.5843,688.14465 1388.2391,691.13678 1389.1024,692.56256 1389.9804,694.01267 1388.2197,695.03087 1387.7806,695.61853 1387.0809,696.55492 1386.1184,698.72205 1385.4872,700.23928 1385.278,700.74222 1384.779,701.52075 1384.573,702.03175 1384.193,702.97575 1383.6137,703.72758 1383.176,704.64837 1382.5691,705.92505 1379.4444,707.18058 1381.2413,707.90269 1382.5552,708.43068 1382.443,709.77256 1382.264,711.51756 1382.183,712.30656 1382.139,713.01615 1381.698,713.69315 1381.748,713.61615 1382.6551,714.86443 1382.6691,714.95443 1382.8921,716.42643 1382.5397,718.6803 1383.5187,719.86184 1384.124,720.59233 1384.9341,720.86622 1385.208,722.00137 1385.4121,722.84726 1385.7743,723.98356 1386.5553,724.53356 1384.0895,724.59656 1389.642,731.14301 1390.1144,731.52056 1391.3152,732.48029 1392.9949,733.04741 1393.21,733.91456 1393.3716,734.56558 1393.4981,734.92337 1393.5271,735.55637 1393.6001,737.15837 1393.9683,738.82256 1394.3243,740.37256 1392.4464,741.25099 1394.5284,744.37643 1393.3243,745.26856 1392.2523,744.21556 1391.0673,743.26856 1389.6173,742.80456 1388.9883,742.60256 1387.1088,741.84035 1386.598,742.18215 1385.9401,742.62232 1384.6321,742.54568 1384.223,741.56315 1384.203,741.51425 1382.0236,741.09853 1381.8106,741.01453 1381.1326,740.74853 1379.2123,740.95053 1378.3273,740.89856 1376.7143,740.80556 1375.0748,740.82556 1373.4668,740.59853 1373.1938,740.56053 1372.3983,740.81456 1372.0853,740.66153 1371.4803,740.36453 1372.3563,739.75453 1371.2313,739.86653 1369.7453,740.01353 1368.4463,740.25453 1366.9323,739.92953 1365.1553,739.54853 1363.7003,739.84753 1361.9153,739.79253 1360.7513,739.75653 1358.6653,739.09453 1357.5613,739.70353 1357.2463,739.87753 1357.3653,740.80653 1357.0263,740.80653 1355.9243,740.80653 1354.8233,740.80653 1353.7213,740.80653 1352.1853,740.80653 1350.6593,740.86353 1349.1253,740.89753 1345.8333,740.97153 1345.1273,739.16253 1345.8203,736.10853 1346.2153,734.36853 1346.8153,732.48153 1345.8753,730.79753 1345.4323,730.00353 1343.9093,728.65953 1345.5153,728.13353 1344.6103,728.65353 1342.8563,727.79753 1343.9083,726.74953 1344.4623,726.19753 1345.6953,725.23953 1344.0753,725.18153 1344.3903,724.83353 1344.5563,724.42553 1344.5753,723.95753 1344.0683,725.18953 1343.5303,724.20953 1342.7053,724.24553 1343.0103,724.65353 1343.2253,724.94553 1342.7053,724.67753 1342.7373,725.07153 1342.6903,725.45553 1342.5653,725.82953 1341.9033,725.80553 1341.5833,725.29353 1341.7753,724.67753 1341.2043,725.71853 1339.5693,724.41353 1339.3583,723.64753 1339.0253,722.43653 1338.9553,720.36553 1338.0943,719.42153 1337.1053,720.63953 1337.2963,719.20553 1336.6543,719.20553 1336.7703,719.67953 1336.8433,720.15853 1336.8743,720.64453 1334.8313,720.90053 1335.9433,718.98453 1336.1563,717.90853" id="cm">
    <title>Cameroon</title>
  </path>
  <path class="landxx ken" d="M 1530.7577,768.59905 C 1532.2762,767.49265 1528.4746,762.88701 1533.7418,763.9683 1533.7528,763.6813 1534.0422,763.08727 1533.7218,762.543 L 1536.8504,762.13724 C 1534.7732,758.99154 1533.8805,761.45984 1532.8926,762.32309 1532.0484,763.06084 1529.9821,759.79571 1530.0892,757.80592 1530.89,756.36229 1530.3594,755.70587 1531.8512,754.35255 1532.9583,753.34816 1533.8379,750.03562 1535.6352,749.22655 1536.488,748.84268 1536.3622,748.71155 1536.3152,747.95755 1536.2432,746.79355 1537.5992,746.23355 1537.8962,745.19755 1538.2492,743.96655 1538.3505,742.76055 1538.4725,741.52555 1538.5815,740.41455 1537.4642,739.62827 1537.2312,738.38255 1536.7084,735.58772 1534.9882,734.98055 1534.7312,733.74955 1534.5292,732.77255 1533.9852,731.94355 1533.6572,731.01355 1533.4382,730.60455 1533.3152,730.16955 1533.2872,729.70655 1533.2872,729.08355 1533.9852,728.72955 1533.7972,728.06055 1533.6302,727.47055 1532.9842,727.31555 1532.4862,727.12955 1531.3562,726.70855 1532.1832,725.85055 1530.9872,725.97255 1531.4761,724.85155 1530.0812,723.77355 1530.2151,722.99055 1530.3494,722.20529 1531.3062,721.59055 1531.8402,721.03055 1533.7032,719.07555 1535.9862,719.63655 1538.4302,719.63655 1539.8322,719.63655 1541.2372,719.52055 1542.6392,719.50555 1543.3262,719.49855 1544.0412,719.46455 1544.7232,719.57255 1545.3132,719.66555 1545.4942,720.69955 1546.2022,720.97355 1548.3832,721.82055 1550.8172,720.78655 1553.0432,721.81955 1555.3702,722.90055 1557.8602,724.89055 1559.6752,726.66855 1560.6002,727.57455 1561.3352,728.21055 1562.6692,728.35655 1563.5362,728.45155 1565.5112,727.91355 1566.1922,728.34855 1568.0962,729.56655 1571.0172,728.48455 1572.6752,730.07755 1572.9042,728.94455 1574.4632,727.29555 1575.1652,726.31955 1576.4132,724.58355 1579.0822,723.88855 1580.9262,723.02855 1582.8942,722.11155 1583.2392,724.27055 1584.7092,725.12955 1585.7182,725.71955 1586.8112,725.33455 1587.8602,725.14455 1588.7102,724.98955 1589.7252,725.55055 1590.5242,725.10955 1589.2992,727.21055 1588.1712,729.50655 1586.6792,731.43155 1585.1032,733.46355 1583.6902,734.59455 1583.6952,737.32455 1583.7062,743.77355 1583.7632,750.22155 1583.7572,756.67155 1583.7472,761.50455 1582.7892,766.08755 1586.0342,770.03655 1587.1342,771.37555 1588.7912,773.10455 1587.6102,774.85955 1586.9152,775.89455 1584.8442,777.78455 1583.5452,776.58955 1583.4412,776.84955 1583.3432,777.11255 1583.2552,777.37955 1583.0472,777.12955 1582.8572,776.86555 1582.6852,776.58955 1583.0252,777.37555 1583.8952,778.82455 1583.1152,779.61855 1582.9802,777.66055 1582.1712,779.90355 1581.9742,780.35455 1581.5712,781.28055 1580.7952,781.45855 1579.9112,781.58355 1577.9492,781.85955 1577.1582,783.59255 1577.7832,785.24555 1578.0692,786.00255 1576.6852,788.19255 1576.1152,788.65555 1575.1432,789.44455 1574.3272,794.75355 1573.2452,794.29955 1573.7172,796.35555 1571.6612,797.81655 1571.3052,799.69855 1570.4682,799.08955 1570.5642,800.15455 1569.8652,799.98955 1568.9832,799.78155 1567.8581,798.24284 1567.1772,797.72455 1564.1681,795.43408 1560.3931,792.94216 1558.5408,790.46893 1558.0513,789.81536 1557.1522,789.71055 1558.1772,788.57855 1559.6262,786.97855 1557.0906,785.05047 1555.7858,784.23442 L 1530.7125,768.55399" id="ke">
    <title>Kenya</title>
  </path>
  <g class="landxx coastxx sle" id="sl" transform="translate(-29.9017,-45.0745)">
    <title>Sierra Leone</title>
    <path d="M 1202.397,738.72 C 1202.327,738.888 1202.257,739.056 1202.187,739.224 1203.163,739.528 1204.117,739.945 1205.137,740.088 1205.314,739.704 1205.446,739.172 1205.012,738.897 1204.271,738.424 1203.213,738.77 1202.397,738.72" id="path2896"/>
    <path class="landxx sle" d="M 1199.448,726.479 C 1200.064,725.914 1200.855,726.408 1201.538,725.975 1202.2,725.556 1202.022,724.412 1202.83,724.175 1204.162,723.784 1205.062,721.21 1205.479,720.048 1206.177,718.107 1208.233,719.536 1209.681,718.567 1210.92,717.737 1214.389,717.673 1215.628,718.589 1216.819,719.469 1217.399,720.972 1218.173,722.191 1218.577,722.827 1219.02,723.477 1219.289,724.186 1219.486,724.705 1218.904,725.336 1219.265,725.707 1219.71,726.165 1220.205,726.059 1220.251,726.831 1220.287,727.435 1220.059,728.483 1220.522,728.969 1221.171,729.652 1218.985,731.863 1219.108,733.032 1219.273,732.67 1220.887,731.82 1221.268,731.592 1222.749,730.702 1222.5069,731.92217 1222.148,733.038 1221.738,734.31275 1219.8678,733.96478 1219.7004,735.81438 1219.54,737.58697 1219.4805,737.50153 1218.503,738.536 1217.7249,739.35942 1216.9615,740.1776 1215.85,740.987 1214.3533,742.07692 1213.6805,744.84757 1213.021,744.64738 1212.3174,744.43381 1206.498,741.303 1205.569,740.52 1207.193,740.981 1205.917,740.214 1205.499,739.945 1206.193,739.461 1207.095,739.458 1207.729,738.865 1206.393,739.031 1204.448,739.236 1205.569,737.281 1204.69,739.296 1203.597,737.031 1202.844,737.135 1202.311,737.209 1201.847,733.674 1201.829,733.248 1200.728,733.504 1199.002,732.589 1199.809,731.16 1200.286,731.536 1200.789,731.872 1201.319,732.168 1200.059,731.535 1201.911,730.457 1202.619,730.512 1202.331,730.033 1202.464,730.156 1202.549,729.576 1201.899,730.883 1201.265,730.212 1200.459,729.72 1200.348,729.979 1200.251,730.242 1200.169,730.512 1199.229,728.926 1200.014,728.317 1201.389,727.992 1200.858,727.29 1199.808,727.352 1199.448,726.479" id="path2902"/>
  </g>
  <path class="landxx cod" d="M 1363.8063,809.49855 C 1364.4923,808.97755 1365.3416,809.41875 1365.6106,808.48674 1365.8286,807.73174 1366.451,804.76555 1365.921,804.15855 1364.534,802.57055 1369.9153,800.17055 1370.9263,799.26755 1371.1993,800.41455 1372.8793,800.58155 1372.9463,801.78855 1373.4843,801.22955 1374.1953,800.89855 1374.7933,800.41755 1375.6093,799.76155 1375.2683,798.57255 1375.9763,797.82855 1377.1763,799.41955 1378.9733,796.37555 1380.3903,797.08455 1381.7403,797.76055 1380.4943,798.06155 1380.2863,798.90855 1380.0533,799.85955 1380.6563,800.90155 1380.6563,801.85755 1381.2553,801.08555 1382.5783,802.05955 1383.3863,801.49855 1384.5793,800.66955 1385.3203,799.09455 1386.2283,797.98255 1386.6993,797.40655 1388.6143,796.48155 1388.7153,795.95855 1388.9843,794.57655 1390.1343,794.24555 1391.2763,793.75855 1393.9333,792.62455 1394.4093,787.62055 1394.3453,785.23055 1394.2963,783.41155 1394.4623,781.76755 1394.2333,779.95155 1394.0143,778.20955 1396.207,777.76255 1396.9426,776.38455 1398.6756,773.13802 1398.5434,771.08368 1402.0653,768.69255 1403.5473,767.68636 1404.4503,766.50355 1405.4343,765.11555 1406.4143,763.73355 1405.7063,761.71555 1406.1043,760.13055 1406.4543,758.73855 1407.1353,752.76255 1407.1953,751.19555 1407.2633,749.42455 1408.2893,747.87155 1408.5803,746.14555 1408.8623,744.47455 1408.3743,742.70755 1408.7503,741.05355 1409.4573,737.93955 1411.3169,735.39202 1412.3819,732.43102 1413.0009,730.71102 1412.7033,728.89755 1412.6553,727.14355 1412.6333,726.33455 1413.0083,725.48655 1412.8793,724.69555 1412.7653,723.99055 1412.3453,723.40255 1412.1523,722.72455 1411.8463,721.64655 1413.7273,721.67555 1414.1583,720.69255 1414.7543,719.33555 1415.3823,718.14355 1416.4103,717.04555 1417.3943,715.99355 1418.6253,715.09355 1420.1323,715.10455 1421.4083,715.11355 1421.9183,716.21655 1422.7333,716.39755 1424.6273,716.81655 1426.3833,718.86355 1427.0903,720.60355 1427.6663,722.02455 1429.7083,720.96355 1430.8613,721.31055 1431.4863,721.49855 1431.7953,722.34355 1432.5143,722.30955 1433.1513,722.27855 1433.2823,722.16455 1433.9403,722.50055 1434.9313,723.00655 1435.1293,722.49855 1436.1023,722.43655 1436.7523,722.39455 1437.4673,722.73855 1438.0633,722.95855 1439.1383,723.35655 1440.6063,724.13155 1441.7793,723.71855 1443.8763,722.98055 1443.2323,717.96955 1446.0273,717.83855 1447.6163,717.76255 1448.0403,720.98055 1450.1153,719.01555 1450.9923,718.18455 1457.0533,717.38255 1456.6873,715.39055 1457.9423,715.33655 1458.3633,717.05955 1459.5683,716.93855 1461.0153,716.79255 1463.4953,716.57455 1464.0973,715.03055 1464.3223,714.45455 1463.7423,713.87955 1464.5033,713.49755 1465.4363,713.03155 1466.2023,713.30955 1466.9303,714.02555 1468.0963,715.17255 1469.1773,713.82255 1470.4663,714.43355 1471.1043,714.73555 1471.6323,715.21555 1472.2573,715.53855 1472.9853,715.91455 1473.5043,715.59455 1474.2753,715.71055 1476.1053,715.98555 1476.8153,713.95455 1478.7453,715.04855 1479.4793,715.46455 1482.0273,717.06955 1482.0273,718.01855 1482.0273,718.48355 1482.6303,719.63055 1483.0813,719.81455 1484.9773,720.58755 1486.7843,723.38155 1488.8093,721.47355 1489.9563,720.39155 1490.8033,720.17555 1492.3253,720.91855 1493.8893,721.68355 1494.5111,721.37409 1495.4343,719.55555 1496.6509,717.15905 1499.7571,723.16319 1499.9163,723.55555 1500.6284,725.31003 1505.367,725.5411 1503.9183,728.27855 1504.8393,728.06255 1505.9533,728.00555 1506.1833,729.17855 1506.2993,729.49155 1506.4583,729.78155 1506.6623,730.04555 1506.7913,730.64755 1505.97,731.77341 1506.0597,732.40068 1506.3476,734.41308 1506.0057,736.41592 1505.7198,738.33424 1505.569,739.34482 1506.3192,739.21208 1507.453,739.0118 1507.9738,738.9198 1509.9611,740.3074 1509.5985,741.40849 1508.733,744.03698 1505.4703,746.64455 1503.5943,748.59255 1502.9738,749.23655 1501.7247,750.95036 1500.9734,751.58286 1500.2222,752.21536 1500.1491,751.67646 1499.7176,752.50142 1499.1776,753.53542 1499.8383,754.79755 1499.1833,755.85555 1498.4573,757.02955 1497.7353,758.79855 1497.5803,760.18055 1497.4413,761.41855 1497.4583,762.66955 1497.3723,763.91155 1497.2713,765.36455 1497.076,766.63355 1496.927,768.01355 1496.819,769.02255 1497.0773,770.43855 1496.6133,771.36255 1496.0863,772.41355 1495.2337,772.80824 1494.4647,773.65924 1493.2747,774.97624 1493.3742,775.40055 1493.3312,776.94555 1493.3032,777.96355 1492.2122,779.10936 1491.6612,779.83636 1490.4452,781.43936 1492.1385,783.11379 1493.0776,784.6413 1493.7849,785.79167 1494.3011,786.60032 1493.7753,788.18524 1491.8638,789.85939 1494.1815,795.11705 1492.3734,796.84412 1493.6905,797.60071 1493.4499,794.20669 1493.9067,794.78129 1494.3593,797.4537 1492.6868,799.39177 1492.6738,802.01104 1492.6568,805.4135 1495.5232,806.98042 1494.3172,809.33255 1493.6208,810.69078 1492.8882,810.98973 1493.4768,811.86514 1494.3774,813.20471 1494.7597,815.41345 1496.5385,818.89733 1497.7272,821.22547 1501.124,820.78883 1501.331,826.39662 1501.412,828.59797 1503.13,827.39032 1503.7904,830.76699 1499.0834,831.83999 1495.6123,831.96255 1490.8923,832.97255 1492.8433,836.19655 1487.7803,837.53655 1486.8623,839.95155 1489.5783,840.78955 1488.6763,844.98655 1488.4933,847.03755 1488.3593,848.53055 1488.9253,849.94055 1488.8383,851.41855 1488.7923,852.19355 1488.6237,852.93005 1488.3147,853.59905 1487.8677,854.56705 1487.5543,855.29655 1487.3063,856.31855 1486.8173,858.32455 1486.1363,859.4723 1487.4103,861.4123 1488.2963,862.7623 1489.9285,864.46042 1491.0995,865.56742 1491.6245,866.06442 1494.4031,867.76756 1494.6203,866.73355 1495.0061,864.89719 1495.4884,865.24047 1497.2933,864.72155 1497.2933,867.61855 1497.1963,870.52655 1497.1183,873.42255 1497.1053,873.86955 1497.4393,875.77855 1496.6893,875.85355 1495.8113,875.94155 1495.6153,874.92555 1496.2223,874.44055 1494.9243,872.84755 1492.0133,877.81686 1490.6423,874.83286 1490.1853,873.83886 1489.757,872.57855 1489.087,871.67755 1488.706,871.16555 1487.6855,870.50655 1487.5675,869.90155 1487.3365,868.71855 1487.1023,867.34655 1485.6123,867.30455 1484.3643,867.26955 1483.8313,865.96455 1482.6323,865.82055 1481.6303,865.69955 1481.0163,866.4558 1480.3233,865.3548 1479.7873,864.5008 1479.7712,863.25655 1478.9882,862.55555 1477.8732,861.55555 1477.0804,858.07961 1476.1084,861.19761 1475.1054,864.41361 1473.35,862.72268 1470.841,862.81168 1469.15,862.87168 1468.7502,862.33474 1467.3232,861.68774 1467.2272,861.64474 1465.7272,861.28674 1465.6852,861.29374 1463.4092,861.69374 1462.7293,858.23155 1463.5323,856.65255 1462.1343,856.73155 1460.7289,857.02778 1459.4233,857.52255 1457.819,858.13051 1457.4797,858.92297 1455.6833,858.17255 1456.3754,856.93458 1456.416,855.30122 1455.8173,855.32955 1455.0379,855.36645 1454.7117,854.70298 1454.1709,854.19011 1452.9149,852.99914 1453.0879,854.40483 1452.7903,854.5078 1451.6777,854.89281 1451.1893,854.83555 1450.1853,854.5766 1448.9793,854.2636 1448.23,855.10736 1447.1613,855.48485 1445.7885,855.96975 1444.9152,855.04797 1444.026,855.2016 1443.7067,855.2568 1442.4373,855.1176 1442.3973,855.1386 1441.5383,855.6016 1441.0983,856.8996 1439.9153,856.8706 1440.1823,855.9816 1439.6493,855.2836 1439.4943,854.4486 1439.2803,853.3016 1440.072,853.09647 1440.324,852.21447 1440.907,850.16947 1440.1073,846.6196 1438.8653,844.9746 1437.3523,842.9676 1436.7043,841.7116 1436.8943,839.1136 1437.0903,836.4286 1438.0271,833.6116 1437.3291,830.9396 1437.0611,829.9186 1436.3351,829.0326 1436.3501,827.9496 1436.3681,826.7256 1437.0423,825.5796 1437.1353,824.3646 1437.2893,822.3626 1435.9933,822.58485 1434.3713,822.56985 1432.8273,822.55685 1431.2924,822.52935 1429.7523,822.59455 1426.5894,822.72855 1427.0718,822.03755 1427.9643,819.36055 1427.2553,819.36055 1426.5595,819.18068 1425.8695,819.45065 1425.4025,819.63265 1425.7463,819.83552 1425.4843,820.05952 1424.6473,820.77652 1420.8023,820.15052 1419.6843,820.15052 1420.0573,821.09652 1419.3646,822.20352 1419.5256,823.21452 1419.6566,824.03152 1419.6873,825.32852 1418.3843,825.05052 1418.8083,826.29652 1418.0543,827.53252 1418.3143,828.79052 1417.7853,828.78552 1414.3438,828.90527 1413.7853,828.58152 1412.1388,827.62712 1409.2379,829.40952 1408.6763,829.45952 1407.3669,829.24698 1406.1356,829.30884 1404.7043,829.31614 1402.8843,828.93614 1402.097,825.15252 1401.184,823.81852 1400.862,823.34852 1400.6123,823.01152 1400.2813,822.54452 1399.6693,821.68052 1399.949,821.06052 1399.821,820.13952 1399.594,818.50052 1397.8812,817.42441 1398.127,815.68371 1398.3479,814.11926 1398.127,812.81315 1397.3879,811.89852 1396.3636,810.62226 1396.3821,810.1521 1394.7893,810.22852 1390.4033,810.43896 1386.0553,810.61088 1381.6763,810.36127 1378.1393,810.15965 1373.9983,810.74452 1370.5253,810.07552 1367.7473,809.53952 1365.4453,813.67652 1363.8063,809.49852" id="cd">
    <title>Congo, the Democratic Republic of the</title>
  </path>
  <g class="landxx coastxx som" id="so">
    <title>Somalia</title>
    <path class="landxx so- som" d="M 1583.6963,739.50955 C 1583.6963,738.10255 1583.3333,736.15655 1583.9403,734.83955 1584.5183,733.58555 1585.698,732.61742 1586.491,731.48742 1588.079,729.22942 1589.4563,725.18755 1591.8633,723.73455 1594.0603,722.40755 1596.6313,723.26555 1598.5543,721.20055 1600.7383,718.85555 1602.8053,717.32355 1606.1103,716.84555 1608.5823,716.48855 1612.9273,718.24655 1614.6353,715.98255 L 1636.3253,690.33455 C 1633.7033,690.33455 1630.9833,690.78055 1628.4053,690.11855 1625.4833,689.36855 1622.6933,687.96055 1619.8693,686.90855 1616.9583,685.82455 1614.0623,684.69955 1611.1573,683.59955 1608.4683,682.58155 1606.1083,681.87055 1604.0443,679.80155 1603.3543,679.10855 1603.1303,678.74455 1602.1733,678.49055 1601.1993,678.23155 1600.8203,676.72155 1600.3653,675.92255 1599.5933,674.56655 1599.0793,673.46955 1597.9853,672.27355 1596.6813,670.84655 1595.1473,669.01655 1595.7413,666.89355 1596.3933,664.56355 1598.434,662.51842 1599.344,660.22142 1601.746,661.56142 1603.0693,664.76255 1604.7123,666.83555 1606.7643,669.42355 1609.8913,670.14155 1613.0643,669.09555 1614.2793,668.69555 1615.8523,667.61155 1616.8903,666.84555 1618.7233,665.49155 1619.2413,665.71955 1621.4973,666.09055 1623.8283,666.47455 1624.8773,666.96255 1627.0543,665.60455 1628.1533,664.91855 1630.6753,662.36055 1632.0913,662.86455 1633.6513,663.41855 1634.7273,663.48755 1636.4043,662.91055 1637.4153,662.56255 1638.3733,662.05055 1639.4233,661.81755 1640.6253,661.54955 1641.4293,662.07255 1642.5753,662.18655 1644.4533,662.37455 1645.8913,661.26055 1647.5153,660.59955 1649.2083,659.91055 1651.1343,660.21555 1652.8413,659.34855 1654.2623,658.62655 1654.4063,656.77055 1655.6143,656.17655 1656.7853,655.59955 1660.5673,656.60255 1660.1023,658.29255 1659.4993,660.48155 1659.0933,661.81655 1659.4963,664.13755 1659.7753,665.75455 1660.1973,668.07255 1658.7843,669.31255 1659.7243,669.66555 1660.5013,669.44655 1660.2943,668.44855 1660.7603,668.75955 1661.2673,668.97555 1661.8143,669.09655 1661.5023,670.64755 1657.9853,668.52255 1657.9723,671.24555 1657.9623,673.46955 1658.1493,675.74555 1657.5303,677.92555 1657.0023,679.78755 1655.8823,681.21255 1654.8293,682.77555 1653.6033,684.59955 1653.7463,687.30155 1652.2443,689.05855 1651.6613,689.74055 1650.8573,689.91455 1650.4533,690.81455 1650.0513,691.70955 1650.3993,692.71955 1650.0643,693.66655 1649.2983,695.82655 1647.7533,697.54155 1646.6773,699.53155 1645.2443,702.17955 1645.1283,705.09455 1644.0093,707.83255 1642.8723,710.61555 1641.1003,713.07455 1639.4683,715.57955 1637.8853,718.01055 1636.8363,720.82655 1635.0243,723.09655 1633.0123,725.61755 1630.9953,728.13155 1628.9443,730.62055 1624.8213,735.62455 1620.6293,739.69155 1615.1653,743.20755 1612.8763,744.68155 1610.5983,746.21255 1608.6863,748.16855 1606.5333,750.36955 1604.0713,752.54255 1602.1253,754.92055 1600.1993,757.27455 1598.1743,759.56555 1596.2713,761.92855 1595.3443,763.07955 1594.5333,764.31655 1593.6313,765.48755 1593.0733,766.21155 1591.4023,768.82455 1591.1053,767.30055 1591.1053,769.77655 1589.4882,772.15649 1587.9952,774.02549 1588.1233,772.08327 1586.2488,770.47715 1584.9162,768.55949 1583.3947,766.37006 1583.637,764.8623 1583.612,762.3263 1583.547,754.6593 1583.696,747.17355 1583.696,739.50955" id="so-"/>
    </g>
  <path class="landxx uga" d="M 1496.4963,769.60855 C 1496.9863,768.25455 1496.8293,766.43155 1497.0303,764.99555 1497.2833,763.18855 1497.4519,761.39647 1497.6873,759.57855 1497.974,757.36445 1499.255,756.09853 1499.4713,754.94455 1499.6031,754.24149 1499.3303,753.52655 1499.4713,752.81655 1499.6853,751.69955 1500.7403,751.98655 1501.2503,751.17855 1502.8033,748.72055 1505.2889,746.9696 1507.3909,744.7966 1508.2059,743.9526 1509.3023,742.48555 1509.6453,741.34755 1509.9273,740.41155 1508.1873,739.43055 1507.5133,739.07055 1506.9733,738.78155 1506.1593,739.66055 1505.7583,738.77355 1505.4413,738.07055 1505.6983,737.10755 1505.8443,736.39555 1506.2893,734.21355 1505.4723,732.45055 1506.5763,730.44755 1506.8993,729.86355 1506.1054,729.70928 1506.3044,729.09328 1506.5144,728.44128 1507.1093,727.89355 1507.6153,727.47555 1508.1133,727.06555 1508.7023,726.69155 1509.3833,726.81455 1509.9403,726.91555 1510.9873,728.07355 1511.5373,727.82455 1512.2413,727.50655 1513.2733,726.20955 1514.0233,727.19855 1514.8273,728.25655 1515.0443,728.63555 1516.4493,729.14155 1515.6611,727.83235 1517.8363,727.33255 1518.8573,727.18955 1520.1223,727.01238 1521.5656,725.99596 1522.8036,726.13996 1524.4986,726.33696 1525.0213,727.83355 1526.8713,726.55055 1528.1983,725.63155 1529.1203,724.25055 1530.1303,723.02055 1530.7193,723.81555 1531.3463,724.94755 1530.9903,725.97255 1532.1833,725.85155 1531.3912,726.72122 1532.517,727.05982 1533.6787,727.40919 1534.1226,727.6335 1533.6373,729.12255 1533.0056,731.06063 1534.9422,733.14369 1535.9503,735.44155 1536.148,735.89226 1537.3123,737.40855 1537.2903,737.80055 1537.2423,738.62955 1538.2214,739.8596 1538.4234,740.6666 1538.7784,742.0996 1538.4234,744.05233 1537.8037,745.48333 1537.2747,746.70433 1536.2583,746.88355 1536.5173,748.30455 1536.6513,749.04155 1535.4583,749.50355 1534.9133,749.77755 1533.8453,750.31655 1533.8003,751.75455 1533.1613,752.81855 1532.6833,753.61355 1531.8906,754.04228 1531.5596,754.86428 1531.1106,755.97728 1530.6989,756.79323 1530.1829,757.87323 1529.686,757.84003 1527.8546,758.44886 1528.1517,756.85068 1526.9892,757.29046 1527.3543,757.62287 1526.8758,757.6967 1525.4577,757.9155 1525.4376,757.0628 1526.501,757.1296 1526.228,756.55872 1525.2741,755.84572 1525.5962,755.43728 1524.8041,755.72725 1525.3274,755.51938 1524.2412,755.92533 L 1524.5857,756.5 C 1523.6383,756.75313 1524.3651,757.67973 1523.1711,757.6167 1523.3243,759.4781 1520.5237,758.51931 1520.2038,758.58367 1520.1468,758.61657 1520.3537,756.91304 1520.1458,757.19671 1518.7912,760.35232 1518.2972,758.67669 1518.0428,758.84269 1518.0928,759.51258 1517.5876,759.55546 1516.4211,759.67061 1515.8722,760.44944 1514.5763,760.43028 1514.6836,760.7047 1515.7046,763.31605 1513.5576,763.74792 1513.2212,765.58201 1512.9303,767.16845 1513.5108,767.25337 1513.6913,768.30028 1506.5023,768.30028 1515.252,768.61237 1508.0828,768.07655 1505.6075,767.89155 1502.6985,768.39827 1501.2498,770.19209 1500.7465,770.81525 1500.041,772.56249 1499.1614,771.98487 1498.9284,771.83184 1498.7926,770.99141 1498.3838,771.02355 1497.6838,771.07855 1496.5714,771.85331 1496.2408,772.08824 1496.4057,771.436 1497.323,770.30524 1496.5018,769.60855" id="ug">
    <title>Uganda</title>
  </path>
  <g class="landxx coastxx ven" id="ve" transform="translate(-29.9017,-45.0745)">
    <title>Venezuela, Bolivarian Republic of</title>
    <path class="landxx ven" d="M 742.105,725.256 C 744.075,722.932 745.061,720.438 745.682,717.508 746.278,714.699 746.93191,712.51846 748.39591,710.06246 749.58891,708.06246 752.29336,706.90228 753.43736,704.80428 754.74136,702.41428 756.96573,703.03164 759.09673,701.71664 758.22873,703.83464 755.95436,703.00709 754.70036,704.51709 753.63236,705.80309 754.77196,708.581 756.144,709.128 754.903,709.066 756.1,711.819 756.22,712.339 756.588,713.938 755.051,715.557 753.986,716.565 752.599,717.877 751.923,719.472 752.782,721.194 753.115,721.86 753.226,722.702 753.865,723.175 754.573,723.699 754.687,723.468 754.566,724.42 754.311,726.421 755.846,726.872 757.454,725.958 759.114,725.014 759.771,723.618 759.985,721.775 760.26,719.411 759.198,718.088 758.011,716.159 757.539,715.393 757.124,714.531 756.844,713.674 756.592,712.902 757.249,711.848 756.648,711.217 757.55,711.323 758.332,709.959 759.024,709.561 760.29,708.832 761.475,707.875 762.95,707.616 764.226,707.391 765.246,707.217 766.366,706.542 766.788,706.288 768.044,705.273 768.597,705.53 768.523,705.128 768.333,704.792 768.027,704.521 768.577,704.745 770.255,706.149 770.827,705.486 771.215,705.036 770.813,703.93 770.313,703.722 769.458,703.367 768.312,704.175 767.447,704.233 767.616,703.241 766.782,697.982 769.722,699.191 771.06,699.741 770.785,702.645 770.992,703.782 771.451,706.305 774.163,704.63 775.959,705.256 777.969,705.957 780.474,706.499 781.353,708.833 781.891,710.262 780.493,713.468 782.873,713.973 785.704,714.574 789.289,713.263 792.094,712.89 794.499,712.57 797,712.057 798.473,714.206 799.083,715.096 799.937,715.823 800.957,716.182 801.788,716.475 802.65,716.669 803.5,716.894 803.41,716.87 806.29,717.482 804.956,717.482 807.22,718.709 808.297,716.055 810.087,715.889 811.175,715.788 811.424,714.655 812.327,714.233 813.572,713.653 814.992,714.761 816.265,714.027 815.169,712.87 812.593,714.109 811.865,712.659 812.494,712.659 813.124,712.659 813.754,712.659 814.64,712.659 814.9,712.113 815.545,712.083 815.863,712.193 816.171,712.325 816.47,712.48 817.352,712.64 818.268,712.531 819.142,712.383 822.876,711.753 826.701,712.457 830.375,711.722 829.801,712.886 827.962,712.667 826.905,713.223 825.247,714.096 823.294,712.71 821.735,714.026 822.237,713.525 822.758,713.592 822.955,714.313 822.339,714.262 821.896,714.649 821.805,715.25 823.17,714.445 824.217,715.263 824.187,716.864 824.163,718.132 822.037,717.283 821.375,717.266 821.852,719.045 824.78,717.793 824.475,716.186 825.264,716.298 825.6,717.203 825.664,717.884 825.749,718.79 826.589,719.81 826.485,720.65 827.046,720.052 827.328,719.223 827.065,718.419 827.789,719.127 827.898,720.495 827.275,721.299 828.04,720.753 827.724,719.682 827.635,718.923 828.027,719.015 828.41,719.135 828.785,719.283 828.711,719.202 826.334,717.934 827.733,718.11 829.061,718.277 830.791,719.671 830.085,721.155 830.401,720.581 830.855,720.632 830.515,720.075 831.05,719.808 831.603,719.761 832.175,719.93 830.956,718.578 832.929,719.797 833.374,720.517 834.191,721.839 835.632,721.297 836.69,722.118 839.515,724.309 836.2,724.319 835.485,726.339 835.713,726.087 835.953,725.847 836.205,725.619 836.404,726.654 835.281,728.449 834.792,729.31 834.49,729.842 834.577,730.298 833.89,730.298 833.282,730.298 831.421,729.754 831.025,730.298 831.908,730.798 833.334,730.946 833.835,731.954 834.406,731.21 835.211,730.682 835.345,731.882 836.172,730.972 836.792,730.542 838.005,730.298 839.138,730.07 839.578,731.276 840.633,730.259 842.456,728.501 845.738,732.865 844.712,733.383 843.691,733.899 843.104,734.644 842.273,735.435 841.496,736.176 840.15,736.532 839.535,737.183 839.094,737.65 838.735,738.293 838.338,738.805 837.534,739.843 838.706,740.498 838.619,741.625 838.564,742.326 838.826,743.105 839.639,742.66 840.611,742.129 841.291,743.408 840.556,744.116 839.747,744.895 838.544,745.17 837.761,745.952 837.386,746.327 836.734,745.783 836.348,745.745 836.004,745.711 835.808,746.383 835.475,746.513 832.445,747.697 835.526,749.575 833.922,751.352 833.514,751.804 831.887,752.827 832.464,753.616 833.445,754.957 834.452,756.314 835.507,757.596 836.758,759.117 839.309,761.525 836.918,763.269 836.11,763.858 835.5384,764.95039 834.7264,765.53539 834.2764,765.86039 832.724,765.48499 832.624,765.65 832.186,766.369 830.877,766.207 830.853,766.953 830.825,767.839 829.259,767.849 828.643,768.144 827.466,768.708 826.019,769.448 824.717,768.797 823.834,768.356 823.019,769.461 822.1,769.641 820.981,769.862 820.962,771.036 821.224,771.954 821.602,773.28 820.495,774.301 819.382,773.292 818.629,772.608 818.257,771.698 817.567,770.975 816.651,770.014 816.063,771.307 815.166,770.981 813.934,770.532 813.474,770.896 812.233,770.763 811.267,770.659 811.483,771.034 811.107,769.846 810.752,768.724 809.306,768.627 808.343,768.819 807.068,769.073 807.105,767.957 806.113,767.523 805.284,768.356 806.816,770.233 807.321,770.849 808.774,772.621 809.973,772.939 810.015,775.465 810.029,776.285 810.056,777.098 810.269,777.896 810.539,778.904 811.599,779.941 811.457,781.002 811.216,782.805 811.21,783.598 813.402,783.653 814.037,783.669 816.39164,783.17891 816.18901,784.3288 815.81401,786.4568 814.71964,786.2871 813.68121,787.01559 812.899,787.56433 811.51939,787.68779 811.20439,788.42279 810.84739,789.25679 810.929,789.862 810.355,790.67 809.843,791.39 809.164,791.959 808.703,792.722 808.7278,790.78012 805.72263,793.76191 805.161,793.872 803.80991,794.13683 802.94,794.912 802.131,796.037 801.589,796.791 800.459,798.759 799.553,799.055 798.957,798.334 799.725,797.428 799.533,796.645 799.209,795.321 797.264,796.606 796.752,796.975 793.82,799.085 791.58542,796.78642 789.67242,794.27342 788.77842,793.09942 788.868,791.729 788.456,790.354 787.984,788.775 786.829,786.58 786.901,784.927 786.957,783.626 783.48719,779.37327 781.91919,780.55227 781.86919,779.09227 784.224,777.538 785.239,776.739 787.01,775.344 785.829,773.86 784.58,772.431 781.821,769.278 782.61946,763.9019 782.62846,760.1159 782.63146,758.7619 783.06701,758.11431 783.89064,757.19554 784.41686,756.60854 784.16335,755.40094 784.583,754.634 785.03998,753.79884 785.77354,753.20332 786.004,752.469 786.41603,751.15611 784.61537,749.8428 783.87528,750.18246 782.09747,750.99837 780.65611,751.18278 779.1119,751.07846 778.40784,751.03086 776.89738,751.78122 775.28527,751.34481 774.14437,751.03596 774.21046,751.48277 772.76936,751.68491 772.50812,751.72161 770.41891,751.0551 770.61791,751.1831 769.82191,750.6741 769.456,749.544 768.954,748.779 768.245,747.697 767.574,746.631 766.926,745.514 766.594,744.941 766.128,744.24381 765.307,744.49181 763.776,744.95481 762.79891,743.47427 761.35291,743.32327 760.42191,743.22527 760.012,743.979 759.163,744.195 757.91,744.515 756.734,743.64 755.481,743.87 754.678,744.016 754.201,743.498 753.363,743.921 752.537,744.338 751.434,743.842 750.97,743.086 750.612,742.503 750.43173,742.07781 750.27073,741.43281 750.04773,740.53781 748.798,740.63 748.35,739.99 747.49,738.761 748.16437,736.153 748.89937,735.14 750.29337,733.219 747.909,731.331 747.283,729.939 746.623,728.472 747.342,725.065 745.195,725.62 745.234,725.1 745.162,724.596 744.979,724.107 744.138,724.842 743.252,725.289 742.105,725.256" id="path3410"/>
    </g>
  <path class="landxx col" d="M 667.27529,745.84555 C 667.01129,745.77355 666.74729,745.70155 666.48329,745.62955 666.76429,743.90955 668.61029,743.36655 670.01129,744.18955 670.77029,742.72155 668.88229,741.33755 669.63029,739.84055 670.58829,737.91955 672.74129,738.01755 674.54729,737.71055 674.89029,737.65255 674.77029,736.82155 675.23729,737.10255 675.58029,737.30855 676.35929,737.48955 676.36429,736.88455 676.37429,735.67755 677.95329,734.17655 676.99529,733.39055 678.71229,733.34455 679.02929,731.13455 679.53529,729.96255 679.93529,729.03655 680.71629,728.39555 681.53129,727.84655 680.51729,727.01855 681.72029,726.89355 682.03529,726.04655 681.32829,726.07455 680.42529,726.65755 680.16329,725.61455 680.71729,725.47055 681.12329,725.06355 681.09929,724.46255 680.55429,724.27155 679.44829,725.72955 679.33529,724.60655 679.21729,723.42855 679.88929,723.19455 680.81129,722.73355 679.36429,722.74755 680.02529,720.82155 680.22329,720.02955 680.61029,718.47455 680.27029,716.39055 680.12029,714.80655 680.00629,713.60755 679.47429,712.46355 679.39129,711.26855 679.34629,710.61455 681.43829,710.35755 681.08329,708.83055 680.87129,707.91655 678.76829,705.81755 680.16429,705.28855 681.41929,704.81355 680.34229,702.15055 679.79729,701.54255 678.69829,700.31555 678.56329,698.48055 677.37629,697.44655 676.59529,696.76655 677.37529,695.90955 677.82929,695.28755 678.37729,694.53855 677.85029,693.56155 678.50629,692.92555 678.86729,693.35255 679.13129,693.83255 679.29829,694.36555 680.83429,693.29055 683.01929,691.19055 682.30929,689.10455 681.58129,686.96755 680.22329,686.51455 681.53029,684.50055 682.27329,685.46155 683.08129,686.77355 683.72229,687.84155 684.38329,688.94355 686.00629,689.27955 684.55429,690.62055 686.50429,692.85855 685.54729,686.44055 685.27129,685.75355 684.87529,684.76355 689.43829,682.48155 690.02129,681.68155 690.75429,680.67455 691.27829,678.98455 692.50329,678.45355 693.19729,678.15355 694.84129,678.32455 695.23129,677.54555 695.78629,676.43855 694.71129,676.03855 694.93729,675.35655 695.33829,674.14355 695.50529,672.61955 696.21829,671.54155 695.15929,671.43355 695.44629,671.08255 696.16529,670.71455 696.82229,670.37855 696.56829,669.47455 696.55029,668.91055 696.50829,667.58655 698.73829,667.21555 698.73829,666.75255 698.73829,666.05955 701.45429,663.38155 702.08729,663.39855 703.34129,663.43055 704.40029,664.54355 705.65029,664.55755 704.59429,664.41755 704.74429,665.56255 703.77829,665.56555 704.51229,668.28655 706.11829,664.66555 706.48629,663.68455 707.40329,661.23555 708.48529,661.41155 711.06429,661.84155 714.58329,662.42855 715.70329,660.14055 718.47829,658.47755 720.00429,657.56255 724.44329,656.47355 723.07429,653.83055 723.65729,653.65655 725.30629,653.13055 724.37029,654.33455 725.45029,654.16955 724.77029,653.09655 725.95429,652.55855 727.38029,651.91155 728.63329,651.91055 729.85129,652.92855 734.00629,656.40155 725.06129,657.80855 723.72129,659.51855 723.00529,660.43155 722.73429,661.76455 721.88629,662.55755 721.29729,663.10855 720.33929,663.00255 719.81429,663.59955 718.82529,664.72355 717.78829,666.43955 717.15229,667.78755 716.20329,669.79655 716.16329,671.85855 715.62529,673.97555 715.09529,676.05455 713.58429,678.55355 712.20229,680.18355 713.34929,680.21655 714.23529,679.76955 715.08229,679.03155 715.26529,679.51955 715.33729,680.02455 715.29829,680.54455 717.47829,679.98155 716.74729,683.84855 717.85329,685.25455 719.43229,687.26255 719.86629,688.44255 718.94229,690.90955 718.47829,692.14955 717.73329,694.80255 719.41029,695.43155 721.31329,696.14455 720.30529,698.41055 722.26329,698.87255 723.05529,699.05955 723.81329,698.55555 724.58729,698.47255 725.85029,698.33655 727.00129,699.18355 728.26929,699.06755 729.39829,698.96455 730.34429,698.16255 731.49629,698.18455 732.52029,698.20455 733.28229,699.19355 734.25029,699.42155 734.96129,699.58855 735.62429,698.99155 736.27329,699.56055 737.12729,700.30855 737.70529,701.67655 738.33529,702.60355 738.91929,703.46355 739.45529,704.33655 739.98129,705.23055 740.66129,706.38455 740.94229,706.06155 741.96929,706.35855 743.46429,706.79155 744.83929,705.53628 746.78829,706.31825 747.38429,706.55725 748.69729,705.97452 749.34129,705.96052 750.75229,705.92852 751.95229,706.04052 753.19029,705.28952 754.59229,704.43952 756.90829,706.11152 756.17229,707.58652 755.75129,708.42952 754.72629,709.07652 754.54229,710.01952 754.31529,711.18052 754.78329,711.78952 753.68029,712.54052 752.21129,713.54152 752.79329,717.56552 752.64829,719.19752 752.47529,721.13652 753.27829,723.19852 753.64229,725.24552 753.91629,726.78752 756.87229,728.82452 756.39329,730.39752 755.80329,732.33252 752.15629,733.08752 752.23629,735.40752 753.55829,734.41452 756.78829,738.04852 757.20629,739.15152 757.11429,739.45052 757.13809,739.75252 757.07408,740.05852 757.24508,740.61952 757.67829,741.17452 757.67929,741.77552 757.68129,743.02452 758.40729,744.34452 758.71629,745.58152 758.83829,746.07102 759.48662,747.96565 759.62024,748.72378 759.75387,749.4819 759.34891,748.99209 758.74629,749.17952 757.73973,749.49259 757.42986,749.01644 757.67731,748.42645 758.08286,747.45946 757.50521,741.12941 754.98529,741.22552 754.00041,741.26312 751.32829,746.35552 750.57829,743.54752 750.29829,742.50252 748.95429,742.02652 749.10229,743.54352 749.26929,745.24852 747.10329,744.62452 745.94329,744.62452 744.20529,744.62452 742.46629,744.62452 740.72829,744.62452 739.57829,744.62452 738.33629,743.94752 737.20529,744.44652 735.51529,745.19052 736.86029,748.98452 736.68729,750.38452 738.05629,749.45952 741.26729,750.26152 741.88329,751.77252 742.11129,752.33152 742.24029,754.21352 741.17429,754.11652 740.51529,754.05652 740.11629,753.18052 739.40629,753.30752 737.83929,753.58752 735.09929,754.01852 734.98429,755.84752 734.84429,758.07552 734.64829,761.19352 736.57229,762.65052 737.54329,763.38552 738.67629,764.02052 738.62629,765.41052 738.57829,766.74452 739.25729,767.25552 739.77829,768.38152 740.96129,770.93652 739.42929,774.43152 739.06829,777.04452 738.20029,783.33552 738.34129,790.17852 736.39829,796.25152 735.93129,795.09452 735.01429,794.25833 734.18729,793.34133 733.24529,792.29733 732.05302,793.33933 730.96302,792.71933 729.95202,792.14433 732.49875,787.88725 732.85075,787.28725 733.53775,786.11925 735.59793,783.82452 734.55093,782.70352 734.09793,782.21952 733.63527,780.94383 732.90329,781.20052 731.60059,781.65734 730.12029,779.57789 729.79329,779.30752 728.54329,778.27399 727.48629,779.31352 726.16657,779.95706 724.90885,780.57054 724.07683,778.91729 722.92166,778.72352 722.21698,778.60532 720.21733,781.70746 717.87249,780.99679 717.0516,780.748 716.48929,780.75452 715.47029,780.88652 714.06429,781.07052 713.32202,780.92602 712.21602,780.06706 711.35302,779.39606 712.26032,777.61152 711.95029,776.59152 711.52729,775.19952 709.32129,775.95452 709.07429,774.55752 708.89829,773.56252 708.4022,772.42779 708.0022,771.49979 707.5822,770.52479 706.31502,770.94261 705.71402,770.08361 705.06302,769.15261 704.64529,768.88952 703.77429,768.59652 702.66629,768.22452 702.0152,766.72833 701.9312,765.72833 701.7722,763.82233 698.28429,760.77152 696.50929,760.25152 696.16729,760.15052 695.80929,759.75433 695.50629,760.23632 695.17829,760.75732 695.18629,760.76451 694.48729,760.44651 693.44629,759.97251 691.84529,759.41151 690.96829,758.72551 690.28729,758.19251 687.13138,754.21105 686.75738,757.04605 686.56338,758.51905 681.00929,756.64151 679.85629,756.43551 677.98629,756.10151 679.36229,754.51951 677.98429,753.93051 676.77529,753.41351 677.31029,752.38351 675.75329,752.36451 674.52929,752.35051 672.11048,750.9926 671.20548,750.2446 669.68248,748.9886 668.44729,747.44651 667.27529,745.84551" id="co">
    <title>Colombia</title>
  </path>
  <g class="landxx coastxx tha" id="th" transform="translate(-29.9017,-45.0745)">
    <title>Thailand</title>
    <path d="M 2049.559,733.824 C 2049.188,735.032 2049.397,736.339 2049.838,737.496 2050.91,736.634 2050.791,734.499 2049.559,733.824" id="path3902"/>
    <path d="M 2055.958,740.088 C 2055.875,739.51 2055.635,739.006 2055.238,738.576 2055.3,739.165 2055.54,739.669 2055.958,740.088" id="path3906"/>
    <path d="M 2060.568,746.64 C 2060.059,747.15 2060.006,747.905 2060.858,748.08 2060.767,747.599 2060.67,747.119 2060.568,746.64" id="path3908"/>
    <path class="landxx tha" d="M 2034.288,643.824 C 2034.733,644.681 2036.586,644.647 2037.197,644.019 2037.934,643.263 2036.477,641.212 2036.668,640.223 2036.774,639.672 2037.212,639.292 2037.238,638.711 2037.279,637.811 2036.55,637.228 2036.794,636.269 2036.948,635.658 2038.06,633.589 2038.476,633.665 2039.696,633.891 2040.89,634.419 2042.143,634.145 2042.738,634.016 2043.308,633.337 2043.899,633.35 2044.5,633.363 2044.736,633.949 2045.244,633.172 2045.743,632.407 2044.813,630.951 2045.991,630.648 2046.837,630.431 2050.058,631.087 2048.329,628.847 2049.563,628.785 2052.881,626.598 2052.869,629.28 2053.546,629.092 2053.761,628.123 2054.553,628.36 2054.906,628.465 2056.101,630.056 2056.385,630.381 2057.081,631.173 2056.103,632.361 2055.898,633.154 2055.61,634.272 2056.2904,635.00161 2057.0994,635.66461 2057.3832,635.89611 2058.2384,635.66261 2058.5453,635.8035 2059.2413,636.12394 2059.0151,635.33064 2059.4523,635.20949 2059.8282,635.1053 2059.7468,635.19349 2060.1029,635.08742 2060.459,634.98133 2060.9716,634.89045 2061.3059,634.93736 2062.8415,635.15285 2062.6014,637.63867 2063.531,639.942 2063.8304,640.68375 2063.0331,641.57861 2063.262,642.361 2063.7151,643.90992 2062.9223,643.65097 2062.5506,644.67636 2062.3963,645.10185 2063.05,646.01371 2063.137,646.59871 2063.282,647.57271 2063.5328,648.11529 2063.212,649.054 2062.3855,651.47237 2061.9581,653.42131 2064.169,653.30402 2064.2764,653.29802 2067.6099,650.2433 2068.129,648.359 2069.35,649.09 2069.444,647.103 2070.379,647.085 2071.025,647.073 2071.894,648.332 2072.483,648.625 2072.944,648.855 2074.009,648.936 2074.291,649.409 2075.184,650.903 2076.225,648.711 2077.35,648.935 2077.958,649.056 2078.176,646.623 2079.151,646.487 2077.466,644.631 2082.6151,645.65875 2083.1731,645.81375 2086.3111,646.68575 2087.4231,651.05775 2090.3301,652.58175 2092.7321,653.84175 2091.3071,658.52541 2092.02,660.674 2092.4794,662.05847 2092.7337,662.56086 2093.6754,663.45736 2095.3082,665.01174 2096.1856,665.41423 2097.94,666.215 2096.315,667.324 2098.7099,668.11902 2099.472,668.668 2101.2498,669.94865 2097.7551,672.45831 2099.81,671.975 2099.497,672.688 2098.78,673.38 2099.274,674.189 2099.554,674.647 2100.119,674.852 2100.059,675.476 2099.894,677.193 2100.568,678.889 2098.855,679.953 2097.711,680.663 2097.092,682.149 2096.206,680.55 2095.292,678.904 2092.693,680.533 2091.344,680.128 2090.408,679.848 2089.51,680.186 2088.588,680.315 2087.599,680.453 2087.141,679.844 2086.27,679.773 2085.069,679.674 2083.7387,680.222 2082.6367,680.655 2080.8967,681.339 2080.502,683.25692 2079.9678,684.81553 2079.7344,685.49665 2078.9844,686.18445 2078.332,686.786 2077.8871,687.19622 2077.1847,687.22845 2076.769,687.312 2077.367,688.7438 2076.709,689.76791 2078.099,691.856 2078.8331,692.95877 2079.0282,694.30632 2079.976,695.42575 2080.8969,696.51345 2081.2222,697.53287 2081.16,698.95641 2081.061,701.22315 2082.7788,702.19694 2082.599,703.945 2082.581,703.064 2081.847,702.584 2081.459,701.88 2080.874,700.817 2080.952,699.481 2079.509,699.048 2079.542,699.48 2079.566,699.911 2079.579,700.344 2079.181,699.389 2075.958,698.94 2077.849,697.68 2077.328,697.991 2076.963,697.659 2076.769,697.176 2076.769,698.727 2074.934,696.328 2074.61,695.592 2074.61,696.956 2073.58,694.192 2072.296,694.779 2071.67,695.065 2071.037,695.596 2070.29,695.447 2069.375,695.264 2068.318,694.761 2067.371,694.995 2065.519,695.453 2066.558,693.533 2066.434,692.392 2066.362,691.724 2066.34,691.047 2066.247,690.381 2066.12,689.46 2066.797,688.742 2066.619,687.887 2065.835,688.515 2063.74,687.935 2063.449,686.951 2063.79,688.925 2057.801,687.181 2059.514,690.248 2060.368,691.777 2059.825,692.749 2059.524,694.347 2059.202,696.043 2060.463,697.628 2060.143,699.335 2060.016,700.012 2059.513,700.523 2059.174,701.093 2058.757,701.791 2059.021,702.636 2058.542,703.324 2057.641,704.622 2057.5,706.617 2057.171,708.131 2056.77,709.977 2056.5,711.309 2055.729,713.004 2055.454,713.609 2056.034,715.272 2054.882,715.103 2056.185,716.677 2054.803,719.59 2055.627,721.493 2056.02,722.398 2056.602,723.001 2056.148,723.921 2055.635,724.963 2057.53,725.195 2058.076,724.906 2059.999,723.888 2061.181,723.867 2061.472,726.48 2061.568,727.342 2062.785,733.518 2064.033,731.52 2064.795,733.276 2064.921,735.228 2065.501,737.041 2066.021,738.662 2066.825,740.373 2066.843,742.104 2065.648,741.886 2065.413,736.646 2064.121,737.551 2063.192,738.202 2064.577,740.253 2064.941,740.777 2065.376,741.4 2065.889,741.88 2066.442,742.387 2066.903,742.81 2067.578,742.649 2068.028,743.071 2069.071,744.051 2069.272,745.074 2070.995,745.124 2072.261,745.16 2073.673,744.658 2074.786,745.509 2076.011,746.445 2076.27,748.156 2077.456,749.148 2078.71,750.197 2079.519,750.702 2078.892,752.364 2078.604,753.126 2078.101,754.674 2077.153,754.875 2076.424,755.03 2076.28,753.838 2075.723,753.618 2074.263,753.04 2073.452,755.617 2072.518,755.612 2070.715,755.603 2071.0993,753.84593 2071.7293,752.85693 2072.4153,751.78293 2071.1873,750.79993 2070.4003,750.60593 2069.2833,750.33093 2069.793,748.723 2068.364,748.531 2067.049,748.355 2066.285,748.3 2065.442,747.198 2064.261,745.653 2064.681,748.322 2064.172,749.017 2064.062,746.977 2058.965,745.063 2061.002,742.897 2059.286,743.927 2059.974,741.254 2059.132,740.738 2059.22,741.787 2058.335,741.564 2057.953,740.925 2057.461,740.1 2057.571,738.848 2056.857,738.161 2056.384,737.706 2055.439,738.299 2055.346,737.552 2055.262,736.873 2055.402,736.623 2055.001,736.056 2054.397,735.202 2054.469,735.267 2053.573,735.096 2053.012,734.99 2053.118,734.069 2052.941,733.682 2052.655,733.055 2052.33,732.089 2051.43,732.314 2050.47,732.554 2050.867,733.431 2050.561,734.115 2048.154,733.619 2048.635,730.017 2048.91,728.279 2049.464,724.779 2050.205,721.223 2050.946,717.756 2051.233,716.41 2052.342,714.622 2052.326,713.298 2052.306,711.742 2052.912,711.653 2053.507,710.267 2054.256,708.522 2058.837,703.841 2057.287,701.92 2056.624,701.102 2056.071,698.876 2055.833,697.873 2055.471,696.345 2054.908,695.826 2054.153,694.534 2053.718,693.79 2052.74,691.703 2052.886,690.891 2053.24,688.929 2053.156,687.501 2052.356,685.614 2051.053,682.543 2048.02,680.687 2046.053,678.061 2045.192,676.91 2044.351,675.777 2044.167,674.29 2044.063,673.454 2044.309,671.532 2045.52,672.626 2045.259,671.608 2046.463,671.826 2046.71,671.112 2047.062,670.099 2046.421,667.729 2046.263,666.641 2046.001,664.843 2047.409,665.763 2048.044,664.756 2048.451,664.11 2048.471,662.713 2047.83,662.185 2047.649,662.752 2047.359,663.256 2046.96,663.698 2045.746,662.195 2045.397,660.438 2044.88,658.658 2044.552,657.525 2042.877,656.404 2042.086,655.522 2040.867,654.164 2039.259,652.725 2038.232,651.244 2037.664,650.424 2037.928,649.651 2037.658,648.765 2037.413,647.966 2036.565,647.332 2036.741,646.418 2035.25,646.855 2034.596,644.89 2034.292,643.824" id="path3918"/>
  </g>
  <path class="landxx sur" d="M 829.77629,728.70955 C 828.95329,728.22055 827.55705,725.1951 827.56805,724.2151 827.58305,722.7801 827.74114,719.2075 827.74313,717.90538 827.74713,715.45966 830.91011,716.13546 832.51665,716.13146 833.27466,716.12946 834.67983,714.0646 833.09629,713.60737 834.72029,711.66037 834.07729,707.37955 837.60629,707.86755 838.71729,708.02155 844.66729,708.53955 844.10629,710.49255 844.88329,708.95855 843.67429,707.89055 846.14729,707.90055 847.06229,707.90455 849.94829,707.78055 850.00629,709.19755 850.48329,708.59455 851.40929,708.93255 852.02629,708.90855 851.87429,708.80355 849.88329,708.06855 850.17829,707.86655 851.49429,706.96555 854.93429,708.35055 856.35529,708.58955 858.84029,709.00655 858.72929,710.74255 857.64629,712.58155 856.46329,714.58755 854.83529,715.72855 854.93029,718.27655 855.01329,720.50455 854.77229,723.15755 855.85329,725.18755 856.71129,726.79955 858.83429,728.15855 857.69029,730.23455 857.29829,730.94555 856.88788,731.74653 856.68788,732.56153 856.49288,733.35753 856.63578,734.46446 856.40625,735.29463 855.84826,737.31318 854.28977,739.56055 853.62467,739.59365 853.05756,739.62185 851.07529,738.17755 850.79729,737.82855 849.83029,736.61155 847.75329,738.08755 846.36229,738.34155 845.24029,738.54655 845.04629,738.79455 844.04129,738.24555 842.98429,737.66855 843.06511,738.13461 842.59529,738.86155 841.55798,740.46655 842.96689,740.38355 843.27829,742.15155 843.67139,744.38342 839.79066,743.14255 838.91966,742.59055 838.28466,742.18855 837.17823,741.62034 836.64611,741.1141 835.9411,740.44337 835.9037,739.91177 835.91284,739.3141 835.93654,737.76198 833.43929,735.73055 833.43729,734.20155 833.43729,733.62455 833.18847,730.63373 832.44547,730.53673 831.91447,730.46773 831.02417,731.02728 830.57929,730.46953 830.13168,729.90838 830.12684,729.09942 829.77629,728.70953" id="sr">
    <title>Suriname</title>
  </path>
  <g class="landxx coastxx pan" id="pa" transform="translate(-29.9017,-45.0745)">
    <title>Panama</title>
    <path class="landxx pan" d="M 668.592,733.032 C 667.901,732.365 669.655,731.536 669.78,730.907 670.017,729.727 668.798,728.438 670.434,727.731 671.768,727.154 669.312,726.326 669.312,725.832 669.312,724.809 670.1134,722.3954 669.8834,721.9944 670.8374,721.04471 671.751,723.23574 672.407,721.872 672.905,722.314 673.632,722.869 673.847,723.528 673.846,724.009 673.822,724.489 673.775,724.967 673.862,725.344 674.527,724.931 674.472,725.48 674.237,727.834 676.552,726.985 678.023,727.272 677.741,726.772 677.429,726.293 677.086,725.832 678.331,725.452 679.545,728.481 680.986,728.68 684.02,729.098 685.723,726.736 688.283,725.78 690.038,725.125 692.088,724.603 693.418,723.259 694.145,722.524 694.553,721.583 695.724,721.573 697.035,721.562 698.307,722.144 699.621,722.016 699.385,722.314 699.169,722.626 698.973,722.953 701.534,722.667 705.022,723.265 706.901,725.23 707.795,726.165 709.801,730.07 711.429,729.577 710.22,731.439 711.5964,732.2704 712.2284,734.1954 712.9094,736.2674 710.745,738.357 709.197,739.441 709.03,738.908 708.766,738.427 708.405,738.001 707.878,738.76885 708.17859,738.89272 708.127,739.49 708.0738,740.10643 707.37671,740.65737 706.92179,742.0284 704.96979,740.6204 703.173,737.215 703.077,734.833 704.714,735.442 704.149,733.472 704.847,732.728 705.621,731.901 707.661,733.948 708.333,734.329 707.883,733.779 707.252,733.463 706.707,733.027 705.932,732.407 706.073,731.373 705.597,730.585 705.798,731.192 705.467,731.726 704.949,732.025 705.272,730.575 704.046,732.084 703.509,730.728 703.677,731.313 703.653,731.889 703.437,732.457 702.604,730.924 702.554,729.374 701.196,728.589 700.583,728.235 700.002,727.818 699.452,727.373 698.473,726.58 698.96,726.619 697.831,726.685 696.274,726.775 693.629,727.108 693.184,729.086 692.845,730.595 690.675,733.181 688.819,732.88 685.893,732.406 689.042,736.735 689.699,737.455 690.203,738.007 691.279,739.139 690.665,739.959 690.123,740.684 688.87,740.205 688.197,740.804 687.317,741.587 685.288,742.805 684.04,742.116 683.744,741.953 683.85,739.959 683.657,739.476 683.278,738.527 683.563,737.074 682.99,736.274 682.601,736.727 682.193,736.751 681.766,736.345 683.002,738.733 680.298,739.33 679.174,737.321 678.22,735.617 678.253,734.366 676.232,733.645 675.572,733.41 674.894,733.992 674.444,733.274 673.882,732.38 673.134,733.088 672.694,732.385 671.983,733.399 670.937,732.331 670.03,732.817 669.022,733.356 669.74,734.535 669.022,735.194 669.107,734.30901 668.9237,733.54034 668.592,733.032" id="path2682"/>
    <path d="M 677.665,738.504 C 677.212,738.966 676.432,739.313 676.673,740.117 676.872,740.781 677.539,741.201 678.169,740.736 677.698,740.067 677.849,739.251 677.665,738.504" id="path4794"/>
    <path d="M 681.336,739.944 C 681.89,739.779 682.37,739.491 682.776,739.08 682.223,739.245 681.743,739.533 681.336,739.944" id="path4796"/>
    </g>
  <g class="landxx coastxx gin" id="gn" transform="translate(-29.9017,-45.0745)">
    <title>Guinea</title>
    <path class="landxx gin" d="M 1186.778,709.704 C 1187.775,708.462 1187.676,706.427 1188.939,705.368 1189.795,704.651 1191.454,704.505 1192.477,703.971 1193.497,703.438 1194.553,704.084 1195.599,703.528 1196.287,703.162 1196.8688,702.50362 1196.77,701.687 1196.6227,700.46957 1194.4683,699.98693 1194.8198,699.04382 1195.1351,698.1978 1196.8497,698.44847 1197.0806,697.59396 1197.3396,696.6356 1196.6179,695.25931 1196.8791,694.96206 L 1200.4947,694.95206 C 1201.0161,695.08706 1201.6016,695.485 1201.9798,695.51368 1202.2618,695.59918 1201.6252,697.23211 1202.7298,696.56125 1203.4878,696.10091 1205.0583,697.15837 1205.4756,697.49006 1205.5336,697.53596 1207.1488,698.03026 1207.1078,698.03426 1208.1608,697.93326 1208.9082,697.13056 1210.0512,697.25528 1211.7148,697.43681 1213.3671,696.71704 1214.569,697.24828 1213.9883,698.41121 1213.1248,699.27042 1214.689,700.58509 1215.5773,701.33165 1216.9048,698.47917 1217.9402,698.87288 1220.4365,699.82212 1218.8232,702.81589 1221.0142,700.32268 1223.8215,697.12809 1225.5352,700.78741 1226.599,700.51827 1227.2343,700.35755 1227.6502,699.75773 1228.228,699.27528 1228.6998,698.88134 1229.8531,698.76972 1230.0769,698.39428 1230.5096,697.66829 1228.7449,695.95195 1231.19,696.58128 1231.7133,696.71597 1232.974,697.31352 1232.875,698.29928 1232.842,698.6258 1233.2901,700.29927 1233.521,700.51728 1234.6843,701.61588 1233.298,704.50191 1234.73,703.72828 1234.9146,705.16474 1237.5802,705.23182 1237.299,706.94327 1236.6631,706.97347 1236.4072,706.93247 1235.999,707.42628 1235.435,708.10856 1235.102,709.00828 1234.871,709.84828 1235.616,709.72627 1236.0489,709.11152 1236.904,709.01928 1238.2922,708.86954 1237.8763,710.64762 1237.8442,711.63555 1237.8202,712.36253 1237.4978,713.55546 1238.839,714.30092 1239.0917,714.44139 1240.2122,715.17599 1240.3863,715.83355 1240.6205,716.71852 1239.7726,717.14483 1239.09,717.65119 1238.6488,717.97845 1238.6443,719.47096 1238.6505,720.14946 1238.6625,721.40778 1239.1019,724.21398 1240.852,723.09628 1240.456,725.07728 1240.668,724.78928 1241.792,726.12028 1240.44,726.32328 1240.435,727.44428 1240.062,728.49628 1242.109,728.83328 1241.916,730.59228 1242.432,732.16828 1241.3763,731.80265 1238.2866,730.59444 1237.9021,731.62155 1237.3977,732.96893 1239.421,734.31028 1240.062,735.26428 1239.2954,734.87074 1238.7552,736.33528 1238.7661,736.38747 1238.9323,737.18471 1239.207,736.92443 1239.0522,737.41595 1238.8948,737.91533 1238.0205,739.19015 1238.0327,739.2959 1237.8212,739.11202 1236.7267,738.5788 1236.1259,739.10814 1235.8046,739.39121 1236.2079,738.5446 1235.2418,738.06356 1234.3033,737.73199 1233.9961,739.73629 1233.7662,740.19501 1233.0996,741.52502 1232.606,741.80228 1231.132,742.39228 1231.05,740.71328 1229.678,740.44628 1228.322,740.95328 1228.697,739.85428 1228.9327,738.72534 1228.9719,737.55828 1228.9869,737.11333 1228.8382,734.68057 1228.7024,734.90747 1228.6114,735.07458 1228.4303,735.51726 1228.4109,734.06455 1228.4109,733.84176 1227.8881,733.03989 1228.3699,732.40879 1226.057,729.75758 1225.8896,731.18426 1225.523,730.99601 1224.7438,731.62036 1224.4979,731.22119 1223.4257,731.11146 1222.6868,731.03586 1221.8893,731.22228 1221.2723,731.59228 1220.8923,731.82128 1219.2773,732.67028 1219.1123,733.03228 1218.9554,731.57967 1220.9419,729.70354 1220.6193,729.26628 1219.3528,727.54944 1221.2917,727.02927 1219.3172,725.76446 1218.7226,725.38359 1219.5247,724.73203 1219.2322,724.19364 1217.1275,720.32603 1216.328,717.32575 1211.5919,718.03919 1210.3164,718.23133 1210.0053,718.62984 1208.8817,718.8861 1206.9061,719.33665 1206.2886,718.3253 1205.4427,720.25928 1204.7653,721.80813 1204.2113,723.60346 1203.2347,724.04037 1202.3536,724.43455 1202.2924,724.75582 1201.8853,725.62874 1201.4016,726.6661 1200.1637,725.82828 1199.4527,726.48028 1199.3697,725.80928 1199.8017,725.32128 1200.4627,725.25628 1200.3167,724.97828 1200.1237,724.73828 1199.8827,724.53628 1199.7047,724.76828 1199.5377,725.00828 1199.3827,725.25628 1199.3207,724.77728 1199.2977,724.29828 1199.3127,723.81628 1199.0497,723.84028 1198.7857,723.86428 1198.5227,723.88828 1198.7487,722.99728 1197.4497,722.82828 1198.0127,721.94528 1196.6907,723.27828 1197.3367,719.82828 1196.8627,719.49728 1196.9327,720.07528 1196.6097,720.28628 1196.0727,720.14428 1196.3027,719.63628 1196.4697,719.10828 1196.5727,718.56028 1196.2627,719.62028 1195.5647,719.25228 1194.9127,718.77728 1193.9857,718.10128 1194.4687,717.62228 1194.1227,716.68928 1193.6297,716.86628 1193.2967,717.20228 1193.1227,717.69728 1193.0127,715.88328 1189.1767,716.03728 1190.2427,713.73728 1189.9157,713.85528 1189.5787,713.92728 1189.2327,713.95328 1189.8017,712.89628 1190.1907,711.71828 1190.5227,710.56828 1190.0867,711.00528 1189.7527,711.50828 1189.5227,712.08128 1189.4037,710.91028 1188.9387,711.51128 1188.5827,712.08128 1188.4137,711.29128 1188.3017,709.61828 1189.3027,709.27328 1188.4987,709.71728 1187.6597,709.69528 1186.7787,709.70328" id="path5400"/>
  </g>
  <g class="landxx coastxx nga" id="ng" transform="translate(-29.9017,-45.0745)">
    <title>Nigeria</title>
    <path class="landxx nga" d="M 1321.058,736.344 C 1321.957,733.224 1320.661,729.511 1322.034,726.563 1322.369,725.842 1323.637,726.48 1324.239,725.787 1325.268,724.6 1324.332,723.162 1325.388,721.974 1326.079,721.196 1326.04,719.965 1326.883,719.474 1327.767,718.958 1329.087,717.858 1328.655,716.602 1328.32,715.627 1327.875,714.819 1329.176,714.552 1331.002,714.178 1329.528,711.567 1329.339,710.784 1329.145,709.986 1329.422,709.284 1329.004,708.512 1328.645,707.849 1328.088,707.322 1327.743,706.65 1327.036,705.272 1328.063,704.106 1328.471,702.825 1328.963,701.282 1328.617,699.637 1328.728,698.036 1328.862,696.102 1329.381,695.703 1330.735,694.372 1331.9,693.226 1332.405,691.497 1332.364,689.903 1332.33,688.558 1333.259,687.757 1334.223,686.955 1335.359,686.011 1336.755,685.751 1338.191,685.694 1340.07,685.619 1341.082,684.941 1342.805,684.505 1343.814,684.249 1345.13,685.407 1345.964,685.825 1347.4,686.546 1348.895,686.125 1350.142,687.332 1351.242,688.398 1351.765,689.67 1352.512,690.959 1352.795,691.448 1353.179,691.967 1353.744,692.151 1354.931,692.538 1355.099,691.205 1356.046,691.101 1359.203,690.752 1360.239,687.922 1363.539,690.265 1363.995,690.588 1364.502,690.969 1364.799,691.453 1364.943,691.688 1365.808,691.57 1366.059,691.705 1367.435,692.442 1367.983,693.469 1369.763,693.536 1370.804,693.576 1372.974,694.146 1373.878,693.744 1375.157,693.175 1375.595,691.517 1376.691,690.69 1379.329,688.7 1383.316,688.529 1386.47,688.828 1388.124,688.985 1389.603,689.429 1391.069,690.202 1392.297,690.85 1393.843,691.804 1395.286,691.274 1396.672,690.765 1397.39,689.18 1398.53,688.321 1399.155,687.85 1399.764,687.41 1400.572,687.366 1401.803,687.3 1400.9492,687.04615 1401.63,686.592 1404.2521,684.84297 1405.0904,687.32338 1406.046,689.10237 1406.8582,690.61432 1408.4892,690.73688 1408.0997,694.9279 1408.0567,695.3913 1408.7761,697.23827 1409.1861,697.56827 1409.6921,697.97527 1410.0755,697.59827 1410.7,697.824 1413.945,698.99706 1410.9927,702.19777 1411.976,703.721 1413.2297,705.66308 1409.2084,707.15551 1407.7515,707.00309 1405.5556,706.77334 1404.7704,711.561 1404.1984,713.293 1403.8734,714.277 1403.6882,715.317 1403.3902,716.299 1403.0572,717.396 1401.8254,717.22854 1401.7974,718.46754 1401.7724,719.57654 1402.043,720.98591 1401.189,721.96991 1400.467,722.80191 1399.43,723.175 1398.459,723.671 1399.539,723.883 1398.469,726.647 1398.389,727.272 1398.166,729.063 1397.01,730.085 1395.219,730.152 1395.386,731.089 1394.664,731.296 1394.165,731.891 1393.542,732.633 1394.0506,733.732 1393.8776,734.616 1393.4766,736.667 1392.4554,738.82429 1391.168,740.514 1390.0602,741.96792 1392.1075,742.85885 1389.551,744.525 1388.4733,745.22741 1389.118,745.991 1388.739,747 1388.489,747.665 1387.6159,748.29728 1387.2763,748.92191 1386.9473,749.52691 1385.8593,749.16891 1385.4013,748.98591 1384.8391,748.7613 1384.968,747.095 1384.93,746.596 1384.887,746.018 1382.9068,745.49382 1382.6348,744.82782 1382.2018,743.76782 1381.676,744.124 1381.388,742.895 1381.168,743.652 1381.113,744.992 1380.148,745.203 1378.931,745.469 1378.4099,744.16136 1377.428,744.479 1375.6591,745.05122 1375.283,747.81097 1374.1335,748.5669 1372.6403,749.54879 1367.8683,754.42655 1368.5039,755.07372 1369.522,756.11024 1367.6911,758.77531 1367.686,759.522 1367.676,760.79303 1367.1981,761.84111 1365.6556,764.30237 1365.0426,764.14537 1364.474,763.274 1364.757,762.696 1364.101,763.121 1363.596,762.472 1363.317,761.975 1363.953,764.342 1364.546,764.878 1361.798,765.277 1360.711,765.435 1357.134,766.15 1358.136,763.919 1357.668,764.825 1357.646,765.067 1356.556,764.999 1355.349,764.924 1355.557,764.612 1354.386,763.847 1354.935,764.248 1355.598,766.316 1354.293,765.794 1353.419,765.445 1354.713,763.346 1353.166,764.135 1353.598,765.003 1353.97,765.827 1353.596,766.799 1352.88,766.496 1352.056,763.915 1352.306,763.127 1351.482,763.84 1352.849,765.921 1352.421,766.895 1351.825,768.253 1351.83,765.066 1351.866,764.783 1351.73,765.18 1351.514,767.362 1351.436,765.43 1351.417,766 1351.338,766.641 1350.936,767.086 1350.915,766.569 1350.772,766.089 1350.506,765.646 1350.814,766.265 1350.789,767.262 1349.841,767.177 1348.131,767.024 1348.601,767.416 1348.126,765.79 1348.144,767.327 1346.947,768.662 1346.686,766.438 1346.704,767.881 1346.328,766.935 1345.277,766.421 1344.24,765.914 1343.542,764.903 1343.016,763.918 1342.521,762.993 1341.902,761.984 1342.164,760.907 1342.339,760.187 1342.434,759.527 1341.426,759.813 1341.24,759.031 1341.323,758.592 1342.123,758.431 1343.674,758.119 1342.224,757.561 1343.375,756.862 1342.554,756.926 1341.828,758.041 1341.02,757.858 1338.442,757.274 1341.969,756.373 1342.585,756.286 1342.168,755.781 1341.688,755.709 1341.145,756.07 1341.167,755.757 1341.19,755.445 1341.215,755.133 1341.058,756.032 1339.922,756.681 1339.485,755.565 1339.089,754.555 1340.303,754.109 1340.855,753.549 1340.201,753.815 1339.612,754.27 1339.125,754.774 1338.138,752.527 1335.954,750.041 1333.499,749.416 1332.306,749.112 1330.877,748.956 1329.646,749.031 1328.685,749.091 1327.283,749.508 1326.456,748.798 1327.502,749.003 1329.039,748.307 1329.626,747.43 1328.556,747.38 1327.797,748.64 1326.746,747.79 1326.371,748.242 1326.274,748.746 1326.456,749.302 1324.732,749.528 1322.974,749.198 1321.266,749.59 1321.209,748.51 1321.817,747.559 1321.846,746.494 1321.876,745.392 1321.383,744.583 1321.657,743.444 1322.106,741.589 1322.146,738.024 1321.058,736.344" id="path5406"/>
  </g>
  <path class="landxx guy" d="M 802.34629,708.11755 C 803.0754,706.68397 804.29911,705.98683 804.08929,703.77755 803.94714,702.28075 804.62744,701.83158 805.53311,701.33576 805.73739,701.22392 806.25758,700.32479 806.94488,700.78055 807.82025,701.36103 807.76758,700.73385 808.52712,700.20575 809.19522,699.74125 810.49388,699.41051 810.84029,698.76455 811.14239,698.20121 810.66848,697.34934 809.94448,697.60834 808.13848,698.25334 809.09929,696.41355 808.33729,695.41655 807.64529,694.50955 808.51109,693.46676 809.09109,692.75176 809.82009,691.85176 809.6707,691.90238 810.7147,691.36938 812.1157,690.65338 812.88081,689.23227 814.15529,688.61555 815.88754,687.77731 814.5016,687.14404 813.7151,685.72455 814.8911,687.09955 816.61129,688.00755 817.96629,689.18055 817.31129,688.17655 815.95729,687.93855 815.44629,686.80455 817.11129,687.55755 818.85329,688.65055 820.08529,690.01555 821.07829,691.11655 822.33829,693.25055 823.57029,693.96855 824.94329,694.76855 825.29929,697.34455 824.81329,698.69855 824.44929,699.71355 823.92329,700.40755 823.79529,701.52355 823.68429,702.48855 823.66029,703.54055 823.08729,704.37355 824.99129,704.02455 823.55329,699.36755 826.48829,700.40955 828.69129,701.19155 831.39829,702.76355 831.93629,705.30855 833.37129,704.01655 834.38729,706.68455 834.58829,707.71155 834.93929,709.49955 834.25629,712.19655 833.09629,713.58855 835.02429,714.13455 833.36959,715.51264 832.93084,716.03728 832.50904,716.54165 827.47345,714.95653 827.75912,718.26655 827.93271,720.27788 827.90826,721.58855 827.59626,723.56255 827.38626,724.89055 828.57929,727.52255 829.55029,728.42155 830.54229,729.33955 829.87929,730.44255 831.36529,730.65255 831.67629,730.69655 832.48329,730.31155 832.67329,730.60855 833.28529,731.56755 833.36429,732.75755 833.53329,733.84855 833.84729,735.88455 835.96529,737.54355 835.96529,739.54555 835.96529,741.57955 838.26629,741.51755 838.99529,742.74955 836.53229,744.32655 834.13929,741.14955 831.78129,743.08755 831.38629,743.41155 831.15129,743.85155 830.79829,744.21055 830.14929,744.87155 829.32829,744.58555 828.54229,744.85855 827.10029,745.35955 827.03629,746.07655 825.33629,746.09855 824.80829,746.10555 824.50629,746.51655 824.16429,746.85355 823.90329,746.89755 823.66329,746.99355 823.44429,747.14155 823.50829,747.44055 823.54729,747.74255 823.56129,748.04855 823.18729,748.79755 821.10329,749.13055 820.34429,748.87055 819.81629,748.68955 820.15729,748.07855 819.40729,748.07255 818.81029,748.06755 817.61429,747.62255 817.38829,747.00955 817.02529,746.01855 815.60629,744.48155 814.51329,744.33455 814.61129,744.09555 814.70829,743.85555 814.80329,743.61455 813.79229,743.67955 813.90929,742.77255 814.03229,742.08155 814.24529,740.87955 813.93129,740.41655 813.20629,739.54155 812.00429,738.09155 812.06029,735.32755 812.43329,733.60855 812.72029,732.28355 813.70229,731.06755 813.70829,729.66855 813.71329,728.45755 814.05029,728.54755 814.75029,727.52555 815.18929,726.88555 816.12529,725.76155 815.71229,724.99855 815.38029,724.38755 814.51229,723.53455 814.51229,722.80555 814.51229,722.10355 814.88229,721.43255 814.07329,721.08055 813.51329,720.83755 812.08929,720.81555 811.74629,720.23855 811.42329,719.69655 812.55129,718.06655 812.66229,717.43655 812.84729,716.38655 812.70929,715.17255 811.87429,714.41855 810.62729,713.29355 808.5805,715.06455 807.0695,714.31755 805.2725,713.43055 803.16129,709.87955 802.34629,708.11755" id="gy">
    <title>Guyana</title>
  </path>
  <g class="landxx coastxx mys" id="my">
    <title>Malaysia</title>
    <path class="landxx mys" d="M 2034.2663,703.94153 C 2034.6249,703.32782 2034.4749,702.50997 2034.7298,701.88412 2035.0907,700.99814 2035.5939,702.66815 2036.6137,703.05169 2037.3595,703.3322 2038.1487,703.32807 2038.8567,703.52607 2039.5207,703.71207 2039.645,704.62705 2040.0073,705.09353 2040.5691,705.81687 2042.6516,705.73867 2041.9055,707.60787 2041.6059,708.35851 2040.5843,710.932 2042.8692,710.40621 2043.6346,710.23007 2044.072,708.58746 2045.2623,708.43553 2046.4615,708.28246 2046.4846,710.09257 2047.3861,709.74101 2048.1346,709.4491 2049.855,706.17293 2048.8456,705.31175 2049.7656,705.60375 2051.1543,705.98153 2051.7673,706.82253 2052.3743,707.65553 2052.6153,708.66853 2053.4513,709.33753 2055.5323,711.00253 2057.3623,712.53353 2058.5983,714.93853 2059.8473,717.36653 2060.7213,719.82553 2060.5843,722.60653 2060.5313,723.67553 2060.3913,724.85853 2060.1873,725.90953 2059.8983,727.39853 2060.1673,727.51053 2060.6163,728.84953 2061.2853,730.85253 2060.0623,733.28253 2061.2533,735.29753 2062.1733,736.85553 2064.2783,737.68453 2064.7823,739.57153 2065.3733,741.80253 2066.8433,743.67653 2067.4083,745.93453 2068.1673,748.96553 2064.7333,747.30453 2066.3073,746.20553 2065.7043,746.22753 2065.1903,745.87853 2064.9373,745.34153 2065.0443,745.54953 2065.6083,747.57653 2064.7723,746.97353 2063.9313,746.36553 2061.9643,747.70653 2061.1973,748.07753 2060.3873,745.43653 2057.1763,744.70853 2055.2593,743.08553 2054.7643,742.66653 2054.3883,742.16153 2053.9153,741.72553 2053.1583,741.02653 2051.9543,741.04553 2051.1173,740.44453 2050.2753,739.84053 2048.9363,738.54853 2048.4713,737.67653 2048.1503,737.07353 2047.6523,737.01653 2047.0543,736.85553 2046.1263,736.60553 2045.7093,735.76953 2044.9633,735.24853 2044.2523,734.75153 2044.4003,734.61553 2044.7853,734.07353 2045.2143,733.46953 2044.6493,732.23653 2044.3983,731.66953 2043.6103,729.89153 2041.6143,728.66553 2040.8913,726.86653 2040.5423,726.00053 2038.6493,725.52053 2040.8163,724.82053 2039.5393,725.00353 2038.2603,722.34453 2038.5993,721.40853 2039.2563,719.59253 2038.2913,717.63553 2037.1963,716.28253 2036.2313,715.09253 2036.4313,711.35253 2036.4263,709.84453 2036.4163,707.63953 2035.0793,705.89453 2034.2663,703.94153" id="path4722"/>
    <path d="M 2120.9563,737.92553 C 2121.0253,738.42353 2121.1153,738.66553 2121.6763,738.71753 2121.2873,737.72053 2121.8023,736.43653 2120.8163,735.69353 2120.7673,736.44553 2121.0023,737.17453 2120.9563,737.92553" id="path4708"/>
    <path class="landxx mys" d="M 2108.3563,741.59753 C 2108.1113,744.16253 2113.7063,746.34753 2113.6163,743.97353 2113.6433,744.64353 2114.6333,744.71753 2114.5663,744.99453 2114.3653,745.84153 2115.9823,746.20753 2116.5793,746.42753 2117.5003,746.76653 2118.0503,746.01953 2118.8393,746.92253 2119.5583,747.74653 2120.6493,747.83753 2121.6773,747.93353 2120.9613,746.95053 2119.4273,747.80953 2119.0493,746.33953 2118.8053,745.38653 2119.5473,744.58753 2120.3773,745.41453 2119.5813,744.91553 2119.5303,744.13753 2119.7963,743.31753 2119.9633,742.92253 2120.0893,742.51553 2120.1753,742.09553 2120.3883,741.09053 2120.9163,741.48253 2121.5273,740.87753 2121.0243,740.93053 2120.5213,740.97853 2120.0173,741.02153 2120.7113,740.35753 2120.0333,739.57053 2120.2383,738.79053 2120.9883,738.79653 2121.6533,739.18353 2122.3973,739.22253 2119.7903,737.26653 2123.7103,734.94053 2125.3223,734.68453 2127.8743,734.27953 2131.5513,733.74553 2133.7043,732.22853 2135.5643,730.91853 2135.6243,728.22653 2137.2743,726.74153 2139.3883,724.83953 2140.6003,722.64753 2140.7573,719.78253 2142.8481,719.82753 2142.7228,720.54747 2143.1348,721.75647 2143.3865,722.49478 2145.4145,724.30397 2146.1655,724.51353 2147.1507,724.78846 2147.2307,721.2789 2146.9705,720.4549 2146.2847,718.28378 2147.4832,718.2044 2148.4812,717.1004 2148.8292,718.9244 2148.4962,721.56053 2150.8373,722.08653 2150.684,720.63297 2150.6898,718.96079 2149.8823,717.86853 2148.6551,716.20848 2150.7139,717.23147 2151.2743,716.78453 2151.7916,716.37194 2153.5863,714.98853 2152.1583,714.43353 2150.0023,713.59553 2152.1103,711.99453 2152.7773,711.06953 2152.5993,712.89053 2154.8493,710.91353 2155.2473,710.13553 2155.8543,708.94753 2156.0473,707.60053 2156.6043,706.39153 2156.9213,705.70253 2157.3173,706.03653 2157.6773,705.59753 2158.1143,705.06653 2158.4833,704.16453 2158.9453,703.54453 2159.9563,702.18953 2159.8403,700.22053 2161.1373,698.97353 2162.1453,700.15953 2160.9363,701.38253 2161.4173,702.64553 2162.2413,702.12153 2163.0023,698.96653 2164.0213,699.15253 2164.0903,699.16553 2166.5383,704.75253 2166.8963,702.21453 2167.0243,703.25753 2168.9593,703.71553 2168.8183,704.96753 2168.7253,705.79453 2167.5733,705.49053 2167.8703,706.62053 2168.2183,707.94253 2168.0483,708.28053 2166.7473,708.76653 2167.5593,708.30053 2168.4293,708.81953 2169.1733,708.39453 2169.7813,708.04753 2170.1103,707.17453 2170.9683,707.53553 2172.5913,708.21753 2171.0733,709.34153 2170.2773,709.63053 2170.4423,711.18953 2171.9473,709.69553 2172.5423,709.31753 2173.8193,708.50553 2175.3313,710.39353 2175.4583,711.50253 2176.3393,710.56853 2177.8383,712.22153 2178.1973,712.94153 2178.9053,711.97353 2180.9093,712.72353 2180.9373,713.87353 2180.9793,715.53453 2177.3333,716.84753 2176.0223,716.74553 2175.1113,716.67453 2171.6163,715.45353 2172.6953,718.00253 2173.1203,719.00653 2175.4403,719.43153 2175.2483,720.64653 2175.9583,720.20153 2176.5273,720.86553 2176.1153,721.53653 2175.6733,722.25953 2174.6683,722.10053 2173.9623,722.15853 2171.7023,722.34053 2170.7623,722.91853 2168.8383,721.29553 2168.6713,721.81353 2169.1906,722.99112 2168.6726,723.35012 2167.8876,723.89412 2166.3938,722.78015 2165.8282,722.37619 2164.522,721.44333 2162.033,722.96979 2160.4083,721.43953 2160.3713,723.51801 2159.0038,721.42233 2158.3123,721.81553 2156.9252,722.60437 2156.4337,722.00144 2155.2592,721.59946 2155.0912,722.36946 2154.4482,722.60746 2154.1102,723.25446 2153.6722,724.09246 2153.4183,725.24353 2153.3033,726.17653 2153.2123,726.91453 2153.5404,728.3947 2153.5852,729.15381 2153.6612,730.44065 2153.0816,729.89937 2152.842,730.95705 2152.4594,732.64636 2153.0925,733.36833 2151.1565,733.62844 2149.0758,733.908 2150.3943,737.06253 2150.9783,737.78453 2149.8123,738.18753 2146.6863,740.15753 2148.0803,741.70153 2148.8893,742.59653 2145.9473,745.61453 2146.2283,747.00053 2145.1092,746.98983 2145.22,745.98047 2143.7753,747.00953 2142.9438,747.60185 2142.1332,746.60882 2141.3975,747.21626 2140.2043,748.20136 2139.7245,748.80175 2138.1845,748.56839 2136.5486,748.3205 2134.5003,747.37917 2134.0795,746.47262 2133.5347,745.2989 2129.2635,745.86942 2128.305,747.20826 2127.8283,747.8742 2127.7581,748.75853 2127.3453,749.52953 2127.2663,749.67673 2125.4636,750.67841 2125.3792,750.7118 2124.0067,751.25517 2122.2901,750.6411 2120.7987,750.51526 2119.3104,750.38963 2118.2754,751.18239 2117.007,751.78339 2115.4793,752.5072 2114.3854,751.17064 2113.6227,750.86426 2113.2057,750.69673 2112.6263,749.3661 2112.19,749.01614 2111.0917,748.1351 2110.121,747.5168 2109.3454,746.64565 2108.8769,746.11932 2108.7263,744.61163 2108.3931,744.15558 2107.0125,743.36399 2108.1963,742.67053 2108.3561,741.59753" id="path4724"/>
    </g>
  <g class="landxx coastxx phl" id="ph" transform="translate(-29.9017,-45.0745)">
    <title>Philippines</title>
    <path d="M 2192.328,737.136 C 2192.809,736.353 2192.813,735.431 2192.038,734.832 2191.715,735.605 2191.817,736.468 2192.328,737.136" id="path5800"/>
    <path d="M 2204.348,744.336 C 2204.442,743.54 2204.155,743.372 2203.489,743.832 2203.758,744.028 2204.045,744.196 2204.348,744.336" id="path5806"/>
    <path d="M 2219.979,749.52 C 2219.81,749.917 2219.833,750.301 2220.048,750.672 2220.397,750.258 2220.374,749.874 2219.979,749.52" id="path5838"/>
    <path d="M 2229.988,748.008 C 2230.129,748.878 2230.956,749.368 2231.773,748.994 2232.608,748.614 2232.55,747.71 2233.078,747.072 2232.337,747.135 2231.89,746.56 2231.208,746.424 2230.504,746.282 2229.975,747.149 2229.338,747.288 2229.528,747.552 2229.745,747.792 2229.988,748.008" id="path5858"/>
    <path d="M 2236.968,741.672 C 2239.63,740.622 2234.813,739.96 2236.968,741.672" id="path5874"/>
    <path d="M 2259.508,745.056 C 2259.735,744.28 2259.52,743.512 2259.359,742.752 2258.111,743.002 2259.193,744.246 2259.508,745.056" id="path5910"/>
    <path d="M 2229.988,742.752 C 2229.617,744.787 2232.408,745.645 2232.62,743.266 2232.697,742.4 2233.072,740.006 2233.734,739.742 2234.261,739.533 2234.64,736.378 2235.841,737.306 2236.705,737.974 2236.351,739.41 2237.037,740.16 2237.227,738.893 2237.683,739.509 2238.047,740.16 2238.329,739.379 2238.093,738.299 2239.058,737.928 2239.489,738.448 2239.406,739.075 2238.908,739.512 2239.899,739.548 2240.522,740.773 2241.508,740.592 2241.207,740.156 2240.835,739.564 2240.859,739.008 2240.872,738.692 2241.567,738.728 2241.649,738.432 2241.866,737.653 2241.002,737.835 2242.006,737.079 2242.623,736.615 2243.232,737.431 2243.699,737.724 2245.288,738.72 2246.723,738.995 2247.256,741.101 2247.544,742.246 2245.993,743.318 2245.871,744.541 2245.748,745.765 2246.406,747.449 2246.665,748.657 2247.064,750.52 2248.685,751.638 2250.278,752.454 2251.009,752.829 2253.606,754.516 2254.395,753.82 2255.027,753.263 2254.692,751.947 2255.886,752.009 2256.004,752.015 2255.654,757.57 2257.353,756.398 2258.534,755.584 2259.56,752.786 2259.377,751.422 2259.12,749.504 2257.662,748.7 2256.918,747.152 2256.469,746.217 2258.743,740.984 2259.553,741.372 2260.176,741.67 2261.555,744.633 2261.827,745.354 2262.093,746.056 2261.941,746.789 2262.003,747.515 2262.093,748.575 2262.952,749.282 2263.107,750.311 2263.107,748.639 2263.856,746.471 2262.596,745.055 2263.217,744.765 2263.723,745.136 2263.966,745.703 2262.897,744.753 2264.482,743.801 2265.003,743.089 2266.011,741.714 2265.302,739.704 2265.031,738.233 2264.809,737.025 2263.225,737.02 2263.855,735.708 2264.22,734.948 2264.248,732.991 2262.885,733.607 2265.203,731.621 2260.962,730.974 2261.016,729.934 2261.047,729.326 2262.23,729.043 2262.462,728.446 2262.878,727.377 2261.688,726.948 2261.375,726.119 2261.228,725.728 2261.661,723.86 2260.937,724.234 2260.023,724.705 2259.854,724.372 2259.36,723.665 2258.775,722.827 2259.37,722.344 2258.086,721.953 2256.676,721.522 2256.42,720.248 2255.187,719.711 2254.442,721.336 2255.752,723.474 2256.243,725.009 2256.354,725.36 2256.866,726.654 2256.227,726.839 2255.394,727.079 2254.248,726.874 2253.886,725.975 2253.209,728.096 2253.934,728.267 2251.946,726.885 2250.075,725.585 2251.7,730.713 2250.151,730.926 2249.156,731.063 2248.962,729.862 2248.044,730.275 2247.089,730.706 2247.353,732.458 2247.052,733.275 2246.691,734.257 2245.259,733.819 2244.546,734.399 2244.132,734.736 2243.419,735.533 2242.849,735.558 2242.261,735.584 2243.579,734.642 2243.46,734.722 2244.205,734.226 2244.361,733.95 2244.173,733.004 2244.027,732.27 2243.02,728.737 2241.797,730.442 2241.61,729.853 2241.249,729.105 2240.497,729.145 2240.917,731.126 2238.44,730.366 2237.858,731.442 2237.17,732.712 2237.758,733.88 2236.176,734.401 2234.576,734.928 2232.21,734.468 2231.453,736.497 2231.129,737.367 2231.331,738.376 2231.231,739.28 2231.102,740.476 2230.48,741.671 2229.988,742.752" id="path5862"/>
    </g>
  <path class="landxx cog" d="M 1355.5963,793.57855 C 1356.1793,791.81555 1356.5313,791.29355 1357.9853,790.18755 1359.2733,789.20855 1359.7273,792.45955 1361.4153,791.42655 1361.6573,791.27855 1361.3453,789.82055 1361.6073,789.27855 1362.1723,788.11355 1360.9633,787.85255 1360.2713,787.41155 1359.6593,787.02155 1361.3903,783.19055 1358.6963,783.93855 1359.6353,782.65255 1359.3673,781.11455 1358.9763,779.68855 1360.0653,779.94455 1360.5163,779.82955 1361.5683,779.84555 1362.0323,779.85255 1362.2543,780.55755 1362.6883,780.45155 1363.9853,780.13555 1366.2743,780.46855 1365.9803,778.52055 1365.7783,777.18755 1365.3253,774.35355 1367.8753,775.72555 1368.8073,776.22655 1370.4613,779.00555 1369.8573,780.04955 1371.0443,779.36755 1372.1673,780.84155 1373.3773,780.54955 1374.4163,780.29855 1375.4143,778.61855 1375.6873,777.66955 1376.0073,778.25255 1376.5753,781.51455 1377.3073,781.45255 1377.8513,781.40655 1379.2693,779.99355 1379.1773,779.37855 1379.0833,778.75255 1379.2313,776.59755 1379.8653,776.22855 1380.7103,775.73755 1381.5063,774.13355 1380.4373,773.41955 1381.8913,772.90655 1381.1773,770.11955 1380.8643,769.10655 1380.3853,767.55755 1381.9883,765.84155 1381.2463,764.47155 1380.8063,763.65855 1379.6783,763.41855 1378.8573,763.41855 1378.4093,763.08355 1378.8103,761.95655 1377.8473,761.86355 1375.3523,761.62255 1377.2933,760.31055 1376.9893,758.77155 1376.7803,757.71255 1377.1453,755.62655 1378.1273,754.91855 1379.1563,754.17555 1380.0543,754.55255 1380.7153,753.15055 1381.2283,752.06155 1380.4106,751.24372 1380.0063,750.29755 1379.2751,748.58632 1379.0359,746.98218 1376.8173,747.33455 1374.8959,747.63972 1373.1943,748.68655 1371.2883,749.01355 1371.8303,747.59355 1371.2343,746.04557 1371.1023,744.61055 1370.9574,743.03586 1371.9572,741.54594 1372.0061,740.74732 1371.9961,740.10332 1379.7003,740.95055 1380.3683,740.87855 1381.6563,740.73955 1382.1093,741.08155 1383.3353,741.17355 1384.3663,741.25155 1384.5213,742.63555 1385.9043,742.25755 1388.6223,741.51355 1391.4673,743.44355 1393.3283,745.27055 1394.2073,744.01955 1393.3383,743.09155 1393.3853,741.77155 1393.4283,740.68055 1394.5153,740.03055 1394.9083,739.07855 1395.4633,737.73855 1396.1413,736.43355 1396.4683,735.01155 1396.7313,733.87055 1396.3143,732.81855 1396.5643,731.71655 1396.7533,730.88055 1396.9813,729.63655 1397.8163,729.17755 1398.8853,728.58955 1400.2323,729.17255 1401.3763,728.68355 1402.6153,728.15355 1403.5773,727.30455 1404.9623,727.94955 1406.3193,728.58155 1407.2453,729.14857 1408.7843,728.89955 1410.6693,728.59455 1413.1344,727.89248 1412.8733,730.53749 1412.65,732.79917 1411.053,735.93536 1409.973,737.87336 1408.703,740.14936 1408.7176,741.64755 1408.6966,744.28455 1408.6846,745.74655 1408.4295,747.23067 1407.9873,748.63555 1407.5029,750.17455 1407.132,751.01255 1407.1123,752.68955 1407.0993,753.77326 1407.0393,754.82855 1406.961,755.93055 1406.884,757.01855 1406.5699,758.3984 1406.3021,759.45718 1405.6205,762.15218 1406.912,763.89812 1404.6656,766.36677 1402.6541,768.57723 1400.5299,769.20262 1399.1731,771.67655 1398.5284,772.85203 1397.9914,774.12414 1397.4717,775.41427 1396.5072,777.80886 1394.201,778.16878 1394.345,779.63037 1394.5814,782.03009 1394.383,784.37535 1394.374,787.03655 1394.364,789.62544 1393.2299,793.61012 1390.7636,794.0423 1389.8658,794.19963 1388.9321,795.14608 1388.6491,796.09408 1388.4981,796.60208 1386.8733,797.29479 1386.3953,797.87114 1385.5356,798.90749 1384.9145,800.1252 1383.9186,801.14874 1382.6532,802.44924 1381.398,800.90355 1380.657,801.85955 1380.657,800.93255 1379.8173,799.25882 1380.4603,798.49749 1380.9735,797.88986 1381.2282,797.34439 1380.176,797.01708 1378.8735,796.6119 1377.099,799.31755 1375.977,797.83055 1375.418,798.41755 1375.515,799.15355 1375.224,799.84555 1374.837,800.76555 1373.607,801.10555 1372.948,801.79055 1372.881,800.58455 1371.201,800.41655 1370.928,799.26955 1370.03,800.91931 1369.1133,795.99926 1367.5669,798.41089 1367.0367,799.23782 1366.1602,799.16844 1365.508,799.73055 1364.8541,800.29408 1363.7355,801.59616 1363.062,802.3438 1361.4788,804.10141 1360.998,800.82855 1360.744,799.88355 1360.081,797.41955 1357.411,795.27355 1355.596,793.57855" id="cg">
    <title>Congo</title>
  </path>
  <path class="landxx caf" d="M 1451.1212,678.07255 C 1451.0027,680.12441 1449.2175,680.40209 1449.4879,681.91055 1449.7519,681.81555 1450.0139,681.71955 1450.2779,681.62355 1450.4909,682.42455 1450.0509,683.14355 1449.7779,683.85455 1451.3759,684.14555 1453.2569,683.73255 1454.7369,684.54655 1455.117,684.673 1455.3015,684.93581 1455.3009,685.41982 1454.8695,687.32716 1455.2209,687.96258 1456.7199,688.21755 1457.714,688.4613 1459.1099,688.28055 1459.9689,688.92855 1460.9699,689.68455 1461.4762,690.52096 1462.5569,691.32455 1464.2426,692.57805 1462.9497,693.54731 1462.9293,694.17699 1462.8953,695.23726 1464.3949,695.99924 1465.2129,696.48324 1466.0929,697.00524 1467.0564,697.58327 1467.9679,698.04955 1469.7467,698.95948 1469.2047,699.44987 1469.8589,700.48555 1470.3213,701.2176 1472.2951,701.58865 1471.7529,702.67455 1471.0309,704.12055 1471.6234,704.37114 1472.5128,705.2013 1473.3273,705.96141 1472.4128,706.59754 1473.8059,707.51255 1474.6942,708.09602 1475.5829,708.39155 1476.5589,708.89255 1478.1299,709.69855 1478.7174,710.64994 1478.6472,712.35861 1478.5812,713.95472 1479.6704,714.83063 1480.1599,716.18155 1478.9011,714.81222 1477.2193,714.25572 1476.1009,715.41942 1475.6269,715.91267 1474.6459,715.79055 1474.0649,715.73155 1473.7829,715.63655 1473.5099,715.65555 1473.2489,715.78855 1472.5959,716.11655 1472.3636,715.50474 1471.8646,715.30974 1470.8646,714.91974 1470.0446,714.10957 1468.9829,714.41255 1466.8598,715.01841 1466.7887,713.60553 1465.4338,713.3968 1464.5715,713.26395 1463.9672,713.8203 1464.1352,714.6773 1464.4102,716.0803 1462.754,716.29468 1461.775,716.60268 1460.799,716.90868 1459.4616,717.3538 1458.5536,716.69078 1458.0666,716.33578 1457.004,714.80759 1456.717,715.76259 1456.322,717.07259 1453.6444,717.94291 1452.5118,718.14891 1450.4389,718.52591 1449.1052,720.47435 1448.2269,719.51553 1447.2358,718.4335 1446.1273,716.86815 1444.4775,718.79215 1443.9758,719.37724 1444.0284,720.25859 1443.6434,720.89859 1443.1174,721.77259 1443.0089,722.95853 1442.0709,723.59953 1440.7629,724.49353 1437.6891,722.54013 1436.0622,722.60084 1435.1132,722.63624 1434.929,722.91573 1433.8187,722.54684 1432.6795,722.16837 1432.2901,722.72098 1431.4988,721.7429 1430.7046,720.76116 1429.0441,721.59477 1427.9301,721.39477 1426.5341,721.14377 1426.5075,719.21997 1425.7295,718.46314 1424.3744,717.14498 1422.3301,716.2334 1421.0292,715.44196 1419.197,714.32724 1416.5859,716.63152 1415.6579,718.23052 1415.1299,719.14052 1414.3729,720.04952 1414.0109,721.03652 1413.7269,721.80752 1412.6219,721.67596 1412.3319,722.11496 1411.8669,722.81796 1413.0406,724.26285 1412.9539,725.07752 1412.828,726.26033 1412.7121,726.77426 1412.7719,729.43152 1411.7739,727.77752 1409.254,729.20771 1407.554,728.95471 1406.791,728.84171 1405.4799,728.22452 1404.7759,727.89952 1403.4189,727.27352 1402.2995,728.5509 1400.9175,728.8239 1398.8825,729.2259 1397.2589,728.52452 1396.8109,731.04352 1396.5689,732.40352 1396.7099,733.88452 1396.4599,735.20152 1396.1259,736.96952 1394.9339,738.67552 1394.3309,740.37552 1393.8759,738.39552 1393.5129,736.63152 1393.3699,734.61852 1393.2259,732.59752 1391.0909,732.70352 1390.0299,731.52352 1389.5089,730.94252 1384.0749,724.59952 1386.5609,724.53652 1385.2749,723.62952 1385.5399,721.63552 1384.2219,720.60552 1382.5119,719.27052 1382.7609,717.35252 1382.6859,715.34552 1382.6579,714.59552 1381.6859,714.08252 1381.7129,713.57952 1381.7529,712.83752 1382.1829,712.07952 1382.2339,711.29752 1382.2909,710.44352 1382.2909,709.52152 1382.0519,708.69052 1381.8239,707.90952 1380.8709,708.27352 1380.5761,707.25354 1381.0663,706.45755 1381.8023,705.92855 1382.5093,705.34555 1383.6073,704.44155 1383.7123,703.40255 1384.4203,702.26655 1385.6243,700.33455 1386.4497,697.44227 1387.8027,695.60327 1389.4787,693.32227 1389.7453,694.882 1391.9013,694.255 1393.0263,693.928 1393.9093,693.69155 1395.0003,693.34255 1396.0773,692.99755 1395.7853,691.82355 1396.9263,691.41455 1397.2383,692.62355 1398.1843,693.31355 1398.8663,694.29455 1399.4693,693.09556 1401.3187,692.51185 1401.8849,692.08161 1403.6695,690.72565 1406.4687,690.18017 1408.6007,690.17517 1410.4667,690.17117 1412.3012,690.70048 1413.2153,688.97355 1413.8599,687.7558 1416.4812,685.5951 1416.3423,684.43255 1416.2563,683.71157 1414.6533,683.89741 1414.5822,682.97268 1414.4731,681.55328 1418.8256,681.51557 1419.9661,681.53461 1423.5273,681.59411 1427.4365,680.19691 1429.7613,677.31355 1430.9838,675.79739 1431.7383,674.16755 1433.3163,672.99555 1434.1153,672.40255 1436.349,670.38344 1435.903,669.45455 1435.3421,668.28642 1436.2628,667.11714 1437.6713,666.77755 1439.2627,666.39385 1440.4951,664.39323 1442.3522,664.34936 1444.5957,664.29636 1445.1131,665.75286 1446.1052,666.95524 1447.6648,668.84522 1449.3555,670.2525 1450.2786,672.27436 1451.2105,674.34432 1451.3255,676.03561 1451.1212,678.07255 z" id="cf">
    <title>Central African Republic</title>
  </path>
  <g class="landxx coastxx lka" id="lk" transform="translate(-29.9017,-45.0745)">
    <title>Sri Lanka</title>
    <path d="M 1908.718,738.864 C 1908.733,742.074 1909.926,755.207 1915.839,753.274 1918.528,752.394 1922.532,750.551 1923.958,747.984 1925.134,745.867 1925.657,742.132 1924.198,740.015 1924.198,740.392 1922.87,737.827 1922.548,737.495 1924.407,738.822 1922.121,736.036 1921.846,735.589 1920.975,734.173 1920.957,732.546 1920.239,731.087 1919.69,731.551 1919.088,731.39 1918.729,730.799 1920.508,730.94 1916.482,725.935 1916.265,725.226 1916.032,724.462 1911.509,719.231 1910.668,719.999 1911.6,720.218 1912.115,721.11 1912.758,721.727 1911.779,721.157 1909.978,718.676 1908.798,720.215 1909.339,721.027 1910.343,721.103 1911.028,721.727 1911.152,720.841 1913.499,722.268 1913.978,722.952 1913.545,722.624 1911.17,722.067 1910.517,722.088 1911.007,722.761 1910.54,722.781 1910.197,723.249 1909.721,723.895 1910.754,724.948 1910.119,725.991 1908.641,728.42 1908.911,732.707 1908.798,735.552 1907.647,735.216 1908.177,733.717 1908.149,732.888 1907.03,734.621 1908.541,737.062 1908.718,738.864" id="path6498"/>
    </g>
  <g id="st">
    <title>Sao Tome and Principe</title>
    <circle class="circlexx stp" cx="1322.9935" cy="751.57587" id="st." r="6.0130301" rx="6.0130301" ry="6.0130301"/>
  </g>
  <g id="ki">
    <title>Kiribati</title>
    <g class="world_map-is_selected landxx coastxx kir" id="ki-">
      <path d="M 68.95528,744.83753 C 69.09928,744.78953 69.24328,744.74153 69.38728,744.69253 68.83928,744.08453 68.25728,742.22953 67.29928,742.17253 67.66328,743.05853 67.83728,743.76253 66.72328,743.54053 67.33128,744.20853 68.30128,744.23753 68.95528,744.83753" id="path4790"/>
      <path d="M 2600.3086,742.38365 C 2600.5376,741.73565 2600.4756,741.14665 2599.5886,741.88365 2599.8296,742.05065 2600.0696,742.21765 2600.3086,742.38365" id="path35688"/>
    </g>
    <circle class="world_map-is_selected circlexx kir" cx="2597.5369" cy="743.23413" id="ki." r="6.0130301" rx="6.0130301" ry="6.0130301"/>
  </g>
  <g id="mv">
    <title>Maldives</title>
    <path class="landxx coastxx mdv" d="M 1785.0883,736.35884 C 1785.1683,735.65884 1784.8993,734.78584 1784.0083,734.98884 1784.5423,735.26884 1784.9613,735.76284 1785.0883,736.35884" id="mv-"/>
    <circle class="circlexx mdv" cx="1784.2205" cy="730.37396" id="mv." r="6.0130301" rx="6.0130301" ry="6.0130301"/>
  </g>
  <g id="nr">
    <title>Nauru</title>
    <path class="landxx coastxx nru" d="M 2531.0983,743.14595 C 2531.3153,743.04895 2531.5323,742.95295 2531.7483,742.85595 2531.5103,742.25895 2531.0003,742.00395 2530.4483,742.42595 2530.6383,742.69095 2530.8543,742.93095 2531.0983,743.14595" id="nr-"/>
    <circle class="circlexx nru" cx="2532.7034" cy="741.48309" id="nr." r="6.0130301" rx="6.0130301" ry="6.0130301"/>
  </g>
  <g id="sg">
    <title>Singapore</title>
    <path class="landxx coastxx sgp" d="M 2063.4263,747.21355 C 2062.4673,747.46555 2063.9353,749.29255 2065.2263,747.57255 2064.6573,747.30155 2064.0573,747.18155 2063.4263,747.21355" id="sg-"/>
    <circle class="circlexx sgp" cx="2065.0579" cy="748.10004" id="sg." r="6.0130301" rx="6.0130301" ry="6.0130301"/>
  </g>
  </svg>