<svg xmlns="http://www.w3.org/2000/svg" class="world_map zoom4" height="127" id="svg2985" version="1.1" viewBox="1860 640 52 102" width="127">
  <title>World Map</title>
  <defs id="defs2987"/>
  <defs>
    <link xmlns="http://www.w3.org/1999/xhtml" href="../css/svg.css" type="text/css" rel="stylesheet"/>
  </defs>
  <style id="style_css_sheet" type="text/css">
/*
 * Below are Cascading Style Sheet (CSS) definitions in use in this file,
 * which allow easily changing how countries are displayed.
 *
 */
/* --- Custom styles for Peace Corps --- */
.world_map .world_map-is_selected {
  fill: #C94112 !important;
}
.world_map .landxx {
  fill: #F2EFE8;
  stroke: #ffffff;
  fill-rule: evenodd;
}
.world_map.zoom4 .landxx {
  stroke-width: 2px;
}
.world_map.zoom3 .landxx {
  stroke-width: 3px;
}
.world_map.zoom2 .landxx {
  stroke-width: 4px;
}
.world_map.zoom1 .landxx {
  stroke-width: 5px;
}
.world_map .coastxx {
  fill: #F2EFE8;
  stroke: #ffffff;
  stroke-width: 2px;
  fill-rule: evenodd;
}
.world_map .oceanxx {
  opacity: 1;
  color: #ccc;
  fill: #ffffff;
  stroke: #ffffff;
  stroke-width: 0.5;
  stroke-miterlimit: 1;
}

/* --- Original Styles --- *
/*
 * Circles around small countries
 *
 * Change opacity to 1 to display all circles.
 *
 */
.circlexx
{
   opacity:0;
   fill:#e0e0e0;
   stroke:#000000;
   stroke-width:0.5;
}

/*
 * Smaller circles around French DOMs and Chinese SARs
 *
 * Change opacity to 1 to display all subnational circles.
 *
 */
.subxx
{
   opacity:0;
   stroke-width:0.3;
}

/*
 * Circles around small, unrecognized countries
 *
 * Change opacity to 1 to display all circles.
 *
 */
.unxx
{
   opacity:0;
   fill:#e0e0e0;
   stroke:#000000;
   stroke-width:0.3;
}

/*
 * Circles around small countries, but with no permanent residents 
 *
 * Change opacity to 1 to display all circles.
 *
 */
.noxx
{
   opacity:0;
   fill:#e0e0e0;
   stroke:#000000;
   stroke-width:0.5;
}

/*
 * land
 */
.landxx
{
}
/*
 * Styles for coastlines of islands with no borders
 */


/*
 * Styles for nations with limited recognition
 */
.limitxx
{
   fill: #e0e0e0;
   stroke:#ffffff;
   stroke-width:0;
   fill-rule:evenodd;
}

/*
 * Styles for nations with no permanent population.
 */
.antxx
{
   fill: #e0e0e0;
   stroke:#ffffff;
   stroke-width:0;
   fill-rule:evenodd;
}

/*
 * Ocean
 */


/*
 * Additional style rules
 *
 * The following are examples of colouring countries.  You can substitute these with your own styles to colour the countries on the map.
 *
 * Color a few countries:
 *
 * .gb, .au, .nc
 * {
 *    fill:       #ff0000;
 * }
 *
 * Color a few small country circles (and the countries):
 *
 * .ms, .ky
 * {
 *    opacity:    1;
 *    fill:       #ff0000;
 * }
 *
 */

</style>
  <path class="oceanxx" d="M 2079.5058,1457.5605 615.24779,1457.5605 C 615.13079,1457.5605 615.07079,1457.5505 614.95179,1457.5215 611.67679,1456.6515 608.40179,1455.7815 605.12779,1454.9105 599.15079,1453.3225 593.22879,1451.5225 587.30779,1449.7385 564.39379,1442.8315 541.76579,1434.6995 519.46979,1426.0115 495.81079,1416.7935 472.34979,1407.0946 449.19179,1396.6816 426.78379,1386.6056 405.17679,1375.0536 383.76379,1363.0356 363.11779,1351.4496 343.01079,1338.8296 323.37979,1325.5996 302.29179,1311.3876 281.47879,1296.8506 261.05379,1281.7006 242.35079,1267.8276 223.73679,1253.6306 206.05279,1238.4686 186.98679,1222.1216 167.82379,1205.7706 150.35279,1187.6906 132.97779,1169.7106 116.33279,1151.0606 100.15679,1131.9976 84.352777,1113.3736 70.086776,1093.4716 56.901786,1072.9246 44.046786,1052.8916 32.093776,1032.1356 22.469776,1010.3426 17.516776,999.12753 12.408776,987.76556 8.7017761,976.06056 5.0657761,964.58166 1.5997761,953.04259 -1.5932239,941.43054 -8.0102239,918.09356 -14.055224,894.78356 -18.234224,870.92056 -22.491222,846.60856 -24.894222,822.19856 -26.943222,797.62156 -28.947222,773.58556 -28.829222,749.40156 -27.225222,725.34856 -25.648222,701.69856 -23.363222,677.92456 -19.274222,654.56456 -15.018224,630.25156 -9.3842239,606.45156 -2.8412239,582.66156 3.5687761,559.35256 10.483776,536.34856 20.265776,514.19856 30.320776,491.42956 42.318786,469.90956 55.502786,448.81656 68.512776,428.00356 83.108777,408.26756 98.686787,389.31756 113.73479,371.01156 129.68979,353.25256 146.15179,336.20856 163.77479,317.96256 182.64579,301.14556 201.89579,284.64756 220.33379,268.84456 239.55379,253.98456 258.95979,239.39656 278.42779,224.76056 298.39379,210.83356 318.55579,197.17556 339.26979,183.14456 360.47879,169.92056 382.15079,157.42556 403.46579,145.13656 425.31479,133.98856 447.60479,123.59356 469.58579,113.34356 492.14979,104.17656 514.74579,95.37556 537.44879,86.532565 560.37879,78.195565 583.63479,70.914565 589.69379,69.017565 595.80079,67.276565 601.90879,65.549565 604.63079,64.779565 607.36079,64.045565 610.09479,63.318565 611.59979,62.918565 613.56579,61.986565 615.13379,61.986565 L 2079.9638,61.986565 C 2079.9798,61.986565 2079.9958,61.986565 2080.0118,61.986565 2079.8448,61.986565 2079.6788,61.986565 2079.5118,61.986565 2102.8268,68.191565 2125.8778,75.323565 2148.5448,83.611565 2171.6378,92.054565 2194.6158,100.87956 2217.2348,110.52956 2240.5208,120.46556 2263.4848,130.95256 2285.8828,142.76456 2306.9808,153.89056 2327.8178,165.78556 2347.8608,178.72156 2368.9418,192.32656 2389.7498,206.29256 2410.2218,220.80056 2429.7368,234.62956 2448.9938,248.98756 2467.6208,263.99256 2486.8818,279.50856 2506.0408,295.30556 2524.0538,312.27356 2541.8708,329.05756 2558.7508,346.67256 2574.9408,365.03656 2591.2478,383.53256 2607.1478,402.30656 2621.4508,422.41856 2635.3488,441.96256 2648.4468,462.42756 2659.5898,483.67756 2671.1238,505.67356 2681.1048,528.35656 2688.6188,552.05056 2692.2518,563.50656 2695.3368,575.14756 2698.5608,586.72256 2701.7738,598.25356 2704.9238,609.81956 2707.4578,621.52456 2712.6258,645.40556 2716.6718,669.47856 2719.1178,693.79656 2721.5718,718.19256 2723.1798,742.56356 2722.9808,767.09056 2722.7908,790.65456 2720.6908,814.43756 2717.7688,837.81156 2714.7368,862.07056 2710.5198,886.16156 2704.6398,909.90056 2701.6808,921.84356 2698.3948,933.69556 2695.0378,945.53154 2691.7468,957.13466 2688.5558,968.83466 2684.3988,980.16156 2676.0918,1002.8036 2666.1688,1024.8836 2654.1338,1045.8046 2641.9958,1066.9066 2628.8498,1087.4866 2614.2378,1106.9696 2599.1658,1127.0666 2582.6678,1145.9446 2565.8948,1164.6296 2549.8298,1182.5266 2532.8918,1199.7316 2514.8648,1215.6616 2496.0788,1232.2646 2476.8978,1248.3126 2457.1558,1263.7656 2438.2988,1278.5276 2418.9668,1292.7306 2399.3188,1306.4206 2378.7018,1320.7866 2357.7538,1334.6106 2336.4758,1347.9776 2326.4088,1354.3016 2316.0058,1360.1326 2305.6418,1365.9516 2295.0348,1371.9086 2284.3858,1378.0166 2273.4448,1383.3436 2250.7338,1394.3986 2227.7768,1404.7266 2204.3888,1414.2665 2181.7848,1423.4875 2159.0678,1432.2695 2136.0228,1440.3345 2117.4118,1446.8465 2098.5568,1452.4975 2079.5058,1457.5605" id="ocean"/>
  <g class="landxx coastxx ind" id="in">
    <title>India</title>
    <path class="landxx ind" d="M 1780.7563,553.89353 C 1780.6653,552.19553 1782.5303,552.16553 1783.7543,552.16553 1785.1983,552.16553 1784.4863,549.93753 1784.4263,549.14153 1785.3023,549.65103 1787.7702,549.3279 1788.5603,549.41353 1790.5295,549.62695 1791.8758,550.69919 1794.1749,550.27721 1794.3179,550.25101 1794.2209,549.13094 1794.863,549.11555 1795.6146,549.09755 1796.6664,547.85553 1797.7173,548.39153 1798.9838,550.4023 1800.0829,549.77003 1801.8563,548.34853 1799.4438,546.61911 1801.4049,546.36264 1801.2496,545.81572 1800.4299,542.92827 1798.4517,541.32503 1797.8063,539.75053 1797.3777,538.70484 1798.0378,536.91034 1796.1323,537.27653 1793.7126,537.74153 1792.8494,535.96479 1792.9273,534.41658 1792.9933,533.10524 1793.4903,530.83415 1792.4483,530.17958 1790.7643,529.12165 1788.0303,529.68538 1787.2907,527.13153 1786.7615,525.30399 1788.347,523.18275 1789.336,521.84675 1790.047,520.88775 1790.3015,520.06353 1790.8495,519.00953 1791.2345,518.26653 1792.3303,516.72299 1793.4243,516.99199 1794.8453,517.34199 1794.7183,519.57867 1796.2713,519.72067 1797.1563,519.80167 1797.8501,519.13867 1798.6151,518.79867 1799.5581,518.37967 1800.715,518.53764 1801.6993,518.32253 1803.8031,517.86274 1803.5573,516.1165 1804.8923,514.76553 1806.5044,513.13423 1805.5383,510.94753 1807.8773,509.61953 1810.0163,508.40553 1810.8913,506.89453 1811.5523,504.51153 1812.0363,502.76953 1811.5683,500.46153 1813.6803,499.74253 1814.4013,499.49753 1815.2783,499.33653 1815.6753,498.59653 1816.2333,497.55553 1814.8823,497.32153 1814.8853,496.79653 1814.8853,496.16453 1816.5523,493.93853 1816.9293,493.36053 1817.6353,492.28353 1819.3553,491.70253 1819.8553,490.53253 1818.3193,490.50253 1818.7073,489.05853 1818.6953,488.01153 1818.6803,486.74053 1817.5153,485.78453 1817.5473,484.69353 1817.6013,482.78453 1821.2813,482.42353 1822.3393,481.19253 1824.1533,479.07853 1819.1116,478.87353 1818.2106,478.54353 1817.2846,478.20453 1817.5253,476.83153 1816.5453,476.30053 1815.8763,475.93753 1815.0703,475.94353 1814.3763,475.62853 1814.6703,474.86353 1814.3453,474.42653 1813.6883,474.07653 1812.9883,473.70253 1810.9803,472.53453 1811.5203,471.62053 1812.0333,470.75453 1812.4013,469.83153 1811.4003,469.13453 1810.7863,468.70753 1809.7663,467.80153 1810.6503,467.04453 1811.0023,466.74353 1813.0693,465.35053 1811.3193,465.19453 1811.0333,465.16853 1808.3233,465.14653 1809.1043,464.16053 1810.0833,462.92453 1808.7823,463.01653 1808.0123,462.41753 1807.0523,461.67153 1808.6543,459.71753 1809.2813,459.33153 1810.8943,458.33853 1812.5783,459.09853 1814.2483,459.47053 1816.1403,459.89153 1818.0143,460.36453 1819.8993,460.80253 1821.5063,461.17553 1822.4603,460.17453 1823.8853,459.67753 1825.1283,459.24453 1826.4383,459.30053 1827.6683,458.90653 1828.0523,458.78353 1830.2443,456.55353 1830.0763,456.26453 1829.6203,455.48153 1831.9273,454.28453 1832.5473,453.78153 1833.0453,453.37853 1833.5853,452.93153 1834.2003,452.71653 1834.7163,452.53553 1834.7099,452.76883 1835.0737,453.03071 1836.5117,454.06605 1836.5429,454.49147 1837.0473,455.11653 1837.8842,456.15373 1838,458.35054 1839.3958,459.34953 1841.1404,460.59805 1844.1605,462.04167 1845.7305,463.16704 1846.2291,463.52445 1844.9672,464.07139 1844.6982,464.39908 1844.2229,464.97795 1844.4167,464.98692 1844.8943,466.80453 1845.295,468.32979 1846.031,469.63455 1847.1146,470.86653 1848.0908,471.97641 1849.9105,471.89762 1850.6567,472.65739 1851.0379,473.04558 1850.7467,473.69953 1850.9732,474.17253 1851.2292,474.70653 1851.4595,475.07756 1851.8043,475.54553 1853.0291,477.20784 1851.2964,477.8014 1850.575,478.41271 1849.6031,479.23623 1848.8638,480.49841 1847.6694,478.65912 1846.7164,477.19154 1845.9487,476.90253 1844.4733,478.00553 1844.9933,478.59753 1845.1863,479.27153 1845.3903,480.01053 1845.6193,480.83753 1846.385,481.29648 1846.9653,481.85153 1848.6161,483.43061 1847.7903,484.57553 1848.8403,485.68853 1849.4621,486.34768 1848.6466,489.16164 1850.1314,488.67807 1850.66,488.50594 1850.9168,488.01706 1851.4782,487.82439 1852.3588,487.5222 1852.7479,488.52339 1853.0849,489.06239 1853.5649,489.83239 1854.9533,491.44353 1855.8463,491.62153 1856.9133,491.83453 1857.8662,491.11567 1858.7612,492.13367 1859.3042,492.75167 1859.8465,492.70477 1860.5233,493.05353 1861.1772,493.39053 1861.203,494.00053 1861.0683,494.46153 1860.8451,495.22538 1862.1001,495.34335 1862.7813,495.52753 1864.9031,496.10123 1866.4192,496.65177 1867.7343,498.23753 1865.7393,498.35553 1865.5431,502.10059 1864.1671,503.06259 1864.0351,503.15459 1863.7384,504.22008 1863.5814,504.55308 1863.0184,505.74008 1864.1516,505.53782 1863.9639,506.66407 1863.7888,507.71493 1862.3012,509.04338 1863.1889,509.98107 1863.8789,510.70991 1866.5043,512.86953 1866.5043,511.41353 1867.7153,512.16673 1869.4601,512.83281 1870.5043,513.48362 1872.3068,514.60709 1872.7773,515.46607 1874.2253,516.33007 1874.6531,516.58536 1877.2451,518.34048 1877.8481,518.09948 1879.2601,517.53448 1880.3543,518.91453 1881.5553,519.53153 1882.0673,519.79453 1883.8113,519.82153 1884.0893,520.16253 1885.0573,521.34953 1885.1913,521.67153 1886.8833,522.01453 1887.7733,522.19553 1888.6455,522.83275 1889.5285,522.17875 1890.7065,521.30575 1891.6893,522.28253 1893.0043,522.86153 1892.1523,520.60053 1897.8093,522.89753 1898.1973,523.01553 1899.7553,523.49053 1899.2233,525.58339 1900.6573,525.91539 1901.8863,526.19939 1903.1468,526.7228 1903.9048,527.7948 1904.5118,528.6528 1905.8933,527.48453 1906.6183,527.42353 1908.3933,527.27453 1907.5223,529.94953 1909.8653,528.99053 1910.5553,528.70753 1913.5793,529.75153 1914.2433,530.15053 1915.9533,531.17553 1916.3423,530.15553 1917.9143,529.62953 1918.0471,530.75182 1919.3818,531.59224 1920.7473,531.04053 1921.1689,530.87021 1923.4551,531.04553 1924.0161,531.05753 1925.2171,531.08453 1925.49,530.77748 1925.667,529.48648 1925.97,527.28648 1924.8384,526.81285 1923.9964,524.92985 1923.5344,523.89685 1923.9234,522.44153 1924.0204,521.34253 1924.1364,520.00953 1923.8184,518.97753 1923.7454,517.67753 1925.0804,517.58453 1926.6054,516.45453 1927.9394,516.84253 1930.5584,517.60353 1928.2664,520.84853 1929.3854,522.21253 1929.5864,522.45753 1930.5714,523.03553 1930.2654,523.46253 1929.7934,524.12053 1929.3514,524.03753 1929.8754,524.97953 1931.0294,527.05153 1932.5704,526.98853 1934.5804,527.25053 1935.9324,527.42653 1936.7704,528.62353 1938.1114,528.48153 1938.6734,528.42253 1939.4479,528.3408 1939.9359,528.0098 1940.4429,527.6658 1941.5624,526.44453 1942.2904,526.95353 1944.1144,528.22753 1946.3874,527.80953 1948.4774,527.72953 1949.1154,527.70553 1950.0808,526.80194 1950.4388,527.22994 1950.9888,527.88894 1952.9284,527.30724 1953.7314,527.23053 1955.6892,527.04346 1953.4063,525.88398 1953.6814,524.33253 1954.2768,520.97535 1950.705,522.95655 1950.3054,521.31053 1950.0714,520.34681 1949.3634,519.07453 1950.8064,519.42453 1951.9624,519.70553 1953.117,519.28256 1954.131,519.03099 1955.582,518.67099 1956.6915,519.21007 1957.0404,516.57107 1957.1901,515.43876 1959.9774,514.34407 1960.1074,512.82707 1960.3154,510.43307 1963.2481,511.73953 1964.6371,510.37753 1965.7511,509.28653 1966.3991,508.02339 1967.6451,507.03139 1968.1041,506.66539 1968.7304,506.23153 1969.2414,505.93953 1969.6814,505.68753 1971.8224,507.26253 1972.2734,507.52753 1971.7424,506.99553 1972.0001,506.9158 1972.9201,507.4188 1973.6351,507.7198 1974.4044,508.28653 1975.2124,508.25353 1976.0384,508.21953 1975.9084,507.23253 1976.2074,506.70653 1976.7404,505.76653 1978.5295,505.04707 1979.4745,504.66807 1979.6835,504.58507 1981.9143,506.58153 1982.1653,506.80853 1980.47,508.26187 1980.6833,508.15002 1981.2003,508.71553 1981.7467,509.31328 1983.0644,508.13653 1983.4334,508.03153 1983.1264,509.08753 1985.0601,509.82026 1984.7231,510.65826 1984.2071,511.93226 1983.6234,512.30153 1983.3594,513.57653 1983.1704,514.48453 1984.8004,513.40775 1985.1164,513.31975 1986.4624,512.94675 1987.8387,514.70012 1989.2077,514.28412 1990.3817,513.92712 1991.2134,515.41053 1991.2134,516.40853 1991.2134,516.78153 1991.7634,517.08753 1991.7024,517.36553 1991.5564,518.03453 1990.4602,518.82128 1990.0294,519.29353 1987.5914,521.9661 1991.2184,522.99013 1991.6424,525.02353 1989.9203,525.75421 1989.2453,522.92262 1988.2284,523.13053 1984.6932,523.85331 1983.8449,523.68762 1983.1314,524.89453 1982.5314,525.90939 1982.1201,526.7003 1981.2504,527.02053 1980.5544,527.22927 1980.8008,527.55584 1980.4248,527.54353 1979.9708,527.91153 1980.4348,528.21075 1979.6958,528.59953 1979.335,528.78924 1978.1202,528.36779 1977.5634,529.65753 1977.2236,530.44475 1977.4674,531.42953 1977.6944,532.24253 1977.8674,532.86253 1978.3442,533.28891 1978.5304,533.86853 1978.7795,534.64406 1978.2593,535.38904 1978.1984,536.14858 1978.0282,538.27404 1975.1526,539.45385 1975.9416,541.15985 1976.2246,541.77185 1977.0024,542.52955 1976.9524,543.2534 1976.7054,546.82541 1974.7934,549.55477 1974.0724,553.24853 1973.3484,552.67353 1971.4834,552.11853 1970.5774,551.88453 1970.1224,551.91653 1969.6724,552.07612 1969.2264,552.17212 1968.6494,552.05512 1968.593,551.54812 1967.907,551.68812 1968.651,553.72412 1968.9704,555.44153 1969.0874,557.60053 1969.1364,558.51053 1969.2424,561.38453 1967.5914,560.16053 1967.8464,562.12953 1967.6894,563.57353 1968.4684,565.43353 1968.7454,566.09453 1969.3914,568.31353 1967.8814,567.43253 1968.0269,571.06315 1966.6862,569.39685 1965.3604,567.86553 1965.4844,568.44753 1965.1488,569.14499 1964.6858,569.50499 1963.488,564.56404 1961.995,560.07563 1960.4163,554.77599 1960.1743,553.47799 1958.6435,555.45399 1957.8395,554.74499 1958.2898,555.3203 1958.022,556.16794 1957.6337,556.88826 1957.144,557.79656 1957.6337,558.68628 1957.6747,559.58058 1957.7117,560.48587 1957.1543,561.43706 1956.0484,560.62853 1955.2213,560.02381 1954.9349,558.89179 1954.2712,558.36053 1954.3632,558.84553 1954.3392,559.32653 1954.2022,559.80053 1953.5544,558.32553 1952.5135,556.88639 1952.1997,555.39739 1951.866,553.81438 1953.6152,552.36953 1953.1912,551.01553 1953.9362,551.11453 1955.2692,551.34953 1955.1312,550.15153 1955.6162,550.90953 1956.3112,549.75653 1957.0012,550.36853 1957.2242,548.47853 1959.9162,546.57253 1958.7312,544.31953 1959.1822,544.36153 1960.7754,544.43985 1959.8904,543.53585 1958.8544,542.47685 1957.2289,541.7621 1955.7812,541.72853 1954.556,541.70013 1953.6174,541.56343 1952.0089,541.62021 1950.3065,541.68031 1948.8024,541.90928 1947.1172,541.78453 1944.6791,541.60405 1939.6547,542.09191 1939.9652,538.89253 1940.097,537.53451 1939.4392,532.97653 1937.2812,533.15953 1937.6272,533.77353 1937.4532,534.35353 1937.2112,534.96053 1936.2082,534.40553 1934.7149,534.14294 1933.9989,533.15994 1933.3999,532.33694 1933.2212,530.82653 1931.8812,531.07253 1932.3452,531.49153 1932.6822,531.99553 1932.8912,532.58453 1932.2573,532.38187 1931.518,532.44087 1930.5732,531.91453 1930.1231,531.6638 1930.0397,530.97153 1929.6097,530.62753 1929.0317,530.16553 1928.2302,529.84853 1927.6312,529.41653 L 1927.4385,530.37231 C 1927.7773,530.38391 1928.7158,530.48867 1929.0012,531.35953 1926.7312,532.22053 1925.2662,535.44953 1928.0222,536.54153 1929.1222,536.97753 1929.5192,538.16953 1930.4642,538.79353 1931.1572,539.25153 1932.4522,538.44953 1932.5612,539.42453 1932.7182,540.84553 1934.6782,540.30753 1933.7512,541.80053 1933.1252,541.47253 1932.1142,541.57553 1931.4422,541.63953 1930.5322,541.72653 1930.3202,541.78631 1930.2312,542.62553 1930.1362,543.52155 1929.2662,545.39138 1928.4912,543.67253 1928.3952,545.15056 1926.7013,545.92275 1928.8068,547.52867 1929.9344,548.38873 1931.5943,548.3167 1932.5532,549.12953 1934.3704,550.66992 1933.4966,551.29616 1933.7402,552.06623 1933.9901,552.85643 1931.8091,553.62539 1933.1091,554.8726 1934.2575,555.97432 1934.2182,555.78098 1934.5463,556.17253 1934.8623,556.54958 1934.3936,557.42753 1934.6073,558.16453 1934.6883,558.4438 1935.6516,558.42407 1935.7886,558.46507 1936.5556,558.69407 1936.1301,559.91953 1936.1851,560.37653 1936.2941,561.30153 1936.5705,561.89776 1936.7039,562.82853 1936.8846,564.08953 1937.2667,564.81939 1937.7144,565.95339 1938.2017,567.18767 1938.6849,568.67553 1938.0719,569.88053 1937.7919,569.70153 1937.5049,569.53353 1937.2119,569.37653 1937.4329,569.85853 1939.1239,571.75453 1938.5399,572.23953 1937.9189,572.75753 1937.0779,571.83253 1937.0609,571.24853 1936.9279,572.03053 1936.3369,572.71553 1935.8409,571.68053 1935.3189,570.59053 1935.9459,569.21753 1935.9109,568.08053 1935.2309,568.41653 1935.9699,569.10353 1935.1899,569.73553 1935.3719,568.97353 1934.8839,568.24553 1935.2599,567.50453 1933.8999,568.54153 1935.1359,571.89753 1934.9009,573.33653 1934.5899,572.38453 1934.9599,570.84953 1934.0409,570.16853 1934.0519,570.27253 1934.2789,572.84253 1933.8499,572.55853 1933.7139,572.37653 1933.5919,572.18653 1933.4849,571.98753 1932.6609,570.82453 1933.3859,573.71453 1932.6719,571.53653 1932.9969,572.05153 1933.0209,572.57953 1932.7419,573.12053 1931.7549,572.22753 1931.7789,570.30353 1931.6619,569.08853 1931.4789,567.21853 1930.0049,567.57753 1929.4319,566.06453 1929.6719,567.58053 1932.1389,567.28753 1930.9789,569.22853 1929.6699,571.41553 1928.4489,572.30653 1925.9719,573.04953 1924.6589,573.44453 1922.8609,574.13253 1922.5689,575.66653 1922.3699,576.70953 1923.3519,580.12053 1924.1729,580.89653 1923.6669,581.28753 1922.8809,581.68853 1922.6379,582.32153 1922.2679,583.28653 1923.2089,583.36153 1922.0559,584.27853 1920.6809,585.37153 1920.1609,587.47853 1918.4839,585.28953 1918.7219,586.11253 1919.6839,586.50853 1920.3629,586.87353 1918.2619,587.92453 1916.0119,588.98953 1913.6639,589.32053 1914.4039,588.91653 1914.6109,587.12053 1913.4369,587.52553 1912.2339,587.94053 1911.1659,589.67653 1911.5739,590.90453 1911.7239,590.44053 1912.8289,588.90153 1913.2339,589.68053 1912.4999,589.89053 1911.3729,591.80753 1910.6709,592.49253 1909.0939,594.02953 1908.2939,595.90453 1907.1969,597.79453 1906.0879,599.70653 1904.7839,601.60353 1902.7079,602.54753 1900.9269,603.35753 1900.7249,605.72953 1898.9729,606.52853 1900.1349,607.22753 1894.4969,609.85653 1893.8699,610.42153 1893.2579,610.97353 1892.6069,611.77753 1892.2859,612.53753 1891.7679,613.76453 1893.4059,614.07653 1892.8579,615.47753 1891.7739,618.25153 1888.4879,618.01153 1886.0859,618.13053 1885.1079,618.17953 1884.9969,618.88353 1884.7769,619.71553 1884.5369,620.62353 1883.5739,622.23853 1883.6419,623.08853 1882.8679,622.70453 1882.8509,621.92253 1882.5619,621.21653 1882.8799,622.02953 1882.3789,622.78253 1882.1319,623.52053 1882.6659,621.08453 1879.1399,622.46553 1878.5129,623.64653 1877.5929,625.37753 1876.4059,628.02553 1877.0889,629.95653 1877.6509,631.54453 1878.3009,633.26853 1878.3239,634.89453 1878.3639,637.68053 1878.9089,639.89153 1879.6809,642.60153 1879.4459,642.13353 1878.3339,639.89253 1878.4519,641.73753 1877.8069,640.41553 1877.8289,642.12953 1878.3179,642.42953 1878.9459,642.81353 1879.5549,642.85953 1879.9839,643.54453 1880.7709,644.80053 1880.0929,648.06853 1879.8919,649.42753 1879.5349,651.85553 1878.1019,653.70153 1877.3829,655.98653 1876.8219,657.76553 1877.6609,660.34253 1876.3609,661.82553 1876.5829,661.60953 1876.8229,661.41853 1877.0819,661.25053 1877.8899,662.19553 1877.8979,663.54653 1877.8879,664.71853 1877.8699,666.64353 1878.3069,668.54553 1878.2419,670.46653 1877.7339,670.42753 1877.2299,670.35653 1876.7319,670.25053 1878.6789,670.87953 1876.6889,670.56853 1876.3419,670.47553 1875.6179,670.28053 1874.5629,669.90753 1874.1169,670.79653 1873.8859,671.25853 1873.5229,671.81853 1873.7979,672.34353 1874.2079,673.12853 1873.0549,673.89453 1872.6909,674.49753 1871.9829,675.66753 1870.5999,678.23153 1872.6129,679.08553 1873.1349,679.30753 1873.7909,679.24253 1874.3049,679.03753 1874.6659,678.89253 1875.4209,680.19853 1875.6519,680.40253 1873.6719,678.35553 1870.3739,679.63453 1868.2319,680.69053 1865.4449,682.06353 1866.7189,684.67453 1865.3779,686.78853 1864.6989,687.85553 1863.3669,688.58953 1862.2459,689.08953 1860.4799,689.87753 1859.4749,689.08353 1858.1519,687.89153 1857.5419,687.34053 1852.8279,682.37053 1854.3319,681.98753 1853.0059,682.46253 1852.4929,679.80953 1852.0229,678.69353 1851.3559,677.10753 1850.6419,675.23253 1851.0909,673.49153 1851.4789,674.11653 1851.6359,674.85353 1851.6709,675.57953 1851.8399,673.84453 1851.5719,677.25053 1852.6099,677.38053 1852.2529,676.43353 1852.5259,675.35453 1852.0999,674.42853 1851.7359,673.63653 1850.9439,673.20853 1850.8799,672.26853 1850.9139,674.10953 1850.3009,672.32553 1850.3409,671.92953 1850.4339,670.99753 1849.8969,670.70753 1849.4659,669.70253 1848.6979,667.91353 1848.0839,666.04653 1847.3989,664.22453 1847.1409,663.53853 1842.9339,656.69353 1843.1699,656.35653 1840.5199,653.09453 1838.6869,649.17053 1837.7739,645.08253 1837.4499,643.62853 1837.2649,642.30353 1836.7429,640.93753 1836.3959,640.03153 1836.0209,639.18853 1835.6519,638.29853 1835.3739,637.62753 1834.3369,635.91253 1835.5399,636.34053 1834.2089,635.89553 1834.5159,634.04753 1833.8099,633.10053 1833.3619,632.49853 1831.1369,631.29953 1833.0199,630.94053 1831.9069,631.44853 1831.3469,630.12053 1831.0269,629.30653 1830.7759,628.66753 1830.5709,628.00353 1830.2529,627.39353 1829.9269,626.76853 1828.9279,626.47953 1830.2109,626.33153 1829.5789,626.17153 1829.0429,625.27053 1829.0629,624.64953 1829.0839,624.00553 1828.3749,623.80753 1827.8789,623.10953 1826.6809,621.42353 1825.8929,619.41353 1825.2619,617.45653 1824.8229,616.09553 1824.4509,614.66753 1824.4509,613.22753 1824.4509,611.72753 1823.6389,610.32653 1823.4009,608.85253 1823.1779,607.47153 1822.3989,606.28853 1821.9799,604.95953 1821.7059,604.09053 1820.1329,601.21753 1821.5709,601.77853 1821.3089,601.44653 1819.3199,598.87653 1821.0709,599.83553 1820.7859,598.78153 1819.5139,598.10753 1819.9909,596.88353 1820.2339,597.07153 1820.4739,597.26353 1820.7109,597.45953 1820.7529,596.84453 1820.5359,596.34053 1820.0609,595.94653 1821.1029,595.53653 1820.5499,594.53653 1820.3509,593.78753 1820.2899,594.39353 1820.0749,594.94153 1819.6309,595.37153 1818.8519,594.11653 1819.0899,591.29153 1820.8509,593.28353 1820.5619,592.57753 1817.9469,592.13253 1818.7699,591.13953 1819.0569,590.79353 1817.8509,589.36853 1817.7169,588.92753 1817.3589,587.74653 1817.3179,586.58053 1817.5619,585.37053 1817.9449,583.47853 1819.0749,581.49953 1818.3179,579.56253 1818.2199,579.31053 1817.7129,575.99853 1816.7519,577.22553 1817.0819,576.35753 1816.8889,576.33253 1816.1719,577.15353 1817.0619,576.09553 1815.5259,575.77453 1815.7859,574.99453 1815.9539,574.48853 1816.0919,573.94653 1816.1679,573.41953 1816.2799,572.65153 1818.8649,572.16753 1819.3419,571.25053 1817.4529,572.66553 1813.1039,571.56653 1816.0319,569.44953 1815.0369,569.89253 1813.8699,569.19453 1814.5919,568.08253 1815.2099,567.13053 1816.1929,568.09853 1816.8219,567.14553 1815.8369,567.39853 1813.7739,567.03853 1813.2209,566.06553 1813.1579,566.55653 1812.1929,566.74653 1812.2109,566.64153 1812.1239,567.11353 1812.8309,567.18953 1812.8489,567.91553 1812.8739,568.89353 1812.1789,569.18853 1811.3509,569.44853 1811.5369,569.69453 1811.7299,569.93453 1811.9309,570.16953 1811.3529,570.01553 1810.9329,570.34953 1810.7709,570.88953 1812.8029,571.51853 1813.6799,572.84753 1812.3429,574.73553 1811.8679,575.40453 1812.1279,576.33953 1811.2059,576.68653 1810.0869,577.10753 1809.0789,577.85253 1808.0599,578.46553 1806.2579,579.54853 1804.2069,580.88253 1802.0279,580.17053 1799.8309,579.45353 1797.2229,577.39253 1795.9199,575.49853 1793.9799,572.68153 1791.0889,570.91153 1788.8209,568.43853 1788.2239,567.78753 1786.5289,565.57253 1788.4869,565.29953 1789.0209,565.22553 1789.0469,566.24853 1789.4489,566.46653 1790.2169,566.88153 1791.6319,566.55253 1791.7709,565.56253 1792.5259,566.62753 1796.0239,564.62453 1796.7319,563.90653 1797.3459,563.28253 1797.2299,562.31553 1797.6709,561.60253 1798.1359,560.85353 1799.3389,560.35053 1798.3209,559.44253 1797.8079,559.95053 1798.3489,561.15353 1797.3539,561.09853 1796.2799,561.03853 1795.4049,561.24653 1794.3659,561.59853 1793.4819,561.89853 1793.1349,562.72253 1792.1279,562.67453 1790.9009,562.61553 1789.6809,562.02653 1788.6109,561.47053 1787.5439,560.91553 1786.3349,560.43253 1785.3659,559.72553 1784.5929,559.16153 1784.5379,557.75953 1783.6179,557.42953 1780.5069,556.30553 1784.1489,553.89653 1785.0709,553.17953 1783.4119,552.99153 1782.3249,556.16453 1780.6799,555.41053 1780.9979,554.91453 1781.0219,554.41053 1780.7559,553.89353" id="path5490"/>
  </g>
  <g class="world_map-is_selected landxx coastxx lka" id="lk" transform="translate(-29.9017,-45.0745)">
    <title>Sri Lanka</title>
    <path d="M 1907.639,725.904 C 1907.856,726.414 1908.677,726.732 1909.078,727.055 1908.921,726.371 1908.36,725.872 1907.639,725.904" id="path6496"/>
    <path d="M 1908.718,738.864 C 1908.733,742.074 1909.926,755.207 1915.839,753.274 1918.528,752.394 1922.532,750.551 1923.958,747.984 1925.134,745.867 1925.657,742.132 1924.198,740.015 1924.198,740.392 1922.87,737.827 1922.548,737.495 1924.407,738.822 1922.121,736.036 1921.846,735.589 1920.975,734.173 1920.957,732.546 1920.239,731.087 1919.69,731.551 1919.088,731.39 1918.729,730.799 1920.508,730.94 1916.482,725.935 1916.265,725.226 1916.032,724.462 1911.509,719.231 1910.668,719.999 1911.6,720.218 1912.115,721.11 1912.758,721.727 1911.779,721.157 1909.978,718.676 1908.798,720.215 1909.339,721.027 1910.343,721.103 1911.028,721.727 1911.152,720.841 1913.499,722.268 1913.978,722.952 1913.545,722.624 1911.17,722.067 1910.517,722.088 1911.007,722.761 1910.54,722.781 1910.197,723.249 1909.721,723.895 1910.754,724.948 1910.119,725.991 1908.641,728.42 1908.911,732.707 1908.798,735.552 1907.647,735.216 1908.177,733.717 1908.149,732.888 1907.03,734.621 1908.541,737.062 1908.718,738.864" id="path6498"/>
    <path d="M 1908.648,720.792 C 1908.779,721.275 1908.753,721.481 1909.368,721.368 1909.128,721.176 1908.889,720.984 1908.648,720.792" id="path6500"/>
  </g>
  </svg>