<svg xmlns="http://www.w3.org/2000/svg" class="world_map zoom4" height="127" id="svg2985" version="1.1" viewBox="1455 988 50 54" width="127">
  <title>World Map</title>
  <defs id="defs2987"/>
  <defs>
    <link xmlns="http://www.w3.org/1999/xhtml" href="../css/svg.css" type="text/css" rel="stylesheet"/>
  </defs>
  <style id="style_css_sheet" type="text/css">
/*
 * Below are Cascading Style Sheet (CSS) definitions in use in this file,
 * which allow easily changing how countries are displayed.
 *
 */
/* --- Custom styles for Peace Corps --- */
.world_map .world_map-is_selected {
  fill: #C94112 !important;
}
.world_map .landxx {
  fill: #F2EFE8;
  stroke: #ffffff;
  fill-rule: evenodd;
}
.world_map.zoom4 .landxx {
  stroke-width: 2px;
}
.world_map.zoom3 .landxx {
  stroke-width: 3px;
}
.world_map.zoom2 .landxx {
  stroke-width: 4px;
}
.world_map.zoom1 .landxx {
  stroke-width: 5px;
}
.world_map .coastxx {
  fill: #F2EFE8;
  stroke: #ffffff;
  stroke-width: 2px;
  fill-rule: evenodd;
}
.world_map .oceanxx {
  opacity: 1;
  color: #ccc;
  fill: #ffffff;
  stroke: #ffffff;
  stroke-width: 0.5;
  stroke-miterlimit: 1;
}

/* --- Original Styles --- *
/*
 * Circles around small countries
 *
 * Change opacity to 1 to display all circles.
 *
 */
.circlexx
{
   opacity:0;
   fill:#e0e0e0;
   stroke:#000000;
   stroke-width:0.5;
}

/*
 * Smaller circles around French DOMs and Chinese SARs
 *
 * Change opacity to 1 to display all subnational circles.
 *
 */
.subxx
{
   opacity:0;
   stroke-width:0.3;
}

/*
 * Circles around small, unrecognized countries
 *
 * Change opacity to 1 to display all circles.
 *
 */
.unxx
{
   opacity:0;
   fill:#e0e0e0;
   stroke:#000000;
   stroke-width:0.3;
}

/*
 * Circles around small countries, but with no permanent residents 
 *
 * Change opacity to 1 to display all circles.
 *
 */
.noxx
{
   opacity:0;
   fill:#e0e0e0;
   stroke:#000000;
   stroke-width:0.5;
}

/*
 * land
 */
.landxx
{
}
/*
 * Styles for coastlines of islands with no borders
 */


/*
 * Styles for nations with limited recognition
 */
.limitxx
{
   fill: #e0e0e0;
   stroke:#ffffff;
   stroke-width:0;
   fill-rule:evenodd;
}

/*
 * Styles for nations with no permanent population.
 */
.antxx
{
   fill: #e0e0e0;
   stroke:#ffffff;
   stroke-width:0;
   fill-rule:evenodd;
}

/*
 * Ocean
 */


/*
 * Additional style rules
 *
 * The following are examples of colouring countries.  You can substitute these with your own styles to colour the countries on the map.
 *
 * Color a few countries:
 *
 * .gb, .au, .nc
 * {
 *    fill:       #ff0000;
 * }
 *
 * Color a few small country circles (and the countries):
 *
 * .ms, .ky
 * {
 *    opacity:    1;
 *    fill:       #ff0000;
 * }
 *
 */

</style>
  <path class="oceanxx" d="M 2079.5058,1457.5605 615.24779,1457.5605 C 615.13079,1457.5605 615.07079,1457.5505 614.95179,1457.5215 611.67679,1456.6515 608.40179,1455.7815 605.12779,1454.9105 599.15079,1453.3225 593.22879,1451.5225 587.30779,1449.7385 564.39379,1442.8315 541.76579,1434.6995 519.46979,1426.0115 495.81079,1416.7935 472.34979,1407.0946 449.19179,1396.6816 426.78379,1386.6056 405.17679,1375.0536 383.76379,1363.0356 363.11779,1351.4496 343.01079,1338.8296 323.37979,1325.5996 302.29179,1311.3876 281.47879,1296.8506 261.05379,1281.7006 242.35079,1267.8276 223.73679,1253.6306 206.05279,1238.4686 186.98679,1222.1216 167.82379,1205.7706 150.35279,1187.6906 132.97779,1169.7106 116.33279,1151.0606 100.15679,1131.9976 84.352777,1113.3736 70.086776,1093.4716 56.901786,1072.9246 44.046786,1052.8916 32.093776,1032.1356 22.469776,1010.3426 17.516776,999.12753 12.408776,987.76556 8.7017761,976.06056 5.0657761,964.58166 1.5997761,953.04259 -1.5932239,941.43054 -8.0102239,918.09356 -14.055224,894.78356 -18.234224,870.92056 -22.491222,846.60856 -24.894222,822.19856 -26.943222,797.62156 -28.947222,773.58556 -28.829222,749.40156 -27.225222,725.34856 -25.648222,701.69856 -23.363222,677.92456 -19.274222,654.56456 -15.018224,630.25156 -9.3842239,606.45156 -2.8412239,582.66156 3.5687761,559.35256 10.483776,536.34856 20.265776,514.19856 30.320776,491.42956 42.318786,469.90956 55.502786,448.81656 68.512776,428.00356 83.108777,408.26756 98.686787,389.31756 113.73479,371.01156 129.68979,353.25256 146.15179,336.20856 163.77479,317.96256 182.64579,301.14556 201.89579,284.64756 220.33379,268.84456 239.55379,253.98456 258.95979,239.39656 278.42779,224.76056 298.39379,210.83356 318.55579,197.17556 339.26979,183.14456 360.47879,169.92056 382.15079,157.42556 403.46579,145.13656 425.31479,133.98856 447.60479,123.59356 469.58579,113.34356 492.14979,104.17656 514.74579,95.37556 537.44879,86.532565 560.37879,78.195565 583.63479,70.914565 589.69379,69.017565 595.80079,67.276565 601.90879,65.549565 604.63079,64.779565 607.36079,64.045565 610.09479,63.318565 611.59979,62.918565 613.56579,61.986565 615.13379,61.986565 L 2079.9638,61.986565 C 2079.9798,61.986565 2079.9958,61.986565 2080.0118,61.986565 2079.8448,61.986565 2079.6788,61.986565 2079.5118,61.986565 2102.8268,68.191565 2125.8778,75.323565 2148.5448,83.611565 2171.6378,92.054565 2194.6158,100.87956 2217.2348,110.52956 2240.5208,120.46556 2263.4848,130.95256 2285.8828,142.76456 2306.9808,153.89056 2327.8178,165.78556 2347.8608,178.72156 2368.9418,192.32656 2389.7498,206.29256 2410.2218,220.80056 2429.7368,234.62956 2448.9938,248.98756 2467.6208,263.99256 2486.8818,279.50856 2506.0408,295.30556 2524.0538,312.27356 2541.8708,329.05756 2558.7508,346.67256 2574.9408,365.03656 2591.2478,383.53256 2607.1478,402.30656 2621.4508,422.41856 2635.3488,441.96256 2648.4468,462.42756 2659.5898,483.67756 2671.1238,505.67356 2681.1048,528.35656 2688.6188,552.05056 2692.2518,563.50656 2695.3368,575.14756 2698.5608,586.72256 2701.7738,598.25356 2704.9238,609.81956 2707.4578,621.52456 2712.6258,645.40556 2716.6718,669.47856 2719.1178,693.79656 2721.5718,718.19256 2723.1798,742.56356 2722.9808,767.09056 2722.7908,790.65456 2720.6908,814.43756 2717.7688,837.81156 2714.7368,862.07056 2710.5198,886.16156 2704.6398,909.90056 2701.6808,921.84356 2698.3948,933.69556 2695.0378,945.53154 2691.7468,957.13466 2688.5558,968.83466 2684.3988,980.16156 2676.0918,1002.8036 2666.1688,1024.8836 2654.1338,1045.8046 2641.9958,1066.9066 2628.8498,1087.4866 2614.2378,1106.9696 2599.1658,1127.0666 2582.6678,1145.9446 2565.8948,1164.6296 2549.8298,1182.5266 2532.8918,1199.7316 2514.8648,1215.6616 2496.0788,1232.2646 2476.8978,1248.3126 2457.1558,1263.7656 2438.2988,1278.5276 2418.9668,1292.7306 2399.3188,1306.4206 2378.7018,1320.7866 2357.7538,1334.6106 2336.4758,1347.9776 2326.4088,1354.3016 2316.0058,1360.1326 2305.6418,1365.9516 2295.0348,1371.9086 2284.3858,1378.0166 2273.4448,1383.3436 2250.7338,1394.3986 2227.7768,1404.7266 2204.3888,1414.2665 2181.7848,1423.4875 2159.0678,1432.2695 2136.0228,1440.3345 2117.4118,1446.8465 2098.5568,1452.4975 2079.5058,1457.5605" id="ocean"/>
  <path class="landxx bwa" d="M 1421.3263,973.79855 1422.1797,949.81883 1428.9946,949.82783 1429.9539,917.98405 C 1432.3705,917.39981 1438.5112,917.03935 1442.0099,915.82758 1443.0981,915.45069 1445.7628,914.88494 1446.8548,915.51094 1448.3338,916.35794 1448.6183,918.12103 1449.3373,919.50903 1451.2569,917.99177 1452.7693,914.88562 1455.0391,914.83294 1455.8883,914.81324 1455.8008,915.30994 1456.4218,915.39594 1457.2258,915.50694 1457.6974,914.40364 1458.299,914.04476 1460.2456,912.88344 1462.2787,913.04705 1461.9338,913.7513 1461.8368,913.95006 1461.9343,915.06003 1462.0278,915.29703 1462.5478,916.60903 1463.2784,917.86093 1464.1358,918.97803 1464.9758,920.07242 1465.652,920.65888 1466.2798,922.54303 1466.7282,923.88896 1466.8967,924.17439 1467.2837,925.45239 1468.0967,928.13539 1470.0498,930.42774 1472.4907,931.68539 1475.073,933.0159 1477.4401,932.74341 1476.5558,936.85703 1478.9134,936.30623 1480.7593,936.58225 1479.7398,939.71403 1479.389,940.79177 1479.5078,941.61103 1480.1278,942.54903 1480.7988,943.56703 1481.2668,945.99133 1482.3426,946.32521 1484.5008,946.99502 1486.3702,946.88271 1488.6754,947.66858 1490.3871,948.2521 1488.9058,949.05659 1489.4338,949.93548 1489.841,950.61326 1491.3623,950.39763 1491.603,951.36985 1488.9128,951.70303 1489.3427,952.2741 1488.3488,953.66403 1487.2384,955.21687 1484.2042,954.44414 1482.89,955.86012 1481.7054,957.13647 1480.7127,959.27153 1479.1141,960.53048 1478.9367,960.67013 1478.3169,961.24633 1477.6668,961.70303 1476.5846,962.46328 1475.3941,962.7407 1474.5708,963.67303 1473.4729,964.91629 1473.2601,965.28017 1473.0703,967.14839 1472.8371,969.4424 1471.4978,969.96264 1469.8705,971.90184 1468.9143,973.04133 1467.3363,973.35667 1465.7334,973.61767 1464.5775,973.80589 1465.2623,974.25303 1465.0413,975.37303 1464.7503,976.84603 1464.0353,978.18103 1463.5593,979.59303 1462.8503,981.68903 1461.7337,982.42039 1459.5917,982.23439 1457.6477,982.06639 1457.8749,983.46109 1455.3736,982.91165 1454.3808,982.69358 1452.0035,981.58327 1451.1562,981.52612 1449.9154,981.44242 1449.107,980.67056 1448.3934,979.77703 1447.3314,978.44703 1444.435,977.47253 1442.9373,979.40421 1441.5685,981.1697 1442.1727,983.13985 1440.9106,984.95549 1440.288,985.85116 1439.4013,986.4663 1438.5583,987.0443 1437.5163,987.7573 1437.2131,988.90803 1436.3281,989.73403 1435.6691,990.35003 1435.1044,990.08267 1434.3674,990.38267 1434.1224,990.59267 1434.0987,990.83703 1434.1547,991.18603 1433.8677,991.98303 1432.6653,992.20448 1431.9683,992.15948 1430.8593,992.08648 1430.2385,991.81131 1429.1689,991.72694 1428.198,991.65034 1427.3315,991.26898 1426.0878,992.29903 1424.2756,988.84213 1428.0603,987.27749 1426.7368,982.57903 1426.2347,980.79651 1425.5238,978.81903 1424.6058,977.20903 1423.8038,975.80303 1422.2518,975.10303 1421.3258,973.79903" id="bw">
    <title>Botswana</title>
  </path>
  <g class="landxx coastxx moz" id="mz" transform="translate(-28.7126,62.0078)">
    <title>Mozambique</title>
    <path class="landxx moz" d="M 1528.5989,827.3307 C 1534.1359,825.2497 1539.6929,823.2167 1545.2629,821.2267 1546.5079,820.7817 1547.6806,820.18916 1548.9146,819.71216 1549.3326,819.55116 1550.3912,818.86415 1550.8562,819.01015 L 1555.0189,823.6617 C 1555.0599,822.7287 1557.0629,823.0547 1558.0049,822.7887 1558.8149,822.5607 1560.0349,821.8017 1560.6999,822.6637 1561.9289,824.2577 1561.9359,828.1197 1561.2969,829.8867 1560.4859,832.1257 1558.5999,834.1387 1559.7969,836.4427 1560.0819,836.9897 1559.9179,837.6417 1560.2489,838.1617 1560.6229,838.7497 1561.2869,839.0697 1561.6589,839.6567 1562.3879,840.8057 1563.5109,841.8807 1564.5449,842.7637 1565.5309,843.6057 1565.4779,843.7597 1564.8019,844.8657 1564.0799,846.0467 1566.4199,846.4917 1566.5739,844.9017 1566.7219,843.3557 1566.2759,841.9887 1565.3879,840.7327 1566.7939,839.7087 1566.0629,837.5857 1568.1289,837.1567 1570.9289,836.5757 1571.1769,835.3537 1571.1859,832.5307 1571.1859,831.5037 1571.0079,830.4557 1571.0689,829.4307 1571.1689,827.7607 1572.0459,825.9167 1571.3289,824.2787 1570.6109,822.6377 1569.1119,821.0917 1568.1479,819.5637 1567.2519,818.1427 1566.3759,816.6137 1565.2409,815.3627 1564.4069,814.4447 1564.7212,815.2816 1563.9712,814.44164 1563.7487,813.723 1564.1309,812.3132 1563.6725,810.91987 1563.0719,809.09456 1564.1448,807.9911 1563.9059,807.18212 1562.5206,802.50467 1563.358,803.64973 1563.292,803.06147 1563.8334,801.83029 1565.6378,802.06121 1565.1994,797.6999 1566.6998,797.84069 1568.0625,798.17195 1569.8179,797.6637 1570.8105,797.37631 1571.7449,796.1537 1572.8309,796.8567 1573.5819,797.3427 1573.9459,798.2717 1574.7439,798.6967 1575.3549,799.0227 1577.3839,799.1347 1578.0569,798.9617 1579.1759,798.6737 1579.9819,796.7937 1581.2449,798.1647 1583.5889,800.7087 1586.4039,797.6957 1587.5389,795.8267 1588.1649,794.7947 1589.2809,794.7667 1590.2579,795.3857 1591.8499,796.3947 1592.2349,796.3857 1593.7449,795.3257 1595.0069,794.4407 1595.9969,793.8177 1597.6419,794.1407 1598.5879,794.3277 1600.4149,792.5127 1601.2979,792.1107 1603.0399,791.3187 1604.4949,790.2047 1605.9969,789.0457 1607.8309,787.6287 1609.0259,789.9997 1607.4349,790.7607 1607.6779,790.8747 1607.9169,790.9947 1608.1549,791.1207 1607.4269,792.0587 1607.8399,793.1147 1607.4349,794.1407 1607.2179,794.6927 1605.8269,795.4077 1606.6469,795.9907 1607.3269,796.4727 1607.1679,799.0517 1607.2649,800.0497 1607.3369,800.7977 1607.3959,801.5597 1607.3289,802.3107 1607.2289,803.4497 1606.8739,803.1637 1607.1919,804.1727 1607.2649,804.5487 1607.2389,804.9187 1607.1129,805.2797 1606.9649,805.9777 1607.4039,806.1897 1607.5839,806.7937 1607.8479,807.6717 1607.5159,808.9317 1606.9249,809.6207 1608.9289,809.9057 1606.3209,814.3047 1607.1059,814.5557 1608.4769,814.9947 1607.1379,819.5717 1607.5749,820.6407 1609.0849,819.7457 1607.3559,822.6647 1607.7959,823.3707 1607.9169,822.0977 1609.1999,822.3167 1608.9799,823.5787 1608.7419,824.9467 1609.0699,825.9167 1607.6459,826.6907 1607.9049,826.8927 1608.1709,827.0827 1608.4469,827.2607 1606.7989,826.8677 1608.2199,827.4687 1607.7469,828.0357 1607.4479,828.3937 1606.9829,828.5287 1606.7869,828.9907 1608.3779,828.4247 1607.0039,830.9487 1606.7669,831.4477 1605.9699,833.1327 1604.2729,834.0667 1603.4539,835.7407 1602.6409,837.4027 1601.3129,838.3687 1600.4089,839.9437 1599.7169,841.1517 1595.0249,842.7827 1595.1939,844.0967 1595.2719,844.7047 1591.6509,845.3267 1590.9459,845.7607 1590.3219,846.1447 1589.6149,846.4517 1588.9129,846.6567 1587.7799,846.9877 1587.9749,846.5547 1587.1519,847.3157 1585.9679,848.4107 1584.3089,848.9287 1582.9009,849.6607 1581.4999,850.3897 1579.2679,853.7977 1577.6959,852.4607 1580.6319,855.6817 1573.5019,856.9187 1574.1659,860.1707 1573.5599,860.2537 1573.1529,859.8577 1573.0159,859.3007 1573.1579,860.4437 1572.0719,861.8927 1572.2259,860.3107 1570.8549,861.4997 1569.1959,862.3157 1568.0809,863.7837 1567.0939,865.0827 1566.1959,866.3157 1565.0079,867.4497 1564.5269,867.9087 1562.6149,869.9257 1561.9279,869.0907 1561.4849,868.5527 1560.9189,866.7077 1559.9159,867.2917 1561.6449,867.1877 1561.0409,869.3637 1561.3819,869.8917 1561.7019,870.3887 1561.6849,871.1957 1561.4449,871.7177 1561.3359,871.9927 1561.1359,872.1517 1560.8459,872.1917 1561.0679,872.6057 1561.1419,873.0457 1561.0679,873.5117 1560.8799,875.7847 1561.6269,875.1567 1562.7969,876.6527 1563.4529,877.4917 1563.6419,878.4847 1563.6279,879.5247 1563.6179,879.9277 1563.3009,883.0627 1563.8769,881.1227 1563.4389,882.8157 1564.5649,884.6457 1564.7359,886.3727 1564.8399,887.4077 1565.2099,888.4907 1565.0389,889.5357 1564.8939,890.4167 1564.5129,891.3957 1565.4569,891.9937 1565.6259,890.8847 1565.5779,889.8857 1566.3259,888.9637 1566.3079,889.3027 1566.3259,891.7317 1566.6859,889.6927 1566.4849,890.8637 1566.1919,892.0217 1566.0879,893.2087 1565.9939,894.2737 1566.7489,895.2207 1566.6129,896.2567 1566.2409,899.0837 1564.2079,901.8097 1564.6659,904.8127 1564.4039,903.1707 1565.6079,904.8627 1565.6759,903.4427 1566.7589,905.2687 1564.6579,907.9987 1563.5339,909.2867 1561.6759,911.4157 1558.8569,912.3887 1556.2619,913.3037 1553.3249,914.3397 1550.3659,915.4177 1547.7459,917.1227 1546.5629,917.8927 1545.3269,918.5697 1544.6689,919.8857 1544.1039,921.0147 1543.8179,922.3277 1542.3459,922.5217 1543.3279,922.5107 1544.8979,926.0117 1545.7259,923.8917 1545.5499,925.6867 1546.4889,930.33598 1544.6349,930.20843 L 1540.1599,930.0352 C 1540.2269,928.56341 1539.3125,926.89789 1539.5467,925.7577 1539.7435,924.79933 1539.2777,923.87246 1538.628,923.01516 1538.1498,922.38408 1538.258,920.8575 1538.7593,919.6531 1539.0443,918.96836 1539.0059,916.5137 1539.0359,915.8097 1539.1079,914.0857 1539.0949,912.3627 1539.2251,910.6427 1539.3421,909.0907 1538.9859,908.0557 1538.7359,906.5737 1538.3599,904.3537 1536.8479,902.5387 1536.3869,900.3777 1536.1649,899.3347 1536.3309,898.2347 1536.1483,897.1587 1535.8943,895.6637 1535.5929,894.2267 1535.1859,892.7707 1534.9219,891.8267 1534.4991,892.10678 1535.0295,891.40978 1535.5598,890.99096 1537.0434,889.05832 1537.6689,888.4197 1538.6011,887.46796 1542.9349,881.3737 1544.0749,882.2027 1542.9259,880.7197 1544.0759,879.8607 1544.4349,878.3827 1544.6559,877.4737 1543.7749,876.2047 1544.7739,875.6087 1546.1639,874.7797 1546.5269,873.6507 1547.2939,872.2217 1547.6219,871.6107 1547.8005,871.09349 1548.0375,870.43349 1548.4135,869.39249 1548.1245,868.5927 1548.1759,867.5827 1547.9359,867.6787 1547.6969,867.7757 1547.4559,867.8727 1546.929,866.82476 1546.5563,865.8829 1546.7621,865.30161 1547.0118,864.59676 1547.9073,864.01372 1547.5701,863.0691 1547.281,862.25901 1546.1136,862.54746 1546.4425,861.24569 1546.6881,860.27369 1548.3908,860.1154 1548.2529,858.9317 1548.0158,856.89659 1549.282,857.65959 1549.1579,856.3257 1549.0553,855.22355 1548.4359,854.17509 1548.6459,853.06409 1548.7929,852.28309 1549.3055,851.41595 1549.1121,850.6367 1548.727,849.08497 1548.8562,848.03396 1548.8907,846.37028 1548.9017,845.82987 1548.6117,845.43768 1548.4617,844.91168 1548.2437,844.14868 1548.9879,842.8517 1549.1159,842.0927 1548.0606,842.38989 1547.5251,842.37992 1546.9639,841.3417 1546.4332,840.35981 1543.4029,840.2769 1542.6139,839.8227 1540.1839,838.4238 1537.861,836.96575 1535.248,836.2267 1534.4114,835.99008 1531.7953,836.06623 1530.8815,835.84851 1529.4021,835.49604 1529.9969,833.0947 1529.8599,831.9927 1529.6649,830.3907 1528.4559,828.9637 1528.5989,827.3307" id="path3462"/>
    </g>
  <path class="landxx nam" d="M 1360.1363,908.84853 C 1361.1943,908.68353 1362.0303,907.75153 1363.1613,907.95253 1364.1243,908.12353 1364.9953,908.85453 1366.0153,908.65953 1368.1403,908.25353 1369.5963,905.77553 1372.0163,906.43553 1373.9433,906.96153 1374.9684,909.12811 1376.9027,909.77035 1378.0001,910.13473 1381.3796,909.99317 1383.1753,910.00853 1391.3905,910.07883 1399.6176,910.24291 1407.8223,909.91253 1409.9936,909.82513 1410.7293,909.66644 1411.7542,911.58253 1413.0588,914.02156 1415.0112,913.48291 1417.3553,913.74053 1420.4283,914.07826 1423.6993,913.93781 1426.5777,914.94762 1427.6842,915.33584 1428.6798,915.47634 1429.6576,914.88362 1430.5218,914.35974 1431.3459,914.54768 1432.5945,914.85292 1433.8568,915.16148 1434.6049,914.95222 1435.4448,914.75732 1440.5717,913.56762 1446.3682,912.36457 1451.8023,911.33659 1452.8553,911.1374 1453.9233,910.65459 1455.0163,910.82159 1455.6623,910.92059 1456.6403,911.54259 1457.2813,911.22259 1459.3243,910.20259 1460.2686,912.36087 1461.6166,913.28687 1460.6326,913.03087 1459.4903,913.60459 1458.5573,913.96759 1457.3973,914.41859 1457.0563,916.14959 1455.9443,915.12659 1454.1543,913.48059 1450.6563,918.87359 1449.3383,919.50759 1448.6963,918.27159 1448.0043,915.51959 1446.1743,915.34659 1443.8173,915.12359 1440.8813,916.31359 1438.5843,916.80059 1435.8813,917.37359 1432.686,917.48368 1429.994,917.98568 L 1429.0001,949.88522 1422.2006,949.78662 1420.7239,1004.1676 C 1420.8928,1006.6525 1418.7693,1005.6064 1417.5855,1006.7328 1417.001,1007.2889 1417.0435,1007.8307 1415.8767,1008.233 1415.0797,1008.5078 1414.7093,1008.8426 1415.3593,1009.5786 1413.5643,1010.1096 1413.6502,1009.4357 1411.9809,1009.1892 1410.2268,1008.9301 1408.729,1009.8779 1406.6533,1009.4316 1403.3679,1008.7252 1401.4194,1007.5139 1401.2686,1006.9055 1400.8532,1005.2297 1401.2376,1005.9225 1401.3056,1004.5902 1401.2436,1004.0638 1400.6696,1004.2013 1400.27,1003.786 1399.6997,1003.1933 1399.2027,1001.9289 1398.5992,1002.3116 1396.6976,1003.5173 1397.223,1005.3076 1396.5592,1005.8266 1395.6158,1006.5643 1394.4322,1007.531 1393.4472,1006.2916 1392.1458,1004.6541 1390.4062,1003.3466 1389.2452,1001.5986 1388.2132,1000.0436 1387.3902,998.36663 1386.5582,996.69963 1386.1162,995.81463 1386.0752,994.86263 1385.9212,993.90763 1385.7622,992.92162 1385.0912,992.40762 1384.8982,991.50962 1384.5432,989.86262 1385.2782,989.25762 1384.0592,987.73962 1383.5722,987.13362 1383.7352,986.74262 1383.7522,985.96862 1383.7812,984.71762 1383.3472,983.63462 1383.2122,982.41462 1383.1162,981.54562 1383.1912,980.66562 1382.9422,979.81562 1382.5912,978.61362 1383.1922,977.45062 1382.9582,976.24862 1382.5552,974.17662 1381.5702,972.28562 1380.8182,970.33062 1379.9692,968.12362 1380.6042,966.26062 1380.3822,964.02662 1380.2322,962.51062 1380.0113,960.61268 1380.1482,959.82962 1380.2122,959.46268 1381.1322,955.78062 1380.7292,955.86962 1380.6332,953.88662 1379.6322,951.94462 1378.5072,950.35362 1377.8742,949.45862 1377.1512,948.62462 1376.6192,947.66062 1376.1312,946.77462 1376.0302,945.69062 1375.3912,944.88362 1372.4462,941.16462 1371.8142,936.64962 1369.6392,932.61962 1367.6442,928.92562 1366.9742,923.85162 1363.7322,920.94562 1360.2432,917.82062 1359.8352,913.25762 1360.1362,908.84862" id="na">
    <title>Namibia</title>
  </path>
  <path class="landxx zaf" d="M 1471.8763,1016.0586 C 1472.8313,1017.0016 1472.7463,1018.3606 1473.5193,1019.3346 1474.1863,1020.1766 1473.9583,1021.2916 1474.6603,1021.9856 1475.5403,1022.8576 1477.8363,1025.7956 1479.3583,1024.5616 1480.0243,1024.0206 1480.5873,1022.2176 1481.0553,1021.4356 1481.7943,1020.1986 1483.0493,1020.4476 1484.2513,1020.1116 1485.1263,1019.8666 1486.9983,1019.1336 1487.3713,1018.2106 1487.8463,1017.0326 1487.8993,1016.3586 1488.7363,1015.3186 1489.0523,1014.9256 1490.0593,1013.8606 1489.8903,1013.2826 1489.3643,1011.4636 1488.6053,1011.3476 1487.3993,1010.0866 1486.4563,1009.0996 1485.4513,1008.1786 1484.5193,1007.1856 1483.7123,1006.3276 1482.3313,1007.6836 1481.5953,1007.9996 1480.7823,1008.3486 1480.3933,1008.7276 1479.5963,1009.1666 1478.6623,1009.6806 1477.6913,1009.4956 1476.9473,1010.4526 1476.1453,1011.4836 1475.7463,1012.7596 1475.0303,1013.8456 1474.2083,1015.0896 1473.0103,1015.2346 1471.8763,1016.0586 M 1394.7653,1006.8486 C 1395.5153,1006.1416 1396.6563,1006.2856 1396.8013,1005.1716 1396.9243,1004.2296 1397.5843,1002.5946 1398.5833,1002.2756 1399.8993,1001.8546 1399.7343,1003.6946 1400.6343,1003.9536 1402.1843,1004.3986 1400.6023,1005.9466 1401.3563,1006.8916 1402.6783,1008.5486 1404.7183,1008.7006 1406.6653,1009.3196 1408.4383,1009.8836 1409.8623,1009.0896 1411.5963,1009.1326 1413.1513,1009.1726 1413.7533,1010.0536 1415.3553,1009.5796 1414.3933,1008.4886 1415.5873,1008.3156 1416.2323,1008.0626 1417.1223,1007.7146 1417.1883,1006.5626 1418.3143,1006.2346 1419.0403,1006.0226 1420.5443,1005.9196 1420.6333,1004.9136 L 1421.3243,973.79855 C 1422.1763,974.99855 1423.6443,975.56655 1424.4373,976.81655 1425.3413,978.24355 1425.8977,980.14135 1426.4867,981.72235 1427.0807,983.31835 1427.6073,985.05255 1426.8323,986.69755 1425.8403,988.80255 1425.1143,989.95355 1426.0843,992.29955 1427.7993,990.31955 1432.0483,993.32855 1433.9123,991.51755 1434.2213,991.21755 1433.9843,990.44955 1434.4383,990.31855 1434.9463,990.17155 1435.3893,990.27655 1435.8843,989.99355 1437.1773,989.25555 1437.4473,987.56055 1438.7903,986.76155 1440.2673,985.88355 1441.2123,984.91755 1441.5513,983.15555 1441.8463,981.62155 1441.7963,980.34655 1443.0603,979.20055 1444.1613,978.20255 1445.5863,978.00155 1446.9303,978.60755 1448.0373,979.10755 1449.6343,981.45955 1450.6883,981.43055 1453.0553,981.36755 1455.8353,984.22055 1458.0773,982.44755 1459.0813,981.65355 1460.5823,982.75755 1461.8333,981.82655 1463.1693,980.83155 1463.6553,979.16955 1464.2283,977.66855 1464.5323,976.87355 1464.8023,976.05455 1464.9343,975.21055 1465.1503,973.83855 1464.4913,973.93955 1465.8833,973.54455 1466.6913,973.31555 1469.0543,972.91355 1469.4983,972.15555 1470.2913,970.80055 1471.8623,970.19255 1472.5233,968.75955 1473.2443,967.19855 1472.9363,965.58555 1474.0033,964.11455 1474.9163,962.85555 1475.9413,962.74355 1477.1233,961.91955 1478.3343,961.07455 1479.8793,959.77355 1480.8033,958.60855 1481.5903,957.61555 1482.1133,956.09255 1483.2973,955.49055 1484.4823,954.88855 1485.8823,954.83355 1487.1223,954.38155 1488.3103,953.94855 1488.2763,953.42355 1488.8573,952.50455 1489.3493,951.72455 1490.6913,951.47155 1491.5103,951.30055 1494.8513,950.60055 1496.8913,952.79955 1500.1413,952.82255 1503.0343,952.84355 1505.6643,951.72755 1506.6153,955.27855 1507.1453,957.25955 1507.6003,959.27955 1507.6533,961.33855 1507.7023,963.21255 1508.8483,964.82155 1509.5263,966.50455 1510.9793,970.10855 1510.6247,973.53132 1510.4341,977.33555 1510.3611,978.79874 1510.4441,980.59076 1509.9163,982.13655 1509.6594,982.89125 1509.5452,982.84468 1509.8161,985.01687 1509.9384,985.07287 1508.939,983.94094 1507.9403,983.59862 1506.9935,983.2741 1506.1512,983.39633 1505.3809,983.40491 1504.7446,984.64835 1503.7756,984.39271 1503.0492,985.96832 1502.174,987.86655 1501.3885,990.7851 1501.1168,990.57431 1502.527,991.84566 1503.0059,992.86289 1503.8792,993.86363 1505.3013,995.49313 1507.3489,996.35893 1508.9035,994.81673 1509.3282,994.39543 1508.6915,994.16753 1510.2353,992.0097 L 1511.5269,992.044 1516.0604,992.20083 C 1515.2034,995.99183 1514.1193,999.33553 1513.1063,1003.0905 1512.5823,1005.0335 1511.5573,1008.9805 1508.8823,1008.7895 1509.3053,1009.7405 1508.0623,1009.7065 1507.4903,1009.8215 1506.7733,1009.9665 1506.1643,1010.8675 1505.7093,1011.3735 1504.1003,1013.1655 1502.4553,1015.2955 1501.7163,1017.5785 1501.3013,1018.8605 1500.1673,1019.6705 1499.5223,1020.8185 1498.5293,1022.5855 1497.4903,1024.3365 1496.3283,1025.9975 1494.2363,1028.9895 1491.9963,1031.0075 1489.2093,1033.3045 1486.8833,1035.2225 1485.5113,1038.0075 1483.1883,1039.9175 1480.2323,1042.3475 1477.3393,1044.8555 1474.2923,1047.1715 1471.8973,1048.9905 1469.1523,1051.1685 1466.0683,1051.5845 1464.5863,1051.7855 1463.1183,1050.9705 1461.6533,1051.4185 1460.5923,1051.7425 1459.1143,1053.0225 1460.5733,1053.9385 1458.8383,1054.7095 1456.9133,1052.4985 1455.2873,1053.6135 1453.3903,1054.9145 1452.9873,1055.6815 1450.3843,1054.6895 1448.4303,1053.9455 1445.9263,1053.1515 1443.8633,1053.9385 1442.9393,1054.2915 1443.4043,1054.8865 1442.0043,1054.3855 1441.1803,1054.0905 1439.7423,1054.6005 1439.3233,1053.6485 1439.2963,1053.7685 1439.2963,1053.8885 1439.3233,1054.0085 1437.2093,1053.6655 1433.8243,1054.6395 1432.7403,1056.6075 1431.7953,1058.3255 1427.0703,1056.5515 1425.5673,1057.1995 1424.6653,1057.5895 1423.7143,1057.3295 1422.8683,1057.7295 1421.8433,1058.2135 1420.7063,1059.1965 1419.8053,1059.8965 1418.6683,1060.7825 1419.1183,1060.6065 1417.8033,1060.2685 1417.2323,1060.1225 1416.5883,1060.4495 1416.0783,1060.0305 1415.4973,1059.5515 1414.9483,1058.9825 1414.2033,1058.7595 1415.5123,1056.9635 1411.4913,1056.8945 1410.6033,1056.7395 1411.1493,1055.3405 1410.5793,1054.0905 1408.9143,1054.3975 1407.7843,1054.6065 1408.1963,1055.9445 1408.2233,1056.7395 1406.1693,1055.9405 1407.7943,1053.4995 1407.9933,1052.2535 1408.1663,1051.1685 1407.5743,1050.0495 1407.0313,1049.1585 1406.7183,1048.6455 1404.1593,1045.1005 1405.8533,1046.7395 1405.1293,1046.0125 1405.4443,1045.2105 1404.3653,1045.2185 1403.4523,1045.2285 1404.4553,1042.9465 1404.5533,1042.6295 1406.8823,1043.9965 1407.4803,1041.3215 1407.5223,1039.5285 1407.5953,1036.4595 1406.7493,1033.8695 1405.1613,1031.2385 1402.7983,1027.3235 1400.7063,1023.4465 1399.3503,1019.0485 1398.7173,1016.9945 1398.3103,1014.8755 1397.5493,1012.8605 1396.7893,1010.8425 1394.9573,1009.0475 1394.7653,1006.8485" id="za">
    <title>South Africa</title>
  </path>
  <path class="world_map-is_selected landxx lso" d="M 1471.8763,1016.0586 C 1472.8313,1017.0016 1472.7463,1018.3606 1473.5193,1019.3346 1474.1863,1020.1766 1473.9583,1021.2916 1474.6603,1021.9856 1475.5403,1022.8576 1477.8363,1025.7956 1479.3583,1024.5616 1480.0243,1024.0206 1480.5873,1022.2176 1481.0553,1021.4356 1481.7943,1020.1986 1483.0493,1020.4476 1484.2513,1020.1116 1485.1263,1019.8666 1486.9983,1019.1336 1487.3713,1018.2106 1487.8463,1017.0326 1487.8993,1016.3586 1488.7363,1015.3186 1489.0523,1014.9256 1490.0593,1013.8606 1489.8903,1013.2826 1489.3643,1011.4636 1488.6053,1011.3476 1487.3993,1010.0866 1486.4563,1009.0996 1485.4513,1008.1786 1484.5193,1007.1856 1483.7123,1006.3276 1482.3313,1007.6836 1481.5953,1007.9996 1480.7823,1008.3486 1480.3933,1008.7276 1479.5963,1009.1666 1478.6623,1009.6806 1477.6913,1009.4956 1476.9473,1010.4526 1476.1453,1011.4836 1475.7463,1012.7596 1475.0303,1013.8456 1474.2083,1015.0896 1473.0103,1015.2346 1471.8763,1016.0586" id="ls">
    <title>Lesotho</title>
  </path>
  <g class="landxx swz" id="sz">
    <title>Swaziland</title>
    <path d="M 1500.9696,990.66205 C 1500.9696,990.66205 1501.1548,990.65805 1501.1548,990.65805 1502.1098,991.60105 1502.0022,991.42505 1502.7752,992.39905 1503.4422,993.24105 1503.5232,993.62325 1504.2252,994.31725 1505.1052,995.18925 1507.0375,996.40185 1508.5595,995.16785 1509.2255,994.62685 1508.9125,994.60115 1509.3279,993.78995 L 1510.2296,992.02895 1511.5128,992.03195 1511.4828,991.52055 C 1509.9335,985.34995 1511.8401,989.52605 1510.3873,985.51415 1509.5812,984.65525 1508.5528,983.70935 1507.823,983.37925 L 1505.4153,983.28285 C 1504.6133,984.31385 1503.9826,984.43115 1503.2666,985.51715 1502.8556,986.13915 1502.6982,986.62155 1502.5019,987.05145 1502.3055,987.48145 1501.537,990.24915 1500.97,990.66115 z" id="sz-"/>
    <circle class="circlexx swz" cx="1506.7974" cy="989.40564" id="sz." r="6.0130301" rx="6.0130301" ry="6.0130301"/>
  </g>
  </svg>