<svg xmlns="http://www.w3.org/2000/svg" class="world_map zoom6 zoom5 zoom4 zoom3 zoom2" height="127" id="svg2985" version="1.1" viewBox="1313 321 15 17" width="127">
  <title>World Map</title>
  <defs id="defs2987"/>
  <style id="style_css_sheet" type="text/css">
/*
 * Below are Cascading Style Sheet (CSS) definitions in use in this file,
 * which allow easily changing how countries are displayed.
 *
 */
/* --- Custom styles for Peace Corps --- */
.world_map .world_map-is_selected {
  fill: #C94112 !important;
}
.world_map .landxx {
  fill: #F2EFE8;
  stroke: #ffffff;
  fill-rule: evenodd;
}
.world_map.zoom6 .landxx {
  stroke-width: 0.1px;
}
.world_map.zoom5 .landxx {
  stroke-width: 1px;
}
.world_map.zoom4 .landxx {
  stroke-width: 2px;
}
.world_map.zoom3 .landxx {
  stroke-width: 3px;
}
.world_map.zoom2 .landxx {
  stroke-width: 4px;
}
.world_map.zoom1 .landxx {
  stroke-width: 5px;
}
.world_map .coastxx {
  fill: #F2EFE8;
  stroke: #ffffff;
  stroke-width: 2px;
  fill-rule: evenodd;
}
.world_map .oceanxx {
  opacity: 1;
  color: #ccc;
  fill: #ffffff;
  stroke: #ffffff;
  stroke-width: 0.5;
  stroke-miterlimit: 1;
}

/* --- Original Styles --- *
/*
 * Circles around small countries
 *
 * Change opacity to 1 to display all circles.
 *
 */
.circlexx
{
   opacity:0;
   fill:#e0e0e0;
   stroke:#000000;
   stroke-width:0.5;
}

/*
 * Smaller circles around French DOMs and Chinese SARs
 *
 * Change opacity to 1 to display all subnational circles.
 *
 */
.subxx
{
   opacity:0;
   stroke-width:0.3;
}

/*
 * Circles around small, unrecognized countries
 *
 * Change opacity to 1 to display all circles.
 *
 */
.unxx
{
   opacity:0;
   fill:#e0e0e0;
   stroke:#000000;
   stroke-width:0.3;
}

/*
 * Circles around small countries, but with no permanent residents 
 *
 * Change opacity to 1 to display all circles.
 *
 */
.noxx
{
   opacity:0;
   fill:#e0e0e0;
   stroke:#000000;
   stroke-width:0.5;
}

/*
 * land
 */
.landxx
{
}
/*
 * Styles for coastlines of islands with no borders
 */


/*
 * Styles for nations with limited recognition
 */
.limitxx
{
   fill: #e0e0e0;
   stroke:#ffffff;
   stroke-width:0;
   fill-rule:evenodd;
}

/*
 * Styles for nations with no permanent population.
 */
.antxx
{
   fill: #e0e0e0;
   stroke:#ffffff;
   stroke-width:0;
   fill-rule:evenodd;
}

/*
 * Ocean
 */


/*
 * Additional style rules
 *
 * The following are examples of colouring countries.  You can substitute these with your own styles to colour the countries on the map.
 *
 * Color a few countries:
 *
 * .gb, .au, .nc
 * {
 *    fill:       #ff0000;
 * }
 *
 * Color a few small country circles (and the countries):
 *
 * .ms, .ky
 * {
 *    opacity:    1;
 *    fill:       #ff0000;
 * }
 *
 */

</style>
  <path class="oceanxx" d="M 2079.5058,1457.5605 615.24779,1457.5605 C 615.13079,1457.5605 615.07079,1457.5505 614.95179,1457.5215 611.67679,1456.6515 608.40179,1455.7815 605.12779,1454.9105 599.15079,1453.3225 593.22879,1451.5225 587.30779,1449.7385 564.39379,1442.8315 541.76579,1434.6995 519.46979,1426.0115 495.81079,1416.7935 472.34979,1407.0946 449.19179,1396.6816 426.78379,1386.6056 405.17679,1375.0536 383.76379,1363.0356 363.11779,1351.4496 343.01079,1338.8296 323.37979,1325.5996 302.29179,1311.3876 281.47879,1296.8506 261.05379,1281.7006 242.35079,1267.8276 223.73679,1253.6306 206.05279,1238.4686 186.98679,1222.1216 167.82379,1205.7706 150.35279,1187.6906 132.97779,1169.7106 116.33279,1151.0606 100.15679,1131.9976 84.352777,1113.3736 70.086776,1093.4716 56.901786,1072.9246 44.046786,1052.8916 32.093776,1032.1356 22.469776,1010.3426 17.516776,999.12753 12.408776,987.76556 8.7017761,976.06056 5.0657761,964.58166 1.5997761,953.04259 -1.5932239,941.43054 -8.0102239,918.09356 -14.055224,894.78356 -18.234224,870.92056 -22.491222,846.60856 -24.894222,822.19856 -26.943222,797.62156 -28.947222,773.58556 -28.829222,749.40156 -27.225222,725.34856 -25.648222,701.69856 -23.363222,677.92456 -19.274222,654.56456 -15.018224,630.25156 -9.3842239,606.45156 -2.8412239,582.66156 3.5687761,559.35256 10.483776,536.34856 20.265776,514.19856 30.320776,491.42956 42.318786,469.90956 55.502786,448.81656 68.512776,428.00356 83.108777,408.26756 98.686787,389.31756 113.73479,371.01156 129.68979,353.25256 146.15179,336.20856 163.77479,317.96256 182.64579,301.14556 201.89579,284.64756 220.33379,268.84456 239.55379,253.98456 258.95979,239.39656 278.42779,224.76056 298.39379,210.83356 318.55579,197.17556 339.26979,183.14456 360.47879,169.92056 382.15079,157.42556 403.46579,145.13656 425.31479,133.98856 447.60479,123.59356 469.58579,113.34356 492.14979,104.17656 514.74579,95.37556 537.44879,86.532565 560.37879,78.195565 583.63479,70.914565 589.69379,69.017565 595.80079,67.276565 601.90879,65.549565 604.63079,64.779565 607.36079,64.045565 610.09479,63.318565 611.59979,62.918565 613.56579,61.986565 615.13379,61.986565 L 2079.9638,61.986565 C 2079.9798,61.986565 2079.9958,61.986565 2080.0118,61.986565 2079.8448,61.986565 2079.6788,61.986565 2079.5118,61.986565 2102.8268,68.191565 2125.8778,75.323565 2148.5448,83.611565 2171.6378,92.054565 2194.6158,100.87956 2217.2348,110.52956 2240.5208,120.46556 2263.4848,130.95256 2285.8828,142.76456 2306.9808,153.89056 2327.8178,165.78556 2347.8608,178.72156 2368.9418,192.32656 2389.7498,206.29256 2410.2218,220.80056 2429.7368,234.62956 2448.9938,248.98756 2467.6208,263.99256 2486.8818,279.50856 2506.0408,295.30556 2524.0538,312.27356 2541.8708,329.05756 2558.7508,346.67256 2574.9408,365.03656 2591.2478,383.53256 2607.1478,402.30656 2621.4508,422.41856 2635.3488,441.96256 2648.4468,462.42756 2659.5898,483.67756 2671.1238,505.67356 2681.1048,528.35656 2688.6188,552.05056 2692.2518,563.50656 2695.3368,575.14756 2698.5608,586.72256 2701.7738,598.25356 2704.9238,609.81956 2707.4578,621.52456 2712.6258,645.40556 2716.6718,669.47856 2719.1178,693.79656 2721.5718,718.19256 2723.1798,742.56356 2722.9808,767.09056 2722.7908,790.65456 2720.6908,814.43756 2717.7688,837.81156 2714.7368,862.07056 2710.5198,886.16156 2704.6398,909.90056 2701.6808,921.84356 2698.3948,933.69556 2695.0378,945.53154 2691.7468,957.13466 2688.5558,968.83466 2684.3988,980.16156 2676.0918,1002.8036 2666.1688,1024.8836 2654.1338,1045.8046 2641.9958,1066.9066 2628.8498,1087.4866 2614.2378,1106.9696 2599.1658,1127.0666 2582.6678,1145.9446 2565.8948,1164.6296 2549.8298,1182.5266 2532.8918,1199.7316 2514.8648,1215.6616 2496.0788,1232.2646 2476.8978,1248.3126 2457.1558,1263.7656 2438.2988,1278.5276 2418.9668,1292.7306 2399.3188,1306.4206 2378.7018,1320.7866 2357.7538,1334.6106 2336.4758,1347.9776 2326.4088,1354.3016 2316.0058,1360.1326 2305.6418,1365.9516 2295.0348,1371.9086 2284.3858,1378.0166 2273.4448,1383.3436 2250.7338,1394.3986 2227.7768,1404.7266 2204.3888,1414.2665 2181.7848,1423.4875 2159.0678,1432.2695 2136.0228,1440.3345 2117.4118,1446.8465 2098.5568,1452.4975 2079.5058,1457.5605" id="ocean"/>
  <g id="fr">
    <title>France</title>
    <g class="landxx coastxx frx eu fra" id="frx">
      <path class="landxx frx eu fra" d="M 1247.9563,345.09353 C 1248.8483,344.67153 1249.9183,344.40753 1250.9063,344.58953 1251.2503,343.07553 1249.2373,344.11653 1248.8163,343.07753 1249.7423,342.77053 1250.8213,342.88353 1251.7763,342.93253 1251.0263,342.80353 1250.0103,343.07053 1250.5463,342.14053 1249.9683,342.10953 1248.0023,343.21953 1247.7643,342.24853 1247.4403,340.92353 1249.4573,340.12353 1250.4183,339.93353 1251.7103,339.67753 1252.9283,339.57353 1254.2383,339.60953 1256.0933,339.66053 1257.2803,337.85953 1259.3353,338.10853 1259.1023,338.77353 1261.5713,341.09553 1262.2613,340.81653 1262.7253,340.59053 1263.1723,340.33253 1263.6013,340.04453 1264.5383,339.52353 1264.4763,340.19653 1265.2593,340.34653 1266.0333,340.49453 1266.6253,339.88453 1266.6763,341.13353 1267.1823,340.78653 1266.4383,340.37153 1266.8543,339.80653 1267.2793,339.22953 1267.4953,340.10553 1267.8683,340.20353 1268.7543,340.43553 1269.8883,340.19953 1270.7763,340.05353 1268.8903,339.50053 1269.5823,336.83453 1269.7363,335.44553 1269.8113,334.76953 1268.7883,334.09153 1268.4413,333.61953 1267.8433,332.80653 1268.3953,331.57053 1267.5363,330.90853 1268.1903,331.02253 1268.7863,331.34253 1269.4353,331.47753 1270.1453,331.62553 1271.0223,330.92853 1271.6453,331.24253 1272.6163,331.73053 1271.4053,333.19653 1272.7503,333.96653 1273.1383,334.18853 1273.8353,333.79353 1274.2353,333.78953 1275.4053,333.77853 1276.5303,334.17453 1277.6673,334.39053 1278.7783,334.60153 1279.7453,334.56953 1280.7413,334.00053 1281.6443,333.48553 1282.8513,333.50453 1283.6653,332.92553 1283.0193,333.18153 1281.9213,333.31153 1281.2923,332.95153 1280.0173,332.22053 1282.9563,330.42253 1283.4443,330.20353 1284.9943,329.50953 1286.7483,329.59253 1288.3213,328.96253 1289.2343,328.59753 1290.4503,326.50953 1291.5843,327.09353 1290.5913,326.45453 1291.1983,322.02953 1292.0223,321.20053 1292.8333,320.38653 1296.9643,318.91453 1298.0263,319.80953 1298.5673,320.26553 1297.5066,322.01981 1299.0912,322.41093 1300.7239,322.81393 1300.3433,322.44623 1301.4983,322.79423 1302.5753,323.11923 1302.2375,323.9499 1303.0715,324.3539 1304.1595,324.8809 1305.2593,324.2555 1305.1233,325.93953 1305.7713,325.52053 1306.8953,325.61753 1307.5843,325.85453 1308.8783,326.29853 1308.3323,327.89353 1308.0723,328.81953 1308.9373,328.96453 1309.9183,329.23353 1310.7793,328.88953 1311.6313,328.54853 1311.8263,327.57553 1312.6823,327.23553 1312.7563,327.77153 1312.5323,330.16853 1313.2583,330.19453 1314.3293,330.23253 1316.4853,331.64553 1316.8183,332.67253 1316.7223,332.37653 1320.8893,333.05053 1321.1033,333.06853 1322.1163,333.15553 1322.8723,332.94653 1323.6753,333.78353 1324.3073,334.44353 1324.7523,335.48053 1325.7133,335.73153 1325.9193,335.63353 1326.0843,335.48753 1326.2083,335.29353 1326.5183,334.97253 1326.6743,335.39853 1327.0033,335.44353 1327.1873,335.51353 1327.2363,335.63953 1327.1503,335.82053 1327.0933,336.21253 1328.0113,335.99853 1328.1633,336.01153 1329.1863,336.10453 1329.7743,335.47353 1330.7213,336.19453 1331.7293,336.96253 1333.8123,337.10453 1335.0733,337.31553 1333.5263,338.68053 1332.0983,340.17853 1331.5983,342.20653 1331.3553,343.19253 1330.7683,344.09853 1330.6133,345.09253 1330.5113,345.74253 1330.7323,346.00653 1330.4713,346.84153 1330.1573,347.85053 1330.9253,348.69153 1330.2463,349.31753 1329.6743,349.84553 1329.2323,350.35453 1328.3723,350.27753 1327.6513,350.21353 1327.5903,349.14653 1326.7223,349.62953 1326.0953,349.97853 1326.0353,351.09253 1327.0823,350.92553 1326.2953,351.75153 1325.6003,352.73253 1324.7023,353.44553 1324.1523,353.80353 1323.6143,354.17953 1323.0883,354.57353 1322.6553,354.96353 1322.6973,355.72753 1322.3323,356.18153 1321.7093,356.95553 1320.5023,357.31953 1320.3123,358.41353 1320.4523,358.78653 1320.5483,359.17053 1320.6023,359.56453 1320.4533,360.27353 1319.7943,360.52653 1319.5223,361.14853 1320.7103,360.99953 1321.1463,360.59353 1321.4613,359.45753 1321.7723,358.33953 1323.8323,358.42553 1324.6653,358.66053 1325.6653,358.94353 1324.9863,360.58753 1325.7143,361.38853 1326.9783,362.78053 1326.2003,363.30253 1325.0623,364.24553 1325.6653,365.10253 1327.9443,366.69053 1327.3153,367.94653 1326.8933,368.78953 1323.7483,369.94653 1323.7563,370.09053 1323.8123,371.08453 1325.7303,371.93153 1326.3923,372.49853 1327.3473,373.31853 1325.0603,374.77953 1325.3913,375.86353 1325.7923,377.17953 1328.3083,378.67153 1329.6393,378.13853 1331.3113,377.46953 1331.0613,378.44253 1330.4293,379.55553 1328.9063,382.23653 1325.9973,383.58853 1323.4023,385.34153 1323.5663,385.58553 1323.7363,385.82553 1323.9123,386.06153 1322.9433,386.20053 1322.1323,386.69853 1321.2243,387.01653 1320.2473,387.35953 1319.6233,386.81953 1318.7013,386.89253 1317.3023,387.00253 1316.4443,385.83653 1314.7713,385.98953 1315.4423,384.25853 1312.5743,385.58553 1312.5423,384.57953 1312.7243,384.26753 1313.0103,384.18553 1313.4003,384.33353 1313.3703,383.76653 1313.0303,383.44653 1312.4603,383.46953 1312.9383,384.20353 1312.5263,384.31153 1311.8663,384.34453 1310.7833,384.39853 1310.6663,384.33453 1310.3703,383.03753 1310.7613,385.62053 1310.1013,383.97353 1308.4303,383.97353 1307.4643,383.97353 1306.6743,383.36353 1305.7313,383.31753 1304.5753,383.26053 1303.3083,384.56653 1302.2813,385.03653 1301.4813,385.40353 1298.6623,386.44753 1298.8393,387.53653 1298.8203,387.89353 1298.7143,388.22553 1298.5183,388.53253 1298.0693,388.93253 1298.1073,389.28853 1298.6333,389.60053 1299.0293,390.85253 1298.7703,391.47953 1299.4993,392.68653 1298.8123,392.88353 1298.2133,392.53753 1297.5333,392.57853 1296.8273,392.62153 1296.4693,393.18353 1295.8393,393.35553 1294.3183,393.77053 1293.3913,392.19553 1291.9343,393.25653 1291.8323,393.33053 1289.8063,392.38453 1289.5883,392.22153 1289.0223,391.79853 1290.3173,391.85253 1289.4053,391.24353 1288.8773,390.89053 1287.9263,390.73553 1287.4783,391.31753 1287.2703,390.02853 1285.8433,390.56753 1285.0673,389.95553 1283.9973,389.11053 1281.8083,388.56853 1282.1483,390.59853 1280.9513,390.42553 1279.6003,390.12353 1278.3933,390.34553 1277.7223,390.46853 1277.2743,390.65853 1276.7013,390.14253 1275.6843,389.22853 1275.7613,389.60453 1274.7283,389.59053 1273.7043,389.57653 1268.7553,386.33053 1268.2483,387.64653 1267.3133,387.26053 1267.9773,386.58053 1268.0363,385.92553 1268.1063,385.14653 1265.8413,385.50153 1265.3683,384.91053 1268.2283,383.85153 1268.4703,379.88753 1268.9913,377.30953 1269.1963,376.29753 1269.3813,374.70253 1270.2223,373.98053 1271.4463,372.92853 1269.8043,372.78053 1269.6883,373.96653 1269.5183,371.53053 1270.0083,368.54553 1271.0583,366.33453 1272.0693,366.90353 1273.0753,367.57853 1273.5083,368.71053 1273.6063,369.21453 1273.7023,369.71853 1273.7983,370.22253 1274.0323,370.86353 1274.6733,370.95153 1274.6583,371.73453 1274.9483,370.72753 1273.9263,369.95253 1273.8333,368.99853 1273.6893,367.53253 1273.1743,366.53953 1271.8743,365.82653 1271.3293,365.52853 1270.7213,365.12153 1270.2673,364.68453 1269.5283,363.97253 1271.4573,364.32753 1271.8493,364.67953 1270.9413,364.23853 1270.8923,360.38553 1271.4193,359.63953 1270.2263,360.47453 1267.4193,358.83153 1266.8663,357.72453 1266.3773,356.74553 1265.2743,356.23653 1265.0533,355.09353 1264.8503,354.05053 1266.7633,352.90853 1264.3603,352.80053 1264.6433,352.46753 1264.6983,351.86253 1265.0633,351.60853 1265.9773,350.97053 1266.8193,352.04353 1267.6803,352.15253 1266.1523,351.14353 1265.5453,351.47853 1263.9513,351.68653 1263.1483,351.79153 1261.5923,350.60653 1263.0713,350.42453 1262.6583,350.01753 1262.8253,349.75353 1263.5713,349.63253 1262.4363,349.35053 1260.8233,350.27453 1259.9013,349.27253 1260.4093,349.26553 1260.8893,349.14553 1261.3413,348.91253 1260.4373,348.30853 1258.7713,348.55353 1258.5313,349.77653 1258.4983,348.97653 1257.6113,348.22853 1258.4613,347.54553 1258.1123,348.42153 1256.5413,348.36453 1257.5213,347.25753 1255.5273,348.98753 1252.8533,345.04853 1250.8313,347.18553 1250.0233,346.06853 1249.3483,345.38253 1247.9563,345.09353" id="path2182"/>
      </g>
    </g>
  <g class="landxx coastxx eu deu" id="de" transform="translate(-29.9017,-45.0745)">
    <title>Germany</title>
    <path class="landxx eu deu" d="M 1366.5765,332.3355 C 1365.9045,332.6125 1365.8348,333.57077 1365.9718,334.14978 1365.9718,333.75778 1366.3315,333.41727 1366.7781,333.24264 1366.4563,333.13649 1366.2923,332.82357 1366.5765,332.3355 z M 1367.4837,333.14185 C 1367.2681,333.14085 1367.0772,333.17705 1366.8789,333.24264 1367.2555,333.33454 1367.7879,333.27464 1368.0884,333.24264 1367.8913,333.15954 1367.6992,333.14324 1367.4837,333.14185 z M 1369.2312,333.03494 C 1368.6027,332.97024 1368.8234,333.17943 1368.1892,333.24264 1368.6052,333.45464 1369.06,334.75471 1369.298,335.15771 1369.509,335.51271 1370.4901,336.20362 1370.2051,336.66961 1369.7361,337.43661 1368.4208,337.01193 1367.8869,337.97993 1368.5929,338.27793 1369.2895,338.14693 1370.0035,337.97993 1368.4035,338.71593 1370.1297,339.22058 1370.4067,340.09659 1369.7297,340.06259 1369.4785,340.48872 1370.0035,341.00373 1370.5765,341.56473 1371.4132,341.39149 1372.1202,341.60849 1372.8712,341.83949 1373.2528,342.43959 1373.7329,343.01959 1374.3089,343.71459 1375.0797,343.79791 1375.7487,344.32991 1374.0127,344.14091 1373.552,342.69587 1372.221,341.91087 1371.348,341.39687 1370.3348,342.00387 1369.3988,341.91087 1368.3088,341.80287 1367.2505,341.4498 1367.0805,342.9188 1367.0125,343.5048 1367.4947,343.9665 1367.4837,344.53149 1367.3247,344.95249 1367.2623,345.3988 1367.1813,345.84181 1367.1113,345.11381 1367.2888,344.41653 1366.4757,344.02753 1365.5217,343.57153 1365.1782,344.47426 1365.7702,345.13625 1365.2442,345.26925 1364.7931,345.15885 1364.3591,344.83387 1366.7281,343.23387 1360.3128,342.98239 1359.6218,343.12039 1358.8278,343.27839 1357.4902,344.54764 1357.5051,345.43863 1357.5181,346.17764 1360.2801,346.56941 1359.8234,346.34577 1358.7044,345.79777 1357.9386,350.03046 1357.7067,350.98227 1357.4077,352.20932 1356.373,351.29697 1355.4893,351.88941 1354.1137,352.81162 1356.6798,353.24357 1357.0246,353.81671 1358.0119,355.45789 1354.592,355.94809 1355.6553,357.17241 1356.6936,358.36803 1352.0498,358.08896 1351.4158,357.76495 1351.8348,358.91794 1351.069,357.90997 1350.248,358.44098 1350.33,358.70825 1350.0408,358.7749 1350.248,359.14653 1351.167,359.46253 1352.2863,361.62283 1351.7833,362.59184 1351.3323,363.45984 1349.5692,364.73247 1350.4196,365.9175 1350.8753,366.55258 1350.5196,367.43276 1350.6095,367.6661 1350.8839,368.37676 1352.5419,368.41245 1351.7599,369.42745 1352.7489,369.26044 1352.6606,370.39852 1352.9516,371.0045 1349.9792,370.9765 1349.478,373.32542 1352.3162,374.7094 1354.3119,375.68254 1352.3171,377.56012 1353.0413,378.41186 1353.1517,378.54172 1355.0752,380.91604 1355.5565,380.83702 1356.2536,380.72255 1355.7018,380.29811 1356.7166,380.43174 1357.2579,380.50304 1356.7166,381.39185 1357.6415,381.15512 1357.985,381.06702 1358.4747,381.16412 1358.8277,381.12562 1360.1107,380.68162 1360.2424,381.37619 1361.4244,381.7482 1362.4904,382.08319 1363.8203,382.22699 1364.9282,382.412 1364.0272,383.20699 1363.176,383.99265 1362.444,384.94966 1361.605,386.04564 1361.3173,387.71434 1360.7595,388.92846 1360.3865,389.74045 1358.9898,395.60017 1361.0802,393.83729 1360.3582,394.67628 1363.9945,394.08685 1364.6615,394.12185 1365.9605,394.18985 1367.1029,394.14155 1367.3829,393.3155 1365.8239,393.89649 1366.3462,391.79773 1368.1892,392.71074 1369.4892,393.35576 1372.6354,393.75049 1373.9604,394.52049 1374.7734,394.99249 1379.0952,394.70071 1377.9662,396.64168 1379.5302,396.59568 1379.6371,395.17603 1379.9821,394.02106 1380.6471,394.61604 1382.1718,394.60401 1383.0059,394.52502 1382.2819,394.88301 1384.1508,395.42316 1384.5178,395.43216 1385.3787,395.45216 1385.9242,394.70681 1386.7352,394.62582 1388.3062,394.4678 1389.8313,393.25148 1391.5733,393.81947 1391.5533,393.55047 1391.5453,393.27212 1391.4725,393.01312 1392.2815,393.11312 1393.0685,393.51709 1393.8915,393.51709 1394.2905,393.38107 1394.6871,393.2947 1395.1011,393.21471 1395.5501,393.26571 1395.737,394.13923 1396.109,394.42423 1397.231,395.28521 1397.2201,394.84846 1397.5201,393.81947 1397.8191,392.79347 1396.5419,393.18858 1396.613,392.30757 1396.7,391.23258 1396.7384,391.27851 1395.9074,390.3925 1395.2814,389.72449 1395.7054,389.20562 1396.4114,388.8806 1397.2184,388.50961 1399.8383,388.06173 1399.8383,386.86473 1399.8383,384.75774 1401.2828,386.59122 1402.0558,385.65521 1403.4608,383.9552 1401.0142,382.77142 1399.9391,382.12744 1398.6831,381.37444 1397.6155,380.33161 1396.3106,379.60761 1394.6716,378.6966 1394.3428,376.62448 1392.7828,375.77746 1394.0128,374.79946 1393.4398,373.99543 1392.2788,373.35842 1391.3806,372.86487 1391.1803,371.97292 1390.7669,371.24176 1391.4203,371.14636 1391.9268,371.40661 1392.178,372.35049 1392.431,369.69548 1395.8437,370.72905 1397.2177,369.62907 1399.4107,367.87307 1403.0744,366.90372 1405.6844,365.89971 1405.4504,365.67771 1405.2248,365.50495 1404.9788,365.29495 1405.9788,365.05895 1406.2212,364.77183 1407.0838,365.90583 1409.2044,368.63969 1410.5465,363.57785 1409.4967,362.26557 1409.3647,361.44957 1408.0639,361.40925 1407.9909,360.75925 1407.8909,359.87625 1407.9589,359.57319 1407.2971,358.84418 1406.853,358.35618 1407.5187,357.9635 1407.7002,357.49876 1408.7413,354.83351 1406.077,354.11832 1406.7753,353.31837 1408.1753,351.71448 1404.3134,351.15562 1403.781,349.64805 1404.4923,349.08975 1406.739,345.64153 1405.2812,345.43866 1404.9842,344.32966 1404.6499,343.15525 1403.4669,342.71724 1402.7389,342.44824 1401.5541,342.25113 1401.451,341.30614 1401.398,340.81414 1401.1761,339.29026 1400.4431,339.29027 1399.9961,339.29027 1399.0913,339.29927 1399.3344,339.79424 1398.5254,339.32324 1396.7772,337.24262 1396.0082,337.17361 1394.3932,337.02861 1393.2853,337.16011 1392.0773,338.38313 1391.8812,337.02813 1394.1493,336.93182 1395.0003,337.07282 1393.3463,336.45682 1393.1077,336.93217 1391.8757,337.87916 1391.2947,338.32716 1390.0178,338.82624 1390.3638,339.79424 1390.5248,338.16024 1387.2836,339.61561 1386.5336,340.09662 1388.0046,339.38162 1386.3744,340.58113 1386.1304,341.30614 1385.5315,340.74414 1382.0273,339.96313 1382.8043,341.30614 1382.6613,340.78914 1382.3034,340.51 1381.7963,340.399 1382.7713,339.398 1383.651,338.73441 1383.913,337.2744 1382.586,337.5374 1381.8,338.068 1380.486,337.47599 1379.668,337.10699 1378.3672,336.60738 1377.9662,337.77837 1377.8602,337.25837 1377.8358,337.22843 1378.1678,336.77044 1377.4958,336.47144 1376.7101,336.50044 1376.0511,336.77044 1376.5531,336.53444 1377.6963,335.02596 1376.4543,335.05695 1378.4503,334.14995 1371.6583,333.5442 1371.9303,333.69319 1371.3258,333.36219 1369.8927,333.10309 1369.2312,333.03497 z" id="path3884"/>
    </g>
  <path class="landxx eu bel" d="M 1297.7177,319.63434 C 1299.5007,318.70834 1301.6439,317.77434 1303.5979,317.25734 1302.6725,318.23761 1304.8795,318.00115 1305.6313,318.18455 1306.2656,318.33928 1306.5833,318.61155 1307.2883,318.42255 1308.1603,318.18855 1309.1423,316.72855 1309.4473,318.09255 1309.3343,317.78555 1309.2373,317.47355 1309.1573,317.15555 1309.8153,317.30055 1310.6153,317.26455 1310.5273,316.36455 1311.0503,316.76055 1311.9053,316.99855 1312.3273,316.29255 1312.6813,317.15555 1313.9413,316.87655 1314.4073,316.29255 1314.9553,318.31955 1317.9243,318.31355 1319.6673,319.02755 1318.7343,320.11755 1317.7522,321.43732 1319.4183,322.26755 1319.9844,322.54966 1320.3478,322.41455 1320.7344,322.33605 1320.4444,323.0621 1322.8293,323.35088 1321.8273,324.35558 1322.8163,324.18858 1322.7663,325.33358 1323.0573,325.93958 1321.9073,326.14758 1322.0213,326.78258 1321.3063,327.37358 1321.0173,327.61258 1320.2913,327.00358 1319.6413,328.02758 1319.0913,328.89358 1318.648,329.31882 1318.7893,330.07558 1318.9532,330.84594 1320.1257,331.81483 1318.7593,332.73375 1318.4838,332.69935 1317.6428,332.71865 1316.7801,332.62391 1316.6664,332.43835 1316.1547,331.60888 1315.6001,331.27998 1314.8434,330.83123 1313.3067,330.70258 1312.8257,330.11658 1312.5077,329.72658 1312.7627,327.79258 1312.6857,327.23558 1312.0217,327.49958 1311.8307,328.05758 1311.3577,328.51958 1310.4867,329.36858 1309.1187,328.99358 1308.0757,328.81958 1308.2952,327.94064 1308.6986,326.55749 1307.9679,326.08458 1307.1007,325.52334 1305.7415,325.54583 1305.1257,325.93958 1305.2347,324.58358 1304.3478,324.90191 1303.3618,324.48691 1302.1938,323.99591 1302.4957,323.97432 1301.8482,322.96212 1301.612,322.59284 1299.4133,322.65827 1298.9482,322.37632 1297.6068,321.56318 1298.7842,320.00295 1297.7055,319.62177" id="be">
    <title>Belgium</title>
  </path>
  <g id="lu">
    <title>Luxembourg</title>
    <path class="world_map-is_selected landxx eu lux" d="M 1318.7454,329.5801 C 1318.7354,329.3621 1319.3047,329.70637 1318.7454,329.5594 1319.2296,328.29204 1319.3373,327.76939 1320.3163,327.45039 1321.4369,327.08525 1321.017,328.13058 1321.395,328.71258 1321.901,329.49258 1322.959,329.75058 1323.53,330.48158 1324.149,331.27458 1323.0304,332.47503 1323.1404,333.39103 1322.4418,333.0488 1319.6687,333.01938 1318.7299,332.72521 1320.0054,331.84421 1319.1624,331.1033 1318.7799,330.1503" id="lu-"/>
    </g>
  </svg>