<svg xmlns="http://www.w3.org/2000/svg" class="world_map zoom2" height="127" id="svg2985" version="1.1" viewBox="1125 375 200 200" width="127">
  <title>World Map</title>
  <defs id="defs2987"/>
  <style id="style_css_sheet" type="text/css">
/*
 * Below are Cascading Style Sheet (CSS) definitions in use in this file,
 * which allow easily changing how countries are displayed.
 *
 */
/* --- Custom styles for Peace Corps --- */
.world_map .world_map-is_selected {
  fill: #C94112 !important;
}
.world_map .landxx {
  fill: #F2EFE8;
  stroke: #ffffff;
  fill-rule: evenodd;
}
.world_map.zoom6 .landxx {
  stroke-width: 0.1px;
}
.world_map.zoom5 .landxx {
  stroke-width: 1px;
}
.world_map.zoom4 .landxx {
  stroke-width: 2px;
}
.world_map.zoom3 .landxx {
  stroke-width: 3px;
}
.world_map.zoom2 .landxx {
  stroke-width: 4px;
}
.world_map.zoom1 .landxx {
  stroke-width: 5px;
}
.world_map .coastxx {
  fill: #F2EFE8;
  stroke: #ffffff;
  stroke-width: 2px;
  fill-rule: evenodd;
}
.world_map .oceanxx {
  opacity: 1;
  color: #ccc;
  fill: #ffffff;
  stroke: #ffffff;
  stroke-width: 0.5;
  stroke-miterlimit: 1;
}

/* --- Original Styles --- *
/*
 * Circles around small countries
 *
 * Change opacity to 1 to display all circles.
 *
 */
.circlexx
{
   opacity:0;
   fill:#e0e0e0;
   stroke:#000000;
   stroke-width:0.5;
}

/*
 * Smaller circles around French DOMs and Chinese SARs
 *
 * Change opacity to 1 to display all subnational circles.
 *
 */
.subxx
{
   opacity:0;
   stroke-width:0.3;
}

/*
 * Circles around small, unrecognized countries
 *
 * Change opacity to 1 to display all circles.
 *
 */
.unxx
{
   opacity:0;
   fill:#e0e0e0;
   stroke:#000000;
   stroke-width:0.3;
}

/*
 * Circles around small countries, but with no permanent residents 
 *
 * Change opacity to 1 to display all circles.
 *
 */
.noxx
{
   opacity:0;
   fill:#e0e0e0;
   stroke:#000000;
   stroke-width:0.5;
}

/*
 * land
 */
.landxx
{
}
/*
 * Styles for coastlines of islands with no borders
 */


/*
 * Styles for nations with limited recognition
 */
.limitxx
{
   fill: #e0e0e0;
   stroke:#ffffff;
   stroke-width:0;
   fill-rule:evenodd;
}

/*
 * Styles for nations with no permanent population.
 */
.antxx
{
   fill: #e0e0e0;
   stroke:#ffffff;
   stroke-width:0;
   fill-rule:evenodd;
}

/*
 * Ocean
 */


/*
 * Additional style rules
 *
 * The following are examples of colouring countries.  You can substitute these with your own styles to colour the countries on the map.
 *
 * Color a few countries:
 *
 * .gb, .au, .nc
 * {
 *    fill:       #ff0000;
 * }
 *
 * Color a few small country circles (and the countries):
 *
 * .ms, .ky
 * {
 *    opacity:    1;
 *    fill:       #ff0000;
 * }
 *
 */

</style>
  <path class="oceanxx" d="M 2079.5058,1457.5605 615.24779,1457.5605 C 615.13079,1457.5605 615.07079,1457.5505 614.95179,1457.5215 611.67679,1456.6515 608.40179,1455.7815 605.12779,1454.9105 599.15079,1453.3225 593.22879,1451.5225 587.30779,1449.7385 564.39379,1442.8315 541.76579,1434.6995 519.46979,1426.0115 495.81079,1416.7935 472.34979,1407.0946 449.19179,1396.6816 426.78379,1386.6056 405.17679,1375.0536 383.76379,1363.0356 363.11779,1351.4496 343.01079,1338.8296 323.37979,1325.5996 302.29179,1311.3876 281.47879,1296.8506 261.05379,1281.7006 242.35079,1267.8276 223.73679,1253.6306 206.05279,1238.4686 186.98679,1222.1216 167.82379,1205.7706 150.35279,1187.6906 132.97779,1169.7106 116.33279,1151.0606 100.15679,1131.9976 84.352777,1113.3736 70.086776,1093.4716 56.901786,1072.9246 44.046786,1052.8916 32.093776,1032.1356 22.469776,1010.3426 17.516776,999.12753 12.408776,987.76556 8.7017761,976.06056 5.0657761,964.58166 1.5997761,953.04259 -1.5932239,941.43054 -8.0102239,918.09356 -14.055224,894.78356 -18.234224,870.92056 -22.491222,846.60856 -24.894222,822.19856 -26.943222,797.62156 -28.947222,773.58556 -28.829222,749.40156 -27.225222,725.34856 -25.648222,701.69856 -23.363222,677.92456 -19.274222,654.56456 -15.018224,630.25156 -9.3842239,606.45156 -2.8412239,582.66156 3.5687761,559.35256 10.483776,536.34856 20.265776,514.19856 30.320776,491.42956 42.318786,469.90956 55.502786,448.81656 68.512776,428.00356 83.108777,408.26756 98.686787,389.31756 113.73479,371.01156 129.68979,353.25256 146.15179,336.20856 163.77479,317.96256 182.64579,301.14556 201.89579,284.64756 220.33379,268.84456 239.55379,253.98456 258.95979,239.39656 278.42779,224.76056 298.39379,210.83356 318.55579,197.17556 339.26979,183.14456 360.47879,169.92056 382.15079,157.42556 403.46579,145.13656 425.31479,133.98856 447.60479,123.59356 469.58579,113.34356 492.14979,104.17656 514.74579,95.37556 537.44879,86.532565 560.37879,78.195565 583.63479,70.914565 589.69379,69.017565 595.80079,67.276565 601.90879,65.549565 604.63079,64.779565 607.36079,64.045565 610.09479,63.318565 611.59979,62.918565 613.56579,61.986565 615.13379,61.986565 L 2079.9638,61.986565 C 2079.9798,61.986565 2079.9958,61.986565 2080.0118,61.986565 2079.8448,61.986565 2079.6788,61.986565 2079.5118,61.986565 2102.8268,68.191565 2125.8778,75.323565 2148.5448,83.611565 2171.6378,92.054565 2194.6158,100.87956 2217.2348,110.52956 2240.5208,120.46556 2263.4848,130.95256 2285.8828,142.76456 2306.9808,153.89056 2327.8178,165.78556 2347.8608,178.72156 2368.9418,192.32656 2389.7498,206.29256 2410.2218,220.80056 2429.7368,234.62956 2448.9938,248.98756 2467.6208,263.99256 2486.8818,279.50856 2506.0408,295.30556 2524.0538,312.27356 2541.8708,329.05756 2558.7508,346.67256 2574.9408,365.03656 2591.2478,383.53256 2607.1478,402.30656 2621.4508,422.41856 2635.3488,441.96256 2648.4468,462.42756 2659.5898,483.67756 2671.1238,505.67356 2681.1048,528.35656 2688.6188,552.05056 2692.2518,563.50656 2695.3368,575.14756 2698.5608,586.72256 2701.7738,598.25356 2704.9238,609.81956 2707.4578,621.52456 2712.6258,645.40556 2716.6718,669.47856 2719.1178,693.79656 2721.5718,718.19256 2723.1798,742.56356 2722.9808,767.09056 2722.7908,790.65456 2720.6908,814.43756 2717.7688,837.81156 2714.7368,862.07056 2710.5198,886.16156 2704.6398,909.90056 2701.6808,921.84356 2698.3948,933.69556 2695.0378,945.53154 2691.7468,957.13466 2688.5558,968.83466 2684.3988,980.16156 2676.0918,1002.8036 2666.1688,1024.8836 2654.1338,1045.8046 2641.9958,1066.9066 2628.8498,1087.4866 2614.2378,1106.9696 2599.1658,1127.0666 2582.6678,1145.9446 2565.8948,1164.6296 2549.8298,1182.5266 2532.8918,1199.7316 2514.8648,1215.6616 2496.0788,1232.2646 2476.8978,1248.3126 2457.1558,1263.7656 2438.2988,1278.5276 2418.9668,1292.7306 2399.3188,1306.4206 2378.7018,1320.7866 2357.7538,1334.6106 2336.4758,1347.9776 2326.4088,1354.3016 2316.0058,1360.1326 2305.6418,1365.9516 2295.0348,1371.9086 2284.3858,1378.0166 2273.4448,1383.3436 2250.7338,1394.3986 2227.7768,1404.7266 2204.3888,1414.2665 2181.7848,1423.4875 2159.0678,1432.2695 2136.0228,1440.3345 2117.4118,1446.8465 2098.5568,1452.4975 2079.5058,1457.5605" id="ocean"/>
  <g id="fr">
    <title>France</title>
    <g class="landxx coastxx frx eu fra" id="frx">
      <path class="landxx frx eu fra" d="M 1247.9563,345.09353 C 1248.8483,344.67153 1249.9183,344.40753 1250.9063,344.58953 1251.2503,343.07553 1249.2373,344.11653 1248.8163,343.07753 1249.7423,342.77053 1250.8213,342.88353 1251.7763,342.93253 1251.0263,342.80353 1250.0103,343.07053 1250.5463,342.14053 1249.9683,342.10953 1248.0023,343.21953 1247.7643,342.24853 1247.4403,340.92353 1249.4573,340.12353 1250.4183,339.93353 1251.7103,339.67753 1252.9283,339.57353 1254.2383,339.60953 1256.0933,339.66053 1257.2803,337.85953 1259.3353,338.10853 1259.1023,338.77353 1261.5713,341.09553 1262.2613,340.81653 1262.7253,340.59053 1263.1723,340.33253 1263.6013,340.04453 1264.5383,339.52353 1264.4763,340.19653 1265.2593,340.34653 1266.0333,340.49453 1266.6253,339.88453 1266.6763,341.13353 1267.1823,340.78653 1266.4383,340.37153 1266.8543,339.80653 1267.2793,339.22953 1267.4953,340.10553 1267.8683,340.20353 1268.7543,340.43553 1269.8883,340.19953 1270.7763,340.05353 1268.8903,339.50053 1269.5823,336.83453 1269.7363,335.44553 1269.8113,334.76953 1268.7883,334.09153 1268.4413,333.61953 1267.8433,332.80653 1268.3953,331.57053 1267.5363,330.90853 1268.1903,331.02253 1268.7863,331.34253 1269.4353,331.47753 1270.1453,331.62553 1271.0223,330.92853 1271.6453,331.24253 1272.6163,331.73053 1271.4053,333.19653 1272.7503,333.96653 1273.1383,334.18853 1273.8353,333.79353 1274.2353,333.78953 1275.4053,333.77853 1276.5303,334.17453 1277.6673,334.39053 1278.7783,334.60153 1279.7453,334.56953 1280.7413,334.00053 1281.6443,333.48553 1282.8513,333.50453 1283.6653,332.92553 1283.0193,333.18153 1281.9213,333.31153 1281.2923,332.95153 1280.0173,332.22053 1282.9563,330.42253 1283.4443,330.20353 1284.9943,329.50953 1286.7483,329.59253 1288.3213,328.96253 1289.2343,328.59753 1290.4503,326.50953 1291.5843,327.09353 1290.5913,326.45453 1291.1983,322.02953 1292.0223,321.20053 1292.8333,320.38653 1296.9643,318.91453 1298.0263,319.80953 1298.5673,320.26553 1297.5066,322.01981 1299.0912,322.41093 1300.7239,322.81393 1300.3433,322.44623 1301.4983,322.79423 1302.5753,323.11923 1302.2375,323.9499 1303.0715,324.3539 1304.1595,324.8809 1305.2593,324.2555 1305.1233,325.93953 1305.7713,325.52053 1306.8953,325.61753 1307.5843,325.85453 1308.8783,326.29853 1308.3323,327.89353 1308.0723,328.81953 1308.9373,328.96453 1309.9183,329.23353 1310.7793,328.88953 1311.6313,328.54853 1311.8263,327.57553 1312.6823,327.23553 1312.7563,327.77153 1312.5323,330.16853 1313.2583,330.19453 1314.3293,330.23253 1316.4853,331.64553 1316.8183,332.67253 1316.7223,332.37653 1320.8893,333.05053 1321.1033,333.06853 1322.1163,333.15553 1322.8723,332.94653 1323.6753,333.78353 1324.3073,334.44353 1324.7523,335.48053 1325.7133,335.73153 1325.9193,335.63353 1326.0843,335.48753 1326.2083,335.29353 1326.5183,334.97253 1326.6743,335.39853 1327.0033,335.44353 1327.1873,335.51353 1327.2363,335.63953 1327.1503,335.82053 1327.0933,336.21253 1328.0113,335.99853 1328.1633,336.01153 1329.1863,336.10453 1329.7743,335.47353 1330.7213,336.19453 1331.7293,336.96253 1333.8123,337.10453 1335.0733,337.31553 1333.5263,338.68053 1332.0983,340.17853 1331.5983,342.20653 1331.3553,343.19253 1330.7683,344.09853 1330.6133,345.09253 1330.5113,345.74253 1330.7323,346.00653 1330.4713,346.84153 1330.1573,347.85053 1330.9253,348.69153 1330.2463,349.31753 1329.6743,349.84553 1329.2323,350.35453 1328.3723,350.27753 1327.6513,350.21353 1327.5903,349.14653 1326.7223,349.62953 1326.0953,349.97853 1326.0353,351.09253 1327.0823,350.92553 1326.2953,351.75153 1325.6003,352.73253 1324.7023,353.44553 1324.1523,353.80353 1323.6143,354.17953 1323.0883,354.57353 1322.6553,354.96353 1322.6973,355.72753 1322.3323,356.18153 1321.7093,356.95553 1320.5023,357.31953 1320.3123,358.41353 1320.4523,358.78653 1320.5483,359.17053 1320.6023,359.56453 1320.4533,360.27353 1319.7943,360.52653 1319.5223,361.14853 1320.7103,360.99953 1321.1463,360.59353 1321.4613,359.45753 1321.7723,358.33953 1323.8323,358.42553 1324.6653,358.66053 1325.6653,358.94353 1324.9863,360.58753 1325.7143,361.38853 1326.9783,362.78053 1326.2003,363.30253 1325.0623,364.24553 1325.6653,365.10253 1327.9443,366.69053 1327.3153,367.94653 1326.8933,368.78953 1323.7483,369.94653 1323.7563,370.09053 1323.8123,371.08453 1325.7303,371.93153 1326.3923,372.49853 1327.3473,373.31853 1325.0603,374.77953 1325.3913,375.86353 1325.7923,377.17953 1328.3083,378.67153 1329.6393,378.13853 1331.3113,377.46953 1331.0613,378.44253 1330.4293,379.55553 1328.9063,382.23653 1325.9973,383.58853 1323.4023,385.34153 1323.5663,385.58553 1323.7363,385.82553 1323.9123,386.06153 1322.9433,386.20053 1322.1323,386.69853 1321.2243,387.01653 1320.2473,387.35953 1319.6233,386.81953 1318.7013,386.89253 1317.3023,387.00253 1316.4443,385.83653 1314.7713,385.98953 1315.4423,384.25853 1312.5743,385.58553 1312.5423,384.57953 1312.7243,384.26753 1313.0103,384.18553 1313.4003,384.33353 1313.3703,383.76653 1313.0303,383.44653 1312.4603,383.46953 1312.9383,384.20353 1312.5263,384.31153 1311.8663,384.34453 1310.7833,384.39853 1310.6663,384.33453 1310.3703,383.03753 1310.7613,385.62053 1310.1013,383.97353 1308.4303,383.97353 1307.4643,383.97353 1306.6743,383.36353 1305.7313,383.31753 1304.5753,383.26053 1303.3083,384.56653 1302.2813,385.03653 1301.4813,385.40353 1298.6623,386.44753 1298.8393,387.53653 1298.8203,387.89353 1298.7143,388.22553 1298.5183,388.53253 1298.0693,388.93253 1298.1073,389.28853 1298.6333,389.60053 1299.0293,390.85253 1298.7703,391.47953 1299.4993,392.68653 1298.8123,392.88353 1298.2133,392.53753 1297.5333,392.57853 1296.8273,392.62153 1296.4693,393.18353 1295.8393,393.35553 1294.3183,393.77053 1293.3913,392.19553 1291.9343,393.25653 1291.8323,393.33053 1289.8063,392.38453 1289.5883,392.22153 1289.0223,391.79853 1290.3173,391.85253 1289.4053,391.24353 1288.8773,390.89053 1287.9263,390.73553 1287.4783,391.31753 1287.2703,390.02853 1285.8433,390.56753 1285.0673,389.95553 1283.9973,389.11053 1281.8083,388.56853 1282.1483,390.59853 1280.9513,390.42553 1279.6003,390.12353 1278.3933,390.34553 1277.7223,390.46853 1277.2743,390.65853 1276.7013,390.14253 1275.6843,389.22853 1275.7613,389.60453 1274.7283,389.59053 1273.7043,389.57653 1268.7553,386.33053 1268.2483,387.64653 1267.3133,387.26053 1267.9773,386.58053 1268.0363,385.92553 1268.1063,385.14653 1265.8413,385.50153 1265.3683,384.91053 1268.2283,383.85153 1268.4703,379.88753 1268.9913,377.30953 1269.1963,376.29753 1269.3813,374.70253 1270.2223,373.98053 1271.4463,372.92853 1269.8043,372.78053 1269.6883,373.96653 1269.5183,371.53053 1270.0083,368.54553 1271.0583,366.33453 1272.0693,366.90353 1273.0753,367.57853 1273.5083,368.71053 1273.6063,369.21453 1273.7023,369.71853 1273.7983,370.22253 1274.0323,370.86353 1274.6733,370.95153 1274.6583,371.73453 1274.9483,370.72753 1273.9263,369.95253 1273.8333,368.99853 1273.6893,367.53253 1273.1743,366.53953 1271.8743,365.82653 1271.3293,365.52853 1270.7213,365.12153 1270.2673,364.68453 1269.5283,363.97253 1271.4573,364.32753 1271.8493,364.67953 1270.9413,364.23853 1270.8923,360.38553 1271.4193,359.63953 1270.2263,360.47453 1267.4193,358.83153 1266.8663,357.72453 1266.3773,356.74553 1265.2743,356.23653 1265.0533,355.09353 1264.8503,354.05053 1266.7633,352.90853 1264.3603,352.80053 1264.6433,352.46753 1264.6983,351.86253 1265.0633,351.60853 1265.9773,350.97053 1266.8193,352.04353 1267.6803,352.15253 1266.1523,351.14353 1265.5453,351.47853 1263.9513,351.68653 1263.1483,351.79153 1261.5923,350.60653 1263.0713,350.42453 1262.6583,350.01753 1262.8253,349.75353 1263.5713,349.63253 1262.4363,349.35053 1260.8233,350.27453 1259.9013,349.27253 1260.4093,349.26553 1260.8893,349.14553 1261.3413,348.91253 1260.4373,348.30853 1258.7713,348.55353 1258.5313,349.77653 1258.4983,348.97653 1257.6113,348.22853 1258.4613,347.54553 1258.1123,348.42153 1256.5413,348.36453 1257.5213,347.25753 1255.5273,348.98753 1252.8533,345.04853 1250.8313,347.18553 1250.0233,346.06853 1249.3483,345.38253 1247.9563,345.09353" id="path2182"/>
      <path d="M 1337.1663,393.11753 C 1337.5793,392.70253 1337.6613,391.86053 1338.2123,391.58353 1339.3123,391.03353 1340.5553,390.89153 1341.5973,390.19853 1342.5273,389.57953 1341.8713,387.83453 1343.1363,387.93253 1343.2883,390.12853 1344.3433,393.29353 1343.8213,395.42053 1343.2723,397.66453 1342.1673,399.80953 1341.1963,401.89953 1340.8193,401.30653 1337.2893,400.01753 1339.1763,399.23553 1338.6673,399.11653 1338.1873,398.92453 1337.7363,398.66053 1338.2333,398.34853 1338.5823,397.82753 1338.5263,397.22053 1337.5213,397.45753 1337.3763,396.33353 1337.9563,395.78153 1337.0983,395.56553 1336.5583,394.43953 1337.7363,394.19753 1337.4923,393.86553 1337.3023,393.50653 1337.1663,393.11753" id="path2184"/>
    </g>
    </g>
  <path class="landxx lby" d="M 1342.4163,499.67755 C 1341.4533,498.84855 1343.5153,497.87255 1344.0483,497.62555 1345.6523,496.88055 1346.5173,496.45355 1347.4893,494.87755 1348.2703,493.61055 1349.054,492.99261 1348.749,491.36061 1348.486,489.95361 1347.8193,488.53555 1347.9633,487.06755 1348.1613,485.05455 1350.6043,485.57026 1350.9943,484.12711 1351.4147,482.57157 1352.6828,481.7702 1353.9833,481.15155 1354.98,480.67741 1358.2173,479.79355 1358.2433,478.41555 1358.2563,477.72555 1357.5803,477.29855 1357.6523,476.56555 1357.7823,475.22355 1357.8343,473.87555 1357.9673,472.53355 1359.2603,473.43355 1360.9953,473.88855 1362.3843,474.74255 1363.8423,475.63855 1365.4973,475.94355 1367.1933,475.75755 1368.9093,475.56955 1370.1723,474.48255 1371.9373,475.12055 1373.5093,475.68955 1375.1743,475.74855 1376.7043,476.40055 1378.0663,476.98155 1379.1653,478.03055 1380.5393,478.56855 1381.7413,479.03955 1383.3643,478.54655 1384.4363,479.28755 1385.6993,480.16055 1385.9353,481.65855 1386.1783,483.06055 1386.4893,484.85455 1387.1933,486.28455 1388.5913,487.48955 1391.1163,489.66555 1394.2353,489.15555 1397.2723,489.70655 1400.3213,490.26055 1404.6613,491.64555 1407.1033,493.62355 1409.0553,495.20555 1410.8613,497.87655 1413.6523,497.62555 1416.8773,497.33455 1420.3253,494.49155 1421.0473,491.25355 1421.3803,489.75855 1420.3693,488.59555 1419.9113,487.24855 1419.4053,485.76355 1419.0353,484.05655 1419.5443,482.51955 1420.4783,479.69955 1425.1213,476.20155 1428.0653,476.10255 1429.5893,476.05155 1430.4793,474.94855 1431.8893,474.84055 1433.3273,474.73055 1434.8613,474.70455 1436.2653,475.04855 1437.9073,475.44955 1439.3393,476.24355 1440.8963,476.85355 1442.7423,477.57655 1442.2533,477.82755 1442.3443,479.44355 1442.4163,480.75255 1444.5303,481.02955 1445.4733,481.09955 1447.3033,481.23755 1448.4873,482.06655 1450.1783,482.55655 1451.8573,483.04355 1453.6193,482.48055 1455.3233,482.79255 1456.2893,482.96855 1457.7453,484.89455 1457.4013,485.90655 1457.0393,486.97455 1455.7363,487.24655 1455.5553,488.44855 1455.3043,490.10855 1456.3643,491.33955 1456.6563,492.88355 1456.9843,494.62055 1455.8645,496.15946 1455.2745,497.66946 1454.6475,499.27146 1456.2891,501.17437 1456.5621,502.83237 1457.0251,505.65837 1457.5289,508.32982 1457.7059,511.22782 L 1459.4893,586.50855 C 1456.9963,586.50855 1454.5023,586.50855 1452.0093,586.50855 1452.0783,587.94755 1452.0243,589.39155 1452.1493,590.82855 L 1392.498,557.06786 1378.9703,563.54955 C 1377.8243,563.86255 1376.42,561.99255 1375.752,561.32755 1372.96,558.54455 1369.9293,557.97555 1366.2113,557.13055 1364.8833,556.82855 1363.1463,556.67455 1361.9633,555.94055 1361.0263,555.35855 1360.583,553.71742 1360.195,552.76742 1359.056,549.97642 1357.669,549.21693 1354.937,548.18893 1354.03,547.84793 1353.1623,547.07755 1352.1693,547.10355 1351.1973,547.12855 1350.1483,548.20755 1349.2363,547.22155 1348.4953,546.42155 1347.2153,544.36555 1347.1963,543.25855 1347.1563,540.94255 1346.9323,540.09655 1345.6583,538.12455 1344.6773,536.60455 1341.4153,533.90455 1342.8193,531.88155 1344.4393,529.54755 1346.9173,530.44055 1345.8553,526.61255 1345.3243,524.69755 1344.9423,523.22655 1345.5983,521.28355 1346.1603,519.61855 1346.4933,518.24455 1345.8783,516.52355 1345.2323,514.71355 1345.7343,512.90155 1345.8963,511.06255 1346.0883,508.88255 1345.7623,506.68355 1345.0383,504.62455 1344.4143,502.85855 1343.5113,501.19555 1342.4163,499.67755" id="ly">
    <title>Libya</title>
  </path>
  <path class="landxx dza" d="M 1208.8563,523.43755 1209.3663,512.56555 C 1208.8952,509.64211 1213.3773,508.67755 1214.9913,507.20755 1215.7915,506.47876 1217.0995,504.98963 1218.3312,505.06637 1219.4027,505.13317 1219.6506,503.5187 1221.0593,503.24555 1223.3526,502.80087 1224.5286,505.02464 1225.9076,501.98564 1226.3356,501.04464 1227.7643,501.43864 1228.5853,501.33064 1230.0633,501.13464 1231.5523,500.93355 1232.9473,500.41755 1235.7493,499.38155 1235.8651,496.37237 1238.2541,495.11037 1239.2391,494.58937 1240.5283,494.53155 1241.5673,494.14755 1242.8463,493.67355 1243.6863,492.23955 1245.0053,491.97455 1245.4883,491.87755 1248.0874,491.66637 1247.0244,490.29637 1246.3374,489.41137 1245.2453,489.08855 1246.6553,487.79955 1244.6383,487.24555 1246.4593,485.13155 1247.9393,485.25555 1249.8973,485.41955 1251.7033,484.72155 1252.3973,482.88855 1253.7273,479.37755 1262.7903,482.48755 1265.3753,481.82355 1262.4113,480.48579 1267.5402,478.85219 1265.9293,477.61055 1265.1686,477.02419 1264.3173,476.50655 1263.6993,475.75655 1262.9833,474.88955 1263.3563,473.64655 1262.6533,472.58455 1261.9183,471.47455 1262.3257,470.56109 1262.5377,469.45609 1262.7367,468.42009 1261.9373,468.40755 1262.0493,467.40255 1262.1543,466.46355 1262.1403,465.33237 1262.1519,464.39737 1262.1689,463.14237 1261.3323,462.13455 1262.5763,461.16055 1261.2833,460.63255 1261.8064,459.91182 1261.6194,458.94482 1261.3704,457.65682 1259.1367,457.23882 1258.6477,455.91382 1261.0427,455.90782 1262.0663,455.32655 1264.1013,454.28655 1264.9873,453.83355 1265.5453,453.83255 1266.0803,452.89855 1266.5533,452.07155 1266.9103,451.37755 1267.7893,450.90755 1268.2853,450.64155 1269.2463,449.86955 1269.7703,450.28355 1270.4503,450.82055 1271.3083,449.88755 1271.7603,449.47355 1272.9343,448.40055 1274.5463,451.10155 1275.7463,448.63355 1277.3553,445.32655 1282.9003,443.89555 1286.1483,443.52155 1288.4603,443.25555 1290.7963,442.61955 1293.1263,442.77655 1294.8643,442.89355 1296.0613,440.67755 1297.5693,441.53055 1298.2253,441.90155 1298.0763,441.69355 1298.3263,441.28055 1298.3813,441.19055 1300.9873,441.22855 1301.3753,441.07455 1303.6273,440.18155 1305.9013,440.51855 1308.2693,440.45255 1310.2423,440.39755 1310.7113,440.80655 1312.2133,441.93955 1314.1323,443.38655 1314.7983,441.24655 1316.4623,441.04255 1316.9973,440.97755 1320.3173,440.83355 1320.1353,439.85055 1319.8073,438.08055 1322.2243,439.17055 1322.7993,439.55655 1324.0003,440.36155 1325.8073,440.76855 1327.0383,439.78455 1327.7143,439.24355 1327.2733,438.53955 1328.5603,438.86055 1329.4743,439.08855 1330.1913,439.76055 1331.1853,439.70755 1330.3433,441.09855 1332.4313,440.61155 1333.0913,440.43955 1334.4083,440.09655 1335.8313,440.41755 1337.0953,439.99455 1337.1903,441.78855 1334.9163,442.66755 1333.9253,443.81055 1336.6243,444.39255 1334.0353,448.18755 1334.5803,449.92655 1335.5273,452.94755 1335.1323,455.23055 1334.4953,458.21055 1333.9713,460.66255 1331.2423,462.57255 1329.4193,464.18155 1328.3563,465.11955 1328.8733,467.56955 1329.4943,468.60855 1330.4983,470.28955 1330.0413,472.12155 1332.1103,472.90755 1334.9353,473.97955 1334.1063,477.55855 1336.3833,479.26255 1337.4393,480.05355 1338.6853,480.62555 1339.5793,481.61855 1340.7873,482.96155 1340.9643,485.16255 1341.2453,486.86655 1341.8253,490.38655 1343.4953,494.29755 1343.4953,497.84655 1343.4953,498.80455 1341.4813,498.43809 1342.7803,500.17009 1344.0373,501.84909 1345.0779,503.8229 1345.4933,505.88855 1346.9232,512.99892 1344.8215,512.95496 1345.8933,516.60055 1346.4047,518.33994 1346.4318,519.61146 1345.7558,521.30446 1344.9927,523.21545 1345.6888,525.00182 1346.1035,526.90882 1346.7295,529.79182 1345.4473,529.83764 1343.3983,531.38564 1341.0633,533.15164 1344.9453,536.58155 1345.9583,538.13955 1347.8523,541.05155 1346.7133,544.50855 1349.2323,547.22755 1350.1993,548.27155 1351.3113,547.01955 1352.3433,547.09755 1353.6493,547.19655 1355.0663,548.18155 1356.2923,548.62655 1359.0903,549.64255 1360.0303,551.99055 1361.0623,554.64855 1361.5523,555.90755 1362.0463,556.05955 1360.6823,556.83355 1346.4891,565.88635 1332.1714,574.94385 1320.0763,586.71855 1319.3806,587.73138 1317.1303,590.26255 1315.3823,591.22855 1314.0559,591.96158 1312.1043,592.02855 1310.6423,592.33155 1308.6553,592.74255 1306.6633,593.13255 1304.6783,593.55355 1303.6823,593.76455 1294.9543,596.76355 1295.3293,593.67455 1295.4613,592.58555 1296.2393,592.16355 1296.1323,590.95755 1296.0913,590.49455 1296.2303,588.06264 1295.7481,587.82164 1294.2811,587.08764 1292.4489,586.75173 1290.8299,586.44073 1290.0319,586.28673 1288.9599,584.25714 1288.3505,584.40673 1284.8532,585.26519 1284.3029,581.77993 1283.6743,581.25855 1282.9316,580.64256 1281.6503,580.58655 1280.9703,580.06955 1280.2053,579.48855 1280.8639,578.04546 1280.4039,577.26546 1279.8259,576.28446 1278.8223,575.43055 1277.8813,574.87355 1276.2693,573.91955 1274.7593,572.78655 1273.2823,571.63955 1269.6123,568.79055 1266.0063,565.85655 1262.3533,562.98555 1248.2653,551.90955 1234.1963,540.87455 1219.4563,530.66955 1215.9393,528.22955 1212.4043,525.82455 1208.8563,523.43755" id="dz">
    <title>Algeria</title>
  </path>
  <path class="landxx mli" d="M 1178.5463,631.79755 C 1179.8973,631.47255 1180.5003,632.20355 1181.5993,630.79455 1182.5263,629.60555 1182.1103,627.04555 1182.5633,625.56355 1183.5913,622.17855 1188.2933,627.78655 1188.7763,628.84555 1189.6743,626.38355 1191.1693,625.03455 1194.0003,626.18355 1195.8613,626.93855 1199.8063,626.80455 1200.2163,624.23655 1201.2763,626.80455 1206.5013,625.65655 1208.5463,625.50055 1213.5483,625.11855 1218.6803,625.38955 1223.6953,625.38955 1225.4613,625.38955 1227.6374,625.18382 1229.3838,625.36215 1230.6668,625.49318 1230.2948,623.36008 1230.4193,622.26353 1230.5603,621.02183 1231.7691,618.63 1230.4713,617.80553 1228.2296,616.38135 1228.8296,615.12309 1228.8443,613.31353 L 1223.6153,543.23753 1236.8626,543.24453 C 1250.5584,553.50818 1263.4102,563.72688 1276.3665,573.90557 1277.9234,575.03139 1280.8498,576.15875 1280.6323,578.50263 1280.5643,579.23622 1280.4606,579.88986 1281.7742,580.41686 1282.4129,580.67308 1283.1226,580.85209 1283.6646,581.21409 1284.5696,581.81809 1284.4206,582.90409 1285.1436,583.62709 1285.8316,584.31509 1286.5499,584.40946 1287.4373,584.56295 1288.0818,584.67442 1287.6054,583.97027 1288.7594,584.54365 1289.587,584.95491 1289.9463,586.05092 1290.8923,586.34892 1292.3663,586.81492 1294.3411,586.9387 1295.7061,587.7457 1296.7021,588.3347 1296.4128,591.10306 1295.9888,592.06706 1295.3988,593.40806 1294.5388,594.68019 1296.6728,594.98519 1298.9298,595.30919 1301.4862,594.10733 1303.7162,593.83033 1303.4264,599.97333 1304.3028,606.49782 1303.5068,612.58246 1303.4148,613.28151 1303.631,613.75792 1303.1053,617.08792 1302.9335,618.17644 1303.3182,616.78808 1301.7928,619.98892 1301.3242,620.97202 1301.3513,622.16092 1300.9243,623.17492 1300.5123,624.15192 1299.5603,624.44992 1298.7813,625.05192 1297.8233,625.79092 1298.4763,626.76492 1297.1623,626.54092 1296.8623,626.48992 1294.2403,625.78992 1294.1203,626.24392 1293.8053,627.43192 1285.6115,627.03024 1284.3695,627.12924 1281.3285,627.37124 1281.3913,626.99792 1279.2393,629.35092 1278.5643,630.08992 1277.2363,630.35192 1276.2893,630.14292 1275.7413,630.04292 1274.4873,630.03078 1273.9313,630.04482 1272.9413,630.02582 1273.0053,629.26496 1273.0053,630.50396 1272.2873,630.23296 1271.6019,629.88887 1270.8933,629.59196 1269.189,628.87783 1268.7799,630.07489 1268.1338,629.59796 1267.505,629.13363 1266.4288,628.5253 1265.0153,629.7851 1263.5425,631.09778 1261.4052,632.19329 1260.564,632.75677 1259.1505,633.70348 1258.1129,634.44913 1256.6673,634.8131 1255.479,635.11229 1256.4463,637.6291 1254.6863,636.8581 1253.6033,636.3841 1252.6158,635.72583 1251.4678,636.52083 1250.4918,637.19783 1249.9643,638.4421 1249.6073,639.5111 1249.4033,640.1221 1249.1267,641.1026 1248.8397,641.6816 1248.5907,641.51044 1246.9973,641.12161 1246.3653,641.0171 1246.9313,642.0271 1246.3843,643.5201 1246.5153,644.6181 1245.5413,644.5841 1244.7613,644.4251 1245.0053,645.6261 1243.9713,645.5231 1240.9853,644.0111 1241.0453,642.7451 1239.1497,647.2856 1237.7443,645.14461 1238.7023,646.7631 1239.2324,647.6586 1239.2524,648.33731 1239.0389,649.10937 1238.9519,649.42445 1236.6752,649.02517 1237.2282,649.97901 1238.2474,651.7373 1237.7975,653.63036 1235.8237,655.29735 1234.9056,656.07273 1233.8113,655.7581 1232.7003,655.9601 1231.6623,656.1481 1231.0803,657.2751 1229.9553,657.2191 1231.9533,657.72084 1230.5053,658.76258 1231.1116,659.11497 1232.1402,659.7129 1231.2631,662.35853 1230.6954,663.30385 1230.5081,663.61585 1229.4368,663.74684 1229.5013,664.0471 1229.8267,665.5611 1230.0235,667.4321 1228.9803,668.7951 1228.5615,669.34234 1227.3393,669.3221 1226.7483,669.4861 1225.5113,669.8301 1226.1523,671.4731 1224.5893,671.3301 1222.8573,671.1711 1223.9943,667.7181 1223.4053,666.6501 1222.7323,666.9281 1222.6053,668.1311 1221.9653,668.3061 1221.2983,668.4881 1220.7923,667.5691 1220.3053,667.2981 1220.2663,668.1161 1220.7043,670.1681 1219.4673,670.1501 1218.5413,670.1351 1217.2403,670.2071 1218.0063,671.4741 1216.8723,671.9761 1214.0333,670.5751 1214.1863,669.1701 1213.6033,669.4291 1212.6603,669.1301 1212.2163,669.6641 1211.5203,670.5021 1211.6113,671.5001 1210.2263,671.6181 1211.2483,669.7151 1207.8733,669.4341 1207.8653,667.8151 1207.8653,666.7801 1208.1253,665.5721 1207.8823,664.5651 1207.5353,663.1291 1205.6293,664.8081 1204.9663,664.7771 1205.2193,663.8551 1205.9523,661.4201 1207.3463,661.8971 1207.8503,660.5081 1204.9923,659.9951 1204.8263,658.6571 1203.9183,659.1731 1204.0003,658.1521 1204.0833,657.5711 1204.2693,656.2591 1203.7423,655.7541 1203.1873,654.6551 1202.7503,653.7891 1203.3003,652.5621 1202.2833,652.0551 1201.8873,651.8571 1200.5053,651.0911 1200.0953,651.4771 1199.6443,651.9011 1201.0973,652.9681 1200.1203,653.4291 1199.0133,653.9511 1198.1413,654.8371 1197.0233,655.3951 1196.2483,655.7821 1195.3803,654.6671 1194.7463,654.4081 1193.3763,653.8491 1192.3203,653.9491 1191.3493,655.1061 1188.9083,658.0161 1190.2473,654.5501 1188.1273,653.8331 1186.7503,653.3681 1185.2953,657.7711 1183.9453,654.3741 1183.5133,653.2881 1185.3083,652.2941 1184.4393,651.0681 1183.9393,650.3621 1184.3313,648.6791 1184.6023,647.9401 1184.9213,647.0681 1182.2663,642.0991 1181.7173,644.2571 1181.0933,644.0801 1180.1003,642.1471 1179.8253,641.5601 1179.5783,641.0321 1180.3763,639.9741 1180.3463,638.9291 1180.3023,637.3591 1180.4813,636.6911 1179.3703,635.4561 1178.9843,635.0271 1178.5803,634.5151 1178.8373,633.8971 1179.2753,632.8381 1178.9703,632.8391 1178.5463,631.7981" id="ml">
    <title>Mali</title>
  </path>
  <g class="landxx coastxx eu ita" id="it" transform="translate(-29.9017,-45.0745)">
    <title>Italy</title>
    <path class="landxx eu ita" d="M 1353.5711,414.65164 C 1354.5811,413.57664 1357.2431,414.48464 1357.1191,412.24764 1357.0691,411.34564 1356.411,410.95 1355.838,410.332 1355.527,410.013 1355.1701,409.64432 1354.9011,409.28932 1355.7468,408.80713 1356.603,407.74092 1356.0773,407.16239 1356.9793,407.40239 1357.971,408.279 1358.939,407.942 1360.155,407.518 1360.7132,407.72227 1361.8742,407.80927 1362.6372,407.86627 1363.5707,406.94036 1363.9157,406.34836 1364.1957,405.89436 1364.237,405.492 1363.8967,405.072 1364.7227,404.85 1365.3257,404.201 1365.8367,403.559 1366.7325,404.11066 1366.3768,404.83194 1366.8662,405.61418 1367.3328,406.35991 1368.0418,406.55999 1368.6823,407.17827 1368.9304,407.41769 1368.9869,408.13197 1369.9251,408.70955 1370.2274,408.89569 1370.1019,406.85659 1370.7661,406.23418 1371.5218,405.52595 1371.7656,405.06534 1371.8636,403.91627 1372.0307,401.95811 1372.6773,403.34771 1373.1144,403.81209 1373.8453,404.58865 1374.1084,404.70505 1375.0379,404.38736 1376.5408,403.87369 1376.5351,404.97701 1377.5757,405.503 1377.6817,404.844 1378.1897,404.178 1377.3507,403.796 1376.5997,403.454 1377.5957,402.10809 1378.0757,402.01209 1378.5507,401.91709 1379.0739,402.61727 1379.5149,402.73827 1380.4859,403.00527 1379.5849,401.41782 1379.6818,401.09736 1379.8706,400.47606 1379.9569,400.27088 1380.0607,399.98291 1380.6907,400.04571 1382.2715,400.52909 1382.6345,400.71509 1383.5875,401.20409 1384.2377,399.946 1384.7957,399.444 1385.5407,398.775 1386.7127,398.965 1387.6167,399.018 1389.0827,399.105 1390.4877,398.006 1391.9067,398.302 1390.3347,399.245 1393.5278,401.70153 1394.4128,401.98253 1397.0748,402.82653 1398.9418,401.97353 1401.5998,402.74652 1401.4888,403.75352 1400.4049,404.4439 1399.8967,405.071 1400.4927,405.408 1401.0887,405.784 1401.7667,405.935 1401.1907,406.611 1400.309,407.586 1401.5567,407.951 1400.8169,408.91389 1402.0236,409.27455 1402.4222,409.35427 1403.3675,409.5433 1403.6365,411.11004 1402.1967,410.831 1403.2037,408.754 1400.4827,409.92 1399.9667,410.111 1399.7487,408.678 1398.0087,409.983 1397.5027,410.301 1396.9477,410.65 1396.3677,410.973 1395.7827,411.267 1395.3947,411.462 1392.1017,412.526 1394.1367,411.477 1393.5907,411.59 1392.8617,411.516 1392.4067,411.91 1392.0847,412.189 1392.2367,413.34 1391.6167,413.206 1391.6067,413.539 1392.8387,415.25 1392.9577,415.283 1394.7847,415.785 1393.6287,418.438 1392.5567,417.238 1390.4697,420.924 1395.1547,424.426 1397.6797,426.037 1398.9157,426.826 1400.9167,427.381 1401.7837,428.618 1403.0477,430.419 1403.7157,432.788 1404.4567,434.843 1405.4077,437.481 1408.8737,440.18 1411.3417,441.314 1413.1687,442.154 1414.1417,442.413 1416.1737,442.141 1416.9327,442.04 1420.2827,441.547 1419.8677,443.286 1419.6697,444.116 1417.2957,444.888 1418.1647,445.903 1419.1027,446.998 1421.5867,447.621 1422.8597,448.075 1424.8897,448.8 1426.7157,449.517 1428.4147,450.871 1430.1477,452.252 1432.2757,452.662 1433.9667,454.187 1435.1037,455.212 1436.6187,456.286 1436.3347,457.994 1436.2697,458.382 1436.1887,460.128 1435.6057,460.186 1434.8117,460.265 1433.8297,459.793 1433.4087,459.103 1432.4897,457.597 1432.5507,455.853 1430.2757,456.082 1428.4487,456.266 1428.0807,455.073 1427.8257,454.39 1425.8977,454.715 1425.4747,454.696 1424.2597,456.488 1423.5077,457.599 1422.9607,458.993 1422.6857,460.308 1422.3707,461.815 1424.2917,462.182 1425.3317,462.66 1427.0017,463.427 1427.3037,464.62 1427.4677,466.308 1427.7437,469.158 1422.8137,467.109 1423.2757,470.55 1423.5017,472.233 1423.0467,472.365 1421.9727,473.508 1421.0647,474.476 1420.3607,475.67 1419.2767,476.464 1418.2577,477.211 1417.3967,476.791 1416.8857,475.702 1416.1087,474.044 1418.5157,473.275 1418.6377,471.767 1418.6787,471.255 1418.4297,470.638 1418.7837,470.181 1419.3737,469.417 1420.5317,469.988 1420.8467,469.005 1421.1207,468.149 1420.0447,467.178 1419.8337,466.396 1419.5057,465.181 1419.4007,464.113 1418.7447,463.003 1417.9587,461.673 1417.8417,459.68 1416.7967,458.556 1416.1737,457.887 1415.7397,458.046 1415.1507,458.535 1414.4477,459.12 1413.7247,457.932 1413.2637,457.562 1412.7417,457.144 1411.8927,457.254 1411.7317,456.413 1411.5997,455.72 1412.0537,455.513 1411.6857,454.661 1410.8907,452.822 1408.8217,452.779 1407.3077,453.741 1408.0847,452.562 1407.8377,451.456 1406.2377,451.617 1405.0457,451.736 1404.3717,449.977 1403.9407,449.155 1403.1757,447.694 1402.2697,448.544 1401.0207,448.176 1400.3537,447.98 1399.7317,447.666 1399.0147,447.837 1397.5127,448.194 1398.4757,447.996 1397.4407,447.151 1396.4137,446.314 1395.1157,446.084 1394.0957,445.16 1392.9627,444.135 1392.2967,442.619 1391.0567,441.754 1389.9807,441.002 1389.5627,441.193 1388.8447,440.019 1388.0957,438.793 1386.1737,437.353 1384.7087,438.261 1385.5487,436.854 1382.1217,433.222 1380.8537,433.402 1381.0037,433.381 1378.9787,427.645 1378.9017,427.272 1378.2067,423.895 1375.9067,424.272 1373.4787,422.637 1370.9667,420.946 1367.7737,420.027 1365.6657,422.756 1364.9167,423.725 1364.2957,424.843 1363.1797,425.445 1362.7847,425.659 1359.1704,426.80528 1359.4169,425.87946 1359.5979,425.19963 1362.2977,422.20476 1359.0847,423.34181 1357.1633,424.02178 1353.5423,420.98964 1355.9242,419.02164 1356.7789,418.31541 1356.6248,417.73137 1355.6122,417.22064 1353.9418,416.37814 1353.4556,415.09597 1353.6777,415.008" id="path2906"/>
    <path d="M 1365.478,455.04 C 1365.228,454.465 1364.743,454.1 1364.399,453.595 1363.764,452.664 1364.262,451.792 1364.118,450.792 1366.017,452.938 1368.455,450.371 1369.948,449.088 1370.49,448.623 1371.247,447.823 1372.026,448.317 1372.535,448.64 1372.888,449.501 1373.618,449.135 1373.359,449.694 1373.576,450.041 1374.188,450.072 1373.953,450.266 1373.716,450.459 1373.478,450.649 1374.95,450.589 1375.582,454.014 1375.268,455.04 1374.995,455.934 1373.657,456.413 1374.486,457.459 1375.308,458.497 1374.537,461.137 1374.472,462.389 1374.424,463.327 1374.503,465.269 1373.57,465.86 1372.707,466.406 1371.269,465.322 1370.308,465.408 1369.806,466.172 1369.978,468.288 1368.49,468.039 1367.075,467.802 1367.05,468.178 1366.348,466.776 1366.157,467.017 1365.963,467.257 1365.768,467.496 1365.529,467.293 1365.335,467.053 1365.188,466.776 1366.443,466.526 1365.651,465.742 1365.609,464.67 1365.557,463.351 1365.746,462.04 1365.838,460.728 1366.079,460.918 1366.319,461.111 1366.558,461.304 1366.542,460.85 1366.746,460.372 1366.606,459.921 1366.454,459.431 1365.722,459.609 1365.617,459.025 1365.522,458.5 1366.167,457.795 1366.16,457.192 1366.15,456.405 1365.296,455.779 1365.478,455.04" id="path2910"/>
    <path d="M 1379.738,435.456 C 1379.029,435.022 1378.186,435.404 1377.508,434.88 1378.235,434.54 1379.09,434.619 1379.738,434.088 1379.814,434.544 1379.814,435 1379.738,435.456" id="path2912"/>
    </g>
  <g class="landxx coastxx eu prt" id="pt" transform="translate(-29.9017,-45.0745)">
    <title>Portugal</title>
    <path class="landxx eu prt" d="M 1240.127,464.76 C 1240.054,464.52 1239.981,464.281 1239.907,464.04 1242.228,463.864 1243.026,460.098 1243.694,458.386 1244.28,456.884 1244.607,455.221 1245.04,453.661 1245.158,453.239 1245.559,453.167 1245.815,452.874 1246.029,452.629 1246.049,451.034 1245.457,452.736 1245.718,450.893 1246.177,449.793 1245.781,447.932 1245.651,447.323 1244.718,444.123 1245.957,444.095 1244.157,444.643 1245.599,441.985 1246.561,441.575 1247.649,441.111 1249.181,441.051 1250.067,440.207 1249.962,440.808 1250.23,441.156 1250.857,441.071 1250.463,441.355 1249.096,443.177 1250.381,443.143 1251.434,443.115 1252.515,442.295 1253.558,442.468 1254.931,442.695 1255.446,443.239 1256.827,442.511 1257.276,441.037 1259.348,442.166 1260.577,442.043 1262.012,441.899 1261.204,442.935 1261.3,443.707 1261.362,444.207 1263.061,444.509 1263.442,444.856 1264.273,445.614 1259.05,449.746 1258.371,449.912 1258.955,449.769 1258.698,453.618 1258.707,453.901 1258.725,454.432 1258.962,455.41 1258.707,455.903 1258.369,456.557 1257.385,456.295 1257.173,457.137 1257.047,457.637 1258.834,459.664 1257.227,460.186 1256.618,460.384 1256.974,461.171 1256.469,461.468 1255.733,461.9 1253.866,461.736 1253.087,461.518 1253.353,462.1 1253.903,462.443 1254.352,462.861 1254.929,463.398 1254.396,463.987 1254.785,464.676 1255.186,465.387 1256.753,466.509 1256.484,467.349 1256.023,468.791 1254.439,469.516 1254.033,470.975 1253.677,472.257 1254.889,474.643 1256.477,474.119 1255.787,475.773 1254.663,475.364 1253.831,477.028 1253.42,477.85 1252.634,478.399 1252.251,479.242 1251.734,480.38 1252.878,481.502 1252.288,482.642 1251.4,484.355 1248.832,484.559 1247.327,483.946 1245.516,483.209 1243.106,483.13 1241.498,484.487 1241.27,483.748 1241.809,482.756 1242.108,482.116 1242.588,481.091 1242.518,479.78 1242.986,478.88 1243.541,477.817 1242.801,477.064 1242.862,476.003 1242.952,474.44 1243.907,473.379 1242.937,471.814 1243.459,473.462 1244.082,471.655 1243.947,471.023 1243.632,471.787 1241.242,472.031 1240.417,472.319 1240.829,471.623 1240.574,470.828 1240.777,470.087 1241.067,470.2 1241.353,470.32 1241.637,470.447 1241.697,469.893 1242.125,469.787 1242.516,469.536 1243.081,469.171 1242.436,468.202 1242.427,467.711 1241.915,468.386 1240.204,470.83 1239.14,470.028 1237.78,469.003 1240.122,466.056 1240.127,464.76" id="path3446"/>
    <path d="M 1124.358,478.44 C 1123.637,478.335 1120.909,477.926 1122.188,476.711 1123.362,478.074 1125.257,476.924 1126.728,477.287 1126.784,478.382 1125.076,478.4 1124.358,478.44" id="path3624"/>
    <path d="M 1126.587,485.136 C 1126.22,484.967 1125.907,484.727 1125.648,484.416 1126.241,484.259 1126.608,484.506 1126.587,485.136" id="path3626"/>
    <path d="M 1180.868,522.216 C 1180.141,522.07 1179.563,521.696 1179.045,521.179 1178.634,520.769 1179.401,520.147 1179.829,520.598 1180.387,521.187 1181.19,520.24 1181.834,520.963 1182.541,521.759 1181.687,522.413 1180.868,522.216" id="path3628"/>
  </g>
  <g class="landxx coastxx mrt" id="mr" transform="translate(-29.9017,-45.0745)">
    <title>Mauritania</title>
    <path class="landxx mrt" d="M 1174.038,624.96 C 1173.834,623.583 1173.952,622.63231 1174.5022,621.30676 1174.656,620.93615 1175.1676,620.04229 1176.1362,619.992 L 1204.0196,619.9601 C 1205.4377,619.21303 1204.4635,613.05083 1204.369,610.67896 1204.196,608.29496 1203.955,606.74211 1205.8662,604.93332 1207.4667,603.41858 1207.4139,603.80466 1212.4988,601.7256 L 1213.6158,579.89333 1238.4949,579.60169 1238.8293,568.53078 C 1248.3013,574.90378 1257.5966,581.46796 1266.7336,588.31296 1262.3396,588.31296 1257.911,588.31296 1253.518,588.31296 L 1258.9415,661.22389 C 1259.3879,662.41642 1260.6158,662.93046 1260.725,663.20909 1261.4513,665.06351 1260.4953,665.62417 1260.4268,667.05312 1260.3468,668.72762 1260.1813,670.2358 1259.6934,670.41556 L 1243.8056,670.43456 C 1234.7811,670.74684 1230.9156,671.98294 1230.118,669.31396 1229.733,671.72996 1226.1541,672.12498 1224.389,671.42396 1221.6014,670.31683 1219.8215,670.78351 1218.679,673.92196 1218.0302,672.85057 1217.0856,671.93694 1216.118,671.00396 1214.9715,669.89845 1213.8663,669.30557 1213.2574,669.64318 1210.9685,670.91226 1214.1631,677.29354 1208.5413,676.89057 1208.5703,676.99271 1207.0251,675.79755 1206.6158,675.01503 1206.1101,674.04807 1205.5263,674.35618 1204.556,673.52796 1203.505,672.63085 1203.5789,671.16703 1202.7168,670.59395 1200.4084,669.05944 1201.3234,669.04029 1201.109,667.99971 1200.8449,666.71833 1199.5407,665.08635 1198.888,665.07696 1195.4916,665.02806 1195.2482,662.2719 1193.0458,661.21075 1191.9347,660.6754 1190.9663,660.39252 1189.4684,660.34358 1187.1356,660.26738 1186.3333,662.54717 1180.9789,662.14735 1179.8502,662.06305 1180.0008,661.30918 1179.0395,661.5822 1178.1062,661.92382 1177.0088,664.92762 1176.6368,665.71496 1176.6368,660.51296 1180.061,656.26996 1180.555,651.17096 1180.852,648.10096 1180.428,645.50496 1180.043,642.49896 1179.904,641.41496 1179.939,640.22596 1179.25,639.30696 1178.649,638.50496 1177.601,637.93496 1177.49,636.84296 1178.292,637.09296 1179.175,636.49796 1179.08,635.61896 1178.538,635.76396 1178.105,636.17096 1177.92,636.69896 1178.117,635.65496 1178.959,634.92196 1179.417,634.00496 1179.713,633.41196 1179.284,632.46396 1179.631,632.06696 1181.196,630.27496 1178.8,627.09696 1178.21,625.32296 1177.966,625.75096 1177.799,626.20696 1177.71,626.69096 1176.122,625.48896 1176.501,623.00296 1174.9,621.79496 1174.645,622.85696 1174.261,623.88696 1174.038,624.95996" id="path3882"/>
  </g>
  <path class="landxx ner" d="M 1272.9353,634.74955 C 1271.8763,633.49755 1273.1133,631.21555 1273.0053,629.78155 1274.2803,630.22855 1275.8523,630.10155 1277.1903,630.11655 1278.7673,630.13455 1279.1673,629.32655 1280.1023,628.24355 1281.2273,626.93955 1282.5363,627.26455 1284.1433,627.13955 1286.1913,626.97955 1288.2333,626.79255 1290.2893,626.75155 1291.2593,626.73255 1292.2093,626.73255 1293.1733,626.84555 1295.0723,627.06755 1293.2833,626.26355 1294.1753,626.03655 1295.5993,625.67155 1297.4643,627.59255 1298.0853,625.96555 1298.6303,624.53755 1300.3043,624.33955 1300.8673,623.04755 1301.4433,621.72255 1301.4243,620.30255 1302.1563,619.01055 1303.6843,616.31555 1303.3433,613.33155 1303.4963,610.25155 1303.7163,605.86155 1303.6463,601.46455 1303.6223,597.07055 1303.6073,594.33955 1303.8463,593.62855 1306.5593,592.99755 1308.9613,592.43855 1311.4453,592.30655 1313.8403,591.71755 1316.6663,591.02255 1318.5273,588.24455 1320.5303,586.29755 1323.4403,583.46855 1326.2263,580.38755 1329.4333,577.89155 1335.9693,572.80455 1343.2193,568.19755 1350.2003,563.74455 1353.4893,561.64655 1356.6473,559.34955 1359.9353,557.25055 1363.0133,555.28555 1367.1423,557.30255 1370.4193,558.19655 1373.2833,558.97955 1375.5903,560.84355 1377.5453,563.02255 1378.3893,563.96155 1378.6493,564.00555 1379.6813,563.29655 1381.1443,562.29255 1382.7163,561.48655 1384.2443,560.58855 1384.9693,564.40655 1385.5653,568.14355 1385.8633,572.00955 1385.9823,573.54655 1386.8843,574.60555 1387.6783,575.85855 1388.1313,576.57355 1388.5443,577.32255 1388.8513,578.11355 1389.1403,578.85455 1388.3263,579.45455 1388.9653,580.18755 1389.7883,581.13055 1391.1703,581.93355 1391.5183,583.20855 1391.9443,584.76855 1390.1693,586.37955 1390.0243,587.94055 1389.5923,592.59655 1388.8533,597.23655 1388.8533,601.92355 1388.8533,603.94355 1388.6473,605.95455 1388.5883,607.97255 1388.5413,609.59555 1388.7633,611.57955 1388.2213,613.13555 1387.7533,614.47655 1386.4153,615.61955 1385.5503,616.71455 1384.1473,618.49055 1382.6193,620.16255 1381.1963,621.92255 1378.8583,624.81655 1376.8733,628.13155 1375.5733,631.60655 1375.2603,632.44455 1374.8853,633.26055 1374.3123,633.95855 1374.0383,634.29155 1373.4673,634.19855 1373.2603,634.60455 1372.6113,635.87455 1374.1783,639.47355 1374.3823,640.87155 1373.6933,640.87155 1372.8073,640.69755 1372.1883,641.10155 1371.5313,641.53055 1371.6413,641.99155 1370.8933,642.32155 1369.2273,643.05555 1368.0213,643.73355 1366.7573,645.06455 1364.8113,647.11455 1363.6533,646.22255 1361.2903,645.26255 1358.5243,644.13955 1356.0393,643.98955 1353.0863,643.91155 1350.5613,643.84555 1348.3833,644.30655 1346.4623,646.04255 1345.8083,646.63355 1345.3283,647.31155 1344.8303,648.02755 1343.9703,649.26655 1343.4513,648.47955 1342.2083,648.59355 1339.2983,648.86055 1338.0493,647.38955 1335.6193,646.41855 1333.8423,645.70755 1331.8103,643.20355 1329.6683,644.33655 1328.8583,644.76455 1328.2463,645.47455 1327.4563,645.93355 1326.8483,646.28655 1325.8893,645.75355 1325.6163,646.34255 1324.4923,648.76355 1322.5383,645.76355 1322.0813,644.75555 1321.0033,642.37855 1319.3473,641.46855 1316.9353,641.03355 1315.5623,640.78655 1314.5253,639.62555 1313.1233,639.49755 1311.8813,639.38355 1311.3883,640.67255 1310.0663,640.64555 1307.6803,640.59855 1305.5003,640.39855 1303.7573,642.38155 1303.1843,643.03255 1302.5833,643.35055 1302.5043,644.24455 1302.3733,645.72655 1302.3283,646.97255 1301.4413,648.22055 1300.2453,649.90555 1298.7843,651.01855 1298.8663,653.25755 1298.8843,653.72855 1298.6263,658.50955 1298.3343,658.34555 1296.9143,657.54455 1293.8563,652.14455 1292.3683,652.32555 1291.9003,652.38255 1291.7063,652.95255 1291.2923,653.11055 1290.7423,653.32055 1289.5143,653.16655 1289.1453,653.72955 1288.9553,654.01855 1289.7833,656.41155 1289.2183,656.39355 1288.7123,656.37755 1287.5503,654.24855 1287.3113,653.85655 1286.5323,652.57755 1287.1353,652.31455 1288.2023,651.88755 1287.8613,651.17555 1287.7943,650.18555 1287.1243,649.67155 1285.9133,648.74455 1285.1663,650.67455 1283.9103,650.45255 1281.5723,650.03855 1277.7573,646.34555 1278.8423,643.89555 1279.4963,644.37055 1280.1383,644.38855 1280.8523,644.04055 1280.5033,643.74655 1275.9663,640.56155 1275.8163,640.86955 1276.1473,640.19255 1274.4683,638.92255 1274.2483,638.16555 1273.8723,636.86355 1274.1743,635.65255 1272.9353,634.74955" id="ne">
    <title>Niger</title>
  </path>
  <path class="landxx esh" d="M 1144.1363,579.88555 C 1142.9523,577.79955 1144.7083,574.26055 1145.0683,572.09755 1145.3153,570.61855 1145.6963,569.23155 1146.4883,567.94155 1147.4473,566.37755 1149.2023,566.37455 1149.7913,564.41955 1150.0933,563.41755 1150.0743,561.87455 1151.0703,561.27655 1151.6353,560.93855 1151.3013,559.80355 1151.7423,559.15655 1152.4473,558.12155 1155.2863,554.58755 1154.4963,553.24455 1153.9653,553.58655 1153.5183,554.06355 1153.2063,554.61255 1154.4473,551.88255 1157.5893,549.87355 1159.6533,547.76655 1162.4023,544.95955 1161.8713,542.05855 1163.2093,538.61555 1164.3043,535.80055 1165.1533,532.69355 1167.8903,531.13455 1170.9063,529.41655 1172.5464,528.01573 1173.7953,524.69355 1174.5891,522.58178 1176.0918,519.58438 1175.5707,520.19919 L 1209.0699,519.92848 1208.5928,534.52396 1183.7363,534.81055 1182.5923,556.64355 C 1181.1133,557.71055 1179.0113,557.82755 1177.4663,558.78855 1175.1413,560.23355 1174.2023,561.77955 1174.3863,564.52555 1174.4933,566.12155 1175.7183,574.43655 1174.0233,574.91655 L 1146.3743,574.91655 C 1144.2523,574.91755 1143.9133,578.38355 1144.1363,579.88555" id="eh">
    <title>Western Sahara</title>
  </path>
  <g class="landxx coastxx tun" id="tn">
    <title>Tunisia</title>
    <path class="landxx tun" d="M 1328.9563,464.90155 C 1329.1283,464.05355 1329.9223,463.73055 1330.5383,463.26155 1331.4973,462.53155 1331.5772,461.87778 1332.6383,461.07255 1333.4855,460.42964 1334.1237,459.22675 1334.4512,458.16049 1335.1087,456.02041 1334.9252,454.35467 1335.0312,452.30155 1335.0982,451.0087 1334.2833,449.88455 1334.4563,448.58755 1334.6523,447.11455 1336.2873,444.31455 1333.9263,443.80555 1334.7753,442.82655 1336.1573,442.32355 1336.8123,441.16255 1337.0543,440.73355 1336.8993,439.99855 1337.4883,439.82955 1338.1353,439.64455 1338.5403,439.82755 1339.0543,439.28355 1340.1723,438.09955 1341.3373,437.57455 1342.9073,437.12555 1343.6363,436.91755 1344.6373,436.36955 1345.4133,436.67955 1346.3343,437.04855 1345.4133,437.49455 1345.5163,438.18855 1346.2833,438.18855 1346.4653,437.80655 1346.0163,437.18055 1347.4233,437.48655 1347.8263,437.27255 1348.3963,438.54855 1348.6473,439.10955 1347.8663,439.16355 1348.6243,439.69755 1349.2043,440.10655 1349.2983,440.81755 1348.7573,441.28455 1348.8013,441.23855 1349.4043,441.94755 1350.0193,441.69455 1350.8553,441.34955 1351.5613,440.66755 1352.2433,440.09255 1352.5093,439.86855 1353.4313,438.87655 1353.8623,439.07255 1354.8933,439.54255 1354.7563,440.55855 1354.2893,441.40455 1353.3933,443.02755 1350.3293,444.58455 1350.2263,446.43055 1350.1503,447.81655 1350.9693,449.48655 1352.2213,450.16255 1354.1163,451.18355 1354.0533,451.23155 1354.5043,453.40555 1355.0723,456.14355 1353.1593,458.98955 1351.0563,460.65055 1348.9653,462.30155 1345.7673,463.23155 1347.8403,466.43755 1348.2953,467.14255 1348.9033,467.80655 1349.6813,468.16055 1350.5473,468.55455 1350.8993,468.01255 1351.6963,468.12355 1351.9583,468.15955 1352.1243,469.44255 1352.2843,469.71355 1352.6753,470.37455 1353.7703,468.42555 1354.3673,468.64255 1355.1833,468.93955 1354.6323,469.60255 1354.8773,470.15455 1355.2183,470.92155 1356.3933,471.61655 1355.1673,471.73855 1355.8123,472.42755 1357.2183,471.66955 1357.8203,472.46155 1358.3233,473.12455 1357.4923,475.70155 1357.6733,476.66955 1357.9443,478.12055 1359.0043,478.73941 1357.4137,479.69149 1355.8405,480.63317 1352.6212,481.67757 1351.6853,482.97355 1351.1503,483.39955 1351.3375,484.62678 1350.5902,484.92986 1349.0012,485.57433 1347.4916,486.09878 1348.1203,488.52055 1348.6229,490.45657 1349.3683,491.97855 1348.2473,493.87755 1346.9403,496.09255 1345.7913,496.93955 1343.4963,497.94655 1342.9473,494.33255 1341.9123,490.85248 1341.2013,487.27655 1340.4653,483.57488 1340.0922,481.44005 1336.9692,479.70455 1335.5099,478.89361 1334.855,477.91342 1334.488,476.29342 1334.166,474.86842 1333.521,473.85874 1332.226,473.09774 1331.579,472.71674 1330.9553,472.40755 1330.5253,471.72755 1330.0853,471.03055 1330.2365,470.08637 1329.796,469.38149 1328.881,467.91708 1328.3773,466.36413 1328.9563,464.90155" id="path5410"/>
    </g>
  <g class="landxx coastxx eu esp" id="es" transform="translate(-29.9017,-45.0745)">
    <title>Spain</title>
    <path d="M 1170.078,565.488 C 1169.002,564.773 1169.864,563.642 1170.938,563.975 1170.731,564.525 1170.444,565.029 1170.078,565.488" id="path5984"/>
    <path d="M 1172.087,557.784 C 1171.87,557.928 1171.654,558.072 1171.437,558.216 1171.337,557.481 1169.987,555.468 1171.367,555.192 1172.907,554.885 1172.633,557.011 1172.087,557.784" id="path5986"/>
    <path d="M 1175.828,562.32 C 1175.098,561.869 1175.061,560.515 1176.188,560.736 1177.366,560.967 1176.639,562.205 1175.828,562.32" id="path5988"/>
    <path d="M 1179.938,562.536 C 1179.347,561.521 1179.027,560.378 1178.428,559.368 1180.597,558.858 1182.246,558.183 1184.328,557.352 1183.579,558.957 1181.672,561.888 1179.938,562.536" id="path5990"/>
    <path d="M 1187.858,564.696 C 1186.083,564.444 1185.779,561.546 1187.605,561.141 1190.429,560.516 1189.568,563.902 1187.858,564.696" id="path5992"/>
    <path d="M 1197.288,561.96 C 1197.071,561.816 1196.855,561.672 1196.638,561.528 1198.767,560.822 1199.047,557.557 1200.585,556.087 1201.557,555.158 1201.04,558.796 1200.898,559.163 1200.243,560.842 1198.445,560.809 1197.288,561.96" id="path5994"/>
    <path d="M 1201.758,555.12 C 1201.518,555.024 1201.278,554.928 1201.038,554.832 1201.337,554.18 1203.66,551.147 1204.199,552.64 1204.65,553.893 1202.389,554.472 1201.758,555.12" id="path5996"/>
    <path class="landxx eu esp" d="M 1244.018,434.16 C 1244.091,434.04 1244.165,433.92 1244.238,433.8 1243.311,433.88 1243.278,433.091 1243.536,432.434 1243.952,431.375 1244.704,431.658 1245.368,430.942 1246.653,429.556 1249.43,430.209 1251.219,429.409 1249.765,429.469 1250.701,429.055 1251.219,428.761 1250.911,428.874 1250.598,428.97 1250.279,429.049 1250.064,428.104 1253.239,425.682 1253.239,427.249 1253.719,426.961 1254.199,426.673 1254.679,426.385 1254.798,427.448 1258.97,426.963 1258.999,428.761 1260.272,427.117 1264,428.394 1265.759,428.114 1267.272,427.874 1267.662,427.785 1269.25,428.164 1270.94,428.567 1272.657,428.943 1274.378,429.234 1276.724,429.631 1278.873,429.411 1281.022,428.895 1282.38,428.569 1283.985,428.878 1285.175,429.593 1286.802,430.569 1286.556,429.216 1288.064,429.324 1289.39,429.419 1290.685,429.947 1291.986,430.197 1292.774,430.348 1295.2972,429.50609 1295.6432,430.05509 1296.0192,430.65209 1298.3722,429.92709 1297.9482,431.36809 1297.8592,431.67309 1297.4946,432.03809 1297.7566,432.33509 1298.3676,433.02809 1298.178,432.25169 1298.829,432.28499 1300.879,432.38999 1303.5912,434.32139 1304.433,434.64699 1304.8357,434.80275 1305.3213,434.39992 1305.739,434.55299 1306.2766,434.74999 1306.6409,435.53847 1307.146,435.43299 1308.5594,435.13783 1310.3485,435.20469 1312.058,435.67299 1311.827,435.04697 1312.071,434.60519 1312.418,434.16099 1313.2861,434.17699 1313.9145,434.24869 1315.4485,435.20206 1316.7183,435.23916 1317.9024,435.66135 1317.598,437.76099 1319.3375,437.48424 1319.2328,436.23114 1319.3485,437.09462 1319.6765,437.28162 1321.4176,438.33945 1321.8336,438.20445 1322.3166,438.04745 1322.7756,437.68598 1323.335,437.90899 1324.401,438.33398 1325.5386,438.75181 1326.417,438.03959 1327.0878,437.49575 1327.7238,437.57381 1329.333,437.7458 1329.9493,437.8117 1329.452,438.80699 1330.199,438.69799 1330.189,439.46599 1329.717,439.23099 1329.281,439.57999 1328.636,440.09699 1329.281,441.37399 1329.246,442.04299 1329.162,443.89299 1325.12,445.22899 1323.756,445.79399 1322.734,446.21799 1322.462,447.18299 1321.611,447.58699 1320.584,448.07499 1319.167,448.05999 1318.067,448.33699 1315.398,449.00899 1313.783,450.16899 1311.63,451.65799 1313.303,452.99499 1311.716,453.24999 1310.577,453.90299 1308.904,454.86199 1308.576,457.17399 1306.935,458.22299 1304.136,460.01199 1303.147,465.13799 1305.451,467.58699 1306.853,469.07799 1307.984,469.53099 1305.673,470.97499 1304.335,471.81099 1303.322,472.16299 1302.235,473.35499 1301.591,474.06099 1301.01,475.14199 1300.562,476.16999 1300.281,476.81499 1299.963,477.53799 1299.946,478.25399 1299.932,478.85099 1300.913,479.65899 1300.32,478.22499 1301.235,479.73699 1297.512,479.85099 1296.792,479.93699 1295.053,480.14599 1292.64,481.72499 1292.22,483.43999 1291.86,484.91399 1290.636,487.54099 1289.057,486.26699 1288.092,485.48699 1287.371,486.53699 1286.569,486.86599 1285.411,487.34199 1284.157,486.62599 1282.929,486.82699 1280.369,487.24699 1277.817,486.95299 1275.201,487.00399 1273.804,487.03099 1273.494,487.29199 1272.48,488.24099 1271.32,489.32599 1269.793,488.88099 1268.453,489.55099 1267.785,489.88399 1267.129,492.13299 1266.531,492.07399 1265.785,492.00099 1265.984,493.22899 1264.829,493.20099 1263.896,493.17899 1263.192,491.57799 1262.302,491.67499 1261.331,491.78099 1260.593,489.75099 1260.359,489.02599 1261.643,488.80099 1260.046,487.87699 1259.668,487.58499 1258.756,486.88199 1259.843,485.67699 1260.719,485.42499 1260.172,485.24899 1259.899,485.54499 1259.859,486.07299 1259.389,485.57199 1255.548,482.97199 1256.399,482.18399 1255.071,482.03799 1256.374,482.73899 1254.951,482.77099 1254.313,482.78599 1253.522,483.02699 1252.897,482.79799 1252.004,482.47199 1252.035,480.18699 1252.16,479.44799 1252.269,478.80199 1252.776,478.31799 1253.209,477.87299 1253.741,477.32599 1253.805,476.46599 1254.272,476.00699 1255.345,474.95199 1255.793,475.76599 1256.48,474.11999 1255.106,474.57399 1253.998,472.75199 1253.96,471.59899 1253.901,469.80699 1255.981,468.93299 1256.487,467.34999 1256.761,466.49299 1255.133,465.34699 1254.75,464.58999 1254.427,463.95099 1254.75,463.57799 1254.275,463.02999 1253.879,462.56999 1253.345,462.07799 1253.089,461.51799 1254.002,461.77299 1254.96,461.58999 1255.887,461.58999 1256.85,461.58999 1256.5872,461.02509 1256.923,460.42799 1257.342,459.68299 1258.1828,459.5815 1257.263,457.31399 1256.9915,456.64478 1258.217,456.29699 1258.343,456.23799 1258.989,455.92999 1258.759,455.01399 1258.733,454.45899 1258.713,454.02999 1258.932,449.77399 1258.373,449.91099 1259.375,449.66699 1259.849,448.57329 1260.812,447.96499 1261.3677,447.61399 1263.768,445.56287 1263.4815,444.98545 1263.1284,444.27397 1261.2937,444.42479 1261.2212,443.98926 1261.1085,443.31255 1261.606,441.44722 1260.8859,442.07199 1260.3968,442.49639 1257.0177,441.5569 1256.939,442.14499 1256.7756,443.36567 1254.806,442.91599 1254.124,442.63799 1253.031,442.19099 1251.9149,442.70689 1250.884,443.07699 1248.7656,443.83742 1250.057,441.64999 1250.861,441.06899 1250.234,441.15299 1249.966,440.80499 1250.071,440.20499 1249.45,440.79599 1248.613,440.81699 1247.825,440.95999 1246.836,441.13999 1246.255,441.94299 1245.39,442.36499 1244.601,440.30199 1246.885,440.07799 1247.4,438.47599 1247.026,439.17999 1246.27,439.40099 1245.53,439.41299 1245.688,438.58999 1246.468,438.26199 1247.12,437.90099 1246.463,438.18999 1245.48,438.26299 1245.53,437.25299 1245.566,436.53299 1246.704,436.25799 1246.83,435.52499 1246.193,436.12099 1245.183,436.06199 1244.81,436.96399 1244.092,435.92399 1245.24,435.08699 1245.96,434.51599 1245.232,435.10399 1244.301,435.26599 1244.018,434.15999" id="path5998"/>
    <path d="M 1315.728,468.72 C 1314.285,468.459 1314.839,467.14 1315.803,466.642 1316.26,466.407 1316.848,466.33 1317.26,466.705 1317.954,467.338 1316.022,468.074 1315.728,468.72" id="path6006"/>
    <path d="M 1315.797,470.376 C 1315.574,469.549 1315.814,469.404 1316.517,469.944 1316.277,470.088 1316.038,470.232 1315.797,470.376" id="path6008"/>
    <path d="M 1329.408,463.68 C 1328.064,465.2 1328.191,464.438 1326.572,464.175 1324.85,463.896 1326.004,462.045 1324.029,462.892 1322.277,463.643 1323.72,461.532 1324.222,461.168 1325.731,460.075 1327.299,459.585 1329.048,459.001 1328.317,459.209 1328.023,460.126 1328.718,460.629 1329.26,461.021 1330.033,460.479 1330.537,460.879 1331.228,461.427 1329.464,463.074 1329.408,463.68" id="path6010"/>
    <path d="M 1333.158,458.712 C 1334.451,457.488 1336.609,458.424 1336.758,460.152 1335.841,460.299 1333.646,459.548 1333.158,458.712" id="path6012"/>
  </g>
  <path class="world_map-is_selected landxx mar" d="M 1175.7363,520.19755 C 1176.0823,519.81655 1177.2053,518.03455 1177.6003,517.89055 1179.0153,517.37555 1180.5633,517.30955 1182.0263,516.98755 1184.7413,516.38955 1187.4943,515.53155 1189.5433,513.56755 1191.5523,511.64155 1193.6433,510.12855 1195.7463,508.34355 1197.7613,506.63455 1199.3003,504.35455 1200.9133,502.27955 1202.0073,500.87155 1204.5203,496.81755 1202.4003,495.28155 1201.5793,494.68755 1201.0023,494.66755 1201.5273,493.56655 1202.0483,492.47355 1201.9933,491.38055 1202.0523,490.18855 1202.2163,486.86955 1203.4153,485.38855 1205.4463,482.91555 1206.6073,481.50155 1206.2883,480.06255 1206.7763,478.43655 1207.1303,477.25955 1208.0973,476.34755 1208.9773,475.54655 1210.8573,473.83355 1212.3473,471.72455 1214.7063,470.65855 1217.2743,469.49755 1220.0043,468.59055 1222.4583,467.19355 1227.3133,464.42855 1229.6493,457.69355 1231.4883,452.73655 1231.6663,452.25755 1232.3113,449.81355 1233.0513,449.88855 1233.9593,449.98155 1234.8753,449.61355 1235.6483,449.19855 1236.6253,448.67455 1236.8123,449.97155 1237.0973,450.66955 1237.6463,452.01755 1238.3783,452.93355 1239.5663,453.77755 1242.0473,455.53955 1244.1053,455.04655 1246.9423,454.70655 1249.2943,454.42555 1252.2853,455.85555 1253.7163,453.09255 1253.6953,453.99255 1253.9413,454.21655 1254.0663,454.89955 1254.2003,455.63155 1255.5303,456.00155 1254.3663,454.82055 1254.9953,455.69255 1256.1203,456.13755 1257.1303,455.63455 1258.1593,455.12155 1258.7723,456.17855 1259.4063,456.76455 1260.0863,457.39355 1261.3003,457.74955 1261.7063,458.63655 1262.1703,459.65055 1261.1653,460.57955 1262.5763,461.15655 1261.8123,461.75555 1262.0603,462.85555 1262.2053,463.66155 1262.4353,464.93755 1262.0103,466.05955 1262.1553,467.29055 1262.2723,468.27955 1262.9133,468.91055 1262.6673,469.97255 1262.2973,471.56955 1262.4793,472.13655 1263.2403,473.54155 1263.6273,474.25655 1263.2763,474.89355 1263.6633,475.54855 1264.2383,476.52255 1265.1393,476.90955 1265.9883,477.58055 1267.5533,478.81755 1262.8713,480.87155 1265.3753,481.82055 1262.7903,482.48455 1253.7273,479.37555 1252.3973,482.88555 1251.7033,484.71855 1249.8963,485.41655 1247.9393,485.25255 1246.4593,485.12755 1244.6383,487.24255 1246.6553,487.79655 1244.9473,489.35855 1248.0823,490.51555 1247.3343,491.25655 1246.4803,492.10355 1244.9833,491.79755 1244.0603,492.47055 1243.0943,493.17655 1242.0343,494.23455 1240.8903,494.62955 1240.0253,494.92755 1239.0483,494.90155 1238.2363,495.35555 1236.6623,496.23455 1236.0283,498.07755 1234.8743,499.36755 1233.5523,500.84655 1231.1083,501.42455 1229.1863,501.50055 1227.7423,501.55655 1226.1883,500.95155 1225.6053,502.67255 1224.9833,504.50855 1223.1783,503.13355 1221.7333,503.24055 1220.7143,503.31555 1220.1213,503.82455 1219.4653,504.53255 1218.7993,505.25255 1218.0133,505.10055 1217.1833,505.43255 1216.2253,505.81555 1215.6343,506.76355 1214.8693,507.40155 1214.0563,508.07955 1213.0493,508.50155 1212.2183,509.17455 1210.5973,510.48755 1209.1763,510.67855 1209.3383,512.95055 1209.4993,515.21055 1209.2603,517.71555 1209.0073,519.96255 1208.8993,520.91455 1178.8113,520.19755 1175.7363,520.19755" id="ma">
    <title>Morocco</title>
  </path>
  <g id="ad">
    <title>Andorra</title>
    <path class="landxx and" d="M 1287.4863,391.31755 C 1288.0383,390.60155 1289.3443,390.95255 1289.7863,391.60555 1289.3003,392.25255 1288.4773,392.59255 1287.6963,392.68555 1287.6583,392.22455 1287.5873,391.76855 1287.4863,391.31755" id="ad-"/>
    </g>
  <g id="gi">
    <title>Gibraltar</title>
    <path class="landxx eu gib" d="M 1237.1061,447.07116 C 1236.9109,447.93943 1236.6748,447.95755 1236.398,447.12906 1236.6331,447.11036 1236.8696,447.09076 1237.1061,447.07116" id="gi-"/>
    </g>
  </svg>
