<svg xmlns="http://www.w3.org/2000/svg" class="world_map zoom3" height="127" id="svg2985" version="1.1" viewBox="1542 753 163 335" width="127">
  <title>World Map</title>
  <defs id="defs2987"/>
  <defs>
    <link xmlns="http://www.w3.org/1999/xhtml" href="../css/svg.css" type="text/css" rel="stylesheet"/>
  </defs>
  <style id="style_css_sheet" type="text/css">
/*
 * Below are Cascading Style Sheet (CSS) definitions in use in this file,
 * which allow easily changing how countries are displayed.
 *
 */
/* --- Custom styles for Peace Corps --- */
.world_map .world_map-is_selected {
  fill: #C94112 !important;
}
.world_map .landxx {
  fill: #F2EFE8;
  stroke: #ffffff;
  fill-rule: evenodd;
}
.world_map.zoom4 .landxx {
  stroke-width: 2px;
}
.world_map.zoom3 .landxx {
  stroke-width: 3px;
}
.world_map.zoom2 .landxx {
  stroke-width: 4px;
}
.world_map.zoom1 .landxx {
  stroke-width: 5px;
}
.world_map .coastxx {
  fill: #F2EFE8;
  stroke: #ffffff;
  stroke-width: 2px;
  fill-rule: evenodd;
}
.world_map .oceanxx {
  opacity: 1;
  color: #ccc;
  fill: #ffffff;
  stroke: #ffffff;
  stroke-width: 0.5;
  stroke-miterlimit: 1;
}

/* --- Original Styles --- *
/*
 * Circles around small countries
 *
 * Change opacity to 1 to display all circles.
 *
 */
.circlexx
{
   opacity:0;
   fill:#e0e0e0;
   stroke:#000000;
   stroke-width:0.5;
}

/*
 * Smaller circles around French DOMs and Chinese SARs
 *
 * Change opacity to 1 to display all subnational circles.
 *
 */
.subxx
{
   opacity:0;
   stroke-width:0.3;
}

/*
 * Circles around small, unrecognized countries
 *
 * Change opacity to 1 to display all circles.
 *
 */
.unxx
{
   opacity:0;
   fill:#e0e0e0;
   stroke:#000000;
   stroke-width:0.3;
}

/*
 * Circles around small countries, but with no permanent residents 
 *
 * Change opacity to 1 to display all circles.
 *
 */
.noxx
{
   opacity:0;
   fill:#e0e0e0;
   stroke:#000000;
   stroke-width:0.5;
}

/*
 * land
 */
.landxx
{
}
/*
 * Styles for coastlines of islands with no borders
 */


/*
 * Styles for nations with limited recognition
 */
.limitxx
{
   fill: #e0e0e0;
   stroke:#ffffff;
   stroke-width:0;
   fill-rule:evenodd;
}

/*
 * Styles for nations with no permanent population.
 */
.antxx
{
   fill: #e0e0e0;
   stroke:#ffffff;
   stroke-width:0;
   fill-rule:evenodd;
}

/*
 * Ocean
 */


/*
 * Additional style rules
 *
 * The following are examples of colouring countries.  You can substitute these with your own styles to colour the countries on the map.
 *
 * Color a few countries:
 *
 * .gb, .au, .nc
 * {
 *    fill:       #ff0000;
 * }
 *
 * Color a few small country circles (and the countries):
 *
 * .ms, .ky
 * {
 *    opacity:    1;
 *    fill:       #ff0000;
 * }
 *
 */

</style>
  <path class="oceanxx" d="M 2079.5058,1457.5605 615.24779,1457.5605 C 615.13079,1457.5605 615.07079,1457.5505 614.95179,1457.5215 611.67679,1456.6515 608.40179,1455.7815 605.12779,1454.9105 599.15079,1453.3225 593.22879,1451.5225 587.30779,1449.7385 564.39379,1442.8315 541.76579,1434.6995 519.46979,1426.0115 495.81079,1416.7935 472.34979,1407.0946 449.19179,1396.6816 426.78379,1386.6056 405.17679,1375.0536 383.76379,1363.0356 363.11779,1351.4496 343.01079,1338.8296 323.37979,1325.5996 302.29179,1311.3876 281.47879,1296.8506 261.05379,1281.7006 242.35079,1267.8276 223.73679,1253.6306 206.05279,1238.4686 186.98679,1222.1216 167.82379,1205.7706 150.35279,1187.6906 132.97779,1169.7106 116.33279,1151.0606 100.15679,1131.9976 84.352777,1113.3736 70.086776,1093.4716 56.901786,1072.9246 44.046786,1052.8916 32.093776,1032.1356 22.469776,1010.3426 17.516776,999.12753 12.408776,987.76556 8.7017761,976.06056 5.0657761,964.58166 1.5997761,953.04259 -1.5932239,941.43054 -8.0102239,918.09356 -14.055224,894.78356 -18.234224,870.92056 -22.491222,846.60856 -24.894222,822.19856 -26.943222,797.62156 -28.947222,773.58556 -28.829222,749.40156 -27.225222,725.34856 -25.648222,701.69856 -23.363222,677.92456 -19.274222,654.56456 -15.018224,630.25156 -9.3842239,606.45156 -2.8412239,582.66156 3.5687761,559.35256 10.483776,536.34856 20.265776,514.19856 30.320776,491.42956 42.318786,469.90956 55.502786,448.81656 68.512776,428.00356 83.108777,408.26756 98.686787,389.31756 113.73479,371.01156 129.68979,353.25256 146.15179,336.20856 163.77479,317.96256 182.64579,301.14556 201.89579,284.64756 220.33379,268.84456 239.55379,253.98456 258.95979,239.39656 278.42779,224.76056 298.39379,210.83356 318.55579,197.17556 339.26979,183.14456 360.47879,169.92056 382.15079,157.42556 403.46579,145.13656 425.31479,133.98856 447.60479,123.59356 469.58579,113.34356 492.14979,104.17656 514.74579,95.37556 537.44879,86.532565 560.37879,78.195565 583.63479,70.914565 589.69379,69.017565 595.80079,67.276565 601.90879,65.549565 604.63079,64.779565 607.36079,64.045565 610.09479,63.318565 611.59979,62.918565 613.56579,61.986565 615.13379,61.986565 L 2079.9638,61.986565 C 2079.9798,61.986565 2079.9958,61.986565 2080.0118,61.986565 2079.8448,61.986565 2079.6788,61.986565 2079.5118,61.986565 2102.8268,68.191565 2125.8778,75.323565 2148.5448,83.611565 2171.6378,92.054565 2194.6158,100.87956 2217.2348,110.52956 2240.5208,120.46556 2263.4848,130.95256 2285.8828,142.76456 2306.9808,153.89056 2327.8178,165.78556 2347.8608,178.72156 2368.9418,192.32656 2389.7498,206.29256 2410.2218,220.80056 2429.7368,234.62956 2448.9938,248.98756 2467.6208,263.99256 2486.8818,279.50856 2506.0408,295.30556 2524.0538,312.27356 2541.8708,329.05756 2558.7508,346.67256 2574.9408,365.03656 2591.2478,383.53256 2607.1478,402.30656 2621.4508,422.41856 2635.3488,441.96256 2648.4468,462.42756 2659.5898,483.67756 2671.1238,505.67356 2681.1048,528.35656 2688.6188,552.05056 2692.2518,563.50656 2695.3368,575.14756 2698.5608,586.72256 2701.7738,598.25356 2704.9238,609.81956 2707.4578,621.52456 2712.6258,645.40556 2716.6718,669.47856 2719.1178,693.79656 2721.5718,718.19256 2723.1798,742.56356 2722.9808,767.09056 2722.7908,790.65456 2720.6908,814.43756 2717.7688,837.81156 2714.7368,862.07056 2710.5198,886.16156 2704.6398,909.90056 2701.6808,921.84356 2698.3948,933.69556 2695.0378,945.53154 2691.7468,957.13466 2688.5558,968.83466 2684.3988,980.16156 2676.0918,1002.8036 2666.1688,1024.8836 2654.1338,1045.8046 2641.9958,1066.9066 2628.8498,1087.4866 2614.2378,1106.9696 2599.1658,1127.0666 2582.6678,1145.9446 2565.8948,1164.6296 2549.8298,1182.5266 2532.8918,1199.7316 2514.8648,1215.6616 2496.0788,1232.2646 2476.8978,1248.3126 2457.1558,1263.7656 2438.2988,1278.5276 2418.9668,1292.7306 2399.3188,1306.4206 2378.7018,1320.7866 2357.7538,1334.6106 2336.4758,1347.9776 2326.4088,1354.3016 2316.0058,1360.1326 2305.6418,1365.9516 2295.0348,1371.9086 2284.3858,1378.0166 2273.4448,1383.3436 2250.7338,1394.3986 2227.7768,1404.7266 2204.3888,1414.2665 2181.7848,1423.4875 2159.0678,1432.2695 2136.0228,1440.3345 2117.4118,1446.8465 2098.5568,1452.4975 2079.5058,1457.5605" id="ocean"/>
  <g id="fr">
    <title>France</title>
    <g id="re">
      <title>Reunion</title>
      <path class="landxx coastxx eu reu fra" d="M 1689.4563,941.25855 C 1689.3503,939.27055 1685.4733,940.44855 1685.9143,942.34855 1686.5793,945.21455 1691.9433,945.44655 1689.4563,941.25855" id="re-"/>
      <circle class="circlexx subxx eu reu fra" cx="1688.1991" cy="941.7735" id="re_" r="4.2337999" rx="4.2337999" ry="4.2337999"/>
    </g>
    <g id="yt">
      <title>Mayotte</title>
      <path class="landxx coastxx eu myt fra" d="M 1613.4263,871.98855 C 1613.9023,871.34555 1614.5063,869.97055 1613.4263,869.53855 1613.1543,870.10155 1613.0153,871.45555 1613.4263,871.98855" id="yt-"/>
      <circle class="circlexx subxx eu myt fra" cx="1614.6058" cy="872.18304" id="yt_" r="4.2337999" rx="4.2337999" ry="4.2337999"/>
    </g>
    </g>
  <g class="world_map-is_selected landxx coastxx mdg" id="mg" transform="translate(-29.9017,-45.0745)">
    <title>Madagascar</title>
    <path d="M 1625.398,995.613 C 1625.968,998.016 1624.754,1000.946 1626.46,1003.045 1627.293,1004.072 1627.279,1005.225 1627.708,1006.413 1628.102,1007.507 1629.197,1007.679 1628.114,1008.921 1627.052,1010.139 1627.218,1014.094 1627.912,1015.536 1628.543,1016.847 1629.178,1017.82 1629.528,1019.273 1629.982,1021.161 1631.208,1021.69 1632.597,1022.833 1630.846,1021.817 1632.361,1023.176 1632.798,1023.312 1633.439,1023.512 1634.122,1023.444 1634.77,1023.609 1636.342,1024.01 1637.196,1025.746 1638.761,1026.092 1641.472,1026.691 1644.295,1023.231 1646.79,1022.499 1647.707,1022.23 1648.671,1022.776 1649.513,1022.467 1650.181,1022.221 1650.761,1021.777 1651.472,1021.641 1652.47,1021.451 1653.068,1020.266 1653.45,1019.443 1653.965,1018.335 1654.318,1017.156 1654.636,1015.979 1655.075,1014.349 1656.08,1013.026 1656.584,1011.461 1657.513,1008.571 1658.514,1005.778 1659.309,1002.813 1660.44,998.592 1662.141,994.822 1663.601,990.732 1664.785,987.417 1665.459,984.027 1666.925,980.818 1667.353,979.881 1668.165,978.398 1667.738,977.332 1668.242,977.331 1668.813,975.303 1668.939,974.967 1669.783,972.723 1670.239,970.351 1671.156,968.139 1672.496,964.907 1673.709,962.156 1674.407,958.691 1674.928,956.106 1673.161,952.333 1676.304,950.636 1676.92,950.303 1677.599,948.351 1677.674,947.581 1677.744,946.862 1677.585,946.154 1677.713,945.435 1677.886,944.464 1676.691,944.576 1676.706,943.646 1676.719,942.94 1675.991,937.465 1677.745,938.211 1679.25,938.851 1678.733,941.97 1680.187,942.481 1681.814,943.052 1682.878,938.658 1683.059,937.694 1683.319,936.303 1682.389,935.609 1682.009,934.374 1681.315,932.107 1681.38,929.904 1681.296,927.569 1681.141,923.281 1680.116,918.736 1678.387,914.901 1678.142,915.06 1677.906,915.23 1677.676,915.411 1677.867,914.828 1677.62,914.712 1677.264,914.355 1676.684,913.774 1677.588,913.408 1677.069,912.773 1676.573,912.168 1676.256,909.89 1675.006,910.651 1674.931,910.392 1674.907,910.129 1674.937,909.861 1677.108,910.069 1673.946,906.785 1674.305,909.539 1674.446,910.622 1672.213,912.622 1671.187,912.6 1673.117,913.569 1671.866,916.423 1671.477,917.71 1670.906,919.607 1670.934,920.819 1668.596,920.88 1668.881,922.253 1668.446,921.167 1667.792,921.959 1667.317,922.534 1667.297,923.358 1667.086,924.04 1666.502,924.023 1664.353,919.638 1664.046,922.738 1663.935,923.846 1664.32,924.568 1664.716,925.561 1665.072,926.454 1664.437,928.899 1664.277,927.14 1664.116,927.999 1661.454,928.101 1662.504,930.078 1663.062,931.127 1665.191,930.716 1664.347,932.4 1664.637,931.09 1663.281,930.97 1662.472,931.595 1661.34,932.471 1661.437,934.439 1659.888,934.919 1659.683,933.81 1660.755,932.959 1660.537,931.819 1659.424,932.063 1659.683,932.828 1659.237,933.619 1658.804,934.386 1657.548,934.802 1657.367,935.709 1657.241,936.338 1657.901,937.043 1658.163,937.556 1658.674,938.558 1656.867,938.769 1656.287,939.24 1656.405,938.548 1657.67,936.538 1655.892,936.583 1654.871,936.609 1654.05,937.881 1653.274,938.412 1652.755,938.766 1651.36,939.501 1651.503,940.305 1651.575,940.713 1651.241,941.227 1651.388,941.611 1651.594,942.145 1652.315,942.047 1652.478,942.69 1651.682,942.639 1650.851,942.801 1650.707,941.677 1650.526,940.262 1649.14,940.286 1649.087,941.76 1648.753,941.208 1647.158,941.049 1646.601,941.322 1645.898,941.667 1646.166,942.849 1645.638,943.34 1645.638,941.846 1643.926,943.022 1643.827,943.92 1643.585,943.458 1643.298,943.024 1642.967,942.62 1642.106,943.217 1641.444,944.247 1640.443,944.62 1639.504,944.97 1637.838,944.21 1637.075,944.923 1636.702,945.272 1637.019,948.118 1636.708,947.81 1636.982,948.962 1636.158,950.29 1635.6,951.227 1634.666,952.792 1631.672,955.71 1632.821,957.599 1633.614,958.902 1632.923,961.253 1633.05,962.771 1633.196,964.496 1634.433,965.933 1634.426,967.629 1634.416,969.208 1634.32,970.209 1635.174,971.61 1636.092,973.114 1635.569,973.791 1635.117,975.256 1634.793,976.309 1636.119,976.635 1635.494,977.766 1634.828,978.971 1633.96,980.119 1633.236,981.298 1632.459,982.565 1631.498,983.831 1630.942,985.215 1630.513,986.286 1630.865,988.072 1629.506,988.547 1627.873,989.117 1627.487,989.149 1627.329,991.024 1627.198,992.584 1625.783,994.014 1625.398,995.613" id="path2622"/>
    <path d="M 1667.448,920.733 C 1667.804,920.107 1667.375,919.441 1666.948,919.003 1666.241,919.586 1666.404,920.749 1667.448,920.733" id="path2624"/>
    <path d="M 1678.758,949.603 C 1678.758,949.46 1678.758,949.316 1678.758,949.173 1678.322,949.975 1677.221,950.877 1677.678,951.913 1678.135,951.188 1678.336,950.345 1678.758,949.603" id="path2628"/>
  </g>
  <path class="landxx ken" d="M 1530.7577,768.59905 C 1532.2762,767.49265 1528.4746,762.88701 1533.7418,763.9683 1533.7528,763.6813 1534.0422,763.08727 1533.7218,762.543 L 1536.8504,762.13724 C 1534.7732,758.99154 1533.8805,761.45984 1532.8926,762.32309 1532.0484,763.06084 1529.9821,759.79571 1530.0892,757.80592 1530.89,756.36229 1530.3594,755.70587 1531.8512,754.35255 1532.9583,753.34816 1533.8379,750.03562 1535.6352,749.22655 1536.488,748.84268 1536.3622,748.71155 1536.3152,747.95755 1536.2432,746.79355 1537.5992,746.23355 1537.8962,745.19755 1538.2492,743.96655 1538.3505,742.76055 1538.4725,741.52555 1538.5815,740.41455 1537.4642,739.62827 1537.2312,738.38255 1536.7084,735.58772 1534.9882,734.98055 1534.7312,733.74955 1534.5292,732.77255 1533.9852,731.94355 1533.6572,731.01355 1533.4382,730.60455 1533.3152,730.16955 1533.2872,729.70655 1533.2872,729.08355 1533.9852,728.72955 1533.7972,728.06055 1533.6302,727.47055 1532.9842,727.31555 1532.4862,727.12955 1531.3562,726.70855 1532.1832,725.85055 1530.9872,725.97255 1531.4761,724.85155 1530.0812,723.77355 1530.2151,722.99055 1530.3494,722.20529 1531.3062,721.59055 1531.8402,721.03055 1533.7032,719.07555 1535.9862,719.63655 1538.4302,719.63655 1539.8322,719.63655 1541.2372,719.52055 1542.6392,719.50555 1543.3262,719.49855 1544.0412,719.46455 1544.7232,719.57255 1545.3132,719.66555 1545.4942,720.69955 1546.2022,720.97355 1548.3832,721.82055 1550.8172,720.78655 1553.0432,721.81955 1555.3702,722.90055 1557.8602,724.89055 1559.6752,726.66855 1560.6002,727.57455 1561.3352,728.21055 1562.6692,728.35655 1563.5362,728.45155 1565.5112,727.91355 1566.1922,728.34855 1568.0962,729.56655 1571.0172,728.48455 1572.6752,730.07755 1572.9042,728.94455 1574.4632,727.29555 1575.1652,726.31955 1576.4132,724.58355 1579.0822,723.88855 1580.9262,723.02855 1582.8942,722.11155 1583.2392,724.27055 1584.7092,725.12955 1585.7182,725.71955 1586.8112,725.33455 1587.8602,725.14455 1588.7102,724.98955 1589.7252,725.55055 1590.5242,725.10955 1589.2992,727.21055 1588.1712,729.50655 1586.6792,731.43155 1585.1032,733.46355 1583.6902,734.59455 1583.6952,737.32455 1583.7062,743.77355 1583.7632,750.22155 1583.7572,756.67155 1583.7472,761.50455 1582.7892,766.08755 1586.0342,770.03655 1587.1342,771.37555 1588.7912,773.10455 1587.6102,774.85955 1586.9152,775.89455 1584.8442,777.78455 1583.5452,776.58955 1583.4412,776.84955 1583.3432,777.11255 1583.2552,777.37955 1583.0472,777.12955 1582.8572,776.86555 1582.6852,776.58955 1583.0252,777.37555 1583.8952,778.82455 1583.1152,779.61855 1582.9802,777.66055 1582.1712,779.90355 1581.9742,780.35455 1581.5712,781.28055 1580.7952,781.45855 1579.9112,781.58355 1577.9492,781.85955 1577.1582,783.59255 1577.7832,785.24555 1578.0692,786.00255 1576.6852,788.19255 1576.1152,788.65555 1575.1432,789.44455 1574.3272,794.75355 1573.2452,794.29955 1573.7172,796.35555 1571.6612,797.81655 1571.3052,799.69855 1570.4682,799.08955 1570.5642,800.15455 1569.8652,799.98955 1568.9832,799.78155 1567.8581,798.24284 1567.1772,797.72455 1564.1681,795.43408 1560.3931,792.94216 1558.5408,790.46893 1558.0513,789.81536 1557.1522,789.71055 1558.1772,788.57855 1559.6262,786.97855 1557.0906,785.05047 1555.7858,784.23442 L 1530.7125,768.55399" id="ke">
    <title>Kenya</title>
  </path>
  <g class="landxx coastxx som" id="so">
    <title>Somalia</title>
    <path class="landxx so- som" d="M 1583.6963,739.50955 C 1583.6963,738.10255 1583.3333,736.15655 1583.9403,734.83955 1584.5183,733.58555 1585.698,732.61742 1586.491,731.48742 1588.079,729.22942 1589.4563,725.18755 1591.8633,723.73455 1594.0603,722.40755 1596.6313,723.26555 1598.5543,721.20055 1600.7383,718.85555 1602.8053,717.32355 1606.1103,716.84555 1608.5823,716.48855 1612.9273,718.24655 1614.6353,715.98255 L 1636.3253,690.33455 C 1633.7033,690.33455 1630.9833,690.78055 1628.4053,690.11855 1625.4833,689.36855 1622.6933,687.96055 1619.8693,686.90855 1616.9583,685.82455 1614.0623,684.69955 1611.1573,683.59955 1608.4683,682.58155 1606.1083,681.87055 1604.0443,679.80155 1603.3543,679.10855 1603.1303,678.74455 1602.1733,678.49055 1601.1993,678.23155 1600.8203,676.72155 1600.3653,675.92255 1599.5933,674.56655 1599.0793,673.46955 1597.9853,672.27355 1596.6813,670.84655 1595.1473,669.01655 1595.7413,666.89355 1596.3933,664.56355 1598.434,662.51842 1599.344,660.22142 1601.746,661.56142 1603.0693,664.76255 1604.7123,666.83555 1606.7643,669.42355 1609.8913,670.14155 1613.0643,669.09555 1614.2793,668.69555 1615.8523,667.61155 1616.8903,666.84555 1618.7233,665.49155 1619.2413,665.71955 1621.4973,666.09055 1623.8283,666.47455 1624.8773,666.96255 1627.0543,665.60455 1628.1533,664.91855 1630.6753,662.36055 1632.0913,662.86455 1633.6513,663.41855 1634.7273,663.48755 1636.4043,662.91055 1637.4153,662.56255 1638.3733,662.05055 1639.4233,661.81755 1640.6253,661.54955 1641.4293,662.07255 1642.5753,662.18655 1644.4533,662.37455 1645.8913,661.26055 1647.5153,660.59955 1649.2083,659.91055 1651.1343,660.21555 1652.8413,659.34855 1654.2623,658.62655 1654.4063,656.77055 1655.6143,656.17655 1656.7853,655.59955 1660.5673,656.60255 1660.1023,658.29255 1659.4993,660.48155 1659.0933,661.81655 1659.4963,664.13755 1659.7753,665.75455 1660.1973,668.07255 1658.7843,669.31255 1659.7243,669.66555 1660.5013,669.44655 1660.2943,668.44855 1660.7603,668.75955 1661.2673,668.97555 1661.8143,669.09655 1661.5023,670.64755 1657.9853,668.52255 1657.9723,671.24555 1657.9623,673.46955 1658.1493,675.74555 1657.5303,677.92555 1657.0023,679.78755 1655.8823,681.21255 1654.8293,682.77555 1653.6033,684.59955 1653.7463,687.30155 1652.2443,689.05855 1651.6613,689.74055 1650.8573,689.91455 1650.4533,690.81455 1650.0513,691.70955 1650.3993,692.71955 1650.0643,693.66655 1649.2983,695.82655 1647.7533,697.54155 1646.6773,699.53155 1645.2443,702.17955 1645.1283,705.09455 1644.0093,707.83255 1642.8723,710.61555 1641.1003,713.07455 1639.4683,715.57955 1637.8853,718.01055 1636.8363,720.82655 1635.0243,723.09655 1633.0123,725.61755 1630.9953,728.13155 1628.9443,730.62055 1624.8213,735.62455 1620.6293,739.69155 1615.1653,743.20755 1612.8763,744.68155 1610.5983,746.21255 1608.6863,748.16855 1606.5333,750.36955 1604.0713,752.54255 1602.1253,754.92055 1600.1993,757.27455 1598.1743,759.56555 1596.2713,761.92855 1595.3443,763.07955 1594.5333,764.31655 1593.6313,765.48755 1593.0733,766.21155 1591.4023,768.82455 1591.1053,767.30055 1591.1053,769.77655 1589.4882,772.15649 1587.9952,774.02549 1588.1233,772.08327 1586.2488,770.47715 1584.9162,768.55949 1583.3947,766.37006 1583.637,764.8623 1583.612,762.3263 1583.547,754.6593 1583.696,747.17355 1583.696,739.50955" id="so-"/>
    </g>
  <g class="landxx coastxx moz" id="mz" transform="translate(-28.7126,62.0078)">
    <title>Mozambique</title>
    <path d="M 1566.1089,886.0907 C 1566.3639,885.3737 1566.5079,884.6137 1566.4689,883.8507 1566.1569,884.5367 1565.8149,885.3267 1566.1089,886.0907" id="path3382"/>
    <path d="M 1573.6689,860.9607 C 1574.2729,860.3867 1574.1299,860.1467 1573.2379,860.2407 1573.3819,860.4807 1573.5259,860.7207 1573.6689,860.9607" id="path3384"/>
    <path class="landxx moz" d="M 1528.5989,827.3307 C 1534.1359,825.2497 1539.6929,823.2167 1545.2629,821.2267 1546.5079,820.7817 1547.6806,820.18916 1548.9146,819.71216 1549.3326,819.55116 1550.3912,818.86415 1550.8562,819.01015 L 1555.0189,823.6617 C 1555.0599,822.7287 1557.0629,823.0547 1558.0049,822.7887 1558.8149,822.5607 1560.0349,821.8017 1560.6999,822.6637 1561.9289,824.2577 1561.9359,828.1197 1561.2969,829.8867 1560.4859,832.1257 1558.5999,834.1387 1559.7969,836.4427 1560.0819,836.9897 1559.9179,837.6417 1560.2489,838.1617 1560.6229,838.7497 1561.2869,839.0697 1561.6589,839.6567 1562.3879,840.8057 1563.5109,841.8807 1564.5449,842.7637 1565.5309,843.6057 1565.4779,843.7597 1564.8019,844.8657 1564.0799,846.0467 1566.4199,846.4917 1566.5739,844.9017 1566.7219,843.3557 1566.2759,841.9887 1565.3879,840.7327 1566.7939,839.7087 1566.0629,837.5857 1568.1289,837.1567 1570.9289,836.5757 1571.1769,835.3537 1571.1859,832.5307 1571.1859,831.5037 1571.0079,830.4557 1571.0689,829.4307 1571.1689,827.7607 1572.0459,825.9167 1571.3289,824.2787 1570.6109,822.6377 1569.1119,821.0917 1568.1479,819.5637 1567.2519,818.1427 1566.3759,816.6137 1565.2409,815.3627 1564.4069,814.4447 1564.7212,815.2816 1563.9712,814.44164 1563.7487,813.723 1564.1309,812.3132 1563.6725,810.91987 1563.0719,809.09456 1564.1448,807.9911 1563.9059,807.18212 1562.5206,802.50467 1563.358,803.64973 1563.292,803.06147 1563.8334,801.83029 1565.6378,802.06121 1565.1994,797.6999 1566.6998,797.84069 1568.0625,798.17195 1569.8179,797.6637 1570.8105,797.37631 1571.7449,796.1537 1572.8309,796.8567 1573.5819,797.3427 1573.9459,798.2717 1574.7439,798.6967 1575.3549,799.0227 1577.3839,799.1347 1578.0569,798.9617 1579.1759,798.6737 1579.9819,796.7937 1581.2449,798.1647 1583.5889,800.7087 1586.4039,797.6957 1587.5389,795.8267 1588.1649,794.7947 1589.2809,794.7667 1590.2579,795.3857 1591.8499,796.3947 1592.2349,796.3857 1593.7449,795.3257 1595.0069,794.4407 1595.9969,793.8177 1597.6419,794.1407 1598.5879,794.3277 1600.4149,792.5127 1601.2979,792.1107 1603.0399,791.3187 1604.4949,790.2047 1605.9969,789.0457 1607.8309,787.6287 1609.0259,789.9997 1607.4349,790.7607 1607.6779,790.8747 1607.9169,790.9947 1608.1549,791.1207 1607.4269,792.0587 1607.8399,793.1147 1607.4349,794.1407 1607.2179,794.6927 1605.8269,795.4077 1606.6469,795.9907 1607.3269,796.4727 1607.1679,799.0517 1607.2649,800.0497 1607.3369,800.7977 1607.3959,801.5597 1607.3289,802.3107 1607.2289,803.4497 1606.8739,803.1637 1607.1919,804.1727 1607.2649,804.5487 1607.2389,804.9187 1607.1129,805.2797 1606.9649,805.9777 1607.4039,806.1897 1607.5839,806.7937 1607.8479,807.6717 1607.5159,808.9317 1606.9249,809.6207 1608.9289,809.9057 1606.3209,814.3047 1607.1059,814.5557 1608.4769,814.9947 1607.1379,819.5717 1607.5749,820.6407 1609.0849,819.7457 1607.3559,822.6647 1607.7959,823.3707 1607.9169,822.0977 1609.1999,822.3167 1608.9799,823.5787 1608.7419,824.9467 1609.0699,825.9167 1607.6459,826.6907 1607.9049,826.8927 1608.1709,827.0827 1608.4469,827.2607 1606.7989,826.8677 1608.2199,827.4687 1607.7469,828.0357 1607.4479,828.3937 1606.9829,828.5287 1606.7869,828.9907 1608.3779,828.4247 1607.0039,830.9487 1606.7669,831.4477 1605.9699,833.1327 1604.2729,834.0667 1603.4539,835.7407 1602.6409,837.4027 1601.3129,838.3687 1600.4089,839.9437 1599.7169,841.1517 1595.0249,842.7827 1595.1939,844.0967 1595.2719,844.7047 1591.6509,845.3267 1590.9459,845.7607 1590.3219,846.1447 1589.6149,846.4517 1588.9129,846.6567 1587.7799,846.9877 1587.9749,846.5547 1587.1519,847.3157 1585.9679,848.4107 1584.3089,848.9287 1582.9009,849.6607 1581.4999,850.3897 1579.2679,853.7977 1577.6959,852.4607 1580.6319,855.6817 1573.5019,856.9187 1574.1659,860.1707 1573.5599,860.2537 1573.1529,859.8577 1573.0159,859.3007 1573.1579,860.4437 1572.0719,861.8927 1572.2259,860.3107 1570.8549,861.4997 1569.1959,862.3157 1568.0809,863.7837 1567.0939,865.0827 1566.1959,866.3157 1565.0079,867.4497 1564.5269,867.9087 1562.6149,869.9257 1561.9279,869.0907 1561.4849,868.5527 1560.9189,866.7077 1559.9159,867.2917 1561.6449,867.1877 1561.0409,869.3637 1561.3819,869.8917 1561.7019,870.3887 1561.6849,871.1957 1561.4449,871.7177 1561.3359,871.9927 1561.1359,872.1517 1560.8459,872.1917 1561.0679,872.6057 1561.1419,873.0457 1561.0679,873.5117 1560.8799,875.7847 1561.6269,875.1567 1562.7969,876.6527 1563.4529,877.4917 1563.6419,878.4847 1563.6279,879.5247 1563.6179,879.9277 1563.3009,883.0627 1563.8769,881.1227 1563.4389,882.8157 1564.5649,884.6457 1564.7359,886.3727 1564.8399,887.4077 1565.2099,888.4907 1565.0389,889.5357 1564.8939,890.4167 1564.5129,891.3957 1565.4569,891.9937 1565.6259,890.8847 1565.5779,889.8857 1566.3259,888.9637 1566.3079,889.3027 1566.3259,891.7317 1566.6859,889.6927 1566.4849,890.8637 1566.1919,892.0217 1566.0879,893.2087 1565.9939,894.2737 1566.7489,895.2207 1566.6129,896.2567 1566.2409,899.0837 1564.2079,901.8097 1564.6659,904.8127 1564.4039,903.1707 1565.6079,904.8627 1565.6759,903.4427 1566.7589,905.2687 1564.6579,907.9987 1563.5339,909.2867 1561.6759,911.4157 1558.8569,912.3887 1556.2619,913.3037 1553.3249,914.3397 1550.3659,915.4177 1547.7459,917.1227 1546.5629,917.8927 1545.3269,918.5697 1544.6689,919.8857 1544.1039,921.0147 1543.8179,922.3277 1542.3459,922.5217 1543.3279,922.5107 1544.8979,926.0117 1545.7259,923.8917 1545.5499,925.6867 1546.4889,930.33598 1544.6349,930.20843 L 1540.1599,930.0352 C 1540.2269,928.56341 1539.3125,926.89789 1539.5467,925.7577 1539.7435,924.79933 1539.2777,923.87246 1538.628,923.01516 1538.1498,922.38408 1538.258,920.8575 1538.7593,919.6531 1539.0443,918.96836 1539.0059,916.5137 1539.0359,915.8097 1539.1079,914.0857 1539.0949,912.3627 1539.2251,910.6427 1539.3421,909.0907 1538.9859,908.0557 1538.7359,906.5737 1538.3599,904.3537 1536.8479,902.5387 1536.3869,900.3777 1536.1649,899.3347 1536.3309,898.2347 1536.1483,897.1587 1535.8943,895.6637 1535.5929,894.2267 1535.1859,892.7707 1534.9219,891.8267 1534.4991,892.10678 1535.0295,891.40978 1535.5598,890.99096 1537.0434,889.05832 1537.6689,888.4197 1538.6011,887.46796 1542.9349,881.3737 1544.0749,882.2027 1542.9259,880.7197 1544.0759,879.8607 1544.4349,878.3827 1544.6559,877.4737 1543.7749,876.2047 1544.7739,875.6087 1546.1639,874.7797 1546.5269,873.6507 1547.2939,872.2217 1547.6219,871.6107 1547.8005,871.09349 1548.0375,870.43349 1548.4135,869.39249 1548.1245,868.5927 1548.1759,867.5827 1547.9359,867.6787 1547.6969,867.7757 1547.4559,867.8727 1546.929,866.82476 1546.5563,865.8829 1546.7621,865.30161 1547.0118,864.59676 1547.9073,864.01372 1547.5701,863.0691 1547.281,862.25901 1546.1136,862.54746 1546.4425,861.24569 1546.6881,860.27369 1548.3908,860.1154 1548.2529,858.9317 1548.0158,856.89659 1549.282,857.65959 1549.1579,856.3257 1549.0553,855.22355 1548.4359,854.17509 1548.6459,853.06409 1548.7929,852.28309 1549.3055,851.41595 1549.1121,850.6367 1548.727,849.08497 1548.8562,848.03396 1548.8907,846.37028 1548.9017,845.82987 1548.6117,845.43768 1548.4617,844.91168 1548.2437,844.14868 1548.9879,842.8517 1549.1159,842.0927 1548.0606,842.38989 1547.5251,842.37992 1546.9639,841.3417 1546.4332,840.35981 1543.4029,840.2769 1542.6139,839.8227 1540.1839,838.4238 1537.861,836.96575 1535.248,836.2267 1534.4114,835.99008 1531.7953,836.06623 1530.8815,835.84851 1529.4021,835.49604 1529.9969,833.0947 1529.8599,831.9927 1529.6649,830.3907 1528.4559,828.9637 1528.5989,827.3307" id="path3462"/>
    <path d="M 1600.8089,838.8507 C 1601.0489,838.6837 1601.2879,838.5177 1601.5289,838.3507 1601.5289,838.7707 1601.4639,839.1777 1601.3189,839.5717 1601.1489,839.3307 1600.9789,839.0907 1600.8089,838.8507" id="path3466"/>
  </g>
  <g class="landxx coastxx tza" id="tz" transform="translate(-29.9017,-45.0745)">
    <title>Tanzania, United Republic of</title>
    <path d="M 1599.559,856.733 C 1599.841,858.532 1600.098,859.174 1601.521,860.41 1602.508,861.267 1602.794,856.922 1601.208,858.243 1601.467,857.138 1601.132,855.326 1600.559,854.352 1600.322,855.128 1599.321,855.84 1599.559,856.733" id="path4894"/>
    <path d="M 1602.798,873.793 C 1603.571,873.096 1604.855,872.641 1604.378,871.343 1603.939,872.387 1602.627,872.439 1602.798,873.793" id="path4896"/>
    <path d="M 1603.298,847.873 C 1603.416,848.79 1604.205,849.559 1603.149,849.673 1603.4,849.829 1603.643,849.995 1603.878,850.173 1602.391,851.018 1603.725,852.309 1604.348,850.947 1605.086,849.332 1604.879,847.762 1603.369,847.154 1603.345,847.393 1603.321,847.633 1603.298,847.873" id="path4898"/>
    <path class="landxx tza" d="M 1527.5614,851.34618 C 1528.1381,847.11097 1528.2989,850.05803 1526.5102,846.25711 1526.1694,845.53294 1526.9575,844.23754 1526.5742,843.02741 1528.3242,842.8424 1528.6125,842.69458 1529.7465,841.396 1530.654,840.35681 1532.1304,838.93631 1533.0484,837.81167 1533.7133,836.99717 1532.3057,836.203 1532.5917,835.606 1532.9357,834.888 1534.3706,835.46779 1534.1186,834.61679 1533.9526,834.05379 1535.3765,833.243 1535.6765,832.954 1536.5345,832.128 1535.2995,831.157 1536.0475,830.373 1533.7495,831.02 1532.3075,829.637 1533.5975,827.573 1532.3475,827.693 1533.2265,826.776 1533.6845,826.049 1534.2665,825.126 1535.394,825.49114 1535.882,824.54914 1536.791,822.79314 1535.3931,819.64315 1534.604,817.95442 1534.0521,816.77319 1532.128,814.06959 1533.9577,813.47095 1536.2113,812.73364 1541.2344,813.30505 1543.6561,813.37675 1544.6635,817.16006 1542.9111,817.23926 1543.0432,817.67839 1543.499,819.19335 1542.1798,820.99345 1542.2306,821.36491 1543.0198,822.42517 1542.1566,823.43957 1542.3196,823.98737 1542.8671,825.82115 1543.3216,824.36658 1543.5431,828.84003 1543.6599,827.89243 1544.3558,827.38399 1544.9226,828.41524 1544.6979,826.57866 1544.9446,826.40243 1546.0852,826.54893 1545.2241,826.08027 1545.7898,825.0238 1547.1361,824.27302 1547.3984,824.53654 1548.7112,827.34557 1550.0922,825.55089 1549.9128,825.98086 1550.9215,826.1304 1551.0931,826.70106 1551.4314,827.82637 1551.4205,829.85464 1550.4358,829.40859 L 1551.0154,830.16512 C 1551.5052,829.59542 1550.6275,829.39107 1552.5689,829.23363 1551.4015,829.44534 1549.6394,822.84927 1555.7059,826.62527 1555.9715,825.00766 1560.0758,823.17326 1558.8327,823.04711 1557.3274,822.89434 1557.514,823.52684 1556.6829,823.41578 1554.1761,823.08074 1554.292,822.59212 1554.154,822.70171 1554.748,822.02203 1554.194,822.0232 1556.8078,821.83942 1556.5773,820.88414 1554.2236,821.40417 1554.7818,821.24555 1555.038,821.01319 1553.9814,820.61275 1556.8687,820.22524 1557.186,820.18264 1557.6253,819.6698 1557.4913,819.08953 1557.4103,818.73739 1557.8393,819.02753 1557.9784,818.84611 1556.8405,817.64655 1557.6423,817.50336 1557.9134,817.34874 1558.1796,817.19698 1558.4656,817.50095 1559.7391,817.7532 1559.4878,817.782 1558.7706,816.6755 1559.3499,816.03018 1559.703,815.56587 1559.3499,816.53794 1559.6815,816.10648 1559.2866,815.81966 1559.4229,815.15285 1559.7175,814.80338 1560.0146,814.42602 1560.4356,814.01307 1560.7305,813.63438 L 1583.5709,827.95519 C 1585.5049,829.18219 1587.9143,830.06478 1588.4903,832.41978 1588.7363,833.42978 1587.9384,833.39405 1587.7284,834.26005 1587.5734,834.89905 1588.6784,835.62105 1589.0414,836.15305 1590.2904,837.98605 1592.7704,839.21105 1594.4034,840.68505 1595.3754,841.56305 1599.9813,844.53123 1599.8093,845.81123 1599.5343,847.86523 1598.7884,850.17405 1597.9374,852.06605 1597.5044,853.02905 1597.0404,853.98305 1596.7304,854.99505 1596.5774,855.47305 1596.4804,855.96105 1596.4414,856.46105 1596.3984,857.14505 1597.0294,857.77005 1596.9214,858.37705 1596.4604,860.96805 1600.6484,861.16805 1600.1274,863.93205 1602.3904,863.21505 1602.0884,865.89405 1601.2394,866.96805 1599.8874,868.67605 1600.6794,870.69505 1599.7664,872.35205 1601.3354,870.92405 1601.2364,873.88605 1600.8704,874.64405 1600.3324,875.75705 1599.9044,877.10305 1600.0664,878.35405 1600.2164,879.51205 1601.9094,881.46205 1600.6364,881.71205 1601.6024,881.89605 1601.0374,883.69105 1601.7854,883.61705 1603.0044,883.49805 1602.3794,884.84505 1602.1144,885.43205 1601.6264,886.51805 1602.8944,886.91705 1603.1154,887.90905 1603.2384,888.46105 1602.8194,888.78805 1603.1154,889.34405 1603.5034,890.07205 1603.6794,890.51305 1602.9354,891.14205 1604.2014,890.90705 1604.6994,891.98505 1604.9454,893.01205 1604.8349,891.21802 1609.2306,893.80479 1607.8256,895.78862 1604.8003,898.12539 1602.137,899.4965 1599.3425,901.21783 1598.3275,901.57283 1598.1835,900.93173 1597.1595,901.28273 1596.0835,901.65073 1594.4564,902.94305 1593.3634,903.30205 1592.2834,903.65605 1590.9776,901.54569 1589.7554,902.15805 1588.3434,902.86554 1587.7389,905.01004 1586.2346,905.67523 1583.7231,906.78577 1583.2328,905.93614 1582.4371,905.25351 1580.8791,903.91682 1580.3107,906.37264 1578.5961,906.17351 1576.6253,905.94463 1575.9558,906.21281 1574.8724,904.84703 1574.0293,903.78415 1573.06,903.29257 1571.829,904.43105 1570.9596,905.23505 1567.9459,905.09175 1566.3964,904.77058 1566.252,904.63053 1566.1762,903.82791 1565.9772,903.53191 1565.4304,902.7187 1564.8758,901.90054 1564.4228,900.99954 1563.7918,899.74654 1564.2239,898.3844 1563.9619,897.0554 1563.6109,895.2814 1563.9119,893.64005 1563.4684,891.89505 1563.0054,890.07605 1561.8713,888.39117 1560.4266,887.26705 1559.0194,886.17216 1558.7445,888.29632 1558.8744,888.62205 1557.4384,887.07605 1556.0884,888.52005 1554.7404,887.04405 1554.3174,886.58005 1552.7216,886.46042 1552.1044,886.10205 1551.0574,885.49413 1550.1164,884.99608 1548.5466,884.76605 1548.2979,884.72965 1548.083,884.34446 1547.966,884.12346 1547.468,883.50846 1547.0619,883.656 1546.4249,883.337 1545.8279,883.039 1545.0344,883.14005 1544.4444,882.82705 1543.9004,882.53805 1543.7724,881.86005 1543.2734,881.61405 1542.8644,881.41205 1542.3893,881.90169 1541.9573,881.77569 1541.2533,881.56969 1541.1553,880.82101 1540.7823,880.30069 1540.0495,879.27862 1539.1191,879.09036 1538.1218,879.1601 1537.6526,878.10596 1535.1741,873.04688 1534.029,869.99849 1532.9723,867.18544 1533.7626,861.95897 1529.8237,860.46829 1529.2294,860.24337 1529.7136,860.92019 1529.0304,860.60478 1527.5859,859.93794 1526.1383,858.31111 1528.7013,855.78941 1529.6898,854.81692 1528.0125,852.96624 1527.5608,851.31437" id="path5432"/>
  </g>
  <path class="landxx mwi" d="M 1518.9403,878.12856 C 1519.189,877.63782 1520.5368,875.46785 1521.0122,874.03709 1521.4901,872.59887 1521.3925,872.2069 1521.1002,870.32655 1520.8318,868.60275 1524.7217,867.51155 1525.5167,866.65955 1522.6976,865.80246 1523.8797,861.17186 1523.8717,859.13255 1523.8617,857.43158 1524.9637,856.71255 1524.0407,854.99555 1522.9647,852.99155 1524.5641,853.4425 1525.6373,852.64601 1526.8976,851.71064 1527.205,849.76819 1525.0987,847.32235 1523.4061,845.35683 1525.5229,844.76216 1523.9194,843.69475 1522.5979,842.81505 1522.0783,842.8523 1521.7687,842.52627 1521.5983,842.34686 1522.0859,841.25759 1521.6175,840.69534 1521.8516,840.87487 1523.5054,841.50319 1524.3039,841.60847 1525.2992,841.73969 1525.0287,842.49068 1525.8595,842.60746 1526.6727,842.72179 1528.4712,842.57266 1528.9767,843.54955 1528.9987,844.85811 1529.0627,846.40144 1530.6593,848.32919 1532.0979,850.06609 1530.7283,850.41911 1530.9421,851.80786 1531.1241,852.98907 1531.5611,858.53551 1531.5808,859.18107 1531.6588,861.73492 1528.3502,864.27058 1529.2291,865.78909 1532.6133,871.63628 1531.5335,871.55128 1531.3443,872.7264 1530.5567,877.61864 1533.8773,876.51362 1533.3745,878.72391 1532.1326,884.18293 1535.4181,883.29473 1535.2682,880.69672 L 1537.9825,884.18916 C 1538.6176,884.51439 1538.2447,879.71149 1536.4254,878.28021 1534.7754,878.53026 1535.4874,876.97932 1535.2763,876.53563 1536.5794,877.16971 1536.7227,877.2596 1538.2577,879.58355 1539.2739,881.12214 1540.1746,882.73405 1541.5469,884.33155 1543.0713,886.10606 1543.108,887.80855 1542.5365,890.05755 1542.0344,892.03361 1542.7763,893.96876 1542.4545,896.01876 1542.3155,896.90376 1542.0515,897.95576 1541.2905,898.52276 1540.4445,899.15376 1539.2395,898.95192 1538.4365,899.64075 1537.6482,900.31688 1537.899,901.77554 1536.7359,902.70991 1536.9934,903.03191 1537.853,904.73618 1537.9149,905.68455 1537.9449,906.07455 1537.9279,907.27758 1537.5609,907.67955 1537.193,908.08229 1535.7752,907.98832 1535.9797,907.24636 1536.4119,905.6779 1537.1473,906.11445 1535.4969,904.53055 1534.3786,903.45737 1531.3112,900.44223 1531.1577,899.24115 1530.8903,897.148 1530.3314,897.62978 1530.7518,895.99108 1530.9432,895.2449 1531.3999,893.64255 1531.9389,892.93055 1532.7939,891.80055 1532.6471,891.48806 1532.7829,890.07055 1532.9427,888.40155 1532.9517,886.18678 1531.8061,884.52895 1531.3568,883.87874 1530.0071,884.77488 1528.7963,884.91634 1527.8124,885.0313 1526.3459,884.74955 1526.3059,885.66855 1525.7329,885.04855 1521.9336,880.61071 1521.7035,880.70337 1520.7216,881.09873 1518.6848,878.92103 1518.9409,878.12856 z" id="mw">
    <title>Malawi</title>
  </path>
  <g id="km">
    <title>Comoros</title>
    <g class="landxx coastxx com" id="km-" transform="translate(-29.9017,-45.0745)">
      <path d="M 1630.878,907.923 C 1631.321,907.517 1631.048,906.747 1630.868,906.303 1630.415,905.175 1630.703,904.133 1630.366,903.022 1628.987,902.98 1629.592,904.8 1629.284,905.589 1628.801,906.83 1630.279,907.16 1630.876,907.923" id="path5750"/>
      <path d="M 1633.758,911.813 C 1633.518,911.118 1632.877,910.565 1632.098,910.722 1632.098,911.719 1633.047,911.662 1633.758,911.813" id="path5752"/>
      <path d="M 1638.798,911.733 C 1639.645,909.539 1637.964,910.357 1636.639,910.003 1637.383,910.548 1638.189,911.024 1638.798,911.733" id="path5754"/>
    </g>
    <circle class="circlexx com" cx="1603.8311" cy="862.79865" id="km." r="6.0130301" rx="6.0130301" ry="6.0130301"/>
  </g>
  <g id="mu">
    <title>Mauritius</title>
    <path class="landxx coastxx mus" d="M 1704.1463,932.61755 C 1703.6203,933.17255 1701.1063,936.87955 1702.8573,937.09055 1705.6383,937.42555 1705.9913,932.21955 1704.1463,932.61755" id="mu-"/>
    <circle class="circlexx mus" cx="1700.8033" cy="933.35559" id="mu." r="6.0130301" rx="6.0130301" ry="6.0130301"/>
  </g>
  <g id="sc">
    <title>Seychelles</title>
    <path class="landxx coastxx syc" d="M 1694.4963,800.99855 C 1694.5763,800.29855 1694.3073,799.42555 1693.4163,799.62855 1693.9503,799.90855 1694.3693,800.40255 1694.4963,800.99855" id="sc-"/>
    <circle class="circlexx syc" cx="1695.2422" cy="795.02222" id="sc." r="6.0130301" rx="6.0130301" ry="6.0130301"/>
  </g>
  </svg>