<svg xmlns="http://www.w3.org/2000/svg" class="world_map zoom3 zoom2" height="127" id="svg2985" version="1.1" viewBox="2422 898 160 84" width="127">
  <title>World Map</title>
  <defs id="defs2987"/>
  <style id="style_css_sheet" type="text/css">
/*
 * Below are Cascading Style Sheet (CSS) definitions in use in this file,
 * which allow easily changing how countries are displayed.
 *
 */
/* --- Custom styles for Peace Corps --- */
.world_map .world_map-is_selected.circlexx {
  opacity:1;
}
.world_map .world_map-is_selected.landxx {
  fill: #C94112 !important;
}
.world_map .landxx {
  fill: #F2EFE8;
  stroke: #ffffff;
  fill-rule: evenodd;
}
.world_map.zoom6 .landxx {
  stroke-width: 0.1px;
}
.world_map.zoom5 .landxx {
  stroke-width: 1px;
}
.world_map.zoom4 .landxx {
  stroke-width: 2px;
}
.world_map.zoom3 .landxx {
  stroke-width: 3px;
}
.world_map.zoom2 .landxx {
  stroke-width: 4px;
}
.world_map.zoom1 .landxx {
  stroke-width: 5px;
}
.world_map .coastxx {
  fill: #F2EFE8;
  stroke: #ffffff;
  stroke-width: 2px;
  fill-rule: evenodd;
}
.world_map .oceanxx {
  opacity: 1;
  color: #ccc;
  fill: #ffffff;
  stroke: #ffffff;
  stroke-width: 0.5;
  stroke-miterlimit: 1;
}

/* --- Original Styles --- *
/*
 * Circles around small countries
 *
 * Change opacity to 1 to display all circles.
 *
 */
.circlexx
{
   opacity:0;
   fill-opacity:0;
   fill:#e0e0e0;
   stroke:#000000;
   stroke-width:0.5;
}

/*
 * Smaller circles around French DOMs and Chinese SARs
 *
 * Change opacity to 1 to display all subnational circles.
 *
 */
.subxx
{
   opacity:0;
   stroke-width:0.3;
}

/*
 * Circles around small, unrecognized countries
 *
 * Change opacity to 1 to display all circles.
 *
 */
.unxx
{
   opacity:0;
   fill:#e0e0e0;
   stroke:#000000;
   stroke-width:0.3;
}

/*
 * Circles around small countries, but with no permanent residents 
 *
 * Change opacity to 1 to display all circles.
 *
 */
.noxx
{
   opacity:0;
   fill:#e0e0e0;
   stroke:#000000;
   stroke-width:0.5;
}

/*
 * land
 */
.landxx
{
}
/*
 * Styles for coastlines of islands with no borders
 */


/*
 * Styles for nations with limited recognition
 */
.limitxx
{
   fill: #e0e0e0;
   stroke:#ffffff;
   stroke-width:0;
   fill-rule:evenodd;
}

/*
 * Styles for nations with no permanent population.
 */
.antxx
{
   fill: #e0e0e0;
   stroke:#ffffff;
   stroke-width:0;
   fill-rule:evenodd;
}

/*
 * Ocean
 */


/*
 * Additional style rules
 *
 * The following are examples of colouring countries.  You can substitute these with your own styles to colour the countries on the map.
 *
 * Color a few countries:
 *
 * .gb, .au, .nc
 * {
 *    fill:       #ff0000;
 * }
 *
 * Color a few small country circles (and the countries):
 *
 * .ms, .ky
 * {
 *    opacity:    1;
 *    fill:       #ff0000;
 * }
 *
 */

</style>
  <path class="oceanxx" d="M 2079.5058,1457.5605 615.24779,1457.5605 C 615.13079,1457.5605 615.07079,1457.5505 614.95179,1457.5215 611.67679,1456.6515 608.40179,1455.7815 605.12779,1454.9105 599.15079,1453.3225 593.22879,1451.5225 587.30779,1449.7385 564.39379,1442.8315 541.76579,1434.6995 519.46979,1426.0115 495.81079,1416.7935 472.34979,1407.0946 449.19179,1396.6816 426.78379,1386.6056 405.17679,1375.0536 383.76379,1363.0356 363.11779,1351.4496 343.01079,1338.8296 323.37979,1325.5996 302.29179,1311.3876 281.47879,1296.8506 261.05379,1281.7006 242.35079,1267.8276 223.73679,1253.6306 206.05279,1238.4686 186.98679,1222.1216 167.82379,1205.7706 150.35279,1187.6906 132.97779,1169.7106 116.33279,1151.0606 100.15679,1131.9976 84.352777,1113.3736 70.086776,1093.4716 56.901786,1072.9246 44.046786,1052.8916 32.093776,1032.1356 22.469776,1010.3426 17.516776,999.12753 12.408776,987.76556 8.7017761,976.06056 5.0657761,964.58166 1.5997761,953.04259 -1.5932239,941.43054 -8.0102239,918.09356 -14.055224,894.78356 -18.234224,870.92056 -22.491222,846.60856 -24.894222,822.19856 -26.943222,797.62156 -28.947222,773.58556 -28.829222,749.40156 -27.225222,725.34856 -25.648222,701.69856 -23.363222,677.92456 -19.274222,654.56456 -15.018224,630.25156 -9.3842239,606.45156 -2.8412239,582.66156 3.5687761,559.35256 10.483776,536.34856 20.265776,514.19856 30.320776,491.42956 42.318786,469.90956 55.502786,448.81656 68.512776,428.00356 83.108777,408.26756 98.686787,389.31756 113.73479,371.01156 129.68979,353.25256 146.15179,336.20856 163.77479,317.96256 182.64579,301.14556 201.89579,284.64756 220.33379,268.84456 239.55379,253.98456 258.95979,239.39656 278.42779,224.76056 298.39379,210.83356 318.55579,197.17556 339.26979,183.14456 360.47879,169.92056 382.15079,157.42556 403.46579,145.13656 425.31479,133.98856 447.60479,123.59356 469.58579,113.34356 492.14979,104.17656 514.74579,95.37556 537.44879,86.532565 560.37879,78.195565 583.63479,70.914565 589.69379,69.017565 595.80079,67.276565 601.90879,65.549565 604.63079,64.779565 607.36079,64.045565 610.09479,63.318565 611.59979,62.918565 613.56579,61.986565 615.13379,61.986565 L 2079.9638,61.986565 C 2079.9798,61.986565 2079.9958,61.986565 2080.0118,61.986565 2079.8448,61.986565 2079.6788,61.986565 2079.5118,61.986565 2102.8268,68.191565 2125.8778,75.323565 2148.5448,83.611565 2171.6378,92.054565 2194.6158,100.87956 2217.2348,110.52956 2240.5208,120.46556 2263.4848,130.95256 2285.8828,142.76456 2306.9808,153.89056 2327.8178,165.78556 2347.8608,178.72156 2368.9418,192.32656 2389.7498,206.29256 2410.2218,220.80056 2429.7368,234.62956 2448.9938,248.98756 2467.6208,263.99256 2486.8818,279.50856 2506.0408,295.30556 2524.0538,312.27356 2541.8708,329.05756 2558.7508,346.67256 2574.9408,365.03656 2591.2478,383.53256 2607.1478,402.30656 2621.4508,422.41856 2635.3488,441.96256 2648.4468,462.42756 2659.5898,483.67756 2671.1238,505.67356 2681.1048,528.35656 2688.6188,552.05056 2692.2518,563.50656 2695.3368,575.14756 2698.5608,586.72256 2701.7738,598.25356 2704.9238,609.81956 2707.4578,621.52456 2712.6258,645.40556 2716.6718,669.47856 2719.1178,693.79656 2721.5718,718.19256 2723.1798,742.56356 2722.9808,767.09056 2722.7908,790.65456 2720.6908,814.43756 2717.7688,837.81156 2714.7368,862.07056 2710.5198,886.16156 2704.6398,909.90056 2701.6808,921.84356 2698.3948,933.69556 2695.0378,945.53154 2691.7468,957.13466 2688.5558,968.83466 2684.3988,980.16156 2676.0918,1002.8036 2666.1688,1024.8836 2654.1338,1045.8046 2641.9958,1066.9066 2628.8498,1087.4866 2614.2378,1106.9696 2599.1658,1127.0666 2582.6678,1145.9446 2565.8948,1164.6296 2549.8298,1182.5266 2532.8918,1199.7316 2514.8648,1215.6616 2496.0788,1232.2646 2476.8978,1248.3126 2457.1558,1263.7656 2438.2988,1278.5276 2418.9668,1292.7306 2399.3188,1306.4206 2378.7018,1320.7866 2357.7538,1334.6106 2336.4758,1347.9776 2326.4088,1354.3016 2316.0058,1360.1326 2305.6418,1365.9516 2295.0348,1371.9086 2284.3858,1378.0166 2273.4448,1383.3436 2250.7338,1394.3986 2227.7768,1404.7266 2204.3888,1414.2665 2181.7848,1423.4875 2159.0678,1432.2695 2136.0228,1440.3345 2117.4118,1446.8465 2098.5568,1452.4975 2079.5058,1457.5605" id="ocean"/>
  <g id="nc">
    <title>New Caledonia</title>
    <g class="world_map-is_selected landxx coastxx ncl" id="nc-" transform="translate(-29.9017,-45.0745)">
      <path d="M 2534.108,983.663 C 2534.923,984.676 2535.279,986.194 2536.43,986.913 2536.917,987.218 2536.751,988 2536.974,988.446 2537.307,989.111 2538.345,989.318 2538.502,990.072 2538.768,991.341 2540.358,991.711 2541.134,992.485 2542.279,993.629 2543.423,994.118 2544.837,994.822 2543.889,995.723 2545.632,997.467 2546.567,996.551 2546.238,996.994 2546.324,997.18 2546.346,997.701 2547.281,995.954 2547.943,998.364 2548.845,998.148 2550.061,997.856 2551.359,997.814 2550.591,996.026 2550.263,995.262 2549.588,995.185 2549.008,994.712 2548.266,994.107 2547.848,993.201 2547.268,992.459 2546.166,991.05 2544.381,990.532 2543.188,989.282 2542.245,988.294 2541.764,987.304 2541.262,986.052 2540.61,984.426 2540.308,984.664 2538.942,983.661 2537.727,982.768 2537.317,981.033 2535.987,980.281 2535.421,979.961 2534.863,980.286 2534.291,980.055 2533.531,979.749 2533.286,978.884 2532.597,978.481 2532.953,979.121 2533.205,979.923 2533.368,980.635 2533.485,981.151 2533.173,981.507 2533.404,982.044 2533.646,982.603 2534.037,983.034 2534.108,983.663" id="path2568"/>
      <path d="M 2550.168,983.883 C 2551.262,983.451 2550.979,982.501 2551.468,981.643 2550.975,982.361 2550.815,983.262 2550.168,983.883" id="path2570"/>
      <path d="M 2553.408,1000.803 C 2553.603,1000.583 2553.77,1000.343 2553.908,1000.083 2553.086,999.449 2552.523,1000.498 2553.408,1000.803" id="path2572"/>
      <path d="M 2555.718,987.913 C 2556.582,987.228 2556.22,983.252 2554.559,983.813 2555.959,984.771 2554.237,984.797 2553.989,985.602 2553.604,986.846 2555.136,987.149 2555.718,987.913" id="path2574"/>
      <path d="M 2559.388,992.013 C 2560.304,992.044 2560.707,991.095 2560.899,990.364 2560.051,990.593 2560.125,989.526 2559.453,989.507 2558.071,989.466 2558.832,991.537 2559.388,992.013" id="path2576"/>
      <path d="M 2503.798,972.003 C 2504.077,971.533 2504.271,971.029 2504.378,970.493 2503.99,970.856 2503.643,971.448 2503.798,972.003" id="path3370"/>
    </g>
    </g>
  <g id="vu">
    <title>Vanuatu</title>
    <g class="landxx coastxx vut" id="vu-" transform="translate(-29.9017,-45.0745)">
      <path d="M 2565.868,948.243 C 2566.53,947.82 2569.257,947.625 2568.539,946.269 2567.994,945.238 2566.893,944.718 2566.342,943.646 2564.274,939.622 2563.82,945.397 2565.288,944.132 2566.165,945.354 2565.046,947 2565.868,948.243" id="path6052"/>
      <path d="M 2570.258,958.893 C 2571.524,959.04 2572.216,957.231 2571.188,956.459 2570.463,955.916 2568.967,957.513 2568.749,958.103 2570.072,957.177 2568.834,958.643 2570.258,958.893" id="path6056"/>
      <path d="M 2571.188,946.223 C 2571.709,946.163 2572.191,945.996 2572.637,945.723 2572.165,945.396 2571.867,944.869 2571.988,944.284 2571.17,944.253 2570.553,944.856 2569.758,944.924 2569.864,945.682 2570.586,945.96 2571.188,946.223" id="path6066"/>
      <path d="M 2572.778,950.403 C 2572.836,949.658 2571.199,948.84 2570.688,948.533 2569.551,950.481 2571.938,949.582 2572.778,950.403" id="path6068"/>
      <path d="M 2574.578,969.043 C 2575.237,968.638 2574.907,965.486 2573.638,965.814 2573.157,965.938 2572.804,967.327 2572.721,967.732 2572.568,968.473 2574.135,968.728 2574.578,969.043" id="path6076"/>
      <path d="M 2574.428,974.733 C 2575.38,973.747 2573.981,972.846 2574.428,971.783 2572.664,971.967 2573.268,974.147 2574.428,974.733" id="path6078"/>
      <path d="M 2576.088,979.843 C 2576.33,979.63 2576.547,979.393 2576.738,979.133 2576.096,978.717 2575.19,979.406 2576.088,979.843" id="path6080"/>
    </g>
    </g>
  </svg>