<svg xmlns="http://www.w3.org/2000/svg" class="world_map zoom2" height="127" id="svg2985" version="1.1" viewBox="2220 930 481 393" width="127">
  <title>World Map</title>
  <defs id="defs2987"/>
  <style id="style_css_sheet" type="text/css">
/*
 * Below are Cascading Style Sheet (CSS) definitions in use in this file,
 * which allow easily changing how countries are displayed.
 *
 */
/* --- Custom styles for Peace Corps --- */
.world_map .world_map-is_selected.circlexx {
  opacity:1;
}
.world_map .world_map-is_selected.landxx {
  fill: #C94112 !important;
}
.world_map .landxx {
  fill: #F2EFE8;
  stroke: #ffffff;
  fill-rule: evenodd;
}
.world_map.zoom6 .landxx {
  stroke-width: 0.1px;
}
.world_map.zoom5 .landxx {
  stroke-width: 1px;
}
.world_map.zoom4 .landxx {
  stroke-width: 2px;
}
.world_map.zoom3 .landxx {
  stroke-width: 3px;
}
.world_map.zoom2 .landxx {
  stroke-width: 4px;
}
.world_map.zoom1 .landxx {
  stroke-width: 5px;
}
.world_map .coastxx {
  fill: #F2EFE8;
  stroke: #ffffff;
  stroke-width: 2px;
  fill-rule: evenodd;
}
.world_map .oceanxx {
  opacity: 1;
  color: #ccc;
  fill: #ffffff;
  stroke: #ffffff;
  stroke-width: 0.5;
  stroke-miterlimit: 1;
}

/* --- Original Styles --- *
/*
 * Circles around small countries
 *
 * Change opacity to 1 to display all circles.
 *
 */
.circlexx
{
   opacity:0;
   fill-opacity:0;
   fill:#e0e0e0;
   stroke:#000000;
   stroke-width:0.5;
}

/*
 * Smaller circles around French DOMs and Chinese SARs
 *
 * Change opacity to 1 to display all subnational circles.
 *
 */
.subxx
{
   opacity:0;
   stroke-width:0.3;
}

/*
 * Circles around small, unrecognized countries
 *
 * Change opacity to 1 to display all circles.
 *
 */
.unxx
{
   opacity:0;
   fill:#e0e0e0;
   stroke:#000000;
   stroke-width:0.3;
}

/*
 * Circles around small countries, but with no permanent residents 
 *
 * Change opacity to 1 to display all circles.
 *
 */
.noxx
{
   opacity:0;
   fill:#e0e0e0;
   stroke:#000000;
   stroke-width:0.5;
}

/*
 * land
 */
.landxx
{
}
/*
 * Styles for coastlines of islands with no borders
 */


/*
 * Styles for nations with limited recognition
 */
.limitxx
{
   fill: #e0e0e0;
   stroke:#ffffff;
   stroke-width:0;
   fill-rule:evenodd;
}

/*
 * Styles for nations with no permanent population.
 */
.antxx
{
   fill: #e0e0e0;
   stroke:#ffffff;
   stroke-width:0;
   fill-rule:evenodd;
}

/*
 * Ocean
 */


/*
 * Additional style rules
 *
 * The following are examples of colouring countries.  You can substitute these with your own styles to colour the countries on the map.
 *
 * Color a few countries:
 *
 * .gb, .au, .nc
 * {
 *    fill:       #ff0000;
 * }
 *
 * Color a few small country circles (and the countries):
 *
 * .ms, .ky
 * {
 *    opacity:    1;
 *    fill:       #ff0000;
 * }
 *
 */

</style>
  <path class="oceanxx" d="M 2079.5058,1457.5605 615.24779,1457.5605 C 615.13079,1457.5605 615.07079,1457.5505 614.95179,1457.5215 611.67679,1456.6515 608.40179,1455.7815 605.12779,1454.9105 599.15079,1453.3225 593.22879,1451.5225 587.30779,1449.7385 564.39379,1442.8315 541.76579,1434.6995 519.46979,1426.0115 495.81079,1416.7935 472.34979,1407.0946 449.19179,1396.6816 426.78379,1386.6056 405.17679,1375.0536 383.76379,1363.0356 363.11779,1351.4496 343.01079,1338.8296 323.37979,1325.5996 302.29179,1311.3876 281.47879,1296.8506 261.05379,1281.7006 242.35079,1267.8276 223.73679,1253.6306 206.05279,1238.4686 186.98679,1222.1216 167.82379,1205.7706 150.35279,1187.6906 132.97779,1169.7106 116.33279,1151.0606 100.15679,1131.9976 84.352777,1113.3736 70.086776,1093.4716 56.901786,1072.9246 44.046786,1052.8916 32.093776,1032.1356 22.469776,1010.3426 17.516776,999.12753 12.408776,987.76556 8.7017761,976.06056 5.0657761,964.58166 1.5997761,953.04259 -1.5932239,941.43054 -8.0102239,918.09356 -14.055224,894.78356 -18.234224,870.92056 -22.491222,846.60856 -24.894222,822.19856 -26.943222,797.62156 -28.947222,773.58556 -28.829222,749.40156 -27.225222,725.34856 -25.648222,701.69856 -23.363222,677.92456 -19.274222,654.56456 -15.018224,630.25156 -9.3842239,606.45156 -2.8412239,582.66156 3.5687761,559.35256 10.483776,536.34856 20.265776,514.19856 30.320776,491.42956 42.318786,469.90956 55.502786,448.81656 68.512776,428.00356 83.108777,408.26756 98.686787,389.31756 113.73479,371.01156 129.68979,353.25256 146.15179,336.20856 163.77479,317.96256 182.64579,301.14556 201.89579,284.64756 220.33379,268.84456 239.55379,253.98456 258.95979,239.39656 278.42779,224.76056 298.39379,210.83356 318.55579,197.17556 339.26979,183.14456 360.47879,169.92056 382.15079,157.42556 403.46579,145.13656 425.31479,133.98856 447.60479,123.59356 469.58579,113.34356 492.14979,104.17656 514.74579,95.37556 537.44879,86.532565 560.37879,78.195565 583.63479,70.914565 589.69379,69.017565 595.80079,67.276565 601.90879,65.549565 604.63079,64.779565 607.36079,64.045565 610.09479,63.318565 611.59979,62.918565 613.56579,61.986565 615.13379,61.986565 L 2079.9638,61.986565 C 2079.9798,61.986565 2079.9958,61.986565 2080.0118,61.986565 2079.8448,61.986565 2079.6788,61.986565 2079.5118,61.986565 2102.8268,68.191565 2125.8778,75.323565 2148.5448,83.611565 2171.6378,92.054565 2194.6158,100.87956 2217.2348,110.52956 2240.5208,120.46556 2263.4848,130.95256 2285.8828,142.76456 2306.9808,153.89056 2327.8178,165.78556 2347.8608,178.72156 2368.9418,192.32656 2389.7498,206.29256 2410.2218,220.80056 2429.7368,234.62956 2448.9938,248.98756 2467.6208,263.99256 2486.8818,279.50856 2506.0408,295.30556 2524.0538,312.27356 2541.8708,329.05756 2558.7508,346.67256 2574.9408,365.03656 2591.2478,383.53256 2607.1478,402.30656 2621.4508,422.41856 2635.3488,441.96256 2648.4468,462.42756 2659.5898,483.67756 2671.1238,505.67356 2681.1048,528.35656 2688.6188,552.05056 2692.2518,563.50656 2695.3368,575.14756 2698.5608,586.72256 2701.7738,598.25356 2704.9238,609.81956 2707.4578,621.52456 2712.6258,645.40556 2716.6718,669.47856 2719.1178,693.79656 2721.5718,718.19256 2723.1798,742.56356 2722.9808,767.09056 2722.7908,790.65456 2720.6908,814.43756 2717.7688,837.81156 2714.7368,862.07056 2710.5198,886.16156 2704.6398,909.90056 2701.6808,921.84356 2698.3948,933.69556 2695.0378,945.53154 2691.7468,957.13466 2688.5558,968.83466 2684.3988,980.16156 2676.0918,1002.8036 2666.1688,1024.8836 2654.1338,1045.8046 2641.9958,1066.9066 2628.8498,1087.4866 2614.2378,1106.9696 2599.1658,1127.0666 2582.6678,1145.9446 2565.8948,1164.6296 2549.8298,1182.5266 2532.8918,1199.7316 2514.8648,1215.6616 2496.0788,1232.2646 2476.8978,1248.3126 2457.1558,1263.7656 2438.2988,1278.5276 2418.9668,1292.7306 2399.3188,1306.4206 2378.7018,1320.7866 2357.7538,1334.6106 2336.4758,1347.9776 2326.4088,1354.3016 2316.0058,1360.1326 2305.6418,1365.9516 2295.0348,1371.9086 2284.3858,1378.0166 2273.4448,1383.3436 2250.7338,1394.3986 2227.7768,1404.7266 2204.3888,1414.2665 2181.7848,1423.4875 2159.0678,1432.2695 2136.0228,1440.3345 2117.4118,1446.8465 2098.5568,1452.4975 2079.5058,1457.5605" id="ocean"/>
  <g class="world_map-is_selected landxx coastxx nzl" id="nz" transform="translate(-29.9017,-45.0745)">
    <title>New Zealand</title>
    <path d="M 2409.408,1240.343 C 2408.907,1239.498 2405.224,1241.716 2405.378,1242.644 2405.905,1242.393 2406.822,1242.78 2407.149,1242.337 2407.852,1241.388 2408.334,1240.925 2409.408,1240.343" id="path3560"/>
    <path d="M 2446.418,1209.383 C 2448.303,1210.328 2447.556,1205.935 2445.688,1208.179 2444.351,1209.785 2443.266,1211.232 2441.159,1211.973 2441.823,1212.433 2444.132,1211.596 2444.914,1211.388 2445.482,1211.237 2446.518,1211.417 2446.909,1210.857 2447.548,1209.937 2446.345,1209.597 2445.699,1209.963 2445.938,1209.77 2446.178,1209.576 2446.418,1209.383" id="path3564"/>
    <path d="M 2442.168,1201.823 C 2442.986,1201.613 2443.755,1201.243 2444.479,1200.813 2444.37,1201.764 2443.2,1201.571 2442.888,1202.403 2443.764,1202.392 2444.225,1201.455 2445.118,1201.533 2444.18,1201.803 2442.683,1202.518 2442.388,1203.553 2443.6,1203.674 2445.537,1204.561 2446.644,1203.756 2447.915,1202.831 2449.364,1203.452 2448.428,1205.133 2449.151,1205.181 2449.924,1204.613 2450.635,1204.83 2451.787,1205.183 2450.565,1206.239 2450.598,1206.934 2451.186,1206.619 2452.762,1206.538 2453.42,1206.636 2453.964,1206.717 2453.539,1207.496 2454.414,1207.506 2456.879,1207.532 2459.077,1206.386 2461.403,1205.768 2461.844,1205.651 2462.613,1204.716 2463.099,1204.482 2464.183,1203.959 2465.424,1203.731 2466.427,1203.044 2467.351,1202.411 2468.049,1201.557 2469.181,1201.268 2470.192,1201.009 2471.473,1201.194 2472.118,1200.174 2471.621,1200.361 2471.118,1200.528 2470.608,1200.674 2473.359,1199.421 2475.287,1196.805 2477.655,1195.013 2478.767,1194.17 2480.068,1193.61 2481.129,1192.695 2482.336,1191.655 2483.121,1190.234 2484.288,1189.155 2486.432,1187.172 2489.171,1186.318 2491.813,1185.229 2493.147,1184.68 2494.759,1184.398 2496.014,1183.727 2496.855,1183.277 2498.23,1181.789 2499.118,1182.964 2498.622,1183.173 2498.119,1183.363 2497.608,1183.534 2498.827,1182.995 2500.268,1184.096 2501.347,1183.684 2503.769,1182.768 2502.01,1181.968 2500.707,1181.454 2501.953,1181.147 2502.168,1179.289 2503.072,1178.546 2504.63,1177.265 2506.848,1176.666 2508.618,1175.707 2510.204,1174.848 2511.376,1173.626 2512.752,1172.496 2513.919,1171.537 2515.274,1171.076 2516.589,1170.377 2517.599,1169.84 2518.179,1169.378 2518.847,1168.508 2519.714,1167.378 2521.262,1167.057 2522.377,1166.254 2523.671,1165.323 2523.148,1163.428 2524.262,1162.41 2525.412,1161.362 2527.342,1161.404 2528.207,1159.994 2527.737,1160.56 2525.071,1161.973 2524.467,1161.074 2525.525,1160.874 2527.803,1160.506 2527.637,1158.984 2526.482,1159.019 2526.504,1159.794 2525.646,1160.04 2525.157,1160.181 2523.704,1161.067 2525.398,1160.714 2524.627,1160.798 2523.924,1161.146 2523.168,1161.294 2523.827,1160.904 2526.157,1159.386 2524.538,1159.344 2525.176,1159.203 2525.754,1158.813 2526.188,1158.334 2524.759,1158.579 2523.587,1159.484 2522.228,1159.924 2520.94,1160.34 2519.681,1161.903 2518.198,1161.364 2518.76,1160.231 2520.704,1158.558 2520.427,1157.184 2520.052,1157.381 2518.284,1157.642 2518.618,1156.705 2519.095,1155.366 2520.774,1154.795 2522.017,1155.093 2520.14,1154.136 2515.936,1156.418 2514.461,1157.689 2513.538,1158.485 2512.863,1159.505 2512.12,1160.46 2511.099,1161.772 2509.805,1162.599 2508.513,1163.614 2507.203,1164.642 2505.978,1164.904 2504.43,1165.37 2502.992,1165.802 2502.034,1167.111 2501.065,1168.175 2498.764,1170.698 2496.237,1172.85 2493.296,1174.603 2492.02,1175.365 2490.753,1175.874 2489.334,1176.296 2487.746,1176.77 2486.402,1177.809 2484.909,1178.513 2481.705,1180.026 2478.625,1181.427 2475.333,1182.752 2472.217,1184.007 2468.901,1184.691 2465.926,1186.274 2464.712,1186.92 2460.05,1188.74 2460.676,1190.593 2460.197,1188.853 2457.985,1191.239 2457.201,1191.522 2456.361,1191.827 2453.522,1192.838 2453.976,1193.763 2453.262,1193.488 2452.355,1193.971 2451.784,1194.355 2451.164,1194.772 2449.997,1195.564 2451.386,1195.564 2450.244,1195.589 2450.553,1196.904 2449.796,1197.434 2450.496,1196.675 2450.376,1196.482 2449.437,1196.854 2449.524,1196.435 2449.218,1195.409 2448.859,1196.197 2448.501,1196.982 2447.286,1197.475 2446.487,1198.013 2447.3,1198.216 2448.02,1197.758 2448.797,1197.644 2448.038,1197.963 2447.244,1198.189 2446.487,1198.513 2446.99,1198.667 2447.494,1198.667 2447.997,1198.513 2447.491,1198.746 2446.965,1198.913 2446.417,1199.013 2448.474,1199.381 2445.032,1199.944 2444.52,1200.033 2443.457,1200.215 2442.301,1200.575 2442.168,1201.823" id="path3566"/>
    <path d="M 2527.708,1156.394 C 2526.891,1156.792 2525.859,1157.157 2525.688,1158.194 2526.631,1157.996 2527.276,1157.196 2527.708,1156.394" id="path3568"/>
    <path d="M 2530.078,1161.363 C 2529.996,1161.868 2529.902,1162.372 2529.798,1162.873 2530.404,1162.526 2531.122,1162.609 2531.738,1162.293 2531.883,1162.904 2531.713,1163.411 2531.228,1163.814 2532.582,1164.935 2535.352,1162.853 2536.487,1162.185 2539.029,1160.69 2541.15,1159.086 2543.466,1157.251 2544.47,1156.455 2545.658,1155.305 2546.922,1154.969 2547.978,1154.689 2548.464,1153.563 2549.295,1152.959 2550.335,1152.205 2551.464,1151.827 2552.438,1150.918 2553.623,1149.812 2554.632,1148.525 2555.858,1147.463 2553.695,1147.038 2557.582,1144.056 2558.158,1143.673 2559.486,1142.791 2564.752,1140.962 2563.778,1144.083 2565.554,1142.97 2565.543,1140.427 2567.48,1139.358 2568.172,1138.976 2568.972,1138.855 2569.675,1138.504 2570.921,1137.882 2571.48,1136.894 2572.332,1135.862 2573.611,1134.314 2574.71,1132.41 2576.294,1131.215 2577.096,1130.61 2576.972,1129.935 2576.087,1129.462 2574.92,1128.838 2573.178,1129.983 2572.187,1130.525 2569.72,1131.876 2567.447,1134.099 2564.474,1132.814 2563.736,1132.495 2559.695,1130.539 2559.602,1129.758 2559.535,1129.191 2562.978,1122.862 2561.328,1123.272 2561.814,1122.822 2562.381,1122.457 2562.988,1122.192 2562.421,1122.209 2561.867,1122.306 2561.328,1122.483 2561.502,1121.708 2561.673,1120.889 2561.188,1120.172 2560.494,1120.452 2560.596,1120.598 2560.773,1121.14 2560.985,1121.786 2560,1122.551 2559.748,1123.052 2559.16,1124.22 2559.185,1126.248 2557.533,1126.505 2556.68,1126.637 2557.451,1124.851 2557.479,1124.489 2557.56,1123.453 2554.667,1123.289 2553.988,1123.412 2553.988,1123.321 2555.098,1122.631 2555.375,1122.134 2555.809,1121.354 2556.028,1120.78 2556.557,1120.043 2556.948,1119.496 2558.188,1119.196 2557.817,1118.381 2557.424,1117.517 2556.765,1115.807 2557.588,1114.992 2557.119,1114.958 2556.709,1114.817 2556.9,1114.328 2557.2,1113.561 2558.187,1114.471 2558.597,1114.771 2559.243,1113.066 2559.572,1111.276 2559.528,1109.452 2559.055,1109.574 2558.575,1109.621 2558.088,1109.592 2558.211,1109.854 2558.332,1110.117 2558.448,1110.382 2558.189,1110.457 2557.926,1110.481 2557.658,1110.452 2557.801,1109.859 2557.511,1108.721 2558.518,1108.872 2557.536,1108.736 2557.367,1106.439 2556.288,1108.012 2557.018,1106.884 2553.113,1106.613 2555.278,1106.212 2554.293,1105.834 2553.936,1107.088 2553.268,1107.502 2553.929,1106.608 2553.544,1103.984 2553.118,1103.042 2553.7,1103.124 2554.142,1102.773 2554.347,1102.252 2553.804,1102.41 2551.546,1102.368 2551.544,1102.951 2551.544,1103.647 2551.92,1104.308 2552.065,1104.979 2552.311,1106.111 2552.848,1109.06 2550.886,1108.941 2551.149,1109.899 2551.18,1110.907 2551.246,1111.891 2551.779,1110.867 2553.501,1111.077 2553.696,1109.812 2553.745,1111.384 2551.492,1110.944 2551.351,1112.626 2551.159,1114.915 2552.478,1116.983 2551.896,1119.381 2553.336,1119.652 2552.962,1117.898 2552.755,1117.081 2553.318,1117.233 2553.744,1117.676 2553.905,1118.231 2553.813,1116.71 2554.725,1118.204 2555.495,1117.371 2554.82,1117.661 2554.22,1118.013 2555.495,1118.301 2555.094,1118.578 2554.59,1118.512 2554.181,1118.75 2553.756,1118.998 2553.753,1119.982 2554.776,1119.241 2554.171,1119.894 2554.102,1120.831 2553.476,1121.47 2553.119,1121.028 2552.975,1120.525 2553.045,1119.96 2551.8,1120.27 2552.196,1123.761 2551.825,1124.71 2552.559,1124.816 2553.878,1123.645 2554.269,1124.71 2554.542,1125.457 2552.767,1126.399 2552.544,1125.135 2551.977,1125.478 2550.929,1127.464 2552.185,1127.585 2551.418,1127.836 2551.103,1128.734 2550.903,1129.427 2550.791,1129.838 2550.683,1130.251 2550.581,1130.665 2550.335,1131.513 2549.777,1131.457 2549.386,1132.128 2549.044,1132.716 2548.939,1133.794 2548.516,1134.285 2548.249,1134.295 2547.982,1134.295 2547.715,1134.285 2547.17,1134.768 2546.675,1135.311 2546.199,1135.862 2544.754,1137.536 2543.77,1139.829 2541.892,1141.081 2540.083,1142.286 2537.558,1142.041 2535.617,1143.206 2534.785,1143.705 2534.069,1144.456 2533.973,1145.474 2533.864,1146.621 2535.25,1146.684 2535.87,1147.283 2536.799,1148.181 2536.904,1148.947 2538.269,1149.416 2539.613,1149.878 2539.836,1151.122 2539.373,1152.35 2538.428,1154.847 2536.012,1156.501 2533.964,1158.037 2533.127,1158.664 2532.446,1159.798 2531.407,1160.114 2530.399,1160.423 2529.167,1161.047 2528.634,1162.007 2529.275,1162.299 2529.826,1161.964 2530.078,1161.358" id="path3570"/>
    <path d="M 2558.158,1122.483 C 2557.708,1122.597 2557.277,1122.764 2556.868,1122.983 2557.441,1123.336 2557.955,1123.105 2558.158,1122.483" id="path3572"/>
    <path d="M 2563.269,1116.503 C 2562.309,1116.974 2561.991,1119.263 2562.629,1118.919 2563.247,1118.586 2563.057,1117.076 2563.269,1116.503" id="path3574"/>
    <path d="M 2571.269,1184.903 C 2571.231,1185.24 2571.231,1185.576 2571.269,1185.913 2571.991,1185.622 2572.701,1185.272 2573.498,1185.263 2572.795,1184.534 2573.321,1182.242 2574.508,1183.394 2574.293,1183.66 2574.054,1183.899 2573.788,1184.114 2574.472,1183.53 2575.209,1183.001 2576.018,1182.604 2574.705,1182.915 2572.328,1181.745 2571.627,1183.463 2572.14,1183.286 2572.643,1183.31 2573.137,1183.533 2572.835,1184.323 2572.061,1184.753 2571.269,1184.903" id="path3576"/>
    <path d="M 2572.128,1187.493 C 2572.593,1187.348 2572.809,1187.335 2572.918,1186.773 2572.646,1187.003 2572.383,1187.243 2572.128,1187.493" id="path3578"/>
  </g>
  <g class="landxx coastxx aus" id="au" transform="translate(-29.9017,-45.0745)">
    <title>Australia</title>
    <path d="M 2419.488,980.573 C 2420.168,980.296 2420.117,979.571 2419.778,979.052 2419.678,979.559 2419.581,980.065 2419.488,980.573" id="path3368"/>
    <path d="M 2347.198,1155.673 C 2347.562,1155.462 2347.853,1155.176 2348.068,1154.814 2347.496,1154.784 2347.175,1155.1 2347.198,1155.673" id="path3334"/>
    <path d="M 2348.788,1154.883 C 2349.193,1154.814 2350.462,1153.714 2349.623,1153.379 2348.903,1153.092 2347.019,1153.477 2347.269,1154.524 2347.86,1154.282 2348.366,1154.402 2348.788,1154.883" id="path3336"/>
    <path d="M 2290.968,1116.723 C 2291.734,1116.513 2292.308,1115.944 2292.94,1115.499 2293.954,1114.786 2294.483,1115.264 2295.559,1115.191 2296.434,1115.131 2297.158,1114.094 2295.869,1113.918 2295.698,1113.974 2295.575,1114.085 2295.501,1114.253 2295.004,1114.651 2294.089,1113.904 2293.56,1113.913 2295.441,1112.137 2287.747,1113.577 2287.395,1113.676 2286.648,1113.885 2284.494,1115.105 2285.648,1116.145 2287.169,1117.517 2289.508,1115.08 2290.968,1116.723" id="path3286"/>
    <path d="M 2329.559,1174.394 C 2329.611,1175.178 2330.145,1176.071 2329.128,1176.484 2330.385,1176.784 2330.066,1175.264 2330.975,1174.987 2332.175,1174.621 2332.828,1176.322 2331.579,1176.774 2331.888,1175.17 2330.433,1176.506 2330.517,1177.295 2330.618,1178.225 2331.401,1178.07 2331.798,1177.414 2331.44,1179.435 2333.523,1175.949 2333.809,1175.474 2332.505,1175.347 2333.434,1174.702 2333.997,1174.03 2334.69,1173.203 2335.518,1172.507 2336.233,1171.701 2336.818,1171.042 2337.173,1170.208 2337.873,1169.645 2338.472,1169.163 2339.561,1168.616 2339.719,1167.775 2340.077,1168.526 2339.859,1169.388 2339.349,1170.004 2340.441,1169.589 2340.665,1168.274 2341.079,1167.334 2341.669,1165.998 2342.642,1164.832 2343.402,1163.591 2344.424,1161.924 2347.26,1159.072 2345.441,1157.419 2344.522,1156.585 2344.237,1158.343 2343.253,1158.155 2341.935,1157.904 2341.352,1158.516 2340.244,1159.077 2339.73,1159.338 2334.165,1158.48 2335.678,1160.574 2334.881,1160.836 2334.642,1160.593 2334.958,1159.844 2333.087,1159.74 2331.316,1161.331 2329.561,1159.932 2328.939,1159.436 2325.798,1157.932 2326.178,1157.115 2325.088,1157.616 2323.057,1157.586 2322.649,1156.175 2320.644,1158.18 2320.03,1160.216 2319.149,1162.795 2318.451,1164.841 2320.452,1167.985 2318.329,1169.495 2318.581,1169.332 2318.845,1169.188 2319.119,1169.065 2319.047,1170.102 2319.69,1171.331 2318.549,1172.014 2318.795,1171.251 2318.599,1170.472 2318.11,1169.855 2315.629,1172.292 2316.996,1175.771 2316.82,1178.645 2317.577,1178.2 2318.267,1178.94 2319.049,1178.714 2319.462,1179.789 2318.153,1180.063 2317.61,1179.294 2317.331,1179.789 2317.067,1180.292 2316.82,1180.804 2317.861,1180.61 2319.726,1181.372 2320.56,1180.514 2320.675,1183.341 2323.479,1180.409 2324.046,1179.945 2324.927,1179.223 2325.103,1178.865 2325.307,1177.908 2325.471,1177.143 2326.347,1177.815 2326.11,1178.495 2327.543,1178.667 2329.548,1175.634 2329.559,1174.394" id="path3300"/>
    <path d="M 2319.908,1150.563 C 2319.701,1150.915 2319.511,1151.274 2319.338,1151.643 2320.992,1151.545 2322.916,1149.342 2322.918,1147.658 2322.919,1146.256 2321.712,1147.757 2321.528,1147.903 2320.796,1148.486 2319.843,1149.549 2319.908,1150.563" id="path3306"/>
    <path d="M 2348.208,1150.563 C 2348.154,1151.008 2347.701,1152.822 2348.539,1152.848 2350.242,1152.904 2350.25,1151.142 2351.158,1150.273 2350.173,1150.111 2350.138,1148.973 2349.508,1148.403 2348.697,1148.884 2348.554,1149.771 2348.208,1150.563" id="path3338"/>
    <path d="M 2139.048,1095.843 C 2140.988,1095.83 2143.001,1093.706 2143.798,1092.093 2144.706,1090.256 2143.619,1087.554 2145.528,1086.193 2145.071,1086.555 2144.835,1087.125 2144.958,1087.704 2144.976,1087.118 2145.312,1086.841 2145.889,1086.984 2145.403,1085.392 2146.66,1083.963 2147.17,1082.651 2148.281,1079.792 2147.781,1077.405 2147.299,1074.485 2146.852,1071.777 2145.839,1068.797 2146.595,1066.046 2147.314,1063.431 2148.565,1059.795 2148.135,1057.098 2147.957,1055.98 2147.34,1054.976 2147.304,1053.834 2147.267,1052.644 2147.304,1051.597 2146.847,1050.467 2146.411,1049.384 2145.407,1048.414 2145.348,1047.219 2145.28,1045.847 2145.936,1044.544 2145.993,1043.174 2146.104,1040.524 2145.26,1037.741 2143.827,1035.528 2143.223,1034.595 2142.499,1033.605 2142.276,1032.493 2142.071,1031.473 2142.95,1030.973 2142.869,1030.033 2143.101,1030.758 2142.87,1031.484 2142.719,1032.192 2143.283,1031.586 2143.496,1030.77 2143.519,1029.963 2143.377,1030.973 2143.986,1031.899 2143.799,1032.913 2144.152,1030.95 2144.025,1034.032 2143.949,1034.423 2144.951,1032.79 2144.412,1034.472 2144.518,1035.143 2146.424,1034.116 2147.313,1033.201 2145.723,1031.354 2144.636,1030.091 2143.847,1027.018 2145.239,1025.713 2145.891,1026.293 2146.343,1027.267 2146.542,1028.102 2146.813,1029.239 2145.813,1030.011 2145.89,1031.114 2146.802,1031.167 2147.269,1030.308 2147.4,1029.534 2147.552,1030.678 2147.17,1031.964 2147.798,1033.017 2148.148,1033.601 2149.14,1032.646 2149.266,1032.356 2150.101,1030.444 2150.786,1028.73 2149.767,1026.806 2148.9,1025.166 2148.978,1023.269 2147.882,1021.776 2147.464,1021.207 2147.69,1020.733 2147.69,1020.093 2147.691,1018.7 2146.992,1017.454 2146.81,1016.093 2146.526,1013.956 2147.795,1011.493 2148.984,1009.794 2150.372,1007.81 2151.354,1006.353 2151.87,1003.893 2152.107,1002.76 2151.29,1001.899 2151.29,1000.808 2151.29,999.658 2152.286,998.727 2152.761,997.751 2153.461,996.312 2154.104,993.861 2155.83,993.314 2156.029,994.195 2155.627,995.008 2155.318,995.8 2154.883,996.914 2155.171,998.149 2154.89,999.293 2157.243,998.481 2157.282,997.255 2158.419,995.333 2159.589,993.351 2161.537,992.485 2163.634,991.815 2166.596,990.87 2168.706,988.836 2171.081,986.908 2171.699,986.406 2172.427,985.099 2173.208,984.998 2174.956,984.773 2176.323,984.089 2177.499,982.722 2177.183,984.701 2179.312,982.956 2180.113,983.065 2180.872,983.168 2181.185,983.953 2182.044,983.953 2183.141,983.953 2184.179,983.574 2185.113,983.023 2187.137,981.83 2188.109,980.478 2190.604,980.483 2191.625,980.485 2192.731,980.464 2193.559,979.772 2194.497,978.988 2194.846,977.568 2196.294,977.568 2198.496,977.568 2199.848,977.936 2202.04,977.356 2204.576,976.685 2206.88,976.087 2209.201,974.837 2211.072,973.83 2217.983,969.667 2216.597,966.532 2217.382,966.613 2217.598,966.212 2217.796,965.554 2218.106,964.532 2219.052,964.181 2219.89,963.656 2221.112,962.89 2223.84,961.683 2222.574,960.154 2221.495,958.852 2222.175,955.185 2222.881,953.84 2223.283,953.072 2225.215,950.19 2226.309,951.483 2225.629,950.143 2226.641,950.293 2227.505,949.835 2228.565,949.274 2228.602,947.2 2230.059,946.512 2230.661,947.32 2228.754,949.168 2230.708,949.102 2229.34,951.003 2233.099,954.76 2232.868,956.813 2233.984,955.369 2233.028,953.038 2233.948,951.623 2234.768,952.032 2235.102,952.921 2235.677,953.573 2235.568,952.307 2235.376,951.395 2236.608,950.613 2235.638,950.944 2233.613,949.008 2234.448,948.092 2233.879,948.071 2233.561,947.734 2233.588,947.162 2234.645,947.995 2233.963,946.967 2234.909,946.79 2236.046,946.577 2234.823,945.309 2234.597,944.852 2235.59,944.228 2237.422,944.971 2235.887,945.292 2236.459,945.5 2236.829,945.968 2236.537,946.582 2237.201,946.404 2237.311,945.461 2237.977,945.397 2238.85,945.313 2238.877,945.907 2239.421,946.351 2240.102,946.906 2240.513,945.907 2241.238,946.334 2242.051,946.813 2242.987,946.208 2243.806,946.722 2243.113,945.86 2242.464,946.31 2241.576,946.002 2240.342,945.575 2241.255,944.666 2241.356,943.772 2241.517,944.019 2241.687,944.259 2241.866,944.493 2242.896,943.791 2242.437,942.238 2243.666,941.692 2243.049,941.459 2242.609,941.841 2242.437,942.413 2241.55,941.477 2240.926,939.506 2242.422,938.804 2243.107,938.483 2245.204,937.84 2244.096,936.793 2244.884,936.831 2245.463,937.391 2246.07,937.813 2246.257,938.094 2246.438,938.377 2246.617,938.664 2246.999,938.768 2247.382,938.865 2247.767,938.954 2246.651,938.293 2247.483,937.021 2245.827,937.004 2246.126,936.487 2246.556,936.128 2247.117,935.924 2246.572,936.034 2246.092,936.274 2245.677,936.644 2245.616,935.677 2247.972,933.807 2247.837,935.424 2247.916,933.78 2249.046,935.856 2250.067,935.644 2249.685,934.966 2248.831,934.252 2249.426,933.415 2247.256,933.299 2249.809,931.373 2249.926,930.604 2250.754,931.481 2251.049,929.971 2251.947,930.535 2252.18,929.708 2252.118,928.847 2252.227,928.005 2253.303,928.228 2252.864,930.208 2252.227,931.105 2253.571,929.568 2252.988,929.46 2254.176,931.255 2254.206,930.477 2255.053,930.501 2255.186,929.815 2255.268,929.394 2255.586,928.293 2255.756,927.935 2256.031,927.355 2257.071,927.397 2256.482,926.535 2256.28,926.356 2256.052,926.31 2255.797,926.4 2255.54,926.415 2254.815,925.003 2256.187,926.066 2255.876,925.191 2257.451,924.531 2256.477,925.925 2258.07,924.47 2256.103,927.834 2257.987,927.365 2257.603,926.485 2258.457,925.719 2259.287,925.705 2258.808,926.351 2259.325,926.944 2259.717,927.434 2260.404,926.662 2261.828,926.352 2262.238,925.344 2262.561,924.55 2261.285,924.19 2262.741,923.589 2263.566,923.249 2263.954,925.329 2265.254,925.365 2266.365,925.396 2266.49,925.956 2267.259,926.763 2268.235,927.789 2268.768,929.135 2269.729,930.173 2270.304,930.795 2271.178,931.557 2271.098,932.5 2271.009,933.544 2270.378,934.487 2270.202,935.528 2270.038,936.5 2270.029,937.947 2269.229,938.663 2270.139,938.213 2269.516,937.11 2270.159,936.642 2271.024,936.012 2271.286,937.389 2271.388,937.942 2271.799,936.939 2270.561,935.972 2271.029,934.993 2271.604,933.791 2272.23,935.078 2273.119,934.703 2272.265,931.241 2279.11,932.463 2278.369,935.852 2279.53,935.409 2279.064,934.043 2279.089,933.123 2280.699,933.261 2281.21,936.458 2282.549,936.143 2282.244,935.386 2281.439,933.984 2282.38,933.309 2283.039,932.836 2283.921,933.226 2284.56,932.614 2283.301,932.784 2282.54,932.402 2282.12,931.174 2282.683,931.144 2283.187,930.953 2283.63,930.604 2282.514,930.947 2280.02,930.065 2280.932,928.538 2281.303,927.915 2281.477,926.982 2282.04,926.495 2282.536,926.066 2283.649,926.361 2283.915,925.64 2284.344,924.469 2284.55,923.01 2285.138,921.924 2285.682,920.919 2286.12,922.048 2286.83,921.476 2287.29,921.105 2288.45,919.78 2289.1,920.165 2288.504,919.542 2287.767,918.41 2287.941,917.498 2288.234,915.954 2288.856,917.186 2289.539,916.078 2289.995,915.339 2289.809,914.596 2290.688,914.084 2291.321,913.716 2291.739,914.784 2292.481,914.615 2291.696,914.302 2291.447,912.128 2292.34,911.815 2293.284,911.484 2293.932,913.69 2294.79,913.894 2293.878,913.213 2293.729,910.724 2295.43,911.524 2295.64,910.915 2295.196,910.179 2295.964,909.87 2296.75,909.554 2297.033,910.708 2297.521,909.505 2298.714,912.272 2305.947,909.406 2306.09,911.085 2306.09,909.894 2307.331,909.033 2308.39,909.725 2307.273,908.541 2308.558,906.753 2308.25,905.406 2307.781,903.349 2305.802,903.64 2304.29,904.326 2304.335,903.346 2303.106,902.904 2302.556,902.454 2302.2,902.162 2303.758,901.202 2303.861,900.935 2304.573,901.491 2304.721,902.363 2304.941,903.175 2305.393,902.492 2305.481,901.666 2305.081,900.935 2305.502,901.774 2306.047,901.838 2306.521,901.005 2306.772,902.089 2308.435,903.33 2309.041,904.325 2309.494,903.74 2310.888,903.678 2310.481,902.665 2311.397,903.303 2311.777,906.083 2312.861,906.074 2313.821,906.065 2315.13,905.949 2315.021,907.054 2316.097,907.095 2316.874,905.754 2317.97,906.124 2316.105,907.518 2320.298,907.208 2319.7,909.144 2320.408,907.842 2320.574,908.778 2321.556,908.963 2322.672,909.172 2323.284,908.294 2324.31,908.134 2324.568,910.425 2326.773,910.103 2328.27,910.584 2327.127,908.772 2332.111,909.656 2330.499,908.134 2331.429,907.901 2332.881,907.661 2332.879,906.414 2333.54,907.336 2332.262,907.956 2331.65,908.353 2333.02,908.353 2331.96,908.809 2331.457,909.379 2330.976,909.925 2330.807,910.5 2331.22,911.163 2331.718,910.461 2332.36,909.654 2333.311,909.642 2332.354,910.657 2333.541,910.083 2333.503,911.243 2333.491,911.603 2333.547,912.148 2333.979,912.268 2334.885,912.522 2335.797,911.241 2336.111,910.582 2333.522,910.54 2337.657,907.966 2338.131,907.492 2336.882,908.148 2337.876,910.461 2338.921,910.802 2338.269,909.623 2339.689,909.82 2340.052,910.32 2340.361,910.743 2340.082,911.403 2339.891,911.806 2339.22,913.22 2337.88,915.186 2336.402,915.772 2336.866,916.202 2337.225,916.705 2337.482,917.283 2337.228,917.098 2336.964,916.928 2336.692,916.772 2336.436,917.891 2336.357,918.91 2335.181,919.442 2335.165,918.961 2335.191,918.481 2335.251,918.003 2334.707,918.334 2334.228,918.741 2333.812,919.223 2333.723,917.494 2332.662,919.174 2332.662,919.803 2332.446,918.244 2330.832,920.119 2331.802,921.023 2329.645,920.612 2331.19,924.73 2332.372,922.753 2331.304,924.983 2330.262,926.982 2328.832,928.996 2328.224,929.854 2327.609,930.748 2326.836,931.468 2325.949,932.295 2325.459,931.98 2326.197,933.431 2327.199,935.401 2329.502,936.087 2330.799,937.789 2331.559,938.785 2332.051,939.707 2333.137,940.392 2333.898,940.872 2334.639,941.477 2334.313,942.484 2335.136,942.167 2335.977,942.84 2336.552,941.904 2337.341,943.139 2338.706,943.742 2339.942,944.421 2341.522,945.291 2342.243,946.514 2343.326,947.886 2345.197,950.255 2347.923,949.412 2350.222,951.066 2351.448,951.948 2350.52,953.753 2351.634,954.649 2352.242,955.14 2353.058,955.1 2353.632,955.687 2354.234,956.301 2354.96,956.703 2355.657,957.199 2357.787,958.713 2362.425,957.258 2363.684,954.973 2365.491,951.695 2367.821,948.447 2369.15,944.92 2369.915,942.894 2370.489,940.803 2371.241,938.773 2372.042,936.614 2372.974,934.977 2372.819,932.6 2372.697,930.741 2372.809,929.624 2373.481,927.938 2374.157,926.231 2372.602,924.726 2373.497,922.855 2374.223,921.338 2375.704,920.127 2375.242,918.331 2374.713,916.271 2376.469,916.172 2376.873,914.475 2377.309,914.885 2377.525,915.388 2377.523,915.986 2377.502,915.409 2377.866,914.972 2378.382,914.765 2378.094,914.728 2376.58,913.086 2376.432,912.745 2376.19,912.955 2375.953,913.171 2375.722,913.394 2375.558,912.575 2376.12,911.468 2376.666,910.896 2376.869,910.649 2377.128,910.521 2377.442,910.514 2377.041,909.721 2377.528,908.945 2378.022,908.354 2378.183,908.914 2378.588,909.199 2379.171,909.075 2379.066,906.05 2380.898,903.778 2381.261,900.865 2381.378,899.921 2381.376,899.298 2382.407,898.881 2383.377,898.489 2383.84,896.774 2385.071,897.625 2384.713,898.099 2384.402,898.602 2384.14,899.135 2384.393,898.974 2384.657,898.83 2384.93,898.705 2385.23,899.62 2386.141,900.057 2385.97,901.09 2385.895,901.513 2385.939,901.925 2386.102,902.327 2386.391,903.266 2385.941,903.261 2385.941,904.099 2385.941,904.989 2385.757,905.905 2385.91,906.79 2386.108,907.938 2387.891,907.809 2388.681,908.214 2387.243,909.276 2386.781,910.388 2387.91,911.641 2389.113,912.974 2388.912,914.095 2388.532,915.774 2390.134,915.46 2389.337,922.228 2388.995,923.037 2388.579,924.02 2389.171,924.768 2389.475,925.682 2389.832,926.751 2389.278,927.891 2389.761,928.945 2390.618,930.812 2392.967,929.64 2393.211,928.006 2394.669,929.823 2395.36,925.662 2396.026,929.583 2396.179,930.488 2398.024,931.576 2398.629,932.429 2398.705,932.537 2400.801,933.896 2400.991,933.916 2400.525,934.66 2399.147,936.115 2400.631,936.645 2398.652,939.046 2401.046,941.668 2400.118,944.27 2399.548,945.88 2399.22,946.702 2400.06,948.175 2400.485,948.918 2401.75,950.332 2401.201,951.265 2401.641,950.892 2402.147,950.676 2402.721,950.616 2402.338,952.136 2402.093,952.748 2402.495,954.333 2402.796,955.515 2402.782,956.758 2402.602,957.96 2402.405,959.292 2401.707,960.154 2401.182,961.341 2400.546,962.777 2402.172,963.097 2402.065,964.246 2401.98,965.152 2403.254,964.464 2402.854,965.617 2402.505,966.62 2401.426,967.417 2402.051,968.563 2402.419,969.236 2403.628,970.672 2404.508,970.591 2405.326,970.516 2406.039,972.542 2406.89,970.925 2406.795,972.814 2409.877,973.116 2409.561,971.855 2410.052,972.919 2409.754,975.837 2411.14,976.255 2411.167,975.69 2411.506,975.349 2412.071,975.316 2411.641,976.807 2413.299,976.918 2414.339,977.302 2415.193,977.617 2414.181,979.477 2415.852,978.973 2416.217,978.863 2415.933,978.232 2416.279,978.09 2417.008,977.791 2416.92,978.938 2416.996,979.244 2417.161,979.901 2417.91,979.533 2418.212,980.13 2418.555,980.809 2418.511,981.613 2418.842,982.296 2418.467,981.546 2417.464,981.415 2417.098,982.254 2416.634,983.318 2418.043,984.467 2417.332,985.465 2421.23,984.065 2418.393,991.058 2421.072,991.005 2420.15,992.074 2420.19,993.799 2420.316,995.115 2420.423,996.22 2421.499,998.141 2420.641,999.145 2422.055,998.568 2422.241,998.993 2422.881,1000.225 2423.525,998.948 2422.752,997.528 2423.741,996.335 2424.919,997.388 2425.501,998.982 2426.911,999.795 2427.116,999.394 2426.941,998.599 2427.271,998.285 2427.895,997.69 2428.375,998.147 2428.439,998.849 2428.604,1000.717 2428.409,1001.883 2427.799,1003.633 2427.438,1004.673 2427.723,1005.733 2427.384,1006.81 2426.703,1008.974 2428.194,1007.589 2428.85,1008.935 2428.655,1008.414 2428.728,1007.934 2429.071,1007.496 2430.667,1008.008 2430.559,1011.841 2428.991,1009.225 2429.165,1010.374 2432.451,1014.185 2432.451,1012.175 2434.089,1013.496 2433.69,1015.427 2434.541,1017.145 2434.942,1017.956 2435.817,1018.129 2436.341,1018.805 2436.957,1019.601 2436.541,1020.566 2436.682,1021.479 2436.988,1023.466 2438.964,1022.709 2438.721,1024.635 2438.628,1025.362 2437.925,1025.867 2437.779,1026.583 2437.582,1027.551 2438.52,1028.112 2438.072,1029.246 2438.295,1028.989 2438.535,1028.748 2438.792,1028.525 2439.883,1029.421 2438.154,1030.643 2437.852,1031.475 2437.311,1032.962 2436.84,1034.767 2436.583,1036.33 2436.389,1037.516 2436.699,1038.575 2435.687,1039.374 2434.591,1040.24 2434.679,1041.066 2435.445,1042.14 2435.965,1042.869 2435.851,1044.896 2435.668,1045.765 2435.545,1046.347 2435.303,1046.955 2435.327,1047.56 2435.352,1048.22 2435.853,1048.618 2435.692,1049.332 2434.909,1052.784 2433.293,1054.989 2431.31,1057.837 2429.177,1060.9 2428.001,1064.416 2425.646,1067.397 2423.662,1069.908 2423.52,1072.913 2421.58,1075.409 2420.638,1076.621 2419.843,1077.974 2418.842,1079.135 2417.851,1080.284 2416.291,1080.895 2415.508,1082.222 2415.006,1083.074 2414.769,1084.647 2414.092,1085.335 2413.688,1085.745 2412.995,1085.711 2412.535,1086.038 2411.686,1086.639 2410.849,1087.536 2409.772,1087.705 2411.632,1087.883 2408.619,1088.601 2408.136,1088.753 2406.859,1089.153 2405.7,1090.322 2404.882,1091.338 2404.301,1092.058 2403.318,1092.349 2402.714,1093.056 2401.875,1094.04 2402.073,1095.098 2400.341,1094.906 2400.218,1095.552 2400.385,1095.769 2400.841,1095.555 2400.302,1096.329 2399.889,1097.214 2399.349,1097.972 2398.922,1098.575 2398.288,1098.374 2397.855,1099.09 2396.968,1100.559 2395.247,1101.034 2394.465,1102.601 2394.069,1103.394 2394.204,1103.141 2393.564,1103.27 2393.543,1103.28 2393.132,1104.668 2392.921,1104.9 2392.556,1105.302 2390.433,1107.177 2391.631,1107.645 2391.278,1108.216 2390.812,1108.869 2390.692,1107.645 2390.187,1108.101 2390.4,1109.063 2389.625,1109.177 2388.664,1109.319 2388.178,1109.6 2387.512,1110.354 2385.84,1112.248 2384.016,1114.068 2382.483,1116.076 2381.172,1117.794 2380.251,1119.856 2378.924,1121.589 2378.169,1122.574 2376.671,1125.247 2375.572,1125.726 2376.61,1125.956 2375.656,1127.535 2375.369,1127.984 2375.103,1128.396 2374.801,1128.807 2374.439,1129.142 2373.877,1129.663 2373.284,1129.213 2372.739,1129.496 2371.061,1130.368 2370.23,1131.446 2368.113,1131.699 2365.864,1131.968 2363.592,1131.747 2361.341,1131.965 2356.788,1132.403 2352.984,1135.168 2349.337,1137.69 2347.672,1138.841 2345.93,1139.413 2343.903,1139.581 2341.922,1139.745 2342.446,1139.364 2342.091,1141.277 2342.535,1140.901 2343.038,1140.638 2343.601,1140.487 2343.349,1141.459 2342.456,1142.787 2341.522,1143.216 2341.474,1142.577 2341.718,1141.545 2341.276,1141.001 2340.59,1140.155 2340.17,1141.09 2339.351,1141.136 2339.552,1140.404 2339.477,1139.642 2339.572,1138.897 2338.643,1139.098 2337.991,1139.608 2337.824,1138.389 2337.643,1137.069 2338.798,1137.038 2339.227,1135.957 2339.844,1134.404 2336.298,1136.661 2336.116,1136.816 2334.662,1138.051 2334.088,1137.565 2333.312,1136.166 2334.284,1137.245 2335.496,1136.028 2336.261,1135.376 2337.514,1134.309 2336.916,1133.615 2336.982,1132.206 2335.093,1132.527 2333.416,1133.848 2331.801,1134.796 2332.534,1135.033 2333.294,1134.643 2333.961,1135.156 2333.304,1136.09 2331.944,1135.825 2331.001,1136.166 2329.646,1136.656 2328.103,1137.457 2326.972,1138.354 2325.838,1139.253 2324.643,1139.715 2323.368,1140.36 2322.313,1140.893 2322.1,1140.005 2320.994,1139.444 2319.08,1138.474 2317.873,1136.393 2315.608,1136.706 2314.346,1136.88 2313.789,1135.438 2312.497,1135.687 2311.775,1135.826 2311.608,1136.346 2311.007,1136.628 2310.564,1136.836 2309.955,1136.57 2309.482,1136.666 2311.421,1134.439 2305.695,1133.877 2305.013,1132.907 2304.328,1131.934 2303.979,1130.639 2303.974,1129.458 2303.974,1128.711 2302.843,1128.241 2303.029,1126.909 2303.355,1124.555 2305.522,1123.458 2306.022,1121.336 2306.822,1117.939 2305.599,1115.046 2303.501,1112.406 2305.302,1113.621 2306.237,1115.834 2306.381,1117.945 2306.7,1116.518 2306.235,1115.301 2305.415,1114.136 2304.873,1113.364 2303.8,1111.842 2305.591,1111.975 2305.551,1112.48 2305.501,1112.983 2305.442,1113.486 2306.321,1113.328 2306.182,1112.833 2306.25,1112.14 2306.332,1111.306 2307.719,1111.514 2307.313,1110.675 2306.854,1109.726 2303.782,1110.841 2304.512,1111.975 2304.149,1111.867 2301.732,1111.593 2303.792,1112.255 2302.068,1112.081 2298.857,1114.388 2297.382,1112.835 2298.121,1111.812 2299.468,1111.262 2300.519,1110.634 2301.464,1110.07 2302.041,1108.857 2302.515,1107.913 2303.774,1105.407 2303.597,1102.674 2302.993,1099.944 2302.343,1100.342 2302.312,1101.065 2301.806,1101.571 2301.243,1102.135 2300.599,1102.621 2300.122,1103.269 2299.148,1104.596 2298.287,1106.067 2297.428,1107.471 2296.487,1109.012 2296.271,1108.731 2294.637,1108.571 2293.087,1108.42 2291.46,1110.016 2289.752,1109.955 2290.016,1109.006 2291.037,1107.928 2291.762,1107.295 2292.982,1106.228 2294.561,1107.617 2295.748,1106.5 2297.819,1104.552 2297.691,1101.093 2299.619,1098.929 2300.689,1097.728 2301.327,1096.908 2302.739,1096.098 2304.395,1095.149 2303.78,1093.999 2304.302,1092.488 2304.595,1091.637 2305.534,1091.497 2306.176,1091.026 2306.382,1090.876 2306.199,1089.736 2306.194,1089.545 2306.179,1089.046 2306.994,1086.716 2306.228,1086.372 2305.914,1086.231 2305.467,1088.588 2305.35,1088.819 2304.729,1090.043 2302.849,1090.832 2301.901,1091.873 2300.974,1092.891 2300.148,1093.995 2299.181,1094.976 2298.763,1095.4 2298.345,1096.088 2297.742,1096.276 2297.221,1096.437 2296.734,1095.981 2296.232,1096.136 2295.298,1096.427 2294.265,1097.61 2293.197,1098.001 2291.644,1098.571 2290.467,1099.807 2289.348,1100.972 2288.938,1101.399 2287.408,1103.443 2286.871,1103.331 2285.345,1103.014 2285.07,1105.25 2284.201,1105.926 2284.702,1105.717 2285.208,1105.524 2285.721,1105.346 2285.097,1105.992 2285.01,1106.956 2284.351,1107.576 2283.867,1106.099 2282.515,1107.071 2281.925,1105.892 2281.506,1105.057 2281.057,1103.214 2279.741,1103.975 2280.075,1103.417 2280.52,1102.925 2281.041,1102.536 2280.863,1103.487 2282.056,1104.278 2282.245,1102.992 2282.461,1101.515 2282.841,1100.039 2282.841,1098.537 2282.841,1097.131 2280.919,1096.236 2281.53,1094.77 2281.77,1094.194 2282.163,1093.583 2281.839,1092.95 2281.581,1092.449 2281.267,1092.159 2281.681,1091.596 2280.989,1092.174 2280.484,1091.468 2279.718,1091.67 2278.624,1091.959 2279.089,1091.189 2278.881,1090.726 2278.774,1090.488 2278.216,1089.235 2278.379,1089.03 2278.603,1088.748 2280.035,1086.635 2279.601,1088.426 2280.285,1087.932 2280.978,1086.838 2280.402,1086.009 2279.729,1085.04 2278.63,1085.869 2277.801,1086.046 2277.957,1085.558 2278.713,1084.895 2278.664,1084.373 2278.6,1083.682 2277.858,1083.324 2277.792,1082.596 2277.758,1082.232 2275.406,1083.26 2275.323,1083.25 2273.843,1083.075 2272.696,1081.796 2271.38,1081.21 2269.911,1080.557 2269.807,1082.148 2268.679,1081.948 2265.81,1081.437 2264.637,1077.484 2261.606,1077.151 2260.589,1077.039 2259.808,1077.634 2258.906,1077.956 2257.808,1078.347 2256.568,1077.868 2255.441,1077.858 2252.606,1077.833 2249.274,1077.969 2246.502,1078.573 2241.371,1079.692 2236.826,1082.641 2231.609,1083.687 2229.098,1084.19 2226.842,1084.1 2224.318,1083.868 2221.241,1083.585 2219.613,1084.877 2216.998,1086.205 2214.859,1087.291 2212.377,1088.731 2210.062,1089.351 2207.58,1090.015 2205.929,1090.167 2204.331,1092.391 2203.109,1094.091 2201.898,1095.711 2200.215,1096.996 2199.913,1097.226 2198.57,1098.404 2198.165,1098.208 2197.06,1097.674 2196.479,1098.742 2195.352,1098.936 2196.041,1097.162 2190.629,1097.826 2189.85,1098.135 2188.549,1098.653 2188.326,1099.465 2187.78,1097.683 2187.766,1097.637 2184.156,1097.405 2183.704,1097.35 2181.727,1097.111 2179.385,1097.685 2177.443,1098.055 2175.981,1098.334 2174.713,1098.204 2173.271,1098.432 2171.431,1098.722 2167.285,1099.605 2167.783,1102.256 2167.359,1102.038 2166.059,1102.827 2165.594,1103.108 2164.919,1103.513 2164.253,1102.608 2163.512,1102.717 2162.772,1102.826 2162.235,1103.477 2161.714,1103.948 2161.151,1104.458 2160.635,1104.627 2159.916,1104.898 2158.869,1105.292 2158.672,1105.893 2157.862,1106.52 2156.778,1107.359 2155.192,1107.772 2153.813,1107.725 2155.582,1108.495 2151.823,1108.149 2151.137,1108.08 2148.727,1107.84 2146.365,1107.986 2143.952,1107.505 2144.043,1107.264 2144.137,1107.025 2144.232,1106.785 2142.136,1107.137 2141.172,1105.354 2140.305,1103.942 2139.593,1102.784 2137.698,1100.425 2136.242,1101.964 2134.979,1100.62 2136.591,1094.337 2139.048,1095.843" id="path3348"/>
    </g>
  <g class="antxx ata" id="aq" transform="translate(-29.9017,-45.0745)">
    <title>Antarctica</title>
    <path d="M 2250.428,1365.623 C 2250.478,1365.383 2250.529,1365.144 2250.578,1364.903 2249.765,1365.114 2248.96,1365.774 2249.068,1366.703 2249.739,1366.726 2250.201,1366.189 2250.428,1365.623" id="path6982"/>
    <path d="M 2250.578,1368.293 C 2249.964,1368.07 2249.412,1368.37 2249.138,1368.934 2249.722,1369.054 2250.248,1368.761 2250.578,1368.293" id="path6984"/>
    </g>
  <g id="nc">
    <title>New Caledonia</title>
    <g class="landxx coastxx ncl" id="nc-" transform="translate(-29.9017,-45.0745)">
      <path d="M 2534.108,983.663 C 2534.923,984.676 2535.279,986.194 2536.43,986.913 2536.917,987.218 2536.751,988 2536.974,988.446 2537.307,989.111 2538.345,989.318 2538.502,990.072 2538.768,991.341 2540.358,991.711 2541.134,992.485 2542.279,993.629 2543.423,994.118 2544.837,994.822 2543.889,995.723 2545.632,997.467 2546.567,996.551 2546.238,996.994 2546.324,997.18 2546.346,997.701 2547.281,995.954 2547.943,998.364 2548.845,998.148 2550.061,997.856 2551.359,997.814 2550.591,996.026 2550.263,995.262 2549.588,995.185 2549.008,994.712 2548.266,994.107 2547.848,993.201 2547.268,992.459 2546.166,991.05 2544.381,990.532 2543.188,989.282 2542.245,988.294 2541.764,987.304 2541.262,986.052 2540.61,984.426 2540.308,984.664 2538.942,983.661 2537.727,982.768 2537.317,981.033 2535.987,980.281 2535.421,979.961 2534.863,980.286 2534.291,980.055 2533.531,979.749 2533.286,978.884 2532.597,978.481 2532.953,979.121 2533.205,979.923 2533.368,980.635 2533.485,981.151 2533.173,981.507 2533.404,982.044 2533.646,982.603 2534.037,983.034 2534.108,983.663" id="path2568"/>
      <path d="M 2550.168,983.883 C 2551.262,983.451 2550.979,982.501 2551.468,981.643 2550.975,982.361 2550.815,983.262 2550.168,983.883" id="path2570"/>
      <path d="M 2553.408,1000.803 C 2553.603,1000.583 2553.77,1000.343 2553.908,1000.083 2553.086,999.449 2552.523,1000.498 2553.408,1000.803" id="path2572"/>
      <path d="M 2555.718,987.913 C 2556.582,987.228 2556.22,983.252 2554.559,983.813 2555.959,984.771 2554.237,984.797 2553.989,985.602 2553.604,986.846 2555.136,987.149 2555.718,987.913" id="path2574"/>
      <path d="M 2559.388,992.013 C 2560.304,992.044 2560.707,991.095 2560.899,990.364 2560.051,990.593 2560.125,989.526 2559.453,989.507 2558.071,989.466 2558.832,991.537 2559.388,992.013" id="path2576"/>
      </g>
    </g>
  <g id="vu">
    <title>Vanuatu</title>
    <g class="landxx coastxx vut" id="vu-" transform="translate(-29.9017,-45.0745)">
      <path d="M 2576.088,979.843 C 2576.33,979.63 2576.547,979.393 2576.738,979.133 2576.096,978.717 2575.19,979.406 2576.088,979.843" id="path6080"/>
    </g>
    </g>
  <g id="to">
    <title>Tonga</title>
    <g class="landxx coastxx ton" id="to-">
      <path d="M 2656.6363,943.55855 C 2656.9323,943.13855 2657.2453,942.73155 2657.5763,942.33855 2656.8423,943.24255 2656.2723,942.08255 2655.4063,942.25855 2655.7113,942.79055 2656.1213,943.22455 2656.6363,943.55855" id="path5930"/>
      <path d="M 2657.8563,945.21855 C 2657.8393,944.93855 2657.7693,944.67155 2657.6463,944.41855 2657.7163,944.68555 2657.7863,944.95155 2657.8563,945.21855" id="path5932"/>
    </g>
    </g>
  <g id="nf">
    <title>Norfolk Island</title>
    <path class="landxx coastxx nfk" d="M 2521.2674,998.14342 C 2520.4802,997.67737 2519.6866,997.21184 2518.8942,996.7453 2518.1234,997.29417 2517.7363,997.70984 2519.9571,998.01743" id="nf-"/>
    </g>
  </svg>