<svg xmlns="http://www.w3.org/2000/svg" class="world_map zoom4" height="127" id="svg2985" version="1.1" viewBox="597 656 126 60" width="127">
  <title>World Map</title>
  <defs id="defs2987"/>
  <defs>
    <link xmlns="http://www.w3.org/1999/xhtml" href="../css/svg.css" type="text/css" rel="stylesheet"/>
  </defs>
  <style id="style_css_sheet" type="text/css">
/*
 * Below are Cascading Style Sheet (CSS) definitions in use in this file,
 * which allow easily changing how countries are displayed.
 *
 */
/* --- Custom styles for Peace Corps --- */
.world_map .world_map-is_selected {
  fill: #C94112 !important;
}
.world_map .landxx {
  fill: #F2EFE8;
  stroke: #ffffff;
  fill-rule: evenodd;
}
.world_map.zoom4 .landxx {
  stroke-width: 2px;
}
.world_map.zoom3 .landxx {
  stroke-width: 3px;
}
.world_map.zoom2 .landxx {
  stroke-width: 4px;
}
.world_map.zoom1 .landxx {
  stroke-width: 5px;
}
.world_map .coastxx {
  fill: #F2EFE8;
  stroke: #ffffff;
  stroke-width: 2px;
  fill-rule: evenodd;
}
.world_map .oceanxx {
  opacity: 1;
  color: #ccc;
  fill: #ffffff;
  stroke: #ffffff;
  stroke-width: 0.5;
  stroke-miterlimit: 1;
}

/* --- Original Styles --- *
/*
 * Circles around small countries
 *
 * Change opacity to 1 to display all circles.
 *
 */
.circlexx
{
   opacity:0;
   fill:#e0e0e0;
   stroke:#000000;
   stroke-width:0.5;
}

/*
 * Smaller circles around French DOMs and Chinese SARs
 *
 * Change opacity to 1 to display all subnational circles.
 *
 */
.subxx
{
   opacity:0;
   stroke-width:0.3;
}

/*
 * Circles around small, unrecognized countries
 *
 * Change opacity to 1 to display all circles.
 *
 */
.unxx
{
   opacity:0;
   fill:#e0e0e0;
   stroke:#000000;
   stroke-width:0.3;
}

/*
 * Circles around small countries, but with no permanent residents 
 *
 * Change opacity to 1 to display all circles.
 *
 */
.noxx
{
   opacity:0;
   fill:#e0e0e0;
   stroke:#000000;
   stroke-width:0.5;
}

/*
 * land
 */
.landxx
{
}
/*
 * Styles for coastlines of islands with no borders
 */


/*
 * Styles for nations with limited recognition
 */
.limitxx
{
   fill: #e0e0e0;
   stroke:#ffffff;
   stroke-width:0;
   fill-rule:evenodd;
}

/*
 * Styles for nations with no permanent population.
 */
.antxx
{
   fill: #e0e0e0;
   stroke:#ffffff;
   stroke-width:0;
   fill-rule:evenodd;
}

/*
 * Ocean
 */


/*
 * Additional style rules
 *
 * The following are examples of colouring countries.  You can substitute these with your own styles to colour the countries on the map.
 *
 * Color a few countries:
 *
 * .gb, .au, .nc
 * {
 *    fill:       #ff0000;
 * }
 *
 * Color a few small country circles (and the countries):
 *
 * .ms, .ky
 * {
 *    opacity:    1;
 *    fill:       #ff0000;
 * }
 *
 */

</style>
  <path class="oceanxx" d="M 2079.5058,1457.5605 615.24779,1457.5605 C 615.13079,1457.5605 615.07079,1457.5505 614.95179,1457.5215 611.67679,1456.6515 608.40179,1455.7815 605.12779,1454.9105 599.15079,1453.3225 593.22879,1451.5225 587.30779,1449.7385 564.39379,1442.8315 541.76579,1434.6995 519.46979,1426.0115 495.81079,1416.7935 472.34979,1407.0946 449.19179,1396.6816 426.78379,1386.6056 405.17679,1375.0536 383.76379,1363.0356 363.11779,1351.4496 343.01079,1338.8296 323.37979,1325.5996 302.29179,1311.3876 281.47879,1296.8506 261.05379,1281.7006 242.35079,1267.8276 223.73679,1253.6306 206.05279,1238.4686 186.98679,1222.1216 167.82379,1205.7706 150.35279,1187.6906 132.97779,1169.7106 116.33279,1151.0606 100.15679,1131.9976 84.352777,1113.3736 70.086776,1093.4716 56.901786,1072.9246 44.046786,1052.8916 32.093776,1032.1356 22.469776,1010.3426 17.516776,999.12753 12.408776,987.76556 8.7017761,976.06056 5.0657761,964.58166 1.5997761,953.04259 -1.5932239,941.43054 -8.0102239,918.09356 -14.055224,894.78356 -18.234224,870.92056 -22.491222,846.60856 -24.894222,822.19856 -26.943222,797.62156 -28.947222,773.58556 -28.829222,749.40156 -27.225222,725.34856 -25.648222,701.69856 -23.363222,677.92456 -19.274222,654.56456 -15.018224,630.25156 -9.3842239,606.45156 -2.8412239,582.66156 3.5687761,559.35256 10.483776,536.34856 20.265776,514.19856 30.320776,491.42956 42.318786,469.90956 55.502786,448.81656 68.512776,428.00356 83.108777,408.26756 98.686787,389.31756 113.73479,371.01156 129.68979,353.25256 146.15179,336.20856 163.77479,317.96256 182.64579,301.14556 201.89579,284.64756 220.33379,268.84456 239.55379,253.98456 258.95979,239.39656 278.42779,224.76056 298.39379,210.83356 318.55579,197.17556 339.26979,183.14456 360.47879,169.92056 382.15079,157.42556 403.46579,145.13656 425.31479,133.98856 447.60479,123.59356 469.58579,113.34356 492.14979,104.17656 514.74579,95.37556 537.44879,86.532565 560.37879,78.195565 583.63479,70.914565 589.69379,69.017565 595.80079,67.276565 601.90879,65.549565 604.63079,64.779565 607.36079,64.045565 610.09479,63.318565 611.59979,62.918565 613.56579,61.986565 615.13379,61.986565 L 2079.9638,61.986565 C 2079.9798,61.986565 2079.9958,61.986565 2080.0118,61.986565 2079.8448,61.986565 2079.6788,61.986565 2079.5118,61.986565 2102.8268,68.191565 2125.8778,75.323565 2148.5448,83.611565 2171.6378,92.054565 2194.6158,100.87956 2217.2348,110.52956 2240.5208,120.46556 2263.4848,130.95256 2285.8828,142.76456 2306.9808,153.89056 2327.8178,165.78556 2347.8608,178.72156 2368.9418,192.32656 2389.7498,206.29256 2410.2218,220.80056 2429.7368,234.62956 2448.9938,248.98756 2467.6208,263.99256 2486.8818,279.50856 2506.0408,295.30556 2524.0538,312.27356 2541.8708,329.05756 2558.7508,346.67256 2574.9408,365.03656 2591.2478,383.53256 2607.1478,402.30656 2621.4508,422.41856 2635.3488,441.96256 2648.4468,462.42756 2659.5898,483.67756 2671.1238,505.67356 2681.1048,528.35656 2688.6188,552.05056 2692.2518,563.50656 2695.3368,575.14756 2698.5608,586.72256 2701.7738,598.25356 2704.9238,609.81956 2707.4578,621.52456 2712.6258,645.40556 2716.6718,669.47856 2719.1178,693.79656 2721.5718,718.19256 2723.1798,742.56356 2722.9808,767.09056 2722.7908,790.65456 2720.6908,814.43756 2717.7688,837.81156 2714.7368,862.07056 2710.5198,886.16156 2704.6398,909.90056 2701.6808,921.84356 2698.3948,933.69556 2695.0378,945.53154 2691.7468,957.13466 2688.5558,968.83466 2684.3988,980.16156 2676.0918,1002.8036 2666.1688,1024.8836 2654.1338,1045.8046 2641.9958,1066.9066 2628.8498,1087.4866 2614.2378,1106.9696 2599.1658,1127.0666 2582.6678,1145.9446 2565.8948,1164.6296 2549.8298,1182.5266 2532.8918,1199.7316 2514.8648,1215.6616 2496.0788,1232.2646 2476.8978,1248.3126 2457.1558,1263.7656 2438.2988,1278.5276 2418.9668,1292.7306 2399.3188,1306.4206 2378.7018,1320.7866 2357.7538,1334.6106 2336.4758,1347.9776 2326.4088,1354.3016 2316.0058,1360.1326 2305.6418,1365.9516 2295.0348,1371.9086 2284.3858,1378.0166 2273.4448,1383.3436 2250.7338,1394.3986 2227.7768,1404.7266 2204.3888,1414.2665 2181.7848,1423.4875 2159.0678,1432.2695 2136.0228,1440.3345 2117.4118,1446.8465 2098.5568,1452.4975 2079.5058,1457.5605" id="ocean"/>
  <g class="landxx coastxx bra" id="br" transform="translate(-29.9017,-45.0745)">
    <title>Brazil</title>
    <path class="landxx bra" d="M 736.705,869.763 C 737.21467,868.78423 736.99677,868.25129 738.126,868.048 739.25237,867.84522 737.9418,866.49605 738.26,864.987 738.77353,862.55166 740.6267,862.34388 742.23141,861.3016 743.37409,860.5594 742.538,858.928 742.25901,857.735 742.00401,856.641 742.57201,855.655 743.18401,854.793 744.41301,853.061 743.10801,850.545 744.36201,849.023 745.00801,848.238 746.38401,848.187 747.14501,847.442 747.82001,846.781 747.84461,846.0228 748.78061,845.6988 749.98561,845.2808 750.66601,844.099 751.82601,843.623 752.90001,843.183 754.56101,843.213 755.72401,842.971 757.10601,842.683 758.25619,842.74917 759.27501,841.668 759.43867,841.49432 759.69295,840.78975 761.23001,840.429 761.80294,840.29453 761.93178,840.55269 762.71101,840.723 763.37777,840.86873 764.11501,841.662 764.49801,842.182 764.69201,841.942 764.88501,841.703 765.07801,841.462 766.12101,843.181 766.64001,839.752 766.73001,839.144 767.14301,836.37 767.55736,833.59454 767.83401,830.803 768.20959,827.01315 768.62171,823.21167 769.38801,819.502 769.71307,817.92839 770.36922,816.4994 769.99122,814.8634 769.62822,813.2904 768.51875,812.48178 768.46842,810.79879 768.41642,809.05979 767.57501,808.7659 766.28501,807.558 764.84432,806.209 764.82062,804.792 764.82062,803.079 764.82062,802.083 764.66401,800.831 765.19901,799.914 766.5582,798.43964 769.24917,797.6842 770.32501,798.787 771.50201,799.412 771.91372,799.05795 771.82001,797.699 771.67401,795.58183 768.41801,794.44146 766.58601,795.456 766.57601,793.92474 765.76257,791.2729 766.47903,789.94502 767.17601,788.65323 769.70901,789.697 770.62701,789.697 772.82201,789.697 774.87902,789.6586 777.07002,789.7486 777.45802,789.7646 778.69782,789.8926 778.81482,789.2866 778.87582,788.9726 778.69113,788.06369 779.10805,787.79218 780.64602,786.7906 780.27228,789.93171 781.53042,789.3136 782.60407,788.78613 783.19892,787.44696 784.11801,786.711 785.80363,785.36124 786.64386,787.38872 787.05361,788.3518 787.86749,790.2648 787.86908,791.2 787.6778,793.065 787.6328,793.504 787.36101,794.491 788.16001,794.344 789.27801,794.138 789.05403,793.50624 789.93403,794.3932 791.00903,795.4762 791.71065,796.86399 793.12865,797.51899 795.03365,798.39799 796.3036,797.00682 797.77301,796.28296 800.68804,794.84696 799.1266,798.27296 799.55501,799.05496 800.26501,798.82396 801.43222,796.97896 801.86322,796.35896 802.59722,795.30496 802.91822,794.66756 804.20022,794.17156 805.27222,793.75656 805.85163,793.60736 806.66763,792.80736 807.24763,792.23836 808.76401,791.16096 808.70401,792.72196 809.56001,791.29996 810.51601,790.77996 810.93401,789.12196 811.26401,787.81796 811.75684,787.86546 812.91622,787.37456 813.41414,787.16374 815.29581,786.19443 815.52143,785.85516 816.90038,783.7816 815.86253,783.40339 814.24276,783.59855 813.44805,783.69435 812.11542,783.66885 811.478,783.13654 811.10363,782.82391 811.5417,781.39589 811.3938,780.99596 810.65117,778.98696 809.87502,778.20915 809.92399,774.86496 809.94449,773.46361 808.89659,772.49695 807.80999,771.37996 807.18874,770.74133 805.16499,768.47396 806.11399,767.52096 806.76399,767.80596 807.10159,768.72236 807.80559,768.79136 808.76859,768.88536 810.84111,768.17705 811.08978,769.62676 811.26347,770.63935 811.65228,770.89664 812.76799,770.74694 814.605,770.50047 815.66429,771.40754 815.97399,770.85096 817.41799,768.25583 818.53538,774.02411 820.543,773.65756 821.85538,773.41795 820.64382,770.96172 821.30499,769.93296 821.70738,769.30685 822.78499,769.62496 823.37099,768.92396 824.22399,767.90296 825.03714,769.29331 825.9102,768.99136 827.28326,768.51649 830.37748,767.69295 830.99839,766.53177 831.04229,766.44977 832.66592,765.51162 832.85599,765.52696 833.65684,765.59156 834.62921,766.02932 835.17239,765.04655 836.05315,763.45297 839.30154,762.41267 836.99399,759.42457 838.08699,759.25957 839.01933,759.43257 840.12199,759.11498 841.01799,758.85682 841.68114,759.14438 842.2758,760.05236 843.53882,761.98083 841.92345,763.36733 841.617,765.07996 841.45957,765.95976 843.54251,765.50248 844.66299,766.62196 844.9121,766.87085 844.34999,767.59496 844.56299,768.09296 844.90899,768.90096 845.29279,769.52917 845.74079,770.26317 846.23679,771.07617 843.96017,773.23216 843.78017,773.90416 843.60017,774.57316 843.58699,775.33996 843.41099,776.06296 843.08799,777.38896 842.35139,778.41617 842.19139,779.77517 841.95539,781.79117 842.24309,783.6338 843.56899,784.93596 844.51779,785.8678 843.45799,788.78786 844.70199,788.69196 844.60699,788.93196 844.50999,789.17196 844.41199,789.41196 845.91086,789.58103 847.04244,791.26123 847.64099,792.38396 848.13908,793.31827 849.14144,792.45466 849.73301,793.32658 850.26248,794.10695 851.16546,793.91431 851.62899,794.00896 852.15658,794.11669 852.68889,792.67866 853.2806,792.18779 855.38451,790.44241 856.82398,790.60992 858.501,789.88556 859.46535,789.46903 859.9492,790.06037 860.7632,789.07837 861.8402,787.77937 862.96013,787.07781 864.83899,787.65977 866.36699,788.13305 867.16703,787.20573 868.76303,787.65577 869.80407,787.94946 872.67919,789.40771 873.06939,787.63277 873.42839,785.99977 871.41223,785.87236 872.16317,784.36236 873.54179,781.5902 873.81951,783.98137 875.46799,783.56376 876.51124,783.29947 877.24547,783.05413 878.19581,782.70297 880.21084,781.95842 880.11998,782.35896 881.61898,783.60296 881.91598,783.84896 881.69698,783.01076 882.05599,783.56676 882.50199,784.25776 883.20439,784.49516 883.85539,784.98816 884.69739,785.62616 885.48299,785.70876 886.35799,786.18576 886.73145,786.54135 887.28498,785.09914 889.22799,784.40276 889.71799,784.13076 890.33399,784.78176 890.85499,784.82876 891.49699,784.88676 893.95839,784.19157 893.49439,785.51457 894.20239,785.18057 895.32739,786.01457 895.91139,785.49057 896.73639,784.74957 897.47201,784.43816 898.09201,783.48416 898.96701,782.13816 900.61974,777.81205 901.50611,776.47432 904.30186,772.25496 906.91309,768.8034 905.64407,766.03153 905.73507,766.60853 907.23899,769.68376 907.63399,770.11476 907.30499,769.17876 906.51899,768.02076 907.34399,767.09076 909.52999,768.44476 909.81299,770.62276 909.57399,772.99476 909.69799,772.29676 909.76499,771.53576 910.36399,771.05076 910.28099,774.18576 910.60599,777.45776 911.71299,780.40676 912.16499,781.61276 914.02099,785.27076 912.66399,786.38576 913.71199,786.03976 913.88699,787.17176 914.21699,787.85876 914.85999,789.19676 916.37899,788.65976 917.49399,789.12176 920.03799,790.17676 919.54799,793.17676 917.34399,794.16176 917.91699,793.99976 918.55999,794.10176 919.00399,794.52076 918.03499,795.48976 916.35299,796.35976 915.96199,797.76876 915.75999,798.49376 914.93499,798.82176 914.54499,799.41476 913.95399,800.31276 913.69299,801.31176 912.97299,802.14076 911.99699,803.26276 910.74299,804.07876 909.64999,805.07276 908.29999,806.30176 907.59599,807.95276 906.45999,809.35476 905.40699,810.65376 905.01999,811.65576 905.16799,813.32776 905.24999,814.26476 903.52199,814.43076 903.46099,815.71776 903.37899,817.45276 902.11099,816.51776 901.22299,816.48876 900.40999,816.46176 897.85399,817.71476 897.55499,818.49576 898.27399,818.32876 902.15699,817.59076 901.07499,819.36576 901.80999,818.55676 902.95599,818.63076 903.84599,818.10676 904.88499,817.49576 905.68299,816.83176 906.80599,816.34976 908.26799,815.72176 910.42799,813.90076 911.23599,812.52476 913.12799,813.62276 911.32199,816.46376 912.55399,817.98276 913.04899,818.59176 912.57199,820.22276 913.38799,820.46376 914.06899,820.66376 915.24799,820.26776 914.83499,821.45576 916.43299,821.76876 919.29299,818.85576 919.58499,822.17576 919.44199,821.15276 920.45199,820.96276 921.21699,820.81576 921.59899,820.82776 921.87099,820.65676 922.03299,820.30176 922.32999,819.51076 923.17799,819.80476 923.83399,819.65576 922.98199,822.32976 922.18799,824.07676 922.31399,826.85476 923.53399,825.27976 922.81299,821.85276 924.86099,820.88676 926.22399,820.24476 926.44899,820.05376 927.25599,818.73776 928.58799,816.56276 928.95199,818.17276 930.30399,819.00576 930.27599,818.54876 930.15899,818.11476 929.95399,817.70576 930.70699,817.65376 931.44399,817.48276 932.18399,817.34576 931.42399,816.96376 930.57099,817.27976 929.80399,817.41576 929.60999,816.36476 930.35399,816.32076 930.94299,815.75676 931.83599,814.90076 930.87199,812.99976 931.97199,811.91376 933.26799,810.63376 932.90199,811.71276 933.76399,811.37576 934.36999,811.13976 935.63899,809.61176 935.78399,811.15576 936.97799,809.99076 937.04499,811.61776 938.15399,811.22476 937.67699,810.81476 937.56599,810.19776 937.86399,809.64476 938.54499,809.84376 940.16999,810.24076 939.81399,811.29476 940.04999,811.16676 940.28999,811.04676 940.53399,810.93476 940.63099,811.20176 940.72699,811.46876 940.82399,811.73576 941.44599,811.24176 941.54399,811.23776 941.54399,812.08576 942.11999,811.89576 942.52399,811.40976 942.55399,810.79576 942.19199,811.72776 943.46499,811.90176 943.12399,812.81676 943.21299,812.23076 943.58999,811.85276 944.20399,812.08676 944.19499,812.70576 943.78799,813.17376 943.19399,813.31676 944.22199,812.71976 945.15799,814.18076 946.14399,813.24676 946.01199,814.60076 947.01199,813.79976 947.30399,813.09676 946.89099,814.73676 948.26699,814.05776 948.16399,815.11776 948.54999,814.96376 948.83999,814.70076 949.03399,814.32776 948.90099,815.25576 950.05799,814.91676 950.25399,815.76676 950.49999,815.53276 950.73999,815.29276 950.97399,815.04676 951.02099,815.58576 951.21499,816.06576 951.55399,816.48676 951.79199,816.29476 952.02899,816.10176 952.26399,815.90676 952.38699,816.62676 952.67099,816.96976 953.34399,816.26576 952.81899,816.64076 952.68099,817.23776 953.06399,817.77576 953.21299,817.22176 953.63999,816.79576 954.21299,816.69576 953.39999,817.42776 953.68899,818.98876 954.43399,819.65676 954.75899,819.04776 954.36799,818.02176 955.18999,817.70376 956.68399,817.12376 956.01499,818.19676 956.73399,818.42676 956.69199,817.82576 957.04999,817.35476 957.59399,817.13676 957.34399,817.60876 957.22399,818.11276 957.23399,818.64676 958.94299,817.62176 957.00999,820.68076 958.82399,819.57776 958.57399,819.80676 958.33399,820.04776 958.10399,820.29776 958.68699,820.49976 959.21999,820.21376 959.54299,819.72776 959.05199,820.79176 960.78199,820.20976 960.03299,821.63676 959.36399,822.91176 959.67899,823.97376 958.03299,824.47776 958.62499,824.10576 959.08799,824.43776 959.25299,825.04776 959.29499,824.13276 960.30199,822.72676 961.14599,823.91376 962.04799,825.18476 960.46799,825.58176 959.97099,826.53676 959.54699,827.35076 958.79299,829.86076 959.08399,830.74376 959.40599,831.72076 957.85599,832.53176 958.53399,833.25876 958.62399,831.88576 960.25299,831.46976 960.83399,830.37876 961.41099,829.29476 961.03199,827.47876 961.65999,826.58676 961.98099,826.12876 963.42999,825.08776 963.89899,825.87776 964.66899,827.17376 962.23099,827.86476 962.06499,828.93876 962.77499,828.48176 963.01499,828.65176 962.78499,829.44876 963.62399,829.04276 964.80299,825.75676 965.23499,827.42876 965.30599,826.27476 967.53099,825.64876 968.39499,826.13876 968.30299,823.86676 973.01199,826.38276 973.84699,826.86376 974.43899,827.20476 977.69999,828.53176 977.75499,829.15876 978.46499,828.69576 980.34799,829.86676 979.99499,828.36876 980.93799,828.57776 981.57599,829.28276 982.43499,829.65876 983.42499,830.09076 984.48699,830.02476 985.31499,830.81876 985.29899,829.43376 986.15399,829.58076 987.22999,829.54176 989.38699,829.46476 991.29299,828.59976 993.48999,829.06876 997.51199,829.92676 1001.233,833.36076 1004.368,835.82076 1005.412,836.63976 1006.609,836.77776 1007.475,837.80876 1008.304,838.79676 1008.945,839.90076 1009.73,840.91476 1010.615,842.05876 1011.8,842.56876 1012.612,843.69276 1013.479,844.89276 1015.073,845.02476 1016.027,846.26576 1016.985,847.51176 1018.381,847.00776 1019.474,848.08076 1020.739,849.32376 1022.961,848.82176 1024.513,848.62776 1028.081,848.18276 1030.717,849.51676 1031.754,853.05676 1032.156,854.42776 1032.758,855.79276 1032.782,857.24476 1032.792,857.68276 1032.417,858.41576 1032.755,858.58376 1033.142,858.77476 1033.357,859.30576 1033.511,859.67376 1034.159,861.22276 1035.258,864.67276 1034.424,866.30676 1034.654,865.95576 1034.867,865.59676 1035.064,865.22676 1034.908,866.86476 1036.105,868.83776 1034.424,870.04676 1034.69,870.11076 1034.953,870.18376 1035.214,870.26676 1034.541,871.62176 1035.607,873.25376 1034.784,874.48176 1033.932,875.75376 1034.568,877.46776 1033.901,878.80376 1033.125,880.35476 1032.856,882.09676 1032.137,883.67176 1031.347,885.40476 1029.625,886.53576 1028.954,888.33676 1028.704,888.15876 1028.464,887.96876 1028.234,887.76676 1028.287,888.49676 1028.059,889.40576 1027.364,888.19676 1027.485,888.65676 1027.775,888.89776 1028.234,888.91776 1027.184,890.98876 1025.646,893.69076 1023.907,895.25776 1023.19,895.90376 1022.222,896.16176 1021.492,896.80376 1020.731,897.47276 1020.138,898.34876 1019.234,898.84776 1019.385,898.23276 1018.991,897.79976 1018.434,897.62776 1018.365,898.29676 1019.205,898.51276 1019.084,899.13776 1018.927,899.94276 1018.232,901.01676 1017.434,900.00776 1017.829,900.52376 1018.759,901.02176 1018.197,901.79976 1017.872,902.25076 1016.515,903.74476 1017.064,902.08776 1016.613,902.80476 1016.707,903.70776 1016.064,904.32776 1016.353,904.23776 1016.64,904.14076 1016.924,904.03776 1015.34,906.29876 1012.822,917.69076 1008.714,916.99776 1009.47,915.27576 1007.723,914.95476 1007.204,913.60676 1007.17,914.38776 1006.307,916.58276 1005.624,914.90776 1005.836,915.60876 1006.92,915.89676 1006.888,916.65176 1006.83,917.97876 1005.153,918.92576 1005.624,920.37776 1004.47,919.59776 1004.707,921.58576 1004.685,922.39776 1004.768,922.02576 1004.887,921.66576 1005.044,921.31876 1005.431,922.32876 1005.44,923.20376 1005.404,924.26776 1005.124,924.04576 1004.861,923.80576 1004.614,923.54776 1005.239,924.07676 1005.798,925.78676 1005.554,926.57776 1005.75,926.07376 1005.94,925.56676 1006.124,925.05676 1006.223,928.08576 1005.258,930.83076 1005.695,933.90476 1006.07,936.54176 1007.217,939.30276 1007.348,941.93176 1007.58,946.59976 1004.65,950.94776 1005.948,955.73576 1006.673,958.40576 1004.984,958.73376 1003.84,960.74076 1002.521,963.05376 1002.319,965.92776 1002.649,968.52276 1002.884,970.37476 1003.981,974.10576 1001.789,975.06876 999.72199,975.97776 1001.382,980.02376 998.92499,980.35576 1000.67,981.89976 997.71499,983.83376 996.71799,984.78376 995.86399,985.59776 996.11099,986.21176 995.80899,987.30376 995.36399,988.91476 994.63099,990.36676 994.88999,992.08376 995.02499,992.97676 995.67199,994.37176 995.00199,995.18676 993.89699,996.53176 992.20699,996.48976 990.81799,997.31876 989.87599,997.88176 988.90499,998.93076 988.48199,999.94676 988.20799,1000.6038 988.52699,1001.2128 988.71799,1001.8398 988.91499,1002.4828 988.08799,1002.8178 988.41499,1003.5368 987.43199,1002.4488 984.61199,1002.9938 983.37499,1003.2518 982.65099,1003.4028 981.48799,1003.8018 980.78499,1003.3968 979.74199,1002.7958 980.48299,1001.7828 980.42499,1000.8768 978.10899,1001.1478 980.00999,1002.1138 979.70099,1003.2788 979.39499,1004.4318 974.76699,1003.9848 973.72399,1004.5468 974.43099,1003.7928 975.65199,1004.1308 976.53399,1003.8268 975.58599,1002.9798 974.52599,1002.5188 973.35099,1003.2348 972.30799,1003.8698 971.83999,1003.3648 970.76199,1003.4868 969.97999,1003.5748 968.67999,1003.6648 968.40699,1004.5928 968.15199,1005.4578 969.48599,1005.8388 969.98499,1006.2068 968.84799,1007.1348 967.33399,1006.1588 966.58999,1007.2558 965.94999,1008.1998 964.92299,1008.3118 964.03799,1008.9268 963.25599,1009.4688 964.21899,1010.3038 963.43499,1010.8178 962.35099,1011.5288 960.50399,1009.5158 958.96399,1010.8178 958.80199,1010.9548 957.73499,1012.9148 957.35199,1012.4308 957.01799,1012.0108 957.28099,1011.3938 956.44399,1011.5368 956.88499,1012.8458 955.19099,1012.9958 954.25099,1013.6228 953.09699,1014.3928 952.56399,1015.4878 951.65299,1016.4768 950.65999,1017.5528 949.13199,1017.8528 948.05599,1018.8228 947.13799,1019.6528 946.61399,1020.9098 945.57299,1021.6068 945.81199,1021.7548 946.05199,1021.9018 946.29299,1022.0468 945.48499,1022.8828 944.67899,1023.8568 944.20299,1024.9268 944.12899,1024.3818 944.27199,1023.9028 944.63299,1023.4878 943.88099,1023.8098 943.10199,1023.6028 942.40299,1023.2668 942.72799,1024.7608 941.89699,1025.6248 940.46299,1024.4168 940.44799,1025.2778 942.48299,1026.1638 943.26299,1026.0768 942.72499,1026.5768 942.53799,1027.2528 942.40299,1027.9468 942.29599,1028.5008 941.17599,1028.3248 940.82299,1028.5968 941.30499,1028.5818 941.78499,1028.6068 942.26299,1028.6668 942.04599,1029.3478 942.32699,1030.0458 942.12899,1030.7238 941.89599,1031.5208 941.04799,1031.6578 940.82299,1030.7568 941.10099,1031.3458 940.97299,1032.1468 941.62599,1032.4268 942.47999,1032.7928 941.98099,1034.6038 942.18299,1035.2968 942.50499,1036.4008 943.87399,1038.0178 943.26299,1039.3968 944.31899,1039.1458 944.21099,1040.3918 943.34299,1040.5468 944.29399,1041.2728 943.55099,1044.3478 944.31199,1045.6198 945.02499,1046.8118 943.75999,1049.7738 943.70299,1050.9868 943.32499,1050.7098 943.01199,1050.3728 942.76299,1049.9758 943.02199,1050.5928 942.99899,1051.3258 943.77299,1051.5668 942.96899,1052.7008 941.69099,1053.3778 940.66099,1054.2738 939.56399,1055.2288 938.80599,1056.5068 938.12699,1057.7748 936.47599,1060.8598 935.99399,1064.1478 935.11699,1067.4878 934.29399,1070.6248 932.73699,1073.4728 930.92899,1076.1408 929.18799,1078.7098 926.65599,1080.5448 924.62199,1082.8858 924.98399,1081.9578 924.46699,1080.8258 924.26199,1079.9258 925.32199,1080.2168 925.73999,1080.3088 926.67899,1079.6558 927.51399,1079.0758 927.97999,1077.7418 928.73499,1077.3178 929.77799,1076.7318 929.95399,1076.2458 929.94999,1075.0408 929.94699,1074.2638 930.08499,1072.9018 931.03299,1074.0248 930.67799,1072.8818 931.21399,1072.4478 931.88599,1071.6508 932.43699,1070.9968 932.55299,1070.2458 932.43199,1069.4168 932.34499,1068.8148 931.70599,1066.8008 933.04199,1068.0458 933.07499,1067.7328 932.64599,1065.8018 932.14899,1065.9728 931.83299,1066.0808 930.10399,1067.3838 930.09199,1067.7658 929.61699,1067.2278 929.34499,1066.5868 928.63999,1066.3358 927.80799,1066.0398 927.96799,1064.8558 927.21099,1064.4558 927.14499,1066.4258 928.07899,1066.3478 928.86099,1067.7658 927.20799,1068.1698 928.40999,1070.0798 928.29099,1071.1458 928.17599,1070.6198 927.95999,1070.1408 927.64199,1069.7068 927.40499,1070.3878 928.04899,1071.2618 927.70799,1071.8318 927.55699,1072.0848 927.02599,1072.0378 927.09999,1072.4308 927.41099,1074.0698 926.01599,1074.9448 924.85399,1075.6078 923.93699,1076.1308 924.30399,1077.2748 924.04099,1078.1358 923.81999,1078.8578 921.99999,1080.6228 923.75099,1080.7958 922.82099,1081.3748 923.48199,1082.6508 924.40099,1081.9448 924.54899,1082.8618 923.87299,1083.7138 923.50299,1084.4868 922.89799,1085.7538 922.94399,1087.2818 922.75099,1088.6448 922.37099,1091.3298 920.73199,1092.9308 919.34099,1095.1068 918.77549,1095.9913 918.03738,1096.4851 917.5788,1096.3037 917.09283,1096.1115 916.44846,1094.9462 916.20963,1094.3953 915.76568,1093.3713 915.95143,1092.5104 915.88372,1091.63 915.79532,1090.4806 916.92274,1089.6272 917.4259,1088.6803 918.21575,1087.1938 916.50699,1086.5268 915.49699,1086.0588 914.32099,1085.5138 913.84005,1084.4882 913.12899,1083.4648 911.47048,1081.0778 909.1536,1081.1878 907.59599,1079.5118 906.30793,1078.1617 904.80129,1077.4145 903.23099,1076.5448 902.65599,1076.2698 902.43699,1075.6947 901.86099,1075.4317 900.22288,1076.4742 898.24153,1072.9066 896.54099,1071.5748 897.41471,1072.8159 893.90134,1074.9249 893.97872,1072.2898 894.03992,1070.2044 891.45799,1068.8688 889.98599,1067.7588 888.89299,1066.9348 886.73535,1064.0672 885.08735,1065.2612 884.53835,1065.6592 884.51003,1066.3953 883.63899,1066.6238 882.82819,1066.8365 881.70785,1066.7341 880.9719,1065.8138 882.51251,1065.1973 882.09994,1062.765 883.86608,1062.0498 885.44396,1061.4108 886.06449,1059.2096 886.68099,1057.5758 887.37968,1055.7242 888.69718,1054.1561 889.61818,1052.4281 890.08518,1051.5531 891.20999,1049.2228 892.43099,1050.4828 892.72299,1049.8968 892.46199,1049.3848 891.86099,1049.1818 892.83199,1048.0068 893.82381,1046.4923 895.16181,1045.7423 896.53081,1044.9743 896.78308,1044.3594 897.72208,1043.3414 898.66908,1042.3134 899.87572,1042.1535 901.04772,1041.5555 901.90372,1041.1175 903.51699,1039.2408 904.60199,1039.7518 904.84999,1037.9748 904.78799,1036.5468 904.73999,1034.7728 904.68199,1032.6208 904.47499,1031.4898 903.74499,1029.4838 903.22799,1028.0658 902.90299,1026.4298 901.32399,1025.8698 900.41199,1025.5458 898.68399,1025.4168 898.48199,1026.7218 898.19724,1026.4518 897.49842,1026.6468 896.98171,1026.3044 896.61138,1026.0591 896.81562,1025.0828 896.77908,1024.4458 896.68168,1022.7478 897.22449,1021.533 897.43274,1019.786 897.57543,1018.589 897.29401,1016.8494 897.83101,1015.7534 898.39101,1014.6094 896.83199,1013.6858 898.12199,1012.7528 897.23899,1012.1488 896.57939,1011.0758 895.43239,1010.9398 894.22639,1010.7958 893.33801,1011.8072 892.29199,1012.1728 889.25584,1013.2339 888.60235,1010.2729 888.04199,1008.0028 887.70861,1006.6522 886.7443,1005.2573 886.4963,1003.8913 885.6227,1000.7205 884.69773,999.55088 883.61949,997.99505 882.40949,997.67705 881.22582,997.43736 880.21551,996.55397 879.12861,995.60362 879.138,996.31403 878.16204,997.89535 876.17438,1001.1159 876.47129,997.85045 875.51929,997.72845 874.14924,997.55288 872.5046,997.58154 871.2756,996.91254 870.6216,996.55654 868.01903,996.28983 867.81943,995.45921 867.61536,994.60994 868.25507,993.81378 868.46099,993.02176 868.66238,992.24713 867.87199,991.09276 868.17399,990.31576 868.70499,988.94676 868.13899,987.70176 868.41999,986.38076 868.63499,985.36676 866.82179,984.97996 867.78579,983.83796 866.61122,983.361 866.16423,981.35726 865.56159,980.07956 864.24659,978.23956 868.6742,978.17136 866.8042,976.72736 864.5422,974.98136 865.40899,973.68276 866.47799,971.23576 866.76699,970.57476 867.7132,969.20477 867.3632,968.57377 866.7702,967.50477 867.293,966.71376 867.56699,965.51976 868.7354,962.31485 867.93835,961.86725 866.87099,959.54076 865.8942,958.0823 865.97671,955.71792 865.05799,956.08876 863.47225,956.72884 861.35999,954.67192 860.79799,952.94476 860.42528,951.79934 859.95899,950.42676 859.92399,949.21576 859.88899,948.00576 860.79199,946.98976 860.75099,945.71976 858.31799,946.27576 855.75579,946.08836 853.30279,945.83736 851.74579,945.67836 848.20319,946.15036 847.08219,944.90036 846.06019,943.75936 846.27499,941.40576 846.03299,939.98676 845.71099,938.10076 843.47599,936.99376 843.40099,935.27976 844.02299,935.21476 844.64599,935.19176 845.27099,935.20976 844.84989,933.13469 844.17948,930.28453 843.47061,928.72538 843.07718,927.86003 843.03026,927.6742 843.08579,926.85156 843.15719,925.79392 843.20495,924.97836 842.32701,924.28457 840.15035,922.56446 837.8229,921.42663 836.64739,921.55986 832.69778,922.00751 833.73289,921.67488 832.51901,921.66457 831.53363,921.65657 830.23899,919.48176 829.77199,918.85476 829.26099,918.17076 828.89699,918.49376 828.21999,918.43976 827.60999,918.39076 826.27528,917.40036 825.73039,917.13196 825.34839,916.9438 824.79595,916.99572 824.29599,916.75976 823.12839,916.20871 823.10075,915.31153 822.611,914.65156 821.97466,913.79407 821.83699,913.97876 820.97099,914.36476 819.95199,914.81976 819.415,913.65336 818.723,913.19936 816.926,912.01636 816.39799,913.39376 814.57399,912.96476 812.48399,912.47476 812.27999,912.31276 811.14299,910.71576 810.60699,909.96276 808.68259,908.73596 807.79959,908.64396 806.93359,908.55396 807.24799,907.29676 806.72999,906.72176 806.35299,906.30476 805.49543,906.37877 805.50099,905.72676 805.51309,904.30728 803.85864,903.0337 803.76701,901.51598 803.71501,900.65516 804.35792,900.13312 804.46199,899.25676 804.54699,898.54111 803.5213,898.40613 803.37399,897.59376 803.24716,896.89432 803.17109,896.04689 803.15399,895.60376 803.11969,894.71497 803.57261,893.99457 803.71661,893.21757 803.99261,891.73057 804.09399,889.35976 802.71899,888.40876 802.38499,888.72276 802.10099,889.52776 801.54799,889.48376 800.16399,889.37276 799.08851,889.31279 797.70399,889.54676 796.1876,889.80301 793.62337,890.12439 792.63899,891.24876 790.97856,893.14533 790.73321,894.39275 788.45693,894.45998 787.93693,894.47538 786.50097,895.509 786.37497,896.30138 786.19938,897.40564 784.98338,896.94975 784.34238,896.88775 783.32638,896.78775 782.52314,897.69739 782.38599,898.49976 782.20315,899.56945 781.20248,900.23029 780.03399,900.53176 779.65683,900.62906 777.90042,901.54554 778.24298,900.16978 778.33398,899.80435 777.1804,899.73621 776.34659,899.70895 774.14806,899.63705 770.98929,899.1896 769.34659,899.28655 768.30799,899.34785 767.1706,900.60196 766.0416,900.25396 765.3686,900.04696 764.63099,898.93276 763.90699,899.56876 763.58426,896.9324 763.39725,894.01 763.32579,891.50877 763.28919,890.22826 763.47599,889.96476 763.85099,888.87776 763.87199,888.52576 763.76599,888.21076 763.53099,887.93276 763.15899,887.21076 763.82899,886.89576 763.98699,886.24876 762.32696,886.41274 760.54854,889.41169 759.19498,890.49036 757.182,892.09452 753.83199,891.42876 751.52699,891.13876 751.91899,889.89276 750.87659,887.96275 749.95159,887.16775 748.29459,885.74475 745.41999,886.68776 743.60699,885.73976 745.71599,882.97676 745.02899,882.19576 742.75799,879.86476 742.27399,879.36776 742.16759,879.01975 741.96859,878.38575 741.75659,877.71175 741.04099,877.41276 740.62899,876.88976 739.67999,875.68776 739.89999,874.17376 738.42299,873.20876 739.89774,872.36326 737.09202,870.6757 736.70499,869.76276" id="path2812"/>
    </g>
  <g class="landxx coastxx ven" id="ve" transform="translate(-29.9017,-45.0745)">
    <title>Venezuela, Bolivarian Republic of</title>
    <path class="landxx ven" d="M 742.105,725.256 C 744.075,722.932 745.061,720.438 745.682,717.508 746.278,714.699 746.93191,712.51846 748.39591,710.06246 749.58891,708.06246 752.29336,706.90228 753.43736,704.80428 754.74136,702.41428 756.96573,703.03164 759.09673,701.71664 758.22873,703.83464 755.95436,703.00709 754.70036,704.51709 753.63236,705.80309 754.77196,708.581 756.144,709.128 754.903,709.066 756.1,711.819 756.22,712.339 756.588,713.938 755.051,715.557 753.986,716.565 752.599,717.877 751.923,719.472 752.782,721.194 753.115,721.86 753.226,722.702 753.865,723.175 754.573,723.699 754.687,723.468 754.566,724.42 754.311,726.421 755.846,726.872 757.454,725.958 759.114,725.014 759.771,723.618 759.985,721.775 760.26,719.411 759.198,718.088 758.011,716.159 757.539,715.393 757.124,714.531 756.844,713.674 756.592,712.902 757.249,711.848 756.648,711.217 757.55,711.323 758.332,709.959 759.024,709.561 760.29,708.832 761.475,707.875 762.95,707.616 764.226,707.391 765.246,707.217 766.366,706.542 766.788,706.288 768.044,705.273 768.597,705.53 768.523,705.128 768.333,704.792 768.027,704.521 768.577,704.745 770.255,706.149 770.827,705.486 771.215,705.036 770.813,703.93 770.313,703.722 769.458,703.367 768.312,704.175 767.447,704.233 767.616,703.241 766.782,697.982 769.722,699.191 771.06,699.741 770.785,702.645 770.992,703.782 771.451,706.305 774.163,704.63 775.959,705.256 777.969,705.957 780.474,706.499 781.353,708.833 781.891,710.262 780.493,713.468 782.873,713.973 785.704,714.574 789.289,713.263 792.094,712.89 794.499,712.57 797,712.057 798.473,714.206 799.083,715.096 799.937,715.823 800.957,716.182 801.788,716.475 802.65,716.669 803.5,716.894 803.41,716.87 806.29,717.482 804.956,717.482 807.22,718.709 808.297,716.055 810.087,715.889 811.175,715.788 811.424,714.655 812.327,714.233 813.572,713.653 814.992,714.761 816.265,714.027 815.169,712.87 812.593,714.109 811.865,712.659 812.494,712.659 813.124,712.659 813.754,712.659 814.64,712.659 814.9,712.113 815.545,712.083 815.863,712.193 816.171,712.325 816.47,712.48 817.352,712.64 818.268,712.531 819.142,712.383 822.876,711.753 826.701,712.457 830.375,711.722 829.801,712.886 827.962,712.667 826.905,713.223 825.247,714.096 823.294,712.71 821.735,714.026 822.237,713.525 822.758,713.592 822.955,714.313 822.339,714.262 821.896,714.649 821.805,715.25 823.17,714.445 824.217,715.263 824.187,716.864 824.163,718.132 822.037,717.283 821.375,717.266 821.852,719.045 824.78,717.793 824.475,716.186 825.264,716.298 825.6,717.203 825.664,717.884 825.749,718.79 826.589,719.81 826.485,720.65 827.046,720.052 827.328,719.223 827.065,718.419 827.789,719.127 827.898,720.495 827.275,721.299 828.04,720.753 827.724,719.682 827.635,718.923 828.027,719.015 828.41,719.135 828.785,719.283 828.711,719.202 826.334,717.934 827.733,718.11 829.061,718.277 830.791,719.671 830.085,721.155 830.401,720.581 830.855,720.632 830.515,720.075 831.05,719.808 831.603,719.761 832.175,719.93 830.956,718.578 832.929,719.797 833.374,720.517 834.191,721.839 835.632,721.297 836.69,722.118 839.515,724.309 836.2,724.319 835.485,726.339 835.713,726.087 835.953,725.847 836.205,725.619 836.404,726.654 835.281,728.449 834.792,729.31 834.49,729.842 834.577,730.298 833.89,730.298 833.282,730.298 831.421,729.754 831.025,730.298 831.908,730.798 833.334,730.946 833.835,731.954 834.406,731.21 835.211,730.682 835.345,731.882 836.172,730.972 836.792,730.542 838.005,730.298 839.138,730.07 839.578,731.276 840.633,730.259 842.456,728.501 845.738,732.865 844.712,733.383 843.691,733.899 843.104,734.644 842.273,735.435 841.496,736.176 840.15,736.532 839.535,737.183 839.094,737.65 838.735,738.293 838.338,738.805 837.534,739.843 838.706,740.498 838.619,741.625 838.564,742.326 838.826,743.105 839.639,742.66 840.611,742.129 841.291,743.408 840.556,744.116 839.747,744.895 838.544,745.17 837.761,745.952 837.386,746.327 836.734,745.783 836.348,745.745 836.004,745.711 835.808,746.383 835.475,746.513 832.445,747.697 835.526,749.575 833.922,751.352 833.514,751.804 831.887,752.827 832.464,753.616 833.445,754.957 834.452,756.314 835.507,757.596 836.758,759.117 839.309,761.525 836.918,763.269 836.11,763.858 835.5384,764.95039 834.7264,765.53539 834.2764,765.86039 832.724,765.48499 832.624,765.65 832.186,766.369 830.877,766.207 830.853,766.953 830.825,767.839 829.259,767.849 828.643,768.144 827.466,768.708 826.019,769.448 824.717,768.797 823.834,768.356 823.019,769.461 822.1,769.641 820.981,769.862 820.962,771.036 821.224,771.954 821.602,773.28 820.495,774.301 819.382,773.292 818.629,772.608 818.257,771.698 817.567,770.975 816.651,770.014 816.063,771.307 815.166,770.981 813.934,770.532 813.474,770.896 812.233,770.763 811.267,770.659 811.483,771.034 811.107,769.846 810.752,768.724 809.306,768.627 808.343,768.819 807.068,769.073 807.105,767.957 806.113,767.523 805.284,768.356 806.816,770.233 807.321,770.849 808.774,772.621 809.973,772.939 810.015,775.465 810.029,776.285 810.056,777.098 810.269,777.896 810.539,778.904 811.599,779.941 811.457,781.002 811.216,782.805 811.21,783.598 813.402,783.653 814.037,783.669 816.39164,783.17891 816.18901,784.3288 815.81401,786.4568 814.71964,786.2871 813.68121,787.01559 812.899,787.56433 811.51939,787.68779 811.20439,788.42279 810.84739,789.25679 810.929,789.862 810.355,790.67 809.843,791.39 809.164,791.959 808.703,792.722 808.7278,790.78012 805.72263,793.76191 805.161,793.872 803.80991,794.13683 802.94,794.912 802.131,796.037 801.589,796.791 800.459,798.759 799.553,799.055 798.957,798.334 799.725,797.428 799.533,796.645 799.209,795.321 797.264,796.606 796.752,796.975 793.82,799.085 791.58542,796.78642 789.67242,794.27342 788.77842,793.09942 788.868,791.729 788.456,790.354 787.984,788.775 786.829,786.58 786.901,784.927 786.957,783.626 783.48719,779.37327 781.91919,780.55227 781.86919,779.09227 784.224,777.538 785.239,776.739 787.01,775.344 785.829,773.86 784.58,772.431 781.821,769.278 782.61946,763.9019 782.62846,760.1159 782.63146,758.7619 783.06701,758.11431 783.89064,757.19554 784.41686,756.60854 784.16335,755.40094 784.583,754.634 785.03998,753.79884 785.77354,753.20332 786.004,752.469 786.41603,751.15611 784.61537,749.8428 783.87528,750.18246 782.09747,750.99837 780.65611,751.18278 779.1119,751.07846 778.40784,751.03086 776.89738,751.78122 775.28527,751.34481 774.14437,751.03596 774.21046,751.48277 772.76936,751.68491 772.50812,751.72161 770.41891,751.0551 770.61791,751.1831 769.82191,750.6741 769.456,749.544 768.954,748.779 768.245,747.697 767.574,746.631 766.926,745.514 766.594,744.941 766.128,744.24381 765.307,744.49181 763.776,744.95481 762.79891,743.47427 761.35291,743.32327 760.42191,743.22527 760.012,743.979 759.163,744.195 757.91,744.515 756.734,743.64 755.481,743.87 754.678,744.016 754.201,743.498 753.363,743.921 752.537,744.338 751.434,743.842 750.97,743.086 750.612,742.503 750.43173,742.07781 750.27073,741.43281 750.04773,740.53781 748.798,740.63 748.35,739.99 747.49,738.761 748.16437,736.153 748.89937,735.14 750.29337,733.219 747.909,731.331 747.283,729.939 746.623,728.472 747.342,725.065 745.195,725.62 745.234,725.1 745.162,724.596 744.979,724.107 744.138,724.842 743.252,725.289 742.105,725.256" id="path3410"/>
    </g>
  <path class="landxx col" d="M 667.27529,745.84555 C 667.01129,745.77355 666.74729,745.70155 666.48329,745.62955 666.76429,743.90955 668.61029,743.36655 670.01129,744.18955 670.77029,742.72155 668.88229,741.33755 669.63029,739.84055 670.58829,737.91955 672.74129,738.01755 674.54729,737.71055 674.89029,737.65255 674.77029,736.82155 675.23729,737.10255 675.58029,737.30855 676.35929,737.48955 676.36429,736.88455 676.37429,735.67755 677.95329,734.17655 676.99529,733.39055 678.71229,733.34455 679.02929,731.13455 679.53529,729.96255 679.93529,729.03655 680.71629,728.39555 681.53129,727.84655 680.51729,727.01855 681.72029,726.89355 682.03529,726.04655 681.32829,726.07455 680.42529,726.65755 680.16329,725.61455 680.71729,725.47055 681.12329,725.06355 681.09929,724.46255 680.55429,724.27155 679.44829,725.72955 679.33529,724.60655 679.21729,723.42855 679.88929,723.19455 680.81129,722.73355 679.36429,722.74755 680.02529,720.82155 680.22329,720.02955 680.61029,718.47455 680.27029,716.39055 680.12029,714.80655 680.00629,713.60755 679.47429,712.46355 679.39129,711.26855 679.34629,710.61455 681.43829,710.35755 681.08329,708.83055 680.87129,707.91655 678.76829,705.81755 680.16429,705.28855 681.41929,704.81355 680.34229,702.15055 679.79729,701.54255 678.69829,700.31555 678.56329,698.48055 677.37629,697.44655 676.59529,696.76655 677.37529,695.90955 677.82929,695.28755 678.37729,694.53855 677.85029,693.56155 678.50629,692.92555 678.86729,693.35255 679.13129,693.83255 679.29829,694.36555 680.83429,693.29055 683.01929,691.19055 682.30929,689.10455 681.58129,686.96755 680.22329,686.51455 681.53029,684.50055 682.27329,685.46155 683.08129,686.77355 683.72229,687.84155 684.38329,688.94355 686.00629,689.27955 684.55429,690.62055 686.50429,692.85855 685.54729,686.44055 685.27129,685.75355 684.87529,684.76355 689.43829,682.48155 690.02129,681.68155 690.75429,680.67455 691.27829,678.98455 692.50329,678.45355 693.19729,678.15355 694.84129,678.32455 695.23129,677.54555 695.78629,676.43855 694.71129,676.03855 694.93729,675.35655 695.33829,674.14355 695.50529,672.61955 696.21829,671.54155 695.15929,671.43355 695.44629,671.08255 696.16529,670.71455 696.82229,670.37855 696.56829,669.47455 696.55029,668.91055 696.50829,667.58655 698.73829,667.21555 698.73829,666.75255 698.73829,666.05955 701.45429,663.38155 702.08729,663.39855 703.34129,663.43055 704.40029,664.54355 705.65029,664.55755 704.59429,664.41755 704.74429,665.56255 703.77829,665.56555 704.51229,668.28655 706.11829,664.66555 706.48629,663.68455 707.40329,661.23555 708.48529,661.41155 711.06429,661.84155 714.58329,662.42855 715.70329,660.14055 718.47829,658.47755 720.00429,657.56255 724.44329,656.47355 723.07429,653.83055 723.65729,653.65655 725.30629,653.13055 724.37029,654.33455 725.45029,654.16955 724.77029,653.09655 725.95429,652.55855 727.38029,651.91155 728.63329,651.91055 729.85129,652.92855 734.00629,656.40155 725.06129,657.80855 723.72129,659.51855 723.00529,660.43155 722.73429,661.76455 721.88629,662.55755 721.29729,663.10855 720.33929,663.00255 719.81429,663.59955 718.82529,664.72355 717.78829,666.43955 717.15229,667.78755 716.20329,669.79655 716.16329,671.85855 715.62529,673.97555 715.09529,676.05455 713.58429,678.55355 712.20229,680.18355 713.34929,680.21655 714.23529,679.76955 715.08229,679.03155 715.26529,679.51955 715.33729,680.02455 715.29829,680.54455 717.47829,679.98155 716.74729,683.84855 717.85329,685.25455 719.43229,687.26255 719.86629,688.44255 718.94229,690.90955 718.47829,692.14955 717.73329,694.80255 719.41029,695.43155 721.31329,696.14455 720.30529,698.41055 722.26329,698.87255 723.05529,699.05955 723.81329,698.55555 724.58729,698.47255 725.85029,698.33655 727.00129,699.18355 728.26929,699.06755 729.39829,698.96455 730.34429,698.16255 731.49629,698.18455 732.52029,698.20455 733.28229,699.19355 734.25029,699.42155 734.96129,699.58855 735.62429,698.99155 736.27329,699.56055 737.12729,700.30855 737.70529,701.67655 738.33529,702.60355 738.91929,703.46355 739.45529,704.33655 739.98129,705.23055 740.66129,706.38455 740.94229,706.06155 741.96929,706.35855 743.46429,706.79155 744.83929,705.53628 746.78829,706.31825 747.38429,706.55725 748.69729,705.97452 749.34129,705.96052 750.75229,705.92852 751.95229,706.04052 753.19029,705.28952 754.59229,704.43952 756.90829,706.11152 756.17229,707.58652 755.75129,708.42952 754.72629,709.07652 754.54229,710.01952 754.31529,711.18052 754.78329,711.78952 753.68029,712.54052 752.21129,713.54152 752.79329,717.56552 752.64829,719.19752 752.47529,721.13652 753.27829,723.19852 753.64229,725.24552 753.91629,726.78752 756.87229,728.82452 756.39329,730.39752 755.80329,732.33252 752.15629,733.08752 752.23629,735.40752 753.55829,734.41452 756.78829,738.04852 757.20629,739.15152 757.11429,739.45052 757.13809,739.75252 757.07408,740.05852 757.24508,740.61952 757.67829,741.17452 757.67929,741.77552 757.68129,743.02452 758.40729,744.34452 758.71629,745.58152 758.83829,746.07102 759.48662,747.96565 759.62024,748.72378 759.75387,749.4819 759.34891,748.99209 758.74629,749.17952 757.73973,749.49259 757.42986,749.01644 757.67731,748.42645 758.08286,747.45946 757.50521,741.12941 754.98529,741.22552 754.00041,741.26312 751.32829,746.35552 750.57829,743.54752 750.29829,742.50252 748.95429,742.02652 749.10229,743.54352 749.26929,745.24852 747.10329,744.62452 745.94329,744.62452 744.20529,744.62452 742.46629,744.62452 740.72829,744.62452 739.57829,744.62452 738.33629,743.94752 737.20529,744.44652 735.51529,745.19052 736.86029,748.98452 736.68729,750.38452 738.05629,749.45952 741.26729,750.26152 741.88329,751.77252 742.11129,752.33152 742.24029,754.21352 741.17429,754.11652 740.51529,754.05652 740.11629,753.18052 739.40629,753.30752 737.83929,753.58752 735.09929,754.01852 734.98429,755.84752 734.84429,758.07552 734.64829,761.19352 736.57229,762.65052 737.54329,763.38552 738.67629,764.02052 738.62629,765.41052 738.57829,766.74452 739.25729,767.25552 739.77829,768.38152 740.96129,770.93652 739.42929,774.43152 739.06829,777.04452 738.20029,783.33552 738.34129,790.17852 736.39829,796.25152 735.93129,795.09452 735.01429,794.25833 734.18729,793.34133 733.24529,792.29733 732.05302,793.33933 730.96302,792.71933 729.95202,792.14433 732.49875,787.88725 732.85075,787.28725 733.53775,786.11925 735.59793,783.82452 734.55093,782.70352 734.09793,782.21952 733.63527,780.94383 732.90329,781.20052 731.60059,781.65734 730.12029,779.57789 729.79329,779.30752 728.54329,778.27399 727.48629,779.31352 726.16657,779.95706 724.90885,780.57054 724.07683,778.91729 722.92166,778.72352 722.21698,778.60532 720.21733,781.70746 717.87249,780.99679 717.0516,780.748 716.48929,780.75452 715.47029,780.88652 714.06429,781.07052 713.32202,780.92602 712.21602,780.06706 711.35302,779.39606 712.26032,777.61152 711.95029,776.59152 711.52729,775.19952 709.32129,775.95452 709.07429,774.55752 708.89829,773.56252 708.4022,772.42779 708.0022,771.49979 707.5822,770.52479 706.31502,770.94261 705.71402,770.08361 705.06302,769.15261 704.64529,768.88952 703.77429,768.59652 702.66629,768.22452 702.0152,766.72833 701.9312,765.72833 701.7722,763.82233 698.28429,760.77152 696.50929,760.25152 696.16729,760.15052 695.80929,759.75433 695.50629,760.23632 695.17829,760.75732 695.18629,760.76451 694.48729,760.44651 693.44629,759.97251 691.84529,759.41151 690.96829,758.72551 690.28729,758.19251 687.13138,754.21105 686.75738,757.04605 686.56338,758.51905 681.00929,756.64151 679.85629,756.43551 677.98629,756.10151 679.36229,754.51951 677.98429,753.93051 676.77529,753.41351 677.31029,752.38351 675.75329,752.36451 674.52929,752.35051 672.11048,750.9926 671.20548,750.2446 669.68248,748.9886 668.44729,747.44651 667.27529,745.84551" id="co">
    <title>Colombia</title>
  </path>
  <g class="world_map-is_selected landxx coastxx pan" id="pa" transform="translate(-29.9017,-45.0745)">
    <title>Panama</title>
    <path class="world_map-is_selected landxx pan" d="M 668.592,733.032 C 667.901,732.365 669.655,731.536 669.78,730.907 670.017,729.727 668.798,728.438 670.434,727.731 671.768,727.154 669.312,726.326 669.312,725.832 669.312,724.809 670.1134,722.3954 669.8834,721.9944 670.8374,721.04471 671.751,723.23574 672.407,721.872 672.905,722.314 673.632,722.869 673.847,723.528 673.846,724.009 673.822,724.489 673.775,724.967 673.862,725.344 674.527,724.931 674.472,725.48 674.237,727.834 676.552,726.985 678.023,727.272 677.741,726.772 677.429,726.293 677.086,725.832 678.331,725.452 679.545,728.481 680.986,728.68 684.02,729.098 685.723,726.736 688.283,725.78 690.038,725.125 692.088,724.603 693.418,723.259 694.145,722.524 694.553,721.583 695.724,721.573 697.035,721.562 698.307,722.144 699.621,722.016 699.385,722.314 699.169,722.626 698.973,722.953 701.534,722.667 705.022,723.265 706.901,725.23 707.795,726.165 709.801,730.07 711.429,729.577 710.22,731.439 711.5964,732.2704 712.2284,734.1954 712.9094,736.2674 710.745,738.357 709.197,739.441 709.03,738.908 708.766,738.427 708.405,738.001 707.878,738.76885 708.17859,738.89272 708.127,739.49 708.0738,740.10643 707.37671,740.65737 706.92179,742.0284 704.96979,740.6204 703.173,737.215 703.077,734.833 704.714,735.442 704.149,733.472 704.847,732.728 705.621,731.901 707.661,733.948 708.333,734.329 707.883,733.779 707.252,733.463 706.707,733.027 705.932,732.407 706.073,731.373 705.597,730.585 705.798,731.192 705.467,731.726 704.949,732.025 705.272,730.575 704.046,732.084 703.509,730.728 703.677,731.313 703.653,731.889 703.437,732.457 702.604,730.924 702.554,729.374 701.196,728.589 700.583,728.235 700.002,727.818 699.452,727.373 698.473,726.58 698.96,726.619 697.831,726.685 696.274,726.775 693.629,727.108 693.184,729.086 692.845,730.595 690.675,733.181 688.819,732.88 685.893,732.406 689.042,736.735 689.699,737.455 690.203,738.007 691.279,739.139 690.665,739.959 690.123,740.684 688.87,740.205 688.197,740.804 687.317,741.587 685.288,742.805 684.04,742.116 683.744,741.953 683.85,739.959 683.657,739.476 683.278,738.527 683.563,737.074 682.99,736.274 682.601,736.727 682.193,736.751 681.766,736.345 683.002,738.733 680.298,739.33 679.174,737.321 678.22,735.617 678.253,734.366 676.232,733.645 675.572,733.41 674.894,733.992 674.444,733.274 673.882,732.38 673.134,733.088 672.694,732.385 671.983,733.399 670.937,732.331 670.03,732.817 669.022,733.356 669.74,734.535 669.022,735.194 669.107,734.30901 668.9237,733.54034 668.592,733.032" id="path2682"/>
    <path d="M 672.913,733.248 C 672.914,733.774 673.082,733.751 673.417,733.176 673.223,733.049 673.055,733.073 672.913,733.248" id="path4792"/>
    <path d="M 677.665,738.504 C 677.212,738.966 676.432,739.313 676.673,740.117 676.872,740.781 677.539,741.201 678.169,740.736 677.698,740.067 677.849,739.251 677.665,738.504" id="path4794"/>
    <path d="M 681.336,739.944 C 681.89,739.779 682.37,739.491 682.776,739.08 682.223,739.245 681.743,739.533 681.336,739.944" id="path4796"/>
    <path d="M 699.913,731.448 C 699.193,731.565 699.112,732.408 699.265,732.96 700.274,733.109 700.094,732.052 699.913,731.448" id="path4802"/>
  </g>
  <path class="landxx cri" d="M 617.88329,669.88555 C 618.31029,669.53855 619.46229,667.92555 619.54129,667.38955 619.66929,666.52255 617.72629,665.46455 618.46229,665.02955 619.33729,664.51355 619.56329,663.77255 620.15729,662.78255 620.39129,662.39155 623.26129,663.78655 623.67529,663.99155 625.68929,664.99055 625.42222,664.33894 627.29038,663.82128 628.11178,663.59367 628.47195,664.86948 629.83283,664.62736 630.44583,665.42636 630.65177,666.19016 631.71229,666.38955 633.04352,666.63984 634.97217,666.69027 634.91211,665.27536 635.50011,666.27436 634.92331,666.44555 635.49629,667.31755 635.97529,668.04855 636.26829,668.90455 636.58829,669.71255 637.26429,671.41955 637.93829,672.01655 639.07429,673.15055 640.10329,674.17655 640.63729,675.82055 641.95029,676.49855 642.67229,676.87055 642.56429,677.66255 641.66629,677.39255 640.98129,677.18655 640.8135,676.36134 639.9575,676.97234 640.3425,677.64534 639.5062,679.27324 639.47208,680.38174 639.43698,681.52287 642.19477,681.89902 640.31629,682.87655 638.79995,683.66562 640.83435,685.36321 639.51829,686.51955 638.0654,687.79612 639.42729,688.55055 639.12229,690.12055 639.21029,689.32755 638.86529,688.71555 638.35329,688.14655 638.02829,687.92555 637.73229,687.67155 637.46529,687.38355 637.55429,687.08455 637.63229,686.78255 637.69729,686.47755 637.41229,685.52355 636.31829,683.41955 635.01729,684.21555 635.26629,685.37555 636.76529,685.80455 636.31329,687.16755 635.24129,686.83255 633.56329,686.45555 633.30129,685.12455 633.13029,684.25855 634.29129,683.59155 634.37029,682.70355 634.56529,680.51055 632.17229,679.67655 630.75829,678.57455 629.89729,677.90355 629.68429,677.42955 628.49129,677.39855 627.31629,677.36855 626.62529,676.79455 626.67529,675.56655 626.79429,672.65355 623.32529,672.66055 622.20229,670.60755 622.42529,671.16455 622.47329,671.76055 622.67929,672.32055 623.00529,673.20755 623.79929,673.09855 624.41329,673.63055 625.26829,674.37155 624.25229,675.87755 623.45529,676.18955 622.48929,676.56755 621.66829,674.52955 620.62229,674.29655 618.86229,673.90055 617.52229,671.70755 617.88329,669.88555" id="cr">
    <title>Costa Rica</title>
  </path>
  <path class="landxx nic" d="M 606.79529,646.55755 C 607.70229,646.93855 607.73029,647.89455 608.88329,647.78255 609.04381,647.51283 608.54329,647.23679 609.00895,647.16471 609.48282,647.10491 610.77879,647.03305 611.21629,646.90155 612.16529,646.61755 611.56529,645.31455 612.23729,644.84255 612.73929,644.49055 613.52429,644.76555 613.64629,644.04855 613.80129,643.14155 612.99729,641.30255 613.56329,640.58155 614.08629,639.91455 615.28829,640.45155 615.94329,640.53755 616.77229,640.64455 617.10629,639.91355 617.57529,639.35755 619.33329,637.27555 619.56829,638.75755 621.41129,639.93355 621.71652,638.18578 624.07674,637.01136 625.53429,635.78955 626.52678,635.71535 625.47869,635.01404 626.61729,634.05955 627.47669,633.33912 627.45565,632.16837 628.37865,631.47337 629.42465,630.68537 629.82232,631.99977 630.67629,632.46901 631.91525,633.1498 632.49197,632.41191 633.6623,632.00691 634.93306,631.56716 637.14929,631.43555 638.33129,630.79055 638.86829,630.49755 639.29729,629.99555 639.91529,629.85355 640.68529,629.67755 641.44629,629.98555 642.21929,629.85355 641.56329,630.16655 641.20429,631.55955 640.34729,630.79055 639.53729,632.19955 641.62129,634.53055 640.92329,636.33455 640.24829,638.08155 638.84829,639.08055 638.27529,640.98455 637.56229,643.35555 637.85129,645.72655 637.45929,648.12155 637.26929,649.28455 637.76929,652.35655 636.38729,652.53455 636.43129,651.17355 637.20329,650.17955 636.96329,648.71855 636.04629,648.94755 636.93429,650.61455 635.23529,651.16655 636.38829,652.65355 635.54229,654.20455 635.59529,655.84655 635.32929,655.39555 635.25729,654.91555 635.37929,654.40655 635.21329,655.39155 634.58329,656.26755 634.58729,657.28755 636.44329,656.62155 634.98229,659.10455 634.61429,659.71055 633.73829,661.15355 633.10829,662.83955 634.23029,664.44155 634.73029,665.15455 635.67329,665.80955 634.15429,666.41455 633.26529,666.76855 631.73929,666.70955 630.97329,666.10155 630.74329,665.90355 630.54829,665.67555 630.38829,665.41655 629.74129,664.46355 629.96229,664.80555 629.09129,664.65455 628.42229,664.53855 628.00629,663.73155 627.27529,663.88355 626.68329,664.00555 626.1442,664.2051 625.6312,664.4851 625.30845,664.66085 624.46974,664.37726 624.04377,664.18805 621.86142,663.21868 620.87667,662.75806 620.57833,662.72955 620.42916,662.71525 619.85214,662.66975 620.80614,662.50743 621.41418,662.60463 627.87863,666.01466 626.18839,661.53455 625.84241,661.15542 624.29814,658.33894 623.95588,657.99257 623.62727,657.66001 621.63561,656.30857 621.43739,655.76999 621.22486,655.19254 619.59968,654.81852 619.27526,654.87459 617.93435,655.10633 618.80326,658.91338 618.53953,658.48573 618.85935,658.8155 619.60874,661.94289 620.79835,662.50982 620.63825,662.49642 620.83735,662.82778 620.51284,662.723 619.64899,662.44407 619.86358,665.37241 618.67729,662.8016 618.01114,661.35796 616.61129,660.3626 615.50729,659.3026 613.31929,657.2016 612.40729,654.3336 610.06529,652.2986 608.56129,650.9916 605.32129,648.4166 606.79529,646.5576" id="ni">
    <title>Nicaragua</title>
  </path>
  </svg>