<svg xmlns="http://www.w3.org/2000/svg" class="world_map zoom2" height="127" id="svg2985" version="1.1" viewBox="2239 690 326 250" width="127">
  <title>World Map</title>
  <defs id="defs2987"/>
  <style id="style_css_sheet" type="text/css">
/*
 * Below are Cascading Style Sheet (CSS) definitions in use in this file,
 * which allow easily changing how countries are displayed.
 *
 */
/* --- Custom styles for Peace Corps --- */
.world_map .world_map-is_selected.circlexx {
  opacity:1;
}
.world_map .world_map-is_selected.landxx {
  fill: #C94112 !important;
}
.world_map .landxx {
  fill: #F2EFE8;
  stroke: #ffffff;
  fill-rule: evenodd;
}
.world_map.zoom6 .landxx {
  stroke-width: 0.1px;
}
.world_map.zoom5 .landxx {
  stroke-width: 1px;
}
.world_map.zoom4 .landxx {
  stroke-width: 2px;
}
.world_map.zoom3 .landxx {
  stroke-width: 3px;
}
.world_map.zoom2 .landxx {
  stroke-width: 4px;
}
.world_map.zoom1 .landxx {
  stroke-width: 5px;
}
.world_map .coastxx {
  fill: #F2EFE8;
  stroke: #ffffff;
  stroke-width: 2px;
  fill-rule: evenodd;
}
.world_map .oceanxx {
  opacity: 1;
  color: #ccc;
  fill: #ffffff;
  stroke: #ffffff;
  stroke-width: 0.5;
  stroke-miterlimit: 1;
}

/* --- Original Styles --- *
/*
 * Circles around small countries
 *
 * Change opacity to 1 to display all circles.
 *
 */
.circlexx
{
   opacity:0;
   fill-opacity:0;
   fill:#e0e0e0;
   stroke:#000000;
   stroke-width:0.5;
}

/*
 * Smaller circles around French DOMs and Chinese SARs
 *
 * Change opacity to 1 to display all subnational circles.
 *
 */
.subxx
{
   opacity:0;
   stroke-width:0.3;
}

/*
 * Circles around small, unrecognized countries
 *
 * Change opacity to 1 to display all circles.
 *
 */
.unxx
{
   opacity:0;
   fill:#e0e0e0;
   stroke:#000000;
   stroke-width:0.3;
}

/*
 * Circles around small countries, but with no permanent residents 
 *
 * Change opacity to 1 to display all circles.
 *
 */
.noxx
{
   opacity:0;
   fill:#e0e0e0;
   stroke:#000000;
   stroke-width:0.5;
}

/*
 * land
 */
.landxx
{
}
/*
 * Styles for coastlines of islands with no borders
 */


/*
 * Styles for nations with limited recognition
 */
.limitxx
{
   fill: #e0e0e0;
   stroke:#ffffff;
   stroke-width:0;
   fill-rule:evenodd;
}

/*
 * Styles for nations with no permanent population.
 */
.antxx
{
   fill: #e0e0e0;
   stroke:#ffffff;
   stroke-width:0;
   fill-rule:evenodd;
}

/*
 * Ocean
 */


/*
 * Additional style rules
 *
 * The following are examples of colouring countries.  You can substitute these with your own styles to colour the countries on the map.
 *
 * Color a few countries:
 *
 * .gb, .au, .nc
 * {
 *    fill:       #ff0000;
 * }
 *
 * Color a few small country circles (and the countries):
 *
 * .ms, .ky
 * {
 *    opacity:    1;
 *    fill:       #ff0000;
 * }
 *
 */

</style>
  <path class="oceanxx" d="M 2079.5058,1457.5605 615.24779,1457.5605 C 615.13079,1457.5605 615.07079,1457.5505 614.95179,1457.5215 611.67679,1456.6515 608.40179,1455.7815 605.12779,1454.9105 599.15079,1453.3225 593.22879,1451.5225 587.30779,1449.7385 564.39379,1442.8315 541.76579,1434.6995 519.46979,1426.0115 495.81079,1416.7935 472.34979,1407.0946 449.19179,1396.6816 426.78379,1386.6056 405.17679,1375.0536 383.76379,1363.0356 363.11779,1351.4496 343.01079,1338.8296 323.37979,1325.5996 302.29179,1311.3876 281.47879,1296.8506 261.05379,1281.7006 242.35079,1267.8276 223.73679,1253.6306 206.05279,1238.4686 186.98679,1222.1216 167.82379,1205.7706 150.35279,1187.6906 132.97779,1169.7106 116.33279,1151.0606 100.15679,1131.9976 84.352777,1113.3736 70.086776,1093.4716 56.901786,1072.9246 44.046786,1052.8916 32.093776,1032.1356 22.469776,1010.3426 17.516776,999.12753 12.408776,987.76556 8.7017761,976.06056 5.0657761,964.58166 1.5997761,953.04259 -1.5932239,941.43054 -8.0102239,918.09356 -14.055224,894.78356 -18.234224,870.92056 -22.491222,846.60856 -24.894222,822.19856 -26.943222,797.62156 -28.947222,773.58556 -28.829222,749.40156 -27.225222,725.34856 -25.648222,701.69856 -23.363222,677.92456 -19.274222,654.56456 -15.018224,630.25156 -9.3842239,606.45156 -2.8412239,582.66156 3.5687761,559.35256 10.483776,536.34856 20.265776,514.19856 30.320776,491.42956 42.318786,469.90956 55.502786,448.81656 68.512776,428.00356 83.108777,408.26756 98.686787,389.31756 113.73479,371.01156 129.68979,353.25256 146.15179,336.20856 163.77479,317.96256 182.64579,301.14556 201.89579,284.64756 220.33379,268.84456 239.55379,253.98456 258.95979,239.39656 278.42779,224.76056 298.39379,210.83356 318.55579,197.17556 339.26979,183.14456 360.47879,169.92056 382.15079,157.42556 403.46579,145.13656 425.31479,133.98856 447.60479,123.59356 469.58579,113.34356 492.14979,104.17656 514.74579,95.37556 537.44879,86.532565 560.37879,78.195565 583.63479,70.914565 589.69379,69.017565 595.80079,67.276565 601.90879,65.549565 604.63079,64.779565 607.36079,64.045565 610.09479,63.318565 611.59979,62.918565 613.56579,61.986565 615.13379,61.986565 L 2079.9638,61.986565 C 2079.9798,61.986565 2079.9958,61.986565 2080.0118,61.986565 2079.8448,61.986565 2079.6788,61.986565 2079.5118,61.986565 2102.8268,68.191565 2125.8778,75.323565 2148.5448,83.611565 2171.6378,92.054565 2194.6158,100.87956 2217.2348,110.52956 2240.5208,120.46556 2263.4848,130.95256 2285.8828,142.76456 2306.9808,153.89056 2327.8178,165.78556 2347.8608,178.72156 2368.9418,192.32656 2389.7498,206.29256 2410.2218,220.80056 2429.7368,234.62956 2448.9938,248.98756 2467.6208,263.99256 2486.8818,279.50856 2506.0408,295.30556 2524.0538,312.27356 2541.8708,329.05756 2558.7508,346.67256 2574.9408,365.03656 2591.2478,383.53256 2607.1478,402.30656 2621.4508,422.41856 2635.3488,441.96256 2648.4468,462.42756 2659.5898,483.67756 2671.1238,505.67356 2681.1048,528.35656 2688.6188,552.05056 2692.2518,563.50656 2695.3368,575.14756 2698.5608,586.72256 2701.7738,598.25356 2704.9238,609.81956 2707.4578,621.52456 2712.6258,645.40556 2716.6718,669.47856 2719.1178,693.79656 2721.5718,718.19256 2723.1798,742.56356 2722.9808,767.09056 2722.7908,790.65456 2720.6908,814.43756 2717.7688,837.81156 2714.7368,862.07056 2710.5198,886.16156 2704.6398,909.90056 2701.6808,921.84356 2698.3948,933.69556 2695.0378,945.53154 2691.7468,957.13466 2688.5558,968.83466 2684.3988,980.16156 2676.0918,1002.8036 2666.1688,1024.8836 2654.1338,1045.8046 2641.9958,1066.9066 2628.8498,1087.4866 2614.2378,1106.9696 2599.1658,1127.0666 2582.6678,1145.9446 2565.8948,1164.6296 2549.8298,1182.5266 2532.8918,1199.7316 2514.8648,1215.6616 2496.0788,1232.2646 2476.8978,1248.3126 2457.1558,1263.7656 2438.2988,1278.5276 2418.9668,1292.7306 2399.3188,1306.4206 2378.7018,1320.7866 2357.7538,1334.6106 2336.4758,1347.9776 2326.4088,1354.3016 2316.0058,1360.1326 2305.6418,1365.9516 2295.0348,1371.9086 2284.3858,1378.0166 2273.4448,1383.3436 2250.7338,1394.3986 2227.7768,1404.7266 2204.3888,1414.2665 2181.7848,1423.4875 2159.0678,1432.2695 2136.0228,1440.3345 2117.4118,1446.8465 2098.5568,1452.4975 2079.5058,1457.5605" id="ocean"/>
  <g class="landxx coastxx idn" id="id" transform="translate(-29.9017,-45.0745)">
    <title>Indonesia</title>
    <path d="M 2324.809,838.583 C 2324.301,838.904 2324.444,839.144 2325.239,839.303 2325.095,839.063 2324.952,838.823 2324.809,838.583" id="path2528"/>
    <path d="M 2326.318,819.793 C 2325.666,820.012 2325.592,820.755 2325.818,821.303 2325.857,820.757 2326.024,820.254 2326.318,819.793" id="path2530"/>
    <path d="M 2327.479,822.093 C 2326.945,821.975 2326.895,822.215 2327.329,822.814 2327.378,822.573 2327.429,822.333 2327.479,822.093" id="path2532"/>
    <path d="M 2331.358,812.813 C 2330.45,813.007 2330.596,814.809 2331.574,814.533 2332.148,814.372 2331.574,813.066 2331.358,812.813" id="path2540"/>
    <path d="M 2333.088,817.413 C 2333.065,817.559 2333.042,817.706 2333.019,817.852 2333.534,817.817 2334.038,817.721 2334.529,817.563 2334.048,817.519 2333.567,817.469 2333.088,817.413" id="path2542"/>
    <path d="M 2335.038,810.213 C 2335.038,811.344 2336.938,812.773 2337.76,811.519 2338.346,810.626 2335.488,810.257 2335.038,810.213" id="path2544"/>
    <path d="M 2335.898,818.493 C 2335.851,818.733 2335.804,818.973 2335.757,819.213 2337.614,819.34 2339.212,820.354 2341.007,820.734 2341.768,820.895 2342.579,821.24 2343.372,821.029 2344.253,820.795 2345.249,820.268 2346.187,820.443 2345.423,819.322 2343.458,819.395 2342.278,819.253 2340.148,818.996 2338.042,818.714 2335.898,818.493" id="path2546"/>
    <path d="M 2349.218,876.813 C 2349.145,877.053 2349.072,877.293 2348.998,877.533 2350.484,877.039 2352.092,877.262 2353.627,877.254 2355.132,877.247 2356.02,876.477 2357.176,875.589 2357.684,875.199 2360.837,871.318 2360.203,870.532 2358.371,868.264 2357.176,868.028 2354.369,869.199 2351.483,870.404 2350.362,874.198 2349.218,876.813" id="path2548"/>
    <path d="M 2358.068,877.393 C 2358.311,877.32 2358.554,877.247 2358.797,877.173 2358.424,876.44 2358.461,875.031 2357.254,875.518 2355.65,876.164 2356.926,877.356 2358.068,877.393" id="path2550"/>
    <path d="M 2357.718,862.853 C 2357.752,863.421 2358.112,863.792 2358.649,863.933 2358.598,863.385 2358.262,862.973 2357.718,862.853" id="path2552"/>
    <path class="landxx idn" d="M 2303.638,813.313 C 2303.868,812.747 2303.772,812.243 2303.348,811.802 2305.594,811.231 2307.458,811.105 2309.207,809.494 2310.83,807.998 2312.52,807.361 2314.702,807.899 2316.908,808.443 2318.009,810.072 2319.908,810.891 2321.83,811.719 2323.81,810.618 2325.597,812.012 2324.231,813.026 2325.544,814.387 2326.128,815.409 2326.917,816.79 2326.018,817.942 2325.509,819.216 2324.207,822.48 2326.147,826.38 2327.617,829.222 2328.121,828.488 2327.43,826.838 2328.257,826.294 2329.421,825.527 2329.277,828.96 2329.288,829.286 2329.312,829.939 2329.528,830.099 2329.974,830.536 2330.615,831.163 2330.314,832.009 2330.883,832.649 2331.986,833.887 2334.248,834.549 2335.519,833.231 2336.443,832.273 2337.394,831.424 2338.34,830.493 2339.334,829.514 2339.525,828.203 2340.853,827.363 2342.043,826.61 2341.701,823.819 2343.218,823.81 2345.016,823.799 2345.882,823.969 2347.564,823.092 2348.769,822.464 2348.826,822.043 2348.289,820.917 2347.877,820.05 2350.516,818.822 2351.049,818.539 2352.389,817.826 2353.63,817.333 2355.048,818.064 2356.899,819.019 2359.107,819.686 2360.766,820.936 2362.16,821.986 2363.745,822.565 2365.296,823.35 2366.357,823.887 2368.44,825.529 2369.686,825.093 2371.258,824.542 2371.915,825.74 2373.525,825.718 2375.215,825.695 2376.054,827.441 2377.729,827.214 L 2376.113,858.197 C 2375.939,859.871 2374.667,861.067 2374.74,862.845 2374.77,863.578 2375.719,863.974 2375.719,864.434 2375.719,865.551 2375.529,866.698 2375.452,867.814 2375.091,873.068 2374.691,878.339 2374.199,883.584 2372.044,882.497 2371.6,880.033 2369.962,878.471 2369.152,877.699 2366.063,875.736 2367.509,874.374 2366.566,875.112 2364.884,874.799 2363.755,875.248 2362.794,875.63 2361.016,875.718 2361.529,874.155 2361.05,874.742 2359.824,875.849 2359.008,875.857 2357.774,875.869 2359.215,873.745 2359.343,873.445 2359.761,872.466 2361.131,870.269 2360.135,869.735 2359.237,869.254 2358.979,868.07 2358.288,867.384 2359.465,866.369 2361.025,868.144 2361.958,866.594 2360.332,868.217 2358.208,865.659 2357.068,864.655 2358.574,862.925 2360.292,864.944 2361.818,865.014 2360.49,864.498 2359.362,863.579 2358.148,862.854 2359.565,862.605 2358.345,862.169 2357.877,861.68 2357.212,860.988 2356.558,860.155 2356.291,859.215 2355.947,858.006 2354.827,855.742 2356.418,855.144 2354.848,855.724 2354.755,854.029 2356.198,853.774 2355.66,853.773 2354.316,854.628 2353.898,853.995 2353.397,853.238 2354.402,852.245 2354.038,851.405 2353.576,853.251 2352.211,850.305 2351.609,850.045 2350.582,849.601 2350.521,849.346 2349.737,848.986 2349.131,848.708 2347.67,848.297 2347.306,847.688 2346.805,846.848 2343.707,846.78 2342.745,846.196 2341.235,845.28 2339.48,844.282 2337.791,843.738 2336.161,843.214 2333.759,843.698 2332.337,842.997 2331.067,842.372 2329.378,841.507 2328.842,840.097 2328.344,838.787 2330.435,838.993 2331.148,838.874 2330.278,838.611 2329.183,838.166 2328.486,839.047 2327.701,840.039 2327.183,838.512 2326.467,838.294 2326.456,839.77 2324.154,838.685 2325.238,837.654 2323.664,837.669 2323.049,837.686 2322.648,835.773 2322.578,836.329 2322.277,836.783 2321.826,836.212 2321.189,835.405 2321.693,834.901 2321.619,834.058 2321.484,832.515 2323.02,831.643 2323.078,830.083 2322.697,830.893 2321.348,831.18 2321.348,832.19 2321.348,833.092 2321.427,834.494 2320.128,834.413 2321.255,834.917 2320.361,835.505 2319.988,836.133 2319.735,836.36 2319.496,836.6 2319.268,836.853 2319.229,837.332 2319.203,837.812 2319.188,838.293 2318.837,839.315 2316.757,840.395 2315.674,840.093 2314.715,839.825 2314.154,837.581 2314.121,836.742 2314.099,836.176 2314.849,836.123 2315.237,835.943 2316.264,835.465 2314.687,834.182 2314.947,833.333 2313.708,834.08 2312.171,830.081 2310.434,830.011 2307.742,829.901 2309.189,828.049 2311.126,827.853 2313.14,827.648 2314.591,829.644 2315.987,827.307 2317.033,825.558 2320.229,825.001 2319.406,827.853 2319.628,827.368 2319.795,826.865 2319.906,826.343 2320.192,827.724 2321.777,826.016 2321.716,827.493 2321.932,826.294 2322.345,826.961 2322.647,827.573 2322.938,826.946 2322.988,826.133 2322.426,825.623 2322.924,825.728 2323.407,825.682 2323.876,825.483 2323.46,824.982 2323.483,824.502 2323.946,824.043 2322.406,825.189 2323.592,823.223 2323.876,822.893 2322.226,823.031 2321.337,824.08 2319.564,823.805 2318.459,823.634 2316.984,824.679 2316.031,824.328 2314.858,823.897 2314.365,824.697 2313.445,823.783 2313.127,823.467 2312.22,824.046 2311.914,824.065 2310.895,824.128 2310.086,823.199 2309.326,822.673 2309.514,822.428 2309.707,822.188 2309.906,821.953 2309.094,822.095 2308.362,821.145 2308.652,820.373 2308.76,820.085 2309.149,819.691 2309.093,819.358 2308.953,818.51 2307.63,819.89 2308.535,818.353 2307.799,818.497 2307.614,818.507 2307.675,817.704 2306.636,819.211 2304.618,816.576 2303.715,816.624 2304.575,817.757 2302.515,817.584 2301.986,817.219 2300.52,816.203 2303.37,814.327 2303.638,813.313" id="path2562"/>
    <path d="M 2267.928,837.793 C 2268.985,837.267 2271.302,836.917 2271.975,835.908 2272.827,834.632 2272.359,833.696 2271.029,833.403 2272.085,832.212 2269.79,831.478 2268.998,831.281 2267.51,830.911 2266.185,831.374 2264.709,831.534 2262.902,831.731 2262.525,832.626 2263.339,834.368 2264.193,836.199 2266.254,836.897 2267.928,837.793" id="path2424"/>
    <path d="M 2268.358,770.184 C 2269.144,769.371 2269.335,768.1 2269.186,767.021 2269.11,766.466 2268.625,764.822 2268.113,766.139 2267.757,767.056 2268.82,767.783 2268.472,768.478 2268.154,769.117 2267.512,769.591 2268.358,770.184" id="path2428"/>
    <path d="M 2272.898,806.973 C 2271.996,806.586 2271.28,808.614 2271.887,809.133 2272.938,810.031 2273.04,807.519 2272.898,806.973" id="path2432"/>
    <path d="M 2272.898,809.933 C 2272.031,810.384 2272.471,811.741 2273.478,811.443 2273.369,810.907 2273.176,810.403 2272.898,809.933" id="path2434"/>
    <path d="M 2273.618,797.253 C 2273.4,797.596 2273.528,797.729 2273.838,798.043 2273.765,797.78 2273.691,797.516 2273.618,797.253" id="path2438"/>
    <path d="M 2275.128,807.333 C 2274.891,807.648 2274.65,807.961 2274.408,808.272 2274.164,808.037 2273.924,807.796 2273.688,807.552 2273.026,809.55 2274.001,808.821 2274.627,810.212 2274.767,810.52 2273.842,811.842 2274.827,811.605 2275.361,811.477 2275.937,811.171 2276.132,811.874 2276.356,812.685 2279.229,811.325 2276.829,810.664 2275.849,810.394 2275.618,809.829 2276.147,808.98 2276.479,808.452 2275.423,807.627 2275.128,807.333" id="path2440"/>
    <path d="M 2274.118,801.433 C 2273.935,801.773 2273.788,801.684 2274.118,802.154 2274.118,801.913 2274.118,801.673 2274.118,801.433" id="path2442"/>
    <path d="M 2274.479,817.053 C 2273.366,817.918 2273.946,819.475 2275.269,819.654 2275.828,819.729 2276.322,819.294 2276.875,819.294 2277.476,819.294 2278.075,819.485 2278.677,819.519 2280.729,819.634 2278.715,817.665 2278.101,817.352 2276.756,816.665 2275.805,816.014 2274.479,817.053" id="path2444"/>
    <path d="M 2274.408,798.263 C 2274.241,798.24 2274.075,798.216 2273.908,798.193 2274.038,798.48 2274.205,798.744 2274.408,798.984 2274.408,798.743 2274.408,798.503 2274.408,798.263" id="path2446"/>
    <path d="M 2276.278,804.603 C 2276.339,805.497 2275.989,806.431 2276.619,807.206 2277.228,807.955 2277.876,808.316 2278.231,809.271 2278.62,810.314 2280.552,812.563 2281.467,812.013 2278.863,809.345 2278.559,806.126 2278.044,802.694 2277.82,801.207 2277.88,799.984 2279.732,800.928 2281.307,801.731 2283.592,802.218 2285.346,802.373 2284.244,801.834 2284.224,800.49 2283.33,799.784 2282.434,799.074 2279.9,799.19 2280.997,797.356 2281.729,796.132 2283.663,796.093 2284.029,794.569 2284.277,793.541 2283.55,791.816 2283.986,791.063 2282.141,790.594 2280.123,792.418 2279.376,793.944 2281.099,794.027 2279.417,794.921 2278.938,795.11 2277.896,795.521 2278.351,796.642 2277.859,797.407 2277.348,798.2 2276.267,797.386 2275.946,796.858 2275.373,795.919 2276.563,795.311 2277.201,794.891 2278.517,794.025 2279.377,791.357 2278.656,789.839 2278.347,789.189 2277.254,788.953 2277.519,788.082 2277.773,787.247 2278.91,786.731 2278.585,785.736 2276.825,785.749 2276.025,787.971 2275.605,789.343 2275.159,790.797 2274.004,793.368 2274.266,794.807 2274.394,795.514 2274.699,796.252 2275.096,796.849 2275.255,797.133 2275.482,797.341 2275.776,797.472 2275.297,798.072 2275.126,798.807 2275.201,799.561 2275.298,800.547 2275.639,801.111 2276.226,801.845 2276.817,802.582 2276.409,803.78 2276.278,804.603" id="path2452"/>
    <path d="M 2275.348,814.823 C 2275.085,815.016 2274.822,815.21 2274.559,815.403 2275.094,815.474 2275.598,815.378 2276.069,815.113 2275.828,815.017 2275.588,814.92 2275.348,814.823" id="path2454"/>
    <path d="M 2274.908,832.893 C 2274.474,833.495 2274.668,833.735 2275.488,833.614 2275.295,833.373 2275.102,833.133 2274.908,832.893" id="path2456"/>
    <path d="M 2275.988,831.963 C 2275.814,832.223 2275.744,832.51 2275.778,832.823 2276.05,832.826 2276.314,832.779 2276.568,832.682 2276.4,832.422 2276.207,832.183 2275.988,831.963" id="path2458"/>
    <path d="M 2277.868,829.873 C 2277.64,830.242 2277.401,830.602 2277.148,830.953 2277.717,830.834 2277.999,830.451 2277.868,829.873" id="path2462"/>
    <path d="M 2293.348,834.692 C 2294.956,835.622 2296.604,836.268 2298.077,837.419 2299.791,838.757 2300.031,836.751 2299.753,835.414 2299.581,834.591 2298.476,834.326 2298.313,833.543 2298.146,832.735 2298.146,831.833 2297.345,831.355 2296.605,830.913 2296.325,830.336 2295.358,830.523 2294.387,830.711 2293.456,830.576 2292.666,829.951 2291.897,829.342 2290.911,828.88 2289.911,828.911 2288.911,828.942 2288.444,829.755 2287.559,829.949 2286.778,830.119 2286.478,829.712 2286.063,829.224 2285.916,829.05 2283.467,829.352 2283.114,829.327 2279.749,829.083 2276.201,831.472 2277.579,835.204 2277.606,834.444 2278.653,831.356 2279.739,831.603 2279.394,832.619 2281.198,834.242 2282.063,834.403 2282.418,834.469 2286.466,831.105 2285.499,833.693 2286.132,833.554 2289.863,835.055 2290.075,833.768 2290.258,832.661 2293.155,833.58 2293.348,834.692" id="path2464"/>
    <path d="M 2278.298,835.703 C 2277.726,835.977 2277.289,836.546 2277.428,837.213 2278.278,837.106 2278.867,836.446 2279.668,836.213 2278.897,837.505 2280.701,836.268 2280.528,835.053 2279.717,835.109 2279.152,835.875 2278.298,835.703" id="path2466"/>
    <path d="M 2279.448,784.8 C 2279.666,784.472 2279.824,784.578 2279.518,784.08 2279.495,784.32 2279.472,784.56 2279.448,784.8" id="path2468"/>
    <path d="M 2280.598,787.176 C 2283.305,786.567 2284.303,784.268 2282.689,781.848 2282.371,782.629 2281.49,782.827 2280.958,783.406 2280.037,784.406 2280.015,786.029 2280.598,787.176" id="path2470"/>
    <path d="M 2281.468,835.053 C 2281.257,835.321 2281.23,835.611 2281.388,835.923 2281.691,835.779 2281.957,835.586 2282.189,835.343 2281.948,835.246 2281.708,835.149 2281.468,835.053" id="path2474"/>
    <path d="M 2282.548,834.843 C 2282.281,835.59 2282.869,836.226 2283.628,835.853 2283.54,835.285 2283.137,834.867 2282.548,834.843" id="path2478"/>
    <path d="M 2288.958,804.603 C 2289.334,805.249 2289.901,805.781 2290.608,806.043 2290.108,805.526 2289.611,804.936 2288.958,804.603" id="path2482"/>
    <path d="M 2293.778,822.093 C 2294.27,822.259 2294.773,822.379 2295.288,822.453 2295.841,822.44 2296.136,821.939 2296.728,822.022 2296.147,821.225 2297.36,820.837 2296.738,819.627 2296.068,818.33 2293.196,820.473 2292.051,820.653 2292.229,821.464 2292.954,822.063 2293.782,822.093" id="path2484"/>
    <path d="M 2292.988,814.533 C 2292.689,814.681 2292.423,814.875 2292.188,815.113 2292.878,815.495 2293.145,815.302 2292.988,814.533" id="path2486"/>
    <path d="M 2294.788,804.673 C 2294.908,804.913 2295.028,805.153 2295.148,805.393 2295.244,804.791 2295.059,804.98 2294.788,804.673" id="path2488"/>
    <path d="M 2299.468,808.413 C 2302.477,809.264 2299.468,806.37 2298.819,805.683 2299.668,805.563 2300.237,806.474 2300.694,807.021 2301.548,808.042 2301.777,807.163 2302.605,807.577 2304.172,808.36 2304.313,806.119 2303.172,805.494 2302.097,804.906 2296.485,804.064 2296.368,806.182 2297.801,805.217 2297.014,806.776 2296.148,806.472 2296.836,807.354 2298.403,806.752 2298.097,808.342 2298.181,807.798 2298.574,807.386 2299.108,807.262 2299.248,807.64 2299.367,808.023 2299.468,808.413" id="path2490"/>
    <path d="M 2297.378,811.803 C 2297.119,813.159 2300.766,812.681 2300.399,811.293 2299.627,812.155 2298.337,811.503 2297.378,811.803" id="path2494"/>
    <path d="M 2298.818,808.272 C 2298.388,808.45 2298.052,808.736 2297.808,809.132 2298.434,809.512 2299.836,808.695 2298.818,808.272" id="path2496"/>
    <path d="M 2300.838,812.373 C 2298.104,812.829 2299.18,814.737 2300.662,816.203 2301.523,817.054 2303.227,812.837 2300.838,812.373" id="path2500"/>
    <path d="M 2302.638,813.243 C 2302.413,813.563 2302.187,813.423 2302.348,813.963 2302.444,813.723 2302.541,813.483 2302.638,813.243" id="path2506"/>
    <path d="M 2303.068,839.883 C 2303.185,840.33 2303.172,840.516 2303.717,840.603 2303.501,840.363 2303.285,840.123 2303.068,839.883" id="path2508"/>
    <path d="M 2303.998,838.942 C 2303.374,838.848 2303.447,839.088 2304.218,839.663 2304.145,839.423 2304.071,839.183 2303.998,838.942" id="path2510"/>
    <path d="M 2318.548,840.173 C 2318.258,841.17 2320.228,841.382 2320.708,841.893 2320.148,841.11 2319.109,840.954 2318.548,840.173" id="path2522"/>
    <path d="M 2271.748,869.613 C 2271.439,869.991 2271.293,870.425 2271.309,870.913 2271.953,870.691 2272.259,870.186 2271.748,869.613" id="path2430"/>
    <path d="M 2273.258,875.303 C 2273.08,876.153 2273.321,876.202 2273.979,875.453 2273.738,875.403 2273.498,875.353 2273.258,875.303" id="path2436"/>
    <path d="M 2274.269,874.733 C 2273.948,875.988 2276.329,876.409 2276.569,875.012 2275.785,875.157 2275.014,874.949 2274.269,874.733" id="path2450"/>
    <path d="M 2276.638,875.663 C 2276.664,875.88 2276.692,876.097 2276.718,876.313 2276.989,876.134 2277.226,875.917 2277.428,875.663 2277.164,875.663 2276.901,875.663 2276.638,875.663" id="path2460"/>
    <path d="M 2281.178,865.803 C 2280.855,865.996 2280.688,866.283 2280.678,866.663 2281.464,866.752 2281.631,866.466 2281.178,865.803" id="path2472"/>
    <path d="M 2282.328,875.522 C 2282.557,876.011 2282.941,876.228 2283.478,876.172 2283.369,875.565 2282.906,875.297 2282.328,875.522" id="path2476"/>
    <path d="M 2288.448,872.133 C 2287.806,872.692 2288.14,874.062 2289.077,874.045 2290.862,874.013 2290.046,871.949 2288.448,872.133" id="path2480"/>
    <path d="M 2296.798,876.893 C 2297.979,876.497 2299.053,875.758 2300.038,875.013 2298.796,875.493 2297.561,875.375 2296.798,876.893" id="path2492"/>
    <path d="M 2298.098,869.543 C 2297.97,870.162 2298.21,870.185 2298.819,869.613 2298.578,869.59 2298.338,869.566 2298.098,869.543" id="path2498"/>
    <path d="M 2299.388,868.823 C 2299.272,869.016 2299.155,869.21 2299.038,869.403 2299.615,869.597 2299.999,869.334 2300.118,868.753 2299.875,868.776 2299.631,868.8 2299.388,868.823" id="path2502"/>
    <path d="M 2304.218,866.233 C 2303.035,866.305 2299.691,870.285 2300.838,871.342 2298.509,870.269 2300.132,876.124 2301.31,873.419 2301.831,872.221 2303.131,871.636 2303.774,870.496 2304.305,869.553 2303.676,867.423 2304.869,867.022 2304.688,866.729 2304.472,866.466 2304.218,866.233" id="path2504"/>
    <path d="M 2305.008,866.233 C 2305.393,866.871 2306.252,866.697 2306.738,867.243 2306.748,866.256 2305.749,866.176 2305.008,866.233" id="path2512"/>
    <path d="M 2313.288,853.772 C 2313.107,853.541 2312.867,853.471 2312.568,853.563 2312.877,854.084 2312.378,855.688 2313.072,855.902 2314.156,856.238 2313.479,854.158 2313.288,853.772" id="path2516"/>
    <path d="M 2313.868,852.913 C 2313.237,852.782 2313.214,853.022 2313.798,853.633 2313.821,853.393 2313.845,853.153 2313.868,852.913" id="path2518"/>
    <path d="M 2313.868,856.583 C 2315.164,855.623 2316.447,852.217 2316.888,850.683 2315.801,851.067 2315.915,852.134 2315.547,853.017 2315.028,854.261 2314.255,855.23 2313.868,856.583" id="path2520"/>
    <path d="M 2323.588,858.022 C 2323.387,858.91 2323.224,860.114 2323.948,860.833 2322.501,860.751 2322.022,865.087 2324.415,863.946 2327.525,862.461 2325.508,859.458 2323.588,858.022" id="path2524"/>
    <path d="M 2327.838,861.692 C 2327.321,862.019 2327.257,862.694 2327.479,863.213 2327.854,862.766 2327.974,862.259 2327.838,861.692" id="path2534"/>
    <path d="M 2327.838,860.473 C 2327.17,860.865 2327.264,861.105 2328.118,861.193 2328.024,860.953 2327.932,860.712 2327.838,860.473" id="path2536"/>
    <path d="M 2328.838,860.613 C 2329.694,858.006 2328.229,859.77 2328.838,860.613" id="path2538"/>
    <path d="M 2324.378,856.803 C 2324.428,857.397 2324.667,857.901 2325.098,858.314 2324.903,857.971 2325.247,855.878 2325.399,855.405 2325.785,854.198 2324.514,854.824 2324.878,853.773 2325.858,854.265 2326.489,852.656 2326.902,852.073 2327.61,851.072 2328.539,853.218 2328.526,853.761 2328.492,855.182 2328.4,856.708 2328.319,858.129 2328.19,860.358 2326.526,859.336 2325.387,858.534 2326.856,860.282 2321.572,856.643 2324.378,856.803" id="path2564"/>
    <path d="M 2326.108,859.033 C 2326.408,859.23 2327.347,860.451 2326.729,860.743 2325.723,861.219 2325.044,859.284 2326.108,859.033" id="path2566"/>
  </g>
  <g class="landxx coastxx aus" id="au" transform="translate(-29.9017,-45.0745)">
    <title>Australia</title>
    <path d="M 2402.638,964.653 C 2403.59,964.072 2402.799,963.148 2402.569,962.423 2401.738,963.06 2402.134,963.968 2402.638,964.653" id="path3366"/>
    <path d="M 2419.488,980.573 C 2420.168,980.296 2420.117,979.571 2419.778,979.052 2419.678,979.559 2419.581,980.065 2419.488,980.573" id="path3368"/>
    <path d="M 2308.388,902.813 C 2308.871,901.855 2308.733,900.825 2308.388,899.852 2307.603,900.91 2308.061,901.697 2308.388,902.813" id="path3294"/>
    <path d="M 2314.078,905.613 C 2314.224,905.469 2314.372,905.326 2314.518,905.182 2314.108,904.891 2313.962,905.035 2314.078,905.613" id="path3298"/>
    <path d="M 2334.958,909.213 C 2335.238,908.894 2335.527,908.584 2335.828,908.283 2335.26,908.306 2334.939,908.643 2334.958,909.213" id="path3310"/>
    <path d="M 2335.248,905.763 C 2336.042,905.454 2336.808,904.996 2337.269,904.253 2336.715,904.957 2335.671,904.917 2335.248,905.763" id="path3312"/>
    <path d="M 2337.908,903.743 C 2339.122,903.042 2340.069,901.547 2340.148,900.142 2339.908,901.552 2338.624,902.578 2337.908,903.743" id="path3318"/>
    <path d="M 2291.908,907.053 C 2292.291,907.001 2292.65,906.881 2292.988,906.693 2292.786,905.943 2291.838,905.847 2291.838,905.029 2291.706,904.699 2291.536,904.391 2291.328,904.103 2291.383,903.596 2291.359,903.093 2291.258,902.593 2290.141,903.009 2289.958,903.732 2289.854,904.823 2289.776,905.633 2288.52,906.131 2288.958,906.984 2290.022,906.715 2290.869,906.617 2291.908,907.053" id="path3288"/>
    <path d="M 2297.958,903.173 C 2297.731,902.204 2296.654,902.187 2296.438,903.173 2295.705,902.194 2294.614,903.212 2293.674,902.938 2293.278,902.823 2292.056,901.305 2291.765,902.204 2291.214,903.908 2293.404,908.101 2295.528,907.623 2296.735,907.351 2299.166,905.769 2299.55,904.51 2299.716,903.97 2300.687,902.293 2299.247,902.013 2298.237,901.815 2297.292,901.895 2297.958,903.173" id="path3290"/>
    <path d="M 2139.048,1095.843 C 2140.988,1095.83 2143.001,1093.706 2143.798,1092.093 2144.706,1090.256 2143.619,1087.554 2145.528,1086.193 2145.071,1086.555 2144.835,1087.125 2144.958,1087.704 2144.976,1087.118 2145.312,1086.841 2145.889,1086.984 2145.403,1085.392 2146.66,1083.963 2147.17,1082.651 2148.281,1079.792 2147.781,1077.405 2147.299,1074.485 2146.852,1071.777 2145.839,1068.797 2146.595,1066.046 2147.314,1063.431 2148.565,1059.795 2148.135,1057.098 2147.957,1055.98 2147.34,1054.976 2147.304,1053.834 2147.267,1052.644 2147.304,1051.597 2146.847,1050.467 2146.411,1049.384 2145.407,1048.414 2145.348,1047.219 2145.28,1045.847 2145.936,1044.544 2145.993,1043.174 2146.104,1040.524 2145.26,1037.741 2143.827,1035.528 2143.223,1034.595 2142.499,1033.605 2142.276,1032.493 2142.071,1031.473 2142.95,1030.973 2142.869,1030.033 2143.101,1030.758 2142.87,1031.484 2142.719,1032.192 2143.283,1031.586 2143.496,1030.77 2143.519,1029.963 2143.377,1030.973 2143.986,1031.899 2143.799,1032.913 2144.152,1030.95 2144.025,1034.032 2143.949,1034.423 2144.951,1032.79 2144.412,1034.472 2144.518,1035.143 2146.424,1034.116 2147.313,1033.201 2145.723,1031.354 2144.636,1030.091 2143.847,1027.018 2145.239,1025.713 2145.891,1026.293 2146.343,1027.267 2146.542,1028.102 2146.813,1029.239 2145.813,1030.011 2145.89,1031.114 2146.802,1031.167 2147.269,1030.308 2147.4,1029.534 2147.552,1030.678 2147.17,1031.964 2147.798,1033.017 2148.148,1033.601 2149.14,1032.646 2149.266,1032.356 2150.101,1030.444 2150.786,1028.73 2149.767,1026.806 2148.9,1025.166 2148.978,1023.269 2147.882,1021.776 2147.464,1021.207 2147.69,1020.733 2147.69,1020.093 2147.691,1018.7 2146.992,1017.454 2146.81,1016.093 2146.526,1013.956 2147.795,1011.493 2148.984,1009.794 2150.372,1007.81 2151.354,1006.353 2151.87,1003.893 2152.107,1002.76 2151.29,1001.899 2151.29,1000.808 2151.29,999.658 2152.286,998.727 2152.761,997.751 2153.461,996.312 2154.104,993.861 2155.83,993.314 2156.029,994.195 2155.627,995.008 2155.318,995.8 2154.883,996.914 2155.171,998.149 2154.89,999.293 2157.243,998.481 2157.282,997.255 2158.419,995.333 2159.589,993.351 2161.537,992.485 2163.634,991.815 2166.596,990.87 2168.706,988.836 2171.081,986.908 2171.699,986.406 2172.427,985.099 2173.208,984.998 2174.956,984.773 2176.323,984.089 2177.499,982.722 2177.183,984.701 2179.312,982.956 2180.113,983.065 2180.872,983.168 2181.185,983.953 2182.044,983.953 2183.141,983.953 2184.179,983.574 2185.113,983.023 2187.137,981.83 2188.109,980.478 2190.604,980.483 2191.625,980.485 2192.731,980.464 2193.559,979.772 2194.497,978.988 2194.846,977.568 2196.294,977.568 2198.496,977.568 2199.848,977.936 2202.04,977.356 2204.576,976.685 2206.88,976.087 2209.201,974.837 2211.072,973.83 2217.983,969.667 2216.597,966.532 2217.382,966.613 2217.598,966.212 2217.796,965.554 2218.106,964.532 2219.052,964.181 2219.89,963.656 2221.112,962.89 2223.84,961.683 2222.574,960.154 2221.495,958.852 2222.175,955.185 2222.881,953.84 2223.283,953.072 2225.215,950.19 2226.309,951.483 2225.629,950.143 2226.641,950.293 2227.505,949.835 2228.565,949.274 2228.602,947.2 2230.059,946.512 2230.661,947.32 2228.754,949.168 2230.708,949.102 2229.34,951.003 2233.099,954.76 2232.868,956.813 2233.984,955.369 2233.028,953.038 2233.948,951.623 2234.768,952.032 2235.102,952.921 2235.677,953.573 2235.568,952.307 2235.376,951.395 2236.608,950.613 2235.638,950.944 2233.613,949.008 2234.448,948.092 2233.879,948.071 2233.561,947.734 2233.588,947.162 2234.645,947.995 2233.963,946.967 2234.909,946.79 2236.046,946.577 2234.823,945.309 2234.597,944.852 2235.59,944.228 2237.422,944.971 2235.887,945.292 2236.459,945.5 2236.829,945.968 2236.537,946.582 2237.201,946.404 2237.311,945.461 2237.977,945.397 2238.85,945.313 2238.877,945.907 2239.421,946.351 2240.102,946.906 2240.513,945.907 2241.238,946.334 2242.051,946.813 2242.987,946.208 2243.806,946.722 2243.113,945.86 2242.464,946.31 2241.576,946.002 2240.342,945.575 2241.255,944.666 2241.356,943.772 2241.517,944.019 2241.687,944.259 2241.866,944.493 2242.896,943.791 2242.437,942.238 2243.666,941.692 2243.049,941.459 2242.609,941.841 2242.437,942.413 2241.55,941.477 2240.926,939.506 2242.422,938.804 2243.107,938.483 2245.204,937.84 2244.096,936.793 2244.884,936.831 2245.463,937.391 2246.07,937.813 2246.257,938.094 2246.438,938.377 2246.617,938.664 2246.999,938.768 2247.382,938.865 2247.767,938.954 2246.651,938.293 2247.483,937.021 2245.827,937.004 2246.126,936.487 2246.556,936.128 2247.117,935.924 2246.572,936.034 2246.092,936.274 2245.677,936.644 2245.616,935.677 2247.972,933.807 2247.837,935.424 2247.916,933.78 2249.046,935.856 2250.067,935.644 2249.685,934.966 2248.831,934.252 2249.426,933.415 2247.256,933.299 2249.809,931.373 2249.926,930.604 2250.754,931.481 2251.049,929.971 2251.947,930.535 2252.18,929.708 2252.118,928.847 2252.227,928.005 2253.303,928.228 2252.864,930.208 2252.227,931.105 2253.571,929.568 2252.988,929.46 2254.176,931.255 2254.206,930.477 2255.053,930.501 2255.186,929.815 2255.268,929.394 2255.586,928.293 2255.756,927.935 2256.031,927.355 2257.071,927.397 2256.482,926.535 2256.28,926.356 2256.052,926.31 2255.797,926.4 2255.54,926.415 2254.815,925.003 2256.187,926.066 2255.876,925.191 2257.451,924.531 2256.477,925.925 2258.07,924.47 2256.103,927.834 2257.987,927.365 2257.603,926.485 2258.457,925.719 2259.287,925.705 2258.808,926.351 2259.325,926.944 2259.717,927.434 2260.404,926.662 2261.828,926.352 2262.238,925.344 2262.561,924.55 2261.285,924.19 2262.741,923.589 2263.566,923.249 2263.954,925.329 2265.254,925.365 2266.365,925.396 2266.49,925.956 2267.259,926.763 2268.235,927.789 2268.768,929.135 2269.729,930.173 2270.304,930.795 2271.178,931.557 2271.098,932.5 2271.009,933.544 2270.378,934.487 2270.202,935.528 2270.038,936.5 2270.029,937.947 2269.229,938.663 2270.139,938.213 2269.516,937.11 2270.159,936.642 2271.024,936.012 2271.286,937.389 2271.388,937.942 2271.799,936.939 2270.561,935.972 2271.029,934.993 2271.604,933.791 2272.23,935.078 2273.119,934.703 2272.265,931.241 2279.11,932.463 2278.369,935.852 2279.53,935.409 2279.064,934.043 2279.089,933.123 2280.699,933.261 2281.21,936.458 2282.549,936.143 2282.244,935.386 2281.439,933.984 2282.38,933.309 2283.039,932.836 2283.921,933.226 2284.56,932.614 2283.301,932.784 2282.54,932.402 2282.12,931.174 2282.683,931.144 2283.187,930.953 2283.63,930.604 2282.514,930.947 2280.02,930.065 2280.932,928.538 2281.303,927.915 2281.477,926.982 2282.04,926.495 2282.536,926.066 2283.649,926.361 2283.915,925.64 2284.344,924.469 2284.55,923.01 2285.138,921.924 2285.682,920.919 2286.12,922.048 2286.83,921.476 2287.29,921.105 2288.45,919.78 2289.1,920.165 2288.504,919.542 2287.767,918.41 2287.941,917.498 2288.234,915.954 2288.856,917.186 2289.539,916.078 2289.995,915.339 2289.809,914.596 2290.688,914.084 2291.321,913.716 2291.739,914.784 2292.481,914.615 2291.696,914.302 2291.447,912.128 2292.34,911.815 2293.284,911.484 2293.932,913.69 2294.79,913.894 2293.878,913.213 2293.729,910.724 2295.43,911.524 2295.64,910.915 2295.196,910.179 2295.964,909.87 2296.75,909.554 2297.033,910.708 2297.521,909.505 2298.714,912.272 2305.947,909.406 2306.09,911.085 2306.09,909.894 2307.331,909.033 2308.39,909.725 2307.273,908.541 2308.558,906.753 2308.25,905.406 2307.781,903.349 2305.802,903.64 2304.29,904.326 2304.335,903.346 2303.106,902.904 2302.556,902.454 2302.2,902.162 2303.758,901.202 2303.861,900.935 2304.573,901.491 2304.721,902.363 2304.941,903.175 2305.393,902.492 2305.481,901.666 2305.081,900.935 2305.502,901.774 2306.047,901.838 2306.521,901.005 2306.772,902.089 2308.435,903.33 2309.041,904.325 2309.494,903.74 2310.888,903.678 2310.481,902.665 2311.397,903.303 2311.777,906.083 2312.861,906.074 2313.821,906.065 2315.13,905.949 2315.021,907.054 2316.097,907.095 2316.874,905.754 2317.97,906.124 2316.105,907.518 2320.298,907.208 2319.7,909.144 2320.408,907.842 2320.574,908.778 2321.556,908.963 2322.672,909.172 2323.284,908.294 2324.31,908.134 2324.568,910.425 2326.773,910.103 2328.27,910.584 2327.127,908.772 2332.111,909.656 2330.499,908.134 2331.429,907.901 2332.881,907.661 2332.879,906.414 2333.54,907.336 2332.262,907.956 2331.65,908.353 2333.02,908.353 2331.96,908.809 2331.457,909.379 2330.976,909.925 2330.807,910.5 2331.22,911.163 2331.718,910.461 2332.36,909.654 2333.311,909.642 2332.354,910.657 2333.541,910.083 2333.503,911.243 2333.491,911.603 2333.547,912.148 2333.979,912.268 2334.885,912.522 2335.797,911.241 2336.111,910.582 2333.522,910.54 2337.657,907.966 2338.131,907.492 2336.882,908.148 2337.876,910.461 2338.921,910.802 2338.269,909.623 2339.689,909.82 2340.052,910.32 2340.361,910.743 2340.082,911.403 2339.891,911.806 2339.22,913.22 2337.88,915.186 2336.402,915.772 2336.866,916.202 2337.225,916.705 2337.482,917.283 2337.228,917.098 2336.964,916.928 2336.692,916.772 2336.436,917.891 2336.357,918.91 2335.181,919.442 2335.165,918.961 2335.191,918.481 2335.251,918.003 2334.707,918.334 2334.228,918.741 2333.812,919.223 2333.723,917.494 2332.662,919.174 2332.662,919.803 2332.446,918.244 2330.832,920.119 2331.802,921.023 2329.645,920.612 2331.19,924.73 2332.372,922.753 2331.304,924.983 2330.262,926.982 2328.832,928.996 2328.224,929.854 2327.609,930.748 2326.836,931.468 2325.949,932.295 2325.459,931.98 2326.197,933.431 2327.199,935.401 2329.502,936.087 2330.799,937.789 2331.559,938.785 2332.051,939.707 2333.137,940.392 2333.898,940.872 2334.639,941.477 2334.313,942.484 2335.136,942.167 2335.977,942.84 2336.552,941.904 2337.341,943.139 2338.706,943.742 2339.942,944.421 2341.522,945.291 2342.243,946.514 2343.326,947.886 2345.197,950.255 2347.923,949.412 2350.222,951.066 2351.448,951.948 2350.52,953.753 2351.634,954.649 2352.242,955.14 2353.058,955.1 2353.632,955.687 2354.234,956.301 2354.96,956.703 2355.657,957.199 2357.787,958.713 2362.425,957.258 2363.684,954.973 2365.491,951.695 2367.821,948.447 2369.15,944.92 2369.915,942.894 2370.489,940.803 2371.241,938.773 2372.042,936.614 2372.974,934.977 2372.819,932.6 2372.697,930.741 2372.809,929.624 2373.481,927.938 2374.157,926.231 2372.602,924.726 2373.497,922.855 2374.223,921.338 2375.704,920.127 2375.242,918.331 2374.713,916.271 2376.469,916.172 2376.873,914.475 2377.309,914.885 2377.525,915.388 2377.523,915.986 2377.502,915.409 2377.866,914.972 2378.382,914.765 2378.094,914.728 2376.58,913.086 2376.432,912.745 2376.19,912.955 2375.953,913.171 2375.722,913.394 2375.558,912.575 2376.12,911.468 2376.666,910.896 2376.869,910.649 2377.128,910.521 2377.442,910.514 2377.041,909.721 2377.528,908.945 2378.022,908.354 2378.183,908.914 2378.588,909.199 2379.171,909.075 2379.066,906.05 2380.898,903.778 2381.261,900.865 2381.378,899.921 2381.376,899.298 2382.407,898.881 2383.377,898.489 2383.84,896.774 2385.071,897.625 2384.713,898.099 2384.402,898.602 2384.14,899.135 2384.393,898.974 2384.657,898.83 2384.93,898.705 2385.23,899.62 2386.141,900.057 2385.97,901.09 2385.895,901.513 2385.939,901.925 2386.102,902.327 2386.391,903.266 2385.941,903.261 2385.941,904.099 2385.941,904.989 2385.757,905.905 2385.91,906.79 2386.108,907.938 2387.891,907.809 2388.681,908.214 2387.243,909.276 2386.781,910.388 2387.91,911.641 2389.113,912.974 2388.912,914.095 2388.532,915.774 2390.134,915.46 2389.337,922.228 2388.995,923.037 2388.579,924.02 2389.171,924.768 2389.475,925.682 2389.832,926.751 2389.278,927.891 2389.761,928.945 2390.618,930.812 2392.967,929.64 2393.211,928.006 2394.669,929.823 2395.36,925.662 2396.026,929.583 2396.179,930.488 2398.024,931.576 2398.629,932.429 2398.705,932.537 2400.801,933.896 2400.991,933.916 2400.525,934.66 2399.147,936.115 2400.631,936.645 2398.652,939.046 2401.046,941.668 2400.118,944.27 2399.548,945.88 2399.22,946.702 2400.06,948.175 2400.485,948.918 2401.75,950.332 2401.201,951.265 2401.641,950.892 2402.147,950.676 2402.721,950.616 2402.338,952.136 2402.093,952.748 2402.495,954.333 2402.796,955.515 2402.782,956.758 2402.602,957.96 2402.405,959.292 2401.707,960.154 2401.182,961.341 2400.546,962.777 2402.172,963.097 2402.065,964.246 2401.98,965.152 2403.254,964.464 2402.854,965.617 2402.505,966.62 2401.426,967.417 2402.051,968.563 2402.419,969.236 2403.628,970.672 2404.508,970.591 2405.326,970.516 2406.039,972.542 2406.89,970.925 2406.795,972.814 2409.877,973.116 2409.561,971.855 2410.052,972.919 2409.754,975.837 2411.14,976.255 2411.167,975.69 2411.506,975.349 2412.071,975.316 2411.641,976.807 2413.299,976.918 2414.339,977.302 2415.193,977.617 2414.181,979.477 2415.852,978.973 2416.217,978.863 2415.933,978.232 2416.279,978.09 2417.008,977.791 2416.92,978.938 2416.996,979.244 2417.161,979.901 2417.91,979.533 2418.212,980.13 2418.555,980.809 2418.511,981.613 2418.842,982.296 2418.467,981.546 2417.464,981.415 2417.098,982.254 2416.634,983.318 2418.043,984.467 2417.332,985.465 2421.23,984.065 2418.393,991.058 2421.072,991.005 2420.15,992.074 2420.19,993.799 2420.316,995.115 2420.423,996.22 2421.499,998.141 2420.641,999.145 2422.055,998.568 2422.241,998.993 2422.881,1000.225 2423.525,998.948 2422.752,997.528 2423.741,996.335 2424.919,997.388 2425.501,998.982 2426.911,999.795 2427.116,999.394 2426.941,998.599 2427.271,998.285 2427.895,997.69 2428.375,998.147 2428.439,998.849 2428.604,1000.717 2428.409,1001.883 2427.799,1003.633 2427.438,1004.673 2427.723,1005.733 2427.384,1006.81 2426.703,1008.974 2428.194,1007.589 2428.85,1008.935 2428.655,1008.414 2428.728,1007.934 2429.071,1007.496 2430.667,1008.008 2430.559,1011.841 2428.991,1009.225 2429.165,1010.374 2432.451,1014.185 2432.451,1012.175 2434.089,1013.496 2433.69,1015.427 2434.541,1017.145 2434.942,1017.956 2435.817,1018.129 2436.341,1018.805 2436.957,1019.601 2436.541,1020.566 2436.682,1021.479 2436.988,1023.466 2438.964,1022.709 2438.721,1024.635 2438.628,1025.362 2437.925,1025.867 2437.779,1026.583 2437.582,1027.551 2438.52,1028.112 2438.072,1029.246 2438.295,1028.989 2438.535,1028.748 2438.792,1028.525 2439.883,1029.421 2438.154,1030.643 2437.852,1031.475 2437.311,1032.962 2436.84,1034.767 2436.583,1036.33 2436.389,1037.516 2436.699,1038.575 2435.687,1039.374 2434.591,1040.24 2434.679,1041.066 2435.445,1042.14 2435.965,1042.869 2435.851,1044.896 2435.668,1045.765 2435.545,1046.347 2435.303,1046.955 2435.327,1047.56 2435.352,1048.22 2435.853,1048.618 2435.692,1049.332 2434.909,1052.784 2433.293,1054.989 2431.31,1057.837 2429.177,1060.9 2428.001,1064.416 2425.646,1067.397 2423.662,1069.908 2423.52,1072.913 2421.58,1075.409 2420.638,1076.621 2419.843,1077.974 2418.842,1079.135 2417.851,1080.284 2416.291,1080.895 2415.508,1082.222 2415.006,1083.074 2414.769,1084.647 2414.092,1085.335 2413.688,1085.745 2412.995,1085.711 2412.535,1086.038 2411.686,1086.639 2410.849,1087.536 2409.772,1087.705 2411.632,1087.883 2408.619,1088.601 2408.136,1088.753 2406.859,1089.153 2405.7,1090.322 2404.882,1091.338 2404.301,1092.058 2403.318,1092.349 2402.714,1093.056 2401.875,1094.04 2402.073,1095.098 2400.341,1094.906 2400.218,1095.552 2400.385,1095.769 2400.841,1095.555 2400.302,1096.329 2399.889,1097.214 2399.349,1097.972 2398.922,1098.575 2398.288,1098.374 2397.855,1099.09 2396.968,1100.559 2395.247,1101.034 2394.465,1102.601 2394.069,1103.394 2394.204,1103.141 2393.564,1103.27 2393.543,1103.28 2393.132,1104.668 2392.921,1104.9 2392.556,1105.302 2390.433,1107.177 2391.631,1107.645 2391.278,1108.216 2390.812,1108.869 2390.692,1107.645 2390.187,1108.101 2390.4,1109.063 2389.625,1109.177 2388.664,1109.319 2388.178,1109.6 2387.512,1110.354 2385.84,1112.248 2384.016,1114.068 2382.483,1116.076 2381.172,1117.794 2380.251,1119.856 2378.924,1121.589 2378.169,1122.574 2376.671,1125.247 2375.572,1125.726 2376.61,1125.956 2375.656,1127.535 2375.369,1127.984 2375.103,1128.396 2374.801,1128.807 2374.439,1129.142 2373.877,1129.663 2373.284,1129.213 2372.739,1129.496 2371.061,1130.368 2370.23,1131.446 2368.113,1131.699 2365.864,1131.968 2363.592,1131.747 2361.341,1131.965 2356.788,1132.403 2352.984,1135.168 2349.337,1137.69 2347.672,1138.841 2345.93,1139.413 2343.903,1139.581 2341.922,1139.745 2342.446,1139.364 2342.091,1141.277 2342.535,1140.901 2343.038,1140.638 2343.601,1140.487 2343.349,1141.459 2342.456,1142.787 2341.522,1143.216 2341.474,1142.577 2341.718,1141.545 2341.276,1141.001 2340.59,1140.155 2340.17,1141.09 2339.351,1141.136 2339.552,1140.404 2339.477,1139.642 2339.572,1138.897 2338.643,1139.098 2337.991,1139.608 2337.824,1138.389 2337.643,1137.069 2338.798,1137.038 2339.227,1135.957 2339.844,1134.404 2336.298,1136.661 2336.116,1136.816 2334.662,1138.051 2334.088,1137.565 2333.312,1136.166 2334.284,1137.245 2335.496,1136.028 2336.261,1135.376 2337.514,1134.309 2336.916,1133.615 2336.982,1132.206 2335.093,1132.527 2333.416,1133.848 2331.801,1134.796 2332.534,1135.033 2333.294,1134.643 2333.961,1135.156 2333.304,1136.09 2331.944,1135.825 2331.001,1136.166 2329.646,1136.656 2328.103,1137.457 2326.972,1138.354 2325.838,1139.253 2324.643,1139.715 2323.368,1140.36 2322.313,1140.893 2322.1,1140.005 2320.994,1139.444 2319.08,1138.474 2317.873,1136.393 2315.608,1136.706 2314.346,1136.88 2313.789,1135.438 2312.497,1135.687 2311.775,1135.826 2311.608,1136.346 2311.007,1136.628 2310.564,1136.836 2309.955,1136.57 2309.482,1136.666 2311.421,1134.439 2305.695,1133.877 2305.013,1132.907 2304.328,1131.934 2303.979,1130.639 2303.974,1129.458 2303.974,1128.711 2302.843,1128.241 2303.029,1126.909 2303.355,1124.555 2305.522,1123.458 2306.022,1121.336 2306.822,1117.939 2305.599,1115.046 2303.501,1112.406 2305.302,1113.621 2306.237,1115.834 2306.381,1117.945 2306.7,1116.518 2306.235,1115.301 2305.415,1114.136 2304.873,1113.364 2303.8,1111.842 2305.591,1111.975 2305.551,1112.48 2305.501,1112.983 2305.442,1113.486 2306.321,1113.328 2306.182,1112.833 2306.25,1112.14 2306.332,1111.306 2307.719,1111.514 2307.313,1110.675 2306.854,1109.726 2303.782,1110.841 2304.512,1111.975 2304.149,1111.867 2301.732,1111.593 2303.792,1112.255 2302.068,1112.081 2298.857,1114.388 2297.382,1112.835 2298.121,1111.812 2299.468,1111.262 2300.519,1110.634 2301.464,1110.07 2302.041,1108.857 2302.515,1107.913 2303.774,1105.407 2303.597,1102.674 2302.993,1099.944 2302.343,1100.342 2302.312,1101.065 2301.806,1101.571 2301.243,1102.135 2300.599,1102.621 2300.122,1103.269 2299.148,1104.596 2298.287,1106.067 2297.428,1107.471 2296.487,1109.012 2296.271,1108.731 2294.637,1108.571 2293.087,1108.42 2291.46,1110.016 2289.752,1109.955 2290.016,1109.006 2291.037,1107.928 2291.762,1107.295 2292.982,1106.228 2294.561,1107.617 2295.748,1106.5 2297.819,1104.552 2297.691,1101.093 2299.619,1098.929 2300.689,1097.728 2301.327,1096.908 2302.739,1096.098 2304.395,1095.149 2303.78,1093.999 2304.302,1092.488 2304.595,1091.637 2305.534,1091.497 2306.176,1091.026 2306.382,1090.876 2306.199,1089.736 2306.194,1089.545 2306.179,1089.046 2306.994,1086.716 2306.228,1086.372 2305.914,1086.231 2305.467,1088.588 2305.35,1088.819 2304.729,1090.043 2302.849,1090.832 2301.901,1091.873 2300.974,1092.891 2300.148,1093.995 2299.181,1094.976 2298.763,1095.4 2298.345,1096.088 2297.742,1096.276 2297.221,1096.437 2296.734,1095.981 2296.232,1096.136 2295.298,1096.427 2294.265,1097.61 2293.197,1098.001 2291.644,1098.571 2290.467,1099.807 2289.348,1100.972 2288.938,1101.399 2287.408,1103.443 2286.871,1103.331 2285.345,1103.014 2285.07,1105.25 2284.201,1105.926 2284.702,1105.717 2285.208,1105.524 2285.721,1105.346 2285.097,1105.992 2285.01,1106.956 2284.351,1107.576 2283.867,1106.099 2282.515,1107.071 2281.925,1105.892 2281.506,1105.057 2281.057,1103.214 2279.741,1103.975 2280.075,1103.417 2280.52,1102.925 2281.041,1102.536 2280.863,1103.487 2282.056,1104.278 2282.245,1102.992 2282.461,1101.515 2282.841,1100.039 2282.841,1098.537 2282.841,1097.131 2280.919,1096.236 2281.53,1094.77 2281.77,1094.194 2282.163,1093.583 2281.839,1092.95 2281.581,1092.449 2281.267,1092.159 2281.681,1091.596 2280.989,1092.174 2280.484,1091.468 2279.718,1091.67 2278.624,1091.959 2279.089,1091.189 2278.881,1090.726 2278.774,1090.488 2278.216,1089.235 2278.379,1089.03 2278.603,1088.748 2280.035,1086.635 2279.601,1088.426 2280.285,1087.932 2280.978,1086.838 2280.402,1086.009 2279.729,1085.04 2278.63,1085.869 2277.801,1086.046 2277.957,1085.558 2278.713,1084.895 2278.664,1084.373 2278.6,1083.682 2277.858,1083.324 2277.792,1082.596 2277.758,1082.232 2275.406,1083.26 2275.323,1083.25 2273.843,1083.075 2272.696,1081.796 2271.38,1081.21 2269.911,1080.557 2269.807,1082.148 2268.679,1081.948 2265.81,1081.437 2264.637,1077.484 2261.606,1077.151 2260.589,1077.039 2259.808,1077.634 2258.906,1077.956 2257.808,1078.347 2256.568,1077.868 2255.441,1077.858 2252.606,1077.833 2249.274,1077.969 2246.502,1078.573 2241.371,1079.692 2236.826,1082.641 2231.609,1083.687 2229.098,1084.19 2226.842,1084.1 2224.318,1083.868 2221.241,1083.585 2219.613,1084.877 2216.998,1086.205 2214.859,1087.291 2212.377,1088.731 2210.062,1089.351 2207.58,1090.015 2205.929,1090.167 2204.331,1092.391 2203.109,1094.091 2201.898,1095.711 2200.215,1096.996 2199.913,1097.226 2198.57,1098.404 2198.165,1098.208 2197.06,1097.674 2196.479,1098.742 2195.352,1098.936 2196.041,1097.162 2190.629,1097.826 2189.85,1098.135 2188.549,1098.653 2188.326,1099.465 2187.78,1097.683 2187.766,1097.637 2184.156,1097.405 2183.704,1097.35 2181.727,1097.111 2179.385,1097.685 2177.443,1098.055 2175.981,1098.334 2174.713,1098.204 2173.271,1098.432 2171.431,1098.722 2167.285,1099.605 2167.783,1102.256 2167.359,1102.038 2166.059,1102.827 2165.594,1103.108 2164.919,1103.513 2164.253,1102.608 2163.512,1102.717 2162.772,1102.826 2162.235,1103.477 2161.714,1103.948 2161.151,1104.458 2160.635,1104.627 2159.916,1104.898 2158.869,1105.292 2158.672,1105.893 2157.862,1106.52 2156.778,1107.359 2155.192,1107.772 2153.813,1107.725 2155.582,1108.495 2151.823,1108.149 2151.137,1108.08 2148.727,1107.84 2146.365,1107.986 2143.952,1107.505 2144.043,1107.264 2144.137,1107.025 2144.232,1106.785 2142.136,1107.137 2141.172,1105.354 2140.305,1103.942 2139.593,1102.784 2137.698,1100.425 2136.242,1101.964 2134.979,1100.62 2136.591,1094.337 2139.048,1095.843" id="path3348"/>
    <path d="M 2307.748,906.043 C 2307.651,905.806 2307.555,905.57 2307.458,905.333 2308.299,905.415 2308.337,905.503 2307.748,906.043" id="path3350"/>
    <path d="M 2381.758,897.843 C 2382.406,897.498 2382.594,896.913 2381.979,896.404 2381.388,896.757 2381.225,897.337 2381.758,897.843" id="path3956"/>
    <path d="M 2381.979,892.803 C 2382.265,892.583 2382.432,892.293 2382.479,891.933 2381.681,891.85 2381.514,892.14 2381.979,892.803" id="path3958"/>
    <path d="M 2382.988,893.453 C 2383.196,893.123 2383.29,892.763 2383.268,892.373 2382.517,892.52 2382.445,892.931 2382.988,893.453" id="path3960"/>
  </g>
  <g class="world_map-is_selected landxx coastxx png" id="pg" transform="translate(-29.9017,-45.0745)">
    <title>Papua New Guinea</title>
    <path d="M 2394.508,880.203 C 2394.857,878.745 2392.539,878.133 2391.559,877.823 2392.621,878.473 2393.686,879.261 2394.508,880.203" id="path3962"/>
    <path d="M 2394.218,878.113 C 2395.179,877.129 2393.289,876.963 2392.708,877.533 2393.179,877.812 2393.682,878.005 2394.218,878.113" id="path3964"/>
    <path d="M 2395.148,877.683 C 2395.257,877.102 2394.876,876.908 2394.358,876.963 2394.606,877.219 2394.87,877.459 2395.148,877.683" id="path3966"/>
    <path d="M 2395.658,874.733 C 2395.776,874.226 2395.536,874.152 2394.938,874.512 2395.179,874.586 2395.418,874.66 2395.658,874.733" id="path3968"/>
    <path d="M 2397.888,872.353 C 2397.828,871.943 2397.588,871.704 2397.168,871.633 2397.408,871.873 2397.647,872.113 2397.888,872.353" id="path3970"/>
    <path class="world_map-is_selected landxx png" d="M 2374.198,883.653 2375.638,865.373 C 2375.531,864.123 2374.424,863.498 2374.702,862.129 2374.935,860.98 2375.58,859.59228 2376.015,858.62228 L 2377.7094,827.14746 C 2378.8114,827.59546 2381.144,828.331 2382.201,828.871 2385.147,830.376 2387.845,832.51 2391.089,833.364 2392.689,833.785 2394.35,833.551 2395.892,834.217 2397.672,834.986 2398.822,836.462 2400.421,837.457 2401.686,838.244 2401.923,837.351 2402.922,837.541 2404.183,837.781 2404.221,839.173 2405.412,839.447 2406.796,839.765 2407.063,841.269 2407.921,842.118 2408.809,842.997 2410.112,842.712 2411.091,843.66 2412.157,844.694 2413.011,846.072 2413.265,847.55 2413.487,848.84 2412.454,849.886 2412.607,850.967 2412.83,852.548 2416.666,852.862 2417.825,853.288 2418.994,853.718 2420.342,854.602 2421.428,855.213 2421.956,855.51 2422.172,856.064 2422.798,856.223 2423.531,856.409 2424.227,856.005 2424.958,856.223 2426.733,856.751 2429.426,860.681 2427.921,862.435 2426.733,863.821 2423.716,862.657 2422.178,862.738 2419.748,862.866 2422.09,867.852 2422.824,868.944 2423.683,870.224 2425.072,871.13 2425.991,872.41 2426.576,873.223 2428.173,874.702 2429.348,874.223 2429.246,875.411 2429.463,877.392 2429.82,878.529 2430.009,879.135 2430.401,879.365 2430.897,879.662 2431.602,880.082 2431.339,881.091 2431.467,881.773 2431.85,883.823 2433.514,883.491 2435.022,882.901 2436.094,882.481 2437.942,882.359 2437.191,884.021 2435.973,886.715 2437.053,887.54 2439.794,887.678 2440.314,887.704 2442.338,887.521 2442.417,888.326 2442.504,889.21 2440.447,889.316 2439.939,889.633 2440.396,890.172 2440.594,890.909 2441.159,891.363 2441.87,891.935 2443.032,892.019 2443.845,892.529 2445.083,893.306 2446.944,893.722 2448.36,893.233 2447.635,893.55 2446.664,894.275 2445.831,894.126 2445.174,894.009 2444.456,893.595 2444.33,894.603 2445.908,895.013 2447.691,895.803 2445.326,896.534 2443.754,897.019 2441.595,897.606 2440.73,895.534 2441.256,895.68 2441.712,895.56 2442.099,895.174 2441.634,894.911 2441.227,894.985 2440.879,895.394 2440.775,893.906 2438.542,894.026 2437.509,893.944 2435.719,893.803 2433.927,892.855 2432.089,893.164 2432.155,892.899 2432.23,892.636 2432.31,892.374 2431.556,892.717 2430.726,892.942 2429.892,892.808 2429.299,892.713 2428.14,891.682 2427.591,892.038 2426.231,892.924 2425.32,891.118 2424.459,891.934 2424.228,891.012 2423.02,890.648 2423.02,889.634 2423.02,888.852 2422.435,887.858 2421.982,887.255 2421.468,886.57 2420.478,887.092 2419.954,886.331 2419.527,885.711 2418.518,884.184 2419.2,883.443 2416.748,883.127 2417.13,882.005 2416.481,880.343 2415.869,878.774 2414.505,875.134 2412.862,874.455 2412.325,874.233 2411.894,873.791 2411.452,873.43 2410.853,872.942 2409.916,873.424 2409.219,873.334 2408.177,873.2 2407.113,872.493 2406.03,872.283 2404.106,871.909 2404.917,871.553 2404.591,870.193 2404.601,871.388 2403.38,870.767 2403.071,870.124 2402.925,871.62 2402.113,870.313 2402.211,869.693 2401.847,870.346 2401.613,870.982 2401.272,869.693 2401.282,870.389 2401.328,871.083 2401.421,871.773 2401.07,871.294 2400.613,870.961 2400.051,870.773 2399.806,874.016 2395.962,869.242 2395.522,869.044 2396.048,870.67 2397.168,872.064 2397.391,873.794 2397.097,873.709 2396.808,873.612 2396.522,873.504 2396.91,875.37 2393.895,873.115 2392.992,873.004 2393.382,873.632 2395.583,875.293 2394.242,875.853 2393.351,876.225 2392.36,876.186 2391.427,876.351 2390.649,876.489 2389.918,876.84 2389.127,876.544 2388.506,876.312 2388.006,876.081 2387.329,876.245 2386.275,876.501 2385.615,877.037 2385.152,875.664 2385.201,876.676 2385.617,877.031 2386.574,876.81 2387.906,876.502 2388.859,876.863 2390.01,877.593 2392.219,878.994 2393.944,881.633 2390.928,882.917 2389.581,883.491 2388.133,885.038 2386.651,885.158 2385.245,885.272 2384.053,883.976 2382.484,884.118 2380.737,884.277 2378.89,884.718 2377.203,883.95 2376.065,883.433 2375.104,885.284 2374.198,883.653" id="path3954"/>
    <path d="M 2414.598,845.853 C 2415.477,845.491 2415.63,844.539 2415.029,843.843 2414.255,844.243 2413.68,845.222 2414.598,845.853" id="path3972"/>
    <path d="M 2423.229,851.833 C 2424.625,851.754 2423.974,849.632 2422.884,849.653 2422.078,849.669 2422.949,851.58 2423.229,851.833" id="path3974"/>
    <path d="M 2429.568,855.293 C 2430.657,854.454 2430.334,852.257 2428.778,852.263 2426.876,852.27 2429.013,854.813 2429.568,855.293" id="path3976"/>
    <path d="M 2429.348,824.973 C 2429.965,825.14 2430.089,824.9 2429.718,824.253 2429.595,824.493 2429.471,824.733 2429.348,824.973" id="path3978"/>
    <path d="M 2436.269,856.153 C 2436.742,856.776 2437.551,857.043 2437.848,857.813 2438.776,857.144 2440.166,856.855 2441.044,857.824 2441.676,858.521 2441.633,859.253 2442.818,859.137 2444.365,858.986 2445.923,859.324 2447.461,859.02 2449.481,858.62 2450.558,856.687 2452.288,856.721 2454.068,856.757 2456.463,854.259 2456.208,852.483 2457.213,852.602 2462.023,853.278 2461.317,850.794 2461.197,850.368 2459.525,847.431 2460.958,847.728 2463.315,848.217 2463.919,845.679 2463.92,843.882 2463.92,843.218 2464.109,842.459 2463.407,842.138 2462.734,841.83 2461.965,841.514 2462.758,840.743 2462.102,840.995 2460.634,842.596 2459.968,841.636 2459.264,840.622 2457.411,840.664 2457.589,842.203 2457.758,843.668 2458.563,844.912 2458.329,846.473 2458.096,848.03 2455.9,847.208 2454.814,848.083 2453.638,849.031 2453.447,850.518 2452.538,851.646 2452.157,852.119 2451.434,852.087 2450.909,852.229 2449.713,852.553 2449.912,852.069 2448.783,851.869 2447.922,851.717 2446.908,853.326 2446.234,852.401 2445.337,851.171 2445.384,849.208 2446.847,848.453 2445.602,847.112 2444.518,850.843 2444.867,851.426 2445.508,852.498 2440.413,853.016 2439.868,852.983 2439.16,852.941 2438.795,852.595 2438.164,852.337 2437.316,851.991 2436.962,852.486 2436.184,852.431 2435.495,852.382 2433.755,852.738 2433.393,852.182 2432.808,851.287 2431.809,853.457 2432.731,854.406 2433.381,855.074 2434.056,854.877 2434.829,855.212 2435.4,855.461 2435.602,856.055 2436.269,856.153" id="path3982"/>
    <path d="M 2442.098,845.493 C 2442.252,844.839 2442.013,844.769 2441.378,845.283 2441.618,845.353 2441.857,845.423 2442.098,845.493" id="path3984"/>
    <path d="M 2444.618,818.493 C 2445.404,817.767 2443.964,816.062 2443.222,816.717 2442.764,817.121 2444.32,818.343 2444.618,818.493" id="path3986"/>
    <path d="M 2444.908,887.043 C 2445.182,886.513 2445.246,883.674 2443.948,884.407 2442.389,885.287 2444.156,886.564 2444.908,887.043" id="path3988"/>
    <path d="M 2448.648,888.692 C 2450.181,887.092 2448.019,886.307 2446.818,885.855 2444.668,885.046 2446.85,887.307 2445.628,888.043 2446.483,887.729 2447.996,888.06 2448.648,888.692" id="path3990"/>
    <path d="M 2446.488,826.343 C 2447.107,826.913 2447.518,827.652 2448.427,827.783 2449.37,827.919 2450.49,827.33 2449.785,826.246 2449.175,825.305 2446.649,824.753 2446.488,826.343" id="path3992"/>
    <path d="M 2447.998,896.833 C 2449.166,894.916 2445.887,896.734 2447.998,896.833" id="path3994"/>
    <path d="M 2448.798,891.143 C 2449.012,891.143 2449.225,891.143 2449.439,891.143 2448.512,891.753 2450.093,892.296 2450.514,892.446 2451.562,892.818 2451.989,891.153 2451.309,890.573 2450.936,890.781 2450.7,891.092 2450.598,891.503 2449.382,891.069 2448.92,889.641 2447.859,888.983 2448.281,889.646 2448.695,890.346 2448.798,891.143" id="path3996"/>
    <path d="M 2448.358,897.043 C 2448.554,896.706 2448.844,896.493 2449.227,896.403 2448.66,896.202 2448.336,896.442 2448.358,897.043" id="path3998"/>
    <path d="M 2451.598,881.063 C 2451.133,880.129 2451.405,878.375 2451.819,877.462 2451.006,877.596 2450.378,878.752 2451.598,878.832 2451.303,879.595 2450.622,880.46 2451.598,881.063" id="path4000"/>
    <path d="M 2452.248,830.453 C 2452.737,830.365 2453.218,830.242 2453.688,830.083 2453.15,829.767 2452.589,829.963 2452.248,830.453" id="path4002"/>
    <path d="M 2466.358,838.013 C 2465.307,837.865 2464.888,836.1 2464.261,835.422 2463.284,834.365 2461.487,832.719 2460.144,832.178 2458.729,831.608 2457.955,830.092 2456.534,829.518 2456.013,829.309 2455.646,829.878 2455.428,829.116 2455.211,828.359 2453.67,827.853 2453.109,827.284 2453.38,827.848 2453.157,828.192 2452.539,828.214 2453.243,828.83 2454.257,828.76 2454.956,829.392 2455.815,830.169 2456.673,830.951 2457.579,831.674 2458.571,832.465 2459.498,833.489 2460.63,834.083 2461.476,834.526 2462.469,834.646 2463.226,835.263 2464.699,836.464 2465.205,838.509 2466.023,840.14 2466.588,841.269 2466.058,842.447 2466.15,843.623 2466.24,844.767 2467.047,845.586 2467.52,846.573 2468.412,845.843 2470.019,842.426 2469.56,841.329 2469.185,840.435 2468.365,839.864 2467.972,839.027 2467.481,837.986 2467.361,838.373 2466.358,838.013" id="path4004"/>
    <path d="M 2462.108,897.333 C 2462.351,897.143 2462.594,896.953 2462.837,896.763 2462.113,896.766 2461.394,896.717 2460.677,896.614 2461.153,896.855 2461.631,897.095 2462.108,897.333" id="path4006"/>
    <path d="M 2464.128,884.522 C 2466.467,884.433 2463.908,880.999 2462.399,882.722 2463.194,883.135 2463.293,884.159 2464.128,884.522" id="path4012"/>
    <path d="M 2465.068,902.303 C 2464.957,901.786 2465.01,901.536 2464.347,901.654 2464.588,901.87 2464.828,902.086 2465.068,902.303" id="path4014"/>
    <path d="M 2467.368,905.403 C 2467.88,905.267 2468.337,905.027 2468.738,904.682 2468.064,904.057 2466.038,902.671 2465.068,903.243 2465.56,903.645 2465.537,904.344 2465.998,904.753 2466.592,905.28 2466.985,904.26 2467.368,905.403" id="path4016"/>
    <path d="M 2466.428,832.603 C 2466.77,832.026 2466.502,831.449 2465.998,831.093 2465.785,831.695 2465.929,832.199 2466.428,832.603" id="path4018"/>
    <path d="M 2471.758,903.603 C 2472.188,903.292 2472.668,903.149 2473.198,903.173 2472.547,902.22 2471.786,903.125 2470.968,903.173 2471.231,903.316 2471.494,903.459 2471.758,903.603" id="path4020"/>
    <path d="M 2480.479,851.833 C 2481.516,850.938 2481.581,849.037 2480.479,848.163 2479.863,849.267 2480.092,850.697 2480.479,851.833" id="path4024"/>
    <path d="M 2482.848,858.453 C 2483.395,858.96 2484.189,859.174 2484.303,859.988 2484.446,861.002 2484.278,862.036 2485.06,862.836 2486.202,864.003 2490.241,864.338 2489.811,862.099 2489.63,861.158 2489.37,860.503 2488.768,859.709 2488.411,859.236 2488.016,858.356 2487.438,858.12 2486.906,857.902 2486.396,857.891 2486.131,857.307 2485.027,854.872 2483.584,852.581 2480.908,851.693 2481.625,852.487 2481.149,853.715 2481.084,854.631 2480.975,856.148 2482.155,857.235 2482.848,858.453" id="path4026"/>
    <path d="M 2488.108,866.303 C 2488.348,866.23 2488.587,866.157 2488.828,866.083 2488.675,865.135 2487.596,865.019 2487.388,866.013 2487.628,866.109 2487.868,866.206 2488.108,866.303" id="path4028"/>
    <path d="M 2490.628,865.083 C 2490.782,864.603 2490.782,864.123 2490.628,863.643 2490.628,864.123 2490.628,864.603 2490.628,865.083" id="path4030"/>
    <path d="M 2420.348,823.973 C 2419.378,822.849 2421.03,821.845 2421.96,821.599 2423.461,821.202 2425.164,822.029 2426.618,822.314 2425.343,822.596 2425.249,823.603 2423.668,823.603 2423.029,823.603 2422.429,823.021 2421.798,823.103 2421.25,823.173 2420.832,823.752 2420.348,823.973" id="path4032"/>
  </g>
  <g class="landxx coastxx slb" id="sb" transform="translate(-29.9017,-45.0745)">
    <title>Solomon Islands</title>
    <path d="M 2494.658,873.433 C 2494.691,872.896 2495.73,872.058 2495.357,871.571 2495.183,871.345 2494.439,870.182 2494.148,870.193 2492.488,870.254 2493.934,872.979 2494.658,873.433" id="path4726"/>
    <path d="M 2493.648,875.663 C 2493.854,874.909 2493.937,874.062 2493.358,873.433 2493.358,874.189 2493.286,874.962 2493.648,875.663" id="path4728"/>
    <path d="M 2496.309,866.233 C 2497.194,867.661 2499.446,869.382 2501.208,868.533 2500.663,867.893 2499.822,867.668 2499.287,867.018 2498.599,866.183 2498.628,865.032 2497.838,864.249 2496.772,863.19 2495.274,862.358 2493.868,861.843 2493.03,863.35 2495.741,865.074 2496.309,866.233" id="path4730"/>
    <path d="M 2497.898,875.163 C 2498.451,874.644 2498.648,872.708 2497.577,872.624 2495.832,872.489 2496.517,875.088 2497.898,875.163" id="path4732"/>
    <path d="M 2499.188,880.203 C 2498.435,879.196 2499.921,878.46 2499.337,877.463 2497.934,878.462 2498.268,878.98 2499.188,880.203" id="path4734"/>
    <path d="M 2502.428,878.833 C 2503.293,879.139 2503.42,878.314 2503.293,877.683 2503.049,876.473 2502.045,876.101 2501.428,875.163 2501.09,874.65 2501.206,872.944 2500.043,873.929 2499.433,874.445 2498.169,875.638 2498.328,876.533 2499.275,876.783 2500.26,875.764 2500.987,876.758 2501.101,877.011 2501.095,877.26 2500.969,877.505 2500.893,878.04 2502.088,878.641 2502.428,878.833" id="path4736"/>
    <path d="M 2500.918,880.772 C 2501.094,880.063 2500.854,879.97 2500.198,880.493 2500.438,880.586 2500.678,880.679 2500.918,880.772" id="path4738"/>
    <path d="M 2501.718,869.183 C 2501.903,868.486 2501.66,868.367 2500.989,868.824 2501.231,868.943 2501.475,869.063 2501.718,869.183" id="path4740"/>
    <path d="M 2502.718,869.333 C 2503.451,869.473 2503.451,869.229 2502.718,868.603 2502.718,868.846 2502.718,869.089 2502.718,869.333" id="path4742"/>
    <path d="M 2503.798,880.563 C 2505.063,880.188 2504.285,879.315 2504.519,878.403 2503.113,878.11 2502.672,879.886 2503.798,880.563" id="path4744"/>
    <path d="M 2507.979,870.043 C 2507.649,869.755 2507.898,869.501 2507.258,869.692 2507.498,869.809 2507.738,869.926 2507.979,870.043" id="path4748"/>
    <path d="M 2508.769,870.913 C 2508.475,870.313 2507.858,870.061 2507.258,870.413 2507.771,870.549 2508.275,870.716 2508.769,870.913" id="path4750"/>
    <path d="M 2512.798,874.873 C 2514.206,876.324 2516.335,876.967 2517.838,878.403 2518.596,876.583 2516.079,873.945 2514.39,873.624 2513.266,873.409 2512.082,872.106 2511.258,871.372 2510.813,870.976 2510.574,870.486 2509.984,870.268 2509.409,870.057 2508.839,870.194 2508.338,869.763 2509.123,871.749 2510.659,874.166 2512.798,874.873" id="path4752"/>
    <path d="M 2511.938,883.513 C 2512.377,883.306 2512.58,883.206 2512.518,882.654 2511.751,882.553 2511.558,882.839 2511.938,883.513" id="path4754"/>
    <path d="M 2518.198,889.633 C 2519.508,889.814 2520.369,889.469 2521.612,890.105 2522.322,890.467 2523.836,890.98 2524.173,889.839 2524.577,888.471 2522.253,886.321 2521.003,886.194 2519.759,886.069 2518.155,886.784 2517.313,885.553 2516.766,884.753 2516.061,884.45 2515.425,885.463 2514.447,887.02 2516.783,889.316 2518.198,889.633" id="path4756"/>
    <path d="M 2516.838,878.613 C 2516.647,878.151 2516.573,877.671 2516.618,877.173 2515.291,877.173 2516.08,878.305 2516.838,878.613" id="path4758"/>
    <path d="M 2516.328,904.753 C 2516.82,904.994 2517.91,905.074 2518.198,905.253 2518.946,905.717 2518.908,906.833 2519.858,907.053 2520.87,905.689 2516.036,903.152 2516.328,904.753" id="path4760"/>
    <path d="M 2520.798,883.653 C 2521.146,883.005 2520.733,882.404 2519.998,882.503 2519.889,883.092 2520.213,883.546 2520.798,883.653" id="path4764"/>
    <path d="M 2520.578,884.233 C 2520.993,883.98 2521.427,883.763 2521.878,883.583 2521.282,883.361 2520.774,883.645 2520.578,884.233" id="path4766"/>
    <path d="M 2525.328,883.803 C 2526.794,884.879 2527.521,886.584 2528.718,887.904 2529.156,887.033 2528.346,883.776 2527.929,882.857 2527.678,882.306 2527.078,881.192 2526.527,880.901 2525.674,880.45 2527.11,879.655 2526.709,879.077 2526.262,878.433 2526.105,877.371 2525.433,876.904 2525.115,876.683 2523.708,876.139 2524.017,877.211 2524.612,879.287 2524.319,881.79 2525.328,883.803" id="path4768"/>
    <path d="M 2531.158,897.692 C 2532.394,898.115 2533.716,898.107 2534.978,898.413 2534.218,896.019 2533.576,895.773 2531.599,894.725 2530.951,894.381 2527.908,892.171 2527.488,893.662 2528.022,893.95 2528.578,894.118 2528.802,894.727 2529.326,896.146 2530.015,896.748 2531.158,897.692" id="path4770"/>
    <path d="M 2530.008,889.413 C 2530.479,888.205 2529.85,886.891 2528.998,886.033 2529.065,886.71 2529.049,887.385 2528.946,888.057 2528.902,888.552 2529.875,888.928 2530.008,889.413" id="path4772"/>
    <path d="M 2561.838,898.703 C 2562.402,897.953 2563.991,898.225 2563.988,897.043 2562.846,896.73 2561.665,897.114 2561.108,898.203 2561.352,898.37 2561.595,898.537 2561.838,898.703" id="path4774"/>
    <path d="M 2568.168,905.833 C 2568.385,905.736 2568.602,905.64 2568.818,905.543 2568.58,904.946 2568.07,904.691 2567.518,905.113 2567.708,905.378 2567.924,905.618 2568.168,905.833" id="path4778"/>
  </g>
  <g id="nc">
    <title>New Caledonia</title>
    <g class="landxx coastxx ncl" id="nc-" transform="translate(-29.9017,-45.0745)">
      <path d="M 2534.108,983.663 C 2534.923,984.676 2535.279,986.194 2536.43,986.913 2536.917,987.218 2536.751,988 2536.974,988.446 2537.307,989.111 2538.345,989.318 2538.502,990.072 2538.768,991.341 2540.358,991.711 2541.134,992.485 2542.279,993.629 2543.423,994.118 2544.837,994.822 2543.889,995.723 2545.632,997.467 2546.567,996.551 2546.238,996.994 2546.324,997.18 2546.346,997.701 2547.281,995.954 2547.943,998.364 2548.845,998.148 2550.061,997.856 2551.359,997.814 2550.591,996.026 2550.263,995.262 2549.588,995.185 2549.008,994.712 2548.266,994.107 2547.848,993.201 2547.268,992.459 2546.166,991.05 2544.381,990.532 2543.188,989.282 2542.245,988.294 2541.764,987.304 2541.262,986.052 2540.61,984.426 2540.308,984.664 2538.942,983.661 2537.727,982.768 2537.317,981.033 2535.987,980.281 2535.421,979.961 2534.863,980.286 2534.291,980.055 2533.531,979.749 2533.286,978.884 2532.597,978.481 2532.953,979.121 2533.205,979.923 2533.368,980.635 2533.485,981.151 2533.173,981.507 2533.404,982.044 2533.646,982.603 2534.037,983.034 2534.108,983.663" id="path2568"/>
      <path d="M 2550.168,983.883 C 2551.262,983.451 2550.979,982.501 2551.468,981.643 2550.975,982.361 2550.815,983.262 2550.168,983.883" id="path2570"/>
      <path d="M 2555.718,987.913 C 2556.582,987.228 2556.22,983.252 2554.559,983.813 2555.959,984.771 2554.237,984.797 2553.989,985.602 2553.604,986.846 2555.136,987.149 2555.718,987.913" id="path2574"/>
      <path d="M 2503.798,972.003 C 2504.077,971.533 2504.271,971.029 2504.378,970.493 2503.99,970.856 2503.643,971.448 2503.798,972.003" id="path3370"/>
    </g>
    </g>
  <g id="tl">
    <title>Timor-Leste</title>
    <g class="landxx tls" id="tl-" transform="translate(-29.9017,-45.0745)">
      <path d="M 2252.9175,884.3125 C 2252.9725,887.0145 2253.6,885.886 2255.257,884.882 2256.841,883.922 2259.292,883.342 2261.051,882.659 2263.883,881.559 2267.953,880.504 2269.935,877.947 2271.076,876.476 2268.007,876.776 2267.352,876.969 2265.572,877.495 2263.998,877.729 2262.175,878.04 2260.222,878.373 2258.414,878.336 2256.407,878.762 2255.651,878.923 2254.628,878.827 2253.99,879.342 2253.315,879.886 2252.9342,881.1755 2252.2302,881.7025 2253.9042,882.5135 2253.7415,882.9685 2252.9175,884.3125 z" id="path2786"/>
      </g>
    </g>
  <g id="vu">
    <title>Vanuatu</title>
    <g class="landxx coastxx vut" id="vu-" transform="translate(-29.9017,-45.0745)">
      <path d="M 2569.758,928.583 C 2570.657,928.098 2570.706,926.496 2569.502,927.348 2568.957,927.733 2568.765,928.83 2569.758,928.583" id="path6058"/>
      <path d="M 2569.898,925.343 C 2570.768,924.929 2570.98,923.975 2570.328,923.253 2569.338,923.681 2569.623,924.545 2569.898,925.343" id="path6062"/>
      <path d="M 2565.428,935.493 C 2565.106,934.968 2565.059,934.418 2565.288,933.843 2564.101,934.319 2563.174,937.326 2563.059,934.273 2563.014,933.096 2561.609,930.253 2561.457,933.059 2561.389,934.33 2562.057,935.514 2561.596,936.771 2561.154,937.976 2561.895,938.701 2561.909,939.893 2564.429,939.896 2566.518,938.106 2565.428,935.493" id="path6048"/>
      <path d="M 2565.868,948.243 C 2566.53,947.82 2569.257,947.625 2568.539,946.269 2567.994,945.238 2566.893,944.718 2566.342,943.646 2564.274,939.622 2563.82,945.397 2565.288,944.132 2566.165,945.354 2565.046,947 2565.868,948.243" id="path6052"/>
      <path d="M 2564.998,940.973 C 2565.299,940.634 2565.322,940.274 2565.068,939.893 2564.763,940.055 2564.5,940.269 2564.278,940.534 2564.519,940.68 2564.758,940.826 2564.998,940.973" id="path6054"/>
      <path d="M 2570.258,958.893 C 2571.524,959.04 2572.216,957.231 2571.188,956.459 2570.463,955.916 2568.967,957.513 2568.749,958.103 2570.072,957.177 2568.834,958.643 2570.258,958.893" id="path6056"/>
      <path d="M 2570.398,938.663 C 2570.939,938.134 2571.413,937.533 2571.768,936.863 2571.049,936.978 2570.291,937.071 2569.851,937.727 2569.476,938.286 2569.654,938.775 2570.398,938.663" id="path6064"/>
      <path d="M 2571.188,946.223 C 2571.709,946.163 2572.191,945.996 2572.637,945.723 2572.165,945.396 2571.867,944.869 2571.988,944.284 2571.17,944.253 2570.553,944.856 2569.758,944.924 2569.864,945.682 2570.586,945.96 2571.188,946.223" id="path6066"/>
      <path d="M 2572.778,950.403 C 2572.836,949.658 2571.199,948.84 2570.688,948.533 2569.551,950.481 2571.938,949.582 2572.778,950.403" id="path6068"/>
      <path d="M 2572.269,943.053 C 2573.28,942.275 2573.337,939.597 2572.708,938.593 2572.355,940.085 2572.072,941.512 2572.269,943.053" id="path6072"/>
      <path d="M 2572.708,937.873 C 2573.697,937.005 2573.703,935.227 2573.138,934.133 2573.039,935.385 2572.723,936.613 2572.708,937.873" id="path6074"/>
      <path d="M 2574.578,969.043 C 2575.237,968.638 2574.907,965.486 2573.638,965.814 2573.157,965.938 2572.804,967.327 2572.721,967.732 2572.568,968.473 2574.135,968.728 2574.578,969.043" id="path6076"/>
      <path d="M 2574.428,974.733 C 2575.38,973.747 2573.981,972.846 2574.428,971.783 2572.664,971.967 2573.268,974.147 2574.428,974.733" id="path6078"/>
      <path d="M 2576.088,979.843 C 2576.33,979.63 2576.547,979.393 2576.738,979.133 2576.096,978.717 2575.19,979.406 2576.088,979.843" id="path6080"/>
    </g>
    </g>
  <g id="fm">
    <title>Micronesia, Federated States of</title>
    <path class="landxx coastxx fsm" d="M 2477.2063,700.91755 C 2478.5223,700.60955 2477.5313,699.06255 2476.4853,699.40455 2476.5153,700.00955 2476.7553,700.51355 2477.2063,700.91755" id="fm-"/>
    </g>
  <g id="pw">
    <title>Palau</title>
    <path class="landxx coastxx plw" d="M 2296.1363,695.94955 C 2296.7143,695.17055 2297.1793,693.93955 2296.7063,692.99755 2296.0783,693.74755 2295.3953,695.03055 2296.1363,695.94955" id="pw-"/>
    </g>
  <g id="nr">
    <title>Nauru</title>
    <path class="landxx coastxx nru" d="M 2531.0983,743.14595 C 2531.3153,743.04895 2531.5323,742.95295 2531.7483,742.85595 2531.5103,742.25895 2531.0003,742.00395 2530.4483,742.42595 2530.6383,742.69095 2530.8543,742.93095 2531.0983,743.14595" id="nr-"/>
    </g>
  </svg>