<svg xmlns="http://www.w3.org/2000/svg" class="world_map zoom3" height="127" id="svg2985" version="1.1" viewBox="745 860 181 203" width="127">
  <title>World Map</title>
  <defs id="defs2987"/>
  <defs>
    <link xmlns="http://www.w3.org/1999/xhtml" href="../css/svg.css" type="text/css" rel="stylesheet"/>
  </defs>
  <style id="style_css_sheet" type="text/css">
/*
 * Below are Cascading Style Sheet (CSS) definitions in use in this file,
 * which allow easily changing how countries are displayed.
 *
 */
/* --- Custom styles for Peace Corps --- */
.world_map .world_map-is_selected {
  fill: #C94112 !important;
}
.world_map .landxx {
  fill: #F2EFE8;
  stroke: #ffffff;
  fill-rule: evenodd;
}
.world_map.zoom4 .landxx {
  stroke-width: 2px;
}
.world_map.zoom3 .landxx {
  stroke-width: 3px;
}
.world_map.zoom2 .landxx {
  stroke-width: 4px;
}
.world_map.zoom1 .landxx {
  stroke-width: 5px;
}
.world_map .coastxx {
  fill: #F2EFE8;
  stroke: #ffffff;
  stroke-width: 2px;
  fill-rule: evenodd;
}
.world_map .oceanxx {
  opacity: 1;
  color: #ccc;
  fill: #ffffff;
  stroke: #ffffff;
  stroke-width: 0.5;
  stroke-miterlimit: 1;
}

/* --- Original Styles --- *
/*
 * Circles around small countries
 *
 * Change opacity to 1 to display all circles.
 *
 */
.circlexx
{
   opacity:0;
   fill:#e0e0e0;
   stroke:#000000;
   stroke-width:0.5;
}

/*
 * Smaller circles around French DOMs and Chinese SARs
 *
 * Change opacity to 1 to display all subnational circles.
 *
 */
.subxx
{
   opacity:0;
   stroke-width:0.3;
}

/*
 * Circles around small, unrecognized countries
 *
 * Change opacity to 1 to display all circles.
 *
 */
.unxx
{
   opacity:0;
   fill:#e0e0e0;
   stroke:#000000;
   stroke-width:0.3;
}

/*
 * Circles around small countries, but with no permanent residents 
 *
 * Change opacity to 1 to display all circles.
 *
 */
.noxx
{
   opacity:0;
   fill:#e0e0e0;
   stroke:#000000;
   stroke-width:0.5;
}

/*
 * land
 */
.landxx
{
}
/*
 * Styles for coastlines of islands with no borders
 */


/*
 * Styles for nations with limited recognition
 */
.limitxx
{
   fill: #e0e0e0;
   stroke:#ffffff;
   stroke-width:0;
   fill-rule:evenodd;
}

/*
 * Styles for nations with no permanent population.
 */
.antxx
{
   fill: #e0e0e0;
   stroke:#ffffff;
   stroke-width:0;
   fill-rule:evenodd;
}

/*
 * Ocean
 */


/*
 * Additional style rules
 *
 * The following are examples of colouring countries.  You can substitute these with your own styles to colour the countries on the map.
 *
 * Color a few countries:
 *
 * .gb, .au, .nc
 * {
 *    fill:       #ff0000;
 * }
 *
 * Color a few small country circles (and the countries):
 *
 * .ms, .ky
 * {
 *    opacity:    1;
 *    fill:       #ff0000;
 * }
 *
 */

</style>
  <path class="oceanxx" d="M 2079.5058,1457.5605 615.24779,1457.5605 C 615.13079,1457.5605 615.07079,1457.5505 614.95179,1457.5215 611.67679,1456.6515 608.40179,1455.7815 605.12779,1454.9105 599.15079,1453.3225 593.22879,1451.5225 587.30779,1449.7385 564.39379,1442.8315 541.76579,1434.6995 519.46979,1426.0115 495.81079,1416.7935 472.34979,1407.0946 449.19179,1396.6816 426.78379,1386.6056 405.17679,1375.0536 383.76379,1363.0356 363.11779,1351.4496 343.01079,1338.8296 323.37979,1325.5996 302.29179,1311.3876 281.47879,1296.8506 261.05379,1281.7006 242.35079,1267.8276 223.73679,1253.6306 206.05279,1238.4686 186.98679,1222.1216 167.82379,1205.7706 150.35279,1187.6906 132.97779,1169.7106 116.33279,1151.0606 100.15679,1131.9976 84.352777,1113.3736 70.086776,1093.4716 56.901786,1072.9246 44.046786,1052.8916 32.093776,1032.1356 22.469776,1010.3426 17.516776,999.12753 12.408776,987.76556 8.7017761,976.06056 5.0657761,964.58166 1.5997761,953.04259 -1.5932239,941.43054 -8.0102239,918.09356 -14.055224,894.78356 -18.234224,870.92056 -22.491222,846.60856 -24.894222,822.19856 -26.943222,797.62156 -28.947222,773.58556 -28.829222,749.40156 -27.225222,725.34856 -25.648222,701.69856 -23.363222,677.92456 -19.274222,654.56456 -15.018224,630.25156 -9.3842239,606.45156 -2.8412239,582.66156 3.5687761,559.35256 10.483776,536.34856 20.265776,514.19856 30.320776,491.42956 42.318786,469.90956 55.502786,448.81656 68.512776,428.00356 83.108777,408.26756 98.686787,389.31756 113.73479,371.01156 129.68979,353.25256 146.15179,336.20856 163.77479,317.96256 182.64579,301.14556 201.89579,284.64756 220.33379,268.84456 239.55379,253.98456 258.95979,239.39656 278.42779,224.76056 298.39379,210.83356 318.55579,197.17556 339.26979,183.14456 360.47879,169.92056 382.15079,157.42556 403.46579,145.13656 425.31479,133.98856 447.60479,123.59356 469.58579,113.34356 492.14979,104.17656 514.74579,95.37556 537.44879,86.532565 560.37879,78.195565 583.63479,70.914565 589.69379,69.017565 595.80079,67.276565 601.90879,65.549565 604.63079,64.779565 607.36079,64.045565 610.09479,63.318565 611.59979,62.918565 613.56579,61.986565 615.13379,61.986565 L 2079.9638,61.986565 C 2079.9798,61.986565 2079.9958,61.986565 2080.0118,61.986565 2079.8448,61.986565 2079.6788,61.986565 2079.5118,61.986565 2102.8268,68.191565 2125.8778,75.323565 2148.5448,83.611565 2171.6378,92.054565 2194.6158,100.87956 2217.2348,110.52956 2240.5208,120.46556 2263.4848,130.95256 2285.8828,142.76456 2306.9808,153.89056 2327.8178,165.78556 2347.8608,178.72156 2368.9418,192.32656 2389.7498,206.29256 2410.2218,220.80056 2429.7368,234.62956 2448.9938,248.98756 2467.6208,263.99256 2486.8818,279.50856 2506.0408,295.30556 2524.0538,312.27356 2541.8708,329.05756 2558.7508,346.67256 2574.9408,365.03656 2591.2478,383.53256 2607.1478,402.30656 2621.4508,422.41856 2635.3488,441.96256 2648.4468,462.42756 2659.5898,483.67756 2671.1238,505.67356 2681.1048,528.35656 2688.6188,552.05056 2692.2518,563.50656 2695.3368,575.14756 2698.5608,586.72256 2701.7738,598.25356 2704.9238,609.81956 2707.4578,621.52456 2712.6258,645.40556 2716.6718,669.47856 2719.1178,693.79656 2721.5718,718.19256 2723.1798,742.56356 2722.9808,767.09056 2722.7908,790.65456 2720.6908,814.43756 2717.7688,837.81156 2714.7368,862.07056 2710.5198,886.16156 2704.6398,909.90056 2701.6808,921.84356 2698.3948,933.69556 2695.0378,945.53154 2691.7468,957.13466 2688.5558,968.83466 2684.3988,980.16156 2676.0918,1002.8036 2666.1688,1024.8836 2654.1338,1045.8046 2641.9958,1066.9066 2628.8498,1087.4866 2614.2378,1106.9696 2599.1658,1127.0666 2582.6678,1145.9446 2565.8948,1164.6296 2549.8298,1182.5266 2532.8918,1199.7316 2514.8648,1215.6616 2496.0788,1232.2646 2476.8978,1248.3126 2457.1558,1263.7656 2438.2988,1278.5276 2418.9668,1292.7306 2399.3188,1306.4206 2378.7018,1320.7866 2357.7538,1334.6106 2336.4758,1347.9776 2326.4088,1354.3016 2316.0058,1360.1326 2305.6418,1365.9516 2295.0348,1371.9086 2284.3858,1378.0166 2273.4448,1383.3436 2250.7338,1394.3986 2227.7768,1404.7266 2204.3888,1414.2665 2181.7848,1423.4875 2159.0678,1432.2695 2136.0228,1440.3345 2117.4118,1446.8465 2098.5568,1452.4975 2079.5058,1457.5605" id="ocean"/>
  <path class="landxx per" d="M 649.70729,798.40855 C 650.70429,796.34955 651.25329,794.94055 652.82029,793.18655 653.52029,792.40355 654.06029,791.46455 654.90629,790.82055 655.51929,790.35355 656.85129,789.72755 656.90729,788.82755 657.90129,789.11155 658.94929,793.17555 658.08529,793.68355 657.45629,794.05355 656.73829,793.72055 656.28529,794.36555 655.76829,795.10055 655.88429,796.10255 656.90729,796.24755 656.06229,797.37355 656.29775,798.80046 657.63075,797.36346 658.80075,796.10246 659.39029,796.98555 660.50129,797.92755 661.45329,798.73555 662.54329,797.51055 663.29329,798.72655 664.06329,799.97655 664.08829,802.04655 665.87529,802.38355 667.38429,802.66855 667.47922,802.58983 667.91075,800.92146 670.79464,789.77187 673.14786,785.85615 669.83075,797.93746 669.34935,799.69076 670.34629,794.76255 671.09229,793.07755 671.47529,792.21155 671.77948,791.72909 671.79348,790.73309 671.80248,790.10109 672.75029,788.20955 673.10829,789.90755 673.34929,789.51755 673.39629,789.10755 673.24929,788.67855 673.19129,788.12555 673.99929,787.52755 674.29429,787.13655 675.06229,786.11555 676.02329,785.35855 677.18229,784.82755 679.70429,783.67155 682.65629,783.24655 684.95829,781.64855 689.80029,778.28655 693.15329,773.25355 694.20629,767.51755 694.60029,767.93455 695.07929,768.10055 695.64529,768.01755 694.93229,766.35755 695.67829,764.88855 694.68729,763.47155 694.29729,762.91355 692.35829,761.21655 692.47829,760.52755 693.29529,760.66655 694.24829,760.94555 695.02229,760.48655 695.78929,760.03255 695.54629,759.88455 696.41129,760.20555 697.90329,760.75855 699.00729,761.35055 700.03729,762.59155 701.37629,764.20655 702.13329,764.80255 702.77429,766.86755 703.04229,767.72855 702.70929,768.43255 703.89629,768.53555 705.04729,768.63555 704.74629,769.09555 705.54229,769.80655 707.08629,771.18755 708.22329,770.45255 708.76129,772.80955 709.17829,774.63555 709.10029,775.07455 711.04729,775.65755 713.14529,776.28555 711.16429,778.73355 712.23529,779.95355 712.81629,780.61455 713.72229,780.83955 714.57029,780.80455 715.09929,780.73355 715.63129,780.68655 716.16529,780.66255 716.87329,780.66455 717.70029,781.08055 718.32829,781.05855 719.77129,781.00455 721.48029,779.96455 722.10629,778.70555 722.76729,777.37655 724.59329,779.91755 725.38329,779.97855 726.57429,780.07055 728.48456,778.20501 729.33256,778.82601 730.00956,779.32201 730.53529,780.21655 731.18729,780.66355 731.81329,781.09355 733.28529,780.97655 733.67029,781.38555 735.24429,783.05555 735.26829,783.65755 734.03829,785.60555 733.05329,787.16555 731.13929,789.83455 730.86629,791.64955 730.53929,793.82055 733.04029,792.12055 733.97929,792.94055 734.73729,793.60155 735.29678,794.50945 735.86429,795.33055 736.13728,795.72553 736.44813,795.91015 736.31122,796.23756 736.22092,796.93804 735.60729,797.17647 735.18029,796.38855 734.98729,796.62855 734.79429,796.86855 734.60029,797.10855 733.47829,795.58455 730.99129,794.59255 729.57629,796.37955 727.96329,798.41755 724.45129,797.87955 722.13329,798.49355 720.91929,798.81555 720.33229,800.16355 719.12929,800.53855 717.86529,800.93355 718.27629,801.44055 717.43429,802.19855 715.41629,804.01755 714.01829,803.49555 713.98829,806.61355 713.97729,807.69455 714.04329,808.60055 713.41029,809.54155 712.80729,810.43655 712.08729,811.33355 712.32729,812.48055 712.57629,813.67055 713.60229,815.36255 712.27229,816.28055 711.15329,817.05155 710.09529,817.44555 709.17829,818.52055 708.50929,819.30455 708.16129,820.19555 708.37529,821.22855 708.49029,821.72855 708.66429,822.20955 708.89629,822.66855 708.33729,822.91155 707.75629,823.21655 707.33529,823.66955 705.71129,825.41755 710.50329,826.93455 708.53629,828.13755 709.53929,828.79255 710.23329,829.98855 710.44529,831.15255 710.56929,831.83355 711.03829,832.07055 711.53029,832.46755 712.14629,832.96355 712.08829,833.71955 712.49529,834.33755 713.21029,835.42055 714.58829,835.93055 715.09029,837.18455 715.68929,838.67955 714.54029,839.59255 713.71929,840.66755 715.49629,841.59755 718.10829,840.76155 719.87329,841.93455 721.01929,842.69555 722.07729,844.67355 721.63929,846.06755 724.02629,846.36755 727.08629,846.88455 729.20929,845.43155 730.54929,844.51455 732.29629,841.19955 734.10029,841.17755 733.88929,842.04455 733.21529,842.08855 733.74529,842.98455 734.30729,843.93555 733.36729,844.88455 733.42729,845.97055 733.58129,848.79455 733.67829,851.69055 734.02029,854.49755 734.94729,853.68455 735.57429,855.34655 736.54029,855.25255 737.87229,855.12255 738.80594,854.07423 740.17529,854.08555 741.48129,854.09635 742.42716,853.9474 742.80729,855.23755 743.38531,857.1993 744.77029,858.81655 745.76429,860.60555 746.76529,862.40655 747.76235,864.21041 748.79229,865.99555 749.68825,867.54847 750.48235,868.52623 749.0131,869.62574 747.71752,870.59528 747.5645,872.34475 748.03629,873.74055 748.4436,874.94559 748.14507,876.55626 748.21329,878.72892 748.24269,879.66575 749.38329,880.85655 749.42429,881.82855 749.42629,881.88855 748.59129,884.19455 748.52429,884.25555 747.64829,885.04755 747.12783,886.48309 746.72083,887.58809 745.97683,889.60709 747.96829,889.77855 747.97329,891.34755 747.97629,892.46155 747.24338,892.92128 747.03538,894.00128 745.86651,893.20041 743.24738,890.47412 742.74681,892.5042 742.40169,893.90384 743.04755,893.42414 743.19709,895.17686 743.27809,895.37686 742.02907,894.02308 742.53106,894.44853 742.51846,894.74534 740.86179,896.22205 743.81851,897.26842 743.92383,895.8663 745.62872,898.12678 746.42421,897.90055 746.87964,897.77103 746.64176,898.40953 746.55181,899.47353 747.46167,899.73676 749.0775,900.18287 749.22548,899.60919 749.34648,899.63119 750.0712,899.72546 750.27587,899.8804 749.69122,903.09688 750.09538,902.38149 750.5333,902.74325 750.21012,903.41125 750.67178,903.25889 750.21093,903.85691 749.41889,904.88467 748.70629,906.44855 747.75329,907.39555 747.33798,907.80824 746.76332,908.02659 746.43529,908.52955 745.83332,909.45253 747.08174,909.02182 747.24329,909.79455 747.45047,910.78553 747.84866,910.75074 747.49553,911.19414 741.76191,918.39354 745.57156,912.17819 745.33311,912.68064 744.7971,913.81011 746.19429,915.25955 745.43829,916.55555 744.78729,917.67155 743.41229,918.06655 742.19729,918.06655 740.83329,918.06655 739.78329,917.04755 738.85829,916.17555 737.76729,915.14855 736.57329,914.66755 735.39329,913.83155 733.29929,912.34855 733.45629,909.65055 730.94629,908.62055 727.97529,907.40055 725.97329,904.49855 722.82829,903.72455 721.35629,903.36255 719.84429,902.34555 718.56529,901.54955 717.03429,900.59755 715.37829,900.27855 713.81829,899.43755 712.29129,898.61255 710.99529,897.35255 709.46429,896.48055 707.74229,895.50055 706.02729,894.53955 704.28829,893.58655 702.81929,892.78155 701.93429,890.93555 700.77829,889.74655 699.24629,888.17055 697.08729,887.34255 696.01629,885.38655 695.41229,884.28255 694.64329,882.95655 693.58329,882.29155 692.65629,881.70955 693.88729,879.48555 692.26329,879.76555 692.28229,879.48455 692.35329,879.21755 692.47929,878.96555 692.72129,879.10955 692.96129,879.25655 693.19929,879.40555 693.83929,876.20755 692.45629,874.54955 690.85329,871.92955 689.39729,869.54955 688.40829,867.03255 686.36729,865.09755 685.75529,864.51655 685.13029,864.21055 685.29729,863.41555 685.48929,862.50055 684.95329,861.47355 684.51629,860.71155 684.08729,859.96255 683.56829,859.15955 682.90329,858.59455 682.29129,858.07355 681.24629,857.82655 680.85729,857.06855 680.80929,856.67155 680.84529,856.27755 680.96429,855.88855 680.84329,855.02555 680.29629,854.03755 679.90329,853.27355 679.15029,851.80855 678.12229,850.51055 677.28729,849.09455 676.50029,847.76055 676.05829,846.16255 675.50129,844.72555 674.20129,841.36955 672.10529,838.78555 671.16329,835.54055 669.87629,831.11155 666.11529,828.41555 664.40829,824.04055 662.45529,819.03655 658.41729,815.47055 653.52129,813.40655 653.09029,813.22455 651.47529,812.83655 651.42029,812.23955 651.34429,811.40755 651.16929,810.01955 652.36429,810.16755 654.49029,810.43155 653.68329,808.42155 652.99529,807.37455 652.02429,805.89755 651.05829,805.28055 651.00729,803.44355 651.20429,803.20755 651.39629,802.96755 651.58329,802.72355 651.54729,802.44355 650.69829,801.66955 650.50929,801.45555 649.51529,800.33555 650.12329,799.67555 649.70729,798.40855" id="pe">
    <title>Peru</title>
  </path>
  <g class="landxx bol" id="bo">
    <title>Bolivia, Plurinational State of</title>
    <path d="M 742.08629,854.27855 C 743.99329,854.40255 745.90929,854.56755 747.81129,854.71055 748.68329,854.77555 748.23629,854.92055 748.36629,855.44055 748.60129,856.38055 749.95729,855.41755 750.33829,855.25255 750.77829,855.06155 751.65329,854.87955 751.93629,854.43355 752.37129,853.74755 752.51029,852.77755 753.16229,852.24055 754.60629,851.05155 755.75629,852.96855 756.54129,851.05155 757.22429,849.38255 759.34629,849.30355 760.65729,848.37855 761.87829,847.51655 762.49729,845.73555 764.01329,845.29355 765.82229,844.76655 767.84329,843.90955 769.76329,844.17655 771.88829,844.47255 771.41829,844.66455 772.82729,843.33855 775.88229,845.45055 772.60629,849.47355 773.49429,852.18755 773.71629,852.86755 774.27829,853.25655 774.51429,853.85755 774.77829,854.53055 774.13029,855.22455 773.97329,855.83655 773.50629,857.66355 775.28929,858.64755 775.69329,860.00855 775.98429,860.98855 775.89229,860.87455 776.73629,861.59355 777.25929,862.03955 777.12829,863.15055 777.61129,863.43055 778.26129,863.80755 778.62159,863.47175 779.31529,864.04055 779.97829,864.5842 780.61729,864.89898 781.38529,865.51855 781.4885,865.60185 781.91208,866.52515 782.08508,866.71415 782.59908,867.27915 783.13029,867.43055 783.84729,867.59855 784.82129,867.82755 785.58508,868.22555 786.54208,867.69355 787.32708,867.25755 787.89129,867.46355 788.60429,867.96055 789.18329,868.36355 789.66529,868.89055 790.26329,869.26955 791.08929,869.79155 791.24829,868.70755 791.90829,868.89955 793.15329,869.26155 793.18929,871.59855 794.80429,871.77955 796.21529,871.93755 797.19629,873.05555 798.59529,873.13155 800.53529,873.23655 800.81929,876.11155 802.44029,876.52855 803.77329,876.87155 805.05429,876.64655 806.36729,876.44555 808.23229,876.16055 810.11829,877.64355 811.66529,878.51955 814.19829,879.95455 812.57929,881.31955 813.49329,883.39655 814.50029,885.68555 814.88329,887.70455 815.37829,890.13955 814.75329,890.12155 814.12929,890.14455 813.50829,890.20955 813.58629,891.98355 815.84729,893.00955 816.14529,894.91655 816.36829,896.34155 816.21329,898.01355 816.83729,899.34055 817.62829,901.02155 820.70729,900.44955 822.22129,900.59955 825.07029,900.88155 828.02729,901.29555 830.85829,900.64855 830.89929,901.91755 830.15729,902.69255 830.06129,903.83755 829.98229,904.78255 830.36629,905.97855 830.61129,906.89155 830.99929,908.33355 832.68329,910.57855 834.25129,910.87055 835.05029,911.01955 835.47029,910.48655 835.83129,911.49455 836.10529,912.25955 836.46929,912.96355 836.77429,913.71955 837.57729,915.70555 838.61829,916.81155 838.15829,918.96555 837.92729,920.04855 837.01929,921.91055 837.39329,923.01955 837.91929,924.58055 836.80529,925.90955 836.20129,927.41255 835.38629,929.43855 835.34429,930.36655 836.99229,931.75655 838.21729,932.78955 836.25229,933.43055 835.39829,934.05955 835.98929,932.10655 833.52931,929.90729 831.99631,928.92929 830.38731,927.90229 828.57172,927.09964 826.71839,926.70336 821.58358,925.60544 816.2301,928.47107 811.34075,928.97582 808.94689,929.22295 807.75402,929.45873 807.37002,932.03873 807.05002,934.18273 805.5011,935.36028 805.1521,937.44028 804.8241,939.39828 805.66529,941.30655 805.26529,943.32855 804.69829,946.19655 804.55456,949.31873 803.86056,952.15873 801.67254,950.75706 802.59106,949.80941 800.60429,949.89382 799.05854,949.95952 797.17838,949.58804 795.73338,950.07174 794.00943,950.6488 794.11038,949.31082 793.19338,951.64482 792.40838,953.64182 792.12729,955.35355 791.90829,957.46155 789.72029,954.41555 790.08129,951.46655 785.87529,950.79455 784.16229,950.52055 781.65629,951.33755 780.13129,950.59555 778.79629,949.94555 778.02329,948.32655 776.49829,948.02155 776.28729,950.18955 776.41029,950.87255 774.23129,951.66355 773.14029,952.06055 771.9476,954.1548 771.34229,955.19255 770.44286,956.73455 770.09413,957.40255 768.00329,957.69055 767.24126,957.79551 766.02987,957.41495 765.67248,956.96765 764.32641,953.46418 763.941,951.34718 762.42911,948.52637 761.12286,946.19902 761.31791,944.29636 760.30284,942.72291 759.70969,941.80349 758.64369,941.04607 758.10784,940.14928 757.40484,938.97277 758.48229,937.80029 758.02134,937.84155 757.13937,937.92045 756.55434,936.99355 756.15134,936.18955 755.70034,935.28955 756.76234,934.67755 755.54834,933.55255 757.68834,932.25955 757.51234,932.46155 756.00534,930.42855 755.78634,930.13255 756.66184,928.88449 756.76934,928.60755 757.2151,927.45917 756.68884,926.91632 755.71034,926.08155 753.76837,924.42475 752.87434,923.03655 752.22334,920.58855 751.92934,919.48055 750.22434,916.64755 751.29934,915.62255 747.69003,914.88724 747.65927,909.44195 746.18934,909.14355 746.31034,908.47755 746.80234,908.12155 747.31234,907.75755 748.09434,907.20055 748.34234,906.29055 748.88234,905.52855 749.35034,904.86755 749.68934,904.26355 750.32234,903.75455 750.41834,903.67755 750.22157,902.57947 750.40534,902.67554 750.96695,902.96914 752.35132,903.25641 750.95781,901.61895 751.40083,901.90606 753.0688,900.04034 753.0364,900.55502 752.92294,898.6821 750.00867,901.78581 751.14941,897.46301 749.33266,897.15752 750.86374,896.70276 746.92552,894.11519 747.12352,893.08519 748.39234,892.00255 747.87534,890.92955 747.06334,889.24155 745.79434,888.93055 746.84634,886.83855 747.52434,885.48855 748.22734,884.47555 748.68134,883.13855 749.22034,881.55255 749.54134,881.61655 748.60934,879.93755 747.75334,878.39455 748.38534,877.15455 748.23234,875.49955 748.10834,874.16555 747.29534,871.42955 748.30334,870.29655 749.30434,869.17055 750.22534,868.40455 749.36234,866.93355 746.91934,862.76755 744.32134,858.54955 742.08634,854.27855" id="path2375"/>
    <path d="M 750.24716,899.89622 C 750.26406,899.89722 749.7766,899.86692 749.13517,899.68022 748.83492,899.59282 749.36535,898.78795 749.64135,898.64095 749.96435,898.95595 750.57016,899.68222 750.24716,899.89622" id="path5225"/>
  </g>
  <g class="landxx coastxx bra" id="br" transform="translate(-29.9017,-45.0745)">
    <title>Brazil</title>
    <path class="landxx bra" d="M 736.705,869.763 C 737.21467,868.78423 736.99677,868.25129 738.126,868.048 739.25237,867.84522 737.9418,866.49605 738.26,864.987 738.77353,862.55166 740.6267,862.34388 742.23141,861.3016 743.37409,860.5594 742.538,858.928 742.25901,857.735 742.00401,856.641 742.57201,855.655 743.18401,854.793 744.41301,853.061 743.10801,850.545 744.36201,849.023 745.00801,848.238 746.38401,848.187 747.14501,847.442 747.82001,846.781 747.84461,846.0228 748.78061,845.6988 749.98561,845.2808 750.66601,844.099 751.82601,843.623 752.90001,843.183 754.56101,843.213 755.72401,842.971 757.10601,842.683 758.25619,842.74917 759.27501,841.668 759.43867,841.49432 759.69295,840.78975 761.23001,840.429 761.80294,840.29453 761.93178,840.55269 762.71101,840.723 763.37777,840.86873 764.11501,841.662 764.49801,842.182 764.69201,841.942 764.88501,841.703 765.07801,841.462 766.12101,843.181 766.64001,839.752 766.73001,839.144 767.14301,836.37 767.55736,833.59454 767.83401,830.803 768.20959,827.01315 768.62171,823.21167 769.38801,819.502 769.71307,817.92839 770.36922,816.4994 769.99122,814.8634 769.62822,813.2904 768.51875,812.48178 768.46842,810.79879 768.41642,809.05979 767.57501,808.7659 766.28501,807.558 764.84432,806.209 764.82062,804.792 764.82062,803.079 764.82062,802.083 764.66401,800.831 765.19901,799.914 766.5582,798.43964 769.24917,797.6842 770.32501,798.787 771.50201,799.412 771.91372,799.05795 771.82001,797.699 771.67401,795.58183 768.41801,794.44146 766.58601,795.456 766.57601,793.92474 765.76257,791.2729 766.47903,789.94502 767.17601,788.65323 769.70901,789.697 770.62701,789.697 772.82201,789.697 774.87902,789.6586 777.07002,789.7486 777.45802,789.7646 778.69782,789.8926 778.81482,789.2866 778.87582,788.9726 778.69113,788.06369 779.10805,787.79218 780.64602,786.7906 780.27228,789.93171 781.53042,789.3136 782.60407,788.78613 783.19892,787.44696 784.11801,786.711 785.80363,785.36124 786.64386,787.38872 787.05361,788.3518 787.86749,790.2648 787.86908,791.2 787.6778,793.065 787.6328,793.504 787.36101,794.491 788.16001,794.344 789.27801,794.138 789.05403,793.50624 789.93403,794.3932 791.00903,795.4762 791.71065,796.86399 793.12865,797.51899 795.03365,798.39799 796.3036,797.00682 797.77301,796.28296 800.68804,794.84696 799.1266,798.27296 799.55501,799.05496 800.26501,798.82396 801.43222,796.97896 801.86322,796.35896 802.59722,795.30496 802.91822,794.66756 804.20022,794.17156 805.27222,793.75656 805.85163,793.60736 806.66763,792.80736 807.24763,792.23836 808.76401,791.16096 808.70401,792.72196 809.56001,791.29996 810.51601,790.77996 810.93401,789.12196 811.26401,787.81796 811.75684,787.86546 812.91622,787.37456 813.41414,787.16374 815.29581,786.19443 815.52143,785.85516 816.90038,783.7816 815.86253,783.40339 814.24276,783.59855 813.44805,783.69435 812.11542,783.66885 811.478,783.13654 811.10363,782.82391 811.5417,781.39589 811.3938,780.99596 810.65117,778.98696 809.87502,778.20915 809.92399,774.86496 809.94449,773.46361 808.89659,772.49695 807.80999,771.37996 807.18874,770.74133 805.16499,768.47396 806.11399,767.52096 806.76399,767.80596 807.10159,768.72236 807.80559,768.79136 808.76859,768.88536 810.84111,768.17705 811.08978,769.62676 811.26347,770.63935 811.65228,770.89664 812.76799,770.74694 814.605,770.50047 815.66429,771.40754 815.97399,770.85096 817.41799,768.25583 818.53538,774.02411 820.543,773.65756 821.85538,773.41795 820.64382,770.96172 821.30499,769.93296 821.70738,769.30685 822.78499,769.62496 823.37099,768.92396 824.22399,767.90296 825.03714,769.29331 825.9102,768.99136 827.28326,768.51649 830.37748,767.69295 830.99839,766.53177 831.04229,766.44977 832.66592,765.51162 832.85599,765.52696 833.65684,765.59156 834.62921,766.02932 835.17239,765.04655 836.05315,763.45297 839.30154,762.41267 836.99399,759.42457 838.08699,759.25957 839.01933,759.43257 840.12199,759.11498 841.01799,758.85682 841.68114,759.14438 842.2758,760.05236 843.53882,761.98083 841.92345,763.36733 841.617,765.07996 841.45957,765.95976 843.54251,765.50248 844.66299,766.62196 844.9121,766.87085 844.34999,767.59496 844.56299,768.09296 844.90899,768.90096 845.29279,769.52917 845.74079,770.26317 846.23679,771.07617 843.96017,773.23216 843.78017,773.90416 843.60017,774.57316 843.58699,775.33996 843.41099,776.06296 843.08799,777.38896 842.35139,778.41617 842.19139,779.77517 841.95539,781.79117 842.24309,783.6338 843.56899,784.93596 844.51779,785.8678 843.45799,788.78786 844.70199,788.69196 844.60699,788.93196 844.50999,789.17196 844.41199,789.41196 845.91086,789.58103 847.04244,791.26123 847.64099,792.38396 848.13908,793.31827 849.14144,792.45466 849.73301,793.32658 850.26248,794.10695 851.16546,793.91431 851.62899,794.00896 852.15658,794.11669 852.68889,792.67866 853.2806,792.18779 855.38451,790.44241 856.82398,790.60992 858.501,789.88556 859.46535,789.46903 859.9492,790.06037 860.7632,789.07837 861.8402,787.77937 862.96013,787.07781 864.83899,787.65977 866.36699,788.13305 867.16703,787.20573 868.76303,787.65577 869.80407,787.94946 872.67919,789.40771 873.06939,787.63277 873.42839,785.99977 871.41223,785.87236 872.16317,784.36236 873.54179,781.5902 873.81951,783.98137 875.46799,783.56376 876.51124,783.29947 877.24547,783.05413 878.19581,782.70297 880.21084,781.95842 880.11998,782.35896 881.61898,783.60296 881.91598,783.84896 881.69698,783.01076 882.05599,783.56676 882.50199,784.25776 883.20439,784.49516 883.85539,784.98816 884.69739,785.62616 885.48299,785.70876 886.35799,786.18576 886.73145,786.54135 887.28498,785.09914 889.22799,784.40276 889.71799,784.13076 890.33399,784.78176 890.85499,784.82876 891.49699,784.88676 893.95839,784.19157 893.49439,785.51457 894.20239,785.18057 895.32739,786.01457 895.91139,785.49057 896.73639,784.74957 897.47201,784.43816 898.09201,783.48416 898.96701,782.13816 900.61974,777.81205 901.50611,776.47432 904.30186,772.25496 906.91309,768.8034 905.64407,766.03153 905.73507,766.60853 907.23899,769.68376 907.63399,770.11476 907.30499,769.17876 906.51899,768.02076 907.34399,767.09076 909.52999,768.44476 909.81299,770.62276 909.57399,772.99476 909.69799,772.29676 909.76499,771.53576 910.36399,771.05076 910.28099,774.18576 910.60599,777.45776 911.71299,780.40676 912.16499,781.61276 914.02099,785.27076 912.66399,786.38576 913.71199,786.03976 913.88699,787.17176 914.21699,787.85876 914.85999,789.19676 916.37899,788.65976 917.49399,789.12176 920.03799,790.17676 919.54799,793.17676 917.34399,794.16176 917.91699,793.99976 918.55999,794.10176 919.00399,794.52076 918.03499,795.48976 916.35299,796.35976 915.96199,797.76876 915.75999,798.49376 914.93499,798.82176 914.54499,799.41476 913.95399,800.31276 913.69299,801.31176 912.97299,802.14076 911.99699,803.26276 910.74299,804.07876 909.64999,805.07276 908.29999,806.30176 907.59599,807.95276 906.45999,809.35476 905.40699,810.65376 905.01999,811.65576 905.16799,813.32776 905.24999,814.26476 903.52199,814.43076 903.46099,815.71776 903.37899,817.45276 902.11099,816.51776 901.22299,816.48876 900.40999,816.46176 897.85399,817.71476 897.55499,818.49576 898.27399,818.32876 902.15699,817.59076 901.07499,819.36576 901.80999,818.55676 902.95599,818.63076 903.84599,818.10676 904.88499,817.49576 905.68299,816.83176 906.80599,816.34976 908.26799,815.72176 910.42799,813.90076 911.23599,812.52476 913.12799,813.62276 911.32199,816.46376 912.55399,817.98276 913.04899,818.59176 912.57199,820.22276 913.38799,820.46376 914.06899,820.66376 915.24799,820.26776 914.83499,821.45576 916.43299,821.76876 919.29299,818.85576 919.58499,822.17576 919.44199,821.15276 920.45199,820.96276 921.21699,820.81576 921.59899,820.82776 921.87099,820.65676 922.03299,820.30176 922.32999,819.51076 923.17799,819.80476 923.83399,819.65576 922.98199,822.32976 922.18799,824.07676 922.31399,826.85476 923.53399,825.27976 922.81299,821.85276 924.86099,820.88676 926.22399,820.24476 926.44899,820.05376 927.25599,818.73776 928.58799,816.56276 928.95199,818.17276 930.30399,819.00576 930.27599,818.54876 930.15899,818.11476 929.95399,817.70576 930.70699,817.65376 931.44399,817.48276 932.18399,817.34576 931.42399,816.96376 930.57099,817.27976 929.80399,817.41576 929.60999,816.36476 930.35399,816.32076 930.94299,815.75676 931.83599,814.90076 930.87199,812.99976 931.97199,811.91376 933.26799,810.63376 932.90199,811.71276 933.76399,811.37576 934.36999,811.13976 935.63899,809.61176 935.78399,811.15576 936.97799,809.99076 937.04499,811.61776 938.15399,811.22476 937.67699,810.81476 937.56599,810.19776 937.86399,809.64476 938.54499,809.84376 940.16999,810.24076 939.81399,811.29476 940.04999,811.16676 940.28999,811.04676 940.53399,810.93476 940.63099,811.20176 940.72699,811.46876 940.82399,811.73576 941.44599,811.24176 941.54399,811.23776 941.54399,812.08576 942.11999,811.89576 942.52399,811.40976 942.55399,810.79576 942.19199,811.72776 943.46499,811.90176 943.12399,812.81676 943.21299,812.23076 943.58999,811.85276 944.20399,812.08676 944.19499,812.70576 943.78799,813.17376 943.19399,813.31676 944.22199,812.71976 945.15799,814.18076 946.14399,813.24676 946.01199,814.60076 947.01199,813.79976 947.30399,813.09676 946.89099,814.73676 948.26699,814.05776 948.16399,815.11776 948.54999,814.96376 948.83999,814.70076 949.03399,814.32776 948.90099,815.25576 950.05799,814.91676 950.25399,815.76676 950.49999,815.53276 950.73999,815.29276 950.97399,815.04676 951.02099,815.58576 951.21499,816.06576 951.55399,816.48676 951.79199,816.29476 952.02899,816.10176 952.26399,815.90676 952.38699,816.62676 952.67099,816.96976 953.34399,816.26576 952.81899,816.64076 952.68099,817.23776 953.06399,817.77576 953.21299,817.22176 953.63999,816.79576 954.21299,816.69576 953.39999,817.42776 953.68899,818.98876 954.43399,819.65676 954.75899,819.04776 954.36799,818.02176 955.18999,817.70376 956.68399,817.12376 956.01499,818.19676 956.73399,818.42676 956.69199,817.82576 957.04999,817.35476 957.59399,817.13676 957.34399,817.60876 957.22399,818.11276 957.23399,818.64676 958.94299,817.62176 957.00999,820.68076 958.82399,819.57776 958.57399,819.80676 958.33399,820.04776 958.10399,820.29776 958.68699,820.49976 959.21999,820.21376 959.54299,819.72776 959.05199,820.79176 960.78199,820.20976 960.03299,821.63676 959.36399,822.91176 959.67899,823.97376 958.03299,824.47776 958.62499,824.10576 959.08799,824.43776 959.25299,825.04776 959.29499,824.13276 960.30199,822.72676 961.14599,823.91376 962.04799,825.18476 960.46799,825.58176 959.97099,826.53676 959.54699,827.35076 958.79299,829.86076 959.08399,830.74376 959.40599,831.72076 957.85599,832.53176 958.53399,833.25876 958.62399,831.88576 960.25299,831.46976 960.83399,830.37876 961.41099,829.29476 961.03199,827.47876 961.65999,826.58676 961.98099,826.12876 963.42999,825.08776 963.89899,825.87776 964.66899,827.17376 962.23099,827.86476 962.06499,828.93876 962.77499,828.48176 963.01499,828.65176 962.78499,829.44876 963.62399,829.04276 964.80299,825.75676 965.23499,827.42876 965.30599,826.27476 967.53099,825.64876 968.39499,826.13876 968.30299,823.86676 973.01199,826.38276 973.84699,826.86376 974.43899,827.20476 977.69999,828.53176 977.75499,829.15876 978.46499,828.69576 980.34799,829.86676 979.99499,828.36876 980.93799,828.57776 981.57599,829.28276 982.43499,829.65876 983.42499,830.09076 984.48699,830.02476 985.31499,830.81876 985.29899,829.43376 986.15399,829.58076 987.22999,829.54176 989.38699,829.46476 991.29299,828.59976 993.48999,829.06876 997.51199,829.92676 1001.233,833.36076 1004.368,835.82076 1005.412,836.63976 1006.609,836.77776 1007.475,837.80876 1008.304,838.79676 1008.945,839.90076 1009.73,840.91476 1010.615,842.05876 1011.8,842.56876 1012.612,843.69276 1013.479,844.89276 1015.073,845.02476 1016.027,846.26576 1016.985,847.51176 1018.381,847.00776 1019.474,848.08076 1020.739,849.32376 1022.961,848.82176 1024.513,848.62776 1028.081,848.18276 1030.717,849.51676 1031.754,853.05676 1032.156,854.42776 1032.758,855.79276 1032.782,857.24476 1032.792,857.68276 1032.417,858.41576 1032.755,858.58376 1033.142,858.77476 1033.357,859.30576 1033.511,859.67376 1034.159,861.22276 1035.258,864.67276 1034.424,866.30676 1034.654,865.95576 1034.867,865.59676 1035.064,865.22676 1034.908,866.86476 1036.105,868.83776 1034.424,870.04676 1034.69,870.11076 1034.953,870.18376 1035.214,870.26676 1034.541,871.62176 1035.607,873.25376 1034.784,874.48176 1033.932,875.75376 1034.568,877.46776 1033.901,878.80376 1033.125,880.35476 1032.856,882.09676 1032.137,883.67176 1031.347,885.40476 1029.625,886.53576 1028.954,888.33676 1028.704,888.15876 1028.464,887.96876 1028.234,887.76676 1028.287,888.49676 1028.059,889.40576 1027.364,888.19676 1027.485,888.65676 1027.775,888.89776 1028.234,888.91776 1027.184,890.98876 1025.646,893.69076 1023.907,895.25776 1023.19,895.90376 1022.222,896.16176 1021.492,896.80376 1020.731,897.47276 1020.138,898.34876 1019.234,898.84776 1019.385,898.23276 1018.991,897.79976 1018.434,897.62776 1018.365,898.29676 1019.205,898.51276 1019.084,899.13776 1018.927,899.94276 1018.232,901.01676 1017.434,900.00776 1017.829,900.52376 1018.759,901.02176 1018.197,901.79976 1017.872,902.25076 1016.515,903.74476 1017.064,902.08776 1016.613,902.80476 1016.707,903.70776 1016.064,904.32776 1016.353,904.23776 1016.64,904.14076 1016.924,904.03776 1015.34,906.29876 1012.822,917.69076 1008.714,916.99776 1009.47,915.27576 1007.723,914.95476 1007.204,913.60676 1007.17,914.38776 1006.307,916.58276 1005.624,914.90776 1005.836,915.60876 1006.92,915.89676 1006.888,916.65176 1006.83,917.97876 1005.153,918.92576 1005.624,920.37776 1004.47,919.59776 1004.707,921.58576 1004.685,922.39776 1004.768,922.02576 1004.887,921.66576 1005.044,921.31876 1005.431,922.32876 1005.44,923.20376 1005.404,924.26776 1005.124,924.04576 1004.861,923.80576 1004.614,923.54776 1005.239,924.07676 1005.798,925.78676 1005.554,926.57776 1005.75,926.07376 1005.94,925.56676 1006.124,925.05676 1006.223,928.08576 1005.258,930.83076 1005.695,933.90476 1006.07,936.54176 1007.217,939.30276 1007.348,941.93176 1007.58,946.59976 1004.65,950.94776 1005.948,955.73576 1006.673,958.40576 1004.984,958.73376 1003.84,960.74076 1002.521,963.05376 1002.319,965.92776 1002.649,968.52276 1002.884,970.37476 1003.981,974.10576 1001.789,975.06876 999.72199,975.97776 1001.382,980.02376 998.92499,980.35576 1000.67,981.89976 997.71499,983.83376 996.71799,984.78376 995.86399,985.59776 996.11099,986.21176 995.80899,987.30376 995.36399,988.91476 994.63099,990.36676 994.88999,992.08376 995.02499,992.97676 995.67199,994.37176 995.00199,995.18676 993.89699,996.53176 992.20699,996.48976 990.81799,997.31876 989.87599,997.88176 988.90499,998.93076 988.48199,999.94676 988.20799,1000.6038 988.52699,1001.2128 988.71799,1001.8398 988.91499,1002.4828 988.08799,1002.8178 988.41499,1003.5368 987.43199,1002.4488 984.61199,1002.9938 983.37499,1003.2518 982.65099,1003.4028 981.48799,1003.8018 980.78499,1003.3968 979.74199,1002.7958 980.48299,1001.7828 980.42499,1000.8768 978.10899,1001.1478 980.00999,1002.1138 979.70099,1003.2788 979.39499,1004.4318 974.76699,1003.9848 973.72399,1004.5468 974.43099,1003.7928 975.65199,1004.1308 976.53399,1003.8268 975.58599,1002.9798 974.52599,1002.5188 973.35099,1003.2348 972.30799,1003.8698 971.83999,1003.3648 970.76199,1003.4868 969.97999,1003.5748 968.67999,1003.6648 968.40699,1004.5928 968.15199,1005.4578 969.48599,1005.8388 969.98499,1006.2068 968.84799,1007.1348 967.33399,1006.1588 966.58999,1007.2558 965.94999,1008.1998 964.92299,1008.3118 964.03799,1008.9268 963.25599,1009.4688 964.21899,1010.3038 963.43499,1010.8178 962.35099,1011.5288 960.50399,1009.5158 958.96399,1010.8178 958.80199,1010.9548 957.73499,1012.9148 957.35199,1012.4308 957.01799,1012.0108 957.28099,1011.3938 956.44399,1011.5368 956.88499,1012.8458 955.19099,1012.9958 954.25099,1013.6228 953.09699,1014.3928 952.56399,1015.4878 951.65299,1016.4768 950.65999,1017.5528 949.13199,1017.8528 948.05599,1018.8228 947.13799,1019.6528 946.61399,1020.9098 945.57299,1021.6068 945.81199,1021.7548 946.05199,1021.9018 946.29299,1022.0468 945.48499,1022.8828 944.67899,1023.8568 944.20299,1024.9268 944.12899,1024.3818 944.27199,1023.9028 944.63299,1023.4878 943.88099,1023.8098 943.10199,1023.6028 942.40299,1023.2668 942.72799,1024.7608 941.89699,1025.6248 940.46299,1024.4168 940.44799,1025.2778 942.48299,1026.1638 943.26299,1026.0768 942.72499,1026.5768 942.53799,1027.2528 942.40299,1027.9468 942.29599,1028.5008 941.17599,1028.3248 940.82299,1028.5968 941.30499,1028.5818 941.78499,1028.6068 942.26299,1028.6668 942.04599,1029.3478 942.32699,1030.0458 942.12899,1030.7238 941.89599,1031.5208 941.04799,1031.6578 940.82299,1030.7568 941.10099,1031.3458 940.97299,1032.1468 941.62599,1032.4268 942.47999,1032.7928 941.98099,1034.6038 942.18299,1035.2968 942.50499,1036.4008 943.87399,1038.0178 943.26299,1039.3968 944.31899,1039.1458 944.21099,1040.3918 943.34299,1040.5468 944.29399,1041.2728 943.55099,1044.3478 944.31199,1045.6198 945.02499,1046.8118 943.75999,1049.7738 943.70299,1050.9868 943.32499,1050.7098 943.01199,1050.3728 942.76299,1049.9758 943.02199,1050.5928 942.99899,1051.3258 943.77299,1051.5668 942.96899,1052.7008 941.69099,1053.3778 940.66099,1054.2738 939.56399,1055.2288 938.80599,1056.5068 938.12699,1057.7748 936.47599,1060.8598 935.99399,1064.1478 935.11699,1067.4878 934.29399,1070.6248 932.73699,1073.4728 930.92899,1076.1408 929.18799,1078.7098 926.65599,1080.5448 924.62199,1082.8858 924.98399,1081.9578 924.46699,1080.8258 924.26199,1079.9258 925.32199,1080.2168 925.73999,1080.3088 926.67899,1079.6558 927.51399,1079.0758 927.97999,1077.7418 928.73499,1077.3178 929.77799,1076.7318 929.95399,1076.2458 929.94999,1075.0408 929.94699,1074.2638 930.08499,1072.9018 931.03299,1074.0248 930.67799,1072.8818 931.21399,1072.4478 931.88599,1071.6508 932.43699,1070.9968 932.55299,1070.2458 932.43199,1069.4168 932.34499,1068.8148 931.70599,1066.8008 933.04199,1068.0458 933.07499,1067.7328 932.64599,1065.8018 932.14899,1065.9728 931.83299,1066.0808 930.10399,1067.3838 930.09199,1067.7658 929.61699,1067.2278 929.34499,1066.5868 928.63999,1066.3358 927.80799,1066.0398 927.96799,1064.8558 927.21099,1064.4558 927.14499,1066.4258 928.07899,1066.3478 928.86099,1067.7658 927.20799,1068.1698 928.40999,1070.0798 928.29099,1071.1458 928.17599,1070.6198 927.95999,1070.1408 927.64199,1069.7068 927.40499,1070.3878 928.04899,1071.2618 927.70799,1071.8318 927.55699,1072.0848 927.02599,1072.0378 927.09999,1072.4308 927.41099,1074.0698 926.01599,1074.9448 924.85399,1075.6078 923.93699,1076.1308 924.30399,1077.2748 924.04099,1078.1358 923.81999,1078.8578 921.99999,1080.6228 923.75099,1080.7958 922.82099,1081.3748 923.48199,1082.6508 924.40099,1081.9448 924.54899,1082.8618 923.87299,1083.7138 923.50299,1084.4868 922.89799,1085.7538 922.94399,1087.2818 922.75099,1088.6448 922.37099,1091.3298 920.73199,1092.9308 919.34099,1095.1068 918.77549,1095.9913 918.03738,1096.4851 917.5788,1096.3037 917.09283,1096.1115 916.44846,1094.9462 916.20963,1094.3953 915.76568,1093.3713 915.95143,1092.5104 915.88372,1091.63 915.79532,1090.4806 916.92274,1089.6272 917.4259,1088.6803 918.21575,1087.1938 916.50699,1086.5268 915.49699,1086.0588 914.32099,1085.5138 913.84005,1084.4882 913.12899,1083.4648 911.47048,1081.0778 909.1536,1081.1878 907.59599,1079.5118 906.30793,1078.1617 904.80129,1077.4145 903.23099,1076.5448 902.65599,1076.2698 902.43699,1075.6947 901.86099,1075.4317 900.22288,1076.4742 898.24153,1072.9066 896.54099,1071.5748 897.41471,1072.8159 893.90134,1074.9249 893.97872,1072.2898 894.03992,1070.2044 891.45799,1068.8688 889.98599,1067.7588 888.89299,1066.9348 886.73535,1064.0672 885.08735,1065.2612 884.53835,1065.6592 884.51003,1066.3953 883.63899,1066.6238 882.82819,1066.8365 881.70785,1066.7341 880.9719,1065.8138 882.51251,1065.1973 882.09994,1062.765 883.86608,1062.0498 885.44396,1061.4108 886.06449,1059.2096 886.68099,1057.5758 887.37968,1055.7242 888.69718,1054.1561 889.61818,1052.4281 890.08518,1051.5531 891.20999,1049.2228 892.43099,1050.4828 892.72299,1049.8968 892.46199,1049.3848 891.86099,1049.1818 892.83199,1048.0068 893.82381,1046.4923 895.16181,1045.7423 896.53081,1044.9743 896.78308,1044.3594 897.72208,1043.3414 898.66908,1042.3134 899.87572,1042.1535 901.04772,1041.5555 901.90372,1041.1175 903.51699,1039.2408 904.60199,1039.7518 904.84999,1037.9748 904.78799,1036.5468 904.73999,1034.7728 904.68199,1032.6208 904.47499,1031.4898 903.74499,1029.4838 903.22799,1028.0658 902.90299,1026.4298 901.32399,1025.8698 900.41199,1025.5458 898.68399,1025.4168 898.48199,1026.7218 898.19724,1026.4518 897.49842,1026.6468 896.98171,1026.3044 896.61138,1026.0591 896.81562,1025.0828 896.77908,1024.4458 896.68168,1022.7478 897.22449,1021.533 897.43274,1019.786 897.57543,1018.589 897.29401,1016.8494 897.83101,1015.7534 898.39101,1014.6094 896.83199,1013.6858 898.12199,1012.7528 897.23899,1012.1488 896.57939,1011.0758 895.43239,1010.9398 894.22639,1010.7958 893.33801,1011.8072 892.29199,1012.1728 889.25584,1013.2339 888.60235,1010.2729 888.04199,1008.0028 887.70861,1006.6522 886.7443,1005.2573 886.4963,1003.8913 885.6227,1000.7205 884.69773,999.55088 883.61949,997.99505 882.40949,997.67705 881.22582,997.43736 880.21551,996.55397 879.12861,995.60362 879.138,996.31403 878.16204,997.89535 876.17438,1001.1159 876.47129,997.85045 875.51929,997.72845 874.14924,997.55288 872.5046,997.58154 871.2756,996.91254 870.6216,996.55654 868.01903,996.28983 867.81943,995.45921 867.61536,994.60994 868.25507,993.81378 868.46099,993.02176 868.66238,992.24713 867.87199,991.09276 868.17399,990.31576 868.70499,988.94676 868.13899,987.70176 868.41999,986.38076 868.63499,985.36676 866.82179,984.97996 867.78579,983.83796 866.61122,983.361 866.16423,981.35726 865.56159,980.07956 864.24659,978.23956 868.6742,978.17136 866.8042,976.72736 864.5422,974.98136 865.40899,973.68276 866.47799,971.23576 866.76699,970.57476 867.7132,969.20477 867.3632,968.57377 866.7702,967.50477 867.293,966.71376 867.56699,965.51976 868.7354,962.31485 867.93835,961.86725 866.87099,959.54076 865.8942,958.0823 865.97671,955.71792 865.05799,956.08876 863.47225,956.72884 861.35999,954.67192 860.79799,952.94476 860.42528,951.79934 859.95899,950.42676 859.92399,949.21576 859.88899,948.00576 860.79199,946.98976 860.75099,945.71976 858.31799,946.27576 855.75579,946.08836 853.30279,945.83736 851.74579,945.67836 848.20319,946.15036 847.08219,944.90036 846.06019,943.75936 846.27499,941.40576 846.03299,939.98676 845.71099,938.10076 843.47599,936.99376 843.40099,935.27976 844.02299,935.21476 844.64599,935.19176 845.27099,935.20976 844.84989,933.13469 844.17948,930.28453 843.47061,928.72538 843.07718,927.86003 843.03026,927.6742 843.08579,926.85156 843.15719,925.79392 843.20495,924.97836 842.32701,924.28457 840.15035,922.56446 837.8229,921.42663 836.64739,921.55986 832.69778,922.00751 833.73289,921.67488 832.51901,921.66457 831.53363,921.65657 830.23899,919.48176 829.77199,918.85476 829.26099,918.17076 828.89699,918.49376 828.21999,918.43976 827.60999,918.39076 826.27528,917.40036 825.73039,917.13196 825.34839,916.9438 824.79595,916.99572 824.29599,916.75976 823.12839,916.20871 823.10075,915.31153 822.611,914.65156 821.97466,913.79407 821.83699,913.97876 820.97099,914.36476 819.95199,914.81976 819.415,913.65336 818.723,913.19936 816.926,912.01636 816.39799,913.39376 814.57399,912.96476 812.48399,912.47476 812.27999,912.31276 811.14299,910.71576 810.60699,909.96276 808.68259,908.73596 807.79959,908.64396 806.93359,908.55396 807.24799,907.29676 806.72999,906.72176 806.35299,906.30476 805.49543,906.37877 805.50099,905.72676 805.51309,904.30728 803.85864,903.0337 803.76701,901.51598 803.71501,900.65516 804.35792,900.13312 804.46199,899.25676 804.54699,898.54111 803.5213,898.40613 803.37399,897.59376 803.24716,896.89432 803.17109,896.04689 803.15399,895.60376 803.11969,894.71497 803.57261,893.99457 803.71661,893.21757 803.99261,891.73057 804.09399,889.35976 802.71899,888.40876 802.38499,888.72276 802.10099,889.52776 801.54799,889.48376 800.16399,889.37276 799.08851,889.31279 797.70399,889.54676 796.1876,889.80301 793.62337,890.12439 792.63899,891.24876 790.97856,893.14533 790.73321,894.39275 788.45693,894.45998 787.93693,894.47538 786.50097,895.509 786.37497,896.30138 786.19938,897.40564 784.98338,896.94975 784.34238,896.88775 783.32638,896.78775 782.52314,897.69739 782.38599,898.49976 782.20315,899.56945 781.20248,900.23029 780.03399,900.53176 779.65683,900.62906 777.90042,901.54554 778.24298,900.16978 778.33398,899.80435 777.1804,899.73621 776.34659,899.70895 774.14806,899.63705 770.98929,899.1896 769.34659,899.28655 768.30799,899.34785 767.1706,900.60196 766.0416,900.25396 765.3686,900.04696 764.63099,898.93276 763.90699,899.56876 763.58426,896.9324 763.39725,894.01 763.32579,891.50877 763.28919,890.22826 763.47599,889.96476 763.85099,888.87776 763.87199,888.52576 763.76599,888.21076 763.53099,887.93276 763.15899,887.21076 763.82899,886.89576 763.98699,886.24876 762.32696,886.41274 760.54854,889.41169 759.19498,890.49036 757.182,892.09452 753.83199,891.42876 751.52699,891.13876 751.91899,889.89276 750.87659,887.96275 749.95159,887.16775 748.29459,885.74475 745.41999,886.68776 743.60699,885.73976 745.71599,882.97676 745.02899,882.19576 742.75799,879.86476 742.27399,879.36776 742.16759,879.01975 741.96859,878.38575 741.75659,877.71175 741.04099,877.41276 740.62899,876.88976 739.67999,875.68776 739.89999,874.17376 738.42299,873.20876 739.89774,872.36326 737.09202,870.6757 736.70499,869.76276" id="path2812"/>
    <path d="M 941.978,1032.623 C 942.196,1032.838 942.413,1033.054 942.628,1033.272 942.88,1032.569 943.156,1031.818 942.558,1031.182 942.151,1031.577 941.958,1032.058 941.978,1032.623" id="path2868"/>
    <path d="M 944.428,1045.373 C 945.079,1044.473 945.659,1042.672 944.858,1041.692 943.806,1042.323 944.319,1044.417 944.428,1045.373" id="path2870"/>
    </g>
  <g class="landxx coastxx arg" id="ar" transform="translate(-29.9017,-45.0745)">
    <title>Argentina</title>
    <path class="landxx arg" d="M 788.547,1057.823 C 788.684,1057.101 789.512,1056.925 789.677,1056.254 789.901,1055.339 789.365,1053.985 789.407,1053.003 789.526,1050.21 791.079,1049.058 792.094,1046.687 792.754,1045.146 792.744,1043.563 793.094,1041.956 793.265,1041.169 793.453,1040.283 793.904,1039.601 794.355,1038.919 795.195,1039.468 795.896,1039.145 798.876,1037.773 795.804,1035.961 794.806,1034.396 793.67,1032.616 795.679,1031.504 795.047,1029.773 794.597,1028.541 791.061,1022.217 794.088,1022.113 793.782,1021.332 792.16,1019.497 792.398,1018.728 792.959,1016.917 794.131,1015.645 795.846,1014.883 797.362,1014.21 799.806,1013.609 800.53,1011.933 801.257,1010.248 801.134,1007.987 801.424,1006.194 801.539,1005.485 801.31528,1003.4717 801.01228,1002.7627 800.80528,1002.2777 799.67983,1002.6028 799.79783,1002.0898 800.41196,1002.1398 802.19647,997.65493 804.032,996.732 806.05,995.723 806.164,995.515 806.4,993.093 808.026,993.419 808.852,995.073 810.308,995.713 811.983,996.449 813.95,995.508 815.699,995.776 819.861,996.412 819.688,999.579 821.81,1002.534 821.949,1001.198 821.919,999.931 822.456,998.67 822.745,997.99 823.217,995.566 823.913,995.289 824.443,995.078 825.438,995.186 826.06,995.032 827.205,994.749 828.52,994.973 829.688,994.973 830.379,994.973 831.906,994.6 832.125,995.382 832.421,996.438 834.542,997.696 835.316,998.47 836.209,999.363 836.836,999.485 837.393,1000.647 837.831,1001.562 838.402,1002.474 839.027,1003.271 840.473,1005.114 842.895,1006.414 844.781,1007.763 845.862,1008.536 846.382,1009.633 847.37,1010.454 848.287,1011.216 849.555,1011.169 850.617,1011.59 852.049,1012.158 852.986,1012.534 854.576,1012.534 855.782,1012.534 856.641,1013.628 857.637,1014.139 860.219,1015.467 862.237,1017.975 865.09,1018.893 865.929,1019.164 866.929,1019.249 867.602,1019.873 868.581,1020.783 869.005,1020.251 870.007,1020.85 870.974,1021.428 872.256,1021.517 872.981,1022.434 873.493,1023.082 874.061,1023.67 874.567,1024.326 875.566,1025.619 873.672,1026.984 873.418,1028.481 873.038,1030.71 871.043,1031.298 871.504,1033.92 871.926,1036.32 870.142,1037.061 869.621,1039.102 869.362,1040.119 869.003,1039.757 869.551,1040.972 871.019,1040.401 872.589,1040.391 874.118,1040.687 876.823,1041.21 879.362,1042.798 882.011,1041.94 882.842,1041.671 883.237,1042.945 884.094,1042.333 884.918,1041.745 885.798,1043.094 886.471,1043.352 886.94,1042.372 887.013,1041.019 888.341,1040.832 889.358,1040.689 889.88,1041.85 890.761,1041.732 892.158,1041.546 891.938,1039.861 892.28,1038.929 892.673,1037.859 894.939,1037.969 894.826,1037.348 894.79,1037.151 896.129,1035.218 896.286,1035.244 897.28,1035.405 897.087,1033.077 897.205,1032.257 897.44,1030.621 897.417,1028.841 896.996,1027.234 896.566,1025.596 897.596,1026.155 898.491,1026.722 898.694,1025.417 900.421,1025.547 901.333,1025.87 902.912,1026.43 903.237,1028.065 903.754,1029.484 904.484,1031.49 904.691,1032.621 904.749,1034.773 904.779,1035.895 905.061,1036.907 904.891,1038.04 904.793,1038.61 904.7,1039.181 904.611,1039.752 904.254,1039.615 903.914,1039.651 903.592,1039.862 902.399,1040.538 901.628,1041.438 900.329,1041.968 899.68,1042.234 897.538,1042.979 897.462,1043.846 897.345,1045.165 895.889,1045.285 894.997,1045.859 894.478,1046.192 894.386,1046.914 893.939,1047.354 893.287,1047.997 892.456,1048.473 891.87,1049.182 892.471,1049.385 892.732,1049.897 892.44,1050.483 891.116,1049.115 888.504,1054.56 887.761,1055.621 886.466,1057.472 886.126,1061.244 883.706,1062.218 882.617,1062.656 882.697,1064.128 882.166,1064.995 881.885,1065.453 881.448,1065.724 880.919,1065.814 881.217,1066.585 880.935,1067.6089 880.363,1068.1179 878.737,1069.5639 880.69581,1069.7468 880.85281,1071.2878 880.93081,1072.0528 880.45136,1072.1899 880.41536,1072.7929 880.37336,1073.5039 880.46896,1073.679 880.537,1074.379 880.606,1075.082 880.54,1075.7135 880.22527,1076.3455 879.58727,1077.6245 880.8,1076.956 880.691,1078.189 880.553,1079.751 879.659,1080.044 879.952,1081.746 880.203,1083.205 881.077,1083.752 880.603,1085.231 880.175,1086.565 881.082,1088.205 881.748,1089.318 882.908,1091.259 880.298,1090.55 880.4,1091.676 880.534,1093.148 879.661,1094.642 880.352,1096.125 880.739,1096.955 883.865,1101.446 881.349,1101.314 882.49,1102.241 882.613,1103.44 883.978,1104.293 885.462,1105.221 886.939,1105.937 888.525,1106.671 891.113,1107.87 894.745,1109.9 893.341,1113.099 892.33,1115.404 895.383,1120.049 898.134,1118.904 899.219,1118.451 899.698,1121.714 899.926,1122.298 900.607,1124.047 899.435,1126.015 898.72,1127.584 898.062,1129.027 896.376,1131.076 896.326,1132.67 896.273,1134.36 896.437,1134.859 894.877,1135.973 892.051,1137.988 888.808,1139.021 885.443,1139.7 881.382,1140.519 877.447,1141.71 873.281,1141.899 871.673,1141.972 870.324,1141.94 868.745,1141.797 866.944,1141.634 865.725,1140.488 863.998,1140.264 864.238,1140.731 864.561,1141.131 864.964,1141.466 865.409,1141.873 864.918,1142.755 865.171,1143.261 865.313,1143.543 868.595,1145.972 866.518,1145.164 867.475,1145.863 867.931,1146.357 868.142,1147.549 868.294,1148.409 868.425,1149.834 867.098,1149.124 867.295,1149.992 867.543,1150.877 867.511,1151.775 867.486,1152.502 866.74,1153.133 867.28,1153.782 867.674,1154.256 868.221,1154.585 868.676,1154.994 869.369,1155.616 869.01,1156.623 869.978,1156.104 869.388,1159.638 865.793,1160.174 862.817,1160.442 858.87,1160.797 855.64,1158.131 851.758,1157.544 853.365,1157.231 851.68,1156.647 851.165,1156.913 850.487,1157.263 850.08,1158.132 850.051,1158.865 849.97,1160.981 852.551,1162.516 852.946,1164.599 853.267,1166.288 853.306,1168.38 855.183,1169.098 856.141,1169.464 858.773,1169.669 858.029,1171.293 858.429,1171.392 862.126,1171.805 861.877,1170.845 861.674,1170.061 859.967,1170.03 859.389,1169.713 860.619,1169.901 861.277,1168.633 862.419,1168.564 863.596,1168.493 864.811,1170.132 865.009,1171.154 865.193,1172.1 866.389,1173.491 865.729,1174.464 865.272,1175.137 863.589,1175.347 862.863,1175.258 861.654,1175.111 861.85,1173.737 861.25,1173.139 860.267,1172.16 858.919,1171.764 857.716,1172.57 854.53,1174.703 859.787,1176.44 861.629,1175.974 861.475,1176.979 860.403,1177.308 859.596,1177.64 858.002,1178.297 858.068,1179.02 857.451,1180.439 856.81,1181.916 856.708,1182.418 857.726,1183.799 858.079,1184.278 858.573,1184.862 858.634,1185.485 858.515,1185.906 858.507,1186.328 858.609,1186.752 859.035,1187.146 859.26,1187.632 859.283,1188.21 859.235,1188.481 859.371,1189.463 858.974,1189.569 858.411,1189.717 857.638,1189.959 857.559,1190.665 857.427,1191.851 859.226,1192.037 859.034,1192.97 858.824,1193.989 851.665,1192.538 853.199,1195.135 850.108,1194.482 849.289,1198.191 848.862,1200.445 848.145,1204.22 850.623,1205.718 853.465,1207.639 854.861,1208.583 856.067,1209.832 857.631,1210.518 859.624,1211.392 862.036,1210.212 863.926,1211.331 866.567,1212.894 866.97,1218.125 862.85,1217.595 863.609,1217.9 864.154,1217.225 864.87,1217.165 865.958,1217.074 866.385,1217.818 867.03,1218.535 866.4,1218.61 866.196,1218.978 866.52,1219.535 865.332,1219.294 862.941,1222.362 862.205,1223.091 861.241,1224.042 860.498,1224.967 859.785,1226.133 859.304,1226.92 858.836,1227.386 858.879,1228.357 858.913,1229.13 858.992,1229.864 858.31,1230.416 858.897,1230.52 859.358,1230.201 859.47,1229.616 859.545,1231.757 861.898,1235.472 858.698,1236.494 856.341,1237.245 855.585,1233.661 853.56,1233.296 854.081,1233.492 855.455,1234.542 855,1235.236 854.663,1235.752 853.279,1235.307 852.77,1235.736 854.743,1234.928 855.579,1236.238 857.31,1236.606 857.096,1237.93 855.007,1237.861 854.526,1239.33 853.879,1241.307 855.27,1242.587 854.14,1244.596 855.6,1242.784 857.715,1246.76 858.246,1247.8 859.062,1249.398 855.748,1248.462 854.93,1249.136 855.788,1248.854 857.807,1249.662 858.174,1249.447 859.355,1248.753 860.269,1250.339 861.169,1251.052 862.915,1252.436 864.783,1253.444 865.59,1255.466 865.166,1254.743 864.194,1254.777 863.478,1254.7 862.195,1254.564 861.023,1253.868 859.797,1253.511 856.708,1252.611 853.382,1252.226 850.18,1252.226 848.761,1252.226 847.341,1252.226 845.922,1252.226 844.728,1252.226 842.213,1252.712 841.182,1252.068 839.575,1251.064 838.224,1248.816 836.14,1248.556 836.796,1247.59 836.192,1246.02 835.359,1245.414 834.257,1244.612 835.111,1243.562 834.518,1242.575 834.152,1241.967 833.018,1240.387 832.116,1240.8 831.41,1241.121 830.797,1240.667 830.09,1240.846 829.566,1240.978 829.292,1241.606 828.843,1241.865 827.895,1242.413 826.554,1239.896 826.257,1239.301 825.666,1238.117 823.287,1237.306 823.097,1236.102 822.997,1235.465 822.662,1235.447 822.378,1234.915 822.153,1234.495 822.336,1233.958 822.17,1233.507 821.935,1232.872 821.183,1232.64 820.95,1231.997 820.688,1231.272 820.913,1230.508 820.8,1229.767 822.002,1229.961 822.092,1229.26 822.39,1228.328 822.56,1227.797 822.241,1227.363 822.67,1226.888 823.051,1226.467 823.798,1226.764 824.191,1226.308 824.966,1225.409 824.135,1223.944 823.535,1223.149 822.844,1222.235 824.662,1222.165 824.761,1221.419 824.87,1220.591 823.655,1219.545 823.065,1219.127 821.866,1218.278 821.691,1217.736 821.699,1216.292 821.704,1215.3 821.944,1211.782 823.681,1212.049 823.33,1211.259 822.362,1211.183 822.403,1210.352 822.429,1209.819 821.882,1209.391 822.117,1208.834 822.284,1208.439 822.71,1208.241 822.901,1207.854 823.685,1206.263 820.987,1203.792 819.871,1202.979 820.849,1202.933 821.435,1201.069 820.361,1200.764 819.594,1200.546 818.349,1198.78 819.169,1198.025 819.866,1197.382 820.083,1197.812 820.572,1196.772 820.986,1195.892 821.128,1195.872 820.343,1195.111 819.653,1194.441 818.89,1193.822 818.106,1193.265 816.995,1192.474 815.425,1193.306 814.413,1192.198 813.554,1191.257 819.131,1191.66 819.581,1191.03 819.332,1191.378 819.606,1189.197 819.721,1189.519 818.876,1187.146 815.044,1189.567 814.106,1187.243 813.871,1186.865 813.641,1186.483 813.418,1186.097 813.258,1185.476 814.215,1184.923 813.801,1184.332 813.274,1183.579 811.958,1183.148 812.696,1182.315 813.618,1181.274 809.052,1180.455 810.703,1178.975 811.586,1178.183 810.476,1177.543 809.669,1177.405 808.132,1177.142 807.537,1176.565 807.059,1175.079 806.694,1173.944 806.655,1172.592 806.26,1171.518 805.96,1170.704 804.739,1170.011 805.902,1169.189 806.623,1168.68 807.883,1169.091 806.973,1167.867 806.197,1166.822 804.508,1165.372 804.656,1163.95 804.911,1161.489 802.384,1159.205 801.959,1156.978 801.787,1156.075 801.85,1154.876 802.26,1154.066 802.914,1152.773 801.068,1152.454 800.862,1151.359 802.577,1151.936 801.47,1149.449 800.977,1148.88 799.983,1147.734 800.269,1147.158 801.652,1147.109 800.774,1146.253 801.225,1143.76 800.819,1142.572 800.195,1140.751 802.021,1140.398 803.127,1139.394 804.331,1138.301 801.719,1136.549 801.353,1135.204 800.89,1133.504 798.255,1131.425 798.523,1129.747 798.703,1128.62 797.573,1125.885 797.047,1124.806 796.484,1123.648 796.192,1121.098 797.109,1120.094 797.604,1119.552 798.05,1120.133 798.346,1119.476 798.568,1118.981 798.517,1118.263 798.893,1117.846 799.19,1117.516 799.978,1117.312 800.019,1116.819 800.117,1115.644 799.696,1114.399 799.243,1113.338 798.86,1112.442 798.394,1111.584 797.958,1110.713 797.851,1110.498 796.972,1109.916 796.971,1109.82 796.964,1109.033 797.94,1109.38 798.038,1108.488 798.135,1107.612 797.961,1106.728 797.876,1105.859 797.793,1105.012 798,1101.054 799.287,1101.284 800.533,1101.506 798.769,1098.378 798.664,1098.127 798.177,1096.962 798.8,1092.947 797.428,1092.503 796.649,1092.251 797.121,1093.519 796.051,1092.188 795.266,1091.211 795.489,1090.74 795.656,1089.654 795.787,1088.802 795.17,1088.491 794.592,1088.07 793.844,1087.525 794.088,1087.009 793.85,1086.24 793.328,1084.554 791.628,1083.507 791.141,1081.808 792.751,1082.549 790.963,1080.347 790.347,1080.033 788.875,1079.283 788.382,1076.866 788.319,1075.416 788.242,1073.635 789.599,1074.295 789.211,1072.399 788.927,1071.008 790.336,1068.469 789.341,1067.338 791.775,1068.964 790.856,1064.761 790.527,1063.864 790.045,1062.554 787.771,1059.083 788.547,1057.823" id="path4518"/>
    </g>
  <path class="world_map-is_selected landxx pry" d="M 803.78629,951.97855 C 804.48529,949.11755 804.88029,946.13255 805.22129,943.20955 805.40929,941.59055 805.17529,940.09055 805.06729,938.48355 804.96329,936.92855 805.80629,935.5795 806.44229,934.22055 807.33946,932.30355 806.84896,929.55455 809.74629,929.19255 812.78069,928.81342 815.85329,928.11455 818.77529,927.21055 823.52829,925.74055 826.87702,926.02028 831.17602,928.41628 832.88602,929.36928 835.28729,930.69255 835.42029,932.90955 835.50029,934.23955 836.52629,938.31155 837.91729,938.73955 837.02429,939.79755 838.46529,940.18155 838.70729,940.96855 838.89029,941.56655 838.70529,943.45355 838.60729,944.13455 838.44929,944.61255 838.35929,945.10255 838.33629,945.60555 838.42029,946.27155 838.89729,946.92955 838.67129,947.62455 838.40329,948.45255 837.93962,949.51938 838.03162,950.37838 838.08662,950.88838 843.39296,952.44172 844.16996,952.45672 845.31096,952.47772 846.67229,952.94772 847.78429,952.89272 848.86029,952.83772 848.76679,950.38288 849.84279,951.14988 850.89679,951.89988 852.63629,952.78288 853.93929,952.96288 854.91129,953.09688 855.02312,953.37322 855.20912,954.43822 855.39812,955.52425 856.17012,956.45205 856.32412,957.73405 856.52212,959.37805 857.97829,960.24155 858.16829,961.87655 858.38429,963.74155 858.83529,967.52455 861.38729,967.27655 862.80829,967.13855 863.77029,966.07255 865.12629,965.80955 866.38129,965.56555 867.33429,967.06855 868.22629,967.67955 867.67329,968.07955 867.62029,968.62255 867.91329,969.19755 868.48629,970.32255 867.55,970.93355 867.84599,972.01155 868.15699,973.14355 867.47801,975.15544 867.27201,976.26044 867.07401,977.32644 866.76347,979.57164 866.92891,980.68368 L 867.96697,987.6613 C 868.06007,988.28745 867.55228,989.90555 866.68828,990.06955 866.26428,990.14955 865.07964,991.84801 865.25664,992.25601 865.43564,992.66901 863.55855,992.97536 863.32755,993.09236 862.86955,993.32436 862.20758,993.82663 862.34928,994.27453 862.55426,994.92253 861.39759,997.53513 860.46128,996.72253 858.50404,995.02403 857.43828,996.45653 856.56528,998.27853 855.99628,998.06153 855.26214,997.07233 854.63619,997.20083 853.80819,997.37073 853.64828,998.11023 852.84928,997.08753 852.28935,996.37093 851.57628,997.39653 850.80628,997.41953 850.06828,997.44153 849.19974,997.16913 848.50374,996.98213 846.17074,996.35513 843.89801,995.48563 841.43001,995.73763 840.26101,995.85763 839.55301,996.67763 839.14601,995.26763 839.06801,994.99963 839.94674,992.47674 840.20974,992.30374 842.69974,990.66374 840.14824,986.44355 842.49628,985.28955 843.58428,984.75455 843.56288,982.2316 844.15919,981.13246 845.22619,979.16574 844.01155,978.21962 842.35955,976.97009 841.06884,975.99383 839.14428,976.01755 838.00528,975.05855 837.32928,974.48855 836.46828,974.28355 835.62228,974.12155 834.58328,973.92355 833.65347,973.23309 832.77347,972.72809 830.80347,971.59809 829.32228,970.47755 827.51828,969.03255 825.54228,967.45055 823.71228,967.81955 821.49628,966.93355 820.12228,966.38455 818.22579,966.17072 816.97937,964.87472 815.17441,962.99798 812.3388,961.27511 811.05528,960.12055 809.51325,958.73346 807.87013,956.94389 807.46565,955.79628 806.7845,953.86369 804.97028,953.59355 803.78628,951.97855" id="py">
    <title>Paraguay</title>
  </path>
  <path class="landxx ury" d="M 849.65629,1023.7686 C 850.30529,1022.8536 851.51529,1022.0306 851.01629,1020.7396 851.97929,1021.4416 852.96329,1021.9676 854.15429,1021.3556 854.80929,1021.0196 854.82529,1019.9926 855.67329,1019.8766 857.22929,1019.6656 858.76229,1021.5676 859.80629,1022.4686 861.17629,1023.6506 863.78929,1024.6626 864.03329,1026.6886 864.12129,1027.4206 863.98329,1028.6376 865.02629,1028.3796 865.77829,1028.1926 867.10629,1027.4926 866.64629,1026.4986 867.91529,1026.8306 870.36429,1030.8136 871.39329,1030.4426 872.35429,1030.0956 872.53729,1030.8586 873.31629,1031.3446 874.35129,1031.9896 875.37429,1031.9906 876.29529,1032.9316 876.96729,1033.6196 877.53129,1034.4536 878.34829,1034.9876 879.41229,1035.6826 880.71129,1035.7966 881.69729,1036.6486 883.50529,1038.2106 884.05129,1040.2086 886.31229,1041.3296 888.87029,1042.5976 887.65029,1043.3356 886.43429,1045.2316 885.54929,1046.6116 886.16729,1050.2136 887.54629,1051.1046 888.42829,1051.6726 886.97529,1055.0446 886.37929,1056.0496 885.88029,1056.8906 884.22829,1060.4216 882.76729,1059.1176 883.53829,1060.0966 881.82729,1060.6146 881.20029,1060.8676 879.41529,1061.5886 878.81229,1061.6396 876.89029,1061.2356 875.35429,1060.9126 873.71029,1060.1316 872.20429,1060.8906 871.56529,1061.2116 870.86729,1061.6286 870.13529,1061.6946 869.02029,1061.7946 869.08829,1061.0166 868.36729,1060.6286 867.11829,1059.9576 865.53829,1060.2026 864.33229,1059.4716 862.66929,1058.4626 862.01229,1057.4266 859.88729,1057.5346 858.52129,1057.6036 857.42829,1058.1816 856.42429,1057.0656 855.07729,1055.5666 853.03629,1054.5796 851.95529,1052.8646 851.20129,1051.6686 850.01329,1046.5556 851.72629,1046.0846 853.49729,1045.5966 852.18229,1043.5406 851.66629,1042.6076 851.29829,1041.9426 851.02329,1041.2086 850.73229,1040.5086 850.48729,1039.9216 851.27429,1039.4346 850.98329,1038.6096 850.73029,1037.8896 849.44929,1035.7936 850.06929,1035.0726 851.44429,1033.4756 849.66529,1032.5216 850.25129,1031.4456 850.65829,1030.6976 850.14429,1027.2186 850.31329,1027.0986 851.57629,1026.2016 849.94229,1024.9526 849.65629,1023.7686" id="uy">
    <title>Uruguay</title>
  </path>
  <g class="landxx coastxx chl" id="cl" transform="translate(-29.9017,-45.0745)">
    <title>Chile</title>
    <path class="landxx chl" d="M 771.478,963.363 C 773.063,962.465 774.957,963.274 775.588,961.052 775.879,960.029 774.475,958.527 775.279,957.663 775.47,957.539 775.676,957.506 775.899,957.563 776.543,957.555 777.109,956.494 777.458,956.082 777.466,957.332 778.791,957.886 779.131,958.995 779.462,960.072 780.129,960.477 781.198,960.691 780.207,961.635 781.659,964.278 782.001,965.27 782.89,967.853 783.407,969.369 785.609,971.15 787.6,972.76 786.72,973.275 785.861,975.309 785.712,975.663 787.321,976.678 787.315,977.364 787.306,978.222 785.989,978.294 785.448,978.621 786.527,979.62 785.651,980.697 786.318,981.791 786.65,982.335 787.491,982.186 787.828,982.721 788.288,983.453 787.743,983.52 787.828,984.242 788.085,986.432 791.069,987.476 791.313,990.002 791.61,993.061 793.659,995.619 794.518,998.492 795.177,1000.691 795.165,1003.492 798.305,1002.492 801.551,1001.458 801.741,1003.479 801.421,1006.14 801.176,1008.183 801.3324,1012.0262 799.59037,1013.5392 795.88574,1014.61 793.30324,1016.264 792.48181,1018.639 792.18225,1019.5051 793.729,1021.198 794.087,1022.113 791.814,1022.191 793.372,1025.809 793.851,1026.863 794.27,1027.785 794.91554,1029.0926 795.25154,1030.0526 795.76854,1031.5296 794.38254,1031.8586 794.47154,1033.1986 794.59554,1035.0676 797.69554,1036.4982 797.25054,1038.0812 796.98154,1039.0362 795.34254,1039.8815 794.55054,1039.4865 793.59154,1039.0085 793.17013,1041.7606 793.132,1042.234 792.93053,1044.735 792.03427,1047.8771 790.087,1050.5871 788.64734,1052.5906 790.51681,1054.1003 789.73181,1056.3163 789.34081,1057.4203 788.129,1057.502 788.533,1058.895 788.872,1060.065 789.704,1061.027 790.042,1062.189 790.239,1062.864 790.46481,1063.3602 790.66381,1064.0342 790.84481,1064.6472 791.19346,1065.1362 791.374,1065.694 791.76972,1066.9166 790.50055,1068.7618 789.337,1067.333 790.176,1068.286 789.4021,1070.192 789.4021,1071.278 789.4021,1072.033 789.87101,1073.168 789.13201,1073.817 788.59001,1074.293 788.54437,1074.18 788.48537,1075.166 788.38437,1076.837 789.64364,1078.538 790.45264,1079.92 790.84664,1080.592 791.26101,1080.365 791.70401,1080.994 792.08801,1081.539 792.02555,1082.3608 791.27955,1082.0168 791.82555,1083.9208 793.74801,1084.908 794.09501,1086.847 794.23401,1087.624 794.61437,1088.1905 795.41937,1088.5935 796.48837,1089.1285 795.38357,1090.3127 795.59955,1091.1627 796.16855,1093.4067 798.4991,1091.464 798.4711,1094.018 798.4491,1096.041 798.20001,1097.671 799.30701,1099.433 799.47901,1099.707 800.37801,1101.2278 799.35051,1101.301 798.63613,1101.352 798.56067,1101.74 798.41497,1102.248 798.17829,1103.0732 798.03432,1103.8991 797.89797,1104.737 797.73297,1105.751 798.08136,1106.6657 798.18851,1107.6697 798.33639,1109.0553 797.58915,1109.3675 797.18797,1109.233 796.38378,1108.9633 797.38029,1109.7857 797.78097,1110.359 799.11279,1112.2646 799.82867,1114.2591 800.07897,1116.342 800.16087,1117.0234 800.04797,1117.414 799.40597,1117.486 798.80997,1117.552 798.57646,1118.4943 798.55997,1118.954 798.50087,1120.6018 797.08194,1119.0774 796.66397,1121.079 796.4791,1121.9643 796.55806,1122.724 796.86506,1123.612 797.15706,1124.459 797.19083,1125.283 797.65197,1126.083 798.87082,1128.1975 798.63473,1129.0444 798.81306,1130.415 799.02566,1132.049 800.48897,1132.931 801.15097,1134.353 801.58597,1135.289 801.98606,1136.1562 802.65106,1136.9822 802.96606,1137.3742 803.68397,1138.392 803.41397,1139.02 802.82697,1140.387 800.60133,1140.291 801.05833,1142.206 801.34333,1143.399 800.78097,1146.259 801.64697,1147.103 800.65097,1147.4178 799.94121,1147.6824 800.82178,1147.8881 801.17721,1147.9711 803.22806,1152.0105 801.14206,1151.353 801.35006,1152.458 802.14497,1152.504 802.41997,1153.316 802.63997,1153.965 802.20678,1154.9281 802.08078,1155.5281 801.67578,1157.4381 802.40623,1158.7332 803.73151,1160.0677 804.79325,1161.1369 805.00618,1163.1581 805.10978,1164.865 805.19958,1166.3445 806.83878,1167.253 807.62078,1168.494 807.04378,1169.039 805.88633,1168.787 805.67833,1169.725 805.49533,1170.548 806.68133,1171.858 806.79733,1172.841 806.92833,1173.954 807.48033,1176.237 808.45333,1176.904 809.33233,1177.506 811.07297,1177.088 811.14797,1178.574 811.21197,1179.862 809.26797,1178.913 811.20397,1180.49 811.59297,1180.806 812.17197,1181.248 812.52397,1181.638 813.30897,1182.508 812.41233,1182.217 812.66333,1182.814 812.90433,1183.384 813.37697,1183.604 813.71097,1184.131 814.23197,1184.953 813.37833,1185.478 813.78537,1186.21 814.30337,1187.141 814.3491,1187.9115 815.3871,1188.1095 816.7871,1188.3765 818.49055,1187.8385 819.56255,1188.9555 819.84555,1189.2505 819.66301,1190.947 819.39101,1191.192 818.36501,1192.118 816.62528,1191.6779 815.47328,1191.7229 812.96628,1191.8209 815.65973,1192.7801 816.76628,1192.8717 819.27866,1193.0797 822.81973,1195.624 820.00701,1197.864 819.71172,1198.0992 819.24701,1197.804 819.01201,1198.165 818.60101,1198.796 819.79409,1199.454 819.93209,1200.029 820.05909,1200.555 820.61428,1200.6495 820.90828,1201.0365 821.38928,1201.6695 820.58401,1202.94 819.86701,1202.973 820.88501,1203.715 823.72801,1206.295 822.90101,1207.761 822.51301,1208.449 821.9291,1208.615 822.4051,1209.57 822.5401,1209.841 822.4171,1210.7057 822.7291,1210.8467 823.2641,1211.0877 823.43101,1211.493 823.67601,1212.044 822.57301,1211.875 821.65801,1214.795 821.71301,1215.619 821.77701,1216.57 821.49601,1217.468 822.12901,1218.289 822.67601,1219 825.2761,1220.3925 824.9981,1221.4445 824.8271,1222.0915 823.92364,1222.157 823.74364,1222.757 823.44164,1223.762 825.29928,1224.9071 824.43728,1226.2991 823.98728,1227.0251 823.06237,1226.582 822.75537,1227.387 822.35937,1228.42 822.67697,1230.069 820.79601,1229.764 820.95201,1230.779 820.60911,1232.1441 821.51301,1232.711 822.68334,1233.445 823.24471,1234.9707 823.32464,1235.8057 823.43775,1236.9874 825.33001,1237.831 825.98701,1238.764 826.62401,1239.667 827.04328,1240.9579 828.13328,1241.4529 828.88228,1241.7939 829.2811,1241.2616 829.8391,1240.8656 830.5001,1240.3966 831.01782,1240.7016 831.74182,1240.7086 833.29882,1240.7246 833.58137,1240.8723 834.57037,1242.3873 835.25837,1243.4423 834.31801,1244.73 835.31301,1245.307 836.18201,1245.811 836.84855,1247.719 836.28155,1248.554 837.77755,1248.741 839.76426,1250.4192 840.62792,1251.5509 841.62918,1252.8629 846.12875,1252.0574 847.38992,1251.9389 852.98209,1251.4137 858.64189,1252.7816 864.78901,1254.895 863.31301,1254.922 861.97401,1254.289 860.54901,1254.025 857.95101,1253.544 859.26701,1254.958 858.45901,1256.045 857.74701,1257.003 856.31701,1256.097 855.48101,1257.022 854.47201,1258.138 852.64601,1257.923 851.32901,1258.345 852.20201,1259.502 852.27401,1260.947 852.56801,1262.308 852.85501,1263.636 853.67801,1264.383 854.30101,1265.517 855.96001,1268.535 852.00501,1267.513 850.49801,1267.202 848.68901,1266.827 844.57601,1265.693 843.88201,1263.703 843.18501,1261.703 847.06301,1262.849 845.42901,1264.176 846.35901,1264.201 846.07001,1263.069 846.42901,1262.581 846.68701,1262.23 848.72401,1264.023 847.72901,1264.976 849.30401,1264.437 846.43301,1262.008 849.39401,1261.483 849.90501,1261.393 850.01801,1259.997 850.01901,1259.634 850.02201,1258.609 848.30001,1258.825 847.72901,1258.277 847.77001,1259.344 846.23701,1260.323 845.49901,1260.867 844.24601,1261.79 843.12701,1260.36 841.89901,1261.157 842.79301,1260.985 843.49201,1261.76 844.12801,1262.237 843.60801,1262.352 843.10501,1262.301 842.61801,1262.087 842.81301,1262.632 842.74001,1263.139 842.39801,1263.608 843.30701,1263.727 844.01301,1264.369 844.63801,1264.977 842.46301,1265.528 838.77301,1263.165 837.21801,1261.807 838.29101,1262.319 839.79701,1262.265 840.95801,1262.238 840.77101,1261.271 838.48901,1261.198 838.40801,1259.311 838.35901,1258.179 840.34001,1257.719 839.95801,1259.137 841.21901,1258.767 841.40701,1258.886 842.28901,1257.822 843.18301,1256.745 845.54401,1258.344 846.78801,1257.488 845.99001,1256.451 840.71301,1255.7 840.45801,1257.488 839.74901,1257.237 839.24101,1256.932 840.38801,1256.477 839.71001,1256.5 836.98201,1256.538 837.57801,1257.847 838.06001,1257.382 838.56401,1257.359 839.08801,1257.778 838.88301,1258.329 838.42701,1258.752 837.86801,1258.927 838.24201,1259.554 839.38901,1261.082 837.92501,1261.209 837.01801,1261.288 835.00401,1260.143 836.78801,1259.647 835.89401,1259.926 835.20201,1259.177 834.55801,1258.707 835.06101,1258.784 835.56501,1258.784 836.06801,1258.707 835.79301,1258.579 835.52601,1258.436 835.26801,1258.277 836.26101,1257.674 835.15101,1256.494 836.49801,1256.837 835.44001,1256.45 835.44001,1256.284 836.49801,1256.337 835.99501,1256.173 835.49201,1256.173 834.98801,1256.337 835.51801,1256.71 835.65001,1257.309 835.26801,1257.847 835.02201,1257.339 834.54701,1256.969 833.97801,1256.908 834.00401,1257.511 833.65701,1258.026 833.11801,1258.278 833.42901,1257.581 833.21201,1257.317 832.46801,1257.488 834.10101,1256.148 830.16501,1253.685 829.86801,1252.448 830.55301,1253.22 831.76201,1253.977 832.83001,1253.927 833.32301,1253.905 835.22601,1252.198 834.69801,1254.178 835.45601,1253.726 836.89501,1254.494 835.77801,1253.168 836.16901,1254.866 835.12801,1252.631 835.12801,1251.798 835.97501,1251.873 836.71701,1252.74 837.33501,1253.238 838.48201,1254.162 837.76101,1254.976 837.06801,1255.898 837.77101,1255.44 838.56101,1255.774 839.30801,1255.828 838.32601,1255.335 839.06601,1254.156 838.18201,1253.627 837.64201,1253.305 835.83701,1251.938 837.43901,1251.728 836.46501,1250.964 836.03201,1249.748 834.94201,1249.097 833.77501,1248.4 832.33401,1248.376 831.30901,1247.409 831.12001,1247.622 830.97701,1247.862 830.87901,1248.129 831.78901,1248.028 836.22501,1249.192 836.10401,1250.429 836.00601,1251.445 831.45501,1249.075 830.80901,1249.139 831.26801,1249.77 831.94601,1249.634 832.50601,1250.077 833.10501,1250.551 832.72001,1251.428 833.69001,1251.44 833.32001,1251.855 833.08001,1252.335 832.96901,1252.879 832.29301,1251.885 831.78601,1250.682 830.80901,1249.929 831.58101,1250.915 832.72801,1252.261 832.67901,1253.599 831.56501,1252.617 830.10201,1252.22 829.51901,1250.719 830.01401,1251.091 830.51701,1251.451 831.02901,1251.799 830.63901,1251.114 829.43301,1250.665 829.65901,1249.709 829.19201,1249.709 828.68201,1250.177 828.21901,1250.069 827.75601,1249.962 827.85901,1249.279 827.27401,1249.174 826.66101,1249.065 825.87301,1247.524 825.76901,1246.978 827.03301,1247.285 827.80501,1248.39 828.78901,1249.138 827.80401,1248.022 827.19501,1246.597 826.05901,1245.609 827.62301,1247.017 826.43201,1245.247 825.69901,1245.098 825.62701,1245.338 825.55301,1245.578 825.47901,1245.819 824.87901,1245.667 824.35301,1245.38 823.89901,1244.959 824.91001,1246.592 822.50801,1243.9 822.13101,1243.565 821.66901,1243.154 822.81801,1242.948 822.97801,1242.922 823.30101,1242.869 823.62501,1242.854 823.95201,1242.873 825.19501,1242.969 822.76701,1241.452 824.61901,1242.508 823.97101,1241.962 824.01901,1240.828 825.04901,1240.848 824.20501,1240.874 823.27401,1240.052 823.90001,1239.199 823.09201,1239.916 823.83401,1241.438 823.31501,1242.299 822.70401,1243.312 820.17301,1239.856 819.65001,1239.559 820.19501,1239.743 820.69801,1240.005 821.16001,1240.349 819.65101,1238.986 821.28701,1239.991 822.03001,1239.919 821.09101,1239.091 819.02301,1239.161 818.64001,1237.979 818.64001,1239.647 816.76701,1237.177 815.76001,1237.11 816.78201,1235.084 820.05201,1238.214 821.67001,1237.979 820.24101,1237.65 817.28801,1236.79 817.06001,1235.019 818.24401,1234.956 819.07101,1236.191 820.30001,1235.74 819.52701,1235.787 819.35401,1235.197 819.65101,1234.59 818.94501,1236.316 815.46201,1233.667 817.92101,1233.22 817.36401,1233.363 815.37801,1232.738 816.51401,1232.072 818.01001,1231.196 819.14301,1232.801 820.44201,1233.22 819.49501,1232.643 818.44701,1232.014 817.64201,1231.5 817.22201,1231.231 816.52601,1231.168 816.56201,1230.49 816.59701,1229.832 817.31101,1229.687 817.78201,1229.979 817.00101,1229.608 815.60701,1226.719 817.20201,1227.54 816.66301,1227.189 816.16001,1227.236 815.69201,1227.68 816.07001,1228.041 816.11801,1230.955 815.84101,1231.42 814.73701,1230.344 812.98501,1228.418 813.07301,1226.779 813.09401,1226.397 811.76301,1225.701 812.37901,1225.221 812.83801,1224.864 813.94101,1224.832 814.47101,1225.019 814.23801,1224.847 810.54401,1224.455 811.89201,1223.208 812.45501,1222.687 813.89201,1223.437 814.47101,1223.649 813.86701,1223.327 813.62001,1222.734 814.04101,1222.138 813.54401,1222.2 810.70301,1221.961 812.52101,1221.338 810.74901,1222.147 809.79701,1218.856 808.06101,1219.399 807.79401,1217.469 810.67301,1219.727 811.15101,1220.189 810.82101,1219.689 810.46401,1219.209 810.08101,1218.749 811.42901,1218.543 812.43301,1219.214 813.65901,1219.604 814.18001,1219.77 814.74801,1219.594 815.22101,1219.934 815.88101,1220.408 816.71401,1220.154 817.27101,1220.619 817.52701,1220.18 817.48001,1219.773 817.13101,1219.399 816.82201,1220.99 814.41601,1218.815 814.32101,1217.959 815.23501,1218.678 816.30301,1218.462 817.35101,1218.749 816.96301,1218.601 816.56201,1218.536 816.14701,1218.554 815.32501,1218.473 814.93601,1217.602 814.32101,1217.169 813.77401,1216.783 813.27001,1216.966 812.81101,1216.379 812.44701,1215.913 812.70001,1215.309 812.24101,1214.859 812.87401,1215.705 813.07901,1217.713 811.43901,1217.322 810.04201,1216.989 807.13801,1217.26 806.12101,1216.228 806.74501,1216.069 806.96401,1215.611 806.55101,1215.079 807.98201,1214.699 808.59901,1216.393 809.86201,1216.659 808.74501,1216.445 809.41301,1215.305 810.29201,1215.649 810.13301,1214.334 809.38201,1215.61 808.57501,1215.178 808.02101,1214.881 807.76601,1214.138 807.05301,1214.138 806.31901,1214.138 807.35701,1210.764 808.56301,1212.699 808.35201,1212.112 808.56601,1211.741 809.21301,1211.768 809.12701,1211.407 808.98401,1211.071 808.78301,1210.758 808.65701,1211.676 807.78301,1211.96 807.34301,1211.048 807.81301,1210.887 808.29301,1210.767 808.78301,1210.689 808.30801,1210.027 807.30601,1209.898 806.65701,1209.473 805.30201,1208.588 804.98801,1208.138 803.38301,1209.029 803.96001,1208.841 804.53701,1209.061 804.89301,1209.539 803.69201,1209.242 802.45601,1209.019 801.35801,1208.42 799.43001,1207.368 800.79801,1206.903 800.07301,1205.649 799.37401,1207.032 796.56101,1207.219 796.47201,1208.459 797.78201,1206.356 799.88601,1211.634 796.92701,1209.315 794.98301,1207.791 796.72501,1203.816 799.06301,1204.779 798.36701,1204.676 798.14001,1204.21 798.56301,1203.629 799.75401,1204.561 799.15501,1202.354 800.35301,1203.629 799.39301,1202.896 800.68701,1201.992 799.56301,1201.329 800.21601,1204.084 796.77401,1201.807 798.84301,1201.899 798.10001,1201.798 797.24101,1201.6 797.04301,1200.749 798.00701,1201.104 798.90901,1200.138 799.96101,1200.338 800.86901,1200.511 801.04301,1201.475 801.94301,1201.539 800.64401,1200.651 802.03701,1200.292 802.76601,1200.197 803.64201,1200.084 803.37601,1201.187 804.32301,1201.259 803.80301,1201.962 804.91701,1203.275 804.60301,1201.759 806.74801,1202.73 803.53001,1204.138 802.30301,1203.559 803.12801,1204.058 805.79701,1204.486 806.76301,1204.419 806.22001,1204.171 805.87301,1203.653 805.90401,1203.049 806.52501,1203.459 807.27401,1203.658 807.55801,1204.434 807.86401,1205.268 806.97301,1205.96 807.41301,1206.799 808.83501,1206.611 809.25301,1203.17 809.00301,1202.119 808.76701,1202.892 808.58001,1203.7 808.06301,1204.348 808.17001,1202.816 806.06401,1198.963 809.07301,1199.018 808.22101,1198.551 807.35801,1199.206 806.91301,1199.888 806.76101,1199.193 806.28301,1198.304 806.48301,1197.578 806.71201,1196.749 807.64101,1196.737 807.91301,1195.928 808.45301,1196.581 809.24301,1196.83 809.96701,1197.202 810.90001,1197.681 811.14901,1196.667 810.37901,1196.736 809.75801,1196.791 809.37301,1196.502 808.88001,1196.192 807.96401,1195.618 806.93901,1196.124 806.04301,1195.637 807.62001,1194.455 803.86001,1193.236 806.81401,1192.903 808.93501,1192.664 809.86801,1189.671 808.78401,1188.007 808.03601,1189.236 803.45701,1186.783 803.56001,1185.594 803.75401,1185.347 804.00901,1185.334 804.32401,1185.557 802.99701,1184.159 805.67401,1183.254 804.82401,1182.097 804.58601,1182.968 803.79301,1182.989 803.75801,1182.046 803.71501,1180.86 802.94101,1181.313 802.41001,1180.207 801.95101,1179.25 802.45201,1178.867 802.66001,1178.039 802.77901,1177.559 801.81001,1176.151 803.24401,1176.487 803.24101,1175.613 802.67101,1175.493 802.19201,1174.913 801.79701,1174.434 801.93701,1173.798 801.63001,1173.292 800.49001,1171.411 801.92501,1172.503 803.09301,1172.237 801.96801,1172.085 800.81001,1170.837 800.50301,1169.787 802.10901,1169.217 802.90001,1170.584 803.67301,1171.726 803.51101,1170.223 802.45701,1168.698 801.72301,1167.416 800.26101,1168.787 798.16001,1166.789 799.95001,1165.606 801.08301,1164.856 802.63601,1164.311 801.15401,1162.876 802.04701,1166.822 798.96201,1163.948 797.19401,1163.522 795.84301,1163.198 796.77701,1165.34 796.03201,1165.83 794.92001,1166.561 790.76401,1165.334 793.01301,1164.316 789.06201,1164.232 788.51801,1158.047 788.08701,1155.331 787.89601,1154.126 787.10701,1151.38 787.66001,1150.184 788.21401,1148.988 789.03701,1150.041 788.79401,1148.51 788.62501,1147.445 789.06201,1146.436 788.79301,1145.363 788.38701,1143.746 787.93801,1142.865 786.79701,1141.198 785.63601,1139.501 784.21901,1137.935 783.63801,1135.916 783.28001,1134.67 783.63301,1133.789 782.67701,1132.717 782.03501,1131.996 781.40301,1131.337 780.93401,1130.484 780.54401,1129.773 781.08301,1129.386 780.82301,1128.851 780.35601,1127.89 779.83801,1127.217 779.98401,1126.087 780.81401,1126.703 782.31001,1127.098 782.75001,1125.811 783.29701,1124.211 781.65201,1122.989 782.21401,1121.408 782.24301,1121.976 782.58401,1122.294 783.15401,1122.267 783.13401,1121.866 783.04501,1121.48 782.88801,1121.11 782.69801,1120.383 783.30301,1119.581 783.29401,1118.818 783.27501,1117.301 782.41901,1116.295 783.34001,1114.862 784.08601,1113.702 782.73201,1113.017 783.29201,1111.637 783.71601,1110.592 784.51901,1108.818 784.66501,1107.727 785.02001,1105.074 783.89201,1102.27 784.01501,1099.658 784.08301,1098.209 785.43101,1096.969 785.36401,1095.68 785.30601,1094.551 784.41101,1093.229 783.98201,1092.188 783.61901,1091.307 784.18701,1090.131 784.52101,1089.327 784.88201,1088.458 784.26301,1087.05 784.15601,1086.197 784.07901,1085.581 784.45501,1085.065 784.00801,1084.501 783.53901,1083.909 783.11401,1083.319 782.86601,1082.598 782.31601,1081.002 782.09201,1079.52 781.41701,1077.926 780.19301,1075.034 778.83801,1071.892 778.30701,1068.782 778.03701,1067.203 778.36001,1067.046 779.45901,1066.249 780.31701,1065.627 779.46801,1064.237 780.04901,1063.433 780.60101,1062.669 778.81601,1058.476 778.19501,1057.966 777.41401,1057.323 776.42401,1055.463 776.97101,1054.438 777.73401,1053.009 777.83901,1051.732 778.32601,1050.198 778.63601,1049.225 777.92501,1047.523 777.94201,1046.454 777.97101,1044.719 779.28001,1043.668 778.60501,1041.909 777.59401,1039.274 778.99401,1036 779.01401,1033.205 779.03301,1030.765 777.51401,1028.753 777.63001,1026.439 777.69701,1025.106 779.11501,1024.876 779.06601,1023.602 779.00101,1021.903 777.77401,1020.236 777.41501,1018.556 777.04001,1016.799 777.33601,1015.067 777.08201,1013.321 776.95501,1012.442 776.63001,1011.847 776.87101,1010.934 777.06801,1010.188 777.38201,1009.43 777.21901,1008.639 777.02601,1007.704 775.61001,1008.267 775.37801,1007.238 775.13301,1006.155 775.49701,1004.977 775.59701,1003.897 777.29401,1005.418 777.20601,1000.456 777.19001,999.727 777.09801,995.505 777.95501,990.649 776.38401,986.685 774.70101,982.439 775.81301,977.772 774.22701,973.447 773.56601,971.646 772.84101,969.477 772.51301,967.593 772.29701,966.409 772.85801,964.001 771.47801,963.363" id="path6462"/>
    </g>
  </svg>