<svg xmlns="http://www.w3.org/2000/svg" class="world_map zoom4" height="127" id="svg2985" version="1.1" viewBox="1509 466 45 33" width="127">
  <title>World Map</title>
  <defs id="defs2987"/>
  <defs>
    <link xmlns="http://www.w3.org/1999/xhtml" href="../css/svg.css" type="text/css" rel="stylesheet"/>
  </defs>
  <style id="style_css_sheet" type="text/css">
/*
 * Below are Cascading Style Sheet (CSS) definitions in use in this file,
 * which allow easily changing how countries are displayed.
 *
 */
/* --- Custom styles for Peace Corps --- */
.world_map .world_map-is_selected {
  fill: #C94112 !important;
}
.world_map .landxx {
  fill: #F2EFE8;
  stroke: #ffffff;
  fill-rule: evenodd;
}
.world_map.zoom4 .landxx {
  stroke-width: 2px;
}
.world_map.zoom3 .landxx {
  stroke-width: 3px;
}
.world_map.zoom2 .landxx {
  stroke-width: 4px;
}
.world_map.zoom1 .landxx {
  stroke-width: 5px;
}
.world_map .coastxx {
  fill: #F2EFE8;
  stroke: #ffffff;
  stroke-width: 2px;
  fill-rule: evenodd;
}
.world_map .oceanxx {
  opacity: 1;
  color: #ccc;
  fill: #ffffff;
  stroke: #ffffff;
  stroke-width: 0.5;
  stroke-miterlimit: 1;
}

/* --- Original Styles --- *
/*
 * Circles around small countries
 *
 * Change opacity to 1 to display all circles.
 *
 */
.circlexx
{
   opacity:0;
   fill:#e0e0e0;
   stroke:#000000;
   stroke-width:0.5;
}

/*
 * Smaller circles around French DOMs and Chinese SARs
 *
 * Change opacity to 1 to display all subnational circles.
 *
 */
.subxx
{
   opacity:0;
   stroke-width:0.3;
}

/*
 * Circles around small, unrecognized countries
 *
 * Change opacity to 1 to display all circles.
 *
 */
.unxx
{
   opacity:0;
   fill:#e0e0e0;
   stroke:#000000;
   stroke-width:0.3;
}

/*
 * Circles around small countries, but with no permanent residents 
 *
 * Change opacity to 1 to display all circles.
 *
 */
.noxx
{
   opacity:0;
   fill:#e0e0e0;
   stroke:#000000;
   stroke-width:0.5;
}

/*
 * land
 */
.landxx
{
}
/*
 * Styles for coastlines of islands with no borders
 */


/*
 * Styles for nations with limited recognition
 */
.limitxx
{
   fill: #e0e0e0;
   stroke:#ffffff;
   stroke-width:0;
   fill-rule:evenodd;
}

/*
 * Styles for nations with no permanent population.
 */
.antxx
{
   fill: #e0e0e0;
   stroke:#ffffff;
   stroke-width:0;
   fill-rule:evenodd;
}

/*
 * Ocean
 */


/*
 * Additional style rules
 *
 * The following are examples of colouring countries.  You can substitute these with your own styles to colour the countries on the map.
 *
 * Color a few countries:
 *
 * .gb, .au, .nc
 * {
 *    fill:       #ff0000;
 * }
 *
 * Color a few small country circles (and the countries):
 *
 * .ms, .ky
 * {
 *    opacity:    1;
 *    fill:       #ff0000;
 * }
 *
 */

</style>
  <path class="oceanxx" d="M 2079.5058,1457.5605 615.24779,1457.5605 C 615.13079,1457.5605 615.07079,1457.5505 614.95179,1457.5215 611.67679,1456.6515 608.40179,1455.7815 605.12779,1454.9105 599.15079,1453.3225 593.22879,1451.5225 587.30779,1449.7385 564.39379,1442.8315 541.76579,1434.6995 519.46979,1426.0115 495.81079,1416.7935 472.34979,1407.0946 449.19179,1396.6816 426.78379,1386.6056 405.17679,1375.0536 383.76379,1363.0356 363.11779,1351.4496 343.01079,1338.8296 323.37979,1325.5996 302.29179,1311.3876 281.47879,1296.8506 261.05379,1281.7006 242.35079,1267.8276 223.73679,1253.6306 206.05279,1238.4686 186.98679,1222.1216 167.82379,1205.7706 150.35279,1187.6906 132.97779,1169.7106 116.33279,1151.0606 100.15679,1131.9976 84.352777,1113.3736 70.086776,1093.4716 56.901786,1072.9246 44.046786,1052.8916 32.093776,1032.1356 22.469776,1010.3426 17.516776,999.12753 12.408776,987.76556 8.7017761,976.06056 5.0657761,964.58166 1.5997761,953.04259 -1.5932239,941.43054 -8.0102239,918.09356 -14.055224,894.78356 -18.234224,870.92056 -22.491222,846.60856 -24.894222,822.19856 -26.943222,797.62156 -28.947222,773.58556 -28.829222,749.40156 -27.225222,725.34856 -25.648222,701.69856 -23.363222,677.92456 -19.274222,654.56456 -15.018224,630.25156 -9.3842239,606.45156 -2.8412239,582.66156 3.5687761,559.35256 10.483776,536.34856 20.265776,514.19856 30.320776,491.42956 42.318786,469.90956 55.502786,448.81656 68.512776,428.00356 83.108777,408.26756 98.686787,389.31756 113.73479,371.01156 129.68979,353.25256 146.15179,336.20856 163.77479,317.96256 182.64579,301.14556 201.89579,284.64756 220.33379,268.84456 239.55379,253.98456 258.95979,239.39656 278.42779,224.76056 298.39379,210.83356 318.55579,197.17556 339.26979,183.14456 360.47879,169.92056 382.15079,157.42556 403.46579,145.13656 425.31479,133.98856 447.60479,123.59356 469.58579,113.34356 492.14979,104.17656 514.74579,95.37556 537.44879,86.532565 560.37879,78.195565 583.63479,70.914565 589.69379,69.017565 595.80079,67.276565 601.90879,65.549565 604.63079,64.779565 607.36079,64.045565 610.09479,63.318565 611.59979,62.918565 613.56579,61.986565 615.13379,61.986565 L 2079.9638,61.986565 C 2079.9798,61.986565 2079.9958,61.986565 2080.0118,61.986565 2079.8448,61.986565 2079.6788,61.986565 2079.5118,61.986565 2102.8268,68.191565 2125.8778,75.323565 2148.5448,83.611565 2171.6378,92.054565 2194.6158,100.87956 2217.2348,110.52956 2240.5208,120.46556 2263.4848,130.95256 2285.8828,142.76456 2306.9808,153.89056 2327.8178,165.78556 2347.8608,178.72156 2368.9418,192.32656 2389.7498,206.29256 2410.2218,220.80056 2429.7368,234.62956 2448.9938,248.98756 2467.6208,263.99256 2486.8818,279.50856 2506.0408,295.30556 2524.0538,312.27356 2541.8708,329.05756 2558.7508,346.67256 2574.9408,365.03656 2591.2478,383.53256 2607.1478,402.30656 2621.4508,422.41856 2635.3488,441.96256 2648.4468,462.42756 2659.5898,483.67756 2671.1238,505.67356 2681.1048,528.35656 2688.6188,552.05056 2692.2518,563.50656 2695.3368,575.14756 2698.5608,586.72256 2701.7738,598.25356 2704.9238,609.81956 2707.4578,621.52456 2712.6258,645.40556 2716.6718,669.47856 2719.1178,693.79656 2721.5718,718.19256 2723.1798,742.56356 2722.9808,767.09056 2722.7908,790.65456 2720.6908,814.43756 2717.7688,837.81156 2714.7368,862.07056 2710.5198,886.16156 2704.6398,909.90056 2701.6808,921.84356 2698.3948,933.69556 2695.0378,945.53154 2691.7468,957.13466 2688.5558,968.83466 2684.3988,980.16156 2676.0918,1002.8036 2666.1688,1024.8836 2654.1338,1045.8046 2641.9958,1066.9066 2628.8498,1087.4866 2614.2378,1106.9696 2599.1658,1127.0666 2582.6678,1145.9446 2565.8948,1164.6296 2549.8298,1182.5266 2532.8918,1199.7316 2514.8648,1215.6616 2496.0788,1232.2646 2476.8978,1248.3126 2457.1558,1263.7656 2438.2988,1278.5276 2418.9668,1292.7306 2399.3188,1306.4206 2378.7018,1320.7866 2357.7538,1334.6106 2336.4758,1347.9776 2326.4088,1354.3016 2316.0058,1360.1326 2305.6418,1365.9516 2295.0348,1371.9086 2284.3858,1378.0166 2273.4448,1383.3436 2250.7338,1394.3986 2227.7768,1404.7266 2204.3888,1414.2665 2181.7848,1423.4875 2159.0678,1432.2695 2136.0228,1440.3345 2117.4118,1446.8465 2098.5568,1452.4975 2079.5058,1457.5605" id="ocean"/>
  <path class="landxx jor" d="M 1530.4073,505.50955 C 1530.2693,503.09555 1531.2413,500.79655 1531.2643,498.39655 1531.2913,495.63755 1532.5223,493.59155 1532.8563,490.96555 1532.9963,489.87155 1532.6803,488.75555 1532.7663,487.64455 1532.8483,486.59455 1533.1978,485.56155 1533.2368,484.53855 1533.3168,482.39455 1533.0232,479.8195 1532.9442,477.6555 1532.8782,475.8185 1535.1703,476.38355 1536.2173,477.10755 1537.9423,478.29955 1539.5016,480.10541 1541.8206,479.64941 1544.1556,479.18941 1546.3043,476.99355 1548.2353,475.70655 1550.7033,474.06255 1553.1673,472.24455 1555.7573,470.80555 1556.5563,473.36555 1557.6043,475.83655 1558.4873,478.36655 1557.5973,478.46055 1558.1783,479.67555 1558.7513,479.82255 1559.6593,480.05555 1560.8049,479.91275 1559.3359,481.45373 1554.7274,484.27094 1550.1117,485.76424 1544.5722,487.146 L 1552.8316,495.81314 C 1552.0886,496.17814 1550.1241,496.13361 1549.5951,496.79961 1548.9871,497.56561 1549.6761,499.11214 1549.0259,499.87814 1547.9349,501.16314 1545.181,500.06891 1543.767,501.41891 1542.154,502.95891 1541.6265,505.85414 1539.3225,506.76114 1537.2375,507.58014 1532.5203,506.05655 1530.4073,505.50955" id="jo">
    <title>Jordan</title>
  </path>
  <path class="landxx syr" d="M 1532.7863,471.66955 C 1533.4134,470.8751 1534.6211,469.22195 1535.7363,469.00555 1534.0343,467.41755 1536.4663,466.41855 1537.8953,466.84555 1536.6393,465.31955 1538.511,465.13415 1538.9435,463.67575 1539.1832,462.8676 1538.1789,461.23303 1537.2527,461.06135 1536.1965,460.86557 1538.2076,459.34994 1536.5709,459.80895 1533.8435,460.5738 1533.6426,458.83473 1533.5163,457.42355 1533.4015,456.14111 1534.2313,453.79855 1533.0793,452.85455 1532.1563,452.09755 1532.8735,450.08517 1532.8385,448.97817 1532.8125,448.14717 1534.3573,449.45315 1534.6543,449.60015 1534.6783,449.70998 1535.0325,448.86227 1535.6887,448.46555 1536.4985,447.97601 1535.9513,446.87455 1536.0933,446.10955 1536.7983,446.27955 1537.5473,446.07755 1538.2533,446.03855 1537.6895,444.88155 1537.3211,444.58155 1537.1593,443.18955 1537.1003,442.68297 1537.1463,441.25195 1537.8563,441.07495 1538.3903,440.94095 1538.9267,440.93599 1539.3517,441.15995 1540.4977,441.76295 1540.7227,442.7867 1541.9037,442.6027 1543.3447,442.3777 1544.3003,442.20691 1545.6753,441.61291 1547.0853,441.00391 1548.1183,440.15791 1549.7013,440.38491 1550.8703,440.55191 1551.5573,441.38251 1552.5463,441.84551 1553.6723,442.37351 1555.8771,442.1537 1557.0971,442.04872 1560.2108,441.78078 1562.4348,440.0021 1565.2543,438.87452 1568.1047,437.73459 1571.2187,439.33371 1574.1437,438.16612 1575.6369,437.57008 1577.8288,435.28849 1578.0463,438.85651 1578.0973,439.68751 1576.0703,441.37251 1575.4863,441.95051 1574.4273,442.99951 1573.2463,442.92551 1572.0533,443.62551 1569.4933,445.12851 1572.1753,448.38251 1572.3763,450.17851 1572.4953,451.24051 1571.8533,452.54351 1571.7763,453.64151 1571.6633,455.27651 1571.7766,457.92146 1571.7663,459.54043 1571.7463,463.32798 1555.7996,470.57259 1547.7064,476.11251 1545.5026,477.62105 1541.9374,481.24951 1539.0714,479.24351 1538.0284,478.51451 1537.2772,477.95404 1536.2014,477.21451 1534.3351,475.93149 1533.4963,476.8919 1533.1868,476.8473 1533.1218,476.6123 1533.8612,472.13951 1532.7844,471.66951" id="sy">
    <title>Syrian Arab Republic</title>
  </path>
  <path class="landxx egy" d="M 1455.3863,499.96555 C 1453.9613,497.68455 1456.8963,495.29484 1456.5353,492.95555 1456.1477,490.44427 1453.8596,488.6908 1457.4753,485.70955 1457.5513,487.53955 1459.6843,486.88455 1460.7903,486.55555 1462.8113,485.95455 1464.4673,486.62455 1466.4753,486.82655 1468.6723,487.04655 1470.7803,487.53555 1472.9073,488.10255 1473.8063,488.34255 1473.9493,489.32055 1474.8623,489.60255 1475.6733,489.85255 1476.2903,489.75155 1477.0943,489.66655 1477.6343,489.60855 1477.8843,490.45255 1478.4933,490.57855 1479.1603,490.71655 1479.8413,490.71955 1480.5143,490.78655 1482.6773,491.00055 1484.1213,492.35755 1486.1503,492.69655 1488.1123,493.02455 1489.9883,491.70355 1491.3953,490.50355 1492.1253,489.88155 1492.8053,489.20555 1493.4743,488.51855 1494.0473,488.96555 1494.4793,489.42555 1495.2043,489.31055 1494.7903,489.10255 1494.8803,488.98355 1494.3343,489.02255 1495.0433,488.64655 1495.7513,487.96355 1495.9243,487.15055 1497.1493,487.88255 1498.3013,486.56755 1499.5243,486.57655 1498.7023,486.95455 1497.9133,487.42455 1497.2853,488.08755 1497.5023,487.95955 1502.4643,486.45955 1500.0953,486.28755 1501.8483,485.70755 1502.9863,487.71455 1504.6703,487.47555 1505.4743,487.36155 1506.2323,486.56655 1507.0853,486.86455 1507.8783,487.14055 1508.2523,488.28955 1508.9553,488.73555 1508.2433,488.23755 1507.5143,487.14355 1506.5753,487.08055 1506.8533,487.82655 1505.8253,489.23755 1507.0393,489.52755 1508.3593,489.84255 1507.7413,490.16955 1508.5953,490.96755 1508.5953,490.67355 1510.9503,489.67955 1509.2453,488.87955 1511.0593,489.30155 1511.6623,490.97555 1513.7903,490.78955 1514.4803,490.72955 1516.5173,489.45555 1516.1553,490.96755 1517.4743,490.12955 1518.9543,490.61855 1520.3713,490.19155 1521.6193,489.81655 1522.8684,489.32794 1523.8694,488.45894 L 1529.9489,504.50824 C 1528.4119,506.46324 1528.7553,510.07855 1527.7773,512.39455 1527.2053,513.74855 1527.2293,514.59255 1527.2443,516.02355 1527.2573,517.24755 1525.7013,518.43155 1526.0843,519.62455 1525.3413,518.93755 1524.3473,518.62755 1523.5273,518.05355 1522.4863,517.32455 1521.7583,516.26255 1521.0453,515.23555 1520.1423,513.93355 1517.5013,513.08355 1517.8843,511.12855 1518.2703,509.15855 1516.3703,507.79255 1515.3993,506.40455 1514.0563,504.48755 1513.0983,502.25455 1512.5543,499.96855 1511.6523,500.93755 1510.6923,503.05155 1511.6333,504.15755 1513.2423,506.05255 1513.0753,508.37855 1514.4243,510.33655 1515.5923,512.03255 1516.7763,514.10855 1518.2363,515.55555 1518.8823,516.19555 1519.6193,516.74655 1520.2083,517.44355 1520.5163,517.80855 1521.7853,519.90055 1520.2553,518.75955 1521.4933,519.72555 1520.4693,520.95555 1521.2543,521.75155 1522.3083,522.81955 1522.8683,523.95155 1523.4203,525.29755 1523.6913,525.95955 1524.1383,526.52655 1524.5233,527.12155 1524.8173,527.57655 1524.2333,528.15655 1524.2073,528.60155 1524.1713,529.19655 1525.1433,530.07955 1525.4083,530.59255 1526.0173,531.76655 1526.6813,532.91255 1527.2963,534.08455 1529.3153,537.93455 1531.3533,541.71655 1533.2643,545.62555 1534.0123,547.15455 1535.1113,548.24955 1536.0503,549.62355 1536.9243,550.90255 1538.4563,551.29855 1539.2663,552.59955 1538.5003,552.64055 1537.7273,552.50755 1537.0373,552.16755 1536.5323,554.25655 1536.7761,557.44607 1537.8423,558.67755 1538.8574,559.84993 1536.5144,562.20415 1535.0853,562.27355 1534.3773,562.30795 1534.1084,561.79253 1533.3948,562.58849 1532.8327,563.21549 1532.5363,564.29055 1532.2803,565.09455 1531.9863,566.02355 1531.5493,566.84455 1530.5233,567.08355 1529.6933,567.27655 1528.1997,567.10675 1527.7587,568.05874 1526.9527,569.80174 1527.4445,571.83582 1524.9875,571.64074 1522.125,571.41345 1520.6696,569.09252 1519.1615,569.15568 1514.193,569.36376 1511.3412,569.81686 1507.4463,569.15968 1507.5583,568.76868 1508.0103,567.94168 1507.7313,567.53968 1507.0283,566.52268 1506.4893,568.36668 1506.2563,568.69968 1505.3233,570.03368 1500.6613,569.23168 1499.1673,569.23168 L 1459.0783,569.14498 1457.6493,514.95971 C 1457.4993,512.42671 1457.5613,509.76971 1457.2113,507.26071 1456.9113,505.10271 1456.3573,501.91071 1455.3863,499.96571" id="eg">
    <title>Egypt</title>
  </path>
  <g class="landxx coastxx sau" id="sa" transform="translate(-29.9017,-45.0745)">
    <title>Saudi Arabia</title>
    <path class="landxx sau" d="M 1624.548,662.653 C 1624.645,661.745 1624.091,659.593 1623.274,659.073 1622.858,658.808 1620.843,654.574 1620.959,656.617 1620.772,652.958 1618.236,652.017 1616.218,649.54 1615.454,648.602 1614.376,647.248 1614.018,646.101 1613.555,644.621 1612.72,644.199 1611.962,642.996 1611.518,642.29 1611.896,641.674 1611.384,640.949 1611.019,640.434 1610.409,638.795 1610.168,638.134 1609.942,637.515 1609.805,636.861 1609.515,636.266 1609.248,635.719 1608.691,635.642 1608.423,635.161 1608.167,634.699 1608.413,634.069 1608.064,633.664 1607.705,633.255 1607.119,633.198 1606.73,632.836 1605.753,631.927 1604.622,631.008 1603.759,629.995 1602.712,628.765 1601.485,629.28 1600.304,628.41 1598.345,626.964 1597.042,624.279 1595.811,622.223 1595.094,621.026 1595.3,620.341 1595.24,619.078 1595.174,617.71 1594.184,616.578 1594.082,615.195 1593.948,613.38 1594.699,611.575 1594.338,609.767 1594.173,608.943 1593.723,608.246 1593.281,607.551 1593.049,607.185 1591.642,605.37 1593.23,606.611 1592.881,605.699 1592.088,605.689 1591.882,604.69 1591.697,603.797 1591.259,602.82 1590.91,601.977 1589.944,599.642 1588.059,598.051 1586.292,596.371 1585.003,595.147 1583.726,594.954 1582.154,594.524 1581.484,594.341 1581.164,593.066 1580.967,592.522 1580.545,591.356 1579.729,590.556 1578.998,589.584 1581.528,588.662 1578.004,584.509 1577.178,583.504 1576.621,582.829 1575.058,581.599 1575.125,580.708 1575.242,579.173 1573.265,578.286 1572.6,576.905 1570.584,572.715 1567.402,569.234 1565.168,565.123 1564.487,563.871 1563.727,561.94 1562.226,561.517 1561.544,561.325 1558.862,560.879 1558.809,562.138 1557.912,561.318 1559.362,559.163 1559.614,558.302 1560.142,556.497 1559.72,554.61929 1560.015,552.797 1560.3887,550.48848 1560.029,551.9254 1560.3535,550.54963 1562.0765,551.0622 1566.817,552.33479 1568.536,551.96 1571.951,551.21544 1571.897,546.25 1575.106,545.744 1576.309,545.554 1579.2619,545.85807 1579.133,544.236 1578.8389,540.53658 1580.4483,541.64719 1582.6876,540.89194 1579.765,538.09245 1576.9846,535.17277 1574.3111,532.13794 1579.5036,531.05316 1582.9504,529.88325 1589.0711,526.61336 1591.6638,527.11059 1596.2881,527.39321 1599.1306,528.70914 1608.682,533.13084 1616.549,539.891 1624.84,546.2 1626.596,547.537 1628.305,548.864 1629.944,550.337 1631.811,552.014 1633.1087,551.93027 1635.5687,552.16827 1638.4047,552.44227 1641.393,552.843 1644.23,553.105 1645.271,553.202 1645.785,552.671 1646.915,552.915 1648.442,553.244 1650.026,553.43 1651.581,553.571 1653.229,553.719 1653.359,555.635 1653.885,556.848 1654.664,558.65 1657.289,557.512 1658.779,557.643 1660.32,557.779 1660.521,558.614 1661.025,559.875 1661.57,561.24 1664.28,562.979 1663.859,564.51 1663.72,564.269 1663.55,564.053 1663.348,563.863 1662.887,564.96 1663.993,564.835 1663.859,565.803 1663.878,565.818 1668.491,566.245 1666.729,567.6 1667.405,567.814 1668.84,571.275 1669.529,569.325 1669.069,571.061 1673.235,573.011 1674.199,574.066 1673.685,573.912 1673.302,573.6 1673.049,573.132 1673.073,575.046 1674.233,575.074 1674.645,576.61 1674.886,577.51 1674.79,579.409 1673.48,578.234 1673.599,579.255 1673.269,579.458 1674.197,579.646 1674.34,579.674 1675.556,582.311 1675.64,582.617 1675.37,582.384 1675.107,582.144 1674.849,581.898 1675.646,583.067 1677.069,583.724 1677.699,585.018 1678.338,586.326 1678.532,587.526 1679.3,588.797 1679.89,589.775 1680.743,591.451 1681.965,591.751 1682.524,591.888 1684.552,591.358 1684.26,592.461 1684.474,591.901 1684.959,591.696 1685.481,592.029 1684.798,592.863 1684.1808,595.13714 1686.4878,594.54814 1686.3358,594.58714 1687.668,597.18459 1687.796,597.36759 1690.4559,600.38582 1694.0439,605.69524 1695.4539,606.26755 1704.2175,607.24656 1708.2698,607.72271 1713.0378,608.78434 1713.6593,608.63552 1714.2039,608.26213 1714.4029,607.85982 1715.467,610.31957 1717.884,611.60687 1718.2902,613.20382 1718.6572,614.64673 1718.5549,615.60485 1718.1767,617.08865 1716.9105,622.05712 1716.2131,631.00532 1714.378,631.99405 1701.8839,638.72558 1686.2472,641.0812 1671.399,643.541 1669.473,644.223 1667.6204,645.09378 1665.8625,646.11109 1663.2191,647.64081 1660.6488,652.23604 1659.7912,654.97914 1659.3949,656.2468 1657.9032,657.63486 1656.5082,657.64086 1655.0502,657.64686 1654.7807,655.27666 1653.5925,654.87681 1652.2423,654.42243 1651.2454,655.11243 1650.0813,654.96991 1648.2762,654.74896 1645.8635,655.03261 1644.241,654.19778 1642.292,653.19492 1640.8559,653.65516 1638.6969,653.65942 1636.8059,653.66342 1634.8091,654.8209 1632.9264,654.79696 1630.5887,654.76726 1630.247,652.9881 1629.0304,653.30796 1627.3999,653.73664 1626.9674,655.87715 1626.8766,657.23023 1626.7866,658.5654 1628.4577,659.34174 1627.0426,660.30623 1626.7712,660.49125 1626.4881,662.38268 1624.4535,663.0555 1624.4405,662.8765 1624.558,662.82796 1624.5475,662.65296" id="path3380"/>
    </g>
  <path class="landxx isr" d="M 1524.2863,489.52555 C 1524.6343,489.04855 1526.5283,486.76355 1525.6563,486.21355 1527.1433,483.73655 1527.4963,480.85955 1528.0353,478.07755 1528.2013,477.22655 1528.2253,475.82755 1528.9133,475.21455 1529.4293,474.75555 1528.6443,473.76155 1529.1153,473.25355 1529.5483,472.78755 1530.5993,473.25855 1531.1003,473.32055 1532.2853,473.46655 1532.1283,472.24255 1532.4963,471.52555 1534.2224,471.61405 1532.9319,478.20401 1533.0784,480.13001 1532.8706,479.36128 1531.6459,478.3462 1530.7196,478.09875 1529.6127,477.80305 1529.2675,479.19871 1529.0503,480.05628 1528.8071,481.01658 1528.2803,484.42337 1529.6693,484.24355 1532.5753,483.86735 1528.4228,485.83887 1528.9885,487.91855 1529.3048,489.08155 1532.3013,486.85323 1532.9253,486.84623 1532.7804,487.89761 1532.8273,488.55745 1532.8763,490.23296 1532.9193,491.7281 1532.3144,493.67018 1531.869,494.98 1531.0017,497.53042 1531.6396,501.91291 1529.9066,504.42855 L 1524.2866,489.52555" id="il">
    <title>Israel</title>
  </path>
  <g id="lb">
    <title>Lebanon</title>
    <path class="landxx lbn" d="M 1529.1163,473.25355 C 1530.7063,471.39955 1530.6543,468.05455 1532.0043,465.97055 1532.6733,464.93855 1531.8893,463.54455 1532.6573,462.54955 1533.2563,461.77555 1534.8933,460.91955 1534.3663,459.71755 1534.9833,459.84755 1535.9173,460.11055 1536.5083,459.75855 1537.8673,458.94855 1536.9073,460.49055 1537.1073,460.95455 1537.0813,460.89255 1538.0023,461.23655 1538.0983,461.32955 1538.7833,461.98855 1538.3973,461.84255 1538.9153,462.79255 1540.0193,464.81355 1536.4923,465.13755 1537.8963,466.84455 1536.4673,466.41755 1534.0353,467.41655 1535.7373,469.00455 1535.1033,469.15055 1532.9513,471.23855 1532.8563,471.88455 1532.7003,471.80155 1532.5803,471.68155 1532.4973,471.52455 1532.2603,471.98955 1532.2462,472.54105 1531.9923,473.01555 1531.4541,474.02142 1529.8989,472.62259 1529.1163,473.25355" id="lb-"/>
    <circle class="circlexx lbn" cx="1533.8287" cy="465.99615" id="lb." r="6.0130301" rx="6.0130301" ry="6.0130301"/>
  </g>
  <g id="ps">
    <title>Palestine, State of</title>
    <g class="world_map-is_selected landxx pse" id="ps-" transform="translate(-29.9017,-45.0745)">
      <path d="M 1553.758,533.592 C 1554.452,532.907 1555.098,532.154 1555.559,531.288 1556.42,531.832 1554.592,534.1568 1554.189,534.5758 1554.018,534.2768 1553.874,533.917 1553.758,533.592" id="gaza_strip"/>
      <path d="M 1558.658,526.104 C 1559.0247,525.24666 1559.1486,522.83964 1560.615,523.128 1561.1236,523.22802 1562.6102,524.10083 1562.7968,524.59486 1563.339,526.03011 1563.1992,528.04465 1563.1509,529.605 1563.1179,530.67692 1563.1019,531.83254 1562.5373,532.09714 L 1560.4431,533.07772 C 1559.4492,533.54306 1558.4571,533.57606 1558.8831,532.01706 1558.9961,531.60406 1560.466,529.43 1560.676,529.501 1560.24,529.352 1559.1109,529.78377 1558.848,529.023 1558.3837,527.67927 1558.848,526.66836 1558.658,526.104" id="west_bank"/>
    </g>
    <circle class="world_map-is_selected circlexx pse" cx="1534.2589" cy="483.44797" id="ps." r="6.0130301" rx="6.0130301" ry="6.0130301"/>
  </g>
  </svg>