<svg xmlns="http://www.w3.org/2000/svg" class="world_map zoom5" height="127" id="svg2985" version="1.1" viewBox="1476 754 44 44" width="127">
  <title>World Map</title>
  <defs id="defs2987"/>
  <style id="style_css_sheet" type="text/css">
/*
 * Below are Cascading Style Sheet (CSS) definitions in use in this file,
 * which allow easily changing how countries are displayed.
 *
 */
/* --- Custom styles for Peace Corps --- */
.world_map .world_map-is_selected {
  fill: #C94112 !important;
}
.world_map .landxx {
  fill: #F2EFE8;
  stroke: #ffffff;
  fill-rule: evenodd;
}
.world_map.zoom6 .landxx {
  stroke-width: 0.1px;
}
.world_map.zoom5 .landxx {
  stroke-width: 1px;
}
.world_map.zoom4 .landxx {
  stroke-width: 2px;
}
.world_map.zoom3 .landxx {
  stroke-width: 3px;
}
.world_map.zoom2 .landxx {
  stroke-width: 4px;
}
.world_map.zoom1 .landxx {
  stroke-width: 5px;
}
.world_map .coastxx {
  fill: #F2EFE8;
  stroke: #ffffff;
  stroke-width: 2px;
  fill-rule: evenodd;
}
.world_map .oceanxx {
  opacity: 1;
  color: #ccc;
  fill: #ffffff;
  stroke: #ffffff;
  stroke-width: 0.5;
  stroke-miterlimit: 1;
}

/* --- Original Styles --- *
/*
 * Circles around small countries
 *
 * Change opacity to 1 to display all circles.
 *
 */
.circlexx
{
   opacity:0;
   fill:#e0e0e0;
   stroke:#000000;
   stroke-width:0.5;
}

/*
 * Smaller circles around French DOMs and Chinese SARs
 *
 * Change opacity to 1 to display all subnational circles.
 *
 */
.subxx
{
   opacity:0;
   stroke-width:0.3;
}

/*
 * Circles around small, unrecognized countries
 *
 * Change opacity to 1 to display all circles.
 *
 */
.unxx
{
   opacity:0;
   fill:#e0e0e0;
   stroke:#000000;
   stroke-width:0.3;
}

/*
 * Circles around small countries, but with no permanent residents 
 *
 * Change opacity to 1 to display all circles.
 *
 */
.noxx
{
   opacity:0;
   fill:#e0e0e0;
   stroke:#000000;
   stroke-width:0.5;
}

/*
 * land
 */
.landxx
{
}
/*
 * Styles for coastlines of islands with no borders
 */


/*
 * Styles for nations with limited recognition
 */
.limitxx
{
   fill: #e0e0e0;
   stroke:#ffffff;
   stroke-width:0;
   fill-rule:evenodd;
}

/*
 * Styles for nations with no permanent population.
 */
.antxx
{
   fill: #e0e0e0;
   stroke:#ffffff;
   stroke-width:0;
   fill-rule:evenodd;
}

/*
 * Ocean
 */


/*
 * Additional style rules
 *
 * The following are examples of colouring countries.  You can substitute these with your own styles to colour the countries on the map.
 *
 * Color a few countries:
 *
 * .gb, .au, .nc
 * {
 *    fill:       #ff0000;
 * }
 *
 * Color a few small country circles (and the countries):
 *
 * .ms, .ky
 * {
 *    opacity:    1;
 *    fill:       #ff0000;
 * }
 *
 */

</style>
  <path class="oceanxx" d="M 2079.5058,1457.5605 615.24779,1457.5605 C 615.13079,1457.5605 615.07079,1457.5505 614.95179,1457.5215 611.67679,1456.6515 608.40179,1455.7815 605.12779,1454.9105 599.15079,1453.3225 593.22879,1451.5225 587.30779,1449.7385 564.39379,1442.8315 541.76579,1434.6995 519.46979,1426.0115 495.81079,1416.7935 472.34979,1407.0946 449.19179,1396.6816 426.78379,1386.6056 405.17679,1375.0536 383.76379,1363.0356 363.11779,1351.4496 343.01079,1338.8296 323.37979,1325.5996 302.29179,1311.3876 281.47879,1296.8506 261.05379,1281.7006 242.35079,1267.8276 223.73679,1253.6306 206.05279,1238.4686 186.98679,1222.1216 167.82379,1205.7706 150.35279,1187.6906 132.97779,1169.7106 116.33279,1151.0606 100.15679,1131.9976 84.352777,1113.3736 70.086776,1093.4716 56.901786,1072.9246 44.046786,1052.8916 32.093776,1032.1356 22.469776,1010.3426 17.516776,999.12753 12.408776,987.76556 8.7017761,976.06056 5.0657761,964.58166 1.5997761,953.04259 -1.5932239,941.43054 -8.0102239,918.09356 -14.055224,894.78356 -18.234224,870.92056 -22.491222,846.60856 -24.894222,822.19856 -26.943222,797.62156 -28.947222,773.58556 -28.829222,749.40156 -27.225222,725.34856 -25.648222,701.69856 -23.363222,677.92456 -19.274222,654.56456 -15.018224,630.25156 -9.3842239,606.45156 -2.8412239,582.66156 3.5687761,559.35256 10.483776,536.34856 20.265776,514.19856 30.320776,491.42956 42.318786,469.90956 55.502786,448.81656 68.512776,428.00356 83.108777,408.26756 98.686787,389.31756 113.73479,371.01156 129.68979,353.25256 146.15179,336.20856 163.77479,317.96256 182.64579,301.14556 201.89579,284.64756 220.33379,268.84456 239.55379,253.98456 258.95979,239.39656 278.42779,224.76056 298.39379,210.83356 318.55579,197.17556 339.26979,183.14456 360.47879,169.92056 382.15079,157.42556 403.46579,145.13656 425.31479,133.98856 447.60479,123.59356 469.58579,113.34356 492.14979,104.17656 514.74579,95.37556 537.44879,86.532565 560.37879,78.195565 583.63479,70.914565 589.69379,69.017565 595.80079,67.276565 601.90879,65.549565 604.63079,64.779565 607.36079,64.045565 610.09479,63.318565 611.59979,62.918565 613.56579,61.986565 615.13379,61.986565 L 2079.9638,61.986565 C 2079.9798,61.986565 2079.9958,61.986565 2080.0118,61.986565 2079.8448,61.986565 2079.6788,61.986565 2079.5118,61.986565 2102.8268,68.191565 2125.8778,75.323565 2148.5448,83.611565 2171.6378,92.054565 2194.6158,100.87956 2217.2348,110.52956 2240.5208,120.46556 2263.4848,130.95256 2285.8828,142.76456 2306.9808,153.89056 2327.8178,165.78556 2347.8608,178.72156 2368.9418,192.32656 2389.7498,206.29256 2410.2218,220.80056 2429.7368,234.62956 2448.9938,248.98756 2467.6208,263.99256 2486.8818,279.50856 2506.0408,295.30556 2524.0538,312.27356 2541.8708,329.05756 2558.7508,346.67256 2574.9408,365.03656 2591.2478,383.53256 2607.1478,402.30656 2621.4508,422.41856 2635.3488,441.96256 2648.4468,462.42756 2659.5898,483.67756 2671.1238,505.67356 2681.1048,528.35656 2688.6188,552.05056 2692.2518,563.50656 2695.3368,575.14756 2698.5608,586.72256 2701.7738,598.25356 2704.9238,609.81956 2707.4578,621.52456 2712.6258,645.40556 2716.6718,669.47856 2719.1178,693.79656 2721.5718,718.19256 2723.1798,742.56356 2722.9808,767.09056 2722.7908,790.65456 2720.6908,814.43756 2717.7688,837.81156 2714.7368,862.07056 2710.5198,886.16156 2704.6398,909.90056 2701.6808,921.84356 2698.3948,933.69556 2695.0378,945.53154 2691.7468,957.13466 2688.5558,968.83466 2684.3988,980.16156 2676.0918,1002.8036 2666.1688,1024.8836 2654.1338,1045.8046 2641.9958,1066.9066 2628.8498,1087.4866 2614.2378,1106.9696 2599.1658,1127.0666 2582.6678,1145.9446 2565.8948,1164.6296 2549.8298,1182.5266 2532.8918,1199.7316 2514.8648,1215.6616 2496.0788,1232.2646 2476.8978,1248.3126 2457.1558,1263.7656 2438.2988,1278.5276 2418.9668,1292.7306 2399.3188,1306.4206 2378.7018,1320.7866 2357.7538,1334.6106 2336.4758,1347.9776 2326.4088,1354.3016 2316.0058,1360.1326 2305.6418,1365.9516 2295.0348,1371.9086 2284.3858,1378.0166 2273.4448,1383.3436 2250.7338,1394.3986 2227.7768,1404.7266 2204.3888,1414.2665 2181.7848,1423.4875 2159.0678,1432.2695 2136.0228,1440.3345 2117.4118,1446.8465 2098.5568,1452.4975 2079.5058,1457.5605" id="ocean"/>
  <path class="landxx cod" d="M 1363.8063,809.49855 C 1364.4923,808.97755 1365.3416,809.41875 1365.6106,808.48674 1365.8286,807.73174 1366.451,804.76555 1365.921,804.15855 1364.534,802.57055 1369.9153,800.17055 1370.9263,799.26755 1371.1993,800.41455 1372.8793,800.58155 1372.9463,801.78855 1373.4843,801.22955 1374.1953,800.89855 1374.7933,800.41755 1375.6093,799.76155 1375.2683,798.57255 1375.9763,797.82855 1377.1763,799.41955 1378.9733,796.37555 1380.3903,797.08455 1381.7403,797.76055 1380.4943,798.06155 1380.2863,798.90855 1380.0533,799.85955 1380.6563,800.90155 1380.6563,801.85755 1381.2553,801.08555 1382.5783,802.05955 1383.3863,801.49855 1384.5793,800.66955 1385.3203,799.09455 1386.2283,797.98255 1386.6993,797.40655 1388.6143,796.48155 1388.7153,795.95855 1388.9843,794.57655 1390.1343,794.24555 1391.2763,793.75855 1393.9333,792.62455 1394.4093,787.62055 1394.3453,785.23055 1394.2963,783.41155 1394.4623,781.76755 1394.2333,779.95155 1394.0143,778.20955 1396.207,777.76255 1396.9426,776.38455 1398.6756,773.13802 1398.5434,771.08368 1402.0653,768.69255 1403.5473,767.68636 1404.4503,766.50355 1405.4343,765.11555 1406.4143,763.73355 1405.7063,761.71555 1406.1043,760.13055 1406.4543,758.73855 1407.1353,752.76255 1407.1953,751.19555 1407.2633,749.42455 1408.2893,747.87155 1408.5803,746.14555 1408.8623,744.47455 1408.3743,742.70755 1408.7503,741.05355 1409.4573,737.93955 1411.3169,735.39202 1412.3819,732.43102 1413.0009,730.71102 1412.7033,728.89755 1412.6553,727.14355 1412.6333,726.33455 1413.0083,725.48655 1412.8793,724.69555 1412.7653,723.99055 1412.3453,723.40255 1412.1523,722.72455 1411.8463,721.64655 1413.7273,721.67555 1414.1583,720.69255 1414.7543,719.33555 1415.3823,718.14355 1416.4103,717.04555 1417.3943,715.99355 1418.6253,715.09355 1420.1323,715.10455 1421.4083,715.11355 1421.9183,716.21655 1422.7333,716.39755 1424.6273,716.81655 1426.3833,718.86355 1427.0903,720.60355 1427.6663,722.02455 1429.7083,720.96355 1430.8613,721.31055 1431.4863,721.49855 1431.7953,722.34355 1432.5143,722.30955 1433.1513,722.27855 1433.2823,722.16455 1433.9403,722.50055 1434.9313,723.00655 1435.1293,722.49855 1436.1023,722.43655 1436.7523,722.39455 1437.4673,722.73855 1438.0633,722.95855 1439.1383,723.35655 1440.6063,724.13155 1441.7793,723.71855 1443.8763,722.98055 1443.2323,717.96955 1446.0273,717.83855 1447.6163,717.76255 1448.0403,720.98055 1450.1153,719.01555 1450.9923,718.18455 1457.0533,717.38255 1456.6873,715.39055 1457.9423,715.33655 1458.3633,717.05955 1459.5683,716.93855 1461.0153,716.79255 1463.4953,716.57455 1464.0973,715.03055 1464.3223,714.45455 1463.7423,713.87955 1464.5033,713.49755 1465.4363,713.03155 1466.2023,713.30955 1466.9303,714.02555 1468.0963,715.17255 1469.1773,713.82255 1470.4663,714.43355 1471.1043,714.73555 1471.6323,715.21555 1472.2573,715.53855 1472.9853,715.91455 1473.5043,715.59455 1474.2753,715.71055 1476.1053,715.98555 1476.8153,713.95455 1478.7453,715.04855 1479.4793,715.46455 1482.0273,717.06955 1482.0273,718.01855 1482.0273,718.48355 1482.6303,719.63055 1483.0813,719.81455 1484.9773,720.58755 1486.7843,723.38155 1488.8093,721.47355 1489.9563,720.39155 1490.8033,720.17555 1492.3253,720.91855 1493.8893,721.68355 1494.5111,721.37409 1495.4343,719.55555 1496.6509,717.15905 1499.7571,723.16319 1499.9163,723.55555 1500.6284,725.31003 1505.367,725.5411 1503.9183,728.27855 1504.8393,728.06255 1505.9533,728.00555 1506.1833,729.17855 1506.2993,729.49155 1506.4583,729.78155 1506.6623,730.04555 1506.7913,730.64755 1505.97,731.77341 1506.0597,732.40068 1506.3476,734.41308 1506.0057,736.41592 1505.7198,738.33424 1505.569,739.34482 1506.3192,739.21208 1507.453,739.0118 1507.9738,738.9198 1509.9611,740.3074 1509.5985,741.40849 1508.733,744.03698 1505.4703,746.64455 1503.5943,748.59255 1502.9738,749.23655 1501.7247,750.95036 1500.9734,751.58286 1500.2222,752.21536 1500.1491,751.67646 1499.7176,752.50142 1499.1776,753.53542 1499.8383,754.79755 1499.1833,755.85555 1498.4573,757.02955 1497.7353,758.79855 1497.5803,760.18055 1497.4413,761.41855 1497.4583,762.66955 1497.3723,763.91155 1497.2713,765.36455 1497.076,766.63355 1496.927,768.01355 1496.819,769.02255 1497.0773,770.43855 1496.6133,771.36255 1496.0863,772.41355 1495.2337,772.80824 1494.4647,773.65924 1493.2747,774.97624 1493.3742,775.40055 1493.3312,776.94555 1493.3032,777.96355 1492.2122,779.10936 1491.6612,779.83636 1490.4452,781.43936 1492.1385,783.11379 1493.0776,784.6413 1493.7849,785.79167 1494.3011,786.60032 1493.7753,788.18524 1491.8638,789.85939 1494.1815,795.11705 1492.3734,796.84412 1493.6905,797.60071 1493.4499,794.20669 1493.9067,794.78129 1494.3593,797.4537 1492.6868,799.39177 1492.6738,802.01104 1492.6568,805.4135 1495.5232,806.98042 1494.3172,809.33255 1493.6208,810.69078 1492.8882,810.98973 1493.4768,811.86514 1494.3774,813.20471 1494.7597,815.41345 1496.5385,818.89733 1497.7272,821.22547 1501.124,820.78883 1501.331,826.39662 1501.412,828.59797 1503.13,827.39032 1503.7904,830.76699 1499.0834,831.83999 1495.6123,831.96255 1490.8923,832.97255 1492.8433,836.19655 1487.7803,837.53655 1486.8623,839.95155 1489.5783,840.78955 1488.6763,844.98655 1488.4933,847.03755 1488.3593,848.53055 1488.9253,849.94055 1488.8383,851.41855 1488.7923,852.19355 1488.6237,852.93005 1488.3147,853.59905 1487.8677,854.56705 1487.5543,855.29655 1487.3063,856.31855 1486.8173,858.32455 1486.1363,859.4723 1487.4103,861.4123 1488.2963,862.7623 1489.9285,864.46042 1491.0995,865.56742 1491.6245,866.06442 1494.4031,867.76756 1494.6203,866.73355 1495.0061,864.89719 1495.4884,865.24047 1497.2933,864.72155 1497.2933,867.61855 1497.1963,870.52655 1497.1183,873.42255 1497.1053,873.86955 1497.4393,875.77855 1496.6893,875.85355 1495.8113,875.94155 1495.6153,874.92555 1496.2223,874.44055 1494.9243,872.84755 1492.0133,877.81686 1490.6423,874.83286 1490.1853,873.83886 1489.757,872.57855 1489.087,871.67755 1488.706,871.16555 1487.6855,870.50655 1487.5675,869.90155 1487.3365,868.71855 1487.1023,867.34655 1485.6123,867.30455 1484.3643,867.26955 1483.8313,865.96455 1482.6323,865.82055 1481.6303,865.69955 1481.0163,866.4558 1480.3233,865.3548 1479.7873,864.5008 1479.7712,863.25655 1478.9882,862.55555 1477.8732,861.55555 1477.0804,858.07961 1476.1084,861.19761 1475.1054,864.41361 1473.35,862.72268 1470.841,862.81168 1469.15,862.87168 1468.7502,862.33474 1467.3232,861.68774 1467.2272,861.64474 1465.7272,861.28674 1465.6852,861.29374 1463.4092,861.69374 1462.7293,858.23155 1463.5323,856.65255 1462.1343,856.73155 1460.7289,857.02778 1459.4233,857.52255 1457.819,858.13051 1457.4797,858.92297 1455.6833,858.17255 1456.3754,856.93458 1456.416,855.30122 1455.8173,855.32955 1455.0379,855.36645 1454.7117,854.70298 1454.1709,854.19011 1452.9149,852.99914 1453.0879,854.40483 1452.7903,854.5078 1451.6777,854.89281 1451.1893,854.83555 1450.1853,854.5766 1448.9793,854.2636 1448.23,855.10736 1447.1613,855.48485 1445.7885,855.96975 1444.9152,855.04797 1444.026,855.2016 1443.7067,855.2568 1442.4373,855.1176 1442.3973,855.1386 1441.5383,855.6016 1441.0983,856.8996 1439.9153,856.8706 1440.1823,855.9816 1439.6493,855.2836 1439.4943,854.4486 1439.2803,853.3016 1440.072,853.09647 1440.324,852.21447 1440.907,850.16947 1440.1073,846.6196 1438.8653,844.9746 1437.3523,842.9676 1436.7043,841.7116 1436.8943,839.1136 1437.0903,836.4286 1438.0271,833.6116 1437.3291,830.9396 1437.0611,829.9186 1436.3351,829.0326 1436.3501,827.9496 1436.3681,826.7256 1437.0423,825.5796 1437.1353,824.3646 1437.2893,822.3626 1435.9933,822.58485 1434.3713,822.56985 1432.8273,822.55685 1431.2924,822.52935 1429.7523,822.59455 1426.5894,822.72855 1427.0718,822.03755 1427.9643,819.36055 1427.2553,819.36055 1426.5595,819.18068 1425.8695,819.45065 1425.4025,819.63265 1425.7463,819.83552 1425.4843,820.05952 1424.6473,820.77652 1420.8023,820.15052 1419.6843,820.15052 1420.0573,821.09652 1419.3646,822.20352 1419.5256,823.21452 1419.6566,824.03152 1419.6873,825.32852 1418.3843,825.05052 1418.8083,826.29652 1418.0543,827.53252 1418.3143,828.79052 1417.7853,828.78552 1414.3438,828.90527 1413.7853,828.58152 1412.1388,827.62712 1409.2379,829.40952 1408.6763,829.45952 1407.3669,829.24698 1406.1356,829.30884 1404.7043,829.31614 1402.8843,828.93614 1402.097,825.15252 1401.184,823.81852 1400.862,823.34852 1400.6123,823.01152 1400.2813,822.54452 1399.6693,821.68052 1399.949,821.06052 1399.821,820.13952 1399.594,818.50052 1397.8812,817.42441 1398.127,815.68371 1398.3479,814.11926 1398.127,812.81315 1397.3879,811.89852 1396.3636,810.62226 1396.3821,810.1521 1394.7893,810.22852 1390.4033,810.43896 1386.0553,810.61088 1381.6763,810.36127 1378.1393,810.15965 1373.9983,810.74452 1370.5253,810.07552 1367.7473,809.53952 1365.4453,813.67652 1363.8063,809.49852" id="cd">
    <title>Congo, the Democratic Republic of the</title>
  </path>
  <path class="landxx uga" d="M 1496.4963,769.60855 C 1496.9863,768.25455 1496.8293,766.43155 1497.0303,764.99555 1497.2833,763.18855 1497.4519,761.39647 1497.6873,759.57855 1497.974,757.36445 1499.255,756.09853 1499.4713,754.94455 1499.6031,754.24149 1499.3303,753.52655 1499.4713,752.81655 1499.6853,751.69955 1500.7403,751.98655 1501.2503,751.17855 1502.8033,748.72055 1505.2889,746.9696 1507.3909,744.7966 1508.2059,743.9526 1509.3023,742.48555 1509.6453,741.34755 1509.9273,740.41155 1508.1873,739.43055 1507.5133,739.07055 1506.9733,738.78155 1506.1593,739.66055 1505.7583,738.77355 1505.4413,738.07055 1505.6983,737.10755 1505.8443,736.39555 1506.2893,734.21355 1505.4723,732.45055 1506.5763,730.44755 1506.8993,729.86355 1506.1054,729.70928 1506.3044,729.09328 1506.5144,728.44128 1507.1093,727.89355 1507.6153,727.47555 1508.1133,727.06555 1508.7023,726.69155 1509.3833,726.81455 1509.9403,726.91555 1510.9873,728.07355 1511.5373,727.82455 1512.2413,727.50655 1513.2733,726.20955 1514.0233,727.19855 1514.8273,728.25655 1515.0443,728.63555 1516.4493,729.14155 1515.6611,727.83235 1517.8363,727.33255 1518.8573,727.18955 1520.1223,727.01238 1521.5656,725.99596 1522.8036,726.13996 1524.4986,726.33696 1525.0213,727.83355 1526.8713,726.55055 1528.1983,725.63155 1529.1203,724.25055 1530.1303,723.02055 1530.7193,723.81555 1531.3463,724.94755 1530.9903,725.97255 1532.1833,725.85155 1531.3912,726.72122 1532.517,727.05982 1533.6787,727.40919 1534.1226,727.6335 1533.6373,729.12255 1533.0056,731.06063 1534.9422,733.14369 1535.9503,735.44155 1536.148,735.89226 1537.3123,737.40855 1537.2903,737.80055 1537.2423,738.62955 1538.2214,739.8596 1538.4234,740.6666 1538.7784,742.0996 1538.4234,744.05233 1537.8037,745.48333 1537.2747,746.70433 1536.2583,746.88355 1536.5173,748.30455 1536.6513,749.04155 1535.4583,749.50355 1534.9133,749.77755 1533.8453,750.31655 1533.8003,751.75455 1533.1613,752.81855 1532.6833,753.61355 1531.8906,754.04228 1531.5596,754.86428 1531.1106,755.97728 1530.6989,756.79323 1530.1829,757.87323 1529.686,757.84003 1527.8546,758.44886 1528.1517,756.85068 1526.9892,757.29046 1527.3543,757.62287 1526.8758,757.6967 1525.4577,757.9155 1525.4376,757.0628 1526.501,757.1296 1526.228,756.55872 1525.2741,755.84572 1525.5962,755.43728 1524.8041,755.72725 1525.3274,755.51938 1524.2412,755.92533 L 1524.5857,756.5 C 1523.6383,756.75313 1524.3651,757.67973 1523.1711,757.6167 1523.3243,759.4781 1520.5237,758.51931 1520.2038,758.58367 1520.1468,758.61657 1520.3537,756.91304 1520.1458,757.19671 1518.7912,760.35232 1518.2972,758.67669 1518.0428,758.84269 1518.0928,759.51258 1517.5876,759.55546 1516.4211,759.67061 1515.8722,760.44944 1514.5763,760.43028 1514.6836,760.7047 1515.7046,763.31605 1513.5576,763.74792 1513.2212,765.58201 1512.9303,767.16845 1513.5108,767.25337 1513.6913,768.30028 1506.5023,768.30028 1515.252,768.61237 1508.0828,768.07655 1505.6075,767.89155 1502.6985,768.39827 1501.2498,770.19209 1500.7465,770.81525 1500.041,772.56249 1499.1614,771.98487 1498.9284,771.83184 1498.7926,770.99141 1498.3838,771.02355 1497.6838,771.07855 1496.5714,771.85331 1496.2408,772.08824 1496.4057,771.436 1497.323,770.30524 1496.5018,769.60855" id="ug">
    <title>Uganda</title>
  </path>
  <g class="landxx coastxx tza" id="tz" transform="translate(-29.9017,-45.0745)">
    <title>Tanzania, United Republic of</title>
    <path class="landxx tza" d="M 1527.5614,851.34618 C 1528.1381,847.11097 1528.2989,850.05803 1526.5102,846.25711 1526.1694,845.53294 1526.9575,844.23754 1526.5742,843.02741 1528.3242,842.8424 1528.6125,842.69458 1529.7465,841.396 1530.654,840.35681 1532.1304,838.93631 1533.0484,837.81167 1533.7133,836.99717 1532.3057,836.203 1532.5917,835.606 1532.9357,834.888 1534.3706,835.46779 1534.1186,834.61679 1533.9526,834.05379 1535.3765,833.243 1535.6765,832.954 1536.5345,832.128 1535.2995,831.157 1536.0475,830.373 1533.7495,831.02 1532.3075,829.637 1533.5975,827.573 1532.3475,827.693 1533.2265,826.776 1533.6845,826.049 1534.2665,825.126 1535.394,825.49114 1535.882,824.54914 1536.791,822.79314 1535.3931,819.64315 1534.604,817.95442 1534.0521,816.77319 1532.128,814.06959 1533.9577,813.47095 1536.2113,812.73364 1541.2344,813.30505 1543.6561,813.37675 1544.6635,817.16006 1542.9111,817.23926 1543.0432,817.67839 1543.499,819.19335 1542.1798,820.99345 1542.2306,821.36491 1543.0198,822.42517 1542.1566,823.43957 1542.3196,823.98737 1542.8671,825.82115 1543.3216,824.36658 1543.5431,828.84003 1543.6599,827.89243 1544.3558,827.38399 1544.9226,828.41524 1544.6979,826.57866 1544.9446,826.40243 1546.0852,826.54893 1545.2241,826.08027 1545.7898,825.0238 1547.1361,824.27302 1547.3984,824.53654 1548.7112,827.34557 1550.0922,825.55089 1549.9128,825.98086 1550.9215,826.1304 1551.0931,826.70106 1551.4314,827.82637 1551.4205,829.85464 1550.4358,829.40859 L 1551.0154,830.16512 C 1551.5052,829.59542 1550.6275,829.39107 1552.5689,829.23363 1551.4015,829.44534 1549.6394,822.84927 1555.7059,826.62527 1555.9715,825.00766 1560.0758,823.17326 1558.8327,823.04711 1557.3274,822.89434 1557.514,823.52684 1556.6829,823.41578 1554.1761,823.08074 1554.292,822.59212 1554.154,822.70171 1554.748,822.02203 1554.194,822.0232 1556.8078,821.83942 1556.5773,820.88414 1554.2236,821.40417 1554.7818,821.24555 1555.038,821.01319 1553.9814,820.61275 1556.8687,820.22524 1557.186,820.18264 1557.6253,819.6698 1557.4913,819.08953 1557.4103,818.73739 1557.8393,819.02753 1557.9784,818.84611 1556.8405,817.64655 1557.6423,817.50336 1557.9134,817.34874 1558.1796,817.19698 1558.4656,817.50095 1559.7391,817.7532 1559.4878,817.782 1558.7706,816.6755 1559.3499,816.03018 1559.703,815.56587 1559.3499,816.53794 1559.6815,816.10648 1559.2866,815.81966 1559.4229,815.15285 1559.7175,814.80338 1560.0146,814.42602 1560.4356,814.01307 1560.7305,813.63438 L 1583.5709,827.95519 C 1585.5049,829.18219 1587.9143,830.06478 1588.4903,832.41978 1588.7363,833.42978 1587.9384,833.39405 1587.7284,834.26005 1587.5734,834.89905 1588.6784,835.62105 1589.0414,836.15305 1590.2904,837.98605 1592.7704,839.21105 1594.4034,840.68505 1595.3754,841.56305 1599.9813,844.53123 1599.8093,845.81123 1599.5343,847.86523 1598.7884,850.17405 1597.9374,852.06605 1597.5044,853.02905 1597.0404,853.98305 1596.7304,854.99505 1596.5774,855.47305 1596.4804,855.96105 1596.4414,856.46105 1596.3984,857.14505 1597.0294,857.77005 1596.9214,858.37705 1596.4604,860.96805 1600.6484,861.16805 1600.1274,863.93205 1602.3904,863.21505 1602.0884,865.89405 1601.2394,866.96805 1599.8874,868.67605 1600.6794,870.69505 1599.7664,872.35205 1601.3354,870.92405 1601.2364,873.88605 1600.8704,874.64405 1600.3324,875.75705 1599.9044,877.10305 1600.0664,878.35405 1600.2164,879.51205 1601.9094,881.46205 1600.6364,881.71205 1601.6024,881.89605 1601.0374,883.69105 1601.7854,883.61705 1603.0044,883.49805 1602.3794,884.84505 1602.1144,885.43205 1601.6264,886.51805 1602.8944,886.91705 1603.1154,887.90905 1603.2384,888.46105 1602.8194,888.78805 1603.1154,889.34405 1603.5034,890.07205 1603.6794,890.51305 1602.9354,891.14205 1604.2014,890.90705 1604.6994,891.98505 1604.9454,893.01205 1604.8349,891.21802 1609.2306,893.80479 1607.8256,895.78862 1604.8003,898.12539 1602.137,899.4965 1599.3425,901.21783 1598.3275,901.57283 1598.1835,900.93173 1597.1595,901.28273 1596.0835,901.65073 1594.4564,902.94305 1593.3634,903.30205 1592.2834,903.65605 1590.9776,901.54569 1589.7554,902.15805 1588.3434,902.86554 1587.7389,905.01004 1586.2346,905.67523 1583.7231,906.78577 1583.2328,905.93614 1582.4371,905.25351 1580.8791,903.91682 1580.3107,906.37264 1578.5961,906.17351 1576.6253,905.94463 1575.9558,906.21281 1574.8724,904.84703 1574.0293,903.78415 1573.06,903.29257 1571.829,904.43105 1570.9596,905.23505 1567.9459,905.09175 1566.3964,904.77058 1566.252,904.63053 1566.1762,903.82791 1565.9772,903.53191 1565.4304,902.7187 1564.8758,901.90054 1564.4228,900.99954 1563.7918,899.74654 1564.2239,898.3844 1563.9619,897.0554 1563.6109,895.2814 1563.9119,893.64005 1563.4684,891.89505 1563.0054,890.07605 1561.8713,888.39117 1560.4266,887.26705 1559.0194,886.17216 1558.7445,888.29632 1558.8744,888.62205 1557.4384,887.07605 1556.0884,888.52005 1554.7404,887.04405 1554.3174,886.58005 1552.7216,886.46042 1552.1044,886.10205 1551.0574,885.49413 1550.1164,884.99608 1548.5466,884.76605 1548.2979,884.72965 1548.083,884.34446 1547.966,884.12346 1547.468,883.50846 1547.0619,883.656 1546.4249,883.337 1545.8279,883.039 1545.0344,883.14005 1544.4444,882.82705 1543.9004,882.53805 1543.7724,881.86005 1543.2734,881.61405 1542.8644,881.41205 1542.3893,881.90169 1541.9573,881.77569 1541.2533,881.56969 1541.1553,880.82101 1540.7823,880.30069 1540.0495,879.27862 1539.1191,879.09036 1538.1218,879.1601 1537.6526,878.10596 1535.1741,873.04688 1534.029,869.99849 1532.9723,867.18544 1533.7626,861.95897 1529.8237,860.46829 1529.2294,860.24337 1529.7136,860.92019 1529.0304,860.60478 1527.5859,859.93794 1526.1383,858.31111 1528.7013,855.78941 1529.6898,854.81692 1528.0125,852.96624 1527.5608,851.31437" id="path5432"/>
  </g>
  <path class="landxx bdi" d="M 1492.2463,783.28855 C 1493.1904,780.25239 1494.8321,783.57222 1495.0676,783.59959 1498.4254,783.98981 1499.097,782.89347 1499.3763,779.53855 1501.2216,781.12259 1500.6331,778.8301 1504.7955,780.27482 1504.0924,780.61673 1502.3062,782.56032 1503.6953,782.49855 1502.5234,785.56602 1504.8489,785.68582 1506.1453,785.29855 1505.3528,786.50352 1507.13,787.00976 1505.44,788.21731 1504.3961,788.9632 1504.43,788.54395 1504.1927,789.88653 1504.1337,790.21716 1502.9196,790.05287 1502.7156,790.47987 1502.4876,790.95487 1503.4474,792.04322 1503.3326,792.34419 1503.2576,792.54018 1502.7398,793.57794 1501.8636,794.22082 1500.4895,795.22907 1500.2963,796.41708 1498.8335,797.35828 1498.1135,797.82153 1497.3765,797.95895 1496.7349,797.96046 1496.4743,797.08612 1494.919,793.79663 1494.6159,792.71808 1494.1785,791.16132 1494.7953,789.54877 1493.7563,788.19655 1493.8786,787.43362 1494.2537,786.50266 1493.6433,785.65655 1493.1038,784.90861 1492.4923,784.20455 1492.2463,783.28855" id="bi">
    <title>Burundi</title>
  </path>
  <path class="world_map-is_selected landxx rwa" d="M 1491.1763,781.12855 C 1490.6473,780.03755 1493.3966,778.17192 1493.3686,776.71792 1493.3186,774.16292 1494.4694,773.055 1496.6474,771.788 1496.9184,771.63 1498.2223,770.80455 1498.5633,771.06955 1499.0243,771.42655 1499.1953,772.65955 1499.9363,771.84055 1500.5183,771.19755 1502.4223,768.36655 1503.4863,768.73855 1502.9903,770.20355 1504.2488,772.05305 1504.9158,773.13905 1505.7498,774.49605 1506.5983,776.82955 1506.3763,778.38755 1506.0963,780.34755 1504.9793,780.60255 1503.3243,779.97355 1501.4453,779.25955 1500.9893,780.96255 1499.3763,779.53755 1499.1443,781.30655 1499.2943,783.23655 1497.1543,783.68055 1496.0643,783.90655 1495.0483,784.04855 1494.5133,782.95755 1493.9253,781.75755 1492.3703,781.85355 1492.2453,783.28755 1491.5693,782.65355 1491.2403,782.06755 1491.1763,781.12855" id="rw">
    <title>Rwanda</title>
  </path>
  </svg>
