<svg xmlns="http://www.w3.org/2000/svg" class="world_map zoom6 zoom5 zoom4 zoom3 zoom2" height="127" id="svg2985" version="1.1" viewBox="2059 745 7 5" width="127">
  <title>World Map</title>
  <defs id="defs2987"/>
  <style id="style_css_sheet" type="text/css">
/*
 * Below are Cascading Style Sheet (CSS) definitions in use in this file,
 * which allow easily changing how countries are displayed.
 *
 */
/* --- Custom styles for Peace Corps --- */
.world_map .world_map-is_selected.circlexx {
  opacity:1;
}
.world_map .world_map-is_selected.landxx {
  fill: #C94112 !important;
}
.world_map .landxx {
  fill: #F2EFE8;
  stroke: #ffffff;
  fill-rule: evenodd;
}
.world_map.zoom6 .landxx {
  stroke-width: 0.1px;
}
.world_map.zoom5 .landxx {
  stroke-width: 1px;
}
.world_map.zoom4 .landxx {
  stroke-width: 2px;
}
.world_map.zoom3 .landxx {
  stroke-width: 3px;
}
.world_map.zoom2 .landxx {
  stroke-width: 4px;
}
.world_map.zoom1 .landxx {
  stroke-width: 5px;
}
.world_map .coastxx {
  fill: #F2EFE8;
  stroke: #ffffff;
  stroke-width: 2px;
  fill-rule: evenodd;
}
.world_map .oceanxx {
  opacity: 1;
  color: #ccc;
  fill: #ffffff;
  stroke: #ffffff;
  stroke-width: 0.5;
  stroke-miterlimit: 1;
}

/* --- Original Styles --- *
/*
 * Circles around small countries
 *
 * Change opacity to 1 to display all circles.
 *
 */
.circlexx
{
   opacity:0;
   fill-opacity:0;
   fill:#e0e0e0;
   stroke:#000000;
   stroke-width:0.5;
}

/*
 * Smaller circles around French DOMs and Chinese SARs
 *
 * Change opacity to 1 to display all subnational circles.
 *
 */
.subxx
{
   opacity:0;
   stroke-width:0.3;
}

/*
 * Circles around small, unrecognized countries
 *
 * Change opacity to 1 to display all circles.
 *
 */
.unxx
{
   opacity:0;
   fill:#e0e0e0;
   stroke:#000000;
   stroke-width:0.3;
}

/*
 * Circles around small countries, but with no permanent residents 
 *
 * Change opacity to 1 to display all circles.
 *
 */
.noxx
{
   opacity:0;
   fill:#e0e0e0;
   stroke:#000000;
   stroke-width:0.5;
}

/*
 * land
 */
.landxx
{
}
/*
 * Styles for coastlines of islands with no borders
 */


/*
 * Styles for nations with limited recognition
 */
.limitxx
{
   fill: #e0e0e0;
   stroke:#ffffff;
   stroke-width:0;
   fill-rule:evenodd;
}

/*
 * Styles for nations with no permanent population.
 */
.antxx
{
   fill: #e0e0e0;
   stroke:#ffffff;
   stroke-width:0;
   fill-rule:evenodd;
}

/*
 * Ocean
 */


/*
 * Additional style rules
 *
 * The following are examples of colouring countries.  You can substitute these with your own styles to colour the countries on the map.
 *
 * Color a few countries:
 *
 * .gb, .au, .nc
 * {
 *    fill:       #ff0000;
 * }
 *
 * Color a few small country circles (and the countries):
 *
 * .ms, .ky
 * {
 *    opacity:    1;
 *    fill:       #ff0000;
 * }
 *
 */

</style>
  <path class="oceanxx" d="M 2079.5058,1457.5605 615.24779,1457.5605 C 615.13079,1457.5605 615.07079,1457.5505 614.95179,1457.5215 611.67679,1456.6515 608.40179,1455.7815 605.12779,1454.9105 599.15079,1453.3225 593.22879,1451.5225 587.30779,1449.7385 564.39379,1442.8315 541.76579,1434.6995 519.46979,1426.0115 495.81079,1416.7935 472.34979,1407.0946 449.19179,1396.6816 426.78379,1386.6056 405.17679,1375.0536 383.76379,1363.0356 363.11779,1351.4496 343.01079,1338.8296 323.37979,1325.5996 302.29179,1311.3876 281.47879,1296.8506 261.05379,1281.7006 242.35079,1267.8276 223.73679,1253.6306 206.05279,1238.4686 186.98679,1222.1216 167.82379,1205.7706 150.35279,1187.6906 132.97779,1169.7106 116.33279,1151.0606 100.15679,1131.9976 84.352777,1113.3736 70.086776,1093.4716 56.901786,1072.9246 44.046786,1052.8916 32.093776,1032.1356 22.469776,1010.3426 17.516776,999.12753 12.408776,987.76556 8.7017761,976.06056 5.0657761,964.58166 1.5997761,953.04259 -1.5932239,941.43054 -8.0102239,918.09356 -14.055224,894.78356 -18.234224,870.92056 -22.491222,846.60856 -24.894222,822.19856 -26.943222,797.62156 -28.947222,773.58556 -28.829222,749.40156 -27.225222,725.34856 -25.648222,701.69856 -23.363222,677.92456 -19.274222,654.56456 -15.018224,630.25156 -9.3842239,606.45156 -2.8412239,582.66156 3.5687761,559.35256 10.483776,536.34856 20.265776,514.19856 30.320776,491.42956 42.318786,469.90956 55.502786,448.81656 68.512776,428.00356 83.108777,408.26756 98.686787,389.31756 113.73479,371.01156 129.68979,353.25256 146.15179,336.20856 163.77479,317.96256 182.64579,301.14556 201.89579,284.64756 220.33379,268.84456 239.55379,253.98456 258.95979,239.39656 278.42779,224.76056 298.39379,210.83356 318.55579,197.17556 339.26979,183.14456 360.47879,169.92056 382.15079,157.42556 403.46579,145.13656 425.31479,133.98856 447.60479,123.59356 469.58579,113.34356 492.14979,104.17656 514.74579,95.37556 537.44879,86.532565 560.37879,78.195565 583.63479,70.914565 589.69379,69.017565 595.80079,67.276565 601.90879,65.549565 604.63079,64.779565 607.36079,64.045565 610.09479,63.318565 611.59979,62.918565 613.56579,61.986565 615.13379,61.986565 L 2079.9638,61.986565 C 2079.9798,61.986565 2079.9958,61.986565 2080.0118,61.986565 2079.8448,61.986565 2079.6788,61.986565 2079.5118,61.986565 2102.8268,68.191565 2125.8778,75.323565 2148.5448,83.611565 2171.6378,92.054565 2194.6158,100.87956 2217.2348,110.52956 2240.5208,120.46556 2263.4848,130.95256 2285.8828,142.76456 2306.9808,153.89056 2327.8178,165.78556 2347.8608,178.72156 2368.9418,192.32656 2389.7498,206.29256 2410.2218,220.80056 2429.7368,234.62956 2448.9938,248.98756 2467.6208,263.99256 2486.8818,279.50856 2506.0408,295.30556 2524.0538,312.27356 2541.8708,329.05756 2558.7508,346.67256 2574.9408,365.03656 2591.2478,383.53256 2607.1478,402.30656 2621.4508,422.41856 2635.3488,441.96256 2648.4468,462.42756 2659.5898,483.67756 2671.1238,505.67356 2681.1048,528.35656 2688.6188,552.05056 2692.2518,563.50656 2695.3368,575.14756 2698.5608,586.72256 2701.7738,598.25356 2704.9238,609.81956 2707.4578,621.52456 2712.6258,645.40556 2716.6718,669.47856 2719.1178,693.79656 2721.5718,718.19256 2723.1798,742.56356 2722.9808,767.09056 2722.7908,790.65456 2720.6908,814.43756 2717.7688,837.81156 2714.7368,862.07056 2710.5198,886.16156 2704.6398,909.90056 2701.6808,921.84356 2698.3948,933.69556 2695.0378,945.53154 2691.7468,957.13466 2688.5558,968.83466 2684.3988,980.16156 2676.0918,1002.8036 2666.1688,1024.8836 2654.1338,1045.8046 2641.9958,1066.9066 2628.8498,1087.4866 2614.2378,1106.9696 2599.1658,1127.0666 2582.6678,1145.9446 2565.8948,1164.6296 2549.8298,1182.5266 2532.8918,1199.7316 2514.8648,1215.6616 2496.0788,1232.2646 2476.8978,1248.3126 2457.1558,1263.7656 2438.2988,1278.5276 2418.9668,1292.7306 2399.3188,1306.4206 2378.7018,1320.7866 2357.7538,1334.6106 2336.4758,1347.9776 2326.4088,1354.3016 2316.0058,1360.1326 2305.6418,1365.9516 2295.0348,1371.9086 2284.3858,1378.0166 2273.4448,1383.3436 2250.7338,1394.3986 2227.7768,1404.7266 2204.3888,1414.2665 2181.7848,1423.4875 2159.0678,1432.2695 2136.0228,1440.3345 2117.4118,1446.8465 2098.5568,1452.4975 2079.5058,1457.5605" id="ocean"/>
  <g class="landxx coastxx idn" id="id" transform="translate(-29.9017,-45.0745)">
    <title>Indonesia</title>
    <path d="M 2044.518,759.168 C 2043.883,759.538 2043.063,760.093 2042.273,759.874 2041.521,759.665 2041.311,758.984 2040.459,758.962 2039.035,758.925 2037.802,759.661 2036.338,759.52 2034.615,759.354 2033.487,758.79 2032.364,757.499 2031.526,756.536 2029.2,755.194 2027.926,756.086 2023.224,759.382 2034.63,768.606 2036.436,771.019 2037.124,771.939 2038.054,771.975 2039.105,772.167 2040.842,772.485 2041.397,774.424 2042.189,775.701 2042.798,776.682 2044.025,779.142 2045.075,779.585 2046.901,780.356 2046.193,782.129 2046.699,783.756 2047.175,785.288 2048.755,784.905 2049.931,785.722 2050.68,786.241 2051.412,786.799 2052.151,787.333 2053.058,787.99 2053.983,788.665 2054.766,789.472 2055.866,790.606 2054.814,790.73 2055.149,791.989 2055.551,793.498 2056.203,794.952 2056.614,796.477 2057.049,798.092 2058.205,799.778 2058.09,801.482 2057.968,803.279 2059.361,802.176 2060.044,802.983 2061.161,804.304 2062.803,803.996 2063.107,806.154 2063.503,808.967 2067.209,810.794 2067.839,813.744 2067.929,814.166 2067.226,814.214 2067.56,814.669 2068.013,815.286 2068.413,815.937 2068.757,816.62 2069.538,818.168 2071.158,820.202 2071.218,821.958 2071.276,823.656 2071.234,824.734 2072.279,826.207 2073.066,827.316 2074.271,828.097 2074.932,829.292 2075.72,830.716 2076.132,832.151 2077.386,833.283 2078.627,834.403 2080.365,835.154 2081.124,836.727 2081.874,838.279 2081.741,839.19 2083.177,840.372 2084.632,841.569 2085.923,842.934 2087.316,844.201 2088.521,845.296 2089.693,846.33 2091.14,847.084 2092.583,847.836 2092.775,848.394 2093.488,849.68 2093.866,850.362 2094.362,851.001 2094.84,851.616 2095.251,852.054 2095.695,852.456 2096.174,852.82 2096.469,853.086 2096.114,853.379 2096.487,853.644 2096.753,853.833 2099.148,856.952 2099.161,855.302 2099.171,854.335 2098.248,853.596 2098.149,852.641 2098.009,851.299 2100.118,853.032 2100.37,853.255 2102.163,854.846 2103.914,854.853 2103.7,851.836 2104.818,852.803 2105.572,854.768 2107.16,855.076 2108.111,855.261 2108.076,852.385 2108.098,851.899 2108.182,850.027 2108.461,848.167 2108.6,846.296 2108.673,845.299 2109.319,843.885 2108.874,842.929 2108.531,842.191 2108.292,841.77 2108.527,840.976 2108.814,840.011 2109.597,838.718 2109.473,837.688 2109.381,836.924 2108.523,836.891 2108.719,835.858 2108.889,834.961 2109.439,834.178 2109.89,833.406 2110.376,832.573 2110.758,832.218 2110.574,831.18 2110.397,830.193 2109.585,830.595 2109.03,830.015 2108.274,829.224 2107.068,826.585 2107.519,825.555 2106.648,825.413 2102.465,824.313 2102.12,825.195 2101.99,824.936 2101.87,824.674 2101.76,824.406 2100.846,825.542 2100.728,827.142 2099.38,827.935 2099.776,827.348 2101.609,825.35 2099.811,825.335 2100.783,824.94 2101.942,824.091 2101.781,822.898 2101.66,822 2100.716,822.313 2100.155,821.974 2099.585,821.629 2099.269,820.147 2099.14,819.572 2098.76,817.884 2098.355,816.281 2098.143,814.551 2098.012,813.487 2094.895,813.373 2093.98,813.585 2093.26,813.752 2091.885,812.331 2091.361,811.895 2090.473,811.158 2090.83,809.611 2090.451,808.565 2090.85,809.047 2091.446,809.14 2091.961,808.774 2091.757,807.941 2090.952,807.831 2090.232,807.774 2090.816,807.732 2091.248,807.319 2091.392,806.764 2090.905,806.734 2090.424,806.781 2089.952,806.905 2090.8,806.657 2091.304,805.905 2091.926,805.343 2092.405,804.91 2093.657,805.037 2093.948,804.551 2094.428,803.748 2092.664,802.006 2092.204,801.488 2090.927,800.052 2089.978,800.172 2088.505,801.219 2087.365,802.028 2084.48,804.074 2083.252,802.444 2085.803,803.907 2090.71,799.384 2086.063,798.335 2085.322,798.168 2084.558,798.489 2083.833,798.194 2083.011,797.861 2082.665,796.929 2082,796.402 2080.634,795.319 2081.401,793.094 2079.908,791.944 2079.357,791.52 2078.785,790.862 2078.189,790.519 2077.555,790.153 2076.711,790.466 2076.009,790.101 2074.867,789.506 2074.958,787.739 2074.223,786.769 2073.862,786.291 2071.289,783.78 2070.725,785.279 2070.305,786.395 2071.664,787.82 2071.802,788.906 2071.333,788.427 2071.198,787.783 2070.817,787.251 2070.186,786.371 2069.033,786.239 2068.272,785.522 2067.013,784.335 2066.883,782.437 2065.682,781.203 2065.338,781.669 2065.268,782.173 2065.472,782.715 2065.269,782.353 2064.022,779.902 2064.462,781.851 2063.653,780.921 2064.859,779.763 2063.634,778.963 2062.524,778.239 2061.663,776.976 2060.572,776.164 2059.317,775.229 2058.304,773.726 2056.848,773.092 2056.33,772.866 2055.775,772.747 2055.261,772.512 2054.373,772.106 2054.507,771.449 2053.931,770.839 2053.175,770.038 2051.835,769.986 2051.072,769.251 2050.112,768.327 2051.389,766.71 2050.364,765.873 2049.129,764.864 2048.893,764.854 2048.349,763.265 2047.885,761.916 2045.593,760.12 2044.518,759.168" id="path2204"/>
    <path d="M 2096.348,794.808 C 2095.827,793.607 2094.838,794.971 2094.838,795.686 2094.838,796.541 2096.455,795.628 2096.348,794.808" id="path2256"/>
    </g>
  <g class="landxx coastxx mys" id="my">
    <title>Malaysia</title>
    <path class="landxx mys" d="M 2034.2663,703.94153 C 2034.6249,703.32782 2034.4749,702.50997 2034.7298,701.88412 2035.0907,700.99814 2035.5939,702.66815 2036.6137,703.05169 2037.3595,703.3322 2038.1487,703.32807 2038.8567,703.52607 2039.5207,703.71207 2039.645,704.62705 2040.0073,705.09353 2040.5691,705.81687 2042.6516,705.73867 2041.9055,707.60787 2041.6059,708.35851 2040.5843,710.932 2042.8692,710.40621 2043.6346,710.23007 2044.072,708.58746 2045.2623,708.43553 2046.4615,708.28246 2046.4846,710.09257 2047.3861,709.74101 2048.1346,709.4491 2049.855,706.17293 2048.8456,705.31175 2049.7656,705.60375 2051.1543,705.98153 2051.7673,706.82253 2052.3743,707.65553 2052.6153,708.66853 2053.4513,709.33753 2055.5323,711.00253 2057.3623,712.53353 2058.5983,714.93853 2059.8473,717.36653 2060.7213,719.82553 2060.5843,722.60653 2060.5313,723.67553 2060.3913,724.85853 2060.1873,725.90953 2059.8983,727.39853 2060.1673,727.51053 2060.6163,728.84953 2061.2853,730.85253 2060.0623,733.28253 2061.2533,735.29753 2062.1733,736.85553 2064.2783,737.68453 2064.7823,739.57153 2065.3733,741.80253 2066.8433,743.67653 2067.4083,745.93453 2068.1673,748.96553 2064.7333,747.30453 2066.3073,746.20553 2065.7043,746.22753 2065.1903,745.87853 2064.9373,745.34153 2065.0443,745.54953 2065.6083,747.57653 2064.7723,746.97353 2063.9313,746.36553 2061.9643,747.70653 2061.1973,748.07753 2060.3873,745.43653 2057.1763,744.70853 2055.2593,743.08553 2054.7643,742.66653 2054.3883,742.16153 2053.9153,741.72553 2053.1583,741.02653 2051.9543,741.04553 2051.1173,740.44453 2050.2753,739.84053 2048.9363,738.54853 2048.4713,737.67653 2048.1503,737.07353 2047.6523,737.01653 2047.0543,736.85553 2046.1263,736.60553 2045.7093,735.76953 2044.9633,735.24853 2044.2523,734.75153 2044.4003,734.61553 2044.7853,734.07353 2045.2143,733.46953 2044.6493,732.23653 2044.3983,731.66953 2043.6103,729.89153 2041.6143,728.66553 2040.8913,726.86653 2040.5423,726.00053 2038.6493,725.52053 2040.8163,724.82053 2039.5393,725.00353 2038.2603,722.34453 2038.5993,721.40853 2039.2563,719.59253 2038.2913,717.63553 2037.1963,716.28253 2036.2313,715.09253 2036.4313,711.35253 2036.4263,709.84453 2036.4163,707.63953 2035.0793,705.89453 2034.2663,703.94153" id="path4722"/>
    </g>
  <g id="sg">
    <title>Singapore</title>
    <path class="world_map-is_selected landxx coastxx sgp" d="M 2063.4263,747.21355 C 2062.4673,747.46555 2063.9353,749.29255 2065.2263,747.57255 2064.6573,747.30155 2064.0573,747.18155 2063.4263,747.21355" id="sg-"/>
    </g>
  </svg>