<svg xmlns="http://www.w3.org/2000/svg" class="world_map zoom4" height="127" id="svg2985" version="1.1" viewBox="2048 731 33 33" width="127">
  <title>World Map</title>
  <defs id="defs2987"/>
  <defs>
    <link xmlns="http://www.w3.org/1999/xhtml" href="../css/svg.css" type="text/css" rel="stylesheet"/>
  </defs>
  <style id="style_css_sheet" type="text/css">
/*
 * Below are Cascading Style Sheet (CSS) definitions in use in this file,
 * which allow easily changing how countries are displayed.
 *
 */
/* --- Custom styles for Peace Corps --- */
.world_map .world_map-is_selected {
  fill: #C94112 !important;
}
.world_map .landxx {
  fill: #F2EFE8;
  stroke: #ffffff;
  fill-rule: evenodd;
}
.world_map.zoom4 .landxx {
  stroke-width: 2px;
}
.world_map.zoom3 .landxx {
  stroke-width: 3px;
}
.world_map.zoom2 .landxx {
  stroke-width: 4px;
}
.world_map.zoom1 .landxx {
  stroke-width: 5px;
}
.world_map .coastxx {
  fill: #F2EFE8;
  stroke: #ffffff;
  stroke-width: 2px;
  fill-rule: evenodd;
}
.world_map .oceanxx {
  opacity: 1;
  color: #ccc;
  fill: #ffffff;
  stroke: #ffffff;
  stroke-width: 0.5;
  stroke-miterlimit: 1;
}

/* --- Original Styles --- *
/*
 * Circles around small countries
 *
 * Change opacity to 1 to display all circles.
 *
 */
.circlexx
{
   opacity:0;
   fill:#e0e0e0;
   stroke:#000000;
   stroke-width:0.5;
}

/*
 * Smaller circles around French DOMs and Chinese SARs
 *
 * Change opacity to 1 to display all subnational circles.
 *
 */
.subxx
{
   opacity:0;
   stroke-width:0.3;
}

/*
 * Circles around small, unrecognized countries
 *
 * Change opacity to 1 to display all circles.
 *
 */
.unxx
{
   opacity:0;
   fill:#e0e0e0;
   stroke:#000000;
   stroke-width:0.3;
}

/*
 * Circles around small countries, but with no permanent residents 
 *
 * Change opacity to 1 to display all circles.
 *
 */
.noxx
{
   opacity:0;
   fill:#e0e0e0;
   stroke:#000000;
   stroke-width:0.5;
}

/*
 * land
 */
.landxx
{
}
/*
 * Styles for coastlines of islands with no borders
 */


/*
 * Styles for nations with limited recognition
 */
.limitxx
{
   fill: #e0e0e0;
   stroke:#ffffff;
   stroke-width:0;
   fill-rule:evenodd;
}

/*
 * Styles for nations with no permanent population.
 */
.antxx
{
   fill: #e0e0e0;
   stroke:#ffffff;
   stroke-width:0;
   fill-rule:evenodd;
}

/*
 * Ocean
 */


/*
 * Additional style rules
 *
 * The following are examples of colouring countries.  You can substitute these with your own styles to colour the countries on the map.
 *
 * Color a few countries:
 *
 * .gb, .au, .nc
 * {
 *    fill:       #ff0000;
 * }
 *
 * Color a few small country circles (and the countries):
 *
 * .ms, .ky
 * {
 *    opacity:    1;
 *    fill:       #ff0000;
 * }
 *
 */

</style>
  <path class="oceanxx" d="M 2079.5058,1457.5605 615.24779,1457.5605 C 615.13079,1457.5605 615.07079,1457.5505 614.95179,1457.5215 611.67679,1456.6515 608.40179,1455.7815 605.12779,1454.9105 599.15079,1453.3225 593.22879,1451.5225 587.30779,1449.7385 564.39379,1442.8315 541.76579,1434.6995 519.46979,1426.0115 495.81079,1416.7935 472.34979,1407.0946 449.19179,1396.6816 426.78379,1386.6056 405.17679,1375.0536 383.76379,1363.0356 363.11779,1351.4496 343.01079,1338.8296 323.37979,1325.5996 302.29179,1311.3876 281.47879,1296.8506 261.05379,1281.7006 242.35079,1267.8276 223.73679,1253.6306 206.05279,1238.4686 186.98679,1222.1216 167.82379,1205.7706 150.35279,1187.6906 132.97779,1169.7106 116.33279,1151.0606 100.15679,1131.9976 84.352777,1113.3736 70.086776,1093.4716 56.901786,1072.9246 44.046786,1052.8916 32.093776,1032.1356 22.469776,1010.3426 17.516776,999.12753 12.408776,987.76556 8.7017761,976.06056 5.0657761,964.58166 1.5997761,953.04259 -1.5932239,941.43054 -8.0102239,918.09356 -14.055224,894.78356 -18.234224,870.92056 -22.491222,846.60856 -24.894222,822.19856 -26.943222,797.62156 -28.947222,773.58556 -28.829222,749.40156 -27.225222,725.34856 -25.648222,701.69856 -23.363222,677.92456 -19.274222,654.56456 -15.018224,630.25156 -9.3842239,606.45156 -2.8412239,582.66156 3.5687761,559.35256 10.483776,536.34856 20.265776,514.19856 30.320776,491.42956 42.318786,469.90956 55.502786,448.81656 68.512776,428.00356 83.108777,408.26756 98.686787,389.31756 113.73479,371.01156 129.68979,353.25256 146.15179,336.20856 163.77479,317.96256 182.64579,301.14556 201.89579,284.64756 220.33379,268.84456 239.55379,253.98456 258.95979,239.39656 278.42779,224.76056 298.39379,210.83356 318.55579,197.17556 339.26979,183.14456 360.47879,169.92056 382.15079,157.42556 403.46579,145.13656 425.31479,133.98856 447.60479,123.59356 469.58579,113.34356 492.14979,104.17656 514.74579,95.37556 537.44879,86.532565 560.37879,78.195565 583.63479,70.914565 589.69379,69.017565 595.80079,67.276565 601.90879,65.549565 604.63079,64.779565 607.36079,64.045565 610.09479,63.318565 611.59979,62.918565 613.56579,61.986565 615.13379,61.986565 L 2079.9638,61.986565 C 2079.9798,61.986565 2079.9958,61.986565 2080.0118,61.986565 2079.8448,61.986565 2079.6788,61.986565 2079.5118,61.986565 2102.8268,68.191565 2125.8778,75.323565 2148.5448,83.611565 2171.6378,92.054565 2194.6158,100.87956 2217.2348,110.52956 2240.5208,120.46556 2263.4848,130.95256 2285.8828,142.76456 2306.9808,153.89056 2327.8178,165.78556 2347.8608,178.72156 2368.9418,192.32656 2389.7498,206.29256 2410.2218,220.80056 2429.7368,234.62956 2448.9938,248.98756 2467.6208,263.99256 2486.8818,279.50856 2506.0408,295.30556 2524.0538,312.27356 2541.8708,329.05756 2558.7508,346.67256 2574.9408,365.03656 2591.2478,383.53256 2607.1478,402.30656 2621.4508,422.41856 2635.3488,441.96256 2648.4468,462.42756 2659.5898,483.67756 2671.1238,505.67356 2681.1048,528.35656 2688.6188,552.05056 2692.2518,563.50656 2695.3368,575.14756 2698.5608,586.72256 2701.7738,598.25356 2704.9238,609.81956 2707.4578,621.52456 2712.6258,645.40556 2716.6718,669.47856 2719.1178,693.79656 2721.5718,718.19256 2723.1798,742.56356 2722.9808,767.09056 2722.7908,790.65456 2720.6908,814.43756 2717.7688,837.81156 2714.7368,862.07056 2710.5198,886.16156 2704.6398,909.90056 2701.6808,921.84356 2698.3948,933.69556 2695.0378,945.53154 2691.7468,957.13466 2688.5558,968.83466 2684.3988,980.16156 2676.0918,1002.8036 2666.1688,1024.8836 2654.1338,1045.8046 2641.9958,1066.9066 2628.8498,1087.4866 2614.2378,1106.9696 2599.1658,1127.0666 2582.6678,1145.9446 2565.8948,1164.6296 2549.8298,1182.5266 2532.8918,1199.7316 2514.8648,1215.6616 2496.0788,1232.2646 2476.8978,1248.3126 2457.1558,1263.7656 2438.2988,1278.5276 2418.9668,1292.7306 2399.3188,1306.4206 2378.7018,1320.7866 2357.7538,1334.6106 2336.4758,1347.9776 2326.4088,1354.3016 2316.0058,1360.1326 2305.6418,1365.9516 2295.0348,1371.9086 2284.3858,1378.0166 2273.4448,1383.3436 2250.7338,1394.3986 2227.7768,1404.7266 2204.3888,1414.2665 2181.7848,1423.4875 2159.0678,1432.2695 2136.0228,1440.3345 2117.4118,1446.8465 2098.5568,1452.4975 2079.5058,1457.5605" id="ocean"/>
  <g class="landxx coastxx idn" id="id" transform="translate(-29.9017,-45.0745)">
    <title>Indonesia</title>
    <path d="M 2044.518,759.168 C 2043.883,759.538 2043.063,760.093 2042.273,759.874 2041.521,759.665 2041.311,758.984 2040.459,758.962 2039.035,758.925 2037.802,759.661 2036.338,759.52 2034.615,759.354 2033.487,758.79 2032.364,757.499 2031.526,756.536 2029.2,755.194 2027.926,756.086 2023.224,759.382 2034.63,768.606 2036.436,771.019 2037.124,771.939 2038.054,771.975 2039.105,772.167 2040.842,772.485 2041.397,774.424 2042.189,775.701 2042.798,776.682 2044.025,779.142 2045.075,779.585 2046.901,780.356 2046.193,782.129 2046.699,783.756 2047.175,785.288 2048.755,784.905 2049.931,785.722 2050.68,786.241 2051.412,786.799 2052.151,787.333 2053.058,787.99 2053.983,788.665 2054.766,789.472 2055.866,790.606 2054.814,790.73 2055.149,791.989 2055.551,793.498 2056.203,794.952 2056.614,796.477 2057.049,798.092 2058.205,799.778 2058.09,801.482 2057.968,803.279 2059.361,802.176 2060.044,802.983 2061.161,804.304 2062.803,803.996 2063.107,806.154 2063.503,808.967 2067.209,810.794 2067.839,813.744 2067.929,814.166 2067.226,814.214 2067.56,814.669 2068.013,815.286 2068.413,815.937 2068.757,816.62 2069.538,818.168 2071.158,820.202 2071.218,821.958 2071.276,823.656 2071.234,824.734 2072.279,826.207 2073.066,827.316 2074.271,828.097 2074.932,829.292 2075.72,830.716 2076.132,832.151 2077.386,833.283 2078.627,834.403 2080.365,835.154 2081.124,836.727 2081.874,838.279 2081.741,839.19 2083.177,840.372 2084.632,841.569 2085.923,842.934 2087.316,844.201 2088.521,845.296 2089.693,846.33 2091.14,847.084 2092.583,847.836 2092.775,848.394 2093.488,849.68 2093.866,850.362 2094.362,851.001 2094.84,851.616 2095.251,852.054 2095.695,852.456 2096.174,852.82 2096.469,853.086 2096.114,853.379 2096.487,853.644 2096.753,853.833 2099.148,856.952 2099.161,855.302 2099.171,854.335 2098.248,853.596 2098.149,852.641 2098.009,851.299 2100.118,853.032 2100.37,853.255 2102.163,854.846 2103.914,854.853 2103.7,851.836 2104.818,852.803 2105.572,854.768 2107.16,855.076 2108.111,855.261 2108.076,852.385 2108.098,851.899 2108.182,850.027 2108.461,848.167 2108.6,846.296 2108.673,845.299 2109.319,843.885 2108.874,842.929 2108.531,842.191 2108.292,841.77 2108.527,840.976 2108.814,840.011 2109.597,838.718 2109.473,837.688 2109.381,836.924 2108.523,836.891 2108.719,835.858 2108.889,834.961 2109.439,834.178 2109.89,833.406 2110.376,832.573 2110.758,832.218 2110.574,831.18 2110.397,830.193 2109.585,830.595 2109.03,830.015 2108.274,829.224 2107.068,826.585 2107.519,825.555 2106.648,825.413 2102.465,824.313 2102.12,825.195 2101.99,824.936 2101.87,824.674 2101.76,824.406 2100.846,825.542 2100.728,827.142 2099.38,827.935 2099.776,827.348 2101.609,825.35 2099.811,825.335 2100.783,824.94 2101.942,824.091 2101.781,822.898 2101.66,822 2100.716,822.313 2100.155,821.974 2099.585,821.629 2099.269,820.147 2099.14,819.572 2098.76,817.884 2098.355,816.281 2098.143,814.551 2098.012,813.487 2094.895,813.373 2093.98,813.585 2093.26,813.752 2091.885,812.331 2091.361,811.895 2090.473,811.158 2090.83,809.611 2090.451,808.565 2090.85,809.047 2091.446,809.14 2091.961,808.774 2091.757,807.941 2090.952,807.831 2090.232,807.774 2090.816,807.732 2091.248,807.319 2091.392,806.764 2090.905,806.734 2090.424,806.781 2089.952,806.905 2090.8,806.657 2091.304,805.905 2091.926,805.343 2092.405,804.91 2093.657,805.037 2093.948,804.551 2094.428,803.748 2092.664,802.006 2092.204,801.488 2090.927,800.052 2089.978,800.172 2088.505,801.219 2087.365,802.028 2084.48,804.074 2083.252,802.444 2085.803,803.907 2090.71,799.384 2086.063,798.335 2085.322,798.168 2084.558,798.489 2083.833,798.194 2083.011,797.861 2082.665,796.929 2082,796.402 2080.634,795.319 2081.401,793.094 2079.908,791.944 2079.357,791.52 2078.785,790.862 2078.189,790.519 2077.555,790.153 2076.711,790.466 2076.009,790.101 2074.867,789.506 2074.958,787.739 2074.223,786.769 2073.862,786.291 2071.289,783.78 2070.725,785.279 2070.305,786.395 2071.664,787.82 2071.802,788.906 2071.333,788.427 2071.198,787.783 2070.817,787.251 2070.186,786.371 2069.033,786.239 2068.272,785.522 2067.013,784.335 2066.883,782.437 2065.682,781.203 2065.338,781.669 2065.268,782.173 2065.472,782.715 2065.269,782.353 2064.022,779.902 2064.462,781.851 2063.653,780.921 2064.859,779.763 2063.634,778.963 2062.524,778.239 2061.663,776.976 2060.572,776.164 2059.317,775.229 2058.304,773.726 2056.848,773.092 2056.33,772.866 2055.775,772.747 2055.261,772.512 2054.373,772.106 2054.507,771.449 2053.931,770.839 2053.175,770.038 2051.835,769.986 2051.072,769.251 2050.112,768.327 2051.389,766.71 2050.364,765.873 2049.129,764.864 2048.893,764.854 2048.349,763.265 2047.885,761.916 2045.593,760.12 2044.518,759.168" id="path2204"/>
    </g>
  <g class="landxx coastxx tha" id="th" transform="translate(-29.9017,-45.0745)">
    <title>Thailand</title>
    <path d="M 2049.559,733.824 C 2049.188,735.032 2049.397,736.339 2049.838,737.496 2050.91,736.634 2050.791,734.499 2049.559,733.824" id="path3902"/>
    <path d="M 2051.348,734.472 C 2051.565,734.975 2051.825,735.462 2051.998,735.984 2052.039,735.369 2051.822,734.865 2051.348,734.472" id="path3904"/>
    <path d="M 2055.958,740.088 C 2055.875,739.51 2055.635,739.006 2055.238,738.576 2055.3,739.165 2055.54,739.669 2055.958,740.088" id="path3906"/>
    <path d="M 2060.568,746.64 C 2060.059,747.15 2060.006,747.905 2060.858,748.08 2060.767,747.599 2060.67,747.119 2060.568,746.64" id="path3908"/>
    <path class="landxx tha" d="M 2034.288,643.824 C 2034.733,644.681 2036.586,644.647 2037.197,644.019 2037.934,643.263 2036.477,641.212 2036.668,640.223 2036.774,639.672 2037.212,639.292 2037.238,638.711 2037.279,637.811 2036.55,637.228 2036.794,636.269 2036.948,635.658 2038.06,633.589 2038.476,633.665 2039.696,633.891 2040.89,634.419 2042.143,634.145 2042.738,634.016 2043.308,633.337 2043.899,633.35 2044.5,633.363 2044.736,633.949 2045.244,633.172 2045.743,632.407 2044.813,630.951 2045.991,630.648 2046.837,630.431 2050.058,631.087 2048.329,628.847 2049.563,628.785 2052.881,626.598 2052.869,629.28 2053.546,629.092 2053.761,628.123 2054.553,628.36 2054.906,628.465 2056.101,630.056 2056.385,630.381 2057.081,631.173 2056.103,632.361 2055.898,633.154 2055.61,634.272 2056.2904,635.00161 2057.0994,635.66461 2057.3832,635.89611 2058.2384,635.66261 2058.5453,635.8035 2059.2413,636.12394 2059.0151,635.33064 2059.4523,635.20949 2059.8282,635.1053 2059.7468,635.19349 2060.1029,635.08742 2060.459,634.98133 2060.9716,634.89045 2061.3059,634.93736 2062.8415,635.15285 2062.6014,637.63867 2063.531,639.942 2063.8304,640.68375 2063.0331,641.57861 2063.262,642.361 2063.7151,643.90992 2062.9223,643.65097 2062.5506,644.67636 2062.3963,645.10185 2063.05,646.01371 2063.137,646.59871 2063.282,647.57271 2063.5328,648.11529 2063.212,649.054 2062.3855,651.47237 2061.9581,653.42131 2064.169,653.30402 2064.2764,653.29802 2067.6099,650.2433 2068.129,648.359 2069.35,649.09 2069.444,647.103 2070.379,647.085 2071.025,647.073 2071.894,648.332 2072.483,648.625 2072.944,648.855 2074.009,648.936 2074.291,649.409 2075.184,650.903 2076.225,648.711 2077.35,648.935 2077.958,649.056 2078.176,646.623 2079.151,646.487 2077.466,644.631 2082.6151,645.65875 2083.1731,645.81375 2086.3111,646.68575 2087.4231,651.05775 2090.3301,652.58175 2092.7321,653.84175 2091.3071,658.52541 2092.02,660.674 2092.4794,662.05847 2092.7337,662.56086 2093.6754,663.45736 2095.3082,665.01174 2096.1856,665.41423 2097.94,666.215 2096.315,667.324 2098.7099,668.11902 2099.472,668.668 2101.2498,669.94865 2097.7551,672.45831 2099.81,671.975 2099.497,672.688 2098.78,673.38 2099.274,674.189 2099.554,674.647 2100.119,674.852 2100.059,675.476 2099.894,677.193 2100.568,678.889 2098.855,679.953 2097.711,680.663 2097.092,682.149 2096.206,680.55 2095.292,678.904 2092.693,680.533 2091.344,680.128 2090.408,679.848 2089.51,680.186 2088.588,680.315 2087.599,680.453 2087.141,679.844 2086.27,679.773 2085.069,679.674 2083.7387,680.222 2082.6367,680.655 2080.8967,681.339 2080.502,683.25692 2079.9678,684.81553 2079.7344,685.49665 2078.9844,686.18445 2078.332,686.786 2077.8871,687.19622 2077.1847,687.22845 2076.769,687.312 2077.367,688.7438 2076.709,689.76791 2078.099,691.856 2078.8331,692.95877 2079.0282,694.30632 2079.976,695.42575 2080.8969,696.51345 2081.2222,697.53287 2081.16,698.95641 2081.061,701.22315 2082.7788,702.19694 2082.599,703.945 2082.581,703.064 2081.847,702.584 2081.459,701.88 2080.874,700.817 2080.952,699.481 2079.509,699.048 2079.542,699.48 2079.566,699.911 2079.579,700.344 2079.181,699.389 2075.958,698.94 2077.849,697.68 2077.328,697.991 2076.963,697.659 2076.769,697.176 2076.769,698.727 2074.934,696.328 2074.61,695.592 2074.61,696.956 2073.58,694.192 2072.296,694.779 2071.67,695.065 2071.037,695.596 2070.29,695.447 2069.375,695.264 2068.318,694.761 2067.371,694.995 2065.519,695.453 2066.558,693.533 2066.434,692.392 2066.362,691.724 2066.34,691.047 2066.247,690.381 2066.12,689.46 2066.797,688.742 2066.619,687.887 2065.835,688.515 2063.74,687.935 2063.449,686.951 2063.79,688.925 2057.801,687.181 2059.514,690.248 2060.368,691.777 2059.825,692.749 2059.524,694.347 2059.202,696.043 2060.463,697.628 2060.143,699.335 2060.016,700.012 2059.513,700.523 2059.174,701.093 2058.757,701.791 2059.021,702.636 2058.542,703.324 2057.641,704.622 2057.5,706.617 2057.171,708.131 2056.77,709.977 2056.5,711.309 2055.729,713.004 2055.454,713.609 2056.034,715.272 2054.882,715.103 2056.185,716.677 2054.803,719.59 2055.627,721.493 2056.02,722.398 2056.602,723.001 2056.148,723.921 2055.635,724.963 2057.53,725.195 2058.076,724.906 2059.999,723.888 2061.181,723.867 2061.472,726.48 2061.568,727.342 2062.785,733.518 2064.033,731.52 2064.795,733.276 2064.921,735.228 2065.501,737.041 2066.021,738.662 2066.825,740.373 2066.843,742.104 2065.648,741.886 2065.413,736.646 2064.121,737.551 2063.192,738.202 2064.577,740.253 2064.941,740.777 2065.376,741.4 2065.889,741.88 2066.442,742.387 2066.903,742.81 2067.578,742.649 2068.028,743.071 2069.071,744.051 2069.272,745.074 2070.995,745.124 2072.261,745.16 2073.673,744.658 2074.786,745.509 2076.011,746.445 2076.27,748.156 2077.456,749.148 2078.71,750.197 2079.519,750.702 2078.892,752.364 2078.604,753.126 2078.101,754.674 2077.153,754.875 2076.424,755.03 2076.28,753.838 2075.723,753.618 2074.263,753.04 2073.452,755.617 2072.518,755.612 2070.715,755.603 2071.0993,753.84593 2071.7293,752.85693 2072.4153,751.78293 2071.1873,750.79993 2070.4003,750.60593 2069.2833,750.33093 2069.793,748.723 2068.364,748.531 2067.049,748.355 2066.285,748.3 2065.442,747.198 2064.261,745.653 2064.681,748.322 2064.172,749.017 2064.062,746.977 2058.965,745.063 2061.002,742.897 2059.286,743.927 2059.974,741.254 2059.132,740.738 2059.22,741.787 2058.335,741.564 2057.953,740.925 2057.461,740.1 2057.571,738.848 2056.857,738.161 2056.384,737.706 2055.439,738.299 2055.346,737.552 2055.262,736.873 2055.402,736.623 2055.001,736.056 2054.397,735.202 2054.469,735.267 2053.573,735.096 2053.012,734.99 2053.118,734.069 2052.941,733.682 2052.655,733.055 2052.33,732.089 2051.43,732.314 2050.47,732.554 2050.867,733.431 2050.561,734.115 2048.154,733.619 2048.635,730.017 2048.91,728.279 2049.464,724.779 2050.205,721.223 2050.946,717.756 2051.233,716.41 2052.342,714.622 2052.326,713.298 2052.306,711.742 2052.912,711.653 2053.507,710.267 2054.256,708.522 2058.837,703.841 2057.287,701.92 2056.624,701.102 2056.071,698.876 2055.833,697.873 2055.471,696.345 2054.908,695.826 2054.153,694.534 2053.718,693.79 2052.74,691.703 2052.886,690.891 2053.24,688.929 2053.156,687.501 2052.356,685.614 2051.053,682.543 2048.02,680.687 2046.053,678.061 2045.192,676.91 2044.351,675.777 2044.167,674.29 2044.063,673.454 2044.309,671.532 2045.52,672.626 2045.259,671.608 2046.463,671.826 2046.71,671.112 2047.062,670.099 2046.421,667.729 2046.263,666.641 2046.001,664.843 2047.409,665.763 2048.044,664.756 2048.451,664.11 2048.471,662.713 2047.83,662.185 2047.649,662.752 2047.359,663.256 2046.96,663.698 2045.746,662.195 2045.397,660.438 2044.88,658.658 2044.552,657.525 2042.877,656.404 2042.086,655.522 2040.867,654.164 2039.259,652.725 2038.232,651.244 2037.664,650.424 2037.928,649.651 2037.658,648.765 2037.413,647.966 2036.565,647.332 2036.741,646.418 2035.25,646.855 2034.596,644.89 2034.292,643.824" id="path3918"/>
  </g>
  <g class="landxx coastxx vnm" id="vn" transform="translate(-29.9017,-45.0745)">
    <title>Viet Nam</title>
    <path class="landxx vnm" d="M 2065.538,610.848 C 2066.7346,610.7925 2066.8311,608.65107 2067.5781,608.06547 2068.8142,607.09645 2070.188,608.876 2070.821,609.51 2071.9526,610.64339 2072.6366,609.77373 2073.3346,608.57973 2074.2946,606.93773 2074.88,608.415 2075.618,609.264 2075.892,608.629 2075.878,607.077 2076.872,608.07 2077.486,608.683 2078.054,609.438 2078.795,609.905 2079.258,610.197 2079.577,607.156 2080.878,607.104 2080.506,609.123 2084.2939,607.32796 2084.8311,606.65114 2085.4063,605.92651 2084.6707,605.39548 2084.8861,604.741 2085.1699,603.87855 2087.4781,603.61614 2087.9971,602.353 2089.0631,603.828 2090.4121,604.991 2092.0441,605.778 2093.3211,606.395 2094.4971,605.215 2095.4211,606.345 2096.3481,607.479 2097.7851,605.719 2098.9131,606.847 2099.4851,607.42 2100.1811,609.743 2098.5871,609.193 2098.5771,611.16 2099.6241,612.605 2100.2371,614.52 2100.8061,614.031 2102.9071,614.696 2102.9071,615.528 2102.9071,616.775 2105.3071,616.496 2105.6371,617.689 2105.8771,617.545 2106.1171,617.401 2106.3571,617.256 2106.7451,618.275 2107.3369,617.59167 2108.1924,617.36952 2109.4732,617.03696 2113.0057,618.21907 2111.8105,618.88718 2110.9465,619.64418 2109.9091,618.012 2109.0241,618.747 2108.2221,619.413 2107.9651,620.362 2106.8841,620.53 2105.7261,620.71 2106.6381,621.765 2106.2141,622.53 2105.8011,623.275 2103.4631,623.996 2104.6371,622.656 2103.8831,622.473 2102.8751,623.62 2102.8361,624.024 2102.2011,623.669 2101.9531,622.486 2101.0361,622.799 2101.3201,623.107 2101.6531,623.346 2102.0361,623.519 2101.4001,624.263 2101.8801,624.631 2102.3621,625.421 2102.7641,626.079 2101.3111,626.06 2101.0361,625.895 2101.3631,626.576 2101.5461,628.483 2100.8161,628.992 2100.9131,629.024 2101.0091,629.024 2101.1061,628.992 2101.0281,629.537 2098.7811,631.987 2098.2951,631.368 2097.0831,631.973 2096.6941,633.789 2096.5771,634.997 2096.4151,636.664 2097.1181,637.793 2096.2561,639.361 2095.2781,641.139 2097.1761,641.545 2097.2851,643.175 2097.7141,642.05 2097.9701,643.746 2098.4351,644.359 2099.0611,645.183 2099.7891,645.822 2100.6351,646.412 2101.4401,646.974 2102.2541,647.558 2102.9731,648.229 2104.0061,649.193 2103.5531,650.23 2103.9051,651.456 2103.4611,651.11 2102.9581,650.918 2102.3951,650.88 2104.1931,651.185 2105.0421,653.428 2106.4481,654.554 2107.4741,655.376 2110.7261,656.977 2109.8861,658.728 2110.9861,658.093 2112.7351,660.295 2113.3451,660.96 2113.0391,660.82 2112.7261,660.7 2112.4061,660.6 2113.7511,661.438 2114.9791,662.359 2115.8661,663.697 2117.0641,662.261 2119.4841,665.482 2118.8161,666.217 2119.4501,665.773 2118.4681,664.385 2119.7551,665.065 2117.8251,666.728 2123.7471,670.575 2123.8561,672.049 2124.3471,670.798 2124.5741,671.842 2124.9681,672.417 2125.5841,673.316 2124.6391,672.947 2124.7951,673.633 2125.0851,674.909 2126.1211,676.045 2126.6281,677.236 2127.3151,678.85 2127.6731,680.601 2128.4001,682.223 2128.6931,682.876 2129.0081,683.536 2129.1681,684.24 2129.2461,684.584 2129.2781,686.398 2128.8251,684.649 2128.7991,685.624 2129.9471,688.455 2128.8251,686.738 2129.0801,687.317 2129.4391,687.821 2129.9051,688.25 2128.5651,688.434 2129.6441,689.104 2129.8561,689.864 2130.1631,690.964 2130.5121,691.707 2131.0961,692.684 2131.3341,693.082 2131.3491,695.06 2131.2641,695.665 2130.8581,695.256 2130.5711,694.776 2130.4051,694.225 2129.0451,695.022 2130.3211,696.672 2130.7641,697.61 2130.3141,697.344 2129.8331,697.152 2129.3251,697.034 2129.9691,697.619 2130.6221,700.696 2130.2641,701.569 2130.2541,701.048 2130.1151,700.569 2129.8341,700.13 2130.2851,700.846 2129.9021,701.587 2129.6851,702.29 2130.4971,702.268 2130.5391,702.86 2130.3261,703.476 2130.0981,704.133 2129.1371,704.447 2129.0751,704.666 2128.6981,706.017 2129.2271,706.056 2127.7551,706.811 2127.3411,707.166 2126.9031,707.488 2126.4421,707.776 2125.8011,708.038 2125.5991,708.966 2125.1091,709.114 2124.2971,709.359 2123.4611,709.706 2122.7501,710.172 2122.4171,710.39 2121.9151,712.004 2121.6591,711.917 2120.9281,711.668 2119.7001,712.575 2119.1471,712.992 2118.3971,713.558 2116.9151,714.056 2116.3661,714.747 2115.8571,713.759 2114.5201,713.791 2114.4261,712.515 2114.3311,713.02 2114.2361,713.524 2114.1371,714.028 2114.0221,713.622 2113.8551,713.238 2113.6371,712.876 2114.0101,713.709 2113.8861,713.661 2113.2661,712.731 2114.0771,712.731 2112.4601,712.223 2112.4771,712.227 2112.7251,713.101 2112.3711,714.221 2111.2561,713.956 2111.5191,714.761 2112.6781,713.539 2112.9441,714.676 2113.2841,716.127 2110.6961,715.416 2110.1761,715.396 2111.0731,716.124 2112.5471,715.983 2113.1261,717.125 2112.2571,717.257 2112.2081,718.628 2111.2101,717.93 2110.5481,717.467 2110.1091,716.074 2109.2361,715.973 2109.7951,716.628 2112.5741,718.927 2112.1161,719.645 2110.3441,718.924 2109.4141,717.165 2107.9461,716.045 2108.2621,717.198 2113.5371,720.74 2111.1711,722.032 2109.6171,722.881 2106.9841,718.749 2105.8571,718.06 2106.6251,719.323 2109.4641,721.272 2108.9791,722.953 2108.6031,724.253 2106.3951,724.608 2105.3501,725.131 2103.5861,726.014 2103.5261,727.333 2102.4461,728.742 2101.7111,729.703 2099.7981,731.297 2098.5871,730.156 2098.9581,729.686 2099.4391,729.398 2100.0271,729.292 2099.8921,728.992 2099.7961,728.68 2099.7371,728.355 2099.4321,728.497 2099.1191,728.617 2098.7971,728.715 2098.8451,726.9 2098.4691,725.098 2098.4561,723.282 2098.4461,722.387 2098.5141,721.47 2098.7971,720.615 2098.9871,720.039 2100.2611,717.593 2100.5271,719.354 2100.5171,716.527 2095.1311,716.939 2095.6371,714.531 2095.5331,714.957 2094.9577,714.66216 2094.6747,714.18816 2095.1567,714.02216 2095.874,713.48076 2096.412,713.42641 2100.6067,713.00261 2098.4386,711.30617 2099.6661,709.851 2101.0321,711.165 2102.9441,709.741 2104.4191,709.451 2104.9321,709.35 2105.2719,709.797 2105.5039,710.176 2106.0659,711.091 2107.1191,711.004 2108.0161,711.292 2108.0371,710.504 2107.2131,709.846 2108.1571,709.708 2107.9741,708.378 2106.3121,708.328 2105.7681,707.406 2105.3021,706.618 2104.9901,705.606 2104.8001,704.714 2104.6191,703.868 2105.5081,703.771 2105.9291,703.117 2106.5711,702.121 2108.7081,703.572 2109.5271,703.731 2109.0701,702.895 2109.6621,701.908 2109.0271,701.139 2109.7221,700.964 2110.5889,701.2242 2111.1721,701.026 2111.7679,700.82353 2112.8155,699.94527 2113.3735,699.55627 2114.0205,699.10327 2114.2551,698.521 2115.0761,698.286 2115.7111,698.105 2116.5641,698.176 2117.0761,697.693 2118.4551,696.392 2116.3471,692.822 2116.5221,691.157 2116.6701,689.73 2117.2011,688.707 2116.4951,687.327 2116.2631,686.904 2116.0281,686.482 2115.7911,686.061 2115.3911,685.308 2115.6411,684.772 2115.3571,684.076 2114.9561,683.092 2114.4041,683.182 2114.3061,681.871 2114.1881,680.285 2115.1981,679.357 2115.2901,677.953 2115.3121,677.615 2115.2211,676.03918 2115.0285,675.87818 2113.8285,674.87918 2115.0675,674.935 2115.5211,673.891 2116.2211,672.282 2114.3111,670.695 2113.1541,669.949 2112.6241,669.607 2111.2581,668.881 2111.3261,668.093 2111.4071,667.152 2112.9781,666.767 2113.3461,665.933 2112.3401,665.551 2111.0341,664.768 2110.3911,663.882 2109.9121,663.224 2109.4631,663.771 2108.9331,662.869 2108.2181,661.654 2107.8221,662.785 2106.9371,662.261 2106.4221,661.955 2105.8321,660.654 2105.7341,660.076 2105.4261,658.257 2104.6701,656.704 2103.1821,655.422 2102.7621,655.06 2101.8061,654.819 2101.2181,654.202 2100.1111,653.037 2098.7821,651.856 2097.8471,650.553 2097.2451,649.715 2096.9871,648.687 2096.3561,647.869 2096.1051,647.545 2095.6861,647.158 2095.2661,647.5 2094.8251,646.822 2094.0051,646.585 2093.5881,645.887 2093.2811,645.373 2092.4111,644.16 2092.9901,643.586 2093.7141,642.867 2090.3181,642.169 2090.0931,642.117 2087.8301,641.6 2086.2841,639.005 2084.1411,638.417 2083.5221,638.247 2081.8501,637.461 2083.1941,636.829 2085.1041,635.931 2082.7001,635.401 2083.0371,634.397 2083.2171,633.857 2085.8141,634.651 2086.0711,634.69 2087.1271,634.85 2089.9871,633.094 2088.5071,632.669 2088.8301,632.18 2089.7971,631.922 2089.7971,631.229 2089.7971,630.354 2088.8261,629.569 2087.9761,629.68 2087.3981,629.755 2087.3281,629.381 2087.1601,628.898 2086.7891,627.831 2085.6851,628.119 2084.8381,627.773 2085.0351,627.014 2086.1391,627.163 2086.1991,626.532 2086.3031,625.461 2085.1191,625.056 2084.4231,624.552 2083.5921,623.95 2083.0321,623.227 2081.8681,623.439 2080.0551,623.768 2080.4591,624.737 2079.6481,625.83 2078.8421,625.336 2077.6541,624.402 2076.7701,624.573 2075.7621,624.768 2073.8801,622.959 2073.3881,622.229 2072.8271,621.4 2072.3181,619.416 2072.6031,618.424 2073.1071,616.667 2071.6521,617.051 2071.2971,615.677 2071.5181,616.241 2071.4211,616.745 2071.0071,617.189 2070.0621,616.903 2069.8491,615.227 2069.0321,614.581 2067.9281,613.7 2066.1101,612.149 2065.5381,610.848" id="path3562"/>
    </g>
  <g class="landxx coastxx mys" id="my">
    <title>Malaysia</title>
    <path class="landxx mys" d="M 2034.2663,703.94153 C 2034.6249,703.32782 2034.4749,702.50997 2034.7298,701.88412 2035.0907,700.99814 2035.5939,702.66815 2036.6137,703.05169 2037.3595,703.3322 2038.1487,703.32807 2038.8567,703.52607 2039.5207,703.71207 2039.645,704.62705 2040.0073,705.09353 2040.5691,705.81687 2042.6516,705.73867 2041.9055,707.60787 2041.6059,708.35851 2040.5843,710.932 2042.8692,710.40621 2043.6346,710.23007 2044.072,708.58746 2045.2623,708.43553 2046.4615,708.28246 2046.4846,710.09257 2047.3861,709.74101 2048.1346,709.4491 2049.855,706.17293 2048.8456,705.31175 2049.7656,705.60375 2051.1543,705.98153 2051.7673,706.82253 2052.3743,707.65553 2052.6153,708.66853 2053.4513,709.33753 2055.5323,711.00253 2057.3623,712.53353 2058.5983,714.93853 2059.8473,717.36653 2060.7213,719.82553 2060.5843,722.60653 2060.5313,723.67553 2060.3913,724.85853 2060.1873,725.90953 2059.8983,727.39853 2060.1673,727.51053 2060.6163,728.84953 2061.2853,730.85253 2060.0623,733.28253 2061.2533,735.29753 2062.1733,736.85553 2064.2783,737.68453 2064.7823,739.57153 2065.3733,741.80253 2066.8433,743.67653 2067.4083,745.93453 2068.1673,748.96553 2064.7333,747.30453 2066.3073,746.20553 2065.7043,746.22753 2065.1903,745.87853 2064.9373,745.34153 2065.0443,745.54953 2065.6083,747.57653 2064.7723,746.97353 2063.9313,746.36553 2061.9643,747.70653 2061.1973,748.07753 2060.3873,745.43653 2057.1763,744.70853 2055.2593,743.08553 2054.7643,742.66653 2054.3883,742.16153 2053.9153,741.72553 2053.1583,741.02653 2051.9543,741.04553 2051.1173,740.44453 2050.2753,739.84053 2048.9363,738.54853 2048.4713,737.67653 2048.1503,737.07353 2047.6523,737.01653 2047.0543,736.85553 2046.1263,736.60553 2045.7093,735.76953 2044.9633,735.24853 2044.2523,734.75153 2044.4003,734.61553 2044.7853,734.07353 2045.2143,733.46953 2044.6493,732.23653 2044.3983,731.66953 2043.6103,729.89153 2041.6143,728.66553 2040.8913,726.86653 2040.5423,726.00053 2038.6493,725.52053 2040.8163,724.82053 2039.5393,725.00353 2038.2603,722.34453 2038.5993,721.40853 2039.2563,719.59253 2038.2913,717.63553 2037.1963,716.28253 2036.2313,715.09253 2036.4313,711.35253 2036.4263,709.84453 2036.4163,707.63953 2035.0793,705.89453 2034.2663,703.94153" id="path4722"/>
    <path d="M 2078.0463,734.97353 C 2078.7523,734.56653 2078.7973,733.64653 2077.8963,733.46153 2078.0323,733.95653 2078.0823,734.46053 2078.0463,734.97353" id="path2284"/>
    <path d="M 2066.4463,734.75753 C 2066.1543,734.93453 2066.0103,735.19753 2066.0163,735.54953 2066.8443,735.69953 2066.9883,735.43553 2066.4463,734.75753" id="path4706"/>
    </g>
  <g id="sg">
    <title>Singapore</title>
    <path class="world_map-is_selected landxx coastxx sgp" d="M 2063.4263,747.21355 C 2062.4673,747.46555 2063.9353,749.29255 2065.2263,747.57255 2064.6573,747.30155 2064.0573,747.18155 2063.4263,747.21355" id="sg-"/>
    <circle class="world_map-is_selected circlexx sgp" cx="2065.0579" cy="748.10004" id="sg." r="6.0130301" rx="6.0130301" ry="6.0130301"/>
  </g>
  </svg>