<svg xmlns="http://www.w3.org/2000/svg" class="world_map zoom5" height="127" id="svg2985" version="1.1" viewBox="580 625 35 35" width="127">
  <title>World Map</title>
  <defs id="defs2987"/>
  <style id="style_css_sheet" type="text/css">
/*
 * Below are Cascading Style Sheet (CSS) definitions in use in this file,
 * which allow easily changing how countries are displayed.
 *
 */
/* --- Custom styles for Peace Corps --- */
.world_map .world_map-is_selected {
  fill: #C94112 !important;
}
.world_map .landxx {
  fill: #F2EFE8;
  stroke: #ffffff;
  fill-rule: evenodd;
}
.world_map.zoom6 .landxx {
  stroke-width: 0.1px;
}
.world_map.zoom5 .landxx {
  stroke-width: 1px;
}
.world_map.zoom4 .landxx {
  stroke-width: 2px;
}
.world_map.zoom3 .landxx {
  stroke-width: 3px;
}
.world_map.zoom2 .landxx {
  stroke-width: 4px;
}
.world_map.zoom1 .landxx {
  stroke-width: 5px;
}
.world_map .coastxx {
  fill: #F2EFE8;
  stroke: #ffffff;
  stroke-width: 2px;
  fill-rule: evenodd;
}
.world_map .oceanxx {
  opacity: 1;
  color: #ccc;
  fill: #ffffff;
  stroke: #ffffff;
  stroke-width: 0.5;
  stroke-miterlimit: 1;
}

/* --- Original Styles --- *
/*
 * Circles around small countries
 *
 * Change opacity to 1 to display all circles.
 *
 */
.circlexx
{
   opacity:0;
   fill:#e0e0e0;
   stroke:#000000;
   stroke-width:0.5;
}

/*
 * Smaller circles around French DOMs and Chinese SARs
 *
 * Change opacity to 1 to display all subnational circles.
 *
 */
.subxx
{
   opacity:0;
   stroke-width:0.3;
}

/*
 * Circles around small, unrecognized countries
 *
 * Change opacity to 1 to display all circles.
 *
 */
.unxx
{
   opacity:0;
   fill:#e0e0e0;
   stroke:#000000;
   stroke-width:0.3;
}

/*
 * Circles around small countries, but with no permanent residents 
 *
 * Change opacity to 1 to display all circles.
 *
 */
.noxx
{
   opacity:0;
   fill:#e0e0e0;
   stroke:#000000;
   stroke-width:0.5;
}

/*
 * land
 */
.landxx
{
}
/*
 * Styles for coastlines of islands with no borders
 */


/*
 * Styles for nations with limited recognition
 */
.limitxx
{
   fill: #e0e0e0;
   stroke:#ffffff;
   stroke-width:0;
   fill-rule:evenodd;
}

/*
 * Styles for nations with no permanent population.
 */
.antxx
{
   fill: #e0e0e0;
   stroke:#ffffff;
   stroke-width:0;
   fill-rule:evenodd;
}

/*
 * Ocean
 */


/*
 * Additional style rules
 *
 * The following are examples of colouring countries.  You can substitute these with your own styles to colour the countries on the map.
 *
 * Color a few countries:
 *
 * .gb, .au, .nc
 * {
 *    fill:       #ff0000;
 * }
 *
 * Color a few small country circles (and the countries):
 *
 * .ms, .ky
 * {
 *    opacity:    1;
 *    fill:       #ff0000;
 * }
 *
 */

</style>
  <path class="oceanxx" d="M 2079.5058,1457.5605 615.24779,1457.5605 C 615.13079,1457.5605 615.07079,1457.5505 614.95179,1457.5215 611.67679,1456.6515 608.40179,1455.7815 605.12779,1454.9105 599.15079,1453.3225 593.22879,1451.5225 587.30779,1449.7385 564.39379,1442.8315 541.76579,1434.6995 519.46979,1426.0115 495.81079,1416.7935 472.34979,1407.0946 449.19179,1396.6816 426.78379,1386.6056 405.17679,1375.0536 383.76379,1363.0356 363.11779,1351.4496 343.01079,1338.8296 323.37979,1325.5996 302.29179,1311.3876 281.47879,1296.8506 261.05379,1281.7006 242.35079,1267.8276 223.73679,1253.6306 206.05279,1238.4686 186.98679,1222.1216 167.82379,1205.7706 150.35279,1187.6906 132.97779,1169.7106 116.33279,1151.0606 100.15679,1131.9976 84.352777,1113.3736 70.086776,1093.4716 56.901786,1072.9246 44.046786,1052.8916 32.093776,1032.1356 22.469776,1010.3426 17.516776,999.12753 12.408776,987.76556 8.7017761,976.06056 5.0657761,964.58166 1.5997761,953.04259 -1.5932239,941.43054 -8.0102239,918.09356 -14.055224,894.78356 -18.234224,870.92056 -22.491222,846.60856 -24.894222,822.19856 -26.943222,797.62156 -28.947222,773.58556 -28.829222,749.40156 -27.225222,725.34856 -25.648222,701.69856 -23.363222,677.92456 -19.274222,654.56456 -15.018224,630.25156 -9.3842239,606.45156 -2.8412239,582.66156 3.5687761,559.35256 10.483776,536.34856 20.265776,514.19856 30.320776,491.42956 42.318786,469.90956 55.502786,448.81656 68.512776,428.00356 83.108777,408.26756 98.686787,389.31756 113.73479,371.01156 129.68979,353.25256 146.15179,336.20856 163.77479,317.96256 182.64579,301.14556 201.89579,284.64756 220.33379,268.84456 239.55379,253.98456 258.95979,239.39656 278.42779,224.76056 298.39379,210.83356 318.55579,197.17556 339.26979,183.14456 360.47879,169.92056 382.15079,157.42556 403.46579,145.13656 425.31479,133.98856 447.60479,123.59356 469.58579,113.34356 492.14979,104.17656 514.74579,95.37556 537.44879,86.532565 560.37879,78.195565 583.63479,70.914565 589.69379,69.017565 595.80079,67.276565 601.90879,65.549565 604.63079,64.779565 607.36079,64.045565 610.09479,63.318565 611.59979,62.918565 613.56579,61.986565 615.13379,61.986565 L 2079.9638,61.986565 C 2079.9798,61.986565 2079.9958,61.986565 2080.0118,61.986565 2079.8448,61.986565 2079.6788,61.986565 2079.5118,61.986565 2102.8268,68.191565 2125.8778,75.323565 2148.5448,83.611565 2171.6378,92.054565 2194.6158,100.87956 2217.2348,110.52956 2240.5208,120.46556 2263.4848,130.95256 2285.8828,142.76456 2306.9808,153.89056 2327.8178,165.78556 2347.8608,178.72156 2368.9418,192.32656 2389.7498,206.29256 2410.2218,220.80056 2429.7368,234.62956 2448.9938,248.98756 2467.6208,263.99256 2486.8818,279.50856 2506.0408,295.30556 2524.0538,312.27356 2541.8708,329.05756 2558.7508,346.67256 2574.9408,365.03656 2591.2478,383.53256 2607.1478,402.30656 2621.4508,422.41856 2635.3488,441.96256 2648.4468,462.42756 2659.5898,483.67756 2671.1238,505.67356 2681.1048,528.35656 2688.6188,552.05056 2692.2518,563.50656 2695.3368,575.14756 2698.5608,586.72256 2701.7738,598.25356 2704.9238,609.81956 2707.4578,621.52456 2712.6258,645.40556 2716.6718,669.47856 2719.1178,693.79656 2721.5718,718.19256 2723.1798,742.56356 2722.9808,767.09056 2722.7908,790.65456 2720.6908,814.43756 2717.7688,837.81156 2714.7368,862.07056 2710.5198,886.16156 2704.6398,909.90056 2701.6808,921.84356 2698.3948,933.69556 2695.0378,945.53154 2691.7468,957.13466 2688.5558,968.83466 2684.3988,980.16156 2676.0918,1002.8036 2666.1688,1024.8836 2654.1338,1045.8046 2641.9958,1066.9066 2628.8498,1087.4866 2614.2378,1106.9696 2599.1658,1127.0666 2582.6678,1145.9446 2565.8948,1164.6296 2549.8298,1182.5266 2532.8918,1199.7316 2514.8648,1215.6616 2496.0788,1232.2646 2476.8978,1248.3126 2457.1558,1263.7656 2438.2988,1278.5276 2418.9668,1292.7306 2399.3188,1306.4206 2378.7018,1320.7866 2357.7538,1334.6106 2336.4758,1347.9776 2326.4088,1354.3016 2316.0058,1360.1326 2305.6418,1365.9516 2295.0348,1371.9086 2284.3858,1378.0166 2273.4448,1383.3436 2250.7338,1394.3986 2227.7768,1404.7266 2204.3888,1414.2665 2181.7848,1423.4875 2159.0678,1432.2695 2136.0228,1440.3345 2117.4118,1446.8465 2098.5568,1452.4975 2079.5058,1457.5605" id="ocean"/>
  <g class="landxx coastxx mex" id="mx" transform="translate(-29.9017,-45.0745)">
    <title>Mexico</title>
    <path class="landxx mex" d="M 452.088,523.152 C 458.105,522.557 464.111,521.759 470.16,521.567 469.706,522.174 469.066,522.632 468.792,523.368 L 492.43383,533.32074 512.655,533.43 512.7195,529.60302 525.67096,529.58002 C 527.44196,529.60202 527.65196,530.37102 528.06296,531.77902 528.40696,532.95902 529.89096,533.22202 530.47196,534.40302 530.97596,535.42802 531.90196,537.16702 532.84496,537.82702 533.73496,538.45002 535.03296,538.93302 535.27496,540.13102 535.62496,541.86402 535.59696,543.35402 535.37496,545.06302 534.88196,548.85102 538.22496,550.52502 540.86696,552.31102 541.78896,552.93402 543.21796,554.25802 544.37496,553.54702 545.20896,553.03402 546.20196,552.15302 546.64796,551.26102 547.22196,550.11202 548.37496,548.28602 549.40396,547.49202 550.05196,546.99202 551.43496,546.80602 552.19596,546.45002 554.24694,546.40402 556.34918,546.8886 558.41596,547.13902 559.00496,547.25702 559.73996,548.80602 560.30996,549.33602 561.24396,550.20302 562.45275,552.19642 562.69775,553.41542 563.02875,555.06642 563.44296,556.75102 563.53696,558.43902 563.63596,560.21302 564.77096,561.28002 565.34796,562.89402 565.61296,563.63202 565.86796,564.37402 566.24396,565.06502 566.53896,565.60702 567.06896,565.58802 567.34196,566.04902 568.01296,567.17902 567.06396,569.00102 567.05696,570.20302 567.04896,571.71502 568.42355,572.78902 568.23455,574.43502 568.83615,576.9574 570.70046,576.42522 569.92696,576.50702 570.93846,576.60642 571.58561,577.38671 572.69099,578.06442 573.4082,578.50414 573.66277,579.02265 574.43896,579.04702 576.23067,579.10322 577.6109,578.81927 578.84896,580.35802 579.87103,581.62832 580.62796,579.66964 581.90696,579.65664 578.2878,585.48013 576.1781,591.88417 573.75213,598.20938 572.86976,602.76733 574.35735,593.02859 577.89681,586.92932 578.56356,585.78036 578.80382,584.28155 578.0069,584.467 578.0979,584.477 577.49486,586.3338 576.5487,585.05313 576.5238,585.6663 575.78068,586.48645 575.79813,586.58521 576.35877,589.75886 575.72183,589.28991 575.70483,590.22959 575.70383,590.30239 574.69306,592.79571 574.65355,592.90293 574.61405,593.01014 573.95783,592.36405 573.88339,592.44239 573.94329,593.85057 574.35028,593.70463 574.31863,594.30665 574.28693,594.90931 573.6569,595.99258 573.53838,598.13903 573.51058,598.64296 573.51148,598.35898 573.05091,598.82302 574.10691,600.46002 572.68091,602.80802 572.51091,604.51102 572.29991,606.63002 570.95191,608.34402 570.84391,610.52002 570.73291,612.75002 570.97991,614.76702 572.30291,616.62002 573.72591,618.61302 573.07591,618.52902 572.25891,620.56702 572.16891,619.76302 573.17091,618.63002 572.67591,617.96402 571.73891,616.70402 571.53191,615.23402 570.81891,613.87102 571.14191,615.12502 570.62491,616.45902 571.10691,617.68702 571.54191,618.79302 572.09591,618.90702 572.18091,620.25002 572.35791,623.05402 573.48191,625.96202 574.89091,628.31302 576.51191,631.01602 577.07891,633.19502 577.79091,636.20302 578.08891,637.46302 579.01791,638.39902 579.43391,639.60202 579.79291,640.64202 579.91891,641.59402 581.04291,642.09402 580.44091,642.04802 580.01691,641.32102 579.60291,641.73502 580.89691,642.08102 579.59291,643.73002 579.17091,644.25502 580.38591,644.19802 579.30091,642.90102 580.35091,642.70202 580.72891,642.72502 580.95991,642.54702 581.04291,642.16702 581.71691,642.54602 582.50791,642.59402 583.25991,642.62502 585.69791,642.72502 587.73091,643.98602 588.85391,646.07402 589.80891,647.84802 590.80791,647.70402 592.80791,647.20402 594.06491,646.88902 596.22691,646.46402 597.17191,645.47902 596.40491,645.66402 595.64091,645.90402 594.93991,646.27202 595.94491,645.67002 603.76891,643.87102 604.01191,644.97502 603.55891,642.95902 609.49491,641.87102 610.27691,643.46302 608.69591,643.17902 610.28391,644.55402 610.06091,645.26302 610.59491,644.80802 611.02491,645.02602 611.64491,644.97502 612.02491,645.05602 612.40891,645.10402 612.79691,645.12002 612.89391,644.83702 613.02791,644.57202 613.19891,644.32502 614.07891,643.97402 616.09591,642.03402 613.87691,641.88002 614.36491,641.47502 614.86891,641.09102 615.38891,640.72802 614.67991,641.15402 613.98191,641.60402 613.22891,641.95302 614.10891,640.47202 616.08591,639.91102 617.49091,639.08802 619.44891,637.94202 619.42491,636.27302 620.31591,634.43702 620.77891,633.48102 621.61791,633.03302 622.24591,632.22902 622.87891,631.41802 622.71791,630.30802 622.82291,629.35402 623.07391,627.07202 624.27691,625.41902 624.82191,623.30602 624.66191,623.59402 624.46991,623.85802 624.24591,624.09802 625.40191,620.87302 629.98191,620.25702 632.88891,619.92402 634.98591,619.68402 636.66191,619.12202 638.63891,618.39402 641.22091,617.44302 643.42191,618.52702 645.99091,618.77002 645.55291,618.59002 645.09591,618.49502 644.62291,618.48202 645.78891,618.18302 646.92791,618.90202 648.00691,619.20302 646.18091,618.82802 649.33191,617.65302 650.58591,618.22402 652.45791,619.07702 651.87791,621.48202 651.28191,623.00002 650.49191,625.01402 648.82291,626.12002 647.37391,627.61802 646.61491,628.40402 645.71291,629.39002 645.34291,630.43502 645.13491,631.02102 645.52791,633.39902 644.91091,632.09102 645.20291,633.26002 643.17991,634.29602 643.03891,635.47502 646.62291,635.03202 642.01791,637.28702 642.82291,638.42702 643.04391,637.88702 643.51291,637.48602 644.11891,637.49102 643.12791,638.89402 642.83991,640.62502 642.08091,642.14102 641.46091,643.38002 640.06891,645.81902 640.01391,647.21002 638.33191,645.34202 639.60891,643.92202 639.22191,641.88202 638.10591,642.65902 638.17291,642.68802 637.59791,643.74302 637.13391,644.59402 636.40791,644.56302 635.65591,644.98202 634.05891,645.87102 632.91791,648.39902 632.09391,649.94602 631.59891,649.40502 630.54581,648.69574 630.12881,649.99772 629.80781,651.00072 629.24791,650.45 627.83791,650.45 624.74091,650.45 621.64491,650.45 618.54791,650.45 617.84491,650.45 615.86591,650.15518 615.71991,651.23018 615.60091,652.10518 615.64391,652.846 615.56291,653.728 615.34691,656.077 613.63391,655.346 611.78991,655.346 613.09659,656.671 614.05429,658.324 615.62391,659.162 617.09905,659.94956 616.9375,661.64397 618.39482,662.35046 618.69623,662.49658 618.03192,665.75209 617.94509,665.53336 615.50305,666.46694 611.61138,665.36578 608.17655,665.46266 603.55553,674.0706 604.2038,672.80587 604.46542,673.83699 604.81642,674.40599 603.25191,678.11101 602.71891,678.74601 602.02191,677.87401 601.23591,677.07801 600.53691,676.20701 600.13191,675.70201 598.27891,672.15701 599.55091,674.06501 599.28491,673.01601 597.99891,672.60201 597.30091,671.90801 596.27691,670.88901 595.55991,669.63401 594.46291,668.63401 592.26291,666.62801 591.08191,664.75701 588.10391,663.77001 587.90991,664.90601 590.72391,665.41901 591.27191,666.21801 589.53491,665.31401 587.73891,664.42701 585.72791,664.49001 586.25491,664.28801 586.67891,663.86501 586.87991,663.33801 586.28991,663.25201 585.80991,663.44401 585.43991,663.91401 585.58191,662.15701 583.94291,662.71001 583.71191,663.98501 584.24491,663.93101 584.74891,664.02701 585.22391,664.27401 582.54391,664.45401 581.24691,666.07001 578.81391,666.80101 576.61691,667.46101 574.79191,668.45801 572.55791,668.89601 570.87191,669.22701 570.15191,669.01901 568.49491,668.12501 566.65391,667.13101 565.49491,666.99601 563.44991,666.67301 562.38191,666.50501 561.73291,665.95201 560.94791,665.25801 559.94791,664.37401 558.96991,664.18601 557.76191,663.74401 556.78291,663.38601 556.56691,662.55601 555.83191,661.93001 554.93591,661.16701 553.36091,661.01601 552.25891,660.73501 551.17091,660.45701 549.92191,660.34801 548.90491,659.85201 547.83991,659.33101 547.04791,658.45401 545.93791,657.96301 543.37391,656.82901 540.79191,656.18801 538.52791,654.44601 536.65991,653.00801 535.64491,650.99301 533.98691,649.47401 533.33791,648.87901 532.49691,649.11701 531.73291,649.26601 530.58191,649.49201 528.63491,648.67401 527.55291,648.29001 525.75491,647.65201 523.28391,646.78501 522.12191,645.18201 521.54591,644.38801 521.14891,643.50301 520.66291,642.65801 519.83591,641.22001 518.64691,641.16701 517.40091,640.29901 517.13491,638.96401 513.79091,638.28101 512.61891,637.22701 512.00391,636.67401 512.18691,635.79201 511.58491,635.19501 510.90791,634.52401 510.27991,632.97201 509.88991,632.08901 509.43191,631.05401 508.54691,628.21001 509.83991,627.41201 510.73891,626.85701 511.78291,627.15701 512.55191,626.30301 513.27091,625.50401 511.65691,624.83801 511.06391,624.96401 511.39691,623.88701 515.22691,620.27601 514.15391,618.94501 513.16691,617.71101 512.79891,616.99301 512.27991,615.48101 511.72091,613.85501 512.40991,612.60501 512.23391,610.98001 511.85491,607.49201 508.52691,604.57801 506.96991,601.53101 505.17291,598.01401 503.23591,595.41601 500.11991,592.92401 500.96891,593.29201 501.66191,594.34101 502.06391,592.99601 500.70591,593.15001 498.37591,591.86601 498.91891,590.37301 499.30991,589.29801 499.41291,586.19801 497.45591,587.01901 497.45591,585.74501 497.26591,586.70901 496.36991,586.23601 495.75891,585.91201 495.24291,585.36801 494.57691,585.14801 495.45591,585.32401 495.53091,585.26301 494.79991,584.96501 494.40791,584.51701 494.50691,583.87001 494.07291,583.41901 493.63091,583.81601 493.12691,584.10501 492.56091,584.28301 492.35291,583.37201 493.44691,583.29401 493.56891,582.48201 492.47791,583.48601 491.91991,582.87801 490.54491,582.55401 490.81291,582.39201 491.07691,582.22401 491.33691,582.05001 490.69891,581.51701 490.38691,581.66101 490.40091,582.48201 490.36491,581.44001 490.51891,580.40901 491.00991,579.47901 491.19291,579.13301 492.53291,576.76701 492.34491,578.09101 492.62491,577.53601 493.27191,576.48901 493.71291,577.37101 493.85891,576.61801 493.75091,575.97701 492.84891,576.57901 493.22691,575.65101 493.09091,574.46001 492.15791,573.89501 491.41891,573.44801 490.63491,574.24801 489.83591,573.52901 488.96991,572.74901 489.99991,570.35701 488.93391,570.07001 488.19391,569.87101 485.80591,569.61201 485.74491,568.56001 485.67891,567.44401 485.59291,563.67201 487.01691,563.69101 486.33391,563.61101 484.69991,563.36401 484.92891,562.75401 484.61891,563.02801 484.40291,563.36401 484.28191,563.76201 484.24191,562.69801 482.77791,562.63701 482.22891,561.94101 481.75991,561.34301 481.60991,560.32601 481.33191,559.62901 481.04491,558.91301 480.22491,558.87801 479.81691,558.29001 479.18791,557.38201 479.37491,555.72701 478.68891,554.96401 477.49991,553.64201 478.41291,552.38701 478.01691,550.87401 476.74791,551.85501 477.16591,549.11501 477.00891,548.49801 476.48891,546.45201 476.48391,545.27801 476.62291,543.22701 476.73691,541.55101 475.55291,540.03001 475.94991,538.35601 476.13491,537.58001 477.46491,535.62701 477.21191,535.03401 476.79691,534.06101 475.19691,534.07301 474.35491,533.77601 472.98891,533.29501 474.76291,531.46801 472.60791,531.31501 471.87391,531.26301 471.57691,532.11601 470.75291,532.05401 469.96491,531.99301 469.31991,531.36701 468.83691,530.80801 467.81991,529.62701 466.47391,529.26701 465.41791,528.05101 465.50491,528.96301 466.54091,529.80801 466.16491,530.75001 465.69891,531.91401 464.86091,533.19401 464.28791,534.34501 463.70691,535.50801 464.57791,536.65301 464.33891,537.84301 464.07691,539.15001 463.97591,540.51201 463.47791,541.76101 462.26091,544.80401 463.60791,545.99901 465.51691,548.24101 467.25091,550.27801 467.71391,551.71601 467.57991,554.33101 468.81091,553.39601 469.39091,555.61301 469.56391,556.41001 469.65491,556.82901 469.60791,557.67401 469.95191,557.99201 470.22891,558.24901 471.34591,558.50201 471.08591,559.07201 470.48891,560.38601 470.12791,563.98401 471.29691,565.08401 472.87491,566.57001 472.68291,569.22901 474.56391,570.31401 473.48191,571.12101 474.40991,573.71401 474.49191,574.85001 475.22291,574.21601 474.78791,572.68201 474.63591,571.89801 478.29691,572.51801 475.49591,584.27201 477.94791,583.70701 477.75991,584.89901 477.66191,586.28001 478.01991,587.45101 478.39791,588.68801 479.37791,589.35601 478.46491,590.66101 477.27891,592.35701 478.09391,595.55301 480.53991,595.29901 478.91291,595.46401 480.34891,595.51701 480.57291,595.19501 480.84491,594.80301 480.87491,594.30301 481.18791,593.93001 481.56691,594.86601 483.07891,596.18001 483.84491,596.80601 484.26591,597.15101 484.16291,599.30501 484.42791,599.90601 485.02991,601.27001 486.98991,602.23101 485.21491,603.88201 484.51091,604.53601 481.94591,606.59101 480.99091,606.16501 479.73691,605.60401 480.38491,602.81201 479.86991,601.74701 479.49291,600.96601 478.80991,600.38801 478.16391,599.83501 477.12091,598.94301 476.56491,597.64301 475.66391,596.62901 474.34991,595.15101 472.28691,594.50701 471.19291,592.79001 470.27591,591.35001 468.04691,590.51101 468.58791,588.45901 468.45591,588.95101 468.28791,589.43101 468.08391,589.89801 468.29691,585.74301 471.72191,583.09401 469.66891,578.79001 468.87691,577.12901 467.07991,576.91701 466.02291,575.37601 465.54091,574.67301 464.80191,573.57701 464.77191,572.69101 464.75091,572.05401 465.50091,571.90501 465.27591,571.17801 464.82991,571.72901 464.77391,572.81301 464.05191,573.12201 463.31691,573.43701 462.70991,572.78301 461.95391,573.33201 461.34191,573.77701 460.96591,572.82101 460.79691,572.41801 460.39191,571.45101 459.62391,571.28101 458.86791,570.67301 458.72191,570.37701 458.53991,570.10701 458.32091,569.86001 457.89991,569.76101 457.48191,569.64801 457.06791,569.52101 456.30591,568.96001 456.66691,568.65301 456.52291,567.90701 456.18091,566.13201 453.44591,565.82801 453.32391,563.83301 455.04391,564.00501 457.21691,564.93101 458.72291,563.61701 458.66291,565.48701 461.97891,564.99401 461.02691,566.92901 461.90191,566.24501 462.34591,563.88901 461.38691,563.11401 461.39591,563.55701 461.00891,565.35301 460.13891,564.92601 459.62691,564.67401 460.33391,563.20601 460.37891,562.82601 460.10991,562.98701 459.84691,563.15501 459.58691,563.33001 460.43591,561.48501 463.09991,559.71901 462.03491,557.42601 460.92891,555.04201 459.66291,551.94601 457.49491,550.34301 455.71191,549.02501 454.27591,547.97001 453.84991,545.67001 453.68991,544.80701 454.28591,544.18701 454.47091,543.36701 454.71391,542.29101 453.68791,541.82701 454.18691,541.22701 453.96091,541.43601 453.72091,541.62801 453.46691,541.80301 452.99991,539.86901 454.98591,539.01701 453.37091,537.22501 452.63091,536.40401 453.53891,535.77201 453.53891,534.89101 453.53891,533.70701 452.58991,532.92901 452.41391,531.84001 452.28291,531.02701 452.73291,530.36301 453.27791,529.85301 453.75491,529.40601 453.11091,528.69601 452.91191,528.25601 452.68291,527.96701 452.48391,527.65801 452.31491,527.33101 452.41991,526.85201 452.51591,526.37301 452.60291,525.89101 452.41991,524.85201 452.27086,525.20235 452.84386,524.08435" id="path2630"/>
    </g>
  <path class="landxx gtm" d="M 572.81029,633.66955 C 573.62429,632.70055 573.48629,631.67755 573.77829,630.51555 573.92029,629.94955 574.71429,629.55755 574.54429,628.93255 574.22829,627.77155 574.24,627.57825 574.919,626.44725 575.939,624.74925 576.80306,622.56531 577.50736,621.12431 578.22511,619.65581 580.97329,620.49355 582.42829,620.49355 583.26329,620.49355 587.64729,621.01655 588.07829,620.31355 588.22129,620.08155 588.59729,617.37655 588.48029,617.27555 587.97729,616.83755 587.29329,617.03555 587.13729,616.22555 586.95729,615.29955 586.74829,614.79755 585.88529,614.27455 584.23129,613.27355 583.20229,611.63255 581.88429,610.26955 582.88429,610.26955 584.66829,610.73855 585.27029,609.62455 585.89129,608.47755 585.13329,606.72755 585.98829,605.72855 586.90429,604.65855 591.00829,605.37355 592.32129,605.37355 594.84229,605.37355 597.36329,605.37355 599.88429,605.37355 599.24629,608.09655 599.18229,610.91055 598.66029,613.65255 598.12629,616.45955 597.51229,619.25255 597.07629,622.07755 598.41329,621.93955 601.25629,621.87755 601.46829,623.73255 601.68629,623.25155 601.90929,622.67655 602.47629,622.50855 602.29829,622.25755 602.10629,622.01755 601.90029,621.78855 602.90229,622.15155 603.58329,623.00155 604.49229,623.51655 602.06229,624.53255 600.55829,626.97855 598.31929,628.29955 597.27729,628.91455 595.92229,629.64855 596.22129,631.08655 596.43229,632.10455 596.66029,632.79955 595.82429,633.56955 595.03329,634.29755 592.79129,634.74255 593.00829,635.89955 593.13729,636.58355 592.62929,636.44155 592.14329,636.86755 592.04729,636.95155 591.21129,638.06655 591.33329,638.01155 590.34829,638.45655 587.86329,638.61155 588.36429,640.65255 587.19029,640.14155 586.13429,639.28655 584.84429,639.06455 583.52929,638.83855 582.13029,639.26055 580.78629,639.10055 577.46029,638.70455 575.03629,635.89555 572.81029,633.66955" id="gt">
    <title>Guatemala</title>
  </path>
  <path class="world_map-is_selected landxx slv" d="M 588.36329,640.65355 C 588.15029,639.78455 588.42929,639.39646 588.9793,638.88946 589.8093,638.12346 590.54578,638.43349 591.26102,637.97691 591.35882,637.91441 591.99629,636.75434 592.81138,636.39282 593.12181,636.25513 592.85938,635.75082 592.94238,635.36382 593.12438,634.50682 594.55329,634.83655 595.11529,634.99255 596.05329,635.25255 601.11729,638.41955 600.60329,639.57455 601.63529,639.56455 603.93629,637.66555 604.27529,639.57455 605.16629,638.98755 606.71729,639.36755 606.30129,640.59955 606.21229,640.86455 605.48229,644.40355 605.21129,643.31855 604.46729,644.32155 605.96129,645.13455 603.91529,645.69455 601.97529,646.22455 600.56529,644.32555 598.87529,644.75855 600.75329,645.27355 597.90229,645.02855 597.42529,644.80855 596.25429,644.26955 595.27029,643.31655 594.02129,642.94255 592.85229,642.59155 591.49529,643.08855 590.37829,642.52655 589.72029,642.19455 589.09229,641.09855 588.36329,640.65355" id="sv">
    <title>El Salvador</title>
  </path>
  <g class="landxx coastxx hnd" id="hn" transform="translate(-29.9017,-45.0745)">
    <title>Honduras</title>
    <path class="landxx hnd" d="M 624.529,679.752 C 625.071,678.404 626.832,678.099 625.99,676.41 625.518,675.465 626.834,674.018 627.567,673.686 629.261,672.92 630.58962,671.45575 631.96262,670.21175 632.50162,669.72275 633.227,669.292 633.859,668.913 634.591,668.474 635.005,669.078 635.598,668.379 636.415,667.416 638.277,666.559 639.245,667.546 639.949,668.265 643.437,668.346 644.484,668.25 645.945,668.117 648.172,668.472 649.429,667.668 649.879,667.38 653.22,666.64 651.385,666.072 653.026,666.02 654.437,667.051 656.066,667.08 657.746,667.109 659.701,665.879 661.204,667.21 662.482,668.342 663.211,667.221 664.49,667.872 665.979,668.631 666.752,670.385 667.874,671.544 667.355,671.28 666.866,670.464 666.229,670.464 665.608,670.464 665.065,670.572 664.562,670.104 665.044,670.375 665.068,670.927 665.191,671.392 665.282,671.734 666.23,672.456 666.506,672.768 666.703,672.191 666.44,671.808 665.859,671.689 666.558,670.934 667.661,673.1 669.027,672.409 669.116,672.882 669.271,673.064 668.955,673.489 670.407,673.123 669.081,672.149 668.379,671.905 670.714,672.234 670.275,674.209 672.123,674.928 670.808,675.153 669.585,674.92 668.422,675.734 667.406,676.446 665.324,677.125 664.088,677.092 663.107,677.067 662.208,678.117 661.366,677.864 660.77,677.685 660.211,677.465 659.667,677.16 659.415,677.018 659.392,676.511 659.142,676.46 657.772,676.182 657.632,677.923 657.147,678.672 656.834,679.155 656.282,679.385 655.995,679.896 655.838,680.175 656.20312,680.66378 655.934,680.859 654.93593,681.583 651.79525,683.353 651.315,685.008 649.1346,683.61687 648.70005,682.40005 647.294,684.768 646.31717,686.41311 643.34659,684.9001 643.502,686.34 643.65618,687.76853 644.283,689.432 642.6,689.714 641.714,689.862 641.856,690.819 641.621,691.456 641.213,692.561 639.668,692.162 638.786,692.28 639.438,691.22 636.191,689.754 638.498,688.895 637.786,689.131 636.83,689.12 636.698,688.175 636.488,688.974 635.833,689.201 635.186,688.679 636.041,688.4 635.887,687.507 635.932,686.805 636.006,685.667 637.043,684.394 635.037,684.378 634.379,684.898 634.024,684.801 633.97,684.088 633.766,683.833 633.502,683.734 633.178,683.789 632.244,683.895 631.454,684.638 630.506,684.647 631.218,683.046 625.256,680.492 624.529,679.752" id="path5978"/>
    </g>
  <path class="landxx nic" d="M 606.79529,646.55755 C 607.70229,646.93855 607.73029,647.89455 608.88329,647.78255 609.04381,647.51283 608.54329,647.23679 609.00895,647.16471 609.48282,647.10491 610.77879,647.03305 611.21629,646.90155 612.16529,646.61755 611.56529,645.31455 612.23729,644.84255 612.73929,644.49055 613.52429,644.76555 613.64629,644.04855 613.80129,643.14155 612.99729,641.30255 613.56329,640.58155 614.08629,639.91455 615.28829,640.45155 615.94329,640.53755 616.77229,640.64455 617.10629,639.91355 617.57529,639.35755 619.33329,637.27555 619.56829,638.75755 621.41129,639.93355 621.71652,638.18578 624.07674,637.01136 625.53429,635.78955 626.52678,635.71535 625.47869,635.01404 626.61729,634.05955 627.47669,633.33912 627.45565,632.16837 628.37865,631.47337 629.42465,630.68537 629.82232,631.99977 630.67629,632.46901 631.91525,633.1498 632.49197,632.41191 633.6623,632.00691 634.93306,631.56716 637.14929,631.43555 638.33129,630.79055 638.86829,630.49755 639.29729,629.99555 639.91529,629.85355 640.68529,629.67755 641.44629,629.98555 642.21929,629.85355 641.56329,630.16655 641.20429,631.55955 640.34729,630.79055 639.53729,632.19955 641.62129,634.53055 640.92329,636.33455 640.24829,638.08155 638.84829,639.08055 638.27529,640.98455 637.56229,643.35555 637.85129,645.72655 637.45929,648.12155 637.26929,649.28455 637.76929,652.35655 636.38729,652.53455 636.43129,651.17355 637.20329,650.17955 636.96329,648.71855 636.04629,648.94755 636.93429,650.61455 635.23529,651.16655 636.38829,652.65355 635.54229,654.20455 635.59529,655.84655 635.32929,655.39555 635.25729,654.91555 635.37929,654.40655 635.21329,655.39155 634.58329,656.26755 634.58729,657.28755 636.44329,656.62155 634.98229,659.10455 634.61429,659.71055 633.73829,661.15355 633.10829,662.83955 634.23029,664.44155 634.73029,665.15455 635.67329,665.80955 634.15429,666.41455 633.26529,666.76855 631.73929,666.70955 630.97329,666.10155 630.74329,665.90355 630.54829,665.67555 630.38829,665.41655 629.74129,664.46355 629.96229,664.80555 629.09129,664.65455 628.42229,664.53855 628.00629,663.73155 627.27529,663.88355 626.68329,664.00555 626.1442,664.2051 625.6312,664.4851 625.30845,664.66085 624.46974,664.37726 624.04377,664.18805 621.86142,663.21868 620.87667,662.75806 620.57833,662.72955 620.42916,662.71525 619.85214,662.66975 620.80614,662.50743 621.41418,662.60463 627.87863,666.01466 626.18839,661.53455 625.84241,661.15542 624.29814,658.33894 623.95588,657.99257 623.62727,657.66001 621.63561,656.30857 621.43739,655.76999 621.22486,655.19254 619.59968,654.81852 619.27526,654.87459 617.93435,655.10633 618.80326,658.91338 618.53953,658.48573 618.85935,658.8155 619.60874,661.94289 620.79835,662.50982 620.63825,662.49642 620.83735,662.82778 620.51284,662.723 619.64899,662.44407 619.86358,665.37241 618.67729,662.8016 618.01114,661.35796 616.61129,660.3626 615.50729,659.3026 613.31929,657.2016 612.40729,654.3336 610.06529,652.2986 608.56129,650.9916 605.32129,648.4166 606.79529,646.5576" id="ni">
    <title>Nicaragua</title>
  </path>
  </svg>
