<svg xmlns="http://www.w3.org/2000/svg" class="world_map zoom4" height="127" id="svg2985" version="1.1" viewBox="1347 363 33 33" width="127">
  <title>World Map</title>
  <defs id="defs2987"/>
  <defs>
    <link xmlns="http://www.w3.org/1999/xhtml" href="../css/svg.css" type="text/css" rel="stylesheet"/>
  </defs>
  <style id="style_css_sheet" type="text/css">
/*
 * Below are Cascading Style Sheet (CSS) definitions in use in this file,
 * which allow easily changing how countries are displayed.
 *
 */
/* --- Custom styles for Peace Corps --- */
.world_map .world_map-is_selected {
  fill: #C94112 !important;
}
.world_map .landxx {
  fill: #F2EFE8;
  stroke: #ffffff;
  fill-rule: evenodd;
}
.world_map.zoom4 .landxx {
  stroke-width: 2px;
}
.world_map.zoom3 .landxx {
  stroke-width: 3px;
}
.world_map.zoom2 .landxx {
  stroke-width: 4px;
}
.world_map.zoom1 .landxx {
  stroke-width: 5px;
}
.world_map .coastxx {
  fill: #F2EFE8;
  stroke: #ffffff;
  stroke-width: 2px;
  fill-rule: evenodd;
}
.world_map .oceanxx {
  opacity: 1;
  color: #ccc;
  fill: #ffffff;
  stroke: #ffffff;
  stroke-width: 0.5;
  stroke-miterlimit: 1;
}

/* --- Original Styles --- *
/*
 * Circles around small countries
 *
 * Change opacity to 1 to display all circles.
 *
 */
.circlexx
{
   opacity:0;
   fill:#e0e0e0;
   stroke:#000000;
   stroke-width:0.5;
}

/*
 * Smaller circles around French DOMs and Chinese SARs
 *
 * Change opacity to 1 to display all subnational circles.
 *
 */
.subxx
{
   opacity:0;
   stroke-width:0.3;
}

/*
 * Circles around small, unrecognized countries
 *
 * Change opacity to 1 to display all circles.
 *
 */
.unxx
{
   opacity:0;
   fill:#e0e0e0;
   stroke:#000000;
   stroke-width:0.3;
}

/*
 * Circles around small countries, but with no permanent residents 
 *
 * Change opacity to 1 to display all circles.
 *
 */
.noxx
{
   opacity:0;
   fill:#e0e0e0;
   stroke:#000000;
   stroke-width:0.5;
}

/*
 * land
 */
.landxx
{
}
/*
 * Styles for coastlines of islands with no borders
 */


/*
 * Styles for nations with limited recognition
 */
.limitxx
{
   fill: #e0e0e0;
   stroke:#ffffff;
   stroke-width:0;
   fill-rule:evenodd;
}

/*
 * Styles for nations with no permanent population.
 */
.antxx
{
   fill: #e0e0e0;
   stroke:#ffffff;
   stroke-width:0;
   fill-rule:evenodd;
}

/*
 * Ocean
 */


/*
 * Additional style rules
 *
 * The following are examples of colouring countries.  You can substitute these with your own styles to colour the countries on the map.
 *
 * Color a few countries:
 *
 * .gb, .au, .nc
 * {
 *    fill:       #ff0000;
 * }
 *
 * Color a few small country circles (and the countries):
 *
 * .ms, .ky
 * {
 *    opacity:    1;
 *    fill:       #ff0000;
 * }
 *
 */

</style>
  <path class="oceanxx" d="M 2079.5058,1457.5605 615.24779,1457.5605 C 615.13079,1457.5605 615.07079,1457.5505 614.95179,1457.5215 611.67679,1456.6515 608.40179,1455.7815 605.12779,1454.9105 599.15079,1453.3225 593.22879,1451.5225 587.30779,1449.7385 564.39379,1442.8315 541.76579,1434.6995 519.46979,1426.0115 495.81079,1416.7935 472.34979,1407.0946 449.19179,1396.6816 426.78379,1386.6056 405.17679,1375.0536 383.76379,1363.0356 363.11779,1351.4496 343.01079,1338.8296 323.37979,1325.5996 302.29179,1311.3876 281.47879,1296.8506 261.05379,1281.7006 242.35079,1267.8276 223.73679,1253.6306 206.05279,1238.4686 186.98679,1222.1216 167.82379,1205.7706 150.35279,1187.6906 132.97779,1169.7106 116.33279,1151.0606 100.15679,1131.9976 84.352777,1113.3736 70.086776,1093.4716 56.901786,1072.9246 44.046786,1052.8916 32.093776,1032.1356 22.469776,1010.3426 17.516776,999.12753 12.408776,987.76556 8.7017761,976.06056 5.0657761,964.58166 1.5997761,953.04259 -1.5932239,941.43054 -8.0102239,918.09356 -14.055224,894.78356 -18.234224,870.92056 -22.491222,846.60856 -24.894222,822.19856 -26.943222,797.62156 -28.947222,773.58556 -28.829222,749.40156 -27.225222,725.34856 -25.648222,701.69856 -23.363222,677.92456 -19.274222,654.56456 -15.018224,630.25156 -9.3842239,606.45156 -2.8412239,582.66156 3.5687761,559.35256 10.483776,536.34856 20.265776,514.19856 30.320776,491.42956 42.318786,469.90956 55.502786,448.81656 68.512776,428.00356 83.108777,408.26756 98.686787,389.31756 113.73479,371.01156 129.68979,353.25256 146.15179,336.20856 163.77479,317.96256 182.64579,301.14556 201.89579,284.64756 220.33379,268.84456 239.55379,253.98456 258.95979,239.39656 278.42779,224.76056 298.39379,210.83356 318.55579,197.17556 339.26979,183.14456 360.47879,169.92056 382.15079,157.42556 403.46579,145.13656 425.31479,133.98856 447.60479,123.59356 469.58579,113.34356 492.14979,104.17656 514.74579,95.37556 537.44879,86.532565 560.37879,78.195565 583.63479,70.914565 589.69379,69.017565 595.80079,67.276565 601.90879,65.549565 604.63079,64.779565 607.36079,64.045565 610.09479,63.318565 611.59979,62.918565 613.56579,61.986565 615.13379,61.986565 L 2079.9638,61.986565 C 2079.9798,61.986565 2079.9958,61.986565 2080.0118,61.986565 2079.8448,61.986565 2079.6788,61.986565 2079.5118,61.986565 2102.8268,68.191565 2125.8778,75.323565 2148.5448,83.611565 2171.6378,92.054565 2194.6158,100.87956 2217.2348,110.52956 2240.5208,120.46556 2263.4848,130.95256 2285.8828,142.76456 2306.9808,153.89056 2327.8178,165.78556 2347.8608,178.72156 2368.9418,192.32656 2389.7498,206.29256 2410.2218,220.80056 2429.7368,234.62956 2448.9938,248.98756 2467.6208,263.99256 2486.8818,279.50856 2506.0408,295.30556 2524.0538,312.27356 2541.8708,329.05756 2558.7508,346.67256 2574.9408,365.03656 2591.2478,383.53256 2607.1478,402.30656 2621.4508,422.41856 2635.3488,441.96256 2648.4468,462.42756 2659.5898,483.67756 2671.1238,505.67356 2681.1048,528.35656 2688.6188,552.05056 2692.2518,563.50656 2695.3368,575.14756 2698.5608,586.72256 2701.7738,598.25356 2704.9238,609.81956 2707.4578,621.52456 2712.6258,645.40556 2716.6718,669.47856 2719.1178,693.79656 2721.5718,718.19256 2723.1798,742.56356 2722.9808,767.09056 2722.7908,790.65456 2720.6908,814.43756 2717.7688,837.81156 2714.7368,862.07056 2710.5198,886.16156 2704.6398,909.90056 2701.6808,921.84356 2698.3948,933.69556 2695.0378,945.53154 2691.7468,957.13466 2688.5558,968.83466 2684.3988,980.16156 2676.0918,1002.8036 2666.1688,1024.8836 2654.1338,1045.8046 2641.9958,1066.9066 2628.8498,1087.4866 2614.2378,1106.9696 2599.1658,1127.0666 2582.6678,1145.9446 2565.8948,1164.6296 2549.8298,1182.5266 2532.8918,1199.7316 2514.8648,1215.6616 2496.0788,1232.2646 2476.8978,1248.3126 2457.1558,1263.7656 2438.2988,1278.5276 2418.9668,1292.7306 2399.3188,1306.4206 2378.7018,1320.7866 2357.7538,1334.6106 2336.4758,1347.9776 2326.4088,1354.3016 2316.0058,1360.1326 2305.6418,1365.9516 2295.0348,1371.9086 2284.3858,1378.0166 2273.4448,1383.3436 2250.7338,1394.3986 2227.7768,1404.7266 2204.3888,1414.2665 2181.7848,1423.4875 2159.0678,1432.2695 2136.0228,1440.3345 2117.4118,1446.8465 2098.5568,1452.4975 2079.5058,1457.5605" id="ocean"/>
  <path class="landxx che" d="M 1319.5263,361.14955 C 1319.7503,360.71455 1319.9933,360.29255 1320.2553,359.88055 1320.5913,359.23355 1320.0754,358.71442 1320.3063,358.10637 1320.6512,357.19711 1322.2119,356.48975 1322.2653,356.20037 1322.4809,355.03381 1323.0602,354.2935 1324.7189,353.3465 1325.6145,352.83511 1326.1857,351.77382 1327.051,350.92655 1325.4385,351.12047 1326.4126,348.59372 1327.7386,349.79255 1329.1655,351.08269 1329.8046,348.96155 1331.1856,348.76655 1330.4656,349.60755 1334.1076,348.96155 1334.7766,348.99655 1336.0756,349.06355 1337.1031,349.10637 1337.3841,348.28037 1336.3901,348.65137 1336.1896,347.72466 1337.0909,347.41473 1337.4567,347.28894 1337.826,347.42473 1338.3911,347.64664 1339.336,348.0181 1340.5408,348.04137 1340.7322,348.11328 1341.8453,348.53126 1343.2346,348.68755 1344.1376,349.47955 1345.3256,350.52055 1343.5606,352.21655 1343.3556,353.37455 1345.6526,353.08555 1345.8406,354.74855 1347.7156,355.11255 1348.5256,355.26955 1348.8466,353.73855 1349.7316,353.98955 1350.7666,354.28255 1349.8816,355.44355 1349.7926,355.97655 1349.7236,356.39055 1350.6326,357.68455 1349.7076,357.70955 1349.0436,357.72755 1348.5256,356.53455 1347.8966,357.09055 1347.6696,357.29055 1346.8906,358.46655 1347.4336,358.71655 1348.3946,359.15755 1347.8256,359.49255 1347.6756,360.42955 1346.7386,360.05355 1346.6996,359.04155 1345.5156,359.27755 1344.3596,359.50755 1344.2326,359.75255 1343.2856,358.84555 1343.1926,358.75655 1342.1626,357.00355 1342.0246,358.43655 1341.8976,359.75055 1341.9226,360.07055 1340.9716,361.06355 1339.7606,362.32955 1340.8496,365.29755 1338.9136,362.46355 1338.4816,361.83255 1337.9716,361.52355 1337.3756,361.07755 1336.4646,360.39755 1336.8276,359.10555 1335.9356,358.48455 1335.4246,359.12655 1334.8216,359.77555 1333.9956,359.99755 1334.8986,361.04455 1332.9196,362.88655 1331.8056,362.78355 1329.7056,362.58955 1327.9706,363.91955 1326.3666,362.22955 1325.8016,361.63355 1325.0166,361.00755 1325.2116,360.06955 1325.4846,358.75855 1324.4485,358.44362 1323.3275,358.55719 1321.447,358.74772 1321.7671,361.09335 1319.5266,361.14955" id="ch">
    <title>Switzerland</title>
  </path>
  <g class="landxx coastxx eu ita" id="it" transform="translate(-29.9017,-45.0745)">
    <title>Italy</title>
    <path class="landxx eu ita" d="M 1353.5711,414.65164 C 1354.5811,413.57664 1357.2431,414.48464 1357.1191,412.24764 1357.0691,411.34564 1356.411,410.95 1355.838,410.332 1355.527,410.013 1355.1701,409.64432 1354.9011,409.28932 1355.7468,408.80713 1356.603,407.74092 1356.0773,407.16239 1356.9793,407.40239 1357.971,408.279 1358.939,407.942 1360.155,407.518 1360.7132,407.72227 1361.8742,407.80927 1362.6372,407.86627 1363.5707,406.94036 1363.9157,406.34836 1364.1957,405.89436 1364.237,405.492 1363.8967,405.072 1364.7227,404.85 1365.3257,404.201 1365.8367,403.559 1366.7325,404.11066 1366.3768,404.83194 1366.8662,405.61418 1367.3328,406.35991 1368.0418,406.55999 1368.6823,407.17827 1368.9304,407.41769 1368.9869,408.13197 1369.9251,408.70955 1370.2274,408.89569 1370.1019,406.85659 1370.7661,406.23418 1371.5218,405.52595 1371.7656,405.06534 1371.8636,403.91627 1372.0307,401.95811 1372.6773,403.34771 1373.1144,403.81209 1373.8453,404.58865 1374.1084,404.70505 1375.0379,404.38736 1376.5408,403.87369 1376.5351,404.97701 1377.5757,405.503 1377.6817,404.844 1378.1897,404.178 1377.3507,403.796 1376.5997,403.454 1377.5957,402.10809 1378.0757,402.01209 1378.5507,401.91709 1379.0739,402.61727 1379.5149,402.73827 1380.4859,403.00527 1379.5849,401.41782 1379.6818,401.09736 1379.8706,400.47606 1379.9569,400.27088 1380.0607,399.98291 1380.6907,400.04571 1382.2715,400.52909 1382.6345,400.71509 1383.5875,401.20409 1384.2377,399.946 1384.7957,399.444 1385.5407,398.775 1386.7127,398.965 1387.6167,399.018 1389.0827,399.105 1390.4877,398.006 1391.9067,398.302 1390.3347,399.245 1393.5278,401.70153 1394.4128,401.98253 1397.0748,402.82653 1398.9418,401.97353 1401.5998,402.74652 1401.4888,403.75352 1400.4049,404.4439 1399.8967,405.071 1400.4927,405.408 1401.0887,405.784 1401.7667,405.935 1401.1907,406.611 1400.309,407.586 1401.5567,407.951 1400.8169,408.91389 1402.0236,409.27455 1402.4222,409.35427 1403.3675,409.5433 1403.6365,411.11004 1402.1967,410.831 1403.2037,408.754 1400.4827,409.92 1399.9667,410.111 1399.7487,408.678 1398.0087,409.983 1397.5027,410.301 1396.9477,410.65 1396.3677,410.973 1395.7827,411.267 1395.3947,411.462 1392.1017,412.526 1394.1367,411.477 1393.5907,411.59 1392.8617,411.516 1392.4067,411.91 1392.0847,412.189 1392.2367,413.34 1391.6167,413.206 1391.6067,413.539 1392.8387,415.25 1392.9577,415.283 1394.7847,415.785 1393.6287,418.438 1392.5567,417.238 1390.4697,420.924 1395.1547,424.426 1397.6797,426.037 1398.9157,426.826 1400.9167,427.381 1401.7837,428.618 1403.0477,430.419 1403.7157,432.788 1404.4567,434.843 1405.4077,437.481 1408.8737,440.18 1411.3417,441.314 1413.1687,442.154 1414.1417,442.413 1416.1737,442.141 1416.9327,442.04 1420.2827,441.547 1419.8677,443.286 1419.6697,444.116 1417.2957,444.888 1418.1647,445.903 1419.1027,446.998 1421.5867,447.621 1422.8597,448.075 1424.8897,448.8 1426.7157,449.517 1428.4147,450.871 1430.1477,452.252 1432.2757,452.662 1433.9667,454.187 1435.1037,455.212 1436.6187,456.286 1436.3347,457.994 1436.2697,458.382 1436.1887,460.128 1435.6057,460.186 1434.8117,460.265 1433.8297,459.793 1433.4087,459.103 1432.4897,457.597 1432.5507,455.853 1430.2757,456.082 1428.4487,456.266 1428.0807,455.073 1427.8257,454.39 1425.8977,454.715 1425.4747,454.696 1424.2597,456.488 1423.5077,457.599 1422.9607,458.993 1422.6857,460.308 1422.3707,461.815 1424.2917,462.182 1425.3317,462.66 1427.0017,463.427 1427.3037,464.62 1427.4677,466.308 1427.7437,469.158 1422.8137,467.109 1423.2757,470.55 1423.5017,472.233 1423.0467,472.365 1421.9727,473.508 1421.0647,474.476 1420.3607,475.67 1419.2767,476.464 1418.2577,477.211 1417.3967,476.791 1416.8857,475.702 1416.1087,474.044 1418.5157,473.275 1418.6377,471.767 1418.6787,471.255 1418.4297,470.638 1418.7837,470.181 1419.3737,469.417 1420.5317,469.988 1420.8467,469.005 1421.1207,468.149 1420.0447,467.178 1419.8337,466.396 1419.5057,465.181 1419.4007,464.113 1418.7447,463.003 1417.9587,461.673 1417.8417,459.68 1416.7967,458.556 1416.1737,457.887 1415.7397,458.046 1415.1507,458.535 1414.4477,459.12 1413.7247,457.932 1413.2637,457.562 1412.7417,457.144 1411.8927,457.254 1411.7317,456.413 1411.5997,455.72 1412.0537,455.513 1411.6857,454.661 1410.8907,452.822 1408.8217,452.779 1407.3077,453.741 1408.0847,452.562 1407.8377,451.456 1406.2377,451.617 1405.0457,451.736 1404.3717,449.977 1403.9407,449.155 1403.1757,447.694 1402.2697,448.544 1401.0207,448.176 1400.3537,447.98 1399.7317,447.666 1399.0147,447.837 1397.5127,448.194 1398.4757,447.996 1397.4407,447.151 1396.4137,446.314 1395.1157,446.084 1394.0957,445.16 1392.9627,444.135 1392.2967,442.619 1391.0567,441.754 1389.9807,441.002 1389.5627,441.193 1388.8447,440.019 1388.0957,438.793 1386.1737,437.353 1384.7087,438.261 1385.5487,436.854 1382.1217,433.222 1380.8537,433.402 1381.0037,433.381 1378.9787,427.645 1378.9017,427.272 1378.2067,423.895 1375.9067,424.272 1373.4787,422.637 1370.9667,420.946 1367.7737,420.027 1365.6657,422.756 1364.9167,423.725 1364.2957,424.843 1363.1797,425.445 1362.7847,425.659 1359.1704,426.80528 1359.4169,425.87946 1359.5979,425.19963 1362.2977,422.20476 1359.0847,423.34181 1357.1633,424.02178 1353.5423,420.98964 1355.9242,419.02164 1356.7789,418.31541 1356.6248,417.73137 1355.6122,417.22064 1353.9418,416.37814 1353.4556,415.09597 1353.6777,415.008" id="path2906"/>
    <path d="M 1379.738,435.456 C 1379.029,435.022 1378.186,435.404 1377.508,434.88 1378.235,434.54 1379.09,434.619 1379.738,434.088 1379.814,434.544 1379.814,435 1379.738,435.456" id="path2912"/>
    </g>
  <g class="landxx coastxx hrv" id="hr" transform="translate(-29.9017,-45.0745)">
    <title>Croatia</title>
    <path class="landxx hrv" d="M 1401.337,411.84 C 1401.831,411.955 1402.3193,412.08445 1402.817,412.191 1403.4639,412.3295 1403.9702,411.70835 1404.3154,411.58745 1404.4887,411.52675 1405.9437,412.92305 1408.0448,410.23818 1409.3489,411.51588 1410.4094,411.05393 1411.824,411.84 1413.6727,412.86731 1412.7556,410.59955 1413.577,410.4 1413.219,410.319 1412.918,410.012 1412.567,409.896 1415.4212,407.84864 1416.0964,410.00736 1415.0612,406.11118 1414.9294,405.61502 1417.4336,405.16889 1417.8427,404.77737 1418.4714,404.1757 1417.8207,404.38636 1418.4742,403.95736 1418.4842,403.95336 1419.461,404.204 1419.628,404.209 1417.7315,402.04246 1421.2982,402.90731 1422.0113,403.62174 1422.5151,404.12647 1425.2338,405.75581 1425.5945,406.24818 1427.0418,407.8758 1429.1484,408.67346 1431.4092,409.40936 1436.7919,409.70923 1434.352,408.2964 1436.7348,407.96846 1436.6798,407.4488 1437.1135,408.55045 1437.4217,409.199 1437.8667,410.1353 1437.4607,411.353 1438.847,411.409 1436.555,413.002 1441.5985,413.9125 1441.0656,414.24327 L 1438.847,414.793 C 1439.574,415.984 1438.6439,417.94173 1437.1279,416.76773 1436.132,414.99792 1436.1613,415.93186 1435.659,415.45064 1434.723,415.10764 1433.8626,414.91087 1432.9167,415.15945 1431.8897,415.42935 1431.9561,414.63975 1430.9541,415.19185 1430.2138,415.59972 1429.7078,415.17625 1429.0048,415.0083 1427.3101,414.9718 1425.8213,414.42702 1424.2335,413.97339 1423.0619,414.07912 1424.6853,414.57294 1422.8695,414.07921 1421.5399,413.71765 1421.4344,414.05821 1420.9779,414.88166 1419.9959,416.65304 1419.8539,415.87358 1418.1566,414.61741 1415.9727,413.00116 1416.2733,415.96173 1416.4067,417.06494 1416.4887,417.74688 1416.2825,417.87141 1416.9878,418.17539 1417.6198,418.44779 1418.6854,419.12326 1419.1329,419.74165 1420.0647,421.0294 1419.0939,422.82911 1421.0798,423.99012 1422.9791,425.10031 1424.0529,426.95102 1425.8113,428.26484 1427.2273,429.32284 1427.8765,430.63443 1429.0999,431.70085 1430.5765,432.98784 1429.8367,434.47027 1428.165,432.52003 1426.436,430.5029 1422.129,427.54703 1419.34,428.58603 1418.609,428.85803 1418.225,428.57703 1417.757,427.96903 1417.175,427.21403 1417.536,427.01203 1416.434,426.46503 1414.826,425.66603 1412.62,423.85503 1411.987,422.13703 1412.987,421.96503 1413.891,422.10903 1414.877,422.28203 1413.581,421.33003 1411.983,420.61703 1411.079,419.22003 1410.324,418.05303 1410.823,416.55803 1410.089,415.40103 1409.443,414.38403 1408.001,413.41203 1406.841,413.09503 1405.987,412.86203 1405.205,415.31903 1405.368,415.94603 1405.001,415.79403 1404.865,415.90303 1404.578,415.58603 1404.468,416.41003 1404.27,417.29203 1403.638,417.89003 1403.126,417.49503 1401.474,415.45103 1402.268,414.79403 1401.357,415.00503 1400.916,412.50703 1400.688,411.77003 1400.904,411.79203 1401.121,411.81503 1401.337,411.84003" id="path4066"/>
    <path d="M 1406.667,415.944 C 1406.26,415.507 1406.141,415.004 1406.307,414.431 1407.139,415.803 1407.285,417.391 1407.747,418.895 1406.794,418.752 1405.864,416.649 1406.667,415.944" id="path4070"/>
    <path d="M 1407.888,420.408 C 1407.502,419.91 1407.095,419.43 1406.668,418.968 1407.184,419.336 1407.617,419.833 1407.888,420.408" id="path4072"/>
    <path d="M 1408.538,415.944 C 1407.892,415.875 1406.739,414.55 1407.818,414.215 1408.569,413.982 1409.146,415.658 1409.688,415.944 1409.298,416.342 1408.914,416.342 1408.538,415.944" id="path4074"/>
    <path d="M 1409.038,417.384 C 1409.278,417.528 1409.518,417.672 1409.758,417.816 1409.11,418.122 1408.871,417.978 1409.038,417.384" id="path4076"/>
    <path d="M 1410.478,422.784 C 1410.238,422.592 1409.998,422.4 1409.758,422.208 1410.075,422.308 1410.315,422.5 1410.478,422.784" id="path4078"/>
    <path d="M 1411.198,420.696 C 1410.498,420.024 1409.796,419.326 1409.328,418.464 1410.208,419.684 1411.758,420.126 1412.638,421.344 1411.938,421.881 1411.523,421.228 1411.198,420.696" id="path4080"/>
    </g>
  <g id="nl" transform="translate(-29.9017,-45.0745)">
    <title>Netherlands</title>
    <g class="landxx coastxx nlx eu nld" id="nlx">
      <path class="landxx nlx eu nld" d="M 1354.7858,344.93451 C 1352.2738,345.25451 1349.2619,345.44555 1347.4279,347.35355 1346.5859,348.22955 1345.3287,349.07162 1344.1017,349.26862 1343.2987,349.39762 1342.4937,349.62414 1342.1866,350.47814 1341.1407,353.39214 1340.3132,355.21589 1338.0541,357.43288 1337.1791,358.29088 1339.3574,358.98437 1339.8684,359.14636 1341.0824,359.53137 1342.594,358.55674 1342.993,359.44874 1341.428,359.14874 1339.7697,360.61472 1338.2557,359.95271 1339.6077,360.81371 1338.0354,360.17848 1337.4494,360.55747 1338.0124,360.95147 1339.0748,360.7552 1339.1629,361.6662 1338.0539,362.0142 1337.406,360.91688 1336.643,360.35588 1335.69,360.35588 1334.4976,360.04843 1333.9216,361.06144 1334.6516,362.02444 1336.0132,361.82699 1337.0462,361.76699 1337.8982,361.71799 1340.6401,363.17262 1340.4732,361.46461 1340.9962,361.86161 1341.7646,362.06983 1342.1866,361.36382 1342.5406,362.22682 1343.8373,361.94783 1344.3033,361.36382 1344.8513,363.39082 1347.8005,363.37024 1349.5446,364.08524 1348.3593,365.45439 1347.2082,367.474 1350.2501,367.51221 1351.5613,367.52871 1350.0272,365.47217 1350.2501,365.09317 1350.9399,363.92069 1352.3358,362.68824 1351.8628,361.16223 1351.6218,360.38423 1351.0882,359.43537 1350.2501,359.14636 1350.1731,357.37936 1352.0625,359.22006 1351.5604,357.83605 1352.1454,358.13505 1355.5667,358.48468 1355.7937,357.53367 1355.8957,357.10567 1355.1707,356.56137 1355.7937,356.22336 1356.0657,356.13336 1356.2613,355.98118 1356.4993,355.82019 1359.0653,353.25619 1354.5798,353.27783 1355.2898,352.09083 1355.8208,351.20283 1357.6268,352.22528 1357.7088,351.38528 1357.8168,350.26228 1358.4568,349.43348 1358.7167,348.36148 1359.1168,346.71248 1356.3889,344.7315 1354.7858,344.93451 z M 1348.4358,352.09083 C 1348.6762,352.06273 1348.9649,352.06963 1349.2422,352.19163 1350.0762,352.55864 1349.7232,353.11694 1349.2422,353.50194 1348.7712,353.87894 1348.3071,354.34146 1347.8311,354.71146 1347.119,355.26646 1345.9804,354.17649 1345.2104,354.20749 1345.4474,353.6945 1345.9768,353.36356 1346.5208,353.19956 1347.1868,352.85006 1347.7149,352.17512 1348.4358,352.09083 z" id="path6484"/>
    </g>
    </g>
  <path class="landxx eu svn" d="M 1371.0014,362.58227 C 1370.8698,361.96351 1371.4584,361.20919 1371.8663,360.86155 1371.1883,360.71055 1370.5923,360.33455 1369.9963,359.99755 1371.5081,358.35249 1370.7903,357.34841 1372.6623,357.79941 1373.3643,357.96841 1377.5543,359.44355 1378.1553,358.91155 1379.3503,357.85155 1380.4153,356.68255 1382.1433,356.79055 1383.0543,356.84755 1384.1583,357.29755 1385.0173,356.77455 1385.8983,356.23855 1386.9593,356.19055 1387.8573,356.75755 1387.0863,355.79055 1388.2873,354.27055 1389.3343,355.10755 1390.1473,355.75855 1391.1491,357.39128 1391.7551,358.27028 1390.9491,358.14728 1388.3073,357.47055 1389.7273,359.13355 1388.9273,359.10355 1388.4803,358.57455 1388.1473,359.50055 1387.9613,360.01755 1385.9703,360.48655 1385.3803,360.84255 1384.9223,361.11955 1385.7623,362.48555 1385.7263,363.07555 1385.6713,363.99655 1383.5233,364.06555 1382.6673,364.82055 1383.0183,364.93655 1383.3183,365.24355 1383.6773,365.32455 1383.0373,365.45555 1383.5003,367.76355 1382.2643,366.97255 1380.8453,366.06455 1379.4763,366.48155 1378.1273,365.18055 1377.6713,366.28455 1376.0803,367.22955 1374.8633,366.68455 1374.3623,366.46055 1374.3753,366.44555 1373.9793,366.83755 1373.3783,367.43255 1372.1213,366.92355 1371.4373,366.76455 1372.1933,366.09755 1373.7483,365.84555 1373.1673,364.82055 1372.7093,364.00955 1370.6223,364.22255 1371.6573,362.87755" id="si">
    <title>Slovenia</title>
  </path>
  <g id="sm">
    <title>San Marino</title>
    <path class="world_map-is_selected landxx smr" d="M 1363.2352,381.46247 1363.7119,380.77194 1364.3883,381.30769 1363.8343,381.90329 1363.2352,381.46247 z" id="sm-"/>
    <circle class="world_map-is_selected circlexx smr" cx="1364.4362" cy="380.69287" id="sm." r="6.0130301" rx="6.0130301" ry="6.0130301"/>
  </g>
  <g id="va">
    <title>Holy See (Vatican City State)</title>
    <circle class="circlexx vat" cx="1364.5283" cy="398.09601" id="va." r="6.0130301" rx="6.0130301" ry="6.0130301"/>
  </g>
  </svg>