<svg xmlns="http://www.w3.org/2000/svg" class="world_map zoom6 zoom5 zoom4 zoom3 zoom2" height="127" id="svg2985" version="1.1" viewBox="1362 379 3 3" width="127">
  <title>World Map</title>
  <defs id="defs2987"/>
  <style id="style_css_sheet" type="text/css">
/*
 * Below are Cascading Style Sheet (CSS) definitions in use in this file,
 * which allow easily changing how countries are displayed.
 *
 */
/* --- Custom styles for Peace Corps --- */
.world_map .world_map-is_selected {
  fill: #C94112 !important;
}
.world_map .landxx {
  fill: #F2EFE8;
  stroke: #ffffff;
  fill-rule: evenodd;
}
.world_map.zoom6 .landxx {
  stroke-width: 0.1px;
}
.world_map.zoom5 .landxx {
  stroke-width: 1px;
}
.world_map.zoom4 .landxx {
  stroke-width: 2px;
}
.world_map.zoom3 .landxx {
  stroke-width: 3px;
}
.world_map.zoom2 .landxx {
  stroke-width: 4px;
}
.world_map.zoom1 .landxx {
  stroke-width: 5px;
}
.world_map .coastxx {
  fill: #F2EFE8;
  stroke: #ffffff;
  stroke-width: 2px;
  fill-rule: evenodd;
}
.world_map .oceanxx {
  opacity: 1;
  color: #ccc;
  fill: #ffffff;
  stroke: #ffffff;
  stroke-width: 0.5;
  stroke-miterlimit: 1;
}

/* --- Original Styles --- *
/*
 * Circles around small countries
 *
 * Change opacity to 1 to display all circles.
 *
 */
.circlexx
{
   opacity:0;
   fill:#e0e0e0;
   stroke:#000000;
   stroke-width:0.5;
}

/*
 * Smaller circles around French DOMs and Chinese SARs
 *
 * Change opacity to 1 to display all subnational circles.
 *
 */
.subxx
{
   opacity:0;
   stroke-width:0.3;
}

/*
 * Circles around small, unrecognized countries
 *
 * Change opacity to 1 to display all circles.
 *
 */
.unxx
{
   opacity:0;
   fill:#e0e0e0;
   stroke:#000000;
   stroke-width:0.3;
}

/*
 * Circles around small countries, but with no permanent residents 
 *
 * Change opacity to 1 to display all circles.
 *
 */
.noxx
{
   opacity:0;
   fill:#e0e0e0;
   stroke:#000000;
   stroke-width:0.5;
}

/*
 * land
 */
.landxx
{
}
/*
 * Styles for coastlines of islands with no borders
 */


/*
 * Styles for nations with limited recognition
 */
.limitxx
{
   fill: #e0e0e0;
   stroke:#ffffff;
   stroke-width:0;
   fill-rule:evenodd;
}

/*
 * Styles for nations with no permanent population.
 */
.antxx
{
   fill: #e0e0e0;
   stroke:#ffffff;
   stroke-width:0;
   fill-rule:evenodd;
}

/*
 * Ocean
 */


/*
 * Additional style rules
 *
 * The following are examples of colouring countries.  You can substitute these with your own styles to colour the countries on the map.
 *
 * Color a few countries:
 *
 * .gb, .au, .nc
 * {
 *    fill:       #ff0000;
 * }
 *
 * Color a few small country circles (and the countries):
 *
 * .ms, .ky
 * {
 *    opacity:    1;
 *    fill:       #ff0000;
 * }
 *
 */

</style>
  <path class="oceanxx" d="M 2079.5058,1457.5605 615.24779,1457.5605 C 615.13079,1457.5605 615.07079,1457.5505 614.95179,1457.5215 611.67679,1456.6515 608.40179,1455.7815 605.12779,1454.9105 599.15079,1453.3225 593.22879,1451.5225 587.30779,1449.7385 564.39379,1442.8315 541.76579,1434.6995 519.46979,1426.0115 495.81079,1416.7935 472.34979,1407.0946 449.19179,1396.6816 426.78379,1386.6056 405.17679,1375.0536 383.76379,1363.0356 363.11779,1351.4496 343.01079,1338.8296 323.37979,1325.5996 302.29179,1311.3876 281.47879,1296.8506 261.05379,1281.7006 242.35079,1267.8276 223.73679,1253.6306 206.05279,1238.4686 186.98679,1222.1216 167.82379,1205.7706 150.35279,1187.6906 132.97779,1169.7106 116.33279,1151.0606 100.15679,1131.9976 84.352777,1113.3736 70.086776,1093.4716 56.901786,1072.9246 44.046786,1052.8916 32.093776,1032.1356 22.469776,1010.3426 17.516776,999.12753 12.408776,987.76556 8.7017761,976.06056 5.0657761,964.58166 1.5997761,953.04259 -1.5932239,941.43054 -8.0102239,918.09356 -14.055224,894.78356 -18.234224,870.92056 -22.491222,846.60856 -24.894222,822.19856 -26.943222,797.62156 -28.947222,773.58556 -28.829222,749.40156 -27.225222,725.34856 -25.648222,701.69856 -23.363222,677.92456 -19.274222,654.56456 -15.018224,630.25156 -9.3842239,606.45156 -2.8412239,582.66156 3.5687761,559.35256 10.483776,536.34856 20.265776,514.19856 30.320776,491.42956 42.318786,469.90956 55.502786,448.81656 68.512776,428.00356 83.108777,408.26756 98.686787,389.31756 113.73479,371.01156 129.68979,353.25256 146.15179,336.20856 163.77479,317.96256 182.64579,301.14556 201.89579,284.64756 220.33379,268.84456 239.55379,253.98456 258.95979,239.39656 278.42779,224.76056 298.39379,210.83356 318.55579,197.17556 339.26979,183.14456 360.47879,169.92056 382.15079,157.42556 403.46579,145.13656 425.31479,133.98856 447.60479,123.59356 469.58579,113.34356 492.14979,104.17656 514.74579,95.37556 537.44879,86.532565 560.37879,78.195565 583.63479,70.914565 589.69379,69.017565 595.80079,67.276565 601.90879,65.549565 604.63079,64.779565 607.36079,64.045565 610.09479,63.318565 611.59979,62.918565 613.56579,61.986565 615.13379,61.986565 L 2079.9638,61.986565 C 2079.9798,61.986565 2079.9958,61.986565 2080.0118,61.986565 2079.8448,61.986565 2079.6788,61.986565 2079.5118,61.986565 2102.8268,68.191565 2125.8778,75.323565 2148.5448,83.611565 2171.6378,92.054565 2194.6158,100.87956 2217.2348,110.52956 2240.5208,120.46556 2263.4848,130.95256 2285.8828,142.76456 2306.9808,153.89056 2327.8178,165.78556 2347.8608,178.72156 2368.9418,192.32656 2389.7498,206.29256 2410.2218,220.80056 2429.7368,234.62956 2448.9938,248.98756 2467.6208,263.99256 2486.8818,279.50856 2506.0408,295.30556 2524.0538,312.27356 2541.8708,329.05756 2558.7508,346.67256 2574.9408,365.03656 2591.2478,383.53256 2607.1478,402.30656 2621.4508,422.41856 2635.3488,441.96256 2648.4468,462.42756 2659.5898,483.67756 2671.1238,505.67356 2681.1048,528.35656 2688.6188,552.05056 2692.2518,563.50656 2695.3368,575.14756 2698.5608,586.72256 2701.7738,598.25356 2704.9238,609.81956 2707.4578,621.52456 2712.6258,645.40556 2716.6718,669.47856 2719.1178,693.79656 2721.5718,718.19256 2723.1798,742.56356 2722.9808,767.09056 2722.7908,790.65456 2720.6908,814.43756 2717.7688,837.81156 2714.7368,862.07056 2710.5198,886.16156 2704.6398,909.90056 2701.6808,921.84356 2698.3948,933.69556 2695.0378,945.53154 2691.7468,957.13466 2688.5558,968.83466 2684.3988,980.16156 2676.0918,1002.8036 2666.1688,1024.8836 2654.1338,1045.8046 2641.9958,1066.9066 2628.8498,1087.4866 2614.2378,1106.9696 2599.1658,1127.0666 2582.6678,1145.9446 2565.8948,1164.6296 2549.8298,1182.5266 2532.8918,1199.7316 2514.8648,1215.6616 2496.0788,1232.2646 2476.8978,1248.3126 2457.1558,1263.7656 2438.2988,1278.5276 2418.9668,1292.7306 2399.3188,1306.4206 2378.7018,1320.7866 2357.7538,1334.6106 2336.4758,1347.9776 2326.4088,1354.3016 2316.0058,1360.1326 2305.6418,1365.9516 2295.0348,1371.9086 2284.3858,1378.0166 2273.4448,1383.3436 2250.7338,1394.3986 2227.7768,1404.7266 2204.3888,1414.2665 2181.7848,1423.4875 2159.0678,1432.2695 2136.0228,1440.3345 2117.4118,1446.8465 2098.5568,1452.4975 2079.5058,1457.5605" id="ocean"/>
  <g class="landxx coastxx eu ita" id="it" transform="translate(-29.9017,-45.0745)">
    <title>Italy</title>
    <path class="landxx eu ita" d="M 1353.5711,414.65164 C 1354.5811,413.57664 1357.2431,414.48464 1357.1191,412.24764 1357.0691,411.34564 1356.411,410.95 1355.838,410.332 1355.527,410.013 1355.1701,409.64432 1354.9011,409.28932 1355.7468,408.80713 1356.603,407.74092 1356.0773,407.16239 1356.9793,407.40239 1357.971,408.279 1358.939,407.942 1360.155,407.518 1360.7132,407.72227 1361.8742,407.80927 1362.6372,407.86627 1363.5707,406.94036 1363.9157,406.34836 1364.1957,405.89436 1364.237,405.492 1363.8967,405.072 1364.7227,404.85 1365.3257,404.201 1365.8367,403.559 1366.7325,404.11066 1366.3768,404.83194 1366.8662,405.61418 1367.3328,406.35991 1368.0418,406.55999 1368.6823,407.17827 1368.9304,407.41769 1368.9869,408.13197 1369.9251,408.70955 1370.2274,408.89569 1370.1019,406.85659 1370.7661,406.23418 1371.5218,405.52595 1371.7656,405.06534 1371.8636,403.91627 1372.0307,401.95811 1372.6773,403.34771 1373.1144,403.81209 1373.8453,404.58865 1374.1084,404.70505 1375.0379,404.38736 1376.5408,403.87369 1376.5351,404.97701 1377.5757,405.503 1377.6817,404.844 1378.1897,404.178 1377.3507,403.796 1376.5997,403.454 1377.5957,402.10809 1378.0757,402.01209 1378.5507,401.91709 1379.0739,402.61727 1379.5149,402.73827 1380.4859,403.00527 1379.5849,401.41782 1379.6818,401.09736 1379.8706,400.47606 1379.9569,400.27088 1380.0607,399.98291 1380.6907,400.04571 1382.2715,400.52909 1382.6345,400.71509 1383.5875,401.20409 1384.2377,399.946 1384.7957,399.444 1385.5407,398.775 1386.7127,398.965 1387.6167,399.018 1389.0827,399.105 1390.4877,398.006 1391.9067,398.302 1390.3347,399.245 1393.5278,401.70153 1394.4128,401.98253 1397.0748,402.82653 1398.9418,401.97353 1401.5998,402.74652 1401.4888,403.75352 1400.4049,404.4439 1399.8967,405.071 1400.4927,405.408 1401.0887,405.784 1401.7667,405.935 1401.1907,406.611 1400.309,407.586 1401.5567,407.951 1400.8169,408.91389 1402.0236,409.27455 1402.4222,409.35427 1403.3675,409.5433 1403.6365,411.11004 1402.1967,410.831 1403.2037,408.754 1400.4827,409.92 1399.9667,410.111 1399.7487,408.678 1398.0087,409.983 1397.5027,410.301 1396.9477,410.65 1396.3677,410.973 1395.7827,411.267 1395.3947,411.462 1392.1017,412.526 1394.1367,411.477 1393.5907,411.59 1392.8617,411.516 1392.4067,411.91 1392.0847,412.189 1392.2367,413.34 1391.6167,413.206 1391.6067,413.539 1392.8387,415.25 1392.9577,415.283 1394.7847,415.785 1393.6287,418.438 1392.5567,417.238 1390.4697,420.924 1395.1547,424.426 1397.6797,426.037 1398.9157,426.826 1400.9167,427.381 1401.7837,428.618 1403.0477,430.419 1403.7157,432.788 1404.4567,434.843 1405.4077,437.481 1408.8737,440.18 1411.3417,441.314 1413.1687,442.154 1414.1417,442.413 1416.1737,442.141 1416.9327,442.04 1420.2827,441.547 1419.8677,443.286 1419.6697,444.116 1417.2957,444.888 1418.1647,445.903 1419.1027,446.998 1421.5867,447.621 1422.8597,448.075 1424.8897,448.8 1426.7157,449.517 1428.4147,450.871 1430.1477,452.252 1432.2757,452.662 1433.9667,454.187 1435.1037,455.212 1436.6187,456.286 1436.3347,457.994 1436.2697,458.382 1436.1887,460.128 1435.6057,460.186 1434.8117,460.265 1433.8297,459.793 1433.4087,459.103 1432.4897,457.597 1432.5507,455.853 1430.2757,456.082 1428.4487,456.266 1428.0807,455.073 1427.8257,454.39 1425.8977,454.715 1425.4747,454.696 1424.2597,456.488 1423.5077,457.599 1422.9607,458.993 1422.6857,460.308 1422.3707,461.815 1424.2917,462.182 1425.3317,462.66 1427.0017,463.427 1427.3037,464.62 1427.4677,466.308 1427.7437,469.158 1422.8137,467.109 1423.2757,470.55 1423.5017,472.233 1423.0467,472.365 1421.9727,473.508 1421.0647,474.476 1420.3607,475.67 1419.2767,476.464 1418.2577,477.211 1417.3967,476.791 1416.8857,475.702 1416.1087,474.044 1418.5157,473.275 1418.6377,471.767 1418.6787,471.255 1418.4297,470.638 1418.7837,470.181 1419.3737,469.417 1420.5317,469.988 1420.8467,469.005 1421.1207,468.149 1420.0447,467.178 1419.8337,466.396 1419.5057,465.181 1419.4007,464.113 1418.7447,463.003 1417.9587,461.673 1417.8417,459.68 1416.7967,458.556 1416.1737,457.887 1415.7397,458.046 1415.1507,458.535 1414.4477,459.12 1413.7247,457.932 1413.2637,457.562 1412.7417,457.144 1411.8927,457.254 1411.7317,456.413 1411.5997,455.72 1412.0537,455.513 1411.6857,454.661 1410.8907,452.822 1408.8217,452.779 1407.3077,453.741 1408.0847,452.562 1407.8377,451.456 1406.2377,451.617 1405.0457,451.736 1404.3717,449.977 1403.9407,449.155 1403.1757,447.694 1402.2697,448.544 1401.0207,448.176 1400.3537,447.98 1399.7317,447.666 1399.0147,447.837 1397.5127,448.194 1398.4757,447.996 1397.4407,447.151 1396.4137,446.314 1395.1157,446.084 1394.0957,445.16 1392.9627,444.135 1392.2967,442.619 1391.0567,441.754 1389.9807,441.002 1389.5627,441.193 1388.8447,440.019 1388.0957,438.793 1386.1737,437.353 1384.7087,438.261 1385.5487,436.854 1382.1217,433.222 1380.8537,433.402 1381.0037,433.381 1378.9787,427.645 1378.9017,427.272 1378.2067,423.895 1375.9067,424.272 1373.4787,422.637 1370.9667,420.946 1367.7737,420.027 1365.6657,422.756 1364.9167,423.725 1364.2957,424.843 1363.1797,425.445 1362.7847,425.659 1359.1704,426.80528 1359.4169,425.87946 1359.5979,425.19963 1362.2977,422.20476 1359.0847,423.34181 1357.1633,424.02178 1353.5423,420.98964 1355.9242,419.02164 1356.7789,418.31541 1356.6248,417.73137 1355.6122,417.22064 1353.9418,416.37814 1353.4556,415.09597 1353.6777,415.008" id="path2906"/>
    </g>
  <g id="sm">
    <title>San Marino</title>
    <path class="world_map-is_selected landxx smr" d="M 1363.2352,381.46247 1363.7119,380.77194 1364.3883,381.30769 1363.8343,381.90329 1363.2352,381.46247 z" id="sm-"/>
    </g>
  </svg>