<svg xmlns="http://www.w3.org/2000/svg" class="world_map zoom4" height="127" id="svg2985" version="1.1" viewBox="1347 363 33 33" width="127">
  <title>World Map</title>
  <defs id="defs2987"/>
  <defs>
    <link xmlns="http://www.w3.org/1999/xhtml" href="../css/svg.css" type="text/css" rel="stylesheet"/>
  </defs>
  <style id="style_css_sheet" type="text/css">
/*
 * Below are Cascading Style Sheet (CSS) definitions in use in this file,
 * which allow easily changing how countries are displayed.
 *
 */
/* --- Custom styles for Peace Corps --- */
.world_map .world_map-is_selected {
  fill: #C94112 !important;
}
.world_map .landxx {
  fill: #F2EFE8;
  stroke: #ffffff;
  fill-rule: evenodd;
}
.world_map.zoom4 .landxx {
  stroke-width: 2px;
}
.world_map.zoom3 .landxx {
  stroke-width: 3px;
}
.world_map.zoom2 .landxx {
  stroke-width: 4px;
}
.world_map.zoom1 .landxx {
  stroke-width: 5px;
}
.world_map .coastxx {
  fill: #F2EFE8;
  stroke: #ffffff;
  stroke-width: 2px;
  fill-rule: evenodd;
}
.world_map .oceanxx {
  opacity: 1;
  color: #ccc;
  fill: #ffffff;
  stroke: #ffffff;
  stroke-width: 0.5;
  stroke-miterlimit: 1;
}

/* --- Original Styles --- *
/*
 * Circles around small countries
 *
 * Change opacity to 1 to display all circles.
 *
 */
.circlexx
{
   opacity:0;
   fill:#e0e0e0;
   stroke:#000000;
   stroke-width:0.5;
}

/*
 * Smaller circles around French DOMs and Chinese SARs
 *
 * Change opacity to 1 to display all subnational circles.
 *
 */
.subxx
{
   opacity:0;
   stroke-width:0.3;
}

/*
 * Circles around small, unrecognized countries
 *
 * Change opacity to 1 to display all circles.
 *
 */
.unxx
{
   opacity:0;
   fill:#e0e0e0;
   stroke:#000000;
   stroke-width:0.3;
}

/*
 * Circles around small countries, but with no permanent residents 
 *
 * Change opacity to 1 to display all circles.
 *
 */
.noxx
{
   opacity:0;
   fill:#e0e0e0;
   stroke:#000000;
   stroke-width:0.5;
}

/*
 * land
 */
.landxx
{
}
/*
 * Styles for coastlines of islands with no borders
 */


/*
 * Styles for nations with limited recognition
 */
.limitxx
{
   fill: #e0e0e0;
   stroke:#ffffff;
   stroke-width:0;
   fill-rule:evenodd;
}

/*
 * Styles for nations with no permanent population.
 */
.antxx
{
   fill: #e0e0e0;
   stroke:#ffffff;
   stroke-width:0;
   fill-rule:evenodd;
}

/*
 * Ocean
 */


/*
 * Additional style rules
 *
 * The following are examples of colouring countries.  You can substitute these with your own styles to colour the countries on the map.
 *
 * Color a few countries:
 *
 * .gb, .au, .nc
 * {
 *    fill:       #ff0000;
 * }
 *
 * Color a few small country circles (and the countries):
 *
 * .ms, .ky
 * {
 *    opacity:    1;
 *    fill:       #ff0000;
 * }
 *
 */

</style>
  <path class="oceanxx" d="M 2079.5058,1457.5605 615.24779,1457.5605 C 615.13079,1457.5605 615.07079,1457.5505 614.95179,1457.5215 611.67679,1456.6515 608.40179,1455.7815 605.12779,1454.9105 599.15079,1453.3225 593.22879,1451.5225 587.30779,1449.7385 564.39379,1442.8315 541.76579,1434.6995 519.46979,1426.0115 495.81079,1416.7935 472.34979,1407.0946 449.19179,1396.6816 426.78379,1386.6056 405.17679,1375.0536 383.76379,1363.0356 363.11779,1351.4496 343.01079,1338.8296 323.37979,1325.5996 302.29179,1311.3876 281.47879,1296.8506 261.05379,1281.7006 242.35079,1267.8276 223.73679,1253.6306 206.05279,1238.4686 186.98679,1222.1216 167.82379,1205.7706 150.35279,1187.6906 132.97779,1169.7106 116.33279,1151.0606 100.15679,1131.9976 84.352777,1113.3736 70.086776,1093.4716 56.901786,1072.9246 44.046786,1052.8916 32.093776,1032.1356 22.469776,1010.3426 17.516776,999.12753 12.408776,987.76556 8.7017761,976.06056 5.0657761,964.58166 1.5997761,953.04259 -1.5932239,941.43054 -8.0102239,918.09356 -14.055224,894.78356 -18.234224,870.92056 -22.491222,846.60856 -24.894222,822.19856 -26.943222,797.62156 -28.947222,773.58556 -28.829222,749.40156 -27.225222,725.34856 -25.648222,701.69856 -23.363222,677.92456 -19.274222,654.56456 -15.018224,630.25156 -9.3842239,606.45156 -2.8412239,582.66156 3.5687761,559.35256 10.483776,536.34856 20.265776,514.19856 30.320776,491.42956 42.318786,469.90956 55.502786,448.81656 68.512776,428.00356 83.108777,408.26756 98.686787,389.31756 113.73479,371.01156 129.68979,353.25256 146.15179,336.20856 163.77479,317.96256 182.64579,301.14556 201.89579,284.64756 220.33379,268.84456 239.55379,253.98456 258.95979,239.39656 278.42779,224.76056 298.39379,210.83356 318.55579,197.17556 339.26979,183.14456 360.47879,169.92056 382.15079,157.42556 403.46579,145.13656 425.31479,133.98856 447.60479,123.59356 469.58579,113.34356 492.14979,104.17656 514.74579,95.37556 537.44879,86.532565 560.37879,78.195565 583.63479,70.914565 589.69379,69.017565 595.80079,67.276565 601.90879,65.549565 604.63079,64.779565 607.36079,64.045565 610.09479,63.318565 611.59979,62.918565 613.56579,61.986565 615.13379,61.986565 L 2079.9638,61.986565 C 2079.9798,61.986565 2079.9958,61.986565 2080.0118,61.986565 2079.8448,61.986565 2079.6788,61.986565 2079.5118,61.986565 2102.8268,68.191565 2125.8778,75.323565 2148.5448,83.611565 2171.6378,92.054565 2194.6158,100.87956 2217.2348,110.52956 2240.5208,120.46556 2263.4848,130.95256 2285.8828,142.76456 2306.9808,153.89056 2327.8178,165.78556 2347.8608,178.72156 2368.9418,192.32656 2389.7498,206.29256 2410.2218,220.80056 2429.7368,234.62956 2448.9938,248.98756 2467.6208,263.99256 2486.8818,279.50856 2506.0408,295.30556 2524.0538,312.27356 2541.8708,329.05756 2558.7508,346.67256 2574.9408,365.03656 2591.2478,383.53256 2607.1478,402.30656 2621.4508,422.41856 2635.3488,441.96256 2648.4468,462.42756 2659.5898,483.67756 2671.1238,505.67356 2681.1048,528.35656 2688.6188,552.05056 2692.2518,563.50656 2695.3368,575.14756 2698.5608,586.72256 2701.7738,598.25356 2704.9238,609.81956 2707.4578,621.52456 2712.6258,645.40556 2716.6718,669.47856 2719.1178,693.79656 2721.5718,718.19256 2723.1798,742.56356 2722.9808,767.09056 2722.7908,790.65456 2720.6908,814.43756 2717.7688,837.81156 2714.7368,862.07056 2710.5198,886.16156 2704.6398,909.90056 2701.6808,921.84356 2698.3948,933.69556 2695.0378,945.53154 2691.7468,957.13466 2688.5558,968.83466 2684.3988,980.16156 2676.0918,1002.8036 2666.1688,1024.8836 2654.1338,1045.8046 2641.9958,1066.9066 2628.8498,1087.4866 2614.2378,1106.9696 2599.1658,1127.0666 2582.6678,1145.9446 2565.8948,1164.6296 2549.8298,1182.5266 2532.8918,1199.7316 2514.8648,1215.6616 2496.0788,1232.2646 2476.8978,1248.3126 2457.1558,1263.7656 2438.2988,1278.5276 2418.9668,1292.7306 2399.3188,1306.4206 2378.7018,1320.7866 2357.7538,1334.6106 2336.4758,1347.9776 2326.4088,1354.3016 2316.0058,1360.1326 2305.6418,1365.9516 2295.0348,1371.9086 2284.3858,1378.0166 2273.4448,1383.3436 2250.7338,1394.3986 2227.7768,1404.7266 2204.3888,1414.2665 2181.7848,1423.4875 2159.0678,1432.2695 2136.0228,1440.3345 2117.4118,1446.8465 2098.5568,1452.4975 2079.5058,1457.5605" id="ocean"/>
  <path class="landxx che" d="M 1319.5263,361.14955 C 1319.7503,360.71455 1319.9933,360.29255 1320.2553,359.88055 1320.5913,359.23355 1320.0754,358.71442 1320.3063,358.10637 1320.6512,357.19711 1322.2119,356.48975 1322.2653,356.20037 1322.4809,355.03381 1323.0602,354.2935 1324.7189,353.3465 1325.6145,352.83511 1326.1857,351.77382 1327.051,350.92655 1325.4385,351.12047 1326.4126,348.59372 1327.7386,349.79255 1329.1655,351.08269 1329.8046,348.96155 1331.1856,348.76655 1330.4656,349.60755 1334.1076,348.96155 1334.7766,348.99655 1336.0756,349.06355 1337.1031,349.10637 1337.3841,348.28037 1336.3901,348.65137 1336.1896,347.72466 1337.0909,347.41473 1337.4567,347.28894 1337.826,347.42473 1338.3911,347.64664 1339.336,348.0181 1340.5408,348.04137 1340.7322,348.11328 1341.8453,348.53126 1343.2346,348.68755 1344.1376,349.47955 1345.3256,350.52055 1343.5606,352.21655 1343.3556,353.37455 1345.6526,353.08555 1345.8406,354.74855 1347.7156,355.11255 1348.5256,355.26955 1348.8466,353.73855 1349.7316,353.98955 1350.7666,354.28255 1349.8816,355.44355 1349.7926,355.97655 1349.7236,356.39055 1350.6326,357.68455 1349.7076,357.70955 1349.0436,357.72755 1348.5256,356.53455 1347.8966,357.09055 1347.6696,357.29055 1346.8906,358.46655 1347.4336,358.71655 1348.3946,359.15755 1347.8256,359.49255 1347.6756,360.42955 1346.7386,360.05355 1346.6996,359.04155 1345.5156,359.27755 1344.3596,359.50755 1344.2326,359.75255 1343.2856,358.84555 1343.1926,358.75655 1342.1626,357.00355 1342.0246,358.43655 1341.8976,359.75055 1341.9226,360.07055 1340.9716,361.06355 1339.7606,362.32955 1340.8496,365.29755 1338.9136,362.46355 1338.4816,361.83255 1337.9716,361.52355 1337.3756,361.07755 1336.4646,360.39755 1336.8276,359.10555 1335.9356,358.48455 1335.4246,359.12655 1334.8216,359.77555 1333.9956,359.99755 1334.8986,361.04455 1332.9196,362.88655 1331.8056,362.78355 1329.7056,362.58955 1327.9706,363.91955 1326.3666,362.22955 1325.8016,361.63355 1325.0166,361.00755 1325.2116,360.06955 1325.4846,358.75855 1324.4485,358.44362 1323.3275,358.55719 1321.447,358.74772 1321.7671,361.09335 1319.5266,361.14955" id="ch">
    <title>Switzerland</title>
  </path>
  <g class="landxx coastxx eu deu" id="de" transform="translate(-29.9017,-45.0745)">
    <title>Germany</title>
    <path class="landxx eu deu" d="M 1366.5765,332.3355 C 1365.9045,332.6125 1365.8348,333.57077 1365.9718,334.14978 1365.9718,333.75778 1366.3315,333.41727 1366.7781,333.24264 1366.4563,333.13649 1366.2923,332.82357 1366.5765,332.3355 z M 1367.4837,333.14185 C 1367.2681,333.14085 1367.0772,333.17705 1366.8789,333.24264 1367.2555,333.33454 1367.7879,333.27464 1368.0884,333.24264 1367.8913,333.15954 1367.6992,333.14324 1367.4837,333.14185 z M 1369.2312,333.03494 C 1368.6027,332.97024 1368.8234,333.17943 1368.1892,333.24264 1368.6052,333.45464 1369.06,334.75471 1369.298,335.15771 1369.509,335.51271 1370.4901,336.20362 1370.2051,336.66961 1369.7361,337.43661 1368.4208,337.01193 1367.8869,337.97993 1368.5929,338.27793 1369.2895,338.14693 1370.0035,337.97993 1368.4035,338.71593 1370.1297,339.22058 1370.4067,340.09659 1369.7297,340.06259 1369.4785,340.48872 1370.0035,341.00373 1370.5765,341.56473 1371.4132,341.39149 1372.1202,341.60849 1372.8712,341.83949 1373.2528,342.43959 1373.7329,343.01959 1374.3089,343.71459 1375.0797,343.79791 1375.7487,344.32991 1374.0127,344.14091 1373.552,342.69587 1372.221,341.91087 1371.348,341.39687 1370.3348,342.00387 1369.3988,341.91087 1368.3088,341.80287 1367.2505,341.4498 1367.0805,342.9188 1367.0125,343.5048 1367.4947,343.9665 1367.4837,344.53149 1367.3247,344.95249 1367.2623,345.3988 1367.1813,345.84181 1367.1113,345.11381 1367.2888,344.41653 1366.4757,344.02753 1365.5217,343.57153 1365.1782,344.47426 1365.7702,345.13625 1365.2442,345.26925 1364.7931,345.15885 1364.3591,344.83387 1366.7281,343.23387 1360.3128,342.98239 1359.6218,343.12039 1358.8278,343.27839 1357.4902,344.54764 1357.5051,345.43863 1357.5181,346.17764 1360.2801,346.56941 1359.8234,346.34577 1358.7044,345.79777 1357.9386,350.03046 1357.7067,350.98227 1357.4077,352.20932 1356.373,351.29697 1355.4893,351.88941 1354.1137,352.81162 1356.6798,353.24357 1357.0246,353.81671 1358.0119,355.45789 1354.592,355.94809 1355.6553,357.17241 1356.6936,358.36803 1352.0498,358.08896 1351.4158,357.76495 1351.8348,358.91794 1351.069,357.90997 1350.248,358.44098 1350.33,358.70825 1350.0408,358.7749 1350.248,359.14653 1351.167,359.46253 1352.2863,361.62283 1351.7833,362.59184 1351.3323,363.45984 1349.5692,364.73247 1350.4196,365.9175 1350.8753,366.55258 1350.5196,367.43276 1350.6095,367.6661 1350.8839,368.37676 1352.5419,368.41245 1351.7599,369.42745 1352.7489,369.26044 1352.6606,370.39852 1352.9516,371.0045 1349.9792,370.9765 1349.478,373.32542 1352.3162,374.7094 1354.3119,375.68254 1352.3171,377.56012 1353.0413,378.41186 1353.1517,378.54172 1355.0752,380.91604 1355.5565,380.83702 1356.2536,380.72255 1355.7018,380.29811 1356.7166,380.43174 1357.2579,380.50304 1356.7166,381.39185 1357.6415,381.15512 1357.985,381.06702 1358.4747,381.16412 1358.8277,381.12562 1360.1107,380.68162 1360.2424,381.37619 1361.4244,381.7482 1362.4904,382.08319 1363.8203,382.22699 1364.9282,382.412 1364.0272,383.20699 1363.176,383.99265 1362.444,384.94966 1361.605,386.04564 1361.3173,387.71434 1360.7595,388.92846 1360.3865,389.74045 1358.9898,395.60017 1361.0802,393.83729 1360.3582,394.67628 1363.9945,394.08685 1364.6615,394.12185 1365.9605,394.18985 1367.1029,394.14155 1367.3829,393.3155 1365.8239,393.89649 1366.3462,391.79773 1368.1892,392.71074 1369.4892,393.35576 1372.6354,393.75049 1373.9604,394.52049 1374.7734,394.99249 1379.0952,394.70071 1377.9662,396.64168 1379.5302,396.59568 1379.6371,395.17603 1379.9821,394.02106 1380.6471,394.61604 1382.1718,394.60401 1383.0059,394.52502 1382.2819,394.88301 1384.1508,395.42316 1384.5178,395.43216 1385.3787,395.45216 1385.9242,394.70681 1386.7352,394.62582 1388.3062,394.4678 1389.8313,393.25148 1391.5733,393.81947 1391.5533,393.55047 1391.5453,393.27212 1391.4725,393.01312 1392.2815,393.11312 1393.0685,393.51709 1393.8915,393.51709 1394.2905,393.38107 1394.6871,393.2947 1395.1011,393.21471 1395.5501,393.26571 1395.737,394.13923 1396.109,394.42423 1397.231,395.28521 1397.2201,394.84846 1397.5201,393.81947 1397.8191,392.79347 1396.5419,393.18858 1396.613,392.30757 1396.7,391.23258 1396.7384,391.27851 1395.9074,390.3925 1395.2814,389.72449 1395.7054,389.20562 1396.4114,388.8806 1397.2184,388.50961 1399.8383,388.06173 1399.8383,386.86473 1399.8383,384.75774 1401.2828,386.59122 1402.0558,385.65521 1403.4608,383.9552 1401.0142,382.77142 1399.9391,382.12744 1398.6831,381.37444 1397.6155,380.33161 1396.3106,379.60761 1394.6716,378.6966 1394.3428,376.62448 1392.7828,375.77746 1394.0128,374.79946 1393.4398,373.99543 1392.2788,373.35842 1391.3806,372.86487 1391.1803,371.97292 1390.7669,371.24176 1391.4203,371.14636 1391.9268,371.40661 1392.178,372.35049 1392.431,369.69548 1395.8437,370.72905 1397.2177,369.62907 1399.4107,367.87307 1403.0744,366.90372 1405.6844,365.89971 1405.4504,365.67771 1405.2248,365.50495 1404.9788,365.29495 1405.9788,365.05895 1406.2212,364.77183 1407.0838,365.90583 1409.2044,368.63969 1410.5465,363.57785 1409.4967,362.26557 1409.3647,361.44957 1408.0639,361.40925 1407.9909,360.75925 1407.8909,359.87625 1407.9589,359.57319 1407.2971,358.84418 1406.853,358.35618 1407.5187,357.9635 1407.7002,357.49876 1408.7413,354.83351 1406.077,354.11832 1406.7753,353.31837 1408.1753,351.71448 1404.3134,351.15562 1403.781,349.64805 1404.4923,349.08975 1406.739,345.64153 1405.2812,345.43866 1404.9842,344.32966 1404.6499,343.15525 1403.4669,342.71724 1402.7389,342.44824 1401.5541,342.25113 1401.451,341.30614 1401.398,340.81414 1401.1761,339.29026 1400.4431,339.29027 1399.9961,339.29027 1399.0913,339.29927 1399.3344,339.79424 1398.5254,339.32324 1396.7772,337.24262 1396.0082,337.17361 1394.3932,337.02861 1393.2853,337.16011 1392.0773,338.38313 1391.8812,337.02813 1394.1493,336.93182 1395.0003,337.07282 1393.3463,336.45682 1393.1077,336.93217 1391.8757,337.87916 1391.2947,338.32716 1390.0178,338.82624 1390.3638,339.79424 1390.5248,338.16024 1387.2836,339.61561 1386.5336,340.09662 1388.0046,339.38162 1386.3744,340.58113 1386.1304,341.30614 1385.5315,340.74414 1382.0273,339.96313 1382.8043,341.30614 1382.6613,340.78914 1382.3034,340.51 1381.7963,340.399 1382.7713,339.398 1383.651,338.73441 1383.913,337.2744 1382.586,337.5374 1381.8,338.068 1380.486,337.47599 1379.668,337.10699 1378.3672,336.60738 1377.9662,337.77837 1377.8602,337.25837 1377.8358,337.22843 1378.1678,336.77044 1377.4958,336.47144 1376.7101,336.50044 1376.0511,336.77044 1376.5531,336.53444 1377.6963,335.02596 1376.4543,335.05695 1378.4503,334.14995 1371.6583,333.5442 1371.9303,333.69319 1371.3258,333.36219 1369.8927,333.10309 1369.2312,333.03497 z" id="path3884"/>
    </g>
  <g id="nl" transform="translate(-29.9017,-45.0745)">
    <title>Netherlands</title>
    <g class="landxx coastxx nlx eu nld" id="nlx">
      <path class="landxx nlx eu nld" d="M 1354.7858,344.93451 C 1352.2738,345.25451 1349.2619,345.44555 1347.4279,347.35355 1346.5859,348.22955 1345.3287,349.07162 1344.1017,349.26862 1343.2987,349.39762 1342.4937,349.62414 1342.1866,350.47814 1341.1407,353.39214 1340.3132,355.21589 1338.0541,357.43288 1337.1791,358.29088 1339.3574,358.98437 1339.8684,359.14636 1341.0824,359.53137 1342.594,358.55674 1342.993,359.44874 1341.428,359.14874 1339.7697,360.61472 1338.2557,359.95271 1339.6077,360.81371 1338.0354,360.17848 1337.4494,360.55747 1338.0124,360.95147 1339.0748,360.7552 1339.1629,361.6662 1338.0539,362.0142 1337.406,360.91688 1336.643,360.35588 1335.69,360.35588 1334.4976,360.04843 1333.9216,361.06144 1334.6516,362.02444 1336.0132,361.82699 1337.0462,361.76699 1337.8982,361.71799 1340.6401,363.17262 1340.4732,361.46461 1340.9962,361.86161 1341.7646,362.06983 1342.1866,361.36382 1342.5406,362.22682 1343.8373,361.94783 1344.3033,361.36382 1344.8513,363.39082 1347.8005,363.37024 1349.5446,364.08524 1348.3593,365.45439 1347.2082,367.474 1350.2501,367.51221 1351.5613,367.52871 1350.0272,365.47217 1350.2501,365.09317 1350.9399,363.92069 1352.3358,362.68824 1351.8628,361.16223 1351.6218,360.38423 1351.0882,359.43537 1350.2501,359.14636 1350.1731,357.37936 1352.0625,359.22006 1351.5604,357.83605 1352.1454,358.13505 1355.5667,358.48468 1355.7937,357.53367 1355.8957,357.10567 1355.1707,356.56137 1355.7937,356.22336 1356.0657,356.13336 1356.2613,355.98118 1356.4993,355.82019 1359.0653,353.25619 1354.5798,353.27783 1355.2898,352.09083 1355.8208,351.20283 1357.6268,352.22528 1357.7088,351.38528 1357.8168,350.26228 1358.4568,349.43348 1358.7167,348.36148 1359.1168,346.71248 1356.3889,344.7315 1354.7858,344.93451 z M 1348.4358,352.09083 C 1348.6762,352.06273 1348.9649,352.06963 1349.2422,352.19163 1350.0762,352.55864 1349.7232,353.11694 1349.2422,353.50194 1348.7712,353.87894 1348.3071,354.34146 1347.8311,354.71146 1347.119,355.26646 1345.9804,354.17649 1345.2104,354.20749 1345.4474,353.6945 1345.9768,353.36356 1346.5208,353.19956 1347.1868,352.85006 1347.7149,352.17512 1348.4358,352.09083 z" id="path6484"/>
    </g>
    </g>
  <path class="landxx eu svn" d="M 1371.0014,362.58227 C 1370.8698,361.96351 1371.4584,361.20919 1371.8663,360.86155 1371.1883,360.71055 1370.5923,360.33455 1369.9963,359.99755 1371.5081,358.35249 1370.7903,357.34841 1372.6623,357.79941 1373.3643,357.96841 1377.5543,359.44355 1378.1553,358.91155 1379.3503,357.85155 1380.4153,356.68255 1382.1433,356.79055 1383.0543,356.84755 1384.1583,357.29755 1385.0173,356.77455 1385.8983,356.23855 1386.9593,356.19055 1387.8573,356.75755 1387.0863,355.79055 1388.2873,354.27055 1389.3343,355.10755 1390.1473,355.75855 1391.1491,357.39128 1391.7551,358.27028 1390.9491,358.14728 1388.3073,357.47055 1389.7273,359.13355 1388.9273,359.10355 1388.4803,358.57455 1388.1473,359.50055 1387.9613,360.01755 1385.9703,360.48655 1385.3803,360.84255 1384.9223,361.11955 1385.7623,362.48555 1385.7263,363.07555 1385.6713,363.99655 1383.5233,364.06555 1382.6673,364.82055 1383.0183,364.93655 1383.3183,365.24355 1383.6773,365.32455 1383.0373,365.45555 1383.5003,367.76355 1382.2643,366.97255 1380.8453,366.06455 1379.4763,366.48155 1378.1273,365.18055 1377.6713,366.28455 1376.0803,367.22955 1374.8633,366.68455 1374.3623,366.46055 1374.3753,366.44555 1373.9793,366.83755 1373.3783,367.43255 1372.1213,366.92355 1371.4373,366.76455 1372.1933,366.09755 1373.7483,365.84555 1373.1673,364.82055 1372.7093,364.00955 1370.6223,364.22255 1371.6573,362.87755" id="si">
    <title>Slovenia</title>
  </path>
  <g id="sm">
    <title>San Marino</title>
    <path class="world_map-is_selected landxx smr" d="M 1363.2352,381.46247 1363.7119,380.77194 1364.3883,381.30769 1363.8343,381.90329 1363.2352,381.46247 z" id="sm-"/>
    <circle class="world_map-is_selected circlexx smr" cx="1364.4362" cy="380.69287" id="sm." r="6.0130301" rx="6.0130301" ry="6.0130301"/>
  </g>
  <g id="va">
    <title>Holy See (Vatican City State)</title>
    <circle class="circlexx vat" cx="1364.5283" cy="398.09601" id="va." r="6.0130301" rx="6.0130301" ry="6.0130301"/>
  </g>
  </svg>