<svg xmlns="http://www.w3.org/2000/svg" class="world_map zoom3 zoom2" height="127" id="svg2985" version="1.1" viewBox="1512 549 219 331" width="127">
  <title>World Map</title>
  <defs id="defs2987"/>
  <style id="style_css_sheet" type="text/css">
/*
 * Below are Cascading Style Sheet (CSS) definitions in use in this file,
 * which allow easily changing how countries are displayed.
 *
 */
/* --- Custom styles for Peace Corps --- */
.world_map .world_map-is_selected.circlexx {
  opacity:1;
}
.world_map .world_map-is_selected.landxx {
  fill: #C94112 !important;
}
.world_map .landxx {
  fill: #F2EFE8;
  stroke: #ffffff;
  fill-rule: evenodd;
}
.world_map.zoom6 .landxx {
  stroke-width: 0.1px;
}
.world_map.zoom5 .landxx {
  stroke-width: 1px;
}
.world_map.zoom4 .landxx {
  stroke-width: 2px;
}
.world_map.zoom3 .landxx {
  stroke-width: 3px;
}
.world_map.zoom2 .landxx {
  stroke-width: 4px;
}
.world_map.zoom1 .landxx {
  stroke-width: 5px;
}
.world_map .coastxx {
  fill: #F2EFE8;
  stroke: #ffffff;
  stroke-width: 2px;
  fill-rule: evenodd;
}
.world_map .oceanxx {
  opacity: 1;
  color: #ccc;
  fill: #ffffff;
  stroke: #ffffff;
  stroke-width: 0.5;
  stroke-miterlimit: 1;
}

/* --- Original Styles --- *
/*
 * Circles around small countries
 *
 * Change opacity to 1 to display all circles.
 *
 */
.circlexx
{
   opacity:0;
   fill-opacity:0;
   fill:#e0e0e0;
   stroke:#000000;
   stroke-width:0.5;
}

/*
 * Smaller circles around French DOMs and Chinese SARs
 *
 * Change opacity to 1 to display all subnational circles.
 *
 */
.subxx
{
   opacity:0;
   stroke-width:0.3;
}

/*
 * Circles around small, unrecognized countries
 *
 * Change opacity to 1 to display all circles.
 *
 */
.unxx
{
   opacity:0;
   fill:#e0e0e0;
   stroke:#000000;
   stroke-width:0.3;
}

/*
 * Circles around small countries, but with no permanent residents 
 *
 * Change opacity to 1 to display all circles.
 *
 */
.noxx
{
   opacity:0;
   fill:#e0e0e0;
   stroke:#000000;
   stroke-width:0.5;
}

/*
 * land
 */
.landxx
{
}
/*
 * Styles for coastlines of islands with no borders
 */


/*
 * Styles for nations with limited recognition
 */
.limitxx
{
   fill: #e0e0e0;
   stroke:#ffffff;
   stroke-width:0;
   fill-rule:evenodd;
}

/*
 * Styles for nations with no permanent population.
 */
.antxx
{
   fill: #e0e0e0;
   stroke:#ffffff;
   stroke-width:0;
   fill-rule:evenodd;
}

/*
 * Ocean
 */


/*
 * Additional style rules
 *
 * The following are examples of colouring countries.  You can substitute these with your own styles to colour the countries on the map.
 *
 * Color a few countries:
 *
 * .gb, .au, .nc
 * {
 *    fill:       #ff0000;
 * }
 *
 * Color a few small country circles (and the countries):
 *
 * .ms, .ky
 * {
 *    opacity:    1;
 *    fill:       #ff0000;
 * }
 *
 */

</style>
  <path class="oceanxx" d="M 2079.5058,1457.5605 615.24779,1457.5605 C 615.13079,1457.5605 615.07079,1457.5505 614.95179,1457.5215 611.67679,1456.6515 608.40179,1455.7815 605.12779,1454.9105 599.15079,1453.3225 593.22879,1451.5225 587.30779,1449.7385 564.39379,1442.8315 541.76579,1434.6995 519.46979,1426.0115 495.81079,1416.7935 472.34979,1407.0946 449.19179,1396.6816 426.78379,1386.6056 405.17679,1375.0536 383.76379,1363.0356 363.11779,1351.4496 343.01079,1338.8296 323.37979,1325.5996 302.29179,1311.3876 281.47879,1296.8506 261.05379,1281.7006 242.35079,1267.8276 223.73679,1253.6306 206.05279,1238.4686 186.98679,1222.1216 167.82379,1205.7706 150.35279,1187.6906 132.97779,1169.7106 116.33279,1151.0606 100.15679,1131.9976 84.352777,1113.3736 70.086776,1093.4716 56.901786,1072.9246 44.046786,1052.8916 32.093776,1032.1356 22.469776,1010.3426 17.516776,999.12753 12.408776,987.76556 8.7017761,976.06056 5.0657761,964.58166 1.5997761,953.04259 -1.5932239,941.43054 -8.0102239,918.09356 -14.055224,894.78356 -18.234224,870.92056 -22.491222,846.60856 -24.894222,822.19856 -26.943222,797.62156 -28.947222,773.58556 -28.829222,749.40156 -27.225222,725.34856 -25.648222,701.69856 -23.363222,677.92456 -19.274222,654.56456 -15.018224,630.25156 -9.3842239,606.45156 -2.8412239,582.66156 3.5687761,559.35256 10.483776,536.34856 20.265776,514.19856 30.320776,491.42956 42.318786,469.90956 55.502786,448.81656 68.512776,428.00356 83.108777,408.26756 98.686787,389.31756 113.73479,371.01156 129.68979,353.25256 146.15179,336.20856 163.77479,317.96256 182.64579,301.14556 201.89579,284.64756 220.33379,268.84456 239.55379,253.98456 258.95979,239.39656 278.42779,224.76056 298.39379,210.83356 318.55579,197.17556 339.26979,183.14456 360.47879,169.92056 382.15079,157.42556 403.46579,145.13656 425.31479,133.98856 447.60479,123.59356 469.58579,113.34356 492.14979,104.17656 514.74579,95.37556 537.44879,86.532565 560.37879,78.195565 583.63479,70.914565 589.69379,69.017565 595.80079,67.276565 601.90879,65.549565 604.63079,64.779565 607.36079,64.045565 610.09479,63.318565 611.59979,62.918565 613.56579,61.986565 615.13379,61.986565 L 2079.9638,61.986565 C 2079.9798,61.986565 2079.9958,61.986565 2080.0118,61.986565 2079.8448,61.986565 2079.6788,61.986565 2079.5118,61.986565 2102.8268,68.191565 2125.8778,75.323565 2148.5448,83.611565 2171.6378,92.054565 2194.6158,100.87956 2217.2348,110.52956 2240.5208,120.46556 2263.4848,130.95256 2285.8828,142.76456 2306.9808,153.89056 2327.8178,165.78556 2347.8608,178.72156 2368.9418,192.32656 2389.7498,206.29256 2410.2218,220.80056 2429.7368,234.62956 2448.9938,248.98756 2467.6208,263.99256 2486.8818,279.50856 2506.0408,295.30556 2524.0538,312.27356 2541.8708,329.05756 2558.7508,346.67256 2574.9408,365.03656 2591.2478,383.53256 2607.1478,402.30656 2621.4508,422.41856 2635.3488,441.96256 2648.4468,462.42756 2659.5898,483.67756 2671.1238,505.67356 2681.1048,528.35656 2688.6188,552.05056 2692.2518,563.50656 2695.3368,575.14756 2698.5608,586.72256 2701.7738,598.25356 2704.9238,609.81956 2707.4578,621.52456 2712.6258,645.40556 2716.6718,669.47856 2719.1178,693.79656 2721.5718,718.19256 2723.1798,742.56356 2722.9808,767.09056 2722.7908,790.65456 2720.6908,814.43756 2717.7688,837.81156 2714.7368,862.07056 2710.5198,886.16156 2704.6398,909.90056 2701.6808,921.84356 2698.3948,933.69556 2695.0378,945.53154 2691.7468,957.13466 2688.5558,968.83466 2684.3988,980.16156 2676.0918,1002.8036 2666.1688,1024.8836 2654.1338,1045.8046 2641.9958,1066.9066 2628.8498,1087.4866 2614.2378,1106.9696 2599.1658,1127.0666 2582.6678,1145.9446 2565.8948,1164.6296 2549.8298,1182.5266 2532.8918,1199.7316 2514.8648,1215.6616 2496.0788,1232.2646 2476.8978,1248.3126 2457.1558,1263.7656 2438.2988,1278.5276 2418.9668,1292.7306 2399.3188,1306.4206 2378.7018,1320.7866 2357.7538,1334.6106 2336.4758,1347.9776 2326.4088,1354.3016 2316.0058,1360.1326 2305.6418,1365.9516 2295.0348,1371.9086 2284.3858,1378.0166 2273.4448,1383.3436 2250.7338,1394.3986 2227.7768,1404.7266 2204.3888,1414.2665 2181.7848,1423.4875 2159.0678,1432.2695 2136.0228,1440.3345 2117.4118,1446.8465 2098.5568,1452.4975 2079.5058,1457.5605" id="ocean"/>
  <path class="landxx sdn" d="M 1459.2027,675.52234 C 1459.5149,675.20908 1459.5678,674.60503 1459.84,674.33263 1460.267,673.90582 1460.9019,673.52581 1461.3272,673.10045 1461.9934,672.4343 1461.3272,671.01024 1462.0069,670.33868 1462.4875,669.85804 1463.9833,670.57178 1464.5564,669.99876 1464.9498,669.6052 1467.2434,668.90432 1467.6156,669.27643 1468.1191,669.78016 1468.0506,671.45357 1468.2952,671.69831 1468.5077,671.90984 1469.2647,671.77521 1469.4426,671.95331 1469.7711,672.28183 1469.7936,672.91034 1469.9948,673.31294 1470.1268,673.58016 1470.4481,673.89368 1470.5898,674.03525 1471.1008,674.54609 1470.8217,675.92378 1471.2698,676.37218 1471.5627,676.66644 1472.5045,677.10948 1472.8418,677.22193 1473.7172,677.51394 1477.234,676.35639 1477.7282,675.86229 1477.8376,675.75376 1478.3987,675.92829 1478.4928,675.94739 1479.8888,676.22651 1481.9862,676.25035 1483.0391,676.07487 1483.5682,676.81755 1483.8588,677.91409 1484.3987,678.45417 1484.9869,679.04224 1488.965,678.67793 1489.7524,678.28418 1490.0196,678.1509 1489.8748,677.52686 1490.0067,677.26442 1490.3622,676.55361 1491.4549,675.62681 1492.2588,675.22496 1493.1844,674.76202 1495.3463,675.15406 1495.8702,674.63011 1496.2305,674.27007 1495.5279,672.29569 1496.0408,671.78334 1496.7285,671.09569 1497.9842,670.54102 1498.6753,670.12626 1500.6338,670.58893 1501.4615,672.06289 1502.6692,673.2705 1503.3456,673.9468 1504.3038,674.26766 1504.8787,674.8426 1505.043,675.00744 1505.2548,674.59374 1505.3034,674.54511 1505.4483,674.40056 1506.7879,674.50261 1507.088,674.50261 1507.4566,674.50261 1508.4475,674.58771 1508.7026,674.33262 1510.0191,673.01618 1511.0776,671.02278 1512.4842,669.61633 1513.1393,668.96105 1513.217,667.35373 1513.8438,666.72709 1515.0089,665.56182 1516.6983,664.49483 1517.2005,662.98802 1515.6825,661.80433 1517.6039,658.37776 1516.6055,657.37957 1516.4735,657.24822 1514.5039,655.52995 1514.566,655.46756 1515.2321,654.80172 1518.8949,655.86014 1519.3672,654.91519 1519.6763,654.29874 1519.2892,653.47434 1519.3672,653.00317 1519.7545,652.79777 1523.3614,652.97097 1523.3614,653.00317 1523.3614,653.76021 1522.6853,656.43753 1522.2992,657.20962 1521.9133,657.98131 1523.1264,662.64298 1523.3614,663.58297 1523.474,664.03276 1523.0685,665.71082 1523.2327,665.87738 1523.5861,666.23102 1524.4811,666.38882 1524.9322,666.72718 1526.7367,668.08064 1527.7429,670.68495 1529.0535,671.9958 1529.4772,672.41933 1529.0155,674.76827 1528.2889,674.16279 1528.4338,678.4323 1528.0313,675.60607 1530.5755,676.45544 1530.6425,675.81573 1530.7739,675.18291 1530.9786,674.55552 L 1530.9786,674.55552 C 1531.4506,673.10552 1532.1456,672.06202 1532.0886,670.49902 1532.0246,668.74202 1531.8593,667.54952 1532.9963,666.11152 1533.8603,665.02052 1535.3343,665.93252 1535.3043,667.14852 1535.9123,666.47952 1536.1956,665.93885 1536.6663,664.95952 1537.8547,662.48718 1536.1042,662.52135 1536.6669,661.85696 1538.0396,660.23622 1537.0066,657.42085 1538.5003,656.43752 1539.9373,655.49154 1540.5143,652.32452 1541.4203,650.88552 1542.3453,649.41752 1543.5423,650.09277 1544.9723,649.89377 1545.9233,649.76077 1545.7506,646.90952 1545.7676,646.24052 1545.8136,644.35252 1546.9159,642.96782 1547.2983,641.17152 1547.8515,638.57489 1547.4343,635.71229 1547.3453,633.89415 1547.2493,631.94338 1546.6479,629.55966 1547.3553,628.23452 1548.3461,626.37848 1548.649,623.85624 1549.4933,621.56752 1549.8215,620.67781 1550.2843,619.70152 1550.4873,618.77252 1550.7093,617.76052 1550.1696,616.96946 1550.3536,615.97246 1550.5416,614.95746 1550.3906,612.87277 1551.324,612.32177 1552.001,611.92177 1553.8822,612.67777 1554.1422,611.76177 1554.6482,609.98177 1554.389,609.79195 1556.351,609.04895 1557.435,608.63795 1559.9024,607.75354 1560.499,606.78558 1560.9528,606.04927 1562.1009,604.06496 1562.3705,603.7719 1562.2035,602.4239 1559.9203,602.57352 1559.8543,601.34152 1558.9203,602.18152 1556.2953,597.80252 1554.8913,597.56352 1552.4613,597.15052 1551.7383,592.44452 1551.6333,590.40552 1551.4833,587.50152 1550.6103,584.88352 1550.9883,582.02852 1551.1563,580.76452 1550.7313,579.32252 1550.2283,578.17652 1549.5323,576.59052 1550.9393,575.87352 1551.2843,577.43752 1551.1903,575.38252 1548.8313,574.08852 1548.2633,572.18152 1547.5773,569.87752 1548.5633,568.99152 1546.4413,567.50852 1544.8403,566.38952 1543.8163,564.27152 1542.1433,563.39752 1540.2743,562.42052 1538.7633,561.65652 1538.2533,559.43752 1537.5793,560.11952 1535.7963,562.80952 1534.7193,562.24552 1533.3073,561.50552 1532.8563,563.37352 1532.5543,564.23252 1531.9713,565.88752 1531.4763,566.83052 1529.6733,567.13952 1527.8873,567.44652 1527.4233,567.82152 1527.0523,569.61652 1526.2413,573.54152 1522.4053,570.54652 1520.5463,569.53352 1518.9343,568.65552 1516.1103,569.32552 1514.3503,569.39852 1512.0513,569.49352 1509.7203,569.54952 1507.4433,569.15752 1508.1962,568.46425 1507.8023,566.01323 1506.6933,567.79152 1505.5966,569.54997 1504.1713,569.22952 1502.3153,569.22952 1497.5753,569.22952 1492.8353,569.22952 1488.0963,569.22952 1478.4383,569.22952 1468.6451,569.13942 1458.9881,569.13942 1459.1821,574.89742 1459.3893,580.74855 1459.4833,586.50955 1456.9903,586.50955 1454.4963,586.50955 1452.0033,586.50955 L 1452.7233,623.73355 C 1451.4863,623.34955 1450.1963,622.87655 1448.9613,623.52155 1447.9423,624.05555 1446.9663,623.46055 1445.9283,623.97455 1443.5073,625.17255 1446.0573,626.98655 1444.5443,628.91455 1443.3313,630.45855 1443.1153,632.13855 1441.3583,633.07155 1440.2523,633.65755 1441.3833,636.40255 1442.0623,637.05255 1439.5433,639.06755 1437.9163,639.75155 1439.7233,643.15555 1440.4113,644.45155 1439.5533,644.99755 1438.4963,645.74355 1437.3673,646.54055 1437.1683,647.56655 1436.6623,648.78954 1437.6423,651.43552 1439.5003,648.94652 1441.1483,649.90152 1442.1233,650.46952 1440.6483,651.40252 1441.0943,652.16752 1441.6433,653.10152 1441.9353,654.34152 1441.6333,655.41052 1441.8923,655.27952 1442.1543,655.15952 1442.4233,655.05052 1443.2073,656.31052 1441.7363,657.70552 1442.3763,658.98152 1443.0103,660.25152 1444.6403,660.42152 1445.1913,661.34452 1446.0003,662.70052 1444.2963,663.94552 1444.8963,665.26352 1445.5163,666.62852 1446.6043,667.65552 1447.6463,668.69652 1449.5093,670.55952 1451.1343,673.31792 1451.1483,675.98492 1451.1663,676.48113 1451.2644,676.96723 1451.2644,677.42439 1451.2744,677.43549 1455.7251,677.42439 1455.7251,677.42439 1456.2355,677.61321 1456.3944,677.18807 1456.7895,676.81802 1457.481,676.75982 1457.6252,677.71703 1458.0313,676.39872 1458.5464,676.07845 1458.845,676.01729 1459.2023,675.52241 z" id="sd">
    <title>Sudan</title>
  </path>
  <path class="landxx ssd" d="M 1455.3606,685.71039 C 1455.3246,686.15771 1455.2221,686.61768 1455.2221,686.86302 1455.2221,688.49822 1457.3648,688.36235 1458.4687,688.53492 1459.2276,688.65368 1460.0802,688.82738 1460.6471,689.38934 1461.2529,689.98924 1461.5019,690.58131 1462.307,691.09618 1463.1067,691.60724 1463.5327,692.00521 1463.5327,692.7223 1463.5327,693.37908 1462.5245,694.09479 1463.0755,694.71067 1464.6387,696.46049 1466.609,697.26701 1468.6243,698.42691 1469.6647,699.02581 1469.3661,699.61676 1470.0008,700.48415 1470.4601,701.11303 1471.6014,701.33463 1471.8816,702.05829 1472.1979,702.87383 1471.0937,703.51863 1471.6949,704.36711 1472.029,704.84025 1472.8678,705.20257 1472.8678,705.86239 1472.8578,707.41356 1474.5037,707.69005 1475.7355,708.58044 1476.8157,709.36101 1478.5219,709.66844 1478.6571,711.25059 1478.7461,712.29168 1478.4394,713.42463 1479.1771,714.313 1479.7141,714.95884 1479.9865,716.06569 1480.6931,716.48294 1481.6745,717.06287 1482.0289,717.44321 1482.1931,718.60781 1482.3667,719.83059 1483.9732,719.968 1484.5723,720.74554 1484.8656,721.12607 1485.6676,721.39799 1486.073,721.6504 1487.608,722.61566 1487.9445,721.96897 1489.3846,721.04477 1491.5683,719.64313 1491.8817,721.14297 1493.7641,721.29879 1495.6604,721.45568 1495.1182,717.6319 1497.3909,719.59036 1498.1375,720.23316 1498.2518,721.06367 1498.7878,721.77538 1499.2879,722.43914 1499.69,723.30988 1500.2521,723.92276 1501.5028,725.29026 1505.1181,725.79206 1504.0009,728.22564 1505.0061,727.99007 1506.1422,728.03398 1506.2967,729.30367 1506.7391,728.21666 1508.1296,726.53999 1509.5411,726.85937 1510.3994,727.05302 1510.7783,728.1789 1511.7644,727.73472 1512.3314,727.4802 1513.3223,726.32402 1513.8822,727.09661 1514.6269,728.12274 1515.1707,728.60593 1516.5081,729.08806 1515.6446,727.04176 1520.0595,727.3222 1522.0457,726.28324 1523.1545,725.70334 1524.3569,727.06646 1525.8106,727.08576 1526.3492,727.09376 1528.0869,725.81409 1528.3508,725.5018 1529.7784,723.81285 1531.6303,720.25411 1533.836,719.92105 1537.2718,719.40226 1541.438,719.72067 1544.9665,719.52944 1544.3307,718.7259 1543.6686,718.134 1543.6686,717.03099 1543.6686,716.15459 1544.2264,715.11247 1543.8908,714.25404 1543.5976,713.49643 1543.8658,713.79175 1543.0068,713.05616 1542.1215,712.29789 1541.1426,712.11223 1540.2957,713.20491 1539.7515,712.67887 1539.999,711.86432 1539.3494,711.5 1538.8002,711.19158 1538.6089,710.40597 1538.3353,709.88193 1537.5976,708.46849 1537.5477,706.88339 1536.8282,705.48592 1536.2232,704.31008 1536.2869,702.39492 1535.0929,701.4909 1533.9985,700.6623 1533.4509,699.7937 1532.5856,699.39631 1531.8794,699.07196 1530.9396,696.81934 1529.9893,695.67641 1529.1381,694.65231 1528.4462,693.79887 1527.0176,693.05922 1525.7272,692.39104 1524.2504,692.67394 1523.0209,691.96024 1521.1433,690.87119 1523.3568,690.09095 1523.553,688.94901 1523.7966,687.5406 1523.521,686.54396 1525.2296,686.47026 1526.3487,686.42136 1527.6502,686.88751 1528.7054,686.77483 1532.165,686.40449 1530.7673,682.33706 1530.5905,680.06621 1530.4808,678.85142 1530.4455,677.64691 1530.5905,676.45776 1528.0353,675.60607 1528.4378,678.4323 1528.2929,674.16279 1529.0195,674.76827 1529.4812,672.41933 1529.0575,671.9958 1527.7469,670.68495 1526.7407,668.08064 1524.9362,666.72718 1524.4851,666.38882 1523.5901,666.23102 1523.2367,665.87738 1523.0725,665.71082 1523.478,664.03276 1523.3654,663.58297 1523.1304,662.64298 1521.9173,657.98131 1522.3032,657.20962 1522.6893,656.43753 1523.3654,653.76021 1523.3654,653.00317 1523.3654,652.97097 1519.7585,652.79777 1519.3712,653.00317 1519.2932,653.47434 1519.6803,654.29874 1519.3712,654.91519 1518.8989,655.86014 1515.2361,654.80172 1514.57,655.46756 1514.508,655.52996 1516.4775,657.24822 1516.6095,657.37957 1517.6079,658.37776 1515.6865,661.80433 1517.2045,662.98802 1516.7023,664.49483 1515.0129,665.56182 1513.8478,666.72709 1513.221,667.35373 1513.1433,668.96105 1512.4882,669.61633 1511.0816,671.02278 1510.0231,673.01618 1508.7066,674.33262 1508.4515,674.58771 1507.4606,674.50261 1507.092,674.50261 1506.7919,674.50261 1505.4523,674.40056 1505.3074,674.54511 1505.2584,674.59371 1505.047,675.00744 1504.8827,674.8426 1504.3078,674.26766 1503.3496,673.9468 1502.6732,673.2705 1501.4655,672.06289 1500.6378,670.58893 1498.6793,670.12626 1497.9882,670.54102 1496.7325,671.09569 1496.0448,671.78334 1495.5319,672.29569 1496.2345,674.27007 1495.8742,674.63011 1495.3503,675.15406 1493.1884,674.76202 1492.2628,675.22496 1491.4589,675.62681 1490.3662,676.55361 1490.0107,677.26442 1489.8788,677.52686 1490.0237,678.1509 1489.7564,678.28418 1488.969,678.67793 1484.9909,679.04224 1484.4027,678.45417 1483.8628,677.91409 1483.5722,676.81755 1483.0431,676.07487 1481.9902,676.25035 1479.8928,676.22651 1478.4968,675.94739 1478.4028,675.92829 1477.8416,675.75376 1477.7322,675.86229 1477.238,676.35639 1473.7212,677.51394 1472.8458,677.22193 1472.5085,677.10948 1471.5667,676.66644 1471.2738,676.37218 1470.8257,675.92378 1471.1048,674.54609 1470.5938,674.03525 1470.4521,673.89368 1470.1308,673.58016 1469.9988,673.31294 1469.7976,672.91034 1469.7751,672.28183 1469.4466,671.95331 1469.2687,671.77521 1468.5117,671.90981 1468.2992,671.69831 1468.0546,671.45357 1468.1231,669.78016 1467.6196,669.27643 1467.2474,668.90432 1464.9538,669.6052 1464.5604,669.99876 1463.9873,670.57178 1462.4915,669.85804 1462.0109,670.33868 1461.3312,671.01024 1461.9969,672.4343 1461.3312,673.10045 1460.9059,673.52581 1460.271,673.90582 1459.844,674.33263 1459.5718,674.60503 1459.5189,675.20908 1459.2067,675.52234 1458.9172,675.81068 1458.762,676.01974 1458.0312,676.4001 1457.5722,677.80447 1457.3756,676.4825 1456.7883,676.81911 1456.6366,677.07317 1456.1989,677.42439 1455.7251,677.42439 L 1451.2645,677.42439 C 1451.1925,678.66886 1450.9011,679.33009 1450.4783,679.63952 1449.8693,680.47252 1449.2473,680.71752 1449.4783,681.90752 1449.7423,681.81252 1450.0043,681.71652 1450.2683,681.62052 1450.4813,682.42052 1450.0413,683.14052 1449.7683,683.85152 1451.0813,684.09052 1454.0813,683.70252 1455.0603,684.75552 1455.3451,684.88907 1455.4267,685.22589 1455.3606,685.71039 z" id="ss">
    <title>South Sudan</title>
  </path>
  <g id="fr">
    <title>France</title>
    <g id="yt">
      <title>Mayotte</title>
      <path class="landxx coastxx eu myt fra" d="M 1613.4263,871.98855 C 1613.9023,871.34555 1614.5063,869.97055 1613.4263,869.53855 1613.1543,870.10155 1613.0153,871.45555 1613.4263,871.98855" id="yt-"/>
      </g>
    </g>
  <path class="landxx pak" d="M 1720.2763,501.18955 C 1723.4543,501.90455 1726.3633,503.46455 1729.4743,504.39655 1733.1793,505.50655 1736.1583,504.36055 1739.8523,504.28755 1741.1653,504.26155 1742.2723,504.79255 1743.5443,504.97855 1744.8513,505.16955 1745.7593,504.24255 1746.9063,503.82555 1748.4183,503.27555 1749.8353,503.89755 1751.3433,503.81955 1752.6153,503.75455 1753.8163,503.10355 1755.0523,502.81855 1756.4873,502.48755 1759.2753,502.24855 1760.1853,500.90255 1760.7293,500.09955 1759.4343,499.66355 1759.5863,498.88555 1759.9543,496.99555 1759.0813,495.47055 1759.2613,493.62955 1759.4453,491.76355 1759.8093,492.18455 1760.9093,491.08055 1761.5863,490.40255 1761.7543,489.27155 1762.6523,488.80255 1763.5903,488.31155 1763.9093,489.30555 1764.8173,489.41055 1766.3643,489.59055 1767.7323,489.09755 1769.0863,488.37455 1768.5283,487.79155 1767.5183,487.75455 1767.2863,486.86255 1768.6163,486.83855 1769.9923,486.00355 1770.7023,484.91555 1771.5423,483.62955 1773.6303,485.81655 1773.6953,484.19855 1774.6863,484.66455 1775.1003,484.44455 1775.7063,485.47855 1776.2173,486.35155 1777.0193,486.05355 1777.7223,485.52555 1779.6043,484.11055 1779.1333,481.49955 1778.3813,479.63155 1777.8993,478.43255 1778.8403,478.24555 1779.0963,477.21355 1779.2953,476.40755 1779.3203,475.18255 1779.0323,474.39455 1778.6883,473.45755 1779.6783,473.29355 1780.3413,473.14555 1781.4393,472.89955 1782.0183,473.26955 1783.0213,472.46655 1784.2433,471.48855 1784.2093,471.43855 1783.7083,470.22955 1783.2893,469.21955 1782.6993,468.10855 1781.7483,467.50855 1779.8843,466.33055 1779.5963,464.63855 1782.2033,465.34955 1783.9793,465.83355 1788.2783,466.40755 1788.7623,463.87955 1788.9063,463.13355 1788.9013,462.57455 1788.3193,462.06955 1788.0703,461.85355 1786.9513,461.12955 1787.1653,460.68355 1787.3573,460.48655 1787.5993,460.40455 1787.8893,460.43755 1787.5523,459.72155 1788.1393,459.17155 1788.5343,458.67055 1788.8993,458.20855 1790.1893,457.15255 1790.1893,456.58555 1790.1993,456.04755 1790.3693,455.56955 1790.7083,455.15255 1790.9693,454.78355 1790.0603,454.40955 1789.9393,454.17355 1789.8343,453.91155 1789.9023,453.71755 1790.1463,453.59255 1790.5483,453.16855 1789.8593,452.30955 1789.7443,451.91155 1789.5893,451.38155 1788.6763,450.12355 1788.3123,449.66655 1787.7903,449.00955 1786.9383,448.56755 1786.3053,448.02255 1785.4463,447.28255 1788.0293,444.11655 1788.8633,444.37655 1790.0103,444.73355 1790.0963,443.48055 1790.7763,442.79355 1791.4963,442.06655 1792.4323,441.59955 1793.3993,441.29455 1795.4763,440.63955 1797.6993,440.63355 1799.8543,440.54955 1800.9463,440.50755 1802.4683,439.93755 1803.4763,440.44255 1804.4663,440.93755 1804.5423,441.21355 1805.4563,440.53555 1806.7083,439.60555 1809.8233,438.05655 1810.7093,440.20555 1811.5993,438.60855 1813.9073,439.92055 1814.6133,441.00455 1815.2643,442.00655 1817.0673,441.45955 1818.1163,442.43755 1818.8603,443.13155 1819.3453,443.92055 1819.6023,444.90355 1819.7903,445.61655 1819.7203,446.83955 1819.9973,447.45155 1820.2983,448.11955 1821.8303,449.02755 1822.4023,449.54155 1823.1393,450.20455 1824.1313,449.09455 1824.8183,448.91755 1824.9515,452.02027 1832.1091,453.05688 1834.5827,452.51609 1833.9316,453.25941 1829.6694,455.25908 1830.0043,456.25755 1830.1566,456.71177 1828.7941,457.93163 1829.3381,457.48973 1829.628,457.25424 1828.5554,458.10932 1828.2498,458.59519 1827.9428,459.08335 1823.5441,459.66657 1822.7753,460.20055 1820.5898,461.71857 1818.651,460.52464 1816.0734,459.98446 1813.9953,459.54896 1811.4418,458.16282 1809.4268,459.40482 1808.0548,460.24982 1807.1323,462.15455 1808.8693,462.88455 1810.4583,463.55255 1808.2543,464.49501 1809.5693,464.91401 1810.0033,465.05201 1812.9539,464.92741 1811.8129,466.05246 1810.7789,467.07346 1809.431,467.79696 1811.3646,468.96064 1813.1757,470.05064 1810.8785,471.55228 1811.8068,472.64528 1812.3611,473.29779 1813.2883,473.65555 1813.9583,474.15855 1814.2623,474.35755 1814.494,474.63281 1814.4913,474.99555 1814.4813,475.75334 1814.7606,475.83817 1815.8493,476.01355 1817.9604,476.35362 1816.8836,478.23623 1818.8105,478.65001 1819.8994,478.88384 1821.9383,479.09555 1822.7163,480.01255 1823.6733,481.14055 1820.6313,482.24155 1820.0183,482.52555 1818.4553,483.25055 1816.6451,484.6879 1818.2493,486.26655 1819.4189,487.41755 1817.8226,490.49255 1819.8573,490.53555 1819.6582,491.36486 1818.2462,492.02102 1817.4758,492.94646 1816.5081,494.10904 1814.2841,496.45695 1815.3551,497.33846 1817.2908,498.93162 1813.6737,499.82659 1812.9008,500.21455 1812.0401,500.6465 1812.0373,502.07255 1811.9023,502.89455 1811.6733,504.28955 1811.2953,505.72555 1810.6663,506.99755 1809.7293,508.88955 1808.1247,509.14401 1806.7947,510.59501 1806.2587,511.17901 1806.0024,512.21709 1805.9344,512.98809 1805.8134,514.34909 1804.3563,515.17573 1803.8733,516.37673 1802.8453,518.92773 1801.3473,518.10755 1798.9203,518.75555 1798.0933,518.97655 1797.1583,519.82655 1796.2673,519.73955 1795.1973,519.63555 1794.7113,518.34355 1794.1803,517.59755 1792.9323,515.84955 1791.0753,518.50255 1790.5903,519.59555 1789.7313,521.53355 1788.3263,523.19555 1787.5453,525.10055 1786.5833,527.44655 1787.9083,528.75855 1790.1483,529.32155 1792.2373,529.84555 1793.2663,529.95455 1793.0683,532.51255 1792.9563,533.97455 1792.6803,537.24555 1795.1903,537.27255 1795.9133,537.28055 1796.7483,536.75455 1797.3883,537.33655 1798.0243,537.91455 1797.5113,539.48855 1798.0753,540.29755 1799.2323,541.96055 1800.5133,543.20455 1801.0583,545.25555 1801.2673,546.04155 1801.7173,545.80655 1800.9513,546.35455 1800.3403,546.79155 1801.3433,548.24755 1801.8583,548.35155 1800.5003,549.37855 1799.0783,550.66455 1797.9273,548.74155 1797.3923,547.84755 1796.5773,548.51655 1795.9023,548.78655 1795.5633,548.88155 1795.2293,548.99455 1794.9013,549.12355 1794.3563,549.40355 1794.7003,550.08155 1794.1133,550.33155 1792.1753,551.15155 1789.9993,549.28255 1787.9673,549.39355 1786.8813,549.45355 1785.4383,549.64455 1784.4283,549.14355 1784.4893,549.94055 1785.2003,552.16755 1783.7563,552.16755 1782.5323,552.16755 1780.6673,552.19755 1780.7583,553.89555 1780.6773,552.91155 1780.5573,552.93555 1780.3983,553.96755 1779.9183,553.54955 1779.6003,552.97555 1779.2493,552.45555 1779.5073,552.90755 1779.5773,553.38855 1779.4593,553.89455 1778.9303,553.56755 1778.4743,553.15955 1778.0893,552.67055 1778.4173,553.98855 1777.3743,553.24555 1776.5793,553.67855 1776.5793,553.29455 1776.5793,552.90955 1776.5793,552.52655 1775.7023,553.15555 1774.5823,551.96755 1775.5793,551.37555 1774.4043,551.59655 1772.7493,549.88555 1773.9893,548.92755 1772.6183,548.14055 1773.3553,545.87255 1772.2223,545.30555 1771.5873,544.98955 1768.3743,544.85155 1768.4663,543.82555 1768.6483,541.74955 1768.1763,541.13655 1767.1483,539.49455 1766.3833,538.27655 1764.0923,537.02355 1763.6983,539.20755 1764.9363,539.14455 1765.7613,538.04455 1766.4283,539.71155 1765.1073,538.85955 1763.6253,539.38455 1762.2653,539.81355 1760.8473,540.26055 1759.4893,539.76655 1758.1433,540.17155 1757.4123,540.39155 1752.3113,540.32155 1753.6183,541.72755 1753.0233,541.90555 1752.6353,541.62455 1752.6083,541.00755 1750.6363,542.02755 1749.0693,539.07855 1747.9993,539.56755 1748.1633,539.80955 1748.3293,540.04955 1748.4993,540.28855 1747.5043,540.49155 1743.4333,539.18455 1744.4693,541.58455 1743.4323,541.05755 1735.6453,540.48055 1736.3293,542.44755 1735.8053,542.42555 1735.3993,541.66455 1734.9743,541.42255 1734.2393,541.00355 1734.2353,541.99155 1733.7853,542.25455 1731.9763,543.30855 1730.6543,542.11155 1730.7153,540.51255 1730.7973,538.35755 1730.2863,530.56655 1734.4603,531.50455 1733.2363,528.29055 1740.6373,530.03155 1740.9983,528.26755 1741.1563,527.49755 1741.4393,524.56455 1741.1113,524.30455 1740.3223,523.67855 1739.2793,524.13255 1738.3873,524.07555 1737.1083,523.99455 1737.2993,521.88755 1737.2683,521.02355 1737.2083,519.36055 1736.6843,517.22355 1736.1613,515.63255 1735.9193,514.89655 1734.6223,514.85055 1733.9733,514.44855 1732.8963,513.78355 1731.7893,513.38155 1730.6483,512.85255 1728.1173,511.68055 1727.0763,509.96655 1725.7933,507.62755 1724.4283,505.14655 1722.2453,503.17255 1720.2763,501.18955" id="pk">
    <title>Pakistan</title>
  </path>
  <g class="landxx coastxx yem" id="ye" transform="translate(-29.9017,-45.0745)">
    <title>Yemen</title>
    <path d="M 1625.188,684.288 C 1625.284,683.957 1625.306,683.621 1625.257,683.28 1624.155,683.457 1624.604,683.897 1625.188,684.288" id="path2190"/>
    <path d="M 1698.268,699.552 C 1698.226,698.774 1697.266,699.048 1696.829,699.12 1697.308,699.264 1697.788,699.408 1698.268,699.552" id="path2192"/>
    <path d="M 1708.918,698.112 C 1710.603,697.725 1713.527,697.91 1714.389,696.024 1713.377,695.417 1712.039,694.487 1710.791,694.768 1710.2,694.902 1709.69,695.289 1709.057,695.228 1708.387,695.165 1707.812,694.58 1707.116,694.706 1706.356,694.843 1705.68,696.323 1706.308,696.877 1706.963,697.458 1708.045,697.987 1708.918,698.112" id="path2194"/>
    <path class="landxx yem" d="M 1702.658,660.279 C 1700.232,660.189 1701.6044,655.21807 1699.1984,654.93507 1700.2778,653.2208 1696.2761,647.90196 1695.5873,646.026 L 1692.7797,639.53725 C 1685.6548,640.93734 1678.4965,642.47056 1671.4847,643.41794 1665.6343,645.22282 1662.6822,648.13037 1661.359,651.297 1660.138,653.121 1659.485,657.727 1656.558,657.55 1654.566,657.43 1654.783,654.443 1652.867,654.669 1650.452,654.954 1648.476,654.909 1646.028,654.565 1644.639,654.37 1643.215,653.381 1641.854,653.381 1640.347,653.381 1638.846,653.526 1637.348,653.668 1635.509,653.842 1633.956,654.668 1632.05,654.563 1631.002,654.505 1630.613,653.339 1629.542,653.206 1628.518,653.078 1627.73,653.769 1627.301,654.635 1626.832,655.58 1626.682,656.726 1626.859,657.764 1626.973,658.436 1627.915,659.103 1627.403,659.792 1626.919,660.445 1626.535,661.116 1626.037,661.796 1625.771,662.168 1625.436,662.461 1625.033,662.676 1624.073,663.156 1624.562,663.521 1624.76,664.574 1625.072,666.242 1624.444,667.015 1624.147,668.535 1623.872,669.942 1625.053,671.165 1624.919,672.564 1624.652,672.324 1623.218,672.287 1623.457,672.846 1623.406,672.729 1624.904,673.572 1624.901,673.568 1625.703,674.424 1626.003,675.31 1626.276,676.43 1626.814,678.626 1626.856,681.074 1627.546,683.21 1627.829,684.087 1628.533,684.743 1628.867,685.598 1629.268,686.629 1628.889,687.747 1628.867,688.802 1628.826,690.889 1631.35,692.645 1630.667,694.765 1631.588,694.836 1632.209,694.319 1633.141,694.691 1634.133,695.087 1634.815,695.414 1635.908,695.197 1638.163,694.75 1639.166,693.174 1641.517,694.407 1641.396,693.767 1642.078,693.117 1642.308,694.048 1642.697,693.62 1642.923,693.123 1643.237,692.647 1643.733,691.894 1644.538,691.911 1645.202,691.409 1646.682,690.291 1646.85,689.164 1648.888,688.696 1650.789,688.259 1652.804,688.176 1654.743,688.354 1655.885,688.458 1657.8,687.148 1658.944,686.824 1660.651,686.341 1661.496,684.864 1662.998,684.032 1663.459,683.777 1664.109,683.2 1664.608,683.051 1665.159,683.069 1665.684,683.2 1666.184,683.442 1666.748,683.469 1667.3,683.401 1667.838,683.239 1671.466,682.655 1672.282,678.901 1675.543,677.3 1677.058,676.556 1678.396,676.368 1680.015,676.085 1682.01,675.737 1683.664,674.399 1685.627,673.931 1686.992,673.605 1688.375,673.348 1689.699,672.87 1691.022,672.392 1691.492,671.338 1692.61,670.767 1693.538,670.293 1695.54,670.352 1695.825,669.092 1696.156,667.632 1695.142,666.304 1695.672,664.815 1696.74,661.806 1700.414,661.925 1702.656,660.279" id="path2592"/>
  </g>
  <g class="landxx coastxx mdg" id="mg" transform="translate(-29.9017,-45.0745)">
    <title>Madagascar</title>
    <path d="M 1625.398,995.613 C 1625.968,998.016 1624.754,1000.946 1626.46,1003.045 1627.293,1004.072 1627.279,1005.225 1627.708,1006.413 1628.102,1007.507 1629.197,1007.679 1628.114,1008.921 1627.052,1010.139 1627.218,1014.094 1627.912,1015.536 1628.543,1016.847 1629.178,1017.82 1629.528,1019.273 1629.982,1021.161 1631.208,1021.69 1632.597,1022.833 1630.846,1021.817 1632.361,1023.176 1632.798,1023.312 1633.439,1023.512 1634.122,1023.444 1634.77,1023.609 1636.342,1024.01 1637.196,1025.746 1638.761,1026.092 1641.472,1026.691 1644.295,1023.231 1646.79,1022.499 1647.707,1022.23 1648.671,1022.776 1649.513,1022.467 1650.181,1022.221 1650.761,1021.777 1651.472,1021.641 1652.47,1021.451 1653.068,1020.266 1653.45,1019.443 1653.965,1018.335 1654.318,1017.156 1654.636,1015.979 1655.075,1014.349 1656.08,1013.026 1656.584,1011.461 1657.513,1008.571 1658.514,1005.778 1659.309,1002.813 1660.44,998.592 1662.141,994.822 1663.601,990.732 1664.785,987.417 1665.459,984.027 1666.925,980.818 1667.353,979.881 1668.165,978.398 1667.738,977.332 1668.242,977.331 1668.813,975.303 1668.939,974.967 1669.783,972.723 1670.239,970.351 1671.156,968.139 1672.496,964.907 1673.709,962.156 1674.407,958.691 1674.928,956.106 1673.161,952.333 1676.304,950.636 1676.92,950.303 1677.599,948.351 1677.674,947.581 1677.744,946.862 1677.585,946.154 1677.713,945.435 1677.886,944.464 1676.691,944.576 1676.706,943.646 1676.719,942.94 1675.991,937.465 1677.745,938.211 1679.25,938.851 1678.733,941.97 1680.187,942.481 1681.814,943.052 1682.878,938.658 1683.059,937.694 1683.319,936.303 1682.389,935.609 1682.009,934.374 1681.315,932.107 1681.38,929.904 1681.296,927.569 1681.141,923.281 1680.116,918.736 1678.387,914.901 1678.142,915.06 1677.906,915.23 1677.676,915.411 1677.867,914.828 1677.62,914.712 1677.264,914.355 1676.684,913.774 1677.588,913.408 1677.069,912.773 1676.573,912.168 1676.256,909.89 1675.006,910.651 1674.931,910.392 1674.907,910.129 1674.937,909.861 1677.108,910.069 1673.946,906.785 1674.305,909.539 1674.446,910.622 1672.213,912.622 1671.187,912.6 1673.117,913.569 1671.866,916.423 1671.477,917.71 1670.906,919.607 1670.934,920.819 1668.596,920.88 1668.881,922.253 1668.446,921.167 1667.792,921.959 1667.317,922.534 1667.297,923.358 1667.086,924.04 1666.502,924.023 1664.353,919.638 1664.046,922.738 1663.935,923.846 1664.32,924.568 1664.716,925.561 1665.072,926.454 1664.437,928.899 1664.277,927.14 1664.116,927.999 1661.454,928.101 1662.504,930.078 1663.062,931.127 1665.191,930.716 1664.347,932.4 1664.637,931.09 1663.281,930.97 1662.472,931.595 1661.34,932.471 1661.437,934.439 1659.888,934.919 1659.683,933.81 1660.755,932.959 1660.537,931.819 1659.424,932.063 1659.683,932.828 1659.237,933.619 1658.804,934.386 1657.548,934.802 1657.367,935.709 1657.241,936.338 1657.901,937.043 1658.163,937.556 1658.674,938.558 1656.867,938.769 1656.287,939.24 1656.405,938.548 1657.67,936.538 1655.892,936.583 1654.871,936.609 1654.05,937.881 1653.274,938.412 1652.755,938.766 1651.36,939.501 1651.503,940.305 1651.575,940.713 1651.241,941.227 1651.388,941.611 1651.594,942.145 1652.315,942.047 1652.478,942.69 1651.682,942.639 1650.851,942.801 1650.707,941.677 1650.526,940.262 1649.14,940.286 1649.087,941.76 1648.753,941.208 1647.158,941.049 1646.601,941.322 1645.898,941.667 1646.166,942.849 1645.638,943.34 1645.638,941.846 1643.926,943.022 1643.827,943.92 1643.585,943.458 1643.298,943.024 1642.967,942.62 1642.106,943.217 1641.444,944.247 1640.443,944.62 1639.504,944.97 1637.838,944.21 1637.075,944.923 1636.702,945.272 1637.019,948.118 1636.708,947.81 1636.982,948.962 1636.158,950.29 1635.6,951.227 1634.666,952.792 1631.672,955.71 1632.821,957.599 1633.614,958.902 1632.923,961.253 1633.05,962.771 1633.196,964.496 1634.433,965.933 1634.426,967.629 1634.416,969.208 1634.32,970.209 1635.174,971.61 1636.092,973.114 1635.569,973.791 1635.117,975.256 1634.793,976.309 1636.119,976.635 1635.494,977.766 1634.828,978.971 1633.96,980.119 1633.236,981.298 1632.459,982.565 1631.498,983.831 1630.942,985.215 1630.513,986.286 1630.865,988.072 1629.506,988.547 1627.873,989.117 1627.487,989.149 1627.329,991.024 1627.198,992.584 1625.783,994.014 1625.398,995.613" id="path2622"/>
    <path d="M 1667.448,920.733 C 1667.804,920.107 1667.375,919.441 1666.948,919.003 1666.241,919.586 1666.404,920.749 1667.448,920.733" id="path2624"/>
    </g>
  <path class="landxx ken" d="M 1530.7577,768.59905 C 1532.2762,767.49265 1528.4746,762.88701 1533.7418,763.9683 1533.7528,763.6813 1534.0422,763.08727 1533.7218,762.543 L 1536.8504,762.13724 C 1534.7732,758.99154 1533.8805,761.45984 1532.8926,762.32309 1532.0484,763.06084 1529.9821,759.79571 1530.0892,757.80592 1530.89,756.36229 1530.3594,755.70587 1531.8512,754.35255 1532.9583,753.34816 1533.8379,750.03562 1535.6352,749.22655 1536.488,748.84268 1536.3622,748.71155 1536.3152,747.95755 1536.2432,746.79355 1537.5992,746.23355 1537.8962,745.19755 1538.2492,743.96655 1538.3505,742.76055 1538.4725,741.52555 1538.5815,740.41455 1537.4642,739.62827 1537.2312,738.38255 1536.7084,735.58772 1534.9882,734.98055 1534.7312,733.74955 1534.5292,732.77255 1533.9852,731.94355 1533.6572,731.01355 1533.4382,730.60455 1533.3152,730.16955 1533.2872,729.70655 1533.2872,729.08355 1533.9852,728.72955 1533.7972,728.06055 1533.6302,727.47055 1532.9842,727.31555 1532.4862,727.12955 1531.3562,726.70855 1532.1832,725.85055 1530.9872,725.97255 1531.4761,724.85155 1530.0812,723.77355 1530.2151,722.99055 1530.3494,722.20529 1531.3062,721.59055 1531.8402,721.03055 1533.7032,719.07555 1535.9862,719.63655 1538.4302,719.63655 1539.8322,719.63655 1541.2372,719.52055 1542.6392,719.50555 1543.3262,719.49855 1544.0412,719.46455 1544.7232,719.57255 1545.3132,719.66555 1545.4942,720.69955 1546.2022,720.97355 1548.3832,721.82055 1550.8172,720.78655 1553.0432,721.81955 1555.3702,722.90055 1557.8602,724.89055 1559.6752,726.66855 1560.6002,727.57455 1561.3352,728.21055 1562.6692,728.35655 1563.5362,728.45155 1565.5112,727.91355 1566.1922,728.34855 1568.0962,729.56655 1571.0172,728.48455 1572.6752,730.07755 1572.9042,728.94455 1574.4632,727.29555 1575.1652,726.31955 1576.4132,724.58355 1579.0822,723.88855 1580.9262,723.02855 1582.8942,722.11155 1583.2392,724.27055 1584.7092,725.12955 1585.7182,725.71955 1586.8112,725.33455 1587.8602,725.14455 1588.7102,724.98955 1589.7252,725.55055 1590.5242,725.10955 1589.2992,727.21055 1588.1712,729.50655 1586.6792,731.43155 1585.1032,733.46355 1583.6902,734.59455 1583.6952,737.32455 1583.7062,743.77355 1583.7632,750.22155 1583.7572,756.67155 1583.7472,761.50455 1582.7892,766.08755 1586.0342,770.03655 1587.1342,771.37555 1588.7912,773.10455 1587.6102,774.85955 1586.9152,775.89455 1584.8442,777.78455 1583.5452,776.58955 1583.4412,776.84955 1583.3432,777.11255 1583.2552,777.37955 1583.0472,777.12955 1582.8572,776.86555 1582.6852,776.58955 1583.0252,777.37555 1583.8952,778.82455 1583.1152,779.61855 1582.9802,777.66055 1582.1712,779.90355 1581.9742,780.35455 1581.5712,781.28055 1580.7952,781.45855 1579.9112,781.58355 1577.9492,781.85955 1577.1582,783.59255 1577.7832,785.24555 1578.0692,786.00255 1576.6852,788.19255 1576.1152,788.65555 1575.1432,789.44455 1574.3272,794.75355 1573.2452,794.29955 1573.7172,796.35555 1571.6612,797.81655 1571.3052,799.69855 1570.4682,799.08955 1570.5642,800.15455 1569.8652,799.98955 1568.9832,799.78155 1567.8581,798.24284 1567.1772,797.72455 1564.1681,795.43408 1560.3931,792.94216 1558.5408,790.46893 1558.0513,789.81536 1557.1522,789.71055 1558.1772,788.57855 1559.6262,786.97855 1557.0906,785.05047 1555.7858,784.23442 L 1530.7125,768.55399" id="ke">
    <title>Kenya</title>
  </path>
  <g class="landxx coastxx are" id="ae" transform="translate(-29.9017,-45.0745)">
    <title>United Arab Emirates</title>
    <path d="M 1703.018,595.872 C 1703.518,595.905 1703.901,595.713 1704.168,595.296 1703.515,594.756 1702.689,594.883 1702.298,595.656 1702.538,595.729 1702.777,595.8 1703.018,595.872" id="path2704"/>
    <path class="landxx are" d="M 1686.389,594.576 C 1686.878,594.253 1687.069,594.445 1686.958,595.152 1687.192,594.93 1687.433,594.714 1687.678,594.504 1688.145,595.186 1687.731,596.172 1688.258,596.808 1688.768,597.423 1689.948,597.281 1690.639,597.241 1691.537,597.188 1692.294,597.046 1692.985,596.425 1693.299,596.143 1693.662,595.318 1694.089,595.225 1694.552,595.122 1695.706,595.819 1696.275,595.831 1697.208,595.852 1698.137,595.96 1699.069,595.927 1701.602,595.837 1703.349,597.003 1705.83,595.513 1705.605,595.166 1705.365,594.83 1705.11,594.505 1705.891,594.21 1705.783,595.15 1706.4,595.081 1707.298,594.981 1708.06,593.898 1708.426,593.18 1709.422,591.222 1709.549,590.107 1711.292,588.652 1712.989,587.235 1713.681,584.68 1715.285,583.357 1717.061,581.893 1718.127,581.502 1718.639,579.097 1719.933,579.163 1719.375,581.035 1719.385,581.825 1719.403,583.319 1721.026,582.562 1721.22,584.222 1721.414,585.887 1722.5508,588.06395 1721.241,589.35238 1718.4456,592.10212 1719.3453,590.17771 1718.9098,588.99806 1718.4848,587.84664 1717.605,589.9561 1717.738,590.666 1717.8388,591.20367 1717.5921,591.20968 1717.675,591.787 1717.764,592.405 1718.1646,593.32199 1718.1723,594.04706 1718.1933,596.0626 1720.2136,595.15403 1719.4013,596.49938 1718.7548,597.57 1716.643,596.629 1715.826,597.602 1717.7078,598.64969 1714.9144,603.56628 1714.553,606.589 1714.681,608.567 1713.672,609.019 1711.949,608.615 1709.829,608.118 1707.637,607.918 1705.485,607.599 1703.228,607.265 1700.972,606.934 1698.708,606.652 1697.045,606.444 1695.051,606.774 1693.936,605.294 1692.804,603.791 1691.725,602.267 1690.535,600.803 1689.704,599.78 1688.853,598.775 1688.015,597.758 1687.172,596.729 1687.038,595.666 1686.389,594.576" id="path2784"/>
  </g>
  <g class="world_map-is_selected landxx coastxx som" id="so">
    <title>Somalia</title>
    <path class="world_map-is_selected landxx so- som" d="M 1583.6963,739.50955 C 1583.6963,738.10255 1583.3333,736.15655 1583.9403,734.83955 1584.5183,733.58555 1585.698,732.61742 1586.491,731.48742 1588.079,729.22942 1589.4563,725.18755 1591.8633,723.73455 1594.0603,722.40755 1596.6313,723.26555 1598.5543,721.20055 1600.7383,718.85555 1602.8053,717.32355 1606.1103,716.84555 1608.5823,716.48855 1612.9273,718.24655 1614.6353,715.98255 L 1636.3253,690.33455 C 1633.7033,690.33455 1630.9833,690.78055 1628.4053,690.11855 1625.4833,689.36855 1622.6933,687.96055 1619.8693,686.90855 1616.9583,685.82455 1614.0623,684.69955 1611.1573,683.59955 1608.4683,682.58155 1606.1083,681.87055 1604.0443,679.80155 1603.3543,679.10855 1603.1303,678.74455 1602.1733,678.49055 1601.1993,678.23155 1600.8203,676.72155 1600.3653,675.92255 1599.5933,674.56655 1599.0793,673.46955 1597.9853,672.27355 1596.6813,670.84655 1595.1473,669.01655 1595.7413,666.89355 1596.3933,664.56355 1598.434,662.51842 1599.344,660.22142 1601.746,661.56142 1603.0693,664.76255 1604.7123,666.83555 1606.7643,669.42355 1609.8913,670.14155 1613.0643,669.09555 1614.2793,668.69555 1615.8523,667.61155 1616.8903,666.84555 1618.7233,665.49155 1619.2413,665.71955 1621.4973,666.09055 1623.8283,666.47455 1624.8773,666.96255 1627.0543,665.60455 1628.1533,664.91855 1630.6753,662.36055 1632.0913,662.86455 1633.6513,663.41855 1634.7273,663.48755 1636.4043,662.91055 1637.4153,662.56255 1638.3733,662.05055 1639.4233,661.81755 1640.6253,661.54955 1641.4293,662.07255 1642.5753,662.18655 1644.4533,662.37455 1645.8913,661.26055 1647.5153,660.59955 1649.2083,659.91055 1651.1343,660.21555 1652.8413,659.34855 1654.2623,658.62655 1654.4063,656.77055 1655.6143,656.17655 1656.7853,655.59955 1660.5673,656.60255 1660.1023,658.29255 1659.4993,660.48155 1659.0933,661.81655 1659.4963,664.13755 1659.7753,665.75455 1660.1973,668.07255 1658.7843,669.31255 1659.7243,669.66555 1660.5013,669.44655 1660.2943,668.44855 1660.7603,668.75955 1661.2673,668.97555 1661.8143,669.09655 1661.5023,670.64755 1657.9853,668.52255 1657.9723,671.24555 1657.9623,673.46955 1658.1493,675.74555 1657.5303,677.92555 1657.0023,679.78755 1655.8823,681.21255 1654.8293,682.77555 1653.6033,684.59955 1653.7463,687.30155 1652.2443,689.05855 1651.6613,689.74055 1650.8573,689.91455 1650.4533,690.81455 1650.0513,691.70955 1650.3993,692.71955 1650.0643,693.66655 1649.2983,695.82655 1647.7533,697.54155 1646.6773,699.53155 1645.2443,702.17955 1645.1283,705.09455 1644.0093,707.83255 1642.8723,710.61555 1641.1003,713.07455 1639.4683,715.57955 1637.8853,718.01055 1636.8363,720.82655 1635.0243,723.09655 1633.0123,725.61755 1630.9953,728.13155 1628.9443,730.62055 1624.8213,735.62455 1620.6293,739.69155 1615.1653,743.20755 1612.8763,744.68155 1610.5983,746.21255 1608.6863,748.16855 1606.5333,750.36955 1604.0713,752.54255 1602.1253,754.92055 1600.1993,757.27455 1598.1743,759.56555 1596.2713,761.92855 1595.3443,763.07955 1594.5333,764.31655 1593.6313,765.48755 1593.0733,766.21155 1591.4023,768.82455 1591.1053,767.30055 1591.1053,769.77655 1589.4882,772.15649 1587.9952,774.02549 1588.1233,772.08327 1586.2488,770.47715 1584.9162,768.55949 1583.3947,766.37006 1583.637,764.8623 1583.612,762.3263 1583.547,754.6593 1583.696,747.17355 1583.696,739.50955" id="so-"/>
    <path class="world_map-is_selected limitxx xs som" d="M 1636.3253,690.33455 C 1633.7033,690.33455 1630.9833,690.78055 1628.4053,690.11855 1625.4833,689.36855 1622.6933,687.96055 1619.8693,686.90855 1616.9583,685.82455 1614.0623,684.69955 1611.1573,683.59955 1608.4683,682.58155 1606.1083,681.87055 1604.0443,679.80155 1603.3543,679.10855 1603.1303,678.74455 1602.1733,678.49055 1601.1993,678.23155 1600.8203,676.72155 1600.3653,675.92255 1599.5933,674.56655 1599.0793,673.46955 1597.9853,672.27355 1596.6813,670.84655 1595.1473,669.01655 1595.7413,666.89355 1596.3933,664.56355 1598.434,662.51842 1599.344,660.22142 1601.746,661.56142 1603.0693,664.76255 1604.7123,666.83555 1606.7643,669.42355 1609.8913,670.14155 1613.0643,669.09555 1614.2793,668.69555 1615.8523,667.61155 1616.8903,666.84555 1618.7233,665.49155 1619.2413,665.71955 1621.4973,666.09055 1623.8283,666.47455 1624.8773,666.96255 1627.0543,665.60455 1628.1533,664.91855 1630.6753,662.36055 1632.0913,662.86455 1633.6513,663.41855 1634.7273,663.48755 1636.4043,662.91055 1637.4153,662.56255 1638.3734,662.05081 1639.4233,661.81755 1639.7729,661.73985 1640.0888,661.72855 1640.3892,661.75495 L 1640.4682,685.32208 1636.3257,690.33459 z" id="xs"/>
  </g>
  <path class="landxx uga" d="M 1496.4963,769.60855 C 1496.9863,768.25455 1496.8293,766.43155 1497.0303,764.99555 1497.2833,763.18855 1497.4519,761.39647 1497.6873,759.57855 1497.974,757.36445 1499.255,756.09853 1499.4713,754.94455 1499.6031,754.24149 1499.3303,753.52655 1499.4713,752.81655 1499.6853,751.69955 1500.7403,751.98655 1501.2503,751.17855 1502.8033,748.72055 1505.2889,746.9696 1507.3909,744.7966 1508.2059,743.9526 1509.3023,742.48555 1509.6453,741.34755 1509.9273,740.41155 1508.1873,739.43055 1507.5133,739.07055 1506.9733,738.78155 1506.1593,739.66055 1505.7583,738.77355 1505.4413,738.07055 1505.6983,737.10755 1505.8443,736.39555 1506.2893,734.21355 1505.4723,732.45055 1506.5763,730.44755 1506.8993,729.86355 1506.1054,729.70928 1506.3044,729.09328 1506.5144,728.44128 1507.1093,727.89355 1507.6153,727.47555 1508.1133,727.06555 1508.7023,726.69155 1509.3833,726.81455 1509.9403,726.91555 1510.9873,728.07355 1511.5373,727.82455 1512.2413,727.50655 1513.2733,726.20955 1514.0233,727.19855 1514.8273,728.25655 1515.0443,728.63555 1516.4493,729.14155 1515.6611,727.83235 1517.8363,727.33255 1518.8573,727.18955 1520.1223,727.01238 1521.5656,725.99596 1522.8036,726.13996 1524.4986,726.33696 1525.0213,727.83355 1526.8713,726.55055 1528.1983,725.63155 1529.1203,724.25055 1530.1303,723.02055 1530.7193,723.81555 1531.3463,724.94755 1530.9903,725.97255 1532.1833,725.85155 1531.3912,726.72122 1532.517,727.05982 1533.6787,727.40919 1534.1226,727.6335 1533.6373,729.12255 1533.0056,731.06063 1534.9422,733.14369 1535.9503,735.44155 1536.148,735.89226 1537.3123,737.40855 1537.2903,737.80055 1537.2423,738.62955 1538.2214,739.8596 1538.4234,740.6666 1538.7784,742.0996 1538.4234,744.05233 1537.8037,745.48333 1537.2747,746.70433 1536.2583,746.88355 1536.5173,748.30455 1536.6513,749.04155 1535.4583,749.50355 1534.9133,749.77755 1533.8453,750.31655 1533.8003,751.75455 1533.1613,752.81855 1532.6833,753.61355 1531.8906,754.04228 1531.5596,754.86428 1531.1106,755.97728 1530.6989,756.79323 1530.1829,757.87323 1529.686,757.84003 1527.8546,758.44886 1528.1517,756.85068 1526.9892,757.29046 1527.3543,757.62287 1526.8758,757.6967 1525.4577,757.9155 1525.4376,757.0628 1526.501,757.1296 1526.228,756.55872 1525.2741,755.84572 1525.5962,755.43728 1524.8041,755.72725 1525.3274,755.51938 1524.2412,755.92533 L 1524.5857,756.5 C 1523.6383,756.75313 1524.3651,757.67973 1523.1711,757.6167 1523.3243,759.4781 1520.5237,758.51931 1520.2038,758.58367 1520.1468,758.61657 1520.3537,756.91304 1520.1458,757.19671 1518.7912,760.35232 1518.2972,758.67669 1518.0428,758.84269 1518.0928,759.51258 1517.5876,759.55546 1516.4211,759.67061 1515.8722,760.44944 1514.5763,760.43028 1514.6836,760.7047 1515.7046,763.31605 1513.5576,763.74792 1513.2212,765.58201 1512.9303,767.16845 1513.5108,767.25337 1513.6913,768.30028 1506.5023,768.30028 1515.252,768.61237 1508.0828,768.07655 1505.6075,767.89155 1502.6985,768.39827 1501.2498,770.19209 1500.7465,770.81525 1500.041,772.56249 1499.1614,771.98487 1498.9284,771.83184 1498.7926,770.99141 1498.3838,771.02355 1497.6838,771.07855 1496.5714,771.85331 1496.2408,772.08824 1496.4057,771.436 1497.323,770.30524 1496.5018,769.60855" id="ug">
    <title>Uganda</title>
  </path>
  <g class="landxx coastxx moz" id="mz" transform="translate(-28.7126,62.0078)">
    <title>Mozambique</title>
    <path class="landxx moz" d="M 1528.5989,827.3307 C 1534.1359,825.2497 1539.6929,823.2167 1545.2629,821.2267 1546.5079,820.7817 1547.6806,820.18916 1548.9146,819.71216 1549.3326,819.55116 1550.3912,818.86415 1550.8562,819.01015 L 1555.0189,823.6617 C 1555.0599,822.7287 1557.0629,823.0547 1558.0049,822.7887 1558.8149,822.5607 1560.0349,821.8017 1560.6999,822.6637 1561.9289,824.2577 1561.9359,828.1197 1561.2969,829.8867 1560.4859,832.1257 1558.5999,834.1387 1559.7969,836.4427 1560.0819,836.9897 1559.9179,837.6417 1560.2489,838.1617 1560.6229,838.7497 1561.2869,839.0697 1561.6589,839.6567 1562.3879,840.8057 1563.5109,841.8807 1564.5449,842.7637 1565.5309,843.6057 1565.4779,843.7597 1564.8019,844.8657 1564.0799,846.0467 1566.4199,846.4917 1566.5739,844.9017 1566.7219,843.3557 1566.2759,841.9887 1565.3879,840.7327 1566.7939,839.7087 1566.0629,837.5857 1568.1289,837.1567 1570.9289,836.5757 1571.1769,835.3537 1571.1859,832.5307 1571.1859,831.5037 1571.0079,830.4557 1571.0689,829.4307 1571.1689,827.7607 1572.0459,825.9167 1571.3289,824.2787 1570.6109,822.6377 1569.1119,821.0917 1568.1479,819.5637 1567.2519,818.1427 1566.3759,816.6137 1565.2409,815.3627 1564.4069,814.4447 1564.7212,815.2816 1563.9712,814.44164 1563.7487,813.723 1564.1309,812.3132 1563.6725,810.91987 1563.0719,809.09456 1564.1448,807.9911 1563.9059,807.18212 1562.5206,802.50467 1563.358,803.64973 1563.292,803.06147 1563.8334,801.83029 1565.6378,802.06121 1565.1994,797.6999 1566.6998,797.84069 1568.0625,798.17195 1569.8179,797.6637 1570.8105,797.37631 1571.7449,796.1537 1572.8309,796.8567 1573.5819,797.3427 1573.9459,798.2717 1574.7439,798.6967 1575.3549,799.0227 1577.3839,799.1347 1578.0569,798.9617 1579.1759,798.6737 1579.9819,796.7937 1581.2449,798.1647 1583.5889,800.7087 1586.4039,797.6957 1587.5389,795.8267 1588.1649,794.7947 1589.2809,794.7667 1590.2579,795.3857 1591.8499,796.3947 1592.2349,796.3857 1593.7449,795.3257 1595.0069,794.4407 1595.9969,793.8177 1597.6419,794.1407 1598.5879,794.3277 1600.4149,792.5127 1601.2979,792.1107 1603.0399,791.3187 1604.4949,790.2047 1605.9969,789.0457 1607.8309,787.6287 1609.0259,789.9997 1607.4349,790.7607 1607.6779,790.8747 1607.9169,790.9947 1608.1549,791.1207 1607.4269,792.0587 1607.8399,793.1147 1607.4349,794.1407 1607.2179,794.6927 1605.8269,795.4077 1606.6469,795.9907 1607.3269,796.4727 1607.1679,799.0517 1607.2649,800.0497 1607.3369,800.7977 1607.3959,801.5597 1607.3289,802.3107 1607.2289,803.4497 1606.8739,803.1637 1607.1919,804.1727 1607.2649,804.5487 1607.2389,804.9187 1607.1129,805.2797 1606.9649,805.9777 1607.4039,806.1897 1607.5839,806.7937 1607.8479,807.6717 1607.5159,808.9317 1606.9249,809.6207 1608.9289,809.9057 1606.3209,814.3047 1607.1059,814.5557 1608.4769,814.9947 1607.1379,819.5717 1607.5749,820.6407 1609.0849,819.7457 1607.3559,822.6647 1607.7959,823.3707 1607.9169,822.0977 1609.1999,822.3167 1608.9799,823.5787 1608.7419,824.9467 1609.0699,825.9167 1607.6459,826.6907 1607.9049,826.8927 1608.1709,827.0827 1608.4469,827.2607 1606.7989,826.8677 1608.2199,827.4687 1607.7469,828.0357 1607.4479,828.3937 1606.9829,828.5287 1606.7869,828.9907 1608.3779,828.4247 1607.0039,830.9487 1606.7669,831.4477 1605.9699,833.1327 1604.2729,834.0667 1603.4539,835.7407 1602.6409,837.4027 1601.3129,838.3687 1600.4089,839.9437 1599.7169,841.1517 1595.0249,842.7827 1595.1939,844.0967 1595.2719,844.7047 1591.6509,845.3267 1590.9459,845.7607 1590.3219,846.1447 1589.6149,846.4517 1588.9129,846.6567 1587.7799,846.9877 1587.9749,846.5547 1587.1519,847.3157 1585.9679,848.4107 1584.3089,848.9287 1582.9009,849.6607 1581.4999,850.3897 1579.2679,853.7977 1577.6959,852.4607 1580.6319,855.6817 1573.5019,856.9187 1574.1659,860.1707 1573.5599,860.2537 1573.1529,859.8577 1573.0159,859.3007 1573.1579,860.4437 1572.0719,861.8927 1572.2259,860.3107 1570.8549,861.4997 1569.1959,862.3157 1568.0809,863.7837 1567.0939,865.0827 1566.1959,866.3157 1565.0079,867.4497 1564.5269,867.9087 1562.6149,869.9257 1561.9279,869.0907 1561.4849,868.5527 1560.9189,866.7077 1559.9159,867.2917 1561.6449,867.1877 1561.0409,869.3637 1561.3819,869.8917 1561.7019,870.3887 1561.6849,871.1957 1561.4449,871.7177 1561.3359,871.9927 1561.1359,872.1517 1560.8459,872.1917 1561.0679,872.6057 1561.1419,873.0457 1561.0679,873.5117 1560.8799,875.7847 1561.6269,875.1567 1562.7969,876.6527 1563.4529,877.4917 1563.6419,878.4847 1563.6279,879.5247 1563.6179,879.9277 1563.3009,883.0627 1563.8769,881.1227 1563.4389,882.8157 1564.5649,884.6457 1564.7359,886.3727 1564.8399,887.4077 1565.2099,888.4907 1565.0389,889.5357 1564.8939,890.4167 1564.5129,891.3957 1565.4569,891.9937 1565.6259,890.8847 1565.5779,889.8857 1566.3259,888.9637 1566.3079,889.3027 1566.3259,891.7317 1566.6859,889.6927 1566.4849,890.8637 1566.1919,892.0217 1566.0879,893.2087 1565.9939,894.2737 1566.7489,895.2207 1566.6129,896.2567 1566.2409,899.0837 1564.2079,901.8097 1564.6659,904.8127 1564.4039,903.1707 1565.6079,904.8627 1565.6759,903.4427 1566.7589,905.2687 1564.6579,907.9987 1563.5339,909.2867 1561.6759,911.4157 1558.8569,912.3887 1556.2619,913.3037 1553.3249,914.3397 1550.3659,915.4177 1547.7459,917.1227 1546.5629,917.8927 1545.3269,918.5697 1544.6689,919.8857 1544.1039,921.0147 1543.8179,922.3277 1542.3459,922.5217 1543.3279,922.5107 1544.8979,926.0117 1545.7259,923.8917 1545.5499,925.6867 1546.4889,930.33598 1544.6349,930.20843 L 1540.1599,930.0352 C 1540.2269,928.56341 1539.3125,926.89789 1539.5467,925.7577 1539.7435,924.79933 1539.2777,923.87246 1538.628,923.01516 1538.1498,922.38408 1538.258,920.8575 1538.7593,919.6531 1539.0443,918.96836 1539.0059,916.5137 1539.0359,915.8097 1539.1079,914.0857 1539.0949,912.3627 1539.2251,910.6427 1539.3421,909.0907 1538.9859,908.0557 1538.7359,906.5737 1538.3599,904.3537 1536.8479,902.5387 1536.3869,900.3777 1536.1649,899.3347 1536.3309,898.2347 1536.1483,897.1587 1535.8943,895.6637 1535.5929,894.2267 1535.1859,892.7707 1534.9219,891.8267 1534.4991,892.10678 1535.0295,891.40978 1535.5598,890.99096 1537.0434,889.05832 1537.6689,888.4197 1538.6011,887.46796 1542.9349,881.3737 1544.0749,882.2027 1542.9259,880.7197 1544.0759,879.8607 1544.4349,878.3827 1544.6559,877.4737 1543.7749,876.2047 1544.7739,875.6087 1546.1639,874.7797 1546.5269,873.6507 1547.2939,872.2217 1547.6219,871.6107 1547.8005,871.09349 1548.0375,870.43349 1548.4135,869.39249 1548.1245,868.5927 1548.1759,867.5827 1547.9359,867.6787 1547.6969,867.7757 1547.4559,867.8727 1546.929,866.82476 1546.5563,865.8829 1546.7621,865.30161 1547.0118,864.59676 1547.9073,864.01372 1547.5701,863.0691 1547.281,862.25901 1546.1136,862.54746 1546.4425,861.24569 1546.6881,860.27369 1548.3908,860.1154 1548.2529,858.9317 1548.0158,856.89659 1549.282,857.65959 1549.1579,856.3257 1549.0553,855.22355 1548.4359,854.17509 1548.6459,853.06409 1548.7929,852.28309 1549.3055,851.41595 1549.1121,850.6367 1548.727,849.08497 1548.8562,848.03396 1548.8907,846.37028 1548.9017,845.82987 1548.6117,845.43768 1548.4617,844.91168 1548.2437,844.14868 1548.9879,842.8517 1549.1159,842.0927 1548.0606,842.38989 1547.5251,842.37992 1546.9639,841.3417 1546.4332,840.35981 1543.4029,840.2769 1542.6139,839.8227 1540.1839,838.4238 1537.861,836.96575 1535.248,836.2267 1534.4114,835.99008 1531.7953,836.06623 1530.8815,835.84851 1529.4021,835.49604 1529.9969,833.0947 1529.8599,831.9927 1529.6649,830.3907 1528.4559,828.9637 1528.5989,827.3307" id="path3462"/>
    </g>
  <path class="landxx zmb" d="M 1437.6063,899.49855 C 1437.6063,891.31455 1437.6353,883.10491 1437.7398,874.92191 1437.7508,874.04491 1437.4343,872.23955 1438.6543,871.97255 1439.7223,871.73955 1441.0403,872.04155 1442.1273,872.07055 1445.7623,872.16555 1449.6243,872.79555 1453.1553,871.62855 1452.0103,870.36555 1452.5923,869.23455 1453.1313,867.86855 1453.7843,866.20855 1452.9073,864.91055 1452.9943,863.25455 1453.1563,860.18955 1454.4713,856.67755 1453.2253,853.62855 1454.3733,853.64755 1454.2605,854.89751 1455.4543,855.14355 1456.7752,855.41579 1456.1873,857.37681 1455.6753,858.16855 1457.2633,858.51755 1457.1173,858.47755 1458.6643,857.80455 1460.1683,857.15055 1461.8893,856.74055 1463.5243,856.64855 1462.9363,857.80455 1463.2253,859.90955 1464.1423,860.82855 1464.8623,861.54955 1466.0393,861.10555 1466.9313,861.51455 1468.2273,862.10955 1469.1689,862.67755 1470.6459,862.69755 1473.0279,862.72955 1475.2383,864.30155 1476.0813,861.26955 1476.9993,857.96555 1477.9753,861.65855 1479.1223,862.66155 1479.9073,863.34655 1479.8013,864.44655 1480.3703,865.27955 1481.2783,866.60955 1482.2762,865.34935 1483.0677,865.86973 1484.2651,866.65697 1484.7279,867.37455 1486.0261,867.35291 1487.5542,867.32741 1487.1963,869.82655 1488.2153,870.76955 1489.7103,872.15355 1489.9923,873.31555 1490.8413,875.08655 1491.9123,877.32155 1495.0343,872.99055 1496.2153,874.43955 1495.7003,874.84955 1495.6793,875.53355 1496.3363,875.79555 1497.4893,876.25655 1497.0973,873.92055 1497.1103,873.42055 1497.1883,870.52455 1497.2853,867.61655 1497.2853,864.71955 1496.7633,864.91655 1496.1883,864.96955 1495.6553,865.13555 1494.7403,865.41955 1495.0078,866.20802 1494.6129,866.83046 1493.9283,867.90962 1490.8973,865.43376 1490.2013,864.70755 1488.0995,862.51443 1485.6895,860.71798 1486.9278,857.07819 1487.5978,855.10869 1488.1663,853.48069 1488.7163,851.80655 1489.0958,850.65135 1488.3297,848.72555 1488.4367,847.42355 1488.6087,845.30155 1489.6577,840.82455 1486.8197,839.94855 1487.7377,837.53255 1492.8363,836.19355 1490.8853,832.96955 1495.0916,832.07068 1498.8314,831.80849 1503.6253,830.74055 1503.6253,831.55151 1502.6237,832.58447 1502.6543,832.78874 1502.7193,833.22177 1504.0801,832.61213 1503.3973,833.74271 1503.5397,834.01326 1504.0588,832.56592 1505.8406,834.34062 1507.6818,836.17451 1508.3601,834.96057 1508.1726,834.04828 1510.2247,834.06898 1510.7459,834.79412 1511.5953,836.29855 1511.9667,836.95627 1512.3849,836.68791 1512.9479,836.48591 1513.6769,836.22391 1513.933,837.43672 1514.5309,837.68791 1515.7399,838.19582 1517.9685,838.0274 1518.3613,839.45655 1518.4788,839.88391 1519.2883,839.72562 1519.7874,839.88155 1520.6174,840.14087 1521.3447,840.40892 1521.6487,840.7623 1521.9527,841.11569 1521.9404,841.55441 1521.7903,842.01255 1521.395,843.2192 1524.1673,842.76155 1524.6553,844.56055 1524.8183,845.16155 1524.3423,845.51255 1524.4343,846.07055 1524.5753,846.93455 1525.2313,847.24455 1525.8283,847.77455 1526.3463,848.23655 1526.5403,849.79855 1526.7613,850.44355 1527.1743,851.65055 1525.7613,852.79755 1524.5963,853.15355 1523.3273,853.54055 1524.0603,854.51855 1524.3723,855.48855 1524.8593,857.00555 1523.9663,857.81155 1523.9163,859.27355 1523.8463,861.37355 1522.8823,865.86855 1525.5153,866.66155 1524.4433,867.81055 1521.1653,868.35355 1521.1863,870.28255 1521.1993,871.54355 1521.5187,872.01121 1521.2623,873.43655 1520.889,875.51163 1519.5471,876.73083 1519.0545,878.18155 1518.7706,879.01767 1519.7124,879.68884 1520.3505,880.13936 1521.2725,880.79035 1521.7039,880.31128 1522.0703,880.94873 1514.9444,884.27009 1507.3206,886.2875 1500.0703,889.24255 1499.1408,889.89362 1501.6546,893.19648 1501.1871,894.85701 1500.4931,894.93801 1498.5723,895.22655 1497.8983,894.95551 1496.5783,894.42651 1495.0133,895.24351 1493.7723,895.66151 1492.0013,896.25751 1489.7173,897.30651 1489.3343,899.36351 1489.1703,900.23951 1489.3913,901.19451 1488.9913,902.02451 1488.4253,903.20351 1486.8623,903.34651 1485.7843,903.77151 1483.9113,904.50851 1481.3813,906.03951 1480.3453,907.80751 1479.2943,909.60051 1475.1663,917.44951 1472.0623,915.59351 1471.3853,915.18851 1470.6643,914.80951 1469.9103,914.57051 1468.8103,914.22051 1467.7163,915.67551 1466.8493,915.19551 1466.1673,914.81651 1465.8998,913.54637 1465.0363,913.75278 1464.8429,913.79898 1462.6379,914.35165 1461.5413,913.31778 1460.2988,912.14632 1459.7351,911.33581 1458.7517,911.07143 1457.6998,910.85093 1456.9913,911.95339 1455.0757,910.81787 1453.5567,910.58387 1452.5031,911.38878 1451.0093,911.50451 1450.2388,911.56421 1448.7634,912.156 1448.2713,911.96751 1445.6753,910.97319 1443.9406,907.9956 1442.1076,905.9536 1441.1026,904.8346 1440.3298,903.92869 1439.2463,902.89251 1438.2293,901.91999 1437.9422,900.94779 1437.6063,899.49851" id="zm">
    <title>Zambia</title>
  </path>
  <path class="landxx eth" d="M 1522.1263,691.34155 C 1522.2693,690.17555 1523.3803,689.55855 1523.3843,688.37355 1523.3943,686.34555 1524.8193,686.15455 1526.5263,686.44455 1528.0423,686.70255 1529.3563,687.18455 1530.4813,685.50855 1531.2593,684.35155 1530.7483,682.34055 1530.5943,681.06955 1530.3403,678.94855 1530.0273,676.66155 1530.8223,674.61755 1531.1343,673.81755 1531.5483,673.06155 1531.8403,672.25255 1532.2703,671.06455 1531.7973,670.26855 1531.7773,669.09255 1531.7573,667.91655 1532.3923,666.73355 1533.1533,665.85055 1534.0293,664.83455 1535.3353,666.04755 1535.3073,667.14755 1535.8133,666.59155 1537.8263,663.50955 1536.8223,662.54055 1536.2543,661.99055 1537.1713,660.68955 1537.3413,660.13555 1537.6743,659.04455 1536.9403,657.66555 1537.9103,656.77655 1539.4653,655.35155 1540.0863,653.47555 1541.0493,651.55555 1541.4553,650.74355 1541.7053,649.89655 1542.6973,649.84955 1543.1093,649.82955 1545.0563,650.04155 1545.2343,649.55055 1545.7763,648.05555 1545.6503,646.19555 1545.8833,644.62955 1546.0173,643.73855 1546.3803,643.04455 1546.7513,642.22355 1547.4143,640.75255 1547.2503,639.37755 1547.5463,637.84555 1548.1093,634.95255 1549.3253,636.01255 1551.5163,635.98955 1552.3623,635.98055 1552.5373,634.25755 1553.7263,634.94555 1554.6533,635.48155 1555.1663,636.71755 1555.7573,637.55755 1556.6493,635.34155 1557.5303,633.10755 1558.1273,630.78955 1558.4693,631.31755 1558.8553,631.98655 1559.4273,632.30155 1560.0513,632.64455 1560.7563,632.36855 1561.1333,633.12255 1561.8753,634.60455 1562.7833,634.77955 1564.3323,634.49855 1564.9043,634.39455 1565.5063,634.23955 1565.9583,633.84855 1566.2283,633.61455 1566.4623,632.72855 1566.7453,632.64855 1567.2673,632.50055 1568.1153,634.28855 1568.2173,634.67755 1569.6933,632.82555 1572.1823,634.97655 1573.6963,634.57355 1575.7743,634.02055 1577.9083,636.23655 1579.6803,636.98655 1582.0523,637.99055 1582.7413,641.05955 1584.6733,642.60355 1585.8343,643.53155 1587.3613,644.27455 1588.0813,645.64155 1588.7383,646.89155 1589.0483,647.93955 1590.2173,648.83455 1592.1813,650.33955 1593.0303,651.49555 1591.7313,653.77755 1590.1963,656.47455 1588.0963,658.00955 1588.5843,661.30355 1588.8263,662.93955 1588.1843,664.93255 1590.5263,664.77255 1591.8963,664.67855 1593.2553,664.02255 1594.5813,663.68555 1595.6563,663.41255 1596.068,664.35811 1597.072,664.02511 1596.964,665.73611 1594.9913,667.17644 1595.9402,669.16511 1597.0803,671.5542 1598.1225,672.16395 1599.6056,674.29205 1600.099,674.99992 1600.9763,677.35755 1601.5363,678.00755 1602.0973,678.65655 1602.5807,678.45399 1603.2317,678.98399 1604.2327,679.80099 1605.7799,681.53968 1607.0509,681.99668 1612.1559,683.83568 1616.7483,685.75255 1621.8393,687.63055 1624.2513,688.52055 1626.2045,689.57924 1628.7025,690.16824 1631.0185,690.71424 1633.9873,690.33355 1636.3273,690.33355 L 1614.9443,715.71555 C 1613.6363,717.24455 1612.6008,717.38993 1610.7465,717.13986 1607.6995,716.72895 1603.4348,716.5551 1599.4624,720.2078 1598.4114,721.17427 1598.0493,722.37455 1596.5183,722.67855 1595.1083,722.95955 1593.6176,722.91005 1592.3116,723.62505 1590.9006,724.39805 1590.9956,725.7208 1589.1416,725.2958 1587.5876,724.9388 1585.407,726.22042 1584.035,724.70142 1583.453,724.05542 1582.9844,723.05424 1582.0124,722.94024 1581.0754,722.83024 1579.8193,723.51255 1579.0073,723.88455 1577.7323,724.47055 1575.6066,725.59813 1574.793,726.79905 1573.9122,728.09934 1573.2831,729.08175 1572.6773,730.07655 1571.7123,729.14855 1569.5303,729.00655 1568.2723,729.12155 1567.3033,729.20955 1566.62,728.43461 1565.752,728.24961 1564.849,728.05861 1563.84,728.47823 1562.9329,728.39361 1559.2526,728.05035 1562.3546,727.57742 1552.6634,721.74599 1551.0116,720.75203 1548.608,721.88493 1546.5786,721.16768 1545.6385,720.83545 1544.2163,718.98955 1543.7963,718.13955 1543.2103,716.95455 1544.2123,715.38655 1543.8303,714.08555 1543.4863,712.91355 1541.0793,712.20255 1540.2763,713.22855 1539.7873,712.75455 1539.1043,711.34955 1538.7013,710.72355 1537.7693,709.27855 1537.4383,707.33755 1536.8103,705.73655 1536.3383,704.53455 1536.1033,703.17855 1535.4543,702.05155 1535.1553,701.53155 1534.7993,701.34655 1534.2933,701.09255 1533.7323,700.81255 1533.716,700.25561 1533.302,699.88561 1533.044,699.72061 1532.9433,699.57555 1532.6393,699.53855 1531.8463,699.31755 1531.7673,698.46555 1531.3463,697.89255 1530.4053,696.61455 1529.7683,695.05455 1528.5133,694.02955 1527.5943,693.27955 1526.4963,692.76655 1525.3183,692.62355 1524.2233,692.49255 1522.7093,692.48355 1522.1263,691.34155" id="et">
    <title>Ethiopia</title>
  </path>
  <g class="landxx coastxx omn" id="om" transform="translate(-29.9017,-45.0745)">
    <title>Oman</title>
    <path d="M 1741.968,630.145 C 1742.639,629.55 1742.871,628.756 1743.193,627.955 1743.376,627.714 1743.59,627.509 1743.839,627.337 1744.112,627.016 1743.415,626.015 1743.338,625.68 1742.967,627.242 1741.335,628.403 1741.968,630.145" id="path4692"/>
    <path class="landxx omn" d="M 1692.715,639.39554 C 1703.2427,636.97556 1709.833,634.43977 1714.601,631.85039 1716.551,628.13128 1714.4532,633.98886 1715.386,629.847 1716.148,626.46378 1716.6753,623.08694 1717.443,619.863 1717.9742,617.63248 1719.219,614.828 1717.929,612.704 1717,611.176 1715.116,609.87 1714.53,608.182 1713.793,606.06 1717.8,598.757 1715.829,597.601 1716.714,596.547 1718.451,597.459 1719.219,596.45 1720.062,595.343 1718.706,595.712 1718.429,595.154 1717.693,593.668 1717.105,590.405 1718.096,588.898 1718.558,588.194 1719.499,589.276 1719.353,589.833 1718.894,591.57 1720.648,589.687 1720.926,589.423 1721.784,588.605 1721.776,588.743 1722.31,589.897 1723.198,591.815 1724.36,593.628 1725.775,595.2 1728.012,597.685 1731.142,598.578 1734.328,599.218 1735.819,599.517 1737.086,600.104 1738.604,600.274 1740.634,600.502 1741.744,602.974 1742.906,604.354 1743.844,605.467 1744.481,606.811 1745.416,607.876 1746.389,608.985 1746.903,609.031 1748.188,609.544 1751.201,610.748 1747.793,615.024 1747.193,616.791 1746.059,620.129 1742.483,621.871 1741.514,625.447 1741.285,626.291 1740.974,628.732 1739.636,628.33 1738.577,628.013 1738.783,625.993 1737.429,626.834 1735.814,627.812 1735.902,631.327 1735.486,632.772 1734.941,634.661 1735.557,636.125 1736.056,637.955 1736.463,639.451 1736.719,640.582 1734.902,640.637 1731.982,640.724 1728.77,641.585 1728.051,644.733 1727.769,645.97 1727.544,647.33 1726.767,648.375 1725.8,649.676 1723.873,649.605 1722.344,649.72 1720.492,649.858 1719.75,650.159 1718.663,651.618 1717.61,653.03 1718.294,653.299 1718.206,654.912 1718.136,656.195 1716.825,657.126 1715.792,657.629 1715.294,657.87 1714.793,658.194 1714.284,657.793 1713.405,657.1 1712.68,657.289 1711.589,657.289 1708.43,657.289 1705.6655,660.35419 1702.4805,660.26419 1700.4175,660.20519 1701.344,655.155 1699.129,654.913 1700.068,653.933 1697.776,650.487 1697.31,649.624 1695.68,646.612 1693.7511,642.61967 1692.6831,639.36367" id="path4786"/>
  </g>
  <path class="landxx egy" d="M 1455.3863,499.96555 C 1453.9613,497.68455 1456.8963,495.29484 1456.5353,492.95555 1456.1477,490.44427 1453.8596,488.6908 1457.4753,485.70955 1457.5513,487.53955 1459.6843,486.88455 1460.7903,486.55555 1462.8113,485.95455 1464.4673,486.62455 1466.4753,486.82655 1468.6723,487.04655 1470.7803,487.53555 1472.9073,488.10255 1473.8063,488.34255 1473.9493,489.32055 1474.8623,489.60255 1475.6733,489.85255 1476.2903,489.75155 1477.0943,489.66655 1477.6343,489.60855 1477.8843,490.45255 1478.4933,490.57855 1479.1603,490.71655 1479.8413,490.71955 1480.5143,490.78655 1482.6773,491.00055 1484.1213,492.35755 1486.1503,492.69655 1488.1123,493.02455 1489.9883,491.70355 1491.3953,490.50355 1492.1253,489.88155 1492.8053,489.20555 1493.4743,488.51855 1494.0473,488.96555 1494.4793,489.42555 1495.2043,489.31055 1494.7903,489.10255 1494.8803,488.98355 1494.3343,489.02255 1495.0433,488.64655 1495.7513,487.96355 1495.9243,487.15055 1497.1493,487.88255 1498.3013,486.56755 1499.5243,486.57655 1498.7023,486.95455 1497.9133,487.42455 1497.2853,488.08755 1497.5023,487.95955 1502.4643,486.45955 1500.0953,486.28755 1501.8483,485.70755 1502.9863,487.71455 1504.6703,487.47555 1505.4743,487.36155 1506.2323,486.56655 1507.0853,486.86455 1507.8783,487.14055 1508.2523,488.28955 1508.9553,488.73555 1508.2433,488.23755 1507.5143,487.14355 1506.5753,487.08055 1506.8533,487.82655 1505.8253,489.23755 1507.0393,489.52755 1508.3593,489.84255 1507.7413,490.16955 1508.5953,490.96755 1508.5953,490.67355 1510.9503,489.67955 1509.2453,488.87955 1511.0593,489.30155 1511.6623,490.97555 1513.7903,490.78955 1514.4803,490.72955 1516.5173,489.45555 1516.1553,490.96755 1517.4743,490.12955 1518.9543,490.61855 1520.3713,490.19155 1521.6193,489.81655 1522.8684,489.32794 1523.8694,488.45894 L 1529.9489,504.50824 C 1528.4119,506.46324 1528.7553,510.07855 1527.7773,512.39455 1527.2053,513.74855 1527.2293,514.59255 1527.2443,516.02355 1527.2573,517.24755 1525.7013,518.43155 1526.0843,519.62455 1525.3413,518.93755 1524.3473,518.62755 1523.5273,518.05355 1522.4863,517.32455 1521.7583,516.26255 1521.0453,515.23555 1520.1423,513.93355 1517.5013,513.08355 1517.8843,511.12855 1518.2703,509.15855 1516.3703,507.79255 1515.3993,506.40455 1514.0563,504.48755 1513.0983,502.25455 1512.5543,499.96855 1511.6523,500.93755 1510.6923,503.05155 1511.6333,504.15755 1513.2423,506.05255 1513.0753,508.37855 1514.4243,510.33655 1515.5923,512.03255 1516.7763,514.10855 1518.2363,515.55555 1518.8823,516.19555 1519.6193,516.74655 1520.2083,517.44355 1520.5163,517.80855 1521.7853,519.90055 1520.2553,518.75955 1521.4933,519.72555 1520.4693,520.95555 1521.2543,521.75155 1522.3083,522.81955 1522.8683,523.95155 1523.4203,525.29755 1523.6913,525.95955 1524.1383,526.52655 1524.5233,527.12155 1524.8173,527.57655 1524.2333,528.15655 1524.2073,528.60155 1524.1713,529.19655 1525.1433,530.07955 1525.4083,530.59255 1526.0173,531.76655 1526.6813,532.91255 1527.2963,534.08455 1529.3153,537.93455 1531.3533,541.71655 1533.2643,545.62555 1534.0123,547.15455 1535.1113,548.24955 1536.0503,549.62355 1536.9243,550.90255 1538.4563,551.29855 1539.2663,552.59955 1538.5003,552.64055 1537.7273,552.50755 1537.0373,552.16755 1536.5323,554.25655 1536.7761,557.44607 1537.8423,558.67755 1538.8574,559.84993 1536.5144,562.20415 1535.0853,562.27355 1534.3773,562.30795 1534.1084,561.79253 1533.3948,562.58849 1532.8327,563.21549 1532.5363,564.29055 1532.2803,565.09455 1531.9863,566.02355 1531.5493,566.84455 1530.5233,567.08355 1529.6933,567.27655 1528.1997,567.10675 1527.7587,568.05874 1526.9527,569.80174 1527.4445,571.83582 1524.9875,571.64074 1522.125,571.41345 1520.6696,569.09252 1519.1615,569.15568 1514.193,569.36376 1511.3412,569.81686 1507.4463,569.15968 1507.5583,568.76868 1508.0103,567.94168 1507.7313,567.53968 1507.0283,566.52268 1506.4893,568.36668 1506.2563,568.69968 1505.3233,570.03368 1500.6613,569.23168 1499.1673,569.23168 L 1459.0783,569.14498 1457.6493,514.95971 C 1457.4993,512.42671 1457.5613,509.76971 1457.2113,507.26071 1456.9113,505.10271 1456.3573,501.91071 1455.3863,499.96571" id="eg">
    <title>Egypt</title>
  </path>
  <g class="landxx coastxx tza" id="tz" transform="translate(-29.9017,-45.0745)">
    <title>Tanzania, United Republic of</title>
    <path d="M 1599.559,856.733 C 1599.841,858.532 1600.098,859.174 1601.521,860.41 1602.508,861.267 1602.794,856.922 1601.208,858.243 1601.467,857.138 1601.132,855.326 1600.559,854.352 1600.322,855.128 1599.321,855.84 1599.559,856.733" id="path4894"/>
    <path d="M 1602.798,873.793 C 1603.571,873.096 1604.855,872.641 1604.378,871.343 1603.939,872.387 1602.627,872.439 1602.798,873.793" id="path4896"/>
    <path d="M 1603.298,847.873 C 1603.416,848.79 1604.205,849.559 1603.149,849.673 1603.4,849.829 1603.643,849.995 1603.878,850.173 1602.391,851.018 1603.725,852.309 1604.348,850.947 1605.086,849.332 1604.879,847.762 1603.369,847.154 1603.345,847.393 1603.321,847.633 1603.298,847.873" id="path4898"/>
    <path class="landxx tza" d="M 1527.5614,851.34618 C 1528.1381,847.11097 1528.2989,850.05803 1526.5102,846.25711 1526.1694,845.53294 1526.9575,844.23754 1526.5742,843.02741 1528.3242,842.8424 1528.6125,842.69458 1529.7465,841.396 1530.654,840.35681 1532.1304,838.93631 1533.0484,837.81167 1533.7133,836.99717 1532.3057,836.203 1532.5917,835.606 1532.9357,834.888 1534.3706,835.46779 1534.1186,834.61679 1533.9526,834.05379 1535.3765,833.243 1535.6765,832.954 1536.5345,832.128 1535.2995,831.157 1536.0475,830.373 1533.7495,831.02 1532.3075,829.637 1533.5975,827.573 1532.3475,827.693 1533.2265,826.776 1533.6845,826.049 1534.2665,825.126 1535.394,825.49114 1535.882,824.54914 1536.791,822.79314 1535.3931,819.64315 1534.604,817.95442 1534.0521,816.77319 1532.128,814.06959 1533.9577,813.47095 1536.2113,812.73364 1541.2344,813.30505 1543.6561,813.37675 1544.6635,817.16006 1542.9111,817.23926 1543.0432,817.67839 1543.499,819.19335 1542.1798,820.99345 1542.2306,821.36491 1543.0198,822.42517 1542.1566,823.43957 1542.3196,823.98737 1542.8671,825.82115 1543.3216,824.36658 1543.5431,828.84003 1543.6599,827.89243 1544.3558,827.38399 1544.9226,828.41524 1544.6979,826.57866 1544.9446,826.40243 1546.0852,826.54893 1545.2241,826.08027 1545.7898,825.0238 1547.1361,824.27302 1547.3984,824.53654 1548.7112,827.34557 1550.0922,825.55089 1549.9128,825.98086 1550.9215,826.1304 1551.0931,826.70106 1551.4314,827.82637 1551.4205,829.85464 1550.4358,829.40859 L 1551.0154,830.16512 C 1551.5052,829.59542 1550.6275,829.39107 1552.5689,829.23363 1551.4015,829.44534 1549.6394,822.84927 1555.7059,826.62527 1555.9715,825.00766 1560.0758,823.17326 1558.8327,823.04711 1557.3274,822.89434 1557.514,823.52684 1556.6829,823.41578 1554.1761,823.08074 1554.292,822.59212 1554.154,822.70171 1554.748,822.02203 1554.194,822.0232 1556.8078,821.83942 1556.5773,820.88414 1554.2236,821.40417 1554.7818,821.24555 1555.038,821.01319 1553.9814,820.61275 1556.8687,820.22524 1557.186,820.18264 1557.6253,819.6698 1557.4913,819.08953 1557.4103,818.73739 1557.8393,819.02753 1557.9784,818.84611 1556.8405,817.64655 1557.6423,817.50336 1557.9134,817.34874 1558.1796,817.19698 1558.4656,817.50095 1559.7391,817.7532 1559.4878,817.782 1558.7706,816.6755 1559.3499,816.03018 1559.703,815.56587 1559.3499,816.53794 1559.6815,816.10648 1559.2866,815.81966 1559.4229,815.15285 1559.7175,814.80338 1560.0146,814.42602 1560.4356,814.01307 1560.7305,813.63438 L 1583.5709,827.95519 C 1585.5049,829.18219 1587.9143,830.06478 1588.4903,832.41978 1588.7363,833.42978 1587.9384,833.39405 1587.7284,834.26005 1587.5734,834.89905 1588.6784,835.62105 1589.0414,836.15305 1590.2904,837.98605 1592.7704,839.21105 1594.4034,840.68505 1595.3754,841.56305 1599.9813,844.53123 1599.8093,845.81123 1599.5343,847.86523 1598.7884,850.17405 1597.9374,852.06605 1597.5044,853.02905 1597.0404,853.98305 1596.7304,854.99505 1596.5774,855.47305 1596.4804,855.96105 1596.4414,856.46105 1596.3984,857.14505 1597.0294,857.77005 1596.9214,858.37705 1596.4604,860.96805 1600.6484,861.16805 1600.1274,863.93205 1602.3904,863.21505 1602.0884,865.89405 1601.2394,866.96805 1599.8874,868.67605 1600.6794,870.69505 1599.7664,872.35205 1601.3354,870.92405 1601.2364,873.88605 1600.8704,874.64405 1600.3324,875.75705 1599.9044,877.10305 1600.0664,878.35405 1600.2164,879.51205 1601.9094,881.46205 1600.6364,881.71205 1601.6024,881.89605 1601.0374,883.69105 1601.7854,883.61705 1603.0044,883.49805 1602.3794,884.84505 1602.1144,885.43205 1601.6264,886.51805 1602.8944,886.91705 1603.1154,887.90905 1603.2384,888.46105 1602.8194,888.78805 1603.1154,889.34405 1603.5034,890.07205 1603.6794,890.51305 1602.9354,891.14205 1604.2014,890.90705 1604.6994,891.98505 1604.9454,893.01205 1604.8349,891.21802 1609.2306,893.80479 1607.8256,895.78862 1604.8003,898.12539 1602.137,899.4965 1599.3425,901.21783 1598.3275,901.57283 1598.1835,900.93173 1597.1595,901.28273 1596.0835,901.65073 1594.4564,902.94305 1593.3634,903.30205 1592.2834,903.65605 1590.9776,901.54569 1589.7554,902.15805 1588.3434,902.86554 1587.7389,905.01004 1586.2346,905.67523 1583.7231,906.78577 1583.2328,905.93614 1582.4371,905.25351 1580.8791,903.91682 1580.3107,906.37264 1578.5961,906.17351 1576.6253,905.94463 1575.9558,906.21281 1574.8724,904.84703 1574.0293,903.78415 1573.06,903.29257 1571.829,904.43105 1570.9596,905.23505 1567.9459,905.09175 1566.3964,904.77058 1566.252,904.63053 1566.1762,903.82791 1565.9772,903.53191 1565.4304,902.7187 1564.8758,901.90054 1564.4228,900.99954 1563.7918,899.74654 1564.2239,898.3844 1563.9619,897.0554 1563.6109,895.2814 1563.9119,893.64005 1563.4684,891.89505 1563.0054,890.07605 1561.8713,888.39117 1560.4266,887.26705 1559.0194,886.17216 1558.7445,888.29632 1558.8744,888.62205 1557.4384,887.07605 1556.0884,888.52005 1554.7404,887.04405 1554.3174,886.58005 1552.7216,886.46042 1552.1044,886.10205 1551.0574,885.49413 1550.1164,884.99608 1548.5466,884.76605 1548.2979,884.72965 1548.083,884.34446 1547.966,884.12346 1547.468,883.50846 1547.0619,883.656 1546.4249,883.337 1545.8279,883.039 1545.0344,883.14005 1544.4444,882.82705 1543.9004,882.53805 1543.7724,881.86005 1543.2734,881.61405 1542.8644,881.41205 1542.3893,881.90169 1541.9573,881.77569 1541.2533,881.56969 1541.1553,880.82101 1540.7823,880.30069 1540.0495,879.27862 1539.1191,879.09036 1538.1218,879.1601 1537.6526,878.10596 1535.1741,873.04688 1534.029,869.99849 1532.9723,867.18544 1533.7626,861.95897 1529.8237,860.46829 1529.2294,860.24337 1529.7136,860.92019 1529.0304,860.60478 1527.5859,859.93794 1526.1383,858.31111 1528.7013,855.78941 1529.6898,854.81692 1528.0125,852.96624 1527.5608,851.31437" id="path5432"/>
  </g>
  <g class="landxx coastxx sau" id="sa" transform="translate(-29.9017,-45.0745)">
    <title>Saudi Arabia</title>
    <path d="M 1619.718,661.32 C 1619.677,660.509 1619.342,659.753 1618.639,659.303 1618.623,659.568 1618.596,659.832 1618.559,660.095 1617.621,660.132 1617.284,659.141 1616.479,658.871 1617.259,660.169 1619.268,660.143 1619.718,661.32" id="path3234"/>
    <path class="landxx sau" d="M 1624.548,662.653 C 1624.645,661.745 1624.091,659.593 1623.274,659.073 1622.858,658.808 1620.843,654.574 1620.959,656.617 1620.772,652.958 1618.236,652.017 1616.218,649.54 1615.454,648.602 1614.376,647.248 1614.018,646.101 1613.555,644.621 1612.72,644.199 1611.962,642.996 1611.518,642.29 1611.896,641.674 1611.384,640.949 1611.019,640.434 1610.409,638.795 1610.168,638.134 1609.942,637.515 1609.805,636.861 1609.515,636.266 1609.248,635.719 1608.691,635.642 1608.423,635.161 1608.167,634.699 1608.413,634.069 1608.064,633.664 1607.705,633.255 1607.119,633.198 1606.73,632.836 1605.753,631.927 1604.622,631.008 1603.759,629.995 1602.712,628.765 1601.485,629.28 1600.304,628.41 1598.345,626.964 1597.042,624.279 1595.811,622.223 1595.094,621.026 1595.3,620.341 1595.24,619.078 1595.174,617.71 1594.184,616.578 1594.082,615.195 1593.948,613.38 1594.699,611.575 1594.338,609.767 1594.173,608.943 1593.723,608.246 1593.281,607.551 1593.049,607.185 1591.642,605.37 1593.23,606.611 1592.881,605.699 1592.088,605.689 1591.882,604.69 1591.697,603.797 1591.259,602.82 1590.91,601.977 1589.944,599.642 1588.059,598.051 1586.292,596.371 1585.003,595.147 1583.726,594.954 1582.154,594.524 1581.484,594.341 1581.164,593.066 1580.967,592.522 1580.545,591.356 1579.729,590.556 1578.998,589.584 1581.528,588.662 1578.004,584.509 1577.178,583.504 1576.621,582.829 1575.058,581.599 1575.125,580.708 1575.242,579.173 1573.265,578.286 1572.6,576.905 1570.584,572.715 1567.402,569.234 1565.168,565.123 1564.487,563.871 1563.727,561.94 1562.226,561.517 1561.544,561.325 1558.862,560.879 1558.809,562.138 1557.912,561.318 1559.362,559.163 1559.614,558.302 1560.142,556.497 1559.72,554.61929 1560.015,552.797 1560.3887,550.48848 1560.029,551.9254 1560.3535,550.54963 1562.0765,551.0622 1566.817,552.33479 1568.536,551.96 1571.951,551.21544 1571.897,546.25 1575.106,545.744 1576.309,545.554 1579.2619,545.85807 1579.133,544.236 1578.8389,540.53658 1580.4483,541.64719 1582.6876,540.89194 1579.765,538.09245 1576.9846,535.17277 1574.3111,532.13794 1579.5036,531.05316 1582.9504,529.88325 1589.0711,526.61336 1591.6638,527.11059 1596.2881,527.39321 1599.1306,528.70914 1608.682,533.13084 1616.549,539.891 1624.84,546.2 1626.596,547.537 1628.305,548.864 1629.944,550.337 1631.811,552.014 1633.1087,551.93027 1635.5687,552.16827 1638.4047,552.44227 1641.393,552.843 1644.23,553.105 1645.271,553.202 1645.785,552.671 1646.915,552.915 1648.442,553.244 1650.026,553.43 1651.581,553.571 1653.229,553.719 1653.359,555.635 1653.885,556.848 1654.664,558.65 1657.289,557.512 1658.779,557.643 1660.32,557.779 1660.521,558.614 1661.025,559.875 1661.57,561.24 1664.28,562.979 1663.859,564.51 1663.72,564.269 1663.55,564.053 1663.348,563.863 1662.887,564.96 1663.993,564.835 1663.859,565.803 1663.878,565.818 1668.491,566.245 1666.729,567.6 1667.405,567.814 1668.84,571.275 1669.529,569.325 1669.069,571.061 1673.235,573.011 1674.199,574.066 1673.685,573.912 1673.302,573.6 1673.049,573.132 1673.073,575.046 1674.233,575.074 1674.645,576.61 1674.886,577.51 1674.79,579.409 1673.48,578.234 1673.599,579.255 1673.269,579.458 1674.197,579.646 1674.34,579.674 1675.556,582.311 1675.64,582.617 1675.37,582.384 1675.107,582.144 1674.849,581.898 1675.646,583.067 1677.069,583.724 1677.699,585.018 1678.338,586.326 1678.532,587.526 1679.3,588.797 1679.89,589.775 1680.743,591.451 1681.965,591.751 1682.524,591.888 1684.552,591.358 1684.26,592.461 1684.474,591.901 1684.959,591.696 1685.481,592.029 1684.798,592.863 1684.1808,595.13714 1686.4878,594.54814 1686.3358,594.58714 1687.668,597.18459 1687.796,597.36759 1690.4559,600.38582 1694.0439,605.69524 1695.4539,606.26755 1704.2175,607.24656 1708.2698,607.72271 1713.0378,608.78434 1713.6593,608.63552 1714.2039,608.26213 1714.4029,607.85982 1715.467,610.31957 1717.884,611.60687 1718.2902,613.20382 1718.6572,614.64673 1718.5549,615.60485 1718.1767,617.08865 1716.9105,622.05712 1716.2131,631.00532 1714.378,631.99405 1701.8839,638.72558 1686.2472,641.0812 1671.399,643.541 1669.473,644.223 1667.6204,645.09378 1665.8625,646.11109 1663.2191,647.64081 1660.6488,652.23604 1659.7912,654.97914 1659.3949,656.2468 1657.9032,657.63486 1656.5082,657.64086 1655.0502,657.64686 1654.7807,655.27666 1653.5925,654.87681 1652.2423,654.42243 1651.2454,655.11243 1650.0813,654.96991 1648.2762,654.74896 1645.8635,655.03261 1644.241,654.19778 1642.292,653.19492 1640.8559,653.65516 1638.6969,653.65942 1636.8059,653.66342 1634.8091,654.8209 1632.9264,654.79696 1630.5887,654.76726 1630.247,652.9881 1629.0304,653.30796 1627.3999,653.73664 1626.9674,655.87715 1626.8766,657.23023 1626.7866,658.5654 1628.4577,659.34174 1627.0426,660.30623 1626.7712,660.49125 1626.4881,662.38268 1624.4535,663.0555 1624.4405,662.8765 1624.558,662.82796 1624.5475,662.65296" id="path3380"/>
    <path d="M 1617.268,657.504 C 1617.799,657.636 1617.918,657.804 1617.628,658.008 1617.508,657.84 1617.388,657.672 1617.268,657.504" id="path5480"/>
    <path d="M 1617.628,658.008 C 1617.847,658.318 1617.893,658.654 1617.768,659.016 1617.504,658.943 1617.265,658.823 1617.048,658.657 1617.241,658.44 1617.435,658.224 1617.628,658.008" id="path5482"/>
    </g>
  <path class="landxx dji" d="M 1588.6573,664.12555 C 1588.6573,661.80455 1587.7573,659.49755 1589.1643,657.39955 1590.2233,655.82155 1591.1933,654.38955 1592.1113,652.73255 1593.1833,650.79755 1593.7233,651.83355 1595.2573,652.24555 1596.0353,652.45355 1595.9933,651.23455 1596.2983,650.83155 1596.7713,650.20755 1597.5883,649.96055 1598.2373,649.58255 1598.9063,651.05055 1601.7123,653.78655 1600.3603,655.50155 1599.6673,656.38155 1597.5023,657.38555 1596.4673,657.79355 1595.4053,658.21255 1595.2683,659.46855 1594.0563,659.66355 1594.8513,660.68755 1597.2243,659.00055 1598.3763,659.44655 1600.4593,660.25355 1598.3863,662.29155 1597.8273,663.43655 1596.9893,665.16455 1595.6573,663.36255 1594.3563,663.70455 1593.0263,664.05355 1589.5443,665.79255 1588.6573,664.12555" id="dj">
    <title>Djibouti</title>
  </path>
  <path class="landxx mwi" d="M 1518.9403,878.12856 C 1519.189,877.63782 1520.5368,875.46785 1521.0122,874.03709 1521.4901,872.59887 1521.3925,872.2069 1521.1002,870.32655 1520.8318,868.60275 1524.7217,867.51155 1525.5167,866.65955 1522.6976,865.80246 1523.8797,861.17186 1523.8717,859.13255 1523.8617,857.43158 1524.9637,856.71255 1524.0407,854.99555 1522.9647,852.99155 1524.5641,853.4425 1525.6373,852.64601 1526.8976,851.71064 1527.205,849.76819 1525.0987,847.32235 1523.4061,845.35683 1525.5229,844.76216 1523.9194,843.69475 1522.5979,842.81505 1522.0783,842.8523 1521.7687,842.52627 1521.5983,842.34686 1522.0859,841.25759 1521.6175,840.69534 1521.8516,840.87487 1523.5054,841.50319 1524.3039,841.60847 1525.2992,841.73969 1525.0287,842.49068 1525.8595,842.60746 1526.6727,842.72179 1528.4712,842.57266 1528.9767,843.54955 1528.9987,844.85811 1529.0627,846.40144 1530.6593,848.32919 1532.0979,850.06609 1530.7283,850.41911 1530.9421,851.80786 1531.1241,852.98907 1531.5611,858.53551 1531.5808,859.18107 1531.6588,861.73492 1528.3502,864.27058 1529.2291,865.78909 1532.6133,871.63628 1531.5335,871.55128 1531.3443,872.7264 1530.5567,877.61864 1533.8773,876.51362 1533.3745,878.72391 1532.1326,884.18293 1535.4181,883.29473 1535.2682,880.69672 L 1537.9825,884.18916 C 1538.6176,884.51439 1538.2447,879.71149 1536.4254,878.28021 1534.7754,878.53026 1535.4874,876.97932 1535.2763,876.53563 1536.5794,877.16971 1536.7227,877.2596 1538.2577,879.58355 1539.2739,881.12214 1540.1746,882.73405 1541.5469,884.33155 1543.0713,886.10606 1543.108,887.80855 1542.5365,890.05755 1542.0344,892.03361 1542.7763,893.96876 1542.4545,896.01876 1542.3155,896.90376 1542.0515,897.95576 1541.2905,898.52276 1540.4445,899.15376 1539.2395,898.95192 1538.4365,899.64075 1537.6482,900.31688 1537.899,901.77554 1536.7359,902.70991 1536.9934,903.03191 1537.853,904.73618 1537.9149,905.68455 1537.9449,906.07455 1537.9279,907.27758 1537.5609,907.67955 1537.193,908.08229 1535.7752,907.98832 1535.9797,907.24636 1536.4119,905.6779 1537.1473,906.11445 1535.4969,904.53055 1534.3786,903.45737 1531.3112,900.44223 1531.1577,899.24115 1530.8903,897.148 1530.3314,897.62978 1530.7518,895.99108 1530.9432,895.2449 1531.3999,893.64255 1531.9389,892.93055 1532.7939,891.80055 1532.6471,891.48806 1532.7829,890.07055 1532.9427,888.40155 1532.9517,886.18678 1531.8061,884.52895 1531.3568,883.87874 1530.0071,884.77488 1528.7963,884.91634 1527.8124,885.0313 1526.3459,884.74955 1526.3059,885.66855 1525.7329,885.04855 1521.9336,880.61071 1521.7035,880.70337 1520.7216,881.09873 1518.6848,878.92103 1518.9409,878.12856 z" id="mw">
    <title>Malawi</title>
  </path>
  <g class="landxx coastxx eri" id="er" transform="translate(-29.9017,-45.0745)">
    <title>Eritrea</title>
    <path d="M 1603.518,667.368 C 1603.573,667.933 1604.155,669.632 1603.149,668.807 1603.584,670.081 1605.791,669.964 1606.829,669.887 1606.316,668.786 1604.875,669.852 1604.501,668.718 1604.354,668.278 1604.34,666.869 1603.518,667.368" id="path6816"/>
    <path class="landxx eri" d="M 1576.878,673.56 C 1578.084,672.479 1578.015,670.783 1578.449,669.349 1578.92,667.793 1579.573,666.28 1580.131,664.752 1580.643,663.347 1579.193,657.516 1581.439,657.203 1581.887,657.14 1583.561,657.479 1583.83,657.03 1584.558,655.815 1584.001,654.882 1585.44,654.426 1586.6,654.059 1587.939,653.148 1589.15,652.67 1590.936,651.964 1590.998,650.128 1592.279,648.938 1594.518,653.405 1596.162,657.703 1597.256,662.58 1597.517,663.743 1597.5,664.893 1598.03,665.99 1598.604,667.176 1599.149,668.117 1599.384,669.42 1599.544,670.308 1600.662,670.383 1600.905,671.326 1601.13,672.196 1601.311,673.687 1602.079,674.282 1603.038,673.601 1601.467,671.016 1602.469,670.851 1603.45,670.689 1604.033,671.921 1604.099,672.651 1604.175,673.506 1604.786,674.964 1605.606,675.343 1606.765,675.879 1607.496,674.306 1608.68,675.626 1609.661,676.717 1609.775,677.525 1611.356,677.742 1613.18,677.993 1613.873,679.392 1614.844,680.84 1615.782,682.236 1616.598,683.656 1618.06,684.577 1618.75,685.012 1619.36,685.546 1619.94,686.116 1620.231,686.402 1621.643,688.339 1620.94,686.593 1621.905,687.21 1621.901,688.575 1622.205,689.541 1622.471,690.383 1623.406,690.153 1623.95,690.723 1624.476,691.274 1626.563,695.169 1627.349,693.217 1628.1355,693.955 1628.5194,694.29543 1628.0732,694.83733 1626.9229,695.37923 1625.9996,696.12259 1625.9801,696.76519 1625.9131,698.98857 1624.162,695.80625 1622.1846,697.37131 1622.4259,696.80144 1621.8501,695.0339 1619.6951,693.55835 1617.7998,690.70126 1616.5772,688.71946 1615.4194,688.40969 1613.3571,687.8579 1612.696,685.31735 1611.4613,683.61512 1610.1241,681.77155 1608.1267,681.68211 1606.4275,680.37275 1604.8369,679.14707 1603.8919,680.16562 1602.4187,679.7255 1601.2647,679.38074 1599.2625,678.29864 1598.119,679.753 1598.093,678.85733 1596.294,677.07577 1596.6857,677.69687 1596.8717,677.9917 1595.4017,679.6014 1594.3241,679.66413 1593.6205,679.70503 1592.1145,679.91467 1591.38,678.81 1590.0367,676.78979 1589.5982,678.4423 1588.028,675.865 1587.431,678.182 1586.549,680.417 1585.658,682.633 1585.177,681.947 1583.9211,679.3855 1582.7451,680.0185 1582.0091,680.4155 1582.0984,681.1534 1581.0621,681.07425 1578.2076,680.85623 1578.2636,680.73599 1577.5164,682.52675 1576.984,679.97949 1576.836,676.09994 1576.8329,673.74025" id="path6830"/>
  </g>
  <g id="km">
    <title>Comoros</title>
    <g class="landxx coastxx com" id="km-" transform="translate(-29.9017,-45.0745)">
      <path d="M 1630.878,907.923 C 1631.321,907.517 1631.048,906.747 1630.868,906.303 1630.415,905.175 1630.703,904.133 1630.366,903.022 1628.987,902.98 1629.592,904.8 1629.284,905.589 1628.801,906.83 1630.279,907.16 1630.876,907.923" id="path5750"/>
      <path d="M 1633.758,911.813 C 1633.518,911.118 1632.877,910.565 1632.098,910.722 1632.098,911.719 1633.047,911.662 1633.758,911.813" id="path5752"/>
      <path d="M 1638.798,911.733 C 1639.645,909.539 1637.964,910.357 1636.639,910.003 1637.383,910.548 1638.189,911.024 1638.798,911.733" id="path5754"/>
    </g>
    </g>
  <g id="sc">
    <title>Seychelles</title>
    <path class="landxx coastxx syc" d="M 1694.4963,800.99855 C 1694.5763,800.29855 1694.3073,799.42555 1693.4163,799.62855 1693.9503,799.90855 1694.3693,800.40255 1694.4963,800.99855" id="sc-"/>
    </g>
  </svg>