<svg xmlns="http://www.w3.org/2000/svg" class="world_map zoom4" height="127" id="svg2985" version="1.1" viewBox="879 337 33 33" width="127">
  <title>World Map</title>
  <defs id="defs2987"/>
  <defs>
    <link xmlns="http://www.w3.org/1999/xhtml" href="../css/svg.css" type="text/css" rel="stylesheet"/>
  </defs>
  <style id="style_css_sheet" type="text/css">
/*
 * Below are Cascading Style Sheet (CSS) definitions in use in this file,
 * which allow easily changing how countries are displayed.
 *
 */
/* --- Custom styles for Peace Corps --- */
.world_map .world_map-is_selected {
  fill: #C94112 !important;
}
.world_map .landxx {
  fill: #F2EFE8;
  stroke: #ffffff;
  fill-rule: evenodd;
}
.world_map.zoom4 .landxx {
  stroke-width: 2px;
}
.world_map.zoom3 .landxx {
  stroke-width: 3px;
}
.world_map.zoom2 .landxx {
  stroke-width: 4px;
}
.world_map.zoom1 .landxx {
  stroke-width: 5px;
}
.world_map .coastxx {
  fill: #F2EFE8;
  stroke: #ffffff;
  stroke-width: 2px;
  fill-rule: evenodd;
}
.world_map .oceanxx {
  opacity: 1;
  color: #ccc;
  fill: #ffffff;
  stroke: #ffffff;
  stroke-width: 0.5;
  stroke-miterlimit: 1;
}

/* --- Original Styles --- *
/*
 * Circles around small countries
 *
 * Change opacity to 1 to display all circles.
 *
 */
.circlexx
{
   opacity:0;
   fill:#e0e0e0;
   stroke:#000000;
   stroke-width:0.5;
}

/*
 * Smaller circles around French DOMs and Chinese SARs
 *
 * Change opacity to 1 to display all subnational circles.
 *
 */
.subxx
{
   opacity:0;
   stroke-width:0.3;
}

/*
 * Circles around small, unrecognized countries
 *
 * Change opacity to 1 to display all circles.
 *
 */
.unxx
{
   opacity:0;
   fill:#e0e0e0;
   stroke:#000000;
   stroke-width:0.3;
}

/*
 * Circles around small countries, but with no permanent residents 
 *
 * Change opacity to 1 to display all circles.
 *
 */
.noxx
{
   opacity:0;
   fill:#e0e0e0;
   stroke:#000000;
   stroke-width:0.5;
}

/*
 * land
 */
.landxx
{
}
/*
 * Styles for coastlines of islands with no borders
 */


/*
 * Styles for nations with limited recognition
 */
.limitxx
{
   fill: #e0e0e0;
   stroke:#ffffff;
   stroke-width:0;
   fill-rule:evenodd;
}

/*
 * Styles for nations with no permanent population.
 */
.antxx
{
   fill: #e0e0e0;
   stroke:#ffffff;
   stroke-width:0;
   fill-rule:evenodd;
}

/*
 * Ocean
 */


/*
 * Additional style rules
 *
 * The following are examples of colouring countries.  You can substitute these with your own styles to colour the countries on the map.
 *
 * Color a few countries:
 *
 * .gb, .au, .nc
 * {
 *    fill:       #ff0000;
 * }
 *
 * Color a few small country circles (and the countries):
 *
 * .ms, .ky
 * {
 *    opacity:    1;
 *    fill:       #ff0000;
 * }
 *
 */

</style>
  <path class="oceanxx" d="M 2079.5058,1457.5605 615.24779,1457.5605 C 615.13079,1457.5605 615.07079,1457.5505 614.95179,1457.5215 611.67679,1456.6515 608.40179,1455.7815 605.12779,1454.9105 599.15079,1453.3225 593.22879,1451.5225 587.30779,1449.7385 564.39379,1442.8315 541.76579,1434.6995 519.46979,1426.0115 495.81079,1416.7935 472.34979,1407.0946 449.19179,1396.6816 426.78379,1386.6056 405.17679,1375.0536 383.76379,1363.0356 363.11779,1351.4496 343.01079,1338.8296 323.37979,1325.5996 302.29179,1311.3876 281.47879,1296.8506 261.05379,1281.7006 242.35079,1267.8276 223.73679,1253.6306 206.05279,1238.4686 186.98679,1222.1216 167.82379,1205.7706 150.35279,1187.6906 132.97779,1169.7106 116.33279,1151.0606 100.15679,1131.9976 84.352777,1113.3736 70.086776,1093.4716 56.901786,1072.9246 44.046786,1052.8916 32.093776,1032.1356 22.469776,1010.3426 17.516776,999.12753 12.408776,987.76556 8.7017761,976.06056 5.0657761,964.58166 1.5997761,953.04259 -1.5932239,941.43054 -8.0102239,918.09356 -14.055224,894.78356 -18.234224,870.92056 -22.491222,846.60856 -24.894222,822.19856 -26.943222,797.62156 -28.947222,773.58556 -28.829222,749.40156 -27.225222,725.34856 -25.648222,701.69856 -23.363222,677.92456 -19.274222,654.56456 -15.018224,630.25156 -9.3842239,606.45156 -2.8412239,582.66156 3.5687761,559.35256 10.483776,536.34856 20.265776,514.19856 30.320776,491.42956 42.318786,469.90956 55.502786,448.81656 68.512776,428.00356 83.108777,408.26756 98.686787,389.31756 113.73479,371.01156 129.68979,353.25256 146.15179,336.20856 163.77479,317.96256 182.64579,301.14556 201.89579,284.64756 220.33379,268.84456 239.55379,253.98456 258.95979,239.39656 278.42779,224.76056 298.39379,210.83356 318.55579,197.17556 339.26979,183.14456 360.47879,169.92056 382.15079,157.42556 403.46579,145.13656 425.31479,133.98856 447.60479,123.59356 469.58579,113.34356 492.14979,104.17656 514.74579,95.37556 537.44879,86.532565 560.37879,78.195565 583.63479,70.914565 589.69379,69.017565 595.80079,67.276565 601.90879,65.549565 604.63079,64.779565 607.36079,64.045565 610.09479,63.318565 611.59979,62.918565 613.56579,61.986565 615.13379,61.986565 L 2079.9638,61.986565 C 2079.9798,61.986565 2079.9958,61.986565 2080.0118,61.986565 2079.8448,61.986565 2079.6788,61.986565 2079.5118,61.986565 2102.8268,68.191565 2125.8778,75.323565 2148.5448,83.611565 2171.6378,92.054565 2194.6158,100.87956 2217.2348,110.52956 2240.5208,120.46556 2263.4848,130.95256 2285.8828,142.76456 2306.9808,153.89056 2327.8178,165.78556 2347.8608,178.72156 2368.9418,192.32656 2389.7498,206.29256 2410.2218,220.80056 2429.7368,234.62956 2448.9938,248.98756 2467.6208,263.99256 2486.8818,279.50856 2506.0408,295.30556 2524.0538,312.27356 2541.8708,329.05756 2558.7508,346.67256 2574.9408,365.03656 2591.2478,383.53256 2607.1478,402.30656 2621.4508,422.41856 2635.3488,441.96256 2648.4468,462.42756 2659.5898,483.67756 2671.1238,505.67356 2681.1048,528.35656 2688.6188,552.05056 2692.2518,563.50656 2695.3368,575.14756 2698.5608,586.72256 2701.7738,598.25356 2704.9238,609.81956 2707.4578,621.52456 2712.6258,645.40556 2716.6718,669.47856 2719.1178,693.79656 2721.5718,718.19256 2723.1798,742.56356 2722.9808,767.09056 2722.7908,790.65456 2720.6908,814.43756 2717.7688,837.81156 2714.7368,862.07056 2710.5198,886.16156 2704.6398,909.90056 2701.6808,921.84356 2698.3948,933.69556 2695.0378,945.53154 2691.7468,957.13466 2688.5558,968.83466 2684.3988,980.16156 2676.0918,1002.8036 2666.1688,1024.8836 2654.1338,1045.8046 2641.9958,1066.9066 2628.8498,1087.4866 2614.2378,1106.9696 2599.1658,1127.0666 2582.6678,1145.9446 2565.8948,1164.6296 2549.8298,1182.5266 2532.8918,1199.7316 2514.8648,1215.6616 2496.0788,1232.2646 2476.8978,1248.3126 2457.1558,1263.7656 2438.2988,1278.5276 2418.9668,1292.7306 2399.3188,1306.4206 2378.7018,1320.7866 2357.7538,1334.6106 2336.4758,1347.9776 2326.4088,1354.3016 2316.0058,1360.1326 2305.6418,1365.9516 2295.0348,1371.9086 2284.3858,1378.0166 2273.4448,1383.3436 2250.7338,1394.3986 2227.7768,1404.7266 2204.3888,1414.2665 2181.7848,1423.4875 2159.0678,1432.2695 2136.0228,1440.3345 2117.4118,1446.8465 2098.5568,1452.4975 2079.5058,1457.5605" id="ocean"/>
  <g class="landxx coastxx can" id="ca" transform="translate(-29.9017,-45.0745)">
    <title>Canada</title>
    <path class="landxx can" d="M 814.43303,201.80805 C 813.53315,201.88735 812.6193,202.16561 812.11478,202.51361 812.95377,203.0656 814.32843,203.10819 815.23938,202.71519 814.33137,203.22619 813.30237,203.11415 812.31637,203.21916 811.51338,203.30516 811.02951,203.7715 810.3005,204.0255 808.96352,204.49051 807.39292,204.1197 806.16798,204.93264 806.86399,205.45064 807.66327,205.45982 808.48623,205.33582 807.61421,205.51582 806.73362,207.01171 805.8656,206.84772 805.00662,206.68572 805.05748,205.86037 803.95053,206.04137 802.41654,206.29337 801.44395,206.90665 800.32197,207.85565 799.48098,208.56765 797.22537,209.42307 797.19738,210.57707 797.16338,211.96307 799.43241,211.19324 800.12038,210.98024 799.63838,211.24624 799.13345,211.419 798.60848,211.585 798.86448,211.765 799.14387,211.93297 799.41483,212.08897 797.57984,211.89997 795.63055,212.58966 794.17358,213.70166 793.41558,214.28066 791.58582,216.02928 793.56882,216.32229 793.32582,216.53329 793.1003,216.80783 792.86327,217.02784 793.40026,217.72584 794.2149,217.6326 794.97993,217.6326 795.47293,217.6326 795.71844,218.39874 796.18945,218.53974 797.32046,218.87874 798.58462,219.62294 799.51562,218.43894 800.01262,219.08994 800.21134,220.01343 801.12832,220.15243 802.42231,220.34843 803.40605,219.59967 804.65608,219.54767 804.69208,220.14867 804.30997,220.55539 803.74894,220.6564 804.13196,220.6954 804.47462,220.6954 804.85767,220.6564 803.68866,221.2684 802.43508,221.5435 801.22911,222.0675 801.67212,221.0155 803.09329,220.67201 804.05132,220.35402 802.71034,220.16202 799.5611,220.38712 798.81007,221.76512 799.09407,221.94412 799.32039,222.11209 799.61642,222.26909 798.52243,222.49709 797.39119,223.48761 796.29024,223.47861 795.87023,223.47561 793.95922,224.7205 794.37517,224.99051 795.73215,225.86851 798.14803,224.63817 799.31404,224.18416 798.81504,224.34316 798.31017,224.45834 797.80214,224.58733 798.15212,224.13234 799.97456,222.45202 800.52356,223.27702 801.29055,224.43002 798.70947,225.49344 798.10452,225.99844 798.60152,226.22844 799.09942,226.28223 799.61642,226.09923 796.94741,226.58423 794.60472,227.92123 792.15771,229.02224 789.74171,230.10924 787.86476,230.26535 785.30377,230.43334 784.58277,230.48134 781.36209,232.05638 781.27204,232.85238 781.16205,233.83338 782.14602,233.77087 781.27204,234.56587 780.79204,235.00187 780.48866,235.50577 780.96966,236.07777 779.11664,236.37877 778.74708,238.70818 776.83714,238.79919 776.59959,238.81029 775.91477,238.67807 775.32524,238.5976 774.42561,238.4748 773.56353,238.43352 773.51096,239.00077 773.45496,239.59677 774.0047,240.2035 774.61968,240.1095 774.08369,240.6195 773.37362,241.02102 772.70461,241.31902 774.38362,240.48802 772.71661,238.98883 772.20064,237.99284 773.06244,237.25467 773.74438,238.69176 774.61968,238.09363 774.54698,238.42083 774.87223,238.56563 775.32524,238.5976 775.92922,238.6402 776.7595,238.5728 777.13952,238.49681 778.17351,238.28881 778.35897,237.59033 778.853,236.78332 778.109,236.56732 777.32259,236.61891 776.63555,236.98491 777.32156,236.46891 778.15377,236.15718 778.95379,235.87618 777.9018,234.85718 776.22967,236.34495 775.12365,236.48094 775.12465,235.50994 776.21412,235.40104 776.83714,234.96904 776.24415,235.06904 775.73925,234.90204 775.32524,234.46508 776.66022,233.47508 777.63297,233.29783 778.853,232.14683 780.15399,230.92083 781.65573,229.28886 783.3887,228.71986 782.1717,228.93286 780.66851,229.16479 779.55855,229.72779 778.90554,230.05979 778.22886,230.58114 777.4419,230.53414 778.27788,229.62914 779.56268,229.43207 780.46569,228.61907 779.22269,228.76907 778.09213,229.23566 776.83714,228.82065 778.31114,228.63765 776.96422,227.54096 776.33317,227.20796 775.91616,226.98796 774.68048,226.727 774.21651,226.70399 773.43652,226.66599 772.88127,228.16768 771.89826,228.31669 770.79928,228.48369 769.64811,228.05751 768.57209,227.91351 768.38308,228.84951 769.67526,229.47797 768.47129,230.13096 768.9353,228.59597 767.58776,229.67035 767.76574,230.43334 767.88073,230.92334 768.16607,231.42324 768.06812,231.94524 769.07412,231.18824 771.37004,230.2831 772.50302,231.0381 774.02102,232.0501 772.45522,232.37317 772.9062,232.95318 771.10321,233.04718 768.63759,234.46725 767.86653,231.94524 767.03455,229.22124 764.77361,230.77662 766.35463,232.24762 764.84664,232.20762 763.24994,233.26117 761.81894,232.95318 760.56594,232.68318 759.38454,232.11225 758.08959,231.94524 755.0406,231.55224 752.40433,232.5618 749.42136,232.6508 748.07838,232.6898 745.93211,232.2548 744.68408,232.6508 743.72907,232.9548 743.4226,232.22684 742.46663,232.14683 741.66563,232.07983 739.41857,230.80938 740.55155,229.92938 740.62855,229.97538 731.19091,231.09844 734.50396,228.92145 733.99396,228.82445 733.49103,228.87625 732.99206,229.02224 733.23406,228.80924 733.45964,228.63647 733.69761,228.41748 732.12362,228.39648 732.14385,228.79993 730.67381,227.71193 731.59482,226.84293 731.88649,227.65783 732.28651,226.30082 732.51751,225.51582 733.16575,224.72916 732.18571,224.18416 730.5137,223.25316 727.61557,224.22916 725.93653,224.68813 720.94254,226.05213 715.7955,225.66206 711.3215,228.61907 711.8255,228.86307 712.32937,228.86307 712.8334,228.61907 712.22842,229.43007 712.39159,229.54424 713.23657,229.02224 711.26158,229.97424 714.2895,229.60721 714.74847,229.5262 715.47448,229.39821 716.24196,229.18041 716.96593,229.42541 716.71093,229.20041 716.48538,228.97485 716.26037,228.71986 717.59436,227.41686 718.89109,229.12806 720.2921,228.61907 721.01311,228.35706 722.01591,227.90531 722.81194,228.01431 723.20295,228.06831 724.22946,228.43552 724.52542,227.91351 725.50042,226.19251 729.62321,226.53644 731.48016,225.99844 729.97616,226.71044 729.64659,227.67872 727.8516,227.81272 726.3586,227.92472 724.36128,228.11524 723.11432,229.02224 721.83132,229.95624 720.4048,229.50138 718.98179,229.92938 717.58978,230.34938 716.07369,230.49372 714.64768,230.73572 716.35568,230.23473 714.75689,230.22914 714.54689,230.53414 714.1819,231.10114 714.36665,231.3269 715.15165,231.1389 714.14665,231.8419 712.29867,231.4216 711.72468,232.75159 711.28167,233.77859 712.30073,234.11863 711.22071,235.17063 710.44271,235.92763 711.39553,236.99808 710.81754,237.38808 710.15853,237.83108 710.38698,238.42457 710.11198,239.10157 709.29299,237.20957 708.14414,240.75619 707.59215,238.79919 708.19114,238.75219 708.74303,238.47384 709.10405,237.99284 708.67104,238.19684 707.82138,237.89324 707.49136,238.29522 707.15837,238.70322 706.84283,239.53933 706.28184,239.70633 705.22085,240.02233 706.0638,242.20192 706.28184,242.83092 705.31884,242.50392 705.25691,240.8007 705.27391,240.00871 705.02491,240.18971 704.80035,240.41047 704.56835,240.61347 705.13234,239.86747 704.36899,239.50715 703.76201,239.30315 704.38602,239.41015 704.93934,238.99601 705.07232,238.39601 704.41431,238.34701 703.17979,237.9687 703.8628,237.0857 704.68179,237.9317 706.87495,238.31129 707.69294,237.28729 708.65795,236.07829 707.37924,234.24701 706.08025,235.47301 706.41624,234.99401 706.7522,234.5409 707.08818,234.0619 706.13418,233.3649 704.93418,235.14301 704.16518,235.47301 703.48617,234.45101 705.28171,233.75459 705.3747,232.75159 704.3607,232.66359 703.3349,232.59018 702.3509,232.95318 702.65289,232.31618 702.11096,231.28565 701.34297,231.74366 701.75298,231.52866 702.03614,231.24552 702.25011,230.83652 701.5441,230.51652 699.26176,231.27628 698.52076,231.44128 697.04576,231.77028 695.38304,231.83321 693.98506,232.44921 695.89407,231.24021 692.30683,232.60079 691.66681,232.6508 690.72181,232.7248 690.34818,232.47917 689.55015,232.95318 689.18017,233.17218 687.63711,232.6258 687.13112,232.6508 686.09112,232.7018 685.03852,232.93396 684.00652,233.05397 681.78052,233.31297 679.27179,233.11937 677.05179,232.85238 675.03779,232.60938 672.59301,231.42307 670.60102,231.54207 671.42201,230.95107 672.67404,231.27573 673.52402,230.73572 674.74302,229.96273 674.23828,229.69599 675.84227,229.627 677.34826,229.562 678.32878,228.56965 679.97479,228.82065 681.06378,228.98665 682.16557,228.68452 682.99859,227.91351 684.06058,226.93151 682.05375,224.75833 680.98272,224.58733 679.72673,224.38633 678.55159,222.93761 677.15258,223.47861 676.26257,223.82361 675.43393,223.39721 674.53195,223.68019 674.65494,223.9192 674.81811,224.14375 674.93513,224.38575 673.91113,225.14375 670.2429,224.17258 669.18991,223.98257 667.70891,223.71357 665.94521,223.62506 664.65421,222.77306 662.96521,221.65806 661.90312,221.19657 659.81614,221.05957 658.11113,220.94857 657.0046,220.51488 655.68361,219.44688 654.0256,218.10588 652.55338,217.68859 650.44236,217.6326 648.45636,217.5796 646.68011,216.9758 644.69714,217.5318 642.78714,218.06781 641.14932,219.48943 639.25431,220.15243 637.27631,220.84343 635.06314,221.17239 633.00512,220.6564 634.08511,219.4204 636.08762,218.85574 637.64161,218.53974 637.14062,218.29974 636.58391,218.13657 636.02892,218.13656 636.71993,217.21457 637.73512,216.20932 638.85113,215.81832 637.18413,216.51332 635.15768,214.85867 633.71068,216.62466 635.30966,215.90167 636.06621,216.2987 637.33923,216.1207 635.99225,216.5877 632.95219,216.65219 631.99719,217.83418 632.57018,217.75718 633.12688,217.82058 633.60988,218.13656 632.58889,217.63656 630.53277,218.10686 629.77974,218.94291 631.82773,219.35191 627.63312,220.00522 627.15911,220.25322 627.93311,220.09122 628.76439,219.86701 629.47736,220.35402 627.83235,220.82002 625.52368,221.30668 624.43769,219.54767 623.3947,217.85867 625.07742,216.96394 625.54642,215.51594 625.92744,214.33994 625.48312,212.67576 624.23611,212.18976 623.17712,211.77676 620.70183,213.50607 622.42183,213.50007 622.18183,213.69207 621.95628,213.91283 621.71628,214.10483 622.23227,214.17483 622.73617,214.23721 623.22817,214.40721 621.67818,214.78921 620.06065,214.48261 618.59168,215.21356 617.62368,215.69556 616.66471,216.29246 615.66868,216.72546 614.68068,217.15346 611.30864,218.98798 610.32663,217.93498 611.05464,216.86998 612.54522,217.15229 613.45123,216.32229 610.16024,217.81729 606.4405,217.33895 603.06952,218.43894 600.27853,219.34894 597.67648,221.64229 594.80447,222.1683 595.11046,221.9683 598.22738,220.11698 596.31637,220.85798 596.88836,220.65498 597.39229,220.27205 597.82827,219.85005 597.34927,220.14305 596.8454,220.4684 596.31637,220.6564 597.13636,220.3384 597.66503,219.10091 598.43303,218.94291 598.92903,218.84091 599.47392,218.95531 599.94493,218.74132 601.35594,218.09932 602.96463,217.74402 604.48062,217.43101 606.86664,216.93801 610.50971,217.02697 612.24171,215.01197 610.88672,215.12397 611.60792,214.49584 612.14091,214.10483 611.08992,214.64883 609.74536,215.42535 608.51236,215.31435 607.89034,215.25835 605.23369,215.35835 606.89966,214.81039 605.37467,215.33838 603.77917,215.5397 602.26317,216.1207 601.39816,216.4517 599.66496,217.82808 599.94493,216.42308 598.63994,217.23608 596.89223,217.61797 595.40923,217.93498 594.69223,218.08898 594.0286,218.25836 593.29257,218.23736 593.07857,218.23136 592.59482,218.1309 592.38543,218.03577 591.39137,218.24826 589.75758,218.59235 591.47829,218.64053 590.11528,218.90453 588.95617,218.2907 587.64815,219.0437 586.60215,219.6467 585.83035,220.20381 584.62435,220.45481 582.24034,220.94981 579.83704,221.17712 577.46803,221.76512 576.27002,222.06112 574.98622,222.39644 573.94026,223.07543 573.13827,223.59543 573.30334,224.53789 572.93233,225.29289 572.04131,227.10889 571.43923,224.76857 571.52122,223.98257 570.13521,224.08657 568.07274,223.41675 566.88473,224.38575 568.57973,224.41375 566.5391,224.76886 567.18711,225.79685 566.14012,225.94785 565.39651,224.92454 564.56649,224.48654 563.2375,223.78654 561.55459,224.36817 560.13158,224.18416 559.16958,224.06016 554.28534,222.89016 554.89033,221.26116 554.02735,222.18315 553.06728,220.86585 552.97526,219.95084 552.92026,219.40884 550.86118,219.19749 550.55622,219.1445 548.72523,218.8275 545.87367,218.61953 544.00466,218.64053 L 458.22957,289.80059 C 460.18251,290.7084 461.15661,289.58321 462.86606,290.50614 465.22208,290.19814 467.38083,288.82542 469.8208,289.39741 469.00681,290.01741 467.66137,290.50428 467.09938,291.41328 466.52139,292.34628 468.11354,292.50093 468.00652,293.52994 467.86451,294.90194 468.55648,296.20089 469.01445,297.46088 469.45446,298.66988 468.36493,299.76227 467.80494,300.68626 469.30093,300.16426 470.84067,299.88695 472.34063,299.37595 473.48964,298.98395 474.89317,298.80923 475.96919,298.26722 477.18019,297.65722 477.73261,296.45614 479.19458,296.35215 480.44857,296.26315 479.96486,295.23784 480.90806,295.04184 481.86287,294.84343 482.67748,295.11234 484.53662,294.33628 485.13261,294.08749 486.23753,293.49817 486.85487,293.93311 488.96946,295.42296 486.36686,295.95836 486.25011,297.25929 486.17221,298.12656 487.87318,298.45226 487.45962,299.37595 487.1057,300.16641 486.63254,300.74278 487.15725,301.39181 487.82722,302.22057 488.55039,303.40788 487.8628,304.91958 487.75059,305.16625 487.27723,307.65796 487.15725,308.14496 486.86625,309.32696 486.76826,310.66231 486.65328,311.87432 486.56928,312.76332 486.50991,313.70315 485.84693,314.39415 485.34193,314.92015 484.60916,315.61984 485.74614,316.00684 484.50314,316.54984 484.49324,318.21301 484.23424,319.33302 485.17525,319.19102 488.6596,320.94209 488.76994,321.85285 488.86904,322.67069 489.57416,322.32778 489.57628,322.96158 489.57828,323.53473 490.82319,323.49655 491.08818,323.46554 490.28219,325.53054 488.05484,325.64725 486.85487,328.00124 486.30987,329.06924 485.851,329.85908 484.839,330.52107 484.16699,330.96007 483.16931,331.12277 483.22631,332.13377 483.58513,331.83299 484.03488,331.57111 484.43583,331.32742 484.07265,331.675 483.71257,332.05355 483.52869,332.33535 484.27069,332.21235 485.00314,332.35155 485.74614,332.23456 484.29714,333.01156 482.95286,332.56465 481.51282,333.64566 480.72083,334.23866 479.37446,335.33595 481.21044,335.45994 480.15145,335.72694 479.7208,334.54276 478.58982,335.05677 477.75383,335.43677 478.80656,336.93528 479.69854,336.26629 479.04653,336.68229 478.31466,337.14076 478.18664,337.97978 477.86565,337.13978 478.12344,336.19514 477.78347,335.35915 477.16445,335.83615 474.93075,337.95619 476.67474,337.77819 476.33976,338.11919 476.0576,338.40613 475.7676,338.78612 476.18836,339.14368 477.37204,339.14927 478.58982,338.98771 477.83895,339.17258 477.30679,339.61649 477.3803,340.80199 477.3613,339.07999 476.07643,339.2966 475.36443,340.49961 474.58144,341.82361 475.28503,344.45607 476.06998,345.64006 477.29499,344.80706 478.13894,343.56364 479.49696,342.91865 480.23096,342.56965 481.3014,342.29155 481.71441,341.50754 480.83839,343.04954 484.01862,340.9436 484.53662,340.49961 484.39861,341.35861 482.91364,341.56572 484.53662,341.91071 483.28362,341.41571 480.13887,343.03814 481.00885,344.63213 481.33636,345.23276 483.01921,344.80748 483.83107,345.03531 482.83678,345.01021 481.73166,345.04131 481.00885,345.84165 480.83884,345.47365 480.21854,344.16016 479.69854,344.12817 479.33456,344.10617 479.34756,344.86331 479.19458,345.03531 478.75157,345.5343 477.84098,348.00159 478.99299,346.84958 480.08098,348.11358 477.52666,348.49579 477.68268,349.6718 477.88268,351.1738 479.5783,349.91178 480.3033,349.6718 479.0683,350.3428 478.35669,351.54243 477.17871,352.29242 476.2987,352.85242 475.0077,353.99547 474.25571,354.71146 475.35237,354.76706 476.32298,354.13545 477.2795,353.50194 477.11146,353.70086 476.99886,353.96204 476.97712,354.30829 477.26989,354.24629 477.57079,354.08177 477.78347,353.90511 477.38684,354.36474 477.06592,354.87572 477.07792,355.31622 478.57979,354.33916 481.07827,353.77997 483.22631,352.89718 482.9976,353.25999 482.89225,353.8412 483.12551,354.1067 483.27024,354.27102 483.89957,354.2133 484.43583,354.1067 483.11042,354.60786 484.17515,355.67646 483.42789,356.72733 483.26288,355.89832 483.49579,354.46087 482.52075,354.50987 481.86674,354.54187 481.34926,354.77762 480.80727,355.11463 480.38926,355.37418 478.51854,356.17043 478.18664,356.22336 477.62236,356.52468 477.04673,356.90688 476.57395,357.33209 476.05395,357.79909 475.28767,357.55863 474.75967,358.03764 473.84266,358.87164 472.75342,360.23539 472.94539,361.5654 473.43765,361.4671 473.90301,361.32306 474.25571,361.06144 475.31382,360.27656 475.89859,359.00044 477.48109,358.74319 476.9381,358.90619 476.50557,359.23712 476.27157,359.75112 477.91958,358.68412 480.92477,361.07299 482.01679,358.84398 481.71979,360.59199 478.95348,359.90892 477.78347,359.85192 476.49851,359.78962 475.33714,360.35904 474.25571,361.06144 473.49655,361.55452 472.7998,362.13918 472.13905,362.67413 473.38704,362.47313 474.6224,362.82234 475.8684,362.57334 475.6344,362.68433 469.34731,363.31461 471.03032,364.38762 471.22694,364.51311 471.38269,364.6203 471.63508,364.69 468.87105,366.11978 475.73303,366.72464 472.94539,366.00031 474.81941,366.44031 476.77086,366.64338 478.08585,364.99237 477.74835,365.58787 477.87601,365.90256 478.18664,366.00031 477.55705,365.99731 476.95255,366.10885 476.77554,366.80665 477.20455,366.64866 478.60598,366.08428 478.99299,366.50427 479.70199,367.27527 478.07166,367.80098 477.68268,368.11697 480.53069,367.53497 482.4,367.31459 484.33503,364.89158 483.53804,367.87258 479.39613,368.23834 476.97712,368.41935 477.35214,368.98134 478.17761,368.49795 478.69061,368.62093 477.85362,368.77395 477.02615,368.76907 476.47316,369.52807 477.39617,369.45907 479.66758,369.01804 479.69854,370.03204 480.52953,369.41905 481.54633,367.88016 482.72234,368.01617 481.76634,368.17019 481.29527,369.12345 480.80727,369.83045 481.73728,369.68244 482.64767,370.44024 483.52869,369.93125 484.23669,369.52223 484.83658,369.03094 485.54455,368.62093 486.40654,368.12093 486.41666,367.61345 486.95566,366.90745 487.30565,366.45045 487.83396,366.25952 488.26597,365.89951 488.52697,366.29351 486.05474,368.82091 485.44376,369.1249 484.95576,369.3679 484.47263,369.49546 484.03265,369.83045 483.83016,369.98514 483.46989,370.64054 483.42789,370.83839 483.53698,370.78269 483.7732,370.59738 484.13345,370.23363 483.10445,371.69163 485.09155,370.842 485.54455,370.53601 486.35954,369.98601 487.32796,369.95747 488.26597,369.83045 487.81397,370.01146 484.95715,370.41657 485.24217,371.24156 485.45018,371.84454 483.72953,373.73517 483.12551,373.86218 482.4675,374.0002 483.58368,375.49365 484.03265,375.57567 484.74366,375.70568 485.5033,375.59127 486.14931,375.27329 486.78633,374.9593 487.48781,373.61051 487.35883,375.1725 487.47382,374.56951 487.65876,373.65102 488.36676,373.45901 489.05977,373.27 490.13189,372.77213 489.2739,371.94711 491.23091,372.5011 488.26716,373.50055 488.16518,374.16456 488.03216,375.03058 486.82442,375.5628 487.56042,376.48281 487.74491,376.71281 488.0419,376.68049 488.36676,376.5836 487.61315,376.87905 486.83606,377.1453 486.3509,377.89391 487.27491,375.72091 485.09255,376.44252 485.54455,377.59154 485.95156,378.62653 487.27736,379.12208 488.06438,378.29709 488.9534,377.36408 490.30958,377.14382 491.39056,376.48281 489.7552,377.71481 488.96736,380.17891 490.7858,379.40581 489.68269,379.82266 488.34683,380.01109 488.46756,381.22009 488.73755,381.14109 489.01591,381.0307 489.2739,380.91771 488.71991,381.16371 488.23756,381.58624 487.96359,382.12723 488.72559,382.12323 489.82861,381.62498 490.38263,382.73199 L 675.74147,382.53041 676.04385,378.70026 C 676.65303,378.04854 678.13007,379.18429 677.85813,380.51454 677.64929,381.53615 676.79198,382.88349 676.95099,383.94151 677.13,385.13252 682.1039,384.42238 681.3859,385.95738 683.0999,386.49337 684.32661,385.07423 685.9216,385.05024 687.1206,385.03324 688.21055,385.80317 689.34857,386.05817 688.98158,386.64216 689.31727,387.02611 689.95333,387.0661 689.45533,387.6091 690.00133,388.94063 690.45729,388.27562 690.9073,387.61861 691.16417,387.44721 691.96919,387.97324 692.58821,388.37725 692.98948,388.91618 693.78347,388.98118 693.64846,389.32316 693.68487,389.7543 694.08585,389.88832 696.02986,390.53933 698.13664,388.598 700.03266,388.578 699.26866,389.97001 701.67389,389.73972 702.3509,389.68673 703.97691,389.55971 704.89641,390.5811 706.48343,390.49308 710.17143,390.28707 711.41265,385.67538 715.15165,385.95738 714.35265,386.47537 713.93481,387.35445 713.13578,387.87245 715.32579,387.38645 715.93745,385.05953 717.67148,383.94151 719.04249,383.0585 719.33749,384.35323 718.17545,385.05024 717.41845,385.50424 716.43361,385.93151 716.15958,386.86452 716.90658,386.60352 717.27363,385.80098 718.07465,385.655 718.94467,385.49699 719.8401,385.1937 720.2921,384.34468 720.76711,383.45167 720.05478,381.81224 721.9048,382.12723 722.73579,382.26925 725.18995,383.2577 725.73494,383.84072 726.08493,384.21473 727.13221,383.90272 727.54922,383.84072 728.29322,383.73173 728.67453,384.03411 729.3635,384.1431 731.0685,384.41609 732.45568,383.85756 732.18571,386.36055 732.0577,387.55456 731.18675,389.47208 732.18571,390.49308 733.7727,392.11609 736.91903,390.49508 738.83807,390.79545 738.29507,391.76146 735.938,393.45959 736.923,394.6256 737.77698,395.6376 738.38597,395.93543 737.42696,397.14543 737.11597,397.53944 735.28266,398.72129 736.11665,399.1613 736.54866,399.3903 737.84036,399.56202 737.72934,400.27002 736.52434,400.03802 735.26263,402.28237 736.62062,401.07637 736.37162,401.90636 735.45948,402.16142 735.20951,402.99144 736.0445,403.20945 739.61174,402.67274 737.52776,404.30175 738.51376,405.02276 739.80391,404.58211 740.85393,405.1081 742.08993,405.72612 743.51565,405.91445 744.88567,405.91445 746.53768,405.91445 748.18256,405.61923 749.82454,406.01524 750.70155,406.22625 753.22477,406.06674 752.14278,407.22476 752.60679,406.89977 753.11066,406.67422 753.65468,406.51921 753.38468,406.72821 753.1063,406.89996 752.84833,407.12397 754.59433,406.77398 753.05576,407.67151 752.64675,407.82952 753.80276,407.19051 755.24625,408.29955 756.27531,407.32555 755.3653,408.55755 756.96625,407.67231 757.78721,407.93031 758.25821,408.07833 758.73011,408.40725 758.79514,408.93825 758.87914,409.62725 758.54907,411.42473 759.80307,410.65173 759.81007,411.21772 758.98692,412.65699 759.90386,412.96998 760.35387,413.12399 760.97624,412.814 761.21418,412.46601 761.48217,413.18801 760.41041,413.38412 760.60942,413.87712 760.86342,414.50913 761.02949,414.92424 760.10545,414.78426 760.47647,415.67627 761.20221,416.37989 761.21418,417.40488 761.48217,417.26787 761.76156,417.15272 762.02052,417.00171 761.34152,418.72771 759.53049,416.38747 759.09752,417.60647 758.7105,418.69545 759.11262,420.01886 757.58562,420.32789 755.61662,420.7269 754.64771,417.19213 752.64675,419.21916 752.86975,418.70716 753.19613,418.20326 753.45309,417.70726 752.9321,417.50825 752.38017,417.56586 751.94119,417.90885 752.45719,417.57886 752.85072,417.13253 753.15071,416.59853 751.46471,417.05954 752.24399,415.41724 752.04199,414.78426 751.76699,413.91924 750.35592,413.75155 749.62295,413.67553 751.77396,415.88253 750.45158,419.10205 748.31264,420.73106 746.16863,422.36307 744.54732,424.46325 743.57535,426.98024 742.35535,430.14125 740.43938,431.45366 737.22538,432.62467 735.29537,433.32767 734.97609,436.60421 732.99206,436.75719 735.88307,439.31418 731.67223,438.47026 729.96826,438.67226 728.85724,438.80428 727.3735,440.70168 728.85953,441.39368 729.84653,441.85369 731.12153,440.64965 731.78254,441.89765 732.88452,440.51664 734.75486,439.45103 736.51982,439.27702 738.07881,439.12201 739.19173,437.63498 740.45076,436.85798 743.78978,434.796 747.59886,437.31518 751.13485,436.75719 750.35985,436.68919 749.56057,436.60502 748.8166,436.35402 750.47961,434.85802 752.51167,434.44056 754.66261,434.13657 756.5076,433.87557 758.45128,434.55938 760.20624,433.73339 758.98224,432.77539 760.29954,431.69679 760.50862,430.6088 759.29362,430.78181 754.0455,432.10809 756.67848,429.50007 758.33149,427.86306 760.57487,426.38671 762.82687,425.77072 765.71588,424.98173 768.76664,424.91461 771.69668,424.35962 772.43468,424.2206 776.12665,424.55195 775.62762,425.66993 776.36962,425.37894 777.15387,425.17416 777.94586,425.06517 776.11488,425.05217 778.18838,423.90629 778.65141,423.55327 778.15142,423.70928 777.64651,423.92422 777.13952,424.05724 777.61152,422.70925 774.35236,423.44329 773.81334,423.55327 774.67835,423.29527 775.53998,422.9937 776.43396,422.84772 776.91496,422.76972 779.41964,422.61446 777.54269,423.45248 778.62968,423.60849 779.47066,422.78934 780.46569,422.54534 781.4147,422.31234 782.38493,422.2508 783.28791,421.83979 785.19991,420.97077 787.03954,420.24338 788.83154,419.11837 790.63453,417.98535 794.48764,416.26219 796.59262,415.79219 L 817.86,415.99378 C 819.64699,415.99378 818.76101,416.13189 819.77507,414.48188 820.55907,413.20388 821.98611,413.68798 823.20204,412.96998 823.32403,413.20898 823.38641,413.43453 823.50442,413.67553 823.68043,413.59953 824.49336,413.10019 824.51236,412.86918 824.57036,412.12818 825.03368,412.78528 825.3187,412.36522 825.98771,411.37822 826.21659,410.81577 827.33457,410.14776 829.09357,409.09677 829.72626,408.25775 830.55995,406.41841 831.10295,405.22047 832.17274,404.87316 833.07979,403.99937 834.23093,402.89039 834.86523,401.29347 836.10358,400.16923 837.2106,399.16423 838.28333,398.31399 839.53056,397.24622 839.89928,396.93052 842.42137,394.38679 842.85673,395.12957 843.17966,395.68056 842.84413,396.4762 843.3607,397.04464 844.40744,398.19646 847.68881,395.49245 849.10592,396.43988 851.98622,398.36553 849.23761,402.32072 848.29957,404.80572 847.80357,406.12071 845.4761,409.31036 847.09005,410.34935 847.90004,410.87135 848.49445,410.80242 847.8964,411.65966 847.36756,412.41769 846.68649,413.79158 847.59402,414.68346 848.35102,414.19946 849.33076,413.51726 849.20671,414.78426 850.37972,414.02426 850.03822,415.2818 850.9202,415.48981 851.8792,415.71681 852.74364,414.36705 853.64162,414.88505 854.10962,415.15505 855.04253,414.15769 855.65748,414.0787 856.42248,413.9807 856.51382,413.62976 855.95986,413.07077 856.63887,412.86776 857.22712,412.39305 857.77414,411.96204 857.51914,412.54103 857.13045,413.04493 856.66541,413.47394 857.92441,415.03393 861.38925,412.57703 862.61222,411.96204 863.69121,411.41905 865.81593,411.29594 866.64395,410.55094 868.15095,409.19595 868.32225,408.96598 868.45823,407.12397 868.56421,407.90496 868.86279,408.72121 869.16378,409.44221 869.55979,409.0412 870.11272,408.82045 870.67568,408.83745 869.11069,409.54246 867.8426,410.77088 866.34157,411.55887 865.98658,411.74488 865.1963,412.043 865.03126,412.46601 864.76926,413.13902 865.3774,413.57577 865.9384,413.07077 867.04238,412.07677 868.94255,412.45479 870.27251,412.5668 871.98951,412.71182 873.71693,412.4742 875.41296,412.86918 873.86997,413.85818 868.41878,412.80878 869.16378,415.99378 868.60879,415.99378 868.95571,414.18362 867.75268,415.08664 868.11066,414.62163 868.17227,414.11873 867.95426,413.57474 864.68227,415.50374 859.97972,415.3496 857.47176,418.51361 857.95176,418.36859 858.50369,418.25542 858.98366,418.11043 858.14267,418.47542 856.85368,419.94539 856.56462,418.6144 855.32262,419.43839 853.94706,419.99625 852.93606,421.13423 853.87607,420.59924 854.73686,419.39333 855.95986,419.62233 854.22586,420.90833 849.96987,424.46106 852.02892,427.08104 852.46193,426.80204 852.80463,426.46608 853.13765,426.0731 853.30466,426.42109 853.33462,428.16857 853.64162,428.29056 854.26663,428.54056 855.04653,427.99911 855.15351,428.99611 855.41351,427.88509 856.69838,428.01985 856.66541,426.67786 856.90342,426.82688 857.12793,426.94205 857.37097,427.08104 857.52398,426.82204 857.64016,426.54369 857.77414,426.27469 858.21115,428.32568 860.4963,425.46138 861.10032,424.96438 862.03333,424.19738 865.02822,422.8832 865.03126,421.6382 865.29525,421.7332 865.57457,421.84356 865.8376,421.94058 865.94859,421.01657 867.83186,418.58366 867.65188,420.42868 868.35789,420.36068 868.19884,420.12633 868.15585,419.62233 868.10285,419.01035 869.27873,418.74238 869.66775,418.6144 868.13575,419.97542 872.61259,421.89462 871.68361,418.51361 872.45161,420.14562 874.77995,418.44381 875.91693,418.41281 877.78395,418.36181 879.92038,417.31973 881.56135,416.49774 883.24236,415.65675 885.52842,414.68288 887.40736,414.48188 888.47535,414.36789 890.89149,414.44278 891.23751,413.07077 890.39252,412.80577 889.49822,413.38702 888.91926,412.46601 890.60727,412.52101 890.1343,410.22475 888.91926,410.14776 888.29425,410.10876 887.87882,411.17092 887.20578,410.55094 886.69978,410.08493 886.6126,409.21985 886.29864,408.63587 884.80264,409.85087 882.28984,410.74172 880.35184,410.65173 880.58584,410.21572 880.97459,409.93837 881.46056,409.84539 880.46656,409.20537 879.32723,409.48521 878.23518,409.44221 877.35516,409.40721 876.90751,408.76988 876.11852,408.63587 874.56753,408.37187 873.80092,408.45595 872.48996,407.12397 873.30595,406.95596 874.18822,406.96063 874.8082,406.31762 873.6012,405.78063 872.27912,405.64229 870.97806,405.51127 869.25706,405.33726 870.8264,404.25415 869.36537,404.60413 870.85437,403.98815 869.59911,400.86046 869.97013,399.56447 870.04613,399.29747 871.33514,398.18036 869.97013,398.15336 868.95313,398.13336 868.17791,398.57215 867.14792,398.25416 870.30692,397.11315 871.31811,394.43453 873.90107,392.71053 872.60707,393.29951 873.47893,392.19198 872.48996,392.00497 871.92697,391.89899 871.31847,392.06157 870.77647,392.20656 869.52248,392.54055 868.2489,393.01646 867.14792,393.71846 867.08292,391.42447 866.7121,391.45366 864.62808,390.69466 863.87009,390.41967 863.35044,390.08771 862.51142,390.1907 861.71743,390.2877 861.13293,390.79107 860.29397,390.49308 861.56597,390.33106 862.49675,389.44312 863.82174,389.48514 864.79074,389.51614 865.99955,389.08774 866.84554,389.18276 868.51754,389.37077 869.81586,391.07571 871.58282,390.1907 873.97483,388.99469 876.0106,387.72953 878.53756,386.86452 879.25856,386.61752 880.15564,385.58188 879.94866,384.74786 879.73266,384.33785 879.3987,384.0125 878.94073,383.94151 880.07974,383.71851 877.74569,383.32453 879.4447,383.43755 879.8777,383.51655 880.34097,383.58791 880.75501,383.73993 881.67602,381.63691 876.81578,380.20358 875.51376,380.01057 873.22277,379.67059 870.81502,379.96277 868.55902,380.41375 866.12102,380.90075 863.9383,381.81121 861.60428,382.6312 859.32329,383.43419 857.01034,383.49147 854.75034,384.44548 849.91333,386.48747 844.22691,389.14451 840.3369,392.71053 838.27791,394.59854 835.81894,396.41778 833.48296,397.95178 831.14198,399.48877 828.42665,400.13536 825.82267,401.07637 827.31367,400.16736 828.8246,399.35595 830.25757,398.35495 831.46158,397.51296 832.77473,395.65656 834.08772,395.12957 836.97973,393.96956 839.34626,392.14115 841.14325,389.48514 840.81426,389.41464 840.64583,389.20857 840.4377,388.98118 840.70086,389.13522 841.02684,389.36416 841.14325,389.38435 841.95824,389.52736 843.17285,388.37925 843.76387,387.97324 845.78987,386.58023 847.10531,384.46654 849.4083,383.43755 850.52231,382.93955 853.50667,381.89875 853.64162,380.41375 853.87962,380.87575 853.77124,381.31727 853.33924,381.62327 853.79924,381.32127 854.30411,381.1571 854.85114,381.22009 853.88313,379.85608 858.03662,379.5926 858.98366,379.50661 860.46866,379.37259 861.65518,378.98813 862.61222,377.79312 863.89821,376.18311 867.64575,371.37867 870.17171,372.65266 869.32973,370.95866 871.9369,372.17311 872.48996,371.94711 874.18696,371.2561 875.82036,371.30578 877.63042,371.14077 880.41441,370.88677 883.86999,372.08435 886.60102,371.34235 888.25603,370.89435 889.65046,372.29352 891.23751,371.74552 892.73151,371.23053 894.0714,371.14757 895.67241,371.24156 897.21641,371.33156 898.76188,371.6645 900.3089,371.74552 900.91889,371.77652 900.8986,372.55587 901.41763,372.55187 901.84264,372.47687 902.22714,372.30971 902.62715,372.1487 902.19614,372.43669 901.79881,372.66328 901.31684,372.85425 903.78284,372.60425 905.74458,371.86212 908.27157,371.94711 909.25158,371.97911 910.11482,371.61354 911.09379,371.74552 911.85678,371.84851 912.56527,371.93973 913.31124,371.64473 914.22025,371.28575 914.57572,370.24004 915.52869,370.03204 916.01969,369.92505 916.6976,369.97904 917.04059,369.52807 918.1736,368.04107 920.19034,367.67328 921.57629,366.50427 921.44627,367.83426 922.03181,367.01648 922.28184,366.40348 922.74784,365.26248 922.13783,365.57797 923.28977,365.19396 923.97778,364.96496 924.77145,364.43224 925.40643,364.08524 925.89843,363.81624 925.11547,363.50188 925.40643,363.27889 926.48242,362.45589 928.11137,363.27489 929.33737,362.97651 930.74138,362.63651 931.95612,361.78061 933.3691,361.46461 934.81211,361.14261 936.06165,362.11919 937.50163,361.6662 939.02462,361.1882 940.19414,359.99495 941.63415,359.34795 943.14715,358.66695 944.63724,358.13949 945.96826,357.1305 946.51125,356.7185 947.0756,356.20056 947.78254,356.12257 947.50454,355.58956 947.56009,355.13845 947.98413,354.71146 947.19213,354.39046 946.49971,353.93294 945.76667,353.50194 946.74068,353.89794 947.82853,353.67969 948.79047,354.1067 949.15446,352.3997 945.10502,352.44662 944.15398,352.19163 945.24697,352.24663 947.43078,352.90266 947.17778,351.68766 947.87479,351.83766 948.81402,352.56828 948.99206,351.38528 948.25806,351.45228 947.41456,351.36218 947.27857,350.47814 949.55057,350.59814 949.97158,349.36727 947.78254,348.46228 948.90855,348.42328 950.19939,348.51658 950.80634,347.35355 951.20535,346.58855 950.90845,345.28507 949.79841,345.64006 950.24741,344.65007 948.54976,344.03158 950.10079,343.92658 948.98677,344.07158 947.36624,343.83728 946.47223,343.12023 947.07721,343.34123 947.54757,342.99268 947.78254,342.41468 946.87253,343.27668 945.64592,342.32668 944.65795,342.91865 943.75594,343.45865 943.13354,344.71314 941.93653,344.63213 942.52052,343.60313 941.55277,343.80479 940.8278,343.82579 941.99881,343.07379 943.37215,342.7395 944.55716,342.01151 943.66314,341.36451 944.20743,339.5783 943.44843,339.18929 942.82441,338.86929 941.99381,339.10169 941.33177,338.98771 940.36277,338.82071 937.54285,337.89946 937.40083,339.59247 938.39783,339.51647 939.3509,339.33127 940.32384,339.69326 939.40683,340.12626 938.36387,339.88944 937.40083,340.09643 936.34684,340.32343 935.29224,340.64757 934.27624,341.00357 933.14323,341.40057 931.49509,343.21522 930.4461,343.12023 929.51509,343.03623 928.83508,343.82117 928.02706,344.12817 927.18807,344.44617 925.93469,344.15347 925.30564,344.93451 924.53264,345.89351 922.30529,346.94421 921.07232,346.5472 921.58232,346.4562 922.08725,346.29202 922.58422,346.14403 920.54923,345.96603 923.46633,345.0103 923.99533,345.03531 923.69033,344.0253 922.49133,343.59381 921.57629,343.32182 920.68427,343.05582 919.35219,343.1497 920.16518,341.91071 920.43618,342.37971 923.23997,344.14137 923.69295,344.02737 925.22194,343.64137 925.76171,341.8975 927.72468,342.01151 930.52767,342.17351 935.29366,340.49513 937.50163,338.78612 936.61261,339.01512 929.45835,341.41643 929.33737,340.09643 932.19038,340.54843 934.86339,339.05854 937.60242,338.58454 938.69641,338.39453 939.47921,337.52202 940.62622,337.37502 941.93121,337.20802 943.21259,337.49346 944.35557,336.66946 943.87357,336.65446 943.42243,336.70726 942.94446,336.77026 943.84547,336.35126 945.01732,336.83956 945.46429,335.66153 944.77429,334.85353 943.5319,335.2936 942.74288,334.6536 942.24688,334.2506 939.96192,333.99305 939.3159,333.94804 938.44989,333.88704 936.93231,332.7629 936.19131,333.0409 937.64232,332.88791 936.13671,332.14743 936.99766,331.32742 935.92367,331.37042 935.13564,332.25435 934.07465,332.33535 934.90064,331.98135 935.69231,331.38286 936.19131,330.62187 933.85933,330.45287 931.94854,334.58943 929.74054,334.25042 930.76354,333.77443 931.405,332.75834 932.46196,332.33535 933.16897,332.05235 934.4556,331.55907 934.07465,330.52107 933.42464,331.10307 931.88868,331.80205 931.15165,331.02504 931.93864,331.17704 932.79895,330.62272 932.46196,329.71473 931.10998,330.59773 929.75848,331.38276 928.32944,332.13377 928.93942,331.45176 929.93329,331.19349 930.3453,330.31949 928.79231,329.88949 926.88376,331.53736 925.70881,332.33535 926.45781,331.34635 927.72461,330.88269 928.73261,330.21869 928.20661,330.34969 927.70075,330.57144 927.22071,330.82345 927.95071,329.89645 930.21129,329.65162 930.3453,328.30362 929.80531,328.43262 929.30041,328.60639 928.8334,328.90838 929.6254,328.59138 929.75296,327.86509 929.53896,327.0941 929.46496,326.8281 930.51389,326.31159 930.54689,325.88458 929.62188,325.66258 929.1412,326.76509 928.43023,327.0941 928.87424,326.6871 929.14681,326.18419 929.13578,325.5822 928.66778,326.1022 927.92372,326.47176 927.22071,326.28775 927.90172,326.32375 928.31563,325.31161 927.72468,325.38062 927.27367,325.43262 926.16259,325.36322 925.80961,325.07824 926.04061,324.85224 926.26619,324.67947 926.51516,324.47348 926.02016,324.55348 923.89157,324.13413 925.80961,323.66713 924.03661,324.47813 925.71221,322.73381 926.01119,322.35682 924.82019,322.71482 922.9982,322.77307 922.08025,321.75206 922.32725,321.75506 925.66817,322.12406 923.59215,321.75206 925.79716,321.92206 922.32925,320.61274 922.08025,320.44174 922.98127,319.84575 924.50807,320.64361 925.10405,319.53461 924.14405,319.2466 923.05422,319.43122 922.08025,319.23223 922.63125,319.24323 923.24571,319.18943 923.79374,319.13143 922.78674,318.89843 921.48956,318.39896 920.97153,317.41795 921.97853,317.45195 922.9913,317.41495 923.99533,317.51874 923.20233,317.64274 922.3489,317.3655 921.77787,318.1235 922.34286,318.3915 926.14066,319.7287 925.30564,318.02271 925.05164,318.17071 924.82612,318.33867 924.60009,318.52667 925.11108,317.57867 927.74135,316.11001 928.8334,316.41001 929.67139,316.64001 928.99142,315.11311 928.8334,314.89811 928.28141,314.14912 927.1662,314.73177 926.51516,314.09177 929.35314,312.91777 924.63195,312.6637 924.19691,312.1767 924.85592,312.5697 927.64204,311.60618 928.02706,310.96718 928.36705,310.40318 927.5427,310.16186 927.72468,309.65686 927.89069,309.19386 928.37788,308.79477 928.12785,308.24576 927.39085,308.70376 926.47516,308.21086 926.01119,309.1529 926.80119,307.9929 925.47565,308.23556 924.80167,308.34655 925.53167,308.00955 926.34792,308.00258 927.11992,307.84258 927.20392,307.04559 926.97761,306.87763 926.31357,307.33862 926.51058,307.10162 926.62753,306.87507 926.81754,306.63307 925.93252,306.67507 924.68056,306.56427 923.89453,307.03624 923.16753,307.47224 921.9823,308.34417 921.07232,308.04417 921.85132,307.41817 922.85473,307.18445 923.79374,306.93544 924.23175,306.81944 926.94504,306.05573 925.10405,305.82672 926.50806,306.02972 926.45194,304.98723 927.11992,304.11323 925.89592,304.19723 924.55838,304.24858 923.49136,304.91958 925.64637,303.67758 921.5411,305.13916 921.17311,305.12117 921.67811,305.03617 923.46191,304.04302 921.77787,304.21403 922.69888,303.97103 926.25758,303.86455 926.31357,302.50054 926.33957,301.87954 927.18681,301.38743 926.21278,301.08943 925.61179,300.90644 925.02855,301.36222 924.3985,301.19023 925.09451,301.15823 926.57647,299.60966 924.90247,300.48467 925.32747,300.04067 925.82641,299.65673 926.41436,299.47674 925.00136,299.33574 922.48768,299.17808 921.3747,300.28309 921.2747,300.02909 921.27391,299.74974 921.27391,299.47674 923.10089,299.38274 924.43698,299.38224 925.60802,297.76326 925.16201,298.10226 924.65711,298.27023 924.09612,298.26722 924.67411,298.19722 925.00223,297.83528 925.00326,297.25929 924.41727,297.28329 923.91237,297.45604 923.49136,297.86405 923.82235,297.07405 923.26023,296.85133 922.58422,296.75532 923.42421,296.66832 924.30064,296.67622 924.80167,295.84818 924.29867,295.44618 923.79377,295.44619 923.28977,295.84818 923.97978,294.98118 923.87037,294.81322 922.98739,295.34422 923.2154,295.11422 923.38618,294.88866 923.59215,294.63866 922.06316,294.86966 923.46894,292.11704 924.19691,292.01804 923.24291,291.93804 922.59712,292.76839 921.67708,292.82439 922.09409,292.23339 922.23265,291.82928 922.8866,291.41328 922.00859,291.71728 921.10216,291.97704 920.16518,292.01804 920.77017,291.83804 924.35041,290.33572 922.48343,290.70773 924.30941,289.87673 922.13212,289.93396 921.67708,290.10297 922.16608,289.89397 922.66395,289.7788 923.18898,289.69979 921.63699,288.44779 920.11848,290.80586 919.05646,291.61487 918.51307,292.02874 916.66338,293.31738 917.54456,293.83232 916.34484,293.62391 914.81504,293.12777 914.41996,294.84025 914.18696,295.84825 915.82968,296.07891 916.03266,296.95691 915.20967,296.33891 914.35301,296.43156 913.41203,296.15056 913.84004,296.74556 913.62845,297.96928 912.70648,297.25929 912.90748,298.19629 911.82856,298.64783 911.19458,297.96484 910.20858,299.30584 911.99844,299.25413 912.70648,299.77912 912.07846,299.58412 911.2388,299.74812 910.58982,299.77912 910.17081,299.79912 907.21168,301.09903 909.17871,301.29102 908.70371,301.44402 907.73642,301.1026 907.36443,301.49261 906.66543,302.22461 907.84282,302.36951 907.66681,303.00451 907.42381,303.87951 906.08073,305.10054 905.24778,305.42355 905.74178,304.46455 908.12059,301.70681 905.34857,301.39181 904.29158,301.27181 903.42879,302.97427 902.82874,303.60927 902.20672,304.26527 901.63089,303.89224 900.81287,304.11323 899.81587,304.38323 898.84787,304.94876 897.88987,305.32275 895.81488,306.13075 894.70435,306.94494 893.25338,308.64893 893.78437,307.27393 895.64361,306.08261 895.06765,304.41561 894.10565,305.43261 893.23447,306.89504 891.74148,307.13703 892.64449,306.42203 894.19786,305.7734 894.46289,304.51641 894.9059,302.41041 892.4718,304.62717 892.04386,305.12117 891.70248,305.5152 891.35398,305.80267 891.03592,306.1291 890.17636,307.01134 889.30334,307.74642 887.91133,308.14496 886.01332,308.68896 884.10389,309.12345 882.26691,309.85845 884.64066,308.2902 888.86511,308.17618 891.03592,306.1291 891.75954,305.44674 892.32653,304.54139 892.44703,303.30689 892.72203,300.49589 891.49628,300.70505 888.91926,300.78705 886.71826,300.85605 885.1364,302.9403 882.97246,303.1053 883.18846,302.8643 883.46104,302.53895 883.67801,302.29895 882.92102,302.56895 882.27736,301.88898 881.56135,301.79499 882.80335,301.90699 885.00778,301.49812 884.78674,299.77912 885.82673,300.04112 885.22149,300.97718 885.3915,301.69419 886.07351,301.24519 889.16817,299.1642 887.50816,298.77119 888.12314,298.30619 888.85185,297.99422 889.62482,298.26722 889.89981,296.82722 888.05657,297.5043 887.30657,297.25929 887.95158,297.02829 887.80934,296.68357 887.91133,296.15056 887.99933,295.68756 888.80086,295.54723 889.12085,295.34422 889.40785,295.16222 889.99916,293.22139 889.9272,292.82439 889.79518,292.09338 887.3924,292.21663 886.9034,292.21963 885.27039,292.22963 884.05545,291.89986 882.46849,291.61487 883.71649,291.36687 884.95082,292.03403 886.19785,292.01804 886.91185,292.00904 890.10385,292.20766 889.62482,291.71566 892.35781,292.02566 891.70671,287.44261 894.05972,286.37362 894.76673,286.05162 895.77837,286.05789 896.17638,285.26489 896.5544,284.51089 895.93967,283.07496 895.06765,284.25696 894.38465,285.18196 893.05843,285.86611 891.74148,285.1641 894.28347,283.4521 889.67923,283.89198 889.42323,283.75299 888.72523,283.37499 887.88504,283.16742 887.10499,283.04744 886.09499,282.89244 885.39147,283.59667 885.3915,282.44268 884.45149,283.12068 884.02939,281.97115 883.98039,281.23316 884.53039,281.38116 885.03526,281.26976 885.49229,280.93078 884.9733,280.96978 884.46739,280.91318 883.98039,280.72919 884.78139,280.22019 885.61421,280.02225 886.50023,279.72126 885.98481,278.03029 884.66701,279.05957 883.47643,279.31809 884.11041,278.99793 884.44707,278.14592 883.47643,278.10857 883.66743,277.86657 883.78542,277.641 883.98039,277.40301 882.2194,277.22601 881.99885,277.05761 880.35184,277.6046 881.11683,277.1856 882.58754,276.46615 882.46849,275.38715 880.9635,276.06815 880.8271,274.16645 879.74708,273.77446 878.05207,273.15746 877.41857,272.68728 875.61455,273.37128 874.80656,273.67628 869.66768,274.39873 870.67568,275.58873 868.54267,273.57573 866.28077,274.01378 863.82174,275.08477 864.27774,274.58777 864.92746,274.50683 865.43443,274.07684 863.10244,274.10984 860.98208,272.74575 858.78207,272.16176 856.46409,271.54676 855.22463,272.38769 853.13765,273.1697 851.26164,273.87269 850.16568,274.44429 849.20671,276.29429 848.46971,277.71629 849.19771,279.27185 850.71861,279.92285 849.8436,279.51685 848.14901,281.67468 847.59402,282.44268 846.49003,283.96968 843.93808,283.87886 843.15911,285.76886 843.63312,285.65786 844.08422,285.60126 844.57022,285.56727 842.86822,286.31927 845.7639,285.69007 846.18291,285.66806 845.49991,286.24206 844.62902,286.56155 844.16705,287.38155 844.62505,287.59755 845.07715,287.71273 845.57815,287.78472 844.95614,288.06472 843.75271,288.15667 843.3607,288.79265 843.1257,289.17566 843.89786,289.93514 843.76387,290.50614 843.59886,291.02614 843.31474,291.40767 842.85673,291.71566 843.41673,291.50766 843.9226,291.61906 844.36863,292.01804 843.63863,292.29904 843.21053,293.76333 842.45356,293.83232 841.74656,293.89732 840.94747,294.01903 841.04246,294.94104 840.57345,294.74104 840.12238,294.57308 839.63135,294.43708 839.71335,295.32008 836.58807,296.89391 838.32104,296.95691 835.87303,297.46791 834.49547,299.61989 832.27344,300.38388 830.32044,301.05488 830.88082,301.65231 829.65281,303.1053 830.36382,303.0303 831.28886,304.15899 831.56789,304.71799 831.9469,305.47499 832.73919,305.68111 833.38217,306.1291 834.92916,307.2081 835.36223,309.44277 835.29724,311.16876 835.12023,315.90076 832.07908,320.61435 828.54409,323.56634 824.60109,326.85934 819.67196,329.32662 814.937,331.22663 812.674,332.13563 810.04883,333.10766 807.67988,333.64566 806.07086,334.01166 803.75923,333.91815 802.64022,335.35915 803.62222,335.61515 803.13086,336.44164 802.8418,337.07264 802.3478,338.15064 803.68843,338.59092 802.53942,338.88692 803.03642,339.09391 803.54229,339.31468 804.05132,339.49167 802.86631,339.73867 803.38528,340.1366 804.05132,340.49961 803.35232,340.77861 802.68879,341.90729 803.84973,342.1123 802.96972,341.7813 802.63589,342.85064 801.83387,342.91865 803.06687,343.05165 802.40892,343.60157 801.83387,343.92658 803.80387,343.57358 801.01411,344.72947 801.22911,345.43848 801.5351,346.44748 800.348,347.85485 799.818,348.66386 800.059,348.78186 800.28452,348.84526 800.52356,348.96624 799.81455,349.39224 800.15593,349.80839 800.82594,349.87338 800.62193,350.43138 800.11261,350.77374 799.51562,350.67973 799.76262,351.27573 799.8708,351.94501 799.41483,352.49401 800.21482,352.38101 800.22863,353.15453 800.01959,353.70353 799.75159,354.40453 798.8322,354.76484 799.71721,355.01384 798.3142,355.20884 797.46044,356.78408 796.18945,357.33209 795.72444,357.53209 795.31795,357.47664 795.48389,358.03764 795.63091,358.53264 794.1442,359.13596 793.8712,359.34795 794.75821,360.20695 793.59433,361.20603 794.77834,361.26302 793.89533,361.24202 792.02305,363.00844 792.46009,363.98444 791.9031,363.79044 792.33627,362.44259 792.3593,361.96858 792.4253,360.62958 790.61072,361.1455 791.65375,360.0535 789.90075,359.8075 788.12482,361.81831 787.21884,363.0773 785.97684,364.8003 787.98565,365.80199 787.31964,367.613 787.45565,365.435 785.41547,362.43992 782.98553,362.77492 781.09851,363.03492 779.49172,365.25916 777.54269,365.09317 779.98869,363.60517 784.0591,362.72737 783.18711,359.14636 782.7831,357.48936 781.45892,357.12857 780.3649,356.12257 779.18789,355.04157 778.7127,354.95781 777.03872,355.51781 777.70473,354.77281 778.7306,354.81708 779.55855,354.40908 780.72856,353.83208 779.74895,352.13029 779.35697,351.38528 778.85397,350.42928 778.42706,349.92805 777.84507,349.06704 778.63406,347.91304 779.89028,347.10545 780.66728,345.94244 781.42828,344.80445 781.7094,343.61547 782.58235,342.51547 783.70337,341.10147 782.59995,339.75795 783.28791,338.38295 784.0529,336.85595 785.68262,335.79681 786.81567,334.5528 787.61166,333.67881 787.71413,332.32501 788.52916,331.52901 787.73616,331.883 787.39292,331.09824 786.71488,330.92425 786.11789,330.77125 784.67708,331.04721 784.19504,331.42821 784.45504,331.20721 784.67963,330.98165 784.9006,330.72266 784.19759,330.25266 782.80665,330.58128 781.97759,330.42028 781.32458,330.29328 779.96831,329.36666 780.66728,330.72266 779.32729,330.38066 779.53988,329.6041 777.94586,330.01711 777.02685,330.25511 775.4021,330.25649 774.4181,330.31949 773.09511,330.40349 772.10853,329.79427 770.78954,330.42028 769.69655,330.93928 768.8017,331.81914 767.76574,332.43615 768.67775,331.18714 770.47968,330.73254 771.19271,329.31155 770.09273,329.13955 769.78883,328.15748 769.17685,327.39648 768.38785,326.41648 766.87492,326.34037 765.74987,325.98538 764.41689,325.56438 760.31352,323.38809 759.09752,324.1711 760.74253,322.0951 758.19309,320.35964 756.88007,319.03064 756.09107,318.23064 755.92942,317.51937 754.76341,317.21636 753.74041,316.95036 752.66088,316.78282 751.63882,316.51081 748.32883,315.62881 746.25042,313.67235 742.56742,314.29335 739.51143,314.80935 736.68583,316.2616 733.59682,316.6116 734.41681,316.4096 735.19009,316.02567 735.91506,315.60367 734.11507,315.47967 732.66739,316.93618 730.8754,316.81319 733.52141,316.12119 736.00863,314.37394 736.62062,311.57194 737.18561,308.98194 737.7337,305.52608 739.03965,303.20609 740.03065,301.44509 738.25718,302.54156 737.32617,301.99657 736.49318,301.50957 735.21841,301.66998 734.30237,301.79499 733.72761,301.87349 733.14246,302.06106 732.68968,302.39975 732.78448,302.26589 732.90288,302.13393 732.99206,301.99657 731.99719,302.63445 731.74222,300.74202 730.8754,301.08943 731.18217,300.79624 731.39323,300.37454 731.58095,299.98071 731.13395,299.80571 730.73661,299.69053 730.27064,299.57754 730.71865,299.41253 731.57037,299.52154 731.88333,299.07357 732.34134,298.42057 732.88485,297.84888 733.59682,297.46088 734.67381,296.87488 734.6679,295.07949 735.51189,294.23549 736.1509,293.59749 741.24217,289.19289 740.24917,288.18789 740.95618,288.4779 741.17692,288.31573 740.85393,287.78472 743.17592,288.60872 745.71262,284.32199 747.80867,283.75299 748.08767,283.67699 749.45833,282.35009 749.42136,282.24109 749.07638,281.22409 750.28751,281.93213 750.83247,281.73712 749.73048,279.38713 756.39703,279.49619 756.88007,277.80619 756.30308,277.73419 756.0365,277.37425 756.17451,276.79825 757.11252,276.91026 758.53475,277.69769 758.49276,276.0927 759.93076,277.0537 760.21744,275.28097 761.11338,274.98397 761.9954,274.69297 763.04255,274.23446 761.51656,273.77446 762.26756,273.79546 763.48446,273.76336 763.53242,274.78239 763.84241,274.59339 764.1218,274.36783 764.33877,274.07684 764.07977,273.92384 763.80045,273.81065 763.53242,273.67366 764.40444,273.58366 766.18598,271.71898 766.65701,272.06097 767.43901,272.62897 768.01545,271.31397 768.87447,272.06097 769.28348,272.41697 770.15517,271.85279 770.48716,271.6578 769.87017,271.2478 766.75923,270.13152 769.47923,269.84352 771.11524,269.66952 772.25615,269.83012 773.91413,270.0451 775.04414,270.1911 775.9139,269.61276 776.93793,269.23876 777.87993,268.89676 778.77933,269.25996 779.65935,268.634 780.27736,268.194 780.95305,267.7323 781.27204,267.02131 781.73804,265.98631 780.26124,265.50942 781.67521,265.50941 780.95221,264.79141 779.92841,265.24507 779.15538,264.70306 778.71637,264.39606 778.4895,263.78474 778.14745,263.39275 777.63416,262.80427 776.16567,263.23117 774.72048,263.69513 774.96783,263.58938 775.21654,263.37041 775.42603,263.19116 773.76502,262.54016 771.10456,262.3125 769.78161,261.0745 769.70361,262.9245 766.98871,261.56791 767.76574,260.87292 768.53174,260.18791 769.92884,261.14002 769.17685,259.36102 769.75084,262.54902 776.124,262.23377 778.34903,262.88878 779.12003,263.11578 784.70459,265.23317 784.39663,263.19116 785.16163,263.28216 785.91285,263.82912 786.71488,263.69513 787.38589,263.58413 787.82138,262.94919 788.42836,262.68719 789.26035,262.32819 789.21162,260.12489 790.74661,261.37688 791.0836,260.88888 791.08363,260.43778 790.74661,259.96578 791.17126,259.69483 791.66329,259.7187 792.05692,259.5626 791.94519,259.68718 791.8535,259.82976 791.75454,259.96578 792.25754,260.21977 792.73951,260.6881 792.76247,261.27609 792.82147,259.89809 794.5575,260.95629 795.18151,261.1753 795.10451,260.6963 795.10451,260.24319 795.18151,259.76419 795.7505,263.02419 802.55455,259.43067 803.95053,258.55467 805.65953,257.48267 807.62995,255.6895 809.59495,255.22849 811.11695,254.87149 813.16471,253.75108 814.13065,252.50707 815.37265,250.90707 811.35669,251.07296 810.70368,251.09597 808.49168,251.17697 806.45188,250.8948 804.25291,250.69279 803.86489,250.65779 802.90199,249.30231 802.74101,248.97931 802.097,247.68531 801.25898,247.13965 799.818,246.86265 798.624,246.63265 797.1081,246.0849 795.88707,246.25789 794.74705,246.41989 795.72925,247.17548 793.8712,246.45948 795.0872,244.99448 798.33278,246.55368 799.9188,246.35868 798.22179,246.69668 800.63028,246.82365 801.12832,246.86265 801.62432,246.90165 802.59941,246.98607 803.04339,246.66106 802.7374,246.39806 802.40247,246.2243 802.03546,246.0563 804.62244,245.9863 806.58176,248.11255 809.19178,248.37455 808.44778,248.37455 807.71436,248.46555 806.97433,248.37455 808.56431,249.16855 809.17888,250.77479 811.10685,250.69279 813.11585,250.60679 814.61007,250.54827 816.3481,249.48327 818.0661,248.43127 820.08616,248.14665 821.69015,246.86265 823.10415,245.73265 825.05219,245.5774 826.52822,244.5444 825.88021,243.2634 823.63386,243.97054 823.30284,242.52854 823.87783,242.50554 824.18417,242.1964 824.10918,241.6214 825.35718,242.0444 828.58341,242.0414 829.8544,241.6214 832.18539,240.8514 831.63365,241.73247 831.16471,243.53647 832.7157,243.31447 834.10962,244.09582 835.59962,244.34282 835.29563,243.73382 835.28818,242.69592 836.30517,242.83092 836.30517,244.03192 836.43609,243.25327 837.3131,243.63726 837.77511,243.84026 838.38184,244.25723 838.9258,244.14123 840.3638,243.83523 839.72056,241.84922 839.02659,241.21823 839.26059,241.06423 839.48611,240.95005 839.73214,240.81505 838.64816,240.76305 838.8938,240.29512 839.42976,239.80712 838.91977,239.71712 838.41383,239.65374 837.91786,239.50474 840.43786,239.79874 836.19819,238.79198 838.72421,238.89998 837.45821,237.99198 836.30291,239.38536 834.99486,239.20236 836.00586,238.32936 837.44418,238.09222 838.72421,238.29522 836.77521,237.90722 839.98585,238.23222 840.3369,238.29522 839.95389,238.31722 839.5104,238.31722 839.12738,238.29522 839.69437,238.40322 840.20186,238.83795 840.3369,239.40395 839.1459,239.17895 839.36287,240.48629 840.3369,240.21029 841.04491,240.00929 841.79771,239.58157 842.35277,239.10157 842.13476,239.36157 840.49869,241.24243 840.4377,241.11743 840.77768,241.81843 842.29226,242.10051 841.14325,243.0325 843.92724,243.1285 847.56902,241.52688 850.01306,240.41188 851.04505,239.94088 851.59066,240.12695 852.63368,239.40395 853.72467,238.64795 854.47012,238.12864 855.85907,238.09363 857.49908,238.05263 861.65357,235.66094 860.49556,233.55794 859.62754,231.97994 857.82778,230.8528 860.39477,229.72779 859.87577,229.84379 859.3709,229.839 858.88287,229.627 859.51788,229.288 859.98688,228.89007 858.88287,228.61907 860.17786,228.41507 859.52288,228.00093 858.88287,227.71193 859.17286,227.53293 861.67966,226.86038 861.90666,227.00637 862.92966,227.66537 862.50072,227.27458 863.82174,226.90558 865.49474,226.43658 867.94042,226.71254 868.35743,224.48654 867.06644,224.33754 865.93314,224.01496 864.62808,224.28495 865.9991,223.87195 870.00928,223.78971 870.3733,221.96671 869.50928,222.02371 868.69649,221.43695 867.85347,221.36195 867.12347,221.29795 866.5636,221.68233 865.8376,221.66433 867.67959,221.12633 864.79674,220.2548 866.74474,220.45481 865.28774,219.80781 863.64624,219.77088 862.10825,219.44688 863.13825,219.37588 864.57722,219.88988 865.53522,219.44688 866.02797,219.21888 866.45188,218.82757 866.94633,218.74132 863.88466,218.08594 860.87061,218.26844 857.87493,217.22942 856.56594,216.77543 855.04937,217.44159 853.74241,217.6326 852.84888,217.76332 852.06147,217.29517 851.22258,217.33022 851.68516,217.54329 849.52602,218.06667 850.21464,219.24529 849.60466,219.25029 848.01683,220.63684 849.60988,219.95084 849.0099,220.04684 848.69507,220.45757 849.00512,221.05957 848.73913,221.03157 848.46578,220.97877 848.19878,220.95878 848.03677,221.89278 848.95865,222.25951 849.71068,222.0675 848.41169,222.6075 850.25077,222.66223 851.12178,223.17623 850.80279,223.16723 847.66872,222.96119 849.71068,223.68019 849.27167,223.8412 848.26116,223.36378 847.99719,223.88178 847.77619,224.31578 847.83686,224.50495 847.19085,224.28495 847.59086,224.74596 848.03496,224.91013 848.60195,224.68813 846.67994,226.63713 843.84415,223.92899 842.15118,226.70399 840.48617,229.43099 837.23589,230.59145 834.49089,231.84445 833.7009,232.20445 830.3724,235.85101 829.8544,235.47301 828.56241,234.53201 827.731,236.07894 826.62902,236.48094 825.95201,236.72794 824.36076,237.56471 823.8068,237.0857 825.94682,235.8437 823.8187,234.37039 823.40363,232.85238 822.87664,230.92038 825.52722,228.7701 827.03219,228.1151 826.85218,228.3481 826.68823,228.57366 826.52822,228.82065 828.81621,229.35765 829.79673,227.42507 830.66075,225.69606 831.33276,224.35006 829.12895,222.48513 828.14092,221.76512 826.63692,220.67112 824.57106,222.68223 823.20204,223.17623 822.30503,223.50023 821.93373,224.30051 821.38777,224.99051 820.72276,225.83051 819.72373,225.54802 818.96873,226.20003 819.58571,227.06203 818.23682,227.45051 817.45683,227.91351 816.74382,228.33551 815.80501,229.01924 814.937,229.02224 815.32401,228.44624 815.46802,227.96789 814.43303,228.21589 815.40803,228.10789 815.40803,227.98693 814.43303,227.71193 814.87804,227.38893 815.24654,226.9852 815.64255,226.6032 816.16854,226.1032 818.22647,224.72972 816.65048,224.88971 818.78849,224.41571 816.83594,221.85216 815.94493,221.26116 816.46493,221.25116 816.96983,221.14077 817.45683,220.95878 816.19383,222.04878 818.8143,221.10798 819.17031,220.85798 819.9773,220.28998 821.30994,219.95244 822.29491,220.15243 820.8789,219.06443 817.91035,219.65167 816.24731,219.54767 817.0183,219.44167 817.75376,219.15311 818.46476,218.84212 816.92477,217.73712 815.51508,220.00746 813.92906,219.64846 813.19006,219.48146 813.0952,218.80374 812.41716,218.53974 811.64017,218.23774 810.88588,218.59774 810.09892,218.53974 810.58592,218.35674 811.09085,218.24836 811.61082,218.23736 811.10682,218.15836 810.60188,218.15836 810.09892,218.23736 812.28792,217.55536 814.35846,216.4487 816.65048,216.1207 816.05449,215.3057 815.0255,215.39631 814.23144,215.81832 815.88445,214.18332 818.26704,215.21497 820.27904,215.01197 819.91505,214.46797 819.96963,214.01587 820.48063,213.60087 819.66764,213.34687 819.07516,214.05525 818.26317,213.90325 819.10516,213.73325 819.52898,212.57193 818.36397,212.59293 819.60297,212.05893 818.64341,211.05383 817.65841,211.18183 817.79943,210.94083 817.91564,210.71528 818.06159,210.47627 817.68557,210.33827 817.34981,210.22889 816.95286,210.17389 818.21086,210.09989 819.46366,208.47748 819.97666,207.45248 820.69666,206.01148 819.59074,205.17847 818.46476,204.52947 818.72376,204.28447 818.90228,204.05792 819.17031,203.82392 817.73731,203.44792 816.69912,203.5303 815.34017,204.1263 815.83217,203.7473 816.4856,203.19675 815.13858,203.42075 815.61159,203.05874 816.11649,202.7766 816.65048,202.51361 816.21447,201.92061 815.33291,201.7288 814.43303,201.80805 z M 592.38543,218.03577 C 592.6294,217.98357 593.00587,217.83891 593.09098,217.83418 592.22948,217.86918 592.17604,217.94064 592.38543,218.03577 z M 638.24637,237.99284 C 639.23537,237.83284 640.32117,238.60943 641.27017,238.19443 639.29317,238.66543 642.24808,238.62998 642.78207,238.89998 641.01908,239.99898 638.74328,239.81867 636.83527,240.51267 635.01728,241.17567 632.57889,242.08374 630.68688,242.42774 631.31089,243.05975 633.75603,243.24292 634.51702,242.83092 632.51903,243.25092 634.79957,243.33109 635.22258,243.23409 636.15055,243.02109 637.01099,243.16509 637.94399,243.23409 639.80582,243.37368 641.76059,242.80609 643.58842,242.32695 643.50862,242.19003 645.02591,241.41952 645.3019,241.31902 646.43292,240.90802 647.64266,240.68367 648.82967,240.51267 647.79567,240.75867 647.84367,240.92184 648.82967,240.91585 647.77868,241.12485 646.77587,241.70237 645.80587,242.12537 646.57187,242.51237 647.33812,242.03637 648.12412,242.12537 646.71211,242.43937 646.25033,243.42144 645.10032,244.04044 644.55532,244.33344 641.03888,244.71796 642.88286,245.24996 641.71586,245.56296 640.27853,246.42027 639.15351,246.56027 639.81552,247.26227 640.70376,246.92706 641.47176,246.66106 640.98476,246.88006 640.48086,247.04803 639.95986,247.16503 641.95486,247.47002 638.42519,248.09096 637.8432,248.17296 637.0772,248.27996 635.98357,248.61055 635.22258,248.37455 634.43958,248.13254 633.9629,247.18603 633.10592,247.16503 632.32592,247.14503 631.58666,247.25603 630.78767,247.16503 630.41366,247.12203 628.12631,247.487 629.98132,247.669 629.01732,248.137 627.90173,248.38613 626.85673,248.57614 626.07474,249.21913 627.34467,249.73986 627.86467,249.68486 627.84767,250.68486 626.53081,250.64879 625.8488,250.69279 624.51178,250.77779 623.26065,251.44831 622.01866,251.90231 620.36065,252.50832 618.675,253.032 616.97899,253.51501 615.97899,253.80001 613.87746,254.99173 612.84647,254.62373 611.91246,254.29073 613.89198,253.43921 614.05599,253.41421 615.30802,253.21921 616.38075,252.66549 617.58375,252.30549 619.86874,251.6215 622.95689,251.06051 624.3369,248.87851 619.80788,248.08752 616.72606,250.60487 613.04805,252.60787 610.53703,253.97588 605.35974,253.4079 602.96873,252.1039 604.26475,251.38189 605.89883,251.58976 607.30284,251.19676 608.85186,250.76276 608.19133,250.36407 609.01632,249.58407 609.71533,248.92306 611.04532,248.81593 611.93933,248.67693 613.37637,248.45393 614.55528,247.84082 615.87027,247.26582 615.5943,246.36883 614.6352,246.36151 613.95519,245.95551 616.93119,245.2565 620.27359,247.16775 623.02659,245.35075 622.17657,244.99875 621.87071,244.07606 621.01072,243.73806 620.07275,243.37006 619.04972,243.73606 618.08772,243.73806 615.70771,243.74306 614.71367,243.94996 612.74567,245.24996 613.0167,243.67196 608.28042,245.06561 607.50442,244.44361 606.97846,244.02261 605.284,244.2362 604.783,244.6452 604.345,245.0022 603.99269,245.50292 603.47269,245.75392 602.75369,246.10193 602.55978,245.0763 601.96079,246.0563 600.60981,244.8393 602.83765,243.49547 603.97666,243.53647 605.68466,243.59947 607.96807,243.68309 609.62108,243.23409 612.97709,242.31809 616.22783,241.9184 619.49882,241.6214 620.72582,241.51039 621.91618,240.90605 623.22817,240.81505 625.17018,240.68005 626.90979,240.03974 628.77181,239.50474 630.99977,238.86473 633.32476,238.70681 635.62575,238.49681 636.50473,238.41681 637.37736,238.13284 638.24637,237.99284 z M 662.53755,269.33955 C 665.13012,269.21683 668.12786,269.55653 670.19784,270.44828 669.68785,270.62629 669.18394,270.84704 668.68594,271.05304 669.17695,270.88803 669.68085,270.77766 670.19784,270.75066 669.13085,271.48566 667.74549,271.88097 666.46849,272.06097 666.98652,271.83498 667.53838,271.60462 667.98039,271.25462 662.62241,268.98464 655.53934,270.44146 650.94633,273.77446 653.15433,272.70946 655.71445,271.54521 658.20344,271.45621 660.12145,271.38821 662.64764,269.83024 664.45263,270.95224 663.47063,270.86724 661.68286,270.37062 660.92486,271.25462 662.15383,271.22162 663.47721,271.113 664.65421,271.557 662.39522,272.541 659.8789,272.27094 657.49789,272.56494 658.23886,272.99095 659.03914,272.60794 659.81614,272.56494 659.01414,272.67293 658.21589,272.89549 657.49789,273.27049 659.18386,272.75449 660.89635,272.66914 662.63835,272.46414 661.26733,273.16813 659.74124,273.17166 658.30424,273.67366 658.80824,273.59366 659.31214,273.59366 659.81614,273.67366 658.35313,274.03466 656.86023,273.50166 655.38123,273.67366 654.79321,273.74166 651.1642,274.9388 652.96219,274.5808 651.48119,275.19379 649.9183,275.47329 648.52729,276.29429 649.02726,276.18929 649.53019,276.1317 650.03919,276.0927 647.00616,277.60469 643.83842,279.13302 640.66541,280.32602 638.04043,281.31303 635.81072,280.91275 633.20671,281.43474 631.59169,281.75874 631.03512,282.30541 630.08212,283.5514 629.16614,284.75041 627.32138,284.24175 626.05039,284.35775 623.13738,284.62276 618.82607,286.70927 615.97106,285.56727 613.99706,285.76427 612.66659,284.34296 610.8306,284.25696 610.10357,284.22296 609.16337,284.50037 608.51236,284.05537 607.75139,283.53436 608.19724,282.3723 607.10125,282.1403 608.10928,282.0763 608.64508,283.42502 609.62108,283.24902 610.4841,283.09302 611.45771,283.18702 612.24171,282.74506 613.23371,282.18606 613.27496,281.7833 614.55995,282.1403 615.81295,282.4883 616.86672,282.6723 618.08772,282.1403 617.96973,281.8993 617.90732,281.57395 617.78534,281.33395 618.62736,281.00795 619.56917,281.32895 620.30517,280.72919 620.99514,280.16618 621.42125,279.65329 622.22024,279.21729 623.85522,278.32529 625.13573,278.93174 626.85673,278.51174 627.88473,278.26075 630.26877,278.04746 629.27577,276.69746 628.74978,275.98047 629.73265,274.48859 628.36863,274.68159 629.20165,274.4306 629.66375,273.58952 629.77974,272.76652 628.98575,273.10554 627.75429,272.22821 627.56229,271.45621 627.40931,270.8412 627.84764,270.61786 628.36863,270.64986 629.29064,270.70586 628.62199,271.261 629.17498,271.557 630.11998,272.05801 631.15698,272.19232 632.09798,272.86732 633.79699,274.08531 634.10614,273.27308 635.92813,273.47208 635.75012,273.70408 635.58217,273.93063 635.42416,274.17763 636.68816,274.40564 636.27802,276.43108 637.44003,276.39508 638.75705,276.35608 639.81036,276.64508 641.16938,276.39508 644.4344,275.79409 647.12999,275.45125 650.13998,273.87525 653.35198,272.19326 656.5105,270.24914 660.11852,269.54114 660.85052,269.39739 661.67338,269.38046 662.53755,269.33955 z M 489.2739,327.19489 C 488.8419,327.71589 488.46227,328.87079 489.57628,328.70679 488.98039,328.5976 488.18453,328.90545 487.35883,329.31155 488.02655,328.64143 488.62415,327.88185 489.2739,327.19489 z M 675.94306,341.50754 C 676.82907,341.45354 678.05404,341.37792 678.86607,341.80992 679.51008,342.15192 680.60287,343.31526 681.3859,342.61627 681.1469,343.23327 680.66773,348.77166 680.47876,348.76466 680.17777,348.75566 677.9497,355.88252 678.05972,356.62653 678.1787,357.42453 678.48034,358.79237 677.75734,359.14636 676.93235,359.55136 678.13894,362.5591 677.95893,363.1781 677.53092,364.64509 673.98435,366.61313 674.83433,368.52014 674.27434,368.63312 673.77444,367.94196 673.32244,368.11697 672.73345,368.34397 672.49674,369.14786 672.21371,369.62887 671.65572,370.57787 670.04203,371.0481 670.09705,369.52807 670.15405,367.94909 672.16143,365.636 673.32244,364.69 674.20445,363.971 675.66865,363.59654 676.14465,362.47254 674.98464,362.38054 674.29863,363.56785 673.22164,363.78286 673.82263,362.71486 677.65042,361.19634 676.74941,359.65033 676.0614,358.46933 673.88707,361.58422 673.02006,361.16223 673.39207,359.45823 675.84233,358.71533 674.83433,356.72733 674.39733,357.01633 673.84543,357.13149 673.32244,357.1305 673.84743,356.9585 674.23738,356.46899 674.33037,355.92098 673.06837,355.43298 672.40314,357.36005 671.50816,357.83605 670.07015,358.60005 670.78899,355.07367 670.60102,354.61067 670.34302,354.34567 670.18304,354.05453 670.09705,353.70353 670.27706,353.55353 670.38846,353.33276 670.39943,353.09877 670.14743,352.30577 669.54832,351.66053 669.49229,350.78052 669.36228,348.74052 672.10885,349.34848 673.12085,348.36148 671.73084,348.14148 670.26193,348.38178 669.18991,347.25276 670.84092,345.76176 673.65104,341.64853 675.94306,341.50754 z M 483.93186,345.03531 C 484.34348,345.19381 484.45686,345.6386 483.83107,346.5472 483.49408,346.0262 483.54688,345.52231 483.93186,345.03531 z M 486.95566,349.87338 C 487.02376,351.00794 486.18228,351.48447 485.24217,351.88925 486.02049,351.35136 486.62415,350.72938 486.95566,349.87338 z M 477.88426,364.08524 C 476.55628,364.77324 475.02015,364.96337 473.55015,364.99237 473.50755,364.99337 473.16014,364.94477 472.8446,364.89158 474.56057,364.95108 476.68555,364.35587 477.88426,364.08524 z M 834.08772,386.66293 C 835.82011,386.49411 837.77304,387.60274 839.22818,388.27562 838.79181,388.17183 838.34503,388.08529 837.91786,387.87245 836.87687,387.35445 835.42809,387.27646 834.3901,387.87245 834.5961,387.61945 834.72002,387.3411 834.89407,387.0661 834.41806,386.8241 833.91316,386.71373 833.38217,386.76372 833.61991,386.67972 833.84024,386.68702 834.08772,386.66293 z" id="path4906"/>
    <path d="M 915.698,393.624 C 913.959,393.563 907.948,395.501 910.227,391.52 910.9,390.343 912.556,389.685 913.695,389.101 915.519,388.166 917.102,386.843 919.078,386.208 917.116,386.519 915.307,385.685 913.318,386.424 913.414,385.069 915.621,384.65 916.558,384.12 916.005,384.459 915.513,384.901 915.118,385.416 915.854,385.087 916.445,386.034 916.894,385.294 917.407,384.448 918.283,383.577 918.938,382.824 919.688,381.96 919.945,381.528 921.168,381.528 922.061,381.528 922.332,382.847 923.328,382.248 921.896,382.613 921.872,380.719 923.618,381.024 922.219,380.996 923.058,380.576 923.618,380.303 919.786,380.737 924.94,375.808 924.698,378.287 925.785,378.162 924.905,376.747 925.517,375.792 926.233,374.675 927.358,373.938 928.227,372.959 929.152,371.918 931.163,367.989 932.977,368.711 932.748,368.457 932.532,368.193 932.327,367.919 933.201,367.538 934.205,367.359 934.952,366.726 935.943,365.886 936.564,364.496 937.515,363.56 939.586,361.523 942.496,361.726 944.787,360.144 944.697,360.721 945.045,361.135 945.577,361.295 945.676,359.732 948.235,360.572 946.871,361.734 945.159,363.193 943.124,361.39 942.697,363.743 942.876,363.729 945.404,363.299 944.301,364.302 943.822,364.739 943.532,365.075 943.062,365.561 942.505,366.136 941.145,367.992 940.897,366.551 940.155,367.15 940.216,368.233 939.32,368.942 938.139,369.875 937.245,371.078 936.147,372.095 935.221,372.952 934.685,373.467 933.907,374.471 933.564,374.914 932.813,375.061 932.547,375.551 932.206,376.179 933.099,376.395 932.398,377.063 934.346,375.578 936.197,373.961 938.238,372.599 938.441,373.13 938.634,373.196 938.238,373.679 939.648,373.782 941.131,374.299 942.408,373.608 942.235,375.048 938.016,376.317 936.868,376.847 937.592,376.619 938.287,376.03 939.098,376.343 938.446,376.651 938.461,377.294 937.948,377.711 937.492,378.081 936.871,378.085 936.438,378.503 937.093,378.286 937.695,377.92 938.378,377.783 939.082,377.641 939.512,378.379 940.248,378.143 940.185,378.456 940.116,378.768 940.038,379.079 940.384,378.561 940.888,378.139 941.478,377.927 941.465,378.433 941.488,378.937 941.548,379.44 942.414,379.035 942.235,377.948 943.058,377.496 943.539,378.834 941.032,380.911 940.248,381.744 940.793,381.564 941.323,381.348 941.838,381.096 941.718,380.856 941.598,380.617 941.478,380.376 942.238,380.012 944.531,380.226 944.568,379.008 944.72,380.566 946.72,378.08 947.598,377.64 947.69,378.461 947.285,379.205 946.868,379.872 947.494,379.565 947.757,378.709 948.411,378.552 948.968,378.418 949.614,378.573 950.141,378.309 951.532,377.612 952.616,379.613 953.787,379.944 952.452,381.054 949.56,383.436 947.807,383.688 948.566,383.842 949.28,383.486 950.037,383.543 949.807,384.077 949.335,384.403 948.747,384.191 948.717,384.554 948.741,384.915 948.817,385.271 949.38,385.178 949.795,384.774 949.827,384.191 949.976,384.79 950.428,385.045 950.977,384.695 950.298,385.172 949.541,385.673 948.667,385.631 950.409,385.808 947.093,386.76 946.727,387.503 947.195,387.244 949.883,385.711 948.457,387.287 948.958,386.954 949.438,386.595 949.897,386.207 949.13,387.74 951.331,386.45 951.707,386.045 952.582,385.101 952.306,385.447 952.902,385.955 953.61,386.558 954.106,384.25 954.733,385.424 955.09,386.093 954.355,386.612 953.853,386.885 952.73,387.497 951.636,387.671 950.608,388.478 949.876,389.053 949.375,389.197 948.519,388.846 947.199,388.306 947.315,390.166 948.957,389.878 948.521,390.259 948.018,390.402 947.447,390.31 947.959,390.482 948.463,390.458 948.957,390.239 948.809,391.097 947.572,392.214 947.017,391.823 946.921,392.571 946.492,393.627 947.737,393.191 947.476,393.517 947.312,394.837 948.151,394.535 948.497,394.41 949.457,392.585 949.758,392.211 950.627,391.133 953.158,388.917 954.648,389.59 953.317,390.101 952.492,391.549 951.566,392.549 951.264,392.876 950.789,393.27 950.617,393.695 950.404,394.22 950.807,394.678 950.477,395.207 952.434,395.235 952.779,392.844 954.507,392.543 954.219,393.489 954.373,394.55 953.841,395.418 952.985,396.816 952.01,398.165 951.144,399.574 950.89,399.987 949.163,402.546 948.473,401.88 947.617,401.054 946.691,401.776 945.717,402.263 945.12,401.387 945.953,400.549 946.587,400.032 945.07,401.509 946.463,399.578 947.017,399.311 945.371,399.197 947.043,398.327 947.447,397.656 945.596,398.219 944.208,401.006 942.047,400.464 942.812,397.524 946.263,396.799 946.108,393.877 946.075,393.262 946.014,390.781 944.826,391.8 943.339,393.075 942.553,394.889 940.828,396 941.228,395.47 941.658,394.966 942.118,394.488 940.26,395.958 938.751,395.541 937.237,397.499 935.74,399.434 934.238,400.014 931.924,400.065 931.264,400.08 929.764,399.895 930.69,398.889 931.598,397.904 933.075,398.209 934.195,397.59 935.438,396.902 935.962,396.091 936.994,395.23 937.642,394.689 938.511,394.837 939.239,394.488 939.799,394.219 940.083,393.629 940.679,393.408 939.918,393.515 939.233,393.928 938.449,393.912 938.729,393.349 939.112,392.869 939.599,392.472 937.954,393.479 937.912,393.658 935.859,393.409 936.263,394.817 934.934,394.796 934.199,395.568 934.199,394.353 933.654,395.012 932.689,395.064 932.855,394.823 933.021,394.584 933.189,394.344 932.396,394.359 931.689,394.74 930.959,394.992 931.658,394.041 933.065,393.945 934.059,393.479 932.433,394.445 934.053,391.933 934.199,391.463 933.761,392.358 932.755,392.362 932.039,392.903 931.912,392.667 931.792,392.426 931.679,392.182 931.38,392.665 929.296,394.711 930.239,392.974 930.012,394.107 927.822,393.901 926.906,394.267 926.139,394.574 925.32,394.275 924.573,394.087 923.904,393.918 922.758,394.39 923.189,393.55 922.004,393.736 920.74,393.978 919.573,393.552 918.673,393.224 915.655,394.003 916.918,392.758 916.471,392.991 916.064,393.279 915.698,393.624" id="path5620"/>
    </g>
  <g id="pm">
    <title>Saint Pierre and Miquelon</title>
    <path class="world_map-is_selected landxx coastxx spm" d="M 898.61629,353.30155 C 898.43129,354.07655 897.97229,354.74855 897.81629,355.53355 897.76129,354.75655 898.02129,354.00555 897.96629,353.22855 898.18229,353.25355 898.39929,353.27755 898.61629,353.30155" id="pm-"/>
    <circle class="world_map-is_selected circlexx spm" cx="896.5238" cy="354.30203" id="pm." r="6.0130301" rx="6.0130301" ry="6.0130301"/>
  </g>
  </svg>