<svg xmlns="http://www.w3.org/2000/svg" class="world_map zoom4" height="127" id="svg2985" version="1.1" viewBox="1306 731 33 40" width="127">
  <title>World Map</title>
  <defs id="defs2987"/>
  <defs>
    <link xmlns="http://www.w3.org/1999/xhtml" href="../css/svg.css" type="text/css" rel="stylesheet"/>
  </defs>
  <style id="style_css_sheet" type="text/css">
/*
 * Below are Cascading Style Sheet (CSS) definitions in use in this file,
 * which allow easily changing how countries are displayed.
 *
 */
/* --- Custom styles for Peace Corps --- */
.world_map .world_map-is_selected {
  fill: #C94112 !important;
}
.world_map .landxx {
  fill: #F2EFE8;
  stroke: #ffffff;
  fill-rule: evenodd;
}
.world_map.zoom4 .landxx {
  stroke-width: 2px;
}
.world_map.zoom3 .landxx {
  stroke-width: 3px;
}
.world_map.zoom2 .landxx {
  stroke-width: 4px;
}
.world_map.zoom1 .landxx {
  stroke-width: 5px;
}
.world_map .coastxx {
  fill: #F2EFE8;
  stroke: #ffffff;
  stroke-width: 2px;
  fill-rule: evenodd;
}
.world_map .oceanxx {
  opacity: 1;
  color: #ccc;
  fill: #ffffff;
  stroke: #ffffff;
  stroke-width: 0.5;
  stroke-miterlimit: 1;
}

/* --- Original Styles --- *
/*
 * Circles around small countries
 *
 * Change opacity to 1 to display all circles.
 *
 */
.circlexx
{
   opacity:0;
   fill:#e0e0e0;
   stroke:#000000;
   stroke-width:0.5;
}

/*
 * Smaller circles around French DOMs and Chinese SARs
 *
 * Change opacity to 1 to display all subnational circles.
 *
 */
.subxx
{
   opacity:0;
   stroke-width:0.3;
}

/*
 * Circles around small, unrecognized countries
 *
 * Change opacity to 1 to display all circles.
 *
 */
.unxx
{
   opacity:0;
   fill:#e0e0e0;
   stroke:#000000;
   stroke-width:0.3;
}

/*
 * Circles around small countries, but with no permanent residents 
 *
 * Change opacity to 1 to display all circles.
 *
 */
.noxx
{
   opacity:0;
   fill:#e0e0e0;
   stroke:#000000;
   stroke-width:0.5;
}

/*
 * land
 */
.landxx
{
}
/*
 * Styles for coastlines of islands with no borders
 */


/*
 * Styles for nations with limited recognition
 */
.limitxx
{
   fill: #e0e0e0;
   stroke:#ffffff;
   stroke-width:0;
   fill-rule:evenodd;
}

/*
 * Styles for nations with no permanent population.
 */
.antxx
{
   fill: #e0e0e0;
   stroke:#ffffff;
   stroke-width:0;
   fill-rule:evenodd;
}

/*
 * Ocean
 */


/*
 * Additional style rules
 *
 * The following are examples of colouring countries.  You can substitute these with your own styles to colour the countries on the map.
 *
 * Color a few countries:
 *
 * .gb, .au, .nc
 * {
 *    fill:       #ff0000;
 * }
 *
 * Color a few small country circles (and the countries):
 *
 * .ms, .ky
 * {
 *    opacity:    1;
 *    fill:       #ff0000;
 * }
 *
 */

</style>
  <path class="oceanxx" d="M 2079.5058,1457.5605 615.24779,1457.5605 C 615.13079,1457.5605 615.07079,1457.5505 614.95179,1457.5215 611.67679,1456.6515 608.40179,1455.7815 605.12779,1454.9105 599.15079,1453.3225 593.22879,1451.5225 587.30779,1449.7385 564.39379,1442.8315 541.76579,1434.6995 519.46979,1426.0115 495.81079,1416.7935 472.34979,1407.0946 449.19179,1396.6816 426.78379,1386.6056 405.17679,1375.0536 383.76379,1363.0356 363.11779,1351.4496 343.01079,1338.8296 323.37979,1325.5996 302.29179,1311.3876 281.47879,1296.8506 261.05379,1281.7006 242.35079,1267.8276 223.73679,1253.6306 206.05279,1238.4686 186.98679,1222.1216 167.82379,1205.7706 150.35279,1187.6906 132.97779,1169.7106 116.33279,1151.0606 100.15679,1131.9976 84.352777,1113.3736 70.086776,1093.4716 56.901786,1072.9246 44.046786,1052.8916 32.093776,1032.1356 22.469776,1010.3426 17.516776,999.12753 12.408776,987.76556 8.7017761,976.06056 5.0657761,964.58166 1.5997761,953.04259 -1.5932239,941.43054 -8.0102239,918.09356 -14.055224,894.78356 -18.234224,870.92056 -22.491222,846.60856 -24.894222,822.19856 -26.943222,797.62156 -28.947222,773.58556 -28.829222,749.40156 -27.225222,725.34856 -25.648222,701.69856 -23.363222,677.92456 -19.274222,654.56456 -15.018224,630.25156 -9.3842239,606.45156 -2.8412239,582.66156 3.5687761,559.35256 10.483776,536.34856 20.265776,514.19856 30.320776,491.42956 42.318786,469.90956 55.502786,448.81656 68.512776,428.00356 83.108777,408.26756 98.686787,389.31756 113.73479,371.01156 129.68979,353.25256 146.15179,336.20856 163.77479,317.96256 182.64579,301.14556 201.89579,284.64756 220.33379,268.84456 239.55379,253.98456 258.95979,239.39656 278.42779,224.76056 298.39379,210.83356 318.55579,197.17556 339.26979,183.14456 360.47879,169.92056 382.15079,157.42556 403.46579,145.13656 425.31479,133.98856 447.60479,123.59356 469.58579,113.34356 492.14979,104.17656 514.74579,95.37556 537.44879,86.532565 560.37879,78.195565 583.63479,70.914565 589.69379,69.017565 595.80079,67.276565 601.90879,65.549565 604.63079,64.779565 607.36079,64.045565 610.09479,63.318565 611.59979,62.918565 613.56579,61.986565 615.13379,61.986565 L 2079.9638,61.986565 C 2079.9798,61.986565 2079.9958,61.986565 2080.0118,61.986565 2079.8448,61.986565 2079.6788,61.986565 2079.5118,61.986565 2102.8268,68.191565 2125.8778,75.323565 2148.5448,83.611565 2171.6378,92.054565 2194.6158,100.87956 2217.2348,110.52956 2240.5208,120.46556 2263.4848,130.95256 2285.8828,142.76456 2306.9808,153.89056 2327.8178,165.78556 2347.8608,178.72156 2368.9418,192.32656 2389.7498,206.29256 2410.2218,220.80056 2429.7368,234.62956 2448.9938,248.98756 2467.6208,263.99256 2486.8818,279.50856 2506.0408,295.30556 2524.0538,312.27356 2541.8708,329.05756 2558.7508,346.67256 2574.9408,365.03656 2591.2478,383.53256 2607.1478,402.30656 2621.4508,422.41856 2635.3488,441.96256 2648.4468,462.42756 2659.5898,483.67756 2671.1238,505.67356 2681.1048,528.35656 2688.6188,552.05056 2692.2518,563.50656 2695.3368,575.14756 2698.5608,586.72256 2701.7738,598.25356 2704.9238,609.81956 2707.4578,621.52456 2712.6258,645.40556 2716.6718,669.47856 2719.1178,693.79656 2721.5718,718.19256 2723.1798,742.56356 2722.9808,767.09056 2722.7908,790.65456 2720.6908,814.43756 2717.7688,837.81156 2714.7368,862.07056 2710.5198,886.16156 2704.6398,909.90056 2701.6808,921.84356 2698.3948,933.69556 2695.0378,945.53154 2691.7468,957.13466 2688.5558,968.83466 2684.3988,980.16156 2676.0918,1002.8036 2666.1688,1024.8836 2654.1338,1045.8046 2641.9958,1066.9066 2628.8498,1087.4866 2614.2378,1106.9696 2599.1658,1127.0666 2582.6678,1145.9446 2565.8948,1164.6296 2549.8298,1182.5266 2532.8918,1199.7316 2514.8648,1215.6616 2496.0788,1232.2646 2476.8978,1248.3126 2457.1558,1263.7656 2438.2988,1278.5276 2418.9668,1292.7306 2399.3188,1306.4206 2378.7018,1320.7866 2357.7538,1334.6106 2336.4758,1347.9776 2326.4088,1354.3016 2316.0058,1360.1326 2305.6418,1365.9516 2295.0348,1371.9086 2284.3858,1378.0166 2273.4448,1383.3436 2250.7338,1394.3986 2227.7768,1404.7266 2204.3888,1414.2665 2181.7848,1423.4875 2159.0678,1432.2695 2136.0228,1440.3345 2117.4118,1446.8465 2098.5568,1452.4975 2079.5058,1457.5605" id="ocean"/>
  <path class="landxx cmr" d="M 1336.1563,717.90855 C 1337.0993,717.10355 1337.6847,715.91618 1337.7263,714.72055 1337.7653,713.60364 1339.2271,711.443 1338.8146,710.67442 1338.3943,709.89129 1338.2233,709.57832 1339.3833,708.27555 1340.5339,706.98332 1341.6645,705.66668 1342.9355,704.48568 1343.6645,703.80668 1344.5848,703.51711 1344.9638,702.57611 1345.2908,701.76511 1346.5557,699.61449 1347.4587,699.35949 1348.4517,699.07849 1349.0293,700.39455 1350.2463,700.12855 1351.2103,699.91755 1351.2663,698.57755 1351.4863,697.82055 1351.6673,698.59055 1353.7392,700.69396 1354.4713,700.88955 1355.2036,701.0852 1355.4028,702.12113 1355.1169,702.90753 1354.9103,703.47582 1355.9449,704.32833 1357.0651,704.0648 1357.4036,703.48251 1359.2694,701.75891 1358.8103,700.71955 1358.4917,699.9984 1359.9983,699.03555 1360.5203,698.61755 1361.3883,697.92355 1360.5196,696.86821 1360.9886,695.93358 1361.908,694.10092 1363.2072,692.4248 1363.8344,690.12855 1364.1003,689.15513 1363.7474,688.12996 1364.0253,687.21055 1364.2405,686.49886 1365.3715,686.25372 1365.3143,685.07033 1364.9752,684.97123 1367.8258,685.35313 1368.4022,682.55655 1368.5322,681.92588 1369.6253,678.80555 1368.5573,678.59655 1369.7853,677.97055 1371.598,677.17455 1371.804,675.77155 1371.938,674.85655 1371.885,674.09908 1371.885,673.18308 1371.885,672.22908 1372.8446,672.31168 1373.275,671.65761 1373.7988,670.86154 1373.7387,669.73517 1374.0627,668.73598 1374.4006,667.69381 1374.7058,666.69283 1374.8403,666.06155 1375.1019,664.83419 1375.7967,662.53254 1377.0811,662.01402 1377.7513,661.74347 1381.7641,661.77313 1382.279,659.49921 1382.4239,658.85914 1381.7586,658.36075 1381.8543,657.61555 1382.0199,656.32573 1382.1037,655.58939 1382.3233,654.61055 1382.5802,653.46586 1380.4785,652.47938 1379.8033,652.69155 1379.2507,652.89674 1378.5298,651.71673 1378.2661,650.24109 1378.0548,647.89643 1378.1811,647.01678 1377.8473,646.34155 1378.7173,646.34155 1380.0676,646.26515 1380.7433,647.01939 1381.7466,648.13938 1380.7113,649.2605 1382.9291,649.87268 1384.0726,650.18834 1384.2048,652.85254 1384.2758,653.77364 1384.3468,654.6936 1384.1682,653.92248 1385.1187,654.82642 1387.0288,656.64301 1384.9718,662.0083 1385.2363,664.38755 1385.6039,667.69369 1387.1713,671.46755 1390.1553,673.12555 1388.9517,674.16385 1387.4272,673.67437 1386.4423,673.18375 1385.4392,673.27825 1385.2141,673.43604 1384.1511,673.4765 1381.9241,673.5612 1379.6557,672.11795 1378.5273,673.95456 1377.1575,676.18399 1377.3265,676.56984 1379.1485,678.65584 1380.9735,680.74584 1382.9798,682.55984 1384.9878,684.46784 1385.5948,685.04384 1386.3938,685.92703 1386.7978,686.67969 1387.5843,688.14465 1388.2391,691.13678 1389.1024,692.56256 1389.9804,694.01267 1388.2197,695.03087 1387.7806,695.61853 1387.0809,696.55492 1386.1184,698.72205 1385.4872,700.23928 1385.278,700.74222 1384.779,701.52075 1384.573,702.03175 1384.193,702.97575 1383.6137,703.72758 1383.176,704.64837 1382.5691,705.92505 1379.4444,707.18058 1381.2413,707.90269 1382.5552,708.43068 1382.443,709.77256 1382.264,711.51756 1382.183,712.30656 1382.139,713.01615 1381.698,713.69315 1381.748,713.61615 1382.6551,714.86443 1382.6691,714.95443 1382.8921,716.42643 1382.5397,718.6803 1383.5187,719.86184 1384.124,720.59233 1384.9341,720.86622 1385.208,722.00137 1385.4121,722.84726 1385.7743,723.98356 1386.5553,724.53356 1384.0895,724.59656 1389.642,731.14301 1390.1144,731.52056 1391.3152,732.48029 1392.9949,733.04741 1393.21,733.91456 1393.3716,734.56558 1393.4981,734.92337 1393.5271,735.55637 1393.6001,737.15837 1393.9683,738.82256 1394.3243,740.37256 1392.4464,741.25099 1394.5284,744.37643 1393.3243,745.26856 1392.2523,744.21556 1391.0673,743.26856 1389.6173,742.80456 1388.9883,742.60256 1387.1088,741.84035 1386.598,742.18215 1385.9401,742.62232 1384.6321,742.54568 1384.223,741.56315 1384.203,741.51425 1382.0236,741.09853 1381.8106,741.01453 1381.1326,740.74853 1379.2123,740.95053 1378.3273,740.89856 1376.7143,740.80556 1375.0748,740.82556 1373.4668,740.59853 1373.1938,740.56053 1372.3983,740.81456 1372.0853,740.66153 1371.4803,740.36453 1372.3563,739.75453 1371.2313,739.86653 1369.7453,740.01353 1368.4463,740.25453 1366.9323,739.92953 1365.1553,739.54853 1363.7003,739.84753 1361.9153,739.79253 1360.7513,739.75653 1358.6653,739.09453 1357.5613,739.70353 1357.2463,739.87753 1357.3653,740.80653 1357.0263,740.80653 1355.9243,740.80653 1354.8233,740.80653 1353.7213,740.80653 1352.1853,740.80653 1350.6593,740.86353 1349.1253,740.89753 1345.8333,740.97153 1345.1273,739.16253 1345.8203,736.10853 1346.2153,734.36853 1346.8153,732.48153 1345.8753,730.79753 1345.4323,730.00353 1343.9093,728.65953 1345.5153,728.13353 1344.6103,728.65353 1342.8563,727.79753 1343.9083,726.74953 1344.4623,726.19753 1345.6953,725.23953 1344.0753,725.18153 1344.3903,724.83353 1344.5563,724.42553 1344.5753,723.95753 1344.0683,725.18953 1343.5303,724.20953 1342.7053,724.24553 1343.0103,724.65353 1343.2253,724.94553 1342.7053,724.67753 1342.7373,725.07153 1342.6903,725.45553 1342.5653,725.82953 1341.9033,725.80553 1341.5833,725.29353 1341.7753,724.67753 1341.2043,725.71853 1339.5693,724.41353 1339.3583,723.64753 1339.0253,722.43653 1338.9553,720.36553 1338.0943,719.42153 1337.1053,720.63953 1337.2963,719.20553 1336.6543,719.20553 1336.7703,719.67953 1336.8433,720.15853 1336.8743,720.64453 1334.8313,720.90053 1335.9433,718.98453 1336.1563,717.90853" id="cm">
    <title>Cameroon</title>
  </path>
  <g class="landxx coastxx gnq" id="gq" transform="translate(-29.9017,-45.0745)">
    <title>Equatorial Guinea</title>
    <path d="M 1366.848,776.952 C 1367.377,776.327 1369.84,771.669 1367.661,772.118 1366.823,772.29 1366.444,772.803 1366.168,773.567 1365.84,774.476 1365.26,774.593 1364.71,775.265 1364.076,776.042 1366.448,776.739 1366.848,776.952" id="path5778"/>
    </g>
  <g class="landxx coastxx gab" id="ga" transform="translate(-29.9017,-45.0745)">
    <title>Gabon</title>
    <path class="landxx gab" d="M 1367.928,812.303 C 1367.46,811.669 1367.101,810.849 1367.498,810.074 1367.522,810.66 1367.739,811.163 1368.148,811.584 1368.308,809.951 1369.281,811.3 1369.228,812.234 1369.389,810.239 1371.419,809.104 1371.641,807.154 1371.794,805.806 1370.931,803.185 1372.109,802.154 1372.16,802.811 1372.647,803.284 1372.969,803.814 1373.19,802.732 1374.778,803.333 1375.269,804.244 1375.14,803.323 1376.13,802.984 1376.859,803.014 1375.036,803.014 1373.634,802.636 1372.593,801.025 1372.179,800.383 1370.835,799.567 1372.319,799.271 1372.95,799.145 1373.804,799.465 1373.828,800.215 1374.364,799.02 1373.463,797.43 1373.806,796.155 1373.995,795.456 1374.8483,795.52594 1375.3683,795.80794 1376.3013,796.31494 1376.9577,795.69362 1377.9827,795.69362 L 1386.9547,795.8385 1386.9297,785.94577 C 1387.3316,783.6427 1388.2772,784.53155 1389.9998,784.60841 1391.4645,784.67371 1393.2572,784.87422 1394.8027,784.78914 1396.274,784.70814 1397.7706,785.20178 1398.7552,785.15127 1401.0922,785.03139 1402.947,783.80387 1401.3637,787.516 1400.378,789.827 1401.9777,792.021 1401.1867,794.09 1402.9107,793.795 1404.465,792.87659 1406.1727,792.506 1409.3677,791.81262 1408.9802,793.70661 1409.9376,795.31027 1410.8395,796.82111 1411.6152,799.02663 1408.5717,799.733 1406.8986,800.12132 1406.8107,802.973 1406.9677,804.297 1407.0427,804.926 1405.7083,806.65467 1407.2009,806.73427 1407.9288,806.77307 1408.6502,807.3309 1408.5685,807.86182 1408.4518,808.62001 1410.1774,808.48189 1410.8126,809.116 1412.2102,810.51143 1410.5076,812.28335 1410.7586,813.791 1410.918,814.7505 1412.0534,817.61044 1410.3391,818.495 1411.4261,819.221 1410.6671,821.109 1409.6631,821.519 1409.3831,821.633 1408.9814,824.03041 1409.0624,824.12641 1409.6874,824.86141 1407.9775,826.65246 1407.1515,826.56746 1406.2775,826.47746 1405.9811,823.46 1405.5881,822.744 1405.3211,823.673 1404.2266,825.58773 1403.1566,825.71673 1402.0786,825.84673 1400.8171,824.515 1399.7581,825.124 1400.4856,822.29633 1395.074,817.82771 1395.8393,822.54332 1396.287,825.30174 1395.208,825.33772 1392.6322,825.58146 1391.8064,825.65956 1392.0401,824.96821 1391.2282,825.02746 1390.1652,825.10506 1389.9391,825.00836 1388.8781,824.763 1389.2701,826.189 1389.5381,827.727 1388.5981,829.013 1389.6424,828.64325 1390.35,829.22659 1390.3001,830.267 1390.2571,831.1636 1390.0833,831.92446 1390.2041,832.38664 1390.6427,832.8176 1391.1849,832.81931 1391.4599,833.23859 1392.0795,834.18294 1391.3639,834.31368 1391.4439,835.12268 1391.5089,835.78168 1391.9263,836.69546 1390.7503,836.75946 1389.5083,836.82646 1389.4797,835.76472 1388.5836,835.21832 1387.6833,834.66932 1385.7183,838.027 1385.4973,838.654 1383.8373,837.353 1382.3983,834.644 1381.2513,832.894 1379.5653,830.322 1377.0223,828.262 1374.8363,826.133 1376.0503,825.383 1376.4523,828.159 1377.5763,826.773 1376.7673,826.85 1375.6063,825.846 1374.7273,825.629 1373.3153,825.28 1372.2893,822.025 1371.3863,820.874 1372.2963,820.957 1372.6253,821.955 1373.4763,822.174 1372.7043,820.924 1372.5593,821.22 1371.4533,820.573 1370.9513,820.28 1371.1033,819.39 1370.9813,818.948 1370.6823,817.863 1369.9043,817.008 1369.3663,816.044 1370.0633,816.624 1371.4523,817.893 1371.2363,818.934 1371.9553,818.686 1372.7103,818.524 1373.4763,818.575 1373.0603,818.258 1372.7243,817.871 1372.4663,817.415 1372.3043,817.987 1371.8783,818.282 1371.3063,817.995 1371.4013,817.241 1372.0003,816.557 1371.6763,815.765 1370.5453,819.056 1368.4693,812.705 1367.9283,812.303" id="path6014"/>
  </g>
  <g id="st">
    <title>Sao Tome and Principe</title>
    <g class="world_map-is_selected landxx coastxx stp" id="st-" transform="translate(-29.9017,-45.0745)">
      <path d="M 1350.218,804.453 C 1350.897,804.083 1351.619,803.503 1351.859,802.73 1351.983,802.331 1351.92,800.999 1351.169,801.207 1349.436,801.686 1350.019,803.212 1350.218,804.453" id="path2898"/>
      <path d="M 1356.908,791.424 C 1357.219,790.936 1357.246,790.432 1356.988,789.912 1356.387,790.33 1356.361,790.944 1356.908,791.424" id="path5384"/>
    </g>
    <circle class="world_map-is_selected circlexx stp" cx="1322.9935" cy="751.57587" id="st." r="6.0130301" rx="6.0130301" ry="6.0130301"/>
  </g>
  </svg>