<svg xmlns="http://www.w3.org/2000/svg" class="world_map zoom4 zoom3 zoom2" height="127" id="svg2985" version="1.1" viewBox="799 673 87 104" width="127">
  <title>World Map</title>
  <defs id="defs2987"/>
  <style id="style_css_sheet" type="text/css">
/*
 * Below are Cascading Style Sheet (CSS) definitions in use in this file,
 * which allow easily changing how countries are displayed.
 *
 */
/* --- Custom styles for Peace Corps --- */
.world_map .world_map-is_selected.circlexx {
  opacity:1;
}
.world_map .world_map-is_selected.landxx {
  fill: #C94112 !important;
}
.world_map .landxx {
  fill: #F2EFE8;
  stroke: #ffffff;
  fill-rule: evenodd;
}
.world_map.zoom6 .landxx {
  stroke-width: 0.1px;
}
.world_map.zoom5 .landxx {
  stroke-width: 1px;
}
.world_map.zoom4 .landxx {
  stroke-width: 2px;
}
.world_map.zoom3 .landxx {
  stroke-width: 3px;
}
.world_map.zoom2 .landxx {
  stroke-width: 4px;
}
.world_map.zoom1 .landxx {
  stroke-width: 5px;
}
.world_map .coastxx {
  fill: #F2EFE8;
  stroke: #ffffff;
  stroke-width: 2px;
  fill-rule: evenodd;
}
.world_map .oceanxx {
  opacity: 1;
  color: #ccc;
  fill: #ffffff;
  stroke: #ffffff;
  stroke-width: 0.5;
  stroke-miterlimit: 1;
}

/* --- Original Styles --- *
/*
 * Circles around small countries
 *
 * Change opacity to 1 to display all circles.
 *
 */
.circlexx
{
   opacity:0;
   fill-opacity:0;
   fill:#e0e0e0;
   stroke:#000000;
   stroke-width:0.5;
}

/*
 * Smaller circles around French DOMs and Chinese SARs
 *
 * Change opacity to 1 to display all subnational circles.
 *
 */
.subxx
{
   opacity:0;
   stroke-width:0.3;
}

/*
 * Circles around small, unrecognized countries
 *
 * Change opacity to 1 to display all circles.
 *
 */
.unxx
{
   opacity:0;
   fill:#e0e0e0;
   stroke:#000000;
   stroke-width:0.3;
}

/*
 * Circles around small countries, but with no permanent residents 
 *
 * Change opacity to 1 to display all circles.
 *
 */
.noxx
{
   opacity:0;
   fill:#e0e0e0;
   stroke:#000000;
   stroke-width:0.5;
}

/*
 * land
 */
.landxx
{
}
/*
 * Styles for coastlines of islands with no borders
 */


/*
 * Styles for nations with limited recognition
 */
.limitxx
{
   fill: #e0e0e0;
   stroke:#ffffff;
   stroke-width:0;
   fill-rule:evenodd;
}

/*
 * Styles for nations with no permanent population.
 */
.antxx
{
   fill: #e0e0e0;
   stroke:#ffffff;
   stroke-width:0;
   fill-rule:evenodd;
}

/*
 * Ocean
 */


/*
 * Additional style rules
 *
 * The following are examples of colouring countries.  You can substitute these with your own styles to colour the countries on the map.
 *
 * Color a few countries:
 *
 * .gb, .au, .nc
 * {
 *    fill:       #ff0000;
 * }
 *
 * Color a few small country circles (and the countries):
 *
 * .ms, .ky
 * {
 *    opacity:    1;
 *    fill:       #ff0000;
 * }
 *
 */

</style>
  <path class="oceanxx" d="M 2079.5058,1457.5605 615.24779,1457.5605 C 615.13079,1457.5605 615.07079,1457.5505 614.95179,1457.5215 611.67679,1456.6515 608.40179,1455.7815 605.12779,1454.9105 599.15079,1453.3225 593.22879,1451.5225 587.30779,1449.7385 564.39379,1442.8315 541.76579,1434.6995 519.46979,1426.0115 495.81079,1416.7935 472.34979,1407.0946 449.19179,1396.6816 426.78379,1386.6056 405.17679,1375.0536 383.76379,1363.0356 363.11779,1351.4496 343.01079,1338.8296 323.37979,1325.5996 302.29179,1311.3876 281.47879,1296.8506 261.05379,1281.7006 242.35079,1267.8276 223.73679,1253.6306 206.05279,1238.4686 186.98679,1222.1216 167.82379,1205.7706 150.35279,1187.6906 132.97779,1169.7106 116.33279,1151.0606 100.15679,1131.9976 84.352777,1113.3736 70.086776,1093.4716 56.901786,1072.9246 44.046786,1052.8916 32.093776,1032.1356 22.469776,1010.3426 17.516776,999.12753 12.408776,987.76556 8.7017761,976.06056 5.0657761,964.58166 1.5997761,953.04259 -1.5932239,941.43054 -8.0102239,918.09356 -14.055224,894.78356 -18.234224,870.92056 -22.491222,846.60856 -24.894222,822.19856 -26.943222,797.62156 -28.947222,773.58556 -28.829222,749.40156 -27.225222,725.34856 -25.648222,701.69856 -23.363222,677.92456 -19.274222,654.56456 -15.018224,630.25156 -9.3842239,606.45156 -2.8412239,582.66156 3.5687761,559.35256 10.483776,536.34856 20.265776,514.19856 30.320776,491.42956 42.318786,469.90956 55.502786,448.81656 68.512776,428.00356 83.108777,408.26756 98.686787,389.31756 113.73479,371.01156 129.68979,353.25256 146.15179,336.20856 163.77479,317.96256 182.64579,301.14556 201.89579,284.64756 220.33379,268.84456 239.55379,253.98456 258.95979,239.39656 278.42779,224.76056 298.39379,210.83356 318.55579,197.17556 339.26979,183.14456 360.47879,169.92056 382.15079,157.42556 403.46579,145.13656 425.31479,133.98856 447.60479,123.59356 469.58579,113.34356 492.14979,104.17656 514.74579,95.37556 537.44879,86.532565 560.37879,78.195565 583.63479,70.914565 589.69379,69.017565 595.80079,67.276565 601.90879,65.549565 604.63079,64.779565 607.36079,64.045565 610.09479,63.318565 611.59979,62.918565 613.56579,61.986565 615.13379,61.986565 L 2079.9638,61.986565 C 2079.9798,61.986565 2079.9958,61.986565 2080.0118,61.986565 2079.8448,61.986565 2079.6788,61.986565 2079.5118,61.986565 2102.8268,68.191565 2125.8778,75.323565 2148.5448,83.611565 2171.6378,92.054565 2194.6158,100.87956 2217.2348,110.52956 2240.5208,120.46556 2263.4848,130.95256 2285.8828,142.76456 2306.9808,153.89056 2327.8178,165.78556 2347.8608,178.72156 2368.9418,192.32656 2389.7498,206.29256 2410.2218,220.80056 2429.7368,234.62956 2448.9938,248.98756 2467.6208,263.99256 2486.8818,279.50856 2506.0408,295.30556 2524.0538,312.27356 2541.8708,329.05756 2558.7508,346.67256 2574.9408,365.03656 2591.2478,383.53256 2607.1478,402.30656 2621.4508,422.41856 2635.3488,441.96256 2648.4468,462.42756 2659.5898,483.67756 2671.1238,505.67356 2681.1048,528.35656 2688.6188,552.05056 2692.2518,563.50656 2695.3368,575.14756 2698.5608,586.72256 2701.7738,598.25356 2704.9238,609.81956 2707.4578,621.52456 2712.6258,645.40556 2716.6718,669.47856 2719.1178,693.79656 2721.5718,718.19256 2723.1798,742.56356 2722.9808,767.09056 2722.7908,790.65456 2720.6908,814.43756 2717.7688,837.81156 2714.7368,862.07056 2710.5198,886.16156 2704.6398,909.90056 2701.6808,921.84356 2698.3948,933.69556 2695.0378,945.53154 2691.7468,957.13466 2688.5558,968.83466 2684.3988,980.16156 2676.0918,1002.8036 2666.1688,1024.8836 2654.1338,1045.8046 2641.9958,1066.9066 2628.8498,1087.4866 2614.2378,1106.9696 2599.1658,1127.0666 2582.6678,1145.9446 2565.8948,1164.6296 2549.8298,1182.5266 2532.8918,1199.7316 2514.8648,1215.6616 2496.0788,1232.2646 2476.8978,1248.3126 2457.1558,1263.7656 2438.2988,1278.5276 2418.9668,1292.7306 2399.3188,1306.4206 2378.7018,1320.7866 2357.7538,1334.6106 2336.4758,1347.9776 2326.4088,1354.3016 2316.0058,1360.1326 2305.6418,1365.9516 2295.0348,1371.9086 2284.3858,1378.0166 2273.4448,1383.3436 2250.7338,1394.3986 2227.7768,1404.7266 2204.3888,1414.2665 2181.7848,1423.4875 2159.0678,1432.2695 2136.0228,1440.3345 2117.4118,1446.8465 2098.5568,1452.4975 2079.5058,1457.5605" id="ocean"/>
  <g id="fr">
    <title>France</title>
    <path class="landxx eu guf fra" d="M 853.32629,739.43755 C 854.61429,739.37755 855.64229,737.16955 856.08129,736.20055 856.89929,734.39155 856.09329,732.37855 857.32729,730.73055 858.79029,728.77755 857.44629,727.33755 856.20029,725.78255 854.90829,724.16955 854.96029,721.28955 854.83629,719.32155 854.69229,717.02855 855.02629,715.72555 856.69929,714.12855 857.32229,713.53355 858.09829,712.87655 858.29829,711.99755 858.55729,710.85855 858.85129,709.43555 860.46629,710.04555 861.51429,710.44155 862.23329,711.28955 863.34729,711.59455 864.55029,711.92555 866.01129,711.90655 867.02929,712.72055 868.22329,713.67755 869.81029,717.32255 871.68529,717.18955 871.37029,717.65155 871.15429,718.15555 871.03629,718.70255 871.56829,716.30655 875.67329,720.41755 873.33629,722.01455 874.46829,721.59755 873.81029,720.53955 874.37429,719.78555 875.23029,718.63955 875.89529,721.31055 875.96129,721.87955 876.27329,724.57755 874.20329,727.43355 872.80029,729.58155 871.18829,732.04955 870.06729,734.13855 869.01629,736.91955 868.62629,737.95155 868.12329,738.82455 867.25629,739.52655 866.89629,739.81855 866.25129,740.49055 865.77729,740.61555 864.99629,740.82255 864.38129,740.19755 863.54629,740.59155 863.89029,739.61055 863.27529,739.60655 862.53829,739.83455 861.50829,740.15355 860.62829,739.73455 859.64929,739.40355 859.15529,739.23655 857.23429,740.62855 856.92729,740.99355 856.35729,741.67055 853.70329,739.83455 853.32629,739.43755" id="gf">
      <title>French Guiana</title>
    </path>
  </g>
  <g class="landxx coastxx bra" id="br" transform="translate(-29.9017,-45.0745)">
    <title>Brazil</title>
    <path d="M 899.788,817.853 C 900.508,817.71 901.141,817.276 901.658,816.773 900.864,816.658 899.999,817.015 899.788,817.853" id="path2814"/>
    <path d="M 901.518,818.853 C 902.102,818.2 903.035,818.35 903.668,817.773 903,816.678 901.086,817.703 901.518,818.853" id="path2816"/>
    <path d="M 914.618,786.312 C 914.785,786.072 914.951,785.832 915.118,785.592 914.317,785.362 914.15,785.603 914.618,786.312" id="path2846"/>
    <path d="M 915.268,788.399 C 916.376,787.852 915.803,786.89 915.268,786.168 914.184,786.67 914.764,787.72 915.268,788.399" id="path2848"/>
    <path d="M 903.748,817.413 C 905.719,816.93 910.484,812.225 909.345,809.981 908.182,807.691 905.955,810.774 905.661,811.995 905.446,812.891 905.835,813.849 904.935,814.442 903.96,815.083 903.235,816.166 903.748,817.413" id="path2818"/>
    <path d="M 907.638,808.853 C 908.384,808.354 910.404,806.991 909.438,805.893 908.398,806.438 907.985,807.826 907.638,808.853" id="path2820"/>
    <path d="M 907.708,815.183 C 908.779,814.808 909.624,813.267 908.928,812.234 908.915,813.394 907.695,814.036 907.708,815.183" id="path2822"/>
    <path d="M 910.797,812.163 C 909.974,812.438 909.367,813.185 909.217,814.033 910.216,813.791 910.447,812.683 911.238,812.163 911.091,812.163 910.944,812.163 910.797,812.163" id="path2824"/>
    <path d="M 909.717,809.353 C 910.04,808.645 910.186,807.846 911.017,807.553 909.898,806.442 909.438,808.575 909.717,809.353" id="path2826"/>
    <path d="M 909.578,812.953 C 910.229,812.227 910.65,811.292 911.435,810.685 911.874,810.345 912.124,809.429 911.246,809.741 910.291,810.081 909.496,812.014 909.578,812.953" id="path2828"/>
    <path d="M 910.078,809.423 C 910.658,809.249 911.12,808.779 910.868,808.133 910.354,808.37 910.003,808.835 910.078,809.423" id="path2830"/>
    <path d="M 911.667,807.123 C 912.197,806.549 912.894,806.175 913.421,805.598 914.081,804.873 912.964,804.608 912.463,804.837 911.438,805.303 909.451,806.684 911.667,807.123" id="path2832"/>
    <path d="M 910.728,809.643 C 911.339,809.319 912.636,808.86 912.168,807.914 911.235,807.983 911.115,809.005 910.728,809.643" id="path2834"/>
    <path d="M 911.087,811.942 C 911.46,811.725 911.723,811.416 911.877,811.012 911.272,811.01 910.945,811.327 911.087,811.942" id="path2836"/>
    <path d="M 911.308,804.603 C 911.331,804.747 911.354,804.89 911.378,805.034 911.943,804.963 912.423,804.723 912.818,804.314 912.281,803.918 911.687,804.101 911.308,804.603" id="path2838"/>
    <path d="M 912.308,817.343 C 912.843,818.205 913.205,819.206 913.929,819.941 914.474,820.495 916.713,820.66 915.558,820.013 916.583,820.13 917.861,819.523 918.811,819.799 919.483,819.994 920.469,820.535 920.238,819.293 920.39,819.565 920.557,819.829 920.738,820.083 921.446,819.603 922.172,818.92 922.178,817.993 922.581,819.488 925.148,818.419 925.968,817.992 927.464,817.214 927.42,815.642 928.288,814.356 929.124,813.117 929.388,811.877 929.672,810.431 929.939,809.074 931.521,806.769 929.149,806.623 927.294,806.509 924.951,805.352 923.189,806.113 922.412,806.449 923.272,806.78 922.037,806.726 920.952,806.679 920.065,806.532 919.008,806.253 917.077,805.744 914.557,804.882 913.28,807.041 912.577,808.229 912.517,810.117 914.118,810.574 913.537,810.449 912.96,810.305 912.388,810.143 912.15,810.806 912.634,811.109 912.598,811.734 912.557,812.454 911.977,813.001 912.361,813.77 912.78,814.61 913.982,813.506 914.618,813.674 913.634,815.333 913.845,814.143 912.098,814.394 912.483,815.288 912.351,816.399 912.308,817.343" id="path2840"/>
    <path d="M 913.898,804.603 C 914.859,805.315 914.844,804.283 914.53,803.651 913.805,802.194 913.033,803.745 913.898,804.603" id="path2842"/>
    <path d="M 914.837,803.163 C 915.562,802.088 916.11,800.823 915.117,799.703 914.669,800.578 913.814,802.876 914.837,803.163" id="path2844"/>
    <path d="M 917.638,804.603 C 918.336,806.015 919.708,803.778 920.294,803.175 921.824,801.599 919.091,801.872 918.246,802.136 917.412,802.396 915.534,802.478 915.248,803.522 915.007,804.403 917.155,804.542 917.638,804.603" id="path2850"/>
    <path d="M 916.268,801.653 C 916.672,801.327 918.618,799.842 917.883,799.218 916.709,798.221 915.382,800.746 916.268,801.653" id="path2852"/>
    <path class="landxx bra" d="M 736.705,869.763 C 737.21467,868.78423 736.99677,868.25129 738.126,868.048 739.25237,867.84522 737.9418,866.49605 738.26,864.987 738.77353,862.55166 740.6267,862.34388 742.23141,861.3016 743.37409,860.5594 742.538,858.928 742.25901,857.735 742.00401,856.641 742.57201,855.655 743.18401,854.793 744.41301,853.061 743.10801,850.545 744.36201,849.023 745.00801,848.238 746.38401,848.187 747.14501,847.442 747.82001,846.781 747.84461,846.0228 748.78061,845.6988 749.98561,845.2808 750.66601,844.099 751.82601,843.623 752.90001,843.183 754.56101,843.213 755.72401,842.971 757.10601,842.683 758.25619,842.74917 759.27501,841.668 759.43867,841.49432 759.69295,840.78975 761.23001,840.429 761.80294,840.29453 761.93178,840.55269 762.71101,840.723 763.37777,840.86873 764.11501,841.662 764.49801,842.182 764.69201,841.942 764.88501,841.703 765.07801,841.462 766.12101,843.181 766.64001,839.752 766.73001,839.144 767.14301,836.37 767.55736,833.59454 767.83401,830.803 768.20959,827.01315 768.62171,823.21167 769.38801,819.502 769.71307,817.92839 770.36922,816.4994 769.99122,814.8634 769.62822,813.2904 768.51875,812.48178 768.46842,810.79879 768.41642,809.05979 767.57501,808.7659 766.28501,807.558 764.84432,806.209 764.82062,804.792 764.82062,803.079 764.82062,802.083 764.66401,800.831 765.19901,799.914 766.5582,798.43964 769.24917,797.6842 770.32501,798.787 771.50201,799.412 771.91372,799.05795 771.82001,797.699 771.67401,795.58183 768.41801,794.44146 766.58601,795.456 766.57601,793.92474 765.76257,791.2729 766.47903,789.94502 767.17601,788.65323 769.70901,789.697 770.62701,789.697 772.82201,789.697 774.87902,789.6586 777.07002,789.7486 777.45802,789.7646 778.69782,789.8926 778.81482,789.2866 778.87582,788.9726 778.69113,788.06369 779.10805,787.79218 780.64602,786.7906 780.27228,789.93171 781.53042,789.3136 782.60407,788.78613 783.19892,787.44696 784.11801,786.711 785.80363,785.36124 786.64386,787.38872 787.05361,788.3518 787.86749,790.2648 787.86908,791.2 787.6778,793.065 787.6328,793.504 787.36101,794.491 788.16001,794.344 789.27801,794.138 789.05403,793.50624 789.93403,794.3932 791.00903,795.4762 791.71065,796.86399 793.12865,797.51899 795.03365,798.39799 796.3036,797.00682 797.77301,796.28296 800.68804,794.84696 799.1266,798.27296 799.55501,799.05496 800.26501,798.82396 801.43222,796.97896 801.86322,796.35896 802.59722,795.30496 802.91822,794.66756 804.20022,794.17156 805.27222,793.75656 805.85163,793.60736 806.66763,792.80736 807.24763,792.23836 808.76401,791.16096 808.70401,792.72196 809.56001,791.29996 810.51601,790.77996 810.93401,789.12196 811.26401,787.81796 811.75684,787.86546 812.91622,787.37456 813.41414,787.16374 815.29581,786.19443 815.52143,785.85516 816.90038,783.7816 815.86253,783.40339 814.24276,783.59855 813.44805,783.69435 812.11542,783.66885 811.478,783.13654 811.10363,782.82391 811.5417,781.39589 811.3938,780.99596 810.65117,778.98696 809.87502,778.20915 809.92399,774.86496 809.94449,773.46361 808.89659,772.49695 807.80999,771.37996 807.18874,770.74133 805.16499,768.47396 806.11399,767.52096 806.76399,767.80596 807.10159,768.72236 807.80559,768.79136 808.76859,768.88536 810.84111,768.17705 811.08978,769.62676 811.26347,770.63935 811.65228,770.89664 812.76799,770.74694 814.605,770.50047 815.66429,771.40754 815.97399,770.85096 817.41799,768.25583 818.53538,774.02411 820.543,773.65756 821.85538,773.41795 820.64382,770.96172 821.30499,769.93296 821.70738,769.30685 822.78499,769.62496 823.37099,768.92396 824.22399,767.90296 825.03714,769.29331 825.9102,768.99136 827.28326,768.51649 830.37748,767.69295 830.99839,766.53177 831.04229,766.44977 832.66592,765.51162 832.85599,765.52696 833.65684,765.59156 834.62921,766.02932 835.17239,765.04655 836.05315,763.45297 839.30154,762.41267 836.99399,759.42457 838.08699,759.25957 839.01933,759.43257 840.12199,759.11498 841.01799,758.85682 841.68114,759.14438 842.2758,760.05236 843.53882,761.98083 841.92345,763.36733 841.617,765.07996 841.45957,765.95976 843.54251,765.50248 844.66299,766.62196 844.9121,766.87085 844.34999,767.59496 844.56299,768.09296 844.90899,768.90096 845.29279,769.52917 845.74079,770.26317 846.23679,771.07617 843.96017,773.23216 843.78017,773.90416 843.60017,774.57316 843.58699,775.33996 843.41099,776.06296 843.08799,777.38896 842.35139,778.41617 842.19139,779.77517 841.95539,781.79117 842.24309,783.6338 843.56899,784.93596 844.51779,785.8678 843.45799,788.78786 844.70199,788.69196 844.60699,788.93196 844.50999,789.17196 844.41199,789.41196 845.91086,789.58103 847.04244,791.26123 847.64099,792.38396 848.13908,793.31827 849.14144,792.45466 849.73301,793.32658 850.26248,794.10695 851.16546,793.91431 851.62899,794.00896 852.15658,794.11669 852.68889,792.67866 853.2806,792.18779 855.38451,790.44241 856.82398,790.60992 858.501,789.88556 859.46535,789.46903 859.9492,790.06037 860.7632,789.07837 861.8402,787.77937 862.96013,787.07781 864.83899,787.65977 866.36699,788.13305 867.16703,787.20573 868.76303,787.65577 869.80407,787.94946 872.67919,789.40771 873.06939,787.63277 873.42839,785.99977 871.41223,785.87236 872.16317,784.36236 873.54179,781.5902 873.81951,783.98137 875.46799,783.56376 876.51124,783.29947 877.24547,783.05413 878.19581,782.70297 880.21084,781.95842 880.11998,782.35896 881.61898,783.60296 881.91598,783.84896 881.69698,783.01076 882.05599,783.56676 882.50199,784.25776 883.20439,784.49516 883.85539,784.98816 884.69739,785.62616 885.48299,785.70876 886.35799,786.18576 886.73145,786.54135 887.28498,785.09914 889.22799,784.40276 889.71799,784.13076 890.33399,784.78176 890.85499,784.82876 891.49699,784.88676 893.95839,784.19157 893.49439,785.51457 894.20239,785.18057 895.32739,786.01457 895.91139,785.49057 896.73639,784.74957 897.47201,784.43816 898.09201,783.48416 898.96701,782.13816 900.61974,777.81205 901.50611,776.47432 904.30186,772.25496 906.91309,768.8034 905.64407,766.03153 905.73507,766.60853 907.23899,769.68376 907.63399,770.11476 907.30499,769.17876 906.51899,768.02076 907.34399,767.09076 909.52999,768.44476 909.81299,770.62276 909.57399,772.99476 909.69799,772.29676 909.76499,771.53576 910.36399,771.05076 910.28099,774.18576 910.60599,777.45776 911.71299,780.40676 912.16499,781.61276 914.02099,785.27076 912.66399,786.38576 913.71199,786.03976 913.88699,787.17176 914.21699,787.85876 914.85999,789.19676 916.37899,788.65976 917.49399,789.12176 920.03799,790.17676 919.54799,793.17676 917.34399,794.16176 917.91699,793.99976 918.55999,794.10176 919.00399,794.52076 918.03499,795.48976 916.35299,796.35976 915.96199,797.76876 915.75999,798.49376 914.93499,798.82176 914.54499,799.41476 913.95399,800.31276 913.69299,801.31176 912.97299,802.14076 911.99699,803.26276 910.74299,804.07876 909.64999,805.07276 908.29999,806.30176 907.59599,807.95276 906.45999,809.35476 905.40699,810.65376 905.01999,811.65576 905.16799,813.32776 905.24999,814.26476 903.52199,814.43076 903.46099,815.71776 903.37899,817.45276 902.11099,816.51776 901.22299,816.48876 900.40999,816.46176 897.85399,817.71476 897.55499,818.49576 898.27399,818.32876 902.15699,817.59076 901.07499,819.36576 901.80999,818.55676 902.95599,818.63076 903.84599,818.10676 904.88499,817.49576 905.68299,816.83176 906.80599,816.34976 908.26799,815.72176 910.42799,813.90076 911.23599,812.52476 913.12799,813.62276 911.32199,816.46376 912.55399,817.98276 913.04899,818.59176 912.57199,820.22276 913.38799,820.46376 914.06899,820.66376 915.24799,820.26776 914.83499,821.45576 916.43299,821.76876 919.29299,818.85576 919.58499,822.17576 919.44199,821.15276 920.45199,820.96276 921.21699,820.81576 921.59899,820.82776 921.87099,820.65676 922.03299,820.30176 922.32999,819.51076 923.17799,819.80476 923.83399,819.65576 922.98199,822.32976 922.18799,824.07676 922.31399,826.85476 923.53399,825.27976 922.81299,821.85276 924.86099,820.88676 926.22399,820.24476 926.44899,820.05376 927.25599,818.73776 928.58799,816.56276 928.95199,818.17276 930.30399,819.00576 930.27599,818.54876 930.15899,818.11476 929.95399,817.70576 930.70699,817.65376 931.44399,817.48276 932.18399,817.34576 931.42399,816.96376 930.57099,817.27976 929.80399,817.41576 929.60999,816.36476 930.35399,816.32076 930.94299,815.75676 931.83599,814.90076 930.87199,812.99976 931.97199,811.91376 933.26799,810.63376 932.90199,811.71276 933.76399,811.37576 934.36999,811.13976 935.63899,809.61176 935.78399,811.15576 936.97799,809.99076 937.04499,811.61776 938.15399,811.22476 937.67699,810.81476 937.56599,810.19776 937.86399,809.64476 938.54499,809.84376 940.16999,810.24076 939.81399,811.29476 940.04999,811.16676 940.28999,811.04676 940.53399,810.93476 940.63099,811.20176 940.72699,811.46876 940.82399,811.73576 941.44599,811.24176 941.54399,811.23776 941.54399,812.08576 942.11999,811.89576 942.52399,811.40976 942.55399,810.79576 942.19199,811.72776 943.46499,811.90176 943.12399,812.81676 943.21299,812.23076 943.58999,811.85276 944.20399,812.08676 944.19499,812.70576 943.78799,813.17376 943.19399,813.31676 944.22199,812.71976 945.15799,814.18076 946.14399,813.24676 946.01199,814.60076 947.01199,813.79976 947.30399,813.09676 946.89099,814.73676 948.26699,814.05776 948.16399,815.11776 948.54999,814.96376 948.83999,814.70076 949.03399,814.32776 948.90099,815.25576 950.05799,814.91676 950.25399,815.76676 950.49999,815.53276 950.73999,815.29276 950.97399,815.04676 951.02099,815.58576 951.21499,816.06576 951.55399,816.48676 951.79199,816.29476 952.02899,816.10176 952.26399,815.90676 952.38699,816.62676 952.67099,816.96976 953.34399,816.26576 952.81899,816.64076 952.68099,817.23776 953.06399,817.77576 953.21299,817.22176 953.63999,816.79576 954.21299,816.69576 953.39999,817.42776 953.68899,818.98876 954.43399,819.65676 954.75899,819.04776 954.36799,818.02176 955.18999,817.70376 956.68399,817.12376 956.01499,818.19676 956.73399,818.42676 956.69199,817.82576 957.04999,817.35476 957.59399,817.13676 957.34399,817.60876 957.22399,818.11276 957.23399,818.64676 958.94299,817.62176 957.00999,820.68076 958.82399,819.57776 958.57399,819.80676 958.33399,820.04776 958.10399,820.29776 958.68699,820.49976 959.21999,820.21376 959.54299,819.72776 959.05199,820.79176 960.78199,820.20976 960.03299,821.63676 959.36399,822.91176 959.67899,823.97376 958.03299,824.47776 958.62499,824.10576 959.08799,824.43776 959.25299,825.04776 959.29499,824.13276 960.30199,822.72676 961.14599,823.91376 962.04799,825.18476 960.46799,825.58176 959.97099,826.53676 959.54699,827.35076 958.79299,829.86076 959.08399,830.74376 959.40599,831.72076 957.85599,832.53176 958.53399,833.25876 958.62399,831.88576 960.25299,831.46976 960.83399,830.37876 961.41099,829.29476 961.03199,827.47876 961.65999,826.58676 961.98099,826.12876 963.42999,825.08776 963.89899,825.87776 964.66899,827.17376 962.23099,827.86476 962.06499,828.93876 962.77499,828.48176 963.01499,828.65176 962.78499,829.44876 963.62399,829.04276 964.80299,825.75676 965.23499,827.42876 965.30599,826.27476 967.53099,825.64876 968.39499,826.13876 968.30299,823.86676 973.01199,826.38276 973.84699,826.86376 974.43899,827.20476 977.69999,828.53176 977.75499,829.15876 978.46499,828.69576 980.34799,829.86676 979.99499,828.36876 980.93799,828.57776 981.57599,829.28276 982.43499,829.65876 983.42499,830.09076 984.48699,830.02476 985.31499,830.81876 985.29899,829.43376 986.15399,829.58076 987.22999,829.54176 989.38699,829.46476 991.29299,828.59976 993.48999,829.06876 997.51199,829.92676 1001.233,833.36076 1004.368,835.82076 1005.412,836.63976 1006.609,836.77776 1007.475,837.80876 1008.304,838.79676 1008.945,839.90076 1009.73,840.91476 1010.615,842.05876 1011.8,842.56876 1012.612,843.69276 1013.479,844.89276 1015.073,845.02476 1016.027,846.26576 1016.985,847.51176 1018.381,847.00776 1019.474,848.08076 1020.739,849.32376 1022.961,848.82176 1024.513,848.62776 1028.081,848.18276 1030.717,849.51676 1031.754,853.05676 1032.156,854.42776 1032.758,855.79276 1032.782,857.24476 1032.792,857.68276 1032.417,858.41576 1032.755,858.58376 1033.142,858.77476 1033.357,859.30576 1033.511,859.67376 1034.159,861.22276 1035.258,864.67276 1034.424,866.30676 1034.654,865.95576 1034.867,865.59676 1035.064,865.22676 1034.908,866.86476 1036.105,868.83776 1034.424,870.04676 1034.69,870.11076 1034.953,870.18376 1035.214,870.26676 1034.541,871.62176 1035.607,873.25376 1034.784,874.48176 1033.932,875.75376 1034.568,877.46776 1033.901,878.80376 1033.125,880.35476 1032.856,882.09676 1032.137,883.67176 1031.347,885.40476 1029.625,886.53576 1028.954,888.33676 1028.704,888.15876 1028.464,887.96876 1028.234,887.76676 1028.287,888.49676 1028.059,889.40576 1027.364,888.19676 1027.485,888.65676 1027.775,888.89776 1028.234,888.91776 1027.184,890.98876 1025.646,893.69076 1023.907,895.25776 1023.19,895.90376 1022.222,896.16176 1021.492,896.80376 1020.731,897.47276 1020.138,898.34876 1019.234,898.84776 1019.385,898.23276 1018.991,897.79976 1018.434,897.62776 1018.365,898.29676 1019.205,898.51276 1019.084,899.13776 1018.927,899.94276 1018.232,901.01676 1017.434,900.00776 1017.829,900.52376 1018.759,901.02176 1018.197,901.79976 1017.872,902.25076 1016.515,903.74476 1017.064,902.08776 1016.613,902.80476 1016.707,903.70776 1016.064,904.32776 1016.353,904.23776 1016.64,904.14076 1016.924,904.03776 1015.34,906.29876 1012.822,917.69076 1008.714,916.99776 1009.47,915.27576 1007.723,914.95476 1007.204,913.60676 1007.17,914.38776 1006.307,916.58276 1005.624,914.90776 1005.836,915.60876 1006.92,915.89676 1006.888,916.65176 1006.83,917.97876 1005.153,918.92576 1005.624,920.37776 1004.47,919.59776 1004.707,921.58576 1004.685,922.39776 1004.768,922.02576 1004.887,921.66576 1005.044,921.31876 1005.431,922.32876 1005.44,923.20376 1005.404,924.26776 1005.124,924.04576 1004.861,923.80576 1004.614,923.54776 1005.239,924.07676 1005.798,925.78676 1005.554,926.57776 1005.75,926.07376 1005.94,925.56676 1006.124,925.05676 1006.223,928.08576 1005.258,930.83076 1005.695,933.90476 1006.07,936.54176 1007.217,939.30276 1007.348,941.93176 1007.58,946.59976 1004.65,950.94776 1005.948,955.73576 1006.673,958.40576 1004.984,958.73376 1003.84,960.74076 1002.521,963.05376 1002.319,965.92776 1002.649,968.52276 1002.884,970.37476 1003.981,974.10576 1001.789,975.06876 999.72199,975.97776 1001.382,980.02376 998.92499,980.35576 1000.67,981.89976 997.71499,983.83376 996.71799,984.78376 995.86399,985.59776 996.11099,986.21176 995.80899,987.30376 995.36399,988.91476 994.63099,990.36676 994.88999,992.08376 995.02499,992.97676 995.67199,994.37176 995.00199,995.18676 993.89699,996.53176 992.20699,996.48976 990.81799,997.31876 989.87599,997.88176 988.90499,998.93076 988.48199,999.94676 988.20799,1000.6038 988.52699,1001.2128 988.71799,1001.8398 988.91499,1002.4828 988.08799,1002.8178 988.41499,1003.5368 987.43199,1002.4488 984.61199,1002.9938 983.37499,1003.2518 982.65099,1003.4028 981.48799,1003.8018 980.78499,1003.3968 979.74199,1002.7958 980.48299,1001.7828 980.42499,1000.8768 978.10899,1001.1478 980.00999,1002.1138 979.70099,1003.2788 979.39499,1004.4318 974.76699,1003.9848 973.72399,1004.5468 974.43099,1003.7928 975.65199,1004.1308 976.53399,1003.8268 975.58599,1002.9798 974.52599,1002.5188 973.35099,1003.2348 972.30799,1003.8698 971.83999,1003.3648 970.76199,1003.4868 969.97999,1003.5748 968.67999,1003.6648 968.40699,1004.5928 968.15199,1005.4578 969.48599,1005.8388 969.98499,1006.2068 968.84799,1007.1348 967.33399,1006.1588 966.58999,1007.2558 965.94999,1008.1998 964.92299,1008.3118 964.03799,1008.9268 963.25599,1009.4688 964.21899,1010.3038 963.43499,1010.8178 962.35099,1011.5288 960.50399,1009.5158 958.96399,1010.8178 958.80199,1010.9548 957.73499,1012.9148 957.35199,1012.4308 957.01799,1012.0108 957.28099,1011.3938 956.44399,1011.5368 956.88499,1012.8458 955.19099,1012.9958 954.25099,1013.6228 953.09699,1014.3928 952.56399,1015.4878 951.65299,1016.4768 950.65999,1017.5528 949.13199,1017.8528 948.05599,1018.8228 947.13799,1019.6528 946.61399,1020.9098 945.57299,1021.6068 945.81199,1021.7548 946.05199,1021.9018 946.29299,1022.0468 945.48499,1022.8828 944.67899,1023.8568 944.20299,1024.9268 944.12899,1024.3818 944.27199,1023.9028 944.63299,1023.4878 943.88099,1023.8098 943.10199,1023.6028 942.40299,1023.2668 942.72799,1024.7608 941.89699,1025.6248 940.46299,1024.4168 940.44799,1025.2778 942.48299,1026.1638 943.26299,1026.0768 942.72499,1026.5768 942.53799,1027.2528 942.40299,1027.9468 942.29599,1028.5008 941.17599,1028.3248 940.82299,1028.5968 941.30499,1028.5818 941.78499,1028.6068 942.26299,1028.6668 942.04599,1029.3478 942.32699,1030.0458 942.12899,1030.7238 941.89599,1031.5208 941.04799,1031.6578 940.82299,1030.7568 941.10099,1031.3458 940.97299,1032.1468 941.62599,1032.4268 942.47999,1032.7928 941.98099,1034.6038 942.18299,1035.2968 942.50499,1036.4008 943.87399,1038.0178 943.26299,1039.3968 944.31899,1039.1458 944.21099,1040.3918 943.34299,1040.5468 944.29399,1041.2728 943.55099,1044.3478 944.31199,1045.6198 945.02499,1046.8118 943.75999,1049.7738 943.70299,1050.9868 943.32499,1050.7098 943.01199,1050.3728 942.76299,1049.9758 943.02199,1050.5928 942.99899,1051.3258 943.77299,1051.5668 942.96899,1052.7008 941.69099,1053.3778 940.66099,1054.2738 939.56399,1055.2288 938.80599,1056.5068 938.12699,1057.7748 936.47599,1060.8598 935.99399,1064.1478 935.11699,1067.4878 934.29399,1070.6248 932.73699,1073.4728 930.92899,1076.1408 929.18799,1078.7098 926.65599,1080.5448 924.62199,1082.8858 924.98399,1081.9578 924.46699,1080.8258 924.26199,1079.9258 925.32199,1080.2168 925.73999,1080.3088 926.67899,1079.6558 927.51399,1079.0758 927.97999,1077.7418 928.73499,1077.3178 929.77799,1076.7318 929.95399,1076.2458 929.94999,1075.0408 929.94699,1074.2638 930.08499,1072.9018 931.03299,1074.0248 930.67799,1072.8818 931.21399,1072.4478 931.88599,1071.6508 932.43699,1070.9968 932.55299,1070.2458 932.43199,1069.4168 932.34499,1068.8148 931.70599,1066.8008 933.04199,1068.0458 933.07499,1067.7328 932.64599,1065.8018 932.14899,1065.9728 931.83299,1066.0808 930.10399,1067.3838 930.09199,1067.7658 929.61699,1067.2278 929.34499,1066.5868 928.63999,1066.3358 927.80799,1066.0398 927.96799,1064.8558 927.21099,1064.4558 927.14499,1066.4258 928.07899,1066.3478 928.86099,1067.7658 927.20799,1068.1698 928.40999,1070.0798 928.29099,1071.1458 928.17599,1070.6198 927.95999,1070.1408 927.64199,1069.7068 927.40499,1070.3878 928.04899,1071.2618 927.70799,1071.8318 927.55699,1072.0848 927.02599,1072.0378 927.09999,1072.4308 927.41099,1074.0698 926.01599,1074.9448 924.85399,1075.6078 923.93699,1076.1308 924.30399,1077.2748 924.04099,1078.1358 923.81999,1078.8578 921.99999,1080.6228 923.75099,1080.7958 922.82099,1081.3748 923.48199,1082.6508 924.40099,1081.9448 924.54899,1082.8618 923.87299,1083.7138 923.50299,1084.4868 922.89799,1085.7538 922.94399,1087.2818 922.75099,1088.6448 922.37099,1091.3298 920.73199,1092.9308 919.34099,1095.1068 918.77549,1095.9913 918.03738,1096.4851 917.5788,1096.3037 917.09283,1096.1115 916.44846,1094.9462 916.20963,1094.3953 915.76568,1093.3713 915.95143,1092.5104 915.88372,1091.63 915.79532,1090.4806 916.92274,1089.6272 917.4259,1088.6803 918.21575,1087.1938 916.50699,1086.5268 915.49699,1086.0588 914.32099,1085.5138 913.84005,1084.4882 913.12899,1083.4648 911.47048,1081.0778 909.1536,1081.1878 907.59599,1079.5118 906.30793,1078.1617 904.80129,1077.4145 903.23099,1076.5448 902.65599,1076.2698 902.43699,1075.6947 901.86099,1075.4317 900.22288,1076.4742 898.24153,1072.9066 896.54099,1071.5748 897.41471,1072.8159 893.90134,1074.9249 893.97872,1072.2898 894.03992,1070.2044 891.45799,1068.8688 889.98599,1067.7588 888.89299,1066.9348 886.73535,1064.0672 885.08735,1065.2612 884.53835,1065.6592 884.51003,1066.3953 883.63899,1066.6238 882.82819,1066.8365 881.70785,1066.7341 880.9719,1065.8138 882.51251,1065.1973 882.09994,1062.765 883.86608,1062.0498 885.44396,1061.4108 886.06449,1059.2096 886.68099,1057.5758 887.37968,1055.7242 888.69718,1054.1561 889.61818,1052.4281 890.08518,1051.5531 891.20999,1049.2228 892.43099,1050.4828 892.72299,1049.8968 892.46199,1049.3848 891.86099,1049.1818 892.83199,1048.0068 893.82381,1046.4923 895.16181,1045.7423 896.53081,1044.9743 896.78308,1044.3594 897.72208,1043.3414 898.66908,1042.3134 899.87572,1042.1535 901.04772,1041.5555 901.90372,1041.1175 903.51699,1039.2408 904.60199,1039.7518 904.84999,1037.9748 904.78799,1036.5468 904.73999,1034.7728 904.68199,1032.6208 904.47499,1031.4898 903.74499,1029.4838 903.22799,1028.0658 902.90299,1026.4298 901.32399,1025.8698 900.41199,1025.5458 898.68399,1025.4168 898.48199,1026.7218 898.19724,1026.4518 897.49842,1026.6468 896.98171,1026.3044 896.61138,1026.0591 896.81562,1025.0828 896.77908,1024.4458 896.68168,1022.7478 897.22449,1021.533 897.43274,1019.786 897.57543,1018.589 897.29401,1016.8494 897.83101,1015.7534 898.39101,1014.6094 896.83199,1013.6858 898.12199,1012.7528 897.23899,1012.1488 896.57939,1011.0758 895.43239,1010.9398 894.22639,1010.7958 893.33801,1011.8072 892.29199,1012.1728 889.25584,1013.2339 888.60235,1010.2729 888.04199,1008.0028 887.70861,1006.6522 886.7443,1005.2573 886.4963,1003.8913 885.6227,1000.7205 884.69773,999.55088 883.61949,997.99505 882.40949,997.67705 881.22582,997.43736 880.21551,996.55397 879.12861,995.60362 879.138,996.31403 878.16204,997.89535 876.17438,1001.1159 876.47129,997.85045 875.51929,997.72845 874.14924,997.55288 872.5046,997.58154 871.2756,996.91254 870.6216,996.55654 868.01903,996.28983 867.81943,995.45921 867.61536,994.60994 868.25507,993.81378 868.46099,993.02176 868.66238,992.24713 867.87199,991.09276 868.17399,990.31576 868.70499,988.94676 868.13899,987.70176 868.41999,986.38076 868.63499,985.36676 866.82179,984.97996 867.78579,983.83796 866.61122,983.361 866.16423,981.35726 865.56159,980.07956 864.24659,978.23956 868.6742,978.17136 866.8042,976.72736 864.5422,974.98136 865.40899,973.68276 866.47799,971.23576 866.76699,970.57476 867.7132,969.20477 867.3632,968.57377 866.7702,967.50477 867.293,966.71376 867.56699,965.51976 868.7354,962.31485 867.93835,961.86725 866.87099,959.54076 865.8942,958.0823 865.97671,955.71792 865.05799,956.08876 863.47225,956.72884 861.35999,954.67192 860.79799,952.94476 860.42528,951.79934 859.95899,950.42676 859.92399,949.21576 859.88899,948.00576 860.79199,946.98976 860.75099,945.71976 858.31799,946.27576 855.75579,946.08836 853.30279,945.83736 851.74579,945.67836 848.20319,946.15036 847.08219,944.90036 846.06019,943.75936 846.27499,941.40576 846.03299,939.98676 845.71099,938.10076 843.47599,936.99376 843.40099,935.27976 844.02299,935.21476 844.64599,935.19176 845.27099,935.20976 844.84989,933.13469 844.17948,930.28453 843.47061,928.72538 843.07718,927.86003 843.03026,927.6742 843.08579,926.85156 843.15719,925.79392 843.20495,924.97836 842.32701,924.28457 840.15035,922.56446 837.8229,921.42663 836.64739,921.55986 832.69778,922.00751 833.73289,921.67488 832.51901,921.66457 831.53363,921.65657 830.23899,919.48176 829.77199,918.85476 829.26099,918.17076 828.89699,918.49376 828.21999,918.43976 827.60999,918.39076 826.27528,917.40036 825.73039,917.13196 825.34839,916.9438 824.79595,916.99572 824.29599,916.75976 823.12839,916.20871 823.10075,915.31153 822.611,914.65156 821.97466,913.79407 821.83699,913.97876 820.97099,914.36476 819.95199,914.81976 819.415,913.65336 818.723,913.19936 816.926,912.01636 816.39799,913.39376 814.57399,912.96476 812.48399,912.47476 812.27999,912.31276 811.14299,910.71576 810.60699,909.96276 808.68259,908.73596 807.79959,908.64396 806.93359,908.55396 807.24799,907.29676 806.72999,906.72176 806.35299,906.30476 805.49543,906.37877 805.50099,905.72676 805.51309,904.30728 803.85864,903.0337 803.76701,901.51598 803.71501,900.65516 804.35792,900.13312 804.46199,899.25676 804.54699,898.54111 803.5213,898.40613 803.37399,897.59376 803.24716,896.89432 803.17109,896.04689 803.15399,895.60376 803.11969,894.71497 803.57261,893.99457 803.71661,893.21757 803.99261,891.73057 804.09399,889.35976 802.71899,888.40876 802.38499,888.72276 802.10099,889.52776 801.54799,889.48376 800.16399,889.37276 799.08851,889.31279 797.70399,889.54676 796.1876,889.80301 793.62337,890.12439 792.63899,891.24876 790.97856,893.14533 790.73321,894.39275 788.45693,894.45998 787.93693,894.47538 786.50097,895.509 786.37497,896.30138 786.19938,897.40564 784.98338,896.94975 784.34238,896.88775 783.32638,896.78775 782.52314,897.69739 782.38599,898.49976 782.20315,899.56945 781.20248,900.23029 780.03399,900.53176 779.65683,900.62906 777.90042,901.54554 778.24298,900.16978 778.33398,899.80435 777.1804,899.73621 776.34659,899.70895 774.14806,899.63705 770.98929,899.1896 769.34659,899.28655 768.30799,899.34785 767.1706,900.60196 766.0416,900.25396 765.3686,900.04696 764.63099,898.93276 763.90699,899.56876 763.58426,896.9324 763.39725,894.01 763.32579,891.50877 763.28919,890.22826 763.47599,889.96476 763.85099,888.87776 763.87199,888.52576 763.76599,888.21076 763.53099,887.93276 763.15899,887.21076 763.82899,886.89576 763.98699,886.24876 762.32696,886.41274 760.54854,889.41169 759.19498,890.49036 757.182,892.09452 753.83199,891.42876 751.52699,891.13876 751.91899,889.89276 750.87659,887.96275 749.95159,887.16775 748.29459,885.74475 745.41999,886.68776 743.60699,885.73976 745.71599,882.97676 745.02899,882.19576 742.75799,879.86476 742.27399,879.36776 742.16759,879.01975 741.96859,878.38575 741.75659,877.71175 741.04099,877.41276 740.62899,876.88976 739.67999,875.68776 739.89999,874.17376 738.42299,873.20876 739.89774,872.36326 737.09202,870.6757 736.70499,869.76276" id="path2812"/>
    </g>
  <g class="landxx coastxx ven" id="ve" transform="translate(-29.9017,-45.0745)">
    <title>Venezuela, Bolivarian Republic of</title>
    <path class="landxx ven" d="M 742.105,725.256 C 744.075,722.932 745.061,720.438 745.682,717.508 746.278,714.699 746.93191,712.51846 748.39591,710.06246 749.58891,708.06246 752.29336,706.90228 753.43736,704.80428 754.74136,702.41428 756.96573,703.03164 759.09673,701.71664 758.22873,703.83464 755.95436,703.00709 754.70036,704.51709 753.63236,705.80309 754.77196,708.581 756.144,709.128 754.903,709.066 756.1,711.819 756.22,712.339 756.588,713.938 755.051,715.557 753.986,716.565 752.599,717.877 751.923,719.472 752.782,721.194 753.115,721.86 753.226,722.702 753.865,723.175 754.573,723.699 754.687,723.468 754.566,724.42 754.311,726.421 755.846,726.872 757.454,725.958 759.114,725.014 759.771,723.618 759.985,721.775 760.26,719.411 759.198,718.088 758.011,716.159 757.539,715.393 757.124,714.531 756.844,713.674 756.592,712.902 757.249,711.848 756.648,711.217 757.55,711.323 758.332,709.959 759.024,709.561 760.29,708.832 761.475,707.875 762.95,707.616 764.226,707.391 765.246,707.217 766.366,706.542 766.788,706.288 768.044,705.273 768.597,705.53 768.523,705.128 768.333,704.792 768.027,704.521 768.577,704.745 770.255,706.149 770.827,705.486 771.215,705.036 770.813,703.93 770.313,703.722 769.458,703.367 768.312,704.175 767.447,704.233 767.616,703.241 766.782,697.982 769.722,699.191 771.06,699.741 770.785,702.645 770.992,703.782 771.451,706.305 774.163,704.63 775.959,705.256 777.969,705.957 780.474,706.499 781.353,708.833 781.891,710.262 780.493,713.468 782.873,713.973 785.704,714.574 789.289,713.263 792.094,712.89 794.499,712.57 797,712.057 798.473,714.206 799.083,715.096 799.937,715.823 800.957,716.182 801.788,716.475 802.65,716.669 803.5,716.894 803.41,716.87 806.29,717.482 804.956,717.482 807.22,718.709 808.297,716.055 810.087,715.889 811.175,715.788 811.424,714.655 812.327,714.233 813.572,713.653 814.992,714.761 816.265,714.027 815.169,712.87 812.593,714.109 811.865,712.659 812.494,712.659 813.124,712.659 813.754,712.659 814.64,712.659 814.9,712.113 815.545,712.083 815.863,712.193 816.171,712.325 816.47,712.48 817.352,712.64 818.268,712.531 819.142,712.383 822.876,711.753 826.701,712.457 830.375,711.722 829.801,712.886 827.962,712.667 826.905,713.223 825.247,714.096 823.294,712.71 821.735,714.026 822.237,713.525 822.758,713.592 822.955,714.313 822.339,714.262 821.896,714.649 821.805,715.25 823.17,714.445 824.217,715.263 824.187,716.864 824.163,718.132 822.037,717.283 821.375,717.266 821.852,719.045 824.78,717.793 824.475,716.186 825.264,716.298 825.6,717.203 825.664,717.884 825.749,718.79 826.589,719.81 826.485,720.65 827.046,720.052 827.328,719.223 827.065,718.419 827.789,719.127 827.898,720.495 827.275,721.299 828.04,720.753 827.724,719.682 827.635,718.923 828.027,719.015 828.41,719.135 828.785,719.283 828.711,719.202 826.334,717.934 827.733,718.11 829.061,718.277 830.791,719.671 830.085,721.155 830.401,720.581 830.855,720.632 830.515,720.075 831.05,719.808 831.603,719.761 832.175,719.93 830.956,718.578 832.929,719.797 833.374,720.517 834.191,721.839 835.632,721.297 836.69,722.118 839.515,724.309 836.2,724.319 835.485,726.339 835.713,726.087 835.953,725.847 836.205,725.619 836.404,726.654 835.281,728.449 834.792,729.31 834.49,729.842 834.577,730.298 833.89,730.298 833.282,730.298 831.421,729.754 831.025,730.298 831.908,730.798 833.334,730.946 833.835,731.954 834.406,731.21 835.211,730.682 835.345,731.882 836.172,730.972 836.792,730.542 838.005,730.298 839.138,730.07 839.578,731.276 840.633,730.259 842.456,728.501 845.738,732.865 844.712,733.383 843.691,733.899 843.104,734.644 842.273,735.435 841.496,736.176 840.15,736.532 839.535,737.183 839.094,737.65 838.735,738.293 838.338,738.805 837.534,739.843 838.706,740.498 838.619,741.625 838.564,742.326 838.826,743.105 839.639,742.66 840.611,742.129 841.291,743.408 840.556,744.116 839.747,744.895 838.544,745.17 837.761,745.952 837.386,746.327 836.734,745.783 836.348,745.745 836.004,745.711 835.808,746.383 835.475,746.513 832.445,747.697 835.526,749.575 833.922,751.352 833.514,751.804 831.887,752.827 832.464,753.616 833.445,754.957 834.452,756.314 835.507,757.596 836.758,759.117 839.309,761.525 836.918,763.269 836.11,763.858 835.5384,764.95039 834.7264,765.53539 834.2764,765.86039 832.724,765.48499 832.624,765.65 832.186,766.369 830.877,766.207 830.853,766.953 830.825,767.839 829.259,767.849 828.643,768.144 827.466,768.708 826.019,769.448 824.717,768.797 823.834,768.356 823.019,769.461 822.1,769.641 820.981,769.862 820.962,771.036 821.224,771.954 821.602,773.28 820.495,774.301 819.382,773.292 818.629,772.608 818.257,771.698 817.567,770.975 816.651,770.014 816.063,771.307 815.166,770.981 813.934,770.532 813.474,770.896 812.233,770.763 811.267,770.659 811.483,771.034 811.107,769.846 810.752,768.724 809.306,768.627 808.343,768.819 807.068,769.073 807.105,767.957 806.113,767.523 805.284,768.356 806.816,770.233 807.321,770.849 808.774,772.621 809.973,772.939 810.015,775.465 810.029,776.285 810.056,777.098 810.269,777.896 810.539,778.904 811.599,779.941 811.457,781.002 811.216,782.805 811.21,783.598 813.402,783.653 814.037,783.669 816.39164,783.17891 816.18901,784.3288 815.81401,786.4568 814.71964,786.2871 813.68121,787.01559 812.899,787.56433 811.51939,787.68779 811.20439,788.42279 810.84739,789.25679 810.929,789.862 810.355,790.67 809.843,791.39 809.164,791.959 808.703,792.722 808.7278,790.78012 805.72263,793.76191 805.161,793.872 803.80991,794.13683 802.94,794.912 802.131,796.037 801.589,796.791 800.459,798.759 799.553,799.055 798.957,798.334 799.725,797.428 799.533,796.645 799.209,795.321 797.264,796.606 796.752,796.975 793.82,799.085 791.58542,796.78642 789.67242,794.27342 788.77842,793.09942 788.868,791.729 788.456,790.354 787.984,788.775 786.829,786.58 786.901,784.927 786.957,783.626 783.48719,779.37327 781.91919,780.55227 781.86919,779.09227 784.224,777.538 785.239,776.739 787.01,775.344 785.829,773.86 784.58,772.431 781.821,769.278 782.61946,763.9019 782.62846,760.1159 782.63146,758.7619 783.06701,758.11431 783.89064,757.19554 784.41686,756.60854 784.16335,755.40094 784.583,754.634 785.03998,753.79884 785.77354,753.20332 786.004,752.469 786.41603,751.15611 784.61537,749.8428 783.87528,750.18246 782.09747,750.99837 780.65611,751.18278 779.1119,751.07846 778.40784,751.03086 776.89738,751.78122 775.28527,751.34481 774.14437,751.03596 774.21046,751.48277 772.76936,751.68491 772.50812,751.72161 770.41891,751.0551 770.61791,751.1831 769.82191,750.6741 769.456,749.544 768.954,748.779 768.245,747.697 767.574,746.631 766.926,745.514 766.594,744.941 766.128,744.24381 765.307,744.49181 763.776,744.95481 762.79891,743.47427 761.35291,743.32327 760.42191,743.22527 760.012,743.979 759.163,744.195 757.91,744.515 756.734,743.64 755.481,743.87 754.678,744.016 754.201,743.498 753.363,743.921 752.537,744.338 751.434,743.842 750.97,743.086 750.612,742.503 750.43173,742.07781 750.27073,741.43281 750.04773,740.53781 748.798,740.63 748.35,739.99 747.49,738.761 748.16437,736.153 748.89937,735.14 750.29337,733.219 747.909,731.331 747.283,729.939 746.623,728.472 747.342,725.065 745.195,725.62 745.234,725.1 745.162,724.596 744.979,724.107 744.138,724.842 743.252,725.289 742.105,725.256" id="path3410"/>
    <path d="M 834.118,731.304 C 833.387,731.158 832.639,731.052 831.958,730.728 832.613,730.354 834.078,730.197 834.118,731.304" id="path3412"/>
    <path d="M 834.837,729.432 C 835.271,728.776 835.961,727.949 836.858,728.352 836.561,729.323 835.6,729.15 834.837,729.432" id="path3414"/>
    <path d="M 835.058,731.088 C 834.865,730.872 834.671,730.656 834.478,730.441 834.998,730.413 835.504,730.317 835.998,730.153 835.963,730.717 835.622,731.056 835.058,731.088" id="path3416"/>
    <path d="M 835.708,729.864 C 835.468,729.768 835.228,729.672 834.988,729.576 835.445,729.292 835.925,729.244 836.428,729.431 836.188,729.576 835.948,729.72 835.708,729.864" id="path3418"/>
    <path d="M 836.638,730.08 C 836.518,729.561 836.785,729.465 837.438,729.792 837.171,729.888 836.904,729.984 836.638,730.08" id="path3420"/>
    <path d="M 836.858,727.704 C 836.618,727.704 836.378,727.704 836.138,727.704 836.333,727.172 836.775,726.834 837.358,726.983 837.191,727.224 837.024,727.464 836.858,727.704" id="path3422"/>
    <path d="M 837.217,725.832 C 836.476,725.599 836.55,725.359 837.438,725.112 837.364,725.353 837.291,725.592 837.217,725.832" id="path3424"/>
    <path d="M 837.358,726.192 C 836.636,726.534 836.111,727.154 835.488,727.631 835.745,726.818 836.511,726.244 837.358,726.192" id="path3426"/>
    <path d="M 837.507,725.76 C 837.627,725.429 837.866,725.237 838.227,725.184 837.987,725.376 837.748,725.567 837.507,725.76" id="path3428"/>
    </g>
  <path class="world_map-is_selected landxx sur" d="M 829.77629,728.70955 C 828.95329,728.22055 827.55705,725.1951 827.56805,724.2151 827.58305,722.7801 827.74114,719.2075 827.74313,717.90538 827.74713,715.45966 830.91011,716.13546 832.51665,716.13146 833.27466,716.12946 834.67983,714.0646 833.09629,713.60737 834.72029,711.66037 834.07729,707.37955 837.60629,707.86755 838.71729,708.02155 844.66729,708.53955 844.10629,710.49255 844.88329,708.95855 843.67429,707.89055 846.14729,707.90055 847.06229,707.90455 849.94829,707.78055 850.00629,709.19755 850.48329,708.59455 851.40929,708.93255 852.02629,708.90855 851.87429,708.80355 849.88329,708.06855 850.17829,707.86655 851.49429,706.96555 854.93429,708.35055 856.35529,708.58955 858.84029,709.00655 858.72929,710.74255 857.64629,712.58155 856.46329,714.58755 854.83529,715.72855 854.93029,718.27655 855.01329,720.50455 854.77229,723.15755 855.85329,725.18755 856.71129,726.79955 858.83429,728.15855 857.69029,730.23455 857.29829,730.94555 856.88788,731.74653 856.68788,732.56153 856.49288,733.35753 856.63578,734.46446 856.40625,735.29463 855.84826,737.31318 854.28977,739.56055 853.62467,739.59365 853.05756,739.62185 851.07529,738.17755 850.79729,737.82855 849.83029,736.61155 847.75329,738.08755 846.36229,738.34155 845.24029,738.54655 845.04629,738.79455 844.04129,738.24555 842.98429,737.66855 843.06511,738.13461 842.59529,738.86155 841.55798,740.46655 842.96689,740.38355 843.27829,742.15155 843.67139,744.38342 839.79066,743.14255 838.91966,742.59055 838.28466,742.18855 837.17823,741.62034 836.64611,741.1141 835.9411,740.44337 835.9037,739.91177 835.91284,739.3141 835.93654,737.76198 833.43929,735.73055 833.43729,734.20155 833.43729,733.62455 833.18847,730.63373 832.44547,730.53673 831.91447,730.46773 831.02417,731.02728 830.57929,730.46953 830.13168,729.90838 830.12684,729.09942 829.77629,728.70953" id="sr">
    <title>Suriname</title>
  </path>
  <path class="landxx guy" d="M 802.34629,708.11755 C 803.0754,706.68397 804.29911,705.98683 804.08929,703.77755 803.94714,702.28075 804.62744,701.83158 805.53311,701.33576 805.73739,701.22392 806.25758,700.32479 806.94488,700.78055 807.82025,701.36103 807.76758,700.73385 808.52712,700.20575 809.19522,699.74125 810.49388,699.41051 810.84029,698.76455 811.14239,698.20121 810.66848,697.34934 809.94448,697.60834 808.13848,698.25334 809.09929,696.41355 808.33729,695.41655 807.64529,694.50955 808.51109,693.46676 809.09109,692.75176 809.82009,691.85176 809.6707,691.90238 810.7147,691.36938 812.1157,690.65338 812.88081,689.23227 814.15529,688.61555 815.88754,687.77731 814.5016,687.14404 813.7151,685.72455 814.8911,687.09955 816.61129,688.00755 817.96629,689.18055 817.31129,688.17655 815.95729,687.93855 815.44629,686.80455 817.11129,687.55755 818.85329,688.65055 820.08529,690.01555 821.07829,691.11655 822.33829,693.25055 823.57029,693.96855 824.94329,694.76855 825.29929,697.34455 824.81329,698.69855 824.44929,699.71355 823.92329,700.40755 823.79529,701.52355 823.68429,702.48855 823.66029,703.54055 823.08729,704.37355 824.99129,704.02455 823.55329,699.36755 826.48829,700.40955 828.69129,701.19155 831.39829,702.76355 831.93629,705.30855 833.37129,704.01655 834.38729,706.68455 834.58829,707.71155 834.93929,709.49955 834.25629,712.19655 833.09629,713.58855 835.02429,714.13455 833.36959,715.51264 832.93084,716.03728 832.50904,716.54165 827.47345,714.95653 827.75912,718.26655 827.93271,720.27788 827.90826,721.58855 827.59626,723.56255 827.38626,724.89055 828.57929,727.52255 829.55029,728.42155 830.54229,729.33955 829.87929,730.44255 831.36529,730.65255 831.67629,730.69655 832.48329,730.31155 832.67329,730.60855 833.28529,731.56755 833.36429,732.75755 833.53329,733.84855 833.84729,735.88455 835.96529,737.54355 835.96529,739.54555 835.96529,741.57955 838.26629,741.51755 838.99529,742.74955 836.53229,744.32655 834.13929,741.14955 831.78129,743.08755 831.38629,743.41155 831.15129,743.85155 830.79829,744.21055 830.14929,744.87155 829.32829,744.58555 828.54229,744.85855 827.10029,745.35955 827.03629,746.07655 825.33629,746.09855 824.80829,746.10555 824.50629,746.51655 824.16429,746.85355 823.90329,746.89755 823.66329,746.99355 823.44429,747.14155 823.50829,747.44055 823.54729,747.74255 823.56129,748.04855 823.18729,748.79755 821.10329,749.13055 820.34429,748.87055 819.81629,748.68955 820.15729,748.07855 819.40729,748.07255 818.81029,748.06755 817.61429,747.62255 817.38829,747.00955 817.02529,746.01855 815.60629,744.48155 814.51329,744.33455 814.61129,744.09555 814.70829,743.85555 814.80329,743.61455 813.79229,743.67955 813.90929,742.77255 814.03229,742.08155 814.24529,740.87955 813.93129,740.41655 813.20629,739.54155 812.00429,738.09155 812.06029,735.32755 812.43329,733.60855 812.72029,732.28355 813.70229,731.06755 813.70829,729.66855 813.71329,728.45755 814.05029,728.54755 814.75029,727.52555 815.18929,726.88555 816.12529,725.76155 815.71229,724.99855 815.38029,724.38755 814.51229,723.53455 814.51229,722.80555 814.51229,722.10355 814.88229,721.43255 814.07329,721.08055 813.51329,720.83755 812.08929,720.81555 811.74629,720.23855 811.42329,719.69655 812.55129,718.06655 812.66229,717.43655 812.84729,716.38655 812.70929,715.17255 811.87429,714.41855 810.62729,713.29355 808.5805,715.06455 807.0695,714.31755 805.2725,713.43055 803.16129,709.87955 802.34629,708.11755" id="gy">
    <title>Guyana</title>
  </path>
  </svg>