<svg xmlns="http://www.w3.org/2000/svg" class="world_map zoom5 zoom4 zoom3 zoom2" height="127" id="svg2985" version="1.1" viewBox="1350 342 60 37" width="127">
  <title>World Map</title>
  <defs id="defs2987"/>
  <style id="style_css_sheet" type="text/css">
/*
 * Below are Cascading Style Sheet (CSS) definitions in use in this file,
 * which allow easily changing how countries are displayed.
 *
 */
/* --- Custom styles for Peace Corps --- */
.world_map .world_map-is_selected.circlexx {
  opacity:1;
}
.world_map .world_map-is_selected.landxx {
  fill: #C94112 !important;
}
.world_map .landxx {
  fill: #F2EFE8;
  stroke: #ffffff;
  fill-rule: evenodd;
}
.world_map.zoom6 .landxx {
  stroke-width: 0.1px;
}
.world_map.zoom5 .landxx {
  stroke-width: 1px;
}
.world_map.zoom4 .landxx {
  stroke-width: 2px;
}
.world_map.zoom3 .landxx {
  stroke-width: 3px;
}
.world_map.zoom2 .landxx {
  stroke-width: 4px;
}
.world_map.zoom1 .landxx {
  stroke-width: 5px;
}
.world_map .coastxx {
  fill: #F2EFE8;
  stroke: #ffffff;
  stroke-width: 2px;
  fill-rule: evenodd;
}
.world_map .oceanxx {
  opacity: 1;
  color: #ccc;
  fill: #ffffff;
  stroke: #ffffff;
  stroke-width: 0.5;
  stroke-miterlimit: 1;
}

/* --- Original Styles --- *
/*
 * Circles around small countries
 *
 * Change opacity to 1 to display all circles.
 *
 */
.circlexx
{
   opacity:0;
   fill-opacity:0;
   fill:#e0e0e0;
   stroke:#000000;
   stroke-width:0.5;
}

/*
 * Smaller circles around French DOMs and Chinese SARs
 *
 * Change opacity to 1 to display all subnational circles.
 *
 */
.subxx
{
   opacity:0;
   stroke-width:0.3;
}

/*
 * Circles around small, unrecognized countries
 *
 * Change opacity to 1 to display all circles.
 *
 */
.unxx
{
   opacity:0;
   fill:#e0e0e0;
   stroke:#000000;
   stroke-width:0.3;
}

/*
 * Circles around small countries, but with no permanent residents 
 *
 * Change opacity to 1 to display all circles.
 *
 */
.noxx
{
   opacity:0;
   fill:#e0e0e0;
   stroke:#000000;
   stroke-width:0.5;
}

/*
 * land
 */
.landxx
{
}
/*
 * Styles for coastlines of islands with no borders
 */


/*
 * Styles for nations with limited recognition
 */
.limitxx
{
   fill: #e0e0e0;
   stroke:#ffffff;
   stroke-width:0;
   fill-rule:evenodd;
}

/*
 * Styles for nations with no permanent population.
 */
.antxx
{
   fill: #e0e0e0;
   stroke:#ffffff;
   stroke-width:0;
   fill-rule:evenodd;
}

/*
 * Ocean
 */


/*
 * Additional style rules
 *
 * The following are examples of colouring countries.  You can substitute these with your own styles to colour the countries on the map.
 *
 * Color a few countries:
 *
 * .gb, .au, .nc
 * {
 *    fill:       #ff0000;
 * }
 *
 * Color a few small country circles (and the countries):
 *
 * .ms, .ky
 * {
 *    opacity:    1;
 *    fill:       #ff0000;
 * }
 *
 */

</style>
  <path class="oceanxx" d="M 2079.5058,1457.5605 615.24779,1457.5605 C 615.13079,1457.5605 615.07079,1457.5505 614.95179,1457.5215 611.67679,1456.6515 608.40179,1455.7815 605.12779,1454.9105 599.15079,1453.3225 593.22879,1451.5225 587.30779,1449.7385 564.39379,1442.8315 541.76579,1434.6995 519.46979,1426.0115 495.81079,1416.7935 472.34979,1407.0946 449.19179,1396.6816 426.78379,1386.6056 405.17679,1375.0536 383.76379,1363.0356 363.11779,1351.4496 343.01079,1338.8296 323.37979,1325.5996 302.29179,1311.3876 281.47879,1296.8506 261.05379,1281.7006 242.35079,1267.8276 223.73679,1253.6306 206.05279,1238.4686 186.98679,1222.1216 167.82379,1205.7706 150.35279,1187.6906 132.97779,1169.7106 116.33279,1151.0606 100.15679,1131.9976 84.352777,1113.3736 70.086776,1093.4716 56.901786,1072.9246 44.046786,1052.8916 32.093776,1032.1356 22.469776,1010.3426 17.516776,999.12753 12.408776,987.76556 8.7017761,976.06056 5.0657761,964.58166 1.5997761,953.04259 -1.5932239,941.43054 -8.0102239,918.09356 -14.055224,894.78356 -18.234224,870.92056 -22.491222,846.60856 -24.894222,822.19856 -26.943222,797.62156 -28.947222,773.58556 -28.829222,749.40156 -27.225222,725.34856 -25.648222,701.69856 -23.363222,677.92456 -19.274222,654.56456 -15.018224,630.25156 -9.3842239,606.45156 -2.8412239,582.66156 3.5687761,559.35256 10.483776,536.34856 20.265776,514.19856 30.320776,491.42956 42.318786,469.90956 55.502786,448.81656 68.512776,428.00356 83.108777,408.26756 98.686787,389.31756 113.73479,371.01156 129.68979,353.25256 146.15179,336.20856 163.77479,317.96256 182.64579,301.14556 201.89579,284.64756 220.33379,268.84456 239.55379,253.98456 258.95979,239.39656 278.42779,224.76056 298.39379,210.83356 318.55579,197.17556 339.26979,183.14456 360.47879,169.92056 382.15079,157.42556 403.46579,145.13656 425.31479,133.98856 447.60479,123.59356 469.58579,113.34356 492.14979,104.17656 514.74579,95.37556 537.44879,86.532565 560.37879,78.195565 583.63479,70.914565 589.69379,69.017565 595.80079,67.276565 601.90879,65.549565 604.63079,64.779565 607.36079,64.045565 610.09479,63.318565 611.59979,62.918565 613.56579,61.986565 615.13379,61.986565 L 2079.9638,61.986565 C 2079.9798,61.986565 2079.9958,61.986565 2080.0118,61.986565 2079.8448,61.986565 2079.6788,61.986565 2079.5118,61.986565 2102.8268,68.191565 2125.8778,75.323565 2148.5448,83.611565 2171.6378,92.054565 2194.6158,100.87956 2217.2348,110.52956 2240.5208,120.46556 2263.4848,130.95256 2285.8828,142.76456 2306.9808,153.89056 2327.8178,165.78556 2347.8608,178.72156 2368.9418,192.32656 2389.7498,206.29256 2410.2218,220.80056 2429.7368,234.62956 2448.9938,248.98756 2467.6208,263.99256 2486.8818,279.50856 2506.0408,295.30556 2524.0538,312.27356 2541.8708,329.05756 2558.7508,346.67256 2574.9408,365.03656 2591.2478,383.53256 2607.1478,402.30656 2621.4508,422.41856 2635.3488,441.96256 2648.4468,462.42756 2659.5898,483.67756 2671.1238,505.67356 2681.1048,528.35656 2688.6188,552.05056 2692.2518,563.50656 2695.3368,575.14756 2698.5608,586.72256 2701.7738,598.25356 2704.9238,609.81956 2707.4578,621.52456 2712.6258,645.40556 2716.6718,669.47856 2719.1178,693.79656 2721.5718,718.19256 2723.1798,742.56356 2722.9808,767.09056 2722.7908,790.65456 2720.6908,814.43756 2717.7688,837.81156 2714.7368,862.07056 2710.5198,886.16156 2704.6398,909.90056 2701.6808,921.84356 2698.3948,933.69556 2695.0378,945.53154 2691.7468,957.13466 2688.5558,968.83466 2684.3988,980.16156 2676.0918,1002.8036 2666.1688,1024.8836 2654.1338,1045.8046 2641.9958,1066.9066 2628.8498,1087.4866 2614.2378,1106.9696 2599.1658,1127.0666 2582.6678,1145.9446 2565.8948,1164.6296 2549.8298,1182.5266 2532.8918,1199.7316 2514.8648,1215.6616 2496.0788,1232.2646 2476.8978,1248.3126 2457.1558,1263.7656 2438.2988,1278.5276 2418.9668,1292.7306 2399.3188,1306.4206 2378.7018,1320.7866 2357.7538,1334.6106 2336.4758,1347.9776 2326.4088,1354.3016 2316.0058,1360.1326 2305.6418,1365.9516 2295.0348,1371.9086 2284.3858,1378.0166 2273.4448,1383.3436 2250.7338,1394.3986 2227.7768,1404.7266 2204.3888,1414.2665 2181.7848,1423.4875 2159.0678,1432.2695 2136.0228,1440.3345 2117.4118,1446.8465 2098.5568,1452.4975 2079.5058,1457.5605" id="ocean"/>
  <g id="rs">
    <title>Serbia</title>
    <path class="landxx rs- srb" d="M 1412.8746,360.84017 C 1411.7114,360.34722 1410.6808,362.11391 1410.2792,362.27648 1409.5738,362.56202 1408.3524,362.35008 1406.9026,362.83083 1407.3106,363.83883 1407.612,364.42267 1407.8349,365.47666 1407.975,366.14167 1408.1821,366.33361 1408.8681,366.3586 1406.8981,367.72762 1410.5743,368.56683 1411.1863,369.18082 1411.0963,369.09082 1409.1947,369.60897 1408.9437,369.70998 1409.5489,370.91265 1408.9057,371.52858 1408.7256,371.87704 1409.6349,371.52323 1410.4457,371.288 1410.6571,371.75105 1411.153,372.837 1411.2614,372.75365 1409.5988,375.27882 1409.0517,376.10984 1410.8168,377.34756 1412.3202,378.40341 1413.9493,379.91587 1411.1638,379.19038 1410.7327,379.53734 1410.4742,379.60204 1413.0235,382.41022 1412.488,382.66579 1411.08,383.33777 1409.6068,383.46907 1408.5708,383.49462 1409.0653,383.41872 1410.3249,384.94891 1412.2029,386.45217 1412.8002,386.93028 1412.9355,387.43002 1414.2833,387.88581 1415.3514,388.52213 1417.2831,387.91561 1417.6016,389.16445 1417.7384,389.25245 1416.1222,390.05601 1416.2218,390.09641 1416.3622,390.15331 1417.1972,391.52616 1416.903,391.67409 1418.8262,392.29515 1416.5214,393.47922 1419.8975,394.12153 1420.9174,394.31558 1420.887,398.86636 1420.9969,397.76398 1422.455,396.53254 1422.3439,394.30358 1425.7272,395.52482 1425.7632,394.43702 1426.8991,394.61812 1427.5034,394.1941 1428.1896,394.89444 1428.9481,393.47633 1430.0095,393.79959 1430.6713,394.00115 1435.14,393.51762 1434.016,391.85932 1433.3687,390.90438 1433.2064,389.78213 1433.764,389.18829 1434.3018,388.61551 1434.9767,389.24329 1435.5783,388.48275 1436.1688,387.73631 1436.6426,387.00309 1436.9642,386.24009 1435.9732,385.9261 1434.6994,384.63285 1433.9404,383.92185 1431.4994,381.63385 1432.7176,379.78626 1434.0916,377.49627 1433.7786,377.20927 1432.0779,375.48204 1432.7309,375.05203 1433.2779,374.69305 1433.9882,374.91986 1434.5452,374.64886 1433.9962,373.97685 1432.561,373.07171 1431.723,373.74172 1431.458,373.95472 1430.6877,375.26662 1430.4126,375.25362 1430.0366,375.23562 1429.3207,374.21708 1428.9007,374.0441 1427.9207,373.64009 1426.8219,373.32158 1425.8769,372.83458 1425.1763,372.47379 1425.6049,372.60119 1424.8869,372.34367 1425.7936,371.85719 1426.1702,371.07387 1424.9189,370.91951 1426.3219,369.60052 1425.184,369.32759 1424.001,368.89058 1422.786,368.44257 1421.2352,367.3468 1420.1822,366.63579 1421.4971,364.02678 1418.6876,364.01121 1418.3174,362.20088 1417.9869,360.5842 1414.5874,360.55592 1412.8746,360.84017 z" id="rs-"/>
    </g>
  <path class="landxx che" d="M 1319.5263,361.14955 C 1319.7503,360.71455 1319.9933,360.29255 1320.2553,359.88055 1320.5913,359.23355 1320.0754,358.71442 1320.3063,358.10637 1320.6512,357.19711 1322.2119,356.48975 1322.2653,356.20037 1322.4809,355.03381 1323.0602,354.2935 1324.7189,353.3465 1325.6145,352.83511 1326.1857,351.77382 1327.051,350.92655 1325.4385,351.12047 1326.4126,348.59372 1327.7386,349.79255 1329.1655,351.08269 1329.8046,348.96155 1331.1856,348.76655 1330.4656,349.60755 1334.1076,348.96155 1334.7766,348.99655 1336.0756,349.06355 1337.1031,349.10637 1337.3841,348.28037 1336.3901,348.65137 1336.1896,347.72466 1337.0909,347.41473 1337.4567,347.28894 1337.826,347.42473 1338.3911,347.64664 1339.336,348.0181 1340.5408,348.04137 1340.7322,348.11328 1341.8453,348.53126 1343.2346,348.68755 1344.1376,349.47955 1345.3256,350.52055 1343.5606,352.21655 1343.3556,353.37455 1345.6526,353.08555 1345.8406,354.74855 1347.7156,355.11255 1348.5256,355.26955 1348.8466,353.73855 1349.7316,353.98955 1350.7666,354.28255 1349.8816,355.44355 1349.7926,355.97655 1349.7236,356.39055 1350.6326,357.68455 1349.7076,357.70955 1349.0436,357.72755 1348.5256,356.53455 1347.8966,357.09055 1347.6696,357.29055 1346.8906,358.46655 1347.4336,358.71655 1348.3946,359.15755 1347.8256,359.49255 1347.6756,360.42955 1346.7386,360.05355 1346.6996,359.04155 1345.5156,359.27755 1344.3596,359.50755 1344.2326,359.75255 1343.2856,358.84555 1343.1926,358.75655 1342.1626,357.00355 1342.0246,358.43655 1341.8976,359.75055 1341.9226,360.07055 1340.9716,361.06355 1339.7606,362.32955 1340.8496,365.29755 1338.9136,362.46355 1338.4816,361.83255 1337.9716,361.52355 1337.3756,361.07755 1336.4646,360.39755 1336.8276,359.10555 1335.9356,358.48455 1335.4246,359.12655 1334.8216,359.77555 1333.9956,359.99755 1334.8986,361.04455 1332.9196,362.88655 1331.8056,362.78355 1329.7056,362.58955 1327.9706,363.91955 1326.3666,362.22955 1325.8016,361.63355 1325.0166,361.00755 1325.2116,360.06955 1325.4846,358.75855 1324.4485,358.44362 1323.3275,358.55719 1321.447,358.74772 1321.7671,361.09335 1319.5266,361.14955" id="ch">
    <title>Switzerland</title>
  </path>
  <g class="landxx coastxx eu ita" id="it" transform="translate(-29.9017,-45.0745)">
    <title>Italy</title>
    <path class="landxx eu ita" d="M 1353.5711,414.65164 C 1354.5811,413.57664 1357.2431,414.48464 1357.1191,412.24764 1357.0691,411.34564 1356.411,410.95 1355.838,410.332 1355.527,410.013 1355.1701,409.64432 1354.9011,409.28932 1355.7468,408.80713 1356.603,407.74092 1356.0773,407.16239 1356.9793,407.40239 1357.971,408.279 1358.939,407.942 1360.155,407.518 1360.7132,407.72227 1361.8742,407.80927 1362.6372,407.86627 1363.5707,406.94036 1363.9157,406.34836 1364.1957,405.89436 1364.237,405.492 1363.8967,405.072 1364.7227,404.85 1365.3257,404.201 1365.8367,403.559 1366.7325,404.11066 1366.3768,404.83194 1366.8662,405.61418 1367.3328,406.35991 1368.0418,406.55999 1368.6823,407.17827 1368.9304,407.41769 1368.9869,408.13197 1369.9251,408.70955 1370.2274,408.89569 1370.1019,406.85659 1370.7661,406.23418 1371.5218,405.52595 1371.7656,405.06534 1371.8636,403.91627 1372.0307,401.95811 1372.6773,403.34771 1373.1144,403.81209 1373.8453,404.58865 1374.1084,404.70505 1375.0379,404.38736 1376.5408,403.87369 1376.5351,404.97701 1377.5757,405.503 1377.6817,404.844 1378.1897,404.178 1377.3507,403.796 1376.5997,403.454 1377.5957,402.10809 1378.0757,402.01209 1378.5507,401.91709 1379.0739,402.61727 1379.5149,402.73827 1380.4859,403.00527 1379.5849,401.41782 1379.6818,401.09736 1379.8706,400.47606 1379.9569,400.27088 1380.0607,399.98291 1380.6907,400.04571 1382.2715,400.52909 1382.6345,400.71509 1383.5875,401.20409 1384.2377,399.946 1384.7957,399.444 1385.5407,398.775 1386.7127,398.965 1387.6167,399.018 1389.0827,399.105 1390.4877,398.006 1391.9067,398.302 1390.3347,399.245 1393.5278,401.70153 1394.4128,401.98253 1397.0748,402.82653 1398.9418,401.97353 1401.5998,402.74652 1401.4888,403.75352 1400.4049,404.4439 1399.8967,405.071 1400.4927,405.408 1401.0887,405.784 1401.7667,405.935 1401.1907,406.611 1400.309,407.586 1401.5567,407.951 1400.8169,408.91389 1402.0236,409.27455 1402.4222,409.35427 1403.3675,409.5433 1403.6365,411.11004 1402.1967,410.831 1403.2037,408.754 1400.4827,409.92 1399.9667,410.111 1399.7487,408.678 1398.0087,409.983 1397.5027,410.301 1396.9477,410.65 1396.3677,410.973 1395.7827,411.267 1395.3947,411.462 1392.1017,412.526 1394.1367,411.477 1393.5907,411.59 1392.8617,411.516 1392.4067,411.91 1392.0847,412.189 1392.2367,413.34 1391.6167,413.206 1391.6067,413.539 1392.8387,415.25 1392.9577,415.283 1394.7847,415.785 1393.6287,418.438 1392.5567,417.238 1390.4697,420.924 1395.1547,424.426 1397.6797,426.037 1398.9157,426.826 1400.9167,427.381 1401.7837,428.618 1403.0477,430.419 1403.7157,432.788 1404.4567,434.843 1405.4077,437.481 1408.8737,440.18 1411.3417,441.314 1413.1687,442.154 1414.1417,442.413 1416.1737,442.141 1416.9327,442.04 1420.2827,441.547 1419.8677,443.286 1419.6697,444.116 1417.2957,444.888 1418.1647,445.903 1419.1027,446.998 1421.5867,447.621 1422.8597,448.075 1424.8897,448.8 1426.7157,449.517 1428.4147,450.871 1430.1477,452.252 1432.2757,452.662 1433.9667,454.187 1435.1037,455.212 1436.6187,456.286 1436.3347,457.994 1436.2697,458.382 1436.1887,460.128 1435.6057,460.186 1434.8117,460.265 1433.8297,459.793 1433.4087,459.103 1432.4897,457.597 1432.5507,455.853 1430.2757,456.082 1428.4487,456.266 1428.0807,455.073 1427.8257,454.39 1425.8977,454.715 1425.4747,454.696 1424.2597,456.488 1423.5077,457.599 1422.9607,458.993 1422.6857,460.308 1422.3707,461.815 1424.2917,462.182 1425.3317,462.66 1427.0017,463.427 1427.3037,464.62 1427.4677,466.308 1427.7437,469.158 1422.8137,467.109 1423.2757,470.55 1423.5017,472.233 1423.0467,472.365 1421.9727,473.508 1421.0647,474.476 1420.3607,475.67 1419.2767,476.464 1418.2577,477.211 1417.3967,476.791 1416.8857,475.702 1416.1087,474.044 1418.5157,473.275 1418.6377,471.767 1418.6787,471.255 1418.4297,470.638 1418.7837,470.181 1419.3737,469.417 1420.5317,469.988 1420.8467,469.005 1421.1207,468.149 1420.0447,467.178 1419.8337,466.396 1419.5057,465.181 1419.4007,464.113 1418.7447,463.003 1417.9587,461.673 1417.8417,459.68 1416.7967,458.556 1416.1737,457.887 1415.7397,458.046 1415.1507,458.535 1414.4477,459.12 1413.7247,457.932 1413.2637,457.562 1412.7417,457.144 1411.8927,457.254 1411.7317,456.413 1411.5997,455.72 1412.0537,455.513 1411.6857,454.661 1410.8907,452.822 1408.8217,452.779 1407.3077,453.741 1408.0847,452.562 1407.8377,451.456 1406.2377,451.617 1405.0457,451.736 1404.3717,449.977 1403.9407,449.155 1403.1757,447.694 1402.2697,448.544 1401.0207,448.176 1400.3537,447.98 1399.7317,447.666 1399.0147,447.837 1397.5127,448.194 1398.4757,447.996 1397.4407,447.151 1396.4137,446.314 1395.1157,446.084 1394.0957,445.16 1392.9627,444.135 1392.2967,442.619 1391.0567,441.754 1389.9807,441.002 1389.5627,441.193 1388.8447,440.019 1388.0957,438.793 1386.1737,437.353 1384.7087,438.261 1385.5487,436.854 1382.1217,433.222 1380.8537,433.402 1381.0037,433.381 1378.9787,427.645 1378.9017,427.272 1378.2067,423.895 1375.9067,424.272 1373.4787,422.637 1370.9667,420.946 1367.7737,420.027 1365.6657,422.756 1364.9167,423.725 1364.2957,424.843 1363.1797,425.445 1362.7847,425.659 1359.1704,426.80528 1359.4169,425.87946 1359.5979,425.19963 1362.2977,422.20476 1359.0847,423.34181 1357.1633,424.02178 1353.5423,420.98964 1355.9242,419.02164 1356.7789,418.31541 1356.6248,417.73137 1355.6122,417.22064 1353.9418,416.37814 1353.4556,415.09597 1353.6777,415.008" id="path2906"/>
    </g>
  <path class="landxx eu aut" d="M 1343.7863,351.57455 C 1344.4933,350.33655 1344.3483,350.68655 1344.0043,349.56855 1343.8853,349.18355 1349.4013,349.34655 1348.1063,351.57455 1349.6693,351.52855 1349.7113,350.06355 1350.0563,348.90855 1350.7213,349.50355 1352.2958,349.5101 1353.1298,349.4311 1352.4443,349.78018 1354.3232,350.37525 1354.5582,350.29764 1355.0477,350.53082 1355.7755,349.86042 1356.4563,349.62955 1357.8213,348.80555 1360.092,348.2051 1361.645,348.7121 1361.625,348.4431 1361.596,348.16128 1361.5228,347.90228 1362.2978,347.99828 1363.5506,348.64207 1364.3177,348.27764 1365.9214,347.51573 1365.738,349.29636 1366.7233,349.66891 1367.5316,349.97455 1367.8591,348.01904 1367.1633,347.92355 1366.2664,347.80045 1366.8132,346.77228 1366.7088,346.30928 1366.5681,345.68562 1366.0143,345.50655 1365.7573,344.95155 1365.1013,343.53355 1368.7543,343.04655 1369.4843,342.55255 1370.1163,342.12555 1369.6278,340.27228 1370.8028,340.71728 1372.3858,341.31728 1371.4659,339.67529 1371.8389,338.24329 1372.967,338.54121 1374.2928,340.33835 1375.5729,340.5051 1377.9087,339.91902 1378.1152,340.4786 1378.3473,340.5585 1378.3473,339.8625 1378.7384,339.18085 1379.4283,338.9575 1380.3272,338.6665 1380.2198,338.0375 1380.2873,336.8865 1381.7729,336.75613 1383.5635,337.4476 1384.9638,337.91286 1385.4399,337.66427 1387.721,339.4476 1389.4172,339.0435 1390.7459,338.72695 1393.3209,338.58892 1393.5197,340.16286 1393.5437,340.35459 1393.5507,341.10708 1393.7158,341.78211 1393.8971,342.52405 1393.7558,343.58697 1394.1441,344.13197 1394.6754,344.87742 1395.4171,345.00971 1395.3493,345.48728 1395.2813,345.96485 1394.4179,346.77775 1394.0603,347.71422 1393.3883,349.47422 1392.5628,347.23343 1390.9281,347.88959 1390.2162,348.17537 1393.5191,348.86124 1391.5602,349.85659 1390.0243,350.63705 1390.4283,352.6985 1390.8753,353.8775 1389.7749,353.64366 1386.9575,355.30293 1387.8553,356.7575 1386.2883,355.7665 1385.5563,356.9015 1384.0743,357.0365 1383.0073,357.1355 1382.2622,356.62838 1381.2598,356.83214 1380.4962,356.98738 1378.8494,358.58028 1378.2464,358.89428 1377.1164,359.48328 1374.2059,358.14091 1373.0803,357.97809 1370.1622,357.55597 1367.6085,357.91449 1364.6185,356.97846 1363.7095,356.69346 1360.2683,354.2715 1362.0063,353.2285 1361.0133,353.0215 1360.2053,353.7425 1359.2663,353.8765 1357.8923,354.0735 1356.7243,353.8895 1355.3473,354.2785 1354.5233,354.5105 1353.8673,355.9945 1353.0153,355.7465 1352.1553,355.4955 1351.3743,355.2995 1350.5073,355.0845 1349.7923,354.9065 1350.1736,354.07605 1349.7106,354.00005 1349.1526,353.90805 1348.7829,354.43548 1348.4539,354.84341 1347.8514,355.59048 1346.1183,354.5293 1345.6332,354.00904 1345.1074,353.44518 1344.3341,353.36114 1344.0381,353.35568 1344.3271,352.69668 1344.1603,352.0985 1343.7863,351.5745" id="at">
    <title>Austria</title>
  </path>
  <g class="landxx coastxx eu deu" id="de" transform="translate(-29.9017,-45.0745)">
    <title>Germany</title>
    <path class="landxx eu deu" d="M 1366.5765,332.3355 C 1365.9045,332.6125 1365.8348,333.57077 1365.9718,334.14978 1365.9718,333.75778 1366.3315,333.41727 1366.7781,333.24264 1366.4563,333.13649 1366.2923,332.82357 1366.5765,332.3355 z M 1367.4837,333.14185 C 1367.2681,333.14085 1367.0772,333.17705 1366.8789,333.24264 1367.2555,333.33454 1367.7879,333.27464 1368.0884,333.24264 1367.8913,333.15954 1367.6992,333.14324 1367.4837,333.14185 z M 1369.2312,333.03494 C 1368.6027,332.97024 1368.8234,333.17943 1368.1892,333.24264 1368.6052,333.45464 1369.06,334.75471 1369.298,335.15771 1369.509,335.51271 1370.4901,336.20362 1370.2051,336.66961 1369.7361,337.43661 1368.4208,337.01193 1367.8869,337.97993 1368.5929,338.27793 1369.2895,338.14693 1370.0035,337.97993 1368.4035,338.71593 1370.1297,339.22058 1370.4067,340.09659 1369.7297,340.06259 1369.4785,340.48872 1370.0035,341.00373 1370.5765,341.56473 1371.4132,341.39149 1372.1202,341.60849 1372.8712,341.83949 1373.2528,342.43959 1373.7329,343.01959 1374.3089,343.71459 1375.0797,343.79791 1375.7487,344.32991 1374.0127,344.14091 1373.552,342.69587 1372.221,341.91087 1371.348,341.39687 1370.3348,342.00387 1369.3988,341.91087 1368.3088,341.80287 1367.2505,341.4498 1367.0805,342.9188 1367.0125,343.5048 1367.4947,343.9665 1367.4837,344.53149 1367.3247,344.95249 1367.2623,345.3988 1367.1813,345.84181 1367.1113,345.11381 1367.2888,344.41653 1366.4757,344.02753 1365.5217,343.57153 1365.1782,344.47426 1365.7702,345.13625 1365.2442,345.26925 1364.7931,345.15885 1364.3591,344.83387 1366.7281,343.23387 1360.3128,342.98239 1359.6218,343.12039 1358.8278,343.27839 1357.4902,344.54764 1357.5051,345.43863 1357.5181,346.17764 1360.2801,346.56941 1359.8234,346.34577 1358.7044,345.79777 1357.9386,350.03046 1357.7067,350.98227 1357.4077,352.20932 1356.373,351.29697 1355.4893,351.88941 1354.1137,352.81162 1356.6798,353.24357 1357.0246,353.81671 1358.0119,355.45789 1354.592,355.94809 1355.6553,357.17241 1356.6936,358.36803 1352.0498,358.08896 1351.4158,357.76495 1351.8348,358.91794 1351.069,357.90997 1350.248,358.44098 1350.33,358.70825 1350.0408,358.7749 1350.248,359.14653 1351.167,359.46253 1352.2863,361.62283 1351.7833,362.59184 1351.3323,363.45984 1349.5692,364.73247 1350.4196,365.9175 1350.8753,366.55258 1350.5196,367.43276 1350.6095,367.6661 1350.8839,368.37676 1352.5419,368.41245 1351.7599,369.42745 1352.7489,369.26044 1352.6606,370.39852 1352.9516,371.0045 1349.9792,370.9765 1349.478,373.32542 1352.3162,374.7094 1354.3119,375.68254 1352.3171,377.56012 1353.0413,378.41186 1353.1517,378.54172 1355.0752,380.91604 1355.5565,380.83702 1356.2536,380.72255 1355.7018,380.29811 1356.7166,380.43174 1357.2579,380.50304 1356.7166,381.39185 1357.6415,381.15512 1357.985,381.06702 1358.4747,381.16412 1358.8277,381.12562 1360.1107,380.68162 1360.2424,381.37619 1361.4244,381.7482 1362.4904,382.08319 1363.8203,382.22699 1364.9282,382.412 1364.0272,383.20699 1363.176,383.99265 1362.444,384.94966 1361.605,386.04564 1361.3173,387.71434 1360.7595,388.92846 1360.3865,389.74045 1358.9898,395.60017 1361.0802,393.83729 1360.3582,394.67628 1363.9945,394.08685 1364.6615,394.12185 1365.9605,394.18985 1367.1029,394.14155 1367.3829,393.3155 1365.8239,393.89649 1366.3462,391.79773 1368.1892,392.71074 1369.4892,393.35576 1372.6354,393.75049 1373.9604,394.52049 1374.7734,394.99249 1379.0952,394.70071 1377.9662,396.64168 1379.5302,396.59568 1379.6371,395.17603 1379.9821,394.02106 1380.6471,394.61604 1382.1718,394.60401 1383.0059,394.52502 1382.2819,394.88301 1384.1508,395.42316 1384.5178,395.43216 1385.3787,395.45216 1385.9242,394.70681 1386.7352,394.62582 1388.3062,394.4678 1389.8313,393.25148 1391.5733,393.81947 1391.5533,393.55047 1391.5453,393.27212 1391.4725,393.01312 1392.2815,393.11312 1393.0685,393.51709 1393.8915,393.51709 1394.2905,393.38107 1394.6871,393.2947 1395.1011,393.21471 1395.5501,393.26571 1395.737,394.13923 1396.109,394.42423 1397.231,395.28521 1397.2201,394.84846 1397.5201,393.81947 1397.8191,392.79347 1396.5419,393.18858 1396.613,392.30757 1396.7,391.23258 1396.7384,391.27851 1395.9074,390.3925 1395.2814,389.72449 1395.7054,389.20562 1396.4114,388.8806 1397.2184,388.50961 1399.8383,388.06173 1399.8383,386.86473 1399.8383,384.75774 1401.2828,386.59122 1402.0558,385.65521 1403.4608,383.9552 1401.0142,382.77142 1399.9391,382.12744 1398.6831,381.37444 1397.6155,380.33161 1396.3106,379.60761 1394.6716,378.6966 1394.3428,376.62448 1392.7828,375.77746 1394.0128,374.79946 1393.4398,373.99543 1392.2788,373.35842 1391.3806,372.86487 1391.1803,371.97292 1390.7669,371.24176 1391.4203,371.14636 1391.9268,371.40661 1392.178,372.35049 1392.431,369.69548 1395.8437,370.72905 1397.2177,369.62907 1399.4107,367.87307 1403.0744,366.90372 1405.6844,365.89971 1405.4504,365.67771 1405.2248,365.50495 1404.9788,365.29495 1405.9788,365.05895 1406.2212,364.77183 1407.0838,365.90583 1409.2044,368.63969 1410.5465,363.57785 1409.4967,362.26557 1409.3647,361.44957 1408.0639,361.40925 1407.9909,360.75925 1407.8909,359.87625 1407.9589,359.57319 1407.2971,358.84418 1406.853,358.35618 1407.5187,357.9635 1407.7002,357.49876 1408.7413,354.83351 1406.077,354.11832 1406.7753,353.31837 1408.1753,351.71448 1404.3134,351.15562 1403.781,349.64805 1404.4923,349.08975 1406.739,345.64153 1405.2812,345.43866 1404.9842,344.32966 1404.6499,343.15525 1403.4669,342.71724 1402.7389,342.44824 1401.5541,342.25113 1401.451,341.30614 1401.398,340.81414 1401.1761,339.29026 1400.4431,339.29027 1399.9961,339.29027 1399.0913,339.29927 1399.3344,339.79424 1398.5254,339.32324 1396.7772,337.24262 1396.0082,337.17361 1394.3932,337.02861 1393.2853,337.16011 1392.0773,338.38313 1391.8812,337.02813 1394.1493,336.93182 1395.0003,337.07282 1393.3463,336.45682 1393.1077,336.93217 1391.8757,337.87916 1391.2947,338.32716 1390.0178,338.82624 1390.3638,339.79424 1390.5248,338.16024 1387.2836,339.61561 1386.5336,340.09662 1388.0046,339.38162 1386.3744,340.58113 1386.1304,341.30614 1385.5315,340.74414 1382.0273,339.96313 1382.8043,341.30614 1382.6613,340.78914 1382.3034,340.51 1381.7963,340.399 1382.7713,339.398 1383.651,338.73441 1383.913,337.2744 1382.586,337.5374 1381.8,338.068 1380.486,337.47599 1379.668,337.10699 1378.3672,336.60738 1377.9662,337.77837 1377.8602,337.25837 1377.8358,337.22843 1378.1678,336.77044 1377.4958,336.47144 1376.7101,336.50044 1376.0511,336.77044 1376.5531,336.53444 1377.6963,335.02596 1376.4543,335.05695 1378.4503,334.14995 1371.6583,333.5442 1371.9303,333.69319 1371.3258,333.36219 1369.8927,333.10309 1369.2312,333.03497 z" id="path3884"/>
    </g>
  <g class="landxx coastxx hrv" id="hr" transform="translate(-29.9017,-45.0745)">
    <title>Croatia</title>
    <path class="landxx hrv" d="M 1401.337,411.84 C 1401.831,411.955 1402.3193,412.08445 1402.817,412.191 1403.4639,412.3295 1403.9702,411.70835 1404.3154,411.58745 1404.4887,411.52675 1405.9437,412.92305 1408.0448,410.23818 1409.3489,411.51588 1410.4094,411.05393 1411.824,411.84 1413.6727,412.86731 1412.7556,410.59955 1413.577,410.4 1413.219,410.319 1412.918,410.012 1412.567,409.896 1415.4212,407.84864 1416.0964,410.00736 1415.0612,406.11118 1414.9294,405.61502 1417.4336,405.16889 1417.8427,404.77737 1418.4714,404.1757 1417.8207,404.38636 1418.4742,403.95736 1418.4842,403.95336 1419.461,404.204 1419.628,404.209 1417.7315,402.04246 1421.2982,402.90731 1422.0113,403.62174 1422.5151,404.12647 1425.2338,405.75581 1425.5945,406.24818 1427.0418,407.8758 1429.1484,408.67346 1431.4092,409.40936 1436.7919,409.70923 1434.352,408.2964 1436.7348,407.96846 1436.6798,407.4488 1437.1135,408.55045 1437.4217,409.199 1437.8667,410.1353 1437.4607,411.353 1438.847,411.409 1436.555,413.002 1441.5985,413.9125 1441.0656,414.24327 L 1438.847,414.793 C 1439.574,415.984 1438.6439,417.94173 1437.1279,416.76773 1436.132,414.99792 1436.1613,415.93186 1435.659,415.45064 1434.723,415.10764 1433.8626,414.91087 1432.9167,415.15945 1431.8897,415.42935 1431.9561,414.63975 1430.9541,415.19185 1430.2138,415.59972 1429.7078,415.17625 1429.0048,415.0083 1427.3101,414.9718 1425.8213,414.42702 1424.2335,413.97339 1423.0619,414.07912 1424.6853,414.57294 1422.8695,414.07921 1421.5399,413.71765 1421.4344,414.05821 1420.9779,414.88166 1419.9959,416.65304 1419.8539,415.87358 1418.1566,414.61741 1415.9727,413.00116 1416.2733,415.96173 1416.4067,417.06494 1416.4887,417.74688 1416.2825,417.87141 1416.9878,418.17539 1417.6198,418.44779 1418.6854,419.12326 1419.1329,419.74165 1420.0647,421.0294 1419.0939,422.82911 1421.0798,423.99012 1422.9791,425.10031 1424.0529,426.95102 1425.8113,428.26484 1427.2273,429.32284 1427.8765,430.63443 1429.0999,431.70085 1430.5765,432.98784 1429.8367,434.47027 1428.165,432.52003 1426.436,430.5029 1422.129,427.54703 1419.34,428.58603 1418.609,428.85803 1418.225,428.57703 1417.757,427.96903 1417.175,427.21403 1417.536,427.01203 1416.434,426.46503 1414.826,425.66603 1412.62,423.85503 1411.987,422.13703 1412.987,421.96503 1413.891,422.10903 1414.877,422.28203 1413.581,421.33003 1411.983,420.61703 1411.079,419.22003 1410.324,418.05303 1410.823,416.55803 1410.089,415.40103 1409.443,414.38403 1408.001,413.41203 1406.841,413.09503 1405.987,412.86203 1405.205,415.31903 1405.368,415.94603 1405.001,415.79403 1404.865,415.90303 1404.578,415.58603 1404.468,416.41003 1404.27,417.29203 1403.638,417.89003 1403.126,417.49503 1401.474,415.45103 1402.268,414.79403 1401.357,415.00503 1400.916,412.50703 1400.688,411.77003 1400.904,411.79203 1401.121,411.81503 1401.337,411.84003" id="path4066"/>
    <path d="M 1406.667,415.944 C 1406.26,415.507 1406.141,415.004 1406.307,414.431 1407.139,415.803 1407.285,417.391 1407.747,418.895 1406.794,418.752 1405.864,416.649 1406.667,415.944" id="path4070"/>
    <path d="M 1407.888,420.408 C 1407.502,419.91 1407.095,419.43 1406.668,418.968 1407.184,419.336 1407.617,419.833 1407.888,420.408" id="path4072"/>
    <path d="M 1408.538,415.944 C 1407.892,415.875 1406.739,414.55 1407.818,414.215 1408.569,413.982 1409.146,415.658 1409.688,415.944 1409.298,416.342 1408.914,416.342 1408.538,415.944" id="path4074"/>
    <path d="M 1409.038,417.384 C 1409.278,417.528 1409.518,417.672 1409.758,417.816 1409.11,418.122 1408.871,417.978 1409.038,417.384" id="path4076"/>
    <path d="M 1410.478,422.784 C 1410.238,422.592 1409.998,422.4 1409.758,422.208 1410.075,422.308 1410.315,422.5 1410.478,422.784" id="path4078"/>
    <path d="M 1411.198,420.696 C 1410.498,420.024 1409.796,419.326 1409.328,418.464 1410.208,419.684 1411.758,420.126 1412.638,421.344 1411.938,421.881 1411.523,421.228 1411.198,420.696" id="path4080"/>
    <path d="M 1411.268,424.08 C 1411.031,423.864 1410.795,423.647 1410.558,423.432 1411.492,423.502 1411.712,424.597 1412.428,425.016 1411.879,424.904 1411.493,424.592 1411.268,424.08" id="path4082"/>
    <path d="M 1412.928,424.296 C 1412.688,424.128 1412.448,423.96 1412.208,423.792 1412.569,423.804 1412.809,423.972 1412.928,424.296" id="path4088"/>
    </g>
  <path class="landxx bih" d="M 1386.4063,370.22155 C 1386.3253,367.87755 1388.2853,369.54255 1389.1893,370.27755 1390.1673,371.07355 1390.8473,370.40255 1391.2363,369.39455 1391.6103,368.42655 1393.0883,369.07755 1393.7563,369.21355 1393.8743,368.27155 1397.8303,369.86155 1398.7263,369.86155 1399.3453,369.86155 1400.4753,370.49155 1400.9763,370.13855 1402.1333,369.32555 1401.8333,370.30355 1402.8613,370.07655 1404.1143,369.79955 1405.2083,370.11255 1406.3803,370.58355 1407.3593,370.97855 1406.7443,371.92555 1408.0043,371.99455 1408.7893,372.03655 1409.8613,371.19455 1410.5483,371.53755 1411.6513,372.09055 1410.7283,373.61155 1410.2713,374.22555 1408.7513,376.26755 1410.4313,376.96355 1411.9203,378.09655 1414.4883,380.05155 1411.1783,379.08455 1410.8013,379.62655 1410.7533,379.69555 1412.5623,381.96155 1412.5743,382.51855 1412.5853,383.00455 1409.1613,383.65855 1408.5863,383.46855 1408.4463,384.37655 1409.5733,384.74355 1409.1663,385.70055 1408.6073,383.85855 1405.9423,386.19455 1406.7863,387.71655 1403.9699,387.09372 1407.5684,391.65654 1405.8228,391.62508 1404.7154,391.60518 1402.7713,390.26455 1401.9203,389.58255 1401.4693,389.22255 1401.4072,388.78974 1400.7774,388.70768 1400.195,388.63178 1400.0413,389.20324 1399.4473,388.36455 1401.3263,388.33955 1397.7617,385.35074 1397.4314,384.94079 1395.7397,382.84079 1394.4843,382.13355 1392.9483,380.40555 1392.1603,379.51855 1391.1173,379.05555 1390.3113,378.22055 1389.3633,377.23855 1389.9741,375.65755 1389.0751,374.56255 1388.3921,373.73055 1387.5163,373.51555 1386.6803,372.92855 1386.2583,372.63555 1386.4803,370.85955 1386.4063,370.22155" id="ba">
    <title>Bosnia and Herzegovina</title>
  </path>
  <path class="landxx eu hun" d="M 1388.2863,354.95755 C 1388.9623,354.23555 1389.8373,353.64755 1390.8763,353.87755 1390.5463,353.00455 1390.3173,351.83255 1390.5983,350.91755 1390.8363,350.14255 1391.8123,349.88855 1392.0633,349.10555 1392.2703,348.45955 1389.9403,348.22255 1391.2213,347.73955 1392.1933,347.37355 1393.2273,349.00855 1393.9503,347.80355 1394.4608,346.95205 1394.9095,345.79741 1395.332,345.40066 1395.7545,345.00391 1396.1508,345.36506 1397.3213,346.27055 1400.2113,348.50755 1403.1393,347.37455 1406.4963,346.96455 1404.6353,345.48255 1407.2948,345.42469 1408.4338,345.31469 1408.9918,345.26069 1410.4288,344.76764 1410.5728,344.07164 1410.8198,342.88264 1411.8023,343.82494 1412.6673,344.16594 1413.8333,344.62494 1415.6728,344.14694 1416.5218,343.33891 1417.1398,342.75191 1416.9023,341.08955 1417.6703,340.78555 1419.1663,340.19555 1420.9813,341.05955 1422.4863,341.20555 1423.1343,340.16755 1424.0493,340.86123 1424.6363,341.46523 1425.5163,342.37123 1426.3896,342.72477 1427.5683,342.23555 1429.6179,341.38485 1430.6263,343.83904 1432.5613,344.52355 1434.7072,345.28267 1433.2274,346.44199 1432.6773,346.94455 1431.7736,347.77007 1430.2746,347.02905 1429.6563,347.98455 1429.1809,348.71935 1427.8633,349.72337 1427.8457,350.43906 1427.8267,351.20294 1426.3015,353.6847 1425.2193,355.58755 1424.7363,356.43679 1423.7439,357.17506 1423.496,358.15001 1423.3044,358.90371 1423.486,359.60752 1421.8603,360.03255 1421.0341,360.2486 1420.3375,359.85297 1419.8103,360.62955 1419.2143,361.50754 1418.4913,360.82791 1417.7423,361.07155 1416.6472,361.42778 1415.3793,361.11955 1414.2763,361.00655 1413.4983,360.92655 1412.2603,360.47855 1411.6073,361.09855 1410.8613,361.80655 1410.6323,362.40555 1409.5173,362.45755 1408.4913,362.50455 1407.3863,362.60955 1406.4293,363.00955 1405.5333,363.38355 1405.2823,364.27055 1404.2183,364.40555 1402.4373,364.63055 1400.1323,364.18955 1398.6693,363.25655 1397.8293,362.72155 1397.0363,362.84055 1396.3663,361.92855 1395.5363,360.79855 1394.3653,360.14155 1393.2113,359.38055 1392.1533,358.68255 1391.3303,358.07055 1390.6833,356.97655 1390.1713,356.11155 1389.5213,354.73855 1388.2863,354.95755" id="hu">
    <title>Hungary</title>
  </path>
  <g id="nl" transform="translate(-29.9017,-45.0745)">
    <title>Netherlands</title>
    <g class="landxx coastxx nlx eu nld" id="nlx">
      <path d="M 1348.917,345.24 C 1349.446,345.227 1349.95,345.107 1350.427,344.88 1349.894,344.873 1349.391,344.993 1348.917,345.24" id="path6458"/>
      <path class="landxx nlx eu nld" d="M 1354.7858,344.93451 C 1352.2738,345.25451 1349.2619,345.44555 1347.4279,347.35355 1346.5859,348.22955 1345.3287,349.07162 1344.1017,349.26862 1343.2987,349.39762 1342.4937,349.62414 1342.1866,350.47814 1341.1407,353.39214 1340.3132,355.21589 1338.0541,357.43288 1337.1791,358.29088 1339.3574,358.98437 1339.8684,359.14636 1341.0824,359.53137 1342.594,358.55674 1342.993,359.44874 1341.428,359.14874 1339.7697,360.61472 1338.2557,359.95271 1339.6077,360.81371 1338.0354,360.17848 1337.4494,360.55747 1338.0124,360.95147 1339.0748,360.7552 1339.1629,361.6662 1338.0539,362.0142 1337.406,360.91688 1336.643,360.35588 1335.69,360.35588 1334.4976,360.04843 1333.9216,361.06144 1334.6516,362.02444 1336.0132,361.82699 1337.0462,361.76699 1337.8982,361.71799 1340.6401,363.17262 1340.4732,361.46461 1340.9962,361.86161 1341.7646,362.06983 1342.1866,361.36382 1342.5406,362.22682 1343.8373,361.94783 1344.3033,361.36382 1344.8513,363.39082 1347.8005,363.37024 1349.5446,364.08524 1348.3593,365.45439 1347.2082,367.474 1350.2501,367.51221 1351.5613,367.52871 1350.0272,365.47217 1350.2501,365.09317 1350.9399,363.92069 1352.3358,362.68824 1351.8628,361.16223 1351.6218,360.38423 1351.0882,359.43537 1350.2501,359.14636 1350.1731,357.37936 1352.0625,359.22006 1351.5604,357.83605 1352.1454,358.13505 1355.5667,358.48468 1355.7937,357.53367 1355.8957,357.10567 1355.1707,356.56137 1355.7937,356.22336 1356.0657,356.13336 1356.2613,355.98118 1356.4993,355.82019 1359.0653,353.25619 1354.5798,353.27783 1355.2898,352.09083 1355.8208,351.20283 1357.6268,352.22528 1357.7088,351.38528 1357.8168,350.26228 1358.4568,349.43348 1358.7167,348.36148 1359.1168,346.71248 1356.3889,344.7315 1354.7858,344.93451 z M 1348.4358,352.09083 C 1348.6762,352.06273 1348.9649,352.06963 1349.2422,352.19163 1350.0762,352.55864 1349.7232,353.11694 1349.2422,353.50194 1348.7712,353.87894 1348.3071,354.34146 1347.8311,354.71146 1347.119,355.26646 1345.9804,354.17649 1345.2104,354.20749 1345.4474,353.6945 1345.9768,353.36356 1346.5208,353.19956 1347.1868,352.85006 1347.7149,352.17512 1348.4358,352.09083 z" id="path6484"/>
    </g>
    </g>
  <path class="landxx eu svk" d="M 1393.4663,340.19755 C 1394.2503,338.16755 1395.2303,338.52655 1397.0963,338.50655 1397.8143,338.49855 1400.8463,337.00255 1400.9273,336.33955 1401.2373,333.79355 1407.2793,331.84155 1406.7163,333.71655 1407.5033,333.60755 1409.1446,331.87349 1410.0017,332.19109 1411.3384,332.6864 1412.7143,334.1024 1412.4053,334.65255 1413.5576,335.56589 1413.9557,334.99509 1415.2567,334.04009 1415.7047,333.71109 1416.9335,333.30794 1417.5876,333.54209 1419.9774,334.39772 1420.9567,333.39036 1422.7633,333.40955 1424.8021,333.43125 1425.7757,333.41655 1427.4977,335.05491 1428.1738,335.69803 1429.9058,335.89087 1430.4533,336.09409 1430.8977,336.16479 1430.8213,336.08209 1430.2843,337.64164 1429.815,339.00462 1428.5365,340.34129 1428.3463,341.53455 1428.3083,341.77052 1428.8286,342.17407 1428.0324,342.10841 1425.4651,343.49033 1424.1213,340.68065 1423.5615,340.85487 1422.9719,341.03835 1422.8788,341.33628 1422.1818,341.20128 1421.3498,341.04028 1420.4078,340.72202 1419.5623,340.63755 1417.5763,340.43914 1417.1239,340.82985 1416.9257,342.72901 1416.7931,343.99902 1413.7032,344.76512 1412.642,344.18633 1410.0441,342.76935 1411.1632,343.89957 1410.0771,344.84006 1409.1225,345.66678 1404.2373,345.16244 1406.559,346.99641 1404.98,347.18941 1403.376,347.75066 1401.6784,347.63201 1401.0968,347.59131 1400.0583,347.72051 1399.2253,347.50455 1398.4796,347.31123 1397.6623,346.66055 1396.9603,346.31155 1395.8883,345.77955 1394.5133,344.87155 1393.9273,343.78755 1393.6783,343.32755 1393.9163,342.75055 1393.7579,342.25355 1393.4639,341.32655 1393.6353,341.03855 1393.4663,340.19755" id="sk">
    <title>Slovakia</title>
  </path>
  <path class="world_map-is_selected landxx eu svn" d="M 1371.0014,362.58227 C 1370.8698,361.96351 1371.4584,361.20919 1371.8663,360.86155 1371.1883,360.71055 1370.5923,360.33455 1369.9963,359.99755 1371.5081,358.35249 1370.7903,357.34841 1372.6623,357.79941 1373.3643,357.96841 1377.5543,359.44355 1378.1553,358.91155 1379.3503,357.85155 1380.4153,356.68255 1382.1433,356.79055 1383.0543,356.84755 1384.1583,357.29755 1385.0173,356.77455 1385.8983,356.23855 1386.9593,356.19055 1387.8573,356.75755 1387.0863,355.79055 1388.2873,354.27055 1389.3343,355.10755 1390.1473,355.75855 1391.1491,357.39128 1391.7551,358.27028 1390.9491,358.14728 1388.3073,357.47055 1389.7273,359.13355 1388.9273,359.10355 1388.4803,358.57455 1388.1473,359.50055 1387.9613,360.01755 1385.9703,360.48655 1385.3803,360.84255 1384.9223,361.11955 1385.7623,362.48555 1385.7263,363.07555 1385.6713,363.99655 1383.5233,364.06555 1382.6673,364.82055 1383.0183,364.93655 1383.3183,365.24355 1383.6773,365.32455 1383.0373,365.45555 1383.5003,367.76355 1382.2643,366.97255 1380.8453,366.06455 1379.4763,366.48155 1378.1273,365.18055 1377.6713,366.28455 1376.0803,367.22955 1374.8633,366.68455 1374.3623,366.46055 1374.3753,366.44555 1373.9793,366.83755 1373.3783,367.43255 1372.1213,366.92355 1371.4373,366.76455 1372.1933,366.09755 1373.7483,365.84555 1373.1673,364.82055 1372.7093,364.00955 1370.6223,364.22255 1371.6573,362.87755" id="si">
    <title>Slovenia</title>
  </path>
  </svg>