<svg xmlns="http://www.w3.org/2000/svg" class="world_map zoom4" height="127" id="svg2985" version="1.1" viewBox="2189 819 75 33" width="127">
  <title>World Map</title>
  <defs id="defs2987"/>
  <defs>
    <link xmlns="http://www.w3.org/1999/xhtml" href="../css/svg.css" type="text/css" rel="stylesheet"/>
  </defs>
  <style id="style_css_sheet" type="text/css">
/*
 * Below are Cascading Style Sheet (CSS) definitions in use in this file,
 * which allow easily changing how countries are displayed.
 *
 */
/* --- Custom styles for Peace Corps --- */
.world_map .world_map-is_selected {
  fill: #C94112 !important;
}
.world_map .landxx {
  fill: #F2EFE8;
  stroke: #ffffff;
  fill-rule: evenodd;
}
.world_map.zoom4 .landxx {
  stroke-width: 2px;
}
.world_map.zoom3 .landxx {
  stroke-width: 3px;
}
.world_map.zoom2 .landxx {
  stroke-width: 4px;
}
.world_map.zoom1 .landxx {
  stroke-width: 5px;
}
.world_map .coastxx {
  fill: #F2EFE8;
  stroke: #ffffff;
  stroke-width: 2px;
  fill-rule: evenodd;
}
.world_map .oceanxx {
  opacity: 1;
  color: #ccc;
  fill: #ffffff;
  stroke: #ffffff;
  stroke-width: 0.5;
  stroke-miterlimit: 1;
}

/* --- Original Styles --- *
/*
 * Circles around small countries
 *
 * Change opacity to 1 to display all circles.
 *
 */
.circlexx
{
   opacity:0;
   fill:#e0e0e0;
   stroke:#000000;
   stroke-width:0.5;
}

/*
 * Smaller circles around French DOMs and Chinese SARs
 *
 * Change opacity to 1 to display all subnational circles.
 *
 */
.subxx
{
   opacity:0;
   stroke-width:0.3;
}

/*
 * Circles around small, unrecognized countries
 *
 * Change opacity to 1 to display all circles.
 *
 */
.unxx
{
   opacity:0;
   fill:#e0e0e0;
   stroke:#000000;
   stroke-width:0.3;
}

/*
 * Circles around small countries, but with no permanent residents 
 *
 * Change opacity to 1 to display all circles.
 *
 */
.noxx
{
   opacity:0;
   fill:#e0e0e0;
   stroke:#000000;
   stroke-width:0.5;
}

/*
 * land
 */
.landxx
{
}
/*
 * Styles for coastlines of islands with no borders
 */


/*
 * Styles for nations with limited recognition
 */
.limitxx
{
   fill: #e0e0e0;
   stroke:#ffffff;
   stroke-width:0;
   fill-rule:evenodd;
}

/*
 * Styles for nations with no permanent population.
 */
.antxx
{
   fill: #e0e0e0;
   stroke:#ffffff;
   stroke-width:0;
   fill-rule:evenodd;
}

/*
 * Ocean
 */


/*
 * Additional style rules
 *
 * The following are examples of colouring countries.  You can substitute these with your own styles to colour the countries on the map.
 *
 * Color a few countries:
 *
 * .gb, .au, .nc
 * {
 *    fill:       #ff0000;
 * }
 *
 * Color a few small country circles (and the countries):
 *
 * .ms, .ky
 * {
 *    opacity:    1;
 *    fill:       #ff0000;
 * }
 *
 */

</style>
  <path class="oceanxx" d="M 2079.5058,1457.5605 615.24779,1457.5605 C 615.13079,1457.5605 615.07079,1457.5505 614.95179,1457.5215 611.67679,1456.6515 608.40179,1455.7815 605.12779,1454.9105 599.15079,1453.3225 593.22879,1451.5225 587.30779,1449.7385 564.39379,1442.8315 541.76579,1434.6995 519.46979,1426.0115 495.81079,1416.7935 472.34979,1407.0946 449.19179,1396.6816 426.78379,1386.6056 405.17679,1375.0536 383.76379,1363.0356 363.11779,1351.4496 343.01079,1338.8296 323.37979,1325.5996 302.29179,1311.3876 281.47879,1296.8506 261.05379,1281.7006 242.35079,1267.8276 223.73679,1253.6306 206.05279,1238.4686 186.98679,1222.1216 167.82379,1205.7706 150.35279,1187.6906 132.97779,1169.7106 116.33279,1151.0606 100.15679,1131.9976 84.352777,1113.3736 70.086776,1093.4716 56.901786,1072.9246 44.046786,1052.8916 32.093776,1032.1356 22.469776,1010.3426 17.516776,999.12753 12.408776,987.76556 8.7017761,976.06056 5.0657761,964.58166 1.5997761,953.04259 -1.5932239,941.43054 -8.0102239,918.09356 -14.055224,894.78356 -18.234224,870.92056 -22.491222,846.60856 -24.894222,822.19856 -26.943222,797.62156 -28.947222,773.58556 -28.829222,749.40156 -27.225222,725.34856 -25.648222,701.69856 -23.363222,677.92456 -19.274222,654.56456 -15.018224,630.25156 -9.3842239,606.45156 -2.8412239,582.66156 3.5687761,559.35256 10.483776,536.34856 20.265776,514.19856 30.320776,491.42956 42.318786,469.90956 55.502786,448.81656 68.512776,428.00356 83.108777,408.26756 98.686787,389.31756 113.73479,371.01156 129.68979,353.25256 146.15179,336.20856 163.77479,317.96256 182.64579,301.14556 201.89579,284.64756 220.33379,268.84456 239.55379,253.98456 258.95979,239.39656 278.42779,224.76056 298.39379,210.83356 318.55579,197.17556 339.26979,183.14456 360.47879,169.92056 382.15079,157.42556 403.46579,145.13656 425.31479,133.98856 447.60479,123.59356 469.58579,113.34356 492.14979,104.17656 514.74579,95.37556 537.44879,86.532565 560.37879,78.195565 583.63479,70.914565 589.69379,69.017565 595.80079,67.276565 601.90879,65.549565 604.63079,64.779565 607.36079,64.045565 610.09479,63.318565 611.59979,62.918565 613.56579,61.986565 615.13379,61.986565 L 2079.9638,61.986565 C 2079.9798,61.986565 2079.9958,61.986565 2080.0118,61.986565 2079.8448,61.986565 2079.6788,61.986565 2079.5118,61.986565 2102.8268,68.191565 2125.8778,75.323565 2148.5448,83.611565 2171.6378,92.054565 2194.6158,100.87956 2217.2348,110.52956 2240.5208,120.46556 2263.4848,130.95256 2285.8828,142.76456 2306.9808,153.89056 2327.8178,165.78556 2347.8608,178.72156 2368.9418,192.32656 2389.7498,206.29256 2410.2218,220.80056 2429.7368,234.62956 2448.9938,248.98756 2467.6208,263.99256 2486.8818,279.50856 2506.0408,295.30556 2524.0538,312.27356 2541.8708,329.05756 2558.7508,346.67256 2574.9408,365.03656 2591.2478,383.53256 2607.1478,402.30656 2621.4508,422.41856 2635.3488,441.96256 2648.4468,462.42756 2659.5898,483.67756 2671.1238,505.67356 2681.1048,528.35656 2688.6188,552.05056 2692.2518,563.50656 2695.3368,575.14756 2698.5608,586.72256 2701.7738,598.25356 2704.9238,609.81956 2707.4578,621.52456 2712.6258,645.40556 2716.6718,669.47856 2719.1178,693.79656 2721.5718,718.19256 2723.1798,742.56356 2722.9808,767.09056 2722.7908,790.65456 2720.6908,814.43756 2717.7688,837.81156 2714.7368,862.07056 2710.5198,886.16156 2704.6398,909.90056 2701.6808,921.84356 2698.3948,933.69556 2695.0378,945.53154 2691.7468,957.13466 2688.5558,968.83466 2684.3988,980.16156 2676.0918,1002.8036 2666.1688,1024.8836 2654.1338,1045.8046 2641.9958,1066.9066 2628.8498,1087.4866 2614.2378,1106.9696 2599.1658,1127.0666 2582.6678,1145.9446 2565.8948,1164.6296 2549.8298,1182.5266 2532.8918,1199.7316 2514.8648,1215.6616 2496.0788,1232.2646 2476.8978,1248.3126 2457.1558,1263.7656 2438.2988,1278.5276 2418.9668,1292.7306 2399.3188,1306.4206 2378.7018,1320.7866 2357.7538,1334.6106 2336.4758,1347.9776 2326.4088,1354.3016 2316.0058,1360.1326 2305.6418,1365.9516 2295.0348,1371.9086 2284.3858,1378.0166 2273.4448,1383.3436 2250.7338,1394.3986 2227.7768,1404.7266 2204.3888,1414.2665 2181.7848,1423.4875 2159.0678,1432.2695 2136.0228,1440.3345 2117.4118,1446.8465 2098.5568,1452.4975 2079.5058,1457.5605" id="ocean"/>
  <g class="landxx coastxx idn" id="id" transform="translate(-29.9017,-45.0745)">
    <title>Indonesia</title>
    <path d="M 2211.628,849.383 C 2211.292,850.596 2211.937,851.709 2211.769,852.913 2212.885,852.393 2213.534,854.541 2214.783,853.612 2215.637,852.977 2215.65,852.855 2216.754,852.982 2217.792,853.102 2218.485,851.915 2219.48,852.692 2219.385,851.004 2218.046,849.547 2218.667,847.815 2219.424,845.697 2219.825,844.312 2219.564,841.991 2219.345,840.05 2219.781,838.526 2219.958,836.638 2220.039,835.776 2219.948,834.92 2220.045,834.056 2220.202,832.608 2219.549,832.61 2219.191,831.382 2218.495,828.994 2222.632,827.042 2224.439,827.608 2226.071,828.119 2225.566,831.767 2224.707,832.721 2222.292,835.402 2226.377,838.452 2228.685,839.692 2229.664,840.218 2227.204,843.89 2228.201,845.385 2228.739,846.191 2230.511,846.604 2231.419,846.737 2232.536,846.9 2232.254,845.091 2232.377,844.452 2232.655,843.014 2234.688,843.276 2235.699,842.865 2236.3,842.62 2238.733,843.863 2237.332,842.113 2238.425,843.964 2239.898,840.212 2237.982,839.663 2237.638,841.424 2237.168,838.998 2236.252,839.013 2236.445,838.749 2236.639,838.486 2236.832,838.223 2236.039,838.189 2235.055,837.153 2234.602,836.574 2233.864,835.629 2234.832,834.852 2234.163,833.904 2234.52,833.992 2234.88,834.065 2235.243,834.124 2234.417,833.622 2234.638,832.406 2235.682,832.464 2235.49,832.095 2235.237,831.772 2234.925,831.497 2234.353,830.869 2234.768,830.199 2234.382,829.514 2234.059,828.94 2233.302,828.896 2232.943,828.365 2232.535,827.761 2232.401,826.799 2232.066,826.126 2231.561,825.111 2231.136,824.117 2230.065,823.593 2229.192,823.166 2228.777,821.338 2227.613,821.885 2227.666,821.263 2227.689,820.639 2227.682,820.015 2228.898,821.047 2229.861,821.989 2231.094,820.287 2232.163,818.81 2233.278,818.789 2234.789,817.945 2236.863,816.787 2238.381,811.926 2241.1,812.012 2241.876,812.037 2242.015,814.28 2242.913,813.335 2243.449,812.772 2244.47,811.332 2243.925,810.53 2243.019,809.198 2239.496,809.607 2238.413,810.504 2239.001,810.566 2239.505,810.806 2239.923,811.224 2238.505,811.274 2234.428,810.28 2233.931,812.116 2233.598,813.345 2229.899,813.299 2230.133,811.585 2228.9,812.341 2227.622,813.595 2227.001,814.913 2226.326,816.348 2226.016,817.195 2224.355,816.833 2223.267,816.597 2222.235,816.313 2221.936,815.085 2221.785,814.466 2221.728,813.84 2221.387,813.281 2220.759,812.253 2220.331,813.09 2219.636,812.584 2217.399,810.958 2217.302,805.898 2218.27,803.65 2218.825,802.361 2219.752,800.916 2221.026,800.233 2222.078,799.67 2224.657,800.6 2225.755,800.999 2226.534,801.281 2228.026,800.629 2228.724,800.307 2230.164,799.64 2230.563,800.66 2231.958,800.872 2233.51,801.107 2235.578,800.267 2237.238,800.308 2239.225,800.358 2240.502,800.47 2242.092,801.618 2244.069,803.046 2250.213,802.083 2251.823,800.2 2252.929,798.907 2253.318,797.458 2254.649,796.262 2256.082,794.974 2256.016,792.792 2257.562,791.64 2257.018,791.296 2256.708,790.696 2256.912,790.056 2256.346,790.202 2255.551,789.802 2255.074,790.207 2254.357,790.814 2254.398,792 2253.416,792.301 2251.917,792.76 2252.87,793.222 2252.162,794.16 2251.754,794.701 2250.752,794.492 2250.466,795.233 2249.749,797.089 2246.905,797.42 2245.327,797.079 2243.99,796.79 2242.409,796.482 2241.035,796.551 2240.263,796.59 2239.524,797.445 2238.889,797.189 2236.899,796.387 2235.492,796.006 2233.358,795.784 2232.261,795.67 2231.622,795.347 2230.456,795.465 2229.126,795.599 2228.728,793.785 2228.055,793.798 2227.186,793.814 2223.958,792.225 2223.773,794.031 2223.521,796.492 2221.289,798.836 2219.484,796.254 2219.312,797.061 2219.049,797.674 2218.424,798.225 2217.579,798.97 2217.751,800.121 2216.93,800.784 2215.363,802.047 2217.408,804.247 2215.803,805.394 2215.67,804.828 2215.264,804.444 2214.654,804.604 2215.05,806.132 2216.233,805.758 2215.749,807.52 2215.308,809.126 2216.775,810.598 2216.314,812.235 2215.981,811.625 2215.842,810.921 2215.303,810.434 2214.403,812.871 2212.486,814.144 2212.353,816.914 2212.293,818.151 2212.402,819.47 2212.313,820.675 2212.209,822.087 2210.889,823.002 2210.793,824.513 2210.667,826.514 2207.396,827.437 2207.906,829.108 2208.193,830.049 2208.947,829.461 2208.135,830.794 2207.433,831.948 2208.356,834.447 2208.823,835.635 2209.472,834.905 2211.149,834.635 2212.058,834.586 2214.047,834.479 2212.47,836.408 2213.117,837.564 2214.19,839.484 2213.932,841.126 2213.592,843.337 2213.307,845.147 2212.845,847.965 2211.628,849.383" id="path2348"/>
    <path d="M 2231.498,848.593 C 2229.172,849.399 2231.258,852 2231.381,851.888 2232.004,851.318 2231.944,849.239 2231.498,848.593" id="path2366"/>
    <path d="M 2235.678,851.692 C 2235.976,851.322 2236.717,850.528 2236.445,849.986 2235.949,848.994 2236.944,848.548 2237.212,847.693 2237.358,847.226 2237.964,844.039 2236.68,844.729 2236.045,845.07 2235.206,845.519 2234.656,845.976 2233.621,846.834 2235.186,847.933 2234.449,848.85 2234.165,849.204 2233.422,850.426 2233.66,850.893 2234.047,851.648 2235.316,851.424 2235.31,850.534 2235.421,850.923 2235.544,851.31 2235.678,851.692" id="path2372"/>
    <path d="M 2240.138,842.763 C 2238.288,842.797 2237.611,846.783 2237.528,848.195 2237.442,849.668 2236.865,850.303 2236.324,851.647 2235.653,853.312 2236.688,852.868 2237.619,853.853 2238.067,853.24 2238.115,852.42 2238.587,851.834 2239.063,851.244 2239.94,851.565 2240.392,851.001 2241.04,850.195 2239.703,848.776 2238.91,849.602 2239.127,848.726 2239.083,847.808 2239.326,846.935 2239.486,846.36 2240.552,844.453 2240.79,846.142 2241.593,844.807 2240.056,844.033 2240.138,842.763" id="path2378"/>
    <path d="M 2240.068,839.083 C 2239.247,839.427 2239.344,840.932 2240.151,841.247 2241.355,841.717 2242.051,839.342 2240.068,839.083" id="path2388"/>
    <path d="M 2243.229,819.293 C 2242.912,819.417 2242.745,819.657 2242.729,820.013 2242.896,819.773 2243.062,819.533 2243.229,819.293" id="path2396"/>
    <path d="M 2243.309,850.103 C 2243.383,850.615 2243.31,850.819 2243.958,850.824 2243.741,850.583 2243.525,850.343 2243.309,850.103" id="path2398"/>
    <path d="M 2244.528,851.973 C 2244.584,852.38 2244.823,852.597 2245.248,852.623 2245.008,852.406 2244.769,852.189 2244.528,851.973" id="path2400"/>
    <path d="M 2251.229,819.003 C 2249.969,820.839 2250.972,822.439 2253.168,821.733 2253.516,821.518 2253.875,821.326 2254.248,821.158 2254.666,821.242 2255.088,821.283 2255.515,821.28 2256.311,820.881 2257.701,821.198 2258.069,820.154 2257.493,820.224 2257.11,819.922 2256.989,819.364 2256.059,820.676 2252.619,818.51 2251.229,819.003" id="path2408"/>
    <path d="M 2258.788,820.083 C 2257.753,821.168 2260.406,821.224 2260.922,821.232 2262.325,821.255 2264.402,821.472 2265.479,820.373 2263.273,820.048 2260.935,820.865 2258.788,820.083" id="path2418"/>
    <path d="M 2262.888,821.733 C 2261.345,822.067 2262.749,825.584 2263.538,826.132 2263.857,825.574 2263.252,822.298 2262.888,821.733" id="path2422"/>
    <path d="M 2267.928,837.793 C 2268.985,837.267 2271.302,836.917 2271.975,835.908 2272.827,834.632 2272.359,833.696 2271.029,833.403 2272.085,832.212 2269.79,831.478 2268.998,831.281 2267.51,830.911 2266.185,831.374 2264.709,831.534 2262.902,831.731 2262.525,832.626 2263.339,834.368 2264.193,836.199 2266.254,836.897 2267.928,837.793" id="path2424"/>
    <path d="M 2189.738,834.123 C 2188.924,834.272 2188.992,835.14 2189.517,835.563 2189.634,835.09 2189.708,834.61 2189.738,834.123" id="path2326"/>
    <path class="landxx idn" d="M 2132.639,797.113 C 2133.573,796.487 2132.938,795.831 2133.138,794.988 2133.399,793.893 2134.988,793.822 2135.159,792.575 2134.828,793.119 2134.422,793.598 2133.939,794.014 2133.061,792.722 2134.149,791.449 2134.977,790.492 2135.517,789.869 2135.678,789.284 2135.959,788.533 2136.323,787.56 2137.569,787.334 2138.258,786.671 2138.126,787.561 2136.95,788.652 2138.292,789.188 2138.483,789.265 2138.964,791.367 2139.341,791.778 2140.444,792.98 2142.424,793.921 2143.132,795.455 2143.406,796.048 2144.629,796.562 2145.217,796.867 2146.319,797.437 2147.872,796.31 2148.823,795.887 2150.713,795.044 2152.511,796.158 2154.524,795.962 2155.329,795.883 2156.06,795.265 2156.77,794.886 2157.832,794.319 2157.531,792.933 2158.335,792.058 2159.173,791.146 2163.429,790.222 2164.087,791.617 2164.714,792.944 2168.599,794.21 2169.841,793.444 2170.914,792.782 2171.145,791.727 2172.601,792.228 2173.317,792.475 2173.886,791.888 2174.501,791.643 2175.01,791.438 2175.605,792.099 2176.127,792.073 2175.846,790.687 2178.787,787.669 2177.979,786.774 2176.585,785.23 2179.711,783.26 2180.877,782.857 2180.193,782.012 2178.908,778.902 2181.039,778.646 2183.716,778.323 2181.711,776.666 2183.243,775.199 2183.834,774.634 2183.072,772.322 2183.163,771.349 2183.247,770.449 2183.479,769.309 2183.884,768.498 2184.234,767.8 2184.95,767.467 2185.127,766.656 2186.543,767.183 2186.896,767.464 2188.405,766.815 2188.919,766.594 2190.183,768.499 2190.307,766.511 2191.285,767.455 2193.132,767.218 2194.352,767.106 2195.915,766.963 2196.867,768.662 2198.376,768.528 2197.922,768.849 2197.419,769.041 2196.866,769.103 2197.138,769.34 2199.847,771.595 2198.016,770.688 2198.388,770.95 2199.349,771.125 2199.537,771.561 2199.725,771.998 2199.713,772.433 2200.246,772.631 2199.383,773.738 2197.975,773.046 2197.586,771.911 2197.764,772.4 2197.834,772.904 2197.796,773.423 2197.019,772.941 2195.658,772.99 2194.846,773.351 2195.875,773.749 2196.407,774.805 2197.517,775.08 2197.234,775.646 2197.104,776.895 2196.147,776.448 2196.852,777.365 2197.903,777.748 2198.957,778.103 2198.081,779.103 2199.776,779.201 2198.377,779.399 2198.86,779.418 2199.317,779.538 2199.747,779.759 2198.319,780.149 2200.111,780.962 2200.655,781.63 2201.276,782.395 2201.826,783.23 2202.337,784.072 2202.98,785.131 2201.626,787.214 2200.387,787.175 2201.195,787.459 2200.799,788.264 2201.429,788.787 2202.336,789.54 2203.242,790.317 2204.187,791.022 2204.949,791.59 2205.398,792.562 2206.288,792.882 2207.48,793.311 2208.318,794.525 2209.108,795.455 2209.441,795.847 2210.308,795.539 2209.703,796.486 2208.955,797.656 2207.735,797.075 2206.703,797.598 2204.991,798.464 2202.968,796.079 2201.618,795.532 2202.241,796.444 2202.732,797.595 2201.274,797.678 2199.95,797.752 2199.531,799.771 2199.194,800.763 2198.293,803.413 2197.86,806.449 2198.018,809.212 2198.399,808.774 2198.878,808.534 2199.457,808.492 2199.272,809.086 2198.319,809.796 2199.027,810.072 2198.345,810.494 2198.345,811.089 2199.027,811.511 2198.091,811.775 2197.051,812.893 2196.797,811.581 2196.508,813.438 2193.054,817.355 2192.547,813.601 2191.823,814.914 2193.051,815.942 2191.57,816.971 2190.887,817.445 2191.224,818.184 2190.747,818.782 2190.192,819.476 2189.166,819.453 2188.657,820.221 2190.921,819.362 2190.17,822.511 2189.087,823.322 2189.646,823.871 2190.791,823.11 2191.261,823.678 2191.717,824.231 2190.798,826.368 2190.457,826.851 2190.061,826.385 2189.582,826.266 2189.017,826.492 2190.434,827.718 2188.579,831.645 2187.578,829.652 2187.308,830.527 2188.041,831.28 2188.517,831.891 2186.537,832.254 2187.146,835.265 2185.479,835.939 2183.651,836.679 2181.806,837.909 2179.948,838.731 2179.459,838.947 2175.601,841.56 2175.764,840.087 2175.863,839.193 2175.754,838.212 2175.798,837.3 2175.857,836 2175.017,834.923 2175.337,833.611 2173.875,835.044 2172.875,834.504 2173.898,832.531 2173.235,833.653 2171.766,834.375 2172.097,832.39 2171.943,833.443 2169.163,835.89 2168.353,834.267 2168.073,833.706 2168.848,833.275 2168.311,832.685 2167.324,831.602 2166.272,833.564 2165.978,832.1 2166.303,833.766 2164.162,830.801 2163.957,830.08 2163.97,831.588 2162.346,833.267 2161.065,833.922 2159.732,834.604 2158.565,832.685 2157.272,833.618 2156.803,833.956 2154.987,836.565 2154.635,834.871 2154.207,832.809 2154.905,830.967 2153.807,828.93 2152.944,831.163 2152.644,830.123 2150.993,830.077 2150.298,830.058 2149.729,830.659 2149.191,830.999 2148.168,831.647 2147.498,831.068 2146.466,830.88 2146.8,830.516 2147.16,830.179 2147.546,829.87 2146.711,829.996 2146.438,831.078 2145.526,830.95 2145.908,828.759 2143.7,829.973 2142.796,830.66 2141.746,829.35 2142.585,827.178 2142.123,825.667 2141.81,824.64 2142.001,823.554 2141.812,822.51 2141.653,821.629 2140.275,820.921 2140.366,820.15 2140.387,819.969 2141.145,819.036 2141.236,818.767 2141.558,817.805 2141.734,816.971 2141.143,816.084 2140.739,815.478 2140.654,814.825 2140.31,814.243 2139.891,813.535 2138.995,813.273 2139.045,812.3 2138.839,812.55 2138.622,812.789 2138.396,813.02 2137.633,811.547 2136.822,812.902 2135.78,812.272 2135.19,811.916 2135.564,811.258 2135.824,810.855 2136.086,810.449 2137.053,810.917 2137.387,810.93 2136.824,810.616 2136.489,809.852 2135.866,809.696 2135.403,809.579 2134.805,809.666 2134.503,809.201 2134.078,808.549 2133.828,805.892 2135.156,806.69 2134.811,805.762 2134.238,804.639 2135.376,804.531 2134.415,803.262 2133.14,802.159 2132.799,800.546 2132.657,799.872 2132.032,797.685 2132.639,797.113" id="path2554"/>
    </g>
  <g id="tl">
    <title>Timor-Leste</title>
    <circle class="world_map-is_selected circlexx tls" cx="2230.8491" cy="836.73077" id="tl." r="6.0130301" rx="6.0130301" ry="6.0130301"/>
  </g>
  <g id="cy">
    <title>Cyprus</title>
    <g id="cy-">
      </g>
    </g>
  <g id="vg">
    <title>Virgin Islands, British</title>
    </g>
  </svg>