<svg xmlns="http://www.w3.org/2000/svg" class="world_map zoom4" height="127" id="svg2985" version="1.1" viewBox="2189 819 75 33" width="127">
  <title>World Map</title>
  <defs id="defs2987"/>
  <defs>
    <link xmlns="http://www.w3.org/1999/xhtml" href="../css/svg.css" type="text/css" rel="stylesheet"/>
  </defs>
  <style id="style_css_sheet" type="text/css">
/*
 * Below are Cascading Style Sheet (CSS) definitions in use in this file,
 * which allow easily changing how countries are displayed.
 *
 */
/* --- Custom styles for Peace Corps --- */
.world_map .world_map-is_selected {
  fill: #C94112 !important;
}
.world_map .landxx {
  fill: #F2EFE8;
  stroke: #ffffff;
  fill-rule: evenodd;
}
.world_map.zoom4 .landxx {
  stroke-width: 2px;
}
.world_map.zoom3 .landxx {
  stroke-width: 3px;
}
.world_map.zoom2 .landxx {
  stroke-width: 4px;
}
.world_map.zoom1 .landxx {
  stroke-width: 5px;
}
.world_map .coastxx {
  fill: #F2EFE8;
  stroke: #ffffff;
  stroke-width: 2px;
  fill-rule: evenodd;
}
.world_map .oceanxx {
  opacity: 1;
  color: #ccc;
  fill: #ffffff;
  stroke: #ffffff;
  stroke-width: 0.5;
  stroke-miterlimit: 1;
}

/* --- Original Styles --- *
/*
 * Circles around small countries
 *
 * Change opacity to 1 to display all circles.
 *
 */
.circlexx
{
   opacity:0;
   fill:#e0e0e0;
   stroke:#000000;
   stroke-width:0.5;
}

/*
 * Smaller circles around French DOMs and Chinese SARs
 *
 * Change opacity to 1 to display all subnational circles.
 *
 */
.subxx
{
   opacity:0;
   stroke-width:0.3;
}

/*
 * Circles around small, unrecognized countries
 *
 * Change opacity to 1 to display all circles.
 *
 */
.unxx
{
   opacity:0;
   fill:#e0e0e0;
   stroke:#000000;
   stroke-width:0.3;
}

/*
 * Circles around small countries, but with no permanent residents 
 *
 * Change opacity to 1 to display all circles.
 *
 */
.noxx
{
   opacity:0;
   fill:#e0e0e0;
   stroke:#000000;
   stroke-width:0.5;
}

/*
 * land
 */
.landxx
{
}
/*
 * Styles for coastlines of islands with no borders
 */


/*
 * Styles for nations with limited recognition
 */
.limitxx
{
   fill: #e0e0e0;
   stroke:#ffffff;
   stroke-width:0;
   fill-rule:evenodd;
}

/*
 * Styles for nations with no permanent population.
 */
.antxx
{
   fill: #e0e0e0;
   stroke:#ffffff;
   stroke-width:0;
   fill-rule:evenodd;
}

/*
 * Ocean
 */


/*
 * Additional style rules
 *
 * The following are examples of colouring countries.  You can substitute these with your own styles to colour the countries on the map.
 *
 * Color a few countries:
 *
 * .gb, .au, .nc
 * {
 *    fill:       #ff0000;
 * }
 *
 * Color a few small country circles (and the countries):
 *
 * .ms, .ky
 * {
 *    opacity:    1;
 *    fill:       #ff0000;
 * }
 *
 */

</style>
  <path class="oceanxx" d="M 2079.5058,1457.5605 615.24779,1457.5605 C 615.13079,1457.5605 615.07079,1457.5505 614.95179,1457.5215 611.67679,1456.6515 608.40179,1455.7815 605.12779,1454.9105 599.15079,1453.3225 593.22879,1451.5225 587.30779,1449.7385 564.39379,1442.8315 541.76579,1434.6995 519.46979,1426.0115 495.81079,1416.7935 472.34979,1407.0946 449.19179,1396.6816 426.78379,1386.6056 405.17679,1375.0536 383.76379,1363.0356 363.11779,1351.4496 343.01079,1338.8296 323.37979,1325.5996 302.29179,1311.3876 281.47879,1296.8506 261.05379,1281.7006 242.35079,1267.8276 223.73679,1253.6306 206.05279,1238.4686 186.98679,1222.1216 167.82379,1205.7706 150.35279,1187.6906 132.97779,1169.7106 116.33279,1151.0606 100.15679,1131.9976 84.352777,1113.3736 70.086776,1093.4716 56.901786,1072.9246 44.046786,1052.8916 32.093776,1032.1356 22.469776,1010.3426 17.516776,999.12753 12.408776,987.76556 8.7017761,976.06056 5.0657761,964.58166 1.5997761,953.04259 -1.5932239,941.43054 -8.0102239,918.09356 -14.055224,894.78356 -18.234224,870.92056 -22.491222,846.60856 -24.894222,822.19856 -26.943222,797.62156 -28.947222,773.58556 -28.829222,749.40156 -27.225222,725.34856 -25.648222,701.69856 -23.363222,677.92456 -19.274222,654.56456 -15.018224,630.25156 -9.3842239,606.45156 -2.8412239,582.66156 3.5687761,559.35256 10.483776,536.34856 20.265776,514.19856 30.320776,491.42956 42.318786,469.90956 55.502786,448.81656 68.512776,428.00356 83.108777,408.26756 98.686787,389.31756 113.73479,371.01156 129.68979,353.25256 146.15179,336.20856 163.77479,317.96256 182.64579,301.14556 201.89579,284.64756 220.33379,268.84456 239.55379,253.98456 258.95979,239.39656 278.42779,224.76056 298.39379,210.83356 318.55579,197.17556 339.26979,183.14456 360.47879,169.92056 382.15079,157.42556 403.46579,145.13656 425.31479,133.98856 447.60479,123.59356 469.58579,113.34356 492.14979,104.17656 514.74579,95.37556 537.44879,86.532565 560.37879,78.195565 583.63479,70.914565 589.69379,69.017565 595.80079,67.276565 601.90879,65.549565 604.63079,64.779565 607.36079,64.045565 610.09479,63.318565 611.59979,62.918565 613.56579,61.986565 615.13379,61.986565 L 2079.9638,61.986565 C 2079.9798,61.986565 2079.9958,61.986565 2080.0118,61.986565 2079.8448,61.986565 2079.6788,61.986565 2079.5118,61.986565 2102.8268,68.191565 2125.8778,75.323565 2148.5448,83.611565 2171.6378,92.054565 2194.6158,100.87956 2217.2348,110.52956 2240.5208,120.46556 2263.4848,130.95256 2285.8828,142.76456 2306.9808,153.89056 2327.8178,165.78556 2347.8608,178.72156 2368.9418,192.32656 2389.7498,206.29256 2410.2218,220.80056 2429.7368,234.62956 2448.9938,248.98756 2467.6208,263.99256 2486.8818,279.50856 2506.0408,295.30556 2524.0538,312.27356 2541.8708,329.05756 2558.7508,346.67256 2574.9408,365.03656 2591.2478,383.53256 2607.1478,402.30656 2621.4508,422.41856 2635.3488,441.96256 2648.4468,462.42756 2659.5898,483.67756 2671.1238,505.67356 2681.1048,528.35656 2688.6188,552.05056 2692.2518,563.50656 2695.3368,575.14756 2698.5608,586.72256 2701.7738,598.25356 2704.9238,609.81956 2707.4578,621.52456 2712.6258,645.40556 2716.6718,669.47856 2719.1178,693.79656 2721.5718,718.19256 2723.1798,742.56356 2722.9808,767.09056 2722.7908,790.65456 2720.6908,814.43756 2717.7688,837.81156 2714.7368,862.07056 2710.5198,886.16156 2704.6398,909.90056 2701.6808,921.84356 2698.3948,933.69556 2695.0378,945.53154 2691.7468,957.13466 2688.5558,968.83466 2684.3988,980.16156 2676.0918,1002.8036 2666.1688,1024.8836 2654.1338,1045.8046 2641.9958,1066.9066 2628.8498,1087.4866 2614.2378,1106.9696 2599.1658,1127.0666 2582.6678,1145.9446 2565.8948,1164.6296 2549.8298,1182.5266 2532.8918,1199.7316 2514.8648,1215.6616 2496.0788,1232.2646 2476.8978,1248.3126 2457.1558,1263.7656 2438.2988,1278.5276 2418.9668,1292.7306 2399.3188,1306.4206 2378.7018,1320.7866 2357.7538,1334.6106 2336.4758,1347.9776 2326.4088,1354.3016 2316.0058,1360.1326 2305.6418,1365.9516 2295.0348,1371.9086 2284.3858,1378.0166 2273.4448,1383.3436 2250.7338,1394.3986 2227.7768,1404.7266 2204.3888,1414.2665 2181.7848,1423.4875 2159.0678,1432.2695 2136.0228,1440.3345 2117.4118,1446.8465 2098.5568,1452.4975 2079.5058,1457.5605" id="ocean"/>
  <g class="landxx coastxx idn" id="id" transform="translate(-29.9017,-45.0745)">
    <title>Indonesia</title>
    <path class="landxx idn" d="M 2240.928,891.143 C 2241.323,891.438 2241.27,891.747 2241.868,891.503 2242.066,892.57 2240.096,892.909 2239.918,894.314 2240.779,894.048 2241.651,894.281 2242.522,894.115 2243.657,893.898 2244.502,892.684 2245.654,892.651 2247.505,892.598 2248.138,892.068 2249.371,890.693 2250.166,889.806 2251.498,888.684 2251.832,887.571 2252.34,885.879 2251.3128,887.23785 2252.7978,886.74185 2252.7978,886.74185 2253.0456,886.78345 2253.3405,885.98555 2253.0173,885.94005 2252.9482,885.0359 2252.9565,884.31203 2254.5906,882.15607 2252.2426,881.77911 2252.2524,881.68626 2249.2734,882.89026 2251.595,883.52925 2248.09,884.20925 2247.2165,884.3785 2247.8947,886.85878 2247.2778,887.25075 2246.6609,887.64272 2246.499,886.32138 2246.0702,886.88738 2245.6414,887.45338 2244.1957,885.43797 2243.8866,886.12931 2243.5775,886.82066 2241.186,890.375 2240.928,891.143" id="path2392"/>
    <path d="M 2205.938,887.183 C 2206.619,888.97 2208.283,888.913 2209.898,889.093 2211.81,889.306 2213.33,891.076 2214.479,892.447 2216.636,895.019 2221.608,892.692 2219.01,889.817 2218.199,888.921 2217.589,888.176 2216.397,888.174 2216.453,888.174 2214.523,885.865 2214.279,885.646 2214.099,885.484 2210.9,885.535 2210.747,885.633 2209.259,886.589 2207.19,885.071 2205.938,887.183" id="path2342"/>
    <path d="M 2214.428,880.923 C 2215.198,880.511 2216.68,880.975 2217.577,880.874 2218.404,880.781 2219.648,880.962 2220.461,881.128 2221.35,881.31 2221.822,882.304 2222.843,881.839 2223.548,881.518 2225.228,882.137 2224.948,880.772 2227.184,881.71 2228.14,881.094 2230.295,880.308 2231.735,879.783 2236.781,880.496 2236.038,877.602 2237.033,877.793 2236.916,876.559 2237.838,876.533 2237.429,875.343 2236.158,873.568 2235.818,875.883 2236.273,875.598 2236.754,875.549 2237.257,875.734 2236.255,876.885 2234.468,876.963 2233.711,878.374 2232.796,880.082 2231.257,878.946 2230.293,878.047 2229.379,877.195 2228.25,878.603 2227.275,878.215 2226.76,878.01 2226.797,878.418 2226.472,878.724 2225.963,879.205 2224.983,878.367 2224.608,878.096 2223.36,877.195 2221.387,876.633 2219.91,876.287 2217.583,875.743 2216.836,876.627 2214.903,877.59 2213.934,878.074 2213.303,878.061 2213.193,879.41 2213.137,880.108 2213.407,882.178 2214.428,880.923" id="path2354"/>
    <path d="M 2220.479,865.373 C 2220.26,865.73 2220.26,866.09 2220.479,866.453 2220.756,866.307 2220.997,866.113 2221.199,865.873 2220.958,865.707 2220.719,865.54 2220.479,865.373" id="path2358"/>
    <path d="M 2221.708,867.533 C 2221.906,868.149 2222.788,867.831 2223.148,867.673 2222.661,867.702 2222.181,867.656 2221.708,867.533" id="path2360"/>
    <path d="M 2224.878,896.403 C 2225.131,896.509 2225.37,896.459 2225.598,896.253 2225.357,896.303 2225.118,896.353 2224.878,896.403" id="path2362"/>
    <path d="M 2226.388,895.893 C 2226.338,896.013 2226.288,896.133 2226.239,896.253 2226.813,896.472 2227.665,896.309 2228.128,895.909 2228.36,895.723 2228.416,895.495 2228.296,895.224 2227.809,894.308 2226.966,895.588 2226.388,895.893" id="path2364"/>
    <path d="M 2234.809,897.772 C 2234.501,898.238 2234.478,898.718 2234.739,899.212 2235.958,898.519 2237.804,897.314 2239.129,896.972 2238.878,896.508 2238.662,896.028 2238.48,895.533 2237.109,896.161 2236.337,897.227 2234.809,897.772" id="path2374"/>
    <path d="M 2236.828,878.333 C 2236.898,878.546 2236.968,878.759 2237.038,878.973 2237.341,878.441 2237.751,878.011 2238.268,877.683 2237.682,877.662 2237.201,877.878 2236.828,878.333" id="path2380"/>
    <path d="M 2238.338,876.313 C 2238.004,876.595 2237.838,876.955 2237.838,877.392 2238.449,877.315 2239.848,877.589 2240.068,876.743 2240.348,875.677 2238.827,876.03 2238.338,876.313" id="path2382"/>
    <path d="M 2239.559,892.513 C 2239.051,892.841 2238.72,893.417 2238.699,894.023 2239.635,894.148 2239.824,893.199 2239.559,892.513" id="path2384"/>
    <path d="M 2240.718,876.243 C 2240.914,876.463 2241.08,876.702 2241.218,876.963 2240.656,877.192 2239.765,877.606 2239.574,878.246 2239.238,879.378 2241.371,878.522 2241.798,878.833 2241.652,877.475 2243.732,876.382 2244.819,876.173 2243.415,874.627 2242.692,876.63 2241.718,877.103 2242.201,876.063 2241.465,876.127 2240.718,876.243" id="path2390"/>
    <path d="M 2245.108,876.813 C 2244.801,877.107 2244.658,877.467 2244.677,877.892 2245.294,877.746 2245.841,878.064 2246.117,878.613 2246.701,878.004 2247.903,876.535 2247.117,875.663 2246.729,876.464 2245.873,876.593 2245.108,876.813" id="path2402"/>
    <path d="M 2248.988,875.013 C 2248.566,875.481 2248,876.673 2249.347,875.953 2248.598,876.286 2247.952,876.968 2247.908,877.823 2249.684,877.654 2251.726,877.799 2253.387,877.051 2254.436,876.579 2254.08,875.475 2253.042,875.292 2252.428,875.184 2251.891,875.442 2251.278,875.383 2250.507,875.309 2249.781,874.907 2248.988,875.013" id="path2406"/>
    <path d="M 2257.918,875.163 C 2257.359,875.105 2256.939,876.063 2256.838,876.453 2257.377,876.214 2257.778,875.736 2257.918,875.163" id="path2410"/>
    <path d="M 2258.998,874.013 C 2260.504,872.756 2261.967,873.042 2263.748,873.352 2264.695,873.517 2265.65,871.68 2266.848,871.703 2265.284,869.772 2264.474,870.461 2262.215,871.34 2261.584,871.586 2261.143,871.012 2260.61,871.241 2259.635,871.659 2259.138,873.055 2258.998,874.013" id="path2420"/>
    <path d="M 2271.748,869.613 C 2271.439,869.991 2271.293,870.425 2271.309,870.913 2271.953,870.691 2272.259,870.186 2271.748,869.613" id="path2430"/>
    <path d="M 2273.258,875.303 C 2273.08,876.153 2273.321,876.202 2273.979,875.453 2273.738,875.403 2273.498,875.353 2273.258,875.303" id="path2436"/>
    <path d="M 2274.269,874.733 C 2273.948,875.988 2276.329,876.409 2276.569,875.012 2275.785,875.157 2275.014,874.949 2274.269,874.733" id="path2450"/>
    <path d="M 2276.638,875.663 C 2276.664,875.88 2276.692,876.097 2276.718,876.313 2276.989,876.134 2277.226,875.917 2277.428,875.663 2277.164,875.663 2276.901,875.663 2276.638,875.663" id="path2460"/>
    <path d="M 2281.178,865.803 C 2280.855,865.996 2280.688,866.283 2280.678,866.663 2281.464,866.752 2281.631,866.466 2281.178,865.803" id="path2472"/>
    <path d="M 2282.328,875.522 C 2282.557,876.011 2282.941,876.228 2283.478,876.172 2283.369,875.565 2282.906,875.297 2282.328,875.522" id="path2476"/>
    <path d="M 2288.448,872.133 C 2287.806,872.692 2288.14,874.062 2289.077,874.045 2290.862,874.013 2290.046,871.949 2288.448,872.133" id="path2480"/>
    </g>
  <g class="landxx coastxx aus" id="au" transform="translate(-29.9017,-45.0745)">
    <title>Australia</title>
    <path d="M 2139.048,1095.843 C 2140.988,1095.83 2143.001,1093.706 2143.798,1092.093 2144.706,1090.256 2143.619,1087.554 2145.528,1086.193 2145.071,1086.555 2144.835,1087.125 2144.958,1087.704 2144.976,1087.118 2145.312,1086.841 2145.889,1086.984 2145.403,1085.392 2146.66,1083.963 2147.17,1082.651 2148.281,1079.792 2147.781,1077.405 2147.299,1074.485 2146.852,1071.777 2145.839,1068.797 2146.595,1066.046 2147.314,1063.431 2148.565,1059.795 2148.135,1057.098 2147.957,1055.98 2147.34,1054.976 2147.304,1053.834 2147.267,1052.644 2147.304,1051.597 2146.847,1050.467 2146.411,1049.384 2145.407,1048.414 2145.348,1047.219 2145.28,1045.847 2145.936,1044.544 2145.993,1043.174 2146.104,1040.524 2145.26,1037.741 2143.827,1035.528 2143.223,1034.595 2142.499,1033.605 2142.276,1032.493 2142.071,1031.473 2142.95,1030.973 2142.869,1030.033 2143.101,1030.758 2142.87,1031.484 2142.719,1032.192 2143.283,1031.586 2143.496,1030.77 2143.519,1029.963 2143.377,1030.973 2143.986,1031.899 2143.799,1032.913 2144.152,1030.95 2144.025,1034.032 2143.949,1034.423 2144.951,1032.79 2144.412,1034.472 2144.518,1035.143 2146.424,1034.116 2147.313,1033.201 2145.723,1031.354 2144.636,1030.091 2143.847,1027.018 2145.239,1025.713 2145.891,1026.293 2146.343,1027.267 2146.542,1028.102 2146.813,1029.239 2145.813,1030.011 2145.89,1031.114 2146.802,1031.167 2147.269,1030.308 2147.4,1029.534 2147.552,1030.678 2147.17,1031.964 2147.798,1033.017 2148.148,1033.601 2149.14,1032.646 2149.266,1032.356 2150.101,1030.444 2150.786,1028.73 2149.767,1026.806 2148.9,1025.166 2148.978,1023.269 2147.882,1021.776 2147.464,1021.207 2147.69,1020.733 2147.69,1020.093 2147.691,1018.7 2146.992,1017.454 2146.81,1016.093 2146.526,1013.956 2147.795,1011.493 2148.984,1009.794 2150.372,1007.81 2151.354,1006.353 2151.87,1003.893 2152.107,1002.76 2151.29,1001.899 2151.29,1000.808 2151.29,999.658 2152.286,998.727 2152.761,997.751 2153.461,996.312 2154.104,993.861 2155.83,993.314 2156.029,994.195 2155.627,995.008 2155.318,995.8 2154.883,996.914 2155.171,998.149 2154.89,999.293 2157.243,998.481 2157.282,997.255 2158.419,995.333 2159.589,993.351 2161.537,992.485 2163.634,991.815 2166.596,990.87 2168.706,988.836 2171.081,986.908 2171.699,986.406 2172.427,985.099 2173.208,984.998 2174.956,984.773 2176.323,984.089 2177.499,982.722 2177.183,984.701 2179.312,982.956 2180.113,983.065 2180.872,983.168 2181.185,983.953 2182.044,983.953 2183.141,983.953 2184.179,983.574 2185.113,983.023 2187.137,981.83 2188.109,980.478 2190.604,980.483 2191.625,980.485 2192.731,980.464 2193.559,979.772 2194.497,978.988 2194.846,977.568 2196.294,977.568 2198.496,977.568 2199.848,977.936 2202.04,977.356 2204.576,976.685 2206.88,976.087 2209.201,974.837 2211.072,973.83 2217.983,969.667 2216.597,966.532 2217.382,966.613 2217.598,966.212 2217.796,965.554 2218.106,964.532 2219.052,964.181 2219.89,963.656 2221.112,962.89 2223.84,961.683 2222.574,960.154 2221.495,958.852 2222.175,955.185 2222.881,953.84 2223.283,953.072 2225.215,950.19 2226.309,951.483 2225.629,950.143 2226.641,950.293 2227.505,949.835 2228.565,949.274 2228.602,947.2 2230.059,946.512 2230.661,947.32 2228.754,949.168 2230.708,949.102 2229.34,951.003 2233.099,954.76 2232.868,956.813 2233.984,955.369 2233.028,953.038 2233.948,951.623 2234.768,952.032 2235.102,952.921 2235.677,953.573 2235.568,952.307 2235.376,951.395 2236.608,950.613 2235.638,950.944 2233.613,949.008 2234.448,948.092 2233.879,948.071 2233.561,947.734 2233.588,947.162 2234.645,947.995 2233.963,946.967 2234.909,946.79 2236.046,946.577 2234.823,945.309 2234.597,944.852 2235.59,944.228 2237.422,944.971 2235.887,945.292 2236.459,945.5 2236.829,945.968 2236.537,946.582 2237.201,946.404 2237.311,945.461 2237.977,945.397 2238.85,945.313 2238.877,945.907 2239.421,946.351 2240.102,946.906 2240.513,945.907 2241.238,946.334 2242.051,946.813 2242.987,946.208 2243.806,946.722 2243.113,945.86 2242.464,946.31 2241.576,946.002 2240.342,945.575 2241.255,944.666 2241.356,943.772 2241.517,944.019 2241.687,944.259 2241.866,944.493 2242.896,943.791 2242.437,942.238 2243.666,941.692 2243.049,941.459 2242.609,941.841 2242.437,942.413 2241.55,941.477 2240.926,939.506 2242.422,938.804 2243.107,938.483 2245.204,937.84 2244.096,936.793 2244.884,936.831 2245.463,937.391 2246.07,937.813 2246.257,938.094 2246.438,938.377 2246.617,938.664 2246.999,938.768 2247.382,938.865 2247.767,938.954 2246.651,938.293 2247.483,937.021 2245.827,937.004 2246.126,936.487 2246.556,936.128 2247.117,935.924 2246.572,936.034 2246.092,936.274 2245.677,936.644 2245.616,935.677 2247.972,933.807 2247.837,935.424 2247.916,933.78 2249.046,935.856 2250.067,935.644 2249.685,934.966 2248.831,934.252 2249.426,933.415 2247.256,933.299 2249.809,931.373 2249.926,930.604 2250.754,931.481 2251.049,929.971 2251.947,930.535 2252.18,929.708 2252.118,928.847 2252.227,928.005 2253.303,928.228 2252.864,930.208 2252.227,931.105 2253.571,929.568 2252.988,929.46 2254.176,931.255 2254.206,930.477 2255.053,930.501 2255.186,929.815 2255.268,929.394 2255.586,928.293 2255.756,927.935 2256.031,927.355 2257.071,927.397 2256.482,926.535 2256.28,926.356 2256.052,926.31 2255.797,926.4 2255.54,926.415 2254.815,925.003 2256.187,926.066 2255.876,925.191 2257.451,924.531 2256.477,925.925 2258.07,924.47 2256.103,927.834 2257.987,927.365 2257.603,926.485 2258.457,925.719 2259.287,925.705 2258.808,926.351 2259.325,926.944 2259.717,927.434 2260.404,926.662 2261.828,926.352 2262.238,925.344 2262.561,924.55 2261.285,924.19 2262.741,923.589 2263.566,923.249 2263.954,925.329 2265.254,925.365 2266.365,925.396 2266.49,925.956 2267.259,926.763 2268.235,927.789 2268.768,929.135 2269.729,930.173 2270.304,930.795 2271.178,931.557 2271.098,932.5 2271.009,933.544 2270.378,934.487 2270.202,935.528 2270.038,936.5 2270.029,937.947 2269.229,938.663 2270.139,938.213 2269.516,937.11 2270.159,936.642 2271.024,936.012 2271.286,937.389 2271.388,937.942 2271.799,936.939 2270.561,935.972 2271.029,934.993 2271.604,933.791 2272.23,935.078 2273.119,934.703 2272.265,931.241 2279.11,932.463 2278.369,935.852 2279.53,935.409 2279.064,934.043 2279.089,933.123 2280.699,933.261 2281.21,936.458 2282.549,936.143 2282.244,935.386 2281.439,933.984 2282.38,933.309 2283.039,932.836 2283.921,933.226 2284.56,932.614 2283.301,932.784 2282.54,932.402 2282.12,931.174 2282.683,931.144 2283.187,930.953 2283.63,930.604 2282.514,930.947 2280.02,930.065 2280.932,928.538 2281.303,927.915 2281.477,926.982 2282.04,926.495 2282.536,926.066 2283.649,926.361 2283.915,925.64 2284.344,924.469 2284.55,923.01 2285.138,921.924 2285.682,920.919 2286.12,922.048 2286.83,921.476 2287.29,921.105 2288.45,919.78 2289.1,920.165 2288.504,919.542 2287.767,918.41 2287.941,917.498 2288.234,915.954 2288.856,917.186 2289.539,916.078 2289.995,915.339 2289.809,914.596 2290.688,914.084 2291.321,913.716 2291.739,914.784 2292.481,914.615 2291.696,914.302 2291.447,912.128 2292.34,911.815 2293.284,911.484 2293.932,913.69 2294.79,913.894 2293.878,913.213 2293.729,910.724 2295.43,911.524 2295.64,910.915 2295.196,910.179 2295.964,909.87 2296.75,909.554 2297.033,910.708 2297.521,909.505 2298.714,912.272 2305.947,909.406 2306.09,911.085 2306.09,909.894 2307.331,909.033 2308.39,909.725 2307.273,908.541 2308.558,906.753 2308.25,905.406 2307.781,903.349 2305.802,903.64 2304.29,904.326 2304.335,903.346 2303.106,902.904 2302.556,902.454 2302.2,902.162 2303.758,901.202 2303.861,900.935 2304.573,901.491 2304.721,902.363 2304.941,903.175 2305.393,902.492 2305.481,901.666 2305.081,900.935 2305.502,901.774 2306.047,901.838 2306.521,901.005 2306.772,902.089 2308.435,903.33 2309.041,904.325 2309.494,903.74 2310.888,903.678 2310.481,902.665 2311.397,903.303 2311.777,906.083 2312.861,906.074 2313.821,906.065 2315.13,905.949 2315.021,907.054 2316.097,907.095 2316.874,905.754 2317.97,906.124 2316.105,907.518 2320.298,907.208 2319.7,909.144 2320.408,907.842 2320.574,908.778 2321.556,908.963 2322.672,909.172 2323.284,908.294 2324.31,908.134 2324.568,910.425 2326.773,910.103 2328.27,910.584 2327.127,908.772 2332.111,909.656 2330.499,908.134 2331.429,907.901 2332.881,907.661 2332.879,906.414 2333.54,907.336 2332.262,907.956 2331.65,908.353 2333.02,908.353 2331.96,908.809 2331.457,909.379 2330.976,909.925 2330.807,910.5 2331.22,911.163 2331.718,910.461 2332.36,909.654 2333.311,909.642 2332.354,910.657 2333.541,910.083 2333.503,911.243 2333.491,911.603 2333.547,912.148 2333.979,912.268 2334.885,912.522 2335.797,911.241 2336.111,910.582 2333.522,910.54 2337.657,907.966 2338.131,907.492 2336.882,908.148 2337.876,910.461 2338.921,910.802 2338.269,909.623 2339.689,909.82 2340.052,910.32 2340.361,910.743 2340.082,911.403 2339.891,911.806 2339.22,913.22 2337.88,915.186 2336.402,915.772 2336.866,916.202 2337.225,916.705 2337.482,917.283 2337.228,917.098 2336.964,916.928 2336.692,916.772 2336.436,917.891 2336.357,918.91 2335.181,919.442 2335.165,918.961 2335.191,918.481 2335.251,918.003 2334.707,918.334 2334.228,918.741 2333.812,919.223 2333.723,917.494 2332.662,919.174 2332.662,919.803 2332.446,918.244 2330.832,920.119 2331.802,921.023 2329.645,920.612 2331.19,924.73 2332.372,922.753 2331.304,924.983 2330.262,926.982 2328.832,928.996 2328.224,929.854 2327.609,930.748 2326.836,931.468 2325.949,932.295 2325.459,931.98 2326.197,933.431 2327.199,935.401 2329.502,936.087 2330.799,937.789 2331.559,938.785 2332.051,939.707 2333.137,940.392 2333.898,940.872 2334.639,941.477 2334.313,942.484 2335.136,942.167 2335.977,942.84 2336.552,941.904 2337.341,943.139 2338.706,943.742 2339.942,944.421 2341.522,945.291 2342.243,946.514 2343.326,947.886 2345.197,950.255 2347.923,949.412 2350.222,951.066 2351.448,951.948 2350.52,953.753 2351.634,954.649 2352.242,955.14 2353.058,955.1 2353.632,955.687 2354.234,956.301 2354.96,956.703 2355.657,957.199 2357.787,958.713 2362.425,957.258 2363.684,954.973 2365.491,951.695 2367.821,948.447 2369.15,944.92 2369.915,942.894 2370.489,940.803 2371.241,938.773 2372.042,936.614 2372.974,934.977 2372.819,932.6 2372.697,930.741 2372.809,929.624 2373.481,927.938 2374.157,926.231 2372.602,924.726 2373.497,922.855 2374.223,921.338 2375.704,920.127 2375.242,918.331 2374.713,916.271 2376.469,916.172 2376.873,914.475 2377.309,914.885 2377.525,915.388 2377.523,915.986 2377.502,915.409 2377.866,914.972 2378.382,914.765 2378.094,914.728 2376.58,913.086 2376.432,912.745 2376.19,912.955 2375.953,913.171 2375.722,913.394 2375.558,912.575 2376.12,911.468 2376.666,910.896 2376.869,910.649 2377.128,910.521 2377.442,910.514 2377.041,909.721 2377.528,908.945 2378.022,908.354 2378.183,908.914 2378.588,909.199 2379.171,909.075 2379.066,906.05 2380.898,903.778 2381.261,900.865 2381.378,899.921 2381.376,899.298 2382.407,898.881 2383.377,898.489 2383.84,896.774 2385.071,897.625 2384.713,898.099 2384.402,898.602 2384.14,899.135 2384.393,898.974 2384.657,898.83 2384.93,898.705 2385.23,899.62 2386.141,900.057 2385.97,901.09 2385.895,901.513 2385.939,901.925 2386.102,902.327 2386.391,903.266 2385.941,903.261 2385.941,904.099 2385.941,904.989 2385.757,905.905 2385.91,906.79 2386.108,907.938 2387.891,907.809 2388.681,908.214 2387.243,909.276 2386.781,910.388 2387.91,911.641 2389.113,912.974 2388.912,914.095 2388.532,915.774 2390.134,915.46 2389.337,922.228 2388.995,923.037 2388.579,924.02 2389.171,924.768 2389.475,925.682 2389.832,926.751 2389.278,927.891 2389.761,928.945 2390.618,930.812 2392.967,929.64 2393.211,928.006 2394.669,929.823 2395.36,925.662 2396.026,929.583 2396.179,930.488 2398.024,931.576 2398.629,932.429 2398.705,932.537 2400.801,933.896 2400.991,933.916 2400.525,934.66 2399.147,936.115 2400.631,936.645 2398.652,939.046 2401.046,941.668 2400.118,944.27 2399.548,945.88 2399.22,946.702 2400.06,948.175 2400.485,948.918 2401.75,950.332 2401.201,951.265 2401.641,950.892 2402.147,950.676 2402.721,950.616 2402.338,952.136 2402.093,952.748 2402.495,954.333 2402.796,955.515 2402.782,956.758 2402.602,957.96 2402.405,959.292 2401.707,960.154 2401.182,961.341 2400.546,962.777 2402.172,963.097 2402.065,964.246 2401.98,965.152 2403.254,964.464 2402.854,965.617 2402.505,966.62 2401.426,967.417 2402.051,968.563 2402.419,969.236 2403.628,970.672 2404.508,970.591 2405.326,970.516 2406.039,972.542 2406.89,970.925 2406.795,972.814 2409.877,973.116 2409.561,971.855 2410.052,972.919 2409.754,975.837 2411.14,976.255 2411.167,975.69 2411.506,975.349 2412.071,975.316 2411.641,976.807 2413.299,976.918 2414.339,977.302 2415.193,977.617 2414.181,979.477 2415.852,978.973 2416.217,978.863 2415.933,978.232 2416.279,978.09 2417.008,977.791 2416.92,978.938 2416.996,979.244 2417.161,979.901 2417.91,979.533 2418.212,980.13 2418.555,980.809 2418.511,981.613 2418.842,982.296 2418.467,981.546 2417.464,981.415 2417.098,982.254 2416.634,983.318 2418.043,984.467 2417.332,985.465 2421.23,984.065 2418.393,991.058 2421.072,991.005 2420.15,992.074 2420.19,993.799 2420.316,995.115 2420.423,996.22 2421.499,998.141 2420.641,999.145 2422.055,998.568 2422.241,998.993 2422.881,1000.225 2423.525,998.948 2422.752,997.528 2423.741,996.335 2424.919,997.388 2425.501,998.982 2426.911,999.795 2427.116,999.394 2426.941,998.599 2427.271,998.285 2427.895,997.69 2428.375,998.147 2428.439,998.849 2428.604,1000.717 2428.409,1001.883 2427.799,1003.633 2427.438,1004.673 2427.723,1005.733 2427.384,1006.81 2426.703,1008.974 2428.194,1007.589 2428.85,1008.935 2428.655,1008.414 2428.728,1007.934 2429.071,1007.496 2430.667,1008.008 2430.559,1011.841 2428.991,1009.225 2429.165,1010.374 2432.451,1014.185 2432.451,1012.175 2434.089,1013.496 2433.69,1015.427 2434.541,1017.145 2434.942,1017.956 2435.817,1018.129 2436.341,1018.805 2436.957,1019.601 2436.541,1020.566 2436.682,1021.479 2436.988,1023.466 2438.964,1022.709 2438.721,1024.635 2438.628,1025.362 2437.925,1025.867 2437.779,1026.583 2437.582,1027.551 2438.52,1028.112 2438.072,1029.246 2438.295,1028.989 2438.535,1028.748 2438.792,1028.525 2439.883,1029.421 2438.154,1030.643 2437.852,1031.475 2437.311,1032.962 2436.84,1034.767 2436.583,1036.33 2436.389,1037.516 2436.699,1038.575 2435.687,1039.374 2434.591,1040.24 2434.679,1041.066 2435.445,1042.14 2435.965,1042.869 2435.851,1044.896 2435.668,1045.765 2435.545,1046.347 2435.303,1046.955 2435.327,1047.56 2435.352,1048.22 2435.853,1048.618 2435.692,1049.332 2434.909,1052.784 2433.293,1054.989 2431.31,1057.837 2429.177,1060.9 2428.001,1064.416 2425.646,1067.397 2423.662,1069.908 2423.52,1072.913 2421.58,1075.409 2420.638,1076.621 2419.843,1077.974 2418.842,1079.135 2417.851,1080.284 2416.291,1080.895 2415.508,1082.222 2415.006,1083.074 2414.769,1084.647 2414.092,1085.335 2413.688,1085.745 2412.995,1085.711 2412.535,1086.038 2411.686,1086.639 2410.849,1087.536 2409.772,1087.705 2411.632,1087.883 2408.619,1088.601 2408.136,1088.753 2406.859,1089.153 2405.7,1090.322 2404.882,1091.338 2404.301,1092.058 2403.318,1092.349 2402.714,1093.056 2401.875,1094.04 2402.073,1095.098 2400.341,1094.906 2400.218,1095.552 2400.385,1095.769 2400.841,1095.555 2400.302,1096.329 2399.889,1097.214 2399.349,1097.972 2398.922,1098.575 2398.288,1098.374 2397.855,1099.09 2396.968,1100.559 2395.247,1101.034 2394.465,1102.601 2394.069,1103.394 2394.204,1103.141 2393.564,1103.27 2393.543,1103.28 2393.132,1104.668 2392.921,1104.9 2392.556,1105.302 2390.433,1107.177 2391.631,1107.645 2391.278,1108.216 2390.812,1108.869 2390.692,1107.645 2390.187,1108.101 2390.4,1109.063 2389.625,1109.177 2388.664,1109.319 2388.178,1109.6 2387.512,1110.354 2385.84,1112.248 2384.016,1114.068 2382.483,1116.076 2381.172,1117.794 2380.251,1119.856 2378.924,1121.589 2378.169,1122.574 2376.671,1125.247 2375.572,1125.726 2376.61,1125.956 2375.656,1127.535 2375.369,1127.984 2375.103,1128.396 2374.801,1128.807 2374.439,1129.142 2373.877,1129.663 2373.284,1129.213 2372.739,1129.496 2371.061,1130.368 2370.23,1131.446 2368.113,1131.699 2365.864,1131.968 2363.592,1131.747 2361.341,1131.965 2356.788,1132.403 2352.984,1135.168 2349.337,1137.69 2347.672,1138.841 2345.93,1139.413 2343.903,1139.581 2341.922,1139.745 2342.446,1139.364 2342.091,1141.277 2342.535,1140.901 2343.038,1140.638 2343.601,1140.487 2343.349,1141.459 2342.456,1142.787 2341.522,1143.216 2341.474,1142.577 2341.718,1141.545 2341.276,1141.001 2340.59,1140.155 2340.17,1141.09 2339.351,1141.136 2339.552,1140.404 2339.477,1139.642 2339.572,1138.897 2338.643,1139.098 2337.991,1139.608 2337.824,1138.389 2337.643,1137.069 2338.798,1137.038 2339.227,1135.957 2339.844,1134.404 2336.298,1136.661 2336.116,1136.816 2334.662,1138.051 2334.088,1137.565 2333.312,1136.166 2334.284,1137.245 2335.496,1136.028 2336.261,1135.376 2337.514,1134.309 2336.916,1133.615 2336.982,1132.206 2335.093,1132.527 2333.416,1133.848 2331.801,1134.796 2332.534,1135.033 2333.294,1134.643 2333.961,1135.156 2333.304,1136.09 2331.944,1135.825 2331.001,1136.166 2329.646,1136.656 2328.103,1137.457 2326.972,1138.354 2325.838,1139.253 2324.643,1139.715 2323.368,1140.36 2322.313,1140.893 2322.1,1140.005 2320.994,1139.444 2319.08,1138.474 2317.873,1136.393 2315.608,1136.706 2314.346,1136.88 2313.789,1135.438 2312.497,1135.687 2311.775,1135.826 2311.608,1136.346 2311.007,1136.628 2310.564,1136.836 2309.955,1136.57 2309.482,1136.666 2311.421,1134.439 2305.695,1133.877 2305.013,1132.907 2304.328,1131.934 2303.979,1130.639 2303.974,1129.458 2303.974,1128.711 2302.843,1128.241 2303.029,1126.909 2303.355,1124.555 2305.522,1123.458 2306.022,1121.336 2306.822,1117.939 2305.599,1115.046 2303.501,1112.406 2305.302,1113.621 2306.237,1115.834 2306.381,1117.945 2306.7,1116.518 2306.235,1115.301 2305.415,1114.136 2304.873,1113.364 2303.8,1111.842 2305.591,1111.975 2305.551,1112.48 2305.501,1112.983 2305.442,1113.486 2306.321,1113.328 2306.182,1112.833 2306.25,1112.14 2306.332,1111.306 2307.719,1111.514 2307.313,1110.675 2306.854,1109.726 2303.782,1110.841 2304.512,1111.975 2304.149,1111.867 2301.732,1111.593 2303.792,1112.255 2302.068,1112.081 2298.857,1114.388 2297.382,1112.835 2298.121,1111.812 2299.468,1111.262 2300.519,1110.634 2301.464,1110.07 2302.041,1108.857 2302.515,1107.913 2303.774,1105.407 2303.597,1102.674 2302.993,1099.944 2302.343,1100.342 2302.312,1101.065 2301.806,1101.571 2301.243,1102.135 2300.599,1102.621 2300.122,1103.269 2299.148,1104.596 2298.287,1106.067 2297.428,1107.471 2296.487,1109.012 2296.271,1108.731 2294.637,1108.571 2293.087,1108.42 2291.46,1110.016 2289.752,1109.955 2290.016,1109.006 2291.037,1107.928 2291.762,1107.295 2292.982,1106.228 2294.561,1107.617 2295.748,1106.5 2297.819,1104.552 2297.691,1101.093 2299.619,1098.929 2300.689,1097.728 2301.327,1096.908 2302.739,1096.098 2304.395,1095.149 2303.78,1093.999 2304.302,1092.488 2304.595,1091.637 2305.534,1091.497 2306.176,1091.026 2306.382,1090.876 2306.199,1089.736 2306.194,1089.545 2306.179,1089.046 2306.994,1086.716 2306.228,1086.372 2305.914,1086.231 2305.467,1088.588 2305.35,1088.819 2304.729,1090.043 2302.849,1090.832 2301.901,1091.873 2300.974,1092.891 2300.148,1093.995 2299.181,1094.976 2298.763,1095.4 2298.345,1096.088 2297.742,1096.276 2297.221,1096.437 2296.734,1095.981 2296.232,1096.136 2295.298,1096.427 2294.265,1097.61 2293.197,1098.001 2291.644,1098.571 2290.467,1099.807 2289.348,1100.972 2288.938,1101.399 2287.408,1103.443 2286.871,1103.331 2285.345,1103.014 2285.07,1105.25 2284.201,1105.926 2284.702,1105.717 2285.208,1105.524 2285.721,1105.346 2285.097,1105.992 2285.01,1106.956 2284.351,1107.576 2283.867,1106.099 2282.515,1107.071 2281.925,1105.892 2281.506,1105.057 2281.057,1103.214 2279.741,1103.975 2280.075,1103.417 2280.52,1102.925 2281.041,1102.536 2280.863,1103.487 2282.056,1104.278 2282.245,1102.992 2282.461,1101.515 2282.841,1100.039 2282.841,1098.537 2282.841,1097.131 2280.919,1096.236 2281.53,1094.77 2281.77,1094.194 2282.163,1093.583 2281.839,1092.95 2281.581,1092.449 2281.267,1092.159 2281.681,1091.596 2280.989,1092.174 2280.484,1091.468 2279.718,1091.67 2278.624,1091.959 2279.089,1091.189 2278.881,1090.726 2278.774,1090.488 2278.216,1089.235 2278.379,1089.03 2278.603,1088.748 2280.035,1086.635 2279.601,1088.426 2280.285,1087.932 2280.978,1086.838 2280.402,1086.009 2279.729,1085.04 2278.63,1085.869 2277.801,1086.046 2277.957,1085.558 2278.713,1084.895 2278.664,1084.373 2278.6,1083.682 2277.858,1083.324 2277.792,1082.596 2277.758,1082.232 2275.406,1083.26 2275.323,1083.25 2273.843,1083.075 2272.696,1081.796 2271.38,1081.21 2269.911,1080.557 2269.807,1082.148 2268.679,1081.948 2265.81,1081.437 2264.637,1077.484 2261.606,1077.151 2260.589,1077.039 2259.808,1077.634 2258.906,1077.956 2257.808,1078.347 2256.568,1077.868 2255.441,1077.858 2252.606,1077.833 2249.274,1077.969 2246.502,1078.573 2241.371,1079.692 2236.826,1082.641 2231.609,1083.687 2229.098,1084.19 2226.842,1084.1 2224.318,1083.868 2221.241,1083.585 2219.613,1084.877 2216.998,1086.205 2214.859,1087.291 2212.377,1088.731 2210.062,1089.351 2207.58,1090.015 2205.929,1090.167 2204.331,1092.391 2203.109,1094.091 2201.898,1095.711 2200.215,1096.996 2199.913,1097.226 2198.57,1098.404 2198.165,1098.208 2197.06,1097.674 2196.479,1098.742 2195.352,1098.936 2196.041,1097.162 2190.629,1097.826 2189.85,1098.135 2188.549,1098.653 2188.326,1099.465 2187.78,1097.683 2187.766,1097.637 2184.156,1097.405 2183.704,1097.35 2181.727,1097.111 2179.385,1097.685 2177.443,1098.055 2175.981,1098.334 2174.713,1098.204 2173.271,1098.432 2171.431,1098.722 2167.285,1099.605 2167.783,1102.256 2167.359,1102.038 2166.059,1102.827 2165.594,1103.108 2164.919,1103.513 2164.253,1102.608 2163.512,1102.717 2162.772,1102.826 2162.235,1103.477 2161.714,1103.948 2161.151,1104.458 2160.635,1104.627 2159.916,1104.898 2158.869,1105.292 2158.672,1105.893 2157.862,1106.52 2156.778,1107.359 2155.192,1107.772 2153.813,1107.725 2155.582,1108.495 2151.823,1108.149 2151.137,1108.08 2148.727,1107.84 2146.365,1107.986 2143.952,1107.505 2144.043,1107.264 2144.137,1107.025 2144.232,1106.785 2142.136,1107.137 2141.172,1105.354 2140.305,1103.942 2139.593,1102.784 2137.698,1100.425 2136.242,1101.964 2134.979,1100.62 2136.591,1094.337 2139.048,1095.843" id="path3348"/>
    </g>
  <g id="tl">
    <title>Timor-Leste</title>
    <g class="world_map-is_selected landxx tls" id="tl-" transform="translate(-29.9017,-45.0745)">
      <path d="M 2252.9175,884.3125 C 2252.9725,887.0145 2253.6,885.886 2255.257,884.882 2256.841,883.922 2259.292,883.342 2261.051,882.659 2263.883,881.559 2267.953,880.504 2269.935,877.947 2271.076,876.476 2268.007,876.776 2267.352,876.969 2265.572,877.495 2263.998,877.729 2262.175,878.04 2260.222,878.373 2258.414,878.336 2256.407,878.762 2255.651,878.923 2254.628,878.827 2253.99,879.342 2253.315,879.886 2252.9342,881.1755 2252.2302,881.7025 2253.9042,882.5135 2253.7415,882.9685 2252.9175,884.3125 z" id="path2786"/>
      <path d="M 2243.958,886.033 C 2245.29,885.044 2246.2971,884.60118 2247.9241,884.29418 2247.5767,884.4489 2247.8691,887.55231 2247.0765,887.36277 2246.4781,887.21974 2246.3449,886.58784 2246.2079,886.78361 2245.6041,887.64648 2244.5241,885.82651 2243.9521,886.05154" id="path2788"/>
    </g>
    <circle class="world_map-is_selected circlexx tls" cx="2230.8491" cy="836.73077" id="tl." r="6.0130301" rx="6.0130301" ry="6.0130301"/>
  </g>
  </svg>