<svg xmlns="http://www.w3.org/2000/svg" class="world_map" height="127" id="svg2985" version="1.1" viewBox="2610 900 55 55" width="127">
  <title>World Map</title>
  <defs id="defs2987"/>
  <style id="style_css_sheet" type="text/css">
/*
 * Below are Cascading Style Sheet (CSS) definitions in use in this file,
 * which allow easily changing how countries are displayed.
 *
 */
/* --- Custom styles for Peace Corps --- */
.world_map .world_map-is_selected {
  fill: #C94112 !important;
}
.world_map .landxx {
  fill: #F2EFE8;
  fill-rule: evenodd;
}
.world_map .coastxx {
  fill: #F2EFE8;
  fill-rule: evenodd;
}
.world_map .oceanxx {
  opacity: 1;
  color: #ccc;
  fill: #ffffff;
}

/* --- Original Styles --- *
/*
 * Circles around small countries
 *
 * Change opacity to 1 to display all circles.
 *
 */
.circlexx
{
   opacity:0;
   fill:#e0e0e0;
   stroke:#000000;
   stroke-width:0.5;
}

/*
 * Smaller circles around French DOMs and Chinese SARs
 *
 * Change opacity to 1 to display all subnational circles.
 *
 */
.subxx
{
   opacity:0;
   stroke-width:0.3;
}

/*
 * Circles around small, unrecognized countries
 *
 * Change opacity to 1 to display all circles.
 *
 */
.unxx
{
   opacity:0;
   fill:#e0e0e0;
   stroke:#000000;
   stroke-width:0.3;
}

/*
 * Circles around small countries, but with no permanent residents 
 *
 * Change opacity to 1 to display all circles.
 *
 */
.noxx
{
   opacity:0;
   fill:#e0e0e0;
   stroke:#000000;
   stroke-width:0.5;
}

/*
 * land
 */
.landxx
{
}
/*
 * Styles for coastlines of islands with no borders
 */


/*
 * Styles for nations with limited recognition
 */
.limitxx
{
   fill: #e0e0e0;
   stroke:#ffffff;
   stroke-width:0;
   fill-rule:evenodd;
}

/*
 * Styles for nations with no permanent population.
 */
.antxx
{
   fill: #e0e0e0;
   stroke:#ffffff;
   stroke-width:0;
   fill-rule:evenodd;
}

/*
 * Ocean
 */


/*
 * Additional style rules
 *
 * The following are examples of colouring countries.  You can substitute these with your own styles to colour the countries on the map.
 *
 * Color a few countries:
 *
 * .gb, .au, .nc
 * {
 *    fill:       #ff0000;
 * }
 *
 * Color a few small country circles (and the countries):
 *
 * .ms, .ky
 * {
 *    opacity:    1;
 *    fill:       #ff0000;
 * }
 *
 */

</style>
  <path class="oceanxx" d="M 2079.5058,1457.5605 615.24779,1457.5605 C 615.13079,1457.5605 615.07079,1457.5505 614.95179,1457.5215 611.67679,1456.6515 608.40179,1455.7815 605.12779,1454.9105 599.15079,1453.3225 593.22879,1451.5225 587.30779,1449.7385 564.39379,1442.8315 541.76579,1434.6995 519.46979,1426.0115 495.81079,1416.7935 472.34979,1407.0946 449.19179,1396.6816 426.78379,1386.6056 405.17679,1375.0536 383.76379,1363.0356 363.11779,1351.4496 343.01079,1338.8296 323.37979,1325.5996 302.29179,1311.3876 281.47879,1296.8506 261.05379,1281.7006 242.35079,1267.8276 223.73679,1253.6306 206.05279,1238.4686 186.98679,1222.1216 167.82379,1205.7706 150.35279,1187.6906 132.97779,1169.7106 116.33279,1151.0606 100.15679,1131.9976 84.352777,1113.3736 70.086776,1093.4716 56.901786,1072.9246 44.046786,1052.8916 32.093776,1032.1356 22.469776,1010.3426 17.516776,999.12753 12.408776,987.76556 8.7017761,976.06056 5.0657761,964.58166 1.5997761,953.04259 -1.5932239,941.43054 -8.0102239,918.09356 -14.055224,894.78356 -18.234224,870.92056 -22.491222,846.60856 -24.894222,822.19856 -26.943222,797.62156 -28.947222,773.58556 -28.829222,749.40156 -27.225222,725.34856 -25.648222,701.69856 -23.363222,677.92456 -19.274222,654.56456 -15.018224,630.25156 -9.3842239,606.45156 -2.8412239,582.66156 3.5687761,559.35256 10.483776,536.34856 20.265776,514.19856 30.320776,491.42956 42.318786,469.90956 55.502786,448.81656 68.512776,428.00356 83.108777,408.26756 98.686787,389.31756 113.73479,371.01156 129.68979,353.25256 146.15179,336.20856 163.77479,317.96256 182.64579,301.14556 201.89579,284.64756 220.33379,268.84456 239.55379,253.98456 258.95979,239.39656 278.42779,224.76056 298.39379,210.83356 318.55579,197.17556 339.26979,183.14456 360.47879,169.92056 382.15079,157.42556 403.46579,145.13656 425.31479,133.98856 447.60479,123.59356 469.58579,113.34356 492.14979,104.17656 514.74579,95.37556 537.44879,86.532565 560.37879,78.195565 583.63479,70.914565 589.69379,69.017565 595.80079,67.276565 601.90879,65.549565 604.63079,64.779565 607.36079,64.045565 610.09479,63.318565 611.59979,62.918565 613.56579,61.986565 615.13379,61.986565 L 2079.9638,61.986565 C 2079.9798,61.986565 2079.9958,61.986565 2080.0118,61.986565 2079.8448,61.986565 2079.6788,61.986565 2079.5118,61.986565 2102.8268,68.191565 2125.8778,75.323565 2148.5448,83.611565 2171.6378,92.054565 2194.6158,100.87956 2217.2348,110.52956 2240.5208,120.46556 2263.4848,130.95256 2285.8828,142.76456 2306.9808,153.89056 2327.8178,165.78556 2347.8608,178.72156 2368.9418,192.32656 2389.7498,206.29256 2410.2218,220.80056 2429.7368,234.62956 2448.9938,248.98756 2467.6208,263.99256 2486.8818,279.50856 2506.0408,295.30556 2524.0538,312.27356 2541.8708,329.05756 2558.7508,346.67256 2574.9408,365.03656 2591.2478,383.53256 2607.1478,402.30656 2621.4508,422.41856 2635.3488,441.96256 2648.4468,462.42756 2659.5898,483.67756 2671.1238,505.67356 2681.1048,528.35656 2688.6188,552.05056 2692.2518,563.50656 2695.3368,575.14756 2698.5608,586.72256 2701.7738,598.25356 2704.9238,609.81956 2707.4578,621.52456 2712.6258,645.40556 2716.6718,669.47856 2719.1178,693.79656 2721.5718,718.19256 2723.1798,742.56356 2722.9808,767.09056 2722.7908,790.65456 2720.6908,814.43756 2717.7688,837.81156 2714.7368,862.07056 2710.5198,886.16156 2704.6398,909.90056 2701.6808,921.84356 2698.3948,933.69556 2695.0378,945.53154 2691.7468,957.13466 2688.5558,968.83466 2684.3988,980.16156 2676.0918,1002.8036 2666.1688,1024.8836 2654.1338,1045.8046 2641.9958,1066.9066 2628.8498,1087.4866 2614.2378,1106.9696 2599.1658,1127.0666 2582.6678,1145.9446 2565.8948,1164.6296 2549.8298,1182.5266 2532.8918,1199.7316 2514.8648,1215.6616 2496.0788,1232.2646 2476.8978,1248.3126 2457.1558,1263.7656 2438.2988,1278.5276 2418.9668,1292.7306 2399.3188,1306.4206 2378.7018,1320.7866 2357.7538,1334.6106 2336.4758,1347.9776 2326.4088,1354.3016 2316.0058,1360.1326 2305.6418,1365.9516 2295.0348,1371.9086 2284.3858,1378.0166 2273.4448,1383.3436 2250.7338,1394.3986 2227.7768,1404.7266 2204.3888,1414.2665 2181.7848,1423.4875 2159.0678,1432.2695 2136.0228,1440.3345 2117.4118,1446.8465 2098.5568,1452.4975 2079.5058,1457.5605" id="ocean"/>
  <g id="fj">
    <title>Fiji</title>
    <g class="landxx coastxx fji" id="fj-" transform="translate(-29.9017,-45.0745)">
      <path d="M 2638.008,953.213 C 2638.248,952.997 2638.488,952.78 2638.729,952.564 2638.146,952.556 2638.168,952.763 2638.008,953.213" id="path5538"/>
      <path d="M 2640.388,950.403 C 2640.929,950.064 2641.409,949.654 2641.828,949.173 2641.278,949.502 2640.799,949.912 2640.388,950.403" id="path5544"/>
      <path d="M 2638.438,961.703 C 2639.938,962.331 2641.293,963.007 2642.937,962.443 2644.03,962.068 2646.482,961.675 2647.32,960.957 2647.9,960.459 2647.584,960.328 2647.193,959.95 2646.998,959.762 2647.24,958.615 2647.273,958.259 2647.361,957.331 2646.527,955.143 2645.427,955.803 2646.784,953.954 2641.202,955.55 2640.684,955.758 2639.067,956.406 2634.71,961.064 2638.438,961.703" id="path5536"/>
      <path d="M 2640.598,970.413 C 2641.081,970.077 2641.549,969.72 2642.002,969.343 2642.46,968.974 2643.161,969.56 2643.698,969.263 2643.346,967.589 2640.199,969.371 2639.878,970.343 2640.118,970.366 2640.357,970.39 2640.598,970.413" id="path5542"/>
      <path d="M 2648.668,958.253 C 2648.951,958.086 2649.215,957.893 2649.458,957.673 2648.729,957.113 2648.466,957.306 2648.668,958.253" id="path5546"/>
      <path d="M 2661.048,944.573 C 2658.519,944.439 2656.599,946.337 2654.241,946.694 2652.954,946.889 2652.058,947.661 2651.02,948.388 2650.185,948.973 2648.509,948.641 2648.667,950.113 2649.706,949.933 2649.642,951.006 2649.597,951.692 2650.941,951.519 2654.199,948.282 2654.727,949.858 2655.009,950.699 2657.043,949.631 2657.512,949.495 2659.189,949.008 2659.466,948.837 2660.037,947.082 2659.101,947.501 2657.472,949.894 2656.297,949.032 2658.047,947.724 2659.182,945.744 2661.048,944.573" id="path5548"/>
      <path d="M 2652.188,961.413 C 2652.684,960.843 2652.569,960.072 2651.757,959.903 2651.82,960.43 2651.963,960.933 2652.188,961.413" id="path5550"/>
      <path d="M 2655.358,965.953 C 2655.594,965.731 2655.811,965.491 2656.007,965.233 2655.422,965.09 2655.116,965.39 2655.358,965.953" id="path5552"/>
    </g>
    </g>
  <g id="to">
    <title>Tonga</title>
    <g class="landxx coastxx ton world_map-is_selected" id="to-">
      <path d="M 2656.6363,943.55855 C 2656.9323,943.13855 2657.2453,942.73155 2657.5763,942.33855 2656.8423,943.24255 2656.2723,942.08255 2655.4063,942.25855 2655.7113,942.79055 2656.1213,943.22455 2656.6363,943.55855" id="path5930"/>
      <path d="M 2657.8563,945.21855 C 2657.8393,944.93855 2657.7693,944.67155 2657.6463,944.41855 2657.7163,944.68555 2657.7863,944.95155 2657.8563,945.21855" id="path5932"/>
    </g>
    </g>
  </svg>
