<svg xmlns="http://www.w3.org/2000/svg" class="world_map zoom3" height="127" id="svg2985" version="1.1" viewBox="1421 683 232 263" width="127">
  <title>World Map</title>
  <defs id="defs2987"/>
  <defs>
    <link xmlns="http://www.w3.org/1999/xhtml" href="../css/svg.css" type="text/css" rel="stylesheet"/>
  </defs>
  <style id="style_css_sheet" type="text/css">
/*
 * Below are Cascading Style Sheet (CSS) definitions in use in this file,
 * which allow easily changing how countries are displayed.
 *
 */
/* --- Custom styles for Peace Corps --- */
.world_map .world_map-is_selected {
  fill: #C94112 !important;
}
.world_map .landxx {
  fill: #F2EFE8;
  stroke: #ffffff;
  fill-rule: evenodd;
}
.world_map.zoom4 .landxx {
  stroke-width: 2px;
}
.world_map.zoom3 .landxx {
  stroke-width: 3px;
}
.world_map.zoom2 .landxx {
  stroke-width: 4px;
}
.world_map.zoom1 .landxx {
  stroke-width: 5px;
}
.world_map .coastxx {
  fill: #F2EFE8;
  stroke: #ffffff;
  stroke-width: 2px;
  fill-rule: evenodd;
}
.world_map .oceanxx {
  opacity: 1;
  color: #ccc;
  fill: #ffffff;
  stroke: #ffffff;
  stroke-width: 0.5;
  stroke-miterlimit: 1;
}

/* --- Original Styles --- *
/*
 * Circles around small countries
 *
 * Change opacity to 1 to display all circles.
 *
 */
.circlexx
{
   opacity:0;
   fill:#e0e0e0;
   stroke:#000000;
   stroke-width:0.5;
}

/*
 * Smaller circles around French DOMs and Chinese SARs
 *
 * Change opacity to 1 to display all subnational circles.
 *
 */
.subxx
{
   opacity:0;
   stroke-width:0.3;
}

/*
 * Circles around small, unrecognized countries
 *
 * Change opacity to 1 to display all circles.
 *
 */
.unxx
{
   opacity:0;
   fill:#e0e0e0;
   stroke:#000000;
   stroke-width:0.3;
}

/*
 * Circles around small countries, but with no permanent residents 
 *
 * Change opacity to 1 to display all circles.
 *
 */
.noxx
{
   opacity:0;
   fill:#e0e0e0;
   stroke:#000000;
   stroke-width:0.5;
}

/*
 * land
 */
.landxx
{
}
/*
 * Styles for coastlines of islands with no borders
 */


/*
 * Styles for nations with limited recognition
 */
.limitxx
{
   fill: #e0e0e0;
   stroke:#ffffff;
   stroke-width:0;
   fill-rule:evenodd;
}

/*
 * Styles for nations with no permanent population.
 */
.antxx
{
   fill: #e0e0e0;
   stroke:#ffffff;
   stroke-width:0;
   fill-rule:evenodd;
}

/*
 * Ocean
 */


/*
 * Additional style rules
 *
 * The following are examples of colouring countries.  You can substitute these with your own styles to colour the countries on the map.
 *
 * Color a few countries:
 *
 * .gb, .au, .nc
 * {
 *    fill:       #ff0000;
 * }
 *
 * Color a few small country circles (and the countries):
 *
 * .ms, .ky
 * {
 *    opacity:    1;
 *    fill:       #ff0000;
 * }
 *
 */

</style>
  <path class="oceanxx" d="M 2079.5058,1457.5605 615.24779,1457.5605 C 615.13079,1457.5605 615.07079,1457.5505 614.95179,1457.5215 611.67679,1456.6515 608.40179,1455.7815 605.12779,1454.9105 599.15079,1453.3225 593.22879,1451.5225 587.30779,1449.7385 564.39379,1442.8315 541.76579,1434.6995 519.46979,1426.0115 495.81079,1416.7935 472.34979,1407.0946 449.19179,1396.6816 426.78379,1386.6056 405.17679,1375.0536 383.76379,1363.0356 363.11779,1351.4496 343.01079,1338.8296 323.37979,1325.5996 302.29179,1311.3876 281.47879,1296.8506 261.05379,1281.7006 242.35079,1267.8276 223.73679,1253.6306 206.05279,1238.4686 186.98679,1222.1216 167.82379,1205.7706 150.35279,1187.6906 132.97779,1169.7106 116.33279,1151.0606 100.15679,1131.9976 84.352777,1113.3736 70.086776,1093.4716 56.901786,1072.9246 44.046786,1052.8916 32.093776,1032.1356 22.469776,1010.3426 17.516776,999.12753 12.408776,987.76556 8.7017761,976.06056 5.0657761,964.58166 1.5997761,953.04259 -1.5932239,941.43054 -8.0102239,918.09356 -14.055224,894.78356 -18.234224,870.92056 -22.491222,846.60856 -24.894222,822.19856 -26.943222,797.62156 -28.947222,773.58556 -28.829222,749.40156 -27.225222,725.34856 -25.648222,701.69856 -23.363222,677.92456 -19.274222,654.56456 -15.018224,630.25156 -9.3842239,606.45156 -2.8412239,582.66156 3.5687761,559.35256 10.483776,536.34856 20.265776,514.19856 30.320776,491.42956 42.318786,469.90956 55.502786,448.81656 68.512776,428.00356 83.108777,408.26756 98.686787,389.31756 113.73479,371.01156 129.68979,353.25256 146.15179,336.20856 163.77479,317.96256 182.64579,301.14556 201.89579,284.64756 220.33379,268.84456 239.55379,253.98456 258.95979,239.39656 278.42779,224.76056 298.39379,210.83356 318.55579,197.17556 339.26979,183.14456 360.47879,169.92056 382.15079,157.42556 403.46579,145.13656 425.31479,133.98856 447.60479,123.59356 469.58579,113.34356 492.14979,104.17656 514.74579,95.37556 537.44879,86.532565 560.37879,78.195565 583.63479,70.914565 589.69379,69.017565 595.80079,67.276565 601.90879,65.549565 604.63079,64.779565 607.36079,64.045565 610.09479,63.318565 611.59979,62.918565 613.56579,61.986565 615.13379,61.986565 L 2079.9638,61.986565 C 2079.9798,61.986565 2079.9958,61.986565 2080.0118,61.986565 2079.8448,61.986565 2079.6788,61.986565 2079.5118,61.986565 2102.8268,68.191565 2125.8778,75.323565 2148.5448,83.611565 2171.6378,92.054565 2194.6158,100.87956 2217.2348,110.52956 2240.5208,120.46556 2263.4848,130.95256 2285.8828,142.76456 2306.9808,153.89056 2327.8178,165.78556 2347.8608,178.72156 2368.9418,192.32656 2389.7498,206.29256 2410.2218,220.80056 2429.7368,234.62956 2448.9938,248.98756 2467.6208,263.99256 2486.8818,279.50856 2506.0408,295.30556 2524.0538,312.27356 2541.8708,329.05756 2558.7508,346.67256 2574.9408,365.03656 2591.2478,383.53256 2607.1478,402.30656 2621.4508,422.41856 2635.3488,441.96256 2648.4468,462.42756 2659.5898,483.67756 2671.1238,505.67356 2681.1048,528.35656 2688.6188,552.05056 2692.2518,563.50656 2695.3368,575.14756 2698.5608,586.72256 2701.7738,598.25356 2704.9238,609.81956 2707.4578,621.52456 2712.6258,645.40556 2716.6718,669.47856 2719.1178,693.79656 2721.5718,718.19256 2723.1798,742.56356 2722.9808,767.09056 2722.7908,790.65456 2720.6908,814.43756 2717.7688,837.81156 2714.7368,862.07056 2710.5198,886.16156 2704.6398,909.90056 2701.6808,921.84356 2698.3948,933.69556 2695.0378,945.53154 2691.7468,957.13466 2688.5558,968.83466 2684.3988,980.16156 2676.0918,1002.8036 2666.1688,1024.8836 2654.1338,1045.8046 2641.9958,1066.9066 2628.8498,1087.4866 2614.2378,1106.9696 2599.1658,1127.0666 2582.6678,1145.9446 2565.8948,1164.6296 2549.8298,1182.5266 2532.8918,1199.7316 2514.8648,1215.6616 2496.0788,1232.2646 2476.8978,1248.3126 2457.1558,1263.7656 2438.2988,1278.5276 2418.9668,1292.7306 2399.3188,1306.4206 2378.7018,1320.7866 2357.7538,1334.6106 2336.4758,1347.9776 2326.4088,1354.3016 2316.0058,1360.1326 2305.6418,1365.9516 2295.0348,1371.9086 2284.3858,1378.0166 2273.4448,1383.3436 2250.7338,1394.3986 2227.7768,1404.7266 2204.3888,1414.2665 2181.7848,1423.4875 2159.0678,1432.2695 2136.0228,1440.3345 2117.4118,1446.8465 2098.5568,1452.4975 2079.5058,1457.5605" id="ocean"/>
  <path class="landxx ssd" d="M 1455.3606,685.71039 C 1455.3246,686.15771 1455.2221,686.61768 1455.2221,686.86302 1455.2221,688.49822 1457.3648,688.36235 1458.4687,688.53492 1459.2276,688.65368 1460.0802,688.82738 1460.6471,689.38934 1461.2529,689.98924 1461.5019,690.58131 1462.307,691.09618 1463.1067,691.60724 1463.5327,692.00521 1463.5327,692.7223 1463.5327,693.37908 1462.5245,694.09479 1463.0755,694.71067 1464.6387,696.46049 1466.609,697.26701 1468.6243,698.42691 1469.6647,699.02581 1469.3661,699.61676 1470.0008,700.48415 1470.4601,701.11303 1471.6014,701.33463 1471.8816,702.05829 1472.1979,702.87383 1471.0937,703.51863 1471.6949,704.36711 1472.029,704.84025 1472.8678,705.20257 1472.8678,705.86239 1472.8578,707.41356 1474.5037,707.69005 1475.7355,708.58044 1476.8157,709.36101 1478.5219,709.66844 1478.6571,711.25059 1478.7461,712.29168 1478.4394,713.42463 1479.1771,714.313 1479.7141,714.95884 1479.9865,716.06569 1480.6931,716.48294 1481.6745,717.06287 1482.0289,717.44321 1482.1931,718.60781 1482.3667,719.83059 1483.9732,719.968 1484.5723,720.74554 1484.8656,721.12607 1485.6676,721.39799 1486.073,721.6504 1487.608,722.61566 1487.9445,721.96897 1489.3846,721.04477 1491.5683,719.64313 1491.8817,721.14297 1493.7641,721.29879 1495.6604,721.45568 1495.1182,717.6319 1497.3909,719.59036 1498.1375,720.23316 1498.2518,721.06367 1498.7878,721.77538 1499.2879,722.43914 1499.69,723.30988 1500.2521,723.92276 1501.5028,725.29026 1505.1181,725.79206 1504.0009,728.22564 1505.0061,727.99007 1506.1422,728.03398 1506.2967,729.30367 1506.7391,728.21666 1508.1296,726.53999 1509.5411,726.85937 1510.3994,727.05302 1510.7783,728.1789 1511.7644,727.73472 1512.3314,727.4802 1513.3223,726.32402 1513.8822,727.09661 1514.6269,728.12274 1515.1707,728.60593 1516.5081,729.08806 1515.6446,727.04176 1520.0595,727.3222 1522.0457,726.28324 1523.1545,725.70334 1524.3569,727.06646 1525.8106,727.08576 1526.3492,727.09376 1528.0869,725.81409 1528.3508,725.5018 1529.7784,723.81285 1531.6303,720.25411 1533.836,719.92105 1537.2718,719.40226 1541.438,719.72067 1544.9665,719.52944 1544.3307,718.7259 1543.6686,718.134 1543.6686,717.03099 1543.6686,716.15459 1544.2264,715.11247 1543.8908,714.25404 1543.5976,713.49643 1543.8658,713.79175 1543.0068,713.05616 1542.1215,712.29789 1541.1426,712.11223 1540.2957,713.20491 1539.7515,712.67887 1539.999,711.86432 1539.3494,711.5 1538.8002,711.19158 1538.6089,710.40597 1538.3353,709.88193 1537.5976,708.46849 1537.5477,706.88339 1536.8282,705.48592 1536.2232,704.31008 1536.2869,702.39492 1535.0929,701.4909 1533.9985,700.6623 1533.4509,699.7937 1532.5856,699.39631 1531.8794,699.07196 1530.9396,696.81934 1529.9893,695.67641 1529.1381,694.65231 1528.4462,693.79887 1527.0176,693.05922 1525.7272,692.39104 1524.2504,692.67394 1523.0209,691.96024 1521.1433,690.87119 1523.3568,690.09095 1523.553,688.94901 1523.7966,687.5406 1523.521,686.54396 1525.2296,686.47026 1526.3487,686.42136 1527.6502,686.88751 1528.7054,686.77483 1532.165,686.40449 1530.7673,682.33706 1530.5905,680.06621 1530.4808,678.85142 1530.4455,677.64691 1530.5905,676.45776 1528.0353,675.60607 1528.4378,678.4323 1528.2929,674.16279 1529.0195,674.76827 1529.4812,672.41933 1529.0575,671.9958 1527.7469,670.68495 1526.7407,668.08064 1524.9362,666.72718 1524.4851,666.38882 1523.5901,666.23102 1523.2367,665.87738 1523.0725,665.71082 1523.478,664.03276 1523.3654,663.58297 1523.1304,662.64298 1521.9173,657.98131 1522.3032,657.20962 1522.6893,656.43753 1523.3654,653.76021 1523.3654,653.00317 1523.3654,652.97097 1519.7585,652.79777 1519.3712,653.00317 1519.2932,653.47434 1519.6803,654.29874 1519.3712,654.91519 1518.8989,655.86014 1515.2361,654.80172 1514.57,655.46756 1514.508,655.52996 1516.4775,657.24822 1516.6095,657.37957 1517.6079,658.37776 1515.6865,661.80433 1517.2045,662.98802 1516.7023,664.49483 1515.0129,665.56182 1513.8478,666.72709 1513.221,667.35373 1513.1433,668.96105 1512.4882,669.61633 1511.0816,671.02278 1510.0231,673.01618 1508.7066,674.33262 1508.4515,674.58771 1507.4606,674.50261 1507.092,674.50261 1506.7919,674.50261 1505.4523,674.40056 1505.3074,674.54511 1505.2584,674.59371 1505.047,675.00744 1504.8827,674.8426 1504.3078,674.26766 1503.3496,673.9468 1502.6732,673.2705 1501.4655,672.06289 1500.6378,670.58893 1498.6793,670.12626 1497.9882,670.54102 1496.7325,671.09569 1496.0448,671.78334 1495.5319,672.29569 1496.2345,674.27007 1495.8742,674.63011 1495.3503,675.15406 1493.1884,674.76202 1492.2628,675.22496 1491.4589,675.62681 1490.3662,676.55361 1490.0107,677.26442 1489.8788,677.52686 1490.0237,678.1509 1489.7564,678.28418 1488.969,678.67793 1484.9909,679.04224 1484.4027,678.45417 1483.8628,677.91409 1483.5722,676.81755 1483.0431,676.07487 1481.9902,676.25035 1479.8928,676.22651 1478.4968,675.94739 1478.4028,675.92829 1477.8416,675.75376 1477.7322,675.86229 1477.238,676.35639 1473.7212,677.51394 1472.8458,677.22193 1472.5085,677.10948 1471.5667,676.66644 1471.2738,676.37218 1470.8257,675.92378 1471.1048,674.54609 1470.5938,674.03525 1470.4521,673.89368 1470.1308,673.58016 1469.9988,673.31294 1469.7976,672.91034 1469.7751,672.28183 1469.4466,671.95331 1469.2687,671.77521 1468.5117,671.90981 1468.2992,671.69831 1468.0546,671.45357 1468.1231,669.78016 1467.6196,669.27643 1467.2474,668.90432 1464.9538,669.6052 1464.5604,669.99876 1463.9873,670.57178 1462.4915,669.85804 1462.0109,670.33868 1461.3312,671.01024 1461.9969,672.4343 1461.3312,673.10045 1460.9059,673.52581 1460.271,673.90582 1459.844,674.33263 1459.5718,674.60503 1459.5189,675.20908 1459.2067,675.52234 1458.9172,675.81068 1458.762,676.01974 1458.0312,676.4001 1457.5722,677.80447 1457.3756,676.4825 1456.7883,676.81911 1456.6366,677.07317 1456.1989,677.42439 1455.7251,677.42439 L 1451.2645,677.42439 C 1451.1925,678.66886 1450.9011,679.33009 1450.4783,679.63952 1449.8693,680.47252 1449.2473,680.71752 1449.4783,681.90752 1449.7423,681.81252 1450.0043,681.71652 1450.2683,681.62052 1450.4813,682.42052 1450.0413,683.14052 1449.7683,683.85152 1451.0813,684.09052 1454.0813,683.70252 1455.0603,684.75552 1455.3451,684.88907 1455.4267,685.22589 1455.3606,685.71039 z" id="ss">
    <title>South Sudan</title>
  </path>
  <g id="fr">
    <title>France</title>
    <g id="yt">
      <title>Mayotte</title>
      <path class="landxx coastxx eu myt fra" d="M 1613.4263,871.98855 C 1613.9023,871.34555 1614.5063,869.97055 1613.4263,869.53855 1613.1543,870.10155 1613.0153,871.45555 1613.4263,871.98855" id="yt-"/>
      <circle class="circlexx subxx eu myt fra" cx="1614.6058" cy="872.18304" id="yt_" r="4.2337999" rx="4.2337999" ry="4.2337999"/>
    </g>
    </g>
  <g class="landxx coastxx mdg" id="mg" transform="translate(-29.9017,-45.0745)">
    <title>Madagascar</title>
    <path d="M 1625.398,995.613 C 1625.968,998.016 1624.754,1000.946 1626.46,1003.045 1627.293,1004.072 1627.279,1005.225 1627.708,1006.413 1628.102,1007.507 1629.197,1007.679 1628.114,1008.921 1627.052,1010.139 1627.218,1014.094 1627.912,1015.536 1628.543,1016.847 1629.178,1017.82 1629.528,1019.273 1629.982,1021.161 1631.208,1021.69 1632.597,1022.833 1630.846,1021.817 1632.361,1023.176 1632.798,1023.312 1633.439,1023.512 1634.122,1023.444 1634.77,1023.609 1636.342,1024.01 1637.196,1025.746 1638.761,1026.092 1641.472,1026.691 1644.295,1023.231 1646.79,1022.499 1647.707,1022.23 1648.671,1022.776 1649.513,1022.467 1650.181,1022.221 1650.761,1021.777 1651.472,1021.641 1652.47,1021.451 1653.068,1020.266 1653.45,1019.443 1653.965,1018.335 1654.318,1017.156 1654.636,1015.979 1655.075,1014.349 1656.08,1013.026 1656.584,1011.461 1657.513,1008.571 1658.514,1005.778 1659.309,1002.813 1660.44,998.592 1662.141,994.822 1663.601,990.732 1664.785,987.417 1665.459,984.027 1666.925,980.818 1667.353,979.881 1668.165,978.398 1667.738,977.332 1668.242,977.331 1668.813,975.303 1668.939,974.967 1669.783,972.723 1670.239,970.351 1671.156,968.139 1672.496,964.907 1673.709,962.156 1674.407,958.691 1674.928,956.106 1673.161,952.333 1676.304,950.636 1676.92,950.303 1677.599,948.351 1677.674,947.581 1677.744,946.862 1677.585,946.154 1677.713,945.435 1677.886,944.464 1676.691,944.576 1676.706,943.646 1676.719,942.94 1675.991,937.465 1677.745,938.211 1679.25,938.851 1678.733,941.97 1680.187,942.481 1681.814,943.052 1682.878,938.658 1683.059,937.694 1683.319,936.303 1682.389,935.609 1682.009,934.374 1681.315,932.107 1681.38,929.904 1681.296,927.569 1681.141,923.281 1680.116,918.736 1678.387,914.901 1678.142,915.06 1677.906,915.23 1677.676,915.411 1677.867,914.828 1677.62,914.712 1677.264,914.355 1676.684,913.774 1677.588,913.408 1677.069,912.773 1676.573,912.168 1676.256,909.89 1675.006,910.651 1674.931,910.392 1674.907,910.129 1674.937,909.861 1677.108,910.069 1673.946,906.785 1674.305,909.539 1674.446,910.622 1672.213,912.622 1671.187,912.6 1673.117,913.569 1671.866,916.423 1671.477,917.71 1670.906,919.607 1670.934,920.819 1668.596,920.88 1668.881,922.253 1668.446,921.167 1667.792,921.959 1667.317,922.534 1667.297,923.358 1667.086,924.04 1666.502,924.023 1664.353,919.638 1664.046,922.738 1663.935,923.846 1664.32,924.568 1664.716,925.561 1665.072,926.454 1664.437,928.899 1664.277,927.14 1664.116,927.999 1661.454,928.101 1662.504,930.078 1663.062,931.127 1665.191,930.716 1664.347,932.4 1664.637,931.09 1663.281,930.97 1662.472,931.595 1661.34,932.471 1661.437,934.439 1659.888,934.919 1659.683,933.81 1660.755,932.959 1660.537,931.819 1659.424,932.063 1659.683,932.828 1659.237,933.619 1658.804,934.386 1657.548,934.802 1657.367,935.709 1657.241,936.338 1657.901,937.043 1658.163,937.556 1658.674,938.558 1656.867,938.769 1656.287,939.24 1656.405,938.548 1657.67,936.538 1655.892,936.583 1654.871,936.609 1654.05,937.881 1653.274,938.412 1652.755,938.766 1651.36,939.501 1651.503,940.305 1651.575,940.713 1651.241,941.227 1651.388,941.611 1651.594,942.145 1652.315,942.047 1652.478,942.69 1651.682,942.639 1650.851,942.801 1650.707,941.677 1650.526,940.262 1649.14,940.286 1649.087,941.76 1648.753,941.208 1647.158,941.049 1646.601,941.322 1645.898,941.667 1646.166,942.849 1645.638,943.34 1645.638,941.846 1643.926,943.022 1643.827,943.92 1643.585,943.458 1643.298,943.024 1642.967,942.62 1642.106,943.217 1641.444,944.247 1640.443,944.62 1639.504,944.97 1637.838,944.21 1637.075,944.923 1636.702,945.272 1637.019,948.118 1636.708,947.81 1636.982,948.962 1636.158,950.29 1635.6,951.227 1634.666,952.792 1631.672,955.71 1632.821,957.599 1633.614,958.902 1632.923,961.253 1633.05,962.771 1633.196,964.496 1634.433,965.933 1634.426,967.629 1634.416,969.208 1634.32,970.209 1635.174,971.61 1636.092,973.114 1635.569,973.791 1635.117,975.256 1634.793,976.309 1636.119,976.635 1635.494,977.766 1634.828,978.971 1633.96,980.119 1633.236,981.298 1632.459,982.565 1631.498,983.831 1630.942,985.215 1630.513,986.286 1630.865,988.072 1629.506,988.547 1627.873,989.117 1627.487,989.149 1627.329,991.024 1627.198,992.584 1625.783,994.014 1625.398,995.613" id="path2622"/>
    <path d="M 1667.448,920.733 C 1667.804,920.107 1667.375,919.441 1666.948,919.003 1666.241,919.586 1666.404,920.749 1667.448,920.733" id="path2624"/>
    <path d="M 1678.758,949.603 C 1678.758,949.46 1678.758,949.316 1678.758,949.173 1678.322,949.975 1677.221,950.877 1677.678,951.913 1678.135,951.188 1678.336,950.345 1678.758,949.603" id="path2628"/>
  </g>
  <path class="landxx bwa" d="M 1421.3263,973.79855 1422.1797,949.81883 1428.9946,949.82783 1429.9539,917.98405 C 1432.3705,917.39981 1438.5112,917.03935 1442.0099,915.82758 1443.0981,915.45069 1445.7628,914.88494 1446.8548,915.51094 1448.3338,916.35794 1448.6183,918.12103 1449.3373,919.50903 1451.2569,917.99177 1452.7693,914.88562 1455.0391,914.83294 1455.8883,914.81324 1455.8008,915.30994 1456.4218,915.39594 1457.2258,915.50694 1457.6974,914.40364 1458.299,914.04476 1460.2456,912.88344 1462.2787,913.04705 1461.9338,913.7513 1461.8368,913.95006 1461.9343,915.06003 1462.0278,915.29703 1462.5478,916.60903 1463.2784,917.86093 1464.1358,918.97803 1464.9758,920.07242 1465.652,920.65888 1466.2798,922.54303 1466.7282,923.88896 1466.8967,924.17439 1467.2837,925.45239 1468.0967,928.13539 1470.0498,930.42774 1472.4907,931.68539 1475.073,933.0159 1477.4401,932.74341 1476.5558,936.85703 1478.9134,936.30623 1480.7593,936.58225 1479.7398,939.71403 1479.389,940.79177 1479.5078,941.61103 1480.1278,942.54903 1480.7988,943.56703 1481.2668,945.99133 1482.3426,946.32521 1484.5008,946.99502 1486.3702,946.88271 1488.6754,947.66858 1490.3871,948.2521 1488.9058,949.05659 1489.4338,949.93548 1489.841,950.61326 1491.3623,950.39763 1491.603,951.36985 1488.9128,951.70303 1489.3427,952.2741 1488.3488,953.66403 1487.2384,955.21687 1484.2042,954.44414 1482.89,955.86012 1481.7054,957.13647 1480.7127,959.27153 1479.1141,960.53048 1478.9367,960.67013 1478.3169,961.24633 1477.6668,961.70303 1476.5846,962.46328 1475.3941,962.7407 1474.5708,963.67303 1473.4729,964.91629 1473.2601,965.28017 1473.0703,967.14839 1472.8371,969.4424 1471.4978,969.96264 1469.8705,971.90184 1468.9143,973.04133 1467.3363,973.35667 1465.7334,973.61767 1464.5775,973.80589 1465.2623,974.25303 1465.0413,975.37303 1464.7503,976.84603 1464.0353,978.18103 1463.5593,979.59303 1462.8503,981.68903 1461.7337,982.42039 1459.5917,982.23439 1457.6477,982.06639 1457.8749,983.46109 1455.3736,982.91165 1454.3808,982.69358 1452.0035,981.58327 1451.1562,981.52612 1449.9154,981.44242 1449.107,980.67056 1448.3934,979.77703 1447.3314,978.44703 1444.435,977.47253 1442.9373,979.40421 1441.5685,981.1697 1442.1727,983.13985 1440.9106,984.95549 1440.288,985.85116 1439.4013,986.4663 1438.5583,987.0443 1437.5163,987.7573 1437.2131,988.90803 1436.3281,989.73403 1435.6691,990.35003 1435.1044,990.08267 1434.3674,990.38267 1434.1224,990.59267 1434.0987,990.83703 1434.1547,991.18603 1433.8677,991.98303 1432.6653,992.20448 1431.9683,992.15948 1430.8593,992.08648 1430.2385,991.81131 1429.1689,991.72694 1428.198,991.65034 1427.3315,991.26898 1426.0878,992.29903 1424.2756,988.84213 1428.0603,987.27749 1426.7368,982.57903 1426.2347,980.79651 1425.5238,978.81903 1424.6058,977.20903 1423.8038,975.80303 1422.2518,975.10303 1421.3258,973.79903" id="bw">
    <title>Botswana</title>
  </path>
  <path class="landxx ken" d="M 1530.7577,768.59905 C 1532.2762,767.49265 1528.4746,762.88701 1533.7418,763.9683 1533.7528,763.6813 1534.0422,763.08727 1533.7218,762.543 L 1536.8504,762.13724 C 1534.7732,758.99154 1533.8805,761.45984 1532.8926,762.32309 1532.0484,763.06084 1529.9821,759.79571 1530.0892,757.80592 1530.89,756.36229 1530.3594,755.70587 1531.8512,754.35255 1532.9583,753.34816 1533.8379,750.03562 1535.6352,749.22655 1536.488,748.84268 1536.3622,748.71155 1536.3152,747.95755 1536.2432,746.79355 1537.5992,746.23355 1537.8962,745.19755 1538.2492,743.96655 1538.3505,742.76055 1538.4725,741.52555 1538.5815,740.41455 1537.4642,739.62827 1537.2312,738.38255 1536.7084,735.58772 1534.9882,734.98055 1534.7312,733.74955 1534.5292,732.77255 1533.9852,731.94355 1533.6572,731.01355 1533.4382,730.60455 1533.3152,730.16955 1533.2872,729.70655 1533.2872,729.08355 1533.9852,728.72955 1533.7972,728.06055 1533.6302,727.47055 1532.9842,727.31555 1532.4862,727.12955 1531.3562,726.70855 1532.1832,725.85055 1530.9872,725.97255 1531.4761,724.85155 1530.0812,723.77355 1530.2151,722.99055 1530.3494,722.20529 1531.3062,721.59055 1531.8402,721.03055 1533.7032,719.07555 1535.9862,719.63655 1538.4302,719.63655 1539.8322,719.63655 1541.2372,719.52055 1542.6392,719.50555 1543.3262,719.49855 1544.0412,719.46455 1544.7232,719.57255 1545.3132,719.66555 1545.4942,720.69955 1546.2022,720.97355 1548.3832,721.82055 1550.8172,720.78655 1553.0432,721.81955 1555.3702,722.90055 1557.8602,724.89055 1559.6752,726.66855 1560.6002,727.57455 1561.3352,728.21055 1562.6692,728.35655 1563.5362,728.45155 1565.5112,727.91355 1566.1922,728.34855 1568.0962,729.56655 1571.0172,728.48455 1572.6752,730.07755 1572.9042,728.94455 1574.4632,727.29555 1575.1652,726.31955 1576.4132,724.58355 1579.0822,723.88855 1580.9262,723.02855 1582.8942,722.11155 1583.2392,724.27055 1584.7092,725.12955 1585.7182,725.71955 1586.8112,725.33455 1587.8602,725.14455 1588.7102,724.98955 1589.7252,725.55055 1590.5242,725.10955 1589.2992,727.21055 1588.1712,729.50655 1586.6792,731.43155 1585.1032,733.46355 1583.6902,734.59455 1583.6952,737.32455 1583.7062,743.77355 1583.7632,750.22155 1583.7572,756.67155 1583.7472,761.50455 1582.7892,766.08755 1586.0342,770.03655 1587.1342,771.37555 1588.7912,773.10455 1587.6102,774.85955 1586.9152,775.89455 1584.8442,777.78455 1583.5452,776.58955 1583.4412,776.84955 1583.3432,777.11255 1583.2552,777.37955 1583.0472,777.12955 1582.8572,776.86555 1582.6852,776.58955 1583.0252,777.37555 1583.8952,778.82455 1583.1152,779.61855 1582.9802,777.66055 1582.1712,779.90355 1581.9742,780.35455 1581.5712,781.28055 1580.7952,781.45855 1579.9112,781.58355 1577.9492,781.85955 1577.1582,783.59255 1577.7832,785.24555 1578.0692,786.00255 1576.6852,788.19255 1576.1152,788.65555 1575.1432,789.44455 1574.3272,794.75355 1573.2452,794.29955 1573.7172,796.35555 1571.6612,797.81655 1571.3052,799.69855 1570.4682,799.08955 1570.5642,800.15455 1569.8652,799.98955 1568.9832,799.78155 1567.8581,798.24284 1567.1772,797.72455 1564.1681,795.43408 1560.3931,792.94216 1558.5408,790.46893 1558.0513,789.81536 1557.1522,789.71055 1558.1772,788.57855 1559.6262,786.97855 1557.0906,785.05047 1555.7858,784.23442 L 1530.7125,768.55399" id="ke">
    <title>Kenya</title>
  </path>
  <path class="landxx cod" d="M 1363.8063,809.49855 C 1364.4923,808.97755 1365.3416,809.41875 1365.6106,808.48674 1365.8286,807.73174 1366.451,804.76555 1365.921,804.15855 1364.534,802.57055 1369.9153,800.17055 1370.9263,799.26755 1371.1993,800.41455 1372.8793,800.58155 1372.9463,801.78855 1373.4843,801.22955 1374.1953,800.89855 1374.7933,800.41755 1375.6093,799.76155 1375.2683,798.57255 1375.9763,797.82855 1377.1763,799.41955 1378.9733,796.37555 1380.3903,797.08455 1381.7403,797.76055 1380.4943,798.06155 1380.2863,798.90855 1380.0533,799.85955 1380.6563,800.90155 1380.6563,801.85755 1381.2553,801.08555 1382.5783,802.05955 1383.3863,801.49855 1384.5793,800.66955 1385.3203,799.09455 1386.2283,797.98255 1386.6993,797.40655 1388.6143,796.48155 1388.7153,795.95855 1388.9843,794.57655 1390.1343,794.24555 1391.2763,793.75855 1393.9333,792.62455 1394.4093,787.62055 1394.3453,785.23055 1394.2963,783.41155 1394.4623,781.76755 1394.2333,779.95155 1394.0143,778.20955 1396.207,777.76255 1396.9426,776.38455 1398.6756,773.13802 1398.5434,771.08368 1402.0653,768.69255 1403.5473,767.68636 1404.4503,766.50355 1405.4343,765.11555 1406.4143,763.73355 1405.7063,761.71555 1406.1043,760.13055 1406.4543,758.73855 1407.1353,752.76255 1407.1953,751.19555 1407.2633,749.42455 1408.2893,747.87155 1408.5803,746.14555 1408.8623,744.47455 1408.3743,742.70755 1408.7503,741.05355 1409.4573,737.93955 1411.3169,735.39202 1412.3819,732.43102 1413.0009,730.71102 1412.7033,728.89755 1412.6553,727.14355 1412.6333,726.33455 1413.0083,725.48655 1412.8793,724.69555 1412.7653,723.99055 1412.3453,723.40255 1412.1523,722.72455 1411.8463,721.64655 1413.7273,721.67555 1414.1583,720.69255 1414.7543,719.33555 1415.3823,718.14355 1416.4103,717.04555 1417.3943,715.99355 1418.6253,715.09355 1420.1323,715.10455 1421.4083,715.11355 1421.9183,716.21655 1422.7333,716.39755 1424.6273,716.81655 1426.3833,718.86355 1427.0903,720.60355 1427.6663,722.02455 1429.7083,720.96355 1430.8613,721.31055 1431.4863,721.49855 1431.7953,722.34355 1432.5143,722.30955 1433.1513,722.27855 1433.2823,722.16455 1433.9403,722.50055 1434.9313,723.00655 1435.1293,722.49855 1436.1023,722.43655 1436.7523,722.39455 1437.4673,722.73855 1438.0633,722.95855 1439.1383,723.35655 1440.6063,724.13155 1441.7793,723.71855 1443.8763,722.98055 1443.2323,717.96955 1446.0273,717.83855 1447.6163,717.76255 1448.0403,720.98055 1450.1153,719.01555 1450.9923,718.18455 1457.0533,717.38255 1456.6873,715.39055 1457.9423,715.33655 1458.3633,717.05955 1459.5683,716.93855 1461.0153,716.79255 1463.4953,716.57455 1464.0973,715.03055 1464.3223,714.45455 1463.7423,713.87955 1464.5033,713.49755 1465.4363,713.03155 1466.2023,713.30955 1466.9303,714.02555 1468.0963,715.17255 1469.1773,713.82255 1470.4663,714.43355 1471.1043,714.73555 1471.6323,715.21555 1472.2573,715.53855 1472.9853,715.91455 1473.5043,715.59455 1474.2753,715.71055 1476.1053,715.98555 1476.8153,713.95455 1478.7453,715.04855 1479.4793,715.46455 1482.0273,717.06955 1482.0273,718.01855 1482.0273,718.48355 1482.6303,719.63055 1483.0813,719.81455 1484.9773,720.58755 1486.7843,723.38155 1488.8093,721.47355 1489.9563,720.39155 1490.8033,720.17555 1492.3253,720.91855 1493.8893,721.68355 1494.5111,721.37409 1495.4343,719.55555 1496.6509,717.15905 1499.7571,723.16319 1499.9163,723.55555 1500.6284,725.31003 1505.367,725.5411 1503.9183,728.27855 1504.8393,728.06255 1505.9533,728.00555 1506.1833,729.17855 1506.2993,729.49155 1506.4583,729.78155 1506.6623,730.04555 1506.7913,730.64755 1505.97,731.77341 1506.0597,732.40068 1506.3476,734.41308 1506.0057,736.41592 1505.7198,738.33424 1505.569,739.34482 1506.3192,739.21208 1507.453,739.0118 1507.9738,738.9198 1509.9611,740.3074 1509.5985,741.40849 1508.733,744.03698 1505.4703,746.64455 1503.5943,748.59255 1502.9738,749.23655 1501.7247,750.95036 1500.9734,751.58286 1500.2222,752.21536 1500.1491,751.67646 1499.7176,752.50142 1499.1776,753.53542 1499.8383,754.79755 1499.1833,755.85555 1498.4573,757.02955 1497.7353,758.79855 1497.5803,760.18055 1497.4413,761.41855 1497.4583,762.66955 1497.3723,763.91155 1497.2713,765.36455 1497.076,766.63355 1496.927,768.01355 1496.819,769.02255 1497.0773,770.43855 1496.6133,771.36255 1496.0863,772.41355 1495.2337,772.80824 1494.4647,773.65924 1493.2747,774.97624 1493.3742,775.40055 1493.3312,776.94555 1493.3032,777.96355 1492.2122,779.10936 1491.6612,779.83636 1490.4452,781.43936 1492.1385,783.11379 1493.0776,784.6413 1493.7849,785.79167 1494.3011,786.60032 1493.7753,788.18524 1491.8638,789.85939 1494.1815,795.11705 1492.3734,796.84412 1493.6905,797.60071 1493.4499,794.20669 1493.9067,794.78129 1494.3593,797.4537 1492.6868,799.39177 1492.6738,802.01104 1492.6568,805.4135 1495.5232,806.98042 1494.3172,809.33255 1493.6208,810.69078 1492.8882,810.98973 1493.4768,811.86514 1494.3774,813.20471 1494.7597,815.41345 1496.5385,818.89733 1497.7272,821.22547 1501.124,820.78883 1501.331,826.39662 1501.412,828.59797 1503.13,827.39032 1503.7904,830.76699 1499.0834,831.83999 1495.6123,831.96255 1490.8923,832.97255 1492.8433,836.19655 1487.7803,837.53655 1486.8623,839.95155 1489.5783,840.78955 1488.6763,844.98655 1488.4933,847.03755 1488.3593,848.53055 1488.9253,849.94055 1488.8383,851.41855 1488.7923,852.19355 1488.6237,852.93005 1488.3147,853.59905 1487.8677,854.56705 1487.5543,855.29655 1487.3063,856.31855 1486.8173,858.32455 1486.1363,859.4723 1487.4103,861.4123 1488.2963,862.7623 1489.9285,864.46042 1491.0995,865.56742 1491.6245,866.06442 1494.4031,867.76756 1494.6203,866.73355 1495.0061,864.89719 1495.4884,865.24047 1497.2933,864.72155 1497.2933,867.61855 1497.1963,870.52655 1497.1183,873.42255 1497.1053,873.86955 1497.4393,875.77855 1496.6893,875.85355 1495.8113,875.94155 1495.6153,874.92555 1496.2223,874.44055 1494.9243,872.84755 1492.0133,877.81686 1490.6423,874.83286 1490.1853,873.83886 1489.757,872.57855 1489.087,871.67755 1488.706,871.16555 1487.6855,870.50655 1487.5675,869.90155 1487.3365,868.71855 1487.1023,867.34655 1485.6123,867.30455 1484.3643,867.26955 1483.8313,865.96455 1482.6323,865.82055 1481.6303,865.69955 1481.0163,866.4558 1480.3233,865.3548 1479.7873,864.5008 1479.7712,863.25655 1478.9882,862.55555 1477.8732,861.55555 1477.0804,858.07961 1476.1084,861.19761 1475.1054,864.41361 1473.35,862.72268 1470.841,862.81168 1469.15,862.87168 1468.7502,862.33474 1467.3232,861.68774 1467.2272,861.64474 1465.7272,861.28674 1465.6852,861.29374 1463.4092,861.69374 1462.7293,858.23155 1463.5323,856.65255 1462.1343,856.73155 1460.7289,857.02778 1459.4233,857.52255 1457.819,858.13051 1457.4797,858.92297 1455.6833,858.17255 1456.3754,856.93458 1456.416,855.30122 1455.8173,855.32955 1455.0379,855.36645 1454.7117,854.70298 1454.1709,854.19011 1452.9149,852.99914 1453.0879,854.40483 1452.7903,854.5078 1451.6777,854.89281 1451.1893,854.83555 1450.1853,854.5766 1448.9793,854.2636 1448.23,855.10736 1447.1613,855.48485 1445.7885,855.96975 1444.9152,855.04797 1444.026,855.2016 1443.7067,855.2568 1442.4373,855.1176 1442.3973,855.1386 1441.5383,855.6016 1441.0983,856.8996 1439.9153,856.8706 1440.1823,855.9816 1439.6493,855.2836 1439.4943,854.4486 1439.2803,853.3016 1440.072,853.09647 1440.324,852.21447 1440.907,850.16947 1440.1073,846.6196 1438.8653,844.9746 1437.3523,842.9676 1436.7043,841.7116 1436.8943,839.1136 1437.0903,836.4286 1438.0271,833.6116 1437.3291,830.9396 1437.0611,829.9186 1436.3351,829.0326 1436.3501,827.9496 1436.3681,826.7256 1437.0423,825.5796 1437.1353,824.3646 1437.2893,822.3626 1435.9933,822.58485 1434.3713,822.56985 1432.8273,822.55685 1431.2924,822.52935 1429.7523,822.59455 1426.5894,822.72855 1427.0718,822.03755 1427.9643,819.36055 1427.2553,819.36055 1426.5595,819.18068 1425.8695,819.45065 1425.4025,819.63265 1425.7463,819.83552 1425.4843,820.05952 1424.6473,820.77652 1420.8023,820.15052 1419.6843,820.15052 1420.0573,821.09652 1419.3646,822.20352 1419.5256,823.21452 1419.6566,824.03152 1419.6873,825.32852 1418.3843,825.05052 1418.8083,826.29652 1418.0543,827.53252 1418.3143,828.79052 1417.7853,828.78552 1414.3438,828.90527 1413.7853,828.58152 1412.1388,827.62712 1409.2379,829.40952 1408.6763,829.45952 1407.3669,829.24698 1406.1356,829.30884 1404.7043,829.31614 1402.8843,828.93614 1402.097,825.15252 1401.184,823.81852 1400.862,823.34852 1400.6123,823.01152 1400.2813,822.54452 1399.6693,821.68052 1399.949,821.06052 1399.821,820.13952 1399.594,818.50052 1397.8812,817.42441 1398.127,815.68371 1398.3479,814.11926 1398.127,812.81315 1397.3879,811.89852 1396.3636,810.62226 1396.3821,810.1521 1394.7893,810.22852 1390.4033,810.43896 1386.0553,810.61088 1381.6763,810.36127 1378.1393,810.15965 1373.9983,810.74452 1370.5253,810.07552 1367.7473,809.53952 1365.4453,813.67652 1363.8063,809.49852" id="cd">
    <title>Congo, the Democratic Republic of the</title>
  </path>
  <g class="landxx coastxx som" id="so">
    <title>Somalia</title>
    <path class="landxx so- som" d="M 1583.6963,739.50955 C 1583.6963,738.10255 1583.3333,736.15655 1583.9403,734.83955 1584.5183,733.58555 1585.698,732.61742 1586.491,731.48742 1588.079,729.22942 1589.4563,725.18755 1591.8633,723.73455 1594.0603,722.40755 1596.6313,723.26555 1598.5543,721.20055 1600.7383,718.85555 1602.8053,717.32355 1606.1103,716.84555 1608.5823,716.48855 1612.9273,718.24655 1614.6353,715.98255 L 1636.3253,690.33455 C 1633.7033,690.33455 1630.9833,690.78055 1628.4053,690.11855 1625.4833,689.36855 1622.6933,687.96055 1619.8693,686.90855 1616.9583,685.82455 1614.0623,684.69955 1611.1573,683.59955 1608.4683,682.58155 1606.1083,681.87055 1604.0443,679.80155 1603.3543,679.10855 1603.1303,678.74455 1602.1733,678.49055 1601.1993,678.23155 1600.8203,676.72155 1600.3653,675.92255 1599.5933,674.56655 1599.0793,673.46955 1597.9853,672.27355 1596.6813,670.84655 1595.1473,669.01655 1595.7413,666.89355 1596.3933,664.56355 1598.434,662.51842 1599.344,660.22142 1601.746,661.56142 1603.0693,664.76255 1604.7123,666.83555 1606.7643,669.42355 1609.8913,670.14155 1613.0643,669.09555 1614.2793,668.69555 1615.8523,667.61155 1616.8903,666.84555 1618.7233,665.49155 1619.2413,665.71955 1621.4973,666.09055 1623.8283,666.47455 1624.8773,666.96255 1627.0543,665.60455 1628.1533,664.91855 1630.6753,662.36055 1632.0913,662.86455 1633.6513,663.41855 1634.7273,663.48755 1636.4043,662.91055 1637.4153,662.56255 1638.3733,662.05055 1639.4233,661.81755 1640.6253,661.54955 1641.4293,662.07255 1642.5753,662.18655 1644.4533,662.37455 1645.8913,661.26055 1647.5153,660.59955 1649.2083,659.91055 1651.1343,660.21555 1652.8413,659.34855 1654.2623,658.62655 1654.4063,656.77055 1655.6143,656.17655 1656.7853,655.59955 1660.5673,656.60255 1660.1023,658.29255 1659.4993,660.48155 1659.0933,661.81655 1659.4963,664.13755 1659.7753,665.75455 1660.1973,668.07255 1658.7843,669.31255 1659.7243,669.66555 1660.5013,669.44655 1660.2943,668.44855 1660.7603,668.75955 1661.2673,668.97555 1661.8143,669.09655 1661.5023,670.64755 1657.9853,668.52255 1657.9723,671.24555 1657.9623,673.46955 1658.1493,675.74555 1657.5303,677.92555 1657.0023,679.78755 1655.8823,681.21255 1654.8293,682.77555 1653.6033,684.59955 1653.7463,687.30155 1652.2443,689.05855 1651.6613,689.74055 1650.8573,689.91455 1650.4533,690.81455 1650.0513,691.70955 1650.3993,692.71955 1650.0643,693.66655 1649.2983,695.82655 1647.7533,697.54155 1646.6773,699.53155 1645.2443,702.17955 1645.1283,705.09455 1644.0093,707.83255 1642.8723,710.61555 1641.1003,713.07455 1639.4683,715.57955 1637.8853,718.01055 1636.8363,720.82655 1635.0243,723.09655 1633.0123,725.61755 1630.9953,728.13155 1628.9443,730.62055 1624.8213,735.62455 1620.6293,739.69155 1615.1653,743.20755 1612.8763,744.68155 1610.5983,746.21255 1608.6863,748.16855 1606.5333,750.36955 1604.0713,752.54255 1602.1253,754.92055 1600.1993,757.27455 1598.1743,759.56555 1596.2713,761.92855 1595.3443,763.07955 1594.5333,764.31655 1593.6313,765.48755 1593.0733,766.21155 1591.4023,768.82455 1591.1053,767.30055 1591.1053,769.77655 1589.4882,772.15649 1587.9952,774.02549 1588.1233,772.08327 1586.2488,770.47715 1584.9162,768.55949 1583.3947,766.37006 1583.637,764.8623 1583.612,762.3263 1583.547,754.6593 1583.696,747.17355 1583.696,739.50955" id="so-"/>
    <path class="limitxx xs som" d="M 1636.3253,690.33455 C 1633.7033,690.33455 1630.9833,690.78055 1628.4053,690.11855 1625.4833,689.36855 1622.6933,687.96055 1619.8693,686.90855 1616.9583,685.82455 1614.0623,684.69955 1611.1573,683.59955 1608.4683,682.58155 1606.1083,681.87055 1604.0443,679.80155 1603.3543,679.10855 1603.1303,678.74455 1602.1733,678.49055 1601.1993,678.23155 1600.8203,676.72155 1600.3653,675.92255 1599.5933,674.56655 1599.0793,673.46955 1597.9853,672.27355 1596.6813,670.84655 1595.1473,669.01655 1595.7413,666.89355 1596.3933,664.56355 1598.434,662.51842 1599.344,660.22142 1601.746,661.56142 1603.0693,664.76255 1604.7123,666.83555 1606.7643,669.42355 1609.8913,670.14155 1613.0643,669.09555 1614.2793,668.69555 1615.8523,667.61155 1616.8903,666.84555 1618.7233,665.49155 1619.2413,665.71955 1621.4973,666.09055 1623.8283,666.47455 1624.8773,666.96255 1627.0543,665.60455 1628.1533,664.91855 1630.6753,662.36055 1632.0913,662.86455 1633.6513,663.41855 1634.7273,663.48755 1636.4043,662.91055 1637.4153,662.56255 1638.3734,662.05081 1639.4233,661.81755 1639.7729,661.73985 1640.0888,661.72855 1640.3892,661.75495 L 1640.4682,685.32208 1636.3257,690.33459 z" id="xs"/>
  </g>
  <path class="landxx uga" d="M 1496.4963,769.60855 C 1496.9863,768.25455 1496.8293,766.43155 1497.0303,764.99555 1497.2833,763.18855 1497.4519,761.39647 1497.6873,759.57855 1497.974,757.36445 1499.255,756.09853 1499.4713,754.94455 1499.6031,754.24149 1499.3303,753.52655 1499.4713,752.81655 1499.6853,751.69955 1500.7403,751.98655 1501.2503,751.17855 1502.8033,748.72055 1505.2889,746.9696 1507.3909,744.7966 1508.2059,743.9526 1509.3023,742.48555 1509.6453,741.34755 1509.9273,740.41155 1508.1873,739.43055 1507.5133,739.07055 1506.9733,738.78155 1506.1593,739.66055 1505.7583,738.77355 1505.4413,738.07055 1505.6983,737.10755 1505.8443,736.39555 1506.2893,734.21355 1505.4723,732.45055 1506.5763,730.44755 1506.8993,729.86355 1506.1054,729.70928 1506.3044,729.09328 1506.5144,728.44128 1507.1093,727.89355 1507.6153,727.47555 1508.1133,727.06555 1508.7023,726.69155 1509.3833,726.81455 1509.9403,726.91555 1510.9873,728.07355 1511.5373,727.82455 1512.2413,727.50655 1513.2733,726.20955 1514.0233,727.19855 1514.8273,728.25655 1515.0443,728.63555 1516.4493,729.14155 1515.6611,727.83235 1517.8363,727.33255 1518.8573,727.18955 1520.1223,727.01238 1521.5656,725.99596 1522.8036,726.13996 1524.4986,726.33696 1525.0213,727.83355 1526.8713,726.55055 1528.1983,725.63155 1529.1203,724.25055 1530.1303,723.02055 1530.7193,723.81555 1531.3463,724.94755 1530.9903,725.97255 1532.1833,725.85155 1531.3912,726.72122 1532.517,727.05982 1533.6787,727.40919 1534.1226,727.6335 1533.6373,729.12255 1533.0056,731.06063 1534.9422,733.14369 1535.9503,735.44155 1536.148,735.89226 1537.3123,737.40855 1537.2903,737.80055 1537.2423,738.62955 1538.2214,739.8596 1538.4234,740.6666 1538.7784,742.0996 1538.4234,744.05233 1537.8037,745.48333 1537.2747,746.70433 1536.2583,746.88355 1536.5173,748.30455 1536.6513,749.04155 1535.4583,749.50355 1534.9133,749.77755 1533.8453,750.31655 1533.8003,751.75455 1533.1613,752.81855 1532.6833,753.61355 1531.8906,754.04228 1531.5596,754.86428 1531.1106,755.97728 1530.6989,756.79323 1530.1829,757.87323 1529.686,757.84003 1527.8546,758.44886 1528.1517,756.85068 1526.9892,757.29046 1527.3543,757.62287 1526.8758,757.6967 1525.4577,757.9155 1525.4376,757.0628 1526.501,757.1296 1526.228,756.55872 1525.2741,755.84572 1525.5962,755.43728 1524.8041,755.72725 1525.3274,755.51938 1524.2412,755.92533 L 1524.5857,756.5 C 1523.6383,756.75313 1524.3651,757.67973 1523.1711,757.6167 1523.3243,759.4781 1520.5237,758.51931 1520.2038,758.58367 1520.1468,758.61657 1520.3537,756.91304 1520.1458,757.19671 1518.7912,760.35232 1518.2972,758.67669 1518.0428,758.84269 1518.0928,759.51258 1517.5876,759.55546 1516.4211,759.67061 1515.8722,760.44944 1514.5763,760.43028 1514.6836,760.7047 1515.7046,763.31605 1513.5576,763.74792 1513.2212,765.58201 1512.9303,767.16845 1513.5108,767.25337 1513.6913,768.30028 1506.5023,768.30028 1515.252,768.61237 1508.0828,768.07655 1505.6075,767.89155 1502.6985,768.39827 1501.2498,770.19209 1500.7465,770.81525 1500.041,772.56249 1499.1614,771.98487 1498.9284,771.83184 1498.7926,770.99141 1498.3838,771.02355 1497.6838,771.07855 1496.5714,771.85331 1496.2408,772.08824 1496.4057,771.436 1497.323,770.30524 1496.5018,769.60855" id="ug">
    <title>Uganda</title>
  </path>
  <g class="landxx coastxx moz" id="mz" transform="translate(-28.7126,62.0078)">
    <title>Mozambique</title>
    <path d="M 1566.1089,886.0907 C 1566.3639,885.3737 1566.5079,884.6137 1566.4689,883.8507 1566.1569,884.5367 1565.8149,885.3267 1566.1089,886.0907" id="path3382"/>
    <path d="M 1573.6689,860.9607 C 1574.2729,860.3867 1574.1299,860.1467 1573.2379,860.2407 1573.3819,860.4807 1573.5259,860.7207 1573.6689,860.9607" id="path3384"/>
    <path class="landxx moz" d="M 1528.5989,827.3307 C 1534.1359,825.2497 1539.6929,823.2167 1545.2629,821.2267 1546.5079,820.7817 1547.6806,820.18916 1548.9146,819.71216 1549.3326,819.55116 1550.3912,818.86415 1550.8562,819.01015 L 1555.0189,823.6617 C 1555.0599,822.7287 1557.0629,823.0547 1558.0049,822.7887 1558.8149,822.5607 1560.0349,821.8017 1560.6999,822.6637 1561.9289,824.2577 1561.9359,828.1197 1561.2969,829.8867 1560.4859,832.1257 1558.5999,834.1387 1559.7969,836.4427 1560.0819,836.9897 1559.9179,837.6417 1560.2489,838.1617 1560.6229,838.7497 1561.2869,839.0697 1561.6589,839.6567 1562.3879,840.8057 1563.5109,841.8807 1564.5449,842.7637 1565.5309,843.6057 1565.4779,843.7597 1564.8019,844.8657 1564.0799,846.0467 1566.4199,846.4917 1566.5739,844.9017 1566.7219,843.3557 1566.2759,841.9887 1565.3879,840.7327 1566.7939,839.7087 1566.0629,837.5857 1568.1289,837.1567 1570.9289,836.5757 1571.1769,835.3537 1571.1859,832.5307 1571.1859,831.5037 1571.0079,830.4557 1571.0689,829.4307 1571.1689,827.7607 1572.0459,825.9167 1571.3289,824.2787 1570.6109,822.6377 1569.1119,821.0917 1568.1479,819.5637 1567.2519,818.1427 1566.3759,816.6137 1565.2409,815.3627 1564.4069,814.4447 1564.7212,815.2816 1563.9712,814.44164 1563.7487,813.723 1564.1309,812.3132 1563.6725,810.91987 1563.0719,809.09456 1564.1448,807.9911 1563.9059,807.18212 1562.5206,802.50467 1563.358,803.64973 1563.292,803.06147 1563.8334,801.83029 1565.6378,802.06121 1565.1994,797.6999 1566.6998,797.84069 1568.0625,798.17195 1569.8179,797.6637 1570.8105,797.37631 1571.7449,796.1537 1572.8309,796.8567 1573.5819,797.3427 1573.9459,798.2717 1574.7439,798.6967 1575.3549,799.0227 1577.3839,799.1347 1578.0569,798.9617 1579.1759,798.6737 1579.9819,796.7937 1581.2449,798.1647 1583.5889,800.7087 1586.4039,797.6957 1587.5389,795.8267 1588.1649,794.7947 1589.2809,794.7667 1590.2579,795.3857 1591.8499,796.3947 1592.2349,796.3857 1593.7449,795.3257 1595.0069,794.4407 1595.9969,793.8177 1597.6419,794.1407 1598.5879,794.3277 1600.4149,792.5127 1601.2979,792.1107 1603.0399,791.3187 1604.4949,790.2047 1605.9969,789.0457 1607.8309,787.6287 1609.0259,789.9997 1607.4349,790.7607 1607.6779,790.8747 1607.9169,790.9947 1608.1549,791.1207 1607.4269,792.0587 1607.8399,793.1147 1607.4349,794.1407 1607.2179,794.6927 1605.8269,795.4077 1606.6469,795.9907 1607.3269,796.4727 1607.1679,799.0517 1607.2649,800.0497 1607.3369,800.7977 1607.3959,801.5597 1607.3289,802.3107 1607.2289,803.4497 1606.8739,803.1637 1607.1919,804.1727 1607.2649,804.5487 1607.2389,804.9187 1607.1129,805.2797 1606.9649,805.9777 1607.4039,806.1897 1607.5839,806.7937 1607.8479,807.6717 1607.5159,808.9317 1606.9249,809.6207 1608.9289,809.9057 1606.3209,814.3047 1607.1059,814.5557 1608.4769,814.9947 1607.1379,819.5717 1607.5749,820.6407 1609.0849,819.7457 1607.3559,822.6647 1607.7959,823.3707 1607.9169,822.0977 1609.1999,822.3167 1608.9799,823.5787 1608.7419,824.9467 1609.0699,825.9167 1607.6459,826.6907 1607.9049,826.8927 1608.1709,827.0827 1608.4469,827.2607 1606.7989,826.8677 1608.2199,827.4687 1607.7469,828.0357 1607.4479,828.3937 1606.9829,828.5287 1606.7869,828.9907 1608.3779,828.4247 1607.0039,830.9487 1606.7669,831.4477 1605.9699,833.1327 1604.2729,834.0667 1603.4539,835.7407 1602.6409,837.4027 1601.3129,838.3687 1600.4089,839.9437 1599.7169,841.1517 1595.0249,842.7827 1595.1939,844.0967 1595.2719,844.7047 1591.6509,845.3267 1590.9459,845.7607 1590.3219,846.1447 1589.6149,846.4517 1588.9129,846.6567 1587.7799,846.9877 1587.9749,846.5547 1587.1519,847.3157 1585.9679,848.4107 1584.3089,848.9287 1582.9009,849.6607 1581.4999,850.3897 1579.2679,853.7977 1577.6959,852.4607 1580.6319,855.6817 1573.5019,856.9187 1574.1659,860.1707 1573.5599,860.2537 1573.1529,859.8577 1573.0159,859.3007 1573.1579,860.4437 1572.0719,861.8927 1572.2259,860.3107 1570.8549,861.4997 1569.1959,862.3157 1568.0809,863.7837 1567.0939,865.0827 1566.1959,866.3157 1565.0079,867.4497 1564.5269,867.9087 1562.6149,869.9257 1561.9279,869.0907 1561.4849,868.5527 1560.9189,866.7077 1559.9159,867.2917 1561.6449,867.1877 1561.0409,869.3637 1561.3819,869.8917 1561.7019,870.3887 1561.6849,871.1957 1561.4449,871.7177 1561.3359,871.9927 1561.1359,872.1517 1560.8459,872.1917 1561.0679,872.6057 1561.1419,873.0457 1561.0679,873.5117 1560.8799,875.7847 1561.6269,875.1567 1562.7969,876.6527 1563.4529,877.4917 1563.6419,878.4847 1563.6279,879.5247 1563.6179,879.9277 1563.3009,883.0627 1563.8769,881.1227 1563.4389,882.8157 1564.5649,884.6457 1564.7359,886.3727 1564.8399,887.4077 1565.2099,888.4907 1565.0389,889.5357 1564.8939,890.4167 1564.5129,891.3957 1565.4569,891.9937 1565.6259,890.8847 1565.5779,889.8857 1566.3259,888.9637 1566.3079,889.3027 1566.3259,891.7317 1566.6859,889.6927 1566.4849,890.8637 1566.1919,892.0217 1566.0879,893.2087 1565.9939,894.2737 1566.7489,895.2207 1566.6129,896.2567 1566.2409,899.0837 1564.2079,901.8097 1564.6659,904.8127 1564.4039,903.1707 1565.6079,904.8627 1565.6759,903.4427 1566.7589,905.2687 1564.6579,907.9987 1563.5339,909.2867 1561.6759,911.4157 1558.8569,912.3887 1556.2619,913.3037 1553.3249,914.3397 1550.3659,915.4177 1547.7459,917.1227 1546.5629,917.8927 1545.3269,918.5697 1544.6689,919.8857 1544.1039,921.0147 1543.8179,922.3277 1542.3459,922.5217 1543.3279,922.5107 1544.8979,926.0117 1545.7259,923.8917 1545.5499,925.6867 1546.4889,930.33598 1544.6349,930.20843 L 1540.1599,930.0352 C 1540.2269,928.56341 1539.3125,926.89789 1539.5467,925.7577 1539.7435,924.79933 1539.2777,923.87246 1538.628,923.01516 1538.1498,922.38408 1538.258,920.8575 1538.7593,919.6531 1539.0443,918.96836 1539.0059,916.5137 1539.0359,915.8097 1539.1079,914.0857 1539.0949,912.3627 1539.2251,910.6427 1539.3421,909.0907 1538.9859,908.0557 1538.7359,906.5737 1538.3599,904.3537 1536.8479,902.5387 1536.3869,900.3777 1536.1649,899.3347 1536.3309,898.2347 1536.1483,897.1587 1535.8943,895.6637 1535.5929,894.2267 1535.1859,892.7707 1534.9219,891.8267 1534.4991,892.10678 1535.0295,891.40978 1535.5598,890.99096 1537.0434,889.05832 1537.6689,888.4197 1538.6011,887.46796 1542.9349,881.3737 1544.0749,882.2027 1542.9259,880.7197 1544.0759,879.8607 1544.4349,878.3827 1544.6559,877.4737 1543.7749,876.2047 1544.7739,875.6087 1546.1639,874.7797 1546.5269,873.6507 1547.2939,872.2217 1547.6219,871.6107 1547.8005,871.09349 1548.0375,870.43349 1548.4135,869.39249 1548.1245,868.5927 1548.1759,867.5827 1547.9359,867.6787 1547.6969,867.7757 1547.4559,867.8727 1546.929,866.82476 1546.5563,865.8829 1546.7621,865.30161 1547.0118,864.59676 1547.9073,864.01372 1547.5701,863.0691 1547.281,862.25901 1546.1136,862.54746 1546.4425,861.24569 1546.6881,860.27369 1548.3908,860.1154 1548.2529,858.9317 1548.0158,856.89659 1549.282,857.65959 1549.1579,856.3257 1549.0553,855.22355 1548.4359,854.17509 1548.6459,853.06409 1548.7929,852.28309 1549.3055,851.41595 1549.1121,850.6367 1548.727,849.08497 1548.8562,848.03396 1548.8907,846.37028 1548.9017,845.82987 1548.6117,845.43768 1548.4617,844.91168 1548.2437,844.14868 1548.9879,842.8517 1549.1159,842.0927 1548.0606,842.38989 1547.5251,842.37992 1546.9639,841.3417 1546.4332,840.35981 1543.4029,840.2769 1542.6139,839.8227 1540.1839,838.4238 1537.861,836.96575 1535.248,836.2267 1534.4114,835.99008 1531.7953,836.06623 1530.8815,835.84851 1529.4021,835.49604 1529.9969,833.0947 1529.8599,831.9927 1529.6649,830.3907 1528.4559,828.9637 1528.5989,827.3307" id="path3462"/>
    <path d="M 1600.8089,838.8507 C 1601.0489,838.6837 1601.2879,838.5177 1601.5289,838.3507 1601.5289,838.7707 1601.4639,839.1777 1601.3189,839.5717 1601.1489,839.3307 1600.9789,839.0907 1600.8089,838.8507" id="path3466"/>
  </g>
  <g class="landxx ago" id="ao" transform="translate(-29.9017,-45.0745)">
    <title>Angola</title>
    <path d="M 1390.038,953.923 C 1389.929,950.414 1390.879,946.873 1390.482,943.353 1390.42,942.809 1390.019,942.285 1390.245,941.728 1390.568,940.932 1391.445,940.469 1391.795,939.641 1392.076,938.977 1392.108,938.26 1392.201,937.556 1392.285,936.922 1393.121,936.146 1392.912,935.609 1392.465,934.463 1394.028,931.381 1394.278,930.094 1394.635,928.257 1394.243,926.262 1395.272,924.65 1395.957,923.576 1395.523,921.33 1396.314,920.636 1397.127,919.923 1398.443,918.376 1398.954,917.415 1399.709,915.996 1399.245,913.75 1401.543,913.54 1403.16,913.393 1403.302,912.153 1404.101,910.757 1405.997,907.443 1406.533,902.306 1405.658,898.635 1405.254,896.94 1404.588,895.733 1403.634,894.3 1402.64,892.808 1402.608,891.649 1402.061,890.088 1401.812,889.376 1401.178,888.839 1401.082,888.078 1400.964,887.147 1401.102,886.285 1400.689,885.409 1400.077,884.109 1398.864,882.428 1400.688,881.496 1400.201,881.849 1399.852,882.393 1399.898,883.016 1400.286,882.285 1400.713,881.537 1401.308,880.952 1401.784,880.484 1402.553,880.513 1402.636,879.764 1402.851,877.812 1402.454,876.021 1401.52,874.315 1400.469,872.396 1399.918,870.385 1399.103,868.364 1398.742,867.468 1398.77,866.471 1398.509,865.549 1398.121,864.178 1396.853,863.252 1396.148,862.058 1395.571,861.081 1393.56,857.674 1395.313,857.132 1396.122,856.882 1396.957,856.877 1397.787,856.769 1398.941,856.618 1399.51,855.581 1400.786,855.458 1406.678,854.892 1412.631,855.564 1418.554,855.43 1420.802,855.379 1423.105,855.2 1425.351,855.281 1427.461,855.358 1427.01,856.797 1427.989,858.151 1428.397,858.715 1428.021,860.422 1428.209,861.174 1428.546,862.528 1429.209,863.762 1429.711,865.055 1430.101,866.057 1429.498,866.934 1430.342,867.832 1431.243,868.79 1431.475,869.487 1432.015,870.653 1432.348,871.37 1433.899,874.744 1434.92,874.462 1435.533,874.293 1438.642,874.532 1438.639,874.525 1438.479,874.132 1441.989,873.117 1442.628,873.259 1444.426,873.658 1446.076,873.869 1448.208,873.869 1447.948,872.611 1448.703,871.375 1448.278,870.129 1449.342,870.357 1449.439,869.339 1449.304,868.564 1449.117,867.491 1449.948,866.17 1449.578,865.229 1451.429,865.229 1453.285,865.265 1455.135,865.249 1455.688,865.244 1455.364,864.6 1455.815,864.447 1456.458,864.228 1457.201,864.44 1457.859,864.44 1457.447,866.503 1456.32,867.68 1458.943,867.68 1461.235,867.68 1463.548,867.559 1465.837,867.61 1467.737,867.652 1467.39,869.553 1466.948,870.834 1466.701,871.553 1466.376,872.287 1466.311,873.053 1466.21,874.267 1467.262,875.493 1467.479,876.706 1467.934,879.254 1466.988,882.073 1466.79,884.634 1466.583,887.305 1467.526,888.355 1469.059,890.355 1470.141,891.767 1470.683,895.422 1470.357,897.15 1470.243,897.759 1469.668,898.146 1469.455,898.725 1469.059,899.801 1470.145,900.834 1469.809,901.95 1470.739,901.973 1471.567,900.646 1472.325,900.238 1472.976,899.888 1474.943,900.414 1475.664,900.613 1476.942,900.966 1478.454,899.528 1479.82,899.581 1481.124,899.632 1482.579,900.441 1483.13,898.711 1483.7401,899.59164 1483.814,902.39163 1483.6307,903.388 1483.3772,904.76655 1483.4004,906.14151 1483.062,907.506 1482.6546,909.14843 1483.697,910.647 1483.269,912.251 1482.837,913.869 1481.679,915.188 1483.059,916.711 1480.222,917.90792 1476.2469,917.33165 1473.2206,917.31472 1471.7037,917.30672 1469.9253,916.94057 1468.4168,917.14236 1467.0908,917.31975 1467.7529,922.25589 1467.6925,923.836 1467.5319,928.03864 1467.7625,931.00498 1467.6015,934.221 1467.4414,937.42459 1467.6115,940.69 1467.5235,943.901 1467.4335,947.18315 1469.7145,948.06 1471.6045,950.402 1473.6205,952.9 1475.6525,955.407 1478.3795,957.18 1473.9225,958.047 1469.4385,958.805 1465.0395,959.945 1463.2865,960.4 1462.6115,959.956 1460.9495,959.77 1460.2075,959.687 1459.5765,960.043 1458.9005,960.267 1457.8025,960.631 1456.7555,960.096 1455.7065,959.808 1451.9745,958.787 1447.9785,959.198 1444.1825,958.605 1442.5545,958.351 1441.7249,956.94157 1440.9495,955.675 1440.2596,954.54808 1438.0543,955.01276 1436.8955,955.067 1427.5884,955.50266 1418.0215,955.09 1408.7015,955.09 1406.7815,955.09 1406.5745,954.971 1404.9185,953.672 1403.2535,952.366 1401.9378,950.74182 1399.6955,951.736 1398.0415,952.46933 1396.3256,954.46714 1394.4365,953.565 1392.1213,952.45938 1391.7908,953.6026 1390.0385,953.923" id="path3888"/>
    </g>
  <path class="landxx zmb" d="M 1437.6063,899.49855 C 1437.6063,891.31455 1437.6353,883.10491 1437.7398,874.92191 1437.7508,874.04491 1437.4343,872.23955 1438.6543,871.97255 1439.7223,871.73955 1441.0403,872.04155 1442.1273,872.07055 1445.7623,872.16555 1449.6243,872.79555 1453.1553,871.62855 1452.0103,870.36555 1452.5923,869.23455 1453.1313,867.86855 1453.7843,866.20855 1452.9073,864.91055 1452.9943,863.25455 1453.1563,860.18955 1454.4713,856.67755 1453.2253,853.62855 1454.3733,853.64755 1454.2605,854.89751 1455.4543,855.14355 1456.7752,855.41579 1456.1873,857.37681 1455.6753,858.16855 1457.2633,858.51755 1457.1173,858.47755 1458.6643,857.80455 1460.1683,857.15055 1461.8893,856.74055 1463.5243,856.64855 1462.9363,857.80455 1463.2253,859.90955 1464.1423,860.82855 1464.8623,861.54955 1466.0393,861.10555 1466.9313,861.51455 1468.2273,862.10955 1469.1689,862.67755 1470.6459,862.69755 1473.0279,862.72955 1475.2383,864.30155 1476.0813,861.26955 1476.9993,857.96555 1477.9753,861.65855 1479.1223,862.66155 1479.9073,863.34655 1479.8013,864.44655 1480.3703,865.27955 1481.2783,866.60955 1482.2762,865.34935 1483.0677,865.86973 1484.2651,866.65697 1484.7279,867.37455 1486.0261,867.35291 1487.5542,867.32741 1487.1963,869.82655 1488.2153,870.76955 1489.7103,872.15355 1489.9923,873.31555 1490.8413,875.08655 1491.9123,877.32155 1495.0343,872.99055 1496.2153,874.43955 1495.7003,874.84955 1495.6793,875.53355 1496.3363,875.79555 1497.4893,876.25655 1497.0973,873.92055 1497.1103,873.42055 1497.1883,870.52455 1497.2853,867.61655 1497.2853,864.71955 1496.7633,864.91655 1496.1883,864.96955 1495.6553,865.13555 1494.7403,865.41955 1495.0078,866.20802 1494.6129,866.83046 1493.9283,867.90962 1490.8973,865.43376 1490.2013,864.70755 1488.0995,862.51443 1485.6895,860.71798 1486.9278,857.07819 1487.5978,855.10869 1488.1663,853.48069 1488.7163,851.80655 1489.0958,850.65135 1488.3297,848.72555 1488.4367,847.42355 1488.6087,845.30155 1489.6577,840.82455 1486.8197,839.94855 1487.7377,837.53255 1492.8363,836.19355 1490.8853,832.96955 1495.0916,832.07068 1498.8314,831.80849 1503.6253,830.74055 1503.6253,831.55151 1502.6237,832.58447 1502.6543,832.78874 1502.7193,833.22177 1504.0801,832.61213 1503.3973,833.74271 1503.5397,834.01326 1504.0588,832.56592 1505.8406,834.34062 1507.6818,836.17451 1508.3601,834.96057 1508.1726,834.04828 1510.2247,834.06898 1510.7459,834.79412 1511.5953,836.29855 1511.9667,836.95627 1512.3849,836.68791 1512.9479,836.48591 1513.6769,836.22391 1513.933,837.43672 1514.5309,837.68791 1515.7399,838.19582 1517.9685,838.0274 1518.3613,839.45655 1518.4788,839.88391 1519.2883,839.72562 1519.7874,839.88155 1520.6174,840.14087 1521.3447,840.40892 1521.6487,840.7623 1521.9527,841.11569 1521.9404,841.55441 1521.7903,842.01255 1521.395,843.2192 1524.1673,842.76155 1524.6553,844.56055 1524.8183,845.16155 1524.3423,845.51255 1524.4343,846.07055 1524.5753,846.93455 1525.2313,847.24455 1525.8283,847.77455 1526.3463,848.23655 1526.5403,849.79855 1526.7613,850.44355 1527.1743,851.65055 1525.7613,852.79755 1524.5963,853.15355 1523.3273,853.54055 1524.0603,854.51855 1524.3723,855.48855 1524.8593,857.00555 1523.9663,857.81155 1523.9163,859.27355 1523.8463,861.37355 1522.8823,865.86855 1525.5153,866.66155 1524.4433,867.81055 1521.1653,868.35355 1521.1863,870.28255 1521.1993,871.54355 1521.5187,872.01121 1521.2623,873.43655 1520.889,875.51163 1519.5471,876.73083 1519.0545,878.18155 1518.7706,879.01767 1519.7124,879.68884 1520.3505,880.13936 1521.2725,880.79035 1521.7039,880.31128 1522.0703,880.94873 1514.9444,884.27009 1507.3206,886.2875 1500.0703,889.24255 1499.1408,889.89362 1501.6546,893.19648 1501.1871,894.85701 1500.4931,894.93801 1498.5723,895.22655 1497.8983,894.95551 1496.5783,894.42651 1495.0133,895.24351 1493.7723,895.66151 1492.0013,896.25751 1489.7173,897.30651 1489.3343,899.36351 1489.1703,900.23951 1489.3913,901.19451 1488.9913,902.02451 1488.4253,903.20351 1486.8623,903.34651 1485.7843,903.77151 1483.9113,904.50851 1481.3813,906.03951 1480.3453,907.80751 1479.2943,909.60051 1475.1663,917.44951 1472.0623,915.59351 1471.3853,915.18851 1470.6643,914.80951 1469.9103,914.57051 1468.8103,914.22051 1467.7163,915.67551 1466.8493,915.19551 1466.1673,914.81651 1465.8998,913.54637 1465.0363,913.75278 1464.8429,913.79898 1462.6379,914.35165 1461.5413,913.31778 1460.2988,912.14632 1459.7351,911.33581 1458.7517,911.07143 1457.6998,910.85093 1456.9913,911.95339 1455.0757,910.81787 1453.5567,910.58387 1452.5031,911.38878 1451.0093,911.50451 1450.2388,911.56421 1448.7634,912.156 1448.2713,911.96751 1445.6753,910.97319 1443.9406,907.9956 1442.1076,905.9536 1441.1026,904.8346 1440.3298,903.92869 1439.2463,902.89251 1438.2293,901.91999 1437.9422,900.94779 1437.6063,899.49851" id="zm">
    <title>Zambia</title>
  </path>
  <path class="landxx eth" d="M 1522.1263,691.34155 C 1522.2693,690.17555 1523.3803,689.55855 1523.3843,688.37355 1523.3943,686.34555 1524.8193,686.15455 1526.5263,686.44455 1528.0423,686.70255 1529.3563,687.18455 1530.4813,685.50855 1531.2593,684.35155 1530.7483,682.34055 1530.5943,681.06955 1530.3403,678.94855 1530.0273,676.66155 1530.8223,674.61755 1531.1343,673.81755 1531.5483,673.06155 1531.8403,672.25255 1532.2703,671.06455 1531.7973,670.26855 1531.7773,669.09255 1531.7573,667.91655 1532.3923,666.73355 1533.1533,665.85055 1534.0293,664.83455 1535.3353,666.04755 1535.3073,667.14755 1535.8133,666.59155 1537.8263,663.50955 1536.8223,662.54055 1536.2543,661.99055 1537.1713,660.68955 1537.3413,660.13555 1537.6743,659.04455 1536.9403,657.66555 1537.9103,656.77655 1539.4653,655.35155 1540.0863,653.47555 1541.0493,651.55555 1541.4553,650.74355 1541.7053,649.89655 1542.6973,649.84955 1543.1093,649.82955 1545.0563,650.04155 1545.2343,649.55055 1545.7763,648.05555 1545.6503,646.19555 1545.8833,644.62955 1546.0173,643.73855 1546.3803,643.04455 1546.7513,642.22355 1547.4143,640.75255 1547.2503,639.37755 1547.5463,637.84555 1548.1093,634.95255 1549.3253,636.01255 1551.5163,635.98955 1552.3623,635.98055 1552.5373,634.25755 1553.7263,634.94555 1554.6533,635.48155 1555.1663,636.71755 1555.7573,637.55755 1556.6493,635.34155 1557.5303,633.10755 1558.1273,630.78955 1558.4693,631.31755 1558.8553,631.98655 1559.4273,632.30155 1560.0513,632.64455 1560.7563,632.36855 1561.1333,633.12255 1561.8753,634.60455 1562.7833,634.77955 1564.3323,634.49855 1564.9043,634.39455 1565.5063,634.23955 1565.9583,633.84855 1566.2283,633.61455 1566.4623,632.72855 1566.7453,632.64855 1567.2673,632.50055 1568.1153,634.28855 1568.2173,634.67755 1569.6933,632.82555 1572.1823,634.97655 1573.6963,634.57355 1575.7743,634.02055 1577.9083,636.23655 1579.6803,636.98655 1582.0523,637.99055 1582.7413,641.05955 1584.6733,642.60355 1585.8343,643.53155 1587.3613,644.27455 1588.0813,645.64155 1588.7383,646.89155 1589.0483,647.93955 1590.2173,648.83455 1592.1813,650.33955 1593.0303,651.49555 1591.7313,653.77755 1590.1963,656.47455 1588.0963,658.00955 1588.5843,661.30355 1588.8263,662.93955 1588.1843,664.93255 1590.5263,664.77255 1591.8963,664.67855 1593.2553,664.02255 1594.5813,663.68555 1595.6563,663.41255 1596.068,664.35811 1597.072,664.02511 1596.964,665.73611 1594.9913,667.17644 1595.9402,669.16511 1597.0803,671.5542 1598.1225,672.16395 1599.6056,674.29205 1600.099,674.99992 1600.9763,677.35755 1601.5363,678.00755 1602.0973,678.65655 1602.5807,678.45399 1603.2317,678.98399 1604.2327,679.80099 1605.7799,681.53968 1607.0509,681.99668 1612.1559,683.83568 1616.7483,685.75255 1621.8393,687.63055 1624.2513,688.52055 1626.2045,689.57924 1628.7025,690.16824 1631.0185,690.71424 1633.9873,690.33355 1636.3273,690.33355 L 1614.9443,715.71555 C 1613.6363,717.24455 1612.6008,717.38993 1610.7465,717.13986 1607.6995,716.72895 1603.4348,716.5551 1599.4624,720.2078 1598.4114,721.17427 1598.0493,722.37455 1596.5183,722.67855 1595.1083,722.95955 1593.6176,722.91005 1592.3116,723.62505 1590.9006,724.39805 1590.9956,725.7208 1589.1416,725.2958 1587.5876,724.9388 1585.407,726.22042 1584.035,724.70142 1583.453,724.05542 1582.9844,723.05424 1582.0124,722.94024 1581.0754,722.83024 1579.8193,723.51255 1579.0073,723.88455 1577.7323,724.47055 1575.6066,725.59813 1574.793,726.79905 1573.9122,728.09934 1573.2831,729.08175 1572.6773,730.07655 1571.7123,729.14855 1569.5303,729.00655 1568.2723,729.12155 1567.3033,729.20955 1566.62,728.43461 1565.752,728.24961 1564.849,728.05861 1563.84,728.47823 1562.9329,728.39361 1559.2526,728.05035 1562.3546,727.57742 1552.6634,721.74599 1551.0116,720.75203 1548.608,721.88493 1546.5786,721.16768 1545.6385,720.83545 1544.2163,718.98955 1543.7963,718.13955 1543.2103,716.95455 1544.2123,715.38655 1543.8303,714.08555 1543.4863,712.91355 1541.0793,712.20255 1540.2763,713.22855 1539.7873,712.75455 1539.1043,711.34955 1538.7013,710.72355 1537.7693,709.27855 1537.4383,707.33755 1536.8103,705.73655 1536.3383,704.53455 1536.1033,703.17855 1535.4543,702.05155 1535.1553,701.53155 1534.7993,701.34655 1534.2933,701.09255 1533.7323,700.81255 1533.716,700.25561 1533.302,699.88561 1533.044,699.72061 1532.9433,699.57555 1532.6393,699.53855 1531.8463,699.31755 1531.7673,698.46555 1531.3463,697.89255 1530.4053,696.61455 1529.7683,695.05455 1528.5133,694.02955 1527.5943,693.27955 1526.4963,692.76655 1525.3183,692.62355 1524.2233,692.49255 1522.7093,692.48355 1522.1263,691.34155" id="et">
    <title>Ethiopia</title>
  </path>
  <path class="landxx tcd" d="M 1373.1663,634.82155 C 1373.4333,634.14755 1374.1013,634.29955 1374.4463,633.75355 1374.7513,633.27055 1374.8403,632.59155 1375.3263,632.23055 1375.9363,631.77655 1376.0423,630.05455 1376.3033,629.37055 1377.7113,625.67255 1380.8723,622.29255 1383.3903,619.31655 1385.6963,616.59055 1388.3183,614.28455 1388.4943,610.60055 1388.7143,605.98455 1388.8053,601.35855 1389.1313,596.74755 1389.3823,593.18555 1389.2023,588.49855 1390.9713,585.34155 1391.9893,583.52355 1391.3193,582.67455 1390.0873,581.25455 1389.7373,580.85155 1389.2963,580.53455 1388.9413,580.13555 1388.3253,579.44555 1389.1313,578.82655 1388.8543,578.11555 1388.2143,576.47155 1386.8731,575.19855 1386.1131,573.63455 1385.4701,572.31155 1385.8833,570.70355 1385.7393,569.28455 1385.5013,566.93855 1384.8013,564.67455 1384.4323,562.34855 1384.3893,562.07855 1383.9412,561.12124 1384.3142,560.93524 L 1392.5459,557.02761 1452.1161,590.74993 1452.7273,623.73455 C 1450.7583,623.12355 1450.5799,623.3685 1448.5179,623.69325 1447.1534,623.90814 1445.3873,623.69261 1444.9501,624.97021 1444.6312,625.90179 1445.5302,627.67403 1444.8486,628.5755 1444.2072,629.42365 1443.2334,632.32966 1441.8823,632.79956 1440.3475,633.33336 1440.9716,636.0017 1442.0683,637.05556 1439.5773,639.05156 1437.9544,640.30312 1439.8887,643.08594 1441.1968,644.96799 1438.1474,645.76375 1437.3084,647.34675 1436.7324,648.43375 1436.507,648.81006 1437.3824,649.68506 1438.1274,650.43006 1439.4049,649.63126 1440.207,649.63846 1441.2147,649.64746 1442.0574,650.11397 1441.41,650.90146 1440.4684,652.04665 1442.3798,653.40875 1441.6397,655.41759 1441.8987,655.28659 1442.1607,655.16659 1442.4297,655.05759 1443.0077,655.98659 1442.3517,657.03759 1442.3597,658.00959 1442.3697,659.12059 1442.5015,659.1354 1443.2031,659.90596 1443.8395,660.60483 1445.369,660.22421 1445.4727,662.12459 1445.5187,662.97083 1444.6991,664.50705 1444.9449,665.47116 1444.5122,664.73882 1442.4374,664.03686 1441.5237,664.51159 1440.9812,664.79344 1440.2277,665.03159 1439.8707,665.56159 1439.4307,666.21359 1439.3384,665.79953 1438.8444,666.34653 1438.0534,667.22353 1436.1527,667.00659 1435.8807,668.37859 1435.7697,668.94359 1436.2175,669.42087 1436.0357,670.00459 1435.4276,671.95712 1433.6665,672.76319 1432.2491,674.05159 1431.1194,675.07853 1430.5437,676.52716 1429.5297,677.65259 1427.7329,679.64678 1426.4858,680.09579 1423.9483,681.03959 1422.5053,681.57626 1418.9087,681.80959 1417.3897,681.66459 1416.8717,681.61559 1413.6877,682.36359 1414.8237,683.21959 1415.3177,683.59259 1416.6327,683.84259 1416.3367,684.72659 1415.9967,685.74359 1414.8107,687.17859 1414.0227,687.90759 1413.4037,688.47859 1412.8607,689.90659 1412.0787,690.09959 1410.5997,690.46659 1408.8057,690.18359 1407.2777,690.31959 1405.2637,690.49859 1403.7647,690.99759 1402.0397,692.06459 1401.0917,692.65059 1399.3137,693.16459 1398.8697,694.29659 1398.1877,693.31659 1397.2417,692.62559 1396.9297,691.41659 1396.2987,691.64359 1396.0007,692.47259 1395.6997,693.00059 1395.4857,693.37459 1394.2547,693.47559 1393.8377,693.65859 1391.7697,694.56759 1391.0607,694.40659 1388.8597,694.43959 1390.0167,692.98359 1388.7197,692.45059 1388.3027,691.08559 1387.7347,689.23059 1387.2447,687.15059 1386.0207,685.59759 1384.9777,684.27359 1383.5397,683.34959 1382.2447,682.29959 1380.9587,681.25459 1380.2437,679.98259 1379.2047,678.74259 1378.4977,677.89859 1376.7027,676.30259 1377.5547,675.07659 1378.4177,673.83459 1378.8347,672.95259 1380.4477,673.02759 1382.2497,673.11159 1384.0167,673.84359 1385.8047,673.23559 1386.5907,672.96859 1387.2867,673.36259 1387.9897,673.64459 1388.6417,673.90459 1389.5537,673.30459 1390.1597,673.12759 1386.5827,671.14059 1384.9127,666.34859 1385.1017,662.43659 1385.1447,661.54259 1385.5957,660.82759 1385.6867,659.97759 1385.7807,659.09559 1385.5547,658.20759 1385.5317,657.32759 1385.5147,656.66259 1385.6507,655.57159 1385.2607,654.98359 1384.9537,654.52159 1384.1067,654.86459 1384.1597,654.08459 1384.2297,653.05559 1383.8157,651.67259 1383.6057,650.66359 1383.4537,649.93559 1382.4202,649.82374 1381.8997,649.50159 1380.2387,648.47359 1382.3504,646.91947 1379.0677,646.42659 1378.2826,646.30871 1378.513,646.92395 1377.6675,646.27552 1376.4942,644.89213 1374.935,642.19266 1374.5294,641.44965 1373.439,639.45156 1373.5987,636.98759 1373.1667,634.82159" id="td">
    <title>Chad</title>
  </path>
  <path class="landxx nam" d="M 1360.1363,908.84853 C 1361.1943,908.68353 1362.0303,907.75153 1363.1613,907.95253 1364.1243,908.12353 1364.9953,908.85453 1366.0153,908.65953 1368.1403,908.25353 1369.5963,905.77553 1372.0163,906.43553 1373.9433,906.96153 1374.9684,909.12811 1376.9027,909.77035 1378.0001,910.13473 1381.3796,909.99317 1383.1753,910.00853 1391.3905,910.07883 1399.6176,910.24291 1407.8223,909.91253 1409.9936,909.82513 1410.7293,909.66644 1411.7542,911.58253 1413.0588,914.02156 1415.0112,913.48291 1417.3553,913.74053 1420.4283,914.07826 1423.6993,913.93781 1426.5777,914.94762 1427.6842,915.33584 1428.6798,915.47634 1429.6576,914.88362 1430.5218,914.35974 1431.3459,914.54768 1432.5945,914.85292 1433.8568,915.16148 1434.6049,914.95222 1435.4448,914.75732 1440.5717,913.56762 1446.3682,912.36457 1451.8023,911.33659 1452.8553,911.1374 1453.9233,910.65459 1455.0163,910.82159 1455.6623,910.92059 1456.6403,911.54259 1457.2813,911.22259 1459.3243,910.20259 1460.2686,912.36087 1461.6166,913.28687 1460.6326,913.03087 1459.4903,913.60459 1458.5573,913.96759 1457.3973,914.41859 1457.0563,916.14959 1455.9443,915.12659 1454.1543,913.48059 1450.6563,918.87359 1449.3383,919.50759 1448.6963,918.27159 1448.0043,915.51959 1446.1743,915.34659 1443.8173,915.12359 1440.8813,916.31359 1438.5843,916.80059 1435.8813,917.37359 1432.686,917.48368 1429.994,917.98568 L 1429.0001,949.88522 1422.2006,949.78662 1420.7239,1004.1676 C 1420.8928,1006.6525 1418.7693,1005.6064 1417.5855,1006.7328 1417.001,1007.2889 1417.0435,1007.8307 1415.8767,1008.233 1415.0797,1008.5078 1414.7093,1008.8426 1415.3593,1009.5786 1413.5643,1010.1096 1413.6502,1009.4357 1411.9809,1009.1892 1410.2268,1008.9301 1408.729,1009.8779 1406.6533,1009.4316 1403.3679,1008.7252 1401.4194,1007.5139 1401.2686,1006.9055 1400.8532,1005.2297 1401.2376,1005.9225 1401.3056,1004.5902 1401.2436,1004.0638 1400.6696,1004.2013 1400.27,1003.786 1399.6997,1003.1933 1399.2027,1001.9289 1398.5992,1002.3116 1396.6976,1003.5173 1397.223,1005.3076 1396.5592,1005.8266 1395.6158,1006.5643 1394.4322,1007.531 1393.4472,1006.2916 1392.1458,1004.6541 1390.4062,1003.3466 1389.2452,1001.5986 1388.2132,1000.0436 1387.3902,998.36663 1386.5582,996.69963 1386.1162,995.81463 1386.0752,994.86263 1385.9212,993.90763 1385.7622,992.92162 1385.0912,992.40762 1384.8982,991.50962 1384.5432,989.86262 1385.2782,989.25762 1384.0592,987.73962 1383.5722,987.13362 1383.7352,986.74262 1383.7522,985.96862 1383.7812,984.71762 1383.3472,983.63462 1383.2122,982.41462 1383.1162,981.54562 1383.1912,980.66562 1382.9422,979.81562 1382.5912,978.61362 1383.1922,977.45062 1382.9582,976.24862 1382.5552,974.17662 1381.5702,972.28562 1380.8182,970.33062 1379.9692,968.12362 1380.6042,966.26062 1380.3822,964.02662 1380.2322,962.51062 1380.0113,960.61268 1380.1482,959.82962 1380.2122,959.46268 1381.1322,955.78062 1380.7292,955.86962 1380.6332,953.88662 1379.6322,951.94462 1378.5072,950.35362 1377.8742,949.45862 1377.1512,948.62462 1376.6192,947.66062 1376.1312,946.77462 1376.0302,945.69062 1375.3912,944.88362 1372.4462,941.16462 1371.8142,936.64962 1369.6392,932.61962 1367.6442,928.92562 1366.9742,923.85162 1363.7322,920.94562 1360.2432,917.82062 1359.8352,913.25762 1360.1362,908.84862" id="na">
    <title>Namibia</title>
  </path>
  <g class="world_map-is_selected landxx coastxx tza" id="tz" transform="translate(-29.9017,-45.0745)">
    <title>Tanzania, United Republic of</title>
    <path d="M 1599.559,856.733 C 1599.841,858.532 1600.098,859.174 1601.521,860.41 1602.508,861.267 1602.794,856.922 1601.208,858.243 1601.467,857.138 1601.132,855.326 1600.559,854.352 1600.322,855.128 1599.321,855.84 1599.559,856.733" id="path4894"/>
    <path d="M 1602.798,873.793 C 1603.571,873.096 1604.855,872.641 1604.378,871.343 1603.939,872.387 1602.627,872.439 1602.798,873.793" id="path4896"/>
    <path d="M 1603.298,847.873 C 1603.416,848.79 1604.205,849.559 1603.149,849.673 1603.4,849.829 1603.643,849.995 1603.878,850.173 1602.391,851.018 1603.725,852.309 1604.348,850.947 1605.086,849.332 1604.879,847.762 1603.369,847.154 1603.345,847.393 1603.321,847.633 1603.298,847.873" id="path4898"/>
    <path class="world_map-is_selected landxx tza" d="M 1527.5614,851.34618 C 1528.1381,847.11097 1528.2989,850.05803 1526.5102,846.25711 1526.1694,845.53294 1526.9575,844.23754 1526.5742,843.02741 1528.3242,842.8424 1528.6125,842.69458 1529.7465,841.396 1530.654,840.35681 1532.1304,838.93631 1533.0484,837.81167 1533.7133,836.99717 1532.3057,836.203 1532.5917,835.606 1532.9357,834.888 1534.3706,835.46779 1534.1186,834.61679 1533.9526,834.05379 1535.3765,833.243 1535.6765,832.954 1536.5345,832.128 1535.2995,831.157 1536.0475,830.373 1533.7495,831.02 1532.3075,829.637 1533.5975,827.573 1532.3475,827.693 1533.2265,826.776 1533.6845,826.049 1534.2665,825.126 1535.394,825.49114 1535.882,824.54914 1536.791,822.79314 1535.3931,819.64315 1534.604,817.95442 1534.0521,816.77319 1532.128,814.06959 1533.9577,813.47095 1536.2113,812.73364 1541.2344,813.30505 1543.6561,813.37675 1544.6635,817.16006 1542.9111,817.23926 1543.0432,817.67839 1543.499,819.19335 1542.1798,820.99345 1542.2306,821.36491 1543.0198,822.42517 1542.1566,823.43957 1542.3196,823.98737 1542.8671,825.82115 1543.3216,824.36658 1543.5431,828.84003 1543.6599,827.89243 1544.3558,827.38399 1544.9226,828.41524 1544.6979,826.57866 1544.9446,826.40243 1546.0852,826.54893 1545.2241,826.08027 1545.7898,825.0238 1547.1361,824.27302 1547.3984,824.53654 1548.7112,827.34557 1550.0922,825.55089 1549.9128,825.98086 1550.9215,826.1304 1551.0931,826.70106 1551.4314,827.82637 1551.4205,829.85464 1550.4358,829.40859 L 1551.0154,830.16512 C 1551.5052,829.59542 1550.6275,829.39107 1552.5689,829.23363 1551.4015,829.44534 1549.6394,822.84927 1555.7059,826.62527 1555.9715,825.00766 1560.0758,823.17326 1558.8327,823.04711 1557.3274,822.89434 1557.514,823.52684 1556.6829,823.41578 1554.1761,823.08074 1554.292,822.59212 1554.154,822.70171 1554.748,822.02203 1554.194,822.0232 1556.8078,821.83942 1556.5773,820.88414 1554.2236,821.40417 1554.7818,821.24555 1555.038,821.01319 1553.9814,820.61275 1556.8687,820.22524 1557.186,820.18264 1557.6253,819.6698 1557.4913,819.08953 1557.4103,818.73739 1557.8393,819.02753 1557.9784,818.84611 1556.8405,817.64655 1557.6423,817.50336 1557.9134,817.34874 1558.1796,817.19698 1558.4656,817.50095 1559.7391,817.7532 1559.4878,817.782 1558.7706,816.6755 1559.3499,816.03018 1559.703,815.56587 1559.3499,816.53794 1559.6815,816.10648 1559.2866,815.81966 1559.4229,815.15285 1559.7175,814.80338 1560.0146,814.42602 1560.4356,814.01307 1560.7305,813.63438 L 1583.5709,827.95519 C 1585.5049,829.18219 1587.9143,830.06478 1588.4903,832.41978 1588.7363,833.42978 1587.9384,833.39405 1587.7284,834.26005 1587.5734,834.89905 1588.6784,835.62105 1589.0414,836.15305 1590.2904,837.98605 1592.7704,839.21105 1594.4034,840.68505 1595.3754,841.56305 1599.9813,844.53123 1599.8093,845.81123 1599.5343,847.86523 1598.7884,850.17405 1597.9374,852.06605 1597.5044,853.02905 1597.0404,853.98305 1596.7304,854.99505 1596.5774,855.47305 1596.4804,855.96105 1596.4414,856.46105 1596.3984,857.14505 1597.0294,857.77005 1596.9214,858.37705 1596.4604,860.96805 1600.6484,861.16805 1600.1274,863.93205 1602.3904,863.21505 1602.0884,865.89405 1601.2394,866.96805 1599.8874,868.67605 1600.6794,870.69505 1599.7664,872.35205 1601.3354,870.92405 1601.2364,873.88605 1600.8704,874.64405 1600.3324,875.75705 1599.9044,877.10305 1600.0664,878.35405 1600.2164,879.51205 1601.9094,881.46205 1600.6364,881.71205 1601.6024,881.89605 1601.0374,883.69105 1601.7854,883.61705 1603.0044,883.49805 1602.3794,884.84505 1602.1144,885.43205 1601.6264,886.51805 1602.8944,886.91705 1603.1154,887.90905 1603.2384,888.46105 1602.8194,888.78805 1603.1154,889.34405 1603.5034,890.07205 1603.6794,890.51305 1602.9354,891.14205 1604.2014,890.90705 1604.6994,891.98505 1604.9454,893.01205 1604.8349,891.21802 1609.2306,893.80479 1607.8256,895.78862 1604.8003,898.12539 1602.137,899.4965 1599.3425,901.21783 1598.3275,901.57283 1598.1835,900.93173 1597.1595,901.28273 1596.0835,901.65073 1594.4564,902.94305 1593.3634,903.30205 1592.2834,903.65605 1590.9776,901.54569 1589.7554,902.15805 1588.3434,902.86554 1587.7389,905.01004 1586.2346,905.67523 1583.7231,906.78577 1583.2328,905.93614 1582.4371,905.25351 1580.8791,903.91682 1580.3107,906.37264 1578.5961,906.17351 1576.6253,905.94463 1575.9558,906.21281 1574.8724,904.84703 1574.0293,903.78415 1573.06,903.29257 1571.829,904.43105 1570.9596,905.23505 1567.9459,905.09175 1566.3964,904.77058 1566.252,904.63053 1566.1762,903.82791 1565.9772,903.53191 1565.4304,902.7187 1564.8758,901.90054 1564.4228,900.99954 1563.7918,899.74654 1564.2239,898.3844 1563.9619,897.0554 1563.6109,895.2814 1563.9119,893.64005 1563.4684,891.89505 1563.0054,890.07605 1561.8713,888.39117 1560.4266,887.26705 1559.0194,886.17216 1558.7445,888.29632 1558.8744,888.62205 1557.4384,887.07605 1556.0884,888.52005 1554.7404,887.04405 1554.3174,886.58005 1552.7216,886.46042 1552.1044,886.10205 1551.0574,885.49413 1550.1164,884.99608 1548.5466,884.76605 1548.2979,884.72965 1548.083,884.34446 1547.966,884.12346 1547.468,883.50846 1547.0619,883.656 1546.4249,883.337 1545.8279,883.039 1545.0344,883.14005 1544.4444,882.82705 1543.9004,882.53805 1543.7724,881.86005 1543.2734,881.61405 1542.8644,881.41205 1542.3893,881.90169 1541.9573,881.77569 1541.2533,881.56969 1541.1553,880.82101 1540.7823,880.30069 1540.0495,879.27862 1539.1191,879.09036 1538.1218,879.1601 1537.6526,878.10596 1535.1741,873.04688 1534.029,869.99849 1532.9723,867.18544 1533.7626,861.95897 1529.8237,860.46829 1529.2294,860.24337 1529.7136,860.92019 1529.0304,860.60478 1527.5859,859.93794 1526.1383,858.31111 1528.7013,855.78941 1529.6898,854.81692 1528.0125,852.96624 1527.5608,851.31437" id="path5432"/>
  </g>
  <path class="landxx bdi" d="M 1492.2463,783.28855 C 1493.1904,780.25239 1494.8321,783.57222 1495.0676,783.59959 1498.4254,783.98981 1499.097,782.89347 1499.3763,779.53855 1501.2216,781.12259 1500.6331,778.8301 1504.7955,780.27482 1504.0924,780.61673 1502.3062,782.56032 1503.6953,782.49855 1502.5234,785.56602 1504.8489,785.68582 1506.1453,785.29855 1505.3528,786.50352 1507.13,787.00976 1505.44,788.21731 1504.3961,788.9632 1504.43,788.54395 1504.1927,789.88653 1504.1337,790.21716 1502.9196,790.05287 1502.7156,790.47987 1502.4876,790.95487 1503.4474,792.04322 1503.3326,792.34419 1503.2576,792.54018 1502.7398,793.57794 1501.8636,794.22082 1500.4895,795.22907 1500.2963,796.41708 1498.8335,797.35828 1498.1135,797.82153 1497.3765,797.95895 1496.7349,797.96046 1496.4743,797.08612 1494.919,793.79663 1494.6159,792.71808 1494.1785,791.16132 1494.7953,789.54877 1493.7563,788.19655 1493.8786,787.43362 1494.2537,786.50266 1493.6433,785.65655 1493.1038,784.90861 1492.4923,784.20455 1492.2463,783.28855" id="bi">
    <title>Burundi</title>
  </path>
  <path class="landxx rwa" d="M 1491.1763,781.12855 C 1490.6473,780.03755 1493.3966,778.17192 1493.3686,776.71792 1493.3186,774.16292 1494.4694,773.055 1496.6474,771.788 1496.9184,771.63 1498.2223,770.80455 1498.5633,771.06955 1499.0243,771.42655 1499.1953,772.65955 1499.9363,771.84055 1500.5183,771.19755 1502.4223,768.36655 1503.4863,768.73855 1502.9903,770.20355 1504.2488,772.05305 1504.9158,773.13905 1505.7498,774.49605 1506.5983,776.82955 1506.3763,778.38755 1506.0963,780.34755 1504.9793,780.60255 1503.3243,779.97355 1501.4453,779.25955 1500.9893,780.96255 1499.3763,779.53755 1499.1443,781.30655 1499.2943,783.23655 1497.1543,783.68055 1496.0643,783.90655 1495.0483,784.04855 1494.5133,782.95755 1493.9253,781.75755 1492.3703,781.85355 1492.2453,783.28755 1491.5693,782.65355 1491.2403,782.06755 1491.1763,781.12855" id="rw">
    <title>Rwanda</title>
  </path>
  <path class="landxx mwi" d="M 1518.9403,878.12856 C 1519.189,877.63782 1520.5368,875.46785 1521.0122,874.03709 1521.4901,872.59887 1521.3925,872.2069 1521.1002,870.32655 1520.8318,868.60275 1524.7217,867.51155 1525.5167,866.65955 1522.6976,865.80246 1523.8797,861.17186 1523.8717,859.13255 1523.8617,857.43158 1524.9637,856.71255 1524.0407,854.99555 1522.9647,852.99155 1524.5641,853.4425 1525.6373,852.64601 1526.8976,851.71064 1527.205,849.76819 1525.0987,847.32235 1523.4061,845.35683 1525.5229,844.76216 1523.9194,843.69475 1522.5979,842.81505 1522.0783,842.8523 1521.7687,842.52627 1521.5983,842.34686 1522.0859,841.25759 1521.6175,840.69534 1521.8516,840.87487 1523.5054,841.50319 1524.3039,841.60847 1525.2992,841.73969 1525.0287,842.49068 1525.8595,842.60746 1526.6727,842.72179 1528.4712,842.57266 1528.9767,843.54955 1528.9987,844.85811 1529.0627,846.40144 1530.6593,848.32919 1532.0979,850.06609 1530.7283,850.41911 1530.9421,851.80786 1531.1241,852.98907 1531.5611,858.53551 1531.5808,859.18107 1531.6588,861.73492 1528.3502,864.27058 1529.2291,865.78909 1532.6133,871.63628 1531.5335,871.55128 1531.3443,872.7264 1530.5567,877.61864 1533.8773,876.51362 1533.3745,878.72391 1532.1326,884.18293 1535.4181,883.29473 1535.2682,880.69672 L 1537.9825,884.18916 C 1538.6176,884.51439 1538.2447,879.71149 1536.4254,878.28021 1534.7754,878.53026 1535.4874,876.97932 1535.2763,876.53563 1536.5794,877.16971 1536.7227,877.2596 1538.2577,879.58355 1539.2739,881.12214 1540.1746,882.73405 1541.5469,884.33155 1543.0713,886.10606 1543.108,887.80855 1542.5365,890.05755 1542.0344,892.03361 1542.7763,893.96876 1542.4545,896.01876 1542.3155,896.90376 1542.0515,897.95576 1541.2905,898.52276 1540.4445,899.15376 1539.2395,898.95192 1538.4365,899.64075 1537.6482,900.31688 1537.899,901.77554 1536.7359,902.70991 1536.9934,903.03191 1537.853,904.73618 1537.9149,905.68455 1537.9449,906.07455 1537.9279,907.27758 1537.5609,907.67955 1537.193,908.08229 1535.7752,907.98832 1535.9797,907.24636 1536.4119,905.6779 1537.1473,906.11445 1535.4969,904.53055 1534.3786,903.45737 1531.3112,900.44223 1531.1577,899.24115 1530.8903,897.148 1530.3314,897.62978 1530.7518,895.99108 1530.9432,895.2449 1531.3999,893.64255 1531.9389,892.93055 1532.7939,891.80055 1532.6471,891.48806 1532.7829,890.07055 1532.9427,888.40155 1532.9517,886.18678 1531.8061,884.52895 1531.3568,883.87874 1530.0071,884.77488 1528.7963,884.91634 1527.8124,885.0313 1526.3459,884.74955 1526.3059,885.66855 1525.7329,885.04855 1521.9336,880.61071 1521.7035,880.70337 1520.7216,881.09873 1518.6848,878.92103 1518.9409,878.12856 z" id="mw">
    <title>Malawi</title>
  </path>
  <path class="landxx caf" d="M 1451.1212,678.07255 C 1451.0027,680.12441 1449.2175,680.40209 1449.4879,681.91055 1449.7519,681.81555 1450.0139,681.71955 1450.2779,681.62355 1450.4909,682.42455 1450.0509,683.14355 1449.7779,683.85455 1451.3759,684.14555 1453.2569,683.73255 1454.7369,684.54655 1455.117,684.673 1455.3015,684.93581 1455.3009,685.41982 1454.8695,687.32716 1455.2209,687.96258 1456.7199,688.21755 1457.714,688.4613 1459.1099,688.28055 1459.9689,688.92855 1460.9699,689.68455 1461.4762,690.52096 1462.5569,691.32455 1464.2426,692.57805 1462.9497,693.54731 1462.9293,694.17699 1462.8953,695.23726 1464.3949,695.99924 1465.2129,696.48324 1466.0929,697.00524 1467.0564,697.58327 1467.9679,698.04955 1469.7467,698.95948 1469.2047,699.44987 1469.8589,700.48555 1470.3213,701.2176 1472.2951,701.58865 1471.7529,702.67455 1471.0309,704.12055 1471.6234,704.37114 1472.5128,705.2013 1473.3273,705.96141 1472.4128,706.59754 1473.8059,707.51255 1474.6942,708.09602 1475.5829,708.39155 1476.5589,708.89255 1478.1299,709.69855 1478.7174,710.64994 1478.6472,712.35861 1478.5812,713.95472 1479.6704,714.83063 1480.1599,716.18155 1478.9011,714.81222 1477.2193,714.25572 1476.1009,715.41942 1475.6269,715.91267 1474.6459,715.79055 1474.0649,715.73155 1473.7829,715.63655 1473.5099,715.65555 1473.2489,715.78855 1472.5959,716.11655 1472.3636,715.50474 1471.8646,715.30974 1470.8646,714.91974 1470.0446,714.10957 1468.9829,714.41255 1466.8598,715.01841 1466.7887,713.60553 1465.4338,713.3968 1464.5715,713.26395 1463.9672,713.8203 1464.1352,714.6773 1464.4102,716.0803 1462.754,716.29468 1461.775,716.60268 1460.799,716.90868 1459.4616,717.3538 1458.5536,716.69078 1458.0666,716.33578 1457.004,714.80759 1456.717,715.76259 1456.322,717.07259 1453.6444,717.94291 1452.5118,718.14891 1450.4389,718.52591 1449.1052,720.47435 1448.2269,719.51553 1447.2358,718.4335 1446.1273,716.86815 1444.4775,718.79215 1443.9758,719.37724 1444.0284,720.25859 1443.6434,720.89859 1443.1174,721.77259 1443.0089,722.95853 1442.0709,723.59953 1440.7629,724.49353 1437.6891,722.54013 1436.0622,722.60084 1435.1132,722.63624 1434.929,722.91573 1433.8187,722.54684 1432.6795,722.16837 1432.2901,722.72098 1431.4988,721.7429 1430.7046,720.76116 1429.0441,721.59477 1427.9301,721.39477 1426.5341,721.14377 1426.5075,719.21997 1425.7295,718.46314 1424.3744,717.14498 1422.3301,716.2334 1421.0292,715.44196 1419.197,714.32724 1416.5859,716.63152 1415.6579,718.23052 1415.1299,719.14052 1414.3729,720.04952 1414.0109,721.03652 1413.7269,721.80752 1412.6219,721.67596 1412.3319,722.11496 1411.8669,722.81796 1413.0406,724.26285 1412.9539,725.07752 1412.828,726.26033 1412.7121,726.77426 1412.7719,729.43152 1411.7739,727.77752 1409.254,729.20771 1407.554,728.95471 1406.791,728.84171 1405.4799,728.22452 1404.7759,727.89952 1403.4189,727.27352 1402.2995,728.5509 1400.9175,728.8239 1398.8825,729.2259 1397.2589,728.52452 1396.8109,731.04352 1396.5689,732.40352 1396.7099,733.88452 1396.4599,735.20152 1396.1259,736.96952 1394.9339,738.67552 1394.3309,740.37552 1393.8759,738.39552 1393.5129,736.63152 1393.3699,734.61852 1393.2259,732.59752 1391.0909,732.70352 1390.0299,731.52352 1389.5089,730.94252 1384.0749,724.59952 1386.5609,724.53652 1385.2749,723.62952 1385.5399,721.63552 1384.2219,720.60552 1382.5119,719.27052 1382.7609,717.35252 1382.6859,715.34552 1382.6579,714.59552 1381.6859,714.08252 1381.7129,713.57952 1381.7529,712.83752 1382.1829,712.07952 1382.2339,711.29752 1382.2909,710.44352 1382.2909,709.52152 1382.0519,708.69052 1381.8239,707.90952 1380.8709,708.27352 1380.5761,707.25354 1381.0663,706.45755 1381.8023,705.92855 1382.5093,705.34555 1383.6073,704.44155 1383.7123,703.40255 1384.4203,702.26655 1385.6243,700.33455 1386.4497,697.44227 1387.8027,695.60327 1389.4787,693.32227 1389.7453,694.882 1391.9013,694.255 1393.0263,693.928 1393.9093,693.69155 1395.0003,693.34255 1396.0773,692.99755 1395.7853,691.82355 1396.9263,691.41455 1397.2383,692.62355 1398.1843,693.31355 1398.8663,694.29455 1399.4693,693.09556 1401.3187,692.51185 1401.8849,692.08161 1403.6695,690.72565 1406.4687,690.18017 1408.6007,690.17517 1410.4667,690.17117 1412.3012,690.70048 1413.2153,688.97355 1413.8599,687.7558 1416.4812,685.5951 1416.3423,684.43255 1416.2563,683.71157 1414.6533,683.89741 1414.5822,682.97268 1414.4731,681.55328 1418.8256,681.51557 1419.9661,681.53461 1423.5273,681.59411 1427.4365,680.19691 1429.7613,677.31355 1430.9838,675.79739 1431.7383,674.16755 1433.3163,672.99555 1434.1153,672.40255 1436.349,670.38344 1435.903,669.45455 1435.3421,668.28642 1436.2628,667.11714 1437.6713,666.77755 1439.2627,666.39385 1440.4951,664.39323 1442.3522,664.34936 1444.5957,664.29636 1445.1131,665.75286 1446.1052,666.95524 1447.6648,668.84522 1449.3555,670.2525 1450.2786,672.27436 1451.2105,674.34432 1451.3255,676.03561 1451.1212,678.07255 z" id="cf">
    <title>Central African Republic</title>
  </path>
  <path class="landxx zwe" d="M 1461.9363,913.67855 C 1462.9053,913.90455 1463.8603,914.11055 1464.8323,913.75355 1465.7773,913.40655 1466.2353,914.81555 1466.8423,915.20655 1467.5113,915.63755 1468.6641,914.58064 1469.3111,914.48064 1470.1461,914.35164 1471.3953,915.29291 1472.1183,915.60291 1474.2193,916.50291 1475.4802,914.58645 1476.6113,913.06055 1478.1213,911.02355 1479.6153,909.1162 1480.6933,907.30155 1481.2129,906.42695 1481.9317,906.07905 1482.7083,905.46837 1483.7617,904.64006 1484.9212,904.12106 1486.1863,903.59455 1488.6501,902.56915 1489.0983,902.27455 1489.2423,899.47755 1489.3123,898.10655 1491.6083,896.41155 1492.8503,895.91955 1494.0153,895.45855 1495.4373,894.82455 1496.6913,894.77655 1498.2103,894.71755 1499.7423,895.19855 1501.2493,894.81655 1501.2493,897.67955 1501.0033,897.95555 1504.1773,897.95555 1506.1553,897.95555 1507.2593,898.44294 1509.2073,899.22656 1510.2929,899.66326 1512.7959,901.12102 1513.816,901.66772 1515.2925,902.45903 1517.7656,902.12155 1518.3553,903.36876 1518.7902,904.28867 1519.5403,904.35655 1520.4103,904.09755 1520.1853,905.42755 1519.4023,906.19055 1520.0263,907.56255 1520.7583,909.17455 1519.8523,910.35655 1520.3503,911.86755 1520.8343,913.33355 1519.7403,914.96455 1520.0483,916.55755 1520.2633,917.66155 1520.9343,918.56955 1519.9553,919.44655 1519.2393,920.08755 1519.8943,921.58755 1519.4723,921.82655 1518.4403,922.40855 1518.1793,922.32055 1517.7793,923.61355 1517.6023,924.18755 1518.5533,924.39555 1518.8353,924.65155 1519.0743,924.86955 1518.8733,925.71855 1518.8353,925.96455 1518.7383,926.55255 1518.2633,926.86955 1518.0993,927.41255 1517.9723,927.83455 1518.6233,929.40655 1518.7523,929.87855 1518.9923,929.78155 1519.2313,929.68455 1519.4723,929.58855 1519.3953,931.15955 1520.0213,931.77955 1519.0713,933.37555 1518.3063,934.65855 1517.8133,936.78855 1516.3903,937.45755 1514.8343,938.18855 1516.0253,939.17955 1515.7323,940.38955 1515.3733,941.86855 1514.2223,942.72655 1515.3723,944.20955 1514.1773,943.34055 1508.7638,951.3361 1507.7663,951.97455 1506.8248,952.57719 1506.3445,953.90815 1505.9481,953.8989 1505.101,952.14255 1501.7538,952.8712 1500.0625,952.87553 1498.5895,952.87953 1497.2355,952.3088 1495.8679,951.83674 1492.7379,950.75633 1491.7806,951.52697 1491.6115,951.32435 1490.7848,950.33397 1490.6797,950.82141 1489.7323,950.30155 1488.6822,949.72533 1489.7323,948.79655 1489.3993,948.36155 1487.8933,946.41155 1482.3056,947.66062 1481.4653,945.60555 1480.6448,943.59894 1479.045,941.68226 1479.7283,939.67955 1480.6675,936.9269 1479.3153,936.29655 1476.5623,936.86055 1477.0553,934.25755 1476.3733,933.19655 1473.9633,932.48055 1472.0553,931.91455 1469.5033,929.78155 1468.4323,928.11655 1466.7983,925.57855 1466.7763,922.40455 1464.8223,919.94055 1463.9673,918.86555 1461.2433,915.11355 1461.9383,913.67855" id="zw">
    <title>Zimbabwe</title>
  </path>
  <g id="km">
    <title>Comoros</title>
    <g class="landxx coastxx com" id="km-" transform="translate(-29.9017,-45.0745)">
      <path d="M 1630.878,907.923 C 1631.321,907.517 1631.048,906.747 1630.868,906.303 1630.415,905.175 1630.703,904.133 1630.366,903.022 1628.987,902.98 1629.592,904.8 1629.284,905.589 1628.801,906.83 1630.279,907.16 1630.876,907.923" id="path5750"/>
      <path d="M 1633.758,911.813 C 1633.518,911.118 1632.877,910.565 1632.098,910.722 1632.098,911.719 1633.047,911.662 1633.758,911.813" id="path5752"/>
      <path d="M 1638.798,911.733 C 1639.645,909.539 1637.964,910.357 1636.639,910.003 1637.383,910.548 1638.189,911.024 1638.798,911.733" id="path5754"/>
    </g>
    <circle class="circlexx com" cx="1603.8311" cy="862.79865" id="km." r="6.0130301" rx="6.0130301" ry="6.0130301"/>
  </g>
  </svg>