<svg xmlns="http://www.w3.org/2000/svg" class="world_map zoom4" height="127" id="svg2985" version="1.1" viewBox="1457 678 119 138" width="127">
  <title>World Map</title>
  <defs id="defs2987"/>
  <defs>
    <link xmlns="http://www.w3.org/1999/xhtml" href="../css/svg.css" type="text/css" rel="stylesheet"/>
  </defs>
  <style id="style_css_sheet" type="text/css">
/*
 * Below are Cascading Style Sheet (CSS) definitions in use in this file,
 * which allow easily changing how countries are displayed.
 *
 */
/* --- Custom styles for Peace Corps --- */
.world_map .world_map-is_selected {
  fill: #C94112 !important;
}
.world_map .landxx {
  fill: #F2EFE8;
  stroke: #ffffff;
  fill-rule: evenodd;
}
.world_map.zoom4 .landxx {
  stroke-width: 2px;
}
.world_map.zoom3 .landxx {
  stroke-width: 3px;
}
.world_map.zoom2 .landxx {
  stroke-width: 4px;
}
.world_map.zoom1 .landxx {
  stroke-width: 5px;
}
.world_map .coastxx {
  fill: #F2EFE8;
  stroke: #ffffff;
  stroke-width: 2px;
  fill-rule: evenodd;
}
.world_map .oceanxx {
  opacity: 1;
  color: #ccc;
  fill: #ffffff;
  stroke: #ffffff;
  stroke-width: 0.5;
  stroke-miterlimit: 1;
}

/* --- Original Styles --- *
/*
 * Circles around small countries
 *
 * Change opacity to 1 to display all circles.
 *
 */
.circlexx
{
   opacity:0;
   fill:#e0e0e0;
   stroke:#000000;
   stroke-width:0.5;
}

/*
 * Smaller circles around French DOMs and Chinese SARs
 *
 * Change opacity to 1 to display all subnational circles.
 *
 */
.subxx
{
   opacity:0;
   stroke-width:0.3;
}

/*
 * Circles around small, unrecognized countries
 *
 * Change opacity to 1 to display all circles.
 *
 */
.unxx
{
   opacity:0;
   fill:#e0e0e0;
   stroke:#000000;
   stroke-width:0.3;
}

/*
 * Circles around small countries, but with no permanent residents 
 *
 * Change opacity to 1 to display all circles.
 *
 */
.noxx
{
   opacity:0;
   fill:#e0e0e0;
   stroke:#000000;
   stroke-width:0.5;
}

/*
 * land
 */
.landxx
{
}
/*
 * Styles for coastlines of islands with no borders
 */


/*
 * Styles for nations with limited recognition
 */
.limitxx
{
   fill: #e0e0e0;
   stroke:#ffffff;
   stroke-width:0;
   fill-rule:evenodd;
}

/*
 * Styles for nations with no permanent population.
 */
.antxx
{
   fill: #e0e0e0;
   stroke:#ffffff;
   stroke-width:0;
   fill-rule:evenodd;
}

/*
 * Ocean
 */


/*
 * Additional style rules
 *
 * The following are examples of colouring countries.  You can substitute these with your own styles to colour the countries on the map.
 *
 * Color a few countries:
 *
 * .gb, .au, .nc
 * {
 *    fill:       #ff0000;
 * }
 *
 * Color a few small country circles (and the countries):
 *
 * .ms, .ky
 * {
 *    opacity:    1;
 *    fill:       #ff0000;
 * }
 *
 */

</style>
  <path class="oceanxx" d="M 2079.5058,1457.5605 615.24779,1457.5605 C 615.13079,1457.5605 615.07079,1457.5505 614.95179,1457.5215 611.67679,1456.6515 608.40179,1455.7815 605.12779,1454.9105 599.15079,1453.3225 593.22879,1451.5225 587.30779,1449.7385 564.39379,1442.8315 541.76579,1434.6995 519.46979,1426.0115 495.81079,1416.7935 472.34979,1407.0946 449.19179,1396.6816 426.78379,1386.6056 405.17679,1375.0536 383.76379,1363.0356 363.11779,1351.4496 343.01079,1338.8296 323.37979,1325.5996 302.29179,1311.3876 281.47879,1296.8506 261.05379,1281.7006 242.35079,1267.8276 223.73679,1253.6306 206.05279,1238.4686 186.98679,1222.1216 167.82379,1205.7706 150.35279,1187.6906 132.97779,1169.7106 116.33279,1151.0606 100.15679,1131.9976 84.352777,1113.3736 70.086776,1093.4716 56.901786,1072.9246 44.046786,1052.8916 32.093776,1032.1356 22.469776,1010.3426 17.516776,999.12753 12.408776,987.76556 8.7017761,976.06056 5.0657761,964.58166 1.5997761,953.04259 -1.5932239,941.43054 -8.0102239,918.09356 -14.055224,894.78356 -18.234224,870.92056 -22.491222,846.60856 -24.894222,822.19856 -26.943222,797.62156 -28.947222,773.58556 -28.829222,749.40156 -27.225222,725.34856 -25.648222,701.69856 -23.363222,677.92456 -19.274222,654.56456 -15.018224,630.25156 -9.3842239,606.45156 -2.8412239,582.66156 3.5687761,559.35256 10.483776,536.34856 20.265776,514.19856 30.320776,491.42956 42.318786,469.90956 55.502786,448.81656 68.512776,428.00356 83.108777,408.26756 98.686787,389.31756 113.73479,371.01156 129.68979,353.25256 146.15179,336.20856 163.77479,317.96256 182.64579,301.14556 201.89579,284.64756 220.33379,268.84456 239.55379,253.98456 258.95979,239.39656 278.42779,224.76056 298.39379,210.83356 318.55579,197.17556 339.26979,183.14456 360.47879,169.92056 382.15079,157.42556 403.46579,145.13656 425.31479,133.98856 447.60479,123.59356 469.58579,113.34356 492.14979,104.17656 514.74579,95.37556 537.44879,86.532565 560.37879,78.195565 583.63479,70.914565 589.69379,69.017565 595.80079,67.276565 601.90879,65.549565 604.63079,64.779565 607.36079,64.045565 610.09479,63.318565 611.59979,62.918565 613.56579,61.986565 615.13379,61.986565 L 2079.9638,61.986565 C 2079.9798,61.986565 2079.9958,61.986565 2080.0118,61.986565 2079.8448,61.986565 2079.6788,61.986565 2079.5118,61.986565 2102.8268,68.191565 2125.8778,75.323565 2148.5448,83.611565 2171.6378,92.054565 2194.6158,100.87956 2217.2348,110.52956 2240.5208,120.46556 2263.4848,130.95256 2285.8828,142.76456 2306.9808,153.89056 2327.8178,165.78556 2347.8608,178.72156 2368.9418,192.32656 2389.7498,206.29256 2410.2218,220.80056 2429.7368,234.62956 2448.9938,248.98756 2467.6208,263.99256 2486.8818,279.50856 2506.0408,295.30556 2524.0538,312.27356 2541.8708,329.05756 2558.7508,346.67256 2574.9408,365.03656 2591.2478,383.53256 2607.1478,402.30656 2621.4508,422.41856 2635.3488,441.96256 2648.4468,462.42756 2659.5898,483.67756 2671.1238,505.67356 2681.1048,528.35656 2688.6188,552.05056 2692.2518,563.50656 2695.3368,575.14756 2698.5608,586.72256 2701.7738,598.25356 2704.9238,609.81956 2707.4578,621.52456 2712.6258,645.40556 2716.6718,669.47856 2719.1178,693.79656 2721.5718,718.19256 2723.1798,742.56356 2722.9808,767.09056 2722.7908,790.65456 2720.6908,814.43756 2717.7688,837.81156 2714.7368,862.07056 2710.5198,886.16156 2704.6398,909.90056 2701.6808,921.84356 2698.3948,933.69556 2695.0378,945.53154 2691.7468,957.13466 2688.5558,968.83466 2684.3988,980.16156 2676.0918,1002.8036 2666.1688,1024.8836 2654.1338,1045.8046 2641.9958,1066.9066 2628.8498,1087.4866 2614.2378,1106.9696 2599.1658,1127.0666 2582.6678,1145.9446 2565.8948,1164.6296 2549.8298,1182.5266 2532.8918,1199.7316 2514.8648,1215.6616 2496.0788,1232.2646 2476.8978,1248.3126 2457.1558,1263.7656 2438.2988,1278.5276 2418.9668,1292.7306 2399.3188,1306.4206 2378.7018,1320.7866 2357.7538,1334.6106 2336.4758,1347.9776 2326.4088,1354.3016 2316.0058,1360.1326 2305.6418,1365.9516 2295.0348,1371.9086 2284.3858,1378.0166 2273.4448,1383.3436 2250.7338,1394.3986 2227.7768,1404.7266 2204.3888,1414.2665 2181.7848,1423.4875 2159.0678,1432.2695 2136.0228,1440.3345 2117.4118,1446.8465 2098.5568,1452.4975 2079.5058,1457.5605" id="ocean"/>
  <path class="landxx sdn" d="M 1459.2027,675.52234 C 1459.5149,675.20908 1459.5678,674.60503 1459.84,674.33263 1460.267,673.90582 1460.9019,673.52581 1461.3272,673.10045 1461.9934,672.4343 1461.3272,671.01024 1462.0069,670.33868 1462.4875,669.85804 1463.9833,670.57178 1464.5564,669.99876 1464.9498,669.6052 1467.2434,668.90432 1467.6156,669.27643 1468.1191,669.78016 1468.0506,671.45357 1468.2952,671.69831 1468.5077,671.90984 1469.2647,671.77521 1469.4426,671.95331 1469.7711,672.28183 1469.7936,672.91034 1469.9948,673.31294 1470.1268,673.58016 1470.4481,673.89368 1470.5898,674.03525 1471.1008,674.54609 1470.8217,675.92378 1471.2698,676.37218 1471.5627,676.66644 1472.5045,677.10948 1472.8418,677.22193 1473.7172,677.51394 1477.234,676.35639 1477.7282,675.86229 1477.8376,675.75376 1478.3987,675.92829 1478.4928,675.94739 1479.8888,676.22651 1481.9862,676.25035 1483.0391,676.07487 1483.5682,676.81755 1483.8588,677.91409 1484.3987,678.45417 1484.9869,679.04224 1488.965,678.67793 1489.7524,678.28418 1490.0196,678.1509 1489.8748,677.52686 1490.0067,677.26442 1490.3622,676.55361 1491.4549,675.62681 1492.2588,675.22496 1493.1844,674.76202 1495.3463,675.15406 1495.8702,674.63011 1496.2305,674.27007 1495.5279,672.29569 1496.0408,671.78334 1496.7285,671.09569 1497.9842,670.54102 1498.6753,670.12626 1500.6338,670.58893 1501.4615,672.06289 1502.6692,673.2705 1503.3456,673.9468 1504.3038,674.26766 1504.8787,674.8426 1505.043,675.00744 1505.2548,674.59374 1505.3034,674.54511 1505.4483,674.40056 1506.7879,674.50261 1507.088,674.50261 1507.4566,674.50261 1508.4475,674.58771 1508.7026,674.33262 1510.0191,673.01618 1511.0776,671.02278 1512.4842,669.61633 1513.1393,668.96105 1513.217,667.35373 1513.8438,666.72709 1515.0089,665.56182 1516.6983,664.49483 1517.2005,662.98802 1515.6825,661.80433 1517.6039,658.37776 1516.6055,657.37957 1516.4735,657.24822 1514.5039,655.52995 1514.566,655.46756 1515.2321,654.80172 1518.8949,655.86014 1519.3672,654.91519 1519.6763,654.29874 1519.2892,653.47434 1519.3672,653.00317 1519.7545,652.79777 1523.3614,652.97097 1523.3614,653.00317 1523.3614,653.76021 1522.6853,656.43753 1522.2992,657.20962 1521.9133,657.98131 1523.1264,662.64298 1523.3614,663.58297 1523.474,664.03276 1523.0685,665.71082 1523.2327,665.87738 1523.5861,666.23102 1524.4811,666.38882 1524.9322,666.72718 1526.7367,668.08064 1527.7429,670.68495 1529.0535,671.9958 1529.4772,672.41933 1529.0155,674.76827 1528.2889,674.16279 1528.4338,678.4323 1528.0313,675.60607 1530.5755,676.45544 1530.6425,675.81573 1530.7739,675.18291 1530.9786,674.55552 L 1530.9786,674.55552 C 1531.4506,673.10552 1532.1456,672.06202 1532.0886,670.49902 1532.0246,668.74202 1531.8593,667.54952 1532.9963,666.11152 1533.8603,665.02052 1535.3343,665.93252 1535.3043,667.14852 1535.9123,666.47952 1536.1956,665.93885 1536.6663,664.95952 1537.8547,662.48718 1536.1042,662.52135 1536.6669,661.85696 1538.0396,660.23622 1537.0066,657.42085 1538.5003,656.43752 1539.9373,655.49154 1540.5143,652.32452 1541.4203,650.88552 1542.3453,649.41752 1543.5423,650.09277 1544.9723,649.89377 1545.9233,649.76077 1545.7506,646.90952 1545.7676,646.24052 1545.8136,644.35252 1546.9159,642.96782 1547.2983,641.17152 1547.8515,638.57489 1547.4343,635.71229 1547.3453,633.89415 1547.2493,631.94338 1546.6479,629.55966 1547.3553,628.23452 1548.3461,626.37848 1548.649,623.85624 1549.4933,621.56752 1549.8215,620.67781 1550.2843,619.70152 1550.4873,618.77252 1550.7093,617.76052 1550.1696,616.96946 1550.3536,615.97246 1550.5416,614.95746 1550.3906,612.87277 1551.324,612.32177 1552.001,611.92177 1553.8822,612.67777 1554.1422,611.76177 1554.6482,609.98177 1554.389,609.79195 1556.351,609.04895 1557.435,608.63795 1559.9024,607.75354 1560.499,606.78558 1560.9528,606.04927 1562.1009,604.06496 1562.3705,603.7719 1562.2035,602.4239 1559.9203,602.57352 1559.8543,601.34152 1558.9203,602.18152 1556.2953,597.80252 1554.8913,597.56352 1552.4613,597.15052 1551.7383,592.44452 1551.6333,590.40552 1551.4833,587.50152 1550.6103,584.88352 1550.9883,582.02852 1551.1563,580.76452 1550.7313,579.32252 1550.2283,578.17652 1549.5323,576.59052 1550.9393,575.87352 1551.2843,577.43752 1551.1903,575.38252 1548.8313,574.08852 1548.2633,572.18152 1547.5773,569.87752 1548.5633,568.99152 1546.4413,567.50852 1544.8403,566.38952 1543.8163,564.27152 1542.1433,563.39752 1540.2743,562.42052 1538.7633,561.65652 1538.2533,559.43752 1537.5793,560.11952 1535.7963,562.80952 1534.7193,562.24552 1533.3073,561.50552 1532.8563,563.37352 1532.5543,564.23252 1531.9713,565.88752 1531.4763,566.83052 1529.6733,567.13952 1527.8873,567.44652 1527.4233,567.82152 1527.0523,569.61652 1526.2413,573.54152 1522.4053,570.54652 1520.5463,569.53352 1518.9343,568.65552 1516.1103,569.32552 1514.3503,569.39852 1512.0513,569.49352 1509.7203,569.54952 1507.4433,569.15752 1508.1962,568.46425 1507.8023,566.01323 1506.6933,567.79152 1505.5966,569.54997 1504.1713,569.22952 1502.3153,569.22952 1497.5753,569.22952 1492.8353,569.22952 1488.0963,569.22952 1478.4383,569.22952 1468.6451,569.13942 1458.9881,569.13942 1459.1821,574.89742 1459.3893,580.74855 1459.4833,586.50955 1456.9903,586.50955 1454.4963,586.50955 1452.0033,586.50955 L 1452.7233,623.73355 C 1451.4863,623.34955 1450.1963,622.87655 1448.9613,623.52155 1447.9423,624.05555 1446.9663,623.46055 1445.9283,623.97455 1443.5073,625.17255 1446.0573,626.98655 1444.5443,628.91455 1443.3313,630.45855 1443.1153,632.13855 1441.3583,633.07155 1440.2523,633.65755 1441.3833,636.40255 1442.0623,637.05255 1439.5433,639.06755 1437.9163,639.75155 1439.7233,643.15555 1440.4113,644.45155 1439.5533,644.99755 1438.4963,645.74355 1437.3673,646.54055 1437.1683,647.56655 1436.6623,648.78954 1437.6423,651.43552 1439.5003,648.94652 1441.1483,649.90152 1442.1233,650.46952 1440.6483,651.40252 1441.0943,652.16752 1441.6433,653.10152 1441.9353,654.34152 1441.6333,655.41052 1441.8923,655.27952 1442.1543,655.15952 1442.4233,655.05052 1443.2073,656.31052 1441.7363,657.70552 1442.3763,658.98152 1443.0103,660.25152 1444.6403,660.42152 1445.1913,661.34452 1446.0003,662.70052 1444.2963,663.94552 1444.8963,665.26352 1445.5163,666.62852 1446.6043,667.65552 1447.6463,668.69652 1449.5093,670.55952 1451.1343,673.31792 1451.1483,675.98492 1451.1663,676.48113 1451.2644,676.96723 1451.2644,677.42439 1451.2744,677.43549 1455.7251,677.42439 1455.7251,677.42439 1456.2355,677.61321 1456.3944,677.18807 1456.7895,676.81802 1457.481,676.75982 1457.6252,677.71703 1458.0313,676.39872 1458.5464,676.07845 1458.845,676.01729 1459.2023,675.52241 z" id="sd">
    <title>Sudan</title>
  </path>
  <path class="landxx ssd" d="M 1455.3606,685.71039 C 1455.3246,686.15771 1455.2221,686.61768 1455.2221,686.86302 1455.2221,688.49822 1457.3648,688.36235 1458.4687,688.53492 1459.2276,688.65368 1460.0802,688.82738 1460.6471,689.38934 1461.2529,689.98924 1461.5019,690.58131 1462.307,691.09618 1463.1067,691.60724 1463.5327,692.00521 1463.5327,692.7223 1463.5327,693.37908 1462.5245,694.09479 1463.0755,694.71067 1464.6387,696.46049 1466.609,697.26701 1468.6243,698.42691 1469.6647,699.02581 1469.3661,699.61676 1470.0008,700.48415 1470.4601,701.11303 1471.6014,701.33463 1471.8816,702.05829 1472.1979,702.87383 1471.0937,703.51863 1471.6949,704.36711 1472.029,704.84025 1472.8678,705.20257 1472.8678,705.86239 1472.8578,707.41356 1474.5037,707.69005 1475.7355,708.58044 1476.8157,709.36101 1478.5219,709.66844 1478.6571,711.25059 1478.7461,712.29168 1478.4394,713.42463 1479.1771,714.313 1479.7141,714.95884 1479.9865,716.06569 1480.6931,716.48294 1481.6745,717.06287 1482.0289,717.44321 1482.1931,718.60781 1482.3667,719.83059 1483.9732,719.968 1484.5723,720.74554 1484.8656,721.12607 1485.6676,721.39799 1486.073,721.6504 1487.608,722.61566 1487.9445,721.96897 1489.3846,721.04477 1491.5683,719.64313 1491.8817,721.14297 1493.7641,721.29879 1495.6604,721.45568 1495.1182,717.6319 1497.3909,719.59036 1498.1375,720.23316 1498.2518,721.06367 1498.7878,721.77538 1499.2879,722.43914 1499.69,723.30988 1500.2521,723.92276 1501.5028,725.29026 1505.1181,725.79206 1504.0009,728.22564 1505.0061,727.99007 1506.1422,728.03398 1506.2967,729.30367 1506.7391,728.21666 1508.1296,726.53999 1509.5411,726.85937 1510.3994,727.05302 1510.7783,728.1789 1511.7644,727.73472 1512.3314,727.4802 1513.3223,726.32402 1513.8822,727.09661 1514.6269,728.12274 1515.1707,728.60593 1516.5081,729.08806 1515.6446,727.04176 1520.0595,727.3222 1522.0457,726.28324 1523.1545,725.70334 1524.3569,727.06646 1525.8106,727.08576 1526.3492,727.09376 1528.0869,725.81409 1528.3508,725.5018 1529.7784,723.81285 1531.6303,720.25411 1533.836,719.92105 1537.2718,719.40226 1541.438,719.72067 1544.9665,719.52944 1544.3307,718.7259 1543.6686,718.134 1543.6686,717.03099 1543.6686,716.15459 1544.2264,715.11247 1543.8908,714.25404 1543.5976,713.49643 1543.8658,713.79175 1543.0068,713.05616 1542.1215,712.29789 1541.1426,712.11223 1540.2957,713.20491 1539.7515,712.67887 1539.999,711.86432 1539.3494,711.5 1538.8002,711.19158 1538.6089,710.40597 1538.3353,709.88193 1537.5976,708.46849 1537.5477,706.88339 1536.8282,705.48592 1536.2232,704.31008 1536.2869,702.39492 1535.0929,701.4909 1533.9985,700.6623 1533.4509,699.7937 1532.5856,699.39631 1531.8794,699.07196 1530.9396,696.81934 1529.9893,695.67641 1529.1381,694.65231 1528.4462,693.79887 1527.0176,693.05922 1525.7272,692.39104 1524.2504,692.67394 1523.0209,691.96024 1521.1433,690.87119 1523.3568,690.09095 1523.553,688.94901 1523.7966,687.5406 1523.521,686.54396 1525.2296,686.47026 1526.3487,686.42136 1527.6502,686.88751 1528.7054,686.77483 1532.165,686.40449 1530.7673,682.33706 1530.5905,680.06621 1530.4808,678.85142 1530.4455,677.64691 1530.5905,676.45776 1528.0353,675.60607 1528.4378,678.4323 1528.2929,674.16279 1529.0195,674.76827 1529.4812,672.41933 1529.0575,671.9958 1527.7469,670.68495 1526.7407,668.08064 1524.9362,666.72718 1524.4851,666.38882 1523.5901,666.23102 1523.2367,665.87738 1523.0725,665.71082 1523.478,664.03276 1523.3654,663.58297 1523.1304,662.64298 1521.9173,657.98131 1522.3032,657.20962 1522.6893,656.43753 1523.3654,653.76021 1523.3654,653.00317 1523.3654,652.97097 1519.7585,652.79777 1519.3712,653.00317 1519.2932,653.47434 1519.6803,654.29874 1519.3712,654.91519 1518.8989,655.86014 1515.2361,654.80172 1514.57,655.46756 1514.508,655.52996 1516.4775,657.24822 1516.6095,657.37957 1517.6079,658.37776 1515.6865,661.80433 1517.2045,662.98802 1516.7023,664.49483 1515.0129,665.56182 1513.8478,666.72709 1513.221,667.35373 1513.1433,668.96105 1512.4882,669.61633 1511.0816,671.02278 1510.0231,673.01618 1508.7066,674.33262 1508.4515,674.58771 1507.4606,674.50261 1507.092,674.50261 1506.7919,674.50261 1505.4523,674.40056 1505.3074,674.54511 1505.2584,674.59371 1505.047,675.00744 1504.8827,674.8426 1504.3078,674.26766 1503.3496,673.9468 1502.6732,673.2705 1501.4655,672.06289 1500.6378,670.58893 1498.6793,670.12626 1497.9882,670.54102 1496.7325,671.09569 1496.0448,671.78334 1495.5319,672.29569 1496.2345,674.27007 1495.8742,674.63011 1495.3503,675.15406 1493.1884,674.76202 1492.2628,675.22496 1491.4589,675.62681 1490.3662,676.55361 1490.0107,677.26442 1489.8788,677.52686 1490.0237,678.1509 1489.7564,678.28418 1488.969,678.67793 1484.9909,679.04224 1484.4027,678.45417 1483.8628,677.91409 1483.5722,676.81755 1483.0431,676.07487 1481.9902,676.25035 1479.8928,676.22651 1478.4968,675.94739 1478.4028,675.92829 1477.8416,675.75376 1477.7322,675.86229 1477.238,676.35639 1473.7212,677.51394 1472.8458,677.22193 1472.5085,677.10948 1471.5667,676.66644 1471.2738,676.37218 1470.8257,675.92378 1471.1048,674.54609 1470.5938,674.03525 1470.4521,673.89368 1470.1308,673.58016 1469.9988,673.31294 1469.7976,672.91034 1469.7751,672.28183 1469.4466,671.95331 1469.2687,671.77521 1468.5117,671.90981 1468.2992,671.69831 1468.0546,671.45357 1468.1231,669.78016 1467.6196,669.27643 1467.2474,668.90432 1464.9538,669.6052 1464.5604,669.99876 1463.9873,670.57178 1462.4915,669.85804 1462.0109,670.33868 1461.3312,671.01024 1461.9969,672.4343 1461.3312,673.10045 1460.9059,673.52581 1460.271,673.90582 1459.844,674.33263 1459.5718,674.60503 1459.5189,675.20908 1459.2067,675.52234 1458.9172,675.81068 1458.762,676.01974 1458.0312,676.4001 1457.5722,677.80447 1457.3756,676.4825 1456.7883,676.81911 1456.6366,677.07317 1456.1989,677.42439 1455.7251,677.42439 L 1451.2645,677.42439 C 1451.1925,678.66886 1450.9011,679.33009 1450.4783,679.63952 1449.8693,680.47252 1449.2473,680.71752 1449.4783,681.90752 1449.7423,681.81252 1450.0043,681.71652 1450.2683,681.62052 1450.4813,682.42052 1450.0413,683.14052 1449.7683,683.85152 1451.0813,684.09052 1454.0813,683.70252 1455.0603,684.75552 1455.3451,684.88907 1455.4267,685.22589 1455.3606,685.71039 z" id="ss">
    <title>South Sudan</title>
  </path>
  <path class="landxx ken" d="M 1530.7577,768.59905 C 1532.2762,767.49265 1528.4746,762.88701 1533.7418,763.9683 1533.7528,763.6813 1534.0422,763.08727 1533.7218,762.543 L 1536.8504,762.13724 C 1534.7732,758.99154 1533.8805,761.45984 1532.8926,762.32309 1532.0484,763.06084 1529.9821,759.79571 1530.0892,757.80592 1530.89,756.36229 1530.3594,755.70587 1531.8512,754.35255 1532.9583,753.34816 1533.8379,750.03562 1535.6352,749.22655 1536.488,748.84268 1536.3622,748.71155 1536.3152,747.95755 1536.2432,746.79355 1537.5992,746.23355 1537.8962,745.19755 1538.2492,743.96655 1538.3505,742.76055 1538.4725,741.52555 1538.5815,740.41455 1537.4642,739.62827 1537.2312,738.38255 1536.7084,735.58772 1534.9882,734.98055 1534.7312,733.74955 1534.5292,732.77255 1533.9852,731.94355 1533.6572,731.01355 1533.4382,730.60455 1533.3152,730.16955 1533.2872,729.70655 1533.2872,729.08355 1533.9852,728.72955 1533.7972,728.06055 1533.6302,727.47055 1532.9842,727.31555 1532.4862,727.12955 1531.3562,726.70855 1532.1832,725.85055 1530.9872,725.97255 1531.4761,724.85155 1530.0812,723.77355 1530.2151,722.99055 1530.3494,722.20529 1531.3062,721.59055 1531.8402,721.03055 1533.7032,719.07555 1535.9862,719.63655 1538.4302,719.63655 1539.8322,719.63655 1541.2372,719.52055 1542.6392,719.50555 1543.3262,719.49855 1544.0412,719.46455 1544.7232,719.57255 1545.3132,719.66555 1545.4942,720.69955 1546.2022,720.97355 1548.3832,721.82055 1550.8172,720.78655 1553.0432,721.81955 1555.3702,722.90055 1557.8602,724.89055 1559.6752,726.66855 1560.6002,727.57455 1561.3352,728.21055 1562.6692,728.35655 1563.5362,728.45155 1565.5112,727.91355 1566.1922,728.34855 1568.0962,729.56655 1571.0172,728.48455 1572.6752,730.07755 1572.9042,728.94455 1574.4632,727.29555 1575.1652,726.31955 1576.4132,724.58355 1579.0822,723.88855 1580.9262,723.02855 1582.8942,722.11155 1583.2392,724.27055 1584.7092,725.12955 1585.7182,725.71955 1586.8112,725.33455 1587.8602,725.14455 1588.7102,724.98955 1589.7252,725.55055 1590.5242,725.10955 1589.2992,727.21055 1588.1712,729.50655 1586.6792,731.43155 1585.1032,733.46355 1583.6902,734.59455 1583.6952,737.32455 1583.7062,743.77355 1583.7632,750.22155 1583.7572,756.67155 1583.7472,761.50455 1582.7892,766.08755 1586.0342,770.03655 1587.1342,771.37555 1588.7912,773.10455 1587.6102,774.85955 1586.9152,775.89455 1584.8442,777.78455 1583.5452,776.58955 1583.4412,776.84955 1583.3432,777.11255 1583.2552,777.37955 1583.0472,777.12955 1582.8572,776.86555 1582.6852,776.58955 1583.0252,777.37555 1583.8952,778.82455 1583.1152,779.61855 1582.9802,777.66055 1582.1712,779.90355 1581.9742,780.35455 1581.5712,781.28055 1580.7952,781.45855 1579.9112,781.58355 1577.9492,781.85955 1577.1582,783.59255 1577.7832,785.24555 1578.0692,786.00255 1576.6852,788.19255 1576.1152,788.65555 1575.1432,789.44455 1574.3272,794.75355 1573.2452,794.29955 1573.7172,796.35555 1571.6612,797.81655 1571.3052,799.69855 1570.4682,799.08955 1570.5642,800.15455 1569.8652,799.98955 1568.9832,799.78155 1567.8581,798.24284 1567.1772,797.72455 1564.1681,795.43408 1560.3931,792.94216 1558.5408,790.46893 1558.0513,789.81536 1557.1522,789.71055 1558.1772,788.57855 1559.6262,786.97855 1557.0906,785.05047 1555.7858,784.23442 L 1530.7125,768.55399" id="ke">
    <title>Kenya</title>
  </path>
  <path class="landxx cod" d="M 1363.8063,809.49855 C 1364.4923,808.97755 1365.3416,809.41875 1365.6106,808.48674 1365.8286,807.73174 1366.451,804.76555 1365.921,804.15855 1364.534,802.57055 1369.9153,800.17055 1370.9263,799.26755 1371.1993,800.41455 1372.8793,800.58155 1372.9463,801.78855 1373.4843,801.22955 1374.1953,800.89855 1374.7933,800.41755 1375.6093,799.76155 1375.2683,798.57255 1375.9763,797.82855 1377.1763,799.41955 1378.9733,796.37555 1380.3903,797.08455 1381.7403,797.76055 1380.4943,798.06155 1380.2863,798.90855 1380.0533,799.85955 1380.6563,800.90155 1380.6563,801.85755 1381.2553,801.08555 1382.5783,802.05955 1383.3863,801.49855 1384.5793,800.66955 1385.3203,799.09455 1386.2283,797.98255 1386.6993,797.40655 1388.6143,796.48155 1388.7153,795.95855 1388.9843,794.57655 1390.1343,794.24555 1391.2763,793.75855 1393.9333,792.62455 1394.4093,787.62055 1394.3453,785.23055 1394.2963,783.41155 1394.4623,781.76755 1394.2333,779.95155 1394.0143,778.20955 1396.207,777.76255 1396.9426,776.38455 1398.6756,773.13802 1398.5434,771.08368 1402.0653,768.69255 1403.5473,767.68636 1404.4503,766.50355 1405.4343,765.11555 1406.4143,763.73355 1405.7063,761.71555 1406.1043,760.13055 1406.4543,758.73855 1407.1353,752.76255 1407.1953,751.19555 1407.2633,749.42455 1408.2893,747.87155 1408.5803,746.14555 1408.8623,744.47455 1408.3743,742.70755 1408.7503,741.05355 1409.4573,737.93955 1411.3169,735.39202 1412.3819,732.43102 1413.0009,730.71102 1412.7033,728.89755 1412.6553,727.14355 1412.6333,726.33455 1413.0083,725.48655 1412.8793,724.69555 1412.7653,723.99055 1412.3453,723.40255 1412.1523,722.72455 1411.8463,721.64655 1413.7273,721.67555 1414.1583,720.69255 1414.7543,719.33555 1415.3823,718.14355 1416.4103,717.04555 1417.3943,715.99355 1418.6253,715.09355 1420.1323,715.10455 1421.4083,715.11355 1421.9183,716.21655 1422.7333,716.39755 1424.6273,716.81655 1426.3833,718.86355 1427.0903,720.60355 1427.6663,722.02455 1429.7083,720.96355 1430.8613,721.31055 1431.4863,721.49855 1431.7953,722.34355 1432.5143,722.30955 1433.1513,722.27855 1433.2823,722.16455 1433.9403,722.50055 1434.9313,723.00655 1435.1293,722.49855 1436.1023,722.43655 1436.7523,722.39455 1437.4673,722.73855 1438.0633,722.95855 1439.1383,723.35655 1440.6063,724.13155 1441.7793,723.71855 1443.8763,722.98055 1443.2323,717.96955 1446.0273,717.83855 1447.6163,717.76255 1448.0403,720.98055 1450.1153,719.01555 1450.9923,718.18455 1457.0533,717.38255 1456.6873,715.39055 1457.9423,715.33655 1458.3633,717.05955 1459.5683,716.93855 1461.0153,716.79255 1463.4953,716.57455 1464.0973,715.03055 1464.3223,714.45455 1463.7423,713.87955 1464.5033,713.49755 1465.4363,713.03155 1466.2023,713.30955 1466.9303,714.02555 1468.0963,715.17255 1469.1773,713.82255 1470.4663,714.43355 1471.1043,714.73555 1471.6323,715.21555 1472.2573,715.53855 1472.9853,715.91455 1473.5043,715.59455 1474.2753,715.71055 1476.1053,715.98555 1476.8153,713.95455 1478.7453,715.04855 1479.4793,715.46455 1482.0273,717.06955 1482.0273,718.01855 1482.0273,718.48355 1482.6303,719.63055 1483.0813,719.81455 1484.9773,720.58755 1486.7843,723.38155 1488.8093,721.47355 1489.9563,720.39155 1490.8033,720.17555 1492.3253,720.91855 1493.8893,721.68355 1494.5111,721.37409 1495.4343,719.55555 1496.6509,717.15905 1499.7571,723.16319 1499.9163,723.55555 1500.6284,725.31003 1505.367,725.5411 1503.9183,728.27855 1504.8393,728.06255 1505.9533,728.00555 1506.1833,729.17855 1506.2993,729.49155 1506.4583,729.78155 1506.6623,730.04555 1506.7913,730.64755 1505.97,731.77341 1506.0597,732.40068 1506.3476,734.41308 1506.0057,736.41592 1505.7198,738.33424 1505.569,739.34482 1506.3192,739.21208 1507.453,739.0118 1507.9738,738.9198 1509.9611,740.3074 1509.5985,741.40849 1508.733,744.03698 1505.4703,746.64455 1503.5943,748.59255 1502.9738,749.23655 1501.7247,750.95036 1500.9734,751.58286 1500.2222,752.21536 1500.1491,751.67646 1499.7176,752.50142 1499.1776,753.53542 1499.8383,754.79755 1499.1833,755.85555 1498.4573,757.02955 1497.7353,758.79855 1497.5803,760.18055 1497.4413,761.41855 1497.4583,762.66955 1497.3723,763.91155 1497.2713,765.36455 1497.076,766.63355 1496.927,768.01355 1496.819,769.02255 1497.0773,770.43855 1496.6133,771.36255 1496.0863,772.41355 1495.2337,772.80824 1494.4647,773.65924 1493.2747,774.97624 1493.3742,775.40055 1493.3312,776.94555 1493.3032,777.96355 1492.2122,779.10936 1491.6612,779.83636 1490.4452,781.43936 1492.1385,783.11379 1493.0776,784.6413 1493.7849,785.79167 1494.3011,786.60032 1493.7753,788.18524 1491.8638,789.85939 1494.1815,795.11705 1492.3734,796.84412 1493.6905,797.60071 1493.4499,794.20669 1493.9067,794.78129 1494.3593,797.4537 1492.6868,799.39177 1492.6738,802.01104 1492.6568,805.4135 1495.5232,806.98042 1494.3172,809.33255 1493.6208,810.69078 1492.8882,810.98973 1493.4768,811.86514 1494.3774,813.20471 1494.7597,815.41345 1496.5385,818.89733 1497.7272,821.22547 1501.124,820.78883 1501.331,826.39662 1501.412,828.59797 1503.13,827.39032 1503.7904,830.76699 1499.0834,831.83999 1495.6123,831.96255 1490.8923,832.97255 1492.8433,836.19655 1487.7803,837.53655 1486.8623,839.95155 1489.5783,840.78955 1488.6763,844.98655 1488.4933,847.03755 1488.3593,848.53055 1488.9253,849.94055 1488.8383,851.41855 1488.7923,852.19355 1488.6237,852.93005 1488.3147,853.59905 1487.8677,854.56705 1487.5543,855.29655 1487.3063,856.31855 1486.8173,858.32455 1486.1363,859.4723 1487.4103,861.4123 1488.2963,862.7623 1489.9285,864.46042 1491.0995,865.56742 1491.6245,866.06442 1494.4031,867.76756 1494.6203,866.73355 1495.0061,864.89719 1495.4884,865.24047 1497.2933,864.72155 1497.2933,867.61855 1497.1963,870.52655 1497.1183,873.42255 1497.1053,873.86955 1497.4393,875.77855 1496.6893,875.85355 1495.8113,875.94155 1495.6153,874.92555 1496.2223,874.44055 1494.9243,872.84755 1492.0133,877.81686 1490.6423,874.83286 1490.1853,873.83886 1489.757,872.57855 1489.087,871.67755 1488.706,871.16555 1487.6855,870.50655 1487.5675,869.90155 1487.3365,868.71855 1487.1023,867.34655 1485.6123,867.30455 1484.3643,867.26955 1483.8313,865.96455 1482.6323,865.82055 1481.6303,865.69955 1481.0163,866.4558 1480.3233,865.3548 1479.7873,864.5008 1479.7712,863.25655 1478.9882,862.55555 1477.8732,861.55555 1477.0804,858.07961 1476.1084,861.19761 1475.1054,864.41361 1473.35,862.72268 1470.841,862.81168 1469.15,862.87168 1468.7502,862.33474 1467.3232,861.68774 1467.2272,861.64474 1465.7272,861.28674 1465.6852,861.29374 1463.4092,861.69374 1462.7293,858.23155 1463.5323,856.65255 1462.1343,856.73155 1460.7289,857.02778 1459.4233,857.52255 1457.819,858.13051 1457.4797,858.92297 1455.6833,858.17255 1456.3754,856.93458 1456.416,855.30122 1455.8173,855.32955 1455.0379,855.36645 1454.7117,854.70298 1454.1709,854.19011 1452.9149,852.99914 1453.0879,854.40483 1452.7903,854.5078 1451.6777,854.89281 1451.1893,854.83555 1450.1853,854.5766 1448.9793,854.2636 1448.23,855.10736 1447.1613,855.48485 1445.7885,855.96975 1444.9152,855.04797 1444.026,855.2016 1443.7067,855.2568 1442.4373,855.1176 1442.3973,855.1386 1441.5383,855.6016 1441.0983,856.8996 1439.9153,856.8706 1440.1823,855.9816 1439.6493,855.2836 1439.4943,854.4486 1439.2803,853.3016 1440.072,853.09647 1440.324,852.21447 1440.907,850.16947 1440.1073,846.6196 1438.8653,844.9746 1437.3523,842.9676 1436.7043,841.7116 1436.8943,839.1136 1437.0903,836.4286 1438.0271,833.6116 1437.3291,830.9396 1437.0611,829.9186 1436.3351,829.0326 1436.3501,827.9496 1436.3681,826.7256 1437.0423,825.5796 1437.1353,824.3646 1437.2893,822.3626 1435.9933,822.58485 1434.3713,822.56985 1432.8273,822.55685 1431.2924,822.52935 1429.7523,822.59455 1426.5894,822.72855 1427.0718,822.03755 1427.9643,819.36055 1427.2553,819.36055 1426.5595,819.18068 1425.8695,819.45065 1425.4025,819.63265 1425.7463,819.83552 1425.4843,820.05952 1424.6473,820.77652 1420.8023,820.15052 1419.6843,820.15052 1420.0573,821.09652 1419.3646,822.20352 1419.5256,823.21452 1419.6566,824.03152 1419.6873,825.32852 1418.3843,825.05052 1418.8083,826.29652 1418.0543,827.53252 1418.3143,828.79052 1417.7853,828.78552 1414.3438,828.90527 1413.7853,828.58152 1412.1388,827.62712 1409.2379,829.40952 1408.6763,829.45952 1407.3669,829.24698 1406.1356,829.30884 1404.7043,829.31614 1402.8843,828.93614 1402.097,825.15252 1401.184,823.81852 1400.862,823.34852 1400.6123,823.01152 1400.2813,822.54452 1399.6693,821.68052 1399.949,821.06052 1399.821,820.13952 1399.594,818.50052 1397.8812,817.42441 1398.127,815.68371 1398.3479,814.11926 1398.127,812.81315 1397.3879,811.89852 1396.3636,810.62226 1396.3821,810.1521 1394.7893,810.22852 1390.4033,810.43896 1386.0553,810.61088 1381.6763,810.36127 1378.1393,810.15965 1373.9983,810.74452 1370.5253,810.07552 1367.7473,809.53952 1365.4453,813.67652 1363.8063,809.49852" id="cd">
    <title>Congo, the Democratic Republic of the</title>
  </path>
  <path class="world_map-is_selected landxx uga" d="M 1496.4963,769.60855 C 1496.9863,768.25455 1496.8293,766.43155 1497.0303,764.99555 1497.2833,763.18855 1497.4519,761.39647 1497.6873,759.57855 1497.974,757.36445 1499.255,756.09853 1499.4713,754.94455 1499.6031,754.24149 1499.3303,753.52655 1499.4713,752.81655 1499.6853,751.69955 1500.7403,751.98655 1501.2503,751.17855 1502.8033,748.72055 1505.2889,746.9696 1507.3909,744.7966 1508.2059,743.9526 1509.3023,742.48555 1509.6453,741.34755 1509.9273,740.41155 1508.1873,739.43055 1507.5133,739.07055 1506.9733,738.78155 1506.1593,739.66055 1505.7583,738.77355 1505.4413,738.07055 1505.6983,737.10755 1505.8443,736.39555 1506.2893,734.21355 1505.4723,732.45055 1506.5763,730.44755 1506.8993,729.86355 1506.1054,729.70928 1506.3044,729.09328 1506.5144,728.44128 1507.1093,727.89355 1507.6153,727.47555 1508.1133,727.06555 1508.7023,726.69155 1509.3833,726.81455 1509.9403,726.91555 1510.9873,728.07355 1511.5373,727.82455 1512.2413,727.50655 1513.2733,726.20955 1514.0233,727.19855 1514.8273,728.25655 1515.0443,728.63555 1516.4493,729.14155 1515.6611,727.83235 1517.8363,727.33255 1518.8573,727.18955 1520.1223,727.01238 1521.5656,725.99596 1522.8036,726.13996 1524.4986,726.33696 1525.0213,727.83355 1526.8713,726.55055 1528.1983,725.63155 1529.1203,724.25055 1530.1303,723.02055 1530.7193,723.81555 1531.3463,724.94755 1530.9903,725.97255 1532.1833,725.85155 1531.3912,726.72122 1532.517,727.05982 1533.6787,727.40919 1534.1226,727.6335 1533.6373,729.12255 1533.0056,731.06063 1534.9422,733.14369 1535.9503,735.44155 1536.148,735.89226 1537.3123,737.40855 1537.2903,737.80055 1537.2423,738.62955 1538.2214,739.8596 1538.4234,740.6666 1538.7784,742.0996 1538.4234,744.05233 1537.8037,745.48333 1537.2747,746.70433 1536.2583,746.88355 1536.5173,748.30455 1536.6513,749.04155 1535.4583,749.50355 1534.9133,749.77755 1533.8453,750.31655 1533.8003,751.75455 1533.1613,752.81855 1532.6833,753.61355 1531.8906,754.04228 1531.5596,754.86428 1531.1106,755.97728 1530.6989,756.79323 1530.1829,757.87323 1529.686,757.84003 1527.8546,758.44886 1528.1517,756.85068 1526.9892,757.29046 1527.3543,757.62287 1526.8758,757.6967 1525.4577,757.9155 1525.4376,757.0628 1526.501,757.1296 1526.228,756.55872 1525.2741,755.84572 1525.5962,755.43728 1524.8041,755.72725 1525.3274,755.51938 1524.2412,755.92533 L 1524.5857,756.5 C 1523.6383,756.75313 1524.3651,757.67973 1523.1711,757.6167 1523.3243,759.4781 1520.5237,758.51931 1520.2038,758.58367 1520.1468,758.61657 1520.3537,756.91304 1520.1458,757.19671 1518.7912,760.35232 1518.2972,758.67669 1518.0428,758.84269 1518.0928,759.51258 1517.5876,759.55546 1516.4211,759.67061 1515.8722,760.44944 1514.5763,760.43028 1514.6836,760.7047 1515.7046,763.31605 1513.5576,763.74792 1513.2212,765.58201 1512.9303,767.16845 1513.5108,767.25337 1513.6913,768.30028 1506.5023,768.30028 1515.252,768.61237 1508.0828,768.07655 1505.6075,767.89155 1502.6985,768.39827 1501.2498,770.19209 1500.7465,770.81525 1500.041,772.56249 1499.1614,771.98487 1498.9284,771.83184 1498.7926,770.99141 1498.3838,771.02355 1497.6838,771.07855 1496.5714,771.85331 1496.2408,772.08824 1496.4057,771.436 1497.323,770.30524 1496.5018,769.60855" id="ug">
    <title>Uganda</title>
  </path>
  <path class="landxx eth" d="M 1522.1263,691.34155 C 1522.2693,690.17555 1523.3803,689.55855 1523.3843,688.37355 1523.3943,686.34555 1524.8193,686.15455 1526.5263,686.44455 1528.0423,686.70255 1529.3563,687.18455 1530.4813,685.50855 1531.2593,684.35155 1530.7483,682.34055 1530.5943,681.06955 1530.3403,678.94855 1530.0273,676.66155 1530.8223,674.61755 1531.1343,673.81755 1531.5483,673.06155 1531.8403,672.25255 1532.2703,671.06455 1531.7973,670.26855 1531.7773,669.09255 1531.7573,667.91655 1532.3923,666.73355 1533.1533,665.85055 1534.0293,664.83455 1535.3353,666.04755 1535.3073,667.14755 1535.8133,666.59155 1537.8263,663.50955 1536.8223,662.54055 1536.2543,661.99055 1537.1713,660.68955 1537.3413,660.13555 1537.6743,659.04455 1536.9403,657.66555 1537.9103,656.77655 1539.4653,655.35155 1540.0863,653.47555 1541.0493,651.55555 1541.4553,650.74355 1541.7053,649.89655 1542.6973,649.84955 1543.1093,649.82955 1545.0563,650.04155 1545.2343,649.55055 1545.7763,648.05555 1545.6503,646.19555 1545.8833,644.62955 1546.0173,643.73855 1546.3803,643.04455 1546.7513,642.22355 1547.4143,640.75255 1547.2503,639.37755 1547.5463,637.84555 1548.1093,634.95255 1549.3253,636.01255 1551.5163,635.98955 1552.3623,635.98055 1552.5373,634.25755 1553.7263,634.94555 1554.6533,635.48155 1555.1663,636.71755 1555.7573,637.55755 1556.6493,635.34155 1557.5303,633.10755 1558.1273,630.78955 1558.4693,631.31755 1558.8553,631.98655 1559.4273,632.30155 1560.0513,632.64455 1560.7563,632.36855 1561.1333,633.12255 1561.8753,634.60455 1562.7833,634.77955 1564.3323,634.49855 1564.9043,634.39455 1565.5063,634.23955 1565.9583,633.84855 1566.2283,633.61455 1566.4623,632.72855 1566.7453,632.64855 1567.2673,632.50055 1568.1153,634.28855 1568.2173,634.67755 1569.6933,632.82555 1572.1823,634.97655 1573.6963,634.57355 1575.7743,634.02055 1577.9083,636.23655 1579.6803,636.98655 1582.0523,637.99055 1582.7413,641.05955 1584.6733,642.60355 1585.8343,643.53155 1587.3613,644.27455 1588.0813,645.64155 1588.7383,646.89155 1589.0483,647.93955 1590.2173,648.83455 1592.1813,650.33955 1593.0303,651.49555 1591.7313,653.77755 1590.1963,656.47455 1588.0963,658.00955 1588.5843,661.30355 1588.8263,662.93955 1588.1843,664.93255 1590.5263,664.77255 1591.8963,664.67855 1593.2553,664.02255 1594.5813,663.68555 1595.6563,663.41255 1596.068,664.35811 1597.072,664.02511 1596.964,665.73611 1594.9913,667.17644 1595.9402,669.16511 1597.0803,671.5542 1598.1225,672.16395 1599.6056,674.29205 1600.099,674.99992 1600.9763,677.35755 1601.5363,678.00755 1602.0973,678.65655 1602.5807,678.45399 1603.2317,678.98399 1604.2327,679.80099 1605.7799,681.53968 1607.0509,681.99668 1612.1559,683.83568 1616.7483,685.75255 1621.8393,687.63055 1624.2513,688.52055 1626.2045,689.57924 1628.7025,690.16824 1631.0185,690.71424 1633.9873,690.33355 1636.3273,690.33355 L 1614.9443,715.71555 C 1613.6363,717.24455 1612.6008,717.38993 1610.7465,717.13986 1607.6995,716.72895 1603.4348,716.5551 1599.4624,720.2078 1598.4114,721.17427 1598.0493,722.37455 1596.5183,722.67855 1595.1083,722.95955 1593.6176,722.91005 1592.3116,723.62505 1590.9006,724.39805 1590.9956,725.7208 1589.1416,725.2958 1587.5876,724.9388 1585.407,726.22042 1584.035,724.70142 1583.453,724.05542 1582.9844,723.05424 1582.0124,722.94024 1581.0754,722.83024 1579.8193,723.51255 1579.0073,723.88455 1577.7323,724.47055 1575.6066,725.59813 1574.793,726.79905 1573.9122,728.09934 1573.2831,729.08175 1572.6773,730.07655 1571.7123,729.14855 1569.5303,729.00655 1568.2723,729.12155 1567.3033,729.20955 1566.62,728.43461 1565.752,728.24961 1564.849,728.05861 1563.84,728.47823 1562.9329,728.39361 1559.2526,728.05035 1562.3546,727.57742 1552.6634,721.74599 1551.0116,720.75203 1548.608,721.88493 1546.5786,721.16768 1545.6385,720.83545 1544.2163,718.98955 1543.7963,718.13955 1543.2103,716.95455 1544.2123,715.38655 1543.8303,714.08555 1543.4863,712.91355 1541.0793,712.20255 1540.2763,713.22855 1539.7873,712.75455 1539.1043,711.34955 1538.7013,710.72355 1537.7693,709.27855 1537.4383,707.33755 1536.8103,705.73655 1536.3383,704.53455 1536.1033,703.17855 1535.4543,702.05155 1535.1553,701.53155 1534.7993,701.34655 1534.2933,701.09255 1533.7323,700.81255 1533.716,700.25561 1533.302,699.88561 1533.044,699.72061 1532.9433,699.57555 1532.6393,699.53855 1531.8463,699.31755 1531.7673,698.46555 1531.3463,697.89255 1530.4053,696.61455 1529.7683,695.05455 1528.5133,694.02955 1527.5943,693.27955 1526.4963,692.76655 1525.3183,692.62355 1524.2233,692.49255 1522.7093,692.48355 1522.1263,691.34155" id="et">
    <title>Ethiopia</title>
  </path>
  <g class="landxx coastxx tza" id="tz" transform="translate(-29.9017,-45.0745)">
    <title>Tanzania, United Republic of</title>
    <path d="M 1599.559,856.733 C 1599.841,858.532 1600.098,859.174 1601.521,860.41 1602.508,861.267 1602.794,856.922 1601.208,858.243 1601.467,857.138 1601.132,855.326 1600.559,854.352 1600.322,855.128 1599.321,855.84 1599.559,856.733" id="path4894"/>
    <path d="M 1603.298,847.873 C 1603.416,848.79 1604.205,849.559 1603.149,849.673 1603.4,849.829 1603.643,849.995 1603.878,850.173 1602.391,851.018 1603.725,852.309 1604.348,850.947 1605.086,849.332 1604.879,847.762 1603.369,847.154 1603.345,847.393 1603.321,847.633 1603.298,847.873" id="path4898"/>
    <path class="landxx tza" d="M 1527.5614,851.34618 C 1528.1381,847.11097 1528.2989,850.05803 1526.5102,846.25711 1526.1694,845.53294 1526.9575,844.23754 1526.5742,843.02741 1528.3242,842.8424 1528.6125,842.69458 1529.7465,841.396 1530.654,840.35681 1532.1304,838.93631 1533.0484,837.81167 1533.7133,836.99717 1532.3057,836.203 1532.5917,835.606 1532.9357,834.888 1534.3706,835.46779 1534.1186,834.61679 1533.9526,834.05379 1535.3765,833.243 1535.6765,832.954 1536.5345,832.128 1535.2995,831.157 1536.0475,830.373 1533.7495,831.02 1532.3075,829.637 1533.5975,827.573 1532.3475,827.693 1533.2265,826.776 1533.6845,826.049 1534.2665,825.126 1535.394,825.49114 1535.882,824.54914 1536.791,822.79314 1535.3931,819.64315 1534.604,817.95442 1534.0521,816.77319 1532.128,814.06959 1533.9577,813.47095 1536.2113,812.73364 1541.2344,813.30505 1543.6561,813.37675 1544.6635,817.16006 1542.9111,817.23926 1543.0432,817.67839 1543.499,819.19335 1542.1798,820.99345 1542.2306,821.36491 1543.0198,822.42517 1542.1566,823.43957 1542.3196,823.98737 1542.8671,825.82115 1543.3216,824.36658 1543.5431,828.84003 1543.6599,827.89243 1544.3558,827.38399 1544.9226,828.41524 1544.6979,826.57866 1544.9446,826.40243 1546.0852,826.54893 1545.2241,826.08027 1545.7898,825.0238 1547.1361,824.27302 1547.3984,824.53654 1548.7112,827.34557 1550.0922,825.55089 1549.9128,825.98086 1550.9215,826.1304 1551.0931,826.70106 1551.4314,827.82637 1551.4205,829.85464 1550.4358,829.40859 L 1551.0154,830.16512 C 1551.5052,829.59542 1550.6275,829.39107 1552.5689,829.23363 1551.4015,829.44534 1549.6394,822.84927 1555.7059,826.62527 1555.9715,825.00766 1560.0758,823.17326 1558.8327,823.04711 1557.3274,822.89434 1557.514,823.52684 1556.6829,823.41578 1554.1761,823.08074 1554.292,822.59212 1554.154,822.70171 1554.748,822.02203 1554.194,822.0232 1556.8078,821.83942 1556.5773,820.88414 1554.2236,821.40417 1554.7818,821.24555 1555.038,821.01319 1553.9814,820.61275 1556.8687,820.22524 1557.186,820.18264 1557.6253,819.6698 1557.4913,819.08953 1557.4103,818.73739 1557.8393,819.02753 1557.9784,818.84611 1556.8405,817.64655 1557.6423,817.50336 1557.9134,817.34874 1558.1796,817.19698 1558.4656,817.50095 1559.7391,817.7532 1559.4878,817.782 1558.7706,816.6755 1559.3499,816.03018 1559.703,815.56587 1559.3499,816.53794 1559.6815,816.10648 1559.2866,815.81966 1559.4229,815.15285 1559.7175,814.80338 1560.0146,814.42602 1560.4356,814.01307 1560.7305,813.63438 L 1583.5709,827.95519 C 1585.5049,829.18219 1587.9143,830.06478 1588.4903,832.41978 1588.7363,833.42978 1587.9384,833.39405 1587.7284,834.26005 1587.5734,834.89905 1588.6784,835.62105 1589.0414,836.15305 1590.2904,837.98605 1592.7704,839.21105 1594.4034,840.68505 1595.3754,841.56305 1599.9813,844.53123 1599.8093,845.81123 1599.5343,847.86523 1598.7884,850.17405 1597.9374,852.06605 1597.5044,853.02905 1597.0404,853.98305 1596.7304,854.99505 1596.5774,855.47305 1596.4804,855.96105 1596.4414,856.46105 1596.3984,857.14505 1597.0294,857.77005 1596.9214,858.37705 1596.4604,860.96805 1600.6484,861.16805 1600.1274,863.93205 1602.3904,863.21505 1602.0884,865.89405 1601.2394,866.96805 1599.8874,868.67605 1600.6794,870.69505 1599.7664,872.35205 1601.3354,870.92405 1601.2364,873.88605 1600.8704,874.64405 1600.3324,875.75705 1599.9044,877.10305 1600.0664,878.35405 1600.2164,879.51205 1601.9094,881.46205 1600.6364,881.71205 1601.6024,881.89605 1601.0374,883.69105 1601.7854,883.61705 1603.0044,883.49805 1602.3794,884.84505 1602.1144,885.43205 1601.6264,886.51805 1602.8944,886.91705 1603.1154,887.90905 1603.2384,888.46105 1602.8194,888.78805 1603.1154,889.34405 1603.5034,890.07205 1603.6794,890.51305 1602.9354,891.14205 1604.2014,890.90705 1604.6994,891.98505 1604.9454,893.01205 1604.8349,891.21802 1609.2306,893.80479 1607.8256,895.78862 1604.8003,898.12539 1602.137,899.4965 1599.3425,901.21783 1598.3275,901.57283 1598.1835,900.93173 1597.1595,901.28273 1596.0835,901.65073 1594.4564,902.94305 1593.3634,903.30205 1592.2834,903.65605 1590.9776,901.54569 1589.7554,902.15805 1588.3434,902.86554 1587.7389,905.01004 1586.2346,905.67523 1583.7231,906.78577 1583.2328,905.93614 1582.4371,905.25351 1580.8791,903.91682 1580.3107,906.37264 1578.5961,906.17351 1576.6253,905.94463 1575.9558,906.21281 1574.8724,904.84703 1574.0293,903.78415 1573.06,903.29257 1571.829,904.43105 1570.9596,905.23505 1567.9459,905.09175 1566.3964,904.77058 1566.252,904.63053 1566.1762,903.82791 1565.9772,903.53191 1565.4304,902.7187 1564.8758,901.90054 1564.4228,900.99954 1563.7918,899.74654 1564.2239,898.3844 1563.9619,897.0554 1563.6109,895.2814 1563.9119,893.64005 1563.4684,891.89505 1563.0054,890.07605 1561.8713,888.39117 1560.4266,887.26705 1559.0194,886.17216 1558.7445,888.29632 1558.8744,888.62205 1557.4384,887.07605 1556.0884,888.52005 1554.7404,887.04405 1554.3174,886.58005 1552.7216,886.46042 1552.1044,886.10205 1551.0574,885.49413 1550.1164,884.99608 1548.5466,884.76605 1548.2979,884.72965 1548.083,884.34446 1547.966,884.12346 1547.468,883.50846 1547.0619,883.656 1546.4249,883.337 1545.8279,883.039 1545.0344,883.14005 1544.4444,882.82705 1543.9004,882.53805 1543.7724,881.86005 1543.2734,881.61405 1542.8644,881.41205 1542.3893,881.90169 1541.9573,881.77569 1541.2533,881.56969 1541.1553,880.82101 1540.7823,880.30069 1540.0495,879.27862 1539.1191,879.09036 1538.1218,879.1601 1537.6526,878.10596 1535.1741,873.04688 1534.029,869.99849 1532.9723,867.18544 1533.7626,861.95897 1529.8237,860.46829 1529.2294,860.24337 1529.7136,860.92019 1529.0304,860.60478 1527.5859,859.93794 1526.1383,858.31111 1528.7013,855.78941 1529.6898,854.81692 1528.0125,852.96624 1527.5608,851.31437" id="path5432"/>
  </g>
  <path class="landxx bdi" d="M 1492.2463,783.28855 C 1493.1904,780.25239 1494.8321,783.57222 1495.0676,783.59959 1498.4254,783.98981 1499.097,782.89347 1499.3763,779.53855 1501.2216,781.12259 1500.6331,778.8301 1504.7955,780.27482 1504.0924,780.61673 1502.3062,782.56032 1503.6953,782.49855 1502.5234,785.56602 1504.8489,785.68582 1506.1453,785.29855 1505.3528,786.50352 1507.13,787.00976 1505.44,788.21731 1504.3961,788.9632 1504.43,788.54395 1504.1927,789.88653 1504.1337,790.21716 1502.9196,790.05287 1502.7156,790.47987 1502.4876,790.95487 1503.4474,792.04322 1503.3326,792.34419 1503.2576,792.54018 1502.7398,793.57794 1501.8636,794.22082 1500.4895,795.22907 1500.2963,796.41708 1498.8335,797.35828 1498.1135,797.82153 1497.3765,797.95895 1496.7349,797.96046 1496.4743,797.08612 1494.919,793.79663 1494.6159,792.71808 1494.1785,791.16132 1494.7953,789.54877 1493.7563,788.19655 1493.8786,787.43362 1494.2537,786.50266 1493.6433,785.65655 1493.1038,784.90861 1492.4923,784.20455 1492.2463,783.28855" id="bi">
    <title>Burundi</title>
  </path>
  <path class="landxx rwa" d="M 1491.1763,781.12855 C 1490.6473,780.03755 1493.3966,778.17192 1493.3686,776.71792 1493.3186,774.16292 1494.4694,773.055 1496.6474,771.788 1496.9184,771.63 1498.2223,770.80455 1498.5633,771.06955 1499.0243,771.42655 1499.1953,772.65955 1499.9363,771.84055 1500.5183,771.19755 1502.4223,768.36655 1503.4863,768.73855 1502.9903,770.20355 1504.2488,772.05305 1504.9158,773.13905 1505.7498,774.49605 1506.5983,776.82955 1506.3763,778.38755 1506.0963,780.34755 1504.9793,780.60255 1503.3243,779.97355 1501.4453,779.25955 1500.9893,780.96255 1499.3763,779.53755 1499.1443,781.30655 1499.2943,783.23655 1497.1543,783.68055 1496.0643,783.90655 1495.0483,784.04855 1494.5133,782.95755 1493.9253,781.75755 1492.3703,781.85355 1492.2453,783.28755 1491.5693,782.65355 1491.2403,782.06755 1491.1763,781.12855" id="rw">
    <title>Rwanda</title>
  </path>
  <path class="landxx caf" d="M 1451.1212,678.07255 C 1451.0027,680.12441 1449.2175,680.40209 1449.4879,681.91055 1449.7519,681.81555 1450.0139,681.71955 1450.2779,681.62355 1450.4909,682.42455 1450.0509,683.14355 1449.7779,683.85455 1451.3759,684.14555 1453.2569,683.73255 1454.7369,684.54655 1455.117,684.673 1455.3015,684.93581 1455.3009,685.41982 1454.8695,687.32716 1455.2209,687.96258 1456.7199,688.21755 1457.714,688.4613 1459.1099,688.28055 1459.9689,688.92855 1460.9699,689.68455 1461.4762,690.52096 1462.5569,691.32455 1464.2426,692.57805 1462.9497,693.54731 1462.9293,694.17699 1462.8953,695.23726 1464.3949,695.99924 1465.2129,696.48324 1466.0929,697.00524 1467.0564,697.58327 1467.9679,698.04955 1469.7467,698.95948 1469.2047,699.44987 1469.8589,700.48555 1470.3213,701.2176 1472.2951,701.58865 1471.7529,702.67455 1471.0309,704.12055 1471.6234,704.37114 1472.5128,705.2013 1473.3273,705.96141 1472.4128,706.59754 1473.8059,707.51255 1474.6942,708.09602 1475.5829,708.39155 1476.5589,708.89255 1478.1299,709.69855 1478.7174,710.64994 1478.6472,712.35861 1478.5812,713.95472 1479.6704,714.83063 1480.1599,716.18155 1478.9011,714.81222 1477.2193,714.25572 1476.1009,715.41942 1475.6269,715.91267 1474.6459,715.79055 1474.0649,715.73155 1473.7829,715.63655 1473.5099,715.65555 1473.2489,715.78855 1472.5959,716.11655 1472.3636,715.50474 1471.8646,715.30974 1470.8646,714.91974 1470.0446,714.10957 1468.9829,714.41255 1466.8598,715.01841 1466.7887,713.60553 1465.4338,713.3968 1464.5715,713.26395 1463.9672,713.8203 1464.1352,714.6773 1464.4102,716.0803 1462.754,716.29468 1461.775,716.60268 1460.799,716.90868 1459.4616,717.3538 1458.5536,716.69078 1458.0666,716.33578 1457.004,714.80759 1456.717,715.76259 1456.322,717.07259 1453.6444,717.94291 1452.5118,718.14891 1450.4389,718.52591 1449.1052,720.47435 1448.2269,719.51553 1447.2358,718.4335 1446.1273,716.86815 1444.4775,718.79215 1443.9758,719.37724 1444.0284,720.25859 1443.6434,720.89859 1443.1174,721.77259 1443.0089,722.95853 1442.0709,723.59953 1440.7629,724.49353 1437.6891,722.54013 1436.0622,722.60084 1435.1132,722.63624 1434.929,722.91573 1433.8187,722.54684 1432.6795,722.16837 1432.2901,722.72098 1431.4988,721.7429 1430.7046,720.76116 1429.0441,721.59477 1427.9301,721.39477 1426.5341,721.14377 1426.5075,719.21997 1425.7295,718.46314 1424.3744,717.14498 1422.3301,716.2334 1421.0292,715.44196 1419.197,714.32724 1416.5859,716.63152 1415.6579,718.23052 1415.1299,719.14052 1414.3729,720.04952 1414.0109,721.03652 1413.7269,721.80752 1412.6219,721.67596 1412.3319,722.11496 1411.8669,722.81796 1413.0406,724.26285 1412.9539,725.07752 1412.828,726.26033 1412.7121,726.77426 1412.7719,729.43152 1411.7739,727.77752 1409.254,729.20771 1407.554,728.95471 1406.791,728.84171 1405.4799,728.22452 1404.7759,727.89952 1403.4189,727.27352 1402.2995,728.5509 1400.9175,728.8239 1398.8825,729.2259 1397.2589,728.52452 1396.8109,731.04352 1396.5689,732.40352 1396.7099,733.88452 1396.4599,735.20152 1396.1259,736.96952 1394.9339,738.67552 1394.3309,740.37552 1393.8759,738.39552 1393.5129,736.63152 1393.3699,734.61852 1393.2259,732.59752 1391.0909,732.70352 1390.0299,731.52352 1389.5089,730.94252 1384.0749,724.59952 1386.5609,724.53652 1385.2749,723.62952 1385.5399,721.63552 1384.2219,720.60552 1382.5119,719.27052 1382.7609,717.35252 1382.6859,715.34552 1382.6579,714.59552 1381.6859,714.08252 1381.7129,713.57952 1381.7529,712.83752 1382.1829,712.07952 1382.2339,711.29752 1382.2909,710.44352 1382.2909,709.52152 1382.0519,708.69052 1381.8239,707.90952 1380.8709,708.27352 1380.5761,707.25354 1381.0663,706.45755 1381.8023,705.92855 1382.5093,705.34555 1383.6073,704.44155 1383.7123,703.40255 1384.4203,702.26655 1385.6243,700.33455 1386.4497,697.44227 1387.8027,695.60327 1389.4787,693.32227 1389.7453,694.882 1391.9013,694.255 1393.0263,693.928 1393.9093,693.69155 1395.0003,693.34255 1396.0773,692.99755 1395.7853,691.82355 1396.9263,691.41455 1397.2383,692.62355 1398.1843,693.31355 1398.8663,694.29455 1399.4693,693.09556 1401.3187,692.51185 1401.8849,692.08161 1403.6695,690.72565 1406.4687,690.18017 1408.6007,690.17517 1410.4667,690.17117 1412.3012,690.70048 1413.2153,688.97355 1413.8599,687.7558 1416.4812,685.5951 1416.3423,684.43255 1416.2563,683.71157 1414.6533,683.89741 1414.5822,682.97268 1414.4731,681.55328 1418.8256,681.51557 1419.9661,681.53461 1423.5273,681.59411 1427.4365,680.19691 1429.7613,677.31355 1430.9838,675.79739 1431.7383,674.16755 1433.3163,672.99555 1434.1153,672.40255 1436.349,670.38344 1435.903,669.45455 1435.3421,668.28642 1436.2628,667.11714 1437.6713,666.77755 1439.2627,666.39385 1440.4951,664.39323 1442.3522,664.34936 1444.5957,664.29636 1445.1131,665.75286 1446.1052,666.95524 1447.6648,668.84522 1449.3555,670.2525 1450.2786,672.27436 1451.2105,674.34432 1451.3255,676.03561 1451.1212,678.07255 z" id="cf">
    <title>Central African Republic</title>
  </path>
  </svg>